<svg id="Layer_1" data-name="Layer 1" xmlns="http://www.w3.org/2000/svg" xmlns:xlink="http://www.w3.org/1999/xlink" viewBox="0 0 110.21 150.96"><defs><style>.cls-1{fill:none;}.cls-2{fill:url(#linear-gradient);}.cls-3{fill:url(#linear-gradient-2);}</style><linearGradient id="linear-gradient" x1="2.17" y1="75.48" x2="108.04" y2="75.48" gradientUnits="userSpaceOnUse"><stop offset="0.01" stop-color="#9ad09d"/><stop offset="0.64" stop-color="#43c6cf"/><stop offset="1" stop-color="#17c1e8"/></linearGradient><linearGradient id="linear-gradient-2" x1="67.13" y1="108.46" x2="64.33" y2="165.93" xlink:href="#linear-gradient"/></defs><path class="cls-1" d="M71.75,17.27a23.2,23.2,0,0,0-6.74.94C64.64,19,75.82,30,63.43,48c-7.54,11-13,10.21-19.11,20.08-2.47-5.16-5.92-33.4,8.35-43.4l-1.17.88C38.73,35.56,28.89,49,22.94,67.12c-8.47,25.74-3.26,53.63,12.56,66.27,2.53,2,8.43,4.31,8.58,4C38.36,118.6,45.28,98.56,49.6,90c9.91-19.63,22.15-30.86,28.61-54.92C81.18,24,79.89,17.35,71.75,17.27Z"/><path class="cls-1" d="M46.83,49.72s5.64-18,13.35-28.73C60.18,21,45.05,32.15,46.83,49.72Z"/><path class="cls-1" d="M46.83,49.72s5.64-18,13.35-28.73C60.18,21,45.05,32.15,46.83,49.72Z"/><path class="cls-1" d="M71.75,17.27a23.2,23.2,0,0,0-6.74.94C64.64,19,75.82,30,63.43,48c-7.54,11-13,10.21-19.11,20.08-2.47-5.16-5.92-33.4,8.35-43.4l-1.17.88C38.73,35.56,28.89,49,22.94,67.12c-8.47,25.74-3.26,53.63,12.56,66.27,2.53,2,8.43,4.31,8.58,4C38.36,118.6,45.28,98.56,49.6,90c9.91-19.63,22.15-30.86,28.61-54.92C81.18,24,79.89,17.35,71.75,17.27Z"/><path class="cls-1" d="M71.75,17.27a23.2,23.2,0,0,0-6.74.94C64.64,19,75.82,30,63.43,48c-7.54,11-13,10.21-19.11,20.08-2.47-5.16-5.92-33.4,8.35-43.4l-1.17.88C38.73,35.56,28.89,49,22.94,67.12c-8.47,25.74-3.26,53.63,12.56,66.27,2.53,2,8.43,4.31,8.58,4C38.36,118.6,45.28,98.56,49.6,90c9.91-19.63,22.15-30.86,28.61-54.92C81.18,24,79.89,17.35,71.75,17.27Z"/><path class="cls-1" d="M46.83,49.72s5.64-18,13.35-28.73C60.18,21,45.05,32.15,46.83,49.72Z"/><path class="cls-1" d="M82.71,21C88.08,29.25,78.42,52,68.44,68c-9.74,15.57-15.29,22.64-17.27,44.9-1.47,16.67,8.68,25.77,8.68,25.77,19-4.82,26.54-21.13,31.16-30.94,9.42-21,10.42-48.85,4.07-68.59C92.37,30.66,87.81,23.85,82.71,21Z"/><path class="cls-1" d="M71.75,17.27a23.2,23.2,0,0,0-6.74.94C64.64,19,75.82,30,63.43,48c-7.54,11-13,10.21-19.11,20.08-2.47-5.16-5.92-33.4,8.35-43.4l-1.17.88C38.73,35.56,28.89,49,22.94,67.12c-8.47,25.74-3.26,53.63,12.56,66.27,2.53,2,8.43,4.31,8.58,4C38.36,118.6,45.28,98.56,49.6,90c9.91-19.63,22.15-30.86,28.61-54.92C81.18,24,79.89,17.35,71.75,17.27Z"/><path class="cls-1" d="M46.83,49.72s5.64-18,13.35-28.73C60.18,21,45.05,32.15,46.83,49.72Z"/><path class="cls-1" d="M82.71,21C88.08,29.25,78.42,52,68.44,68c-9.74,15.57-15.29,22.64-17.27,44.9-1.47,16.67,8.68,25.77,8.68,25.77,19-4.82,26.54-21.13,31.16-30.94,9.42-21,10.42-48.85,4.07-68.59C92.37,30.66,87.81,23.85,82.71,21Z"/><path class="cls-2" d="M72.18,3.61C41.75-1.72,11.24,27.1,4,68c-7.33,41.43,7.73,73.91,38.43,79.26s56.21-19,63.54-60.87C113,46.18,102.27,8.87,72.18,3.61ZM60.18,21C52.47,31.76,46.83,49.72,46.83,49.72,45.05,32.15,60.18,21,60.18,21ZM49.6,90c-4.32,8.55-11.24,28.59-5.52,47.37-.15.32-6-2-8.58-4-15.82-12.64-21-40.53-12.56-66.27C28.89,49,38.73,35.56,51.5,25.6l1.17-.88C38.4,34.72,41.85,63,44.32,68.12,50.45,58.25,55.89,59,63.43,48,75.82,30,64.64,19,65,18.21a23.2,23.2,0,0,1,6.74-.94c8.14.08,9.43,6.75,6.46,17.82C71.75,59.15,59.51,70.38,49.6,90ZM91,107.7c-4.62,9.81-12.12,26.12-31.16,30.94,0,0-10.15-9.1-8.68-25.77,2-22.26,7.53-29.33,17.27-44.9C78.42,52,88.08,29.25,82.71,21c5.1,2.86,9.66,9.67,12.37,18.12C101.43,58.85,100.43,86.69,91,107.7Z"/><path class="cls-3" d="M75.28,109.33s-23.69,5.5-15.71,29.83C76.55,135.78,70.19,121.15,75.28,109.33Z"/></svg>