<svg width="256" height="256" viewBox="0 0 256 256" fill="none" xmlns="http://www.w3.org/2000/svg">
<path d="M128 256C198.692 256 256 198.692 256 128C256 57.3076 198.692 0 128 0C57.3076 0 0 57.3076 0 128C0 198.692 57.3076 256 128 256Z" fill="#F09242"/>
<path d="M128.065 36.5712C105.282 36.5712 83.3238 45.0973 66.5102 60.4723L59.9165 54.0289C78.4631 36.9304 102.765 27.4375 127.991 27.4375C153.216 27.4375 177.518 36.9304 196.064 54.0289L189.621 60.4723C172.808 45.0973 150.849 36.5712 128.065 36.5712Z" fill="white"/>
<path d="M195.568 66.3593L202.012 59.916V59.7656C219.109 78.3122 228.603 102.614 228.603 127.839C228.603 153.065 219.109 177.367 202.012 195.914L195.568 189.47C210.943 172.656 219.469 150.698 219.469 127.915C219.469 105.131 210.943 83.1729 195.568 66.3593Z" fill="white"/>
<path d="M60.4723 189.532C45.1156 172.722 36.6006 150.776 36.6006 128.008C36.6006 105.24 45.1156 83.295 60.4723 66.4853L54.0289 60.042C36.9304 78.5884 27.4375 102.89 27.4375 128.116C27.4375 153.342 36.9304 177.644 54.0289 196.19L60.4723 189.532Z" fill="white"/>
<path d="M127.978 219.385C150.761 219.385 172.719 210.859 189.533 195.484L196.127 201.928C177.58 219.026 153.278 228.519 128.052 228.519C102.827 228.519 78.5255 219.026 59.979 201.928L66.4223 195.484C83.2359 210.859 105.194 219.385 127.978 219.385Z" fill="white"/>
<path fill-rule="evenodd" clip-rule="evenodd" d="M168.68 106.5C167.392 93.0551 155.794 88.5447 141.124 87.1702V68.6562H129.784V86.8265H120.721V68.6562H109.466V87.299H86.4634V99.434C86.4634 99.434 94.8397 99.2837 94.7108 99.434C96.2211 99.2678 97.737 99.6944 98.9389 100.624C100.141 101.553 100.935 102.913 101.154 104.417V155.448C101.122 155.978 100.984 156.496 100.748 156.973C100.511 157.449 100.182 157.872 99.7795 158.219C99.3844 158.572 98.9219 158.842 98.42 159.011C97.9181 159.181 97.3869 159.247 96.8586 159.207C97.009 159.336 88.6111 159.207 88.6111 159.207L86.4634 172.76H109.251V191.703H120.592V173.038H129.655V191.616H141.017V172.888C160.176 171.728 173.535 167.003 175.209 149.069C176.563 134.636 169.776 128.192 158.93 125.594C165.523 122.351 169.604 116.337 168.68 106.5ZM152.787 146.835C152.787 159.77 132.441 159.472 123.157 159.337C122.328 159.325 121.587 159.314 120.957 159.314V134.314C121.744 134.316 122.704 134.295 123.793 134.271C133.337 134.06 152.787 133.63 152.787 146.835ZM147.525 111.612C147.525 123.392 130.689 123.094 122.909 122.955C122.179 122.942 121.527 122.93 120.978 122.93V100.207C121.62 100.207 122.399 100.187 123.282 100.164C131.214 99.9576 147.525 99.5334 147.525 111.612Z" fill="white"/>
<path fill-rule="evenodd" clip-rule="evenodd" d="M62.7996 225.55C82.0917 238.445 104.774 245.329 127.978 245.333C143.391 245.336 158.652 242.303 172.892 236.406C187.13 230.51 200.069 221.865 210.967 210.967C221.865 200.069 230.51 187.13 236.406 172.892C242.303 158.652 245.336 143.391 245.333 127.978C245.329 104.774 238.445 82.0917 225.55 62.7996C212.656 43.5074 194.33 28.4719 172.892 19.5938C151.453 10.7159 127.862 8.3941 105.104 12.9222C82.3455 17.4502 61.4408 28.6246 45.0327 45.0327C28.6246 61.4408 17.4502 82.3455 12.9222 105.104C8.3941 127.862 10.7159 151.453 19.5938 172.892C28.4719 194.33 43.5074 212.656 62.7996 225.55ZM67.9384 38.0762C85.7063 26.1876 106.6 19.8331 127.978 19.8161C142.188 19.8048 156.26 22.5945 169.39 28.0256C182.52 33.4568 194.451 41.4228 204.501 51.4683C214.55 61.5137 222.521 73.4416 227.957 86.5698C233.394 99.6981 236.19 113.769 236.183 127.978C236.175 149.357 229.829 170.253 217.948 188.025C206.066 205.798 189.182 219.65 169.43 227.829C149.678 236.008 127.944 238.148 106.977 233.978C86.0086 229.809 66.7474 219.517 51.6276 204.402C36.5077 189.288 26.2078 170.032 22.0298 149.065C17.8518 128.099 19.9832 106.365 28.1545 86.6095C36.3259 66.8543 50.1705 49.9649 67.9384 38.0762Z" fill="white"/>
</svg>
