<svg xmlns="http://www.w3.org/2000/svg" fill="none" viewBox="281.44557823129253 198.49319727891157 302.18367346938777 331.8095238095238" style="max-height: 500px" width="302.18367346938777" height="331.8095238095238">
<path fill="url(#paint0_linear_26_94)" d="M538.22 219.37L436.296 409.824C418.343 443.369 425.631 485.714 454.727 516.88L459.508 522L569.356 316.74C582.521 292.143 577.175 261.098 555.843 238.247L538.22 219.37Z"/>
<path fill="url(#paint1_linear_26_94)" d="M569.356 316.74L490.28 464.496C546.552 359.344 503.907 283.485 503.907 283.485C505.022 281.404 506.09 279.406 507.138 277.447L511.722 268.88C512.37 267.67 513.002 266.489 513.622 265.33L517.625 257.851C519.517 254.313 521.264 251.051 522.865 248.063L523.799 246.32C526.794 240.729 529.255 236.123 531.245 232.405C531.245 232.405 534.436 226.445 535.056 225.283L536.116 223.304C536.496 222.593 536.818 221.989 537.093 221.478L538.09 219.617C538.176 219.452 538.227 219.366 538.227 219.366L555.851 238.239C577.175 261.094 582.521 292.143 569.356 316.74Z"/>
<path fill="url(#paint2_linear_26_94)" d="M569.356 316.74L459.508 522C515.78 416.848 503.911 283.485 503.911 283.485C505.026 281.404 534.436 226.449 535.056 225.287C535.056 225.287 536.818 221.993 537.089 221.486L538.086 219.625C538.172 219.46 538.223 219.374 538.223 219.374L555.847 238.247C577.175 261.094 582.521 292.143 569.356 316.74Z"/>
<path fill="url(#paint3_linear_26_94)" d="M521.421 250.764C521.915 249.841 538.086 219.625 538.086 219.625C538.172 219.46 538.223 219.374 538.223 219.374L555.847 238.247C577.179 261.098 582.525 292.143 569.36 316.74L510.537 426.655V426.659C554.81 343.918 532.811 275.978 521.421 250.764Z" opacity="0.42"/>
<path fill="url(#paint4_linear_26_94)" d="M555.843 238.247C577.175 261.098 582.521 292.143 569.356 316.74L556.804 340.192C567.374 288.032 554.473 247.156 546.011 227.717L555.843 238.247Z" opacity="0.42"/>
<path fill="url(#paint5_linear_26_94)" d="M330.141 510.736L422.554 316.234C438.831 281.974 429.482 239.928 398.914 209.927L393.894 205L294.294 414.622C282.358 439.742 289.215 470.57 311.627 492.565L330.141 510.736Z"/>
<path fill="url(#paint6_linear_26_94)" d="M294.294 414.625L365.991 263.725C314.971 371.111 361.25 445.258 361.25 445.258C360.241 447.382 359.272 449.424 358.318 451.426L354.162 460.174C353.577 461.406 353 462.616 352.438 463.798L348.808 471.438C347.093 475.05 345.507 478.383 344.059 481.434L343.215 483.213C340.503 488.925 338.269 493.625 336.464 497.422C336.464 497.422 333.571 503.507 333.01 504.693L332.048 506.715C331.703 507.442 331.408 508.058 331.165 508.576L330.262 510.476C330.184 510.645 330.141 510.736 330.141 510.736L311.627 492.565C289.215 470.574 282.358 439.742 294.294 414.625Z"/>
<path fill="url(#paint7_linear_26_94)" d="M294.294 414.625L393.894 205.004C342.873 312.39 361.25 445.262 361.25 445.262C360.241 447.386 333.575 503.511 333.01 504.697C333.01 504.697 331.412 508.062 331.165 508.58L330.262 510.48C330.184 510.649 330.141 510.74 330.141 510.74L311.627 492.569C289.215 470.574 282.358 439.742 294.294 414.625Z"/>
<path fill="url(#paint8_linear_26_94)" d="M345.374 478.674C344.926 479.616 330.262 510.477 330.262 510.477C330.184 510.645 330.141 510.736 330.141 510.736L311.627 492.565C289.215 470.57 282.358 439.742 294.294 414.622L347.626 302.371V302.367C307.482 386.867 332.766 453.923 345.374 478.674Z" opacity="0.42"/>
<path fill="url(#paint9_linear_26_94)" d="M311.627 492.569C289.215 470.574 282.358 439.745 294.294 414.625L305.672 390.675C297.677 443.251 312.553 483.605 321.953 502.706L311.627 492.569Z" opacity="0.42"/>
<path fill="url(#paint10_linear_26_94)" d="M251.78 654H240.58L215.22 615.68V654H204.02V598.08H215.22L240.58 636.48V598.08H251.78V654ZM293.888 643.36H271.648L267.968 654H256.208L276.288 598.08H289.328L309.408 654H297.568L293.888 643.36ZM290.848 634.4L282.768 611.04L274.688 634.4H290.848ZM351.714 598.16V607.2H336.834V654H325.634V607.2H310.754V598.16H351.714ZM367.886 598.16V654H356.686V598.16H367.886ZM425.911 598.16L405.431 654H391.831L371.351 598.16H383.351L398.711 642.56L413.991 598.16H425.911ZM440.626 607.2V621.2H459.426V630.08H440.626V644.88H461.826V654H429.426V598.08H461.826V607.2H440.626ZM486.084 654.56C482.458 654.56 479.284 653.92 476.564 652.64C473.844 651.36 471.711 649.627 470.164 647.44C468.671 645.253 467.818 642.827 467.604 640.16H471.364C471.791 643.093 473.151 645.707 475.444 648C477.791 650.293 481.338 651.44 486.084 651.44C488.858 651.44 491.258 650.933 493.284 649.92C495.364 648.907 496.964 647.52 498.084 645.76C499.204 644 499.764 642.053 499.764 639.92C499.764 637.2 499.098 635.04 497.764 633.44C496.484 631.84 494.858 630.64 492.884 629.84C490.964 629.04 488.351 628.187 485.044 627.28C481.418 626.32 478.484 625.36 476.244 624.4C474.058 623.44 472.191 621.973 470.644 620C469.151 617.973 468.404 615.227 468.404 611.76C468.404 609.093 469.098 606.667 470.484 604.48C471.924 602.24 473.951 600.48 476.564 599.2C479.178 597.92 482.191 597.28 485.604 597.28C490.564 597.28 494.564 598.507 497.604 600.96C500.644 603.413 502.458 606.427 503.044 610H499.204C498.884 608.56 498.164 607.093 497.044 605.6C495.978 604.107 494.431 602.88 492.404 601.92C490.431 600.907 488.058 600.4 485.284 600.4C481.551 600.4 478.404 601.44 475.844 603.52C473.284 605.547 472.004 608.267 472.004 611.68C472.004 614.4 472.671 616.587 474.004 618.24C475.338 619.84 476.964 621.067 478.884 621.92C480.858 622.72 483.498 623.547 486.804 624.4C490.484 625.413 493.391 626.4 495.524 627.36C497.711 628.267 499.551 629.733 501.044 631.76C502.591 633.733 503.364 636.427 503.364 639.84C503.364 642.347 502.698 644.72 501.364 646.96C500.031 649.2 498.058 651.04 495.444 652.48C492.884 653.867 489.764 654.56 486.084 654.56ZM576.301 597.84L560.781 654H556.861L541.501 603.44L525.901 654H522.141L506.861 597.84H510.701L524.141 648.96L539.581 597.84H543.581L558.861 649.28L572.381 597.84H576.301ZM613.878 639.6H587.238L581.878 654H577.958L598.598 599.12H602.598L623.158 654H619.238L613.878 639.6ZM612.758 636.56L600.598 603.84L588.358 636.56H612.758ZM662.994 613.68C662.994 618.64 661.448 622.507 658.354 625.28C655.261 628 650.674 629.36 644.594 629.36H632.594V654H628.994V597.84H644.594C650.781 597.84 655.394 599.28 658.434 602.16C661.474 604.987 662.994 608.827 662.994 613.68ZM644.594 626.16C654.461 626.16 659.394 622 659.394 613.68C659.394 609.573 658.221 606.453 655.874 604.32C653.528 602.133 649.768 601.04 644.594 601.04H632.594V626.16H644.594Z"/>
<defs>
<linearGradient gradientUnits="userSpaceOnUse" y2="390.098" x2="435.304" y1="361.624" x1="554.349" id="paint0_linear_26_94">
<stop stop-color="#2A0056" offset="0.000294"/>
<stop stop-color="#8A0BFF" offset="1"/>
</linearGradient>
<linearGradient gradientUnits="userSpaceOnUse" y2="387.151" x2="437.725" y1="321.325" x1="553.535" id="paint1_linear_26_94">
<stop stop-color="#A553FF"/>
<stop stop-color="#AE38FF" offset="0.9994"/>
</linearGradient>
<linearGradient gradientUnits="userSpaceOnUse" y2="431.087" x2="396.488" y1="344.029" x1="549.652" id="paint2_linear_26_94">
<stop stop-color="#A553FF"/>
<stop stop-color="#AE38FF" offset="0.9994"/>
</linearGradient>
<linearGradient gradientUnits="userSpaceOnUse" y2="358.238" x2="464.861" y1="306.384" x1="556.09" id="paint3_linear_26_94">
<stop stop-color="#8A0BFF"/>
<stop stop-opacity="0" stop-color="#2A0056" offset="0.9994"/>
</linearGradient>
<linearGradient gradientUnits="userSpaceOnUse" y2="296.963" x2="529.591" y1="277.034" x1="564.652" id="paint4_linear_26_94">
<stop stop-color="#8A0BFF"/>
<stop stop-opacity="0" stop-color="#2A0056" offset="0.9994"/>
</linearGradient>
<linearGradient gradientUnits="userSpaceOnUse" y2="335.905" x2="424.237" y1="369.411" x1="307.282" id="paint5_linear_26_94">
<stop stop-color="#2A0056" offset="0.000294"/>
<stop stop-color="#8A0BFF" offset="1"/>
</linearGradient>
<linearGradient gradientUnits="userSpaceOnUse" y2="339.071" x2="422.03" y1="409.553" x1="309.887" id="paint6_linear_26_94">
<stop stop-color="#A553FF"/>
<stop stop-color="#AE38FF" offset="0.9994"/>
</linearGradient>
<linearGradient gradientUnits="userSpaceOnUse" y2="293.48" x2="461.001" y1="386.705" x1="312.674" id="paint7_linear_26_94">
<stop stop-color="#A553FF"/>
<stop stop-color="#AE38FF" offset="0.9994"/>
</linearGradient>
<linearGradient gradientUnits="userSpaceOnUse" y2="369.072" x2="396.386" y1="424.589" x1="308.054" id="paint8_linear_26_94">
<stop stop-color="#8A0BFF"/>
<stop stop-opacity="0" stop-color="#2A0056" offset="0.9994"/>
</linearGradient>
<linearGradient gradientUnits="userSpaceOnUse" y2="432.939" x2="334.842" y1="454.259" x1="300.919" id="paint9_linear_26_94">
<stop stop-color="#8A0BFF"/>
<stop stop-opacity="0" stop-color="#2A0056" offset="0.9994"/>
</linearGradient>
<linearGradient gradientUnits="userSpaceOnUse" y2="609.317" x2="-82.3634" y1="626" x1="936.006" id="paint10_linear_26_94">
<stop stop-color="#AAAAAA"/>
<stop offset="1"/>
</linearGradient>
</defs>
</svg>