<svg id="Layer_1" data-name="Layer 1" xmlns="http://www.w3.org/2000/svg" viewBox="0 0 64 64"><defs><style>.cls-1{fill:#00ffb0;}.cls-2{fill:#002028;}</style></defs><polygon class="cls-1" points="45.8 8 32 0 30.4 0.9 23.5 4.9 16.2 9.1 8.3 13.7 4.3 16 4.3 48 9.3 50.9 17.3 55.5 24.8 59.9 31.7 63.9 32 64 49.9 53.7 59.7 48 59.7 16 45.8 8"/><path class="cls-2" d="M55.1,36l-1-.6L43.4,29.3,31.9,22.7,27,19.8l3.4-1.9,1.3-.8,10.6,6.1,6.3,3.6,1.8,1.1V21.3l-.7-.3L39.5,15.1,32,10.8l-3.7,2.1-8.2,4.7-4.2,2.5,6,3.5,11.3,6.5,10.5,6.1,9.9,5.7,1.5.8v2.6l-2.6,1.5L38.9,54.7,32,58.6,27.5,56l-8-4.6-8.6-4.9-2-1.2V28.2l3.8,2.2,10.4,6L32.8,42l4,2.3L32.1,47l-.4-.3-9.2-5.2-8.9-5.1v6.2L21.2,47l8.6,4.9L32,53.2l9.9-5.7,6-3.5-4.6-2.7-9.9-5.6L22.9,29.6,11.5,23,8.9,21.5V18.7l1.2-.7,8.2-4.7,7.8-4.5L32,5.4l3.2,1.8,6,3.5,8.8,5,5.1,3Z"/></svg>