<svg viewBox="0 0 256 256" fill="none" xmlns="http://www.w3.org/2000/svg"><g clip-path="url(#clip0)"><path d="M118.83 2.54466L24.4882 57.0566C21.6046 58.721 19.2096 61.1158 17.5441 64.0002C15.8785 66.8846 15.0011 70.157 15 73.4884V182.512C14.9954 185.852 15.8699 189.135 17.5356 192.029C19.2012 194.924 21.5991 197.328 24.4882 199.001L118.83 253.456C121.712 255.126 124.982 256.005 128.312 256.005C131.641 256.005 134.911 255.126 137.793 253.456L232.135 199.001C235.021 197.335 237.417 194.938 239.082 192.051C240.748 189.164 241.624 185.889 241.623 182.555V73.4884C241.625 70.1564 240.749 66.8829 239.083 63.998C237.417 61.1131 235.02 58.7188 232.135 57.0566L137.793 2.54466C134.911 0.874973 131.641 -0.00427246 128.312 -0.00427246C124.982 -0.00427246 121.712 0.874973 118.83 2.54466V2.54466Z" fill="#00FFB0"/><path d="M133.191 75.3359C130.958 74.1443 128.35 73.8674 125.917 74.5635C123.484 75.2597 121.416 76.8744 120.15 79.0671C118.884 81.2598 118.519 83.8588 119.131 86.3159C119.743 88.773 121.286 90.8959 123.432 92.2367L200.417 136.713C201.9 137.568 203.58 138.018 205.291 138.018C207.002 138.017 208.682 137.567 210.164 136.712C211.646 135.856 212.878 134.626 213.735 133.145C214.592 131.663 215.044 129.982 215.047 128.27V83.2533C215.049 81.5415 214.599 79.8597 213.744 78.3774C212.888 76.8951 211.658 75.6646 210.176 74.8099L133.191 30.3333C131.708 29.4749 130.025 29.0228 128.311 29.0228C126.598 29.0228 124.915 29.4749 123.432 30.3333L46.4474 74.8099C44.967 75.6679 43.7381 76.9002 42.8837 78.3834C42.0294 79.8666 41.5797 81.5484 41.5797 83.2604C41.5797 84.9723 42.0294 86.6542 42.8837 88.1373C43.7381 89.6205 44.967 90.8528 46.4474 91.7108C46.4474 91.7108 155.334 155.092 178.259 168.468C182.648 171.012 182.805 174.538 178.259 177.182L133.105 203.265C131.679 204.215 130.004 204.721 128.29 204.721C126.577 204.721 124.902 204.215 123.475 203.265L75.1819 175.334L64.4579 169.136C62.1996 167.849 60.5447 165.716 59.8575 163.208C59.1702 160.699 59.5069 158.021 60.7933 155.761C62.0798 153.5 64.2107 151.844 66.7173 151.157C69.2239 150.469 71.9008 150.806 74.1592 152.093L104.484 169.634V169.776L123.376 180.707C125.617 182.002 128.281 182.352 130.781 181.682C133.281 181.012 135.412 179.375 136.706 177.132C138 174.889 138.351 172.223 137.681 169.721C137.011 167.22 135.375 165.087 133.134 163.792L56.1913 119.315C54.7028 118.457 53.0142 118.007 51.2962 118.011C49.5783 118.015 47.8918 118.473 46.4074 119.338C44.9229 120.203 43.6931 121.446 42.8421 122.939C41.9912 124.433 41.5494 126.124 41.5613 127.844V172.818C41.5615 174.529 42.0118 176.21 42.867 177.692C43.7222 179.175 44.9521 180.405 46.4332 181.261L123.418 225.752C124.904 226.603 126.586 227.051 128.297 227.051C130.009 227.051 131.691 226.603 133.176 225.752L210.161 181.261C211.644 180.408 212.876 179.177 213.731 177.695C214.587 176.212 215.036 174.53 215.033 172.818C215.082 171.086 214.653 169.373 213.794 167.869C212.934 166.365 211.678 165.126 210.161 164.289C206.894 162.384 101.274 100.907 78.3493 87.6171C73.9603 85.0727 73.8041 81.5333 78.3493 78.8895L123.518 52.8204C124.943 51.867 126.619 51.3581 128.333 51.3581C130.047 51.3581 131.723 51.867 133.148 52.8204L176.072 77.6386L192.35 87.0343C194.595 88.3273 196.235 90.46 196.909 92.9631C197.583 95.4662 197.235 98.1347 195.943 100.382C194.651 102.628 192.52 104.27 190.019 104.944C187.518 105.618 184.851 105.271 182.606 103.978L152.224 86.4373V86.2951L133.191 75.3359Z" fill="#003340"/></g><defs><clipPath id="clip0"><rect width="226.623" height="256" fill="white" transform="translate(15)"/></clipPath></defs></svg>