<?xml version="1.0" encoding="utf-8"?>
<!-- Generator: Adobe Illustrator 24.0.0, SVG Export Plug-In . SVG Version: 6.00 Build 0)  -->
<svg version="1.1" id="Layer_1" xmlns="http://www.w3.org/2000/svg" xmlns:xlink="http://www.w3.org/1999/xlink" x="0px" y="0px"
	 viewBox="0 0 563.9 512" style="enable-background:new 0 0 563.9 512;" xml:space="preserve">
<style type="text/css">
	.st0{fill:#FFFFFF;fill-opacity:0;}
	.st1{fill:#BCBEC0;}
	.st2{fill:#FFFFFF;}
	.st3{fill:#ED1C24;}
	.st4{fill:#BE1E2D;}
	.st5{fill:#231F20;}
</style>
<g id="Layer_2_1_">
	<g id="Layer_1-2">
		<rect x="18.6" class="st0" width="512" height="512"/>
		<rect x="464.5" y="241.9" class="st1" width="33.1" height="33.1"/>
		<polygon class="st2" points="364.9,308.1 331.8,308.1 298.5,308.1 265.4,308.1 232.2,308.1 199.1,308.1 199.1,341.3 199.1,374.4 
			199.1,407.5 232.2,407.5 232.2,440.6 265.4,440.6 298.5,440.6 331.8,440.6 364.9,440.6 398.1,440.6 398.1,407.5 398.1,374.4 
			398.1,341.3 398.1,308.1 		"/>
		<polygon class="st1" points="364.9,275 331.8,275 298.5,275 298.5,241.9 265.4,241.9 265.4,275 232.2,275 199.1,275 165.9,275 
			165.9,308.1 165.9,341.3 165.9,374.4 165.9,407.5 165.9,440.6 199.1,440.6 232.2,440.6 232.2,407.5 199.1,407.5 199.1,374.4 
			199.1,341.3 199.1,308.1 232.2,308.1 265.4,308.1 298.5,308.1 331.8,308.1 364.9,308.1 398.1,308.1 398.1,275 		"/>
		<polygon class="st1" points="265.4,473.7 298.5,473.7 331.8,473.7 331.8,440.6 298.5,440.6 265.4,440.6 232.2,440.6 232.2,473.7 
					"/>
		<polygon class="st2" points="497.5,208.8 497.5,175.7 464.5,175.7 464.5,208.8 431.2,208.8 431.2,241.9 464.5,241.9 497.5,241.9 
			530.8,241.9 530.8,208.8 		"/>
		<polygon class="st2" points="331.8,76.4 331.8,109.5 364.9,109.5 364.9,142.6 398.1,142.6 398.1,109.5 398.1,76.4 364.9,76.4 		
			"/>
		<polygon class="st2" points="298.5,175.7 265.4,175.7 265.4,208.8 232.2,208.8 232.2,241.9 265.4,241.9 298.5,241.9 331.8,241.9 
			331.8,208.8 298.5,208.8 		"/>
		<rect x="232.2" y="43.4" class="st2" width="33.2" height="33"/>
		<polygon class="st2" points="232.2,109.5 199.1,109.5 199.1,76.4 165.9,76.4 165.9,109.5 132.7,109.5 132.7,142.6 165.9,142.6 
			165.9,175.7 199.1,175.7 199.1,142.6 232.2,142.6 		"/>
		<rect x="497.5" y="175.7" class="st3" width="33.2" height="33.1"/>
		<polygon class="st3" points="464.5,142.6 464.5,109.5 431.2,109.5 398.1,109.5 398.1,142.6 364.9,142.6 364.9,109.5 331.8,109.5 
			331.8,76.4 331.8,43.4 298.5,43.4 265.4,43.4 265.4,76.4 232.2,76.4 199.1,76.4 199.1,109.5 232.2,109.5 232.2,142.6 199.1,142.6 
			199.1,175.7 165.9,175.7 165.9,142.6 132.7,142.6 132.7,109.5 99.6,109.5 99.6,142.6 99.6,175.7 132.7,175.7 132.7,208.8 
			165.9,208.8 165.9,241.9 199.1,241.9 232.2,241.9 232.2,208.8 265.4,208.8 265.4,175.7 298.5,175.7 298.5,208.8 331.8,208.8 
			331.8,241.9 364.9,241.9 398.1,241.9 431.2,241.9 431.2,208.8 464.5,208.8 464.5,175.7 497.5,175.7 497.5,142.6 		"/>
		<rect x="66.3" y="241.9" class="st1" width="33.2" height="33.1"/>
		<rect x="33.2" y="208.8" class="st1" width="33.1" height="33.1"/>
		<polygon class="st4" points="431.2,241.9 398.1,241.9 364.9,241.9 331.8,241.9 298.5,241.9 298.5,275 331.8,275 364.9,275 
			398.1,275 431.2,275 464.5,275 464.5,241.9 		"/>
		<polygon class="st4" points="199.1,241.9 165.9,241.9 165.9,208.8 132.7,208.8 132.7,175.7 99.6,175.7 99.6,142.6 66.3,142.6 
			66.3,175.7 33.2,175.7 33.2,208.8 66.3,208.8 66.3,241.9 99.6,241.9 99.6,275 132.7,275 165.9,275 199.1,275 232.2,275 265.4,275 
			265.4,241.9 232.2,241.9 		"/>
		<polygon class="st5" points="530.8,175.7 530.8,208.8 530.8,241.9 563.9,241.9 563.9,208.8 563.9,175.7 		"/>
		<rect x="497.5" y="241.9" class="st5" width="33.2" height="33.1"/>
		<rect x="497.5" y="142.6" class="st5" width="33.2" height="33.1"/>
		<rect x="464.5" y="109.5" class="st5" width="33.1" height="33.1"/>
		<polygon class="st5" points="431.2,275 398.1,275 398.1,308.1 398.1,341.3 398.1,374.4 398.1,407.5 398.1,440.6 431.2,440.6 
			431.2,407.5 431.2,374.4 431.2,341.3 431.2,308.1 464.5,308.1 497.5,308.1 497.5,275 464.5,275 		"/>
		<polygon class="st5" points="431.2,109.5 464.5,109.5 464.5,76.4 431.2,76.4 398.1,76.4 398.1,109.5 		"/>
		<polygon class="st5" points="331.8,440.6 331.8,473.7 364.9,473.7 398.1,473.7 398.1,440.6 364.9,440.6 		"/>
		<polygon class="st5" points="364.9,76.4 398.1,76.4 398.1,43.4 364.9,43.4 331.8,43.4 331.8,76.4 		"/>
		<polygon class="st5" points="265.4,473.7 232.2,473.7 232.2,506.8 265.4,506.8 298.5,506.8 331.8,506.8 331.8,473.7 298.5,473.7 
					"/>
		<polygon class="st5" points="298.5,43.4 331.8,43.4 331.8,10.3 298.5,10.3 265.4,10.3 232.2,10.3 232.2,43.4 265.4,43.4 		"/>
		<polygon class="st5" points="199.1,440.6 165.9,440.6 165.9,473.7 199.1,473.7 232.2,473.7 232.2,440.6 		"/>
		<polygon class="st5" points="232.2,76.4 232.2,43.4 199.1,43.4 165.9,43.4 165.9,76.4 199.1,76.4 		"/>
		<polygon class="st5" points="165.9,374.4 165.9,341.3 165.9,308.1 165.9,275 132.7,275 99.6,275 66.3,275 66.3,308.1 99.6,308.1 
			132.7,308.1 132.7,341.3 132.7,374.4 132.7,407.5 132.7,440.6 165.9,440.6 165.9,407.5 		"/>
		<polygon class="st5" points="165.9,109.5 165.9,76.4 132.7,76.4 99.6,76.4 99.6,109.5 132.7,109.5 		"/>
		<rect x="66.3" y="109.5" class="st5" width="33.2" height="33.1"/>
		<rect x="33.2" y="241.9" class="st5" width="33.1" height="33.1"/>
		<rect x="33.2" y="142.6" class="st5" width="33.1" height="33.1"/>
		<polygon class="st5" points="33.2,175.7 0,175.7 0,208.8 0,241.9 33.2,241.9 33.2,208.8 		"/>
		<polygon class="st5" points="217,307 217,340.2 250.1,340.2 250.1,307 250.1,273.9 217,273.9 		"/>
		<polygon class="st5" points="318.5,273.9 318.5,307 318.5,340.2 351.6,340.2 351.6,307 351.6,273.9 		"/>
	</g>
</g>
</svg>
