<svg xmlns="http://www.w3.org/2000/svg" xmlns:xlink="http://www.w3.org/1999/xlink" viewBox="0 0 646.47 646.47"><defs><style>.cls-1{isolation:isolate;}.cls-2{opacity:0.6;fill:url(#radial-gradient);}.cls-3{fill:#a5d3cc;}.cls-3,.cls-6{mix-blend-mode:multiply;}.cls-4{opacity:0.28;}.cls-5{fill:#eacae1;}.cls-6{fill:#78b5ae;}.cls-7{fill:#fffae0;}.cls-8{fill:#fffceb;}.cls-9{fill:#c7c6c4;}.cls-10{fill:#1d1d1b;}.cls-11{fill:#dbdbdb;}.cls-12{fill:#fff;}</style><radialGradient id="radial-gradient" cx="323.23" cy="323.23" r="323.23" gradientUnits="userSpaceOnUse"><stop offset="0" stop-color="#fff"/><stop offset="0.25" stop-color="#bababa"/><stop offset="0.62" stop-color="#575757"/><stop offset="0.88" stop-color="#181818"/><stop offset="1"/></radialGradient></defs><title>Toon Raiders Round</title><g class="cls-1"><g id="Layer_12" data-name="Layer 12"><circle class="cls-2" cx="323.23" cy="323.23" r="323.23"/><circle class="cls-3" cx="323.23" cy="323.23" r="323.23"/><path class="cls-4" d="M173.1,185.12s55.52-16.31,75.31-12.42,16.86,6.11,29.33,14.89,7.77-9.21,7.77-9.21-5.47-34.3-28.89-38S173.1,185.12,173.1,185.12Z" transform="translate(-1.99 -0.49)"/><path class="cls-4" d="M335.24,169.21c-5.47,9,43.63-16.87,69.51-12.43s33.82,35,36,41.06,25.64-62.64-19.08-71.12S340.72,160.18,335.24,169.21Z" transform="translate(-1.99 -0.49)"/><path class="cls-4" d="M153.78,228.52l-23.19,4.34,17.26,82.9L114.24,323,98.43,238.85l-28.67,5.38-6.91-32.16,83.77-16.87Z" transform="translate(-1.99 -0.49)"/><path class="cls-4" d="M427.4,317l22-107.31,49.93,51.11,7.09-47.59L545.82,219,524.54,336.16,470.61,291l-6,33.78Z" transform="translate(-1.99 -0.49)"/><path class="cls-4" d="M308.05,251.29s23.71-47.58,78.71-37.7,43.1,67.84,43.1,67.84-.39,68.19-119,12.72c7.74,8.2,12.4,11,20.4,15.2,85.15,44.43,109.34-4.34,114.18-20,5.3-17.12.64-82.88-59.45-90.76-38.34-5-62.75,16.81-73,34A33.07,33.07,0,0,0,308.05,251.29Z" transform="translate(-1.99 -0.49)"/><path class="cls-4" d="M310,245.16c-23.26-8.54-32.94-35-58-40.53s-83.75-7.93-99.84,46.93,47.75,61.22,72.1,64.86c36.29,5.42,95.72-15.45,95.72-15.45L336,308.74s-35.51,8.36-64,15.57c-18.27,4.62-36.81,6.33-50.13,4.82-25.3-2.86-103-20.72-85.38-79.13s85.09-65.67,119.17-56,36.12,29,58,40.72Z" transform="translate(-1.99 -0.49)"/><path class="cls-4" d="M97.65,457.06,75.36,417.22v29l-40.6-1.34,3.91-121.41,2.43-.67a101.55,101.55,0,0,1,40-2.87c12,1.57,21.81,5.63,29,12.09,9.08,8.07,14,19.81,14.75,34.9a43.88,43.88,0,0,1-1,14.2,38.35,38.35,0,0,1-5,12.19,30,30,0,0,1-7.93,8.32l20.35,26.26ZM68.53,391l31,55.39L122,427l-21.21-27.39,3.61-1.89a22.75,22.75,0,0,0,8.79-8.05,31.47,31.47,0,0,0,4-10,36.88,36.88,0,0,0,.9-12.05l0-.22c-.59-13.23-4.79-23.4-12.47-30.23-6.18-5.53-14.71-9-25.36-10.41a94.84,94.84,0,0,0-34.93,2L41.8,438.31l26.73.88Zm4.89-9.5a16.48,16.48,0,0,1-2-.11l-3-.35-.29-34.56,3.5.07A21,21,0,0,1,80.86,349a17.16,17.16,0,0,1,6.49,5.54A17.82,17.82,0,0,1,90.11,365h0c-.24,9.43-5.41,13.45-9.71,15.16A19,19,0,0,1,73.42,381.53ZM75,353.94l.18,20.62a13,13,0,0,0,2.69-.75c2.22-.89,5.23-2.79,5.39-9a11,11,0,0,0-1.6-6.5,10.21,10.21,0,0,0-3.91-3.27A16.16,16.16,0,0,0,75,353.94Z" transform="translate(-1.99 -0.49)"/><path class="cls-4" d="M524.93,457.92,497.57,421.6l3.8,28.79L461,455l-12.16-120.9,2.27-1a101.64,101.64,0,0,1,39.28-8.69c12.13-.19,22.34,2.42,30.34,7.77,10.06,6.68,16.53,17.61,19.2,32.47a44.36,44.36,0,0,1,.87,14.25,38.76,38.76,0,0,1-3.32,12.78,30.8,30.8,0,0,1-6.72,9.4l23.58,23ZM487.4,396.76l37.92,50.33L545,424.48l-24.57-24,3.27-2.38a23.85,23.85,0,0,0,7.63-9.32A31.9,31.9,0,0,0,534,378.27a37.35,37.35,0,0,0-.72-12.1l0-.22c-2.32-13-7.8-22.47-16.28-28.1-6.84-4.57-15.73-6.8-26.45-6.63a94.86,94.86,0,0,0-34.37,7.15l11,109,26.57-3Zm2.82-10.11c-.43,0-.86.06-1.29.07l-3,0-4.87-34.12,3.43-.45a21.52,21.52,0,0,1,9.49,1,16.69,16.69,0,0,1,7.21,4.59,17.62,17.62,0,0,1,4.09,10h0c1,9.35-3.57,14.08-7.58,16.4A18.48,18.48,0,0,1,490.22,386.65ZM488.85,359l2.92,20.42a13.44,13.44,0,0,0,2.51-1.12c2.11-1.22,4.86-3.58,4.2-9.77h0a10.83,10.83,0,0,0-2.4-6.18,9.7,9.7,0,0,0-4.25-2.64A15.84,15.84,0,0,0,488.85,359Z" transform="translate(-1.99 -0.49)"/><path class="cls-4" d="M140.57,315l11.68,19.62L182,332.05l4.1-20.4L229.73,323l-41.52,133.5L111.08,342.75Zm47.07,23.46-39.07,3.33-9.51-16-19.06,18,65.9,97.18,35.18-113.12-29.75-7.72ZM159.57,360l24-1.53-6.19,31.28Zm15.56,5.85-3.95.25,2.93,4.91Z" transform="translate(-1.99 -0.49)"/><path class="cls-4" d="M274.34,443.17l-39.61,3L223.78,323.5,267.31,321Zm-33.41-4.32,26.21-2-6.25-108.65-29.69,1.69Z" transform="translate(-1.99 -0.49)"/><path class="cls-4" d="M314.29,437.82a134.28,134.28,0,0,1-18.45-1.34,105.19,105.19,0,0,1-15-3l-2.47-.71.69-115.95,2.41-.72c13.41-4,28.23-5.55,44-4.51,23.81,1.32,40.05,13.06,48.21,34.9a77.81,77.81,0,0,1,3.33,11.76,86.34,86.34,0,0,1,1.43,10.18,57.85,57.85,0,0,1,.25,9.8c-.18,18.66-5.54,33.26-15.9,43.38-8.35,8.08-19.79,13.18-34,15.17A102.83,102.83,0,0,1,314.29,437.82Zm-29.07-10.19a127.92,127.92,0,0,0,42.65,2.44c12.78-1.79,22.94-6.26,30.21-13.3,9-8.82,13.69-21.84,13.84-38.67v-.24a53.22,53.22,0,0,0-.23-8.77,83.49,83.49,0,0,0-1.33-9.44,70.22,70.22,0,0,0-3-10.72c-7.23-19.33-21-29.3-42.24-30.48A118.88,118.88,0,0,0,285.85,322Zm36.85-28.39a29.29,29.29,0,0,1-9.52-1.57l-2.44-.83,2.37-43.64,2.3-.69a34.27,34.27,0,0,1,14-1,17.71,17.71,0,0,1,11.2,5.37,21,21,0,0,1,4.72,9.29,31.63,31.63,0,0,1,.54,11.91c-.9,6.52-3.23,11.65-6.93,15.28A20.14,20.14,0,0,1,327,398.85,31.28,31.28,0,0,1,322.07,399.24Zm-4.86-7.35a23.69,23.69,0,0,0,8.7.22,13.25,13.25,0,0,0,7.6-3.64c2.61-2.55,4.27-6.37,5-11.36v0a24.86,24.86,0,0,0-.43-9.34,14.2,14.2,0,0,0-3.11-6.26,10.9,10.9,0,0,0-7-3.2,28.74,28.74,0,0,0-8.92.22Z" transform="translate(-1.99 -0.49)"/><path class="cls-4" d="M364.15,448.42l14.19-126.95,78.05,5.89-3.16,40.72-39.55-5.24-.5,6.76,20.5,2.32-2.74,37.81-21-4.19-.65,7.38,35.12,3.72-3.27,39.15Zm20.24-119.64-12.68,113.5,63.17,6.05,2.14-25.6L401.86,419l1.93-21.66,20.9,4.18L426.4,378l-20.52-2.33,1.53-20.52L447,360.37l2.07-26.71Z" transform="translate(-1.99 -0.49)"/><path class="cls-4" d="M579.64,453.57a55.25,55.25,0,0,1-14.27-2.16A115.35,115.35,0,0,1,548,445.2l-3.25-1.43L561,410.51l3.3,2.46c3.68,2.73,6.84,4,9.17,3.72a1.9,1.9,0,0,0,1.06-.32s.44-.62.09-2.74a11.73,11.73,0,0,0-3-5.85,38,38,0,0,0-8-6l-5.52-3.26c-2.25-1.3-4.23-2.55-5.83-3.67-10.11-6.83-16.4-15.67-18.66-26.23a42.22,42.22,0,0,1,2.68-26.47A39,39,0,0,1,553,323.75a52.76,52.76,0,0,1,31-6.46,59.72,59.72,0,0,1,17,4.18l2.91,1.15L594,355.76l-3.45-1.36c-4.42-1.73-10.07-3.16-11.91-.09-2.24,3.63.31,8.47,7.57,14.4A123.09,123.09,0,0,0,598,377.09l5.35,3.37a44.06,44.06,0,0,1,4.2,3,34.57,34.57,0,0,1,12.09,19.61,39.69,39.69,0,0,1-1.81,23.06c-3,7.79-7.12,13.95-12.26,18.33-5.84,4.92-13.35,7.92-22.36,8.91A31.24,31.24,0,0,1,579.64,453.57Zm-25.59-13.22a101.41,101.41,0,0,0,13.07,4.46c6.07,1.65,11.22,2.25,15.33,1.79,7.64-.85,13.93-3.31,18.69-7.34,4.25-3.62,7.72-8.86,10.3-15.55A32.94,32.94,0,0,0,613,404.58a27.59,27.59,0,0,0-9.8-15.87,39.07,39.07,0,0,0-3.5-2.5l-5.38-3.38A126.28,126.28,0,0,1,581.84,374c-10.31-8.41-13.37-16.23-9.06-23.22,3-5,8.64-6.33,16.73-3.92l6-20.09a50.21,50.21,0,0,0-12.11-2.65,46.14,46.14,0,0,0-27.1,5.62,31.77,31.77,0,0,0-13.79,15.22,35.05,35.05,0,0,0-2.24,22.25c1.91,8.89,7.09,16.1,15.86,22,1.48,1,3.3,2.18,5.43,3.41l5.52,3.26a43.85,43.85,0,0,1,9.64,7.33,18.56,18.56,0,0,1,4.68,9.27c.56,3.38.1,6.07-1.38,8a7.89,7.89,0,0,1-5.7,3c-3.25.42-6.76-.49-10.65-2.77Z" transform="translate(-1.99 -0.49)"/><polygon class="cls-5" points="599.81 320.76 592.99 345.8 579.33 345.8 578.2 358.31 597.54 373.67 611.19 386.19 618.02 398.13 617.45 415.2 611.19 429.42 599.24 439.66 582.75 445.92 552.03 438.52 563.4 409.51 578.76 414.06 578.2 404.96 571.94 394.15 548.04 381.63 538.37 358.31 542.92 332.71 564.54 315.64 589 316.21 599.81 320.76"/><polygon class="cls-5" points="42.88 321.33 39.46 436.25 73.03 436.82 71.32 392.44 98.63 443.07 127.64 420.89 107.73 393.58 119.67 380.5 123.66 345.23 110 329.3 91.23 317.92 61.08 315.64 42.88 321.33"/><polygon class="cls-5" points="139.02 316.78 117.97 335.56 188.51 443.07 227.76 318.49 190.22 312.23 184.53 331.57 152.67 331.57 139.02 316.78"/><polygon class="cls-5" points="228.9 323.04 238.57 437.38 272.13 433.4 265.31 317.35 228.9 323.04"/><polygon class="cls-5" points="381.93 317.92 368.85 440.23 440.52 447.06 439.96 412.35 407.53 408.37 409.24 396.99 428.58 399.27 430.85 369.12 411.51 365.14 411.51 352.05 453.04 358.31 453.04 324.18 381.93 317.92"/><polygon class="cls-5" points="464.42 445.35 454.75 331 472.38 324.75 497.98 322.47 513.91 326.45 530.41 336.69 536.1 353.76 537.8 375.38 533.25 388.46 527.57 395.29 549.18 419.18 526.43 445.35 499.12 410.08 495.14 414.63 497.98 440.8 464.42 445.35"/><polygon class="cls-6" points="486.32 351.77 490.16 377.79 497.41 374.38 503.39 365.42 501.68 355.18 491.44 349.63 486.32 351.77"/><polygon class="cls-5" points="285.22 312.23 281.81 423.73 313.1 429.99 340.97 426.01 370.55 407.23 376.81 381.63 375.67 348.64 364.86 327.02 350.07 315.64 328.45 308.82 285.22 312.23"/><polygon class="cls-6" points="316.51 349.63 315.23 387.18 325.89 389.31 337.42 384.19 344.24 373.1 342.96 358.17 336.13 348.78 316.51 349.63"/><polygon class="cls-6" points="167.18 357.74 176.99 372.67 179.55 354.75 167.18 357.74"/><polygon class="cls-6" points="72.88 344.94 74.59 372.67 83.55 369.69 88.24 359.45 86.11 348.78 72.88 344.94"/><polygon class="cls-7" points="319.07 303.13 263.6 315.07 209.84 314.22 149.26 286.06 147.55 249.37 170.59 204.14 222.64 190.49 274.69 201.58 308.83 233.16 337.84 210.97 391.6 200.73 429.15 228.04 439.39 267.29 423.17 309.1 396.72 317.63 356.62 309.1 326.75 294.6 319.07 303.13"/><path class="cls-8" d="M328.1,224.68s-24.54,20.06-22.83,48.86c2.56,16.64,23.89,24.1,23.89,24.1L313,303.19,288.63,306s15.7-6.69,15.36-17.49,2.13-13.44.43-30.72S282,215.3,282,215.3l29.31,16.21Z" transform="translate(-1.99 -0.49)"/><path class="cls-9" d="M365.86,207.62s34.13,4.69,50.77,25.17,10.67,48.64,1.28,58.88-47.36,16.64-47.36,16.64L388,316.84l33.71-9.38,16.64-19.2,3-36.27-9.82-28.59-38-20.48Z" transform="translate(-1.99 -0.49)"/><path class="cls-9" d="M229.32,195.67s-31.57-7.25-52.48,8.11-32.42,58.88-32.42,58.88l21.33,39.68L196,305.75S164.9,286.55,164.9,255c0-12.57,5.09-29.65,17.38-39.5C200.86,200.6,229.32,195.67,229.32,195.67Z" transform="translate(-1.99 -0.49)"/><path class="cls-4" d="M528,449.25l-29.16-37.33,2.21,31-35.56,5.41-11.38-114-.78-3.42a91,91,0,0,1,37.1-8.23c12.13-.19,22.34,2.42,30.34,7.77,10.06,6.68,16.53,17.61,19.2,32.48a44.28,44.28,0,0,1,.87,14.24A38.82,38.82,0,0,1,537.51,390a30.76,30.76,0,0,1-6.72,9.39l23.58,23Zm-40.59-54.2,3.4-3.54,34.52,53.87L545,422.78l-24.57-24,3.51-3.43c3.31-2.41,5.63-4.49,7.39-8.26A31.89,31.89,0,0,0,534,376.56a37.37,37.37,0,0,0-.72-12.1l0-.22c-2.32-13-7.8-22.46-16.28-28.1-6.84-4.56-15.73-6.79-26.45-6.62a94.64,94.64,0,0,0-34.37,7.14l11,109,26.57-3Zm2.82-10.11c-.43,0-.86.06-1.29.07l-3,.05-4.87-34.13,3.42-3.37c3.08-.39,6.28,2.87,9.5,3.94a16.6,16.6,0,0,1,7.21,4.59,17.59,17.59,0,0,1,4.09,10h0c1,9.35-3.57,14.08-7.58,16.41A18.46,18.46,0,0,1,490.22,384.94Zm-1.37-27.66,2.92,20.42a12.82,12.82,0,0,0,2.51-1.12c2.11-1.22,4.86-3.57,4.2-9.77h0a10.86,10.86,0,0,0-2.4-6.19,9.7,9.7,0,0,0-4.25-2.64A16.66,16.66,0,0,0,488.85,357.28Z" transform="translate(-1.99 -0.49)"/><path class="cls-4" d="M102.18,448.68,77.43,405.59l-2.7,33.71-33-2.56L44,323.81v-2.27c13.18-3.62,23.73-5,37.13-3.29,12,1.56,21.81,5.63,29,12.08,9.08,8.07,14,19.82,14.75,34.9a43.86,43.86,0,0,1-1,14.2,38.41,38.41,0,0,1-5,12.2c-2.14,3.31-5.61,4.28-8.74,6.49l21.15,26.67ZM68.53,389.33l3.57-3.15,27.42,58.53L122,425.27l-21.21-27.39,3.54-3.49c3.66-1.91,6.6-2.94,8.86-6.45a31.47,31.47,0,0,0,4-10,36.86,36.86,0,0,0,.9-12.05l0-.22c-.59-13.23-4.79-23.4-12.47-30.22-6.18-5.53-14.71-9-25.36-10.41a94.42,94.42,0,0,0-34.93,2.05L41.8,436.6l26.73.88Zm4.89-9.5a16.48,16.48,0,0,1-2-.12l-3-.34-.29-34.56,3.32-3.43c3.11.05,6.4,4.35,9.4,5.87a17.09,17.09,0,0,1,6.49,5.55,17.8,17.8,0,0,1,2.76,10.49h0c-.24,9.43-5.41,13.45-9.71,15.16A19,19,0,0,1,73.42,379.83ZM75,352.24l.18,20.62a13.65,13.65,0,0,0,2.69-.76c2.22-.88,5.23-2.79,5.39-9a11,11,0,0,0-1.6-6.51,10.21,10.21,0,0,0-3.91-3.27A16.1,16.1,0,0,0,75,352.24Z" transform="translate(-1.99 -0.49)"/><path class="cls-4" d="M140.57,313.26l11.68,19.61,34.26-2.94,3.56-19.2,39.66,10.54L190.5,444l-63.15-91.73-9.1-12.38Zm47.07,23.45L148.57,340l-9.51-16L120,342l65.9,97.19,35.18-113.13-29.75-7.71-.26,15Zm-28.07,21.61,3.57-3.4,20.41,1.88-2.76,27.67-3.43,3.6Zm15.56,5.85-3.95.25,2.93,4.91Z" transform="translate(-1.99 -0.49)"/><path class="cls-4" d="M274,437.3l-34.84,2.85-10-117.76,38.13-3.08Zm-33.05-.16,26.21-2-6.25-108.65-29.69,1.7Z" transform="translate(-1.99 -0.49)"/><path class="cls-4" d="M315.51,430.34c-5.89,0-11.09.32-17.49-.57a84,84,0,0,1-13.09-2.42l-1.7-1.28L284.93,317l-3.46-2.55a124.44,124.44,0,0,1,44-4.51c23.81,1.32,40.05,13.07,48.21,34.9a77.81,77.81,0,0,1,3.33,11.76,86.63,86.63,0,0,1,1.43,10.18,57.87,57.87,0,0,1,.25,9.8c-.18,18.66-5.36,31.41-15.73,41.53-8.34,8.08-20.19,9.53-34.42,11.52A83.74,83.74,0,0,1,315.51,430.34Zm-30.29-4.41A116.13,116.13,0,0,0,296.77,428a111.94,111.94,0,0,0,31.1.35c12.78-1.79,22.94-6.26,30.21-13.3,9-8.82,13.69-21.83,13.84-38.67v-.24a53.22,53.22,0,0,0-.23-8.77,83.31,83.31,0,0,0-1.33-9.43,70.35,70.35,0,0,0-3-10.73c-7.23-19.33-21-29.3-42.24-30.48a119.14,119.14,0,0,0-39.25,3.54Zm36.85-28.4a29.55,29.55,0,0,1-9.52-1.56l-2.44-.84,2.37-43.64,3.46-3.36c4.31-1.28,7.86,1.05,12.83,1.65a17.71,17.71,0,0,1,11.2,5.37,21,21,0,0,1,4.72,9.3,31.62,31.62,0,0,1,.54,11.91c-.9,6.51-3.23,11.65-6.93,15.27A20.09,20.09,0,0,1,327,397.15,31.26,31.26,0,0,1,322.07,397.53Zm-4.86-7.34a23.48,23.48,0,0,0,8.7.21,13.3,13.3,0,0,0,7.6-3.63c2.61-2.56,4.27-6.38,5-11.37v0a24.87,24.87,0,0,0-.43-9.34,14.26,14.26,0,0,0-3.11-6.26,11,11,0,0,0-7-3.2,28.73,28.73,0,0,0-8.92.23Z" transform="translate(-1.99 -0.49)"/><path class="cls-4" d="M369.55,442.28l13.94-120.89,72.9,4.27-2.71,34.63-39.11-6-1.39,13.57,20.5,2.32-2.12,29.26-20.9-2.84-1.4,14.59,35.12,3.71-3.29,33.47Zm14.84-115.21L371.71,440.58l63.17,6.05L437,421l-35.16-3.72,1.93-21.65,3.45-3.36,17.45,7.53,1.71-23.56-20.52-2.32,1.53-20.53,3.46-3.36L447,358.66,449.05,332Z" transform="translate(-1.99 -0.49)"/><path class="cls-4" d="M581.11,447.62c-4.19,0-7.93-1.27-13.23-2.71a68.9,68.9,0,0,1-13.37-4.76l-3.48-3.7,12.66-24.18.65-1c3.68,2.73,6.84,4,9.17,3.72a1.75,1.75,0,0,0,1.06-.32s6-.55,5.68-2.67-1.75-6.83-3.41-8.68c-1.52-1.67-2.79-5.07-6.61-7.39l-6.05-2.42c-2.25-1.3-6.15-3.36-7.75-4.48-10.11-6.84-15.3-12.91-17.56-23.47-2-9.2-3.16-15.31.57-23.68,3.61-8,6.06-15.64,13.51-19.83a52.92,52.92,0,0,1,31-6.46,59.72,59.72,0,0,1,17,4.18l2.91,1.16-8.31,26.22-7.18-.93c-4.41-1.73-7.91,3.33-9.75,6.39-2.24,3.64.31,8.47,7.57,14.4A123.09,123.09,0,0,0,598,375.38l5.35,3.37a44.06,44.06,0,0,1,4.2,3,34.61,34.61,0,0,1,12.09,19.61,39.73,39.73,0,0,1-1.81,23.07c-3,7.78-7.12,11.11-12.25,15.5-5.84,4.92-10.19,5.33-19.2,6.32C585.24,446.39,582.35,447.62,581.11,447.62Zm-27.06-9a103.11,103.11,0,0,0,13.07,4.47c6.07,1.64,11.22,2.24,15.33,1.78,7.64-.84,13.93-3.31,18.69-7.33,4.25-3.63,7.72-8.87,10.3-15.56A32.93,32.93,0,0,0,613,402.87a27.57,27.57,0,0,0-9.8-15.86,37,37,0,0,0-3.5-2.5l-5.38-3.39a126.45,126.45,0,0,1-12.45-8.85c-10.31-8.42-13.37-16.24-9.06-23.22,3-5,8.64-6.34,16.73-3.92l6-20.1a50.69,50.69,0,0,0-12.11-2.65,46.22,46.22,0,0,0-27.1,5.62,31.77,31.77,0,0,0-13.79,15.22,35.06,35.06,0,0,0-2.24,22.25c1.91,8.9,7.09,16.11,15.86,22,1.48,1,3.3,2.18,5.43,3.41l5.52,3.27a43.55,43.55,0,0,1,9.64,7.32,18.6,18.6,0,0,1,4.68,9.27c.56,3.38.1,6.07-1.38,8a7.89,7.89,0,0,1-5.7,3c-3.25.42-6.76-.49-10.65-2.76Z" transform="translate(-1.99 -0.49)"/><path class="cls-10" d="M528.35,452.8,501,416.48l3.81,28.79-40.34,4.59L452.28,329l2.27-1a101.68,101.68,0,0,1,39.28-8.69c12.13-.19,22.34,2.42,30.34,7.77,10.07,6.68,16.53,17.61,19.21,32.47a44.09,44.09,0,0,1,.86,14.25,38.76,38.76,0,0,1-3.32,12.78,30.63,30.63,0,0,1-6.72,9.4l23.59,23Zm-37.54-61.16L528.73,442l19.68-22.61-24.57-24L527.1,393a23.77,23.77,0,0,0,7.63-9.32,31.9,31.9,0,0,0,2.72-10.52,37.33,37.33,0,0,0-.73-12.1l0-.22c-2.33-13-7.81-22.47-16.29-28.1-6.84-4.57-15.73-6.8-26.44-6.63a94.91,94.91,0,0,0-34.38,7.15l11,109,26.56-3Zm2.82-10.11c-.43,0-.86.06-1.29.07l-3,0-4.87-34.12,3.43-.45a21.47,21.47,0,0,1,9.48,1,16.57,16.57,0,0,1,7.21,4.59,17.62,17.62,0,0,1,4.09,10h0c1,9.35-3.57,14.08-7.58,16.4A18.43,18.43,0,0,1,493.63,381.53Zm-1.36-27.66,2.91,20.42a13.52,13.52,0,0,0,2.52-1.12c2.1-1.22,4.85-3.58,4.19-9.77h0a10.83,10.83,0,0,0-2.39-6.18,9.73,9.73,0,0,0-4.26-2.64A15.74,15.74,0,0,0,492.27,353.87Z" transform="translate(-1.99 -0.49)"/><path class="cls-10" d="M157.19,223.4,134,227.74l17.26,82.9-33.61,7.22-15.81-84.13-28.67,5.38L66.27,207,150,190.08Z" transform="translate(-1.99 -0.49)"/><path class="cls-10" d="M430.82,311.9l21.95-107.31L502.7,255.7l7.09-47.59,39.44,5.77L528,331,474,285.83l-6,33.78Z" transform="translate(-1.99 -0.49)"/><path class="cls-10" d="M101.06,451.94,78.77,412.1v29l-40.6-1.34,3.91-121.41,2.43-.67a101.56,101.56,0,0,1,40-2.87c12,1.57,21.81,5.63,29,12.09,9.09,8.07,14.05,19.81,14.75,34.9a44.14,44.14,0,0,1-1,14.2,38.59,38.59,0,0,1-5,12.19,29.94,29.94,0,0,1-7.92,8.32l20.34,26.26Zm-29.12-66,31,55.39,22.47-19.44-21.22-27.39,3.61-1.89a22.68,22.68,0,0,0,8.79-8.05,31.48,31.48,0,0,0,4-10,36.85,36.85,0,0,0,.89-12.05l0-.22C120.91,349,116.71,338.84,109,332c-6.18-5.52-14.7-9-25.35-10.41a94.88,94.88,0,0,0-34.94,2L45.22,433.19l26.72.88Zm4.89-9.5a16.59,16.59,0,0,1-2-.11l-3-.35-.3-34.56,3.51.07a21,21,0,0,1,9.22,2.38,17.12,17.12,0,0,1,6.48,5.54,17.89,17.89,0,0,1,2.77,10.49h0c-.25,9.43-5.42,13.45-9.71,15.16A19,19,0,0,1,76.83,376.41Zm1.61-27.59.18,20.62a13,13,0,0,0,2.69-.75c2.23-.89,5.23-2.79,5.39-9a10.94,10.94,0,0,0-1.6-6.5,10.18,10.18,0,0,0-3.9-3.27A16.59,16.59,0,0,0,78.44,348.82Z" transform="translate(-1.99 -0.49)"/><path class="cls-10" d="M144,309.84l11.68,19.62,29.71-2.53,4.1-20.4,43.67,11.33-41.52,133.5L114.49,337.63Zm47.07,23.46L152,336.63l-9.51-16-19.06,18,65.91,97.18,35.17-113.12L194.74,315ZM163,354.91l24-1.53-6.19,31.28Zm15.56,5.85-4,.25,2.94,4.91Z" transform="translate(-1.99 -0.49)"/><path class="cls-10" d="M277.75,438.05l-39.61,3L227.19,318.38l43.54-2.49Zm-33.41-4.32,26.21-2L264.3,323.1l-29.68,1.69Z" transform="translate(-1.99 -0.49)"/><path class="cls-10" d="M317.71,432.7a134.17,134.17,0,0,1-18.45-1.34,104.9,104.9,0,0,1-15-2.95l-2.48-.71.69-115.95,2.41-.72c13.41-4,28.23-5.55,44.05-4.51,23.82,1.32,40.05,13.06,48.21,34.9a75.55,75.55,0,0,1,3.33,11.76,86.32,86.32,0,0,1,1.44,10.18c.37,3.82-1.26,7.14-1.46,9.8-.19,18.66-3.83,33.26-14.2,43.38-8.34,8.08-19.78,13.18-34,15.17A102.69,102.69,0,0,1,317.71,432.7Zm-29.07-10.19A127.78,127.78,0,0,0,331.28,425c12.78-1.79,22.94-6.26,30.21-13.3,9-8.82,13.69-21.84,13.84-38.67v-.24a51.09,51.09,0,0,0-.23-8.77,81.28,81.28,0,0,0-1.33-9.44,69.1,69.1,0,0,0-3-10.72c-7.23-19.33-21-29.3-42.23-30.48a118.82,118.82,0,0,0-39.25,3.54Zm36.84-28.39a29.23,29.23,0,0,1-9.51-1.57l-2.45-.83,2.37-43.64,2.3-.69a34.29,34.29,0,0,1,14-1,17.68,17.68,0,0,1,11.2,5.37A20.87,20.87,0,0,1,348.1,361a31.63,31.63,0,0,1,.54,11.91c-.9,6.52-3.23,11.65-6.92,15.28a20.21,20.21,0,0,1-11.34,5.51A31.41,31.41,0,0,1,325.48,394.12Zm-4.86-7.35a23.69,23.69,0,0,0,8.7.22,13.31,13.31,0,0,0,7.61-3.64c2.6-2.55,4.26-6.37,5-11.36v0a24.86,24.86,0,0,0-.43-9.34,14.1,14.1,0,0,0-3.11-6.26,10.89,10.89,0,0,0-7-3.2,28.72,28.72,0,0,0-8.92.22Z" transform="translate(-1.99 -0.49)"/><path class="cls-10" d="M367.57,443.3l14.18-126.95,78.05,5.89L456.65,363l-39.56-5.24-.5,6.76,20.5,2.32-2.73,37.81-21-4.19-.66,7.38,35.13,3.72-3.28,39.15ZM387.8,323.66l-12.68,113.5,63.18,6,2.14-25.6-35.16-3.72,1.92-21.66,20.91,4.18,1.7-23.56-20.51-2.33L410.82,350l39.58,5.25,2.07-26.71Z" transform="translate(-1.99 -0.49)"/><path class="cls-10" d="M583.06,448.45a55.26,55.26,0,0,1-14.28-2.16,115.35,115.35,0,0,1-17.34-6.21l-3.25-1.43,16.27-33.26,3.3,2.46c3.67,2.73,6.84,4,9.17,3.72a1.82,1.82,0,0,0,1.05-.32s.45-.62.09-2.74a11.65,11.65,0,0,0-3-5.85,37.7,37.7,0,0,0-8-6l-5.52-3.26c-2.24-1.3-4.23-2.55-5.83-3.67-10.11-6.83-16.4-15.67-18.66-26.23A42.36,42.36,0,0,1,539.68,337a39,39,0,0,1,16.69-18.38,52.75,52.75,0,0,1,31-6.46,59.8,59.8,0,0,1,17,4.18l2.9,1.15-9.87,33.14-3.46-1.36c-4.42-1.73-10.06-3.16-11.91-.09-2.24,3.63.31,8.47,7.58,14.4A121.47,121.47,0,0,0,601.4,372l5.35,3.37a44.06,44.06,0,0,1,4.2,3A34.64,34.64,0,0,1,623.05,398,39.7,39.7,0,0,1,621.23,421c-3,7.79-7.12,14-12.26,18.33-5.83,4.92-13.35,7.92-22.36,8.91A31.06,31.06,0,0,1,583.06,448.45Zm-25.6-13.22a101.51,101.51,0,0,0,13.08,4.46c6.07,1.65,11.21,2.25,15.32,1.79,7.64-.85,13.93-3.31,18.7-7.34,4.24-3.62,7.71-8.86,10.29-15.55a33,33,0,0,0,1.54-19.13,27.66,27.66,0,0,0-9.81-15.87,37.51,37.51,0,0,0-3.5-2.5l-5.38-3.38a127.5,127.5,0,0,1-12.45-8.86c-10.31-8.41-13.36-16.23-9.06-23.22,3-5,8.64-6.33,16.74-3.92l6-20.09A50.11,50.11,0,0,0,586.8,319a46.09,46.09,0,0,0-27.09,5.62,31.74,31.74,0,0,0-13.8,15.22,35.12,35.12,0,0,0-2.23,22.25c1.9,8.89,7.09,16.1,15.85,22q2.24,1.56,5.44,3.41l5.52,3.26a44.09,44.09,0,0,1,9.64,7.33,18.62,18.62,0,0,1,4.67,9.27c.57,3.38.1,6.07-1.38,8a7.89,7.89,0,0,1-5.7,3c-3.24.42-6.76-.49-10.65-2.77Z" transform="translate(-1.99 -0.49)"/><path class="cls-10" d="M311.46,246.17s23.71-47.58,78.72-37.7,43.09,67.84,43.09,67.84-.39,68.19-119,12.72c7.73,8.2,12.39,11,20.39,15.2,85.15,44.43,109.34-4.34,114.19-20,5.3-17.12.64-82.88-59.45-90.76-38.35-5-62.76,16.81-73,34A33.13,33.13,0,0,0,311.46,246.17Z" transform="translate(-1.99 -0.49)"/><ellipse class="cls-10" cx="354.08" cy="260.71" rx="17.28" ry="20.48" transform="translate(-31.99 46.17) rotate(-7.23)"/><path class="cls-10" d="M305.68,289.31c-8.33,8.5-24.8,13-32.38,5.62s-3.38-24,4.95-32.49,21.21-9.38,28.79-2S314,280.81,305.68,289.31Z" transform="translate(-1.99 -0.49)"/><path class="cls-10" d="M313.38,240c-23.27-8.54-32.94-35-58-40.53s-83.75-7.93-99.84,46.93,47.76,61.22,72.11,64.86c36.28,5.42,95.71-15.45,95.71-15.45l16.07,7.77s-35.51,8.36-64,15.57c-18.26,4.62-36.8,6.33-50.12,4.82-25.31-2.86-103-20.72-85.38-79.13s85.09-65.67,119.17-56,36.12,29,58,40.72Z" transform="translate(-1.99 -0.49)"/><path class="cls-10" d="M178.22,181.71s55.52-16.32,75.31-12.43,16.86,6.12,29.33,14.89,7.77-9.21,7.77-9.21-5.47-34.29-28.89-38S178.22,181.71,178.22,181.71Z" transform="translate(-1.99 -0.49)"/><path class="cls-10" d="M340.36,165.79c-5.47,9,43.63-16.86,69.51-12.43s33.82,35,36,41.06,25.64-62.63-19.08-71.11S345.84,156.77,340.36,165.79Z" transform="translate(-1.99 -0.49)"/><ellipse class="cls-7" cx="344.95" cy="248.8" rx="2.28" ry="2.56"/><ellipse class="cls-7" cx="290.91" cy="264.93" rx="3.98" ry="3.13" transform="translate(-104.45 273.28) rotate(-43.61)"/><polygon class="cls-11" points="43.52 321.19 41.81 415.77 45.36 322.61 43.52 321.19"/><polyline class="cls-11" points="155.87 392.3 120.35 338.44 118.64 338.01"/><polygon class="cls-11" points="74.23 345.9 75.16 365.71 75.3 347.43 74.23 345.9"/><path class="cls-11" d="M84,345.22s13.87,6.4,5.76,23.46C96,350.76,84,345.22,84,345.22Z" transform="translate(-1.99 -0.49)"/><polygon class="cls-11" points="74.8 408.19 75.73 410.08 75.59 436.39 74.8 408.19"/><polygon class="cls-11" points="70.96 389.21 71.5 391.87 89.31 423.87 70.96 389.21"/><polygon class="cls-11" points="111.5 396.35 110.22 395.93 127.5 417.37 111.5 396.35"/><path class="cls-11" d="M118.75,333.63s-5.48-6.76-16.89-12.63c12.37,7.79,16.1,13.41,16.1,13.41Z" transform="translate(-1.99 -0.49)"/><polygon class="cls-11" points="141.86 312.51 141.72 313.65 151.25 327.88 141.86 312.51"/><polygon class="cls-11" points="167.32 357.31 176.42 371.25 169.59 359.45 167.32 357.31"/><polygon class="cls-11" points="265.74 324.68 271.5 401.26 267.01 323.82 265.74 324.68"/><polygon class="cls-11" points="285.79 319.63 284.65 407.8 284.67 320.04 285.79 319.63"/><polygon class="cls-11" points="318.21 350.6 319.07 351.56 317.47 380.99 318.21 350.6"/><path class="cls-11" d="M337.06,348.84c13.22,6.3,10,24.11,10,24.11S348.36,356.52,337.06,348.84Z" transform="translate(-1.99 -0.49)"/><path class="cls-11" d="M343,310.87c26.24,6.61,34.77,37.33,34.77,37.33l-.21,1.71a66.89,66.89,0,0,0-13.65-25.39A51.58,51.58,0,0,0,343,310.87Z" transform="translate(-1.99 -0.49)"/><polygon class="cls-11" points="456.74 322.9 455.46 324.32 453.18 354.04 456.74 322.9"/><polygon class="cls-11" points="412.79 354.33 413.79 355.75 412.93 364.14 412.79 354.33"/><polygon class="cls-11" points="433.56 367.7 431.42 398.84 432.85 368.27 433.56 367.7"/><polygon class="cls-11" points="410.52 398.56 409.81 405.67 409.81 396.99 410.52 398.56"/><polygon class="cls-11" points="444.65 412.78 441.81 445.92 443.8 414.35 444.65 412.78"/><polygon class="cls-11" points="383.92 327.59 374.25 411.5 382.4 326.58 383.92 327.59"/><polygon class="cls-11" points="456.88 340.25 456.45 344.73 464.56 419.18 456.88 340.25"/><path class="cls-11" d="M505.37,321.68c24.75,6.83,31.15,25.31,31.15,25.31l.43-2.13S529.41,326.09,505.37,321.68Z" transform="translate(-1.99 -0.49)"/><path class="cls-11" d="M495.13,348.56c15.79,5.55,10.81,22.75,10.81,22.75S508.65,353.82,495.13,348.56Z" transform="translate(-1.99 -0.49)"/><polygon class="cls-11" points="495.07 408.51 496.85 411.43 499.97 437.95 495.07 408.51"/><polygon class="cls-11" points="530.27 396.14 550.96 416.19 528.35 396.14 530.27 396.14"/><polygon class="cls-11" points="593.41 315.07 602.59 318.06 596.83 338.97 603.87 317.42 593.41 315.07"/><path class="cls-11" d="M600.09,373c27.31,13.87,21.34,41.81,21.34,41.81S626.12,388.74,600.09,373Z" transform="translate(-1.99 -0.49)"/><polygon class="cls-11" points="563.97 411.5 564.4 413.42 556.51 429.63 563.97 411.5"/><path class="cls-11" d="M549.53,329.43c-19.62,22.19-3,43.52-3,43.52S532.25,351.19,549.53,329.43Z" transform="translate(-1.99 -0.49)"/><polygon class="cls-11" points="231.46 329.3 230.32 331 235.16 374.24 231.46 329.3"/><path class="cls-11" d="M224.63,338.6c-1.92,2.56-25.17,83.2-25.17,83.2S226.55,336,224.63,338.6Z" transform="translate(-1.99 -0.49)"/><path class="cls-12" d="M176.5,241A51.49,51.49,0,0,1,191,219.46C199,212.2,213.58,205.73,222.5,205c21.25-1.75,38.5,8,7,8.75S176.5,241,176.5,241Z" transform="translate(-1.99 -0.49)"/></g></g></svg>
