<svg id="Layer_1" data-name="Layer 1" xmlns="http://www.w3.org/2000/svg" viewBox="0 0 400 400"><defs><style>.cls-1{fill:#00ffc2;}</style></defs><path class="cls-1" d="M41,158.3h66.6a78.5,78.5,0,0,1,.1,13.7,7.6,7.6,0,0,0-.1,1.5c.1,1.5.1,1.5-1.5,1.5H85.4c-2.8,0-2.6-.1-2.6,2.6v62c0,2,0,2-2,2H68.1c-2,0-2,0-2-2V176a.8.8,0,0,0-.9-.9H41Z"/><path class="cls-1" d="M197.8,191.1v48.2c0,2.5.1,2.3-2.3,2.4H183.8c-2.5,0-2.4.1-2.4-2.4V159.8c0-1.4.1-1.5,1.4-1.5h14c1.3,0,1.7.7,2.2,1.5l8.1,13.5c6.7,11.2,13.4,22.4,20.2,33.6.4.8.9,1.5,1.3,2.2h.4V161.8c0-.8-.1-1.7-.1-2.5s.2-.9.8-1h14c1.7,0,1.8.1,1.8,1.9v79.6c0,1.8-.1,1.9-1.9,1.9H230.2a2.5,2.5,0,0,1-2.4-1.5c-3.6-6.1-7.3-12.1-11-18.2s-7.9-13.3-11.9-20l-6.7-11Z"/><path class="cls-1" d="M119.6,200V160.3c0-2,0-2,2-2h46.2c1.6.1,1.6.1,1.7,1.6v7.5c0,2.1-.1,4.2,0,6.4s-.4,1.3-1.3,1.3H138c-1.6,0-1.7,0-1.7,1.6v5.6l-.3,7.6c0,1.7.2,1.9,1.9,1.9h22c.8,0,1.2.3,1.2,1.2v14c0,.8-.3,1.2-1.2,1.2H138.1c-2,0-2.1.1-2.1,2v13.1c0,1.8.1,1.9,2,1.9h28.4a6.6,6.6,0,0,1,1.4,0c1.6,0,1.6,0,1.6,1.6.1,4.4.1,8.8,0,13.1,0,1.6,0,1.6-1.6,1.6H121.2c-1.6,0-1.6,0-1.6-1.8V200Z"/><path class="cls-1" d="M309.6,187l1.9,1.3a28.6,28.6,0,0,1,12.7,18.3,28,28,0,0,1-3.7,21.1,29.9,29.9,0,0,1-19.7,13.5,34.9,34.9,0,0,1-10.7.2c-8.5-1-15.8-4.7-22.4-9.8-3-2.4-3-2.4-1-5.7s3.9-6.5,5.9-9.8l1.2-1.8.9,1c4.6,4.9,10,8.4,16.7,9.5,3.9.6,7.8.4,11.2-2.1s6.3-7.3,5.3-12.6-3.5-7-7.2-8.8-5-1.3-7.6-1.4H282.4c5-8.2,9.8-16.3,14.8-24.7H271.8c-2-.1-2-.1-2-2.1V160.3c0-2,0-2,1.9-2h53.2l1.8.2Z"/><path class="cls-1" d="M330.5,175c1.8-3.2,3.4-5.9,5.1-8.7s2.7-4.4,4-6.7a2.6,2.6,0,0,1,2.5-1.3h14.7c2.2,0,2.2,0,2.2,2.1v28.4c0,3,0,6-.1,9a5,5,0,0,1-.6,2.4l-15,25.1-.3.5h-.4c0-.6-.1-1.2-.1-1.9V177.7c0-2.9.2-2.6-2.7-2.6h-9.3Z"/></svg>