<svg xmlns="http://www.w3.org/2000/svg" viewBox="0 0 400 399.4"><defs><style>.cls-1{fill:#00f1ff;}.cls-2{fill:#00323e;}.cls-3{fill:#00effb;}</style></defs><g id="Layer_2" data-name="Layer 2"><g id="Layer_1-2" data-name="Layer 1"><path class="cls-1" d="M199.7,399.3C99,402.4,0,318.1,0,199.9,0,86.2,93.2-.4,200.8,0,306.8.4,400.3,85.9,400,200.5,399.7,319.2,300,402.8,199.7,399.3ZM18.1,200.6C16.5,295.2,94,382,199.2,382.8c100.7.8,182.8-81.1,182.9-181.6S300.9,18.5,200.3,18.5C95.9,18.6,16.6,104.9,18.1,200.6Z"/><path class="cls-2" d="M18.1,200.6c-1.5-95.7,77.8-182,182.2-182.1,100.6,0,181.9,81.9,181.8,182.7S299.9,383.6,199.2,382.8C94,382,16.5,295.2,18.1,200.6ZM121,190.5c-10-2.8-18.5-5-27-7.5-5.1-1.4-10-1.9-12.6,4s.7,9.4,7.6,11.4c11.3,3.4,22.7,6.9,34.3,9,33.2,6,66.8,6.9,100.4,5.5,28.3-1.2,56.5-3.9,83.5-13.1,2.8-1,6.4-1.5,8.1-3.4s3.6-6.5,3-9.2-4.6-4.2-7.4-4.9-5,1-7.6,1.7l-23.7,6.2c-1.3-4.1-2.6-7.3-3.3-10.7-5.3-26.1-10.4-52.3-15.7-78.4-2.5-12.7-6.2-14.9-18.4-10.4s-23.8,9.6-35.9,13.7a19.9,19.9,0,0,1-12.3,0c-12.4-4.3-24.5-9.6-36.8-14.1s-15.2-1.6-17.5,9.8c-5.5,26.1-10.5,52.3-15.8,78.4C123.2,182,122.2,185.4,121,190.5Zm63.5,57.9a50.6,50.6,0,0,0-3-4.2c-9.3-12.8-21.8-19-37.5-16.8s-25.7,10.4-30.6,24.6-2.8,27.4,8.2,38.3c21.5,21.5,54.3,13.5,64.9-15.7,3.5-9.9,10.4-13.1,19.7-10.1,5.8,1.9,6.5,6.9,8.1,11.5,5.8,16.9,22.4,27.9,39.6,26.3s31.7-14.6,34.3-31.5-6.1-34.1-23.2-41.2c-15.6-6.5-34.5-1.2-45.1,12.7l-4.6,6.1Z"/><path class="cls-3" d="M121,190.5c1.2-5.1,2.2-8.5,2.9-12,5.3-26.1,10.3-52.3,15.8-78.4,2.3-11.4,6.5-13.7,17.5-9.8s24.4,9.8,36.8,14.1a19.9,19.9,0,0,0,12.3,0c12.1-4.1,23.9-9.3,35.9-13.7s15.9-2.3,18.4,10.4c5.3,26.1,10.4,52.3,15.7,78.4.7,3.4,2,6.6,3.3,10.7l23.7-6.2c2.6-.7,5.3-2.2,7.6-1.7s6.9,2.7,7.4,4.9-1,6.8-3,9.2-5.3,2.4-8.1,3.4c-27,9.2-55.2,11.9-83.5,13.1-33.6,1.4-67.2.5-100.4-5.5-11.6-2.1-23-5.6-34.3-9-6.9-2-9.7-6.7-7.6-11.4s7.5-5.4,12.6-4C102.5,185.5,111,187.7,121,190.5Zm17.2,1.3c24.6,7.7,108.8,6.9,123.5-1.2-5.7-26.8-11.6-53.9-17.6-82-10.1,3.9-18.9,6.5-27.1,10.5-11.5,5.7-22.2,5.8-33.7,0-8.4-4.2-17.5-6.8-27.1-10.5C150,137,144.2,164.2,138.2,191.8Z"/><path class="cls-3" d="M184.5,248.4h30.8l4.6-6.1c10.6-13.9,29.5-19.2,45.1-12.7,17.1,7.1,26.1,23,23.2,41.2s-16.8,29.9-34.3,31.5-33.8-9.4-39.6-26.3c-1.6-4.6-2.3-9.6-8.1-11.5-9.3-3-16.2.2-19.7,10.1-10.6,29.2-43.4,37.2-64.9,15.7-11-10.9-13.1-24.3-8.2-38.3s15.7-22.5,30.6-24.6,28.2,4,37.5,16.8A50.6,50.6,0,0,1,184.5,248.4ZM273,265.2c.2-11.8-9.9-21.8-22.1-21.9s-21.8,9-22.2,20.6,9.4,22.3,21.4,22.6S272.8,276.8,273,265.2ZM149.5,243.3c-12.2-.1-22.3,9.6-22.3,21.5s10.4,21.9,22.3,21.7,21.5-9.9,21.9-21.2S161.8,243.4,149.5,243.3Z"/><path class="cls-2" d="M138.2,191.8c6-27.6,11.8-54.8,18-83.2,9.6,3.7,18.7,6.3,27.1,10.5,11.5,5.8,22.2,5.7,33.7,0,8.2-4,17-6.6,27.1-10.5,6,28.1,11.9,55.2,17.6,82C247,198.7,162.8,199.5,138.2,191.8Z"/><path class="cls-2" d="M273,265.2c-.2,11.6-11,21.7-22.9,21.3s-21.9-10.7-21.4-22.6,10.3-20.7,22.2-20.6S273.2,253.4,273,265.2Z"/><path class="cls-2" d="M149.5,243.3c12.3.1,22.2,10.1,21.9,22s-10.4,21.1-21.9,21.2-22.3-10-22.3-21.7S137.3,243.2,149.5,243.3Z"/></g></g></svg>