<svg width="180" height="156" viewBox="0 0 180 156" fill="none" xmlns="http://www.w3.org/2000/svg">
<path fill-rule="evenodd" clip-rule="evenodd" d="M89.4042 64.7797C114.641 64.7797 135.1 85.2 135.1 110.39C135.1 135.58 114.641 156 89.4042 156C64.1673 156 43.7087 135.58 43.7087 110.39C43.7087 85.2 64.1673 64.7797 89.4042 64.7797ZM89.7729 0C115.336 0.379803 136.867 9.69444 154.959 27.9439C181.969 55.1886 184.908 98.0975 171.374 126.824C171.186 127.225 170.713 127.756 170.052 127.586C169.391 127.416 169.429 126.513 169.526 125.992C172.249 111.258 173.214 80.9205 152.106 58.3878C129.556 34.3161 109.742 29.4141 89.7729 29.4141C69.8039 29.4141 44.8929 37.6751 27.2856 58.3878C6.92039 82.3447 7.11349 111.434 9.73441 126.005C9.81842 126.472 10.0828 127.27 9.33323 127.586C8.58364 127.901 8.05915 127.215 7.84656 126.763C-5.65364 98.0363 -2.69946 55.1692 24.2907 27.9439C42.3825 9.69444 64.2099 0.379803 89.7729 0Z" fill="url(#paint0_linear_5332_3)"/>
<defs>
<linearGradient id="paint0_linear_5332_3" x1="89.625" y1="0" x2="89.625" y2="156" gradientUnits="userSpaceOnUse">
<stop stop-color="#06ECFF"/>
<stop offset="1" stop-color="#21FA8E"/>
</linearGradient>
</defs>
</svg>
