<svg width="500" height="400" viewBox="0 0 2984 2599" fill="none" xmlns="http://www.w3.org/2000/svg">
<path fill-rule="evenodd" clip-rule="evenodd" d="M1488.32 1079.25C1908.45 1079.25 2249.02 1419.45 2249.02 1839.12C2249.02 2258.79 1908.45 2599 1488.32 2599C1068.2 2599 727.626 2258.79 727.626 1839.12C727.626 1419.45 1068.2 1079.25 1488.32 1079.25ZM1494.46 0C1920.01 6.32761 2278.45 161.512 2579.63 465.553C3029.26 919.456 3078.19 1634.33 2852.9 2112.92C2849.75 2119.59 2841.89 2128.44 2830.88 2125.61C2819.87 2122.78 2820.51 2107.74 2822.12 2099.06C2867.45 1853.58 2883.52 1348.16 2532.13 972.755C2156.74 571.716 1826.89 490.046 1494.46 490.046C1162.04 490.046 747.338 627.677 454.227 972.755C115.205 1371.88 118.419 1856.52 162.05 2099.28C163.449 2107.06 167.85 2120.35 155.372 2125.61C142.893 2130.87 134.162 2119.43 130.623 2111.9C-94.1169 1633.31 -44.9382 919.132 404.37 465.553C705.548 161.512 1068.91 6.32761 1494.46 0Z" fill="#8267E3"/>
</svg>