<svg width="405" height="405" viewBox="0 0 405 405" fill="none" xmlns="http://www.w3.org/2000/svg">
<circle cx="202.5" cy="202.5" r="192.5" fill="black"/>
<circle cx="202.5" cy="202.5" r="192.5" stroke="black" stroke-width="20"/>
<circle cx="202.5" cy="202.5" r="192.5" stroke="white" stroke-opacity="0.2" stroke-width="20"/>
<circle cx="202.5" cy="202.5" r="180" fill="black"/>
<circle cx="202.5" cy="202.5" r="180" stroke="white" stroke-width="15"/>
<circle cx="202.5" cy="202.5" r="180" stroke="white" stroke-opacity="0.2" stroke-width="15"/>
<path d="M107.227 243.442C102.355 243.442 98.0133 242.597 94.2017 240.906C90.3902 239.183 87.3741 236.647 85.1534 233.3C82.9659 229.919 81.8722 225.71 81.8722 220.672C81.8722 216.429 82.651 212.866 84.2088 209.983C85.7666 207.099 87.8878 204.779 90.5724 203.023C93.2571 201.266 96.3063 199.94 99.7202 199.045C103.167 198.151 106.78 197.521 110.558 197.156C115 196.692 118.579 196.261 121.297 195.864C124.015 195.433 125.987 194.803 127.213 193.974C128.439 193.146 129.053 191.92 129.053 190.295V189.997C129.053 186.848 128.058 184.412 126.07 182.689C124.114 180.965 121.33 180.104 117.717 180.104C113.906 180.104 110.873 180.949 108.619 182.639C106.366 184.296 104.874 186.384 104.145 188.903L84.5568 187.312C85.5511 182.672 87.5066 178.662 90.4233 175.281C93.34 171.867 97.1018 169.249 101.709 167.426C106.349 165.57 111.718 164.642 117.817 164.642C122.059 164.642 126.119 165.139 129.997 166.134C133.908 167.128 137.372 168.669 140.388 170.757C143.437 172.845 145.84 175.53 147.597 178.811C149.353 182.059 150.232 185.954 150.232 190.494V242H130.146V231.411H129.55C128.323 233.797 126.683 235.902 124.628 237.724C122.573 239.514 120.104 240.923 117.22 241.95C114.337 242.945 111.006 243.442 107.227 243.442ZM113.293 228.825C116.408 228.825 119.159 228.212 121.545 226.986C123.932 225.726 125.804 224.036 127.163 221.915C128.522 219.794 129.202 217.391 129.202 214.706V206.602C128.539 207.033 127.627 207.431 126.467 207.795C125.34 208.127 124.064 208.442 122.639 208.74C121.214 209.005 119.789 209.254 118.364 209.486C116.938 209.685 115.646 209.867 114.486 210.033C112 210.397 109.829 210.977 107.973 211.773C106.117 212.568 104.675 213.645 103.648 215.004C102.62 216.33 102.107 217.987 102.107 219.976C102.107 222.859 103.151 225.063 105.239 226.588C107.36 228.08 110.045 228.825 113.293 228.825ZM187.842 197.852V242H166.663V165.636H186.847V179.109H187.742C189.433 174.668 192.266 171.155 196.244 168.57C200.221 165.951 205.043 164.642 210.711 164.642C216.014 164.642 220.638 165.802 224.582 168.122C228.526 170.442 231.592 173.757 233.779 178.065C235.967 182.341 237.06 187.445 237.06 193.378V242H215.881V197.156C215.915 192.483 214.721 188.837 212.302 186.219C209.882 183.567 206.551 182.241 202.309 182.241C199.459 182.241 196.94 182.855 194.752 184.081C192.598 185.307 190.907 187.097 189.681 189.45C188.488 191.77 187.875 194.571 187.842 197.852ZM317.289 187.412L297.9 188.605C297.569 186.948 296.856 185.456 295.762 184.131C294.669 182.772 293.227 181.695 291.437 180.899C289.681 180.071 287.576 179.656 285.123 179.656C281.842 179.656 279.074 180.352 276.821 181.744C274.567 183.103 273.44 184.926 273.44 187.213C273.44 189.036 274.169 190.577 275.627 191.837C277.086 193.096 279.588 194.107 283.135 194.869L296.956 197.653C304.38 199.178 309.915 201.631 313.561 205.011C317.207 208.392 319.029 212.833 319.029 218.335C319.029 223.34 317.555 227.732 314.605 231.51C311.688 235.288 307.678 238.238 302.574 240.359C297.502 242.447 291.653 243.491 285.024 243.491C274.915 243.491 266.861 241.387 260.862 237.178C254.896 232.935 251.399 227.168 250.372 219.876L271.203 218.783C271.833 221.865 273.357 224.218 275.777 225.842C278.196 227.433 281.295 228.229 285.074 228.229C288.786 228.229 291.769 227.516 294.022 226.091C296.309 224.633 297.469 222.76 297.502 220.473C297.469 218.551 296.657 216.976 295.066 215.75C293.475 214.491 291.023 213.529 287.708 212.866L274.484 210.232C267.027 208.74 261.475 206.155 257.829 202.476C254.217 198.797 252.41 194.107 252.41 188.406C252.41 183.501 253.736 179.275 256.387 175.729C259.072 172.182 262.834 169.448 267.673 167.526C272.545 165.603 278.246 164.642 284.775 164.642C294.42 164.642 302.01 166.68 307.545 170.757C313.113 174.834 316.361 180.385 317.289 187.412Z" fill="white"/>
</svg>
