<?xml version="1.0" encoding="UTF-8"?>
<!DOCTYPE svg  PUBLIC '-//W3C//DTD SVG 1.1//EN'  'http://www.w3.org/Graphics/SVG/1.1/DTD/svg11.dtd'>
<svg clip-rule="evenodd" stroke-linecap="round" stroke-linejoin="round" version="1.1" viewBox="0 0 3200 3200" xml:space="preserve" xmlns="http://www.w3.org/2000/svg" xmlns:vectornator="http://vectornator.io">
<metadata>
<vectornator:setting key="DimensionsVisible" value="1"/>
<vectornator:setting key="PencilOnly" value="0"/>
<vectornator:setting key="SnapToPoints" value="1"/>
<vectornator:setting key="OutlineMode" value="0"/>
<vectornator:setting key="RulersVisible" value="1"/>
<vectornator:setting key="CMYKEnabledKey" value="0"/>
<vectornator:setting key="SnapToEdges" value="1"/>
<vectornator:setting key="GuidesVisible" value="1"/>
<vectornator:setting key="DisplayWhiteBackground" value="0"/>
<vectornator:setting key="doHistoryDisabled" value="0"/>
<vectornator:setting key="SnapToGuides" value="1"/>
<vectornator:setting key="TimeLapseWatermarkDisabled" value="0"/>
<vectornator:setting key="DynamicGuides" value="0"/>
<vectornator:setting key="IsolateActiveLayer" value="0"/>
<vectornator:setting key="Units" value="Points"/>
<vectornator:setting key="SnapToGrid" value="0"/>
</metadata>
<defs>
<linearGradient id="a" x1="194.44" x2="194.12" y1="340.81" y2="421.8" gradientTransform="matrix(-6.9215 0 0 -13.986 2925.2 5873.5)" gradientUnits="userSpaceOnUse">
<stop offset=".61508"/>
<stop stop-color="#ffd0f0" offset="1"/>
</linearGradient>
</defs>
<g visibility="hidden" vectornator:layerName="Layer 1">
<path d="m1288 270.86c328.73-32.02 726.87-5.437 889.27 59.375 162.41 64.812 27.58 143.31-301.15 175.33-328.72 32.02-726.86 5.437-889.26-59.375s-27.576-143.31 301.14-175.33z"/>
<path d="m1596.6 613.15c0.37-72.884-69.23-251.03-4.27-267.85 64.97-16.812 61.28 81.008 60.72 97.077 2.06-16.565-16.37-100.75 40.53-101.65 56.9-0.903 38.05 70.552 32.34 99.641 0 0 12.13-112.6 78.07-93.532 54.21 15.681-44.42 228.68-44.42 228.68l-111.61 61.467-51.36-23.828zm-102.87-31.533s112.36-218.49 47.39-235.3c-64.96-16.812-61.28 81.009-60.72 97.077-2.06-16.564 16.38-100.75-40.52-101.65-56.91-0.904-38.06 70.551-32.35 99.64 0 0-12.13-112.6-78.06-93.531-54.21 15.68 20.95 196.7 20.95 196.7l143.31 37.068z" stroke="#000" stroke-linecap="round" stroke-linejoin="round" stroke-width="2"/>
<path d="m1311.4 412.39c28.99 54.634 54.01 44.17 70.82-3.184-5.89-84.104-42.9-135.58-42.9-135.58s-37.28 81.157-27.92 138.76zm90.91-17.319c31.51 54.634 58.7 44.17 76.97-3.184-6.4-84.104-46.63-135.58-46.63-135.58s-40.52 81.157-30.34 138.76zm88.14 1.096c29.79 54.634 55.5 44.17 72.78-3.184-6.05-84.104-44.09-135.58-44.09-135.58s-38.32 81.158-28.69 138.76zm146.45 5.478c-28.98 54.634-54 44.17-70.81-3.184 5.89-84.104 42.9-135.58 42.9-135.58s37.28 81.157 27.91 138.76zm96.86-6.574c-32.9 54.634-61.29 44.17-80.37-3.184 6.69-84.104 48.69-135.58 48.69-135.58s42.31 81.157 31.68 138.76zm84.11 10.745c-28.99 54.634-54.01 44.17-70.82-3.184 5.89-84.104 42.9-135.58 42.9-135.58s37.29 81.157 27.92 138.76z" fill="url(#a)" stroke="#9f6060" stroke-linecap="round" stroke-linejoin="round" stroke-width=".4" vectornator:blendMode="Multiply" vectornator:shadowAngle="-1.56853" vectornator:shadowColor="#c472ad" vectornator:shadowOffset="0.5" vectornator:shadowOpacity="1" vectornator:shadowRadius="0"/>
</g>
<g visibility="hidden" vectornator:layerName="Layer 4">
<path d="m1665.1 645.72c70.15 33.043 141.51 73.711 207.65 120.88-3.85-64.63-4.38-128.27-0.43-189.94 1-15.659-8.56-22.029-26.07-20.656-35.18 2.759-102.59 36.877-181.15 89.718z"/>
</g>
<g visibility="hidden" vectornator:layerName="Layer 2">
<path d="m1858.4 1805.3c36.51 36.98 69.71 85.01 98.09 146.56 6.06 2.16 11.86 3.82 17.28 4.87 1.71-0.03 3.35-0.22 5-0.41 25.32-13.16 40.54-35.31 47.94-65-0.58-2.56-1.52-5.04-2.63-7.49 1.29 2.14 2.44 4.3 3.29 6.53 11.54-48.38-14.6-168.36-14.6-168.36l-231.81-14.15 77.44 97.45z"/>
<path d="m1618.8 1708c-5.43-0.11-10.86-0.08-16.31 0.07-254.58 6.67-517.56 285.37-517.56 285.37-97.278 312.29-166.7 784.09 178.19 1107.4 195.8-166.3 290.19-281.84 385.4-609.13-24.43 198.84-0.1 366.93 77.75 496.5 158.51-43.33 352.92-451.52 300.07-735.43-76.93-413.23-239.11-541.36-407.54-544.82zm13.6 63.35c28.74-0.24 57.21 5.08 82.22 19.25l28.68 51.22 0.85-33.54c3.59 4.37 15.41 29.13 40.28 70.47-23.59-5.86-43.97-8.03-43.97-8.03l-56.94-58.28-0.09 63.31-128.47 2.32-1.78-72.94-59.81 66.34s-58.27 8.56-110.75 26.03c17.65-43.93 100.23-85.03 109.06-90.22l-0.81 41.79 36.15-56.19c31.03-11.72 68.42-21.23 105.38-21.53zm-257.63 267.68c83.98 2.37 213.91 91.82 213.91 91.82-102.9 185.29-159.67 209.49-196.22 211.22 0 0-95.72-70.97-87.22-235.72 2.66-51.49 31.36-68.39 69.53-67.32zm492.69 9.57c32.01-1.04 56.05 15.25 58.28 64.75 7.13 158.39-73.12 226.56-73.12 226.56-30.65-1.66-78.27-24.9-164.57-203.03 0 0 108.98-86.01 179.41-88.28zm-766.41 348.06c0.44-0.06 0.89-0.05 1.35 0.09 12.89 4.18 26.08 8.64 40.81 13.72 3.26 1.13 71.51 25.12 90.97 31.63 58.93 19.72 105.11 31.64 155.53 38.78 60.36 8.54 124.26 9.33 197.84 1.44 2.11-0.23 3.78 1.74 3.22 3.78-32.61 119.53-77.47 222.94-131.5 311.25-41.39 67.66-85.74 122.66-130.12 166-15.55 15.18-30 27.83-42.97 38.06-4.55 3.59-8.6 6.6-12.09 9.09-1.23 0.88-2.31 1.63-3.22 2.25-0.56 0.38-0.92 0.62-1.13 0.75-1.16 0.76-2.71 0.62-3.72-0.34-0.09-0.09-1.43-1.42-2-2-1.6-1.64-3.44-3.59-5.53-5.88-5.94-6.5-12.57-14.31-19.69-23.43-20.3-26.04-40.59-57.39-59.53-94.07-29.93-57.98-53.58-123.78-68.62-197.5-18.15-88.95-22.99-185.93-12.16-290.96 0.15-1.43 1.26-2.47 2.56-2.66zm891.44 40.31c1.81-0.38 3.82 1 3.63 3.19-6.49 74.96-22.11 144.44-45.63 208.53-20.22 55.13-45.86 105.09-75.62 150.03-27.28 41.18-56.51 75.96-85.75 104.47-10.25 9.99-19.77 18.47-28.32 25.5-2.99 2.47-5.66 4.59-7.96 6.34-0.81 0.62-2.71 2.03-2.85 2.13-1.46 1.04-3.51 0.55-4.37-1.03-0.04-0.07-0.57-1.03-0.78-1.44-0.61-1.17-1.28-2.57-2.07-4.19-2.24-4.6-4.75-10.07-7.43-16.37-7.65-17.97-15.28-39.03-22.41-63.1-13.09-44.17-22.94-93.28-28.25-146.9-6.51-65.75-5.86-135.25 3.28-208.1 0.2-1.56 1.59-2.7 3.16-2.62 115.26 6.07 271.27-21.67 299.72-55.44 0.47-0.56 1.05-0.87 1.65-1z" opacity=".94808"/>
</g>
<g visibility="hidden" vectornator:layerName="Layer 3">
<path d="m1296.4 560.04c-41.25 1.261-65.11 13.628-63.1 38.281 46.5 568.65-399.69 1155.7-332.65 1385.6 1.789 8.07 48.368 157.13 169.44 85.63 26.62-15.73 26.53-70.13 26.53-70.13s36.25-49.74 65.68-73.34c0 0-16.38 3.25-21.59-8.82-14.65-33.9-42.05-48.56-71-53.65 0.23-0.06 0.4-0.1 0.63-0.16l244.21-451.69c0.15-0.28 0.41-0.46 0.54-0.53 0.82-0.61 338.64-252.57 339.84-253.47 206.74-153.66 332.25-245.7 339.97-248.4 0.36-0.127 0.76-0.022 1.03 0.25 3.91 3.918 5.08 5.6 5.12 6.875 0.1 0.08 0.24 0.199 0.5 0.375 0.61 0.409 1.34 0.857 4.25 2.657 0.59 0.361 0.63 1.19 0.1 1.625l-636.66 518.87-250.34 430.85 299.37-386.44c0.13-0.16 0.31-0.28 0.5-0.34 1.22-0.37 72.31-21.84 98.38-29.63 74.49-22.24 150.4-44.54 223.25-65.47 208.26-59.82 350.19-96.55 390.15-98.56 0.2-0.01 0.4 0.06 0.57 0.16 0.62 0.37 1.95 0.96 1.97 0.97 3.13 1.32 5.4 2.95 11.34 8.68 0.54 0.53 0.34 1.43-0.38 1.66l-696.21 226.94-304.32 374.87s324.67-233.81 324.32-233.72c1.12 0.23 533 37.78 548.93 41.1 0.46 0.09 0.78 0.49 0.78 0.97 0 0.12-22.88-234.43 134.57-411.04-77.72-86.32-175.88-148.88-136.91-383.06-202.58-225.24-571.49-362.41-718.81-357.91z" opacity="0"/>
</g>
<g visibility="hidden" vectornator:layerName="Layer 7">
<path d="m1600 53.047c854.36 0 1547 692.59 1547 1547 0 854.36-692.59 1547-1547 1547-854.36 0-1547-692.59-1547-1547 0-854.36 692.59-1547 1547-1547z" fill="#fff"/>
</g>
<g visibility="hidden" vectornator:layerName="Layer 5">
<path d="m1422 154.91 189.56 50.625s-1.38-39.658 14.26-76.457c20.27 0.362 14.72-0.581 35.18-0.577 7.78 37.437 15.15 73.04 15.03 97.187l53.01 24.571 115.15-63.426s10.62-74.167 24.7-110.74c31.47-2.0095-441.2-1.009-469.75 0.269-0.99-1.3951 22.86 78.543 22.86 78.543zm518.06 11.64c-2-0.076-4.13-0.016-6.39 0.161-36.31 2.848-105.86 38.053-186.92 92.577 72.38 34.095 146.01 76.059 214.27 124.72-3.98-66.689-4.53-132.36-0.46-195.99 0.91-14.139-6.53-20.946-20.5-21.476zm-573.81 4.321c-42.56 1.301-67.18 14.062-65.1 39.501 47.97 586.77-412.44 1192.5-343.26 1429.7 1.801 8.12 47.687 154.75 166.07 93.12-85.2 318.56-118.46 753.37 207.95 1059.4 202.03-171.6 299.43-290.82 397.68-628.53-25.21 205.17-0.1 378.61 80.23 512.31 163.55-44.71 364.16-465.9 309.62-758.86-79.38-426.39-246.73-558.61-420.51-562.17-5.61-0.11-11.22-0.08-16.84 0.07-179.01 4.69-361.86 139.64-460.3 225.2-5.42-0.14-12.86-1.63-16.19-9.32-15.11-34.99-43.39-50.11-73.26-55.36 0.24-0.06 0.41-0.11 0.65-0.17l251.99-466.07c0.16-0.29 0.42-0.48 0.55-0.55 0.85-0.64 349.43-260.62 350.67-261.54 213.32-158.56 342.83-253.53 350.8-256.32 0.37-0.131 0.78-0.022 1.06 0.258 4.04 4.042 5.25 5.778 5.29 7.094 0.1 0.082 0.25 0.205 0.52 0.387 0.62 0.422 1.38 0.884 4.38 2.741 0.61 0.373 0.65 1.229 0.1 1.677l-656.94 535.4-258.31 444.57 308.91-398.75c0.13-0.17 0.31-0.29 0.51-0.36 1.26-0.38 74.61-22.53 101.51-30.56 76.87-22.95 155.19-45.97 230.36-67.56 214.9-61.726 361.35-99.631 402.59-101.7 0.2-0.01 0.4 0.058 0.58 0.161 0.64 0.382 2.01 0.992 2.03 1 3.23 1.371 5.57 3.051 11.7 8.964 0.56 0.54 0.36 1.468-0.38 1.709l-718.4 234.17-314.01 386.82s335.01-241.26 334.65-241.17c1.16 0.24 549.97 38.98 566.42 42.41 0.48 0.09 0.8 0.51 0.81 1 0 0.12-23.62-241.89 138.85-424.13-80.2-89.079-181.49-153.62-141.27-395.26-209.03-232.42-589.7-373.95-741.71-369.31zm499.96 1184.3 79.91 100.58c37.68 38.15 71.93 87.69 101.22 151.19 6.25 2.24 12.23 3.94 17.83 5.03 1.76-0.02 3.45-0.22 5.16-0.41 26.12-13.58 41.83-36.44 49.46-67.08-0.6-2.64-1.56-5.21-2.71-7.73 1.33 2.2 2.52 4.47 3.39 6.77 11.91-49.92-15.06-173.74-15.06-173.74l-239.2-14.61zm-419.09 341.74c86.66 2.44 220.72 94.74 220.72 94.74-106.17 191.19-164.76 216.16-202.47 217.94 0 0-98.77-73.22-90-243.22 2.75-53.13 32.36-70.57 71.75-69.46zm508.38 9.87c33.04-1.07 57.84 15.73 60.14 66.81 7.36 163.43-75.45 233.78-75.45 233.78-31.63-1.72-80.77-25.7-169.81-209.5 0 0 112.45-88.75 185.12-91.09z"/>
</g>
<g visibility="hidden" vectornator:layerName="Layer 6">
<path d="m1600 0c-883.66 0-1600 716.34-1600 1600 0 883.66 716.34 1600 1600 1600 883.66 0 1600-716.34 1600-1600 0-883.66-716.34-1600-1600-1600zm0 106.09c825.06 0 1493.9 668.85 1493.9 1493.9 0 825.06-668.85 1493.9-1493.9 1493.9-825.06 0-1493.9-668.85-1493.9-1493.9 0-825.06 668.85-1493.9 1493.9-1493.9z"/>
</g>
<g vectornator:layerName="Layer 5 copy">
<path d="m1864.8 75.719c-11.99 40.775-20.62 111.13-20.62 111.13l-115.16 63.406-53-24.562c0.12-24.148-7.25-59.751-15.03-97.188-20.46-4e-3 -14.92 0.925-35.19 0.562-15.64 36.8-14.25 76.469-14.25 76.469l-189.56-50.625s-24.88-60.576-35.59-87.125c-753.27 104.05-1333.4 750.34-1333.4 1532.2 0 854.36 692.61 1547 1547 1547 854.36 0 1547-692.61 1547-1547 0-764.06-553.97-1398.7-1282.2-1524.3zm75.22 90.843c13.97 0.53 21.44 7.331 20.53 21.469-4.07 63.633-3.54 129.28 0.44 195.97-68.25-48.666-141.86-90.624-214.25-124.72 81.06-54.524 150.6-89.714 186.91-92.562 2.25-0.177 4.38-0.232 6.37-0.157zm-573.78 4.313c152.01-4.646 532.65 136.89 741.69 369.31-40.22 241.64 61.08 306.17 141.28 395.25-162.47 182.23-138.84 424.25-138.84 424.12-0.01-0.48-0.34-0.9-0.82-1-16.44-3.42-565.27-42.17-566.44-42.4 0.37-0.1-334.62 241.15-334.62 241.15l314-386.81 718.41-234.16c0.74-0.241 0.93-1.179 0.37-1.719-6.13-5.913-8.49-7.597-11.72-8.969-0.02-8e-3 -1.38-0.618-2.03-1-0.17-0.103-0.36-0.166-0.56-0.156-41.24 2.069-187.7 39.99-402.59 101.72-75.17 21.59-153.48 44.61-230.35 67.56-26.9 8.03-100.28 30.18-101.53 30.56-0.2 0.07-0.37 0.18-0.5 0.35l-308.91 398.75 258.32-444.56 656.93-535.41c0.55-0.448 0.51-1.315-0.09-1.688-3.01-1.857-3.78-2.297-4.41-2.719-0.27-0.182-0.4-0.324-0.5-0.406-0.04-1.316-1.24-3.051-5.28-7.094-0.28-0.28-0.69-0.381-1.06-0.25-7.96 2.788-137.49 97.758-350.81 256.31-1.24 0.919-349.81 260.9-350.66 261.54-0.13 0.06-0.41 0.27-0.56 0.56l-252 466.06c-0.24 0.06-0.39 0.13-0.63 0.19 29.87 5.25 58.14 20.35 73.25 55.34 3.33 7.7 10.77 9.17 16.19 9.31 98.45-85.55 281.3-220.49 460.31-225.18 5.62-0.15 11.21-0.18 16.82-0.06 173.78 3.56 341.15 135.77 420.53 562.15 54.54 292.96-146.07 714.17-309.63 758.88-80.33-133.71-105.43-307.15-80.22-512.32-98.24 337.72-195.65 456.94-397.68 628.53-326.41-306.02-293.17-740.84-207.97-1059.4-118.38 61.62-164.26-85-166.06-93.13-69.178-237.24 391.22-842.95 343.24-1429.7-2.07-25.438 22.57-38.199 65.13-39.5zm499.97 1184.3 239.19 14.59s26.97 123.84 15.06 173.75c-0.87-2.3-2.08-4.57-3.41-6.78 1.15 2.53 2.12 5.11 2.72 7.75-7.63 30.64-23.34 53.48-49.47 67.06-1.7 0.2-3.4 0.38-5.15 0.41-5.6-1.09-11.59-2.8-17.85-5.03-29.28-63.51-63.54-113.03-101.22-151.19l-79.87-100.56zm-419.1 341.72c-39.38-1.11-69 16.34-71.74 69.47-8.78 170 90 243.21 90 243.21 37.71-1.78 96.29-26.74 202.46-217.93 0 0-134.06-92.31-220.72-94.75zm508.38 9.87c-72.67 2.35-185.13 91.1-185.12 91.1 89.04 183.8 138.18 207.78 169.81 209.5 0 0 82.79-70.35 75.43-233.79-2.29-51.07-27.09-67.87-60.12-66.81z" fill="#fff"/>
</g>
</svg>
