<?xml version="1.0" encoding="UTF-8"?>
<svg class="main_logo" fill="none" viewBox="0 0 41 31" xmlns="http://www.w3.org/2000/svg">
<path d="m0.024741 20.087c-0.0061852 0.0248-0.0092779 0.0495-0.01237 0.0758-0.004639 0.0294-0.0077316 0.0572-0.009278 0.0866 0 0.0077-0.0030926 0.0154-0.0030926 0.0247 0 0.017 0.004639 0.0325 0.004639 0.048 0.0015463 0.0293 0.0030926 0.0572 0.0092779 0.0865 0.004639 0.0263 0.010824 0.0511 0.01701 0.0758 0.0061853 0.0248 0.013917 0.0495 0.023195 0.0742 0.009278 0.0248 0.020102 0.0495 0.032473 0.0727 0.010824 0.0232 0.023195 0.0449 0.037112 0.0681 0.013917 0.0216 0.02938 0.0433 0.044843 0.0634 0.015463 0.0216 0.032473 0.0417 0.051029 0.0618 0.017009 0.0186 0.037111 0.0371 0.055667 0.0541 0.020102 0.017 0.038658 0.034 0.060307 0.0495 0.023195 0.017 0.047936 0.0309 0.072677 0.0464 0.013917 0.0077 0.026287 0.0186 0.041751 0.0263l19.462 9.731c0.0077 0.0031 0.0154 0.0046 0.0216 0.0077 0.0109 0.0047 0.0201 0.0108 0.031 0.0155 0.0092 0.0046 0.0201 0.0062 0.0309 0.0108 0.0154 0.0062 0.0325 0.0108 0.0479 0.0155 0.0155 0.0046 0.0309 0.0093 0.0464 0.0123 0.0093 0.0016 0.017 0.0062 0.0263 0.0078 0.0093 0.0015 0.0185 0.0015 0.0278 0.0031 0.017 0.0031 0.034 0.0046 0.0526 0.0062 0.0186 0.0015 0.0371 3e-3 0.0541 3e-3h0.048c0.0185 0 0.0355-0.0015 0.0541-3e-3 0.017-0.0016 0.034-0.0047 0.0526-0.0062 0.0092-0.0016 0.0185-0.0016 0.0278-0.0031 0.0093-0.0016 0.017-0.0047 0.0263-0.0078 0.0154-3e-3 0.0309-0.0077 0.0464-0.0123 0.0154-0.0047 0.0324-0.0109 0.0479-0.0155 0.0108-0.0031 0.0201-0.0062 0.0309-0.0108 0.0109-0.0047 0.0201-0.0108 0.031-0.0155 0.0077-0.0031 0.0154-0.0046 0.0216-0.0077l19.462-9.731c0.0155-0.0077 0.0263-0.0186 0.0418-0.0263 0.0247-0.0139 0.0494-0.0294 0.0726-0.0464 0.0217-0.0155 0.0402-0.0325 0.0603-0.0495s0.0387-0.0355 0.0557-0.0541c0.0186-0.0201 0.034-0.0402 0.051-0.0618 0.0155-0.0201 0.031-0.0418 0.0449-0.0634 0.0139-0.0217 0.0247-0.0449 0.0371-0.0681s0.0232-0.0479 0.0325-0.0727c0.0092-0.0247 0.017-0.0494 0.0232-0.0742 0.0061-0.0247 0.0123-0.0495 0.017-0.0758 0.0046-0.0293 0.0062-0.0572 0.0092-0.0865 0.0016-0.0155 0.0047-0.031 0.0047-0.048 0-0.0077-0.0016-0.0154-0.0031-0.0247-0.0016-0.0294-0.0046-0.0572-0.0093-0.0866-0.0031-0.0248-0.0062-0.051-0.0124-0.0758-0.0061-0.0232-0.0139-0.0479-0.0216-0.0711-0.0093-0.0278-0.0186-0.0572-0.0325-0.0835-0.0031-0.0078-0.0046-0.0155-0.0077-0.0217l-9.7326-19.462c-0.0046-0.009278-0.0123-0.015463-0.017-0.023195-0.0278-0.051028-0.0603-0.098964-0.0989-0.14226-0.0093-0.010824-0.017-0.021649-0.0263-0.030927-0.0449-0.046389-0.0959-0.08814-0.1516-0.1237-0.0139-0.009278-0.0278-0.015464-0.0417-0.023195-0.0449-0.024741-0.0928-0.044844-0.1423-0.061853-0.017-0.0061853-0.034-0.010824-0.051-0.015463-0.0619-0.015463-0.1252-0.026287-0.1902-0.026287-0.0031 0-0.0046-0.0015463-0.0062-0.0015463-0.0077 0-0.017 0.0030926-0.0247 0.0030926-0.0511 0.0015463-0.1005 0.0061853-0.1485 0.01701-0.0154 0.0030926-0.0309 0.010824-0.0464 0.013917-0.0417 0.01237-0.0819 0.026287-0.1206 0.043297-0.0062 0.0030926-0.0139 0.0046389-0.0201 0.0077316-0.0154 0.0077316-0.0263 0.018556-0.0417 0.026287-0.0248 0.013917-0.0495 0.02938-0.0727 0.04639-0.0216 0.015463-0.0402 0.032473-0.0603 0.049482-0.0201 0.01701-0.0387 0.035565-0.0557 0.054121-0.0185 0.020102-0.034 0.040205-0.051 0.061853-0.0155 0.020102-0.0309 0.041751-0.0448 0.063399-0.014 0.021649-0.0248 0.044844-0.0372 0.068038-0.0123 0.023195-0.0232 0.047936-0.0324 0.072678-0.0093 0.024741-0.0155 0.049482-0.0232 0.074223-0.0062 0.024741-0.0124 0.049482-0.017 0.07577-0.0047 0.02938-0.0062 0.057214-0.0093 0.086594-0.0016 0.015463-0.0047 0.030926-0.0047 0.047936v17.504l-8.3454-8.3455c-0.0387-0.03866-0.0805-0.07268-0.1253-0.10206-0.0186-0.01237-0.0402-0.02165-0.0603-0.03247-0.0263-0.01392-0.051-0.02938-0.0789-0.04175-0.0263-0.01082-0.0541-0.01701-0.0804-0.02474-0.0232-0.00619-0.0464-0.01546-0.0696-0.0201-0.0525-0.01083-0.1051-0.01547-0.1592-0.01547-0.0526 0-0.1067 0.00619-0.1593 0.01547-0.0247 0.00464-0.0464 0.01391-0.0711 0.0201-0.0279 0.00773-0.0542 0.01392-0.0804 0.02474-0.0279 0.01082-0.0526 0.02783-0.0789 0.04175-0.0201 0.01082-0.0402 0.0201-0.0603 0.03247-0.0449 0.02938-0.0866 0.0634-0.1253 0.10206l-8.3455 8.3455v-17.504c0-0.01701-0.0046-0.032473-0.0046-0.047936-0.0015-0.02938-0.0031-0.057214-0.0093-0.086594-0.0046-0.026288-0.0108-0.051029-0.017-0.07577s-0.0139-0.049482-0.0232-0.074223c-0.0093-0.024742-0.0201-0.049483-0.0325-0.072678-0.0108-0.023194-0.0232-0.044843-0.0371-0.068038-0.0139-0.021648-0.0293-0.043297-0.0448-0.063399-0.0155-0.021648-0.0325-0.041751-0.051-0.061853-0.017-0.018556-0.0372-0.037111-0.0557-0.054121-0.0201-0.017009-0.0387-0.034019-0.0603-0.049482-0.0232-0.01701-0.0479-0.030927-0.0727-0.04639-0.0139-0.007731-0.0263-0.018556-0.0417-0.026287-0.0062-0.0030927-0.014-0.004639-0.0201-0.0077316-0.0387-0.018556-0.0789-0.030926-0.1191-0.043297-0.017-0.004639-0.0325-0.012371-0.0495-0.015463-0.0479-0.010824-0.0959-0.015463-0.1469-0.01701-0.0077 0.0015463-0.017-0.0015463-0.0247-0.0015463-0.0031 0-0.0047 0.0015463-0.0062 0.0015463-0.0665 0-0.1299 0.010824-0.1902 0.026287-0.017 0.0046389-0.034 0.010824-0.051 0.015463-0.0495 0.015463-0.0975 0.037112-0.1423 0.061853-0.0139 0.007731-0.0278 0.013917-0.0418 0.023195-0.0556 0.035565-0.1067 0.075769-0.1515 0.1237-0.00927 0.009278-0.01701 0.021649-0.02629 0.030927-0.03865 0.043297-0.07113 0.091233-0.09896 0.14226-0.00464 0.009278-0.01237 0.015464-0.01701 0.023195l-9.7325 19.462c-0.0030926 0.0078-0.004639 0.0139-0.0077316 0.0217-0.012371 0.0263-0.021648 0.0557-0.032473 0.0835-0.0077316 0.0232-0.015463 0.0464-0.021648 0.0711zm10.183 0.9974 5.9595 5.9595-11.919-5.9595h5.9596zm20.133 0h5.9595l-11.919 5.9595 5.9596-5.9595zm0.4747-1.6221v-15.216l7.6079 15.216h-7.6079zm-9.731 8.5836v-15.547l7.7733 7.7734-7.7733 7.7733zm-1.6206 0-7.7733-7.7733 7.7733-7.7734v15.547zm-17.339-8.5836 7.6079-15.216v15.216h-7.6079z" fill="#A3EC26"/>
</svg>
