<svg id="Layer_1" data-name="Layer 1" xmlns="http://www.w3.org/2000/svg" viewBox="0 0 800 800"><defs><style>.cls-1{fill:#0094ba;}.cls-2{fill:#88d581;}</style></defs><path class="cls-1" d="M373,579.33l-1.37,2.42c-17.16,30.2-61,29.29-76.88-1.61L140.47,280c-15-29.17,6.29-63.84,39.08-63.68h0a43.71,43.71,0,0,1,38.53,23.46L373.7,537.5A43.72,43.72,0,0,1,373,579.33Z"/><path class="cls-2" d="M511.34,575.26l-1,1.89c-16.12,29.22-58.3,28.71-73.7-.89L280.33,276c-14.3-27.48,5.2-60.42,36.16-61.11h0a41.81,41.81,0,0,1,37.92,22.3L511.72,535.56A41.83,41.83,0,0,1,511.34,575.26Z"/><path class="cls-2" d="M437.28,569.71h0c15.2,31.84,59.21,31.72,77.56-.21l103.44-180c17.78-30.95-2.15-68.56-36-68h-.06c-16,.27-31,9.45-39.37,24l-103.38,180C431.54,539.31,430.72,556,437.28,569.71Z"/><path class="cls-2" d="M631.43,207.11a50.15,50.15,0,1,0,50.15,50.14A50.14,50.14,0,0,0,631.43,207.11ZM653,265.38H629.09a5.33,5.33,0,0,1-5.33-5.33v-29.2a5.34,5.34,0,0,1,10.67,0v23.86H653a5.34,5.34,0,0,1,0,10.67Z"/></svg>