<?xml version="1.0" encoding="UTF-8"?>
<svg xmlns="http://www.w3.org/2000/svg" xmlns:xlink="http://www.w3.org/1999/xlink" version="1.1" id="Layer_1" x="0px" y="0px" viewBox="0 0 970.2 287.8" style="enable-background:new 0 0 970.2 287.8;" xml:space="preserve"> 
  <style type="text/css">
    .st0 {
      fill:#4D9BCC;
    }
  </style> 
  <g>
    <path d="M144.5,220.1l-11-27.8H78.7l-10.4,27.8H31.1L90.5,78.5h33.2l58.8,141.6H144.5z M106.5,116.3l-18,48.6h35.6L106.5,116.3z"></path>
    <path d="M257.1,147.5c-1.5-0.4-2.9-0.7-4.3-0.8c-1.4-0.1-2.8-0.2-4.1-0.2c-4.4,0-8.1,0.8-11.1,2.4c-3,1.6-5.4,3.5-7.2,5.8 c-1.8,2.3-3.1,4.7-3.9,7.4c-0.8,2.7-1.2,5-1.2,7v51.1h-32.8v-99.5h31.6v14.4h0.4c2.5-5.1,6.1-9.3,10.8-12.5 c4.7-3.2,10.1-4.8,16.2-4.8c1.3,0,2.6,0.1,3.9,0.2c1.3,0.1,2.3,0.3,3.1,0.6L257.1,147.5z"></path>
  </g>
  <g>
    <g>
      <path class="st0" d="M280.6,145.3c9,9,18,18,27,27c14.3,14.3,28.6,28.6,43,43c3.3,3.3,6.6,6.6,9.9,9.9c9.5,9.5,25.7,9.5,35.2,0 c5.3-5.3,11.2-10.2,16-16C449.3,164,518.1,59.4,518.2,59.3c9.2-9.2-28.9-40.4-38.8-30.6c-5.3,5.3-85.7,127.9-99.1,141.3 c-6.5,6.5-13.2,12.9-19.6,19.6c-0.1,0.1-0.2,0.2-0.3,0.3c11.7,0,23.4,0,35.2,0c-9-9-18-18-27-27c-14.3-14.3-28.6-28.6-43-43 c-3.3-3.3-6.6-6.6-9.9-9.9C306.6,100.9,270.8,135.5,280.6,145.3L280.6,145.3z"></path>
    </g>
  </g>
  <g>
    <path d="M586.3,171.3c0,1.3,0,2.7,0,4c0,1.3-0.1,2.6-0.2,3.8H514c0.3,2.8,1.1,5.3,2.5,7.6c1.4,2.3,3.2,4.2,5.4,5.9 c2.2,1.7,4.7,3,7.4,3.9c2.7,0.9,5.6,1.4,8.5,1.4c5.2,0,9.6-1,13.2-2.9c3.6-1.9,6.5-4.4,8.8-7.5l22.8,14.4 c-4.7,6.8-10.8,12-18.5,15.7c-7.7,3.7-16.6,5.5-26.7,5.5c-7.5,0-14.5-1.2-21.2-3.5c-6.7-2.3-12.5-5.7-17.5-10.2 c-5-4.5-8.9-10-11.8-16.5c-2.9-6.5-4.3-14-4.3-22.4c0-8.1,1.4-15.5,4.2-22.1c2.8-6.6,6.6-12.2,11.4-16.8c4.8-4.6,10.5-8.2,17-10.7 c6.5-2.5,13.6-3.8,21.2-3.8c7.3,0,14.1,1.2,20.2,3.7c6.1,2.5,11.4,6,15.8,10.7c4.4,4.7,7.8,10.3,10.3,17 C585.1,155.2,586.3,162.8,586.3,171.3z M556.1,158.7c0-5.2-1.6-9.7-4.9-13.4c-3.3-3.7-8.2-5.6-14.7-5.6c-3.2,0-6.1,0.5-8.8,1.5 c-2.7,1-5,2.4-7,4.1c-2,1.7-3.6,3.8-4.8,6.1c-1.2,2.3-1.9,4.8-2,7.3H556.1z"></path> <path d="M666.3,147.3c-1.5-0.4-2.9-0.7-4.3-0.8c-1.4-0.1-2.8-0.2-4.1-0.2c-4.4,0-8.1,0.8-11.1,2.4c-3,1.6-5.4,3.5-7.2,5.8 c-1.8,2.3-3.1,4.7-3.9,7.4c-0.8,2.7-1.2,5-1.2,7v51.1h-32.8v-99.5h31.6v14.4h0.4c2.5-5.1,6.1-9.3,10.8-12.5 c4.7-3.2,10.1-4.8,16.2-4.8c1.3,0,2.6,0.1,3.9,0.2c1.3,0.1,2.3,0.3,3.1,0.6L666.3,147.3z"></path> <path d="M716.5,88.5c0,2.5-0.5,4.9-1.5,7.1c-1,2.2-2.3,4.1-4,5.7c-1.7,1.6-3.7,2.9-6,3.8c-2.3,0.9-4.8,1.4-7.3,1.4 c-5.3,0-9.8-1.8-13.4-5.3c-3.6-3.5-5.4-7.8-5.4-12.7c0-2.4,0.5-4.7,1.4-6.9c0.9-2.2,2.3-4.1,4-5.7c1.7-1.6,3.7-2.9,6-3.9 c2.3-1,4.7-1.5,7.4-1.5c2.5,0,5,0.5,7.3,1.4c2.3,0.9,4.3,2.2,6,3.8c1.7,1.6,3,3.5,4,5.7S716.5,86,716.5,88.5z M681.3,219.9v-99.6 h32.8v99.6H681.3z"></path> <path d="M801.9,92.9c-1.2-0.4-2.6-0.7-4.2-1c-1.6-0.3-3.2-0.4-4.8-0.4c-3.1,0-5.5,0.5-7.4,1.6c-1.9,1.1-3.3,2.5-4.4,4.3 c-1.1,1.8-1.8,3.8-2.2,6.1c-0.4,2.3-0.6,4.5-0.6,6.8v10h22.2v24.4h-22.2v75.2h-32.8v-75.2h-18.2v-24.4h18.2v-9.6 c0-6.1,0.7-12,2-17.5c1.3-5.5,3.6-10.4,6.9-14.6c3.3-4.2,7.7-7.5,13.2-10c5.5-2.5,12.4-3.7,20.7-3.7c2.8,0,5.6,0.2,8.3,0.5 c2.7,0.3,5.2,0.8,7.5,1.5L801.9,92.9z"></path> <path d="M879.1,234.9c-2,5.2-4.2,9.8-6.7,13.9c-2.5,4.1-5.4,7.5-8.8,10.4c-3.4,2.9-7.4,5-12,6.5c-4.6,1.5-10,2.2-16.3,2.2 c-3.1,0-6.2-0.2-9.5-0.6c-3.3-0.4-6.1-0.9-8.5-1.6l3.6-27.6c1.6,0.5,3.4,1,5.3,1.3c1.9,0.3,3.7,0.5,5.3,0.5c5.1,0,8.7-1.2,11-3.5 c2.3-2.3,4.2-5.6,5.8-9.9l3.2-8.2l-41.6-98h36.4l22.2,64h0.6l19.8-64h34.8L879.1,234.9z"></path>
  </g>
</svg>