<?xml version="1.0" encoding="UTF-8"?>
<svg enable-background="new" version="1.1" viewBox="0 0 500 500" xmlns="http://www.w3.org/2000/svg" xmlns:cc="http://creativecommons.org/ns#" xmlns:dc="http://purl.org/dc/elements/1.1/" xmlns:rdf="http://www.w3.org/1999/02/22-rdf-syntax-ns#">
<g transform="matrix(.99573 0 0 1.0017 19.613 17.694)">
<path d="m-1.017 1.0169h480v480h-480z" fill="#f3a829"/>
<path d="m-1.017 1.0169 390.24 52.215c107.73 662.14-389 475.79-390.24-52.215zm285.84 294.14c-203.01 124.21-101.51 62.107 0 0zm-165.56-21.985c-17.161-1.6632-7.5528 12.244-2.167 16.544 46.865 14.003 50.397-6.7038 2.167-16.544zm86.822 20.527c11.198-0.54855 26.307-5.836 5.8986-7.0121-15.04-2.3204-21.899-18.496-0.75262-12.765 16.149-2.1026 27.414-8.6509 36.927-19.484 4.8665-8.5003 21.829-12.96 1.3327-10.476-19.564 7.253-50.695 32.743-46.926-6.5725-0.47836-23.942 14.174-49.747 23.883-66.963 2.0235-17.861-39.519-17.177-53.746-28.696-14.44-7.5178-38.808-10.156-48.95-15.012 2.5745 19.744 30.229 36.97 9.7715 55.084-14.353 13.319 1.1774 27.499 14.747 22.431 14.784 14.223 21.009 37.685 37.147 52.699 11.727 8.0911 10.861 26.502-6.5383 21.532-25.157 16.708 18.825 15.038 27.205 15.234zm-127.42-14.232c-6.3062-13.626 19.09-14.227 1.0613-26.555-9.127-7.2479-15.721-25.834-0.58131-24.914 5.0122-21.442-27.831-8.404-31.747-5.6217 0.64842 13.866 34.392 28.754 17.977 37.391 15.983 9.0425-9.4183 20.532 13.29 19.7zm258.55-16.053c12.008-19.546-16.395 16.829 0 0zm19.849-10.929c-2.5515-3.3963-1.8941 5.1439 0 0zm-313.5-1.6233c-5.2594-16.362-8.7305 9.2703 0 0zm330.53-0.93704c-15.032-8.9862-7.249 9.5662 0 0zm-207.13 0.45704c-2.5793-15.178-33.498-12.264-7.6658-1.3362 0.73639-0.90519 8.2851 6.634 7.6658 1.3362zm180.81-5.8338c2.8225-5.4195-27.582 2.6658-8.4985 5.6661 3.2068-1.2517 5.873-3.5125 8.4985-5.6661zm-267.6 2.6452c-7.5878-3.5662 5.0342 6.1226 0 0zm332.66-4.2996c4.4802-8.4365-11.559 3.625 0 0zm-94.54-6.6696c12.902-7.7694 31.391-2.6679 40.386-13.202 15.847-12.893 32.42-23.482 35.308-45.049 0.45584-10.832-6.6183-23.516 2.0832-36.741-6.43-8.7144-17.536 19.514-30.848 16.226-11.515 1.71-27.457 33.675-8.4831 15.419-8.6017 19.83-23.655 37.776-37.318 54.957-5.0148 4.475-15.906 19.042-1.1288 8.3902zm-198.41-18.546c-15.743-17.699-11.234-44.483-6.903-65.853 1.8677-10.544 8.438-23.854-8.016-15.253-14.895-6.301-26.295 5.3176-21.784 18.381-11.186 2.5267-23.086 0.0347-17.66 10.103-12.695 14.607 5.5616 28.504 16.264 30.565 8.6815 6.1288 28.041 18.575 41.756 25.886zm105.98 0.85943c-10.506-11.553 12.823-49.428 24.321-32.588 9.6119 8.6982 3.554 19.383 14.538 21.751 9.0153 15.361 11.028-27.989-0.16381-24.76-9.9252-5.5795 7.999-50.691-19.713-29.657-11.37 15.004-16.431 35.238-30.286 48.704-3.9049 14.27 1.7478 12.755 11.304 16.549zm195.25-11.938c16.058-0.40545 41.029-12.164 20.587-25.053-17.241-0.42784-23.839 9.6351-28.787 27.44zm-131.74-7.7617c-2.026-11.324 1.228-52.015-3.6413-20.018 0.53716 2.4873-1.7291 28.576 3.6413 20.018zm-43.183-49.016c7.7649-6.3094 21.796-22.789 23.995-26.88-4.4407-8.0569 26.2-27.296 18.127-2.1678-12.28 8.0184 7.6792 34.338 14.093 12.496 14.253-3.5095 24.426 1.3164 23.982-14.418 8.9296-12.613-2.8819-33.423-12.614-37.256-13.795-3.7064-16.194-15.187-31.573-15.076-0.84088-23.694-25.557 4.7058-31.24 10.806-7.1613 7.1075 5.9038 19.186-9.5889 18.756 1.4678 16.904-21.473 37.321-8.2819 54.177 5.5281 6.7949 7.222 0.99981 13.102-0.43647zm8.424-20.581c0.42256-10.449 12.875-15.954 4.9155-0.38834l-3.1156 3.689zm5.8739-28.904c0.74552-10.54 6.157 8.2432 1e-5 0zm-44.935 48.376c-3.2386-8.0019-11.869-13.335 1.3524-15.404-13.338-3.5606-13.981-4.5-16.227-12.107-4.523 0.24938-14.355-12.797-11.284 4.6162 7.2024 11.185 3.4531 16.286-3.8028 4.0309-11.877-6.7733 1.8777-20.962-15.019-9.8742 1.1822 10.755 17.896 31.901 36.859 30.255 3.0568 0.40727 10.132 5.9436 8.1214-1.5169zm72.392-2.7316c-2.4528-3.444-2.4528 3.444 0 0zm-0.96-4.8c-2.4528-3.444-2.4528 3.444 0 0zm-120-18.884c-6.977-11.276-7.4656 2.9745 0 0zm58.568-21.61c-1.0339-10.568 18.908-23.956 2.9101-22.865-8.9852 3.5293-11.046 13.632-16.872 5.7377-7.1248 10.469-18.842 25.97 2.9142 21.493 5.3031 1.9023 9.7222 2.4867 11.048-4.3649zm18.243-19.045c1.3722-10.26-5.5374 6.0758 0 0z" fill="#ff7f2a" stroke-width=".96"/>
<path d="m36.044 259.09c6.0362 8.0849 21.253 9.846 7.1904-0.84787 9.0268-8.428-10.099-19.616 4.971-18.494-7.2524-14.719 19.463 5.8804 17.969 12.796 12.099 3.4214-13.242 1.7559 1.0037 12.036 2.391 8.408-9.2285 14.876 9.0847 21.006-10.566-8.9565 8.412 0.53112 2.1059-12.805 5.8422-7.6764 13.931-9.1893 3.6015-20.03 26.555 10.508 2.3921-10.883-7.3374-15.384-8.6332-13.1 15.635-7.2946 1.5328-22.653-13.318 2.7488-20.223 6.522-22.776-9.7405-17.849-17.116-8.6316-42.148-16.678-62.532 2.9927-6.708 13.703-10.933 18.608-18.384 17.594 8.9244 34.055 6.4548 39.044-14.049 18.853-9.2808 45.969 2.5415 56.272-17.015 29.711 19.412 39.672-16.324 56.98-33.099 100.63-91.374 79.845-30.262 122.9-5.2772 13.523 2.8709 13.06 23.405 18.967 7.227 22.696-2.0636 46.713-17.081 68.673-4.8895 21.526 5.6081 9.0432 41.862 19.995 44.639 46.625-113.08 31.714-105.95 11.285-17.74 54.467 33.103-14.387 68.062-4.8211 69.38 15.244-19.143 10.482-27.625 7.6429-20.149 59.652 14.554-2.5577 76.441 2.8672 74.367 11.565-3.1647 13.79-9.9346 0.74863-2.3826-18.774 5.2458 4.6502-29.398-18.301-24.869-27.486-6.4988-20.143 29.757-37.644 41.382-11.732 9.6979-3.6382 15.664-20.287 13.779-14.56 1.0344-22.165-2.5312-36.391 7.2616-13.534-1.7217-17.352 11.073-14.46 15.214-3.4965 9.4517-9.8993 40.59 3.1893 16.792 6.5294-15.164 26.177-29.776 18.361-3.1297-2.7067 25.036 5.4482-35.916 18.097-14.673 7.5757-9.6688 24.067-17.798 20.694 2.4322 118.37 177-308.88-46.369-353.09-0.17126zm271.28 41.834c3.3538-27.434-25.885-9.8217-31.208 1.9391 13.449 52.775 62.88 68.644 31.208-1.9391zm-130.41 1.0497c-131.07 119.67-65.537 59.835 0 0zm50.073-3.3429c12.988-3.7958 28.156-10.392 35.02-21.002-18.192 9.9197-49.175 16.688-64.304-1.362 16.96-4.4912 36.173-1.6099 48.12-16.922 9.3343-5.1762 29.558-25.967 4.5815-17.816-18.225-2.4503 12.027-23.783 9.3934-16.677-1.2547 16.1 39.601-2.2378 29.504-12.458 4.4731-23.558-3.7474-51.755 12.182-72.344 13.16-11.918 15.713-5.9788 10.22-0.10132 8.6622 8.2694-28.778 21.855-4.0448 13.501 9.0065-6.725 15.55-17.662 22.211-24.976-9.4248-8.9337 10.688-21.364-1.5209-32.618-4.4861-16.705-27.817-23.675-41.945-29.65-6.0985-26.438-27.306 2.9068-41.555 8.4333-5.3279 12.022-32.981-18.072-28.069 1.3611 5.3819 8.6901-11.849-0.12504-11.534 13.644-14.761 16.157 1.4246 17.787 15.468 16.762 10.532 0.71505 4.5576-23.102 16.495-20.708 10.485-1.7022 15.384 8.925 3.846 9.558-6.1674 20.858-23.628 44.941-5.2125 64.791 2.9043 12.505-16 37.992-20.737 33.802 7.5934-13.576 27.131-31.789 0.75568-37.662-11.161-1.6174-29.531-11.021-7.2003-4.5055 11.668 8.1613 12.257-24.647-0.97747-23.981-9.1538-19.166-28.592-12.489-42.783-11.608-16.774 1.1884 17.403 9.6677 13.402 20.87 3.2201 7.6675 21.8 14.212 2.7241 8.3492-15.588-8.3339-49.651-19.405-57.96-17.418 2.7057 17.393 28.453 35.563 6.2484 49.051-7.6596 17.99 0.84966 32.966 18.282 36.684 16.232 3.5347 27.429 40.332 0.92734 23.011-19.503-9.0653 19.514 30.329 24.437 14.983 7.0155 7.1511 15.674 28.698 16.748 26.207-20.253-5.5609-26.425 22.109-2.7748 18.775 15.411-1.0474 23.894 9.4434 40.054 2.0249zm-18.482-39.722c-8.2548-14.678-6.1953-46.117 4.1398-53.026-7.7084 17.704-6.3763 40.67 16.682 36.298 0.68097 5.9362-14.461 25.575-20.822 16.728zm71.433-86.528c-11.199-9.2646-14.465-29.304-26.793-26.842 7.7073-13.778 20.815-19.056 21.627-30.682 14.865-19.073 17.071 9.7859 4.4366 15.359-8.5704 13.586 6.4621 39.348 0.72939 42.166zm-90.648-38.69c-12.971-5.1362-8.6646-24.71-0.381-7.4683-0.25078 3.1311 7.9402 14.984 0.381 7.4683zm-28.779 155.61c6.0731-16.635-27.138-11.476-38.229-17.272-18.975-3.2532-22.133 13.3-5.0273 18.914 11.976 2.8683 39.035 18.015 43.256-1.642zm113.64 2.1434c10.97-5.9172 35.85-21.151 9.5768-8.9604-5.0258 0.81711-26.231 19.097-9.5768 8.9604zm106.57-33.826c-266.95 149.24-133.47 74.62 0 0zm-319.82 19.19c-12.266-10.201-9.4255-0.96412 1.4272 0.4256l-1.4272-0.4256zm255.44-2.421c-1.2043-16.291-25.905 6.7309-5.2691 0.67749l2.561-0.1743zm-20.235-23.312c17.904-15.109 38.327-19.793 60.373-22.582 9.1661-6.9163 17.775-18.423 29.1-25.181 2.8439-11.23 19.186-28.608 7.9098-37.14-5.3194-11.308 8.1196-28.514 5.1955-35.854 8.8686-12.7-12.497 12.176-8.5398-4.6205 0.12935-20.77-14.216-40.226-32.722-34.014 10.67 22.167 7.6827 47.36 0.8798 69.343-20.264 15.474-6.1134 32.21-26.023 46.296-18.467 11.619-32.445 28.849-44.333 46.715 1.4465 3.057 6.6442-3.3616 8.16-2.9638zm76.774-97.454c4.5643-11.646 15.995-3.7711 1.0659 0.87894zm-241.83 73.413c-7.5878-3.5662 5.0342 6.1226 0 0zm-5.2574-5.0411c-19.931-14.549-17.835-43.721-13.141-65.31 2.3304-11.197 12.088-32.998-7.9845-22.031-14.533-4.6038-27.756 5.5246-23 18.417-13.333 1.5754-24.311-2.9061-18.935 11.914-11.07 20.973 5.9225 31.05 23.665 36.544 12.926 3.5334 28.954 21.765 39.396 20.466zm176.55-184.95c-5.086-8.6446-26.07-21.056-22.582-12.576 8.4816-4.3584 13.926 12.31 22.582 12.576zm-260.32 190.14c-17.27-1.0603-16.541-34.081-3.4414-13.194 5.8831 2.4864 18.888 25.932 3.4414 13.194zm156.92-159.36c-12.124 17.376-28.028 37.894-48.67 18.161-6.0571-5.2008-5.4013 9.9074-11.8-1.4362-399.28-43.529 84.214-57.187 60.47-16.725z" fill="#708451" stroke-width=".96"/>
<path d="m-19.697-17.663v498.68h498.68v-313.65c-9.6168 28.664-37.006 52.226-59.965 70.268-106.18 79.419-283.11 130.9-367.74 25.242-16.849-27.646 2.6385-61.828-0.38477-93.871 0.01279-34.232 46.031-33.709 67.369-51.967 58.018-31.799 124.73-74.816 195.87-58.498 62.668 16.699 114.76 56.211 164.86 96.436v-172.64z" fill="#0ff" stroke-width=".96"/>
<path d="m176.91 301.97c-11.227-2.7854-26.836 13.799-15.206 22.548 88.173 101.16-72.558 34.444-120.69-36.293-13.35-17.216-9.8346-26.916 8.2532-23.694-9.0479-5.5588-1.7382-18.033-7.3061-24.261 12.011 4.2086-3.8982-10.006 8.8599-4.6072 9.9762-0.44521 14.804 19.383 17.924 20.188-14.078-2.0493 9.2936 15.825-4.3365 17.99-0.93296 7.1505 16.841 15.068 8.6112 6.8309 11.372 4.6101 1.1817-17.174 14.75-16.586-9.2135-13.824-3.5246-9.926 7.8556-9.2914-18.85-15.944-35.302-24.757-15.487-29.518 1.2821-23.521-27.099 5.2521-25.214-17.989-17.834-16.948-11.438-41.472-17.374-62.285-4.2068-10.991 14.454-9.0046 15.569-20.286 18.002 4.9505 36.208 8.6314 41.242-14.712 18.853-9.2808 45.969 2.5415 56.272-17.015 29.711 19.412 39.672-16.324 56.98-33.099 99.08-58.876 79.315-30.57 122.9-5.2772 13.523 2.8709 13.06 23.405 18.967 7.227 22.696-2.0636 46.713-17.081 68.673-4.8895 24.867 11.633 4.672 45.399 29.066 57.972 14.528 7.4377 4.4356 28.642-2.6074 38.308 7.605 8.4977 38.772 26.49 24.306 41.9-35.196 38.206-9.3784-18.168-31.348-14.933-27.486-6.4988-20.143 29.757-37.644 41.382-11.732 9.6979-3.6382 15.664-20.287 13.779-14.56 1.0344-22.165-2.5312-36.391 7.2616-13.534-1.7217-17.352 11.073-14.46 15.214-5.0328 10.24-8.4504 42.725 5.4258 18.632 4.3514-11.855 20.205-19.771 12.24-0.69723 1.4788 27.605 8.4153-40.559 20.237-18.418-14.756 27.986-80.079 75.868-189.78 44.617zm96.485 0.38355c-182.27 118.43-91.133 59.215 0 0zm-46.412-3.7264c12.988-3.7958 28.156-10.392 35.02-21.002-41.922 22.144-101.31-11.716-116.44-29.766 16.96-4.4912 79.678 19.603 100.25 11.482 9.3343-5.1762 29.558-25.967 4.5815-17.816-18.225-2.4503 12.027-23.783 9.3934-16.677-1.2547 16.1 39.601-2.2378 29.504-12.458 4.4731-23.558-3.7474-51.755 12.182-72.344 13.16-11.918 15.713-5.9788 10.22-0.10132 8.6622 8.2694-28.778 21.855-4.0448 13.501 9.0065-6.725 15.55-17.662 22.211-24.976-9.4248-8.9337 10.688-21.364-1.5209-32.618-4.4861-16.705-27.817-23.675-41.945-29.65-6.0985-26.438-27.306 2.9068-41.555 8.4333-5.3279 12.022-32.981-18.072-28.069 1.3611 5.3819 8.6901-11.849-0.12504-11.534 13.644-14.761 16.157 1.4246 17.787 15.468 16.762 10.532 0.71505 4.5576-23.102 16.495-20.708 10.485-1.7022 15.384 8.925 3.846 9.558-6.1674 20.858-23.628 44.941-5.2125 64.791 2.9043 12.505-16 37.992-20.737 33.802 7.5934-13.576 27.131-31.789 0.75568-37.662-11.161-1.6174-29.531-11.021-7.2003-4.5055 11.668 8.1613 12.257-24.647-0.97747-23.981-9.1538-19.166-28.592-12.489-42.783-11.608-16.774 1.1884 17.403 9.6677 13.402 20.87 3.2201 7.6675 21.8 14.212 2.7241 8.3492-15.588-8.3339-49.651-19.405-57.96-17.418 2.7057 17.393 28.453 35.563 6.2484 49.051-7.6596 17.99 0.84966 32.966 18.282 36.684 16.232 3.5347 27.429 40.332 0.92734 23.011-19.503-9.0653 19.514 30.329 24.437 14.983 7.0155 7.1511 15.674 28.698 16.748 26.207-20.253-5.5609-26.425 22.109-2.7748 18.775 15.411-1.0474 23.894 9.4434 40.054 2.0249zm-18.482-39.722c-8.2548-14.678-6.1953-46.117 4.1398-53.026-7.7084 17.704-6.3763 40.67 16.682 36.298 0.68097 5.9362-14.461 25.575-20.822 16.728zm71.433-86.528c-11.199-9.2646-14.465-29.304-26.793-26.842 7.7073-13.778 20.815-19.056 21.627-30.682 14.865-19.073 17.071 9.7859 4.4366 15.359-8.5704 13.586 6.4621 39.348 0.72939 42.166zm-90.648-38.69c-12.971-5.1362-8.6646-24.71-0.381-7.4683-0.25078 3.1311 7.9402 14.984 0.381 7.4683zm-28.779 155.61c6.0731-16.635-27.138-11.476-38.229-17.272-18.975-3.2532-22.133 13.3-5.0273 18.914 11.976 2.8683 39.035 18.015 43.256-1.642zm113.64 2.1434c10.97-5.9172 35.85-21.151 9.5768-8.9604-5.0258 0.81711-26.231 19.097-9.5768 8.9604zm-213.25-14.636c-12.266-10.201-9.4255-0.96412 1.4272 0.4256l-1.4272-0.4256zm-16.8-2.6319c-5.6193-12.403-4.4108 7.4897 0 0zm272.24 0.2109c-1.2043-16.291-25.905 6.7309-5.2691 0.67749 1.7896-4e-3 3.52-0.35249 5.2691-0.67749zm-20.235-23.312c17.904-15.109 38.327-19.793 60.373-22.582 9.1661-6.9163 17.775-18.423 29.1-25.181 2.8439-11.23 19.186-28.608 7.9098-37.14-5.3194-11.308 8.1196-28.514 5.1955-35.854 8.8686-12.7-12.497 12.176-8.5398-4.6205 0.12935-20.77-14.216-40.226-32.722-34.014 10.67 22.167 7.6827 47.36 0.8798 69.343-20.264 15.474-6.1134 32.21-26.023 46.296-18.467 11.619-32.445 28.849-44.333 46.715 1.4465 3.057 6.6442-3.3616 8.16-2.9638zm76.774-97.454c4.5643-11.646 15.995-3.7711 1.0659 0.87894zm-247.08 68.372c-19.931-14.549-17.835-43.721-13.141-65.31 2.3304-11.197 12.088-32.998-7.9845-22.031-14.533-4.6038-27.756 5.5246-23 18.417-13.333 1.5754-24.311-2.9061-18.935 11.914-11.07 20.973 5.9225 31.05 23.665 36.544 12.926 3.5334 28.954 21.765 39.396 20.466zm176.55-184.95c-201.56 295.31-100.78 147.65 0 0zm-260.32 190.14c-17.27-1.0603-16.541-34.081-3.4414-13.194 5.8831 2.4864 18.888 25.932 3.4414 13.194zm151.24-153.11c-128.84 270.62-64.419 135.31 0 0z" fill="#f60b1e" stroke-width=".96"/>
<path d="m339.13 480.19c-12.643 2.2069-8.9987-19.501-17.233-15.337-10.039-12.89-37.507-15.281-39.224-28.76 15.976-12.437-20.008-18.458-29.809-18.617-12.549-1.1289-13.381-4.4191-10.858-9.5068 2.2476-16.46-13.083-20.554-29.341-24.391-8.8473 13.868-0.13758 13.549-13.732 24.117-4.9122 26.204-5.1997-18.109-0.69215-26.279 3.4285-14.956 8.2626-36.162 22.935-15.104 16.705 10.648 32.932 23.842 50.63 31.625 10.171 4.2685 44.819 11.296 26.014-8.9546-16.624-16.777-21.498-43.986-40.601-57.22-134.39 99.074-155.19-121.79-70.291-35.159 14.882-9.9511 51.369 5.4476 66.586-10.476 11.32-12.879 45.673-24.047 54.404-15.176-18.352 6.2517 21.949 7.2557 3.5107-5.838 6.1977-7.516 25.349-19.176 16-1.6354-6.3824 11.276-3.9965 34.403 6.7852 12.991 17.204 9.4307 28.858-25.469 33.583-18.878 8.3406-9.354 69.773-77.39 21.333 1.6676 2.0485 26.688 43.781 3.8336 56.107-8.1593 9.5346-8.6402 22.427-1.2731 33.743-3.3176 0.26832 13.099-0.30128 26.681-0.84 39.316-8.1811 20.244-39.926 14.415-59.646 36.017-9.65 16.758-29.997 8.7028-35.828 25.389-14.305-2.3053-30.767-5.3389-31.508 15.526-5.2018 14.216-11.923 38.865-4.7305 49.934 23.312 3.8988 43.83-14.248 65.352-1.0695 21.753 5.9553 25.147-25.74 44.556-30.747 12.247-10.594 12.488-36.712 22.209-41.76 0.71477 46.872 0.3388 93.754 0.43401 140.63h-65.819c-4.575-12.79 16.202-5.8451 23.812-7.1969 0.62511-21.705-35.23 5.1721-38.356-17.881-11.42-7.1094-37.624-24.8-45.111-13.434 23.326 18.065 32.094 34.579 32.432 38.328-21.028-2.0884-44.248 0.40055-46.807-0.64421zm-32.45-171.83c2.4235-16.976-12.549-9.7188-21.732 0.45667-0.98933 19.601 6.3219 35.327 15.085 45.742 9.6624 2.503 25.302 53.381 6.6471-46.199zm-32.53-16.919c10.97-5.9172 35.85-21.151 9.5768-8.9604-5.0258 0.81711-26.231 19.097-9.5768 8.9604zm145.08 4.74c16.431-3.3955 56.94-7.4362 47.827-32.844-19.782-5.7179-47.046 25.209-62.836 28.855-8.7196 9.3582-36.578 40.806 15.009 3.9886zm-39.09-36.015c-266.56 147.54-133.28 73.77 0 0zm-231.93 128.31c-25.49-1.0366-24.556-36.589-51.689-25.073-31.338 8.5322-15.622-33.15-30.708-44.14-14.204-14.82-33.167-35.027-32.847-55.121 19.501 2.7241 32.784 17.408 50.387 26.936 39.041 15.019 173.13 21.744 110.36 70.997-2.5846 13.029-19.628 17.933-45.502 26.401zm-102.48-139.43c-11.745-13.426 5.098-9.8123 0 0zm-0.19215-11.873c-3.4446-9.1411 10.573 6.7788 0 0zm409.61-29.709c-316.57 182.67-158.28 91.337 0 0z" fill="#4f6827" stroke-width=".96"/>
<path d="m5.772 1.0169h425.77v425.77h-425.77z" fill-opacity="0"/>
</g>
</svg>
