<?xml version="1.0" encoding="UTF-8"?>
<svg enable-background="new 0 0 500 500" version="1.1" viewBox="0 0 500 500" xml:space="preserve" xmlns="http://www.w3.org/2000/svg">
		<path d="m306.59 52.035c-7.828-0.081-15.452 1.061-22.911 3.193-1.252 2.831 36.773 40.073-5.39 101.46-25.617 37.299-44.139 34.712-64.982 68.303-8.398-17.559-20.11-113.62 28.405-147.62-1.325 0.986-2.648 1.99-3.962 3.017-43.443 33.873-76.907 79.652-97.154 141.18-28.802 87.538-11.087 182.4 42.725 225.37 8.606 6.87 28.682 14.682 29.181 13.571-19.455-63.868 4.07-132.02 18.754-161.09 33.727-66.757 75.351-104.96 97.299-186.78 10.097-37.642 5.734-60.313-21.965-60.607z" fill="none"/>
		<path d="m221.85 162.39s19.195-61.071 45.405-97.695c0 0-51.474 37.946-45.405 97.695z" fill="none"/>
			<path d="m221.85 162.39s19.195-61.071 45.405-97.695c0 0-51.474 37.946-45.405 97.695z" fill="none"/>
			<path d="m306.59 52.035c-7.828-0.081-15.452 1.061-22.911 3.193-1.252 2.831 36.773 40.073-5.39 101.46-25.617 37.299-44.139 34.712-64.982 68.303-8.398-17.559-20.11-113.62 28.405-147.62-1.325 0.986-2.648 1.99-3.962 3.017-43.443 33.873-76.907 79.652-97.154 141.18-28.802 87.538-11.087 182.4 42.725 225.37 8.606 6.87 28.682 14.682 29.181 13.571-19.455-63.868 4.07-132.02 18.754-161.09 33.727-66.757 75.351-104.96 97.299-186.78 10.097-37.642 5.734-60.313-21.965-60.607z" fill="none"/>
				<path d="m306.59 52.035c-7.828-0.081-15.452 1.061-22.911 3.193-1.252 2.831 36.773 40.073-5.39 101.46-25.617 37.299-44.139 34.712-64.982 68.303-8.398-17.559-20.11-113.62 28.405-147.62-1.325 0.986-2.648 1.99-3.962 3.017-43.443 33.873-76.907 79.652-97.154 141.18-28.802 87.538-11.087 182.4 42.725 225.37 8.606 6.87 28.682 14.682 29.181 13.571-19.455-63.868 4.07-132.02 18.754-161.09 33.727-66.757 75.351-104.96 97.299-186.78 10.097-37.642 5.734-60.313-21.965-60.607z" fill="none"/>
				<path d="m221.85 162.39s19.195-61.071 45.405-97.695c0 0-51.474 37.946-45.405 97.695z" fill="none"/>
				<path d="m343.86 64.694c18.281 28.099-14.588 105.59-48.519 159.79-33.127 52.919-52.008 76.965-58.719 152.67-5.026 56.695 29.51 87.631 29.51 87.631 64.74-16.368 90.24-71.843 105.96-105.2 32.019-71.466 35.44-166.14 13.854-233.28-9.234-28.718-24.737-51.875-42.091-61.613z" fill="none"/>
					<path d="m306.59 52.035c-7.828-0.081-15.452 1.061-22.911 3.193-1.252 2.831 36.773 40.073-5.39 101.46-25.617 37.299-44.139 34.712-64.982 68.303-8.398-17.559-20.11-113.62 28.405-147.62-1.325 0.986-2.648 1.99-3.962 3.017-43.443 33.873-76.907 79.652-97.154 141.18-28.802 87.538-11.087 182.4 42.725 225.37 8.606 6.87 28.682 14.682 29.181 13.571-19.455-63.868 4.07-132.02 18.754-161.09 33.727-66.757 75.351-104.96 97.299-186.78 10.097-37.642 5.734-60.313-21.965-60.607z" fill="none"/>
					<path d="m221.85 162.39s19.195-61.071 45.405-97.695c0 0-51.474 37.946-45.405 97.695z" fill="none"/>
					<path d="m343.86 64.694c18.281 28.099-14.588 105.59-48.519 159.79-33.127 52.919-52.008 76.965-58.719 152.67-5.026 56.695 29.51 87.631 29.51 87.631 64.74-16.368 90.24-71.843 105.96-105.2 32.019-71.466 35.44-166.14 13.854-233.28-9.234-28.718-24.737-51.875-42.091-61.613z" fill="none"/>
					<linearGradient id="a" x1="69.972" x2="430.03" y1="250" y2="250" gradientUnits="userSpaceOnUse">
						<stop stop-color="#9AD09D" offset=".0084"/>
						<stop stop-color="#43C6CF" offset=".6431"/>
						<stop stop-color="#17C1E8" offset="1"/>
					</linearGradient>
					<path d="m308.05 5.578c-103.46-18.101-207.22 79.901-231.84 218.97-24.946 140.9 26.263 251.33 130.68 269.54 104.06 18.151 191.15-64.538 216.08-207.02 23.925-136.7-12.584-263.6-114.92-281.5zm-40.793 59.116c-26.21 36.624-45.405 97.695-45.405 97.695-6.069-59.749 45.405-97.695 45.405-97.695zm-36 234.72c-14.685 29.068-38.209 97.218-18.754 161.09-0.499 1.111-20.575-6.701-29.181-13.571-53.812-42.965-71.527-137.83-42.725-225.37 20.247-61.526 53.711-107.3 97.154-141.18 1.314-1.027 2.637-2.031 3.962-3.017-48.515 34.006-36.803 130.06-28.405 147.62 20.843-33.591 39.365-31.005 64.982-68.303 42.163-61.389 4.137-98.631 5.39-101.46 7.459-2.132 15.083-3.274 22.911-3.193 27.699 0.294 32.062 22.965 21.964 60.607-21.947 81.814-63.571 120.02-97.298 186.78zm140.84 60.168c-15.725 33.361-41.225 88.836-105.96 105.2 0 0-34.535-30.936-29.51-87.631 6.712-75.71 25.593-99.756 58.719-152.67 33.931-54.204 66.8-131.69 48.519-159.79 17.354 9.738 32.857 32.895 42.09 61.614 21.587 67.133 18.166 161.81-13.853 233.28z" fill="url(#a)"/>
		<linearGradient id="b" x1="290.89" x2="281.35" y1="362.16" y2="557.59" gradientUnits="userSpaceOnUse">
		<stop stop-color="#9AD09D" offset=".0084"/>
		<stop stop-color="#43C6CF" offset=".6431"/>
		<stop stop-color="#17C1E8" offset="1"/>
	</linearGradient>
	<path d="m318.6 365.13s-80.541 18.704-53.41 101.45c57.736-11.49 36.106-61.24 53.41-101.45z" fill="url(#b)"/>
</svg>
