<?xml version="1.0" encoding="iso-8859-1"?>
<!-- Generator: Adobe Illustrator 26.0.1, SVG Export Plug-In . SVG Version: 6.00 Build 0)  -->
<svg version="1.1" id="Layer_1" xmlns="http://www.w3.org/2000/svg" xmlns:xlink="http://www.w3.org/1999/xlink" x="0px" y="0px"
	 viewBox="0 0 500 500" style="enable-background:new 0 0 500 500;" xml:space="preserve">
<g>
	<g>
		<path style="fill:none;" d="M306.59,52.035c-7.828-0.081-15.452,1.061-22.911,3.193c-1.252,2.831,36.773,40.073-5.39,101.462
			c-25.617,37.299-44.139,34.712-64.982,68.303c-8.398-17.559-20.11-113.618,28.405-147.624c-1.325,0.986-2.648,1.99-3.962,3.017
			c-43.443,33.873-76.907,79.652-97.154,141.178c-28.802,87.538-11.087,182.404,42.725,225.369
			c8.606,6.87,28.682,14.682,29.181,13.571c-19.455-63.868,4.07-132.018,18.754-161.086
			c33.727-66.757,75.351-104.962,97.299-186.776C338.652,75,334.289,52.329,306.59,52.035z"/>
		<path style="fill:none;" d="M221.85,162.389c0,0,19.195-61.071,45.405-97.695C267.255,64.694,215.781,102.64,221.85,162.389z"/>
		<g>
			<path style="fill:none;" d="M221.85,162.389c0,0,19.195-61.071,45.405-97.695C267.255,64.694,215.781,102.64,221.85,162.389z"/>
			<path style="fill:none;" d="M306.59,52.035c-7.828-0.081-15.452,1.061-22.911,3.193c-1.252,2.831,36.773,40.073-5.39,101.462
				c-25.617,37.299-44.139,34.712-64.982,68.303c-8.398-17.559-20.11-113.618,28.405-147.624c-1.325,0.986-2.648,1.99-3.962,3.017
				c-43.443,33.873-76.907,79.652-97.154,141.178c-28.802,87.538-11.087,182.404,42.725,225.369
				c8.606,6.87,28.682,14.682,29.181,13.571c-19.455-63.868,4.07-132.018,18.754-161.086
				c33.727-66.757,75.351-104.962,97.299-186.776C338.652,75,334.289,52.329,306.59,52.035z"/>
			<g>
				<path style="fill:none;" d="M306.59,52.035c-7.828-0.081-15.452,1.061-22.911,3.193c-1.252,2.831,36.773,40.073-5.39,101.462
					c-25.617,37.299-44.139,34.712-64.982,68.303c-8.398-17.559-20.11-113.618,28.405-147.624c-1.325,0.986-2.648,1.99-3.962,3.017
					c-43.443,33.873-76.907,79.652-97.154,141.178c-28.802,87.538-11.087,182.404,42.725,225.369
					c8.606,6.87,28.682,14.682,29.181,13.571c-19.455-63.868,4.07-132.018,18.754-161.086
					c33.727-66.757,75.351-104.962,97.299-186.776C338.652,75,334.289,52.329,306.59,52.035z"/>
				<path style="fill:none;" d="M221.85,162.389c0,0,19.195-61.071,45.405-97.695C267.255,64.694,215.781,102.64,221.85,162.389z"/>
				<path style="fill:none;" d="M343.864,64.694c18.281,28.099-14.588,105.586-48.519,159.79
					c-33.127,52.919-52.008,76.965-58.719,152.674c-5.026,56.695,29.51,87.631,29.51,87.631
					c64.74-16.368,90.24-71.843,105.965-105.204c32.019-71.466,35.44-166.144,13.854-233.278
					C376.721,97.589,361.218,74.432,343.864,64.694z"/>
				<g>
					<path style="fill:none;" d="M306.59,52.035c-7.828-0.081-15.452,1.061-22.911,3.193c-1.252,2.831,36.773,40.073-5.39,101.462
						c-25.617,37.299-44.139,34.712-64.982,68.303c-8.398-17.559-20.11-113.618,28.405-147.624c-1.325,0.986-2.648,1.99-3.962,3.017
						c-43.443,33.873-76.907,79.652-97.154,141.178c-28.802,87.538-11.087,182.404,42.725,225.369
						c8.606,6.87,28.682,14.682,29.181,13.571c-19.455-63.868,4.07-132.018,18.754-161.086
						c33.727-66.757,75.351-104.962,97.299-186.776C338.652,75,334.289,52.329,306.59,52.035z"/>
					<path style="fill:none;" d="M221.85,162.389c0,0,19.195-61.071,45.405-97.695C267.255,64.694,215.781,102.64,221.85,162.389z"
						/>
					<path style="fill:none;" d="M343.864,64.694c18.281,28.099-14.588,105.586-48.519,159.79
						c-33.127,52.919-52.008,76.965-58.719,152.674c-5.026,56.695,29.51,87.631,29.51,87.631
						c64.74-16.368,90.24-71.843,105.965-105.204c32.019-71.466,35.44-166.144,13.854-233.278
						C376.721,97.589,361.218,74.432,343.864,64.694z"/>
					<linearGradient id="SVGID_1_" gradientUnits="userSpaceOnUse" x1="69.9725" y1="250" x2="430.0275" y2="250">
						<stop  offset="0.0084" style="stop-color:#9AD09D"/>
						<stop  offset="0.6431" style="stop-color:#43C6CF"/>
						<stop  offset="1" style="stop-color:#17C1E8"/>
					</linearGradient>
					<path style="fill:url(#SVGID_1_);" d="M308.048,5.578C204.59-12.523,100.824,85.479,76.206,224.549
						c-24.946,140.895,26.263,251.33,130.679,269.545c104.061,18.151,191.147-64.538,216.08-207.017
						C446.89,150.375,410.381,23.481,308.048,5.578z M267.255,64.694c-26.21,36.624-45.405,97.695-45.405,97.695
						C215.781,102.64,267.255,64.694,267.255,64.694z M231.255,299.418c-14.685,29.068-38.209,97.218-18.754,161.086
						c-0.499,1.111-20.575-6.701-29.181-13.571c-53.812-42.965-71.527-137.831-42.725-225.369
						c20.247-61.526,53.711-107.305,97.154-141.178c1.314-1.027,2.637-2.031,3.962-3.017
						c-48.515,34.006-36.803,130.065-28.405,147.624c20.843-33.591,39.365-31.005,64.982-68.303
						c42.163-61.389,4.137-98.631,5.39-101.462c7.459-2.132,15.083-3.274,22.911-3.193c27.699,0.294,32.062,22.965,21.964,60.607
						C306.606,194.456,264.982,232.661,231.255,299.418z M372.1,359.586c-15.725,33.361-41.225,88.836-105.965,105.204
						c0,0-34.535-30.936-29.51-87.631c6.712-75.71,25.593-99.756,58.719-152.674c33.931-54.204,66.8-131.691,48.519-159.79
						c17.354,9.738,32.857,32.895,42.09,61.614C407.54,193.442,404.119,288.12,372.1,359.586z"/>
				</g>
			</g>
		</g>
	</g>
	
		<linearGradient id="SVGID_00000076602527744490068970000008269626766910339744_" gradientUnits="userSpaceOnUse" x1="290.8947" y1="362.1569" x2="281.3519" y2="557.5938">
		<stop  offset="0.0084" style="stop-color:#9AD09D"/>
		<stop  offset="0.6431" style="stop-color:#43C6CF"/>
		<stop  offset="1" style="stop-color:#17C1E8"/>
	</linearGradient>
	<path style="fill:url(#SVGID_00000076602527744490068970000008269626766910339744_);" d="M318.596,365.126
		c0,0-80.541,18.704-53.41,101.447C322.922,455.083,301.292,405.333,318.596,365.126z"/>
</g>
</svg>
