<?xml version="1.0" encoding="UTF-8" standalone="no" ?>
<!DOCTYPE svg PUBLIC "-//W3C//DTD SVG 1.1//EN" "http://www.w3.org/Graphics/SVG/1.1/DTD/svg11.dtd">
<svg xmlns="http://www.w3.org/2000/svg" xmlns:xlink="http://www.w3.org/1999/xlink" version="1.1" width="1080" height="1080" viewBox="0 0 1080 1080" xml:space="preserve">
<desc>Created with Fabric.js 5.2.4</desc>
<defs>
</defs>
<g transform="matrix(1 0 0 1 540 540)" id="e41ee330-3a4f-4f7f-987e-15c9bfd00f9d"  >
<rect style="stroke: none; stroke-width: 1; stroke-dasharray: none; stroke-linecap: butt; stroke-dashoffset: 0; stroke-linejoin: miter; stroke-miterlimit: 4; fill: rgb(0,0,0); fill-rule: nonzero; opacity: 1;" vector-effect="non-scaling-stroke"  x="-540" y="-540" rx="0" ry="0" width="1080" height="1080" />
</g>
<g transform="matrix(1 0 0 1 540 540)" id="2b99418a-0c26-409c-8841-046810ced5ac"  >
</g>
<g transform="matrix(1 0 0 1 540 540)"  >
<g style="" vector-effect="non-scaling-stroke"   >
		<g transform="matrix(1 0 0 1 -90.67 90.49)"  >
<path style="stroke: none; stroke-width: 1; stroke-dasharray: none; stroke-linecap: butt; stroke-dashoffset: 0; stroke-linejoin: miter; stroke-miterlimit: 4; fill: rgb(255,255,255); fill-rule: nonzero; opacity: 1;" vector-effect="non-scaling-stroke"  transform=" translate(-9.91, -193.14)" d="M 7.30501 186.118 L 0.0898438 186.118 L 0.0898438 181.866 L 19.7383 181.866 L 19.7383 186.118 L 12.5231 186.118 L 12.5231 204.414 L 7.30501 204.414 L 7.30501 186.118 Z" stroke-linecap="round" />
</g>
		<g transform="matrix(1 0 0 1 -68.19 90.49)"  >
<path style="stroke: none; stroke-width: 1; stroke-dasharray: none; stroke-linecap: butt; stroke-dashoffset: 0; stroke-linejoin: miter; stroke-miterlimit: 4; fill: rgb(255,255,255); fill-rule: nonzero; opacity: 1;" vector-effect="non-scaling-stroke"  transform=" translate(-32.39, -193.14)" d="M 42.7301 181.866 L 42.7301 204.414 L 37.512 204.414 L 37.512 195.169 L 27.269 195.169 L 27.269 204.414 L 22.0509 204.414 L 22.0509 181.866 L 27.269 181.866 L 27.269 190.756 L 37.512 190.756 L 37.512 181.866 L 42.7301 181.866 Z" stroke-linecap="round" />
</g>
		<g transform="matrix(1 0 0 1 -42.09 90.49)"  >
<path style="stroke: none; stroke-width: 1; stroke-dasharray: none; stroke-linecap: butt; stroke-dashoffset: 0; stroke-linejoin: miter; stroke-miterlimit: 4; fill: rgb(255,255,255); fill-rule: nonzero; opacity: 1;" vector-effect="non-scaling-stroke"  transform=" translate(-58.49, -193.14)" d="M 58.4891 204.8 C 56.1484 204.8 54.0333 204.296 52.1436 203.286 C 50.2754 202.277 48.8044 200.892 47.7307 199.131 C 46.6785 197.349 46.1524 195.352 46.1524 193.14 C 46.1524 190.928 46.6785 188.942 47.7307 187.181 C 48.8044 185.399 50.2754 184.003 52.1436 182.994 C 54.0333 181.984 56.1484 181.48 58.4891 181.48 C 60.8297 181.48 62.9341 181.984 64.8023 182.994 C 66.6706 184.003 68.1415 185.399 69.2152 187.181 C 70.2889 188.942 70.8257 190.928 70.8257 193.14 C 70.8257 195.352 70.2889 197.349 69.2152 199.131 C 68.1415 200.892 66.6706 202.277 64.8023 203.286 C 62.9341 204.296 60.8297 204.8 58.4891 204.8 Z M 58.4891 200.355 C 59.8204 200.355 61.023 200.055 62.0967 199.453 C 63.1703 198.831 64.0078 197.972 64.6091 196.876 C 65.2318 195.781 65.5432 194.536 65.5432 193.14 C 65.5432 191.744 65.2318 190.499 64.6091 189.404 C 64.0078 188.308 63.1703 187.46 62.0967 186.859 C 61.023 186.236 59.8204 185.925 58.4891 185.925 C 57.1577 185.925 55.9552 186.236 54.8815 186.859 C 53.8078 187.46 52.9596 188.308 52.3368 189.404 C 51.7356 190.499 51.435 191.744 51.435 193.14 C 51.435 194.536 51.7356 195.781 52.3368 196.876 C 52.9596 197.972 53.8078 198.831 54.8815 199.453 C 55.9552 200.055 57.1577 200.355 58.4891 200.355 Z" stroke-linecap="round" />
</g>
		<g transform="matrix(1 0 0 1 -16.34 90.49)"  >
<path style="stroke: none; stroke-width: 1; stroke-dasharray: none; stroke-linecap: butt; stroke-dashoffset: 0; stroke-linejoin: miter; stroke-miterlimit: 4; fill: rgb(255,255,255); fill-rule: nonzero; opacity: 1;" vector-effect="non-scaling-stroke"  transform=" translate(-84.24, -193.14)" d="M 88.6183 204.414 L 84.2698 198.133 L 84.0121 198.133 L 79.4705 198.133 L 79.4705 204.414 L 74.2523 204.414 L 74.2523 181.866 L 84.0121 181.866 C 86.0092 181.866 87.7378 182.199 89.1981 182.865 C 90.6797 183.53 91.8178 184.475 92.6124 185.699 C 93.4069 186.923 93.8042 188.373 93.8042 190.048 C 93.8042 191.723 93.3962 193.172 92.5802 194.396 C 91.7856 195.599 90.6475 196.522 89.1658 197.166 L 94.2229 204.414 L 88.6183 204.414 Z M 88.5216 190.048 C 88.5216 188.781 88.1136 187.814 87.2976 187.149 C 86.4816 186.462 85.2898 186.118 83.7223 186.118 L 79.4705 186.118 L 79.4705 193.977 L 83.7223 193.977 C 85.2898 193.977 86.4816 193.634 87.2976 192.947 C 88.1136 192.26 88.5216 191.293 88.5216 190.048 Z" stroke-linecap="round" />
</g>
		<g transform="matrix(1 0 0 1 12.92 90.49)"  >
<path style="stroke: none; stroke-width: 1; stroke-dasharray: none; stroke-linecap: butt; stroke-dashoffset: 0; stroke-linejoin: miter; stroke-miterlimit: 4; fill: rgb(255,255,255); fill-rule: nonzero; opacity: 1;" vector-effect="non-scaling-stroke"  transform=" translate(-113.5, -193.14)" d="M 131.522 181.866 L 124.146 204.414 L 118.541 204.414 L 113.581 189.146 L 108.459 204.414 L 102.887 204.414 L 95.4786 181.866 L 100.89 181.866 L 105.979 197.714 L 111.294 181.866 L 116.126 181.866 L 121.279 197.843 L 126.53 181.866 L 131.522 181.866 Z" stroke-linecap="round" />
</g>
		<g transform="matrix(1 0 0 1 38.82 93.1)"  >
<path style="stroke: none; stroke-width: 1; stroke-dasharray: none; stroke-linecap: butt; stroke-dashoffset: 0; stroke-linejoin: miter; stroke-miterlimit: 4; fill: rgb(255,255,255); fill-rule: nonzero; opacity: 1;" vector-effect="non-scaling-stroke"  transform=" translate(-139.4, -195.75)" d="M 139.286 186.827 C 141.97 186.827 144.032 187.471 145.47 188.759 C 146.909 190.026 147.628 191.948 147.628 194.525 L 147.628 204.414 L 142.926 204.414 L 142.926 202.256 C 141.981 203.866 140.22 204.671 137.643 204.671 C 136.312 204.671 135.152 204.446 134.164 203.995 C 133.198 203.544 132.457 202.921 131.942 202.127 C 131.427 201.332 131.169 200.43 131.169 199.421 C 131.169 197.811 131.77 196.544 132.973 195.62 C 134.197 194.697 136.076 194.235 138.61 194.235 L 142.604 194.235 C 142.604 193.14 142.271 192.302 141.605 191.723 C 140.939 191.121 139.941 190.821 138.61 190.821 C 137.686 190.821 136.774 190.971 135.872 191.272 C 134.991 191.551 134.24 191.937 133.617 192.431 L 131.813 188.92 C 132.758 188.255 133.885 187.739 135.195 187.374 C 136.527 187.009 137.89 186.827 139.286 186.827 Z M 138.899 201.289 C 139.758 201.289 140.521 201.096 141.186 200.709 C 141.852 200.301 142.324 199.711 142.604 198.938 L 142.604 197.166 L 139.157 197.166 C 137.096 197.166 136.065 197.843 136.065 199.196 C 136.065 199.84 136.312 200.355 136.806 200.742 C 137.321 201.107 138.019 201.289 138.899 201.289 Z" stroke-linecap="round" />
</g>
		<g transform="matrix(1 0 0 1 53.61 89.81)"  >
<path style="stroke: none; stroke-width: 1; stroke-dasharray: none; stroke-linecap: butt; stroke-dashoffset: 0; stroke-linejoin: miter; stroke-miterlimit: 4; fill: rgb(255,255,255); fill-rule: nonzero; opacity: 1;" vector-effect="non-scaling-stroke"  transform=" translate(-154.19, -192.46)" d="M 151.681 180.513 L 156.706 180.513 L 156.706 204.414 L 151.681 204.414 L 151.681 180.513 Z" stroke-linecap="round" />
</g>
		<g transform="matrix(1 0 0 1 62.81 89.81)"  >
<path style="stroke: none; stroke-width: 1; stroke-dasharray: none; stroke-linecap: butt; stroke-dashoffset: 0; stroke-linejoin: miter; stroke-miterlimit: 4; fill: rgb(255,255,255); fill-rule: nonzero; opacity: 1;" vector-effect="non-scaling-stroke"  transform=" translate(-163.39, -192.46)" d="M 160.875 180.513 L 165.899 180.513 L 165.899 204.414 L 160.875 204.414 L 160.875 180.513 Z" stroke-linecap="round" />
</g>
		<g transform="matrix(1 0 0 1 77.33 93.1)"  >
<path style="stroke: none; stroke-width: 1; stroke-dasharray: none; stroke-linecap: butt; stroke-dashoffset: 0; stroke-linejoin: miter; stroke-miterlimit: 4; fill: rgb(255,255,255); fill-rule: nonzero; opacity: 1;" vector-effect="non-scaling-stroke"  transform=" translate(-177.91, -195.75)" d="M 187.043 195.813 C 187.043 195.878 187.011 196.329 186.946 197.166 L 173.836 197.166 C 174.073 198.24 174.631 199.088 175.511 199.711 C 176.392 200.334 177.487 200.645 178.797 200.645 C 179.699 200.645 180.493 200.516 181.18 200.259 C 181.889 199.979 182.544 199.55 183.145 198.97 L 185.819 201.869 C 184.187 203.737 181.803 204.671 178.668 204.671 C 176.714 204.671 174.985 204.296 173.482 203.544 C 171.979 202.771 170.819 201.708 170.003 200.355 C 169.187 199.002 168.779 197.467 168.779 195.749 C 168.779 194.053 169.177 192.528 169.971 191.175 C 170.787 189.801 171.893 188.738 173.289 187.986 C 174.706 187.213 176.284 186.827 178.024 186.827 C 179.72 186.827 181.256 187.192 182.63 187.922 C 184.004 188.652 185.078 189.704 185.851 191.078 C 186.646 192.431 187.043 194.01 187.043 195.813 Z M 178.056 190.628 C 176.918 190.628 175.962 190.95 175.189 191.594 C 174.416 192.238 173.944 193.118 173.772 194.235 L 182.308 194.235 C 182.136 193.14 181.664 192.27 180.891 191.626 C 180.118 190.96 179.173 190.628 178.056 190.628 Z" stroke-linecap="round" />
</g>
		<g transform="matrix(1 0 0 1 93.87 91.31)"  >
<path style="stroke: none; stroke-width: 1; stroke-dasharray: none; stroke-linecap: butt; stroke-dashoffset: 0; stroke-linejoin: miter; stroke-miterlimit: 4; fill: rgb(255,255,255); fill-rule: nonzero; opacity: 1;" vector-effect="non-scaling-stroke"  transform=" translate(-194.45, -193.96)" d="M 201.07 203.576 C 200.576 203.941 199.964 204.22 199.234 204.414 C 198.526 204.585 197.774 204.671 196.98 204.671 C 194.918 204.671 193.318 204.145 192.18 203.093 C 191.063 202.041 190.505 200.495 190.505 198.455 L 190.505 191.336 L 187.832 191.336 L 187.832 187.471 L 190.505 187.471 L 190.505 183.251 L 195.53 183.251 L 195.53 187.471 L 199.846 187.471 L 199.846 191.336 L 195.53 191.336 L 195.53 198.39 C 195.53 199.12 195.713 199.689 196.078 200.097 C 196.464 200.484 197.001 200.677 197.688 200.677 C 198.483 200.677 199.159 200.463 199.717 200.033 L 201.07 203.576 Z" stroke-linecap="round" />
</g>
		<g transform="matrix(1 0 0 1 0.01 -20.34)"  >
<linearGradient id="SVGID_paint0_linear_663_1501_3" gradientUnits="userSpaceOnUse" gradientTransform="matrix(1 0 0 1 0 0)"  x1="29.0107" y1="164.11" x2="172.169" y2="164.11">
<stop offset="0%" style="stop-color:rgb(0,204,255);stop-opacity: 1"/>
<stop offset="100%" style="stop-color:rgb(51,255,153);stop-opacity: 1"/>
</linearGradient>
<path style="stroke: none; stroke-width: 1; stroke-dasharray: none; stroke-linecap: butt; stroke-dashoffset: 0; stroke-linejoin: miter; stroke-miterlimit: 4; fill: url(#SVGID_paint0_linear_663_1501_3); fill-rule: evenodd; opacity: 1;" vector-effect="non-scaling-stroke"  transform=" translate(-100.59, -82.31)" d="M 107.386 79.3517 L 71.1185 42.7405 L 172.169 0.500977 L 107.387 79.3515 L 143.654 116.009 L 29.0107 164.11 L 107.386 79.3517 Z" stroke-linecap="round" />
</g>
</g>
</g>
</svg>