<svg id="svg" version="1.1" xmlns="http://www.w3.org/2000/svg" xmlns:xlink="http://www.w3.org/1999/xlink" width="400" height="400" viewBox="0, 0, 400,400"><g id="svgg"><path id="path0" d="M186.914 0.229 C 186.270 0.314,183.545 0.573,180.859 0.805 C 94.757 8.251,20.988 74.549,3.936 159.811 C -24.238 300.683,99.176 424.380,239.844 396.260 C 325.447 379.148,389.434 308.456,399.282 220.117 C 399.986 213.807,400.001 185.787,399.304 180.078 C 395.490 148.841,387.576 124.349,373.427 100.000 C 341.046 44.276,285.957 8.445,221.095 0.921 C 216.152 0.347,190.030 -0.181,186.914 0.229 M231.656 30.472 C 249.656 33.885,248.647 61.109,230.473 62.409 C 227.259 62.639,227.044 62.838,227.948 64.743 C 228.578 66.070,228.581 66.350,227.998 68.922 C 227.037 73.156,226.478 78.869,226.350 85.742 C 226.216 92.952,225.508 96.879,224.066 98.410 C 223.357 99.163,222.865 100.594,222.096 104.140 C 221.532 106.740,220.574 110.167,219.967 111.758 C 219.361 113.348,218.755 115.732,218.621 117.057 C 218.488 118.382,218.113 120.227,217.789 121.158 C 217.464 122.090,217.194 124.170,217.187 125.781 C 217.173 129.478,216.443 132.581,214.350 137.837 C 211.573 144.811,212.400 151.984,217.001 160.823 C 219.501 165.627,219.713 166.691,220.141 176.563 C 220.433 183.288,219.976 189.221,218.673 195.618 L 217.855 199.635 218.956 202.369 C 219.997 204.956,220.181 205.171,222.363 206.333 C 226.590 208.586,228.393 211.729,227.157 214.688 C 226.824 215.484,226.598 216.176,226.655 216.225 C 226.712 216.275,229.962 217.908,233.878 219.856 C 243.416 224.599,247.036 227.124,253.906 233.824 C 256.336 236.194,257.159 236.754,258.731 237.102 C 263.963 238.260,287.320 254.811,302.395 268.041 C 304.464 269.857,307.057 271.921,308.157 272.626 C 310.223 273.952,310.469 274.467,309.713 275.880 C 309.158 276.916,310.946 278.707,312.206 278.377 C 312.676 278.254,313.589 278.626,314.580 279.344 C 316.414 280.673,317.413 280.615,319.245 279.074 C 319.869 278.549,320.543 278.221,320.743 278.345 C 320.943 278.469,321.906 277.867,322.882 277.008 C 324.598 275.498,328.028 274.262,328.939 274.825 C 329.784 275.347,329.154 276.087,327.160 276.914 C 325.386 277.649,324.665 278.274,322.910 280.599 L 320.796 283.398 325.925 283.647 C 334.091 284.044,336.438 283.677,340.013 281.449 C 344.490 278.659,347.007 278.654,349.601 281.430 L 350.569 282.466 345.474 287.458 C 339.951 292.870,336.283 295.800,331.505 298.616 C 327.955 300.708,324.761 303.008,322.266 305.270 C 316.775 310.246,315.481 309.930,312.511 302.891 C 311.882 301.400,310.729 299.672,309.558 298.465 C 308.501 297.375,307.281 295.896,306.846 295.178 C 306.411 294.460,305.264 293.167,304.297 292.305 C 303.330 291.442,301.412 289.656,300.035 288.337 C 297.803 286.199,297.357 285.937,295.933 285.936 C 293.995 285.934,293.319 285.534,286.382 280.287 C 283.390 278.024,280.678 276.172,280.355 276.172 C 279.148 276.172,275.229 273.748,270.747 270.231 C 254.925 257.814,250.790 255.674,238.086 253.329 C 233.750 252.529,229.928 251.270,225.479 249.177 C 223.604 248.295,221.191 247.255,220.117 246.866 C 219.043 246.477,216.015 245.274,213.388 244.192 C 210.762 243.110,206.719 241.683,204.404 241.021 C 202.089 240.359,198.728 239.121,196.935 238.268 C 195.142 237.416,193.154 236.719,192.517 236.719 C 191.218 236.719,181.807 241.366,174.219 245.754 C 168.958 248.796,150.435 257.813,149.446 257.813 C 149.349 257.813,147.808 258.876,146.021 260.177 C 137.680 266.249,130.722 270.597,123.828 274.047 C 121.787 275.068,119.502 276.380,118.750 276.963 C 117.998 277.545,115.625 279.310,113.477 280.885 C 111.328 282.460,108.189 284.867,106.500 286.235 C 104.377 287.955,103.232 288.641,102.789 288.458 C 101.228 287.812,100.765 287.904,98.926 289.225 C 97.854 289.995,96.683 290.625,96.325 290.625 C 95.200 290.625,92.565 292.180,92.152 293.087 C 91.934 293.564,91.257 294.241,90.646 294.592 C 90.035 294.942,89.048 296.083,88.453 297.126 C 87.257 299.225,86.078 300.369,85.099 300.382 C 84.480 300.390,83.318 301.576,81.250 304.310 C 78.774 307.583,75.885 309.059,73.632 308.203 C 71.636 307.444,68.860 307.746,66.139 309.018 C 60.214 311.788,55.836 310.225,51.373 303.745 C 48.190 299.124,51.017 295.561,58.789 294.397 C 60.938 294.076,63.947 293.359,65.477 292.805 C 67.007 292.250,68.499 291.797,68.793 291.797 C 70.430 291.797,72.653 290.407,72.655 289.384 C 72.657 287.995,74.406 286.583,75.718 286.912 C 76.563 287.124,76.634 287.054,76.381 286.251 C 76.108 285.382,75.562 282.696,75.167 280.273 C 74.669 277.222,76.797 277.586,77.670 280.702 C 78.746 284.545,79.544 284.900,81.145 282.249 C 82.474 280.049,83.344 279.707,84.604 280.891 L 85.547 281.777 86.516 280.867 C 87.160 280.261,87.418 279.683,87.285 279.138 C 87.128 278.494,88.187 277.197,92.273 273.028 C 103.607 261.465,113.733 254.386,128.320 247.828 C 129.180 247.442,130.720 246.357,131.743 245.418 C 133.809 243.521,137.131 241.807,138.751 241.801 C 139.399 241.798,140.046 241.457,140.426 240.918 C 145.333 233.953,151.918 226.996,157.813 222.550 C 159.424 221.335,161.149 219.735,161.646 218.996 C 162.143 218.257,163.110 217.449,163.794 217.200 C 169.660 215.070,170.071 214.471,170.321 207.678 C 170.576 200.764,172.037 198.047,175.500 198.047 C 175.818 198.047,176.798 197.094,177.677 195.929 L 179.276 193.811 178.531 191.647 C 178.122 190.457,177.665 188.673,177.517 187.683 C 177.368 186.692,176.855 185.411,176.377 184.836 C 175.135 183.342,174.609 182.229,174.609 181.094 C 174.609 177.888,168.606 171.438,167.383 173.329 C 166.275 175.041,165.066 176.182,163.920 176.597 C 162.842 176.986,162.382 177.603,160.952 180.572 C 157.982 186.740,154.324 190.804,147.910 195.062 C 142.658 198.548,139.018 205.754,139.239 212.230 C 139.356 215.642,139.431 215.779,141.611 216.531 C 143.273 217.104,143.836 218.291,142.951 219.357 C 141.909 220.613,137.048 219.682,135.826 217.992 C 134.674 216.399,133.199 216.751,131.668 218.985 C 130.285 221.004,128.610 222.266,127.314 222.266 C 126.000 222.266,125.729 221.047,126.745 219.704 C 127.901 218.175,127.293 218.125,123.340 219.419 C 116.906 221.527,114.183 219.938,119.678 217.282 C 123.010 215.672,122.823 215.398,118.940 216.200 C 114.294 217.159,108.142 216.023,108.704 214.310 C 108.784 214.067,109.627 213.818,110.577 213.758 C 118.626 213.251,123.223 211.122,128.516 205.451 C 132.739 200.925,132.345 201.527,135.692 194.489 C 138.418 188.758,143.080 181.503,146.802 177.200 C 148.146 175.646,149.326 173.837,149.605 172.903 C 150.322 170.504,151.481 168.388,153.226 166.294 C 154.083 165.265,155.540 162.957,156.462 161.163 C 161.664 151.056,164.330 147.907,168.373 147.100 C 169.964 146.782,172.846 143.733,173.574 141.596 L 174.217 139.709 171.738 137.140 C 168.217 133.490,167.774 132.526,167.776 128.516 C 167.781 117.090,181.513 109.752,189.258 117.038 C 191.210 118.874,193.590 120.601,194.576 120.896 C 196.401 121.443,197.266 122.246,197.266 123.394 C 197.266 124.004,197.591 124.923,197.989 125.436 C 198.386 125.948,198.792 126.617,198.889 126.921 C 199.000 127.265,199.464 126.798,200.114 125.689 C 200.690 124.706,201.859 123.350,202.711 122.675 C 204.058 121.608,204.393 121.003,205.268 118.048 C 205.822 116.178,206.830 112.979,207.508 110.938 C 208.232 108.758,208.846 105.937,208.995 104.102 C 209.188 101.736,209.564 100.312,210.544 98.242 C 211.256 96.738,211.813 95.068,211.783 94.531 C 211.694 92.956,214.682 83.231,215.542 82.298 C 216.008 81.792,216.676 79.935,217.184 77.734 C 217.655 75.693,218.288 72.998,218.591 71.746 C 219.613 67.510,219.221 65.515,216.001 58.594 C 209.300 44.187,213.353 33.139,226.367 30.337 C 227.797 30.029,229.559 30.074,231.656 30.472 " stroke="none" fill="#848484" fill-rule="evenodd"></path><path id="path1" d="M224.851 30.878 C 213.464 33.738,209.972 45.187,216.353 58.744 C 218.328 62.940,219.533 66.455,219.528 68.003 C 219.522 70.161,216.516 81.669,215.735 82.525 C 214.841 83.505,212.109 92.494,212.109 94.456 C 212.109 95.152,211.494 96.944,210.742 98.437 C 209.601 100.704,209.375 101.569,209.375 103.678 C 209.375 105.355,209.058 107.097,208.430 108.863 C 207.911 110.326,206.837 113.716,206.044 116.395 C 204.699 120.936,204.485 121.369,202.881 122.781 C 201.934 123.614,200.694 125.091,200.124 126.063 L 199.089 127.829 198.376 126.440 C 197.984 125.676,197.486 124.941,197.269 124.807 C 197.052 124.673,196.875 123.965,196.875 123.235 C 196.875 122.007,196.750 121.871,195.215 121.432 C 194.209 121.145,192.554 120.087,191.016 118.748 C 184.152 112.774,178.191 112.739,172.329 118.638 C 166.316 124.688,166.393 131.952,172.532 137.725 L 174.640 139.707 173.821 141.631 C 172.624 144.439,170.176 146.779,167.671 147.507 C 164.128 148.538,161.999 151.127,157.300 160.124 C 156.000 162.612,154.247 165.439,153.405 166.406 C 151.599 168.481,150.869 169.797,150.022 172.510 C 149.615 173.813,148.651 175.366,147.257 176.960 C 142.725 182.146,137.592 190.320,134.787 196.820 C 130.807 206.044,122.933 212.309,113.700 213.597 C 107.845 214.414,107.433 215.121,112.310 215.978 C 115.331 216.509,117.975 216.337,121.387 215.388 C 123.268 214.864,122.257 216.353,120.020 217.402 C 117.026 218.804,116.672 219.106,117.231 219.778 C 117.906 220.592,119.328 220.430,123.502 219.062 C 127.702 217.685,128.081 217.728,127.177 219.476 C 125.105 223.482,128.235 223.072,131.561 218.901 C 133.419 216.572,134.527 216.235,135.778 217.618 C 136.953 218.916,138.480 219.531,140.527 219.531 C 143.848 219.531,144.370 217.955,141.451 216.742 C 139.014 215.729,138.823 215.238,139.076 210.638 C 139.467 203.537,142.880 198.192,150.358 192.969 C 154.898 189.797,157.575 186.645,160.375 181.171 C 162.358 177.293,162.647 176.925,164.261 176.211 C 165.502 175.662,166.196 175.038,166.669 174.048 C 167.802 171.672,169.724 172.020,171.453 174.913 C 172.187 176.143,173.295 177.801,173.915 178.598 C 174.534 179.395,175.011 180.274,174.974 180.551 C 174.789 181.945,175.102 182.902,176.125 184.068 C 176.866 184.913,177.414 186.152,177.731 187.695 C 177.996 188.984,178.541 190.911,178.944 191.977 L 179.675 193.915 178.768 194.907 C 178.268 195.452,177.468 196.470,176.989 197.168 C 176.457 197.945,175.788 198.438,175.266 198.439 C 172.064 198.444,170.658 201.201,170.509 207.763 C 170.363 214.153,169.255 215.899,164.542 217.165 C 163.286 217.502,162.561 218.035,161.612 219.316 C 160.919 220.253,158.945 222.074,157.227 223.363 C 151.767 227.456,144.191 235.504,140.919 240.687 C 140.432 241.458,139.733 241.840,138.207 242.167 C 135.793 242.685,133.474 243.970,131.836 245.698 C 131.131 246.441,128.294 248.077,124.722 249.799 C 111.706 256.075,103.612 261.894,93.032 272.581 C 88.384 277.277,87.461 278.398,87.609 279.169 C 87.893 280.658,85.866 281.940,84.571 281.091 C 83.085 280.117,82.577 280.326,81.271 282.448 C 79.469 285.377,78.534 284.875,77.269 280.303 C 76.671 278.139,76.048 277.678,75.388 278.911 C 75.043 279.555,75.074 280.159,75.523 281.571 C 77.009 286.250,77.087 287.808,75.799 287.119 C 74.767 286.567,73.047 287.994,73.047 289.404 C 73.047 290.518,70.483 292.187,68.771 292.187 C 68.364 292.187,66.567 292.698,64.777 293.322 C 62.988 293.946,60.205 294.582,58.594 294.736 C 52.449 295.320,48.928 298.710,50.752 302.286 C 54.241 309.125,60.142 311.630,66.070 308.789 C 69.086 307.344,70.484 307.159,73.204 307.844 C 76.284 308.619,78.503 307.566,81.141 304.077 C 81.617 303.446,82.374 302.450,82.822 301.864 C 83.270 301.278,84.377 300.471,85.281 300.071 C 86.549 299.510,87.238 298.817,88.287 297.043 C 89.036 295.777,90.056 294.540,90.555 294.294 C 91.053 294.048,91.727 293.466,92.053 293.001 C 92.799 291.936,95.463 290.234,96.384 290.234 C 96.767 290.234,97.982 289.627,99.084 288.885 C 100.899 287.663,101.199 287.578,102.271 287.983 C 103.327 288.381,103.593 288.316,104.754 287.374 C 106.690 285.805,112.619 281.253,116.536 278.331 C 118.433 276.916,121.529 274.982,123.415 274.035 C 130.636 270.408,137.659 266.043,145.117 260.545 C 147.371 258.883,150.315 257.208,153.320 255.875 C 160.630 252.635,170.111 247.918,174.572 245.302 C 181.382 241.307,191.335 236.328,192.509 236.328 C 193.115 236.328,194.596 236.861,195.799 237.513 C 198.103 238.761,202.544 240.391,205.420 241.043 C 207.361 241.484,220.777 246.699,224.591 248.496 C 230.271 251.172,233.071 252.104,238.477 253.123 C 250.174 255.326,253.461 256.890,265.413 265.940 C 276.875 274.618,277.330 274.931,279.392 275.562 C 280.613 275.935,283.322 277.694,287.324 280.710 C 293.102 285.065,293.509 285.300,295.574 285.471 C 297.718 285.649,297.791 285.697,301.314 289.243 C 303.277 291.219,305.148 292.997,305.473 293.195 C 305.797 293.393,306.535 294.284,307.113 295.176 C 307.690 296.068,309.051 297.686,310.136 298.771 C 311.221 299.856,312.109 300.929,312.109 301.155 C 312.109 302.079,315.365 308.116,316.155 308.655 C 316.908 309.170,318.241 308.301,324.669 303.103 C 326.677 301.480,329.463 299.515,330.859 298.737 C 336.023 295.859,343.852 289.372,348.756 283.909 C 350.244 282.251,350.064 281.316,348.055 280.277 C 345.625 279.021,343.628 279.478,338.897 282.373 L 336.583 283.789 328.613 283.856 C 319.471 283.934,319.926 284.230,322.974 280.190 C 324.383 278.322,325.275 277.558,326.849 276.870 C 328.848 275.996,329.583 274.998,328.223 275.002 C 326.594 275.007,324.491 275.925,322.849 277.346 C 321.876 278.188,320.855 278.790,320.580 278.685 C 320.305 278.579,319.662 278.937,319.151 279.481 C 317.939 280.771,316.241 280.764,314.322 279.460 C 313.494 278.897,312.569 278.556,312.227 278.687 C 310.800 279.234,308.968 277.087,309.591 275.597 L 310.155 274.247 307.714 272.594 C 306.372 271.685,304.395 270.136,303.320 269.151 C 295.378 261.869,279.889 250.081,268.164 242.395 C 261.840 238.249,260.836 237.732,258.301 237.314 C 257.077 237.113,256.354 236.693,255.548 235.715 C 251.359 230.633,242.595 224.369,233.148 219.703 L 226.256 216.300 226.800 214.999 C 228.195 211.661,226.309 208.416,221.663 206.159 C 220.161 205.429,219.842 205.021,218.762 202.447 L 217.548 199.554 218.317 195.969 C 221.145 182.798,220.433 167.975,216.613 160.502 C 212.135 151.740,211.321 144.715,214.016 138.079 C 216.064 133.033,216.672 130.595,216.996 126.118 C 217.142 124.107,217.508 121.469,217.810 120.256 C 218.112 119.043,218.359 117.352,218.359 116.497 C 218.359 115.642,218.702 114.168,219.121 113.221 C 219.998 111.238,221.586 105.630,222.295 102.009 C 222.605 100.424,223.095 99.223,223.650 98.689 C 225.134 97.259,227.109 86.907,226.216 85.238 C 225.679 84.236,226.878 71.193,227.706 69.018 C 228.316 67.416,228.219 65.350,227.481 64.224 C 226.626 62.919,227.106 62.500,229.731 62.259 C 246.173 60.744,250.403 39.193,235.645 32.128 C 232.532 30.638,227.929 30.105,224.851 30.878 " stroke="none" fill="#040404" fill-rule="evenodd"></path><path id="path2" d="M209.096 103.711 C 209.099 104.785,209.175 105.178,209.265 104.584 C 209.354 103.991,209.352 103.112,209.259 102.631 C 209.167 102.151,209.093 102.637,209.096 103.711 M196.966 123.438 C 196.966 124.189,197.046 124.497,197.144 124.121 C 197.243 123.745,197.243 123.130,197.144 122.754 C 197.046 122.378,196.966 122.686,196.966 123.438 M170.411 209.961 C 170.415 210.820,170.495 211.126,170.589 210.640 C 170.682 210.154,170.679 209.451,170.581 209.077 C 170.483 208.704,170.407 209.102,170.411 209.961 M140.141 219.808 C 140.627 219.901,141.330 219.897,141.704 219.800 C 142.077 219.702,141.680 219.625,140.820 219.630 C 139.961 219.634,139.655 219.714,140.141 219.808 M325.098 283.863 C 325.474 283.961,326.089 283.961,326.465 283.863 C 326.841 283.765,326.533 283.684,325.781 283.684 C 325.029 283.684,324.722 283.765,325.098 283.863 M345.103 287.598 L 343.164 289.648 345.215 287.710 C 347.120 285.909,347.445 285.547,347.153 285.547 C 347.091 285.547,346.169 286.470,345.103 287.598 M60.063 294.417 C 60.549 294.510,61.252 294.507,61.626 294.409 C 61.999 294.311,61.602 294.235,60.742 294.239 C 59.883 294.243,59.577 294.323,60.063 294.417 " stroke="none" fill="#3b3c3c" fill-rule="evenodd"></path><path id="path3" d="M212.591 46.484 C 212.591 47.236,212.671 47.544,212.769 47.168 C 212.868 46.792,212.868 46.177,212.769 45.801 C 212.671 45.425,212.591 45.732,212.591 46.484 " stroke="none" fill="#444444" fill-rule="evenodd"></path><path id="path4" d="M227.837 30.358 C 228.431 30.448,229.310 30.446,229.791 30.353 C 230.271 30.260,229.785 30.187,228.711 30.190 C 227.637 30.193,227.244 30.269,227.837 30.358 M217.358 34.863 L 216.211 36.133 217.480 34.986 C 218.179 34.354,218.750 33.783,218.750 33.716 C 218.750 33.414,218.428 33.680,217.358 34.863 M171.854 118.652 L 170.508 120.117 171.973 118.771 C 172.778 118.031,173.438 117.371,173.438 117.306 C 173.438 117.008,173.107 117.289,171.854 118.652 M220.047 177.734 C 220.047 179.131,220.118 179.702,220.204 179.004 C 220.291 178.306,220.291 177.163,220.204 176.465 C 220.118 175.767,220.047 176.338,220.047 177.734 M220.039 183.203 C 220.039 184.385,220.112 184.868,220.202 184.277 C 220.291 183.687,220.291 182.720,220.202 182.129 C 220.112 181.538,220.039 182.021,220.039 183.203 M114.941 216.676 C 115.317 216.774,115.933 216.774,116.309 216.676 C 116.685 216.577,116.377 216.497,115.625 216.497 C 114.873 216.497,114.565 216.577,114.941 216.676 M96.264 268.848 L 95.117 270.117 96.387 268.970 C 97.570 267.900,97.836 267.578,97.534 267.578 C 97.467 267.578,96.896 268.149,96.264 268.848 M332.520 283.863 C 332.896 283.961,333.511 283.961,333.887 283.863 C 334.263 283.765,333.955 283.684,333.203 283.684 C 332.451 283.684,332.144 283.765,332.520 283.863 M60.844 310.433 C 61.330 310.526,62.033 310.522,62.407 310.425 C 62.780 310.327,62.383 310.250,61.523 310.255 C 60.664 310.259,60.358 310.339,60.844 310.433 " stroke="none" fill="#545454" fill-rule="evenodd"></path></g></svg>
