<svg xmlns="http://www.w3.org/2000/svg" width="128" height="128" viewBox="0 0 1080 1080"><path fill="white" d="M990.42,693.26l87.95-15.76-79.71-89.21,69-38.59-87.33-65.09,56.17-135H913.66L945.93,217,814.3,284.48l36-174.8-133,109.71L703.19,50.62,602.7,202.51,540,0,477.32,202.51,376.79,50.62l-14.1,168.77L229.74,109.68l36,174.8L134.05,217l32.31,132.6H43.49l56.15,135L12.33,549.7l69,38.59L1.63,677.5l88,15.76-60.33,115,77.86,28.94L84.86,911.09l63.25-13.93,6.31,91.09L207,961.46l4.77,83.58,41.86-13.93s74.07,76.91,222.93,37.8c17.28-4.53,32-16.5,38.94-33,7.76-18.24,5.19-40.37-44.49-48.55C383.5,973,262.38,989.89,218.51,880a4,4,0,0,1,5.68-5c54,30.58,180.55,58.17,191.09.39,11.26-61.55-42.8-81.9-73.35-98.75S172.55,714.83,179,632.12,275.72,571.5,296.19,588c18.45,12,200.72,124.18,200.72,124.18S430.82,799.92,540,799.92s43.12-87.76,43.12-87.76S765.34,600,783.83,588C804.3,571.5,894.61,549.43,901,632.12s-132.48,127.68-163,144.53-84.57,37.2-73.35,98.75c10.58,57.76,137,30.21,191.07-.37a4,4,0,0,1,5.69,5C817.6,989.89,696.48,973,609,987.4c-49.66,8.18-52.25,30.31-44.47,48.55,7,16.46,21.62,28.43,38.9,33,148.9,39.11,223-37.8,223-37.8L868.27,1045,873,961.46l52.54,26.79,6.33-91.09,63.23,13.93-22.23-73.93,77.86-28.94Zm-566.88-117a59.87,59.87,0,1,1,59.87-59.86A59.86,59.86,0,0,1,423.54,576.29Zm232.92,0a59.87,59.87,0,1,1,59.86-59.86A59.86,59.86,0,0,1,656.46,576.29Z"/></svg>
