<?xml version="1.0" encoding="utf-8"?>
<!-- Generator: Adobe Illustrator 16.0.2, SVG Export Plug-In . SVG Version: 6.00 Build 0)  -->
<!DOCTYPE svg PUBLIC "-//W3C//DTD SVG 1.1//EN" "http://www.w3.org/Graphics/SVG/1.1/DTD/svg11.dtd">
<svg version="1.1" id="圖層_1" xmlns="http://www.w3.org/2000/svg" xmlns:xlink="http://www.w3.org/1999/xlink" x="0px" y="0px"
	 width="640px" height="640px" viewBox="0 0 640 640" enable-background="new 0 0 640 640" xml:space="preserve">
<g>
	<path fill-rule="evenodd" clip-rule="evenodd" fill="#FFD636" d="M29.497,319.693c0-30.68-0.411-61.367,0.075-92.039
		c1.579-99.692,73.468-185.711,168.963-202.694c14.397-2.561,28.858-3.891,43.484-3.861c52.947,0.105,105.894-0.003,158.842,0.054
		c59.355,0.065,110.285,21.577,151.598,65.374c36.086,38.252,55.975,84.767,57.181,138.018c1.442,63.609,1.239,127.296,0.146,190.92
		c-1.645,95.738-73.032,180.804-165.407,199.1c-12.465,2.467-24.959,4.217-37.702,4.189c-58.972-0.129-117.952,0.576-176.91-0.303
		c-94.829-1.414-177.119-72.383-196.192-167.925c-3.009-15.075-4.269-30.269-4.2-45.648c0.125-28.394,0.035-56.789,0.035-85.186
		C29.439,319.693,29.468,319.693,29.497,319.693z"/>
	<path fill-rule="evenodd" clip-rule="evenodd" fill="#FFFFFF" d="M149.549,327.15c-1.331-81.125,44.407-152.913,119.192-183.321
		c80.533-32.745,155.104-19.031,222.29,37.425c6.07,5.102,6.444,8.394,1.284,14.44c-9.609,11.255-18.659,23.058-27.35,35.088
		c-4.245,5.878-6.619,5.068-11.298,0.344c-29.452-29.734-65.021-44.512-106.288-43.867
		c-60.039,0.937-115.301,48.755-127.087,109.516c-12.562,64.764,18.269,129.262,76.225,156.196
		c49.876,23.18,96.979,12.66,141.501-16.435c6.369-4.164,12.061-9.505,17.741-14.683c2.987-2.722,4.948-3.13,7.737,0.191
		c9.939,11.84,19.896,23.678,30.233,35.15c3.917,4.346,3.778,6.879-0.549,10.849c-36.582,33.558-78.902,53.783-127.807,58.687
		c-95.468,9.575-182.699-51.032-208.72-144.932C151.502,363.203,149.01,344.202,149.549,327.15z"/>
	<path fill-rule="evenodd" clip-rule="evenodd" fill="#354BFC" d="M354.613,251.408c41.908-0.321,75.102,33.311,75.185,76.176
		c0.082,41.042-33.122,74.613-74.421,75.245c-41.652,0.637-75.545-33.729-75.931-76.987
		C279.087,285.459,313.151,251.727,354.613,251.408z"/>
</g>
</svg>
