<svg id="Layer_1" data-name="Layer 1" xmlns="http://www.w3.org/2000/svg" xmlns:xlink="http://www.w3.org/1999/xlink" viewBox="0 0 1000 1000"><defs><style>.cls-1{fill:#fff;}.cls-2{fill:url(#linear-gradient);}</style><linearGradient id="linear-gradient" x1="853.53" y1="853.47" x2="146.51" y2="146.45" gradientUnits="userSpaceOnUse"><stop offset="0" stop-color="#ab2d60"/><stop offset="0.52" stop-color="#e43c80"/><stop offset="0.63" stop-color="#e74587"/><stop offset="0.82" stop-color="#f05e99"/><stop offset="1" stop-color="#fa7daf"/></linearGradient></defs><circle class="cls-1" cx="500" cy="500" r="480.6"/><path class="cls-2" d="M960.76,306C853.64,51.59,560.54-67.83,306.1,39.3S-67.76,439.52,39.36,694,439.58,1067.83,694,960.7A499.82,499.82,0,0,0,960.76,306ZM501.65,955.19a452.53,452.53,0,0,1-179.33-36.88l45-51.65A390.67,390.67,0,0,0,500,889.71c216.25,0,391.56-175.31,391.56-391.56A391.56,391.56,0,0,0,874.65,384l-7.27,8.35L864,396.21l-10.91,12.54-247,283.64-44.55-48.47L510,587.83l-11.36-12.38,44-47.77L553,538.58l52.3,55.23L827.53,338.9l9.85-11.27,2.7-3.11,6.92-7.93h0l44.61-51.16A452.66,452.66,0,0,1,956.84,500C956.84,751,752.63,955.19,501.65,955.19ZM46.47,500c0-251,204.19-455.18,455.18-455.18a452.31,452.31,0,0,1,237.18,66.82l-41.87,48a389.55,389.55,0,0,0-197-53.08c-169.17,0-313.27,107.28-368,257.51L141.47,375l.82.94L152.84,388,325.33,585.9l31.17,35.73,22.61-25.94L347.94,560,318.38,526l15.79-13.75L361.85,544,393,579.76l25.69-29.46L387.18,515l-86.7-97.22,15.62-13.94,85,95.24,31.51,35.32L486,473.09l15.78,13.77L370.39,637.56l5.23,6,31.12,35.7,64-73.12L484,617.7l2.53,2.22-79.79,91.15-2.07-2.37-42.91-49.22L353,649.43,342.6,637.56l-31.14-35.74L146.09,412.14l-11-12.6-.93-1.07-9.8-11.23a392.32,392.32,0,0,0,67.17,352.11l-42.27,48.48A453,453,0,0,1,46.47,500ZM845.92,202.55,803.7,251a393.58,393.58,0,0,0-45-46.79l41.48-47.57A459.47,459.47,0,0,1,845.92,202.55ZM296.51,832.73l-42.67,49a460,460,0,0,1-51.7-39.16L244,794.47A390.6,390.6,0,0,0,296.51,832.73Z"/></svg>