<svg width="256" height="256" viewBox="0 0 256 256" fill="none" xmlns="http://www.w3.org/2000/svg">
<path fill-rule="evenodd" clip-rule="evenodd" d="M128 46.1118C88.2041 46.1118 50.1683 53.6477 15.2418 67.3704C36.8543 27.2601 79.2437 0 128 0C156.408 0 182.654 9.25428 203.889 24.9126C181.763 38.3647 155.786 46.1118 128 46.1118ZM3.87581 96.6154C41.4233 78.516 83.5271 68.3727 128 68.3727C162.465 68.3727 194.514 58.0281 221.211 40.2745C232.115 51.8561 240.885 65.4699 246.892 80.4875C212.779 102.982 171.919 116.075 128 116.075C81.8384 116.075 38.7398 129.188 2.22626 151.894C0.764654 144.153 0 136.166 0 128C0 117.172 1.34455 106.658 3.87581 96.6154ZM128 138.335C83.8681 138.335 42.8238 151.555 8.61132 174.251C14.4627 189.345 23.0938 203.053 33.8765 214.746C60.7546 196.619 93.1415 186.037 128 186.037C172.647 186.037 214.906 175.814 252.565 157.582C254.811 148.086 256 138.182 256 128C256 119.334 255.139 110.87 253.498 102.688C217.043 125.288 174.045 138.335 128 138.335ZM128 208.298C99.7228 208.298 73.3195 216.321 50.9424 230.215C72.3793 246.402 99.0687 256 128 256C177.566 256 220.552 227.827 241.818 186.621C206.601 200.609 168.199 208.298 128 208.298Z" fill="#29CCC4"/>
</svg>
