<?xml version="1.0" encoding="utf-8"?>
<svg width="256pt" height="256pt" viewBox="0 0 256 256" version="1.1" xmlns="http://www.w3.org/2000/svg">
  <g id="surface1">
    <path style=" stroke:none;fill-rule:nonzero;fill:rgb(83.137255%,68.627451%,21.568627%);fill-opacity:1;" d="M 132.289 50.304 C 133.836 52.054 135.586 55.445 136.554 59.398 C 136.664 59.788 136.695 60.195 136.773 60.585 L 136.695 60.585 C 132.117 66.648 124.57 70.21 116.554 70.117 C 113.554 77.585 105.711 83.21 95.945 84.898 C 88.601 85.429 82.523 90.007 80.836 96.257 C 80.414 97.773 80.289 99.367 80.429 100.945 C 80.492 100.132 80.586 99.382 80.773 98.757 C 82.726 92.413 89.117 87.913 96.664 87.601 C 106.742 86.163 114.961 80.648 118.304 73.085 C 126.523 73.429 131.976 70.507 136.867 64.429 C 134.789 74.679 121.289 76.71 121.289 76.71 C 121.289 76.71 116.023 85.601 108.226 88.429 C 102.054 90.663 94.82 92.038 90.914 94.07 C 84.976 97.195 83.054 101.398 82.804 107.32 C 83.726 108.679 85.008 109.851 86.414 110.913 C 86.679 110.367 87.148 109.945 87.711 109.71 C 92.273 107.648 96.476 105.257 100.258 102.617 C 100.726 102.273 101.289 102.101 101.867 102.117 C 103.851 102.148 105.054 104.226 104.023 105.851 C 103.836 106.148 103.586 106.398 103.304 106.585 C 99.617 109.163 95.554 111.445 91.242 113.492 C 96.929 115.398 103.461 114.476 108.195 110.882 L 108.836 110.273 C 118.039 114.054 129.367 113.367 137.57 108.726 L 137.851 108.57 C 139.273 107.742 138.351 108.242 138.351 108.242 L 138.054 108.648 C 132.976 114.945 132.633 120.038 113.976 124.523 C 95.336 129.007 88.289 148.288 92.039 163.929 L 97.461 163.929 C 93.711 148.304 100.758 131.538 119.398 127.054 C 138.054 122.57 138.383 114.945 143.476 108.663 L 143.742 108.288 L 148.429 106.163 C 143.523 141.585 101.851 116.929 101.851 163.913 L 101.883 166.273 L 147.664 166.273 L 147.664 163.804 L 158.836 163.804 C 159.601 162.179 160.304 160.554 160.976 158.898 L 178.726 158.617 C 185.836 123.835 173.117 82.226 150.086 62.82 L 149.461 62.398 C 145.976 56.632 140.008 52.101 132.289 50.32 Z M 135.289 52.226 C 144.148 58.835 146.32 67.835 138.008 72.132 L 136.617 72.476 C 142.883 60.742 136.289 54.32 135.289 52.226 Z M 128.758 82.413 C 128.82 82.413 128.883 82.413 128.945 82.413 L 134.117 82.413 C 136.101 82.413 137.351 84.46 136.351 86.101 C 135.898 86.867 135.039 87.335 134.117 87.335 L 128.945 87.335 C 126.961 87.413 125.633 85.398 126.57 83.726 C 127.008 82.945 127.836 82.445 128.758 82.413 Z M 96.586 171.195 C 90.898 171.195 86.242 175.632 86.242 181.054 C 86.242 182.867 86.804 184.538 87.695 185.992 L 86.289 185.992 C 80.445 185.992 75.304 189.929 75.304 195.257 L 75.304 197.788 L 75.32 199.132 L 75.304 200.742 L 75.304 205.695 L 80.476 205.695 L 80.476 195.257 C 80.476 189.929 85.617 185.992 91.461 185.992 L 92.867 185.992 C 91.929 184.492 91.429 182.788 91.414 181.054 C 91.414 175.632 96.07 171.195 101.758 171.195 Z M 106.914 171.195 C 101.226 171.195 96.586 175.632 96.586 181.054 C 96.586 182.867 97.133 184.538 98.039 185.992 L 96.633 185.992 C 90.789 185.992 85.648 189.929 85.648 195.257 L 85.648 205.695 L 173.508 205.695 L 173.508 195.273 C 173.508 189.945 168.351 186.007 162.523 186.007 L 161.461 186.007 C 162.398 184.507 162.898 182.804 162.914 181.07 C 162.914 175.648 158.258 171.21 152.57 171.21 L 106.929 171.21 Z M 106.914 171.195"/>
  </g>
</svg>
