<?xml version="1.0" encoding="UTF-8"?>
<svg xmlns="http://www.w3.org/2000/svg" xmlns:xlink="http://www.w3.org/1999/xlink" width="256pt" height="256pt" viewBox="0 0 256 256" version="1.1">
<g id="surface1">
<path style=" stroke:none;fill-rule:nonzero;fill:rgb(83.137255%,68.627451%,21.568627%);fill-opacity:1;" d="M 132.5 20.5 C 134.046875 22.25 135.796875 25.640625 136.765625 29.59375 C 136.875 29.984375 136.90625 30.390625 136.984375 30.78125 L 136.90625 30.78125 C 132.328125 36.84375 124.78125 40.40625 116.765625 40.3125 C 113.765625 47.78125 105.921875 53.40625 96.15625 55.09375 C 88.8125 55.625 82.734375 60.203125 81.046875 66.453125 C 80.625 67.96875 80.5 69.5625 80.640625 71.140625 C 80.703125 70.328125 80.796875 69.578125 80.984375 68.953125 C 82.9375 62.609375 89.328125 58.109375 96.875 57.796875 C 106.953125 56.359375 115.171875 50.84375 118.515625 43.28125 C 126.734375 43.625 132.1875 40.703125 137.078125 34.625 C 135 44.875 121.5 46.90625 121.5 46.90625 C 121.5 46.90625 116.234375 55.796875 108.4375 58.625 C 102.265625 60.859375 95.03125 62.234375 91.125 64.265625 C 85.1875 67.390625 83.265625 71.59375 83.015625 77.515625 C 83.9375 78.875 85.21875 80.046875 86.625 81.109375 C 86.890625 80.5625 87.359375 80.140625 87.921875 79.90625 C 92.484375 77.84375 96.6875 75.453125 100.46875 72.8125 C 100.9375 72.46875 101.5 72.296875 102.078125 72.3125 C 104.0625 72.34375 105.265625 74.421875 104.234375 76.046875 C 104.046875 76.34375 103.796875 76.59375 103.515625 76.78125 C 99.828125 79.359375 95.765625 81.640625 91.453125 83.6875 C 97.140625 85.59375 103.671875 84.671875 108.40625 81.078125 L 109.046875 80.46875 C 118.25 84.25 129.578125 83.5625 137.78125 78.921875 L 138.0625 78.765625 C 139.484375 77.9375 138.5625 78.4375 138.5625 78.4375 L 138.265625 78.84375 C 133.1875 85.140625 132.84375 90.234375 114.1875 94.71875 C 95.546875 99.203125 88.5 118.484375 92.25 134.125 L 97.671875 134.125 C 93.921875 118.5 100.96875 101.734375 119.609375 97.25 C 138.265625 92.765625 138.59375 85.140625 143.6875 78.859375 L 143.953125 78.484375 L 148.640625 76.359375 C 143.734375 111.78125 102.0625 87.125 102.0625 134.109375 L 102.09375 136.46875 L 147.875 136.46875 L 147.875 134 L 159.046875 134 C 159.8125 132.375 160.515625 130.75 161.1875 129.09375 L 178.9375 128.8125 C 186.046875 94.03125 173.328125 52.421875 150.296875 33.015625 L 149.671875 32.59375 C 146.1875 26.828125 140.21875 22.296875 132.5 20.515625 Z M 135.5 22.421875 C 144.359375 29.03125 146.53125 38.03125 138.21875 42.328125 L 136.828125 42.671875 C 143.09375 30.9375 136.5 24.515625 135.5 22.421875 Z M 128.96875 52.609375 C 129.03125 52.609375 129.09375 52.609375 129.15625 52.609375 L 134.328125 52.609375 C 136.3125 52.609375 137.5625 54.65625 136.5625 56.296875 C 136.109375 57.0625 135.25 57.53125 134.328125 57.53125 L 129.15625 57.53125 C 127.171875 57.609375 125.84375 55.59375 126.78125 53.921875 C 127.21875 53.140625 128.046875 52.640625 128.96875 52.609375 Z M 96.796875 141.390625 C 91.109375 141.390625 86.453125 145.828125 86.453125 151.25 C 86.453125 153.0625 87.015625 154.734375 87.90625 156.1875 L 86.5 156.1875 C 80.65625 156.1875 75.515625 160.125 75.515625 165.453125 L 75.515625 167.984375 L 75.53125 169.328125 L 75.515625 170.9375 L 75.515625 175.890625 L 80.6875 175.890625 L 80.6875 165.453125 C 80.6875 160.125 85.828125 156.1875 91.671875 156.1875 L 93.078125 156.1875 C 92.140625 154.6875 91.640625 152.984375 91.625 151.25 C 91.625 145.828125 96.28125 141.390625 101.96875 141.390625 Z M 107.125 141.390625 C 101.4375 141.390625 96.796875 145.828125 96.796875 151.25 C 96.796875 153.0625 97.34375 154.734375 98.25 156.1875 L 96.84375 156.1875 C 91 156.1875 85.859375 160.125 85.859375 165.453125 L 85.859375 175.890625 L 173.71875 175.890625 L 173.71875 165.46875 C 173.71875 160.140625 168.5625 156.203125 162.734375 156.203125 L 161.671875 156.203125 C 162.609375 154.703125 163.109375 153 163.125 151.265625 C 163.125 145.84375 158.46875 141.40625 152.78125 141.40625 L 107.140625 141.40625 Z M 107.125 141.390625 "/>
</g>
</svg>
