<svg id="Layer_1" data-name="Layer 1" xmlns="http://www.w3.org/2000/svg" viewBox="0 0 52 58"><title>hackenai-hai-logo</title><path id="Combined-Shape" d="M6,52.41V58H4.21V56H1.75v2H0V52.42H1.75v1.9H4.21V52.41Zm18.75,0V54H20.08v2.41h4.64V58H18.33V52.42h6.39Zm23.07,0h0l2.44,2.41V52.41H52V58H50.24l-2.45-2.48V58H46V52.41Zm-14.12,0v1.91L32,56h1.7v2H31.84V56H29.11v2H27.28V52.42h1.83v1.9h2.73V52.41ZM15,52.41h.3V58H13.6V56.79H11.12V58H9.38V52.42H15Zm27.58,0V54H38.4v.42h4.21V56H38.4v.42h4.21V58h-6V52.42h6ZM13.6,54H11.12v1.14H13.6ZM3,0V23.11H6V0h3V23.11H49V19.76H12.36V0h3V16.71H49v-3H17.9V0h3V10.67h9.77V0h3V10.67h3V0h3V10.67h3.41V0h3V10.67h3V0h3V49H49V26.21H45.61V49h-3V26.21H6v0H3v3H39.64V49h-3V32.27H3v3H34.1V49h-3V38.31H21.31V49h-3V38.31h-3V49h-3V38.31H9V49H6V38.31H3V49H0V0Z" style="fill:#4adda5;fill-rule:evenodd"/></svg>