<?xml version="1.0" encoding="UTF-8"?>
<svg baseProfile="basic" version="1.1" viewBox="0 0 485.6 485.6" xml:space="preserve" xmlns="http://www.w3.org/2000/svg">
<radialGradient id="j" cx="321.96" cy="617.26" r="387.69" gradientTransform="translate(-7.2016 -505.2)" gradientUnits="userSpaceOnUse">
	<stop stop-color="#2D3342" offset="0"/>
	<stop stop-color="#2D3342" offset=".0041"/>
	<stop stop-color="#252B3A" offset=".06117"/>
	<stop stop-color="#1A2030" offset=".1804"/>
	<stop stop-color="#161C2D" offset=".3101"/>
</radialGradient>
<circle cx="240.8" cy="237.4" r="220.7" fill="url(#j)"/>
<path d="m258.9 430.9c0.2 1-0.3 1.9-0.3 2.9 1.2-0.1 2-0.2 3.2-0.3-1-4.4-1.9-8.7-2.9-13.1v10.5z" fill="none" stroke="#404366" stroke-miterlimit="9.9999"/>
<path d="m222.7 187.1-24.1 81.2c17.2-21.3 49.1-23.9 69.6-6l-22.8-75.2h-1.6v37.6h-18.7v-37.6h-2.4z" fill="none" stroke="#404366" stroke-miterlimit="9.9999"/>
<path d="m126 210.2c-0.5-2.2-3.2-1.2-2.2 0.8 1 0.9 2.9 13.8 5.6 9.8 0.3-0.6-3.2-9.8-3.4-10.6z" fill="none" stroke="#404366" stroke-miterlimit="9.9999"/>
<path d="m363.3 179.5c2.6-0.8 5-1.1 7.6-2.1-0.3-0.8-0.5-1.2-0.8-2-2.4 1.4-4.4 2.8-6.8 4.1z" fill="none" stroke="#404366" stroke-miterlimit="9.9999"/>
<path d="m443.2 220.2c-3.3 1.1-22.7-1.3-18.4 4.6 6.5 1.4 14.4 0 20.9-1 0.8-1 0.7-2.4-0.3-3.2-0.6-0.5-1.5-0.7-2.2-0.4z" fill="none" stroke="#404366" stroke-miterlimit="9.9999"/>
<path d="m378.4 199.8c-2 0.2-12.4 2.8-5.8 4.1 2.7-1.3 10.1-0.6 10.5-3.9-0.3-2-3.4-0.3-4.7-0.2z" fill="none" stroke="#404366" stroke-miterlimit="9.9999"/>
<path d="m243.3 223.9v-37.6h2.9l38.6 127.6 16.4-5-42.3-139.8h-15.7v-27.9l52.1-18.3-5.7-16.2-115.8 40.6 5.7 16.2 46.5-16.3v21.9h-16.5l-41.6 139.8 16.4 4.9 4.1-13.8c0.9 42.2 54.1 62.6 82.8 31.7l-12.7-11.6c-10.9 11.9-30.9 12.5-42.7 1.4-29-27.4 10.3-71.4 40.8-45.8l11.6-12.7c-20.7-18.8-55.5-14.3-71.2 8.7l25.4-85.4h3.7v37.6h17.2z" fill="#B8DDF4" stroke="#404366" stroke-miterlimit="9.9999"/>
<polygon points="41.3 232.2 27.2 237 34.9 259.3 49.1 254.5 47.3 249.4 41.9 251.2 40.3 246.6 45.7 244.8 43.9 239.7 38.5 241.5 37.7 239.1 43.1 237.3" fill="#B8DDF4" stroke="#404366" stroke-miterlimit="9.9999"/>
<path d="m57.8 226.1c-5.4 2.4-16.9 2.9-12.2 11.6 1.4 5.3 9.8 2.5 13.5 4.1 2.8 3.3-1.1 5.6-1.8 0.7l-8.9 3.1c2.1 11.5 9.7 5.5 17.2 3.2 3.4-1.3 5-3.2 3.8-6.7-1.2-8.6-8.6-6.1-14.6-7.3-2-1.9 1.6-3.5 2-0.8l8.8-3c-0.9-4-3.3-6.8-7.8-4.9z" fill="#B8DDF4" stroke="#404366" stroke-miterlimit="9.9999"/>
<polygon points="82.4 217.9 64.8 224 66.6 229.1 71.1 227.6 77 244.8 85.6 241.7 79.7 224.5 84.2 223" fill="#B8DDF4" stroke="#404366" stroke-miterlimit="9.9999"/>
<polygon points="89.5 240.4 96 238.2 94.2 233 87.7 235.2" fill="#B8DDF4" stroke="#404366" stroke-miterlimit="9.9999"/>
<path d="m113.4 218.5c-0.6-4.4-2.5-11.2-8.6-8.5-6.8 3.1-16.9 2.4-11.8 12.8l8.9-3.1c-2.3-4.3 3.3-3.8 1.6 0.1l-7 12.9 1.7 4.8 19.8-6.9-1.8-5.1-7.5 2.6c0.6-1.4 4.9-8 4.7-9.6z" fill="#B8DDF4" stroke="#404366" stroke-miterlimit="9.9999"/>
<path d="m127.1 202.5c-19.1 5.4-13 6.5-8.4 22.2 1.7 8.1 11.5 1.3 16.2 0.5 4.1-1.4 5.1-3.2 3.7-7.3-2.5-4.2-3.2-19.7-11.5-15.4zm2.3 18.3c-1.9 4.5-7-11.9-5.1-11.8 2.4-0.5 4.6 10.4 5.1 11.8z" fill="#B8DDF4" stroke="#404366" stroke-miterlimit="9.9999"/>
<path d="m148.8 194.9c-6.8 3.1-16.9 2.4-11.8 12.8l8.9-3.1c-2.3-4.3 3.3-3.8 1.6 0.1l-7 12.9 1.7 4.8 19.8-6.9-1.8-5.1-7.5 2.6c0.6-1.5 4.9-8 4.7-9.6-0.6-4.4-2.5-11.2-8.6-8.5z" fill="#B8DDF4" stroke="#404366" stroke-miterlimit="9.9999"/>
<path d="m161.8 199.6 4.9 14.3 8.8-3.1-7.7-22.3-6.8 2.3c-0.4 2.3-2.1 3.7-4.3 4.8l1.8 5.1 3.3-1.1z" fill="#B8DDF4" stroke="#404366" stroke-miterlimit="9.9999"/>
<path d="m371 279.7c-1.7-2.4-4.3-2.9-7.1-3.6-0.9 5.7-3.2 11-5.4 16.4 1.7 0.6 3 1.4 4.8 2 0.9-2.1 1.5-3.7 2.3-5.9 4.6 4.6 7.5 11.4 14.1 13.1 2.9-6.2 4.8-12.7 6.8-19.3-1.8-0.6-3.4-0.8-5.2-1.4-0.9 2.4-1.3 4.8-2.2 7.2-2.8-2.9-5.3-5.7-8.1-8.5z" fill="#B8DDF4" stroke="#404366" stroke-miterlimit="9.9999"/>
<path d="m387.6 278.1c0.6-3.2 1.6-6.2 2.1-9.4-7.7-1.4-15.3-2.5-23-4.1-0.6 3.2-1.4 6.2-2.2 9.3 7.5 2.1 15.1 3.6 22.6 5.5 0.1-0.6 0.4-0.8 0.5-1.3z" fill="#B8DDF4" stroke="#404366" stroke-miterlimit="9.9999"/>
<path d="m392.2 247.5c-1.8-0.2-3.4-0.3-5.2-0.4-0.2 2.3-0.3 4.3-0.5 6.6-6-0.6-11.8-0.7-17.8-1.6-0.5 3.3-0.9 6.4-1.5 9.6 7.7 1.5 15.3 2.4 23 3.6 1-5.9 1.7-11.8 2-17.8z" fill="#B8DDF4" stroke="#404366" stroke-miterlimit="9.9999"/>
<path d="m392.5 226.9c-1.8 0.1-3.4 0.3-5.2 0.4 0.2 2.1 0.3 4.3 0.2 6.4-6 0.3-11.9 0-18 0.1 0 3.2 0.1 6.4-0.2 9.6 7.8 0.5 15.4 1.2 23.2 1.6 0.3-6 0.3-12.1 0-18.1z" fill="#B8DDF4" stroke="#404366" stroke-miterlimit="9.9999"/>
<path d="m391.4 213.9c-7.7 1.1-15.3 2.4-23 3.3 0.5 3.1 0.7 6.1 0.9 9.2 7.7-0.4 15.3-1.2 23-1.6-0.1-3.6-0.4-7.3-0.9-10.9z" fill="#B8DDF4" stroke="#404366" stroke-miterlimit="9.9999"/>
<path d="m383.3 188c-5.9 1.4-22 2.6-19 11.6 1.9 4.5 0.6 11.5 5.1 14.3 5.1 0.7 10.6-1.3 15.8-1.8 5.5-0.6 5.1-5.5 3.9-9.6 3.6-4.9 4.9-13-2.6-14.3 0.5 1.8 1.2 3.9 0.6 5.6-0.8-2.1-1.4-5.1-3.8-5.8zm-3 14.1c-2.2 0-10.5 4.3-9.5-0.1 2.1-0.7 11.6-4.4 12.3-2 0.6 1.7-1.7 1.8-2.8 2.1z" fill="#B8DDF4" stroke="#404366" stroke-miterlimit="9.9999"/>
<path d="m381.1 174.7c-1.7 0.6-3.1 0.9-4.8 1.4-0.4-1.1-0.8-1.8-1.2-2.9 1.5-0.9 2.9-1.7 4.4-2.6-1.6-3.5-3.3-6.8-5.1-10.3-6 5.2-12.3 9.8-18.7 14.6 2.1 4.5 3.8 8.9 5.5 13.6 7.8-1.3 15.5-2.4 23.4-3.4-0.2-0.6-0.4-1.1-0.2-1.1-1.1-3.2-2-6.2-3.3-9.3zm-17.8 4.8c2.4-1.3 4.4-2.7 6.8-4.1 0.3 0.8 0.5 1.2 0.8 2-2.6 1-5 1.3-7.6 2.1z" fill="#B8DDF4" stroke="#404366" stroke-miterlimit="9.9999"/>
<path d="m149 395.8c1.5-2.7 2.9-5.1 4.4-7.8-9.4-5.7-18.3-12.2-26.5-19.5-2.1 2.2-4 4.4-6 6.6 2.4 2.1 4.4 4.1 6.9 6-6.2 8-12.4 15.6-18.6 23.6 5.4 3.9 10.7 8.3 16.3 12 5.4-8.6 10.9-16.9 16.3-25.5 2.4 1.7 4.7 3 7.2 4.6z" fill="#B8DDF4" stroke="#404366" stroke-miterlimit="9.9999"/>
<path d="m174.7 398.5c-1.6 4.2-3.3 8.2-4.9 12.4-1.3-0.6-2.3-1.1-3.7-1.7 1.9-4 3.4-8 5.3-12-4.6-2.2-9-4.6-13.5-7.1-6.3 11.6-12.3 23.5-18.6 35 0.5 0.3 0.9 0.6 0.9 0.3 5 2.9 10.1 5.3 15.3 7.8 2.4-5.1 4.4-10.4 6.8-15.6 1.5 0.6 2.5 1.1 4 1.7-2.1 5.3-4.3 10.5-6.4 15.8 5.6 2.4 11.1 4.5 16.8 6.4 4-12.6 7.6-25.2 11.6-37.7-4.7-1.5-9.1-3.4-13.6-5.3z" fill="#B8DDF4" stroke="#404366" stroke-miterlimit="9.9999"/>
<path d="m192.2 415.1c-2.8 9.7-5.3 19.5-8 29.2 9 2.5 18.3 5 27.6 6.2 0.4-3.2 0.8-6.1 1.2-9.2-3.4-0.4-6.5-0.9-9.9-1.6 0.5-2.7 0.8-5.3 1.4-8 3.2 0.7 6.4 1.2 9.6 1.6 0.4-3.2 0.8-6.1 1.2-9.2-3.2-0.4-6.1-0.9-9.2-1.5 0.3-1.6 0.5-2.7 0.8-4.3 3.1 0.6 5.9 1.1 9 1.5 0.4-3.2 0.8-6.1 1.2-9.2-7.6-0.7-15.1-2.7-22.4-4.8-1 3.1-1.6 6.2-2.5 9.3z" fill="#B8DDF4" stroke="#404366" stroke-miterlimit="9.9999"/>
<path d="m268.6 410.3c-7 1.3-14.1 2-21.2 2.3-1.6 13.2-3.5 26.4-6 39.5 5.7 0.5 12.1-0.2 17.9-0.8v-8.6c1.6-0.2 2.9-0.2 4.6-0.4 0.5 3 1.3 5.7 1.9 8.6 5.7-0.7 11.2-1.6 16.8-2.8-4.6-12.6-10.1-24.9-14-37.8zm-10 23.5c0.6-4.4 0.2-8.9 0.3-13.4 1 4.4 1.9 8.7 2.9 13.1-1.2 0.1-2 0.2-3.2 0.3z" fill="#B8DDF4" stroke="#404366" stroke-miterlimit="9.9999"/>
<path d="m303.9 408.9c-1.1-3-2.1-5.6-3.2-8.6-8.5 3.3-17.2 6.1-26 8.3 0.5 3 1.3 5.6 1.8 8.6 2.6-0.5 4.8-1 7.3-1.6 2.4 10 4.5 20 6.9 29.9 5-2 10.4-3.1 15.6-5.2-3.2-9.6-6-19.2-9.2-28.8 2.4-0.7 4.5-1.7 6.8-2.6z" fill="#B8DDF4" stroke="#404366" stroke-miterlimit="9.9999"/>
<path d="m336.9 393.2c-1.8-2.6-3.3-5.4-5-8.1-3.8 2.5-7.7 4.6-11.7 6.7 2.1 4 3.9 8 6 12-1.2 0.6-2 1.1-3.2 1.7-1.9-4.1-3.9-7.9-5.8-12-4 2.1-7.9 4-12.1 5.8 4.8 12.2 9.7 24.2 14.5 36.4 5-2.1 9.9-4.5 14.8-7-2.4-5.3-5.2-10.3-7.6-15.6 1.2-0.6 2.1-1.1 3.4-1.7 2.5 5.2 5.4 10.1 7.8 15.3 4.9-2.6 9.6-5.5 14.4-8.3-5.1-8.5-10.5-16.7-15.5-25.2z" fill="#B8DDF4" stroke="#404366" stroke-miterlimit="9.9999"/>
<path d="m366.4 397.9c-6.2-8-12.4-15.8-18.6-23.8-3.5 2.8-7.1 5.3-10.8 7.9 7.3 10.9 14.3 21.8 21.5 32.7 7.2-5.2 14.7-10.3 21.5-16.2-2-2.4-4.1-4.4-6-6.8-2.5 2.2-5.1 4.1-7.6 6.2z" fill="#B8DDF4" stroke="#404366" stroke-miterlimit="9.9999"/>
<path d="m389.5 376.7c-2.1-1.8-3.9-3.5-6-5.4 2.1-2.4 4.1-4.5 6.2-6.9-2.4-1.9-4.4-3.9-6.8-5.8-2.1 2.2-3.9 4.4-6 6.6-1.2-1.1-2-1.8-3.2-2.9 2.1-2.2 3.9-4.3 5.9-6.5-2.4-1.9-4.4-3.9-6.8-5.8-4.7 5.5-9.7 10.6-15.1 15.4 8.9 9.7 17.6 19.5 26.5 29.2 6.6-6.1 12.8-12.5 18.6-19.2-2.4-1.9-4.4-3.9-6.8-5.8-2.1 2.5-4.2 4.8-6.5 7.1z" fill="#B8DDF4" stroke="#404366" stroke-miterlimit="9.9999"/>
<path d="m399.2 329c-2.7-1.5-5.1-2.9-7.8-4.4-4.7 7.8-10 15.2-15.8 22.2 2.5 1.8 4.5 3.8 7 5.6 1.6-1.9 3-3.7 4.6-5.7 8.2 6 16.2 12.2 24.4 18.2 3.3-4.4 6.5-8.8 9.5-13.4-8.6-5.5-17.1-10.8-25.7-16.3 1.4-2 2.5-4.1 3.8-6.2z" fill="#B8DDF4" stroke="#404366" stroke-miterlimit="9.9999"/>
<path d="m428.1 321c-2.6-1-4.8-2.1-7.4-3.2 1.3-2.9 2.6-5.5 3.8-8.5-3-1.1-5.6-2.1-8.6-3.2-1.1 2.7-2.3 5.3-3.6 8-1.5-0.6-2.5-1.1-4-1.7 1.3-2.7 2.3-5.2 3.5-8-3-1.1-5.6-2.1-8.6-3.2-2.8 6.8-6.1 13.4-9.7 19.8 11.6 6.3 23.5 12.3 35 18.6 4.6-7.8 8.7-15.9 12.1-24.3-3-1.1-5.6-2.1-8.6-3.2-1.2 3-2.4 6-3.9 8.9z" fill="#B8DDF4" stroke="#404366" stroke-miterlimit="9.9999"/>
<path d="m450.5 248.5c-3.7-1-7.4-0.8-11.2-1.2 0.6 5.5-0.4 11.1-1 16.6 2.2 0.6 4.8 0 6.7 1.4 1.5 1.8-0.6 3.9-2.7 3.1-6.2-1.3-12.7-1-18.6-3.2-1.9-3.6 3.3-2.9 5.5-2.4 0.8-5.1 1.1-10.1 1.4-15.3-9.5-1.4-15.9-0.3-15.8 10.8-0.1 5.8-3.9 12.4-1.2 17.8 6.5 5.7 17 5 25 7.6 7.9 3.2 13.4-0.4 14.1-8.8 0.2-7.8 6.9-21.8-2.2-26.4z" fill="#B8DDF4" stroke="#404366" stroke-miterlimit="9.9999"/>
<path d="m439.7 204.2c-15.9 3.4-29.7-1-24.4 21.2 1 7.5-1.4 15.9 9.1 16.1 10.9-1.7 33.7 6.5 31.4-11.5-1.1-10.9 0.8-31.8-16.1-25.8zm6.2 16.9c3.3 5.5-15.6 3.4-18.8 4.4-5.1-0.5-3.3-5 1.3-4.3 5.1 0.4 13.4-2.6 17.5-0.1z" fill="#B8DDF4" stroke="#404366" stroke-miterlimit="9.9999"/>
<path d="m408.2 187.9c1.5 4.7 2.8 9.5 3.9 14.4 13-2.2 25.5-5.9 38.5-8.1-1.2-6-2.7-11.9-4.7-17.7-12.6 3.8-25.1 7.6-37.7 11.4z" fill="#B8DDF4" stroke="#404366" stroke-miterlimit="9.9999"/>
<path d="m423.4 126.9c-11.3 6.8-22.4 13.7-33.7 20.5 2.6 4.4 5 8.7 7.3 13.3 4.9-2.3 9.5-4.7 14.4-7-3.8 4.5-7.7 8.8-11.8 13 2.2 4.7 4.1 9.5 6 14.4 12.4-4.4 25-8 37.4-12.4-1.6-5.8-4.3-11.5-6.6-17-5.6 2.6-11.4 4.7-17 7.3 4.7-4.9 9-9.9 13.3-15.1-3-5.8-5.9-11.5-9.3-17z" fill="#B8DDF4" stroke="#404366" stroke-miterlimit="9.9999"/>
<polyline points="87.6 168 377.8 67 381.2 65.8" fill="none" stroke="#C1A065" stroke-linecap="round" stroke-linejoin="round" stroke-width="6"/>
<path d="m279.2 229" fill="none" stroke="#C1A065" stroke-linecap="round" stroke-linejoin="round" stroke-width="6"/>
<path d="m279.4 140" fill="none" stroke="#C1A065" stroke-linecap="round" stroke-linejoin="round" stroke-width="6"/>
<path d="m307.5 286.2-26.9-89.6c-8.7-28.9 6.2-58.7 34.7-68.6 35.7-12.4 76.3-26.6 76.3-26.6" fill="none" stroke="#C1A065" stroke-linecap="round" stroke-linejoin="round" stroke-width="6"/>
<path d="m310.3 73.4-36 12.5c-11.2 3.9-23.4-2-27.3-13.2-0.8-2.3-1.2-4.7-1.2-7.1 0-22.5 0.1-48.8 0.1-48.8" fill="none" stroke="#C1A065" stroke-linecap="round" stroke-linejoin="round" stroke-width="6"/>
<path d="m345 43-70.2 24.4c-4 1.4-8.3-0.7-9.7-4.6-0.3-0.8-0.4-1.7-0.4-2.6 0-15.7 0.1-42.5 0.1-42.5" fill="none" stroke="#C1A065" stroke-linecap="round" stroke-linejoin="round" stroke-width="6"/>
<line x1="304.8" x2="394.9" y1="110.1" y2="78.8" fill="none" stroke="#C1A065" stroke-linecap="round" stroke-linejoin="round" stroke-width="6"/>
<line x1="25.8" x2="168.2" y1="207.2" y2="157.7" fill="none" stroke="#C1A065" stroke-linecap="round" stroke-linejoin="round" stroke-width="6"/>
<path d="m23.5 227.3s150-52.8 175.2-61.5c-2.9 9.8-29.1 95.6-29.1 95.6-1.3 4.1-2.3 8.3-3 12.6-0.8 4.6-5.3 6-7.9 2-3.6-5.5-6.1-12-12-16.3-2.2-1.6-2.8-4.7-1.2-7 0.6-0.9 1.5-1.5 2.5-1.8 4.2-1.4 8.2-3 12.2-4.9l6.1-19.5-139.4 48.6" fill="none" stroke="#C1A065" stroke-linecap="round" stroke-linejoin="round" stroke-width="6"/>
<path d="m181.3 327.3c2.2 3.2 4.6 6.1 7.3 8.9 3.1 3.2 6.5 6 10.2 8.5 16.5 11.1 26.4 29.7 26.4 49.6v6.1" fill="none" stroke="#C1A065" stroke-linecap="round" stroke-linejoin="round" stroke-width="6"/>
<line x1="41.8" x2="132.7" y1="148.5" y2="116.8" fill="none" stroke="#C1A065" stroke-linecap="round" stroke-linejoin="round" stroke-width="6"/>
<line x1="336.6" x2="365" y1="64.3" y2="54.4" fill="none" stroke="#C1A065" stroke-linecap="round" stroke-linejoin="round" stroke-width="6"/>
<path d="m295.3 321.8c-3.2 5.7-7.2 11-11.9 15.5-3.3 3.1-6.8 6-10.6 8.5-17.2 10.9-27.6 29.8-27.7 50.1v4.5" fill="none" stroke="#C1A065" stroke-linecap="round" stroke-linejoin="round" stroke-width="6"/>
<path d="m245.2 355.8" fill="none" stroke="#C1A065" stroke-linecap="round" stroke-linejoin="round" stroke-width="6"/>
<path d="m263.7 398.8v-3.8c0-13.2 6.8-25.5 18-32.4 4.4-2.7 8.5-5.8 12.3-9.2 25.5-22.8 35.1-58.6 24.4-91.1-4.5-15-13.7-45.5-21.3-70.7-6-19.8 4.8-40.8 24.3-47.6 34.3-11.9 82.3-28.6 98-34.1" fill="none" stroke="#C1A065" stroke-linecap="round" stroke-linejoin="round" stroke-width="6"/>
<path d="m31.3 292.2" fill="none" stroke="#C1A065" stroke-linecap="round" stroke-linejoin="round" stroke-width="6"/>
<path d="m186.7 391.1c-1.8-6.1-5.6-11.4-10.8-15.1-5.5-3.9-10.6-8.2-15.3-13-14.3-14.5-24-32.9-28-52.8-3.1-15-17.8-24.7-32.9-21.6-1.2 0.3-2.4 0.6-3.6 1-26.9 9.4-58.8 20.5-58.8 20.5" fill="none" stroke="#C1A065" stroke-linecap="round" stroke-linejoin="round" stroke-width="6"/>
<path d="m337.1 256.1" fill="none" stroke="#C1A065" stroke-linecap="round" stroke-linejoin="round" stroke-width="6"/>
<line x1="70.8" x2="28.8" y1="173.8" y2="188.4" fill="none" stroke="#C1A065" stroke-linecap="round" stroke-linejoin="round" stroke-width="6"/>
<path d="m282.1 395.1c0-7.4 3.8-12.1 10.1-16.1 40.6-25.3 59.3-74.6 45.5-120.4 0 0-3.6-11.9-8.3-27.8-6.9-23.1-10.4-34.4-13.1-43.4-3.3-11.1 2.7-22.8 13.6-26.6l48.4-15.4" fill="none" stroke="#C1A065" stroke-linecap="round" stroke-linejoin="round" stroke-width="6"/>
<path d="m132.9 357.7c-7.9-11.9-13.6-25.1-16.8-39-1.8-7.7-9.6-12.6-17.3-10.7-0.5 0.1-1 0.3-1.5 0.4-20.4 7.1-44.2 15.4-55 19.1" fill="none" stroke="#C1A065" stroke-linecap="round" stroke-linejoin="round" stroke-width="6"/>
<path d="m299.3 389.2c91.2-37.9 131.5-138.1 85.6-232.7" fill="none" stroke="#C1A065" stroke-linecap="round" stroke-linejoin="round" stroke-width="6"/>
<path d="m70.2 101.3c49.9-17.4 133.1-46.4 155.7-54.2 0 21.4-0.1 45.2-0.1 55.7-30.7 10.7-172.5 60-192 66.8" fill="none" stroke="#C1A065" stroke-linecap="round" stroke-linejoin="round" stroke-width="6"/>
<path d="m51.3 128c47.2-16.4 127.2-44.3 154.5-53.8v17.2c-14.6 5.1-46.1 16.1-46.1 16.1" fill="none" stroke="#C1A065" stroke-linecap="round" stroke-linejoin="round" stroke-width="6"/>
<line x1="322.6" x2="324.3" y1="69.2" y2="68.6" fill="none" stroke="#C1A065" stroke-linecap="round" stroke-linejoin="round" stroke-width="6"/>
<line x1="145.3" x2="147.4" y1="112.4" y2="111.7" fill="none" stroke="#C1A065" stroke-linecap="round" stroke-linejoin="round" stroke-width="6"/>
<path d="m322.4 32.3c-16.5 5.7-32.8 11.4-40.7 14.2 0-1.9 0-14.2 0.1-26.5" fill="none" stroke="#C1A065" stroke-linecap="round" stroke-linejoin="round" stroke-width="6"/>
<path d="m31.3 292.2 63.4-22.1c22.7-7.9 47.4 4.1 55.3 26.8 0.8 2.3 1.4 4.6 1.8 7 2.7 15.9 9.9 30.7 20.6 42.7 4.5 5.1 9.6 9.6 15.2 13.4 11.8 8.1 18.8 21.6 18.8 35.9" fill="none" stroke="#C1A065" stroke-linecap="round" stroke-linejoin="round" stroke-width="6"/>
<path d="m98.2 328.3c-20.8 7.2-45.5 15.8-45.5 15.8" fill="none" stroke="#C1A065" stroke-linecap="round" stroke-linejoin="round" stroke-width="6"/>
<path d="m104.9 346.3c-21.5 7.5-21.5 7.5-42.1 14.7" fill="none" stroke="#C1A065" stroke-linecap="round" stroke-linejoin="round" stroke-width="6"/>
<path d="m100.6 368.6c-11.7 4.1-25.6 8.9-25.6 8.9" fill="none" stroke="#C1A065" stroke-linecap="round" stroke-linejoin="round" stroke-width="6"/>
<path d="m343.3 297.4 16.8 8.6s0.3 18.4-19.5 44.9l6.7 7.1" fill="none" stroke="#C1A065" stroke-linecap="round" stroke-linejoin="round" stroke-width="6"/>
<path d="m341.7 181.9c-10.1 3.5-22.1 7.7-22.1 7.7" fill="none" stroke="#C1A065" stroke-linecap="round" stroke-linejoin="round" stroke-width="6"/>
<path d="m353 219.8c-10.5 3.6-22.9 8-22.9 8" fill="none" stroke="#C1A065" stroke-linecap="round" stroke-linejoin="round" stroke-width="6"/>
<path d="m347.6 200.3c-10.5 3.6-22.9 8-22.9 8" fill="none" stroke="#C1A065" stroke-linecap="round" stroke-linejoin="round" stroke-width="6"/>
<path d="m356 241.5c-8.2 2.8-17.9 6.2-17.9 6.2" fill="none" stroke="#C1A065" stroke-linecap="round" stroke-linejoin="round" stroke-width="6"/>
<path d="m354.5 262.3c-6.1 2.1-13.3 4.6-13.3 4.6" fill="none" stroke="#C1A065" stroke-linecap="round" stroke-linejoin="round" stroke-width="6"/>
<line x1="136.7" x2="136.6" y1="42.9" y2="63.2" fill="none" stroke="#C1A065" stroke-linecap="round" stroke-linejoin="round" stroke-width="6"/>
<line x1="170.3" x2="170.3" y1="29.8" y2="50" fill="none" stroke="#C1A065" stroke-linecap="round" stroke-linejoin="round" stroke-width="6"/>
<line x1="206.6" x2="206.6" y1="19" y2="36.6" fill="none" stroke="#C1A065" stroke-linecap="round" stroke-linejoin="round" stroke-width="6"/>
<line x1="117.5" x2="117.5" y1="70.9" y2="84" fill="none" stroke="#C1A065" stroke-linecap="round" stroke-linejoin="round" stroke-width="6"/>
<line x1="154.2" x2="154.2" y1="54.1" y2="71.1" fill="none" stroke="#C1A065" stroke-linecap="round" stroke-linejoin="round" stroke-width="6"/>
<line x1="189.7" x2="189.7" y1="44.1" y2="58.6" fill="none" stroke="#C1A065" stroke-linecap="round" stroke-linejoin="round" stroke-width="6"/>
<linearGradient id="g" x1="192.99" x2="536.47" y1="400.73" y2="744.2" gradientTransform="matrix(.9162 .4006 -.4006 .9162 137.96 -427.8)" gradientUnits="userSpaceOnUse">
	<stop stop-color="#CEC397" offset="0"/>
	<stop stop-color="#5B1C28" offset=".1592"/>
	<stop stop-color="#404366" offset=".7682"/>
	<stop stop-color="#996D45" offset="1"/>
</linearGradient>
<circle cx="242.8" cy="242.8" r="229.8" fill="none" stroke="url(#g)" stroke-miterlimit="9.9999" stroke-width="26"/>
<linearGradient id="h" x1="79.377" x2="420.63" y1="577.38" y2="918.63" gradientTransform="translate(-7.2016 -505.2)" gradientUnits="userSpaceOnUse">
	<stop stop-color="#CEC397" offset="0"/>
	<stop stop-color="#673500" offset=".1592"/>
	<stop stop-color="#404366" offset=".7682"/>
	<stop stop-color="#996D45" offset="1"/>
</linearGradient>
<circle cx="242.8" cy="242.8" r="229.8" fill="none" stroke="url(#h)" stroke-miterlimit="9.9999" stroke-width="23"/>
<linearGradient id="f" x1="48.619" x2="451.38" y1="860.27" y2="627.73" gradientTransform="translate(-7.2016 -505.2)" gradientUnits="userSpaceOnUse">
	<stop stop-color="#B7C8FA" offset="0"/>
	<stop stop-color="#B7C8FA" offset=".0208"/>
	<stop stop-color="#B7C8FA" offset=".0878"/>
	<stop stop-color="#B7C8FA" offset=".1571"/>
	<stop stop-color="#B7C8FA" offset=".2295"/>
	<stop stop-color="#B7C8FA" offset=".3101"/>
	<stop stop-color="#607CC9" offset=".6229"/>
	<stop stop-color="#C1E9FA" offset="1"/>
</linearGradient>
<circle cx="242.8" cy="238.8" r="224.5" fill="none" stroke="url(#f)" stroke-miterlimit="9.9999" stroke-width="16"/>
<linearGradient id="i" x1="-444.9" x2="-44.789" y1="992.43" y2="761.42" gradientTransform="matrix(.5 -.866 .866 .5 -394.19 -411.7)" gradientUnits="userSpaceOnUse">
	<stop stop-color="#B7C8FA" offset="0"/>
	<stop stop-color="#B7C8FA" offset=".0208"/>
	<stop stop-color="#B7C8FA" offset=".0878"/>
	<stop stop-color="#B7C8FA" offset=".1571"/>
	<stop stop-color="#B7C8FA" offset=".2295"/>
	<stop stop-color="#B7C8FA" offset=".3101"/>
	<stop stop-color="#607CC9" offset=".6229"/>
	<stop stop-color="#C1E9FA" offset="1"/>
</linearGradient>
<circle cx="242.8" cy="238.8" r="224.5" fill="none" stroke="url(#i)" stroke-miterlimit="9.9999" stroke-width="13"/>
</svg>
