<?xml version="1.0" encoding="utf-8"?>
<!-- Generator: Adobe Illustrator 25.0.0, SVG Export Plug-In . SVG Version: 6.00 Build 0)  -->
<svg version="1.1" id="Livello_1" xmlns="http://www.w3.org/2000/svg" xmlns:xlink="http://www.w3.org/1999/xlink" x="0px" y="0px"
	 viewBox="0 0 499 460.5" style="enable-background:new 0 0 499 460.5;" xml:space="preserve">
<style type="text/css">
	.st0{fill:#FFFFFF;}
	.st1{fill:#29CCC4;}
	.st2{fill:#1D1D1B;}
	.st3{fill:none;}
</style>
<g id="Livello_2_1_">
	<circle class="st0" cx="249.5" cy="230.3" r="230.3"/>
	<g id="Livello_3">
		<polygon class="st1" points="183.9,205.1 227.6,171.6 274.4,175.7 298.8,183.6 334.9,234.3 334.9,264.7 289.8,300.1 257.8,335.3 
			223.5,316.3 164.4,258.2 157.4,232.6 183,206.8 		"/>
		<path class="st2" d="M423.6,240.9c0.2,0.3,0.5,0.6,0.8,0.9c-48.5,49.6-97.2,99.4-146,149.3c-3.5-3.6-6.8-7-10.1-10.5
			c-2.9-3-5.5-6.2-8.4-9.2c-1.3-1.3-1.1-2.1,0.1-3.4c4.3-4.2,8.6-8.4,12.8-12.7c1-1,1.8-1.3,2.9-0.3c0.7,0.6,1.4,1.1,2.2,1.6
			l112.2-114.8c-24.1-25.3-48-50.3-72.3-75.8h2.8c8.7,0.1,17.3,0,26,0.3c2.2,0.1,4.3,0.9,5.9,2.4
			C376.3,192.7,399.9,216.8,423.6,240.9z"/>
		<path class="st2" d="M363.1,240.4c0.7,0.8,1.4,1.6,2.3,2.5L220,390.5c-48.5-49.5-96.9-99-145.3-148.6c0.8-0.9,1.5-1.7,2.1-2.3
			c21.8-22.4,43.7-44.8,65.5-67.1c1.5-1.6,3.1-3,4.8-4.3c1.2-0.9,2.7-1.8,4-1.8c9.4-0.2,18.7-0.1,28.2-0.1l-71.8,74.1
			c38.3,39.2,75.9,77.7,113.7,116.4c3.9-4.4,7.5-8.5,11.4-12.9c-33.2-33.6-66.3-67.1-99.7-100.8c2.3-2.1,4.4-4,6.4-6.1
			c11-11.3,21.9-22.6,32.8-33.8c10.5-10.7,21-21.5,31.5-32.2c3.2-3.2,7-4.4,11.3-4.4c22.5-0.1,44.9-0.1,67.3-0.3
			c5.5-0.1,9.8,1.4,13.7,5.5c14.1,14.7,28.4,29.1,42.6,43.6C346.6,223.7,354.9,232,363.1,240.4z M331.5,242.2
			c-0.2-0.3-0.4-0.7-0.6-1c-15.6-16.1-31.3-32.2-47.1-48.2c-1.8-1.6-4.2-2.6-6.7-2.7c-18.5-0.2-37.1-0.2-55.6,0
			c-2.4,0.1-4.6,1-6.4,2.6c-11.5,11.4-22.8,23-34.1,34.5c-4.7,4.8-9.4,9.6-14.2,14.5c27.6,28.3,54.9,56.2,82.4,84.3
			C276.9,298.1,304.2,270.1,331.5,242.2L331.5,242.2z"/>
		<path class="st2" d="M319.4,93c0.9-0.4,1.8-0.6,3.3-1c-2.1,4.5-4,8.5-6,12.4c-6.3,13.1-12.7,26.2-19,39.3
			c-1.6,3.3-4.1,4.7-7.4,4.7c-27.3,0.1-54.6,0.1-81.9,0c-3.3-0.1-5.9-1.5-7.5-5c-7.8-16.2-15.8-32.3-23.7-48.5
			c-0.4-0.8-0.7-1.6-1.5-3.2c5.4,2,10.2,3.8,15,5.5c6.8,2.5,13.5,5.1,20.4,7.5c1.7,0.6,2.3,1.5,2.4,3.3c0,3.1,0.2,6.2,0.7,9.3
			c0.9,4.8,4.7,8.6,9.6,9.4c5.6,0.9,11.3-1.6,13.8-6c3.5-6.1,3.3-11.1-0.9-16.7c-2.5-3.3-5.3-6.4-8.1-9.7
			c6.8-8.2,13.7-16.4,20.8-24.9L270,94.1c-2.9,3.6-5.8,7-8.3,10.5c-5.5,7.9-3.2,17.2,5.2,21.1c5.1,2.4,9.8,1.2,14.1-2.1
			c4.3-3.4,5.4-8.1,4.6-13.4c-0.7-3.9-0.8-3.9,2.6-5.2C298.7,101,309,97,319.4,93z"/>
		<path class="st3" d="M107.3,240.3c38.3,39.2,75.9,77.7,113.7,116.4c3.9-4.4,7.5-8.5,11.4-12.9c-33.2-33.6-66.3-67.1-99.7-100.8
			c2.3-2.1,4.4-4,6.4-6.1c11-11.3,21.9-22.6,32.8-33.8c10.5-10.7,21-21.5,31.5-32.2c3.2-3.2,7-4.4,11.3-4.4
			c22.5-0.1,44.9-0.1,67.3-0.3c5.5-0.1,9.8,1.4,13.7,5.5c14.1,14.7,28.4,29.1,42.6,43.6c8.3,8.4,16.5,16.8,24.7,25.2
			c0.7,0.8,1.4,1.6,2.3,2.5L220,390.5c-48.5-49.5-96.9-99-145.3-148.6c0.8-0.9,1.5-1.7,2.1-2.3c21.8-22.4,43.7-44.8,65.5-67.1
			c1.5-1.6,3.1-3,4.8-4.3c1.2-0.9,2.7-1.8,4-1.8c9.4-0.2,18.7-0.1,28.2-0.1L107.3,240.3z"/>
		<path class="st3" d="M249.4,326.2c27.5-28.1,54.9-56.1,82.1-84c-0.2-0.3-0.4-0.7-0.6-1c-15.6-16.1-31.3-32.2-47.1-48.2
			c-1.8-1.6-4.2-2.6-6.7-2.7c-18.5-0.2-37.1-0.2-55.6,0c-2.4,0.1-4.6,1-6.4,2.6c-11.5,11.4-22.8,23-34.1,34.5
			c-4.7,4.8-9.4,9.6-14.2,14.5C194.5,270.2,221.9,298.1,249.4,326.2z"/>
		<path class="st3" d="M317.8,166h2.8c8.7,0.1,17.3,0,26,0.3c2.2,0.1,4.3,0.9,5.9,2.4c23.8,23.9,47.4,48.1,71.1,72.2
			c0.2,0.3,0.5,0.6,0.8,0.9c-48.5,49.6-97.2,99.4-146,149.3c-3.5-3.6-6.8-7-10.1-10.5c-2.9-3-5.5-6.2-8.4-9.2
			c-1.3-1.3-1.1-2.1,0.1-3.4c4.3-4.2,8.6-8.4,12.8-12.7c1-1,1.8-1.3,2.9-0.3c0.7,0.6,1.4,1.1,2.2,1.6l112.2-114.8
			C366,216.6,342.1,191.5,317.8,166z"/>
		<path class="st3" d="M175.7,91.7c5.4,2,10.2,3.8,15,5.5c6.8,2.5,13.5,5.1,20.4,7.5c1.7,0.6,2.3,1.5,2.4,3.3c0,3.1,0.2,6.2,0.7,9.3
			c0.9,4.8,4.7,8.6,9.6,9.4c5.6,0.9,11.3-1.6,13.8-6c3.5-6.1,3.3-11.1-0.9-16.7c-2.5-3.3-5.3-6.4-8.1-9.7
			c6.8-8.2,13.7-16.4,20.8-24.9L270,94.1c-2.9,3.6-5.8,7-8.3,10.5c-5.5,7.9-3.2,17.2,5.2,21.1c5.1,2.4,9.8,1.2,14.1-2.1
			c4.3-3.4,5.4-8.1,4.6-13.4c-0.7-3.9-0.8-3.9,2.6-5.2c10.4-4,20.8-8,31.1-12c0.9-0.4,1.8-0.6,3.3-1c-2.1,4.5-4,8.5-6,12.4
			c-6.3,13.1-12.7,26.2-19,39.3c-1.6,3.3-4.1,4.7-7.4,4.7c-27.3,0.1-54.6,0.1-81.9,0c-3.3-0.1-5.9-1.5-7.5-5
			c-7.8-16.2-15.8-32.3-23.7-48.5C176.8,94.1,176.4,93.3,175.7,91.7z"/>
	</g>
</g>
</svg>
