<svg xmlns="http://www.w3.org/2000/svg" viewBox="0 0 500 500"><defs><style>.cls-1{fill:#29ccc4;}.cls-2{fill:#1d1d1b;}.cls-3{fill:none;stroke:#1d1d1b;stroke-miterlimit:10;stroke-width:7.24px;}</style></defs><g id="Livello_3" data-name="Livello 3"><polygon class="cls-1" points="158.46 207.2 219.52 160.31 284.96 166.05 319.03 177.18 369.63 248.02 369.63 290.52 306.55 340.11 261.68 389.36 213.78 362.71 131.14 281.51 121.36 245.66 157.12 209.56 158.46 207.2"/><path class="cls-2" d="M493.57,257.24c.21.29.42.5,1.06,1.21Q392.84,362.6,290.47,467.25c-4.84-5-9.54-9.83-14.17-14.74-4-4.21-7.69-8.62-11.68-12.82-1.78-1.85-1.57-3,.14-4.7,6.05-5.84,12-11.75,17.95-17.8,1.35-1.36,2.49-1.86,4.06-.36a27,27,0,0,0,3.06,2.28L446.71,258.6c-33.68-35.33-67.08-70.36-101-106h3.92c12.1.14,24.21,0,36.31.43a13.37,13.37,0,0,1,8.26,3.34C427.41,189.8,460.45,223.56,493.57,257.24Z"/><path class="cls-2" d="M409,256.6c1,1.07,2,2.21,3.2,3.49L208.86,466.46Q107.17,362.65,5.55,258.67c1.14-1.29,2.06-2.35,3-3.28q45.83-47,91.58-93.86a60.7,60.7,0,0,1,6.69-6.05c1.64-1.21,3.71-2.49,5.56-2.49,13.1-.22,26.2-.14,39.38-.14L51.34,256.46c53.55,54.83,106.1,108.67,159,162.72,5.41-6.13,10.53-11.89,15.95-18-46.43-46.93-92.72-93.78-139.37-141,3.21-3,6.13-5.62,8.91-8.47,15.38-15.74,30.62-31.55,45.93-47.29q22-22.53,44.08-45c4.41-4.49,9.75-6.2,15.74-6.2,31.4-.07,62.81-.07,94.14-.43,7.69-.07,13.67,1.93,19.16,7.69,19.65,20.51,39.66,40.67,59.53,61C386,233.17,397.5,244.85,409,256.6Zm-44.23,2.49a7.18,7.18,0,0,0-.85-1.35c-21.86-22.5-43.72-45.08-65.8-67.37a14.81,14.81,0,0,0-9.33-3.77q-38.88-.42-77.76,0a13.69,13.69,0,0,0-8.9,3.63c-16.1,15.88-31.84,32.12-47.64,48.21-6.63,6.7-13.18,13.39-19.87,20.23,38.59,39.52,76.83,78.61,115.29,117.92Q307.63,317.63,364.81,259.09Z"/><path class="cls-2" d="M347.87,50.44c1.21-.5,2.49-.78,4.55-1.42-3,6.26-5.62,11.82-8.33,17.37-8.83,18.31-17.8,36.61-26.56,55C315.32,126,311.76,128,307.2,128q-57.26.11-114.51,0c-4.62-.07-8.26-2.13-10.53-7C171.26,98.37,160.08,75.79,149,53.15c-.5-1.14-1-2.28-2.06-4.49,7.62,2.85,14.31,5.34,20.93,7.76,9.54,3.56,18.94,7.2,28.49,10.54,2.42.86,3.27,2.14,3.34,4.63a88.16,88.16,0,0,0,1,13,16.19,16.19,0,0,0,13.39,13.11c7.83,1.21,15.81-2.21,19.3-8.34C238.27,80.78,238,73.8,232.08,66c-3.49-4.63-7.41-8.91-11.33-13.61,9.54-11.46,19.09-22.85,29.13-34.82L278.79,52c-4,5.05-8.05,9.75-11.54,14.74-7.69,11-4.41,24,7.34,29.55,7.19,3.35,13.74,1.71,19.72-3s7.62-11.39,6.41-18.8c-.92-5.48-1.14-5.48,3.64-7.33C318.88,61.62,333.41,56,347.87,50.44Z"/><path class="cls-3" d="M51.34,256.46c53.55,54.83,106.1,108.67,159,162.72,5.41-6.13,10.53-11.89,15.95-18-46.43-46.93-92.72-93.78-139.37-141,3.21-3,6.13-5.62,8.91-8.47,15.38-15.74,30.62-31.55,45.93-47.29q22-22.53,44.08-45c4.41-4.49,9.75-6.2,15.74-6.2,31.4-.07,62.81-.07,94.14-.43,7.69-.07,13.67,1.93,19.16,7.69,19.65,20.51,39.66,40.67,59.53,61C386,233.17,397.5,244.85,409,256.6c1,1.07,2,2.21,3.2,3.49L208.86,466.46Q107.17,362.65,5.55,258.67c1.14-1.29,2.06-2.35,3-3.28q45.83-47,91.58-93.86a60.7,60.7,0,0,1,6.69-6.05c1.64-1.21,3.71-2.49,5.56-2.49,13.1-.22,26.2-.14,39.38-.14Z"/><path class="cls-3" d="M250,376.59q57.68-59,114.86-117.5a7.18,7.18,0,0,0-.85-1.35c-21.86-22.5-43.72-45.08-65.8-67.37a14.81,14.81,0,0,0-9.33-3.77q-38.88-.42-77.76,0a13.69,13.69,0,0,0-8.9,3.63c-16.1,15.88-31.84,32.12-47.64,48.21-6.63,6.7-13.18,13.39-19.87,20.23C173.25,298.19,211.49,337.28,250,376.59Z"/><path class="cls-3" d="M345.66,152.56h3.92c12.1.14,24.21,0,36.31.43a13.37,13.37,0,0,1,8.26,3.34c33.26,33.47,66.3,67.23,99.42,100.91.21.29.42.5,1.06,1.21Q392.84,362.6,290.47,467.25c-4.84-5-9.54-9.83-14.17-14.74-4-4.21-7.69-8.62-11.68-12.82-1.78-1.85-1.57-3,.14-4.7,6.05-5.84,12-11.75,17.95-17.8,1.35-1.36,2.49-1.86,4.06-.36a27,27,0,0,0,3.06,2.28L446.71,258.6C413,223.27,379.63,188.24,345.66,152.56Z"/><path class="cls-3" d="M146.91,48.66c7.62,2.85,14.31,5.34,20.93,7.76,9.54,3.56,18.94,7.2,28.49,10.54,2.42.86,3.27,2.14,3.34,4.63a88.16,88.16,0,0,0,1,13,16.19,16.19,0,0,0,13.39,13.11c7.83,1.21,15.81-2.21,19.3-8.34C238.27,80.78,238,73.8,232.08,66c-3.49-4.63-7.41-8.91-11.33-13.61,9.54-11.46,19.09-22.85,29.13-34.82L278.79,52c-4,5.05-8.05,9.75-11.54,14.74-7.69,11-4.41,24,7.34,29.55,7.19,3.35,13.74,1.71,19.72-3s7.62-11.39,6.41-18.8c-.92-5.48-1.14-5.48,3.64-7.33,14.52-5.56,29.05-11.18,43.51-16.74,1.21-.5,2.49-.78,4.55-1.42-3,6.26-5.62,11.82-8.33,17.37-8.83,18.31-17.8,36.61-26.56,55C315.32,126,311.76,128,307.2,128q-57.26.11-114.51,0c-4.62-.07-8.26-2.13-10.53-7C171.26,98.37,160.08,75.79,149,53.15,148.47,52,148,50.87,146.91,48.66Z"/></g></svg>