
<svg id="Livello_1" data-name="Livello 1" xmlns="http://www.w3.org/2000/svg" viewBox="0 0 460.6 460.5"><defs><style>.cls-1{fill:#fff;}.cls-2{fill:#29ccc4;}.cls-3{fill:#1d1d1b;}.cls-4{fill:none;}</style></defs><g id="Livello_2" data-name="Livello 2"><circle class="cls-1" cx="230.3" cy="230.3" r="230.3"/><g id="Livello_3" data-name="Livello 3"><polygon class="cls-2" points="173.8 208.61 211.41 179.78 251.69 183.31 272.68 190.1 303.75 233.74 303.75 259.9 264.94 290.36 237.4 320.65 207.88 304.3 157.02 254.3 151 232.27 173.03 210.07 173.8 208.61"/><path class="cls-3" d="M380.08,239.42a5.9,5.9,0,0,0,.69.77L255.13,368.67c-3-3.1-5.85-6-8.69-9-2.5-2.58-4.74-5.34-7.23-7.92-1.12-1.12-1-1.81.08-2.93,3.7-3.61,7.4-7.22,11-10.93.86-.86,1.55-1.11,2.49-.25a16.4,16.4,0,0,0,1.9,1.37l96.55-98.79C330.51,218.42,310,196.9,289,175h2.41c7.49.08,14.89,0,22.38.26a7.88,7.88,0,0,1,5.08,2.06C339.38,197.94,359.69,218.68,380.08,239.42Z"/><path class="cls-3" d="M328,239c.6.69,1.2,1.38,2,2.16l-125.13,127q-62.61-63.9-125-127.88c.69-.78,1.29-1.47,1.81-2q28.14-28.92,56.36-57.75a34.26,34.26,0,0,1,4.13-3.7,6.61,6.61,0,0,1,3.45-1.55c8.09-.17,16.09-.08,24.26-.08L108.06,239,205.9,339.16c3.36-3.79,6.46-7.32,9.81-11.11-28.57-28.91-57.05-57.74-85.8-86.74,2-1.81,3.79-3.44,5.51-5.25q14.21-14.59,28.23-29.09c9-9.21,18.07-18.5,27.11-27.71a13,13,0,0,1,9.72-3.79c19.36-.08,38.64-.08,57.92-.25A14.63,14.63,0,0,1,270.19,180c12.13,12.65,24.44,25,36.66,37.52C313.82,224.61,321,231.76,328,239Zm-27.2,1.55c-.17-.25-.34-.6-.51-.86q-20.15-20.78-40.54-41.48a9.35,9.35,0,0,0-5.76-2.32c-15.92-.17-31.93-.17-47.85,0a8.76,8.76,0,0,0-5.51,2.24c-9.89,9.81-19.62,19.79-29.34,29.69l-12.22,12.48c23.75,24.35,47.24,48.36,70.91,72.54,23.84-24.18,47.33-48.28,70.82-72.29Z"/><path class="cls-3" d="M290.41,112.14a18.4,18.4,0,0,1,2.84-.86c-1.81,3.87-3.44,7.31-5.16,10.67-5.42,11.27-10.93,22.54-16.35,33.82a6.56,6.56,0,0,1-6.37,4q-35.25.13-70.48,0a6.78,6.78,0,0,1-6.46-4.3c-6.71-13.94-13.59-27.8-20.39-41.74-.35-.69-.6-1.38-1.29-2.75,4.64,1.72,8.77,3.27,12.91,4.73,5.85,2.15,11.61,4.39,17.55,6.46a2.72,2.72,0,0,1,2.07,2.84,50.2,50.2,0,0,0,.6,8,10.06,10.06,0,0,0,8.26,8.09c4.82.77,9.72-1.38,11.88-5.17,3-5.25,2.84-9.55-.78-14.37-2.15-2.84-4.56-5.5-7-8.34,5.85-7.06,11.79-14.12,17.9-21.43l17.73,21.25c-2.5,3.1-5,6-7.14,9-4.74,6.8-2.76,14.8,4.47,18.16,4.39,2.06,8.43,1,12.14-1.81s4.64-7,3.95-11.53c-.6-3.36-.68-3.36,2.24-4.48C272.6,119,281.46,115.58,290.41,112.14Z"/><path class="cls-4" d="M107.88,238.9c33,33.73,65.32,66.87,97.85,100.17,3.36-3.79,6.45-7.32,9.81-11.1-28.57-28.92-57-57.75-85.8-86.75,2-1.8,3.79-3.44,5.51-5.25,9.47-9.72,18.85-19.45,28.23-29.08,9-9.21,18.07-18.51,27.1-27.71a13,13,0,0,1,9.73-3.79c19.36-.09,38.64-.09,57.92-.26A14.66,14.66,0,0,1,270,179.86c12.13,12.65,24.44,25,36.66,37.52q10.71,10.85,21.25,21.69c.6.69,1.21,1.38,2,2.15l-125,126.94q-62.61-63.9-125-127.88c.69-.78,1.29-1.47,1.81-2q28.14-28.92,56.36-57.75a34.26,34.26,0,0,1,4.13-3.7,6.61,6.61,0,0,1,3.45-1.55c8.09-.17,16.09-.08,24.26-.08Z"/><path class="cls-4" d="M230.17,312.82q35.51-36.27,70.65-72.29c-.17-.25-.34-.6-.51-.86q-20.15-20.78-40.54-41.48a9.35,9.35,0,0,0-5.76-2.32c-15.92-.17-31.93-.17-47.85,0a8.76,8.76,0,0,0-5.51,2.24c-9.89,9.81-19.62,19.79-29.34,29.69l-12.22,12.48C182.93,264.63,206.51,288.64,230.17,312.82Z"/><path class="cls-4" d="M289,175h2.41c7.49.08,14.89,0,22.38.26a7.88,7.88,0,0,1,5.08,2.06c20.48,20.57,40.79,41.4,61.18,62.14a5.9,5.9,0,0,0,.69.77L255.13,368.67c-3-3.1-5.85-6-8.69-9-2.5-2.58-4.74-5.34-7.23-7.92-1.12-1.12-1-1.81.08-2.93,3.7-3.61,7.4-7.22,11-10.93.86-.86,1.55-1.11,2.49-.25a16.4,16.4,0,0,0,1.9,1.37l96.55-98.79C330.51,218.5,310,196.9,289,175Z"/><path class="cls-4" d="M166.75,111c4.64,1.72,8.77,3.27,12.91,4.73,5.85,2.15,11.61,4.39,17.55,6.46a2.72,2.72,0,0,1,2.07,2.84,50.2,50.2,0,0,0,.6,8,10.06,10.06,0,0,0,8.26,8.09c4.82.77,9.72-1.38,11.88-5.17,3-5.25,2.84-9.55-.78-14.37-2.15-2.84-4.56-5.5-7-8.34,5.85-7.06,11.79-14.12,17.9-21.43l17.73,21.25c-2.5,3.1-5,6-7.14,9-4.74,6.8-2.76,14.8,4.47,18.16,4.39,2.06,8.43,1,12.14-1.81s4.64-7,3.95-11.53c-.6-3.36-.68-3.36,2.24-4.48,8.95-3.44,17.9-6.88,26.76-10.32a18.4,18.4,0,0,1,2.84-.86c-1.8,3.87-3.44,7.31-5.16,10.67-5.42,11.27-10.93,22.54-16.35,33.82a6.56,6.56,0,0,1-6.37,4q-35.23.13-70.48,0a6.76,6.76,0,0,1-6.45-4.3c-6.72-13.94-13.6-27.8-20.4-41.74C167.69,113.08,167.35,112.39,166.75,111Z"/></g></g></svg>