<svg width="256" height="256" viewBox="0 0 256 256" fill="none" xmlns="http://www.w3.org/2000/svg">
<path d="M128 256C198.692 256 256 198.692 256 128C256 57.3076 198.692 0 128 0C57.3076 0 0 57.3076 0 128C0 198.692 57.3076 256 128 256Z" fill="#ECEFF0"/>
<path d="M127.983 37.3335L126.818 41.2999V156.397L127.983 157.562L181.3 125.981L127.983 37.3335Z" fill="#333333"/>
<path d="M127.984 37.3335L74.6667 125.981L127.984 157.562V101.698V37.3335Z" fill="#8C8C8C"/>
<path d="M127.984 174.945L127.328 175.746V216.746L127.984 218.666L181.335 143.38L127.984 174.945Z" fill="#333333"/>
<path d="M127.984 218.667V174.945L74.6667 143.38L127.984 218.667Z" fill="#8C8C8C"/>
<path d="M127.984 157.562L181.302 125.982L127.984 101.698V157.562Z" fill="#141414"/>
<path d="M74.6667 125.981L127.983 157.562V101.698L74.6667 125.981Z" fill="#383838"/>
</svg>
