<svg width="58" height="75" viewBox="0 0 58 75" fill="none" xmlns="http://www.w3.org/2000/svg">
<path d="M47.3543 10.9714C44.7394 7.28911 41.8214 3.83205 38.6311 0.636279C38.3605 0.313547 37.9844 0.0972516 37.5695 0.025809C37.1546 -0.0456336 36.7279 0.0323534 36.365 0.245994C36.0022 0.459634 35.7267 0.795083 35.5875 1.19275C35.4484 1.59042 35.4544 2.02461 35.6048 2.4182C36.4611 6.28265 36.938 10.2216 37.0289 14.1789C37.0289 21.6629 32.0443 27.7215 24.7453 27.7215C22.1335 27.7526 19.5744 26.9842 17.4109 25.5193C15.2474 24.0544 13.5827 21.9628 12.6397 19.5246C12.2377 18.9245 11.937 18.2623 11.7496 17.5646C11.6625 17.2322 11.4812 16.932 11.2276 16.7004C10.974 16.4688 10.6589 16.3154 10.3203 16.2589C9.9816 16.2025 9.63382 16.2452 9.31887 16.382C9.00392 16.5188 8.73522 16.7438 8.54512 17.0299L6.76488 19.881C2.33046 27.5751 -0.00263845 36.3018 2.23913e-06 45.1844C0.0466971 52.826 3.10013 60.1414 8.49856 65.5449C13.897 70.9484 21.2054 74.0048 28.8398 74.0515C36.5051 74.0517 43.8591 71.016 49.2959 65.6074C54.7327 60.1989 57.8107 52.8568 57.8577 45.1844C57.8458 32.9865 54.1878 21.0711 47.3543 10.9714V10.9714ZM27.7717 63.1818C26.2606 63.2054 24.7598 62.9279 23.3569 62.3654C21.9539 61.8028 20.6769 60.9666 19.5999 59.9052C18.523 58.8439 17.6678 57.5787 17.0842 56.1833C16.5005 54.7879 16.2 53.2902 16.2002 51.7775C16.2002 46.0753 19.9386 41.7987 26.3475 40.5514C31.753 39.6025 36.799 37.2003 40.9455 33.6019C41.1471 33.3502 41.4198 33.1651 41.7281 33.071C42.0364 32.9769 42.3658 32.978 42.6734 33.0742C42.9811 33.1704 43.2526 33.3573 43.4525 33.6104C43.6523 33.8635 43.7713 34.171 43.7939 34.4928C44.7155 38.2249 45.1935 42.0528 45.218 45.8971C45.2182 48.1821 44.7657 50.4443 43.8868 52.5531C43.0078 54.6619 41.7199 56.5753 40.0975 58.1827C38.475 59.79 36.5504 61.0595 34.4347 61.9176C32.319 62.7757 30.0544 63.2053 27.7717 63.1818V63.1818Z" fill="#00FFB0"/>
</svg>
