<svg width="92" height="93" viewBox="0 0 92 93" fill="none" xmlns="http://www.w3.org/2000/svg">
<path d="M76.9594 0.180908H35.29V57.2751H91.4378V14.9498C91.4378 11.0328 89.9124 7.2763 87.1972 4.5066C84.482 1.7369 80.7993 0.180908 76.9594 0.180908Z" fill="#142533"/>
<path d="M22.4011 0.180908H15.1619C11.322 0.180908 7.63942 1.7369 4.9242 4.5066C2.20899 7.2763 0.683594 11.0328 0.683594 14.9498V22.3342H22.4011V0.180908Z" fill="#142533"/>
<path d="M0.683594 35.481H22.4011V57.6342H0.683594V35.481Z" fill="#142533"/>
<path d="M69.8965 92.7586H77.1357C80.9755 92.7586 84.6582 91.2026 87.3734 88.4329C90.0886 85.6632 91.614 81.9067 91.614 77.9897V70.7854H69.8965V92.7586Z" fill="#142533"/>
<path d="M35.29 70.7854H57.0076V92.9387H35.29V70.7854Z" fill="#142533"/>
<path d="M0.683594 70.7854V78.1698C0.683594 82.0868 2.20899 85.8433 4.9242 88.613C7.63942 91.3827 11.322 92.9387 15.1619 92.9387H22.4011V70.7854H0.683594Z" fill="#142533"/>
</svg>
