<svg id="svg" version="1.1" xmlns="http://www.w3.org/2000/svg" xmlns:xlink="http://www.w3.org/1999/xlink" width="400" height="368.63691194209895" viewBox="0, 0, 400,368.63691194209895"><g id="svgg"><path id="path0" d="M108.009 65.378 C 106.443 67.120,106.902 66.044,94.222 97.679 C 87.807 113.684,77.456 139.481,71.220 155.006 C 55.710 193.619,56.613 191.362,50.904 205.790 C 43.875 223.557,39.929 233.629,37.154 240.893 C 36.342 243.016,35.261 245.838,34.751 247.165 C 32.992 251.740,32.617 252.729,31.050 256.936 C 27.783 265.705,27.028 267.789,25.597 271.984 C 23.664 277.649,23.643 277.385,26.116 278.607 C 28.162 279.619,31.115 280.825,35.344 282.377 C 36.671 282.864,38.299 283.465,38.963 283.713 C 43.784 285.512,54.681 289.197,64.656 292.400 C 68.040 293.486,71.405 294.572,72.135 294.813 C 73.654 295.314,78.551 296.827,82.268 297.943 C 83.661 298.362,85.072 298.801,85.404 298.920 C 85.736 299.039,87.581 299.581,89.505 300.126 C 91.429 300.670,93.329 301.218,93.727 301.343 C 96.896 302.341,104.639 304.352,108.037 305.060 C 111.212 305.722,111.173 305.736,113.204 303.197 C 115.752 300.012,121.120 293.237,123.670 289.988 C 125.886 287.165,130.858 280.866,138.239 271.532 C 148.843 258.121,151.018 255.366,156.427 248.492 C 159.611 244.445,163.409 239.614,164.865 237.756 C 166.321 235.899,167.956 233.815,168.497 233.126 C 171.445 229.372,170.290 233.848,161.853 258.866 C 146.917 303.156,142.717 316.817,143.822 317.517 C 144.193 317.752,161.964 323.664,171.291 326.654 C 174.674 327.739,178.040 328.827,178.770 329.072 C 179.499 329.316,181.888 330.074,184.077 330.755 C 186.267 331.437,188.329 332.090,188.661 332.207 C 188.993 332.325,191.055 332.976,193.245 333.655 C 195.434 334.334,197.497 334.984,197.829 335.099 C 198.693 335.399,205.581 337.524,210.253 338.933 C 214.293 340.152,220.991 342.017,223.160 342.529 C 231.779 344.560,231.615 344.617,236.922 337.711 C 240.747 332.733,241.504 331.743,245.839 326.055 C 246.951 324.596,248.689 322.316,249.700 320.989 C 253.784 315.630,260.228 307.140,264.808 301.086 C 271.448 292.308,275.724 286.654,279.497 281.665 C 285.900 273.196,328.003 217.082,331.630 212.183 C 337.982 203.602,340.551 200.124,342.472 197.501 C 343.527 196.061,345.043 193.998,345.840 192.918 C 349.183 188.383,352.801 183.391,358.538 175.392 C 368.879 160.973,374.894 151.653,374.508 150.646 C 374.210 149.872,368.521 147.216,361.821 144.724 C 360.793 144.342,359.056 143.693,357.961 143.283 C 352.120 141.095,347.903 139.669,326.659 132.694 C 318.498 130.015,310.906 127.513,309.786 127.133 C 308.667 126.754,307.671 126.494,307.572 126.555 C 306.911 126.964,297.271 139.182,287.315 152.232 C 277.566 165.009,272.043 172.314,249.414 202.352 C 236.980 218.859,237.012 218.818,236.629 218.818 C 236.104 218.818,236.822 216.711,238.971 211.942 C 239.150 211.544,241.680 205.844,244.592 199.276 C 247.505 192.708,250.159 186.737,250.490 186.007 C 250.821 185.277,251.321 184.165,251.601 183.534 C 251.882 182.904,252.340 181.873,252.621 181.242 C 252.901 180.612,253.401 179.499,253.733 178.770 C 254.065 178.040,255.180 175.543,256.212 173.221 C 257.244 170.899,258.384 168.347,258.745 167.551 C 259.106 166.755,259.545 165.778,259.721 165.380 C 259.897 164.982,260.482 163.695,261.022 162.521 C 261.561 161.347,262.002 160.353,262.002 160.312 C 262.002 160.271,262.475 159.223,263.053 157.984 C 263.631 156.744,264.675 154.427,265.374 152.835 C 266.073 151.242,266.838 149.505,267.074 148.975 C 267.310 148.444,267.962 146.924,268.522 145.597 C 269.083 144.270,269.735 142.750,269.972 142.220 C 272.519 136.501,277.146 124.022,277.584 121.689 C 278.026 119.332,274.488 117.105,264.777 113.625 C 256.298 110.587,253.468 109.635,230.398 102.056 C 222.636 99.506,214.039 96.670,211.293 95.755 C 208.548 94.839,206.089 94.089,205.828 94.089 C 205.256 94.089,199.168 101.635,189.431 114.415 C 188.344 115.841,186.607 118.121,185.570 119.481 C 181.007 125.468,175.263 133.087,164.878 146.924 C 152.177 163.848,148.214 169.045,141.883 177.081 C 135.972 184.582,134.889 185.364,136.938 180.651 C 140.119 173.333,141.508 170.177,142.756 167.431 C 143.088 166.701,143.990 164.681,144.761 162.943 C 145.531 161.205,146.605 158.833,147.146 157.672 C 147.687 156.511,148.130 155.527,148.130 155.486 C 148.130 155.445,148.499 154.614,148.950 153.640 C 149.400 152.666,150.052 151.245,150.397 150.483 C 150.743 149.720,151.297 148.498,151.628 147.768 C 151.960 147.039,152.503 145.844,152.835 145.115 C 153.166 144.385,153.709 143.191,154.041 142.461 C 154.373 141.731,154.903 140.564,155.219 139.867 C 155.536 139.171,156.145 137.841,156.574 136.912 C 157.002 135.983,157.980 133.812,158.745 132.087 C 159.511 130.362,160.476 128.215,160.889 127.316 C 161.302 126.417,161.641 125.640,161.641 125.588 C 161.641 125.537,162.009 124.699,162.458 123.725 C 162.908 122.751,163.844 120.651,164.538 119.059 C 165.232 117.467,166.058 115.591,166.374 114.890 C 166.690 114.190,166.948 113.568,166.948 113.509 C 166.948 113.450,167.274 112.691,167.672 111.821 C 168.070 110.952,168.396 110.193,168.396 110.134 C 168.396 110.075,168.657 109.453,168.976 108.753 C 172.647 100.689,177.378 87.859,176.937 87.160 C 176.261 86.088,169.136 83.025,157.780 78.924 C 155.240 78.007,144.255 74.342,141.074 73.351 C 139.780 72.947,137.663 72.282,136.369 71.872 C 135.075 71.462,133.338 70.919,132.509 70.666 C 131.680 70.412,130.296 69.988,129.433 69.723 C 125.807 68.607,124.482 68.203,122.195 67.514 C 120.869 67.115,119.457 66.698,119.059 66.588 C 118.661 66.478,117.413 66.113,116.285 65.778 C 109.601 63.790,109.444 63.782,108.009 65.378 " stroke="none" fill="#fcfbfb" fill-rule="evenodd"></path><path id="path1" d="M0.000 184.318 L 0.000 368.637 200.000 368.637 L 400.000 368.637 400.000 184.318 L 400.000 0.000 200.000 0.000 L 0.000 0.000 0.000 184.318 M113.899 64.671 C 136.865 71.154,165.133 80.670,174.065 84.924 C 176.737 86.196,177.322 86.695,177.322 87.700 C 177.322 90.533,168.446 111.796,154.161 143.185 C 139.170 176.125,135.662 184.215,137.230 182.229 C 137.453 181.947,138.675 180.428,139.946 178.855 C 145.298 172.228,151.414 164.225,167.582 142.691 C 174.751 133.143,181.774 123.812,183.191 121.954 C 184.607 120.097,187.204 116.690,188.962 114.385 C 198.818 101.462,204.991 93.747,205.551 93.653 C 205.794 93.612,214.769 96.469,225.494 100.002 C 236.219 103.536,246.840 107.030,249.095 107.768 C 271.056 114.953,278.469 118.410,278.077 121.285 C 277.604 124.754,270.663 142.276,263.812 157.298 C 262.551 160.062,259.697 166.419,255.851 175.030 C 255.022 176.888,253.177 181.013,251.752 184.198 C 243.245 203.210,238.134 214.772,237.353 216.767 L 236.881 217.973 237.378 217.486 C 237.651 217.217,241.024 212.820,244.874 207.715 C 272.856 170.608,277.622 164.299,285.643 153.762 C 290.574 147.283,298.973 136.399,300.704 134.243 C 301.776 132.907,303.631 130.602,304.825 129.119 C 306.019 127.637,307.228 126.359,307.510 126.281 C 308.002 126.145,341.895 137.134,352.121 140.745 C 366.853 145.948,374.910 149.475,374.910 150.722 C 374.910 152.319,370.364 159.402,359.463 174.789 C 357.808 177.126,346.075 193.297,344.125 195.928 C 343.475 196.806,341.043 200.108,338.721 203.266 C 333.663 210.146,281.291 279.972,270.756 293.882 C 236.406 339.236,233.421 343.102,232.302 343.681 C 229.942 344.901,223.671 343.514,203.826 337.385 C 176.238 328.863,143.365 318.061,143.173 317.453 C 142.691 315.935,147.401 300.635,159.056 265.862 C 166.347 244.108,169.163 235.324,169.498 233.293 C 169.670 232.253,169.860 232.051,165.862 237.147 C 164.270 239.178,161.930 242.153,160.662 243.761 C 159.394 245.368,156.090 249.560,153.321 253.076 C 147.880 259.984,145.303 263.247,139.324 270.799 C 137.201 273.481,133.727 277.878,131.604 280.570 C 116.640 299.547,112.261 305.047,111.735 305.520 C 110.378 306.743,95.121 302.622,64.294 292.709 C 38.339 284.362,23.643 278.730,23.643 277.131 C 23.643 275.857,29.227 260.313,35.707 243.546 C 36.527 241.423,37.612 238.601,38.116 237.274 C 39.125 234.621,41.997 227.247,44.506 220.869 C 45.393 218.613,46.480 215.844,46.922 214.717 C 48.242 211.345,56.122 191.508,57.894 187.093 C 58.800 184.837,63.507 173.112,68.354 161.037 C 73.202 148.963,78.481 135.826,80.085 131.846 C 81.690 127.865,88.114 111.852,94.361 96.261 C 108.863 60.066,107.186 62.776,113.899 64.671 " stroke="none" fill="#fc0404" fill-rule="evenodd"></path><path id="path2" d="M109.132 63.876 C 108.980 63.973,109.523 64.062,110.339 64.073 C 111.328 64.086,111.621 64.034,111.218 63.916 C 110.405 63.678,109.470 63.660,109.132 63.876 M112.304 64.415 C 112.569 64.529,112.949 64.622,113.148 64.622 C 113.376 64.622,113.332 64.546,113.028 64.415 C 112.762 64.301,112.382 64.208,112.183 64.208 C 111.955 64.208,112.000 64.284,112.304 64.415 M113.993 64.897 C 114.258 65.012,114.638 65.105,114.837 65.105 C 115.065 65.105,115.021 65.028,114.717 64.897 C 114.451 64.783,114.071 64.690,113.872 64.690 C 113.644 64.690,113.689 64.767,113.993 64.897 M115.682 65.380 C 115.947 65.494,116.327 65.587,116.526 65.587 C 116.754 65.587,116.709 65.511,116.405 65.380 C 116.140 65.266,115.760 65.173,115.561 65.173 C 115.333 65.173,115.377 65.249,115.682 65.380 M106.932 66.043 C 106.307 66.945,106.104 67.310,106.226 67.310 C 106.283 67.310,106.617 66.876,106.968 66.345 C 107.682 65.266,107.650 65.005,106.932 66.043 M117.370 65.862 C 117.636 65.977,118.016 66.070,118.215 66.070 C 118.443 66.070,118.398 65.993,118.094 65.862 C 117.829 65.748,117.449 65.655,117.250 65.655 C 117.022 65.655,117.066 65.732,117.370 65.862 M118.938 66.334 C 119.138 66.469,119.508 66.581,119.763 66.583 C 120.380 66.587,120.187 66.449,119.300 66.251 C 118.772 66.133,118.674 66.155,118.938 66.334 M105.812 67.758 C 105.545 68.189,105.166 69.350,105.367 69.119 C 105.634 68.814,106.176 67.551,106.040 67.551 C 105.985 67.551,105.882 67.644,105.812 67.758 M123.764 67.781 C 123.963 67.916,124.334 68.028,124.588 68.030 C 125.205 68.035,125.013 67.897,124.125 67.699 C 123.597 67.580,123.499 67.603,123.764 67.781 M127.021 68.758 C 127.286 68.872,127.666 68.965,127.865 68.965 C 128.093 68.965,128.048 68.888,127.744 68.758 C 127.479 68.644,127.099 68.550,126.900 68.550 C 126.672 68.550,126.716 68.627,127.021 68.758 M99.414 83.677 C 96.306 91.460,93.609 98.209,93.421 98.673 C 93.233 99.138,93.182 99.409,93.308 99.276 C 93.598 98.970,105.276 69.731,105.156 69.612 C 105.107 69.564,102.523 75.893,99.414 83.677 M130.157 69.723 C 130.422 69.837,130.802 69.930,131.001 69.930 C 131.229 69.930,131.185 69.853,130.881 69.723 C 130.615 69.609,130.235 69.515,130.036 69.515 C 129.808 69.515,129.853 69.592,130.157 69.723 M137.877 72.135 C 138.142 72.249,138.522 72.342,138.721 72.342 C 138.949 72.342,138.905 72.266,138.601 72.135 C 138.335 72.021,137.955 71.928,137.756 71.928 C 137.528 71.928,137.573 72.004,137.877 72.135 M142.461 73.583 C 142.726 73.697,143.106 73.790,143.305 73.790 C 143.533 73.790,143.489 73.713,143.185 73.583 C 142.919 73.469,142.539 73.375,142.340 73.375 C 142.112 73.375,142.157 73.452,142.461 73.583 M155.609 77.885 C 155.808 78.007,156.242 78.181,156.574 78.269 C 156.993 78.382,157.067 78.363,156.815 78.207 C 156.616 78.084,156.182 77.911,155.850 77.822 C 155.431 77.710,155.358 77.729,155.609 77.885 M164.174 81.044 C 164.704 81.299,165.302 81.512,165.501 81.517 C 165.914 81.526,164.679 80.957,163.796 80.731 C 163.473 80.648,163.643 80.789,164.174 81.044 M171.773 84.077 C 172.105 84.267,172.485 84.422,172.618 84.422 C 172.750 84.422,172.587 84.267,172.256 84.077 C 171.924 83.888,171.544 83.732,171.411 83.732 C 171.279 83.732,171.441 83.888,171.773 84.077 M173.032 84.572 C 173.262 84.802,175.633 85.886,175.633 85.761 C 175.633 85.634,174.420 84.999,173.529 84.660 C 173.166 84.522,172.942 84.482,173.032 84.572 M176.417 86.376 C 176.934 86.778,177.090 87.114,177.121 87.897 L 177.162 88.902 177.258 87.981 C 177.359 87.007,177.089 86.502,176.256 86.101 C 175.942 85.950,176.002 86.053,176.417 86.376 M202.261 97.288 C 200.652 99.310,198.878 101.535,198.320 102.232 C 197.762 102.928,197.359 103.498,197.424 103.498 C 197.490 103.498,199.256 101.354,201.350 98.733 C 203.444 96.113,205.272 93.889,205.413 93.791 C 205.570 93.683,205.575 93.614,205.428 93.613 C 205.296 93.612,203.870 95.266,202.261 97.288 M206.152 93.848 C 206.417 93.962,206.797 94.055,206.996 94.055 C 207.224 94.055,207.180 93.979,206.876 93.848 C 206.610 93.734,206.230 93.641,206.031 93.641 C 205.803 93.641,205.848 93.717,206.152 93.848 M173.631 97.998 C 172.880 99.878,172.305 101.456,172.352 101.504 C 172.400 101.551,173.054 100.052,173.806 98.172 C 174.558 96.293,175.133 94.715,175.085 94.666 C 175.036 94.618,174.382 96.117,173.631 97.998 M171.693 102.815 C 171.475 103.370,171.335 103.865,171.384 103.913 C 171.432 103.961,171.653 103.548,171.874 102.996 C 172.095 102.443,172.234 101.949,172.183 101.897 C 172.132 101.846,171.911 102.259,171.693 102.815 M194.055 107.729 C 192.880 109.259,191.875 110.643,191.822 110.805 C 191.769 110.966,192.559 110.012,193.578 108.685 C 196.097 105.405,196.432 104.946,196.303 104.946 C 196.242 104.946,195.230 106.198,194.055 107.729 M170.205 106.310 C 170.003 106.794,169.893 107.247,169.961 107.315 C 170.029 107.383,170.084 107.380,170.084 107.307 C 170.084 107.235,170.249 106.783,170.450 106.302 C 170.650 105.821,170.760 105.428,170.694 105.428 C 170.628 105.428,170.408 105.825,170.205 106.310 M168.275 110.893 C 168.073 111.378,167.963 111.831,168.031 111.899 C 168.099 111.967,168.154 111.963,168.154 111.891 C 168.154 111.819,168.319 111.367,168.520 110.886 C 168.720 110.405,168.830 110.012,168.764 110.012 C 168.698 110.012,168.478 110.409,168.275 110.893 M255.971 110.213 C 256.170 110.336,256.604 110.509,256.936 110.598 C 257.355 110.710,257.429 110.691,257.177 110.535 C 256.978 110.412,256.544 110.239,256.212 110.150 C 255.793 110.038,255.720 110.057,255.971 110.213 M190.697 112.104 C 190.325 112.591,190.144 112.914,190.295 112.820 C 190.604 112.630,191.648 111.218,191.481 111.218 C 191.421 111.218,191.068 111.617,190.697 112.104 M188.782 114.596 C 188.169 115.392,187.722 116.043,187.788 116.043 C 187.855 116.043,188.410 115.392,189.023 114.596 C 189.636 113.800,190.082 113.148,190.016 113.148 C 189.950 113.148,189.394 113.800,188.782 114.596 M166.828 114.271 C 166.625 114.756,166.515 115.208,166.583 115.276 C 166.651 115.344,166.707 115.341,166.707 115.269 C 166.707 115.196,166.871 114.744,167.072 114.263 C 167.273 113.783,167.383 113.390,167.316 113.390 C 167.250 113.390,167.030 113.786,166.828 114.271 M265.983 113.855 C 266.514 114.110,267.111 114.323,267.310 114.327 C 267.724 114.337,266.489 113.768,265.606 113.541 C 265.282 113.458,265.452 113.600,265.983 113.855 M270.205 115.434 C 270.205 115.625,271.954 116.305,272.092 116.167 C 272.160 116.099,272.156 116.043,272.084 116.043 C 272.012 116.043,271.560 115.879,271.079 115.678 C 270.598 115.477,270.205 115.367,270.205 115.434 M165.863 116.442 C 165.660 116.927,165.550 117.379,165.618 117.448 C 165.686 117.516,165.742 117.512,165.742 117.440 C 165.742 117.368,165.906 116.915,166.107 116.435 C 166.308 115.954,166.418 115.561,166.351 115.561 C 166.285 115.561,166.065 115.958,165.863 116.442 M186.519 117.574 C 185.972 118.282,185.525 118.942,185.525 119.040 C 185.525 119.137,185.919 118.693,186.402 118.052 C 186.884 117.412,187.386 116.752,187.517 116.586 C 187.648 116.420,187.701 116.285,187.634 116.285 C 187.568 116.285,187.066 116.865,186.519 117.574 M277.299 119.344 C 277.552 119.646,277.838 120.302,277.935 120.803 L 278.111 121.713 278.139 120.933 C 278.158 120.382,277.971 119.952,277.503 119.473 C 277.138 119.100,277.046 119.042,277.299 119.344 M164.415 119.820 C 164.212 120.305,164.102 120.757,164.171 120.825 C 164.239 120.893,164.294 120.890,164.294 120.818 C 164.294 120.745,164.459 120.293,164.659 119.812 C 164.860 119.332,164.970 118.938,164.904 118.938 C 164.838 118.938,164.618 119.335,164.415 119.820 M184.424 120.307 C 184.052 120.794,183.872 121.116,184.022 121.023 C 184.331 120.832,185.375 119.421,185.208 119.421 C 185.148 119.421,184.795 119.820,184.424 120.307 M163.450 121.991 C 163.247 122.476,163.137 122.928,163.206 122.996 C 163.274 123.065,163.329 123.061,163.329 122.989 C 163.329 122.917,163.494 122.464,163.694 121.984 C 163.895 121.503,164.005 121.110,163.939 121.110 C 163.873 121.110,163.653 121.506,163.450 121.991 M182.976 122.237 C 182.605 122.724,182.424 123.046,182.575 122.953 C 182.884 122.762,183.928 121.351,183.760 121.351 C 183.701 121.351,183.348 121.750,182.976 122.237 M277.593 122.446 C 277.510 122.662,277.452 123.019,277.463 123.240 C 277.475 123.462,277.580 123.323,277.697 122.931 C 277.924 122.170,277.844 121.793,277.593 122.446 M162.485 124.162 C 162.282 124.647,162.172 125.100,162.241 125.168 C 162.309 125.236,162.364 125.232,162.364 125.160 C 162.364 125.088,162.529 124.636,162.729 124.155 C 162.930 123.674,163.040 123.281,162.974 123.281 C 162.908 123.281,162.688 123.678,162.485 124.162 M179.622 126.659 C 178.212 128.516,177.114 130.036,177.183 130.036 C 177.251 130.036,178.315 128.710,179.546 127.089 C 182.405 123.326,182.438 123.281,182.301 123.281 C 182.239 123.281,181.033 124.801,179.622 126.659 M161.438 126.548 C 161.034 127.435,161.111 127.625,161.548 126.818 C 161.753 126.442,161.874 126.088,161.819 126.033 C 161.764 125.978,161.593 126.210,161.438 126.548 M81.936 127.136 C 81.392 128.497,81.476 128.699,82.049 127.408 C 82.307 126.824,82.476 126.304,82.424 126.252 C 82.371 126.199,82.152 126.597,81.936 127.136 M307.223 126.361 C 306.848 126.621,303.739 130.437,303.739 130.637 C 303.739 130.731,304.428 129.956,305.269 128.914 C 307.056 126.703,307.278 126.501,308.082 126.353 L 308.685 126.242 308.082 126.213 C 307.750 126.197,307.364 126.263,307.223 126.361 M160.555 128.505 C 160.352 128.990,160.242 129.442,160.310 129.510 C 160.379 129.578,160.434 129.575,160.434 129.503 C 160.434 129.430,160.599 128.978,160.799 128.497 C 161.000 128.017,161.110 127.624,161.044 127.624 C 160.978 127.624,160.758 128.020,160.555 128.505 M80.971 129.549 C 80.427 130.909,80.511 131.112,81.084 129.820 C 81.342 129.237,81.511 128.717,81.459 128.664 C 81.406 128.612,81.187 129.010,80.971 129.549 M274.707 130.945 C 274.354 131.845,274.071 132.687,274.078 132.817 C 274.084 132.946,274.414 132.251,274.811 131.272 C 275.207 130.293,275.490 129.451,275.440 129.401 C 275.390 129.351,275.060 130.046,274.707 130.945 M159.508 130.891 C 159.104 131.778,159.181 131.967,159.618 131.161 C 159.823 130.784,159.944 130.431,159.889 130.376 C 159.834 130.321,159.663 130.552,159.508 130.891 M176.221 131.163 C 175.850 131.650,175.669 131.973,175.820 131.880 C 176.128 131.689,177.173 130.277,177.005 130.277 C 176.946 130.277,176.593 130.676,176.221 131.163 M320.627 130.508 C 320.826 130.642,321.197 130.754,321.452 130.756 C 322.069 130.761,321.876 130.623,320.989 130.425 C 320.461 130.306,320.363 130.329,320.627 130.508 M80.006 131.961 C 79.462 133.322,79.546 133.524,80.119 132.233 C 80.377 131.649,80.546 131.129,80.494 131.077 C 80.441 131.024,80.222 131.422,80.006 131.961 M301.799 132.871 C 300.961 133.899,300.116 134.931,299.920 135.163 C 299.724 135.395,299.622 135.585,299.694 135.585 C 299.766 135.585,300.461 134.801,301.239 133.843 C 303.421 131.157,303.540 131.001,303.428 131.001 C 303.369 131.001,302.637 131.843,301.799 132.871 M158.625 132.848 C 158.422 133.332,158.312 133.785,158.380 133.853 C 158.449 133.921,158.504 133.918,158.504 133.845 C 158.504 133.773,158.669 133.321,158.869 132.840 C 159.070 132.359,159.180 131.966,159.114 131.966 C 159.047 131.966,158.827 132.363,158.625 132.848 M174.774 133.093 C 174.402 133.580,174.221 133.903,174.372 133.810 C 174.681 133.619,175.725 132.207,175.558 132.207 C 175.498 132.207,175.145 132.606,174.774 133.093 M79.041 134.374 C 78.497 135.734,78.581 135.937,79.154 134.645 C 79.412 134.062,79.581 133.542,79.529 133.489 C 79.476 133.437,79.257 133.835,79.041 134.374 M173.326 135.023 C 172.955 135.510,172.774 135.833,172.924 135.740 C 173.233 135.549,174.278 134.138,174.110 134.138 C 174.051 134.138,173.698 134.536,173.326 135.023 M157.221 135.958 C 156.654 137.147,156.734 137.349,157.326 136.226 C 157.595 135.716,157.773 135.256,157.721 135.203 C 157.668 135.151,157.443 135.491,157.221 135.958 M78.076 136.786 C 77.532 138.147,77.616 138.349,78.189 137.058 C 78.447 136.474,78.616 135.954,78.564 135.902 C 78.511 135.849,78.292 136.247,78.076 136.786 M298.642 136.852 C 298.205 137.416,297.463 138.359,296.994 138.949 C 296.524 139.539,296.259 139.950,296.405 139.862 C 296.720 139.673,299.721 135.826,299.553 135.826 C 299.489 135.826,299.080 136.288,298.642 136.852 M156.212 138.155 C 156.010 138.640,155.900 139.092,155.968 139.160 C 156.036 139.229,156.092 139.225,156.092 139.153 C 156.092 139.081,156.256 138.628,156.457 138.148 C 156.658 137.667,156.768 137.274,156.701 137.274 C 156.635 137.274,156.415 137.670,156.212 138.155 M171.040 138.011 C 170.751 138.417,170.555 138.789,170.604 138.839 C 170.653 138.888,170.937 138.556,171.235 138.101 C 171.908 137.075,171.756 137.006,171.040 138.011 M74.099 146.717 C 72.228 151.391,70.735 155.255,70.783 155.302 C 70.831 155.350,72.401 151.564,74.272 146.890 C 76.144 142.215,77.636 138.352,77.589 138.304 C 77.541 138.257,75.971 142.042,74.099 146.717 M169.592 139.942 C 169.303 140.347,169.107 140.719,169.156 140.769 C 169.205 140.818,169.490 140.486,169.788 140.031 C 170.460 139.005,170.308 138.936,169.592 139.942 M271.050 140.085 C 270.847 140.570,270.737 141.022,270.805 141.091 C 270.873 141.159,270.929 141.155,270.929 141.083 C 270.929 141.011,271.093 140.558,271.294 140.078 C 271.495 139.597,271.605 139.204,271.538 139.204 C 271.472 139.204,271.252 139.601,271.050 140.085 M294.934 141.616 C 294.321 142.413,293.874 143.064,293.940 143.064 C 294.007 143.064,294.562 142.413,295.175 141.616 C 295.788 140.820,296.234 140.169,296.168 140.169 C 296.102 140.169,295.546 140.820,294.934 141.616 M154.808 141.266 C 154.241 142.454,154.321 142.656,154.914 141.533 C 155.183 141.023,155.360 140.563,155.308 140.511 C 155.256 140.459,155.031 140.798,154.808 141.266 M353.317 141.358 C 353.848 141.613,354.445 141.826,354.644 141.830 C 355.058 141.840,353.823 141.271,352.940 141.044 C 352.617 140.961,352.786 141.103,353.317 141.358 M168.145 141.872 C 167.856 142.277,167.660 142.649,167.709 142.699 C 167.758 142.748,168.042 142.416,168.340 141.961 C 169.013 140.935,168.861 140.866,168.145 141.872 M153.800 143.463 C 153.597 143.948,153.487 144.400,153.555 144.468 C 153.623 144.536,153.679 144.533,153.679 144.461 C 153.679 144.388,153.843 143.936,154.044 143.455 C 154.245 142.975,154.355 142.581,154.289 142.581 C 154.222 142.581,154.002 142.978,153.800 143.463 M358.625 143.288 C 359.156 143.543,359.753 143.756,359.952 143.760 C 360.365 143.770,359.131 143.201,358.247 142.974 C 357.924 142.892,358.094 143.033,358.625 143.288 M166.697 143.802 C 166.408 144.207,166.212 144.580,166.261 144.629 C 166.310 144.678,166.595 144.346,166.893 143.891 C 167.565 142.865,167.413 142.796,166.697 143.802 M268.790 145.509 C 268.504 146.196,268.310 146.798,268.359 146.847 C 268.407 146.896,268.681 146.373,268.967 145.686 C 269.252 144.998,269.446 144.396,269.398 144.347 C 269.349 144.299,269.075 144.821,268.790 145.509 M292.023 145.397 C 291.652 145.884,291.471 146.207,291.622 146.114 C 291.931 145.923,292.975 144.511,292.807 144.511 C 292.748 144.511,292.395 144.910,292.023 145.397 M362.867 144.850 C 363.073 145.048,367.277 146.675,367.363 146.590 C 367.412 146.541,366.469 146.107,365.268 145.627 C 363.229 144.810,362.623 144.614,362.867 144.850 M164.902 146.225 C 164.416 146.903,164.133 147.386,164.274 147.299 C 164.567 147.117,166.063 144.994,165.897 144.994 C 165.836 144.994,165.389 145.548,164.902 146.225 M152.395 146.573 C 151.829 147.762,151.908 147.964,152.501 146.841 C 152.770 146.331,152.948 145.871,152.895 145.819 C 152.843 145.766,152.618 146.106,152.395 146.573 M289.094 149.230 C 287.927 150.764,286.929 152.148,286.875 152.306 C 286.822 152.464,287.151 152.105,287.607 151.508 C 290.569 147.628,291.443 146.441,291.336 146.441 C 291.270 146.441,290.260 147.696,289.094 149.230 M368.878 147.279 C 368.878 147.470,370.627 148.150,370.765 148.013 C 370.833 147.945,370.830 147.889,370.757 147.889 C 370.685 147.889,370.233 147.725,369.752 147.524 C 369.271 147.323,368.878 147.213,368.878 147.279 M163.194 148.533 C 162.822 149.021,162.641 149.343,162.792 149.250 C 163.101 149.059,164.145 147.648,163.978 147.648 C 163.918 147.648,163.565 148.046,163.194 148.533 M267.590 148.261 C 267.186 149.148,267.263 149.338,267.700 148.531 C 267.905 148.155,268.026 147.801,267.971 147.746 C 267.916 147.691,267.745 147.923,267.590 148.261 M151.387 148.770 C 151.185 149.255,151.075 149.708,151.143 149.776 C 151.211 149.844,151.267 149.840,151.267 149.768 C 151.267 149.696,151.431 149.243,151.632 148.763 C 151.833 148.282,151.943 147.889,151.876 147.889 C 151.810 147.889,151.590 148.286,151.387 148.770 M371.176 148.319 C 371.560 148.649,372.781 149.118,372.633 148.880 C 372.559 148.759,372.147 148.538,371.719 148.389 C 371.290 148.239,371.046 148.208,371.176 148.319 M161.746 150.463 C 161.374 150.951,161.194 151.273,161.344 151.180 C 161.653 150.989,162.698 149.578,162.530 149.578 C 162.470 149.578,162.118 149.976,161.746 150.463 M149.983 151.881 C 149.416 153.069,149.496 153.272,150.088 152.149 C 150.358 151.638,150.535 151.178,150.483 151.126 C 150.431 151.074,150.206 151.414,149.983 151.881 M160.298 152.394 C 159.927 152.881,159.746 153.203,159.897 153.110 C 160.206 152.919,161.250 151.508,161.082 151.508 C 161.023 151.508,160.670 151.906,160.298 152.394 M265.259 153.596 C 265.057 154.080,264.947 154.533,265.015 154.601 C 265.083 154.669,265.139 154.665,265.139 154.593 C 265.139 154.521,265.303 154.069,265.504 153.588 C 265.705 153.107,265.815 152.714,265.748 152.714 C 265.682 152.714,265.462 153.111,265.259 153.596 M285.751 153.600 C 285.379 154.087,285.199 154.409,285.349 154.316 C 285.658 154.125,286.702 152.714,286.535 152.714 C 286.475 152.714,286.122 153.113,285.751 153.600 M148.975 154.078 C 148.772 154.563,148.662 155.015,148.730 155.083 C 148.798 155.151,148.854 155.148,148.854 155.076 C 148.854 155.003,149.018 154.551,149.219 154.070 C 149.420 153.590,149.530 153.197,149.464 153.197 C 149.397 153.197,149.177 153.593,148.975 154.078 M373.350 153.821 C 373.125 154.164,372.982 154.486,373.033 154.537 C 373.084 154.588,373.316 154.307,373.549 153.913 C 374.069 153.033,373.913 152.961,373.350 153.821 M158.851 154.324 C 158.479 154.811,158.299 155.133,158.449 155.040 C 158.758 154.849,159.803 153.438,159.635 153.438 C 159.575 153.438,159.223 153.836,158.851 154.324 M283.124 157.057 C 282.107 158.384,281.327 159.469,281.392 159.469 C 281.456 159.469,282.237 158.519,283.127 157.358 C 284.017 156.197,284.852 155.112,284.984 154.946 C 285.115 154.780,285.166 154.644,285.098 154.644 C 285.029 154.644,284.141 155.730,283.124 157.057 M157.086 156.657 C 156.539 157.366,156.092 158.025,156.092 158.123 C 156.092 158.220,156.486 157.776,156.969 157.135 C 157.451 156.495,157.953 155.835,158.084 155.669 C 158.215 155.504,158.268 155.368,158.201 155.368 C 158.135 155.368,157.633 155.948,157.086 156.657 M371.445 156.932 C 370.962 157.660,370.567 158.337,370.567 158.436 C 370.567 158.603,371.076 157.896,372.124 156.273 C 372.360 155.908,372.501 155.609,372.438 155.609 C 372.375 155.609,371.929 156.205,371.445 156.932 M263.855 156.706 C 263.288 157.895,263.368 158.097,263.961 156.974 C 264.230 156.464,264.407 156.003,264.355 155.951 C 264.303 155.899,264.078 156.239,263.855 156.706 M147.570 157.189 C 147.004 158.377,147.083 158.579,147.676 157.456 C 147.945 156.946,148.122 156.486,148.070 156.434 C 148.018 156.382,147.793 156.721,147.570 157.189 M262.847 158.903 C 262.644 159.388,262.534 159.840,262.602 159.908 C 262.670 159.976,262.726 159.973,262.726 159.901 C 262.726 159.829,262.890 159.376,263.091 158.896 C 263.292 158.415,263.402 158.022,263.336 158.022 C 263.269 158.022,263.049 158.418,262.847 158.903 M155.117 159.242 C 154.828 159.648,154.632 160.020,154.681 160.069 C 154.730 160.118,155.014 159.786,155.313 159.331 C 155.985 158.306,155.833 158.236,155.117 159.242 M146.481 159.600 C 146.076 160.487,146.154 160.677,146.591 159.870 C 146.795 159.493,146.917 159.140,146.861 159.085 C 146.806 159.030,146.635 159.262,146.481 159.600 M280.443 160.596 C 280.072 161.083,279.891 161.406,280.041 161.313 C 280.350 161.122,281.395 159.710,281.227 159.710 C 281.168 159.710,280.815 160.109,280.443 160.596 M153.543 161.320 C 153.172 161.807,152.991 162.129,153.142 162.036 C 153.450 161.846,154.495 160.434,154.327 160.434 C 154.268 160.434,153.915 160.833,153.543 161.320 M145.597 161.557 C 145.395 162.042,145.285 162.494,145.353 162.562 C 145.421 162.630,145.476 162.627,145.476 162.555 C 145.476 162.482,145.641 162.030,145.842 161.549 C 146.042 161.069,146.152 160.676,146.086 160.676 C 146.020 160.676,145.800 161.072,145.597 161.557 M367.608 162.786 C 366.291 164.607,364.196 167.828,364.587 167.431 C 365.023 166.987,368.667 161.641,368.533 161.641 C 368.480 161.641,368.064 162.156,367.608 162.786 M150.917 164.777 C 149.899 166.104,149.120 167.189,149.184 167.189 C 149.249 167.189,150.029 166.239,150.919 165.078 C 151.809 163.917,152.645 162.832,152.776 162.666 C 152.907 162.500,152.959 162.364,152.890 162.364 C 152.822 162.364,151.934 163.450,150.917 164.777 M144.632 163.728 C 144.430 164.213,144.320 164.665,144.388 164.733 C 144.456 164.802,144.511 164.798,144.511 164.726 C 144.511 164.654,144.676 164.201,144.877 163.721 C 145.077 163.240,145.187 162.847,145.121 162.847 C 145.055 162.847,144.835 163.243,144.632 163.728 M278.157 163.584 C 277.868 163.990,277.672 164.362,277.721 164.412 C 277.770 164.461,278.054 164.129,278.352 163.674 C 279.025 162.648,278.873 162.579,278.157 163.584 M260.353 164.425 C 259.949 165.312,260.026 165.502,260.463 164.695 C 260.667 164.319,260.789 163.965,260.734 163.910 C 260.678 163.855,260.507 164.087,260.353 164.425 M276.583 165.663 C 276.212 166.150,276.031 166.472,276.181 166.379 C 276.490 166.188,277.535 164.777,277.367 164.777 C 277.308 164.777,276.955 165.175,276.583 165.663 M259.512 166.356 C 258.946 167.545,259.025 167.747,259.618 166.624 C 259.887 166.114,260.065 165.654,260.012 165.601 C 259.960 165.549,259.735 165.889,259.512 166.356 M275.136 167.593 C 274.764 168.080,274.583 168.402,274.734 168.309 C 275.043 168.118,276.087 166.707,275.920 166.707 C 275.860 166.707,275.507 167.105,275.136 167.593 M258.504 168.553 C 258.302 169.038,258.192 169.490,258.260 169.559 C 258.328 169.627,258.384 169.623,258.384 169.551 C 258.384 169.479,258.548 169.026,258.749 168.546 C 258.950 168.065,259.060 167.672,258.993 167.672 C 258.927 167.672,258.707 168.069,258.504 168.553 M142.138 169.250 C 141.734 170.138,141.811 170.327,142.248 169.520 C 142.452 169.144,142.574 168.790,142.519 168.735 C 142.464 168.680,142.292 168.912,142.138 169.250 M144.788 172.720 C 143.044 174.965,141.616 176.874,141.616 176.961 C 141.616 177.049,142.989 175.347,144.666 173.180 C 146.343 171.013,147.822 169.104,147.952 168.938 C 148.083 168.773,148.138 168.637,148.075 168.637 C 148.012 168.637,146.533 170.474,144.788 172.720 M271.056 172.979 C 269.251 175.368,267.829 177.322,267.898 177.322 C 267.966 177.322,269.355 175.561,270.983 173.409 C 274.702 168.494,274.598 168.637,274.457 168.637 C 274.392 168.637,272.862 170.591,271.056 172.979 M363.281 169.059 C 362.729 169.701,360.883 172.497,361.013 172.497 C 361.075 172.497,361.725 171.628,362.456 170.567 C 363.756 168.680,364.013 168.211,363.281 169.059 M141.298 171.181 C 140.731 172.370,140.811 172.572,141.403 171.449 C 141.672 170.939,141.850 170.479,141.798 170.427 C 141.746 170.374,141.521 170.714,141.298 171.181 M257.458 170.939 C 257.054 171.826,257.131 172.016,257.568 171.209 C 257.772 170.832,257.894 170.479,257.839 170.424 C 257.783 170.369,257.612 170.601,257.458 170.939 M256.574 172.896 C 256.372 173.381,256.262 173.833,256.330 173.901 C 256.398 173.969,256.454 173.966,256.454 173.894 C 256.454 173.821,256.618 173.369,256.819 172.888 C 257.019 172.408,257.130 172.014,257.063 172.014 C 256.997 172.014,256.777 172.411,256.574 172.896 M360.388 173.160 C 359.831 173.809,358.467 175.875,358.595 175.875 C 358.657 175.875,359.201 175.169,359.804 174.306 C 360.880 172.768,361.106 172.323,360.388 173.160 M140.208 173.593 C 139.804 174.480,139.881 174.669,140.318 173.863 C 140.522 173.486,140.644 173.133,140.589 173.078 C 140.534 173.023,140.362 173.254,140.208 173.593 M138.842 176.756 C 138.639 177.241,138.529 177.693,138.598 177.761 C 138.666 177.829,138.721 177.826,138.721 177.754 C 138.721 177.681,138.886 177.229,139.086 176.748 C 139.287 176.268,139.397 175.875,139.331 175.875 C 139.265 175.875,139.045 176.271,138.842 176.756 M357.735 176.900 C 356.757 178.211,355.995 179.395,356.376 179.011 C 356.867 178.515,358.572 176.116,358.433 176.116 C 358.371 176.116,358.057 176.469,357.735 176.900 M254.644 177.238 C 254.442 177.723,254.332 178.176,254.400 178.244 C 254.468 178.312,254.524 178.308,254.524 178.236 C 254.524 178.164,254.688 177.712,254.889 177.231 C 255.089 176.750,255.199 176.357,255.133 176.357 C 255.067 176.357,254.847 176.754,254.644 177.238 M140.401 178.298 C 139.976 178.835,139.668 179.312,139.718 179.357 C 139.767 179.403,140.163 178.964,140.599 178.381 C 141.593 177.051,141.440 176.986,140.401 178.298 M266.933 178.449 C 266.561 178.936,266.381 179.259,266.531 179.165 C 266.840 178.975,267.885 177.563,267.717 177.563 C 267.657 177.563,267.305 177.962,266.933 178.449 M137.547 179.767 C 137.262 180.454,137.068 181.056,137.116 181.105 C 137.165 181.154,137.438 180.631,137.724 179.944 C 138.010 179.256,138.204 178.654,138.155 178.605 C 138.106 178.557,137.833 179.079,137.547 179.767 M253.240 180.349 C 252.673 181.537,252.753 181.740,253.345 180.617 C 253.614 180.106,253.792 179.646,253.740 179.594 C 253.688 179.542,253.463 179.882,253.240 180.349 M265.485 180.379 C 265.114 180.866,264.933 181.189,265.084 181.096 C 265.393 180.905,266.437 179.493,266.269 179.493 C 266.210 179.493,265.857 179.892,265.485 180.379 M355.566 179.916 C 354.993 180.590,354.118 181.906,354.243 181.906 C 354.306 181.906,354.748 181.363,355.224 180.700 C 356.083 179.505,356.259 179.101,355.566 179.916 M138.081 181.181 C 137.438 181.977,136.776 182.628,136.610 182.629 C 136.445 182.629,136.313 182.820,136.319 183.052 C 136.326 183.357,136.566 183.207,137.186 182.509 C 138.399 181.143,139.507 179.735,139.368 179.735 C 139.303 179.735,138.724 180.386,138.081 181.181 M252.150 182.761 C 251.746 183.648,251.823 183.837,252.260 183.031 C 252.464 182.654,252.586 182.301,252.531 182.245 C 252.476 182.190,252.304 182.422,252.150 182.761 M59.258 183.590 C 58.714 184.950,58.798 185.153,59.371 183.861 C 59.629 183.278,59.798 182.758,59.746 182.705 C 59.693 182.653,59.474 183.051,59.258 183.590 M263.199 183.367 C 262.910 183.773,262.714 184.145,262.763 184.194 C 262.812 184.244,263.096 183.912,263.395 183.457 C 264.067 182.431,263.915 182.362,263.199 183.367 M352.769 183.733 C 352.471 184.188,352.275 184.560,352.334 184.560 C 352.501 184.560,353.501 183.095,353.401 182.995 C 353.352 182.946,353.068 183.278,352.769 183.733 M251.310 184.692 C 250.743 185.880,250.823 186.082,251.415 184.959 C 251.684 184.449,251.862 183.989,251.810 183.937 C 251.758 183.885,251.533 184.224,251.310 184.692 M261.751 185.297 C 261.462 185.703,261.266 186.075,261.315 186.124 C 261.365 186.174,261.649 185.842,261.947 185.387 C 262.620 184.361,262.467 184.292,261.751 185.297 M351.819 185.103 C 350.772 186.470,350.221 187.286,350.427 187.161 C 350.712 186.989,352.314 184.801,352.156 184.801 C 352.097 184.801,351.946 184.937,351.819 185.103 M58.293 186.002 C 57.749 187.363,57.833 187.565,58.406 186.274 C 58.664 185.690,58.833 185.170,58.781 185.118 C 58.728 185.065,58.509 185.463,58.293 186.002 M250.302 186.889 C 250.099 187.373,249.989 187.826,250.057 187.894 C 250.125 187.962,250.181 187.959,250.181 187.886 C 250.181 187.814,250.345 187.362,250.546 186.881 C 250.747 186.400,250.857 186.007,250.791 186.007 C 250.724 186.007,250.504 186.404,250.302 186.889 M260.304 187.227 C 260.015 187.633,259.819 188.005,259.868 188.055 C 259.917 188.104,260.201 187.772,260.500 187.317 C 261.172 186.291,261.020 186.222,260.304 187.227 M57.328 188.415 C 56.784 189.775,56.868 189.978,57.441 188.686 C 57.699 188.103,57.868 187.583,57.816 187.530 C 57.763 187.478,57.544 187.876,57.328 188.415 M348.909 189.040 C 348.611 189.495,348.415 189.867,348.474 189.867 C 348.641 189.867,349.641 188.402,349.541 188.303 C 349.492 188.253,349.208 188.585,348.909 189.040 M258.730 189.305 C 258.359 189.793,258.178 190.115,258.329 190.022 C 258.637 189.831,259.682 188.420,259.514 188.420 C 259.455 188.420,259.102 188.818,258.730 189.305 M249.255 189.275 C 248.851 190.162,248.928 190.351,249.365 189.544 C 249.569 189.168,249.691 188.814,249.636 188.759 C 249.581 188.704,249.409 188.936,249.255 189.275 M56.363 190.827 C 55.819 192.188,55.903 192.390,56.476 191.099 C 56.734 190.515,56.903 189.995,56.851 189.943 C 56.798 189.890,56.579 190.288,56.363 190.827 M347.959 190.410 C 346.912 191.777,346.361 192.593,346.567 192.468 C 346.852 192.296,348.454 190.109,348.295 190.109 C 348.237 190.109,348.086 190.244,347.959 190.410 M248.372 191.231 C 248.169 191.716,248.059 192.168,248.127 192.236 C 248.195 192.305,248.251 192.301,248.251 192.229 C 248.251 192.157,248.415 191.704,248.616 191.224 C 248.817 190.743,248.927 190.350,248.861 190.350 C 248.794 190.350,248.574 190.746,248.372 191.231 M257.283 191.236 C 256.911 191.723,256.730 192.045,256.881 191.952 C 257.190 191.761,258.234 190.350,258.067 190.350 C 258.007 190.350,257.654 190.748,257.283 191.236 M255.835 193.166 C 255.464 193.653,255.283 193.975,255.434 193.882 C 255.742 193.691,256.787 192.280,256.619 192.280 C 256.560 192.280,256.207 192.678,255.835 193.166 M247.407 193.403 C 247.204 193.887,247.094 194.340,247.162 194.408 C 247.230 194.476,247.286 194.472,247.286 194.400 C 247.286 194.328,247.450 193.876,247.651 193.395 C 247.852 192.914,247.962 192.521,247.895 192.521 C 247.829 192.521,247.609 192.918,247.407 193.403 M345.916 193.185 C 345.343 193.859,344.468 195.175,344.593 195.175 C 344.656 195.175,345.097 194.632,345.574 193.969 C 346.432 192.774,346.608 192.370,345.916 193.185 M254.388 195.096 C 254.016 195.583,253.835 195.905,253.986 195.812 C 254.295 195.621,255.339 194.210,255.172 194.210 C 255.112 194.210,254.759 194.608,254.388 195.096 M246.442 195.574 C 246.239 196.059,246.129 196.511,246.197 196.579 C 246.265 196.647,246.321 196.644,246.321 196.571 C 246.321 196.499,246.485 196.047,246.686 195.566 C 246.887 195.086,246.997 194.692,246.930 194.692 C 246.864 194.692,246.644 195.089,246.442 195.574 M343.602 196.278 C 343.303 196.733,343.107 197.105,343.166 197.105 C 343.334 197.105,344.333 195.640,344.233 195.540 C 344.184 195.491,343.900 195.823,343.602 196.278 M252.940 197.026 C 252.569 197.513,252.388 197.835,252.538 197.742 C 252.847 197.551,253.892 196.140,253.724 196.140 C 253.665 196.140,253.312 196.538,252.940 197.026 M342.651 197.648 C 341.605 199.015,341.053 199.831,341.260 199.706 C 341.545 199.534,343.147 197.346,342.988 197.346 C 342.929 197.346,342.778 197.482,342.651 197.648 M248.130 203.378 C 245.936 206.297,244.196 208.685,244.262 208.685 C 244.328 208.685,246.178 206.297,248.372 203.378 C 250.566 200.458,252.306 198.070,252.240 198.070 C 252.174 198.070,250.324 200.458,248.130 203.378 M244.512 199.916 C 244.309 200.401,244.199 200.854,244.267 200.922 C 244.335 200.990,244.391 200.986,244.391 200.914 C 244.391 200.842,244.555 200.389,244.756 199.909 C 244.957 199.428,245.067 199.035,245.000 199.035 C 244.934 199.035,244.714 199.432,244.512 199.916 M340.618 200.422 C 339.924 201.260,339.630 201.689,339.749 201.689 C 339.816 201.689,340.160 201.309,340.514 200.844 C 341.172 199.983,341.251 199.657,340.618 200.422 M339.161 202.352 C 338.588 203.026,337.713 204.343,337.838 204.343 C 337.901 204.343,338.342 203.800,338.819 203.136 C 339.677 201.942,339.853 201.538,339.161 202.352 M242.581 204.259 C 242.379 204.744,242.269 205.196,242.337 205.264 C 242.405 205.332,242.461 205.329,242.461 205.257 C 242.461 205.184,242.625 204.732,242.826 204.251 C 243.027 203.771,243.137 203.378,243.070 203.378 C 243.004 203.378,242.784 203.774,242.581 204.259 M336.847 205.445 C 336.548 205.900,336.352 206.273,336.411 206.273 C 336.579 206.273,337.578 204.808,337.478 204.708 C 337.429 204.659,337.145 204.991,336.847 205.445 M335.793 206.936 C 335.099 207.774,334.804 208.203,334.924 208.203 C 334.991 208.203,335.335 207.823,335.689 207.358 C 336.347 206.496,336.426 206.171,335.793 206.936 M240.651 208.602 C 240.449 209.086,240.339 209.539,240.407 209.607 C 240.475 209.675,240.531 209.671,240.531 209.599 C 240.531 209.527,240.695 209.075,240.896 208.594 C 241.097 208.113,241.207 207.720,241.140 207.720 C 241.074 207.720,240.854 208.117,240.651 208.602 M333.640 209.831 C 333.070 210.594,332.338 211.571,332.015 212.002 C 331.691 212.434,331.481 212.786,331.547 212.786 C 331.613 212.786,332.134 212.162,332.705 211.399 C 333.275 210.636,334.007 209.659,334.330 209.228 C 334.654 208.797,334.864 208.444,334.798 208.444 C 334.732 208.444,334.211 209.068,333.640 209.831 M243.290 209.812 C 242.919 210.299,242.738 210.622,242.888 210.529 C 243.197 210.338,244.242 208.926,244.074 208.926 C 244.014 208.926,243.662 209.325,243.290 209.812 M47.939 212.112 C 47.305 213.713,46.826 215.061,46.874 215.109 C 46.922 215.157,47.481 213.888,48.116 212.290 C 48.751 210.691,49.230 209.343,49.181 209.293 C 49.131 209.244,48.572 210.512,47.939 212.112 M239.686 210.773 C 239.484 211.258,239.374 211.710,239.442 211.778 C 239.510 211.846,239.566 211.843,239.566 211.771 C 239.566 211.698,239.730 211.246,239.931 210.765 C 240.132 210.285,240.242 209.891,240.175 209.891 C 240.109 209.891,239.889 210.288,239.686 210.773 M241.525 212.145 C 240.978 212.854,240.531 213.514,240.531 213.611 C 240.531 213.709,240.926 213.264,241.408 212.624 C 241.891 211.984,242.392 211.324,242.523 211.158 C 242.654 210.992,242.707 210.856,242.640 210.856 C 242.574 210.856,242.072 211.436,241.525 212.145 M238.721 212.944 C 238.519 213.429,238.409 213.881,238.477 213.949 C 238.545 214.017,238.601 214.014,238.601 213.942 C 238.601 213.870,238.765 213.417,238.966 212.937 C 239.167 212.456,239.277 212.063,239.210 212.063 C 239.144 212.063,238.924 212.459,238.721 212.944 M330.968 213.450 C 330.273 214.288,329.979 214.717,330.099 214.717 C 330.165 214.717,330.510 214.337,330.864 213.872 C 331.522 213.010,331.601 212.685,330.968 213.450 M239.430 214.878 C 239.058 215.366,238.878 215.688,239.028 215.595 C 239.337 215.404,240.382 213.993,240.214 213.993 C 240.154 213.993,239.802 214.391,239.430 214.878 M329.511 215.380 C 328.937 216.054,328.063 217.370,328.188 217.370 C 328.251 217.370,328.692 216.828,329.169 216.164 C 330.027 214.969,330.203 214.566,329.511 215.380 M46.230 216.400 C 45.686 217.761,45.770 217.963,46.343 216.672 C 46.602 216.088,46.771 215.568,46.718 215.516 C 46.665 215.463,46.446 215.861,46.230 216.400 M237.906 216.828 C 237.267 217.569,237.146 217.634,237.238 217.189 C 237.304 216.867,237.252 216.706,237.110 216.794 C 236.978 216.876,236.922 217.140,236.985 217.382 C 237.050 217.631,236.948 217.880,236.749 217.956 C 236.554 218.031,236.477 218.216,236.574 218.374 C 236.747 218.653,237.199 218.208,238.388 216.586 C 239.086 215.634,238.818 215.769,237.906 216.828 M327.196 218.473 C 326.898 218.928,326.702 219.300,326.761 219.300 C 326.928 219.300,327.928 217.835,327.828 217.736 C 327.779 217.686,327.495 218.018,327.196 218.473 M325.749 220.403 C 325.451 220.858,325.255 221.230,325.313 221.230 C 325.481 221.230,326.480 219.765,326.381 219.666 C 326.331 219.616,326.047 219.948,325.749 220.403 M324.301 222.333 C 324.003 222.788,323.807 223.160,323.866 223.160 C 324.033 223.160,325.033 221.695,324.933 221.596 C 324.884 221.546,324.600 221.878,324.301 222.333 M322.854 224.263 C 322.556 224.718,322.359 225.090,322.418 225.090 C 322.586 225.090,323.585 223.625,323.485 223.526 C 323.436 223.476,323.152 223.808,322.854 224.263 M42.389 226.225 C 41.890 227.495,41.521 228.573,41.569 228.621 C 41.617 228.669,42.066 227.671,42.568 226.404 C 43.070 225.136,43.439 224.058,43.389 224.008 C 43.338 223.958,42.889 224.955,42.389 226.225 M321.800 225.754 C 321.106 226.592,320.812 227.021,320.931 227.021 C 320.998 227.021,321.342 226.641,321.697 226.176 C 322.354 225.314,322.434 224.989,321.800 225.754 M320.352 227.684 C 319.658 228.522,319.364 228.951,319.483 228.951 C 319.550 228.951,319.895 228.571,320.249 228.106 C 320.906 227.244,320.986 226.919,320.352 227.684 M318.905 229.614 C 318.211 230.452,317.917 230.881,318.036 230.881 C 318.103 230.881,318.447 230.501,318.801 230.036 C 319.459 229.174,319.538 228.849,318.905 229.614 M317.457 231.544 C 316.763 232.382,316.469 232.811,316.588 232.811 C 316.655 232.811,317.000 232.431,317.354 231.966 C 318.011 231.104,318.091 230.779,317.457 231.544 M167.909 234.258 C 164.916 238.039,164.490 238.601,164.611 238.601 C 164.675 238.601,165.678 237.379,166.841 235.887 C 169.651 232.277,169.702 232.228,169.516 233.293 C 169.402 233.948,169.426 234.041,169.621 233.709 C 169.760 233.474,169.840 232.985,169.798 232.624 C 169.729 232.020,169.574 232.153,167.909 234.258 M316.010 233.474 C 315.316 234.312,315.022 234.741,315.141 234.741 C 315.208 234.741,315.552 234.361,315.906 233.896 C 316.564 233.034,316.643 232.709,316.010 233.474 M38.770 235.513 C 38.405 236.453,38.146 237.262,38.194 237.310 C 38.243 237.358,38.583 236.631,38.951 235.694 C 39.318 234.756,39.577 233.948,39.526 233.896 C 39.474 233.845,39.134 234.572,38.770 235.513 M169.147 234.781 C 169.132 235.003,169.057 235.383,168.981 235.626 C 168.849 236.044,168.856 236.045,169.117 235.638 C 169.269 235.401,169.344 235.021,169.284 234.793 C 169.186 234.420,169.173 234.419,169.147 234.781 M314.562 235.404 C 313.868 236.242,313.574 236.671,313.693 236.671 C 313.760 236.671,314.105 236.291,314.459 235.826 C 315.116 234.964,315.196 234.639,314.562 235.404 M168.534 236.809 C 168.445 237.162,168.419 237.498,168.476 237.555 C 168.532 237.612,168.652 237.369,168.740 237.015 C 168.829 236.662,168.855 236.326,168.798 236.269 C 168.741 236.212,168.622 236.455,168.534 236.809 M313.115 237.334 C 312.421 238.172,312.127 238.601,312.246 238.601 C 312.313 238.601,312.657 238.221,313.011 237.756 C 313.669 236.895,313.748 236.569,313.115 237.334 M163.055 240.377 C 162.440 241.191,161.319 242.645,160.565 243.607 C 159.810 244.569,159.246 245.356,159.311 245.356 C 159.488 245.356,164.366 239.074,164.263 238.979 C 164.214 238.934,163.670 239.563,163.055 240.377 M311.667 239.264 C 310.973 240.102,310.679 240.531,310.798 240.531 C 310.865 240.531,311.210 240.151,311.564 239.686 C 312.221 238.825,312.301 238.499,311.667 239.264 M167.700 239.606 C 167.684 239.828,167.609 240.208,167.533 240.451 C 167.401 240.870,167.409 240.870,167.670 240.463 C 167.822 240.226,167.897 239.847,167.837 239.618 C 167.739 239.245,167.725 239.244,167.700 239.606 M36.357 241.785 C 35.992 242.726,35.734 243.534,35.782 243.582 C 35.830 243.631,36.170 242.903,36.538 241.966 C 36.906 241.029,37.165 240.220,37.113 240.169 C 37.062 240.118,36.722 240.845,36.357 241.785 M310.220 241.194 C 309.526 242.032,309.231 242.461,309.351 242.461 C 309.418 242.461,309.762 242.081,310.116 241.616 C 310.774 240.755,310.853 240.429,310.220 241.194 M308.772 243.124 C 308.078 243.962,307.784 244.391,307.903 244.391 C 307.970 244.391,308.315 244.011,308.669 243.546 C 309.326 242.685,309.406 242.359,308.772 243.124 M307.325 245.054 C 306.631 245.892,306.336 246.321,306.456 246.321 C 306.523 246.321,306.867 245.941,307.221 245.476 C 307.879 244.615,307.958 244.289,307.325 245.054 M156.815 248.307 C 154.433 251.372,153.514 252.647,154.507 251.508 C 155.759 250.072,159.044 245.815,158.956 245.743 C 158.907 245.702,157.943 246.856,156.815 248.307 M33.945 248.058 C 33.580 248.998,33.321 249.807,33.369 249.855 C 33.418 249.903,33.758 249.176,34.125 248.239 C 34.493 247.302,34.752 246.493,34.701 246.442 C 34.649 246.390,34.309 247.118,33.945 248.058 M305.877 246.984 C 305.183 247.822,304.889 248.251,305.008 248.251 C 305.075 248.251,305.420 247.871,305.774 247.407 C 306.431 246.545,306.511 246.219,305.877 246.984 M304.430 248.914 C 303.735 249.752,303.441 250.181,303.561 250.181 C 303.627 250.181,303.972 249.801,304.326 249.337 C 304.984 248.475,305.063 248.149,304.430 248.914 M302.982 250.844 C 302.288 251.682,301.994 252.111,302.113 252.111 C 302.180 252.111,302.524 251.731,302.879 251.267 C 303.536 250.405,303.616 250.079,302.982 250.844 M32.254 252.519 C 32.027 253.132,31.880 253.674,31.929 253.722 C 31.977 253.771,32.207 253.313,32.439 252.705 C 32.672 252.097,32.818 251.555,32.764 251.502 C 32.711 251.448,32.481 251.906,32.254 252.519 M152.767 253.464 C 152.331 254.047,152.024 254.524,152.083 254.524 C 152.254 254.524,153.747 252.581,153.648 252.488 C 153.599 252.443,153.202 252.882,152.767 253.464 M301.534 252.774 C 300.840 253.612,300.546 254.041,300.666 254.041 C 300.732 254.041,301.077 253.661,301.431 253.197 C 302.089 252.335,302.168 252.009,301.534 252.774 M300.087 254.704 C 299.393 255.542,299.099 255.971,299.218 255.971 C 299.285 255.971,299.629 255.591,299.984 255.127 C 300.641 254.265,300.721 253.939,300.087 254.704 M30.666 256.722 C 30.518 257.148,30.438 257.539,30.490 257.591 C 30.541 257.642,30.705 257.336,30.854 256.909 C 31.002 256.483,31.082 256.092,31.030 256.040 C 30.979 255.989,30.815 256.295,30.666 256.722 M149.072 258.203 C 148.107 259.430,147.158 260.624,146.963 260.856 C 146.768 261.089,146.669 261.279,146.744 261.279 C 146.819 261.279,147.452 260.546,148.151 259.650 C 148.850 258.755,149.796 257.560,150.253 256.996 C 150.710 256.432,151.026 255.971,150.955 255.971 C 150.885 255.971,150.037 256.975,149.072 258.203 M298.246 257.074 C 297.948 257.529,297.752 257.901,297.810 257.901 C 297.978 257.901,298.977 256.436,298.878 256.336 C 298.828 256.287,298.544 256.619,298.246 257.074 M296.798 259.004 C 296.500 259.459,296.304 259.831,296.363 259.831 C 296.530 259.831,297.530 258.366,297.430 258.266 C 297.381 258.217,297.097 258.549,296.798 259.004 M29.219 260.582 C 29.070 261.008,28.991 261.399,29.042 261.451 C 29.094 261.502,29.258 261.196,29.406 260.769 C 29.555 260.343,29.634 259.952,29.583 259.900 C 29.531 259.849,29.367 260.155,29.219 260.582 M295.351 260.934 C 295.053 261.389,294.856 261.761,294.915 261.761 C 295.083 261.761,296.082 260.296,295.982 260.196 C 295.933 260.147,295.649 260.479,295.351 260.934 M145.529 262.632 C 145.094 263.215,144.786 263.691,144.845 263.691 C 145.016 263.691,146.510 261.748,146.410 261.656 C 146.361 261.610,145.965 262.050,145.529 262.632 M293.903 262.864 C 293.605 263.319,293.409 263.691,293.467 263.691 C 293.635 263.691,294.635 262.226,294.535 262.126 C 294.486 262.077,294.201 262.409,293.903 262.864 M292.456 264.794 C 292.158 265.249,291.961 265.621,292.020 265.621 C 292.188 265.621,293.187 264.156,293.087 264.056 C 293.038 264.007,292.754 264.339,292.456 264.794 M141.725 267.491 C 139.320 270.509,139.367 270.446,139.493 270.446 C 139.552 270.446,140.182 269.714,140.894 268.818 C 141.605 267.922,142.561 266.728,143.017 266.164 C 143.473 265.600,143.790 265.139,143.722 265.139 C 143.655 265.139,142.756 266.197,141.725 267.491 M291.008 266.724 C 290.710 267.179,290.514 267.551,290.572 267.551 C 290.740 267.551,291.740 266.086,291.640 265.986 C 291.591 265.937,291.306 266.269,291.008 266.724 M289.573 268.594 C 289.281 269.016,288.812 269.659,288.530 270.024 C 288.248 270.389,288.068 270.688,288.129 270.688 C 288.313 270.688,290.305 268.029,290.200 267.924 C 290.147 267.871,289.864 268.172,289.573 268.594 M158.049 268.784 C 157.900 269.211,157.821 269.602,157.872 269.653 C 157.924 269.705,158.088 269.398,158.236 268.972 C 158.385 268.546,158.464 268.155,158.413 268.103 C 158.361 268.051,158.197 268.358,158.049 268.784 M138.292 271.800 C 137.856 272.382,137.548 272.859,137.608 272.859 C 137.778 272.859,139.272 270.916,139.173 270.824 C 139.123 270.778,138.727 271.217,138.292 271.800 M287.542 271.351 C 286.848 272.189,286.554 272.618,286.673 272.618 C 286.740 272.618,287.084 272.238,287.438 271.773 C 288.096 270.911,288.175 270.586,287.542 271.351 M286.094 273.281 C 285.400 274.119,285.106 274.548,285.225 274.548 C 285.292 274.548,285.637 274.168,285.991 273.703 C 286.648 272.841,286.728 272.516,286.094 273.281 M136.361 274.212 C 135.926 274.795,135.618 275.271,135.678 275.271 C 135.848 275.271,137.342 273.329,137.243 273.236 C 137.193 273.191,136.797 273.630,136.361 274.212 M284.647 275.211 C 283.953 276.049,283.659 276.478,283.778 276.478 C 283.845 276.478,284.189 276.098,284.543 275.633 C 285.201 274.771,285.280 274.446,284.647 275.211 M23.781 276.133 C 23.692 276.487,23.666 276.822,23.723 276.879 C 23.780 276.936,23.899 276.693,23.988 276.340 C 24.076 275.986,24.102 275.650,24.046 275.594 C 23.989 275.537,23.870 275.779,23.781 276.133 M133.149 278.347 C 131.918 279.907,130.752 281.372,130.557 281.604 C 130.362 281.837,130.262 282.027,130.334 282.027 C 130.407 282.027,131.256 281.022,132.222 279.795 C 133.187 278.568,134.352 277.102,134.810 276.538 C 135.268 275.974,135.586 275.513,135.515 275.513 C 135.445 275.513,134.380 276.788,133.149 278.347 M280.524 280.632 C 276.806 285.547,276.910 285.404,277.051 285.404 C 277.116 285.404,278.646 283.450,280.452 281.062 C 282.257 278.673,283.678 276.719,283.610 276.719 C 283.541 276.719,282.153 278.480,280.524 280.632 M23.689 277.422 C 23.744 277.610,24.055 277.929,24.380 278.131 C 24.837 278.416,24.888 278.421,24.608 278.152 C 24.409 277.961,24.098 277.642,23.917 277.443 C 23.652 277.151,23.607 277.147,23.689 277.422 M25.195 278.623 C 25.270 278.744,25.681 278.965,26.110 279.114 C 27.013 279.429,26.740 279.119,25.739 278.693 C 25.365 278.534,25.121 278.503,25.195 278.623 M27.271 279.579 C 27.824 279.941,30.316 280.890,30.036 280.633 C 29.819 280.432,28.186 279.736,27.262 279.449 C 26.955 279.353,26.957 279.373,27.271 279.579 M31.363 281.262 C 31.562 281.385,31.996 281.558,32.328 281.647 C 32.747 281.759,32.821 281.740,32.569 281.585 C 32.370 281.462,31.936 281.289,31.604 281.200 C 31.185 281.088,31.112 281.107,31.363 281.262 M129.124 283.380 C 128.688 283.962,128.381 284.439,128.440 284.439 C 128.611 284.439,130.105 282.496,130.005 282.404 C 129.956 282.358,129.559 282.797,129.124 283.380 M39.083 284.157 C 39.282 284.280,39.717 284.453,40.048 284.542 C 40.467 284.654,40.541 284.635,40.290 284.480 C 40.090 284.357,39.656 284.184,39.324 284.095 C 38.905 283.983,38.832 284.002,39.083 284.157 M125.912 287.515 C 124.681 289.074,123.514 290.540,123.319 290.772 C 123.124 291.004,123.024 291.194,123.097 291.194 C 123.169 291.194,124.019 290.190,124.984 288.963 C 125.950 287.735,127.115 286.270,127.573 285.706 C 128.031 285.142,128.348 284.680,128.278 284.680 C 128.207 284.680,127.143 285.956,125.912 287.515 M276.444 286.068 C 275.750 286.905,275.456 287.334,275.575 287.334 C 275.642 287.334,275.986 286.954,276.341 286.490 C 276.998 285.628,277.078 285.303,276.444 286.068 M274.996 287.998 C 274.302 288.835,274.008 289.264,274.128 289.264 C 274.194 289.264,274.539 288.884,274.893 288.420 C 275.551 287.558,275.630 287.233,274.996 287.998 M273.549 289.928 C 272.855 290.766,272.561 291.194,272.680 291.194 C 272.747 291.194,273.091 290.814,273.446 290.350 C 274.103 289.488,274.183 289.163,273.549 289.928 M121.886 292.548 C 121.451 293.130,121.143 293.607,121.202 293.607 C 121.373 293.607,122.867 291.664,122.767 291.571 C 122.718 291.526,122.322 291.965,121.886 292.548 M271.708 292.297 C 271.410 292.752,271.214 293.124,271.272 293.124 C 271.440 293.124,272.439 291.659,272.340 291.559 C 272.290 291.510,272.006 291.842,271.708 292.297 M270.272 294.167 C 269.981 294.589,269.512 295.232,269.230 295.597 C 268.948 295.962,268.767 296.261,268.829 296.261 C 269.013 296.261,271.005 293.602,270.900 293.497 C 270.846 293.444,270.564 293.745,270.272 294.167 M68.054 293.935 C 68.109 293.982,68.480 294.094,68.878 294.183 C 69.407 294.302,69.504 294.279,69.240 294.100 C 68.914 293.880,67.812 293.726,68.054 293.935 M118.674 296.683 C 117.443 298.242,116.277 299.707,116.082 299.940 C 115.887 300.172,115.787 300.362,115.859 300.362 C 115.932 300.362,116.781 299.358,117.747 298.130 C 118.712 296.903,119.877 295.437,120.335 294.873 C 120.793 294.309,121.110 293.848,121.040 293.848 C 120.970 293.848,119.905 295.124,118.674 296.683 M268.241 296.924 C 267.547 297.762,267.253 298.191,267.372 298.191 C 267.439 298.191,267.784 297.811,268.138 297.346 C 268.795 296.484,268.875 296.159,268.241 296.924 M264.845 301.379 C 261.986 305.142,261.953 305.187,262.089 305.187 C 262.152 305.187,263.358 303.667,264.768 301.809 C 266.179 299.952,267.277 298.432,267.208 298.432 C 267.140 298.432,266.076 299.758,264.845 301.379 M90.008 300.690 C 90.063 300.738,90.434 300.849,90.832 300.938 C 91.361 301.057,91.458 301.034,91.194 300.855 C 90.868 300.635,89.766 300.481,90.008 300.690 M114.649 301.715 C 114.213 302.298,113.905 302.774,113.965 302.774 C 114.135 302.774,115.629 300.832,115.530 300.739 C 115.481 300.694,115.084 301.133,114.649 301.715 M91.697 301.172 C 91.752 301.220,92.123 301.332,92.521 301.421 C 93.050 301.539,93.147 301.517,92.883 301.338 C 92.557 301.117,91.455 300.964,91.697 301.172 M95.074 302.137 C 95.130 302.185,95.501 302.297,95.899 302.386 C 96.427 302.504,96.525 302.482,96.261 302.303 C 95.935 302.082,94.832 301.929,95.074 302.137 M96.763 302.620 C 96.818 302.668,97.189 302.779,97.587 302.868 C 98.116 302.987,98.214 302.964,97.949 302.785 C 97.624 302.565,96.521 302.411,96.763 302.620 M99.035 303.257 C 99.300 303.371,99.680 303.464,99.879 303.464 C 100.107 303.464,100.063 303.388,99.759 303.257 C 99.493 303.143,99.113 303.050,98.914 303.050 C 98.686 303.050,98.731 303.126,99.035 303.257 M113.244 303.559 C 112.188 304.777,111.874 305.187,111.996 305.187 C 112.067 305.187,112.526 304.698,113.015 304.101 C 113.921 302.995,114.101 302.571,113.244 303.559 M100.382 303.585 C 100.437 303.633,100.808 303.744,101.206 303.833 C 101.735 303.952,101.832 303.929,101.568 303.750 C 101.242 303.530,100.140 303.376,100.382 303.585 M102.654 304.222 C 102.919 304.336,103.299 304.429,103.498 304.429 C 103.726 304.429,103.682 304.353,103.378 304.222 C 103.112 304.108,102.732 304.015,102.533 304.015 C 102.305 304.015,102.350 304.091,102.654 304.222 M146.469 304.263 C 146.454 304.484,146.379 304.864,146.303 305.107 C 146.171 305.526,146.178 305.526,146.440 305.119 C 146.591 304.883,146.666 304.503,146.606 304.275 C 146.508 303.901,146.495 303.900,146.469 304.263 M104.001 304.549 C 104.056 304.596,104.481 304.705,104.946 304.790 C 105.540 304.899,105.683 304.875,105.428 304.708 C 105.101 304.493,103.762 304.345,104.001 304.549 M106.634 305.187 C 107.459 305.451,108.094 305.451,107.479 305.187 C 107.214 305.073,106.779 304.983,106.514 304.987 C 106.126 304.992,106.150 305.032,106.634 305.187 M109.723 305.740 C 110.620 305.883,111.331 305.893,111.456 305.765 C 111.580 305.638,110.953 305.539,109.935 305.524 L 108.203 305.499 109.723 305.740 M261.486 305.850 C 260.792 306.688,260.498 307.117,260.617 307.117 C 260.684 307.117,261.029 306.737,261.383 306.273 C 262.040 305.411,262.120 305.085,261.486 305.850 M145.856 306.290 C 145.767 306.643,145.741 306.979,145.798 307.036 C 145.855 307.093,145.974 306.850,146.062 306.497 C 146.151 306.143,146.177 305.807,146.120 305.750 C 146.063 305.694,145.944 305.936,145.856 306.290 M259.645 308.220 C 259.347 308.675,259.151 309.047,259.209 309.047 C 259.377 309.047,260.377 307.582,260.277 307.482 C 260.228 307.433,259.943 307.765,259.645 308.220 M258.210 310.090 C 257.918 310.511,257.449 311.155,257.167 311.520 C 256.885 311.885,256.705 312.183,256.766 312.183 C 256.950 312.183,258.942 309.525,258.837 309.420 C 258.784 309.367,258.501 309.668,258.210 310.090 M144.408 311.356 C 144.319 311.710,144.293 312.046,144.350 312.102 C 144.407 312.159,144.526 311.917,144.615 311.563 C 144.704 311.209,144.730 310.874,144.673 310.817 C 144.616 310.760,144.497 311.003,144.408 311.356 M144.057 312.706 C 144.042 312.928,143.966 313.308,143.890 313.551 C 143.759 313.970,143.766 313.970,144.027 313.563 C 144.179 313.327,144.254 312.947,144.194 312.719 C 144.096 312.345,144.082 312.344,144.057 312.706 M254.644 314.837 C 253.639 316.164,252.871 317.250,252.938 317.250 C 253.004 317.250,253.881 316.164,254.885 314.837 C 255.890 313.510,256.658 312.425,256.592 312.425 C 256.525 312.425,255.649 313.510,254.644 314.837 M143.456 315.109 C 143.255 316.114,143.450 316.309,143.667 315.320 C 143.759 314.903,143.783 314.511,143.722 314.450 C 143.660 314.388,143.541 314.685,143.456 315.109 M143.092 316.808 C 143.052 317.377,143.313 317.973,143.602 317.973 C 143.768 317.973,143.768 317.876,143.602 317.672 C 143.467 317.506,143.304 317.153,143.239 316.888 C 143.151 316.532,143.113 316.511,143.092 316.808 M252.319 317.913 C 251.624 318.751,251.330 319.180,251.450 319.180 C 251.517 319.180,251.861 318.800,252.215 318.335 C 252.873 317.474,252.952 317.148,252.319 317.913 M250.871 319.843 C 250.177 320.681,249.883 321.110,250.002 321.110 C 250.069 321.110,250.413 320.730,250.768 320.265 C 251.425 319.404,251.505 319.078,250.871 319.843 M249.042 322.152 C 248.751 322.574,248.281 323.218,247.999 323.583 C 247.718 323.948,247.537 324.246,247.598 324.246 C 247.782 324.246,249.774 321.588,249.669 321.483 C 249.616 321.429,249.334 321.731,249.042 322.152 M245.703 326.598 C 244.813 327.759,243.978 328.845,243.846 329.011 C 243.715 329.177,243.664 329.312,243.732 329.312 C 243.801 329.312,244.689 328.227,245.706 326.900 C 246.723 325.573,247.503 324.487,247.438 324.487 C 247.374 324.487,246.593 325.437,245.703 326.598 M164.656 324.970 C 164.922 325.084,165.302 325.177,165.501 325.177 C 165.729 325.177,165.684 325.101,165.380 324.970 C 165.115 324.856,164.735 324.763,164.536 324.763 C 164.307 324.763,164.352 324.839,164.656 324.970 M173.241 327.710 C 173.296 327.758,173.667 327.870,174.065 327.959 C 174.594 328.077,174.691 328.055,174.427 327.876 C 174.101 327.655,172.999 327.502,173.241 327.710 M243.151 329.976 C 242.457 330.814,242.163 331.242,242.282 331.242 C 242.349 331.242,242.693 330.862,243.048 330.398 C 243.705 329.536,243.785 329.211,243.151 329.976 M239.430 334.801 C 238.540 335.962,237.705 337.048,237.574 337.214 C 237.443 337.379,237.391 337.515,237.460 337.515 C 237.528 337.515,238.416 336.429,239.433 335.103 C 240.450 333.776,241.230 332.690,241.166 332.690 C 241.101 332.690,240.320 333.640,239.430 334.801 M194.471 334.465 C 194.527 334.513,194.897 334.625,195.296 334.714 C 195.824 334.832,195.922 334.810,195.657 334.631 C 195.332 334.411,194.229 334.257,194.471 334.465 M202.191 336.878 C 202.247 336.926,202.618 337.038,203.016 337.127 C 203.544 337.245,203.642 337.222,203.378 337.044 C 203.052 336.823,201.949 336.669,202.191 336.878 M236.389 338.782 C 234.664 340.931,233.905 341.955,234.144 341.807 C 234.433 341.629,237.462 337.756,237.312 337.756 C 237.257 337.756,236.841 338.218,236.389 338.782 M208.464 338.808 C 208.519 338.856,208.890 338.968,209.288 339.057 C 209.817 339.175,209.914 339.152,209.650 338.974 C 209.324 338.753,208.222 338.599,208.464 338.808 M210.495 339.445 C 210.760 339.559,211.140 339.652,211.339 339.652 C 211.567 339.652,211.522 339.576,211.218 339.445 C 210.953 339.331,210.573 339.238,210.374 339.238 C 210.146 339.238,210.190 339.314,210.495 339.445 M213.289 340.256 C 213.344 340.303,213.715 340.415,214.113 340.504 C 214.642 340.622,214.740 340.600,214.475 340.421 C 214.149 340.201,213.047 340.047,213.289 340.256 M216.667 341.221 C 216.722 341.268,217.093 341.380,217.491 341.469 C 218.020 341.587,218.117 341.565,217.853 341.386 C 217.527 341.166,216.425 341.012,216.667 341.221 M218.355 341.703 C 218.411 341.751,218.782 341.863,219.180 341.952 C 219.708 342.070,219.806 342.048,219.542 341.869 C 219.216 341.648,218.113 341.494,218.355 341.703 M220.627 342.340 C 220.893 342.454,221.273 342.548,221.472 342.548 C 221.700 342.548,221.655 342.471,221.351 342.340 C 221.086 342.226,220.706 342.133,220.507 342.133 C 220.279 342.133,220.323 342.209,220.627 342.340 M233.157 342.883 L 232.449 343.667 233.233 342.958 C 233.664 342.569,234.017 342.216,234.017 342.174 C 234.017 341.988,233.818 342.152,233.157 342.883 M222.437 342.823 C 223.262 343.087,223.896 343.087,223.281 342.823 C 223.016 342.709,222.581 342.619,222.316 342.622 C 221.928 342.628,221.952 342.667,222.437 342.823 M224.608 343.305 C 225.433 343.569,226.067 343.569,225.452 343.305 C 225.187 343.191,224.753 343.101,224.487 343.105 C 224.099 343.111,224.123 343.150,224.608 343.305 M231.363 343.788 C 230.866 343.947,230.845 343.984,231.242 344.001 C 231.508 344.012,231.888 343.916,232.087 343.788 C 232.510 343.515,232.216 343.515,231.363 343.788 M228.287 343.954 C 228.519 344.015,228.899 344.015,229.131 343.954 C 229.364 343.893,229.174 343.844,228.709 343.844 C 228.245 343.844,228.055 343.893,228.287 343.954 " stroke="none" fill="#fc5a5a" fill-rule="evenodd"></path><path id="path3" d="M108.058 65.078 C 107.249 65.943,106.262 67.211,106.790 66.707 C 107.365 66.158,109.101 64.174,109.006 64.174 C 108.950 64.174,108.523 64.581,108.058 65.078 M111.339 64.415 C 111.604 64.529,111.984 64.622,112.183 64.622 C 112.411 64.622,112.367 64.546,112.063 64.415 C 111.797 64.301,111.417 64.208,111.218 64.208 C 110.990 64.208,111.035 64.284,111.339 64.415 M175.392 85.977 C 175.392 86.034,175.779 86.308,176.251 86.587 C 176.723 86.866,177.042 86.984,176.959 86.850 C 176.798 86.589,175.392 85.806,175.392 85.977 M204.923 94.391 C 204.467 94.929,204.467 94.930,204.946 94.536 C 205.211 94.318,205.645 94.086,205.911 94.022 C 206.375 93.908,206.374 93.903,205.888 93.876 C 205.610 93.861,205.176 94.092,204.923 94.391 M200.096 100.422 C 199.039 101.641,198.725 102.051,198.848 102.051 C 198.919 102.051,199.377 101.562,199.866 100.965 C 200.773 99.859,200.952 99.435,200.096 100.422 M196.347 105.127 C 195.653 105.965,195.359 106.393,195.479 106.393 C 195.545 106.393,195.890 106.013,196.244 105.549 C 196.902 104.687,196.981 104.362,196.347 105.127 M193.124 109.288 C 192.512 110.084,192.065 110.736,192.131 110.736 C 192.197 110.736,192.753 110.084,193.366 109.288 C 193.978 108.492,194.425 107.841,194.359 107.841 C 194.292 107.841,193.737 108.492,193.124 109.288 M191.522 111.399 C 190.828 112.237,190.534 112.666,190.654 112.666 C 190.720 112.666,191.065 112.286,191.419 111.821 C 192.076 110.960,192.156 110.634,191.522 111.399 M187.662 116.466 C 186.968 117.304,186.674 117.732,186.793 117.732 C 186.860 117.732,187.205 117.352,187.559 116.888 C 188.216 116.026,188.296 115.701,187.662 116.466 M184.906 120.065 C 184.535 120.553,184.354 120.875,184.505 120.782 C 184.814 120.591,185.858 119.180,185.690 119.180 C 185.631 119.180,185.278 119.578,184.906 120.065 M277.562 121.113 C 277.561 121.751,277.641 122.148,277.739 121.993 C 277.973 121.626,277.977 120.205,277.744 120.062 C 277.645 120.001,277.563 120.474,277.562 121.113 M183.802 121.532 C 183.108 122.370,182.814 122.799,182.933 122.799 C 183.000 122.799,183.345 122.419,183.699 121.954 C 184.356 121.092,184.436 120.767,183.802 121.532 M182.355 123.462 C 181.661 124.300,181.367 124.729,181.486 124.729 C 181.553 124.729,181.897 124.349,182.251 123.884 C 182.909 123.022,182.988 122.697,182.355 123.462 M177.047 130.458 C 176.353 131.296,176.059 131.725,176.178 131.725 C 176.245 131.725,176.590 131.345,176.944 130.881 C 177.601 130.019,177.681 129.693,177.047 130.458 M303.065 131.618 C 301.722 133.319,301.909 133.311,303.367 131.604 C 303.990 130.875,304.411 130.284,304.301 130.291 C 304.191 130.298,303.635 130.895,303.065 131.618 M175.600 132.388 C 174.906 133.226,174.611 133.655,174.731 133.655 C 174.798 133.655,175.142 133.275,175.496 132.811 C 176.154 131.949,176.233 131.623,175.600 132.388 M174.152 134.318 C 173.458 135.156,173.164 135.585,173.283 135.585 C 173.350 135.585,173.695 135.205,174.049 134.741 C 174.706 133.879,174.786 133.553,174.152 134.318 M297.829 138.239 C 297.216 139.035,296.769 139.686,296.835 139.686 C 296.902 139.686,297.457 139.035,298.070 138.239 C 298.683 137.443,299.130 136.791,299.063 136.791 C 298.997 136.791,298.441 137.443,297.829 138.239 M171.396 137.918 C 171.025 138.405,170.844 138.728,170.994 138.635 C 171.303 138.444,172.348 137.033,172.180 137.033 C 172.121 137.033,171.768 137.431,171.396 137.918 M169.949 139.848 C 169.577 140.335,169.396 140.658,169.547 140.565 C 169.856 140.374,170.900 138.963,170.733 138.963 C 170.673 138.963,170.320 139.361,169.949 139.848 M296.227 140.350 C 295.533 141.188,295.239 141.616,295.358 141.616 C 295.425 141.616,295.769 141.236,296.124 140.772 C 296.781 139.910,296.861 139.585,296.227 140.350 M168.501 141.778 C 168.130 142.265,167.949 142.588,168.099 142.495 C 168.408 142.304,169.453 140.893,169.285 140.893 C 169.225 140.893,168.873 141.291,168.501 141.778 M167.054 143.708 C 166.682 144.195,166.501 144.518,166.652 144.425 C 166.961 144.234,168.005 142.823,167.838 142.823 C 167.778 142.823,167.425 143.221,167.054 143.708 M293.004 144.511 C 292.391 145.308,291.944 145.959,292.010 145.959 C 292.077 145.959,292.632 145.308,293.245 144.511 C 293.857 143.715,294.304 143.064,294.238 143.064 C 294.172 143.064,293.616 143.715,293.004 144.511 M166.053 145.054 C 165.006 146.422,164.455 147.237,164.661 147.113 C 164.946 146.940,166.548 144.753,166.390 144.753 C 166.331 144.753,166.180 144.888,166.053 145.054 M291.402 146.622 C 290.708 147.460,290.414 147.889,290.533 147.889 C 290.600 147.889,290.944 147.509,291.298 147.045 C 291.956 146.183,292.035 145.857,291.402 146.622 M164.019 147.829 C 163.325 148.667,163.031 149.095,163.151 149.095 C 163.217 149.095,163.562 148.715,163.916 148.251 C 164.573 147.389,164.653 147.064,164.019 147.829 M162.572 149.759 C 161.878 150.597,161.584 151.025,161.703 151.025 C 161.770 151.025,162.114 150.645,162.469 150.181 C 163.126 149.319,163.206 148.994,162.572 149.759 M288.989 149.759 C 288.295 150.597,288.001 151.025,288.120 151.025 C 288.187 151.025,288.532 150.645,288.886 150.181 C 289.543 149.319,289.623 148.994,288.989 149.759 M374.386 150.483 C 374.505 150.715,374.555 151.068,374.497 151.267 C 374.405 151.578,374.424 151.580,374.633 151.280 C 374.859 150.955,374.607 150.060,374.289 150.060 C 374.223 150.060,374.267 150.250,374.386 150.483 M161.124 151.689 C 160.430 152.527,160.136 152.955,160.255 152.955 C 160.322 152.955,160.667 152.575,161.021 152.111 C 161.678 151.249,161.758 150.924,161.124 151.689 M286.233 153.359 C 285.862 153.846,285.681 154.168,285.832 154.075 C 286.140 153.884,287.185 152.473,287.017 152.473 C 286.958 152.473,286.605 152.871,286.233 153.359 M373.341 153.438 C 373.136 153.836,373.021 154.162,373.088 154.162 C 373.154 154.162,373.377 153.836,373.583 153.438 C 373.788 153.040,373.903 152.714,373.836 152.714 C 373.770 152.714,373.547 153.040,373.341 153.438 M159.677 153.619 C 158.983 154.457,158.689 154.885,158.808 154.885 C 158.875 154.885,159.219 154.505,159.574 154.041 C 160.231 153.179,160.310 152.854,159.677 153.619 M285.129 154.825 C 284.435 155.663,284.141 156.092,284.260 156.092 C 284.327 156.092,284.672 155.712,285.026 155.247 C 285.683 154.385,285.763 154.060,285.129 154.825 M158.229 155.549 C 157.535 156.387,157.241 156.815,157.360 156.815 C 157.427 156.815,157.772 156.435,158.126 155.971 C 158.783 155.109,158.863 154.784,158.229 155.549 M371.985 155.669 C 371.827 155.968,371.541 156.484,371.348 156.815 C 371.013 157.394,371.015 157.399,371.404 156.936 C 371.885 156.364,372.560 155.127,372.391 155.127 C 372.326 155.127,372.143 155.371,371.985 155.669 M155.473 159.149 C 155.102 159.636,154.921 159.958,155.072 159.865 C 155.381 159.674,156.425 158.263,156.257 158.263 C 156.198 158.263,155.845 158.662,155.473 159.149 M281.269 159.891 C 280.575 160.729,280.281 161.158,280.400 161.158 C 280.467 161.158,280.812 160.778,281.166 160.314 C 281.823 159.452,281.903 159.126,281.269 159.891 M154.026 161.079 C 153.654 161.566,153.474 161.888,153.624 161.795 C 153.933 161.604,154.977 160.193,154.810 160.193 C 154.750 160.193,154.397 160.592,154.026 161.079 M279.011 162.847 C 278.398 163.643,277.951 164.294,278.018 164.294 C 278.084 164.294,278.639 163.643,279.252 162.847 C 279.865 162.051,280.312 161.399,280.245 161.399 C 280.179 161.399,279.623 162.051,279.011 162.847 M152.922 162.545 C 152.228 163.383,151.934 163.812,152.053 163.812 C 152.120 163.812,152.464 163.432,152.818 162.967 C 153.476 162.106,153.555 161.780,152.922 162.545 M277.066 165.421 C 276.694 165.908,276.513 166.231,276.664 166.138 C 276.973 165.947,278.017 164.536,277.850 164.536 C 277.790 164.536,277.437 164.934,277.066 165.421 M365.470 165.561 C 365.170 165.992,364.647 166.719,364.308 167.177 C 363.969 167.635,363.807 167.939,363.949 167.854 C 364.254 167.669,366.309 164.777,366.136 164.777 C 366.070 164.777,365.770 165.130,365.470 165.561 M150.509 165.682 C 149.815 166.519,149.521 166.948,149.640 166.948 C 149.707 166.948,150.052 166.568,150.406 166.104 C 151.063 165.242,151.143 164.917,150.509 165.682 M275.961 166.888 C 275.267 167.726,274.973 168.154,275.093 168.154 C 275.159 168.154,275.504 167.774,275.858 167.310 C 276.516 166.448,276.595 166.123,275.961 166.888 M147.753 169.281 C 147.382 169.768,147.201 170.091,147.352 169.998 C 147.660 169.807,148.705 168.396,148.537 168.396 C 148.478 168.396,148.125 168.794,147.753 169.281 M274.514 168.818 C 273.820 169.656,273.526 170.084,273.645 170.084 C 273.712 170.084,274.056 169.704,274.411 169.240 C 275.068 168.378,275.148 168.053,274.514 168.818 M362.093 170.386 C 361.792 170.817,361.269 171.545,360.930 172.002 C 360.591 172.460,360.430 172.764,360.571 172.679 C 360.876 172.494,362.932 169.602,362.758 169.602 C 362.692 169.602,362.393 169.955,362.093 170.386 M144.873 172.979 C 144.261 173.776,143.814 174.427,143.880 174.427 C 143.946 174.427,144.502 173.776,145.115 172.979 C 145.727 172.183,146.174 171.532,146.108 171.532 C 146.041 171.532,145.486 172.183,144.873 172.979 M359.539 174.005 C 358.493 175.372,357.941 176.188,358.148 176.063 C 358.433 175.891,360.035 173.703,359.876 173.703 C 359.817 173.703,359.666 173.839,359.539 174.005 M269.206 175.814 C 268.512 176.652,268.218 177.081,268.337 177.081 C 268.404 177.081,268.749 176.701,269.103 176.236 C 269.760 175.375,269.840 175.049,269.206 175.814 M139.818 179.433 C 138.800 180.727,138.334 181.383,138.782 180.891 C 139.827 179.746,141.924 177.081,141.779 177.081 C 141.719 177.081,140.836 178.139,139.818 179.433 M357.126 177.382 C 356.080 178.750,355.528 179.566,355.735 179.441 C 356.020 179.268,357.622 177.081,357.463 177.081 C 357.405 177.081,357.253 177.217,357.126 177.382 M267.759 177.744 C 267.065 178.582,266.771 179.011,266.890 179.011 C 266.957 179.011,267.301 178.631,267.656 178.166 C 268.313 177.305,268.392 176.979,267.759 177.744 M266.311 179.674 C 265.617 180.512,265.323 180.941,265.442 180.941 C 265.509 180.941,265.854 180.561,266.208 180.097 C 266.865 179.235,266.945 178.909,266.311 179.674 M355.196 180.036 C 354.096 181.474,353.607 182.214,353.857 182.062 C 354.171 181.872,355.707 179.735,355.530 179.735 C 355.473 179.735,355.323 179.870,355.196 180.036 M136.976 182.757 C 136.480 183.218,136.160 183.595,136.265 183.595 C 136.370 183.595,136.824 183.215,137.274 182.750 C 138.324 181.667,138.144 181.671,136.976 182.757 M263.555 183.274 C 263.184 183.761,263.003 184.084,263.154 183.991 C 263.463 183.800,264.507 182.388,264.339 182.388 C 264.280 182.388,263.927 182.787,263.555 183.274 M352.337 183.998 C 351.966 184.485,351.785 184.807,351.935 184.714 C 352.244 184.523,353.289 183.112,353.121 183.112 C 353.061 183.112,352.709 183.511,352.337 183.998 M262.108 185.204 C 261.736 185.691,261.556 186.014,261.706 185.921 C 262.015 185.730,263.059 184.318,262.892 184.318 C 262.832 184.318,262.479 184.717,262.108 185.204 M350.407 186.652 C 350.036 187.139,349.855 187.461,350.005 187.368 C 350.314 187.177,351.359 185.766,351.191 185.766 C 351.131 185.766,350.779 186.165,350.407 186.652 M260.660 187.134 C 260.289 187.621,260.108 187.944,260.259 187.851 C 260.567 187.660,261.612 186.248,261.444 186.248 C 261.385 186.248,261.032 186.647,260.660 187.134 M259.213 189.064 C 258.841 189.551,258.661 189.874,258.811 189.781 C 259.120 189.590,260.164 188.179,259.997 188.179 C 259.937 188.179,259.584 188.577,259.213 189.064 M348.477 189.305 C 348.105 189.793,347.925 190.115,348.075 190.022 C 348.384 189.831,349.429 188.420,349.261 188.420 C 349.201 188.420,348.849 188.818,348.477 189.305 M258.109 190.531 C 257.415 191.369,257.121 191.797,257.240 191.797 C 257.307 191.797,257.651 191.417,258.005 190.953 C 258.663 190.091,258.742 189.766,258.109 190.531 M346.890 191.496 C 346.125 192.420,345.850 192.848,346.129 192.681 C 346.437 192.496,347.509 191.074,347.340 191.074 C 347.285 191.074,347.083 191.264,346.890 191.496 M256.661 192.461 C 255.967 193.299,255.673 193.727,255.792 193.727 C 255.859 193.727,256.204 193.347,256.558 192.883 C 257.215 192.021,257.295 191.696,256.661 192.461 M345.546 193.305 C 344.500 194.672,343.948 195.488,344.155 195.364 C 344.440 195.191,346.042 193.004,345.883 193.004 C 345.825 193.004,345.673 193.139,345.546 193.305 M255.214 194.391 C 254.520 195.229,254.225 195.657,254.345 195.657 C 254.412 195.657,254.756 195.277,255.110 194.813 C 255.768 193.951,255.847 193.626,255.214 194.391 M343.169 196.543 C 342.798 197.030,342.617 197.353,342.768 197.260 C 343.077 197.069,344.121 195.657,343.953 195.657 C 343.894 195.657,343.541 196.056,343.169 196.543 M253.766 196.321 C 253.072 197.159,252.778 197.587,252.897 197.587 C 252.964 197.587,253.309 197.207,253.663 196.743 C 254.320 195.881,254.400 195.556,253.766 196.321 M339.792 201.127 C 339.420 201.614,339.240 201.936,339.390 201.843 C 339.699 201.653,340.743 200.241,340.576 200.241 C 340.516 200.241,340.163 200.640,339.792 201.127 M338.205 203.317 C 337.511 204.155,337.217 204.584,337.336 204.584 C 337.403 204.584,337.748 204.204,338.102 203.739 C 338.759 202.878,338.839 202.552,338.205 203.317 M336.414 205.711 C 336.043 206.198,335.862 206.520,336.013 206.427 C 336.321 206.236,337.366 204.825,337.198 204.825 C 337.139 204.825,336.786 205.224,336.414 205.711 M245.563 207.177 C 244.869 208.015,244.575 208.444,244.695 208.444 C 244.761 208.444,245.106 208.064,245.460 207.600 C 246.117 206.738,246.197 206.412,245.563 207.177 M334.967 207.641 C 334.595 208.128,334.414 208.450,334.565 208.357 C 334.874 208.166,335.918 206.755,335.751 206.755 C 335.691 206.755,335.338 207.154,334.967 207.641 M244.116 209.107 C 243.422 209.945,243.128 210.374,243.247 210.374 C 243.314 210.374,243.658 209.994,244.013 209.530 C 244.670 208.668,244.750 208.342,244.116 209.107 M241.858 212.063 C 241.245 212.859,240.798 213.510,240.864 213.510 C 240.931 213.510,241.486 212.859,242.099 212.063 C 242.712 211.267,243.158 210.615,243.092 210.615 C 243.026 210.615,242.470 211.267,241.858 212.063 M331.589 212.225 C 331.218 212.712,331.037 213.034,331.187 212.941 C 331.496 212.750,332.541 211.339,332.373 211.339 C 332.314 211.339,331.961 211.738,331.589 212.225 M330.142 214.155 C 329.770 214.642,329.589 214.964,329.740 214.871 C 330.049 214.680,331.093 213.269,330.926 213.269 C 330.866 213.269,330.513 213.668,330.142 214.155 M239.912 214.637 C 239.541 215.124,239.360 215.447,239.511 215.354 C 239.820 215.163,240.864 213.752,240.696 213.752 C 240.637 213.752,240.284 214.150,239.912 214.637 M329.141 215.501 C 328.094 216.868,327.543 217.684,327.749 217.559 C 328.034 217.387,329.636 215.199,329.478 215.199 C 329.419 215.199,329.268 215.335,329.141 215.501 M238.808 216.104 C 238.114 216.942,237.820 217.370,237.939 217.370 C 238.006 217.370,238.351 216.990,238.705 216.526 C 239.362 215.664,239.442 215.339,238.808 216.104 M237.079 218.222 C 236.707 218.550,236.498 218.818,236.615 218.818 C 236.732 218.818,237.083 218.546,237.394 218.215 C 238.115 217.447,237.956 217.451,237.079 218.222 M327.107 218.275 C 326.413 219.113,326.119 219.542,326.239 219.542 C 326.305 219.542,326.650 219.162,327.004 218.697 C 327.662 217.835,327.741 217.510,327.107 218.275 M325.660 220.205 C 324.966 221.043,324.672 221.472,324.791 221.472 C 324.858 221.472,325.202 221.092,325.557 220.627 C 326.214 219.765,326.294 219.440,325.660 220.205 M324.212 222.135 C 323.518 222.973,323.224 223.402,323.344 223.402 C 323.410 223.402,323.755 223.022,324.109 222.557 C 324.766 221.695,324.846 221.370,324.212 222.135 M322.422 224.529 C 322.050 225.016,321.869 225.338,322.020 225.245 C 322.329 225.054,323.373 223.643,323.205 223.643 C 323.146 223.643,322.793 224.041,322.422 224.529 M320.974 226.459 C 320.602 226.946,320.422 227.268,320.572 227.175 C 320.881 226.984,321.926 225.573,321.758 225.573 C 321.698 225.573,321.346 225.972,320.974 226.459 M319.526 228.389 C 319.155 228.876,318.974 229.198,319.125 229.105 C 319.434 228.914,320.478 227.503,320.310 227.503 C 320.251 227.503,319.898 227.902,319.526 228.389 M318.079 230.319 C 317.707 230.806,317.527 231.128,317.677 231.035 C 317.986 230.844,319.031 229.433,318.863 229.433 C 318.803 229.433,318.451 229.832,318.079 230.319 M316.631 232.249 C 316.260 232.736,316.079 233.058,316.230 232.965 C 316.539 232.774,317.583 231.363,317.415 231.363 C 317.356 231.363,317.003 231.762,316.631 232.249 M169.514 232.030 C 169.664 232.128,169.842 232.425,169.908 232.690 C 170.000 233.060,170.035 233.018,170.056 232.509 C 170.077 232.026,169.970 231.847,169.662 231.849 C 169.394 231.852,169.340 231.918,169.514 232.030 M315.184 234.179 C 314.812 234.666,314.632 234.988,314.782 234.895 C 315.091 234.704,316.135 233.293,315.968 233.293 C 315.908 233.293,315.555 233.692,315.184 234.179 M166.358 235.826 C 165.869 236.423,165.557 236.908,165.665 236.903 C 165.862 236.893,167.536 234.741,167.347 234.741 C 167.292 234.741,166.847 235.229,166.358 235.826 M313.736 236.109 C 313.365 236.596,313.184 236.918,313.335 236.825 C 313.643 236.634,314.688 235.223,314.520 235.223 C 314.461 235.223,314.108 235.622,313.736 236.109 M164.641 238.039 C 164.270 238.526,164.089 238.848,164.239 238.755 C 164.548 238.564,165.593 237.153,165.425 237.153 C 165.365 237.153,165.013 237.552,164.641 238.039 M312.289 238.039 C 311.917 238.526,311.737 238.848,311.887 238.755 C 312.196 238.564,313.240 237.153,313.073 237.153 C 313.013 237.153,312.660 237.552,312.289 238.039 M310.841 239.969 C 310.470 240.456,310.289 240.778,310.440 240.685 C 310.748 240.494,311.793 239.083,311.625 239.083 C 311.566 239.083,311.213 239.482,310.841 239.969 M309.394 241.899 C 309.022 242.386,308.841 242.708,308.992 242.615 C 309.301 242.425,310.345 241.013,310.178 241.013 C 310.118 241.013,309.765 241.412,309.394 241.899 M161.050 242.581 C 160.561 243.179,160.249 243.663,160.358 243.658 C 160.554 243.648,162.228 241.496,162.039 241.496 C 161.985 241.496,161.540 241.984,161.050 242.581 M307.946 243.829 C 307.575 244.316,307.394 244.639,307.545 244.545 C 307.853 244.355,308.898 242.943,308.730 242.943 C 308.671 242.943,308.318 243.342,307.946 243.829 M158.882 245.416 C 158.255 246.245,158.084 246.544,158.502 246.080 C 159.376 245.110,160.274 243.908,160.124 243.908 C 160.069 243.908,159.510 244.587,158.882 245.416 M306.499 245.759 C 306.127 246.246,305.946 246.569,306.097 246.475 C 306.406 246.285,307.450 244.873,307.283 244.873 C 307.223 244.873,306.870 245.272,306.499 245.759 M305.051 247.689 C 304.680 248.176,304.499 248.499,304.649 248.406 C 304.958 248.215,306.003 246.803,305.835 246.803 C 305.776 246.803,305.423 247.202,305.051 247.689 M303.604 249.619 C 303.232 250.106,303.051 250.429,303.202 250.336 C 303.511 250.145,304.555 248.733,304.388 248.733 C 304.328 248.733,303.975 249.132,303.604 249.619 M153.575 252.171 C 152.947 253.001,152.776 253.299,153.195 252.835 C 154.068 251.865,154.966 250.663,154.817 250.663 C 154.761 250.663,154.202 251.342,153.575 252.171 M302.156 251.549 C 301.785 252.036,301.604 252.359,301.754 252.266 C 302.063 252.075,303.108 250.663,302.940 250.663 C 302.880 250.663,302.528 251.062,302.156 251.549 M301.052 253.016 C 300.358 253.854,300.064 254.282,300.183 254.282 C 300.250 254.282,300.594 253.902,300.949 253.438 C 301.606 252.576,301.686 252.251,301.052 253.016 M299.604 254.946 C 298.910 255.784,298.616 256.212,298.736 256.212 C 298.802 256.212,299.147 255.832,299.501 255.368 C 300.158 254.506,300.238 254.181,299.604 254.946 M298.157 256.876 C 297.463 257.714,297.169 258.142,297.288 258.142 C 297.355 258.142,297.699 257.762,298.054 257.298 C 298.711 256.436,298.791 256.111,298.157 256.876 M148.505 258.504 C 148.016 259.101,147.704 259.586,147.813 259.580 C 148.009 259.571,149.683 257.419,149.494 257.419 C 149.439 257.419,148.994 257.907,148.505 258.504 M296.709 258.806 C 296.015 259.644,295.721 260.072,295.840 260.072 C 295.907 260.072,296.252 259.692,296.606 259.228 C 297.263 258.366,297.343 258.041,296.709 258.806 M146.337 261.339 C 145.709 262.168,145.539 262.467,145.957 262.002 C 146.831 261.033,147.729 259.831,147.579 259.831 C 147.523 259.831,146.964 260.510,146.337 261.339 M295.262 260.736 C 294.568 261.574,294.274 262.002,294.393 262.002 C 294.460 262.002,294.804 261.622,295.159 261.158 C 295.816 260.296,295.896 259.971,295.262 260.736 M293.814 262.666 C 293.120 263.504,292.826 263.932,292.945 263.932 C 293.012 263.932,293.357 263.552,293.711 263.088 C 294.368 262.226,294.448 261.901,293.814 262.666 M292.367 264.596 C 291.673 265.434,291.379 265.862,291.498 265.862 C 291.565 265.862,291.909 265.483,292.263 265.018 C 292.921 264.156,293.000 263.831,292.367 264.596 M290.919 266.526 C 290.225 267.364,289.931 267.793,290.050 267.793 C 290.117 267.793,290.462 267.413,290.816 266.948 C 291.473 266.086,291.553 265.761,290.919 266.526 M139.414 270.024 C 138.977 270.588,138.235 271.532,137.766 272.122 C 137.296 272.711,137.031 273.122,137.177 273.035 C 137.492 272.846,140.493 268.999,140.325 268.999 C 140.262 268.999,139.852 269.460,139.414 270.024 M288.163 270.126 C 287.792 270.613,287.611 270.935,287.762 270.842 C 288.071 270.651,289.115 269.240,288.947 269.240 C 288.888 269.240,288.535 269.639,288.163 270.126 M286.716 272.056 C 286.344 272.543,286.164 272.865,286.314 272.772 C 286.623 272.581,287.667 271.170,287.500 271.170 C 287.440 271.170,287.087 271.569,286.716 272.056 M285.268 273.986 C 284.897 274.473,284.716 274.795,284.867 274.702 C 285.175 274.511,286.220 273.100,286.052 273.100 C 285.993 273.100,285.640 273.499,285.268 273.986 M283.821 275.916 C 283.449 276.403,283.268 276.725,283.419 276.632 C 283.728 276.441,284.772 275.030,284.605 275.030 C 284.545 275.030,284.192 275.429,283.821 275.916 M132.100 279.252 C 131.610 279.849,131.299 280.334,131.407 280.328 C 131.603 280.319,133.278 278.166,133.089 278.166 C 133.034 278.166,132.589 278.655,132.100 279.252 M129.932 282.087 C 129.304 282.916,129.133 283.215,129.552 282.750 C 130.425 281.781,131.323 280.579,131.174 280.579 C 131.118 280.579,130.559 281.258,129.932 282.087 M277.066 284.842 C 276.694 285.329,276.513 285.652,276.664 285.559 C 276.973 285.368,278.017 283.957,277.850 283.957 C 277.790 283.957,277.437 284.355,277.066 284.842 M275.618 286.772 C 275.247 287.259,275.066 287.582,275.216 287.489 C 275.525 287.298,276.570 285.887,276.402 285.887 C 276.342 285.887,275.990 286.285,275.618 286.772 M124.939 288.359 C 124.502 288.923,123.760 289.867,123.290 290.457 C 122.821 291.047,122.556 291.457,122.702 291.370 C 123.017 291.181,126.018 287.334,125.850 287.334 C 125.786 287.334,125.376 287.796,124.939 288.359 M274.171 288.702 C 273.799 289.189,273.618 289.512,273.769 289.419 C 274.078 289.228,275.122 287.817,274.955 287.817 C 274.895 287.817,274.542 288.215,274.171 288.702 M273.066 290.169 C 272.372 291.007,272.078 291.435,272.198 291.435 C 272.264 291.435,272.609 291.055,272.963 290.591 C 273.620 289.729,273.700 289.404,273.066 290.169 M271.619 292.099 C 270.925 292.937,270.631 293.366,270.750 293.366 C 270.817 293.366,271.161 292.986,271.516 292.521 C 272.173 291.659,272.253 291.334,271.619 292.099 M268.863 295.699 C 268.491 296.186,268.311 296.508,268.461 296.415 C 268.770 296.224,269.815 294.813,269.647 294.813 C 269.587 294.813,269.235 295.212,268.863 295.699 M116.753 298.733 C 115.787 299.961,114.622 301.426,114.164 301.990 C 113.706 302.554,113.389 303.016,113.459 303.016 C 113.530 303.016,114.594 301.740,115.825 300.181 C 117.056 298.622,118.223 297.156,118.418 296.924 C 118.613 296.692,118.713 296.502,118.640 296.502 C 118.568 296.502,117.718 297.506,116.753 298.733 M267.416 297.629 C 267.044 298.116,266.863 298.438,267.014 298.345 C 267.323 298.154,268.367 296.743,268.199 296.743 C 268.140 296.743,267.787 297.142,267.416 297.629 M94.692 301.809 C 94.958 301.923,95.338 302.017,95.537 302.017 C 95.765 302.017,95.720 301.940,95.416 301.809 C 95.151 301.695,94.771 301.602,94.572 301.602 C 94.344 301.602,94.388 301.679,94.692 301.809 M112.762 303.800 C 111.705 305.019,111.391 305.428,111.514 305.428 C 111.585 305.428,112.043 304.940,112.532 304.343 C 113.439 303.237,113.618 302.812,112.762 303.800 M262.108 304.625 C 261.736 305.112,261.556 305.435,261.706 305.342 C 262.015 305.151,263.059 303.739,262.892 303.739 C 262.832 303.739,262.479 304.138,262.108 304.625 M103.619 304.222 C 103.884 304.336,104.264 304.429,104.463 304.429 C 104.691 304.429,104.647 304.353,104.343 304.222 C 104.077 304.108,103.697 304.015,103.498 304.015 C 103.270 304.015,103.315 304.091,103.619 304.222 M105.669 304.693 C 105.869 304.828,106.239 304.940,106.494 304.942 C 107.111 304.947,106.918 304.809,106.031 304.610 C 105.503 304.492,105.405 304.515,105.669 304.693 M107.720 305.176 C 108.183 305.386,109.475 305.522,109.268 305.340 C 109.213 305.291,108.733 305.185,108.203 305.104 C 107.530 305.002,107.384 305.023,107.720 305.176 M260.660 306.555 C 260.289 307.042,260.108 307.365,260.259 307.272 C 260.567 307.081,261.612 305.669,261.444 305.669 C 261.385 305.669,261.032 306.068,260.660 306.555 M259.556 308.022 C 258.862 308.860,258.568 309.288,258.687 309.288 C 258.754 309.288,259.099 308.908,259.453 308.444 C 260.110 307.582,260.190 307.257,259.556 308.022 M257.298 310.977 C 256.685 311.773,256.238 312.425,256.305 312.425 C 256.371 312.425,256.927 311.773,257.539 310.977 C 258.152 310.181,258.599 309.530,258.532 309.530 C 258.466 309.530,257.911 310.181,257.298 310.977 M255.353 313.552 C 254.981 314.039,254.800 314.361,254.951 314.268 C 255.260 314.077,256.304 312.666,256.137 312.666 C 256.077 312.666,255.724 313.064,255.353 313.552 M143.403 316.444 C 143.237 317.326,143.672 318.002,144.377 317.957 C 144.517 317.948,144.377 317.818,144.066 317.669 C 143.573 317.432,143.519 317.278,143.647 316.479 C 143.835 315.304,143.622 315.273,143.403 316.444 M251.493 318.618 C 251.121 319.105,250.940 319.427,251.091 319.334 C 251.400 319.143,252.444 317.732,252.277 317.732 C 252.217 317.732,251.864 318.131,251.493 318.618 M250.389 320.084 C 249.694 320.922,249.400 321.351,249.520 321.351 C 249.586 321.351,249.931 320.971,250.285 320.507 C 250.943 319.645,251.022 319.319,250.389 320.084 M248.130 323.040 C 247.518 323.836,247.071 324.487,247.137 324.487 C 247.203 324.487,247.759 323.836,248.372 323.040 C 248.984 322.244,249.431 321.592,249.365 321.592 C 249.298 321.592,248.743 322.244,248.130 323.040 M243.773 328.751 C 243.401 329.238,243.220 329.560,243.371 329.467 C 243.680 329.276,244.724 327.865,244.557 327.865 C 244.497 327.865,244.144 328.263,243.773 328.751 M242.668 330.217 C 241.974 331.055,241.680 331.484,241.799 331.484 C 241.866 331.484,242.211 331.104,242.565 330.639 C 243.222 329.777,243.302 329.452,242.668 330.217 M239.912 333.817 C 239.541 334.304,239.360 334.626,239.511 334.533 C 239.820 334.343,240.864 332.931,240.696 332.931 C 240.637 332.931,240.284 333.330,239.912 333.817 M237.500 336.953 C 237.128 337.440,236.948 337.763,237.098 337.670 C 237.407 337.479,238.451 336.068,238.284 336.068 C 238.224 336.068,237.871 336.466,237.500 336.953 M235.585 339.445 C 234.972 340.241,234.525 340.893,234.592 340.893 C 234.658 340.893,235.214 340.241,235.826 339.445 C 236.439 338.649,236.886 337.998,236.820 337.998 C 236.753 337.998,236.198 338.649,235.585 339.445 M216.285 340.893 C 216.550 341.007,216.930 341.100,217.129 341.100 C 217.357 341.100,217.313 341.023,217.008 340.893 C 216.743 340.779,216.363 340.685,216.164 340.685 C 215.936 340.685,215.981 340.762,216.285 340.893 M221.592 342.340 C 221.858 342.454,222.238 342.548,222.437 342.548 C 222.665 342.548,222.620 342.471,222.316 342.340 C 222.051 342.226,221.671 342.133,221.472 342.133 C 221.244 342.133,221.288 342.209,221.592 342.340 M223.522 342.823 C 223.788 342.937,224.168 343.030,224.367 343.030 C 224.595 343.030,224.550 342.953,224.246 342.823 C 223.981 342.709,223.601 342.615,223.402 342.615 C 223.174 342.615,223.218 342.692,223.522 342.823 M225.814 343.305 C 226.639 343.569,227.273 343.569,226.659 343.305 C 226.393 343.191,225.959 343.101,225.694 343.105 C 225.306 343.111,225.329 343.150,225.814 343.305 M229.177 343.820 C 229.766 343.930,230.573 343.935,230.971 343.832 C 231.507 343.693,231.229 343.641,229.900 343.633 C 228.270 343.622,228.204 343.639,229.177 343.820 " stroke="none" fill="#fc8484" fill-rule="evenodd"></path><path id="path4" d="" stroke="none" fill="#fc7b7c" fill-rule="evenodd"></path></g></svg>