<svg width="182" height="146" xmlns="http://www.w3.org/2000/svg">
 <!-- Generator: Sketch 48 (47235) - http://www.bohemiancoding.com/sketch -->
 <title>Group</title>
 <desc>Created with Sketch.</desc>

 <g>
  <title>Layer 1</title>
  <path fill="#4D525D" id="path3" d="m135.325,106.817c-8.277,0 -14.986,-6.686 -14.986,-14.933l0,-34.49l0,-2.394c0,-8.248 -6.71,-14.933 -14.986,-14.933c-8.277,0 -13.517,6.686 -13.517,14.933l0,3.066l0,33.817c0,8.247 -8.18,14.933 -16.456,14.933c-8.277,0 -14.986,-6.686 -14.986,-14.933l0,-8.42l0,-25.82c-0.148,-0.082 -0.299,-0.156 -0.447,-0.237l0,-2.406c0,-8.248 -5.368,-14.933 -13.644,-14.933c-8.277,0 -14.986,6.686 -14.986,14.933l0,3.055c0,0 0.447,34.921 2.237,44.74c1.789,9.82 7.605,15.869 15.21,23.903c7.605,8.034 -4.026,26.533 -19.236,16.267c-15.21,-10.266 -22.93,-23.301 -25.499,-40.17c-2.618,-17.175 -4.029,-47.47 -4.029,-47.47c0,0 0.597,-10.855 2,-13.283c5.669,-18.325 22.757,-31.639 42.96,-31.639c11.623,0 22.216,4.408 30.196,11.641c7.98,-7.233 18.573,-11.641 30.197,-11.641c20.202,0 37.29,13.314 42.959,31.639c1.403,2.428 2,13.283 2,13.283l0,28.139l0,8.42c0,8.247 -6.71,14.933 -14.987,14.933z"/>
  <path fill="#FCD600" id="path5" d="m46.22,39.174c8.277,0 14.986,6.686 14.986,14.933l0,34.49l0,2.394c0,8.248 6.71,14.934 14.986,14.934c8.277,0 14.987,-6.686 14.987,-14.934l0,-3.066l0,-33.818c0,-8.247 6.709,-14.933 14.986,-14.933c8.277,0 14.987,6.686 14.987,14.933l0,8.42l0,25.82c0.148,0.082 0.299,0.156 0.447,0.237l0,2.407c0,8.248 5.368,14.934 13.644,14.934c8.277,0 14.986,-6.686 14.986,-14.934l0,-3.055c0,0 -0.447,-34.921 -2.237,-44.74c-1.79,-9.819 -7.605,-15.869 -15.21,-23.903c-7.605,-8.034 4.026,-26.533 19.236,-16.267c15.21,10.266 22.93,23.301 25.499,40.17c2.616,17.175 4.026,47.47 4.026,47.47c0,0 -0.597,10.855 -2,13.283c-5.669,18.325 -22.757,31.639 -42.96,31.639c-11.623,0 -22.216,-4.408 -30.196,-11.641c-7.98,7.233 -18.573,11.641 -30.197,11.641c-20.202,0 -37.29,-13.314 -42.959,-31.639c-1.403,-2.428 -2,-13.283 -2,-13.283l0,-28.139l0,-8.42c0.003,-8.247 6.712,-14.933 14.989,-14.933z"/>
 </g>
</svg>