<?xml version="1.0" encoding="UTF-8"?>
<svg width="662px" height="625px" viewBox="0 0 662 625" version="1.1" xmlns="http://www.w3.org/2000/svg" xmlns:xlink="http://www.w3.org/1999/xlink">
    <g id="Artboard" stroke="none" stroke-width="1" fill="none" fill-rule="evenodd">
        <g id="logo" transform="translate(97.000000, 78.000000)" fill-rule="nonzero">
            <path d="M289.771513,179.590007 C197.542766,87.3651596 107.658058,27.7228373 89.0071563,46.3776392 C70.3523554,65.0324402 129.994677,154.917149 222.219524,247.141996 C314.444371,339.366842 404.329079,399.009165 422.983881,380.354363 C441.638682,361.703462 381.99636,271.818753 289.771513,179.590007 Z" id="Path" fill="#F98B00"></path>
            <path d="M295.621859,173.73966 C170.705282,48.8191829 42.1614895,-25.1681861 8.5103031,8.48300124 C-25.1369843,42.1302876 48.8503848,170.67798 173.766962,295.594557 C298.683539,420.511134 427.231231,494.498504 460.878519,460.851217 C494.529706,427.20003 420.542336,298.656239 295.621859,173.73966 Z M422.983881,380.354363 C404.332979,399.009165 314.444371,339.366842 222.219524,247.141996 C129.994677,154.913249 70.3523554,65.0285402 89.0071563,46.3776392 C107.658058,27.7228373 197.546666,87.3651596 289.771513,179.590007 C381.99636,271.814853 441.638682,361.699561 422.983881,380.354363 Z" id="Shape" fill="#FFEC6C"></path>
            <path d="M405.097424,234.665159 C405.097424,328.777717 328.805019,405.070122 234.696361,405.070122 C140.583802,405.070122 64.2913969,328.777717 64.2913969,234.665159 C64.2913969,140.556501 140.583802,64.2640951 234.696361,64.2640951 C328.805019,64.2640951 405.097424,140.556501 405.097424,234.665159 Z" id="Path" fill="#FFA300"></path>
            <path d="M321.246373,105.512931 C264.388814,48.6553737 170.00714,50.8473027 110.442822,110.41162 C50.8746045,169.979839 48.6826746,264.361512 105.540233,321.219071 C162.401691,378.080528 256.783366,375.884699 316.347683,316.320381 C375.912001,256.756064 378.10783,162.374389 321.246373,105.512931 Z" id="Path" fill="#FFBE00"></path>
            <path d="M384.652417,297.599276 C383.985477,297.599276 383.299037,297.568074 382.612596,297.50567 C271.59644,286.920445 183.002708,198.701134 171.957255,87.7473817 C170.794987,76.0427907 179.340392,65.6096753 191.044983,64.4435062 C202.749574,63.281237 213.18269,71.822742 214.352759,83.523433 C223.401294,174.281792 295.851973,246.439954 386.649335,255.094565 C397.960003,256.174929 406.431303,265.945006 405.900872,277.298576 C405.366541,288.652147 396.013788,297.583675 384.652417,297.599276 L384.652417,297.599276 Z" id="Path" fill="#FFA300"></path>
            <path d="M384.652417,297.599276 C383.965976,297.599276 383.299037,297.568074 382.593095,297.50567 C374.422113,296.721724 366.297933,295.512652 358.255658,293.878456 C346.734377,291.526616 339.296638,280.286153 341.636776,268.764873 C343.980815,257.239692 355.217378,249.794153 366.742559,252.13039 C373.326148,253.468169 379.979941,254.458827 386.668836,255.094565 C397.975604,256.18663 406.439103,265.960607 405.900872,277.306377 C405.36264,288.656047 396.009888,297.583675 384.652417,297.599276 L384.652417,297.599276 Z" id="Path" fill="#F98B00"></path>
            <path d="M367.822923,209.153767 C364.293215,209.153767 360.818109,208.2723 357.713526,206.595201 C313.204097,182.417673 277.641796,144.577638 256.264634,98.6563267 C251.326943,87.9852965 255.972118,75.3290483 266.647048,70.3874572 C277.318078,65.4497651 289.974325,70.0949397 294.915917,80.7698699 C312.416251,118.36029 341.53147,149.328119 377.975223,169.110088 C386.559629,173.751361 390.892786,183.630644 388.494144,193.088704 C386.099402,202.546762 377.581299,209.165453 367.822923,209.153767 Z" id="Path" fill="#FFA300"></path>
            <path d="M319.896892,394.418605 C184.835816,394.418605 74.9429214,284.537404 74.9429214,149.464627 C74.9351253,137.693732 84.4711882,128.149868 96.2420839,128.149868 C108.01298,128.149868 117.549042,137.693732 117.541241,149.464627 C117.541241,261.042416 208.319103,351.820278 319.896892,351.820278 C331.667788,351.812478 341.211651,361.348541 341.211651,373.119435 C341.211651,384.890331 331.667788,394.430294 319.896892,394.418605 L319.896892,394.418605 Z" id="Path" fill="#FFA300"></path>
            <path d="M319.896892,394.419 C287.876001,394.477098 256.159329,388.217227 226.56048,376.001706 C215.682738,371.524241 210.499332,359.074706 214.980696,348.196964 C219.462061,337.323122 231.911596,332.139716 242.785438,336.62498 C267.243783,346.703175 293.445531,351.86708 319.896892,351.820278 C331.667788,351.812478 341.211651,361.348541 341.211651,373.119435 C341.211651,384.890331 331.667788,394.430294 319.896892,394.419 L319.896892,394.419 Z" id="Path" fill="#F98B00"></path>
            <path d="M173.766962,295.594557 C225.987147,347.814741 278.749463,390.947388 325.041297,421.224877 L375.56098,370.709093 C336.566477,349.679051 279.849327,304.7718 222.219524,247.141996 C164.58972,189.508292 119.682469,132.795043 98.6524267,93.8005392 L48.1366434,144.320224 C78.4141307,190.612057 121.546778,243.374373 173.766962,295.594557 L173.766962,295.594557 Z" id="Path" fill="#FFEC6C"></path>
            <path d="M96.3863921,197.141134 C89.7364997,197.160544 83.4571293,194.055961 79.4359916,188.759447 C61.2765191,164.971942 -27.4849235,44.4587259 8.50250214,8.48300124 C15.9831434,1.00235895 27.8203428,0.148209252 36.299444,6.47438236 C44.7785443,12.8044565 47.3253954,24.395941 42.2823969,33.6940902 C42.84403,46.8846687 60.1922546,93.3325115 113.297791,162.924322 C118.208181,169.359702 119.04283,178.022114 115.458519,185.276542 C111.870307,192.53487 104.48327,197.133242 96.3863921,197.141134 Z" id="Shape" fill="#FFFF9D"></path>
            <path d="M351.535561,434.03714 C347.62363,434.03714 343.785803,432.95677 340.447206,430.916949 C288.52734,399.215877 229.329644,351.153338 173.766962,295.594557 C153.92259,275.750185 135.162483,255.695201 118.040471,236.018538 C110.333616,227.137714 111.277472,213.68972 120.154396,205.975065 C129.02742,198.256509 142.479315,199.192564 150.201771,208.061687 C166.676344,227.001206 184.73051,246.315146 203.888441,265.473078 C257.138286,318.715122 313.512216,364.55843 362.662918,394.555101 C370.810499,399.535696 374.648325,409.325274 372.058573,418.514216 C369.46882,427.699259 361.083325,434.044934 351.535561,434.03714 L351.535561,434.03714 Z" id="Path" fill="#FFFF9D"></path>
            <path d="M437.235322,468.971496 C423.98624,468.971496 407.823685,464.739746 387.811603,456.034432 C377.035267,451.330755 372.105376,438.779813 376.801253,427.999577 C381.497131,417.21544 394.044172,412.281649 404.828308,416.969725 C423.98624,425.308418 433.63931,426.338079 437.071513,426.369281 C446.467167,422.13363 457.547722,425.234313 463.382466,433.732916 C469.217211,442.227617 468.132947,453.682593 460.804414,460.933122 C455.418196,466.268637 447.469526,468.971496 437.235322,468.971496 L437.235322,468.971496 Z" id="Shape" fill="#FFFF9D"></path>
            <g id="Group" fill="#D6DEFF">
                <path d="M85.5905546,255.968217 C85.5905546,267.731311 76.0544916,277.267374 64.2913969,277.267374 C52.5283022,277.267374 42.9922393,267.731311 42.9922393,255.968217 C42.9922393,244.205122 52.5283022,234.665159 64.2913969,234.665159 C76.0544916,234.665159 85.5905546,244.205122 85.5905546,255.968217 L85.5905546,255.968217 Z" id="Path"></path>
                <path d="M383.798266,21.6618788 C383.798266,33.4249735 374.262203,42.9610374 362.499109,42.9610374 C350.732114,42.9610374 341.19605,33.4249735 341.19605,21.6618788 C341.19605,9.8987841 350.732114,0.362721172 362.499109,0.362721172 C374.262203,0.362721172 383.798266,9.8987841 383.798266,21.6618788 Z" id="Path"></path>
                <path d="M468.998798,138.813098 C468.998798,144.698546 464.232717,149.464627 458.35117,149.464627 C452.465721,149.464627 447.69964,144.698546 447.69964,138.813098 C447.69964,132.931551 452.465721,128.165469 458.35117,128.165469 C464.232717,128.165469 468.998798,132.931551 468.998798,138.813098 Z" id="Path"></path>
                <path d="M21.6891807,394.418594 C21.6891807,400.304041 16.9230997,405.070122 11.0415523,405.070122 C5.15610401,405.070122 0.390023034,400.304041 0.390023034,394.418594 C0.390023034,388.537046 5.15610401,383.770964 11.0415523,383.770964 C16.9230997,383.770964 21.6891807,388.537046 21.6891807,394.418594 Z" id="Path"></path>
                <path d="M213.393302,458.319968 C213.393302,464.205415 208.627221,468.971496 202.745674,468.971496 C196.860226,468.971496 192.094145,464.205415 192.094145,458.319968 C192.094145,452.43842 196.860226,447.672338 202.745674,447.672338 C208.627221,447.672338 213.393302,452.43842 213.393302,458.319968 Z" id="Path"></path>
                <path d="M426.400483,298.566533 C426.400483,310.333528 416.860519,319.869591 405.097424,319.869591 C393.334329,319.869591 383.798266,310.333528 383.798266,298.566533 C383.798266,286.803438 393.334329,277.267374 405.097424,277.267374 C416.860519,277.267374 426.400483,286.803438 426.400483,298.566533 Z" id="Path"></path>
                <path d="M85.5905546,11.0103505 C85.5905546,16.8957978 80.8244736,21.6618788 74.9429262,21.6618788 C69.0574779,21.6618788 64.2913969,16.8957978 64.2913969,11.0103505 C64.2913969,5.12880315 69.0574779,0.362721172 74.9429262,0.362721172 C80.8244736,0.362721172 85.5905546,5.12880315 85.5905546,11.0103505 Z" id="Path"></path>
            </g>
        </g>
    </g>
</svg>