<svg id="Layer_1" data-name="Layer 1" xmlns="http://www.w3.org/2000/svg" viewBox="0 0 400 400"><defs><style>.cls-1{fill:#59b3e5;}</style></defs><path class="cls-1" d="M291.9,194.9c-24.5,7.9-46.2,5-67.2-10.5-5.2,5.7-10.2,11.6-15.6,16.9-27.3,27.2-54.8,54.2-82.1,81.3l-1.5,1.4c-3.7,3.5-8,4-10.5.9s-1-6.7,1.9-9.6q28.2-27.6,56.2-55.4l40.2-39.7,3.3-3.6c-15.3-19.2-20.3-40.6-12.7-65.4-2.2,1.1-3.4,1.7-4.5,2.4L80,188.5c-2.1,1.3-4.2,3.2-6.5,3.4s-5.9-.6-6.7-2.2-.1-5.2.9-7.5,3.2-2.3,4.9-3.4q70.4-44,140.6-88a69,69,0,0,0,9.2-6.9c19.7-17,42.2-21.7,66.6-13.4s38.5,25.4,43.3,50.1c3.3,16.7.2,32.8-9,47.4q-26.9,42.8-53.5,85.7l-46.5,75.2c-.9,1.4-1.8,3.4-3.1,3.7s-5.6,1.4-7.1.3-1.9-4.5-1.9-7,1.4-2.9,2.3-4.3l75-121C289.5,199.1,290.3,197.6,291.9,194.9Zm-64.6-26c1-1.7,1.7-3.8,3.1-5.1,8.3-8.3,16.6-16.4,25-24.5,2.8-2.7,5.9-3.4,8.8-.5s2.3,6-.4,8.8l-3.6,3.5-24.5,25.4c18,16.3,53.6,12.5,72-8A53.6,53.6,0,0,0,302.9,92a54.3,54.3,0,0,0-77.4,6C206.4,120.4,209.4,151.4,227.3,168.9Z"/><path class="cls-1" d="M223.2,131.1c.4-22.1,20.6-42,42.4-41.8,4,0,7.1,1.3,7.3,5.7s-2.7,5.8-6.8,6.1c-17.5,1.4-29,12.8-31.1,30.2-.3,2.5-1.7,5.6-3.7,6.9C227.3,140.7,223.2,136.9,223.2,131.1Z"/></svg>