<svg width="100" height="100" viewBox="0 0 100 100" fill="none" xmlns="http://www.w3.org/2000/svg">
<circle cx="49.5" cy="49.5" r="48.5" fill="white"/>
<path d="M84.1164 67.9096C87.9843 61.2333 85.7045 52.7079 79.0244 48.8674C72.3442 45.027 63.7933 47.326 59.9254 54.0023C56.0576 60.6786 58.3374 69.204 65.0175 73.0445C71.6977 76.8849 80.2486 74.5859 84.1164 67.9096Z" fill="black"/>
<path d="M53.23 41.5051C60.6896 39.5899 65.1693 31.9787 63.2356 24.5051C61.302 17.0314 53.6873 12.5254 46.2277 14.4406C38.7681 16.3558 34.2884 23.967 36.222 31.4406C38.1556 38.9142 45.7703 43.4203 53.23 41.5051Z" fill="black"/>
<path d="M40.1904 54.2717C38.7258 51.611 36.4355 49.5004 33.666 48.2593C30.8965 47.0183 27.7987 46.7143 24.8413 47.3934C21.8839 48.0726 19.2279 49.6978 17.2753 52.0232C15.3227 54.3486 14.1798 57.2475 14.0195 60.2813C13.8592 63.3151 14.6903 66.3187 16.387 68.8373C18.0836 71.356 20.5536 73.2527 23.4229 74.2405C26.2922 75.2282 29.4048 75.2532 32.2896 74.3116C35.1744 73.3701 37.6744 71.5132 39.4111 69.0221L42.0887 73.0236C42.409 73.505 42.8208 73.9184 43.3008 74.2403C43.7807 74.5622 44.3193 74.7862 44.8858 74.8996C45.4523 75.0129 46.0355 75.0134 46.6022 74.9009C47.1688 74.7884 47.7077 74.5652 48.1882 74.244C48.6691 73.9229 49.0821 73.51 49.4037 73.029C49.7252 72.548 49.949 72.0083 50.0622 71.4407C50.1754 70.8731 50.1758 70.2887 50.0634 69.721C49.951 69.1532 49.728 68.6132 49.4071 68.1318L40.1904 54.2717ZM33.0769 61.0191C33.0784 62.226 32.6546 63.3948 31.8802 64.3196C31.1058 65.2445 30.0303 65.8661 28.8431 66.0751C27.656 66.2841 26.4332 66.067 25.3902 65.4621C24.3472 64.8572 23.5507 63.9033 23.141 62.7682C22.7313 61.6332 22.7346 60.3898 23.1505 59.257C23.5663 58.1242 24.3679 57.1746 25.4142 56.5753C26.4605 55.9761 27.6844 55.7657 28.8704 55.9811C30.0564 56.1965 31.1285 56.8239 31.8979 57.7529L32.4824 58.6333C32.8717 59.3682 33.0757 60.1872 33.0769 61.0191Z" fill="black"/>
<circle cx="50" cy="50" r="48" stroke="black" stroke-width="4"/>
</svg>
