<?xml version="1.0" encoding="UTF-8"?>
<svg width="200pt" height="200pt" style="isolation:isolate" viewBox="0 0 200 200" xmlns="http://www.w3.org/2000/svg">
<path d="m197 124.19c-13.356 53.571-67.616 86.174-121.19 72.814-53.556-13.356-86.159-67.618-72.797-121.19 13.35-53.577 67.61-86.183 121.17-72.827 53.575 13.356 86.175 67.624 72.819 121.2z" fill="#ff0"/>
<path d="m147.58 87.592c1.991-13.306-8.14-20.459-21.993-25.231l4.493-18.024-10.972-2.735-4.375 17.55c-2.884-0.719-5.846-1.397-8.79-2.069l4.406-17.665-10.966-2.735-4.496 18.019c-2.388-0.544-4.732-1.081-7.007-1.647l0.013-0.056-15.131-3.778-2.919 11.718s8.14 1.866 7.969 1.982c4.443 1.109 5.246 4.05 5.112 6.381l-5.119 20.534c0.307 0.078 0.703 0.191 1.141 0.366-0.366-0.091-0.756-0.191-1.159-0.288l-7.175 28.765c-0.544 1.35-1.922 3.375-5.029 2.607 0.11 0.159-7.975-1.991-7.975-1.991l-5.446 12.559 14.278 3.56c2.656 0.665 5.259 1.362 7.822 2.018l-4.541 18.232 10.959 2.734 4.497-18.037c2.994 0.812 5.9 1.562 8.744 2.268l-4.481 17.953 10.972 2.735 4.54-18.197c18.71 3.54 32.778 2.112 38.7-14.809 4.772-13.625-0.237-21.485-10.081-26.609 7.169-1.654 12.569-6.369 14.009-16.11zm-25.068 35.153c-3.391 13.625-26.332 6.259-33.769 4.413l6.025-24.153c7.437 1.856 31.287 5.531 27.744 19.74zm3.393-35.35c-3.093 12.394-22.187 6.097-28.381 4.554l5.463-21.907c6.193 1.544 26.14 4.425 22.918 17.353z" fill="#5e016b"/>
<path d="m63.071 111.49-9.512-2.342 4.625-18.783q0.519-2.107 0.476-3.491-0.042-1.383-1.307-1.694-1.444-0.356-3.22 1.41-1.776 1.765-2.621 5.197l-3.913 15.893-9.572-2.357 4.625-18.783q0.519-2.107 0.506-3.483-0.012-1.375-1.337-1.702-1.505-0.37-3.265 1.463-1.76 1.834-2.65 5.446l-3.839 15.592-9.512-2.342 3.854-15.653q0.889-3.612 0.963-6.116t-0.218-4.172q-0.307-1.863-0.958-3.109l8.238-0.526q0.334 0.721 0.683 1.637 0.319 0.781 0.511 1.946 0.192 1.164 0.227 2.578 2.141-2.474 5.026-3.169 2.885-0.694 6.015 0.077 2.649 0.652 4.045 2.113 1.397 1.461 1.931 3.7 2.099-1.782 4.503-2.212 2.405-0.429 5.053 0.223 2.348 0.578 3.728 1.716t1.98 2.722 0.539 3.645q-0.06 2.06-0.638 4.408l-4.966 20.168z" fill="#5e016b"/>
<mask id="b">
<ellipse cx="100" cy="100" rx="100" ry="99.999" fill="#fff" vector-effect="non-scaling-stroke"/>
</mask>
<ellipse cx="100" cy="100" rx="100" ry="99.999" fill="none" vector-effect="non-scaling-stroke"/>
<ellipse cx="100" cy="100" rx="100" ry="99.999" fill="none" mask="url(#b)" stroke="#5e016b" stroke-dasharray="0,0" stroke-linecap="square" stroke-miterlimit="3" stroke-width="12" vector-effect="non-scaling-stroke"/>
<mask id="a">
<ellipse cx="100" cy="100" rx="90.625" ry="90.624" fill="#fff" vector-effect="non-scaling-stroke"/>
</mask>
<ellipse cx="100" cy="100" rx="90.625" ry="90.624" fill="none" vector-effect="non-scaling-stroke"/>
<ellipse cx="100" cy="100" rx="90.625" ry="90.624" fill="none" mask="url(#a)" stroke="#5e016b" stroke-dasharray="0,0" stroke-linecap="square" stroke-miterlimit="3" stroke-width="6" vector-effect="non-scaling-stroke"/>
</svg>
