<svg width="136" height="40" viewBox="0 0 136 40" fill="none" xmlns="http://www.w3.org/2000/svg">
<path d="M49.2754 30.3379H60.5034V26.8099H53.1954V10.7379H49.2754V30.3379ZM63.9918 30.3379H75.5278V26.8099H67.9118V22.0779H75.3318V18.6619H67.9118V14.2659H75.4718V10.7379H63.9918V30.3379ZM79.4191 30.3379H83.0591V20.1179C83.0591 18.9699 83.0311 17.7659 82.9191 16.9259C83.3111 17.5139 83.7591 18.0459 84.2071 18.5499L94.1191 30.3379H96.6671V10.7379H93.0831V20.5099C93.0831 21.6579 93.1111 22.8619 93.2231 23.7019C92.8311 23.1139 92.3831 22.5819 91.9351 22.0779L82.3871 10.7379H79.4191V30.3379ZM100.862 30.3379H107.862C114.638 30.3379 117.914 26.1659 117.914 20.5659C117.914 14.9379 114.638 10.7379 107.862 10.7379H100.862V30.3379ZM104.782 26.8099V14.2659H107.386C112.034 14.2659 113.854 17.0099 113.854 20.5659C113.854 24.1219 112.034 26.8099 107.386 26.8099H104.782ZM127.24 30.7019C131.692 30.7019 134.408 28.2939 134.408 24.7379C134.408 20.2579 130.376 19.2499 128.08 18.5219C126.372 17.9899 124.972 17.5139 124.972 16.0579C124.972 14.7419 126.12 13.9019 127.688 13.9019C129.144 13.9019 130.04 14.6019 130.992 16.1139L134.352 14.0419C132.896 11.7459 130.936 10.4019 127.884 10.4019C123.74 10.4019 120.968 12.7259 120.968 16.2539C120.968 19.2219 122.9 20.9859 125.924 21.7699C128.332 22.3859 130.404 23.0019 130.404 24.9619C130.404 26.3059 129.284 27.2019 127.464 27.2019C125.756 27.2019 124.132 26.3339 123.124 24.3179L119.736 26.4739C121.444 29.4699 124.132 30.7019 127.24 30.7019Z" fill="black"/>
<path fill-rule="evenodd" clip-rule="evenodd" d="M13.898 39.2451L2.04533 25.5825C0.887857 24.2483 0.688841 22.3324 1.54737 20.7888L5.43539 13.7619C5.43539 13.7619 4.72863 14.6835 5.9592 18.9753C7.78183 23.7432 10.4781 25.4635 15.1782 31.2543C16.3357 32.5885 16.5347 34.5043 15.6762 36.048L13.898 39.2451Z" fill="#0BBBFA"/>
<path fill-rule="evenodd" clip-rule="evenodd" d="M23.0486 0.00196739L34.9013 13.6646C36.0588 14.9988 36.2578 16.9146 35.3993 18.4583L31.5113 25.4852C31.5113 25.4852 32.218 24.5635 30.9875 20.2718C29.1648 15.5038 26.4685 13.7835 21.7684 7.9928C20.6109 6.65858 20.4119 4.74274 21.2705 3.1991L23.0486 0.00196739Z" fill="#0BBBFA"/>
<path fill-rule="evenodd" clip-rule="evenodd" d="M18.4029 31.249L11.1255 22.997C7.13326 18.4701 6.40381 11.927 9.29988 6.62765L12.0649 1.56808L14.4798 4.30641C15.6488 5.632 15.8629 7.5476 15.0153 9.09854L14.734 9.61333L14.7255 9.62722C13.489 11.6595 13.2148 13.3121 13.4773 14.7457C13.7439 16.2022 14.5826 17.5383 15.7781 18.8939L19.618 23.248C20.7863 24.5728 21.0009 26.487 20.1549 28.0375L18.4029 31.249Z" fill="#0BBBFA"/>
<path fill-rule="evenodd" clip-rule="evenodd" d="M18.2148 8.42774L25.4922 16.6797C29.4844 21.2066 30.2139 27.7498 27.3178 33.0491L24.5528 38.1087L22.1379 35.3703C20.9688 34.0448 20.7548 32.1292 21.6024 30.5782L21.8837 30.0634L21.8921 30.0495C23.1287 28.0173 23.4028 26.3646 23.1404 24.9311C22.8738 23.4746 22.0351 22.1385 20.8395 20.7828L16.9997 16.4287C15.8314 15.104 15.6168 13.1898 16.4627 11.6392L18.2148 8.42774Z" fill="#0BBBFA"/>
</svg>
