<?xml version="1.0" encoding="utf-8"?>
<svg viewBox="1.0178 0.002 34.911 39.2431" xmlns="http://www.w3.org/2000/svg">
  <path fill-rule="evenodd" clip-rule="evenodd" d="M13.898 39.2451L2.04533 25.5825C0.887857 24.2483 0.688841 22.3324 1.54737 20.7888L5.43539 13.7619C5.43539 13.7619 4.72863 14.6835 5.9592 18.9753C7.78183 23.7432 10.4781 25.4635 15.1782 31.2543C16.3357 32.5885 16.5347 34.5043 15.6762 36.048L13.898 39.2451Z" fill="#0BBBFA" transform="matrix(1, 0, 0, 1, 0, -1.7763568394002505e-15)"/>
  <path fill-rule="evenodd" clip-rule="evenodd" d="M23.0486 0.00196739L34.9013 13.6646C36.0588 14.9988 36.2578 16.9146 35.3993 18.4583L31.5113 25.4852C31.5113 25.4852 32.218 24.5635 30.9875 20.2718C29.1648 15.5038 26.4685 13.7835 21.7684 7.9928C20.6109 6.65858 20.4119 4.74274 21.2705 3.1991L23.0486 0.00196739Z" fill="#0BBBFA" transform="matrix(1, 0, 0, 1, 0, -1.7763568394002505e-15)"/>
  <path fill-rule="evenodd" clip-rule="evenodd" d="M18.4029 31.249L11.1255 22.997C7.13326 18.4701 6.40381 11.927 9.29988 6.62765L12.0649 1.56808L14.4798 4.30641C15.6488 5.632 15.8629 7.5476 15.0153 9.09854L14.734 9.61333L14.7255 9.62722C13.489 11.6595 13.2148 13.3121 13.4773 14.7457C13.7439 16.2022 14.5826 17.5383 15.7781 18.8939L19.618 23.248C20.7863 24.5728 21.0009 26.487 20.1549 28.0375L18.4029 31.249Z" fill="#0BBBFA" transform="matrix(1, 0, 0, 1, 0, -1.7763568394002505e-15)"/>
  <path fill-rule="evenodd" clip-rule="evenodd" d="M18.2148 8.42774L25.4922 16.6797C29.4844 21.2066 30.2139 27.7498 27.3178 33.0491L24.5528 38.1087L22.1379 35.3703C20.9688 34.0448 20.7548 32.1292 21.6024 30.5782L21.8837 30.0634L21.8921 30.0495C23.1287 28.0173 23.4028 26.3646 23.1404 24.9311C22.8738 23.4746 22.0351 22.1385 20.8395 20.7828L16.9997 16.4287C15.8314 15.104 15.6168 13.1898 16.4627 11.6392L18.2148 8.42774Z" fill="#0BBBFA" transform="matrix(1, 0, 0, 1, 0, -1.7763568394002505e-15)"/>
</svg>
