<?xml version="1.0" standalone="no"?>
<!DOCTYPE svg PUBLIC "-//W3C//DTD SVG 20010904//EN"
 "http://www.w3.org/TR/2001/REC-SVG-20010904/DTD/svg10.dtd">
<svg version="1.0" xmlns="http://www.w3.org/2000/svg"
 width="600.000000pt" height="600.000000pt" viewBox="0 0 600.000000 600.000000"
 preserveAspectRatio="xMidYMid meet">
<metadata>
Created by potrace 1.16, written by Peter Selinger 2001-2019
</metadata>
<g transform="translate(0.000000,600.000000) scale(0.100000,-0.100000)"
fill="#000000" stroke="none">
<path d="M1090 5184 c0 -13 68 -79 75 -73 2 3 -13 23 -35 44 -22 22 -40 35
-40 29z"/>
<path d="M1430 5184 c0 -13 68 -79 75 -73 2 3 -13 23 -35 44 -22 22 -40 35
-40 29z"/>
<path d="M1500 5184 c0 -6 14 -23 30 -39 l30 -29 -37 -38 c-20 -21 -33 -38
-27 -38 5 0 27 17 47 38 l37 38 -40 39 c-22 21 -40 34 -40 29z"/>
<path d="M1560 5185 c0 -9 210 -218 215 -213 6 5 -198 218 -209 218 -3 0 -6
-2 -6 -5z"/>
<path d="M1800 5155 c-42 -44 -35 -55 10 -15 l34 30 33 -32 33 -32 35 34 35
34 16 -22 c8 -12 25 -27 37 -33 16 -9 13 -1 -13 27 -19 21 -36 41 -38 43 -1 3
-18 -11 -37 -29 l-35 -34 -33 32 c-18 18 -35 32 -38 32 -3 0 -20 -16 -39 -35z"/>
<path d="M2275 5150 c-22 -22 -35 -40 -29 -40 13 0 79 68 73 75 -3 2 -23 -13
-44 -35z"/>
<path d="M3659 5167 c-14 -12 -32 -31 -40 -41 -12 -17 -12 -19 1 -11 26 16 51
40 61 58 13 22 9 22 -22 -6z"/>
<path d="M3712 5156 c-20 -19 -34 -37 -31 -40 3 -3 23 12 44 34 48 49 39 53
-13 6z"/>
<path d="M3950 5184 c0 -11 62 -74 73 -74 4 0 20 14 36 31 l29 30 37 -32 36
-32 34 33 c19 19 32 36 30 39 -3 2 -19 -8 -35 -24 l-30 -29 -36 35 c-30 29
-37 32 -47 19 -7 -8 -22 -24 -35 -34 -22 -19 -22 -19 -57 14 -19 19 -35 29
-35 24z"/>
<path d="M4360 5184 c0 -13 68 -79 75 -73 2 3 -13 23 -35 44 -22 22 -40 35
-40 29z"/>
<path d="M4430 5184 c0 -6 14 -23 30 -39 l30 -29 -32 -33 c-17 -18 -29 -35
-27 -38 3 -2 22 12 42 33 l37 38 -40 39 c-22 21 -40 34 -40 29z"/>
<path d="M4525 5150 c38 -39 45 -45 45 -35 0 10 -63 75 -73 75 -6 0 7 -18 28
-40z"/>
<path d="M4840 5184 c0 -13 68 -79 75 -73 2 3 -13 23 -35 44 -22 22 -40 35
-40 29z"/>
<path d="M2340 5145 c-19 -19 -29 -35 -24 -35 6 0 25 16 44 35 19 19 29 35 24
35 -6 0 -25 -16 -44 -35z"/>
<path d="M1802 5087 c-18 -18 -32 -37 -32 -43 0 -6 16 -25 35 -44 19 -19 35
-29 35 -24 0 6 -11 21 -25 34 -32 30 -32 37 7 77 18 18 27 33 22 33 -6 0 -24
-15 -42 -33z"/>
<path d="M2652 5047 l-72 -73 30 -29 c36 -35 37 -41 5 -71 -32 -30 -32 -35 7
-73 40 -39 52 -31 13 9 -27 28 -27 30 -11 55 10 14 24 29 32 32 12 4 8 14 -20
42 l-36 37 64 63 63 63 36 -32 36 -31 37 36 c44 45 38 59 -7 16 l-33 -32 -31
31 c-17 16 -33 30 -36 30 -2 0 -37 -33 -77 -73z"/>
<path d="M3162 5084 c-43 -45 -35 -56 9 -15 l33 32 33 -33 33 -32 40 39 c22
21 37 41 35 44 -3 2 -21 -11 -40 -29 l-35 -34 -33 32 c-18 18 -35 32 -37 31
-3 0 -20 -16 -38 -35z"/>
<path d="M4187 5082 l-37 -37 67 -67 67 -68 -34 -35 c-19 -19 -30 -35 -24 -35
5 0 41 32 79 70 38 39 65 70 59 70 -6 0 -23 -14 -39 -30 l-29 -30 -63 62 -63
62 32 33 c17 18 29 35 27 38 -3 2 -22 -12 -42 -33z"/>
<path d="M4290 5112 c0 -10 63 -72 74 -72 9 0 -57 80 -66 80 -5 0 -8 -4 -8 -8z"/>
<path d="M1185 5010 c21 -22 41 -37 44 -35 6 7 -60 75 -73 75 -6 0 7 -18 29
-40z"/>
<path d="M1255 5010 c21 -22 41 -37 44 -35 6 7 -60 75 -73 75 -6 0 7 -18 29
-40z"/>
<path d="M2180 5044 c0 -6 16 -25 35 -44 19 -19 35 -29 35 -24 0 6 -16 25 -35
44 -19 19 -35 29 -35 24z"/>
<path d="M3367 5012 l-37 -38 30 -29 c16 -16 30 -33 30 -37 0 -5 -14 -21 -30
-37 l-30 -27 40 -39 c22 -21 40 -34 40 -29 0 6 -11 21 -25 34 -14 13 -25 29
-25 36 0 6 11 19 25 28 14 9 25 22 25 29 0 8 -11 24 -25 37 -32 30 -32 37 7
77 18 18 27 33 22 33 -5 0 -27 -17 -47 -38z"/>
<path d="M3775 5010 c21 -22 41 -37 44 -35 6 7 -60 75 -73 75 -6 0 7 -18 29
-40z"/>
<path d="M4255 5010 c21 -22 41 -37 44 -35 6 7 -60 75 -73 75 -6 0 7 -18 29
-40z"/>
<path d="M4710 5035 c20 -28 61 -68 65 -63 6 5 -6 19 -45 53 -20 17 -28 21
-20 10z"/>
<path d="M4770 5045 c0 -13 268 -280 274 -274 3 3 -58 68 -134 144 -77 77
-140 135 -140 130z"/>
<path d="M1665 4950 c-22 -22 -34 -40 -29 -40 6 0 21 11 34 25 29 31 41 31 70
0 l24 -25 -34 -35 c-19 -19 -29 -35 -24 -35 6 0 25 16 44 35 l33 34 -40 40
-40 40 -38 -39z"/>
<path d="M1090 4978 c0 -11 59 -72 65 -67 2 3 -11 21 -30 39 -19 19 -35 31
-35 28z"/>
<path d="M1376 4958 c31 -37 57 -59 62 -53 7 7 -59 75 -72 75 -5 0 -1 -10 10
-22z"/>
<path d="M1430 4975 c0 -11 122 -135 133 -135 5 0 -4 15 -21 34 -39 44 -112
110 -112 101z"/>
<path d="M1970 4915 c-35 -35 -62 -67 -59 -69 3 -3 36 26 74 64 38 39 65 70
59 70 -5 0 -38 -29 -74 -65z"/>
<path d="M2280 4945 c-19 -19 -29 -35 -23 -35 7 0 18 8 25 18 25 35 38 35 74
1 19 -18 34 -28 34 -23 0 10 -61 74 -71 74 -3 0 -20 -16 -39 -35z"/>
<path d="M2930 4976 c0 -9 60 -70 64 -65 2 2 -9 19 -25 37 -27 30 -39 38 -39
28z"/>
<path d="M3020 4945 c19 -19 38 -35 44 -35 5 0 -5 16 -24 35 -19 19 -38 35
-44 35 -5 0 5 -16 24 -35z"/>
<path d="M3626 4958 c10 -12 28 -30 39 -39 19 -17 21 -16 53 14 17 17 32 35
32 41 0 5 -15 -4 -33 -22 l-32 -31 -32 29 c-37 35 -55 40 -27 8z"/>
<path d="M3980 4945 c-18 -19 -31 -37 -29 -40 3 -2 23 13 44 35 22 22 35 40
29 40 -6 0 -25 -16 -44 -35z"/>
<path d="M4525 4940 c21 -22 41 -37 44 -35 6 7 -60 75 -73 75 -6 0 7 -18 29
-40z"/>
<path d="M4595 4940 c21 -22 41 -37 44 -35 6 7 -60 75 -73 75 -6 0 7 -18 29
-40z"/>
<path d="M5110 4914 c0 -13 68 -79 75 -73 2 3 -13 23 -35 44 -22 22 -40 35
-40 29z"/>
<path d="M845 4870 c21 -22 41 -37 44 -35 6 7 -60 75 -73 75 -6 0 7 -18 29
-40z"/>
<path d="M1050 4875 c19 -19 39 -35 44 -35 6 0 -6 16 -27 35 -49 45 -61 45
-17 0z"/>
<path d="M1250 4875 c-19 -19 -29 -35 -24 -35 6 0 25 16 44 35 19 19 29 35 24
35 -6 0 -25 -16 -44 -35z"/>
<path d="M2410 4875 c-19 -19 -29 -35 -24 -35 6 0 25 16 44 35 19 19 29 35 24
35 -6 0 -25 -16 -44 -35z"/>
<path d="M3570 4875 c-19 -19 -29 -35 -24 -35 6 0 25 16 44 35 19 19 29 35 24
35 -6 0 -25 -16 -44 -35z"/>
<path d="M4050 4875 c-19 -19 -29 -35 -24 -35 13 0 69 58 63 65 -3 2 -21 -11
-39 -30z"/>
<path d="M4430 4905 c0 -9 65 -64 69 -59 6 5 -50 64 -61 64 -4 0 -8 -2 -8 -5z"/>
<path d="M4625 4770 c-77 -77 -135 -140 -130 -140 6 0 73 63 150 140 77 77
135 140 130 140 -6 0 -73 -63 -150 -140z"/>
<path d="M950 4844 c0 -13 68 -79 75 -73 2 3 -13 23 -35 44 -22 22 -40 35 -40
29z"/>
<path d="M1158 4845 c-4 -4 9 -23 28 -43 19 -19 36 -33 39 -30 3 3 -9 22 -27
42 -19 21 -36 34 -40 31z"/>
<path d="M1325 4810 c-22 -22 -35 -40 -29 -40 13 0 79 68 73 75 -3 2 -23 -13
-44 -35z"/>
<path d="M1500 4842 c0 -4 16 -23 35 -42 19 -19 35 -30 35 -25 0 4 -16 23 -35
42 -19 19 -35 30 -35 25z"/>
<path d="M3031 4814 c-19 -19 -31 -37 -29 -39 2 -3 20 11 38 30 18 19 31 37
29 40 -3 2 -20 -11 -38 -31z"/>
<path d="M4430 4844 c0 -6 16 -25 35 -44 19 -19 35 -29 35 -24 0 6 -16 25 -35
44 -19 19 -35 29 -35 24z"/>
<path d="M2921 4775 c-35 -36 -62 -68 -59 -70 5 -6 138 119 138 129 0 16 -20
1 -79 -59z"/>
<path d="M4800 4805 c18 -19 36 -32 39 -30 6 7 -50 65 -63 65 -5 0 5 -16 24
-35z"/>
<path d="M950 4774 c0 -13 68 -79 75 -73 2 3 -13 23 -35 44 -22 22 -40 35 -40
29z"/>
<path d="M1120 4745 c-18 -19 -31 -37 -29 -40 3 -2 21 11 39 30 18 19 31 37
29 40 -3 2 -21 -11 -39 -30z"/>
<path d="M1395 4749 c-39 -34 -48 -60 -12 -33 24 19 62 64 53 64 -3 0 -21 -14
-41 -31z"/>
<path d="M1840 4774 c0 -6 16 -25 35 -44 19 -19 35 -29 35 -24 0 6 -16 25 -35
44 -19 19 -35 29 -35 24z"/>
<path d="M2005 4740 c-22 -22 -35 -40 -29 -40 13 0 79 68 73 75 -3 2 -23 -13
-44 -35z"/>
<path d="M2720 4772 c0 -12 70 -75 77 -69 5 6 -62 77 -72 77 -3 0 -5 -4 -5 -8z"/>
<path d="M3060 4705 c-41 -41 -70 -75 -64 -75 13 0 149 138 143 144 -3 3 -38
-28 -79 -69z"/>
<path d="M3200 4774 c0 -13 68 -79 75 -73 2 3 -13 23 -35 44 -22 22 -40 35
-40 29z"/>
<path d="M3947 4708 c-37 -39 -65 -73 -63 -76 5 -5 146 134 146 143 0 14 -22
-4 -83 -67z"/>
<path d="M4090 4774 c0 -6 16 -25 35 -44 19 -19 35 -29 35 -24 0 6 -16 25 -35
44 -19 19 -35 29 -35 24z"/>
<path d="M4765 4640 c-76 -77 -137 -142 -134 -144 3 -3 68 57 144 134 76 77
137 142 134 144 -3 3 -68 -57 -144 -134z"/>
<path d="M4970 4775 c0 -7 37 -44 65 -65 19 -14 19 -14 6 5 -31 42 -71 76 -71
60z"/>
<path d="M1185 4670 c-22 -22 -35 -40 -29 -40 13 0 79 68 73 75 -3 2 -23 -13
-44 -35z"/>
<path d="M1460 4675 c-18 -19 -31 -37 -29 -40 3 -2 21 11 39 30 18 19 31 37
29 40 -3 2 -21 -11 -39 -30z"/>
<path d="M1595 4670 c21 -22 41 -37 44 -35 6 7 -60 75 -73 75 -6 0 7 -18 29
-40z"/>
<path d="M2071 4674 c-19 -18 -32 -36 -29 -39 6 -6 78 60 78 70 0 12 -18 1
-49 -31z"/>
<path d="M2180 4704 c0 -6 16 -25 35 -44 19 -19 35 -29 35 -24 0 6 -16 25 -35
44 -19 19 -35 29 -35 24z"/>
<path d="M2480 4675 c-18 -19 -31 -37 -29 -40 3 -2 23 13 44 35 22 22 35 40
29 40 -6 0 -25 -16 -44 -35z"/>
<path d="M2955 4670 c-22 -22 -35 -40 -29 -40 13 0 79 68 73 75 -3 2 -23 -13
-44 -35z"/>
<path d="M3507 4673 c-21 -20 -35 -38 -32 -41 3 -3 22 11 42 31 21 20 35 39
32 41 -3 3 -22 -11 -42 -31z"/>
<path d="M3750 4704 c0 -6 16 -25 35 -44 19 -19 35 -29 35 -24 0 6 -16 25 -35
44 -19 19 -35 29 -35 24z"/>
<path d="M4360 4704 c0 -13 68 -79 75 -73 2 3 -13 23 -35 44 -22 22 -40 35
-40 29z"/>
<path d="M1028 4625 c13 -26 60 -70 67 -63 6 5 -17 32 -54 63 l-24 20 11 -20z"/>
<path d="M1250 4604 c-17 -20 -29 -39 -26 -42 3 -3 7 -3 9 -1 1 2 18 21 36 42
19 20 30 37 24 37 -6 0 -25 -16 -43 -36z"/>
<path d="M1360 4635 c0 -6 69 -75 75 -75 11 0 3 11 -30 45 -34 33 -45 41 -45
30z"/>
<path d="M1595 4600 c21 -22 41 -37 44 -35 6 7 -60 75 -73 75 -6 0 7 -18 29
-40z"/>
<path d="M1910 4634 c0 -6 16 -25 35 -44 19 -19 35 -29 35 -24 0 6 -16 25 -35
44 -19 19 -35 29 -35 24z"/>
<path d="M2480 4605 c-18 -19 -31 -37 -29 -40 3 -2 23 13 44 35 22 22 35 40
29 40 -6 0 -25 -16 -44 -35z"/>
<path d="M2820 4605 c-18 -19 -31 -37 -29 -40 3 -2 23 13 44 35 22 22 35 40
29 40 -6 0 -25 -16 -44 -35z"/>
<path d="M3125 4570 c-38 -38 -65 -70 -59 -70 5 0 41 32 79 70 38 39 65 70 59
70 -5 0 -41 -31 -79 -70z"/>
<path d="M3500 4605 c-18 -19 -31 -37 -29 -40 3 -2 23 13 44 35 22 22 35 40
29 40 -6 0 -25 -16 -44 -35z"/>
<path d="M4020 4636 c0 -9 70 -80 70 -71 0 6 -14 25 -31 43 -28 30 -39 38 -39
28z"/>
<path d="M4360 4636 c0 -10 69 -80 74 -75 3 3 -9 22 -28 42 -30 33 -46 44 -46
33z"/>
<path d="M4595 4600 c21 -22 41 -37 44 -35 6 7 -60 75 -73 75 -6 0 7 -18 29
-40z"/>
<path d="M4935 4600 c21 -22 41 -37 44 -35 6 7 -60 75 -73 75 -6 0 7 -18 29
-40z"/>
<path d="M845 4530 c21 -22 41 -37 44 -35 6 7 -60 75 -73 75 -6 0 7 -18 29
-40z"/>
<path d="M1053 4531 c56 -62 100 -102 106 -96 5 6 -124 135 -135 135 -3 0 10
-18 29 -39z"/>
<path d="M1320 4535 c-18 -19 -31 -37 -29 -40 3 -2 23 13 44 35 22 22 35 40
29 40 -6 0 -25 -16 -44 -35z"/>
<path d="M1497 4506 c-37 -36 -67 -68 -67 -72 0 -9 25 12 75 61 92 92 86 101
-8 11z"/>
<path d="M2000 4535 c-19 -19 -29 -35 -24 -35 6 0 25 16 44 35 19 19 29 35 24
35 -6 0 -25 -16 -44 -35z"/>
<path d="M2210 4535 c-19 -19 -29 -35 -24 -35 6 0 25 16 44 35 19 19 29 35 24
35 -6 0 -25 -16 -44 -35z"/>
<path d="M2688 4541 c-18 -16 -30 -32 -27 -35 3 -3 21 10 39 29 41 42 33 46
-12 6z"/>
<path d="M2890 4535 c-18 -19 -31 -37 -29 -40 3 -2 23 13 44 35 22 22 35 40
29 40 -6 0 -25 -16 -44 -35z"/>
<path d="M3300 4535 c-18 -19 -31 -37 -29 -40 3 -2 23 13 44 35 22 22 35 40
29 40 -6 0 -25 -16 -44 -35z"/>
<path d="M3781 4539 c-17 -17 -31 -36 -31 -42 0 -5 16 7 35 28 20 20 34 39 31
42 -2 3 -18 -10 -35 -28z"/>
<path d="M3980 4535 c-18 -19 -31 -37 -29 -40 3 -2 23 13 44 35 22 22 35 40
29 40 -6 0 -25 -16 -44 -35z"/>
<path d="M4460 4535 c-19 -19 -30 -35 -24 -35 5 0 24 16 43 35 18 19 29 35 24
35 -5 0 -24 -16 -43 -35z"/>
<path d="M4930 4535 c19 -19 38 -35 44 -35 5 0 -5 16 -24 35 -19 19 -38 35
-44 35 -5 0 5 -16 24 -35z"/>
<path d="M5144 4531 c22 -22 42 -38 45 -36 6 7 -39 54 -64 67 -11 6 -2 -8 19
-31z"/>
<path d="M920 4475 l-34 -35 -33 32 c-18 17 -35 29 -38 27 -2 -3 12 -22 33
-42 l38 -37 39 40 c21 22 36 42 34 45 -3 2 -21 -11 -39 -30z"/>
<path d="M4530 4474 c-19 -18 -32 -35 -29 -38 3 -3 21 10 39 29 44 45 36 53
-10 9z"/>
<path d="M5075 4470 c-21 -22 -34 -40 -29 -40 6 0 23 14 39 30 l29 30 33 -32
c18 -17 35 -29 38 -27 2 3 -12 22 -33 42 l-38 37 -39 -40z"/>
<path d="M1160 4498 c0 -11 59 -72 65 -67 2 3 -11 21 -30 39 -19 19 -35 31
-35 28z"/>
<path d="M1800 4465 c-19 -19 -29 -35 -24 -35 13 0 69 58 63 65 -3 2 -21 -11
-39 -30z"/>
<path d="M4150 4435 c-35 -35 -62 -67 -59 -69 3 -3 36 26 74 64 38 39 65 70
59 70 -5 0 -38 -29 -74 -65z"/>
<path d="M4800 4465 c19 -19 38 -35 44 -35 5 0 -5 16 -24 35 -19 19 -38 35
-44 35 -5 0 5 -16 24 -35z"/>
<path d="M4840 4496 c0 -10 61 -68 67 -63 6 7 -47 67 -59 67 -5 0 -8 -2 -8 -4z"/>
<path d="M810 4436 c0 -11 212 -217 218 -211 2 2 -33 41 -79 87 -103 101 -139
134 -139 124z"/>
<path d="M1290 4434 c0 -13 68 -79 75 -73 2 3 -13 23 -35 44 -22 22 -40 35
-40 29z"/>
<path d="M1360 4434 c0 -13 68 -79 75 -73 2 3 -13 23 -35 44 -22 22 -40 35
-40 29z"/>
<path d="M1800 4404 c-19 -18 -32 -35 -29 -38 3 -3 21 10 39 29 44 45 36 53
-10 9z"/>
<path d="M1870 4405 c-18 -19 -31 -37 -29 -40 3 -2 21 11 39 30 18 19 31 37
29 40 -3 2 -21 -11 -39 -30z"/>
<path d="M2345 4400 c-22 -22 -35 -40 -29 -40 13 0 79 68 73 75 -3 2 -23 -13
-44 -35z"/>
<path d="M2415 4400 c-22 -22 -35 -40 -29 -40 13 0 79 68 73 75 -3 2 -23 -13
-44 -35z"/>
<path d="M2825 4400 c-22 -22 -35 -40 -29 -40 13 0 79 68 73 75 -3 2 -23 -13
-44 -35z"/>
<path d="M3165 4400 c-22 -22 -35 -40 -29 -40 13 0 79 68 73 75 -3 2 -23 -13
-44 -35z"/>
<path d="M3571 4398 c-18 -21 -29 -38 -24 -38 14 0 76 67 66 72 -4 3 -23 -13
-42 -34z"/>
<path d="M3646 4404 c-21 -19 -36 -38 -32 -41 5 -5 76 62 76 73 0 8 -5 4 -44
-32z"/>
<path d="M4190 4405 c-18 -19 -31 -37 -29 -40 3 -2 21 11 39 30 18 19 31 37
29 40 -3 2 -21 -11 -39 -30z"/>
<path d="M4560 4435 c0 -6 70 -75 76 -75 9 0 2 10 -32 44 -35 35 -44 41 -44
31z"/>
<path d="M4630 4434 c0 -13 68 -79 75 -73 2 3 -13 23 -35 44 -22 22 -40 35
-40 29z"/>
<path d="M5110 4434 c0 -13 68 -79 75 -73 2 3 -13 23 -35 44 -22 22 -40 35
-40 29z"/>
<path d="M1052 4337 c-18 -18 -32 -37 -32 -43 0 -6 16 -25 35 -44 l35 -34 35
34 c19 19 35 38 35 44 0 5 -16 -5 -35 -24 l-35 -34 -25 24 c-32 30 -32 37 7
77 18 18 27 33 22 33 -6 0 -24 -15 -42 -33z"/>
<path d="M1935 4330 c21 -22 41 -37 44 -35 6 7 -60 75 -73 75 -6 0 7 -18 29
-40z"/>
<path d="M2071 4334 c-18 -19 -31 -37 -28 -40 6 -6 77 60 77 71 0 12 -17 1
-49 -31z"/>
<path d="M2210 4335 c-18 -19 -31 -37 -29 -40 3 -2 21 11 39 30 18 19 31 37
29 40 -3 2 -21 -11 -39 -30z"/>
<path d="M2930 4364 c0 -6 16 -25 35 -44 19 -19 35 -29 35 -24 0 6 -16 25 -35
44 -19 19 -35 29 -35 24z"/>
<path d="M3000 4364 c0 -6 16 -25 35 -44 19 -19 35 -29 35 -24 0 6 -16 25 -35
44 -19 19 -35 29 -35 24z"/>
<path d="M3780 4335 c-18 -19 -31 -37 -29 -40 3 -2 21 11 39 30 18 19 31 37
29 40 -3 2 -21 -11 -39 -30z"/>
<path d="M3912 4333 c-18 -20 -31 -38 -28 -40 5 -5 76 59 76 69 0 15 -16 6
-48 -29z"/>
<path d="M4020 4364 c0 -6 16 -25 35 -44 19 -19 35 -29 35 -24 0 6 -16 25 -35
44 -19 19 -35 29 -35 24z"/>
<path d="M4907 4302 c-68 -69 -96 -114 -32 -52 l35 34 68 -67 68 -67 39 40
c21 22 34 40 29 40 -6 0 -23 -14 -39 -30 l-29 -30 -63 62 -63 62 32 33 c17 18
29 35 27 38 -3 2 -35 -26 -72 -63z"/>
<path d="M5040 4363 c0 -14 70 -76 77 -69 6 5 -17 30 -60 65 -9 7 -17 9 -17 4z"/>
<path d="M5005 4260 c21 -22 41 -37 44 -35 6 7 -60 75 -73 75 -6 0 7 -18 29
-40z"/>
<path d="M841 4194 l-33 -36 33 -34 33 -34 -33 -34 -33 -34 24 -23 c14 -13 33
-31 43 -39 17 -14 18 -14 7 7 -7 12 -22 29 -34 37 l-22 16 34 35 34 35 -34 35
c-20 21 -31 39 -25 43 22 16 58 62 48 62 -5 0 -24 -16 -42 -36z"/>
<path d="M910 4195 c-18 -19 -31 -37 -29 -40 3 -3 18 9 34 25 16 17 34 30 40
30 6 0 24 -13 40 -30 16 -16 31 -28 34 -25 7 7 -60 75 -74 75 -6 0 -26 -16
-45 -35z"/>
<path d="M1530 4195 c-19 -19 -30 -35 -24 -35 12 1 69 59 62 65 -2 3 -20 -11
-38 -30z"/>
<path d="M1593 4195 c-18 -19 -27 -35 -20 -34 7 0 25 16 40 35 37 44 22 43
-20 -1z"/>
<path d="M2210 4195 c-19 -19 -29 -35 -24 -35 13 0 69 58 63 65 -3 2 -21 -11
-39 -30z"/>
<path d="M2282 4198 c-18 -17 -30 -33 -28 -35 2 -3 19 9 37 26 18 17 30 33 27
36 -2 3 -19 -9 -36 -27z"/>
<path d="M2890 4195 c-19 -19 -29 -35 -24 -35 6 0 25 16 44 35 19 19 29 35 24
35 -6 0 -25 -16 -44 -35z"/>
<path d="M2960 4195 c-19 -19 -29 -35 -24 -35 13 0 69 58 63 65 -3 2 -21 -11
-39 -30z"/>
<path d="M3027 4195 c-15 -19 -24 -35 -20 -35 8 0 63 58 63 66 0 13 -19 -1
-43 -31z"/>
<path d="M3091 4195 c-17 -19 -28 -35 -23 -35 4 0 23 16 42 35 19 19 29 35 24
35 -6 0 -25 -16 -43 -35z"/>
<path d="M3710 4195 c-18 -19 -31 -37 -29 -40 3 -2 21 11 39 30 18 19 31 37
29 40 -3 2 -21 -11 -39 -30z"/>
<path d="M3782 4199 c-18 -17 -32 -36 -32 -42 0 -6 16 5 36 26 45 46 41 59 -4
16z"/>
<path d="M4390 4195 c-18 -19 -31 -37 -29 -40 3 -2 23 13 44 35 22 22 35 40
29 40 -6 0 -25 -16 -44 -35z"/>
<path d="M4425 4160 c-38 -38 -65 -70 -59 -70 5 0 41 32 79 70 38 39 65 70 59
70 -5 0 -41 -31 -79 -70z"/>
<path d="M5140 4195 l-34 -35 34 -35 33 -35 -31 -30 c-18 -17 -32 -34 -32 -38
0 -11 64 -72 75 -72 5 0 -6 16 -25 35 -33 35 -33 35 -14 57 10 13 26 28 34 35
13 10 10 17 -19 47 l-35 36 34 35 c19 19 29 35 24 35 -6 0 -25 -16 -44 -35z"/>
<path d="M1250 4125 c19 -19 38 -35 44 -35 5 0 -5 16 -24 35 -19 19 -38 35
-44 35 -5 0 5 -16 24 -35z"/>
<path d="M1590 4125 c-18 -19 -31 -37 -29 -40 3 -2 23 13 44 35 22 22 35 40
29 40 -6 0 -25 -16 -44 -35z"/>
<path d="M2000 4125 c19 -19 38 -35 44 -35 5 0 -5 16 -24 35 -19 19 -38 35
-44 35 -5 0 5 -16 24 -35z"/>
<path d="M2375 4090 c38 -38 74 -70 79 -70 6 0 -21 32 -59 70 -38 39 -74 70
-79 70 -6 0 21 -31 59 -70z"/>
<path d="M2685 4130 c-16 -16 -26 -32 -24 -35 3 -2 21 11 39 30 19 19 29 35
24 35 -6 0 -23 -13 -39 -30z"/>
<path d="M3300 4125 c-18 -19 -31 -37 -29 -40 3 -2 23 13 44 35 22 22 35 40
29 40 -6 0 -25 -16 -44 -35z"/>
<path d="M3640 4125 c19 -19 38 -35 44 -35 5 0 -5 16 -24 35 -19 19 -38 35
-44 35 -5 0 5 -16 24 -35z"/>
<path d="M3980 4125 c19 -19 38 -35 44 -35 5 0 -5 16 -24 35 -19 19 -38 35
-44 35 -5 0 5 -16 24 -35z"/>
<path d="M4730 4125 c19 -19 38 -35 44 -35 5 0 -5 16 -24 35 -19 19 -38 35
-44 35 -5 0 5 -16 24 -35z"/>
<path d="M1360 4094 c0 -13 68 -79 75 -73 2 3 -13 23 -35 44 -22 22 -40 35
-40 29z"/>
<path d="M2685 4060 c-22 -22 -35 -40 -29 -40 13 0 79 68 73 75 -3 2 -23 -13
-44 -35z"/>
<path d="M1080 4025 c-35 -35 -62 -67 -59 -69 3 -3 36 26 74 64 38 39 65 70
59 70 -5 0 -38 -29 -74 -65z"/>
<path d="M1660 4055 c19 -19 38 -35 44 -35 5 0 -5 16 -24 35 -19 19 -38 35
-44 35 -5 0 5 -16 24 -35z"/>
<path d="M3301 4061 c-33 -31 -43 -53 -13 -30 35 28 64 59 54 59 -5 0 -24 -13
-41 -29z"/>
<path d="M3570 4055 c19 -19 38 -35 44 -35 5 0 -5 16 -24 35 -19 19 -38 35
-44 35 -5 0 5 -16 24 -35z"/>
<path d="M4320 4055 c19 -19 38 -35 44 -35 5 0 -5 16 -24 35 -19 19 -38 35
-44 35 -5 0 5 -16 24 -35z"/>
<path d="M4581 4064 c24 -26 59 -49 59 -39 0 9 -63 65 -73 65 -6 0 0 -12 14
-26z"/>
<path d="M4865 4060 c-16 -16 -26 -32 -24 -35 3 -2 21 11 39 30 19 19 29 35
24 35 -6 0 -23 -13 -39 -30z"/>
<path d="M1255 3990 c-22 -22 -35 -40 -29 -40 13 0 79 68 73 75 -3 2 -23 -13
-44 -35z"/>
<path d="M1460 3995 c-18 -19 -31 -37 -29 -40 3 -2 21 11 39 30 18 19 31 37
29 40 -3 2 -21 -11 -39 -30z"/>
<path d="M1840 4024 c0 -13 68 -79 75 -73 2 3 -13 23 -35 44 -22 22 -40 35
-40 29z"/>
<path d="M2040 4027 c0 -12 69 -81 75 -75 2 2 -13 22 -35 43 -22 22 -40 36
-40 32z"/>
<path d="M2250 4024 c0 -6 16 -25 35 -44 19 -19 35 -29 35 -24 0 6 -16 25 -35
44 -19 19 -35 29 -35 24z"/>
<path d="M2482 3994 c-18 -20 -31 -38 -28 -41 5 -5 76 62 76 72 0 13 -18 1
-48 -31z"/>
<path d="M3505 3990 c-22 -22 -35 -40 -29 -40 13 0 79 68 73 75 -3 2 -23 -13
-44 -35z"/>
<path d="M3680 4024 c0 -13 68 -79 75 -73 2 3 -13 23 -35 44 -22 22 -40 35
-40 29z"/>
<path d="M3880 4024 c0 -10 140 -147 145 -142 5 5 -133 148 -141 148 -2 0 -4
-3 -4 -6z"/>
<path d="M4090 4024 c0 -6 16 -25 35 -44 19 -19 35 -29 35 -24 0 6 -16 25 -35
44 -19 19 -35 29 -35 24z"/>
<path d="M4530 3995 c-18 -19 -31 -37 -29 -40 3 -2 21 11 39 30 18 19 31 37
29 40 -3 2 -21 -11 -39 -30z"/>
<path d="M4696 3959 c-38 -38 -67 -72 -64 -74 5 -5 148 131 148 140 0 14 -22
-4 -84 -66z"/>
<path d="M4935 3990 c-22 -22 -35 -40 -29 -40 13 0 79 68 73 75 -3 2 -23 -13
-44 -35z"/>
<path d="M1321 3925 c-19 -20 -32 -38 -29 -41 6 -5 37 23 67 59 25 31 -4 17
-38 -18z"/>
<path d="M1663 3923 c-18 -21 -30 -40 -27 -42 4 -5 74 65 74 74 0 14 -18 1
-47 -32z"/>
<path d="M2005 3920 c21 -22 41 -37 43 -35 6 6 -63 75 -75 75 -4 0 10 -18 32
-40z"/>
<path d="M2480 3925 c-18 -19 -31 -38 -27 -42 4 -3 8 -4 10 -2 1 2 18 21 36
42 44 47 27 49 -19 2z"/>
<path d="M2620 3925 c-18 -19 -31 -37 -29 -40 3 -2 21 11 39 30 18 19 31 37
29 40 -3 2 -21 -11 -39 -30z"/>
<path d="M2820 3925 c-18 -19 -31 -37 -29 -40 3 -2 23 13 44 35 22 22 35 40
29 40 -6 0 -25 -16 -44 -35z"/>
<path d="M2930 3954 c0 -6 16 -25 35 -44 19 -19 35 -29 35 -24 0 6 -16 25 -35
44 -19 19 -35 29 -35 24z"/>
<path d="M3025 3920 c21 -22 41 -37 44 -35 6 7 -60 75 -73 75 -6 0 7 -18 29
-40z"/>
<path d="M3166 3925 c-21 -20 -36 -38 -33 -41 5 -5 77 61 77 71 0 8 -4 6 -44
-30z"/>
<path d="M3370 3925 c-18 -19 -31 -37 -29 -40 3 -2 21 11 39 30 18 19 31 37
29 40 -3 2 -21 -11 -39 -30z"/>
<path d="M3506 3924 c-20 -20 -34 -39 -31 -42 3 -4 22 11 42 31 46 49 37 58
-11 11z"/>
<path d="M4322 3924 c-37 -40 -37 -59 -1 -21 37 37 52 57 43 57 -5 0 -24 -16
-42 -36z"/>
<path d="M980 3785 c19 -19 38 -35 44 -35 5 0 -5 16 -24 35 -19 19 -38 35 -44
35 -5 0 5 -16 24 -35z"/>
<path d="M1320 3785 c19 -19 38 -35 44 -35 5 0 -5 16 -24 35 -19 19 -38 35
-44 35 -5 0 5 -16 24 -35z"/>
<path d="M1460 3785 c-19 -19 -29 -35 -24 -35 13 0 69 58 63 65 -3 2 -21 -11
-39 -30z"/>
<path d="M1660 3785 c-19 -19 -29 -35 -24 -35 6 0 25 16 44 35 19 19 29 35 24
35 -6 0 -25 -16 -44 -35z"/>
<path d="M1800 3785 c-19 -19 -29 -35 -24 -35 13 0 69 58 63 65 -3 2 -21 -11
-39 -30z"/>
<path d="M2261 3794 c13 -14 33 -30 44 -36 12 -6 6 4 -14 26 -19 20 -39 36
-45 36 -5 0 1 -12 15 -26z"/>
<path d="M2622 3788 c-18 -17 -30 -33 -27 -36 3 -3 20 8 37 26 18 17 30 34 27
37 -3 2 -20 -9 -37 -27z"/>
<path d="M3372 3788 c-42 -40 -33 -49 10 -10 18 17 30 33 27 36 -3 3 -20 -8
-37 -26z"/>
<path d="M3680 3812 c0 -12 130 -135 137 -128 5 5 -121 136 -132 136 -3 0 -5
-4 -5 -8z"/>
<path d="M4180 3785 c-19 -19 -30 -35 -24 -35 10 1 74 56 74 65 0 13 -19 2
-50 -30z"/>
<path d="M4320 3785 c-19 -19 -29 -35 -24 -35 6 0 25 16 44 35 19 19 29 35 24
35 -6 0 -25 -16 -44 -35z"/>
<path d="M4525 3785 c-42 -37 -42 -46 1 -19 20 14 52 55 42 54 -2 0 -21 -16
-43 -35z"/>
<path d="M4660 3785 c19 -19 38 -35 44 -35 5 0 -5 16 -24 35 -19 19 -38 35
-44 35 -5 0 5 -16 24 -35z"/>
<path d="M5005 3780 c21 -22 41 -37 44 -35 6 7 -60 75 -73 75 -6 0 7 -18 29
-40z"/>
<path d="M845 3720 c-22 -22 -35 -40 -29 -40 13 0 79 68 73 75 -3 2 -23 -13
-44 -35z"/>
<path d="M3165 3720 c-22 -22 -35 -40 -29 -40 13 0 79 68 73 75 -3 2 -23 -13
-44 -35z"/>
<path d="M3540 3754 c0 -13 68 -79 75 -73 2 3 -13 23 -35 44 -22 22 -40 35
-40 29z"/>
<path d="M1070 3737 c-8 -7 -24 -22 -34 -35 -19 -22 -19 -22 14 -57 19 -19 38
-35 44 -35 5 0 -4 15 -22 33 -18 18 -32 36 -32 40 0 3 12 17 27 31 28 26 30
44 3 23z"/>
<path d="M1801 3719 c-18 -17 -30 -34 -26 -37 3 -3 20 8 37 26 39 43 31 51
-11 11z"/>
<path d="M2000 3715 c19 -19 38 -35 44 -35 5 0 -5 16 -24 35 -19 19 -38 35
-44 35 -5 0 5 -16 24 -35z"/>
<path d="M2210 3715 c35 -37 46 -44 34 -22 -13 23 -47 57 -58 57 -5 0 5 -16
24 -35z"/>
<path d="M2410 3715 c19 -19 38 -35 44 -35 5 0 -5 16 -24 35 -19 19 -38 35
-44 35 -5 0 5 -16 24 -35z"/>
<path d="M2820 3715 c-19 -19 -29 -35 -24 -35 6 0 25 16 44 35 19 19 29 35 24
35 -6 0 -25 -16 -44 -35z"/>
<path d="M3980 3715 c19 -19 38 -35 44 -35 5 0 -5 16 -24 35 -19 19 -38 35
-44 35 -5 0 5 -16 24 -35z"/>
<path d="M4185 3720 c-16 -16 -26 -32 -24 -35 3 -2 21 11 39 30 19 19 29 35
24 35 -6 0 -23 -13 -39 -30z"/>
<path d="M4933 3718 l-32 -33 35 -38 c20 -21 38 -36 41 -33 3 2 -9 20 -26 38
l-30 33 31 32 c18 18 27 33 22 33 -6 0 -24 -15 -41 -32z"/>
<path d="M5140 3715 c-19 -19 -29 -35 -24 -35 6 0 25 16 44 35 19 19 29 35 24
35 -6 0 -25 -16 -44 -35z"/>
<path d="M845 3650 c-22 -22 -35 -40 -29 -40 13 0 79 68 73 75 -3 2 -23 -13
-44 -35z"/>
<path d="M1595 3650 c-22 -22 -35 -40 -29 -40 13 0 79 68 73 75 -3 2 -23 -13
-44 -35z"/>
<path d="M1840 3684 c0 -5 32 -41 70 -79 39 -38 70 -65 70 -59 0 5 -31 41 -70
79 -38 38 -70 65 -70 59z"/>
<path d="M2590 3684 c0 -13 68 -79 75 -73 2 3 -13 23 -35 44 -22 22 -40 35
-40 29z"/>
<path d="M2860 3684 c0 -13 68 -79 75 -73 2 3 -13 23 -35 44 -22 22 -40 35
-40 29z"/>
<path d="M3071 3673 c24 -31 61 -64 66 -59 3 2 -12 21 -32 40 -39 38 -56 48
-34 19z"/>
<path d="M3340 3684 c0 -6 16 -25 35 -44 19 -19 35 -29 35 -24 0 6 -16 25 -35
44 -19 19 -35 29 -35 24z"/>
<path d="M4090 3684 c0 -6 16 -25 35 -44 19 -19 35 -29 35 -24 0 6 -16 25 -35
44 -19 19 -35 29 -35 24z"/>
<path d="M4394 3655 c-20 -19 -34 -38 -30 -42 5 -6 76 63 76 74 0 8 -12 0 -46
-32z"/>
<path d="M5146 3657 c-43 -42 -47 -56 -8 -28 35 25 57 50 49 57 -3 3 -21 -10
-41 -29z"/>
<path d="M1120 3585 c-18 -19 -31 -37 -29 -40 3 -2 21 11 39 30 18 19 31 37
29 40 -3 2 -21 -11 -39 -30z"/>
<path d="M1595 3580 c-22 -22 -35 -40 -29 -40 13 0 79 68 73 75 -3 2 -23 -13
-44 -35z"/>
<path d="M2250 3614 c0 -6 16 -25 35 -44 19 -19 35 -29 35 -24 0 6 -16 25 -35
44 -19 19 -35 29 -35 24z"/>
<path d="M2685 3580 c-22 -22 -35 -40 -29 -40 13 0 79 68 73 75 -3 2 -23 -13
-44 -35z"/>
<path d="M3265 3550 c-70 -70 -89 -106 -25 -46 60 57 104 106 99 111 -3 2 -36
-27 -74 -65z"/>
<path d="M3680 3614 c0 -13 68 -79 75 -73 2 3 -13 23 -35 44 -22 22 -40 35
-40 29z"/>
<path d="M4020 3614 c0 -6 16 -25 35 -44 19 -19 35 -29 35 -24 0 6 -16 25 -35
44 -19 19 -35 29 -35 24z"/>
<path d="M4390 3585 c-44 -46 -35 -53 12 -9 20 18 33 36 29 38 -4 3 -23 -10
-41 -29z"/>
<path d="M4870 3585 c-18 -19 -31 -37 -29 -40 3 -2 21 11 39 30 18 19 31 37
29 40 -3 2 -21 -11 -39 -30z"/>
<path d="M1320 3515 c-18 -19 -31 -37 -29 -40 3 -2 23 13 44 35 22 22 35 40
29 40 -6 0 -25 -16 -44 -35z"/>
<path d="M1390 3515 c-18 -19 -31 -37 -29 -40 3 -2 23 13 44 35 22 22 35 40
29 40 -6 0 -25 -16 -44 -35z"/>
<path d="M2001 3513 c-18 -19 -31 -37 -28 -39 5 -6 77 60 77 70 0 13 -16 2
-49 -31z"/>
<path d="M2070 3515 c-18 -19 -31 -37 -29 -40 3 -2 23 13 44 35 22 22 35 40
29 40 -6 0 -25 -16 -44 -35z"/>
<path d="M2690 3515 c-18 -19 -31 -37 -29 -40 3 -2 21 11 39 30 18 19 31 37
29 40 -3 2 -21 -11 -39 -30z"/>
<path d="M2755 3515 c-21 -19 -36 -38 -32 -41 3 -4 23 10 43 30 48 48 40 55
-11 11z"/>
<path d="M3300 3515 c-18 -19 -31 -37 -29 -40 3 -2 23 13 44 35 22 22 35 40
29 40 -6 0 -25 -16 -44 -35z"/>
<path d="M3910 3515 c-18 -19 -31 -37 -28 -41 6 -5 78 61 78 72 0 12 -20 0
-50 -31z"/>
<path d="M3980 3515 c-18 -19 -31 -37 -29 -40 3 -2 23 13 44 35 22 22 35 40
29 40 -6 0 -25 -16 -44 -35z"/>
<path d="M4595 3510 c-22 -22 -35 -40 -29 -40 13 0 79 68 73 75 -3 2 -23 -13
-44 -35z"/>
<path d="M4660 3515 c-18 -19 -31 -38 -27 -41 3 -4 12 0 19 8 49 54 60 68 52
68 -6 0 -25 -16 -44 -35z"/>
<path d="M2890 3445 c18 -19 36 -32 39 -30 6 7 -50 65 -63 65 -5 0 5 -16 24
-35z"/>
<path d="M3095 3440 c21 -22 41 -37 44 -35 6 7 -60 75 -73 75 -6 0 7 -18 29
-40z"/>
<path d="M950 3344 l-75 -75 33 -30 c36 -32 35 -38 -12 -82 -11 -9 -17 -20
-13 -23 3 -3 22 11 42 31 l37 37 -33 34 -33 34 64 65 65 65 31 -34 31 -34 32
29 c18 16 35 29 39 29 3 0 18 -12 34 -27 39 -37 45 -24 7 15 -38 39 -49 40
-73 7 -24 -32 -33 -31 -71 5 l-31 30 -74 -76z"/>
<path d="M5015 3390 c-35 -37 -42 -37 -77 -3 l-28 27 -28 -27 c-35 -33 -42
-33 -72 -2 -13 14 -28 25 -34 25 -5 0 7 -18 29 -40 l38 -39 29 29 c15 17 31
30 35 30 4 0 21 -13 38 -30 l31 -30 39 40 c21 22 36 42 34 45 -3 3 -18 -9 -34
-25z"/>
<path d="M2070 3375 c-19 -19 -29 -35 -24 -35 6 0 25 16 44 35 19 19 29 35 24
35 -6 0 -25 -16 -44 -35z"/>
<path d="M2212 3378 c-18 -17 -29 -34 -27 -37 3 -3 20 9 37 27 18 17 29 34 26
37 -3 3 -19 -9 -36 -27z"/>
<path d="M2340 3375 c19 -19 38 -35 44 -35 5 0 -5 16 -24 35 -19 19 -38 35
-44 35 -5 0 5 -16 24 -35z"/>
<path d="M3640 3375 c19 -19 38 -35 44 -35 5 0 -5 16 -24 35 -19 19 -38 35
-44 35 -5 0 5 -16 24 -35z"/>
<path d="M3775 3380 c-16 -16 -27 -32 -24 -34 5 -5 28 13 53 42 28 33 4 27
-29 -8z"/>
<path d="M3910 3375 c-19 -19 -29 -35 -24 -35 6 0 25 16 44 35 19 19 29 35 24
35 -6 0 -25 -16 -44 -35z"/>
<path d="M1935 3310 c-22 -22 -35 -40 -29 -40 13 0 79 68 73 75 -3 2 -23 -13
-44 -35z"/>
<path d="M2415 3310 c-22 -22 -35 -40 -29 -40 13 0 79 68 73 75 -3 2 -23 -13
-44 -35z"/>
<path d="M2860 3344 c0 -13 68 -79 75 -73 2 3 -13 23 -35 44 -22 22 -40 35
-40 29z"/>
<path d="M2930 3344 c0 -13 68 -79 75 -73 2 3 -13 23 -35 44 -22 22 -40 35
-40 29z"/>
<path d="M3060 3342 c0 -9 43 -51 69 -67 22 -13 -19 38 -46 59 -13 9 -23 13
-23 8z"/>
<path d="M3505 3310 c-22 -22 -35 -40 -29 -40 13 0 79 68 73 75 -3 2 -23 -13
-44 -35z"/>
<path d="M4070 3331 c-8 -10 -24 -27 -34 -39 -11 -12 -16 -22 -13 -22 10 0 67
61 67 71 0 12 -2 11 -20 -10z"/>
<path d="M4115 3310 c-22 -22 -35 -40 -29 -40 13 0 79 68 73 75 -3 2 -23 -13
-44 -35z"/>
<path d="M4525 3310 c-22 -22 -35 -40 -29 -40 13 0 79 68 73 75 -3 2 -23 -13
-44 -35z"/>
<path d="M5075 3310 l-39 -40 32 -32 32 -32 -32 -33 c-17 -18 -29 -35 -26 -38
3 -3 22 11 42 31 l37 37 -32 34 -33 33 34 35 c18 19 31 37 29 40 -3 2 -23 -13
-44 -35z"/>
<path d="M1463 3318 c-35 -40 -38 -54 -6 -28 32 25 49 50 34 50 -4 0 -17 -10
-28 -22z"/>
<path d="M1865 3310 c-16 -16 -26 -32 -24 -35 3 -2 21 11 39 30 19 19 29 35
24 35 -6 0 -23 -13 -39 -30z"/>
<path d="M2480 3305 c-19 -19 -29 -35 -24 -35 6 0 25 16 44 35 19 19 29 35 24
35 -6 0 -25 -16 -44 -35z"/>
<path d="M3030 3305 c18 -19 35 -33 38 -31 6 6 -50 66 -62 66 -5 0 5 -16 24
-35z"/>
<path d="M3535 3270 c-38 -38 -65 -70 -59 -70 5 0 41 32 79 70 38 39 65 70 59
70 -5 0 -41 -31 -79 -70z"/>
<path d="M1231 3263 c28 -37 54 -63 62 -63 5 0 -6 18 -23 40 -17 22 -36 40
-42 40 -6 0 -5 -7 3 -17z"/>
<path d="M2481 3243 c-17 -20 -29 -38 -26 -41 6 -6 52 37 66 61 17 30 -7 18
-40 -20z"/>
<path d="M2755 3240 c-22 -22 -35 -40 -29 -40 13 0 79 68 73 75 -3 2 -23 -13
-44 -35z"/>
<path d="M2788 3207 c-37 -39 -65 -73 -63 -76 6 -5 145 130 145 142 0 16 -18
2 -82 -66z"/>
<path d="M3165 3240 c-21 -22 -34 -40 -28 -40 10 0 73 65 73 75 0 10 -7 4 -45
-35z"/>
<path d="M3231 3245 c-19 -19 -32 -37 -29 -40 6 -6 78 54 78 66 0 16 -15 9
-49 -26z"/>
<path d="M4700 3274 c0 -13 68 -79 75 -73 2 3 -13 23 -35 44 -22 22 -40 35
-40 29z"/>
<path d="M1390 3175 c-18 -19 -31 -37 -29 -40 3 -2 23 13 44 35 22 22 35 40
29 40 -6 0 -25 -16 -44 -35z"/>
<path d="M1595 3170 c-22 -22 -35 -40 -29 -40 13 0 79 68 73 75 -3 2 -23 -13
-44 -35z"/>
<path d="M2070 3175 c-18 -19 -31 -38 -27 -41 3 -4 12 0 19 8 49 54 60 68 52
68 -6 0 -25 -16 -44 -35z"/>
<path d="M2275 3170 c-22 -22 -35 -40 -29 -40 13 0 79 68 73 75 -3 2 -23 -13
-44 -35z"/>
<path d="M2960 3175 c-18 -19 -31 -37 -29 -40 3 -2 23 13 44 35 22 22 35 40
29 40 -6 0 -25 -16 -44 -35z"/>
<path d="M3030 3175 c-18 -19 -31 -37 -29 -40 3 -2 21 11 39 30 18 19 31 37
29 40 -3 2 -21 -11 -39 -30z"/>
<path d="M3232 3176 c-20 -19 -34 -37 -31 -40 3 -3 23 12 44 34 48 49 39 53
-13 6z"/>
<path d="M3710 3175 c-18 -19 -31 -37 -29 -40 3 -2 23 13 44 35 22 22 35 40
29 40 -6 0 -25 -16 -44 -35z"/>
<path d="M3914 3175 c-20 -20 -34 -38 -31 -41 6 -6 37 22 66 59 23 29 3 19
-35 -18z"/>
<path d="M4390 3175 c-18 -19 -31 -37 -29 -40 3 -2 23 13 44 35 22 22 35 40
29 40 -6 0 -25 -16 -44 -35z"/>
<path d="M4567 3143 c-37 -37 -67 -72 -67 -77 0 -6 32 22 72 61 40 40 70 75
67 77 -3 3 -35 -24 -72 -61z"/>
<path d="M1221 3074 c-36 -35 -62 -66 -59 -69 6 -6 77 60 122 113 39 45 -1 18
-63 -44z"/>
<path d="M1460 3105 c-18 -19 -31 -37 -29 -40 3 -2 23 13 44 35 22 22 35 40
29 40 -6 0 -25 -16 -44 -35z"/>
<path d="M1800 3105 c-18 -19 -31 -37 -29 -40 3 -2 21 11 39 30 18 19 31 37
29 40 -3 2 -21 -11 -39 -30z"/>
<path d="M2345 3100 c21 -22 41 -37 44 -35 6 7 -60 75 -73 75 -6 0 7 -18 29
-40z"/>
<path d="M2520 3134 c0 -13 58 -69 65 -63 2 3 -11 21 -30 39 -19 19 -35 29
-35 24z"/>
<path d="M2685 3100 c21 -22 41 -37 44 -35 6 7 -60 75 -73 75 -6 0 7 -18 29
-40z"/>
<path d="M2860 3136 c0 -3 16 -22 35 -43 21 -23 35 -32 35 -23 0 9 -14 28 -31
43 -30 26 -39 31 -39 23z"/>
<path d="M3095 3100 c21 -22 41 -37 44 -35 6 7 -60 75 -73 75 -6 0 7 -18 29
-40z"/>
<path d="M3270 3138 c0 -11 69 -83 74 -77 3 3 -12 23 -34 44 -22 22 -40 36
-40 33z"/>
<path d="M3435 3100 c21 -22 41 -37 44 -35 6 7 -60 75 -73 75 -6 0 7 -18 29
-40z"/>
<path d="M3610 3133 c0 -8 28 -35 64 -63 18 -13 19 -13 11 0 -20 37 -75 83
-75 63z"/>
<path d="M4192 3107 c-44 -46 -40 -56 5 -12 20 19 34 37 31 40 -2 3 -19 -10
-36 -28z"/>
<path d="M4660 3035 c-58 -58 -100 -105 -95 -105 6 0 57 47 115 105 58 58 100
105 95 105 -6 0 -57 -47 -115 -105z"/>
<path d="M1041 3043 c29 -34 42 -43 48 -37 5 5 -56 64 -66 64 -4 0 4 -12 18
-27z"/>
<path d="M1285 3000 c-38 -38 -65 -70 -59 -70 5 0 41 32 79 70 38 39 65 70 59
70 -5 0 -41 -31 -79 -70z"/>
<path d="M1660 3035 c19 -19 38 -35 44 -35 5 0 -5 16 -24 35 -19 19 -38 35
-44 35 -5 0 5 -16 24 -35z"/>
<path d="M1800 3035 c-19 -19 -29 -35 -24 -35 13 0 69 58 63 65 -3 2 -21 -11
-39 -30z"/>
<path d="M2075 3030 c21 -22 41 -37 44 -35 6 7 -60 75 -73 75 -6 0 7 -18 29
-40z"/>
<path d="M2685 3030 c21 -22 41 -37 44 -35 6 7 -60 75 -73 75 -6 0 7 -18 29
-40z"/>
<path d="M2820 3035 c-18 -19 -31 -37 -29 -40 3 -2 23 13 44 35 22 22 35 40
29 40 -6 0 -25 -16 -44 -35z"/>
<path d="M3095 2970 c-54 -54 -97 -102 -94 -104 3 -3 52 42 109 99 58 58 100
105 95 105 -6 0 -55 -45 -110 -100z"/>
<path d="M3300 3035 c19 -19 39 -35 44 -35 6 0 -6 16 -26 35 -48 45 -62 45
-18 0z"/>
<path d="M3915 3030 c21 -22 41 -37 44 -35 6 7 -60 75 -73 75 -6 0 7 -18 29
-40z"/>
<path d="M4188 3041 c-39 -39 -35 -47 7 -14 33 27 44 43 28 43 -5 0 -20 -13
-35 -29z"/>
<path d="M4320 3035 c19 -19 38 -35 44 -35 5 0 -5 16 -24 35 -19 19 -38 35
-44 35 -5 0 5 -16 24 -35z"/>
<path d="M4730 2965 c-58 -58 -100 -105 -95 -105 14 1 211 198 204 204 -3 3
-52 -42 -109 -99z"/>
<path d="M4910 3064 c0 -6 16 -25 35 -44 19 -19 35 -29 35 -24 0 6 -16 25 -35
44 -19 19 -35 29 -35 24z"/>
<path d="M880 3004 c0 -13 68 -79 75 -73 2 3 -13 23 -35 44 -22 22 -40 35 -40
29z"/>
<path d="M1355 2930 c-38 -38 -65 -70 -59 -70 5 0 41 32 79 70 38 39 65 70 59
70 -5 0 -41 -31 -79 -70z"/>
<path d="M1500 2994 c0 -11 63 -65 68 -59 3 3 -9 19 -27 35 -32 30 -41 35 -41
24z"/>
<path d="M2275 2970 c-16 -16 -26 -32 -24 -35 3 -2 21 11 39 30 19 19 29 35
24 35 -6 0 -23 -13 -39 -30z"/>
<path d="M2890 2965 c-44 -45 -32 -45 17 0 21 19 33 35 27 35 -5 0 -25 -16
-44 -35z"/>
<path d="M3706 2969 c-16 -16 -27 -31 -25 -34 5 -4 69 50 69 59 0 12 -15 3
-44 -25z"/>
<path d="M4460 2965 c18 -19 36 -32 39 -30 6 7 -50 65 -63 65 -5 0 5 -16 24
-35z"/>
<path d="M5075 2960 c21 -22 41 -37 44 -35 6 7 -60 75 -73 75 -6 0 7 -18 29
-40z"/>
<path d="M1115 2900 c-22 -22 -35 -40 -29 -40 13 0 79 68 73 75 -3 2 -23 -13
-44 -35z"/>
<path d="M2352 2837 l-102 -101 -35 34 c-19 18 -37 31 -40 29 -2 -3 13 -23 35
-44 l40 -39 107 106 c59 59 105 109 102 112 -3 3 -51 -41 -107 -97z"/>
<path d="M2755 2900 c-22 -22 -35 -40 -29 -40 13 0 79 68 73 75 -3 2 -23 -13
-44 -35z"/>
<path d="M2961 2904 c-19 -19 -31 -37 -29 -39 2 -3 20 11 38 30 18 19 31 37
29 40 -3 2 -20 -11 -38 -31z"/>
<path d="M3235 2905 c-48 -47 -38 -57 12 -12 21 20 35 38 32 42 -4 3 -23 -10
-44 -30z"/>
<path d="M3575 2900 c-22 -22 -35 -40 -29 -40 13 0 79 68 73 75 -3 2 -23 -13
-44 -35z"/>
<path d="M4835 2870 c-38 -38 -67 -72 -64 -74 3 -3 36 26 74 64 38 38 67 72
64 74 -3 3 -36 -26 -74 -64z"/>
<path d="M989 2842 c-15 -15 -30 -34 -35 -42 -7 -13 -6 -13 11 0 29 22 65 58
65 65 0 11 -16 3 -41 -23z"/>
<path d="M1185 2830 c-22 -22 -35 -40 -29 -40 13 0 79 68 73 75 -3 2 -23 -13
-44 -35z"/>
<path d="M1663 2832 l-33 -36 32 -33 32 -33 -59 -60 c-33 -33 -64 -60 -70 -60
-6 0 -22 13 -36 29 l-26 30 -34 -35 -33 -34 -38 37 c-21 20 -38 33 -38 27 0
-5 17 -27 39 -48 l38 -37 26 30 c31 38 43 39 69 6 11 -14 25 -25 31 -25 7 0
44 31 82 70 l69 70 -32 33 -31 32 29 32 c17 18 30 34 30 37 0 14 -17 2 -47
-32z"/>
<path d="M1870 2835 c-18 -19 -31 -37 -29 -40 3 -2 23 13 44 35 22 22 35 40
29 40 -6 0 -25 -16 -44 -35z"/>
<path d="M2547 2832 l-37 -38 40 -39 c22 -21 42 -36 45 -34 3 3 -9 18 -25 34
-37 35 -37 42 -3 77 14 15 24 30 22 33 -3 2 -22 -12 -42 -33z"/>
<path d="M3437 2832 l-37 -38 40 -39 c22 -21 40 -34 40 -29 0 6 -14 23 -30 39
l-30 29 32 33 c17 18 29 35 27 38 -3 2 -22 -12 -42 -33z"/>
<path d="M3640 2835 c-19 -19 -32 -36 -29 -39 3 -3 23 12 44 34 47 49 34 53
-15 5z"/>
<path d="M4115 2830 c-22 -22 -35 -40 -29 -40 13 0 79 68 73 75 -3 2 -23 -13
-44 -35z"/>
<path d="M4321 2834 c-33 -34 -33 -35 -15 -57 11 -12 26 -27 34 -34 13 -10 10
-17 -19 -47 -19 -20 -32 -38 -30 -41 3 -2 23 13 44 35 l40 41 -33 30 c-35 33
-33 44 11 77 17 13 23 32 10 32 -5 -1 -23 -17 -42 -36z"/>
<path d="M5005 2830 c-22 -22 -35 -40 -29 -40 13 0 79 68 73 75 -3 2 -23 -13
-44 -35z"/>
<path d="M1312 2771 c22 -27 58 -56 58 -46 0 2 -14 20 -31 40 -37 42 -61 48
-27 6z"/>
<path d="M2002 2763 l-34 -35 38 -39 c21 -21 40 -36 43 -34 2 3 -10 21 -28 39
l-33 34 22 19 c24 20 45 53 33 53 -4 -1 -23 -17 -41 -37z"/>
<path d="M2890 2765 c-18 -19 -31 -37 -29 -40 3 -2 23 13 44 35 22 22 35 40
29 40 -6 0 -25 -16 -44 -35z"/>
<path d="M3091 2759 c-18 -21 -29 -39 -24 -39 10 0 73 62 73 73 0 15 -16 4
-49 -34z"/>
<path d="M3712 2767 c-43 -45 -41 -59 3 -17 l35 34 35 -34 c19 -19 35 -29 35
-24 0 10 -61 74 -71 74 -3 0 -19 -15 -37 -33z"/>
<path d="M3980 2765 l-34 -35 34 -35 c19 -19 38 -35 44 -35 5 0 -5 16 -24 35
l-34 35 34 35 c19 19 29 35 24 35 -6 0 -25 -16 -44 -35z"/>
<path d="M4665 2760 c21 -22 41 -37 44 -35 6 7 -60 75 -73 75 -6 0 7 -18 29
-40z"/>
<path d="M1120 2695 c-19 -19 -29 -35 -24 -35 6 0 25 16 44 35 19 19 29 35 24
35 -6 0 -25 -16 -44 -35z"/>
<path d="M2075 2690 c21 -22 41 -37 44 -35 6 7 -60 75 -73 75 -6 0 7 -18 29
-40z"/>
<path d="M3915 2690 c21 -22 41 -37 44 -35 6 7 -60 75 -73 75 -6 0 7 -18 29
-40z"/>
<path d="M4870 2695 c-18 -19 -31 -37 -29 -40 3 -2 23 13 44 35 22 22 35 40
29 40 -6 0 -25 -16 -44 -35z"/>
<path d="M2450 2595 c-41 -41 -70 -75 -64 -75 5 0 36 27 69 60 33 33 64 60 70
60 13 0 115 -102 115 -115 0 -5 -28 -38 -62 -72 -34 -34 -60 -65 -57 -67 3 -3
37 27 77 67 l72 72 -73 73 -72 72 -75 -75z"/>
<path d="M3367 2631 l-38 -37 31 -29 c36 -35 37 -45 5 -75 -14 -13 -25 -28
-25 -34 0 -5 18 8 41 29 l40 40 -30 27 c-36 32 -37 40 -14 68 24 28 42 25 72
-11 l26 -30 40 40 c21 23 34 41 29 41 -6 0 -23 -14 -39 -30 l-29 -30 -35 34
-36 34 -38 -37z"/>
<path d="M4395 2630 c-21 -22 -34 -40 -28 -40 6 0 20 11 31 25 11 14 26 25 34
25 8 0 25 -11 38 -25 30 -32 34 -31 68 5 l29 30 28 -30 c16 -17 33 -30 39 -30
5 0 -7 17 -28 39 l-38 39 -29 -29 c-16 -16 -33 -29 -36 -29 -4 0 -21 13 -38
30 l-31 30 -39 -40z"/>
<path d="M1250 2625 c19 -19 38 -35 44 -35 5 0 -5 16 -24 35 -19 19 -38 35
-44 35 -5 0 5 -16 24 -35z"/>
<path d="M2621 2634 c-13 -13 -21 -27 -18 -31 6 -5 57 41 57 53 0 10 -16 1
-39 -22z"/>
<path d="M4730 2625 c19 -19 38 -35 44 -35 5 0 -5 16 -24 35 -19 19 -38 35
-44 35 -5 0 5 -16 24 -35z"/>
<path d="M1837 2462 c-75 -75 -137 -142 -137 -147 0 -5 31 22 70 60 l70 69 35
-34 c19 -19 35 -29 35 -24 0 6 -11 21 -25 34 -14 13 -25 28 -25 34 0 6 28 39
62 73 34 34 60 65 57 67 -3 3 -67 -56 -142 -132z"/>
<path d="M2075 2560 c-22 -22 -35 -40 -29 -40 13 0 79 68 73 75 -3 2 -23 -13
-44 -35z"/>
<path d="M2485 2560 c-22 -22 -36 -40 -32 -40 12 0 81 69 75 75 -2 2 -22 -13
-43 -35z"/>
<path d="M2720 2594 c0 -13 63 -74 76 -74 6 0 25 16 44 35 19 19 29 35 24 35
-6 0 -21 -11 -34 -25 -30 -32 -37 -32 -77 7 -18 18 -33 27 -33 22z"/>
<path d="M3165 2560 c-21 -22 -34 -40 -29 -40 6 0 23 14 39 30 l29 30 33 -32
c18 -17 35 -29 38 -27 2 3 -12 22 -33 42 l-38 37 -39 -40z"/>
<path d="M3470 2525 c-41 -41 -70 -75 -64 -75 13 0 149 138 143 144 -3 3 -38
-28 -79 -69z"/>
<path d="M3645 2560 c-21 -22 -34 -40 -29 -40 6 0 23 14 39 30 l29 30 33 -32
c18 -18 33 -27 33 -22 0 6 -15 24 -33 42 l-33 32 -39 -40z"/>
<path d="M3915 2560 c-22 -22 -35 -40 -29 -40 13 0 79 68 73 75 -3 2 -23 -13
-44 -35z"/>
<path d="M2272 2561 c13 -16 29 -32 37 -36 14 -6 85 54 76 64 -3 2 -18 -8 -35
-24 -26 -25 -31 -26 -47 -14 -10 8 -22 20 -26 27 -4 6 -13 12 -18 12 -6 0 0
-13 13 -29z"/>
<path d="M3570 2555 c-19 -19 -29 -35 -24 -35 6 0 25 16 44 35 19 19 29 35 24
35 -6 0 -25 -16 -44 -35z"/>
<path d="M4055 2567 c-24 -25 -38 -47 -32 -47 7 0 67 57 67 64 0 12 -15 4 -35
-17z"/>
<path d="M1255 2490 c-22 -22 -35 -40 -29 -40 13 0 79 68 73 75 -3 2 -23 -13
-44 -35z"/>
<path d="M1940 2495 c-18 -19 -31 -37 -29 -40 3 -2 21 11 39 30 18 19 31 37
29 40 -3 2 -21 -11 -39 -30z"/>
<path d="M2551 2494 c-18 -20 -31 -37 -29 -40 3 -2 20 12 38 31 18 19 32 37
29 39 -2 3 -19 -11 -38 -30z"/>
<path d="M4050 2495 c-18 -19 -31 -37 -29 -40 3 -2 21 11 39 30 18 19 31 37
29 40 -3 2 -21 -11 -39 -30z"/>
<path d="M4122 2497 c-18 -18 -32 -37 -32 -43 0 -6 16 -25 35 -44 l35 -34 35
34 c19 19 35 38 35 44 0 5 -16 -5 -35 -24 l-35 -34 -25 24 c-31 30 -31 37 2
72 14 15 24 30 22 33 -3 2 -20 -10 -37 -28z"/>
<path d="M4730 2490 c-17 -22 -29 -40 -26 -40 8 0 76 67 76 74 0 17 -22 2 -50
-34z"/>
<path d="M980 2425 c-18 -19 -31 -37 -29 -40 3 -2 23 13 44 35 22 22 35 40 29
40 -6 0 -25 -16 -44 -35z"/>
<path d="M1460 2425 c-18 -19 -31 -37 -29 -40 3 -2 23 13 44 35 22 22 35 40
29 40 -6 0 -25 -16 -44 -35z"/>
<path d="M2180 2454 c0 -6 16 -25 35 -44 19 -19 35 -29 35 -24 0 6 -16 25 -35
44 -19 19 -35 29 -35 24z"/>
<path d="M2820 2355 l-104 -105 34 -35 c19 -19 38 -35 44 -35 5 0 -5 16 -24
35 l-34 35 104 105 c58 58 100 105 95 105 -6 0 -57 -47 -115 -105z"/>
<path d="M3095 2420 c-22 -22 -34 -40 -29 -40 12 0 78 69 72 76 -2 2 -22 -14
-43 -36z"/>
<path d="M3435 2420 c-22 -22 -35 -40 -29 -40 13 0 79 68 73 75 -3 2 -23 -13
-44 -35z"/>
<path d="M3750 2454 c0 -6 16 -25 35 -44 19 -19 35 -29 35 -24 0 6 -16 25 -35
44 -19 19 -35 29 -35 24z"/>
<path d="M4530 2425 c-18 -19 -31 -37 -29 -40 3 -2 21 11 39 30 18 19 31 37
29 40 -3 2 -21 -11 -39 -30z"/>
<path d="M5007 2423 c-21 -19 -36 -37 -32 -41 3 -3 22 11 42 31 48 47 39 56
-10 10z"/>
<path d="M980 2355 c-18 -19 -31 -37 -29 -40 3 -2 23 13 44 35 22 22 35 40 29
40 -6 0 -25 -16 -44 -35z"/>
<path d="M1519 2356 c28 -29 31 -37 22 -55 -6 -11 -19 -24 -29 -30 -9 -5 -13
-13 -9 -18 5 -4 14 -1 20 7 34 44 46 45 82 10 19 -19 35 -30 35 -24 0 12 -132
144 -145 144 -5 0 6 -15 24 -34z"/>
<path d="M1800 2355 c-18 -19 -31 -37 -29 -40 3 -2 23 13 44 35 22 22 35 40
29 40 -6 0 -25 -16 -44 -35z"/>
<path d="M1970 2325 c-35 -35 -61 -67 -59 -70 6 -5 55 40 113 103 55 59 11 32
-54 -33z"/>
<path d="M2345 2350 c21 -22 41 -37 44 -35 6 7 -60 75 -73 75 -6 0 7 -18 29
-40z"/>
<path d="M2552 2357 c-18 -18 -32 -36 -32 -39 0 -12 61 -70 67 -64 4 3 -6 20
-22 36 l-29 30 29 30 c16 16 26 32 24 35 -3 2 -20 -10 -37 -28z"/>
<path d="M3160 2355 c-18 -19 -31 -37 -29 -40 3 -2 23 13 44 35 22 22 35 40
29 40 -6 0 -25 -16 -44 -35z"/>
<path d="M3437 2352 l-37 -38 35 -34 c19 -18 37 -31 40 -29 3 3 -6 16 -20 29
-31 30 -31 37 2 72 14 15 24 30 22 33 -3 2 -22 -12 -42 -33z"/>
<path d="M3610 2382 c0 -8 47 -53 69 -67 19 -11 6 11 -28 48 -26 27 -41 34
-41 19z"/>
<path d="M3980 2355 c-18 -19 -31 -37 -29 -40 3 -2 23 13 44 35 22 22 35 40
29 40 -6 0 -25 -16 -44 -35z"/>
<path d="M4192 2358 c-18 -17 -30 -33 -28 -35 2 -3 19 9 37 26 18 17 30 33 27
36 -2 3 -19 -9 -36 -27z"/>
<path d="M4250 2355 c-18 -19 -31 -37 -29 -40 5 -5 79 61 79 70 0 13 -19 2
-50 -30z"/>
<path d="M4430 2384 c0 -6 11 -21 25 -34 31 -29 31 -37 3 -67 l-22 -23 -33 32
c-18 17 -35 29 -38 27 -2 -3 12 -22 33 -42 l38 -37 37 38 37 38 -40 39 c-22
21 -40 34 -40 29z"/>
<path d="M5004 2356 c-21 -19 -36 -37 -33 -40 3 -3 23 12 44 34 48 49 42 52
-11 6z"/>
<path d="M2962 2288 c-40 -42 -31 -52 10 -10 18 17 29 34 26 37 -3 4 -20 -9
-36 -27z"/>
<path d="M3026 2289 c-15 -17 -26 -33 -23 -36 6 -5 14 2 51 45 29 33 5 26 -28
-9z"/>
<path d="M3230 2285 l-34 -35 34 -35 c19 -19 38 -35 44 -35 5 0 -5 16 -24 35
l-34 35 34 35 c19 19 29 35 24 35 -6 0 -25 -16 -44 -35z"/>
<path d="M4050 2285 c-19 -19 -29 -35 -24 -35 13 0 69 58 63 65 -3 2 -21 -11
-39 -30z"/>
<path d="M910 2215 c-19 -19 -29 -35 -24 -35 6 0 25 16 44 35 19 19 29 35 24
35 -6 0 -25 -16 -44 -35z"/>
<path d="M1115 2220 c-16 -16 -26 -32 -24 -35 3 -2 21 11 39 30 19 19 29 35
24 35 -6 0 -23 -13 -39 -30z"/>
<path d="M1250 2215 c-19 -19 -29 -35 -24 -35 6 0 25 16 44 35 19 19 29 35 24
35 -6 0 -25 -16 -44 -35z"/>
<path d="M1590 2215 c19 -19 38 -35 44 -35 5 0 -5 16 -24 35 -19 19 -38 35
-44 35 -5 0 5 -16 24 -35z"/>
<path d="M1730 2215 c-19 -19 -29 -35 -24 -35 6 0 25 16 44 35 19 19 29 35 24
35 -6 0 -25 -16 -44 -35z"/>
<path d="M2070 2215 c-19 -19 -29 -35 -24 -35 6 0 25 16 44 35 19 19 29 35 24
35 -6 0 -25 -16 -44 -35z"/>
<path d="M2410 2215 c19 -19 38 -35 44 -35 5 0 -5 16 -24 35 -19 19 -38 35
-44 35 -5 0 5 -16 24 -35z"/>
<path d="M3570 2215 c19 -19 38 -35 44 -35 5 0 -5 16 -24 35 -19 19 -38 35
-44 35 -5 0 5 -16 24 -35z"/>
<path d="M3910 2215 c-19 -19 -29 -35 -24 -35 6 0 25 16 44 35 19 19 29 35 24
35 -6 0 -25 -16 -44 -35z"/>
<path d="M4250 2215 c-19 -19 -29 -35 -24 -35 6 0 25 16 44 35 19 19 29 35 24
35 -6 0 -25 -16 -44 -35z"/>
<path d="M4390 2215 c19 -19 38 -35 44 -35 5 0 -5 16 -24 35 -19 19 -38 35
-44 35 -5 0 5 -16 24 -35z"/>
<path d="M4730 2215 c-19 -19 -29 -35 -24 -35 6 0 25 16 44 35 19 19 29 35 24
35 -6 0 -25 -16 -44 -35z"/>
<path d="M4869 2220 c-18 -16 -31 -32 -28 -35 3 -2 21 11 39 30 41 43 34 46
-11 5z"/>
<path d="M5070 2215 c-19 -19 -29 -35 -24 -35 6 0 25 16 44 35 19 19 29 35 24
35 -6 0 -25 -16 -44 -35z"/>
<path d="M916 2084 c-20 -20 -35 -39 -32 -42 3 -3 23 11 43 31 20 21 34 39 31
42 -3 3 -22 -11 -42 -31z"/>
<path d="M1518 2087 c39 -40 39 -47 7 -77 -14 -13 -25 -28 -25 -34 0 -5 16 5
35 24 19 19 35 39 35 45 0 13 -62 75 -75 75 -5 0 5 -15 23 -33z"/>
<path d="M1840 2114 c0 -6 16 -25 35 -44 19 -19 35 -29 35 -24 0 6 -16 25 -35
44 -19 19 -35 29 -35 24z"/>
<path d="M2210 2085 c-18 -19 -31 -37 -29 -40 3 -2 21 11 39 30 18 19 31 37
29 40 -3 2 -21 -11 -39 -30z"/>
<path d="M2550 2085 c-18 -19 -31 -37 -29 -40 3 -2 23 13 44 35 22 22 35 40
29 40 -6 0 -25 -16 -44 -35z"/>
<path d="M2685 2080 c21 -22 41 -37 44 -35 6 7 -60 75 -73 75 -6 0 7 -18 29
-40z"/>
<path d="M3270 2114 c0 -13 68 -79 75 -73 2 3 -13 23 -35 44 -22 22 -40 35
-40 29z"/>
<path d="M3435 2080 c-22 -22 -35 -40 -29 -40 13 0 79 68 73 75 -3 2 -23 -13
-44 -35z"/>
<path d="M3780 2085 c-18 -19 -31 -37 -29 -40 3 -2 23 13 44 35 22 22 35 40
29 40 -6 0 -25 -16 -44 -35z"/>
<path d="M4090 2114 c0 -6 16 -25 35 -44 19 -19 35 -29 35 -24 0 6 -16 25 -35
44 -19 19 -35 29 -35 24z"/>
<path d="M4430 2114 c0 -6 11 -21 25 -34 31 -30 31 -37 -2 -72 -14 -15 -24
-30 -22 -33 3 -2 22 12 42 33 l37 38 -40 39 c-22 21 -40 34 -40 29z"/>
<path d="M5071 2084 c-19 -19 -32 -36 -29 -39 5 -5 78 59 78 69 0 13 -17 3
-49 -30z"/>
<path d="M1320 2015 c-18 -19 -31 -37 -29 -40 3 -2 23 13 44 35 22 22 35 40
29 40 -6 0 -25 -16 -44 -35z"/>
<path d="M1730 2015 c-18 -19 -31 -37 -29 -40 3 -2 23 13 44 35 22 22 35 40
29 40 -6 0 -25 -16 -44 -35z"/>
<path d="M2313 1983 c-35 -37 -61 -69 -58 -72 6 -6 135 119 135 131 0 18 -18
4 -77 -59z"/>
<path d="M2687 2009 l41 -42 37 37 c46 46 40 59 -7 17 l-35 -30 -28 29 c-16
17 -33 30 -39 30 -6 0 8 -19 31 -41z"/>
<path d="M3232 2017 c-43 -45 -41 -59 3 -17 l35 34 33 -32 c48 -46 58 -39 12
8 -21 22 -42 40 -45 40 -3 0 -20 -15 -38 -33z"/>
<path d="M3640 2015 c-18 -19 -31 -37 -29 -40 3 -2 23 13 44 35 22 22 35 40
29 40 -6 0 -25 -16 -44 -35z"/>
<path d="M4253 2015 c-17 -19 -28 -36 -26 -39 5 -4 73 61 73 70 0 13 -20 0
-47 -31z"/>
<path d="M4660 2015 c-18 -19 -32 -37 -29 -39 4 -5 47 30 68 57 25 31 -4 18
-39 -18z"/>
<path d="M915 1940 c21 -22 41 -37 44 -35 6 7 -60 75 -73 75 -6 0 7 -18 29
-40z"/>
<path d="M1180 1945 c19 -19 38 -35 44 -35 5 0 -5 16 -24 35 -19 19 -38 35
-44 35 -5 0 5 -16 24 -35z"/>
<path d="M1730 1945 c-19 -19 -29 -35 -24 -35 6 0 25 16 44 35 19 19 29 35 24
35 -6 0 -25 -16 -44 -35z"/>
<path d="M1910 1974 c0 -13 58 -69 65 -63 2 3 -11 21 -30 39 -19 19 -35 29
-35 24z"/>
<path d="M2480 1945 c-19 -19 -29 -35 -24 -35 6 0 25 16 44 35 19 19 29 35 24
35 -6 0 -25 -16 -44 -35z"/>
<path d="M2525 1920 c-33 -33 -64 -60 -70 -60 -7 0 -22 11 -35 25 -13 14 -28
25 -34 25 -5 0 5 -16 24 -35 l34 -35 -69 -70 c-38 -39 -65 -70 -60 -70 13 0
280 268 274 274 -3 3 -32 -21 -64 -54z"/>
<path d="M3434 1945 c-21 -19 -32 -35 -26 -35 12 0 72 55 72 65 0 10 -8 4 -46
-30z"/>
<path d="M3500 1945 c-19 -19 -29 -35 -24 -35 6 0 25 16 44 35 19 19 29 35 24
35 -6 0 -25 -16 -44 -35z"/>
<path d="M3710 1945 c-18 -19 -31 -37 -29 -40 3 -2 23 13 44 35 22 22 35 40
29 40 -6 0 -25 -16 -44 -35z"/>
<path d="M4020 1972 c0 -11 60 -62 72 -62 6 0 -6 16 -26 35 -39 36 -46 41 -46
27z"/>
<path d="M4250 1945 c-19 -19 -29 -35 -24 -35 6 0 25 16 44 35 19 19 29 35 24
35 -6 0 -25 -16 -44 -35z"/>
<path d="M4770 1975 c0 -7 59 -65 66 -65 6 0 0 9 -36 52 -13 17 -30 24 -30 13z"/>
<path d="M5070 1945 c19 -19 38 -35 44 -35 5 0 -5 16 -24 35 -19 19 -38 35
-44 35 -5 0 5 -16 24 -35z"/>
<path d="M3165 1880 c-22 -22 -35 -40 -29 -40 13 0 79 68 73 75 -3 2 -23 -13
-44 -35z"/>
<path d="M4630 1914 c0 -13 68 -79 75 -73 2 3 -13 23 -35 44 -22 22 -40 35
-40 29z"/>
<path d="M5005 1880 c-22 -22 -35 -40 -29 -40 13 0 79 68 73 75 -3 2 -23 -13
-44 -35z"/>
<path d="M980 1875 c-19 -19 -29 -35 -24 -35 6 0 25 16 44 35 19 19 29 35 24
35 -6 0 -25 -16 -44 -35z"/>
<path d="M1320 1875 c19 -19 38 -35 44 -35 5 0 -5 16 -24 35 -19 19 -38 35
-44 35 -5 0 5 -16 24 -35z"/>
<path d="M1695 1840 l-69 -70 32 -31 c18 -17 32 -35 32 -38 0 -4 -12 -18 -26
-30 l-26 -23 -69 68 -69 68 -35 -34 c-19 -19 -35 -38 -35 -44 0 -5 16 5 35 24
l35 34 132 -132 132 -132 -34 -35 c-19 -19 -29 -35 -24 -35 6 0 25 16 44 35
l34 35 -68 69 -69 69 26 28 27 28 35 -34 35 -34 75 74 c41 41 72 76 69 79 -2
3 -36 -26 -73 -63 l-69 -69 -64 61 -63 62 70 70 c38 38 65 70 59 70 -5 0 -41
-31 -79 -70z"/>
<path d="M2070 1875 c19 -19 38 -35 44 -35 5 0 -5 16 -24 35 -19 19 -38 35
-44 35 -5 0 5 -16 24 -35z"/>
<path d="M2820 1875 c-19 -19 -29 -35 -24 -35 6 0 25 16 44 35 19 19 29 35 24
35 -6 0 -25 -16 -44 -35z"/>
<path d="M3500 1875 c-19 -19 -29 -35 -24 -35 6 0 21 11 34 25 29 31 41 31 70
0 l24 -25 -34 -35 c-19 -19 -29 -35 -24 -35 6 0 25 16 44 35 l34 35 -34 35
c-19 19 -39 35 -45 35 -6 0 -26 -16 -45 -35z"/>
<path d="M3910 1875 c19 -19 38 -35 44 -35 5 0 -5 16 -24 35 -19 19 -38 35
-44 35 -5 0 5 -16 24 -35z"/>
<path d="M4250 1875 c-19 -19 -29 -35 -24 -35 6 0 25 16 44 35 19 19 29 35 24
35 -6 0 -25 -16 -44 -35z"/>
<path d="M2345 1810 c-22 -22 -35 -40 -29 -40 13 0 79 68 73 75 -3 2 -23 -13
-44 -35z"/>
<path d="M4325 1810 c-33 -34 -37 -42 -24 -52 8 -7 23 -23 32 -34 18 -21 17
-23 -8 -49 -26 -25 -28 -26 -49 -8 -11 9 -27 24 -34 32 -10 13 -17 10 -47 -19
-19 -19 -35 -38 -35 -44 0 -5 16 5 35 24 l35 34 70 -69 c68 -68 101 -83 38
-18 l-32 33 24 25 c13 14 27 25 31 25 4 0 20 -13 36 -30 15 -16 32 -30 38 -30
5 0 -22 31 -60 70 l-69 70 34 35 c18 19 31 37 29 40 -3 2 -23 -13 -44 -35z"/>
<path d="M3642 1809 c-29 -28 -38 -39 -28 -39 9 0 70 59 65 64 -2 3 -19 -8
-37 -25z"/>
<path d="M1160 1774 c0 -6 16 -25 35 -44 19 -19 35 -29 35 -24 0 6 -16 25 -35
44 -19 19 -35 29 -35 24z"/>
<path d="M1561 1773 c1 -12 79 -76 79 -66 0 10 -65 73 -75 73 -3 0 -5 -3 -4
-7z"/>
<path d="M1940 1745 c-18 -19 -31 -37 -29 -40 3 -2 21 11 39 30 18 19 31 37
29 40 -3 2 -21 -11 -39 -30z"/>
<path d="M2005 1740 c-22 -22 -35 -40 -29 -40 13 0 79 68 73 75 -3 2 -23 -13
-44 -35z"/>
<path d="M2210 1745 c-18 -19 -31 -37 -29 -40 3 -2 21 11 39 30 18 19 31 37
29 40 -3 2 -21 -11 -39 -30z"/>
<path d="M3640 1745 c-19 -19 -31 -37 -27 -41 4 -4 8 -5 10 -3 1 2 18 21 36
42 43 46 28 48 -19 2z"/>
<path d="M3780 1745 c-18 -19 -31 -37 -29 -40 3 -2 21 11 39 30 18 19 31 37
29 40 -3 2 -21 -11 -39 -30z"/>
<path d="M3981 1743 c-19 -18 -33 -35 -30 -37 3 -3 21 10 42 29 20 19 34 35
29 37 -4 2 -22 -11 -41 -29z"/>
<path d="M4050 1745 c-18 -19 -31 -37 -29 -40 3 -2 21 11 39 30 18 19 31 37
29 40 -3 2 -21 -11 -39 -30z"/>
<path d="M4120 1745 c-18 -19 -31 -37 -29 -40 3 -2 21 11 39 30 18 19 31 37
29 40 -3 2 -21 -11 -39 -30z"/>
<path d="M4360 1774 c0 -13 68 -79 75 -73 2 3 -13 23 -35 44 -22 22 -40 35
-40 29z"/>
<path d="M4430 1774 c0 -6 16 -25 35 -44 l35 -34 35 34 c19 19 35 38 35 44 0
5 -16 -5 -35 -24 l-35 -34 -35 34 c-19 19 -35 29 -35 24z"/>
<path d="M4770 1774 c0 -6 16 -25 35 -44 19 -19 35 -29 35 -24 0 6 -16 25 -35
44 -19 19 -35 29 -35 24z"/>
<path d="M2657 1643 c-37 -37 -67 -73 -67 -79 0 -7 11 -21 25 -32 32 -25 31
-32 -5 -67 l-30 -29 37 -38 c20 -21 42 -38 47 -38 6 0 -7 17 -27 38 l-37 38
34 33 34 33 -29 28 c-16 15 -29 31 -29 36 0 5 27 36 60 69 l60 59 33 -32 33
-32 38 36 c21 19 35 38 32 41 -2 3 -20 -9 -38 -26 l-33 -30 -30 29 c-17 17
-33 30 -36 30 -3 0 -35 -30 -72 -67z"/>
<path d="M3161 1674 c-41 -45 -34 -56 10 -15 l33 32 33 -33 33 -32 40 39 c22
21 37 41 35 44 -3 2 -21 -10 -39 -28 l-34 -33 -34 31 c-18 17 -36 31 -39 31
-3 0 -20 -16 -38 -36z"/>
<path d="M1188 1610 c-16 -16 -28 -35 -28 -42 0 -7 13 2 28 20 33 39 42 39 72
7 13 -14 28 -25 34 -25 5 0 -5 16 -24 35 -19 19 -39 35 -44 35 -6 -1 -23 -14
-38 -30z"/>
<path d="M1730 1605 c19 -19 37 -35 42 -35 4 0 -8 16 -26 35 -19 19 -38 35
-42 35 -4 0 7 -16 26 -35z"/>
<path d="M2180 1634 c0 -6 16 -25 35 -44 19 -19 35 -29 35 -24 0 6 -16 25 -35
44 -19 19 -35 29 -35 24z"/>
<path d="M2272 1603 l37 -36 -31 -29 c-17 -16 -28 -31 -25 -34 2 -3 17 6 32
20 34 32 36 32 65 1 13 -14 28 -25 34 -25 6 0 -21 32 -59 70 -38 39 -74 70
-80 70 -5 0 7 -16 27 -37z"/>
<path d="M3367 1602 l-37 -38 31 -31 31 -31 -23 -31 c-12 -17 -27 -31 -33 -31
-5 0 8 -18 29 -40 21 -22 44 -40 49 -40 6 0 -6 17 -26 38 l-37 37 30 29 c16
16 29 32 29 36 0 4 -11 17 -25 30 -31 30 -31 37 2 72 14 15 24 30 22 33 -3 2
-22 -12 -42 -33z"/>
<path d="M3680 1634 c0 -6 14 -23 31 -38 l31 -28 -23 -24 c-29 -31 -45 -30
-74 4 -13 15 -26 24 -29 21 -3 -3 11 -22 32 -42 l38 -37 37 38 c20 20 33 42
29 47 -17 23 -72 68 -72 59z"/>
<path d="M3750 1634 c0 -6 16 -25 35 -44 19 -19 35 -29 35 -24 0 6 -16 25 -35
44 -19 19 -35 29 -35 24z"/>
<path d="M4255 1600 c21 -22 41 -37 44 -35 6 7 -60 75 -73 75 -6 0 7 -18 29
-40z"/>
<path d="M4731 1603 c18 -21 35 -40 37 -42 1 -3 20 13 42 34 22 21 37 41 35
44 -3 2 -18 -8 -33 -22 -35 -33 -42 -33 -72 -2 -13 14 -28 25 -34 25 -5 0 6
-17 25 -37z"/>
<path d="M2005 1540 c-21 -22 -34 -40 -29 -40 6 0 21 11 34 25 30 32 37 32 77
-7 18 -18 33 -27 33 -22 0 5 -17 27 -38 47 l-38 37 -39 -40z"/>
<path d="M1390 1535 c-18 -19 -31 -37 -29 -40 3 -2 23 13 44 35 22 22 35 40
29 40 -6 0 -25 -16 -44 -35z"/>
<path d="M2930 1565 c0 -9 61 -67 66 -62 6 5 -48 67 -58 67 -5 0 -8 -2 -8 -5z"/>
<path d="M3000 1564 c0 -13 58 -69 65 -63 2 3 -11 21 -30 39 -19 19 -35 29
-35 24z"/>
<path d="M3915 1530 l39 -40 38 37 c21 20 35 39 33 42 -3 2 -18 -8 -33 -22
-35 -33 -42 -33 -72 -2 -13 14 -28 25 -34 25 -5 0 8 -18 29 -40z"/>
<path d="M4250 1535 l34 -35 -34 -35 c-19 -19 -29 -35 -24 -35 6 0 25 16 44
35 l34 35 -34 35 c-19 19 -38 35 -44 35 -5 0 5 -16 24 -35z"/>
<path d="M4590 1535 c-18 -19 -31 -37 -29 -40 3 -2 23 13 44 35 22 22 35 40
29 40 -6 0 -25 -16 -44 -35z"/>
<path d="M2410 1465 c-19 -19 -29 -35 -24 -35 6 0 25 16 44 35 19 19 29 35 24
35 -6 0 -25 -16 -44 -35z"/>
<path d="M3570 1465 c-19 -19 -29 -35 -24 -35 6 0 25 16 44 35 19 19 29 35 24
35 -6 0 -25 -16 -44 -35z"/>
<path d="M818 1424 c10 -19 35 -42 61 -58 19 -12 -2 25 -26 45 -36 29 -46 33
-35 13z"/>
<path d="M984 1399 c-21 -23 -30 -37 -19 -31 25 13 70 60 64 67 -3 2 -23 -14
-45 -36z"/>
<path d="M1177 1408 c67 -75 256 -258 261 -253 6 6 -269 284 -282 285 -4 0 5
-15 21 -32z"/>
<path d="M1325 1400 c-22 -22 -35 -40 -29 -40 13 0 79 68 73 75 -3 2 -23 -13
-44 -35z"/>
<path d="M1525 1400 c-22 -22 -35 -40 -29 -40 13 0 79 68 73 75 -3 2 -23 -13
-44 -35z"/>
<path d="M2927 1372 c-37 -37 -67 -71 -67 -76 0 -10 84 65 119 107 46 55 14
35 -52 -31z"/>
<path d="M3025 1400 c-22 -22 -35 -40 -29 -40 13 0 79 68 73 75 -3 2 -23 -13
-44 -35z"/>
<path d="M4460 1405 c-18 -19 -31 -37 -29 -40 3 -2 23 13 44 35 22 22 35 40
29 40 -6 0 -25 -16 -44 -35z"/>
<path d="M4630 1365 c-41 -41 -70 -75 -64 -75 13 0 149 138 143 144 -3 3 -38
-28 -79 -69z"/>
<path d="M4770 1434 c0 -13 68 -79 75 -73 2 3 -13 23 -35 44 -22 22 -40 35
-40 29z"/>
<path d="M5005 1400 c-22 -22 -35 -40 -29 -40 13 0 79 68 73 75 -3 2 -23 -13
-44 -35z"/>
<path d="M5110 1434 c0 -13 68 -79 75 -73 2 3 -13 23 -35 44 -22 22 -40 35
-40 29z"/>
<path d="M980 1335 c-18 -19 -32 -37 -29 -39 4 -5 47 30 68 57 25 31 -4 18
-39 -18z"/>
<path d="M1390 1335 c-18 -19 -31 -37 -29 -40 3 -2 23 13 44 35 22 22 35 40
29 40 -6 0 -25 -16 -44 -35z"/>
<path d="M1840 1364 c0 -6 16 -25 35 -44 19 -19 35 -29 35 -24 0 6 -16 25 -35
44 -19 19 -35 29 -35 24z"/>
<path d="M2005 1330 c-22 -22 -35 -40 -29 -40 13 0 79 68 73 75 -3 2 -23 -13
-44 -35z"/>
<path d="M2720 1364 c0 -9 74 -73 79 -68 6 5 -60 74 -71 74 -4 0 -8 -3 -8 -6z"/>
<path d="M3065 1300 c-38 -38 -67 -72 -64 -74 3 -3 36 26 74 64 38 38 67 72
64 74 -3 3 -36 -26 -74 -64z"/>
<path d="M3200 1364 c0 -13 68 -79 75 -73 2 3 -13 23 -35 44 -22 22 -40 35
-40 29z"/>
<path d="M3981 1335 c-19 -20 -32 -37 -29 -40 2 -3 22 13 43 35 22 22 35 40
30 40 -6 0 -25 -16 -44 -35z"/>
<path d="M4115 1330 c21 -22 41 -37 44 -35 6 7 -60 75 -73 75 -6 0 7 -18 29
-40z"/>
<path d="M4700 1366 c0 -14 69 -80 76 -73 4 4 5 8 3 10 -2 1 -21 18 -42 36
-20 19 -37 31 -37 27z"/>
<path d="M5005 1330 c-22 -22 -35 -40 -29 -40 13 0 79 68 73 75 -3 2 -23 -13
-44 -35z"/>
<path d="M845 1260 c21 -22 41 -37 44 -35 6 7 -60 75 -73 75 -6 0 7 -18 29
-40z"/>
<path d="M1190 1265 c-18 -19 -31 -37 -29 -40 3 -2 20 11 38 31 19 19 31 37
29 39 -2 3 -20 -11 -38 -30z"/>
<path d="M1588 1267 c18 -18 32 -37 32 -42 0 -5 -15 -21 -32 -36 -18 -16 -27
-28 -21 -29 13 0 73 57 73 70 0 9 -65 70 -75 70 -5 0 5 -15 23 -33z"/>
<path d="M2210 1265 c-18 -19 -31 -37 -29 -40 3 -2 21 11 39 30 18 19 31 37
29 40 -3 2 -21 -11 -39 -30z"/>
<path d="M2480 1265 c-18 -19 -31 -37 -29 -40 3 -2 23 13 44 35 22 22 35 40
29 40 -6 0 -25 -16 -44 -35z"/>
<path d="M2590 1294 c0 -6 16 -25 35 -44 19 -19 35 -29 35 -24 0 6 -16 25 -35
44 -19 19 -35 29 -35 24z"/>
<path d="M2960 1265 c-18 -19 -31 -37 -29 -40 3 -2 21 11 39 30 18 19 31 37
29 40 -3 2 -21 -11 -39 -30z"/>
<path d="M3340 1294 c0 -6 16 -25 35 -44 19 -19 35 -29 35 -24 0 6 -16 25 -35
44 -19 19 -35 29 -35 24z"/>
<path d="M3501 1263 c-18 -19 -30 -37 -27 -40 5 -5 76 62 76 72 0 12 -17 0
-49 -32z"/>
<path d="M3780 1265 c-18 -19 -31 -37 -29 -40 3 -2 21 11 39 30 18 19 31 37
29 40 -3 2 -21 -11 -39 -30z"/>
<path d="M4360 1294 c0 -6 14 -23 30 -39 l30 -29 -32 -33 c-17 -18 -29 -35
-27 -38 3 -2 23 13 44 35 32 33 36 41 23 52 -53 49 -68 60 -68 52z"/>
<path d="M4660 1264 c19 -21 36 -41 38 -43 1 -2 5 -1 8 2 9 9 -12 33 -50 59
l-31 21 35 -39z"/>
<path d="M4765 1230 c-38 -38 -67 -72 -64 -74 3 -3 38 28 79 69 41 41 70 75
64 75 -5 0 -41 -31 -79 -70z"/>
<path d="M5110 1293 c0 -13 70 -76 77 -69 3 3 -1 11 -9 18 -54 50 -68 60 -68
51z"/>
<path d="M1050 1195 c-19 -19 -29 -35 -24 -35 6 0 25 16 44 35 19 19 29 35 24
35 -6 0 -25 -16 -44 -35z"/>
<path d="M1250 1195 c-19 -19 -30 -35 -24 -35 5 0 25 16 44 35 44 45 26 45
-20 0z"/>
<path d="M1700 1226 c0 -9 74 -75 79 -70 6 5 -60 74 -71 74 -4 0 -8 -2 -8 -4z"/>
<path d="M1910 1224 c0 -6 16 -25 35 -44 19 -19 35 -29 35 -24 0 6 -16 25 -35
44 -19 19 -35 29 -35 24z"/>
<path d="M2820 1195 c-18 -19 -31 -37 -29 -40 3 -2 23 13 44 35 22 22 35 40
29 40 -6 0 -25 -16 -44 -35z"/>
<path d="M3125 1160 c-38 -38 -65 -70 -59 -70 5 0 41 32 79 70 38 39 65 70 59
70 -5 0 -41 -31 -79 -70z"/>
<path d="M4020 1224 c0 -4 16 -21 35 -40 43 -40 47 -25 5 16 -31 30 -40 35
-40 24z"/>
<path d="M4250 1195 c19 -19 38 -35 44 -35 5 0 -5 16 -24 35 -19 19 -38 35
-44 35 -5 0 5 -16 24 -35z"/>
<path d="M4595 1190 c21 -22 41 -37 44 -35 6 7 -60 75 -73 75 -6 0 7 -18 29
-40z"/>
<path d="M4940 1199 c-39 -46 -37 -58 3 -19 20 19 37 38 37 43 0 15 -16 5 -40
-24z"/>
<path d="M2685 1130 c-21 -22 -35 -40 -29 -40 13 0 74 57 74 69 0 16 -3 14
-45 -29z"/>
<path d="M2210 1125 c-19 -19 -29 -35 -24 -35 11 0 45 34 58 58 12 21 1 14
-34 -23z"/>
<path d="M2890 1125 c-19 -19 -29 -35 -24 -35 6 0 25 16 44 35 19 19 29 35 24
35 -6 0 -25 -16 -44 -35z"/>
<path d="M3300 1125 c-18 -19 -31 -37 -29 -40 3 -2 23 13 44 35 22 22 35 40
29 40 -6 0 -25 -16 -44 -35z"/>
<path d="M3775 1130 c-16 -16 -26 -32 -24 -35 3 -2 21 11 39 30 19 19 29 35
24 35 -6 0 -23 -13 -39 -30z"/>
<path d="M846 1061 l-39 -39 24 -24 c14 -13 33 -30 43 -38 18 -14 19 -14 8 7
-7 12 -22 29 -34 37 l-22 16 34 35 c18 19 31 37 29 40 -3 2 -22 -13 -43 -34z"/>
<path d="M1190 1065 c-18 -19 -31 -37 -29 -40 3 -2 21 11 39 30 18 19 31 37
29 40 -3 2 -21 -11 -39 -30z"/>
<path d="M5165 1081 c-11 -9 -29 -27 -39 -39 -19 -22 -19 -23 14 -57 19 -19
38 -35 44 -35 5 0 -4 15 -22 33 -18 18 -32 37 -32 41 0 4 14 21 31 37 34 32
37 48 4 20z"/>
<path d="M4799 1059 c-44 -43 -30 -47 17 -4 21 19 34 35 27 35 -7 0 -26 -14
-44 -31z"/>
<path d="M880 1021 c0 -6 8 -16 18 -23 42 -32 46 -45 17 -74 l-27 -26 -32 31
c-17 17 -36 31 -41 31 -5 0 24 -34 65 -75 41 -41 76 -72 79 -70 2 3 -10 21
-28 39 l-33 34 26 27 27 27 27 -23 c15 -13 30 -28 34 -34 4 -5 9 -7 12 -4 6 5
-128 149 -139 149 -3 0 -5 -4 -5 -9z"/>
<path d="M1326 994 c-20 -20 -34 -39 -31 -42 3 -3 22 11 42 31 21 20 34 39 31
42 -3 3 -22 -11 -42 -31z"/>
<path d="M1390 995 c-18 -19 -31 -37 -29 -40 3 -2 23 13 44 35 22 22 35 40 29
40 -6 0 -25 -16 -44 -35z"/>
<path d="M1870 995 c-18 -19 -31 -37 -29 -40 3 -2 21 11 39 30 18 19 31 37 29
40 -3 2 -21 -11 -39 -30z"/>
<path d="M2345 990 c-22 -22 -35 -40 -29 -40 13 0 79 68 73 75 -3 2 -23 -13
-44 -35z"/>
<path d="M2415 990 c-22 -22 -35 -40 -29 -40 13 0 79 68 73 75 -3 2 -23 -13
-44 -35z"/>
<path d="M2835 1007 c-33 -37 -48 -57 -41 -57 7 0 76 67 76 74 0 12 -16 4 -35
-17z"/>
<path d="M3165 990 c-22 -22 -35 -40 -29 -40 13 0 79 68 73 75 -3 2 -23 -13
-44 -35z"/>
<path d="M3575 990 c-22 -22 -35 -40 -29 -40 13 0 79 68 73 75 -3 2 -23 -13
-44 -35z"/>
<path d="M3640 995 c-18 -19 -32 -37 -29 -39 4 -5 79 61 79 69 0 13 -19 2 -50
-30z"/>
<path d="M4115 990 c-22 -22 -35 -40 -29 -40 13 0 79 68 73 75 -3 2 -23 -13
-44 -35z"/>
<path d="M4595 990 c-22 -22 -35 -40 -29 -40 13 0 79 68 73 75 -3 2 -23 -13
-44 -35z"/>
<path d="M4663 993 c-18 -20 -30 -39 -28 -41 6 -6 75 60 75 71 0 15 -16 5 -47
-30z"/>
<path d="M5040 1025 c0 -5 14 -23 30 -40 l30 -31 -28 -27 -27 -26 -32 29 c-65
61 -45 27 27 -45 41 -41 76 -72 79 -70 2 3 -11 21 -29 40 l-34 35 28 26 28 26
34 -33 c38 -37 54 -37 20 1 -46 51 -126 124 -126 115z"/>
<path d="M1935 920 c21 -22 41 -37 44 -35 6 7 -60 75 -73 75 -6 0 7 -18 29
-40z"/>
<path d="M2071 925 c-32 -37 -36 -45 -23 -45 11 0 75 80 64 80 -6 0 -24 -16
-41 -35z"/>
<path d="M2210 925 c-18 -19 -31 -37 -29 -40 3 -2 21 11 39 30 18 19 31 37 29
40 -3 2 -21 -11 -39 -30z"/>
<path d="M2930 954 c0 -13 68 -79 75 -73 2 3 -13 23 -35 44 -22 22 -40 35 -40
29z"/>
<path d="M3025 920 c21 -22 41 -37 44 -35 6 7 -60 75 -73 75 -6 0 7 -18 29
-40z"/>
<path d="M3780 925 c-18 -19 -31 -37 -29 -40 3 -2 21 11 39 30 18 19 31 37 29
40 -3 2 -21 -11 -39 -30z"/>
<path d="M3912 923 c-17 -20 -29 -39 -26 -42 4 -4 74 67 74 76 0 12 -21 -3
-48 -34z"/>
<path d="M4020 954 c0 -6 16 -25 35 -44 19 -19 35 -29 35 -24 0 6 -16 25 -35
44 -19 19 -35 29 -35 24z"/>
<path d="M845 850 c21 -22 41 -37 44 -35 6 7 -60 75 -73 75 -6 0 7 -18 29 -40z"/>
<path d="M960 874 c8 -10 25 -29 38 -43 l24 -24 39 39 c21 21 36 40 34 43 -3
2 -21 -11 -40 -29 l-35 -34 -16 22 c-8 12 -25 27 -37 34 -21 11 -21 10 -7 -8z"/>
<path d="M1255 850 c21 -22 41 -37 44 -35 6 7 -60 75 -73 75 -6 0 7 -18 29
-40z"/>
<path d="M1360 884 c0 -11 72 -75 78 -70 3 4 -12 22 -32 41 -39 35 -46 40 -46
29z"/>
<path d="M4595 850 c21 -22 41 -37 44 -35 6 7 -60 75 -73 75 -6 0 7 -18 29
-40z"/>
<path d="M4721 863 c13 -15 30 -33 37 -41 7 -8 16 -12 19 -8 8 7 -56 76 -71
76 -5 0 1 -12 15 -27z"/>
<path d="M4941 860 c-19 -17 -31 -34 -27 -38 4 -4 18 5 31 21 13 15 28 27 33
27 4 0 21 -13 37 -30 16 -16 31 -28 34 -25 5 5 -59 75 -68 75 -4 0 -21 -14
-40 -30z"/>
<path d="M5118 873 c13 -23 62 -66 69 -60 6 7 -37 56 -60 69 -16 8 -17 7 -9
-9z"/>
</g>
</svg>
