<svg width="200" height="200" viewBox="0 0 580 610" fill="none" xmlns="http://www.w3.org/2000/svg">
<g>
  <path d="M546.05 234.054C546.397 232.762 545.949 231.95 546.122 231.304C545.674 230.492 545.847 229.846 545.399 229.034L545.399 228.75C545.399 228.75 544.951 228.222 544.33 228.055L364.04 41.3313C363.419 41.165 362.971 40.3527 362.971 40.3527L362.35 40.1864L361.728 40.0201C361.107 39.8538 361.107 39.8538 360.486 39.6875L359.865 39.5212L359.244 39.3549C358.622 39.1886 357.828 39.6682 357.828 39.6682L108.25 111.309C108.25 111.309 108.25 111.309 107.628 111.142C107.628 111.142 107.628 111.142 106.834 111.622C106.04 112.102 105.245 112.581 105.072 113.227C104.278 113.707 104.104 114.353 103.931 114.999L103.758 115.644L103.585 116.29L34.2964 374.655C34.1232 375.301 33.95 375.947 33.7767 376.593L33.6035 377.239L33.4303 377.884C33.4303 377.884 33.2571 378.53 33.8783 378.697C33.8783 378.697 33.8783 378.697 34.3263 379.509C34.3263 379.509 34.153 380.155 34.7742 380.321C35.2222 381.133 35.2222 381.133 35.6702 381.946L215.96 568.67C215.96 568.67 215.96 568.67 216.581 568.836L217.203 569.002C217.824 569.169 218.272 569.981 218.893 570.147C219.514 570.313 220.135 570.48 220.93 570L221.551 570.166L222.172 570.333L471.751 498.692C472.372 498.859 472.545 498.213 473.339 497.733C473.339 497.733 473.339 497.733 474.134 497.253C474.134 497.253 474.134 497.253 474.928 496.774L475.723 496.294L475.896 495.648L476.069 495.002C476.242 494.356 476.415 493.711 476.589 493.065L546.05 234.054C545.877 234.7 545.877 234.7 546.05 234.054ZM527.241 229.711L419.786 260.48L371.297 68.8887L527.241 229.711ZM355.911 59.2312L406.048 259.571L212.234 207.684L355.911 59.2312ZM337.753 59.9082L199.882 201.607L122.221 121.28L337.753 59.9082ZM112.891 131.243L190.552 211.571L53.3027 353.436L112.891 131.243ZM196.477 224.234L246.614 424.573L52.8009 372.686L196.477 224.234ZM217.704 549.753L61.7605 388.93L247.498 438.656L217.704 549.753ZM258.907 420.942L208.77 220.602L401.962 272.323L258.907 420.942ZM230.128 553.079L259.922 441.982L445.66 491.707L230.128 553.079ZM267.735 430.228L411.411 281.775L461.549 482.115L267.735 430.228ZM470.747 465.194L422.88 273.769L530.335 243L470.747 465.194Z" fill="white"/>
  <path d="M546.05 234.054C546.397 232.762 545.949 231.95 546.122 231.304C545.674 230.492 545.847 229.846 545.399 229.034L545.399 228.75C545.399 228.75 544.951 228.222 544.33 228.055L364.04 41.3313C363.419 41.165 362.971 40.3527 362.971 40.3527L362.35 40.1864L361.728 40.0201C361.107 39.8538 361.107 39.8538 360.486 39.6875L359.865 39.5212L359.244 39.3549C358.622 39.1886 357.828 39.6682 357.828 39.6682L108.25 111.309C108.25 111.309 108.25 111.309 107.628 111.142C107.628 111.142 107.628 111.142 106.834 111.622C106.04 112.102 105.245 112.581 105.072 113.227C104.278 113.707 104.104 114.353 103.931 114.999L103.758 115.644L103.585 116.29L34.2964 374.655C34.1232 375.301 33.95 375.947 33.7767 376.593L33.6035 377.239L33.4303 377.884C33.4303 377.884 33.2571 378.53 33.8783 378.697C33.8783 378.697 33.8783 378.697 34.3263 379.509C34.3263 379.509 34.153 380.155 34.7742 380.321C35.2222 381.133 35.2222 381.133 35.6702 381.946L215.96 568.67C215.96 568.67 215.96 568.67 216.581 568.836L217.203 569.002C217.824 569.169 218.272 569.981 218.893 570.147C219.514 570.313 220.135 570.48 220.93 570L221.551 570.166L222.172 570.333L471.751 498.692C472.372 498.859 472.545 498.213 473.339 497.733C473.339 497.733 473.339 497.733 474.134 497.253C474.134 497.253 474.134 497.253 474.928 496.774L475.723 496.294L475.896 495.648L476.069 495.002C476.242 494.356 476.416 493.711 476.589 493.065L546.05 234.054ZM546.05 234.054C545.877 234.7 545.877 234.7 546.05 234.054ZM527.241 229.711L419.786 260.48L371.297 68.8887L527.241 229.711ZM355.911 59.2312L406.048 259.571L212.234 207.684L355.911 59.2312ZM337.753 59.9082L199.882 201.607L122.221 121.28L337.753 59.9082ZM112.891 131.243L190.552 211.571L53.3027 353.436L112.891 131.243ZM196.477 224.234L246.614 424.573L52.8009 372.686L196.477 224.234ZM217.704 549.753L61.7605 388.93L247.498 438.656L217.704 549.753ZM258.907 420.942L208.77 220.602L401.962 272.323L258.907 420.942ZM230.128 553.079L259.922 441.982L445.66 491.707L230.128 553.079ZM267.735 430.228L411.411 281.775L461.549 482.115L267.735 430.228ZM470.747 465.194L422.88 273.769L530.335 243L470.747 465.194Z" stroke="white" stroke-width="40" stroke-linejoin="round"/>
</g>
</svg>
