<?xml version="1.0" standalone="no"?>
<!DOCTYPE svg PUBLIC "-//W3C//DTD SVG 1.1//EN" "http://www.w3.org/Graphics/SVG/1.1/DTD/svg11.dtd">
<svg t="1564363669684" class="icon" viewBox="0 0 1054 1024" version="1.1" xmlns="http://www.w3.org/2000/svg" p-id="3555" xmlns:xlink="http://www.w3.org/1999/xlink" width="200" height="200">
  <path d="M524.8 26.88C259.84 26.88 44.8 241.92 44.8 506.88S259.84 985.6 524.8 985.6s480-215.04 480-480S789.76 26.88 524.8 26.88z m126.72 583.68c-32 0-111.36 1.28-111.36 1.28l-35.84 138.24H355.84L390.4 614.4H158.72l37.12-111.36s403.2 1.28 436.48 0c33.28-1.28 84.48-8.96 85.76-75.52 1.28-90.88-138.24-85.76-149.76-5.12-7.68 51.2-7.68 64-7.68 64H428.8l25.6-120.32H240.64l32-112.64s313.6 1.28 372.48 1.28 216.32 15.36 216.32 160c0 158.72-152.32 195.84-209.92 195.84z" fill="#1A72FE" p-id="3556"/>
</svg>

