<?xml version="1.0" encoding="utf-8"?>
<!-- Generator: Adobe Illustrator 21.1.0, SVG Export Plug-In . SVG Version: 6.00 Build 0)  -->
<svg version="1.1" id="图层_1" xmlns="http://www.w3.org/2000/svg" xmlns:xlink="http://www.w3.org/1999/xlink" x="0px" y="0px"
	 viewBox="0 0 94.2 94.2" style="enable-background:new 0 0 94.2 94.2;" xml:space="preserve">
<style type="text/css">
	.st0{fill:#181818;}
</style>
<path class="st0" d="M47.7,66.7c-9.3,0-18.2-1.5-26.5-4.2c6.8,13.2,20.5,22.2,36.4,22.2c0.5,0,1.1,0,1.6,0
	c10.8-0.4,20.6-5.1,27.7-12.3c-8.3,13.1-23,21.8-39.7,21.8c-6.3,0-12.3-1.2-17.7-3.5c-15.5-6.3-26.9-20.8-28.9-38
	c-0.2-1.8-0.3-3.6-0.3-5.5c0,0,0,0,0-0.1c0-3.8,2.1-7.3,5.5-9.1c4-2.2,8.3-4.1,12.7-5.6c8.9-3.1,18.4-4.8,28.3-4.8
	c9.3,0,18.2,1.5,26.5,4.2C66.3,18.6,52.6,9.6,36.7,9.6c-0.5,0-1.1,0-1.6,0C24.3,10,14.5,14.7,7.4,22c8.3-13.1,23-21.8,39.7-21.8
	c6.3,0,12.3,1.2,17.7,3.5c15.5,6.3,26.9,20.8,29,38c0.2,1.8,0.3,3.6,0.3,5.5c0,0,0,0,0,0.1c0,3.8-2.1,7.3-5.5,9.1
	c-4,2.2-8.3,4.1-12.7,5.6C67.1,65,57.6,66.7,47.7,66.7z"/>
</svg>
