<svg width="154" height="177" viewBox="0 0 154 177" fill="none" xmlns="http://www.w3.org/2000/svg">
<path d="M130.315 79.1939C129.904 79.2365 129.518 79.412 129.215 79.6939L77.5154 109.494C77.2713 109.68 76.9725 109.782 76.6653 109.782C76.3581 109.782 76.0594 109.68 75.8153 109.494L0.915307 65.894C0.609275 65.7646 0.354807 65.5373 0.191918 65.2477C0.0290293 64.9581 -0.0329629 64.6227 0.0154044 64.2939V44.894C-0.00677997 44.646 0.0486787 44.3973 0.174096 44.1823C0.299513 43.9673 0.488633 43.7967 0.715356 43.6939L76.0154 0.193949C76.2082 0.0523665 76.4453 -0.0154007 76.6839 0.00294689C76.9224 0.0212945 77.1464 0.124539 77.3153 0.293947L144.815 38.894L145.515 39.394L144.015 40.1939C121.615 52.1939 99.7154 65.2939 77.5154 77.9939C77.2911 78.1362 77.031 78.2118 76.7654 78.2118C76.4998 78.2118 76.2397 78.1362 76.0154 77.9939L40.0154 57.094L39.2154 56.594C39.3949 56.3625 39.6382 56.1887 39.9153 56.094L46.1154 52.1939C46.3194 52.0474 46.5642 51.9686 46.8153 51.9686C47.0665 51.9686 47.3114 52.0474 47.5154 52.1939L73.5154 67.2939L76.1154 68.7939C76.3194 68.9405 76.5642 69.0193 76.8153 69.0193C77.0665 69.0193 77.3114 68.9405 77.5154 68.7939L119.715 44.394L128.215 39.6939L129.015 39.1939C128.915 38.8939 128.615 38.7939 128.315 38.6939L77.3153 9.39395C77.101 9.26155 76.8505 9.19997 76.5993 9.21792C76.348 9.23587 76.1086 9.33244 75.9153 9.49394L29.0154 36.594L8.71536 48.2939C8.48863 48.3967 8.29951 48.5674 8.1741 48.7824C8.04868 48.9974 7.99322 49.246 8.0154 49.4939V59.894C7.99937 60.1543 8.05627 60.414 8.17996 60.6437C8.30364 60.8734 8.48914 61.064 8.71536 61.1939L68.7154 96.0939L75.9153 100.394C76.1396 100.536 76.3997 100.612 76.6653 100.612C76.9309 100.612 77.191 100.536 77.4153 100.394C92.082 91.794 106.849 83.2606 121.715 74.7939L137.515 65.5939L138.215 65.394C138.215 65.694 138.315 65.9939 138.315 66.2939V122.994C138.343 123.281 138.28 123.57 138.137 123.821C137.994 124.071 137.777 124.272 137.515 124.394L77.5154 158.994C77.257 159.143 76.9637 159.222 76.6653 159.222C76.3669 159.222 76.0738 159.143 75.8153 158.994C50.8153 144.594 25.782 130.227 0.715356 115.894C0.464378 115.74 0.264143 115.516 0.139672 115.249C0.015201 114.983 -0.0279555 114.685 0.0154044 114.394V73.7939C0.0154044 72.6939 0.0153068 72.6939 0.915307 73.1939L53.6154 103.794L76.0154 116.894C76.204 117.032 76.4316 117.107 76.6653 117.107C76.8991 117.107 77.1268 117.032 77.3153 116.894L124.115 89.9939L124.815 89.6939C125.015 89.8939 124.915 90.194 124.915 90.394C124.915 98.694 124.915 106.994 125.015 115.294C125.022 115.565 124.95 115.832 124.808 116.063C124.666 116.293 124.46 116.478 124.215 116.594L77.5154 143.294C77.2558 143.489 76.9399 143.594 76.6154 143.594C76.2908 143.594 75.975 143.489 75.7154 143.294L17.1154 109.394C16.8582 109.303 16.6442 109.119 16.5148 108.879C16.3854 108.639 16.35 108.359 16.4153 108.094V99.9939C16.8153 99.7939 17.0154 100.094 17.2154 100.294C36.8154 111.494 56.3487 122.761 75.8153 134.094C76.0594 134.28 76.3581 134.382 76.6653 134.382C76.9725 134.382 77.2713 134.28 77.5154 134.094L116.215 111.894C116.479 111.804 116.703 111.625 116.849 111.388C116.995 111.15 117.054 110.87 117.015 110.594C116.915 108.594 116.915 106.494 116.915 104.494C116.915 102.494 116.915 103.394 116.015 103.894L95.3153 115.794L77.3153 126.094C77.1342 126.249 76.9037 126.334 76.6653 126.334C76.427 126.334 76.1965 126.249 76.0154 126.094L9.31545 87.2939L8.21536 86.6939C7.91536 86.8939 8.0154 87.0939 8.0154 87.2939V109.994C7.99686 110.23 8.04298 110.466 8.14871 110.677C8.25443 110.889 8.41559 111.067 8.61526 111.194C31.1486 123.994 53.582 136.861 75.9153 149.794C76.1193 149.94 76.3642 150.019 76.6154 150.019C76.8665 150.019 77.1113 149.94 77.3153 149.794L129.415 119.794C129.721 119.665 129.976 119.437 130.139 119.148C130.302 118.858 130.364 118.523 130.315 118.194V79.1939Z" fill="#EB1B23"/>
<path d="M145.315 52.9938L144.315 53.5938L77.5155 92.1938C77.2714 92.3803 76.9727 92.4814 76.6654 92.4814C76.3582 92.4814 76.0596 92.3803 75.8155 92.1938L12.2155 55.4938L12.0155 55.2938C11.4155 55.0938 11.3154 54.8938 11.9154 54.4938L19.8155 49.9938C38.4155 39.3271 56.9822 28.5938 75.5155 17.7938C75.8462 17.5424 76.2501 17.4063 76.6654 17.4063C77.0808 17.4062 77.4848 17.5424 77.8155 17.7938L113.815 38.3938L114.915 39.0938L112.815 40.2938L77.4154 60.7938C77.2369 60.91 77.0285 60.9718 76.8155 60.9718C76.6024 60.9718 76.394 60.91 76.2155 60.7938L54.7155 47.4938L54.2155 47.0938L56.3155 45.8938L61.2155 43.0938C61.4355 42.897 61.7204 42.7882 62.0155 42.7882C62.3107 42.7882 62.5955 42.897 62.8155 43.0938L75.8155 51.1938C76.1109 51.4284 76.4726 51.5643 76.8494 51.5823C77.2262 51.6002 77.5991 51.4993 77.9154 51.2938L98.0155 39.5938L98.8155 39.1938C98.6155 38.7938 98.3155 38.7938 98.1155 38.5938L77.4154 26.7938C77.1912 26.6515 76.931 26.576 76.6654 26.576C76.3998 26.576 76.1397 26.6515 75.9154 26.7938C59.9821 36.1271 44.0155 45.3605 28.0155 54.4938C27.4155 54.7938 27.3155 54.9938 28.0155 55.3938L76.0155 83.0938C76.2299 83.2262 76.4803 83.2878 76.7316 83.2698C76.9829 83.2519 77.2221 83.1553 77.4154 82.9938L140.516 46.4938L148.415 41.8938C148.601 41.7974 148.807 41.7471 149.016 41.7471C149.224 41.7471 149.43 41.7974 149.616 41.8938L152.516 43.5938C152.787 43.7031 153.014 43.9007 153.159 44.1548C153.304 44.4088 153.359 44.7045 153.315 44.9938V131.594C153.359 131.883 153.304 132.179 153.159 132.433C153.014 132.687 152.787 132.885 152.516 132.994L77.5155 176.294C77.2714 176.48 76.9727 176.581 76.6654 176.581C76.3582 176.581 76.0596 176.48 75.8155 176.294L0.815588 132.994C0.544137 132.885 0.317456 132.687 0.172277 132.433C0.0270981 132.179 -0.0281368 131.883 0.0155388 131.594V124.394C0.0155388 123.394 0.0155876 123.394 0.815588 123.894L31.5155 141.494L75.9154 167.094C76.1283 167.264 76.3928 167.357 76.6654 167.357C76.9381 167.357 77.2026 167.264 77.4154 167.094L144.415 128.394C144.695 128.287 144.934 128.094 145.096 127.842C145.258 127.59 145.335 127.293 145.315 126.994V52.9938Z" fill="#EC1C24"/>
</svg>
