<svg width="54" height="55" viewBox="0 0 54 55" fill="none" xmlns="http://www.w3.org/2000/svg">
<path d="M53.9967 30.9444C53.9336 30.1414 53.8755 29.3164 53.8021 28.4952C53.7775 28.1852 53.7314 27.8772 53.6641 27.5735C53.4373 26.6067 53.2117 25.6399 52.9487 24.6835C52.736 23.91 52.5001 23.1366 52.2204 22.3786C51.9407 21.6207 51.5926 20.8511 51.2549 20.0983C50.7818 19.0425 50.3216 17.9778 49.7944 16.9478C49.1679 15.7232 48.5053 14.5166 47.8054 13.3281C47.1015 12.1203 46.3874 10.915 45.5959 9.76128C44.8809 8.72374 44.1107 7.72542 43.2885 6.77065C42.5678 5.94537 41.8027 5.16003 40.9965 4.41811C40.4088 3.8535 39.773 3.3411 39.0964 2.88671C37.9348 2.09899 36.6658 1.48252 35.3285 1.05624C34.5357 0.815181 33.7288 0.548345 32.9128 0.478736C31.8738 0.392369 30.8258 0.291822 29.7675 0.398814C28.8458 0.491627 27.919 0.513541 27.0115 0.73397C26.5384 0.848697 26.0486 0.896392 25.5832 1.03174C24.7221 1.28311 23.8687 1.56026 23.0218 1.85546C22.1105 2.17256 21.1927 2.48194 20.3148 2.86866C19.2436 3.33788 18.2033 3.87542 17.1553 4.39749C16.3161 4.81514 15.4654 5.21733 14.6558 5.68655C13.2959 6.48061 11.9604 7.31721 10.6223 8.14737C9.17554 9.05497 7.80504 10.0789 6.52442 11.2089C4.89658 12.6109 3.48714 14.248 2.3427 16.0661C2.11453 16.4322 1.84899 16.7854 1.68399 17.1785C1.37296 17.9059 1.10396 18.6504 0.878322 19.4086C0.656988 20.1258 0.502924 20.862 0.418126 21.6078C0.349149 22.4985 0.336233 23.3928 0.379455 24.2851C0.405236 25.1243 0.500626 25.9609 0.567658 26.7975C0.57472 26.8434 0.585498 26.8887 0.599884 26.9329C0.721056 27.4266 0.833205 27.9229 0.968556 28.4127C1.17996 29.1784 1.38621 29.948 1.63629 30.7021C1.81547 31.2435 2.0707 31.7578 2.28082 32.2915C2.45227 32.7414 2.57344 33.2119 2.76035 33.6541C3.05684 34.3579 3.38168 35.0501 3.7091 35.741C4.22473 36.8393 4.74035 37.9453 5.30109 39.023C5.77934 39.9382 6.31559 40.8277 6.84797 41.7094C7.87922 43.4071 8.94785 45.0726 10.1828 46.6298C11.1047 47.824 12.1291 48.9355 13.2443 49.9517C14.9665 51.4805 16.8537 52.7077 19.0799 53.4025C20.1292 53.7299 21.1939 53.8923 22.2664 54.0277C22.9192 54.0913 23.5764 54.0943 24.2297 54.0367C25.4353 53.9829 26.6326 53.8102 27.8043 53.5211C28.3289 53.3832 28.8819 53.3484 29.3988 53.1898C30.1439 52.9603 30.8684 52.6587 31.6018 52.3906C32.3998 52.0992 33.2041 51.8273 33.9918 51.514C34.5241 51.3026 35.0372 51.0435 35.5502 50.7883C36.9553 50.0857 38.3862 49.4309 39.7487 48.6523C41.4245 47.6919 43.0758 46.6633 44.691 45.5933C46.2393 44.5746 47.6793 43.4001 48.9887 42.0884C50.5356 40.526 51.8659 38.8026 52.7773 36.7775C53.2375 35.7329 53.5733 34.6378 53.7776 33.5148C53.9271 32.6808 53.9258 31.821 53.9967 30.9444Z" fill="#7055E9"/>
<path d="M43.3442 32.4502C43.2411 33.5833 42.7912 34.4251 41.7973 34.9781C40.5547 35.6703 39.3314 36.396 38.099 37.1063L31.9025 40.6744C29.7936 41.8874 27.704 43.134 25.5706 44.3044C24.0689 45.1281 22.2642 44.5519 21.5835 42.8981C21.0602 41.6245 21.5294 40.1524 22.8558 39.4099C24.5149 38.4792 26.1391 37.4866 27.7878 36.5378C29.5641 35.5169 31.3585 34.5282 33.1297 33.5008C34.4407 32.7415 35.7233 31.9333 37.0304 31.1663C37.8103 30.7074 38.5773 30.2059 39.41 29.8618C40.7184 29.3217 42.3349 29.8051 42.9833 31.2565C43.1509 31.6329 43.2269 32.0506 43.3442 32.4502Z" fill="white"/>
<path d="M34.9101 19.9195C36.1618 19.8924 37.2935 20.9236 37.5887 21.9201C37.774 22.5389 37.7425 23.2024 37.4994 23.8008C37.2564 24.3992 36.8163 24.8968 36.252 25.2111C34.5762 26.1392 32.9468 27.1447 31.2891 28.0986C29.4805 29.1504 27.6591 30.1817 25.8428 31.2129C24.7084 31.8644 23.5753 32.5192 22.4436 33.1775C21.6843 33.6196 20.9263 34.0644 20.18 34.5297C19.86 34.7349 19.5011 34.8717 19.1257 34.9317C18.7503 34.9916 18.3666 34.9733 17.9987 34.8779C17.6307 34.7825 17.2865 34.6121 16.9875 34.3774C16.6885 34.1427 16.4412 33.8487 16.2612 33.5139C15.5587 32.1797 15.8461 30.4911 17.3904 29.63C18.8187 28.8333 20.2135 27.9787 21.6302 27.1601C23.3472 26.1663 25.0707 25.184 26.7864 24.1953L31.4515 21.5179C32.2391 21.0667 33.01 20.5859 33.8157 20.1734C34.1457 20.0149 34.5466 19.9981 34.9101 19.9195Z" fill="white"/>
<path d="M31.2924 13.0676C31.188 14.1272 30.7316 14.889 29.8241 15.4085C28.2476 16.3109 26.6904 17.2442 25.1178 18.1529C23.6998 18.9767 22.2586 19.7823 20.8303 20.6022C19.4313 21.404 18.0344 22.2075 16.6396 23.0127C15.8223 23.4806 15.0218 23.9795 14.1801 24.3972C13.047 24.9592 11.5878 24.5544 10.8478 23.4226C10.6573 23.1332 10.5261 22.8088 10.4617 22.4683C10.3973 22.1277 10.401 21.7778 10.4727 21.4388C10.5425 21.0675 10.6935 20.7163 10.9151 20.4103C11.1366 20.1043 11.4231 19.8511 11.754 19.6689C13.6606 18.5693 15.5581 17.453 17.4659 16.3573C19.3737 15.2616 21.3163 14.1775 23.2344 13.0766C24.5686 12.3109 25.8822 11.5091 27.2215 10.7563C28.5299 10.0177 30.3062 10.4701 30.9482 11.9345C31.1067 12.289 31.1802 12.686 31.2924 13.0676Z" fill="white"/>
</svg>
