<svg id="Layer_1" data-name="Layer 1" xmlns="http://www.w3.org/2000/svg" viewBox="0 0 800 800"><defs><style>.cls-1{fill:#0094ba;}.cls-2{fill:#88d581;}</style></defs><path class="cls-1" d="M355.8,617.68l-1.7,3c-21.3,37.5-75.72,36.36-95.44-2L67.18,246.06C48.58,209.86,75,166.82,115.7,167h0a54.26,54.26,0,0,1,47.82,29.12L356.71,565.75A54.27,54.27,0,0,1,355.8,617.68Z"/><path class="cls-2" d="M527.57,612.63l-1.3,2.34c-20,36.28-72.36,35.64-91.49-1.11l-194-372.69c-17.75-34.1,6.45-75,44.89-75.85h0A51.9,51.9,0,0,1,332.76,193L528,563.34A51.93,51.93,0,0,1,527.57,612.63Z"/><path class="cls-2" d="M435.7,605.6h0c18.7,39.85,73.49,39.4,96.55-.8l130-226.58c22.34-39-2.2-86-44.38-85.06h-.07c-19.86.44-38.65,12.07-49.17,30.42L438.7,550.16C428.76,567.51,427.62,588.4,435.7,605.6Z"/><path class="cls-2" d="M676.64,155.87a62.25,62.25,0,1,0,62.25,62.25A62.25,62.25,0,0,0,676.64,155.87Zm27.74,69.79H674.44a6.68,6.68,0,0,1-6.69-6.68V182.37a6.69,6.69,0,1,1,13.38,0v29.92h23.25a6.69,6.69,0,0,1,0,13.37Z"/></svg>