<svg xmlns="http://www.w3.org/2000/svg" viewBox="0 0 400 400"><defs><style>.cls-1{fill:#af1212;}.cls-2{fill:#fff;}</style></defs><g id="Layer_2" data-name="Layer 2"><g id="Layer_1-2" data-name="Layer 1"><circle class="cls-1" cx="200" cy="200" r="200"/><path class="cls-2" d="M102.4,175.5c21,.6,42.2.4,63.1,2.1,12.1,1.1,18.4,11.7,23.9,21.5,12.2,21.5,24.6,42.8,36.4,64.4,2.3,4.1,2.3,9.3,2.7,14.1-7.2-17.2-23-25.7-36.5-35.9-29.6-22.5-59.8-44.1-89.6-65.9Z"/><path class="cls-2" d="M257.6,258.6c-22.5-27.1-44.9-53.2-66.5-80-8.4-10.7-3.6-22.1,2.6-32.3s12.2-19.4,18.7-28.7c4.6-6.6,12.2-6.3,17,.1,2.4,3.2,4.7,6.5,7.1,9.6a8.3,8.3,0,0,0,2.3,1.9c.5-.8,1.5-1.6,1.7-2.5,3.3-17.1,6.7-34,9.8-51,1.8-9.5,3-19.2,5.2-28.7V216.5c-3.3-6-6.9-12.1-10.4-18.2-5.8-10.2-11.4-20.4-17.5-30.3-.8-1.6-3.5-2.2-5.4-3.1-.1,2-1,4.6-.1,6.1,10.1,18.4,21.8,36.1,30.5,55.2C257,235.9,256.1,247.9,257.6,258.6ZM244.9,151.2c-5.6,8.2-5.7,15.7,0,22.8Z"/><path class="cls-2" d="M196.8,197.9c10.8,12.1,22.3,24.3,33.1,37,8.1,9.5,16.2,19.3,22.6,30s.1,18.7-6,26.3q-28.8,36.3-57.9,72.1l-.6.4c10-16.8,19.9-33.5,29.8-50.4,3.6-6.2,6.6-12.9,10.5-19,10.8-16.8,6.7-31.9-3.2-47.5s-18.8-32.2-28-48.3Z"/></g></g></svg>