<svg width="300" height="300" viewPort="0 0 300 300" xmlns="http://www.w3.org/2000/svg" fill="none">
 <g>
  <path id="svg_2" fill="#15EBB7" d="m197.933,126.436c6.956,9.75 10.732,21.59 10.633,33.529c0,11.74 -3.776,23.48 -10.633,33.031l14.508,11.043c9.241,-12.735 14.309,-28.255 14.309,-43.975c0.1,-16.615 -5.366,-32.931 -15.402,-46.064l-8.32,7.5l-5.095,4.936z" clip-rule="evenodd" fill-rule="evenodd"/>
  <path id="svg_3" fill="#0E0333" d="m225.359,213.821l-48.79,-37.11c3.478,-4.577 5.465,-10.148 5.763,-15.919c0.199,-5.77 -1.291,-11.441 -4.372,-16.316l23.352,-21.092l24.445,-22.883c1.59,-1.4927 1.689,-4.0794 0.099,-5.6713l-3.378,-3.3827c-17.39,-17.6099 -40.841,-27.8575 -65.485,-28.6534l0.1,-13.4313c0.099,-0.8954 0,-1.7908 -0.199,-2.6862c-0.298,-0.8954 -0.696,-1.6914 -1.292,-2.3878c-0.596,-0.6964 -1.292,-1.1939 -2.186,-1.5919c-0.795,-0.3979 -1.689,-0.5969 -2.584,-0.5969c-0.894,0 -1.788,0.199 -2.583,0.5969c-0.795,0.398 -1.59,0.8955 -2.186,1.5919c-0.597,0.6964 -1.094,1.4924 -1.292,2.2883c-0.298,0.8954 -0.398,1.7908 -0.199,2.6862l-0.099,13.8293c-5.863,0.5969 -11.726,1.6913 -17.39,3.3827l0.099,-17.212c0.1,-0.8954 0,-1.7908 -0.198,-2.6862c-0.298,-0.8954 -0.696,-1.6914 -1.292,-2.3878c-0.596,-0.6964 -1.292,-1.1939 -2.186,-1.5919c-0.795,-0.3979 -1.69,-0.5969 -2.584,-0.5969c-0.894,0 -1.789,0.199 -2.583,0.5969c-0.795,0.398 -1.59,0.8955 -2.187,1.5919c-0.596,0.6964 -1.093,1.4924 -1.291,2.2883c-0.299,0.8954 -0.398,1.7908 -0.199,2.6863l-0.298,21.9875c-20.0728,8.9541 -36.5681,24.5742 -46.6044,44.1741c-10.0363,19.6 -13.2162,42.085 -8.8439,63.674c4.3722,21.59 15.9985,41.09 32.8912,55.218c16.8931,14.127 38.1581,22.087 60.1181,22.485l71.049,0.298c2.187,0 3.975,-1.791 3.975,-3.98l0,-35.916c0,-1.293 -0.596,-2.487 -1.59,-3.283zm-72.042,25.569c-17.489,-0.099 -34.482,-5.969 -48.294,-16.615c-13.8123,-10.745 -23.7492,-25.768 -28.2208,-42.682c-4.4716,-16.913 -3.1798,-34.921 3.4779,-51.038c6.7571,-16.118 18.582,-29.6487 33.7859,-38.4039l-0.1,26.1659c-0.099,0.896 0,1.791 0.199,2.686c0.298,0.896 0.696,1.692 1.292,2.388c0.596,0.697 1.292,1.194 2.186,1.592c0.795,0.398 1.689,0.597 2.584,0.597c0.894,0 1.788,-0.199 2.583,-0.597c0.795,-0.398 1.59,-0.895 2.186,-1.592c0.596,-0.696 1.093,-1.492 1.292,-2.288c0.298,-0.895 0.398,-1.791 0.199,-2.686l0.099,-32.1359c8.745,-3.1837 17.986,-4.6761 27.327,-4.6761c17.191,0 33.885,5.671 47.498,16.0181c0.994,0.7959 1.093,2.1888 0.199,3.0842l-37.164,34.1257c-3.379,-1.393 -7.055,-2.189 -10.732,-2.189c-4.074,0 -8.148,0.796 -11.924,2.487c-3.776,1.692 -7.056,4.179 -9.739,7.263c-2.682,3.084 -4.67,6.765 -5.862,10.646c-1.193,3.979 -1.491,8.058 -0.895,12.137c0.597,4.08 1.988,7.96 4.174,11.442c2.186,3.482 5.167,6.367 8.546,8.656c3.478,2.188 7.353,3.681 11.427,4.278c4.074,0.597 8.248,0.298 12.123,-0.896l47.499,36.116c0.497,0.398 0.795,0.994 0.795,1.591l-0.1,12.735c0,1.095 -0.894,1.99 -1.987,1.99l-54.454,-0.199zm11.626,-79.593c0,2.189 -0.696,4.378 -1.888,6.268c-1.292,1.891 -2.981,3.283 -5.068,4.179c-2.087,0.895 -4.372,1.094 -6.459,0.597c-2.087,-0.498 -4.174,-1.493 -5.764,-3.084c-1.589,-1.592 -2.683,-3.582 -3.08,-5.771c-0.397,-2.189 -0.199,-4.477 0.696,-6.467c0.894,-2.089 2.285,-3.78 4.173,-5.074c1.888,-1.194 4.074,-1.89 6.26,-1.89c2.981,0 5.863,1.194 7.95,3.383c1.987,1.989 3.18,4.775 3.18,7.859z" clip-rule="evenodd" fill-rule="evenodd"/>
 </g>
</svg>
