<svg width="350" height="350" xmlns="http://www.w3.org/2000/svg"><g fill="none" fill-rule="evenodd"><path fill="#FFF" d="M0 0h350v350H0z"/><g fill="#000"><path d="M175.5 42.862c72.073 0 130.5 58.468 130.5 130.592 0 72.123-58.427 130.59-130.5 130.59-72.073 0-130.5-58.467-130.5-130.59 0-72.124 58.427-130.592 130.5-130.592Zm0 39.424c-50.315 0-91.104 40.817-91.104 91.168 0 50.35 40.789 91.167 91.104 91.167s91.104-40.817 91.104-91.167-40.789-91.168-91.104-91.168Z"/><path d="M62.193 303.634 259.915 21.06l19.211 10.382L97.42 329.993z"/></g></g></svg>
