<svg width="124" height="126" viewBox="0 0 124 126" fill="none" xmlns="http://www.w3.org/2000/svg">
<path d="M92.6242 22.724L71.9302 3.01544C71.0738 2.16205 69.9142 1.68286 68.7053 1.68286C67.4963 1.68286 66.3365 2.16205 65.4801 3.01544L44.4278 22.724C43.5744 23.5803 43.0952 24.74 43.0952 25.949C43.0952 27.158 43.5744 28.3177 44.4278 29.1741L65.4801 48.8826C66.3365 49.736 67.4963 50.2152 68.7053 50.2152C69.9142 50.2152 71.0738 49.736 71.9302 48.8826L92.6242 29.1741C93.4776 28.3177 93.9568 27.158 93.9568 25.949C93.9568 24.74 93.4776 23.5803 92.6242 22.724Z" fill="#CC3000"/>
<path d="M112.96 60.5294L80.7098 28.2791C79.2826 26.8567 77.3498 26.0581 75.3348 26.0581C73.3198 26.0581 71.387 26.8567 69.9597 28.2791L33.7678 64.4711C33.3262 64.9121 32.9759 65.4358 32.737 66.0122C32.498 66.5886 32.375 67.2065 32.375 67.8305C32.375 68.4546 32.498 69.0724 32.737 69.6489C32.9759 70.2253 33.3262 70.749 33.7678 71.19L66.0181 103.44C67.4454 104.863 69.3782 105.661 71.3932 105.661C73.4081 105.661 75.341 104.863 76.7682 103.44L112.96 67.2482C113.402 66.8073 113.752 66.2836 113.991 65.7072C114.23 65.1307 114.353 64.5128 114.353 63.8888C114.353 63.2648 114.23 62.6469 113.991 62.0705C113.752 61.4941 113.402 60.9704 112.96 60.5294Z" fill="#E05A00"/>
<path d="M70.049 85.8815L40.2174 56.05C39.6181 55.4486 38.9061 54.9715 38.1221 54.646C37.3381 54.3204 36.4974 54.1528 35.6485 54.1528C34.7995 54.1528 33.9591 54.3204 33.1751 54.646C32.391 54.9715 31.679 55.4486 31.0798 56.05L1.06906 86.0607C0.730488 86.3941 0.46151 86.7916 0.277983 87.2299C0.0944548 87.6682 0 88.1386 0 88.6138C0 89.089 0.0944548 89.5595 0.277983 89.9978C0.46151 90.4361 0.730488 90.8336 1.06906 91.167L30.9005 120.999C32.3277 122.421 34.2605 123.22 36.2755 123.22C38.2905 123.22 40.2233 122.421 41.6506 120.999L70.049 92.6003C70.4905 92.1594 70.8406 91.6357 71.0795 91.0593C71.3185 90.4828 71.4417 89.8649 71.4417 89.2409C71.4417 88.6169 71.3185 87.999 71.0795 87.4226C70.8406 86.8462 70.4905 86.3225 70.049 85.8815Z" fill="#F27E00"/>
<path d="M122.366 88.8377L85.7262 52.1977C84.5883 51.0869 83.0612 50.4651 81.471 50.4651C79.8808 50.4651 78.3536 51.0869 77.2157 52.1977L40.5756 88.8377C40.1341 89.2786 39.7838 89.8023 39.5448 90.3787C39.3059 90.9552 39.1829 91.5731 39.1829 92.1971C39.1829 92.8211 39.3059 93.439 39.5448 94.0154C39.7838 94.5919 40.1341 95.1155 40.5756 95.5565L60.4633 115.444H102.568L122.456 95.5565C123.294 94.6331 123.751 93.4263 123.734 92.1794C123.717 90.9326 123.229 89.7384 122.366 88.8377Z" fill="#F2A100"/>
<path d="M88.4139 84.0896L61.4489 57.1248C60.0216 55.7025 58.0888 54.9038 56.0738 54.9038C54.0589 54.9038 52.126 55.7025 50.6988 57.1248L23.7338 84.0896C23.2923 84.5306 22.9422 85.0543 22.7033 85.6307C22.4643 86.2072 22.3411 86.8251 22.3411 87.4491C22.3411 88.0731 22.4643 88.691 22.7033 89.2674C22.9422 89.8438 23.2923 90.3675 23.7338 90.8085L50.6988 117.773C52.126 119.196 54.0589 119.994 56.0738 119.994C58.0888 119.994 60.0216 119.196 61.4489 117.773L88.4139 90.8085C88.8554 90.3675 89.2054 89.8438 89.4444 89.2674C89.6834 88.691 89.8066 88.0731 89.8066 87.4491C89.8066 86.8251 89.6834 86.2072 89.4444 85.6307C89.2054 85.0543 88.8554 84.5306 88.4139 84.0896Z" fill="#FFCE00"/>
<path d="M99.9698 110.428H29.0191C28.2158 110.416 27.4182 110.565 26.6736 110.867C25.9291 111.169 25.2528 111.617 24.6847 112.185C24.1166 112.753 23.6683 113.429 23.3665 114.174C23.0646 114.919 22.9152 115.716 22.9273 116.519V119.207C22.9152 120.01 23.0646 120.808 23.3665 121.552C23.6683 122.297 24.1166 122.973 24.6847 123.541C25.2528 124.109 25.9291 124.558 26.6736 124.86C27.4182 125.161 28.2158 125.311 29.0191 125.299H99.9698C100.773 125.311 101.571 125.161 102.315 124.86C103.06 124.558 103.736 124.109 104.304 123.541C104.872 122.973 105.321 122.297 105.622 121.552C105.924 120.808 106.074 120.01 106.062 119.207V116.519C106.062 114.904 105.42 113.354 104.277 112.212C103.135 111.069 101.585 110.428 99.9698 110.428Z" fill="#372525"/>
<path d="M41.0235 6.59923L36.0964 2.03044C35.3372 1.33798 34.3469 0.954102 33.3194 0.954102C32.2919 0.954102 31.3013 1.33798 30.5422 2.03044L25.615 6.68882C25.2507 7.01645 24.9593 7.41707 24.7599 7.86465C24.5604 8.31223 24.4574 8.79675 24.4574 9.28676C24.4574 9.77676 24.5604 10.2613 24.7599 10.7089C24.9593 11.1565 25.2507 11.5571 25.615 11.8847L30.5422 16.4535C31.3013 17.146 32.2919 17.5298 33.3194 17.5298C34.3469 17.5298 35.3372 17.146 36.0964 16.4535L41.0235 11.7951C41.3879 11.4675 41.6792 11.0669 41.8787 10.6193C42.0781 10.1717 42.1814 9.68719 42.1814 9.19718C42.1814 8.70717 42.0781 8.22264 41.8787 7.77506C41.6792 7.32748 41.3879 6.92686 41.0235 6.59923Z" fill="#BF0D00"/>
</svg>
