<svg width="86" height="30" viewBox="0 0 86 30" fill="none" xmlns="http://www.w3.org/2000/svg">
<path d="M43.0813 29.8018V15.6857L42.3635 15.981L30.9983 20.4698C29.6823 20.9423 29.3832 21.4739 29.3832 22.8323V29.8018H25.4951V0.919922H29.3832V16.9851L30.8786 16.3354L41.4064 12.201C42.7822 11.6694 43.0813 11.1969 43.0813 9.77939V0.919922H46.9096V29.8018H43.0813Z" fill="white"/>
<path d="M1.20976 4.70043V0.861328H15.3266C19.0352 0.861328 21.4877 3.28292 21.5475 7.0039V9.89799C21.607 11.1536 21.2551 12.3947 20.5439 13.4374C19.8328 14.48 18.8004 15.2685 17.5996 15.6862L5.5764 20.4112C4.20061 21.0019 3.90152 21.4153 3.90152 22.8919V24.0141C3.89323 24.28 3.94016 24.5448 4.03944 24.7921C4.13871 25.0395 4.28821 25.2641 4.47875 25.4523C4.66928 25.6404 4.89681 25.788 5.14731 25.886C5.39781 25.9841 5.66597 26.0304 5.9353 26.0222H21.4877V29.8613H6.17457C2.52573 29.8613 0.0134159 27.3807 0.0134159 23.7188C-0.0388838 22.7056 0.0619168 21.6904 0.312501 20.7065C0.553401 19.8421 1.00719 19.0499 1.63341 18.4007C2.25963 17.7514 3.03883 17.2653 3.90152 16.9856L15.9247 12.2014C17.3005 11.6699 17.5996 11.1974 17.5996 9.77986C17.6594 8.79636 17.6594 7.8102 17.5996 6.8267C17.6274 6.54066 17.5908 6.25208 17.4924 5.98164C17.394 5.7112 17.2363 5.46559 17.0305 5.2624C16.8247 5.05921 16.5759 4.90345 16.3021 4.8063C16.0282 4.70915 15.7359 4.673 15.4462 4.70043H1.20976Z" fill="white"/>
<path d="M53.3701 0.861328H57.1386V29.8023H53.3701V0.861328Z" fill="white"/>
<path d="M85.0129 7.0039C85.0129 3.34198 82.5006 0.861328 78.8517 0.861328H63.5386V29.8023H67.3669V22.8919C67.3669 21.4153 67.666 21.0019 69.1016 20.4112L81.0052 15.6862C83.6371 14.623 85.0129 12.674 85.0129 9.89799V7.0039ZM81.1248 10.1933C81.1468 10.5768 81.042 10.9569 80.8263 11.2765C80.6105 11.5961 80.2954 11.8378 79.9284 11.9652L67.6061 16.8674H67.4267V4.70043H78.7919C80.3472 4.70043 81.1248 5.40919 81.1248 7.0039V10.1933Z" fill="white"/>
</svg>
