<svg xmlns="http://www.w3.org/2000/svg" width="100" height="100" viewBox="0 0 139 139" fill="none" class="injected-svg" data-src="https://e52zox4dqzv2yd7ej5uc4e3svjjxq5pgbdwaiy5n3zwhxprup3iq.arweave.net/J3WXX4OGa6wP5E9oLhNyqlN4deYI7ARjrd5se740ftE" xmlns:xlink="http://www.w3.org/1999/xlink" role="img" style="width: 60px">
<path d="M129.984 70.492C129.984 103.349 103.349 129.984 70.492 129.984C37.6355 129.984 11 103.349 11 70.492C11 37.6355 37.6355 11 70.492 11C103.349 11 129.984 37.6355 129.984 70.492Z" fill="#356B9D"></path>
<path d="M78.475 62.3544L77.8648 76.9391L77.5134 89.4356L90.578 96.0789L90.6555 83.49L90.992 68.813L78.475 62.3544Z" fill="white"></path>
<path d="M78.475 62.3544L90.992 68.813L90.992 50.5123L78.5225 44.3098L78.475 62.3544Z" fill="white"></path>
<path d="M77.0315 105.354L90.1354 112.088L90.578 96.0789L77.5134 89.4356L77.0315 105.354Z" fill="white"></path>
<path d="M63.8812 98.3841L77.0315 105.354L77.5134 89.4356L64.378 82.5368L63.8812 98.3841Z" fill="white"></path>
<path d="M50.7922 91.2776L63.8812 98.3841L64.378 82.5368L51.288 75.492L50.7922 91.2776Z" fill="white"></path>
<path d="M64.378 82.5368L64.3812 69.4681L51.288 62.6061L51.288 75.492L64.378 82.5368Z" fill="white"></path>
<path d="M51.288 62.6061L64.3812 69.4681L64.5944 57.1354L51.4971 50.5123L51.288 62.6061Z" fill="white"></path>
<path d="M51.4971 50.5123L64.5944 57.1354L64.9186 38.3895L51.8329 31.0938L51.4971 50.5123Z" fill="white"></path>
<path d="M76.475 62.3544L75.8648 76.9391L75.5134 89.4356L88.578 96.0789L88.6555 83.49L88.992 68.813L76.475 62.3544Z" fill="#EC7F00"></path>
<path d="M76.475 62.3544L88.992 68.813L88.992 50.5123L76.5225 44.3098L76.475 62.3544Z" fill="#EC7F00"></path>
<path d="M75.0315 105.354L88.1354 112.088L88.578 96.0789L75.5134 89.4356L75.0315 105.354Z" fill="#EC7F00"></path>
<path d="M61.8812 98.3841L75.0315 105.354L75.5134 89.4356L62.378 82.5368L61.8812 98.3841Z" fill="#EC7F00"></path>
<path d="M48.7922 91.2776L61.8812 98.3841L62.378 82.5368L49.288 75.492L48.7922 91.2776Z" fill="#EC7F00"></path>
<path d="M62.378 82.5368L62.3812 69.4681L49.288 62.6061L49.288 75.492L62.378 82.5368Z" fill="#EC7F00"></path>
<path d="M49.288 62.6061L62.3812 69.4681L62.5944 57.1354L49.4971 50.5123L49.288 62.6061Z" fill="#EC7F00"></path>
<path d="M49.4971 50.5123L62.5944 57.1354L62.9186 38.3895L49.8329 31.0938L49.4971 50.5123Z" fill="#EC7F00"></path>
<path d="M73.475 63.3544L72.8648 77.9391L72.5134 90.4356L85.578 97.0789L85.6555 84.49L85.992 69.813L73.475 63.3544Z" fill="white"></path>
<path d="M73.475 63.3544L85.992 69.813L85.992 51.5123L73.5225 45.3098L73.475 63.3544Z" fill="white"></path>
<path d="M72.0315 106.354L85.1354 113.088L85.578 97.0789L72.5134 90.4356L72.0315 106.354Z" fill="white"></path>
<path d="M58.8812 99.3841L72.0315 106.354L72.5134 90.4356L59.378 83.5368L58.8812 99.3841Z" fill="white"></path>
<path d="M45.7922 92.2776L58.8812 99.3841L59.378 83.5368L46.288 76.492L45.7922 92.2776Z" fill="white"></path>
<path d="M59.378 83.5368L59.3812 70.4681L46.288 63.6061L46.288 76.492L59.378 83.5368Z" fill="white"></path>
<path d="M46.288 63.6061L59.3812 70.4681L59.5944 58.1354L46.4971 51.5123L46.288 63.6061Z" fill="white"></path>
<path d="M46.4971 51.5123L59.5944 58.1354L59.9186 39.3895L46.8329 32.0938L46.4971 51.5123Z" fill="white"></path>
</svg>
