<svg xmlns="http://www.w3.org/2000/svg" xmlns:xlink="http://www.w3.org/1999/xlink" viewBox="0 0 400 400"><defs><style>.cls-1{fill:#001221;}.cls-2{fill-rule:evenodd;fill:url(#linear-gradient);}</style><linearGradient id="linear-gradient" x1="29.38" y1="200" x2="370.62" y2="200" gradientUnits="userSpaceOnUse"><stop offset="0" stop-color="#3bb5b6"/><stop offset="1" stop-color="#42e596"/></linearGradient></defs><g id="Layer_2" data-name="Layer 2"><g id="Layer_1-2" data-name="Layer 1"><circle class="cls-1" cx="200" cy="200" r="200"/><path class="cls-2" d="M344.8,175.2l8.8-5.2,17-10-17-10-17.1-9.9-17.1-10-17-10-17.1-10-17.1-10-17-10-17.1-10-17-10L200,60.1l-17.1,10-17,10-17.1,10-17,10-17.1,10-17.1,10-17,10-17.1,10L46.4,150l-17,10,17,10,17.1,10,17.1,10v79.9l17,10,17.1,10,17.1,10,17,10,17.1,10,17,10,17.1,10,17.1-10,17-10,17.1-10,17-10,17.1-10,17.1-10,17-10V190l17.1-10v36.2a5.1,5.1,0,0,0-2.4,4.2,4.8,4.8,0,0,0,2.1,4l-.6,1.8-3.4,10.7h13.7l-3.4-10.7-.6-1.8a4.7,4.7,0,0,0,2-4,5.3,5.3,0,0,0-3.3-4.7V177.6L204.1,97.7l4.2-2.4Zm-103,67.5-16,9.3-15.9,9.4-17.4,10.2L215,284.7,199,294l-15.9,9.3L167.2,294l-15.9-9.3-15.9-9.3L119.5,266l-16-9.3V200.8l31.9-18.6v55.9l15.9,9.3,9.4,5.5,1.5-.9,15.9-9.3,15.9-9.3,15.9-9.3,15.9-9.3,16-9.4ZM218.6,126.5l16,9.3,15.9,9.3,15.9,9.4,15.9,9.3,15.9,9.3V229l-31.8,18.7v-56l-15.9-9.3-9.4-5.5-1.5.9-15.9,9.3-15.9,9.3-16,9.3-15.9,9.4L160,224.4V187.1l15.9-9.3,15.9-9.3,17.4-10.2-22.4-13.2,15.9-9.3Z"/></g></g></svg>