<?xml version="1.0" encoding="UTF-8"?>
<svg version="1.1" viewBox="0 0 256 256" xmlns="http://www.w3.org/2000/svg">
<title>ZPAINT</title>
<g fill="none" fill-rule="evenodd">
<g transform="translate(-10 -10)" fill-rule="nonzero">
<g transform="translate(10 10)">
<circle id="b" cx="128.51" cy="128" r="121.97" fill="#fff"/>
<path id="a" d="m245.98 78.373c-25.497-60.56-92.736-91.946-155.53-72.599-62.796 19.347-100.71 83.131-87.708 147.54 13.006 64.409 72.702 108.48 138.09 101.95 65.383-6.5351 115.18-61.552 115.18-127.26 0.022854-17.047-3.385-33.924-10.021-49.627zm-29.384-26.48-151.49 173.76c-4.6396-3.0238-9.0593-6.3724-13.226-10.021l153-175.49c4.177 3.636 8.0922 7.5622 11.716 11.749zm-88.085-40.356c21.421-0.025525 42.428 5.8928 60.685 17.096l-150.84 173.01c-17.034-20.76-26.333-46.79-26.306-73.643 0-64.217 52.245-116.46 116.46-116.46zm0 232.92c-15.777 0.013003-31.39-3.1974-45.881-9.4343l145.65-167.05c10.942 18.105 16.714 38.862 16.689 60.017 0 64.217-52.246 116.46-116.46 116.46z" fill="#FB0779"/>
<circle cx="128.51" cy="128" r="97.52" fill="#fff"/>
<path d="m222.9 95.108c-1.5593-4.5582-3.4513-8.9957-5.6606-13.277-4.7452-9.1692-10.881-17.548-18.19-24.84-17.614-17.614-40.657-27.831-65.356-29.088l-0.33402-0.015299c-1.6064-0.076494-3.2212-0.11474-4.8446-0.11474-1.6234 0-3.2382 0.038247-4.8446 0.11474l-0.33402 0.015299c-24.7 1.2571-47.742 11.474-65.356 29.088-7.3144 7.2906-13.456 15.67-18.206 24.84-2.2093 4.2811-4.1012 8.7186-5.6606 13.277-7.1454 21.02-7.1454 43.811 0 64.831 1.5595 4.5606 3.4515 9.0006 5.6606 13.284 4.7459 9.168 10.882 17.546 18.19 24.838 17.614 17.617 40.657 27.831 65.356 29.088l0.33402 0.015299c1.6064 0.079894 3.2212 0.11814 4.8446 0.11495 1.6234-0.003608 3.2382-0.041855 4.8446-0.11495l0.33402-0.015299c24.7-1.2571 47.742-11.474 65.356-29.088 7.3138-7.2902 13.455-15.669 18.206-24.838 2.2116-4.2828 4.1061-8.722 5.6682-13.282 7.1454-21.02 7.1454-43.811 0-64.831l-0.007649-0.0025498z" fill="#FB0779"/>
<path d="m173.31 77.154h-89.6c-6.7496 0-12.221 5.4716-12.221 12.221v57.085s0.50996 21.903 23.836 23.833c25.442 2.1061 25.478 12.476 19.544 26.355-6.5428 15.299-15.597 47.75 13.641 47.75 29.239 0 20.184-32.444 13.641-47.75-5.9334-13.879-5.8977-24.249 19.544-26.355 23.333-1.9302 23.836-23.833 23.836-23.833v-57.085c0-6.7496-5.4716-12.221-12.221-12.221zm-94.853 69.306v-49.015h54.387v8.6387c-0.12473 2.3546 1.0605 4.5858 3.0814 5.8006 2.0209 1.2148 4.5474 1.2148 6.5683 0 2.0209-1.2148 3.2062-3.446 3.0814-5.8006v-8.6387h5.6096v23.994c0.16648 3.3951 2.9677 6.0623 6.3669 6.0623 3.3992 0 6.2004-2.6672 6.3669-6.0623v-23.994h3.5264v3.2076c-0.003082 2.6408 1.6263 5.0088 4.0939 5.9495s5.2598 0.25843 7.0155-1.7143v41.562l-100.1 0.010199z" fill="#fff"/>
</g>
</g>
</g>
</svg>
