<?xml version="1.0" encoding="UTF-8" standalone="no"?>
<svg width="194px" height="173px" viewBox="0 0 194 173" version="1.1" xmlns="http://www.w3.org/2000/svg" xmlns:xlink="http://www.w3.org/1999/xlink">
    <!-- Generator: Sketch 50.2 (55047) - http://www.bohemiancoding.com/sketch -->
    <title>RedStone_logo_tylko znak</title>
    <desc>Created with Sketch.</desc>
    <defs></defs>
    <g id="RedStone_logo_tylko-znak" stroke="none" stroke-width="1" fill="none" fill-rule="evenodd">
        <g id="Group-3" transform="translate(13.000000, 17.000000)" fill="#FD627A">
            <path d="M133.610107,65.4682335 L112.799054,31.195479 L123.578286,13.6296707 L155.055453,65.4682335 L133.610107,65.4682335 Z M62.7702464,113.634521 L104.84482,113.634521 L115.347962,130.778653 L52.4560519,130.778653 L62.7702464,113.634521 Z M104.829738,26.5574551 L62.7195531,26.5574551 L52.4267252,9.37308383 L115.374356,9.37308383 L104.829738,26.5574551 Z M104.797897,104.412964 L62.7078224,104.412964 L41.8691192,70.0961976 L62.7078224,35.779012 L104.797897,35.779012 L125.635763,70.0961976 L104.797897,104.412964 Z M44.2529596,13.6665569 L54.7297077,31.1573353 L33.9014783,65.4573353 L12.8051192,65.4573353 L44.2529596,13.6665569 Z M12.7954833,74.6788922 L33.8671242,74.6788922 L54.7544259,109.076138 L44.2676229,126.508653 L12.7954833,74.6788922 Z M123.564461,126.544701 L112.806596,108.984341 L133.631054,74.6897904 L155.051683,74.6897904 L123.564461,126.544701 Z M167.184132,67.6818263 L127.52482,2.36847305 C126.689009,0.991946108 125.195862,0.151526946 123.586246,0.151526946 L44.2676229,0.151526946 C42.657588,0.151526946 41.1644409,0.991946108 40.3290494,2.36847305 L0.670156608,67.6818263 C-0.223050374,69.1526647 -0.223469327,70.9986527 0.669737656,72.469491 L40.3290494,137.782844 C41.1644409,139.15979 42.657588,140.00021 44.2676229,140.00021 L123.586246,140.00021 C125.195862,140.00021 126.689009,139.15979 127.52482,137.782844 L167.184132,72.469491 C168.077758,70.9986527 168.077758,69.1526647 167.184132,67.6818263 Z" id="Fill-1"></path>
            <path d="M107.60555,77.2780299 C105.455904,75.9161737 102.608283,76.5545569 101.246268,78.7061138 L93.0896798,91.5907246 C91.7280838,93.7418623 92.3669865,96.590485 94.5170514,97.9531796 C95.2820589,98.4377305 96.1354653,98.6691078 96.978817,98.6691078 C98.5050613,98.6691078 99.9990464,97.9108443 100.876333,96.5250958 L109.032922,83.640485 C110.394937,81.4893473 109.755615,78.6407246 107.60555,77.2780299" id="Fill-4"></path>
            <path d="M114.310845,65.4133653 C112.118047,64.1223473 109.292211,64.8546228 108.001837,67.0497725 L107.401897,68.0704311 C106.111523,70.2651617 106.843852,73.0911497 109.037907,74.3821677 C109.771493,74.8143234 110.575882,75.0197126 111.369798,75.0197126 C112.949249,75.0197126 114.487643,74.2065389 115.346496,72.7457605 L115.946436,71.725521 C117.23681,69.5303713 116.504481,66.7048024 114.310845,65.4133653" id="Fill-6"></path>
        </g>
    </g>
</svg>