<?xml version="1.0" encoding="utf-8"?>
<!-- Generator: Adobe Illustrator 24.0.0, SVG Export Plug-In . SVG Version: 6.00 Build 0)  -->
<svg version="1.1" id="Layer_1" xmlns="http://www.w3.org/2000/svg" xmlns:xlink="http://www.w3.org/1999/xlink" x="0px" y="0px"
	 viewBox="0 0 100 100" style="enable-background:new 0 0 100 100;" xml:space="preserve">
<style type="text/css">
	.st0{filter:url(#Adobe_OpacityMaskFilter);}
	.st1{fill-rule:evenodd;clip-rule:evenodd;fill:#FFFFFF;}
	.st2{mask:url(#mask-2_1_);fill-rule:evenodd;clip-rule:evenodd;fill:#29B2FF;}
	.st3{fill:none;stroke:#FFFFFF;stroke-width:1.4925;}
</style>
<title>A9583670-E57C-4A05-93ED-98761EAFECA4@3x</title>
<desc>Created with sketchtool.</desc>
<g id="Page-1">
	<g id="Desktop_AlphaLandingpage" transform="translate(-144.000000, -145.000000)">
		<g id="Alpha_Logo_02" transform="translate(144.000000, 145.000000)">
			<g id="Group-3">
				<g id="Clip-2">
				</g>
				<defs>
					<filter id="Adobe_OpacityMaskFilter" filterUnits="userSpaceOnUse" x="0" y="0" width="100" height="100">
						<feColorMatrix  type="matrix" values="1 0 0 0 0  0 1 0 0 0  0 0 1 0 0  0 0 0 1 0"/>
					</filter>
				</defs>
				<mask maskUnits="userSpaceOnUse" x="0" y="0" width="100" height="100" id="mask-2_1_">
					<g class="st0">
						<polygon id="path-1_1_" class="st1" points="0,0 100,0 100,100 0,100 						"/>
					</g>
				</mask>
				<path id="Fill-1" class="st2" d="M50,0C22.4,0,0,22.4,0,50s22.4,50,50,50s50-22.4,50-50S77.6,0,50,0"/>
			</g>
			<polygon id="Fill-4" class="st1" points="35.7,34.6 12.7,65.2 17.4,65.2 22.4,58.5 38.4,58.5 38.4,54.7 25.2,54.7 40.3,34.6 			
				"/>
			<polygon id="Fill-6" class="st1" points="87.3,65.2 64.3,34.6 59.7,34.6 74.8,54.7 61.6,54.7 61.6,58.5 77.6,58.5 82.6,65.2 			
				"/>
			<polygon id="Fill-8" class="st1" points="48.1,65.2 51.9,65.2 51.9,17.9 48.1,17.9 			"/>
			<polygon id="Fill-15" class="st1" points="22,57.7 37.7,57.7 37.7,55.5 22,55.5 			"/>
			<polygon id="Stroke-16" class="st3" points="22,57.7 37.7,57.7 37.7,55.5 22,55.5 			"/>
			<polygon id="Fill-17" class="st1" points="62.3,57.7 78,57.7 78,55.5 62.3,55.5 			"/>
			<polygon id="Stroke-18" class="st3" points="62.3,57.7 78,57.7 78,55.5 62.3,55.5 			"/>
		</g>
	</g>
</g>
</svg>
