<svg width="51" height="51" xmlns="http://www.w3.org/2000/svg">
 <g>
  <title>Layer 1</title>
  <path id="svg_20" fill="#275CDC" d="m25.33894,50.6785c-13.9708,0 -25.33894,-11.3667 -25.33894,-25.3396c0,-13.9722 11.36814,-25.3389 25.33894,-25.3389c13.9707,0 25.3389,11.366 25.3389,25.3389c0,13.9729 -11.3682,25.3396 -25.3389,25.3396zm12.2699,-30.6417c0,1.8247 -1.4804,3.303 -3.3029,3.303c-1.0864,0 -2.0488,-0.5239 -2.6515,-1.3331l-27.4577,0c-0.17,1.085 -0.2575,2.1984 -0.2575,3.3315c0,11.8008 9.5988,21.4004 21.3997,21.4004c8.6416,0 16.1034,-5.1482 19.4786,-12.5392l-25.2791,0c-0.5961,0.85 -1.5855,1.4081 -2.704,1.4081c-1.8247,0 -3.3029,-1.4796 -3.3029,-3.3029c0,-1.8248 1.4782,-3.3016 3.3029,-3.3016c1.0507,0 1.9897,0.4925 2.5938,1.2601l0,-0.0007l26.7391,0c0.3735,-1.5826 0.572,-3.2308 0.572,-4.9235c0,-11.8001 -9.6011,-21.4011 -21.4019,-21.4011c-9.2486,0 -17.1467,5.8989 -20.1294,14.1312l26.445,0c0.6026,-0.8092 1.565,-1.333 2.6514,-1.333c1.8241,0 3.3044,1.4789 3.3044,3.3008z"/>
 </g>

</svg>