<svg width="40" height="40" xmlns="http://www.w3.org/2000/svg" xml:space="preserve" version="1.1">

 <g>
  <title>Layer 1</title>
  <path id="svg_1" fill="#5767ff" d="m36,40l-32,0c-2.2,0 -4,-1.8 -4,-4l0,-32c0,-2.2 1.8,-4 4,-4l32,0c2.2,0 4,1.8 4,4l0,32c0,2.2 -1.8,4 -4,4z"/>
  <path id="svg_2" fill="#fff" d="m25,11.3c-2,0 -3.7,0.8 -5,2.1c-1.3,-1.3 -3,-2.1 -5,-2.1c-3.9,0 -7,3.1 -7,7l0,8.3c0,1.1 0.9,2 2,2s2,-0.9 2,-2l0,-8.3c0,-1.7 1.3,-3 3,-3s3,1.3 3,3l0,8.3c0,1.1 0.9,2 2,2s2,-0.9 2,-2l0,-8.3c0,-1.7 1.3,-3 3,-3s3,1.3 3,3l0,8.3c0,1.1 0.9,2 2,2s2,-0.9 2,-2l0,-8.3c0,-3.8 -3.1,-7 -7,-7z"/>
 </g>
</svg>