<?xml version="1.0" encoding="UTF-8"?>
<svg width="450" height="450" version="1.1" viewBox="0 0 119.06 119.06" xmlns="http://www.w3.org/2000/svg" xmlns:cc="http://creativecommons.org/ns#" xmlns:dc="http://purl.org/dc/elements/1.1/" xmlns:rdf="http://www.w3.org/1999/02/22-rdf-syntax-ns#">
<g transform="translate(2.1704 -179.13)">
<rect x="-1.0568" y="179.26" width="118.79" height="118.79" fill="#1b0020" stroke="#000" stroke-width=".26756"/>
<path transform="matrix(.34721 -.017177 .017471 .34805 -6.6835 115.34)" d="m73.493 296.37-19.323-35.864-29.14 28.469 15.992-37.468-40.426-5.0326 39.265-10.858-21.271-34.744 32.97 23.929 13.902-38.293 1.8482 40.696 38.606-13.006-30.665 26.819 34.239 22.075-40.087-7.2539z" fill="#fff4a8"/>
<path transform="matrix(.34721 -.017177 .017471 .34805 74.966 114.33)" d="m73.493 296.37-19.323-35.864-29.14 28.469 15.992-37.468-40.426-5.0326 39.265-10.858-21.271-34.744 32.97 23.929 13.902-38.293 1.8482 40.696 38.606-13.006-30.665 26.819 34.239 22.075-40.087-7.2539z" fill="#fff4a8"/>
<path transform="matrix(.34721 -.017177 .017471 .34805 -5.4454 188.14)" d="m73.493 296.37-19.323-35.864-29.14 28.469 15.992-37.468-40.426-5.0326 39.265-10.858-21.271-34.744 32.97 23.929 13.902-38.293 1.8482 40.696 38.606-13.006-30.665 26.819 34.239 22.075-40.087-7.2539z" fill="#fff4a8"/>
<path transform="matrix(.99342 -.049144 .049986 .99582 -6.6246 4.0812)" d="m73.493 296.37-19.323-35.864-29.14 28.469 15.992-37.468-40.426-5.0326 39.265-10.858-21.271-34.744 32.97 23.929 13.902-38.293 1.8482 40.696 38.606-13.006-30.665 26.819 34.239 22.075-40.087-7.2539z" fill="#fff400"/>
<path transform="matrix(.51118 -.025288 .025721 .51241 26.715 119.88)" d="m73.493 296.37-19.323-35.864-29.14 28.469 15.992-37.468-40.426-5.0326 39.265-10.858-21.271-34.744 32.97 23.929 13.902-38.293 1.8482 40.696 38.606-13.006-30.665 26.819 34.239 22.075-40.087-7.2539z" fill="#fff4ff"/>
</g>
</svg>
