<svg width="103" height="118" viewBox="0 0 103 118" fill="none" xmlns="http://www.w3.org/2000/svg">
<path d="M51.5009 31.2217L27.8242 44.9515L51.5009 58.6216L75.1775 44.9515L51.5009 31.2217Z" fill="url(#paint0_radial_2634_600)"/>
<g opacity="0.16">
<path opacity="0.16" d="M51.5009 31.8783L73.9877 44.8918L51.5009 57.9649L29.014 44.9515L51.5009 31.8783ZM51.5009 31.2217L27.8242 44.9515L51.5009 58.6813L75.1775 44.9515L51.5009 31.2217Z" fill="url(#paint1_linear_2634_600)"/>
</g>
<path d="M51.5009 86.0828L27.8242 72.353V44.9531L51.5009 58.6232V86.0828Z" fill="url(#paint2_radial_2634_600)"/>
<g opacity="0.16">
<path opacity="0.16" d="M28.4191 45.9679L50.906 58.9814V85.068L28.4191 72.0546V45.9679ZM27.8242 44.9531V72.4127L51.5009 86.1425V58.6829L27.8242 44.9531Z" fill="url(#paint3_linear_2634_600)"/>
</g>
<path d="M51.5 86.0828L75.1766 72.353V44.9531L51.5 58.6232V86.0828Z" fill="url(#paint4_radial_2634_600)"/>
<g opacity="0.16">
<path opacity="0.16" d="M74.5818 45.9679V72.0546L52.0949 85.068V58.9814L74.5818 45.9679ZM75.1766 44.9531L51.5 58.6829V86.1425L75.1766 72.4127V44.9531Z" fill="url(#paint5_linear_2634_600)"/>
</g>
<path d="M78.451 46.8008L54.7148 60.5306L78.451 74.2604L102.128 60.5306L78.451 46.8008Z" fill="url(#paint6_radial_2634_600)"/>
<g opacity="0.16">
<path opacity="0.16" d="M78.4501 47.4574L100.937 60.4709L78.4501 73.4844L55.9632 60.4709L78.4501 47.4574ZM78.4501 46.8008L54.7734 60.5306L78.4501 74.2604L102.127 60.5306L78.4501 46.8008Z" fill="url(#paint7_linear_2634_600)"/>
</g>
<path d="M78.451 101.722L54.7148 87.9918V60.5322L78.451 74.262V101.722Z" fill="url(#paint8_radial_2634_600)"/>
<g opacity="0.16">
<path opacity="0.16" d="M55.3097 61.547L77.7966 74.5605V100.647L55.3097 87.6337V61.547ZM54.7148 60.5322V87.9918L78.3915 101.722V74.262L54.7148 60.5322Z" fill="url(#paint9_linear_2634_600)"/>
</g>
<path d="M78.4531 101.722L102.13 87.9918V60.5322L78.4531 74.262V101.722Z" fill="url(#paint10_radial_2634_600)"/>
<g opacity="0.16">
<path opacity="0.16" d="M101.535 61.547V87.6337L79.048 100.647V74.6202L101.535 61.547ZM102.13 60.5322L78.4531 74.262V101.722L102.13 87.9918V60.5322Z" fill="url(#paint11_linear_2634_600)"/>
</g>
<path d="M24.6111 46.8008L0.875 60.5306L24.6111 74.2604L48.2878 60.5306L24.6111 46.8008Z" fill="url(#paint12_radial_2634_600)"/>
<g opacity="0.16">
<path opacity="0.16" d="M24.6102 47.4574L47.0971 60.4709L24.6102 73.4843L2.12337 60.4709L24.6102 47.4574ZM24.6102 46.8008L0.933594 60.5306L24.6102 74.2604L48.2869 60.5306L24.6102 46.8008Z" fill="url(#paint13_linear_2634_600)"/>
</g>
<path d="M24.6111 101.722L0.875 87.9918V60.5322L24.6111 74.262V101.722Z" fill="url(#paint14_radial_2634_600)"/>
<g opacity="0.16">
<path opacity="0.16" d="M1.46989 61.547L24.0162 74.6202V100.707L1.52938 87.6934V61.547H1.46989ZM0.875 60.5322V87.9918L24.5516 101.722V74.262L0.875 60.5322Z" fill="url(#paint15_linear_2634_600)"/>
</g>
<path d="M24.6133 101.722L48.2899 87.9918V60.5322L24.6133 74.262V101.722Z" fill="url(#paint16_radial_2634_600)"/>
<g opacity="0.16">
<path opacity="0.16" d="M47.695 61.547V87.6337L25.2082 100.647V74.6202L47.695 61.547ZM48.2899 60.5322L24.6133 74.262V101.722L48.2899 87.9918V60.5322Z" fill="url(#paint17_linear_2634_600)"/>
</g>
<path d="M51.5009 62.3799L27.8242 76.1097L51.5009 89.8395L75.1775 76.1097L51.5009 62.3799Z" fill="url(#paint18_radial_2634_600)"/>
<g opacity="0.16">
<path opacity="0.16" d="M51.5009 63.0962L73.9877 76.1097L51.5009 89.1828L29.014 76.1694L51.5009 63.0962ZM51.5009 62.3799L27.8242 76.1097L51.5009 89.8395L75.1775 76.1097L51.5009 62.3799Z" fill="url(#paint19_linear_2634_600)"/>
</g>
<path d="M51.5009 117.301L27.8242 103.571V76.1113L51.5009 89.8411V117.301Z" fill="url(#paint20_radial_2634_600)"/>
<g opacity="0.16">
<path opacity="0.16" d="M28.4191 77.1261L50.906 90.1396V116.226L28.4191 103.213V77.1261ZM27.8242 76.1113V103.571L51.5009 117.301V89.8411L27.8242 76.1113Z" fill="url(#paint21_linear_2634_600)"/>
</g>
<path d="M51.5 117.301L75.1766 103.571V76.1113L51.5 89.8411V117.301Z" fill="url(#paint22_radial_2634_600)"/>
<g opacity="0.16">
<path opacity="0.16" d="M74.5818 77.1261V103.213L52.0949 116.286V90.1993L74.5818 77.1261ZM75.1766 76.1113L51.5 89.8411V117.301L75.1766 103.571V76.1113Z" fill="url(#paint23_linear_2634_600)"/>
</g>
<path d="M51.4989 0L27.8223 13.7298L51.4989 27.4596L75.1756 13.7298L51.4989 0Z" fill="url(#paint24_radial_2634_600)"/>
<g opacity="0.16">
<path opacity="0.16" d="M51.4989 0.716338L73.9858 13.7298L51.4989 26.7433L29.012 13.7298L51.4989 0.716338ZM51.4989 0L27.8223 13.7298L51.4989 27.4596L75.1756 13.7298L51.4989 0Z" fill="url(#paint25_linear_2634_600)"/>
</g>
<path d="M51.4989 54.9209L27.8223 41.1911V13.7314L51.4989 27.4612V54.9209Z" fill="url(#paint26_radial_2634_600)"/>
<g opacity="0.16">
<path opacity="0.16" d="M28.4172 14.7463L50.904 27.8194V53.906L28.4172 40.8329V14.7463ZM27.8223 13.7314V41.1911L51.4989 54.9209V27.4612L27.8223 13.7314Z" fill="url(#paint27_linear_2634_600)"/>
</g>
<path d="M51.498 54.9209L75.1747 41.1911V13.7314L51.498 27.4612V54.9209Z" fill="url(#paint28_radial_2634_600)"/>
<g opacity="0.16">
<path opacity="0.16" d="M74.5798 14.7463V40.8329L52.0929 53.8463V27.8194L74.5798 14.7463ZM75.1747 13.7314L51.498 27.4612V54.9209L75.1747 41.1911V13.7314Z" fill="url(#paint29_linear_2634_600)"/>
</g>
<path d="M78.451 15.5801L54.7148 29.3099L78.451 43.0397L102.128 29.3099L78.451 15.5801Z" fill="url(#paint30_radial_2634_600)"/>
<g opacity="0.16">
<path opacity="0.16" d="M78.4501 16.2964L100.937 29.3099L78.4501 42.383L55.9632 29.3696L78.4501 16.2964ZM78.4501 15.5801L54.7734 29.3099L78.4501 43.0397L102.127 29.3099L78.4501 15.5801Z" fill="url(#paint31_linear_2634_600)"/>
</g>
<path d="M78.451 70.5009L54.7148 56.7711V29.3115L78.451 43.0413V70.5009Z" fill="url(#paint32_radial_2634_600)"/>
<g opacity="0.16">
<path opacity="0.16" d="M55.3097 30.386L77.7966 43.3995V69.4861L55.3097 56.4727V30.386ZM54.7148 29.3115V56.7711L78.3915 70.5009V43.0413L54.7148 29.3115Z" fill="url(#paint33_linear_2634_600)"/>
</g>
<path d="M78.4531 70.5009L102.13 56.7711V29.3115L78.4531 43.0413V70.5009Z" fill="url(#paint34_radial_2634_600)"/>
<g opacity="0.16">
<path opacity="0.16" d="M101.535 30.386V56.4727L79.048 69.4861V43.3995L101.535 30.386ZM102.13 29.3115L78.4531 43.0413V70.5009L102.13 56.7711V29.3115Z" fill="url(#paint35_linear_2634_600)"/>
</g>
<path d="M24.6111 15.5801L0.875 29.3099L24.6111 43.0397L48.2878 29.3099L24.6111 15.5801Z" fill="url(#paint36_radial_2634_600)"/>
<g opacity="0.16">
<path opacity="0.16" d="M24.6102 16.2964L47.0971 29.3099L24.6102 42.383L2.06389 29.3099L24.6102 16.2964ZM24.6102 15.5801L0.933594 29.3099L24.6102 43.0397L48.2869 29.3099L24.6102 15.5801Z" fill="url(#paint37_linear_2634_600)"/>
</g>
<path d="M24.6111 70.5009L0.875 56.7711V29.3115L24.6111 43.0413V70.5009Z" fill="url(#paint38_radial_2634_600)"/>
<g opacity="0.16">
<path opacity="0.16" d="M1.46989 30.386L23.9568 43.3995V69.4861L1.46989 56.413V30.386ZM0.875 29.3115V56.7711L24.5516 70.5009V43.0413L0.875 29.3115Z" fill="url(#paint39_linear_2634_600)"/>
</g>
<path d="M24.6133 70.5009L48.2899 56.7711V29.3115L24.6133 43.0413V70.5009Z" fill="url(#paint40_radial_2634_600)"/>
<g opacity="0.16">
<path opacity="0.16" d="M47.695 30.386V56.4727L25.2082 69.4861V43.3995L47.695 30.386ZM48.2899 29.3115L24.6133 43.0413V70.5009L48.2899 56.7711V29.3115Z" fill="url(#paint41_linear_2634_600)"/>
</g>
<path d="M51.4984 27.46L24.6094 43.0403L51.4984 58.6206L78.447 43.0403L51.4984 27.46Z" fill="url(#paint42_radial_2634_600)"/>
<g opacity="0.16">
<path opacity="0.16" d="M51.4984 28.1166L77.2572 43.0403L51.4984 57.964L25.7397 43.0403L51.4984 28.1166ZM51.4984 27.46L24.6094 43.0403L51.4984 58.6206L78.447 43.0403L51.4984 27.46Z" fill="url(#paint43_linear_2634_600)"/>
</g>
<path d="M24.7266 74.1404V44.3527C24.7266 43.2782 25.6189 42.3828 26.6897 42.3828C26.9871 42.3828 27.2846 42.4425 27.582 42.6216L51.3182 54.6202V89.6611L24.7266 74.1404Z" fill="url(#paint44_linear_2634_600)"/>
<path d="M26.6924 42.5036C26.9898 42.5036 27.2278 42.5632 27.5252 42.6826L51.2019 54.6216V89.3043L24.8482 74.0224V44.3541C24.9077 43.3393 25.6811 42.5036 26.6924 42.5036ZM26.6924 42.2051C25.5621 42.2051 24.5508 43.1005 24.5508 44.3541V74.2612L51.4993 89.8415V54.4425L27.7037 42.4439C27.3468 42.2648 27.0493 42.2051 26.6924 42.2051Z" fill="url(#paint45_linear_2634_600)"/>
<path d="M51.6758 56.7113C51.6758 56.2934 51.9137 55.8755 52.3302 55.6964L76.6612 43.1008C76.8397 43.0411 77.0181 42.9814 77.1966 42.9814C77.851 42.9814 78.3864 43.5187 78.3864 44.1753V73.5452C78.3864 73.963 78.1484 74.3212 77.7915 74.56L51.7353 89.6628V56.7113H51.6758Z" fill="url(#paint46_linear_2634_600)"/>
<path d="M77.1398 43.1022C77.6157 43.1022 78.1511 43.5201 78.1511 44.117V73.4868C78.1511 73.845 77.9726 74.2032 77.6157 74.3823L51.7974 89.3656V56.7126C51.7974 56.3544 52.0354 55.9963 52.3328 55.8172L76.6639 43.2216C76.7829 43.1619 76.9613 43.1022 77.1398 43.1022ZM77.1398 42.8037C76.9613 42.8037 76.7234 42.8634 76.5449 42.9231L52.2139 55.5187C51.7974 55.7575 51.5 56.1753 51.5 56.7126V89.8432L77.7347 74.621C78.1511 74.3823 78.3891 73.9644 78.3891 73.4868V44.117C78.4486 43.341 77.7942 42.8037 77.1398 42.8037Z" fill="url(#paint47_linear_2634_600)"/>
<path d="M24.7266 74.1404V44.3527C24.7266 43.2782 25.6189 42.3828 26.6897 42.3828C26.9871 42.3828 27.2846 42.4425 27.582 42.6216L51.3182 54.6202V89.6611L24.7266 74.1404Z" fill="url(#paint48_linear_2634_600)"/>
<path d="M26.6924 42.5036C26.9898 42.5036 27.2278 42.5632 27.5252 42.6826L51.2019 54.6216V89.3043L24.8482 74.0224V44.3541C24.9077 43.3393 25.6811 42.5036 26.6924 42.5036ZM26.6924 42.2051C25.5621 42.2051 24.5508 43.1005 24.5508 44.3541V74.2612L51.4993 89.8415V54.4425L27.7037 42.4439C27.3468 42.2648 27.0493 42.2051 26.6924 42.2051Z" fill="#2976FF"/>
<path d="M51.6758 56.7113C51.6758 56.2934 51.9137 55.8755 52.3302 55.6964L76.6612 43.1008C76.8397 43.0411 77.0181 42.9814 77.1966 42.9814C77.851 42.9814 78.3864 43.5187 78.3864 44.1753V73.5452C78.3864 73.963 78.1484 74.3212 77.7915 74.56L51.7353 89.6628V56.7113H51.6758Z" fill="url(#paint49_linear_2634_600)"/>
<path d="M77.1398 43.1022C77.6157 43.1022 78.1511 43.5201 78.1511 44.117V73.4868C78.1511 73.845 77.9726 74.2032 77.6157 74.3823L51.7974 89.3656V56.7126C51.7974 56.3544 52.0354 55.9963 52.3328 55.8172L76.6639 43.2216C76.7829 43.1619 76.9613 43.1022 77.1398 43.1022ZM77.1398 42.8037C76.9613 42.8037 76.7234 42.8634 76.5449 42.9231L52.2139 55.5187C51.7974 55.7575 51.5 56.1753 51.5 56.7126V89.8432L77.7347 74.621C78.1511 74.3823 78.3891 73.9644 78.3891 73.4868V44.117C78.4486 43.341 77.7942 42.8037 77.1398 42.8037Z" fill="#197BFF"/>
<defs>
<radialGradient id="paint0_radial_2634_600" cx="0" cy="0" r="1" gradientUnits="userSpaceOnUse" gradientTransform="translate(51.7069 31.4362) scale(29.2322 29.3333)">
<stop stop-color="#5F7495"/>
<stop offset="0.3347" stop-color="#647899"/>
<stop offset="0.7157" stop-color="#7185A3"/>
<stop offset="0.9892" stop-color="#8092AE"/>
</radialGradient>
<linearGradient id="paint1_linear_2634_600" x1="51.5059" y1="58.6486" x2="51.5059" y2="31.1979" gradientUnits="userSpaceOnUse">
<stop offset="0.2427"/>
<stop offset="1" stop-color="white" stop-opacity="0.9"/>
</linearGradient>
<radialGradient id="paint2_radial_2634_600" cx="0" cy="0" r="1" gradientUnits="userSpaceOnUse" gradientTransform="translate(39.7609 45.2823) scale(34.4972 34.6165)">
<stop stop-color="#5F7495"/>
<stop offset="0.3347" stop-color="#647899"/>
<stop offset="0.7157" stop-color="#7185A3"/>
<stop offset="0.9892" stop-color="#8092AE"/>
</radialGradient>
<linearGradient id="paint3_linear_2634_600" x1="39.6604" y1="86.1009" x2="39.6604" y2="44.9249" gradientUnits="userSpaceOnUse">
<stop offset="0.2427"/>
<stop offset="1" stop-color="white" stop-opacity="0.9"/>
</linearGradient>
<radialGradient id="paint4_radial_2634_600" cx="0" cy="0" r="1" gradientUnits="userSpaceOnUse" gradientTransform="translate(63.4511 45.2823) scale(34.4972 34.6165)">
<stop stop-color="#5F7495"/>
<stop offset="0.3347" stop-color="#647899"/>
<stop offset="0.7157" stop-color="#7185A3"/>
<stop offset="0.9892" stop-color="#8092AE"/>
</radialGradient>
<linearGradient id="paint5_linear_2634_600" x1="63.3506" y1="86.1009" x2="63.3506" y2="44.9249" gradientUnits="userSpaceOnUse">
<stop offset="0.2427"/>
<stop offset="1" stop-color="white" stop-opacity="0.9"/>
</linearGradient>
<radialGradient id="paint6_radial_2634_600" cx="0" cy="0" r="1" gradientUnits="userSpaceOnUse" gradientTransform="translate(78.6301 47.0341) scale(29.2322 29.3333)">
<stop stop-color="#5F7495"/>
<stop offset="0.3347" stop-color="#647899"/>
<stop offset="0.7157" stop-color="#7185A3"/>
<stop offset="0.9892" stop-color="#8092AE"/>
</radialGradient>
<linearGradient id="paint7_linear_2634_600" x1="78.4283" y1="74.2466" x2="78.4283" y2="46.7959" gradientUnits="userSpaceOnUse">
<stop offset="0.2427"/>
<stop offset="1" stop-color="white" stop-opacity="0.9"/>
</linearGradient>
<radialGradient id="paint8_radial_2634_600" cx="0" cy="0" r="1" gradientUnits="userSpaceOnUse" gradientTransform="translate(66.6841 60.8802) scale(34.4972 34.6165)">
<stop stop-color="#5F7495"/>
<stop offset="0.3347" stop-color="#647899"/>
<stop offset="0.7157" stop-color="#7185A3"/>
<stop offset="0.9892" stop-color="#8092AE"/>
</radialGradient>
<linearGradient id="paint9_linear_2634_600" x1="66.5836" y1="101.699" x2="66.5836" y2="60.5229" gradientUnits="userSpaceOnUse">
<stop offset="0.2427"/>
<stop offset="1" stop-color="white" stop-opacity="0.9"/>
</linearGradient>
<radialGradient id="paint10_radial_2634_600" cx="0" cy="0" r="1" gradientUnits="userSpaceOnUse" gradientTransform="translate(90.3774 60.8802) scale(34.4972 34.6165)">
<stop offset="0.0107527" stop-color="#8C9CB6"/>
<stop offset="1" stop-color="#8C9CB6"/>
</radialGradient>
<linearGradient id="paint11_linear_2634_600" x1="90.2769" y1="101.699" x2="90.2769" y2="60.5229" gradientUnits="userSpaceOnUse">
<stop offset="0.2427"/>
<stop offset="1" stop-color="white" stop-opacity="0.9"/>
</linearGradient>
<radialGradient id="paint12_radial_2634_600" cx="0" cy="0" r="1" gradientUnits="userSpaceOnUse" gradientTransform="translate(24.7845 47.0341) scale(29.2322 29.3333)">
<stop stop-color="#5F7495"/>
<stop offset="0.3347" stop-color="#647899"/>
<stop offset="0.7157" stop-color="#7185A3"/>
<stop offset="0.9892" stop-color="#8092AE"/>
</radialGradient>
<linearGradient id="paint13_linear_2634_600" x1="24.5827" y1="74.2466" x2="24.5827" y2="46.7959" gradientUnits="userSpaceOnUse">
<stop offset="0.2427"/>
<stop offset="1" stop-color="white" stop-opacity="0.9"/>
</linearGradient>
<radialGradient id="paint14_radial_2634_600" cx="0" cy="0" r="1" gradientUnits="userSpaceOnUse" gradientTransform="translate(12.8385 60.8802) scale(34.4972 34.6165)">
<stop offset="0.0107527" stop-color="#8C9CB6"/>
<stop offset="1" stop-color="#8C9CB6"/>
</radialGradient>
<linearGradient id="paint15_linear_2634_600" x1="12.738" y1="101.699" x2="12.738" y2="60.5229" gradientUnits="userSpaceOnUse">
<stop offset="0.2427"/>
<stop offset="1" stop-color="white" stop-opacity="0.9"/>
</linearGradient>
<radialGradient id="paint16_radial_2634_600" cx="0" cy="0" r="1" gradientUnits="userSpaceOnUse" gradientTransform="translate(36.5317 60.8802) scale(34.4972 34.6165)">
<stop stop-color="#5F7495"/>
<stop offset="0.3347" stop-color="#647899"/>
<stop offset="0.7157" stop-color="#7185A3"/>
<stop offset="0.9892" stop-color="#8092AE"/>
</radialGradient>
<linearGradient id="paint17_linear_2634_600" x1="36.4313" y1="101.699" x2="36.4313" y2="60.5229" gradientUnits="userSpaceOnUse">
<stop offset="0.2427"/>
<stop offset="1" stop-color="white" stop-opacity="0.9"/>
</linearGradient>
<radialGradient id="paint18_radial_2634_600" cx="0" cy="0" r="1" gradientUnits="userSpaceOnUse" gradientTransform="translate(52.3787 63.974) scale(33.5216 33.6375)">
<stop stop-color="#5F7495"/>
<stop offset="0.3347" stop-color="#647899"/>
<stop offset="0.7157" stop-color="#7185A3"/>
<stop offset="0.9892" stop-color="#8092AE"/>
</radialGradient>
<linearGradient id="paint19_linear_2634_600" x1="51.5059" y1="89.8427" x2="51.5059" y2="62.3921" gradientUnits="userSpaceOnUse">
<stop offset="0.2427"/>
<stop offset="1" stop-color="white" stop-opacity="0.9"/>
</linearGradient>
<radialGradient id="paint20_radial_2634_600" cx="0" cy="0" r="1" gradientUnits="userSpaceOnUse" gradientTransform="translate(39.7609 76.4764) scale(34.4972 34.6165)">
<stop offset="0.0107527" stop-color="#8C9CB6"/>
<stop offset="1" stop-color="#8C9CB6"/>
</radialGradient>
<linearGradient id="paint21_linear_2634_600" x1="39.6604" y1="117.295" x2="39.6604" y2="76.119" gradientUnits="userSpaceOnUse">
<stop offset="0.2427"/>
<stop offset="1" stop-color="white" stop-opacity="0.9"/>
</linearGradient>
<radialGradient id="paint22_radial_2634_600" cx="0" cy="0" r="1" gradientUnits="userSpaceOnUse" gradientTransform="translate(63.4511 76.4764) scale(34.4972 34.6165)">
<stop offset="0.0107527" stop-color="#8C9CB6"/>
<stop offset="1" stop-color="#8C9CB6"/>
</radialGradient>
<linearGradient id="paint23_linear_2634_600" x1="63.3506" y1="117.295" x2="63.3506" y2="76.119" gradientUnits="userSpaceOnUse">
<stop offset="0.2427"/>
<stop offset="1" stop-color="white" stop-opacity="0.9"/>
</linearGradient>
<radialGradient id="paint24_radial_2634_600" cx="0" cy="0" r="1" gradientUnits="userSpaceOnUse" gradientTransform="translate(51.7049 0.238242) scale(29.2322 29.3333)">
<stop stop-color="#BCC6D4"/>
<stop offset="0.2717" stop-color="#B7C2D1"/>
<stop offset="0.5815" stop-color="#AAB6C8"/>
<stop offset="0.9089" stop-color="#93A2BA"/>
<stop offset="0.9892" stop-color="#8C9CB6"/>
</radialGradient>
<linearGradient id="paint25_linear_2634_600" x1="51.504" y1="27.4507" x2="51.504" y2="0" gradientUnits="userSpaceOnUse">
<stop offset="0.2427"/>
<stop offset="1" stop-color="white" stop-opacity="0.9"/>
</linearGradient>
<radialGradient id="paint26_radial_2634_600" cx="0" cy="0" r="1" gradientUnits="userSpaceOnUse" gradientTransform="translate(32.255 60.9921) scale(70.0539 70.2961)">
<stop stop-color="#5F7495"/>
<stop offset="0.3347" stop-color="#647899"/>
<stop offset="0.7157" stop-color="#7185A3"/>
<stop offset="0.9892" stop-color="#8092AE"/>
</radialGradient>
<linearGradient id="paint27_linear_2634_600" x1="39.6585" y1="54.9031" x2="39.6585" y2="13.727" gradientUnits="userSpaceOnUse">
<stop offset="0.2427"/>
<stop offset="1" stop-color="white" stop-opacity="0.9"/>
</linearGradient>
<radialGradient id="paint28_radial_2634_600" cx="0" cy="0" r="1" gradientUnits="userSpaceOnUse" gradientTransform="translate(55.9453 60.9921) scale(70.0539 70.2961)">
<stop stop-color="#5F7495"/>
<stop offset="0.3347" stop-color="#647899"/>
<stop offset="0.7157" stop-color="#7185A3"/>
<stop offset="0.9892" stop-color="#8092AE"/>
</radialGradient>
<linearGradient id="paint29_linear_2634_600" x1="63.3486" y1="54.9031" x2="63.3486" y2="13.727" gradientUnits="userSpaceOnUse">
<stop offset="0.2427"/>
<stop offset="1" stop-color="white" stop-opacity="0.9"/>
</linearGradient>
<radialGradient id="paint30_radial_2634_600" cx="0" cy="0" r="1" gradientUnits="userSpaceOnUse" gradientTransform="translate(78.6301 15.8372) scale(29.2322 29.3333)">
<stop stop-color="#BCC6D4"/>
<stop offset="0.2717" stop-color="#B7C2D1"/>
<stop offset="0.5815" stop-color="#AAB6C8"/>
<stop offset="0.9089" stop-color="#93A2BA"/>
<stop offset="0.9892" stop-color="#8C9CB6"/>
</radialGradient>
<linearGradient id="paint31_linear_2634_600" x1="78.4283" y1="43.0497" x2="78.4283" y2="15.599" gradientUnits="userSpaceOnUse">
<stop offset="0.2427"/>
<stop offset="1" stop-color="white" stop-opacity="0.9"/>
</linearGradient>
<radialGradient id="paint32_radial_2634_600" cx="0" cy="0" r="1" gradientUnits="userSpaceOnUse" gradientTransform="translate(64.091 45.8692) scale(39.0343 39.1693)">
<stop stop-color="#5F7495"/>
<stop offset="0.3347" stop-color="#647899"/>
<stop offset="0.7157" stop-color="#7185A3"/>
<stop offset="0.9892" stop-color="#8092AE"/>
</radialGradient>
<linearGradient id="paint33_linear_2634_600" x1="57.2413" y1="59.2886" x2="75.9904" y2="40.6041" gradientUnits="userSpaceOnUse">
<stop offset="0.2427"/>
<stop offset="1" stop-color="white" stop-opacity="0.9"/>
</linearGradient>
<radialGradient id="paint34_radial_2634_600" cx="0" cy="0" r="1" gradientUnits="userSpaceOnUse" gradientTransform="translate(90.3774 29.6834) scale(34.4972 34.6165)">
<stop offset="0.0107527" stop-color="#8C9CB6"/>
<stop offset="1" stop-color="#8C9CB6"/>
</radialGradient>
<linearGradient id="paint35_linear_2634_600" x1="90.2769" y1="70.502" x2="90.2769" y2="29.3259" gradientUnits="userSpaceOnUse">
<stop offset="0.2427"/>
<stop offset="1" stop-color="white" stop-opacity="0.9"/>
</linearGradient>
<radialGradient id="paint36_radial_2634_600" cx="0" cy="0" r="1" gradientUnits="userSpaceOnUse" gradientTransform="translate(24.7845 15.8372) scale(29.2322 29.3333)">
<stop stop-color="#BCC6D4"/>
<stop offset="0.2717" stop-color="#B7C2D1"/>
<stop offset="0.5815" stop-color="#AAB6C8"/>
<stop offset="0.9089" stop-color="#93A2BA"/>
<stop offset="0.9892" stop-color="#8C9CB6"/>
</radialGradient>
<linearGradient id="paint37_linear_2634_600" x1="24.5827" y1="43.0497" x2="24.5827" y2="15.599" gradientUnits="userSpaceOnUse">
<stop offset="0.2427"/>
<stop offset="1" stop-color="white" stop-opacity="0.9"/>
</linearGradient>
<radialGradient id="paint38_radial_2634_600" cx="0" cy="0" r="1" gradientUnits="userSpaceOnUse" gradientTransform="translate(12.8385 29.6834) scale(34.4972 34.6165)">
<stop offset="0.0107527" stop-color="#8C9CB6"/>
<stop offset="1" stop-color="#8C9CB6"/>
</radialGradient>
<linearGradient id="paint39_linear_2634_600" x1="12.738" y1="70.502" x2="12.738" y2="29.3259" gradientUnits="userSpaceOnUse">
<stop offset="0.2427"/>
<stop offset="1" stop-color="white" stop-opacity="0.9"/>
</linearGradient>
<radialGradient id="paint40_radial_2634_600" cx="0" cy="0" r="1" gradientUnits="userSpaceOnUse" gradientTransform="translate(33.9386 45.8692) scale(39.0343 39.1693)">
<stop stop-color="#5F7495"/>
<stop offset="0.3347" stop-color="#647899"/>
<stop offset="0.7157" stop-color="#7185A3"/>
<stop offset="0.9892" stop-color="#8092AE"/>
</radialGradient>
<linearGradient id="paint41_linear_2634_600" x1="48.2768" y1="56.7766" x2="24.5449" y2="43.1223" gradientUnits="userSpaceOnUse">
<stop offset="0.2427"/>
<stop offset="1" stop-color="white" stop-opacity="0.9"/>
</linearGradient>
<radialGradient id="paint42_radial_2634_600" cx="0" cy="0" r="1" gradientUnits="userSpaceOnUse" gradientTransform="translate(51.7318 27.7245) scale(33.2184 33.3333)">
<stop stop-color="#76BFFF"/>
<stop offset="0.1647" stop-color="#71BDFF"/>
<stop offset="0.3526" stop-color="#64B6FF"/>
<stop offset="0.5519" stop-color="#4DACFF"/>
<stop offset="0.7591" stop-color="#2D9DFF"/>
<stop offset="0.9706" stop-color="#048AFF"/>
<stop offset="0.9892" stop-color="#0088FF"/>
</radialGradient>
<linearGradient id="paint43_linear_2634_600" x1="51.5035" y1="58.6477" x2="51.5035" y2="27.4537" gradientUnits="userSpaceOnUse">
<stop offset="0.2427"/>
<stop offset="1" stop-color="white" stop-opacity="0.9"/>
</linearGradient>
<linearGradient id="paint44_linear_2634_600" x1="63.3115" y1="59.7305" x2="38.0813" y2="165.072" gradientUnits="userSpaceOnUse">
<stop offset="0.0107527" stop-color="#0088FF"/>
<stop offset="1" stop-color="#0073D8"/>
</linearGradient>
<linearGradient id="paint45_linear_2634_600" x1="63.3142" y1="59.7319" x2="38.084" y2="165.074" gradientUnits="userSpaceOnUse">
<stop offset="0.0107527" stop-color="#0088FF"/>
<stop offset="1" stop-color="#0073D8"/>
</linearGradient>
<linearGradient id="paint46_linear_2634_600" x1="63.3121" y1="59.7322" x2="38.0819" y2="165.074" gradientUnits="userSpaceOnUse">
<stop offset="0.0107527" stop-color="#0088FF"/>
<stop offset="1" stop-color="#0073D8"/>
</linearGradient>
<linearGradient id="paint47_linear_2634_600" x1="63.3148" y1="59.7336" x2="38.0846" y2="165.075" gradientUnits="userSpaceOnUse">
<stop offset="0.0107527" stop-color="#0088FF"/>
<stop offset="1" stop-color="#0073D8"/>
</linearGradient>
<linearGradient id="paint48_linear_2634_600" x1="41.7331" y1="51.3213" x2="34.9834" y2="79.5029" gradientUnits="userSpaceOnUse">
<stop offset="0.0107527" stop-color="#0088FF"/>
<stop offset="1" stop-color="#0073D8"/>
</linearGradient>
<linearGradient id="paint49_linear_2634_600" x1="53.5079" y1="89.0168" x2="75.3737" y2="43.6691" gradientUnits="userSpaceOnUse">
<stop offset="0.0107527" stop-color="#007EEB"/>
<stop offset="0.0541728" stop-color="#007FED"/>
<stop offset="0.5578" stop-color="#0086FA"/>
<stop offset="1" stop-color="#0088FF"/>
</linearGradient>
</defs>
</svg>
