<svg width="429" height="214" viewBox="0 0 429 214" fill="none" xmlns="http://www.w3.org/2000/svg">
<path d="M0 214H71.3763L85.9429 174.61L53.1681 107.5L0 214Z" fill="black"/>
<path d="M189.366 160.75L109.978 1L85.9429 55.7089L160.961 214H215L189.366 160.75Z" fill="black"/>
<path fill-rule="evenodd" clip-rule="evenodd" d="M322 214C381.094 214 429 166.094 429 107C429 47.9055 381.094 0 322 0C262.906 0 215 47.9055 215 107C215 166.094 262.906 214 322 214ZM322 172C357.899 172 387 142.899 387 107C387 71.1015 357.899 42 322 42C286.101 42 257 71.1015 257 107C257 142.899 286.101 172 322 172Z" fill="black"/>
</svg>
