<svg width="250" height="250" viewBox="0 0 250 250" fill="none" xmlns="http://www.w3.org/2000/svg">
<g clip-path="url(#clip0)">
<path fill-rule="evenodd" clip-rule="evenodd" d="M154.623 7.99844C157.072 3.09827 162.097 0 167.597 0C187.883 0 235.512 0 235.512 0C240.527 0 245.186 2.58132 247.828 6.82387C250.469 11.0664 250.718 16.3668 248.485 20.8356C224.319 69.1991 164.466 188.982 137.973 242.002C135.525 246.902 130.499 250 125 250C119.501 250 114.475 246.902 112.027 242.002C85.5343 188.982 25.6814 69.199 1.51522 20.8356C-0.717869 16.3668 -0.469246 11.0664 2.17225 6.82387C4.81392 2.58132 9.47256 0 14.4882 0C14.4882 0 62.1169 0 82.4034 0C87.9028 0 92.9282 3.09827 95.3767 7.99844C101.379 20.0116 112.027 41.3206 112.027 41.3206C114.475 46.2206 119.501 49.3189 125 49.3189C130.499 49.3189 135.525 46.2206 137.973 41.3206C137.973 41.3206 148.621 20.0116 154.623 7.99844Z" fill="url(#paint0_linear)"/>
<mask id="mask0" mask-type="alpha" maskUnits="userSpaceOnUse" x="0" y="0" width="250" height="250">
<path fill-rule="evenodd" clip-rule="evenodd" d="M154.623 7.99845C157.072 3.09827 162.097 0 167.597 0C187.883 0 235.512 0 235.512 0C240.527 0 245.186 2.58132 247.828 6.82388C250.469 11.0664 250.718 16.3668 248.485 20.8357C224.319 69.1992 164.466 188.982 137.973 242.002C135.525 246.902 130.499 250 125 250C119.501 250 114.475 246.902 112.027 242.002C85.5343 188.982 25.6814 69.199 1.51522 20.8357C-0.71787 16.3668 -0.469246 11.0664 2.17225 6.82388C4.81392 2.58132 9.47257 0 14.4882 0C14.4882 0 62.1169 0 82.4034 0C87.9029 0 92.9282 3.09827 95.3767 7.99845C101.379 20.0116 112.027 41.3206 112.027 41.3206C114.475 46.2206 119.501 49.3189 125 49.3189C130.499 49.3189 135.525 46.2206 137.973 41.3206C137.973 41.3206 148.621 20.0116 154.623 7.99845Z" fill="white"/>
</mask>
<g mask="url(#mask0)">
<path fill-rule="evenodd" clip-rule="evenodd" d="M53.8838 0H-8.89001L116.036 250H178.81L53.8838 0Z" fill="url(#paint1_linear)"/>
</g>
</g>
<defs>
<linearGradient id="paint0_linear" x1="54.5" y1="-4.75034e-06" x2="155.5" y2="203.5" gradientUnits="userSpaceOnUse">
<stop stop-color="#F4F4F4"/>
<stop offset="1" stop-color="white"/>
</linearGradient>
<linearGradient id="paint1_linear" x1="22.3933" y1="31.25" x2="187.854" y2="171.006" gradientUnits="userSpaceOnUse">
<stop stop-color="#E698E8"/>
<stop offset="1" stop-color="#8D5FBC"/>
</linearGradient>
<clipPath id="clip0">
<rect width="250" height="250" fill="white"/>
</clipPath>
</defs>
</svg>
