<svg width="50" height="50" viewBox="0 0 50 50" fill="none" xmlns="http://www.w3.org/2000/svg">
<path d="M27.2922 45.6802C26.2734 47.4447 23.7265 47.4447 22.7077 45.6802L0.358659 6.97025C-0.660108 5.20574 0.613284 3 2.65082 3H47.3492C49.3868 3 50.6602 5.20574 49.6414 6.97025L27.2922 45.6802Z" fill="#F5F5F5"/>
<path fill-rule="evenodd" clip-rule="evenodd" d="M22.7078 45.6802C23.7265 47.4447 26.2734 47.4447 27.2922 45.6802L49.6414 6.97025C49.647 6.96059 49.6525 6.95093 49.658 6.94127L30.7303 39.7248L9.52732 3H2.65084C0.613305 3 -0.660219 5.20574 0.358548 6.97025L22.7078 45.6802Z" fill="url(#paint0_linear)"/>
<defs>
<linearGradient id="paint0_linear" x1="6.21196e-09" y1="9.03013" x2="20.861" y2="44.6052" gradientUnits="userSpaceOnUse">
<stop stop-color="#B288DE"/>
<stop offset="1" stop-color="#9853BB"/>
</linearGradient>
</defs>
</svg>
