<svg width="200" height="200" viewBox="0 0 300 300" xmlns="http://www.w3.org/2000/svg" stroke-miterlimit="2" stroke-linejoin="round" fill-rule="evenodd" clip-rule="evenodd">
 <g>
   <circle transform="matrix(9.375 0 0 9.375 130 50)" r="16" fill="#1eb5fa" cy="10.66667" cx="2.13333"/>
   <path fill-rule="nonzero" fill="#fff" d="m247.54687,67.04063l-34.03125,15.09375c-2.01563,1.10625 -3.28125,3.23438 -3.28125,5.53125l0,121.6875c-0.00937,2.325 1.30313,4.47187 3.375,5.53125l34.03125,14.71875c0.46875,0.25313 0.98438,0.38438 1.51875,0.38438c1.73438,0 3.16875,-1.425 3.16875,-3.16875c0,-0.00937 0,-0.01875 0,-0.02813l0,-156.9375c-0.05625,-1.7625 -1.51875,-3.17812 -3.28125,-3.17812c-0.525,0 -1.03125,0.13125 -1.5,0.36562zm-162.98438,14.90625l-33,-15c-0.46875,-0.25313 -0.98438,-0.38438 -1.51875,-0.38438c-1.73438,0 -3.16875,1.425 -3.16875,3.16875l0,0.02813l0,156.9375c0,1.75312 1.44375,3.19687 3.19688,3.19687c0.59062,0 1.17188,-0.16875 1.67812,-0.47812l33.1875,-17.53125c1.86562,-1.13437 3,-3.15937 3,-5.34375l0,-119.0625c-0.075,-2.30625 -1.35938,-4.41563 -3.375,-5.53125zm103.5,41.53125l-35.53125,-20.34375c-1.94063,-1.125 -4.34062,-1.125 -6.28125,0l-36.1875,20.15625c-1.96875,1.14375 -3.1875,3.25313 -3.1875,5.53125l0,41.25c0,2.27813 1.21875,4.3875 3.1875,5.53125l36.1875,20.8125c1.94063,1.125 4.34062,1.125 6.28125,0l35.53125,-20.625c1.96875,-1.14375 3.1875,-3.25313 3.1875,-5.53125l0,-41.25c0.01875,-2.27812 -1.2,-4.40625 -3.1875,-5.53125z"/>
 </g>
</svg>
