<svg clip-rule="evenodd" fill-rule="evenodd" stroke-linejoin="round" stroke-miterlimit="2" viewBox="0 0 560 400" xmlns="http://www.w3.org/2000/svg"><g transform="matrix(9.375 0 0 9.375 130 50)"><circle cx="16" cy="16" fill="#1eb5fa" r="16"/><path d="m26.405 7.151-3.63 1.61c-.215.118-.35.345-.35.59v12.98c-.001.248.139.477.36.59l3.63 1.57c.05.027.105.041.162.041.185 0 .338-.152.338-.338 0-.001 0-.002 0-.003v-16.74c-.006-.188-.162-.339-.35-.339-.056 0-.11.014-.16.039zm-17.385 1.59-3.52-1.6c-.05-.027-.105-.041-.162-.041-.185 0-.338.152-.338.338v.003 16.74c0 .187.154.341.341.341.063 0 .125-.018.179-.051l3.54-1.87c.199-.121.32-.337.32-.57v-12.7c-.008-.246-.145-.471-.36-.59zm11.04 4.43-3.79-2.17c-.207-.12-.463-.12-.67 0l-3.86 2.15c-.21.122-.34.347-.34.59v4.4c0 .243.13.468.34.59l3.86 2.22c.207.12.463.12.67 0l3.79-2.2c.21-.122.34-.347.34-.59v-4.4c.002-.243-.128-.47-.34-.59z" fill="#fff" fill-rule="nonzero"/></g></svg>