<svg id="Layer_1" data-name="Layer 1" xmlns="http://www.w3.org/2000/svg" viewBox="0 0 304.4 119.6"><title>gnosis_owl</title><g id="Page-1"><g id="gnosis_logo" data-name="gnosis logo"><g id="Group"><path id="Shape" d="M200.7,29.9l-4.4,4.4a21.49,21.49,0,0,1,2.2,19,21.72,21.72,0,0,1-27.7,13.1,20.11,20.11,0,0,1-4.4-2.2L152.3,78.3,140,65.9a22.46,22.46,0,0,1-19.9,2.5A22.15,22.15,0,0,1,106.7,40a20.56,20.56,0,0,1,2.5-4.9l-5.3-5.3-1,1.7a57.9,57.9,0,0,0,49.3,88.1h0.1a57.87,57.87,0,0,0,49.5-87.9Z" style="fill:#00a6c4"/><path id="Shape-2" data-name="Shape" d="M115.7,41.6a12,12,0,0,0-2.4,7.2,11.82,11.82,0,0,0,11.8,11.8,11.45,11.45,0,0,0,7.2-2.5Z" style="fill:#00a6c4"/><path id="Shape-3" data-name="Shape" d="M173.6,57.1a11.44,11.44,0,0,0,6.6,2A11.82,11.82,0,0,0,192,47.3a11.67,11.67,0,0,0-2-6.6Z" style="fill:#00a6c4"/><path id="Shape-4" data-name="Shape" d="M152.5,69.5l-47.8-48,1.9-2A61.71,61.71,0,0,1,151.8,0h0.1a62.06,62.06,0,0,1,46,20.5l1.8,2Zm-40-48,40,40.1L192,22.3A56.72,56.72,0,0,0,152,5.6h-0.1A56,56,0,0,0,112.5,21.5Z" style="fill:#00a6c4"/><g id="Shape-5" data-name="Shape"><path d="M99.8,100.4l-5.6-.4c-23.8-1.5-56.6-7.4-77.8-26.5C3.3,61.8.8,50.7,0.7,50.2L0,46.8H86.6L86.1,50a65.06,65.06,0,0,0-.6,8.8A66.11,66.11,0,0,0,96.6,95.7Z" style="fill:#00a6c4"/><path d="M204.6,100.4l3.1-4.7A65.7,65.7,0,0,0,218.8,59a66.91,66.91,0,0,0-.6-9l-0.4-3.2h86.6l-0.7,3.4c-0.1.5-2.6,11.6-15.6,23.3-21.2,19.1-54.1,25-77.9,26.5Z" style="fill:#00a6c4"/></g></g></g></g></svg>