<?xml version="1.0" encoding="utf-8"?>
<!-- Generator: Adobe Illustrator 23.0.1, SVG Export Plug-In . SVG Version: 6.00 Build 0)  -->
<svg version="1.1" id="Laag_1" xmlns="http://www.w3.org/2000/svg" xmlns:xlink="http://www.w3.org/1999/xlink" x="0px" y="0px"
	 viewBox="0 0 1000 1000" style="enable-background:new 0 0 1000 1000;" xml:space="preserve">
<style type="text/css">
	.st0{fill:#212121;}
	.st1{fill:#FFFFFF;}
	.st2{fill:#FF0A19;}
</style>
<g>
	<rect class="st0" width="1000" height="1000"/>
	<g>
		<polygon points="181.8,155.5 181.8,758.2 368.7,758.2 368.7,539.7 467.1,671.3 574.1,671.3 671.6,539.7 858.2,539.7 858.2,155.5 
			723.1,155.5 520.7,451 316.3,155.6 		"/>
		<rect x="697.7" y="597.6" width="160.5" height="160.5"/>
	</g>
	<g>
		<polygon class="st1" points="162.1,135.5 162.1,738.2 349,738.2 349,519.7 447.4,651.3 554.4,651.3 651.9,519.7 838.5,519.7 
			838.5,135.5 703.4,135.5 501,431 296.6,135.6 		"/>
		<rect x="678" y="577.6" class="st2" width="160.5" height="160.5"/>
	</g>
	<g>
		<path class="st1" d="M117.1,903.7v-43.8c0-1.8-0.1-3.6-0.2-5.3s-0.4-3.2-0.9-4.6c-0.5-1.4-1.2-2.4-2.1-3.2s-2.1-1.2-3.6-1.2
			c-3,0-5.5,1.2-7.6,3.7s-3.6,5.5-4.7,9.2v45.3H88V838h6.8l2,8h0.5c0.9-1.3,1.7-2.6,2.6-3.7c0.8-1.2,1.8-2.2,2.9-3.1
			c1.1-0.9,2.4-1.6,3.9-2c1.5-0.5,3.4-0.7,5.7-0.7c1.3,0,2.7,0.2,4.1,0.6s2.7,1,3.9,1.8c1.2,0.8,2.2,2,3.1,3.4s1.4,3.1,1.7,5.1
			c2-3.4,4.3-6.1,6.8-8s5.9-2.9,10.3-2.9c2.9,0,5.2,0.5,7,1.4c1.8,1,3.2,2.3,4.2,4.1s1.7,3.9,2.1,6.4c0.4,2.5,0.6,5.3,0.6,8.4v47
			h-10V859c0-1.8-0.1-3.6-0.3-5.2c-0.2-1.6-0.5-3-1-4.3c-0.5-1.2-1.1-2.2-2-2.9c-0.8-0.7-2-1.1-3.4-1.1c-3.1,0-5.7,1.2-7.8,3.7
			s-3.7,6-4.7,10.5v43.9H117.1L117.1,903.7z"/>
		<path class="st1" d="M168,903.7v-8.8h22.9v-48.1H168V838h33.3v57h22.4v8.8L168,903.7L168,903.7z M187.2,819.2
			c0-2.4,0.8-4.4,2.4-6.1c1.6-1.7,3.6-2.6,6.1-2.6s4.7,0.9,6.4,2.6c1.7,1.7,2.6,3.7,2.6,6.1c0,2.3-0.9,4.2-2.6,5.8
			c-1.7,1.6-3.8,2.4-6.4,2.4c-2.5,0-4.5-0.8-6.1-2.4C188,823.5,187.2,821.5,187.2,819.2z"/>
		<path class="st1" d="M236.6,861c0-0.8,0-1.8-0.1-3.1c0-1.3-0.1-2.6-0.2-3.9c-0.1-1.4-0.2-2.7-0.3-4s-0.3-2.5-0.5-3.4h-8.8V838
			h17.6l1.2,10.7h0.7c0.9-1.5,2-3,3.5-4.4c1.4-1.4,3.1-2.8,5.1-3.9c1.9-1.2,4.1-2.1,6.4-2.8c2.4-0.7,4.9-1.1,7.5-1.1
			c4,0,7.6,0.4,10.7,1.3c3.1,0.9,5.7,2.4,7.8,4.7c2.1,2.2,3.6,5.3,4.7,9.1s1.6,8.7,1.6,14.5v37.8h-10.4v-35.7
			c0-7.3-1.2-12.7-3.5-16.4c-2.4-3.7-6.6-5.5-12.8-5.5c-2.3,0-4.5,0.5-6.6,1.4s-4.1,2.1-5.8,3.6s-3.3,3.2-4.6,5.2s-2.3,4-2.9,6.2
			v41.2h-10.1v-42.9L236.6,861L236.6,861z"/>
		<path class="st1" d="M301.5,837.8h15.7v-13l10.4-2.9v15.9h35.1v8.8h-35.1v31.1c0,6.4,1.5,11.1,4.7,14.2c3.1,3.1,7.5,4.6,13.3,4.6
			c3.9,0,7.4-0.7,10.3-2.2s5.6-3.1,7.9-4.9l3.4,7.8c-3.1,2.5-6.7,4.4-11,5.9s-8.6,2.2-13.1,2.2c-3.5,0-6.8-0.5-9.9-1.5
			s-5.9-2.6-8.2-4.7c-2.4-2.1-4.3-4.8-5.7-8.1c-1.4-3.3-2.1-7.2-2.1-11.8v-32.5h-15.7L301.5,837.8L301.5,837.8z"/>
		<path class="st1" d="M382.4,843c3.8-2.2,8-3.8,12.8-4.7c4.7-1,9.4-1.4,13.9-1.4s8.1,0.7,11,2.1c2.9,1.4,5.1,3.2,6.7,5.5
			c1.6,2.2,2.7,4.8,3.3,7.6c0.6,2.9,0.9,5.7,0.9,8.6c0,3.3-0.1,6.9-0.3,10.7c-0.2,3.8-0.3,7.5-0.4,11.3c0,4.4,0.3,8.6,0.8,12.5h8.8
			v8.6h-17.4l-1.2-9.9h-0.7c-0.5,0.8-1.3,1.8-2.4,3s-2.4,2.4-4.2,3.6c-1.7,1.2-3.8,2.2-6.3,3.1c-2.5,0.9-5.4,1.3-8.7,1.3
			c-6.5,0-11.7-1.7-15.4-5c-3.8-3.3-5.7-7.9-5.7-13.7c0-4.5,1-8.2,3-11.2s4.8-5.3,8.5-6.8s8.2-2.5,13.4-2.8
			c5.2-0.3,11.1,0.1,17.6,1.1c0.4-4,0.5-7.4,0.2-10.1c-0.3-2.7-1-4.8-2.1-6.4c-1.1-1.6-2.6-2.7-4.6-3.4s-4.4-1-7.3-1
			c-4,0-7.7,0.5-11.4,1.6c-3.6,1.1-6.8,2.2-9.6,3.4L382.4,843z M401.9,896c2.5,0,4.7-0.4,6.8-1.2c2.1-0.8,3.9-1.8,5.5-3
			s2.9-2.6,3.9-4c1.1-1.4,1.8-2.8,2.4-4.1v-9.2c-4.6-0.8-8.8-1.2-12.6-1.2s-7.2,0.4-10,1.2s-5,2.1-6.6,3.9c-1.6,1.8-2.4,4-2.4,6.8
			c0,2.9,1,5.4,3,7.6C393.9,895,397.2,896,401.9,896z"/>
		<path class="st1" d="M440.4,811.5h21.1v33.8h0.7c2.3-2.9,5.2-5.1,8.8-6.7c3.6-1.6,7.5-2.4,11.7-2.4c19.3,0,28.9,11.1,28.9,33.4
			c0,11.3-3.1,20-9.3,26c-6.2,6-15.1,9-26.6,9c-5.4,0-10.4-0.5-14.7-1.6c-4.4-1.1-7.6-2.3-9.6-3.7v-79.1h-10.9v-8.7H440.4z
			 M481.3,845.2c-5.3,0-9.5,1.5-12.8,4.5c-3.2,3-5.6,7.2-7.1,12.6v30.3c2,1.1,4.4,1.9,7.2,2.5c2.8,0.6,5.7,0.9,8.8,0.9
			c3.5,0,6.7-0.5,9.5-1.5c2.9-1,5.3-2.6,7.3-4.7c2-2.1,3.6-4.9,4.7-8.2s1.6-7.3,1.6-11.8c0-3.3-0.4-6.5-1.1-9.5s-1.8-5.6-3.4-7.8
			c-1.5-2.2-3.5-4-6-5.3C487.8,845.8,484.8,845.2,481.3,845.2z"/>
		<path class="st1" d="M520.1,811.5h22v70c0,5.4,0.9,9.1,2.7,11.3s4.5,3.3,8,3.3c2.5,0,4.8-0.4,7-1.3c2.2-0.9,4.7-2.4,7.4-4.5
			l4.7,7.2c-1.4,1.2-3,2.3-4.6,3.3c-1.7,1-3.4,1.8-5.2,2.4s-3.5,1.2-5.3,1.5s-3.4,0.5-4.9,0.5c-3.3,0-6.2-0.4-8.7-1.3
			c-2.6-0.8-4.7-2.2-6.4-4s-3-4.3-3.9-7.3s-1.3-6.8-1.3-11.2v-61.2H520L520.1,811.5L520.1,811.5z"/>
		<path class="st1" d="M641.5,895.3c-1.6,1.4-3.4,2.7-5.6,3.9c-2.2,1.2-4.5,2.3-7,3.2s-5.2,1.6-8,2c-2.8,0.5-5.5,0.7-8.4,0.7
			c-5.3,0-9.9-0.8-13.9-2.4c-4-1.6-7.4-3.9-10.1-7s-4.8-6.6-6.2-10.9c-1.4-4.2-2.1-8.9-2.1-14.2c0-5.5,0.8-10.4,2.3-14.7
			s3.7-7.9,6.6-10.8c2.9-2.9,6.4-5.1,10.5-6.6s8.7-2.3,13.8-2.3c3.7,0,7.3,0.5,10.9,1.4c3.6,1,6.8,2.8,9.5,5.5
			c2.8,2.7,4.9,6.4,6.4,11.1c1.5,4.7,2,10.8,1.6,18.2H591c0,7.9,2.1,13.8,6.4,17.7c4.2,3.9,9.9,5.9,17,5.9c2.4,0,4.7-0.3,7-0.9
			c2.3-0.6,4.5-1.3,6.6-2c2.1-0.8,4-1.7,5.6-2.6c1.6-1,2.9-1.8,3.7-2.6L641.5,895.3z M613.8,845c-2.9,0-5.6,0.3-8.2,0.9
			c-2.6,0.6-4.9,1.6-6.8,3.1c-2,1.4-3.6,3.3-4.9,5.7c-1.3,2.3-2.1,5.2-2.4,8.6h40.8c-0.4-5.8-2.3-10.3-5.6-13.5
			C623.4,846.7,619.1,845,613.8,845z"/>
		<path class="st1" d="M663.3,896.5c0-2.8,0.8-5,2.4-6.5c1.6-1.5,3.7-2.3,6.3-2.3c2.8,0,5,0.8,6.6,2.3s2.4,3.7,2.4,6.5
			c0,2.5-0.8,4.7-2.4,6.3c-1.6,1.7-3.8,2.5-6.6,2.5c-2.6,0-4.7-0.8-6.3-2.5C664.1,901,663.3,899,663.3,896.5z"/>
		<path class="st1" d="M707.7,843c3.8-2.2,8-3.8,12.8-4.7c4.7-1,9.4-1.4,13.9-1.4s8.1,0.7,11,2.1c2.9,1.4,5.1,3.2,6.7,5.5
			c1.6,2.2,2.7,4.8,3.3,7.6c0.6,2.9,0.9,5.7,0.9,8.6c0,3.3-0.1,6.9-0.3,10.7s-0.3,7.5-0.4,11.3c0,4.4,0.3,8.6,0.8,12.5h8.8v8.6
			h-17.4l-1.2-9.9H746c-0.5,0.8-1.3,1.8-2.4,3c-1.1,1.2-2.4,2.4-4.2,3.6c-1.7,1.2-3.8,2.2-6.3,3.1c-2.5,0.9-5.4,1.3-8.7,1.3
			c-6.5,0-11.7-1.7-15.4-5c-3.8-3.3-5.7-7.9-5.7-13.7c0-4.5,1-8.2,3-11.2s4.8-5.3,8.5-6.8c3.7-1.6,8.2-2.5,13.4-2.8
			s11.1,0.1,17.6,1.1c0.4-4,0.5-7.4,0.2-10.1c-0.3-2.7-1-4.8-2.1-6.4c-1.1-1.6-2.6-2.7-4.6-3.4s-4.4-1-7.3-1c-4,0-7.7,0.5-11.4,1.6
			c-3.6,1.1-6.8,2.2-9.6,3.4L707.7,843z M727.2,896c2.5,0,4.7-0.4,6.8-1.2s3.9-1.8,5.5-3s2.9-2.6,3.9-4c1.1-1.4,1.8-2.8,2.4-4.1
			v-9.2c-4.6-0.8-8.8-1.2-12.6-1.2s-7.2,0.4-10,1.2s-5,2.1-6.6,3.9c-1.6,1.8-2.4,4-2.4,6.8c0,2.9,1,5.4,3,7.6
			C719.2,895,722.6,896,727.2,896z"/>
		<path class="st1" d="M777.4,861c0-0.8,0-1.8-0.1-3.1c0-1.3-0.1-2.6-0.2-3.9c-0.1-1.4-0.2-2.7-0.3-4s-0.3-2.5-0.5-3.4h-8.8V838H785
			l1.3,9.2h0.7c2.4-3.1,5.4-5.6,9-7.7c3.6-2.1,8.1-3.1,13.4-3.1c9.4,0,16.4,2.6,21.2,7.8c4.7,5.2,7.1,13.6,7.1,25.4
			c0,5.5-0.8,10.5-2.4,14.9c-1.6,4.4-3.9,8.2-6.9,11.3s-6.6,5.4-10.8,7.1c-4.2,1.7-8.9,2.5-13.9,2.5c-1.8,0-3.5-0.1-4.9-0.2
			c-1.4-0.1-2.8-0.3-3.9-0.5c-1.2-0.2-2.3-0.5-3.5-0.9c-1.1-0.3-2.4-0.8-3.7-1.3V930h-10.1V861H777.4z M807.7,846
			c-2.6,0-5.1,0.5-7.4,1.4c-2.3,1-4.4,2.2-6.2,3.8s-3.3,3.3-4.4,5.3c-1.1,1.9-1.8,3.8-2.1,5.8v29.9c1.9,1.3,4.1,2.3,6.5,3.1
			c2.4,0.7,5.6,1.1,9.5,1.1c7,0,12.6-2.3,16.8-6.9c4.2-4.6,6.3-11.3,6.3-20.1c0-7.4-1.5-13.2-4.4-17.3
			C819.4,848,814.5,846,807.7,846z"/>
		<path class="st1" d="M852.3,861c0-0.8,0-1.8-0.1-3.1c0-1.3-0.1-2.6-0.2-3.9c-0.1-1.4-0.2-2.7-0.3-4s-0.3-2.5-0.5-3.4h-8.8V838
			h17.5l1.3,9.2h0.7c2.4-3.1,5.4-5.6,9-7.7c3.6-2.1,8.1-3.1,13.4-3.1c9.4,0,16.4,2.6,21.2,7.8c4.7,5.2,7.1,13.6,7.1,25.4
			c0,5.5-0.8,10.5-2.4,14.9c-1.6,4.4-3.9,8.2-6.9,11.3s-6.6,5.4-10.8,7.1c-4.2,1.7-8.9,2.5-13.9,2.5c-1.8,0-3.5-0.1-4.9-0.2
			c-1.4-0.1-2.8-0.3-3.9-0.5c-1.2-0.2-2.3-0.5-3.5-0.9c-1.1-0.3-2.4-0.8-3.7-1.3V930h-10.1V861H852.3z M882.6,846
			c-2.6,0-5.1,0.5-7.4,1.4c-2.3,1-4.4,2.2-6.2,3.8s-3.3,3.3-4.4,5.3c-1.1,1.9-1.8,3.8-2.1,5.8v29.9c1.9,1.3,4.1,2.3,6.5,3.1
			c2.4,0.7,5.6,1.1,9.5,1.1c7,0,12.6-2.3,16.8-6.9c4.2-4.6,6.3-11.3,6.3-20.1c0-7.4-1.5-13.2-4.4-17.3
			C894.3,848,889.4,846,882.6,846z"/>
	</g>
</g>
</svg>
