<svg xmlns="http://www.w3.org/2000/svg" viewBox="0 0 400 400"><defs><style>.cls-1{fill:#0084b5;}.cls-2{fill:#fff;fill-rule:evenodd;}</style></defs><g id="Layer_2" data-name="Layer 2"><g id="Layer_1-2" data-name="Layer 1"><circle class="cls-1" cx="200" cy="200" r="200"/><path class="cls-2" d="M301.1,139.2l-16.8-16.8-66,65.8H153l-39.3-39.3L125,137.6l35,34.5h52l72.3-72.2,39.3,39.3-75,75,37.2,37.3-11.2,11.2-48.5-48.8,75.1-74.7ZM151.6,192h16L98.8,260.8l16.7,16.8,65.8-65.8h37l66.1,65.8,16.7-16.8-36.9-36.7,11.2-11.6,48.4,48.4-39.5,39.2L212,227.9H187.7l-72.2,72.2L76.2,260.8,137,200,76.2,139.2l39.3-39.3,50.8,50.7-11.6,11.3-39.2-39.5L98.8,139.2Zm27.8,15.9-54.7,55-11.3-11.3L173,192h46.9l54.7-54.4,11.2,11.3-58.8,59Z"/><path class="cls-2" d="M115.5,128a10.8,10.8,0,0,1,0,21.6,10.8,10.8,0,1,1,0-21.6Z"/><path class="cls-2" d="M163.7,149.1a10.8,10.8,0,1,1-10.8,10.8,10.8,10.8,0,0,1,10.8-10.8Z"/><path class="cls-2" d="M266,204.3a10.8,10.8,0,1,1,.1,21.6,10.8,10.8,0,0,1-10.8-10.8h0A10.7,10.7,0,0,1,266,204.3Z"/><path class="cls-2" d="M283.6,128.8a10.8,10.8,0,1,1-10.8,10.8h0A10.9,10.9,0,0,1,283.6,128.8Z"/><path class="cls-2" d="M283.7,249.5a10.8,10.8,0,1,1-10.8,10.8h0A10.8,10.8,0,0,1,283.7,249.5Z"/><path class="cls-2" d="M115.6,249.4a10.9,10.9,0,1,1-10.8,10.9,10.8,10.8,0,0,1,10.8-10.9Z"/></g></g></svg>