<?xml version="1.0" encoding="UTF-8"?>
<svg version="1.1" viewBox="0 0 400 400" xml:space="preserve" xmlns="http://www.w3.org/2000/svg">
<style type="text/css">
	.st0{fill:#FFFFFF;}
	.st1{fill:#262303;}
	.st2{fill:#C4C2B8;}
	.st3{fill:#A99F0F;}
	.st4{opacity:0.87;fill:#366C1B;}
	.st5{fill:#C0B510;}
	.st6{fill:#709255;}
	.st7{fill:#958C0C;}
	.st8{fill:#605908;}
	.st9{fill:#8C840B;}
	.st10{fill:#897F0A;}
	.st11{fill:#5F5B07;}
	.st12{fill:#454007;}
</style>

<path class="st1" d="m381.64 205.93c-1.3817 24.025-6.1407 47.36-15.045 69.773-6.5245 16.273-14.968 31.471-25.714 45.364-12.742 16.58-28.017 30.32-45.518 41.68-12.281 7.9061-25.1 14.891-38.917 19.727-9.5948 3.3006-18.959 7.2153-28.708 9.8251-9.8251 2.6866-19.957 4.759-30.089 6.0639-9.9018 1.3049-19.957 1.7654-29.936 1.6119-12.742-0.23028-25.254-2.3795-37.535-6.371-10.976-3.5309-21.339-7.9829-31.087-13.97-14.277-8.7505-26.558-19.804-37.074-32.853-10.976-13.663-20.264-28.401-26.635-44.827-6.0639-15.582-10.669-31.624-13.126-48.204-2.9936-20.264-2.6098-40.759-1.1514-61.023 1.5352-21.416 5.6034-42.678 15.812-62.021 6.8315-12.895 16.81-22.874 31.241-26.175 7.8294-1.8422 16.273-0.99786 24.486-1.2281 2.226-0.0767 4.5288 0.38379 6.7547 0.61407 1.9957-8.0596 3.8379-15.735 5.7569-23.411 4.145-16.043 9.9786-31.471 19.343-45.134 10.286-14.968 23.258-27.096 40.989-32.699 10.209-3.2239 20.878-3.0703 31.624-1.919 13.202 1.4584 24.947 6.4477 36.076 13.049 10.593 6.371 20.111 14.277 28.554 23.488 10.132 10.976 18.499 23.104 25.33 36.307 4.145 7.9829 7.3688 16.426 10.9 24.639 0.9211 2.0725 1.1514 3.4541 4.452 2.7633 15.659-3.1471 31.241-3.2239 46.209 3.5309 9.9786 4.5288 17.117 12.128 22.26 21.799 5.9872 11.284 8.9807 23.258 9.8251 35.923 0.23028 2.7633 0.53732 5.5266 0.76759 8.2899 0.15352 0.5373 0.30703 1.0746 0.46055 1.6119 0.0767 9.211 0.0767 18.422 0.15352 27.556-0.0767 2.1492-0.23028 4.2217-0.46055 6.2174zm-175.78-145.07-0.76759 1.5352c-2.1492 8.0596-3.8379 16.273-6.4477 24.102-5.6034 16.81-13.279 33.006-12.128 51.505 0.46054 7.8294 2.226 15.121 5.9872 21.953 0.46055 0.76758 0.99786 1.5352 1.6119 2.533 1.2281-1.1514 1.9957-1.9957 2.8401-2.6865 9.5181-8.1364 18.652-16.733 28.631-24.256 16.733-12.588 35.079-22.49 54.959-29.245 0.99786-0.38379 2.6098-1.9957 2.4563-2.533-0.76759-2.6098-2.1492-4.9893-3.3006-7.5223-0.30704-1.2281-0.46056-2.533-1.0746-3.6076-5.4498-9.6716-10.593-19.65-16.657-28.938-12.128-18.499-28.17-32.776-48.435-41.987-4.2985-1.919-8.9807-2.9936-13.433-4.5288-0.23027 0.30703-0.46056 0.61407-0.61406 0.9211 4.9893 11.437 7.6758 23.258 7.1385 35.769-0.0767 0.53731-0.0767 0.99786-0.15352 1.5352zm144.92 68.315c0 5.0661-0.0767 10.209-0.0767 15.352-0.15352 1.5352-0.38379 3.0703-0.53731 4.6823-0.30704 3.7612-0.61407 7.5991-0.92111 11.36-0.5373 0.99786-1.1514 1.919-1.4584 2.9168-2.9936 11.053-7.1385 21.569-13.126 31.394-10.823 17.578-25.177 31.855-40.759 45.057-18.115 15.352-36.844 29.859-54.729 45.441-28.477 24.87-48.895 54.499-53.27 93.338-0.53731 5.066 0.46055 6.0639 5.2196 4.3752 2.7633-0.23028 5.6034-0.23028 8.2899-0.76759 14.354-2.7633 28.477-6.371 42.294-11.284 18.269-6.5245 35.386-14.968 51.275-26.098 15.275-10.746 28.17-23.795 39.07-38.84 8.2132-11.36 14.738-23.795 19.804-36.998 6.0639-15.735 10.055-31.932 12.051-48.665 0.76758-6.2942 1.3049-12.588 1.5352-18.959 0.38379-9.2878 0.30704-18.576 0.46055-27.863-0.15351-0.53731-0.23027-1.0746-0.38379-1.6119-0.53731-5.5266-0.69083-11.13-1.6887-16.58-1.8422-10.055-4.2985-20.034-11.207-28.094l-1.1514-1.0746c-0.23027 0.46055-0.38379 0.92111-0.61407 1.3817-0.0767 0.23027-0.15351 0.46054-0.23027 0.76758-0.0767 0.0767-0.23028 0.15351-0.23028 0.23028 0.15352 0.15352 0.23028 0.38379 0.3838 0.5373zm-224.83-15.352c15.582 7.5223 29.552 17.578 43.752 28.708 0-2.3028 0.0767-3.5309 0-4.8358-0.76758-13.893 3.3774-26.865 7.5991-39.838 3.9914-12.205 8.1364-24.409 11.283-36.767 2.3028-9.211 1.9957-18.729-1.2281-27.863-2.0725-5.1428-4.0682-10.439-6.371-15.505-0.3838-0.76759-2.3028-1.5352-3.1471-1.2281-6.1407 1.9957-12.512 3.6076-18.115 6.678-10.362 5.7569-17.578 14.738-23.718 24.793-10.976 17.885-16.273 37.765-19.957 58.106-0.23028 1.3049 0.53731 3.5309 1.5352 4.145 2.6098 1.5352 5.6034 2.4563 8.3667 3.6077zm16.657 217.99c-0.15352-0.30703-0.30703-0.53732-0.5373-0.84434-0.0767-0.76759-0.15352-1.4584-0.23029-2.226-0.15351-0.30703-0.30703-0.53731-0.5373-0.84434 0-0.23028-0.0767-0.46055-0.15352-0.69084-0.76759-6.371-1.5352-12.819-2.226-19.19v-2.3028c-0.15352-3.0703-0.38379-6.1407-0.53731-9.211v-7.6758c0.15352-3.3006 0.38379-6.678 0.53731-9.9786l0.30704-3.8379c0.46055-3.8379 0.69083-7.7526 1.3816-11.591 2.533-15.121 7.2153-29.552 13.817-43.445 6.985-14.584 15.121-28.401 25.484-40.912 1.919-2.3028 1.9957-4.452-1.4584-5.4499-0.38379-0.69083-0.61407-1.4584-1.1514-1.919-14.814-14.738-30.934-27.787-49.125-38.072-15.121-8.597-30.703-15.735-48.818-14.507-6.6012 0.46055-12.435 2.6866-18.192 7.1385 12.665 3.2239 20.264 11.13 25.561 21.799 5.7569 11.591 8.597 24.025 10.823 36.614 1.1514 6.5245 2.1492 13.126 3.1471 19.727 0.76759 5.1428 1.6119 10.209 2.3795 15.352 0.0768 0.46056 0.15352 0.99786 0.23028 1.4584 0.15352 1.3049 0.38379 2.6098 0.53731 3.9147 0.0768 0.46055 0.15352 0.99786 0.23027 1.4584 0.15352 1.5352 0.23028 3.1471 0.3838 4.6823 1.5352 10.362 2.8401 20.725 4.5288 31.087 3.3774 20.264 8.0596 40.145 16.196 59.104 4.759 11.284 10.593 21.799 17.961 31.548 2.6866 3.6077 5.9104 6.8315 9.2878 10.669-3.4541-11.13-6.678-21.492-9.8251-31.855zm-51.198 21.492c5.3731 4.0682 10.439 8.597 16.119 12.128 5.7569 3.6076 12.051 6.5245 18.345 9.211 5.9872 2.6098 12.128 4.8358 18.806 4.9893-8.4434-8.1364-15.582-17.04-21.799-26.712-8.0596-12.512-14.354-25.944-18.806-40.068-5.4498-17.424-9.7483-35.309-12.051-53.501-1.9957-15.505-4.6823-30.857-6.678-46.362-1.919-15.275-4.145-30.473-8.597-45.211-1.0746-3.5309-2.9936-6.8315-4.6055-10.209-2.0725-6.7548-6.9083-11.207-13.049-14.047-8.2899-3.8379-9.5948-3.0703-12.435 5.6801 0 0.15352-0.07676 0.23027-0.15352 0.38379-6.1407 17.194-9.211 35.155-10.209 53.27-0.9211 16.503-0.9211 33.083 2.0725 49.509 3.1471 17.654 8.0596 34.848 15.505 51.275 6.2174 13.74 14.507 26.328 24.486 37.688 3.9147 4.2985 8.6737 7.9829 13.049 11.974zm239.56-194.97c0.5373-0.61407 1.3816-1.1514 1.4584-1.8422 0.84434-5.2196 1.9957-10.516 2.226-15.812 0.23028-6.2174-0.38379-12.435-0.61406-18.729-0.15352-5.2963-0.61407-5.7569-5.6801-6.6012-0.84435-0.15352-1.7654-0.0767-2.6866-0.0767-14.431-0.46055-28.247 2.6865-41.833 7.3688-17.424 6.1407-33.543 14.891-48.358 25.791-13.126 9.5948-25.791 19.957-36.076 32.776-5.8336 7.2153-12.128 14.2-16.887 22.106-6.1407 10.209-11.591 20.878-16.119 31.932-3.8379 9.2878-5.9104 19.343-8.7505 29.015-0.76759 6.2942-1.919 12.588-2.3028 18.883-0.99787 18.959 1.1514 37.612 7.0618 55.727 2.6098 7.9061 5.6034 15.582 8.4434 23.411 2.226-4.8358 3.6076-9.5948 4.9893-14.277 6.6012-22.644 19.42-41.603 35.309-58.72 15.966-17.117 34.311-31.548 52.503-46.132 16.043-12.819 31.932-25.637 45.211-41.45 7.6758-9.1343 14.354-18.883 18.806-29.936 1.4584-4.145 2.1492-8.904 3.3006-13.433z" stroke-width=".76758"/>
<path class="st2" d="m381.64 205.93c0.23027-2.0725 0.38378-4.145 0.61407-6.2174-0.23029 2.1492-0.3838 4.2217-0.61407 6.2174z" stroke-width=".76758"/>
<path class="st2" d="m382.1 172.15c-0.15352-0.53731-0.30704-1.0746-0.46055-1.6119 0.15351 0.5373 0.30703 1.0746 0.46055 1.6119z" stroke-width=".76758"/>
<path class="st3" d="m330.98 158.34c-1.1514 4.5288-1.7654 9.211-3.5309 13.509-4.452 11.053-11.053 20.802-18.806 29.936-13.279 15.812-29.168 28.631-45.211 41.45-18.192 14.584-36.537 29.015-52.503 46.132-15.889 17.117-28.631 36.076-35.309 58.72-1.3816 4.6823-2.6865 9.3645-4.9893 14.277-2.8401-7.8294-5.9104-15.505-8.4434-23.411-5.9104-18.115-8.0596-36.767-7.0618-55.727 0.30703-6.2942 1.5352-12.588 2.3028-18.883 0.99786-1.0746 2.3028-1.9957 2.8401-3.3006 1.2281-2.7633 1.8422-5.8336 3.2239-8.5202 5.6801-10.746 11.053-21.723 17.501-31.932 4.8358-7.6758 10.9-14.738 16.964-21.569 5.1428-5.8336 10.823-11.284 16.733-16.273 7.4456-6.2942 15.275-12.205 23.258-17.731 6.985-4.8358 14.2-9.5181 21.876-13.126 14.354-6.8315 29.015-13.126 45.134-14.661 6.8315-0.61407 13.74-0.84434 20.571-0.99786 1.9957-0.0767 3.7612 0.69083 3.8379 3.6076 0.38379 6.1407 1.0746 12.358 1.6119 18.499z" stroke-width=".76758"/>
<path class="st4" d="m191.2 383.08c-4.759 1.6887-5.8336 0.69082-5.2196-4.3752 4.3752-38.763 24.793-68.469 53.27-93.338 17.885-15.582 36.614-30.166 54.729-45.441 15.505-13.202 29.936-27.48 40.759-45.057 5.9872-9.8251 10.132-20.341 13.126-31.394 0.30703-0.99787 0.99786-1.919 1.4584-2.9168 0.5373 4.6823 1.3816 9.2878 1.5352 13.97 0.69084 18.345-0.15351 36.691-3.1471 54.882-3.3006 19.804-9.211 38.917-18.422 56.878-5.9872 11.667-13.202 22.644-21.876 32.469-12.051 13.586-25.637 25.484-41.526 34.388-10.439 5.8336-21.185 11.053-32.085 15.966-7.1385 3.2238-14.738 5.6801-22.337 7.8294-7.3688 2.1492-14.891 3.4541-22.413 5.0661 0.61407 0.38379 1.3817 0.76759 2.1492 1.0746z" stroke-width=".76758"/>
<path class="st4" d="m72.228 157.57c1.5352 3.3774 3.4541 6.678 4.6055 10.209 4.5288 14.738 6.7547 29.936 8.597 45.211 1.919 15.505 4.6823 30.857 6.678 46.362 2.3028 18.269 6.6012 36.076 12.051 53.501 4.452 14.124 10.669 27.556 18.806 40.068 6.2942 9.6716 13.356 18.576 21.799 26.712-6.678-0.15352-12.819-2.3795-18.806-4.9893-6.2942-2.7633-12.588-5.6034-18.345-9.211-5.6801-3.5309-10.746-8.0596-16.119-12.128-0.53731-1.3049-0.76758-2.6865-1.5352-3.7612-2.7633-4.0682-5.9104-7.9061-8.5202-12.128-3.4541-5.6034-7.3688-11.13-9.5948-17.194-4.759-12.819-9.2878-25.791-12.665-38.993-2.6865-10.362-4.6055-21.185-4.9893-31.855-0.53731-13.97 0.53731-28.017 1.3049-41.987 0.76758-14.277 4.3752-28.094 8.4434-41.757 2.226-7.5991 2.7633-8.0596 8.2899-8.0596z" stroke-width=".76758"/>
<path class="st3" d="m138.93 308.01c0.76759 6.371 1.5352 12.819 2.226 19.19-0.69082-1.2281-1.7654-2.3795-2.1492-3.6844-4.3752-17.117-9.0575-34.158-12.819-51.351-3.9147-17.961-7.1385-36.076-10.132-54.192-2.0725-12.665-3.4541-25.407-4.6823-38.149-0.9211-8.9807-1.2281-18.038-1.5352-27.019-0.15351-5.2963 3.0703-10.669 10.362-9.7483 2.7633 0.38379 5.6034 0.76757 8.2132 1.6887 13.049 4.759 24.332 12.665 35.846 20.111 4.6823 2.9936 9.4413 5.9104 14.124 8.8272 3.4541 0.99787 3.3774 3.1471 1.4584 5.4499-10.362 12.512-18.499 26.328-25.484 40.912-6.678 13.817-11.284 28.324-13.817 43.445-0.61406 3.8379-0.9211 7.7526-1.3816 11.591-0.0767 1.3049-0.15352 2.533-0.30703 3.8379-0.15352 3.3006-0.38379 6.678-0.53731 9.9786v7.6759c0.15352 3.0703 0.38379 6.1407 0.53731 9.211 0.0767 0.69084 0.0767 1.4584 0.0767 2.226z" stroke-width=".76758"/>
<path class="st4" d="m279.78 96.315c1.1514 2.4563 2.4563 4.9125 3.3006 7.5223 0.15352 0.53731-1.3816 2.1492-2.4563 2.533-19.88 6.7548-38.226 16.657-54.959 29.245-9.9786 7.5223-19.113 16.119-28.631 24.256-0.84435 0.76759-1.6887 1.5352-2.8401 2.6866-0.61407-0.99785-1.1514-1.7654-1.6119-2.533 0.61407-4.6823 0.99786-9.4413 1.7654-14.124 1.0746-6.2174 1.8422-12.588 3.7612-18.576 2.7633-8.8272 6.6012-17.271 9.7483-25.944 4.6055-12.742 7.0618-25.944 8.0596-39.377 0.30704-4.5288 1.1514-9.0575 2.226-13.433 1.0746-4.3752 4.2985-6.0639 8.3667-4.2985 3.9147 1.6887 7.9829 3.5309 11.284 6.2174 13.049 10.669 23.718 23.718 34.234 36.844 2.4563 2.9936 5.1428 5.9872 7.7526 8.9807z" stroke-width=".76758"/>
<path class="st5" d="m178.38 173.61c-4.6823-2.9168-9.4413-5.8336-14.124-8.8272-11.591-7.3688-22.874-15.352-35.846-20.111-2.6098-0.92111-5.4498-1.3817-8.2132-1.6887-7.2921-0.92109-10.516 4.452-10.362 9.7483 0.30704 9.0575 0.61407 18.038 1.5352 27.019 1.2281 12.742 2.6098 25.484 4.6823 38.149 2.9936 18.115 6.2942 36.23 10.132 54.192 3.7612 17.271 8.4434 34.311 12.819 51.351 0.30704 1.3049 1.3816 2.4563 2.1492 3.6844 0.0767 0.23027 0.15352 0.46055 0.15352 0.69082 0.15351 0.30704 0.30703 0.53731 0.5373 0.84435 0.0767 0.76758 0.15352 1.4584 0.23029 2.226 0.15351 0.30703 0.30703 0.5373 0.5373 0.84434 3.2239 10.362 6.371 20.725 9.8251 31.855-3.3774-3.8379-6.5245-7.1385-9.2878-10.669-7.3688-9.6716-13.202-20.264-17.961-31.548-8.0596-19.036-12.819-38.917-16.196-59.104-1.6887-10.362-3.0703-20.725-4.5288-31.087-0.15352-1.5352-0.23028-3.1471-0.3838-4.6823-0.0768-0.46056-0.15351-0.99786-0.23027-1.4584-0.15352-1.3049-0.38379-2.6098-0.53731-3.9147-0.0768-0.46055-0.15352-0.99786-0.23028-1.4584-0.23027-3.2239-0.30703-6.4477-0.76758-9.5948-0.23028-1.919-1.0746-3.8379-1.6887-5.7569-1.0746-6.6012-1.9957-13.126-3.1471-19.727-2.3028-12.588-5.1428-25.023-10.823-36.614-5.2963-10.593-12.895-18.499-25.561-21.799 5.7569-4.5288 11.514-6.678 18.192-7.1385 18.115-1.2281 33.774 5.9104 48.818 14.507 18.192 10.286 34.311 23.335 49.125 38.072 0.53732 0.61406 0.76759 1.3816 1.1514 1.9957z" stroke-width=".76758"/>
<path class="st3" d="m187.37 33.22c3.2239 9.1343 3.5309 18.652 1.2281 27.863-3.1471 12.435-7.2921 24.563-11.283 36.767-4.2217 12.972-8.3667 25.944-7.5991 39.838 0.0767 1.2281 0 2.533 0 4.8358-14.2-11.13-28.17-21.185-43.752-28.708 0.15352-1.5352 0-3.1471 0.3838-4.5288 2.8401-9.211 5.2963-18.499 8.7505-27.48 5.5266-14.507 13.433-27.633 26.021-37.305 7.7526-5.9872 16.35-10.132 26.251-11.283z" stroke-width=".76758"/>
<path class="st6" d="m191.2 383.08c-0.76758-0.3838-1.5352-0.69083-2.226-0.99786 7.4456-1.6887 15.045-2.9936 22.413-5.0661 7.5991-2.1492 15.121-4.6055 22.337-7.8294 10.9-4.9125 21.723-10.132 32.085-15.966 15.889-8.904 29.552-20.802 41.526-34.388 8.6737-9.8251 15.812-20.725 21.876-32.469 9.2878-17.961 15.198-37.074 18.422-56.878 2.9936-18.115 3.8379-36.46 3.1471-54.882-0.15352-4.6823-0.99786-9.3645-1.5352-13.97 0.30704-3.7612 0.61407-7.5991 0.92111-11.36 2.3028-1.3049 1.8422-2.9168 0.53731-4.6823 0-5.0661 0.0767-10.209 0.0767-15.352 0-0.23028-0.0767-0.53732-0.0767-0.76759 0.0767-0.23028 0.15351-0.46055 0.23028-0.76759 0.61407-0.0767 1.1514-0.15351 1.7654-0.23027 6.9083 8.1364 9.3645 18.038 11.207 28.094 0.99786 5.4498 1.1514 11.053 1.6887 16.58 0.15352 0.5373 0.23027 1.0746 0.38379 1.6119-0.15352 9.2878-0.0767 18.576-0.46055 27.863-0.23028 6.2942-0.84435 12.665-1.5352 18.959-1.9957 16.733-5.9872 32.929-12.051 48.665-5.0661 13.126-11.591 25.561-19.804 36.998-10.9 15.045-23.795 28.17-39.07 38.84-15.889 11.13-33.006 19.573-51.275 26.098-13.817 4.9126-27.94 8.5202-42.294 11.284-2.7633 0.38379-5.5266 0.38379-8.2899 0.61407z" stroke-width=".76758"/>
<path class="st6" d="m72.228 157.57c-5.5266 0-6.1407 0.46055-8.3667 8.1364-4.0682 13.663-7.6758 27.403-8.4434 41.757-0.76758 13.97-1.8422 28.017-1.3049 41.987 0.38379 10.669 2.3028 21.492 4.9893 31.855 3.4541 13.202 7.9061 26.175 12.665 38.993 2.3028 6.0639 6.1407 11.591 9.5948 17.194 2.6098 4.2217 5.7569 8.0596 8.5202 12.128 0.76758 1.0746 1.0746 2.533 1.5352 3.7612-4.3752-3.9914-9.211-7.6759-13.049-12.128-9.9018-11.36-18.192-23.949-24.486-37.688-7.4456-16.35-12.281-33.543-15.505-51.275-2.9936-16.426-2.9936-33.083-2.0725-49.509 0.99786-18.115 4.0682-36 10.209-53.27 0.07675-0.1535 0.07675-0.23027 0.15352-0.38379 2.8401-8.7505 4.145-9.518 12.435-5.6801 6.2174 2.9168 11.053 7.3688 13.126 14.124z" stroke-width=".76758"/>
<path class="st5" d="m330.98 158.34c-0.53732-6.2174-1.2281-12.358-1.4584-18.576-0.0767-2.9168-1.8422-3.6076-3.8379-3.6076-6.8315 0.15351-13.74 0.3838-20.571 0.99786-16.119 1.4584-30.78 7.8294-45.134 14.661-7.6758 3.6076-14.814 8.3667-21.876 13.126-8.0596 5.5266-15.812 11.437-23.258 17.731-5.9872 4.9893-11.591 10.439-16.733 16.273-6.0639 6.8315-12.128 13.893-16.964 21.569-6.4477 10.286-11.821 21.185-17.501 32.008-1.3816 2.6866-1.919 5.7569-3.2238 8.5202-0.61407 1.3049-1.919 2.226-2.8401 3.3006 2.8401-9.6716 4.9126-19.727 8.7505-29.015 4.5288-10.976 9.9786-21.723 16.119-31.932 4.759-7.9061 11.13-14.814 16.887-22.106 10.286-12.819 22.951-23.181 36.076-32.776 14.814-10.823 30.934-19.65 48.358-25.791 13.509-4.759 27.326-7.9061 41.833-7.3688 0.9211 0 1.7654 0 2.6865 0.0767 5.0661 0.76759 5.5266 1.3049 5.6801 6.6012 0.23029 6.2174 0.84435 12.512 0.61407 18.729-0.23027 5.2963-1.3816 10.516-2.226 15.812-0.0767 0.61407-0.92109 1.2281-1.3816 1.7654z" stroke-width=".76758"/>
<path class="st6" d="m279.78 96.315c-2.6098-3.0703-5.2963-5.9872-7.8294-9.1343-10.516-13.126-21.109-26.175-34.234-36.844-3.3006-2.6865-7.3688-4.5288-11.283-6.2174-4.0682-1.7654-7.2921-0.07676-8.3667 4.2985-1.0746 4.3752-1.919 8.904-2.226 13.433-0.9211 13.509-3.4541 26.712-8.0596 39.377-3.1471 8.6737-6.9083 17.194-9.7483 25.944-1.919 5.9872-2.6866 12.358-3.7612 18.576-0.76758 4.6823-1.2281 9.4413-1.7654 14.124-3.8379-6.8315-5.5266-14.124-5.9872-21.953-1.1514-18.422 6.6012-34.695 12.128-51.505 2.6098-7.9061 4.2985-16.043 6.4477-24.102 0.23027-0.53731 0.53731-1.0746 0.76759-1.5352 0.23027-1.7654 0.38379-3.6076 0.61407-5.3731 0.0767-0.53731 0.0767-0.99786 0.15352-1.5352 0.5373-12.435-2.1492-24.332-7.1385-35.769 0.23027-0.30703 0.46054-0.61407 0.61406-0.9211 4.452 1.4584 9.1343 2.6098 13.433 4.5288 20.264 9.211 36.307 23.488 48.435 41.987 6.0639 9.2878 11.207 19.266 16.657 28.938 0.69083 1.1514 0.84435 2.4563 1.1514 3.6844z" stroke-width=".76758"/>
<path class="st5" d="m187.37 33.22c-9.8251 1.1514-18.422 5.2196-26.251 11.283-12.588 9.7483-20.495 22.797-26.021 37.305-3.4541 8.9807-5.9104 18.269-8.7505 27.48-0.46055 1.4584-0.30703 2.9936-0.3838 4.5288-2.8401-1.1514-5.7569-1.9957-8.3667-3.6077-0.99786-0.61406-1.7654-2.8401-1.5352-4.145 3.6844-20.418 8.904-40.221 19.957-58.106 6.1407-9.9786 13.356-19.113 23.718-24.793 5.6034-3.0703 11.974-4.6823 18.115-6.678 0.84434-0.30703 2.8401 0.46055 3.1471 1.2281 2.3028 5.0661 4.2985 10.362 6.371 15.505z" stroke-width=".76758"/>
<path class="st7" d="m100.7 204.39c0.53731 1.919 1.3816 3.7612 1.6887 5.7569 0.46055 3.1471 0.53731 6.4477 0.76758 9.5948-0.9211-5.1428-1.6887-10.286-2.4563-15.352z" stroke-width=".76758"/>
<path class="st8" d="m138.39 296.5v-7.6758 7.6758z" stroke-width=".76758"/>
<path class="st9" d="m350.71 144.52c1.3049 1.6887 1.7654 3.3774-0.53731 4.6823 0.15352-1.6119 0.38379-3.1471 0.53731-4.6823z" stroke-width=".76758"/>
<path class="st7" d="m104.01 226.57c0.15351 1.5352 0.23027 3.1471 0.38379 4.6823-0.0768-1.5352-0.23028-3.1471-0.38379-4.6823z" stroke-width=".76758"/>
<path class="st7" d="m103.31 221.2c0.15352 1.3049 0.38379 2.6098 0.53731 3.9147-0.15352-1.3049-0.38379-2.6098-0.53731-3.9147z" stroke-width=".76758"/>
<path class="st8" d="m138.93 278.85c0.0767-1.3049 0.15352-2.533 0.30704-3.8379-0.15352 1.3049-0.23028 2.533-0.30704 3.8379z" stroke-width=".76758"/>
<path class="st8" d="m138.93 308.01v-2.3028 2.3028z" stroke-width=".76758"/>
<path class="st9" d="m352.63 127.4c-0.61407 0.0767-1.1514 0.15352-1.7654 0.23028 0.23028-0.46055 0.3838-0.92111 0.61407-1.3817z" stroke-width=".76758"/>
<path class="st10" d="m205.86 60.853c-0.23028 0.53731-0.53732 1.0746-0.76759 1.5352 0.30704-0.46055 0.53731-0.99786 0.76759-1.5352z" stroke-width=".76758"/>
<path class="st10" d="m206.63 53.944c-0.0767 0.53731-0.0767 0.99786-0.15352 1.5352 0.0767-0.53731 0.0767-0.99786 0.15352-1.5352z" stroke-width=".76758"/>
<path class="st11" d="m365.98 173.69c-0.15352-0.5373-0.23027-1.0746-0.38379-1.6119 0.0767 0.53731 0.23027 1.0746 0.38379 1.6119z" stroke-width=".76758"/>
<path class="st12" d="m350.71 128.4c0 0.23028 0.0767 0.53731 0.0767 0.76758-0.0767-0.15351-0.23028-0.38378-0.30704-0.5373-0.0767-0.0767 0.15352-0.15352 0.23028-0.23028z" stroke-width=".76758"/>
<path class="st3" d="m141.85 328.74c-0.15351-0.30703-0.30703-0.53731-0.5373-0.84434 0.15351 0.30703 0.38379 0.53731 0.5373 0.84434z" stroke-width=".76758"/>
<path class="st3" d="m142.62 331.81c-0.15352-0.30703-0.30703-0.53732-0.5373-0.84434 0.23027 0.30702 0.38378 0.53731 0.5373 0.84434z" stroke-width=".76758"/>
</svg>
