<svg xmlns="http://www.w3.org/2000/svg" viewBox="0 0 512 512"><style><![CDATA[.C{isolation:isolate}]]></style><circle cx="256" cy="256" r="256" fill="#e6e8db"/><path d="M339.91 181.87c-13.24-18.22-34.35-28.9-63.08-32.3l-1-2.8q-6.91-22.28-13.44-53.38h-51.83c3.54 17.94 11.07 36.79 22.23 56.47-27.52 3.7-47.83 14.29-60.69 32-9.06 12.48-15.5 28.76-19.51 48.58h206.82c-4.02-19.81-10.41-36.09-19.5-48.57z" fill="#8a3a0f"/><path class="C" d="M363.11,257H337a27.23,27.23,0,0,0-27.24,27.24v.59q0,47.43-11.33,67.59T256,372.53q-31.09,0-42.43-20.16t-11.33-67.59A27.89,27.89,0,0,0,174.42,257H148.89c-.73,8.72-1.18,17.85-1.18,27.64q0,69.12,24.39,101.57T256,418.61q59.52,0,83.91-32.45t24.38-101.57C364.29,274.8,363.84,265.67,363.11,257Z" fill="#7d9300"/></svg>