<svg width="92" height="110" viewBox="0 0 92 110" fill="none" xmlns="http://www.w3.org/2000/svg">
<path fill-rule="evenodd" clip-rule="evenodd" d="M46.1615 109.699C41.4269 103.9 36.205 98.5153 30.5579 93.6062C34.3208 81.4022 36.3463 68.4361 36.3463 54.9971C36.3463 41.5581 34.3208 28.5922 30.5579 16.3883C36.205 11.4792 41.4269 6.09397 46.1615 0.295166C50.8961 6.09397 56.1182 11.4792 61.765 16.3883C58.0024 28.5922 55.9767 41.5581 55.9767 54.9971C55.9767 68.4361 58.0024 81.4019 61.765 93.6062C56.1182 98.5153 50.8961 103.9 46.1615 109.699ZM72.5588 24.8258C78.5359 29.0154 84.8797 32.7179 91.5322 35.8758C89.6867 41.9244 88.6941 48.3448 88.6941 54.9971C88.6941 61.6496 89.6867 68.07 91.5322 74.1186C84.8797 77.2765 78.5359 80.979 72.5588 85.1685C70.273 75.4826 69.0637 65.3813 69.0637 54.9971C69.0637 44.6132 70.273 34.5118 72.5588 24.8258ZM23.2595 54.9971C23.2595 44.6132 22.0501 34.5116 19.7645 24.8258C13.7871 29.0154 7.44341 32.7179 0.791021 35.8758C2.63636 41.9244 3.62907 48.3448 3.62907 54.9971C3.62907 61.6496 2.63636 68.07 0.791016 74.1186C7.44341 77.2765 13.7871 80.979 19.7645 85.1685C22.0501 75.4826 23.2595 65.3813 23.2595 54.9971Z" fill="#6851FF"/>
</svg>
