<?xml version="1.0" encoding="UTF-8"?>
<svg width="200" height="200" viewBox="0 0 24 29" version="1.1" xmlns="http://www.w3.org/2000/svg" xmlns:xlink="http://www.w3.org/1999/xlink">
  <g stroke="none" stroke-width="1" fill="none" fill-rule="evenodd">
    <g transform="translate(-240.000000, -17.000000)" fill-rule="nonzero">
      <g transform="translate(240.000000, 17.000000)">
        <path d="M1.64389381,20.6973451 C1.64389381,20.6973451 21.9100885,28.5812389 22.3178761,28.7320354 C22.7235398,28.880708 23.9575221,28.8955752 23.9575221,27.3918584 L23.9575221,18.5033628 C23.9575221,17.500885 23.3352212,17.0123894 22.5345133,16.6746903 L1.84778761,8.54654867 C0.966371681,8.22159292 0.087079646,8.69522124 0.087079646,9.76566372 L0.087079646,18.9642478 C0.0722123894,20.0750442 0.641415929,20.2789381 1.64389381,20.6973451 Z" fill="#FFFFFF"></path>
        <path d="M22.3858407,12.2718584 C22.3858407,12.2718584 2.11964602,20.1706195 1.71185841,20.3065487 C1.29132743,20.4424779 0.0722123894,20.4700885 0.0722123894,18.9663717 L0.0722123894,10.0757522 C0.0722123894,9.81876106 0.0594690265,9.64247788 0.0998230088,9.46619469 C0.263362832,8.62725664 0.845309735,8.53168142 1.49522124,8.25982301 L22.1819469,0.131681416 C23.0633628,-0.193274336 23.9426549,0.280353982 23.9426549,1.35079646 L23.9426549,10.5493805 C23.9575221,11.6474336 23.3883186,11.8513274 22.3858407,12.2718584 Z" fill="#FFFFFF"></path>
        <path d="M1.71185841,20.3044248 C1.98371681,20.2088496 10.8021239,16.7830088 16.8318584,14.4382301 L1.83504425,8.54654867 C1.40176991,8.38300885 0.953628319,8.42548673 0.628672566,8.62725664 C0.628672566,8.62725664 0.628672566,8.62725664 0.615929204,8.62725664 C0.535221239,8.68247788 0.467256637,8.73557522 0.412035398,8.80353982 C0.399292035,8.81628319 0.384424779,8.83115044 0.384424779,8.84389381 C0.32920354,8.89911504 0.288849558,8.96495575 0.248495575,9.03292035 C0.235752212,9.06053097 0.220884956,9.08814159 0.208141593,9.11362832 C0.180530973,9.16884956 0.152920354,9.23469027 0.140176991,9.30265487 C0.127433628,9.34513274 0.112566372,9.37274336 0.112566372,9.42584071 C0.0849557522,9.53415929 0.0722123894,9.64247788 0.0722123894,9.76353982 L0.0722123894,10.0757522 L0.0722123894,18.9621239 C0.0722123894,19.0831858 0.0849557522,19.1787611 0.0998230088,19.2870796 C0.0998230088,19.3274336 0.112566372,19.3826549 0.127433628,19.4230088 C0.140176991,19.4633628 0.140176991,19.5037168 0.155044248,19.5440708 C0.182654867,19.6247788 0.210265487,19.7076106 0.250619469,19.7734513 C0.263362832,19.8010619 0.278230088,19.8286726 0.290973451,19.8414159 C0.318584071,19.8817699 0.331327434,19.9093805 0.358938053,19.9369912 C0.386548673,19.9646018 0.414159292,20.0049558 0.439646018,20.0325664 C0.817699115,20.4276106 1.42725664,20.3872566 1.71185841,20.3044248 Z" fill="#634FE1" opacity="0.155575707"></path>
      </g>
    </g>
  </g>
</svg>
