<?xml version="1.0" encoding="utf-8"?>
<svg version="1.1" xmlns="http://www.w3.org/2000/svg" xmlns:xlink="http://www.w3.org/1999/xlink" x="0px" y="0px"
	 viewBox="0 0 124.3 141.7" width="200" height="200" style="enable-background:new 0 0 124.3 141.7;" xml:space="preserve">
<style type="text/css">
	.st0{fill:#2CA6E0;}
	.st1{fill:#1D2A73;}
	.st2{fill:#036EB7;}
</style>
<path class="st0" d="M12.7,100.4c0,0,95.4,37.1,97.3,37.8c1.9,0.7,7.7,0.8,7.7-6.3V90.1c0-4.7-2.9-7-6.7-8.6L13.7,43.2
	c-4.2-1.5-8.3,0.7-8.3,5.7v43.3C5.3,97.5,8,98.5,12.7,100.4z"/>
<path class="st1" d="M110.4,60.8c0,0-95.4,37.2-97.3,37.8c-2,0.6-7.7,0.8-7.7-6.3V50.4c0-1.2-0.1-2,0.1-2.9c0.8-4,3.5-4.4,6.6-5.7
	l97.4-38.3c4.2-1.5,8.3,0.7,8.3,5.7v43.3C117.8,57.8,115.1,58.8,110.4,60.8z"/>
<path class="st2" d="M13.1,98.6C14.3,98.2,55.9,82,84.2,71L13.6,43.2c-2-0.8-4.2-0.6-5.7,0.4c0,0,0,0-0.1,0c-0.4,0.3-0.7,0.5-1,0.8
	c-0.1,0.1-0.1,0.1-0.1,0.2c-0.3,0.3-0.4,0.6-0.6,0.9C6.1,45.7,6,45.8,6,45.9c-0.1,0.3-0.3,0.6-0.3,0.9c-0.1,0.2-0.1,0.3-0.1,0.6
	c-0.1,0.5-0.2,1-0.2,1.6v1.5v41.8c0,0.6,0.1,1,0.1,1.5c0,0.2,0.1,0.4,0.1,0.6c0.1,0.2,0.1,0.4,0.1,0.6c0.1,0.4,0.3,0.8,0.4,1.1
	c0.1,0.1,0.1,0.3,0.2,0.3c0.1,0.2,0.2,0.3,0.3,0.4s0.3,0.3,0.4,0.4C8.9,99.2,11.7,99,13.1,98.6z"/>
</svg>
