<svg xmlns="http://www.w3.org/2000/svg" xmlns:xlink="http://www.w3.org/1999/xlink" viewBox="0 0 553.43 552.78"><defs><style>.cls-1{fill:none;}.cls-2{isolation:isolate;}.cls-3{clip-path:url(#clip-path);}.cls-4{fill:url(#radial-gradient);}.cls-5{mix-blend-mode:screen;opacity:0.75;}.cls-6{fill:#57fbff;}.cls-7{fill:#fff;}</style><clipPath id="clip-path" transform="translate(8.48 9.48)"><rect class="cls-1" width="534.14" height="534.14" rx="267.07"/></clipPath><radialGradient id="radial-gradient" cx="269.87" cy="445.03" fx="574.4614971552419" fy="916.4371530165893" r="729.19" gradientTransform="translate(117.13 90.25) scale(0.59 0.42)" gradientUnits="userSpaceOnUse"><stop offset="0.27" stop-color="#7b2c2d"/><stop offset="0.35" stop-color="#702c2d"/><stop offset="0.51" stop-color="#542c2c"/><stop offset="0.71" stop-color="#252b2a"/><stop offset="0.81" stop-color="#0a2b29"/><stop offset="0.85" stop-color="#0a2b29"/></radialGradient></defs><g class="cls-2"><g id="Layer_2" data-name="Layer 2"><g id="Layer_1-2" data-name="Layer 1"><g class="cls-3"><polygon class="cls-4" points="0 0 0 552.78 83.25 549.33 553.43 549.33 553.43 0 0 0"/></g><g class="cls-5"><g class="cls-3"><polygon class="cls-6" points="0 0 0 552.78 83.25 549.33 553.43 549.33 553.43 0 0 0"/></g></g><g class="cls-3"><polygon class="cls-4" points="0 0 0 552.78 83.25 549.33 553.43 549.33 553.43 0 0 0"/></g><path class="cls-7" d="M458.87,156.39a169,169,0,0,1-1.65,58.09,161.72,161.72,0,0,1-20.52,52.26,132,132,0,0,1-38,40.14Q375.3,323,345,327.64l-85.86,12.13,14.95,125.06c.9,14.94-1.57,24.43-7.49,28.47s-13.52,6.37-22.86,7q-13.08,3.26-21.9.46t-14-26.12L156.48,249.26,107,261.37q-22.42,3.27-33.61-11.2t-13-28.45q-2.82-14.92,3.26-36.16t31.27-23.1l41.53-2.35-7-30.32q-10.29-39.67-6.06-53.66t31.72-18.66L298.34,25.73q30.35-4.2,57.64,5.14a143.17,143.17,0,0,1,48.75,28.22,168.44,168.44,0,0,1,35.71,44.34A157.25,157.25,0,0,1,458.87,156.39Zm-105,62.06q10.23-17.26,5.58-47.59-2.32-15.87-7.68-26.6A54.18,54.18,0,0,0,338.7,127a41.79,41.79,0,0,0-16.58-8.87,40.75,40.75,0,0,0-17.25-.95l-76.53,11.21,2.34,26.13,58.3-3.73a33.28,33.28,0,0,1,21.71,4.42c6.39,3.9,10.18,10.11,11.43,18.67s-.47,16.89-5.13,25-11,12.91-19.12,14.46l-55.55,14,3.76,22.85,79.79-11.65Q343.6,236.2,353.88,218.45Z" transform="translate(8.48 9.48)"/></g></g></g></svg>
