<svg xmlns="http://www.w3.org/2000/svg" xmlns:xlink="http://www.w3.org/1999/xlink" viewBox="0 0 511.51 510.91"><defs><style>.cls-1{fill:none;}.cls-2{isolation:isolate;}.cls-3{clip-path:url(#clip-path);}.cls-4{fill:url(#radial-gradient);}.cls-5{mix-blend-mode:screen;opacity:0.75;}.cls-6{fill:#57fbff;}.cls-7{fill:#fff;}</style><clipPath id="clip-path" transform="translate(7.84 8.77)"><rect class="cls-1" width="493.68" height="493.68" rx="241.99"/></clipPath><radialGradient id="radial-gradient" cx="249.56" cy="425.9" fx="531.0843283608808" fy="861.5968179869383" r="673.95" gradientTransform="translate(108.18 77.32) scale(0.59 0.42)" gradientUnits="userSpaceOnUse"><stop offset="0.27" stop-color="#7b2c2d"/><stop offset="0.35" stop-color="#702c2d"/><stop offset="0.51" stop-color="#542c2c"/><stop offset="0.71" stop-color="#252b2a"/><stop offset="0.81" stop-color="#0a2b29"/><stop offset="0.85" stop-color="#0a2b29"/></radialGradient></defs><g class="cls-2"><g id="Layer_2" data-name="Layer 2"><g id="Layer_1-2" data-name="Layer 1"><g class="cls-3"><polygon class="cls-4" points="0 0 0 510.91 76.94 507.72 511.51 507.72 511.51 0 0 0"/></g><g class="cls-5"><g class="cls-3"><polygon class="cls-6" points="0 0 0 510.91 76.94 507.72 511.51 507.72 511.51 0 0 0"/></g></g><g class="cls-3"><polygon class="cls-4" points="0 0 0 510.91 76.94 507.72 511.51 507.72 511.51 0 0 0"/></g><path class="cls-7" d="M424.11,144.54a156.33,156.33,0,0,1-1.52,53.69,149.6,149.6,0,0,1-19,48.3,122,122,0,0,1-35.15,37.11q-21.6,14.88-49.6,19.18L239.51,314l13.82,115.59c.83,13.81-1.46,22.58-6.93,26.31s-12.49,5.89-21.12,6.48q-12.09,3-20.24.42t-13-24.15l-47.44-208.3L98.91,241.57q-20.73,3-31.06-10.35t-12.06-26.3q-2.61-13.78,3-33.41t28.9-21.36L126.09,148l-6.47-28q-9.51-36.67-5.6-49.6t29.31-17.24L275.74,23.78A114.08,114.08,0,0,1,329,28.53a132.11,132.11,0,0,1,45.06,26.09,155.59,155.59,0,0,1,33,41A145.54,145.54,0,0,1,424.11,144.54Zm-97,57.37q9.46-16,5.16-44-2.14-14.67-7.1-24.59a49.93,49.93,0,0,0-12.09-16,38.7,38.7,0,0,0-15.32-8.2,37.67,37.67,0,0,0-15.94-.87L211,118.67l2.17,24.15,53.88-3.46a30.76,30.76,0,0,1,20.06,4.1q8.87,5.4,10.57,17.25A35.08,35.08,0,0,1,293,183.8q-6.47,11.19-17.67,13.36L224,210.1l3.48,21.12,73.75-10.77Q317.57,218.31,327.07,201.91Z" transform="translate(7.84 8.77)"/></g></g></g></svg>
