<svg xmlns="http://www.w3.org/2000/svg" viewBox="0 0 538.04 538.04"><defs><style>.cls-1{fill:#98e9ef;}.cls-2{fill:#fff;}</style></defs><g id="Layer_2" data-name="Layer 2"><g id="Layer_1-2" data-name="Layer 1"><circle class="cls-1" cx="269.02" cy="269.02" r="269.02"/><path class="cls-2" d="M460.49,167.11a169,169,0,0,1-1.65,58.09,161.63,161.63,0,0,1-20.52,52.26,132.11,132.11,0,0,1-38,40.15q-23.36,16.11-53.66,20.76L260.76,350.5l14.95,125.06c.9,14.93-1.57,24.42-7.5,28.46s-13.52,6.38-22.85,7q-13.08,3.26-21.9.46t-14-26.13L158.1,260,108.64,272.1Q86.22,275.37,75,260.9T62,232.44q-2.82-14.92,3.26-36.15t31.27-23.11L138,170.84l-7-30.32Q120.75,100.84,125,86.86T156.7,68.2L300,36.46q30.35-4.22,57.64,5.13a143.15,143.15,0,0,1,48.74,28.23,168.39,168.39,0,0,1,35.72,44.33A157.32,157.32,0,0,1,460.49,167.11Zm-105,62.07q10.23-17.28,5.58-47.59C359.52,171,357,162.15,353.39,155a54.24,54.24,0,0,0-13.07-17.26,41.92,41.92,0,0,0-16.58-8.87,40.74,40.74,0,0,0-17.25-.94L230,139.12l2.34,26.13,58.3-3.74a33.28,33.28,0,0,1,21.71,4.43c6.39,3.9,10.18,10.11,11.43,18.67a38,38,0,0,1-5.13,25q-7,12.1-19.12,14.46l-55.55,14,3.76,22.86,79.79-11.65Q345.22,246.91,355.5,229.18Z"/></g></g></svg>