<svg width="400" height="400" viewBox="0 0 400 400" fill="none" xmlns="http://www.w3.org/2000/svg">
<rect width="400" height="400" fill="white"/>
<path d="M243.768 100.324V173.691L168.861 280.436L168.826 280.471L157.152 297.109V223.708L243.768 100.324Z" fill="url(#paint0_linear)"/>
<path d="M386.562 99.1949V302.621H299.948V222.579L386.562 99.1949Z" fill="url(#paint1_linear)"/>
<path d="M246.127 97.002L234.864 106.862L234.829 106.896C234.715 106.974 234.612 107.066 234.521 107.17H234.487L18.0853 296.8H18.0545C17.9518 296.899 17.8833 296.967 17.8491 296.967V297.005C17.8006 297.035 17.7548 297.07 17.7121 297.108L11.002 302.996L28.2566 278.449C28.3251 278.312 28.4278 278.21 28.4963 278.073L155.612 97.002H246.127Z" fill="url(#paint2_linear)"/>
<path d="M246.128 97.002L243.766 100.323L157.151 223.707L101.518 302.996H11L18.0525 296.8H18.0867L234.488 107.17L243.766 99.0561L246.128 97.002Z" fill="url(#paint3_linear)"/>
<path d="M388.14 97.0033L386.565 98.3727L372.597 110.632L372.563 110.667L372.426 110.766C372.392 110.838 372.358 110.838 372.323 110.872C372.289 110.906 372.289 110.906 372.255 110.906V110.941L371.981 111.146C371.861 111.226 371.745 111.317 371.639 111.42L299.951 174.242L243.771 223.472L164.55 292.833L164.277 293.107C164.182 293.207 164.079 293.299 163.968 293.381L157.156 299.338L153.013 303.001L157.156 297.112L168.83 280.474L168.864 280.44L243.771 173.691L297.623 97.0033H388.14Z" fill="url(#paint4_linear)"/>
<path d="M388.14 97.0033L386.565 99.1944L299.952 222.579L243.771 302.621L243.532 302.998H153.01L157.152 299.334L164.547 292.83L243.768 223.469L299.948 174.238L371.635 111.416L371.978 111.143L372.012 111.108L372.252 110.937V110.903C372.286 110.903 372.286 110.869 372.32 110.869L386.562 98.3693L388.14 97.0033Z" fill="url(#paint5_linear)"/>
<g style="mix-blend-mode:multiply" opacity="0.24">
<g style="mix-blend-mode:multiply" opacity="0.24">
<path d="M243.768 100.324V165.543L157.152 230.795V223.708L243.768 100.324Z" fill="black"/>
</g>
</g>
<g style="mix-blend-mode:multiply" opacity="0.24">
<g style="mix-blend-mode:multiply" opacity="0.24">
<path d="M386.562 99.1949V163.66L386.048 164.037L299.948 228.913V222.579L386.562 99.1949Z" fill="black"/>
</g>
</g>
<g style="mix-blend-mode:overlay">
<g style="mix-blend-mode:overlay">
<path d="M234.487 107.171L18.0852 296.801C18.051 296.835 18.051 296.801 18.051 296.801C19.0096 295.842 22.0223 292.967 26.6783 288.55C32.4641 283.175 40.6121 275.335 50.6089 266.229C60.6057 257.122 72.2115 246.372 84.8101 235.109C97.4087 223.773 110.932 211.863 124.489 199.915C131.267 193.992 138.08 188.069 144.79 182.246C151.501 176.423 158.142 170.746 164.544 165.234C177.383 154.211 189.57 144.176 199.909 135.415C210.248 126.654 219.081 119.667 225.175 114.631L234.487 107.171Z" fill="white"/>
</g>
</g>
<g style="mix-blend-mode:overlay">
<g style="mix-blend-mode:overlay">
<path d="M363.282 118.055C367.356 114.802 370.232 112.508 371.635 111.416L299.945 174.238L243.765 223.469L164.544 292.83C165.674 291.734 168.481 289.064 172.59 285.123C178.136 279.957 185.941 272.425 195.562 263.661C205.182 254.897 216.274 244.592 228.393 233.739C240.513 222.887 253.488 211.418 266.463 199.949C273.002 194.228 279.541 188.549 285.977 182.968C292.413 177.388 298.815 171.91 304.978 166.638C317.302 156.059 329.045 146.405 338.973 138.017C348.902 129.63 357.428 122.885 363.282 118.055Z" fill="white"/>
</g>
</g>
<g style="mix-blend-mode:screen" opacity="0.4">
<g style="mix-blend-mode:screen" opacity="0.4">
<path d="M372.32 110.869C372.32 110.903 372.286 110.903 372.252 110.937L371.978 111.143C372.063 111.053 372.152 110.973 372.252 110.903C372.286 110.903 372.286 110.869 372.32 110.869Z" fill="white"/>
</g>
</g>
<g style="mix-blend-mode:multiply" opacity="0.25">
<g style="mix-blend-mode:multiply" opacity="0.25">
<path d="M246.128 97.002C245.341 98.2345 244.554 99.4327 243.766 100.631C238.836 108.228 233.838 115.763 228.874 123.329C223.122 132.093 217.234 140.789 211.345 149.485C199.637 166.872 187.826 184.195 175.912 201.454L157.938 227.302L157.151 228.432V223.707L101.518 302.996H11C26.0636 302.346 41.1614 302.068 56.2592 301.593L100.32 300.839C106.003 292.452 111.789 284.129 117.506 275.779L135.446 249.966L153.522 224.183L171.701 198.506C183.854 181.423 196.145 164.419 208.572 147.496C214.735 139.036 220.897 130.549 227.196 122.162C233.496 113.774 239.726 105.331 246.128 97.002Z" fill="black"/>
</g>
</g>
<g style="mix-blend-mode:multiply" opacity="0.25">
<g style="mix-blend-mode:multiply" opacity="0.25">
<path d="M388.14 97.0033C387.627 97.825 387.113 98.6466 386.565 99.434C381.43 107.445 376.124 115.388 370.886 123.33C365.168 132.095 359.246 140.79 353.391 149.486C341.685 166.873 329.862 184.196 317.925 201.455L299.952 227.303V222.579L243.771 302.621L243.532 302.998H153.01C168.108 302.347 183.171 302.07 198.269 301.594L242.364 300.841C248.013 292.453 253.799 284.13 259.516 275.78L277.49 249.967L295.532 224.184L313.711 198.508C325.864 181.424 338.155 164.421 350.582 147.497C356.743 139.038 362.905 130.551 369.239 122.163C375.504 113.744 381.735 105.333 388.14 97.0033Z" fill="black"/>
</g>
</g>
<g style="mix-blend-mode:multiply" opacity="0.25">
<g style="mix-blend-mode:multiply" opacity="0.25">
<path d="M386.562 154.759V302.621H299.948C307.172 302.176 314.395 301.902 321.619 301.594C328.843 301.286 336.032 301.081 343.256 300.841C356.846 300.464 370.403 300.259 383.994 300.088C383.892 288.616 383.823 277.15 383.857 265.647C383.892 253.322 383.96 240.998 384.165 228.673C384.371 216.348 384.576 204.054 384.987 191.733C385.124 185.571 385.398 179.408 385.672 173.246C385.775 170.165 385.911 167.121 386.048 164.04C386.185 160.959 386.357 157.837 386.562 154.759Z" fill="black"/>
</g>
</g>
<g style="mix-blend-mode:overlay">
<g style="mix-blend-mode:overlay">
<path d="M361.437 97.0034C350.79 97.5478 340.143 97.7908 329.53 98.2017C319.225 98.544 308.955 98.681 298.684 98.9206C293.652 106.418 288.653 113.916 283.518 121.311L267.599 144.385L251.542 167.357L235.383 190.26L219.019 213.027L202.483 235.622C196.937 243.154 191.459 250.717 185.81 258.149C180.161 265.582 174.615 273.076 168.864 280.436L243.771 173.687L297.623 97L361.437 97.0034Z" fill="white"/>
</g>
</g>
<g style="mix-blend-mode:overlay">
<g style="mix-blend-mode:overlay">
<path d="M231.342 97.0033C218.709 97.6196 206.077 97.8934 193.478 98.3727L156.778 99.1294C151.813 106.487 146.747 113.779 141.748 121.143L125.966 143.906L110.046 166.607L94.0242 189.203L77.8651 211.695L61.5006 234.048C56.0229 241.514 50.6137 248.978 44.9992 256.338C39.4531 263.73 33.907 271.128 28.2581 278.454C28.3266 278.317 28.4293 278.215 28.4978 278.078L155.614 97.0067L231.342 97.0033Z" fill="white"/>
</g>
</g>
<defs>
<linearGradient id="paint0_linear" x1="200.46" y1="268.772" x2="200.46" y2="160.147" gradientUnits="userSpaceOnUse">
<stop stop-color="#F58033"/>
<stop offset="1" stop-color="#A53826"/>
</linearGradient>
<linearGradient id="paint1_linear" x1="343.256" y1="300.791" x2="343.256" y2="157.985" gradientUnits="userSpaceOnUse">
<stop stop-color="#00F3FF"/>
<stop offset="0.238" stop-color="#00EFFC"/>
<stop offset="0.44" stop-color="#00E5F4"/>
<stop offset="0.629" stop-color="#00D3E7"/>
<stop offset="0.81" stop-color="#00BAD4"/>
<stop offset="0.983" stop-color="#009BBC"/>
<stop offset="1" stop-color="#0098BA"/>
</linearGradient>
<linearGradient id="paint2_linear" x1="103.171" y1="187.846" x2="210.14" y2="58.1188" gradientUnits="userSpaceOnUse">
<stop stop-color="#F804DE"/>
<stop offset="0.074" stop-color="#F803CC"/>
<stop offset="0.293" stop-color="#F9029D"/>
<stop offset="0.501" stop-color="#FA0178"/>
<stop offset="0.695" stop-color="#FB005D"/>
<stop offset="0.867" stop-color="#FB004D"/>
<stop offset="1" stop-color="#FC0048"/>
</linearGradient>
<linearGradient id="paint3_linear" x1="11" y1="199.999" x2="246.128" y2="199.999" gradientUnits="userSpaceOnUse">
<stop stop-color="#F804DE"/>
<stop offset="0.074" stop-color="#F803CC"/>
<stop offset="0.293" stop-color="#F9029D"/>
<stop offset="0.501" stop-color="#FA0178"/>
<stop offset="0.695" stop-color="#FB005D"/>
<stop offset="0.867" stop-color="#FB004D"/>
<stop offset="1" stop-color="#FC0048"/>
</linearGradient>
<linearGradient id="paint4_linear" x1="268.696" y1="185.582" x2="361.04" y2="42.0556" gradientUnits="userSpaceOnUse">
<stop stop-color="#FCFC53"/>
<stop offset="1" stop-color="#F8A700"/>
</linearGradient>
<linearGradient id="paint5_linear" x1="153.01" y1="200" x2="388.14" y2="200" gradientUnits="userSpaceOnUse">
<stop stop-color="#FCFC53"/>
<stop offset="1" stop-color="#F8A700"/>
</linearGradient>
</defs>
</svg>
