<svg viewBox="0 0 98 98" version="1.1" xmlns="http://www.w3.org/2000/svg" xmlns:xlink="http://www.w3.org/1999/xlink"><g stroke="none" stroke-width="1" fill-rule="evenodd" fill="white"><g transform="translate(-310.000000, -576.000000)" fill-rule="nonzero"><g transform="translate(310.000000, 576.000000)"><path d="M41.9011274,11.8953604 C43.4110594,11.6092684 44.9532033,11.4118246 46.5275591,11.311088 C55.1683966,10.7550218 63.551539,13.1162883 70.5495705,18 L71.8299928,17.1659007 L77,13.7932385 C68.230315,6.80614605 57.3306192,3.37304182 46.0645132,4.09431606 C41.0998568,4.4126438 36.3727631,5.53283509 32,7.30982918 L41.1723336,11.5568854 L41.9011274,11.8953604 Z"></path> <path d="M51.4700931,86.6932816 C42.6014506,87.2611232 34.2364792,84.7159042 27.4510208,80 L26.1817693,80.8296125 L21,84.204444 C29.4576468,90.9218891 40.3329155,94.6511182 51.9334706,93.9060778 C56.897654,93.5879254 61.6241046,92.4683513 66,90.6883089 L56.1038682,86.1133583 C54.5807665,86.3992927 53.0375179,86.5926005 51.4700931,86.6932816 Z"></path> <path d="M7.30751011,66 L11.5611213,56.8040674 L11.8957656,56.078391 C11.6135355,54.5705967 11.4159744,53.0345816 11.3151779,51.4663143 C10.7466858,42.6009676 13.2867569,34.2435943 18,27.45852 L17.1573415,26.1643971 L13.7907393,21 C7.07769415,29.4581616 3.34822464,40.331213 4.09411854,51.9299409 C4.4126354,56.8967927 5.52946032,61.6257839 7.30751011,66 Z"></path> <path d="M90.7198325,32 L88.2395101,37.3579108 L87.6627847,38.6076868 L87.6506856,38.6157499 L86.1060295,41.9498298 C86.3843096,43.4535925 86.5859618,44.977513 86.6827549,46.5256226 C87.239315,55.1692349 84.8799839,63.5548289 80,70.5616377 L80.8267741,71.8275399 L84.1983994,77 C90.9174517,68.5418384 94.652051,57.668787 93.9059377,46.0660276 C93.5953933,41.1596488 92.5064712,36.4266261 90.7198325,32 Z"></path> <polygon points="36.0688252 28 26.7459306 33.8406375 21 46 44 31.5896414"></polygon> <path d="M55.7407992,68 L73.5462156,56.2298712 C73.5462156,56.2298712 78.7659289,44.5374465 78.9987052,44.0098765 C79.2314816,43.4823064 48,64.2661127 48,64.2661127 L55.7407992,68 Z"></path> <path d="M33.1889882,20.7504414 L49.9299466,28.548043 L46.297247,36.4548999 L36.865891,42.5327398 L31.1918071,54.8826516 L40.5910154,48.8250441 L53.8479578,55 L65.5256403,47.4896998 L65.5738619,47.3844909 L72.9156121,31.400824 L73,31.2187316 L39.542194,15.6316215 L39.5462124,15.627575 L6,0 L21.2742158,23.5951295 C24.5693636,19.9411418 28.9213699,18.7595644 33.1889882,20.7504414 Z M56.5162238,31.6152884 L62.7770047,34.5328134 L63.3757572,34.8120218 L60.5909554,40.8696292 L59.8676303,42.4437169 L53.2853716,46.6682607 L47.8644515,44.143246 L52.1682361,41.3673484 L52.031608,41.3754414 L56.5162238,31.6152884 Z"></path> <path d="M20.3561186,65.6145871 L29,47 L17.5784491,54.2881659 L15.6405402,58.4631748 C15.6163163,58.4390418 15.5961298,58.4229532 15.5961298,58.4229532 L13.7995267,62.2962996 L8.08673256,74.5840186 L0,92 L23.5415565,76.7117447 C20.1340665,73.6267429 18.8825003,69.6166428 20.3561186,65.6145871 Z"></path> <path d="M64.7848952,76.6457929 C64.7406496,76.6259352 64.6521583,76.5862196 64.5234436,76.5266463 L64.5475776,76.5107601 C64.5475776,76.5107601 69.8691241,65.1560913 70.1064417,64.643761 C70.2150447,64.4134109 63.7229993,68.4365937 56.5954253,72.9045904 C52.0220328,70.8155537 47.2394789,68.6311998 47.2394789,68.6311998 L47.2394789,68.6311998 L37.8915771,64.3617807 L48.5909828,57.5783689 L40.7595005,54 L26.5928438,62.9955666 L25,66.3952157 L54.4072762,79.8270066 L63.5701507,84.013023 L92,97 L76.7151348,73.8418768 C73.4168218,77.4401034 69.0566128,78.5997968 64.7848952,76.6457929 Z"></path> <path d="M76.4722934,33.2654906 C76.1079436,34.0552107 72,43 72,43 L83.2908392,35.8199935 L97,6 L73.6535874,21.3109006 C77.2690583,24.6228901 78.4381807,28.9864968 76.4722934,33.2654906 Z"></path> </g></g></g></svg>
