<svg width="100" height="100" viewBox="0 0 114 102" fill="none" xmlns="http://www.w3.org/2000/svg">
<path d="M112.131 43.9704L89.9464 5.63725C88.9536 3.92004 87.5249 2.49467 85.8044 1.50494C84.0838 0.515203 82.1323 -0.00389115 80.1468 2.1961e-05H35.8226C33.365 0.00659981 30.952 0.65656 28.8244 1.88507C26.6968 3.11358 24.929 4.8777 23.6972 7.00146L1.51256 45.3346C0.521664 47.0485 0 48.9927 0 50.9718C0 52.9509 0.521664 54.8951 1.51256 56.609L23.6972 94.9986C24.93 97.124 26.6996 98.8891 28.8293 100.118C30.9591 101.346 33.3743 101.995 35.8339 102H80.1468C82.1247 101.996 84.0668 101.473 85.7788 100.484C87.4907 99.4945 88.9123 98.0734 89.9012 96.3628L112.086 58.0296C113.332 55.8975 113.992 53.4747 114 51.0061C114.008 48.5375 113.363 46.1105 112.131 43.9704V43.9704ZM7.81233 51.1297L10.3187 46.8341L30.1325 12.5034L42.5514 34.015C43.1308 34.9198 44.0374 35.5665 45.0824 35.8206C46.1273 36.0746 47.2301 35.9164 48.1612 35.3789C49.0922 34.8413 49.7798 33.9659 50.0808 32.9348C50.3818 31.9037 50.2729 30.7964 49.7769 29.8435L39.7741 12.5034C38.9448 11.2759 37.8385 10.26 36.5443 9.53744C35.2501 8.81486 33.8041 8.40578 32.3227 8.34312H77.0533L56.0202 44.7258C55.6487 45.3662 55.1153 45.898 54.4733 46.268C53.8314 46.638 53.1035 46.8332 52.3623 46.8341H15.3653C13.8394 46.8241 12.3377 47.2159 11.0118 47.97C9.68576 48.7241 8.58222 49.814 7.81233 51.1297V51.1297ZM77.0533 93.6682H37.3693L49.7882 72.134C50.0923 71.6592 50.2968 71.1278 50.3896 70.572C50.4823 70.0161 50.4614 69.4472 50.3279 68.8996C50.1944 68.352 49.9512 67.8372 49.6129 67.386C49.2747 66.9349 48.8484 66.5569 48.3599 66.2749C47.8713 65.9928 47.3306 65.8125 46.7703 65.7449C46.2101 65.6773 45.6419 65.7237 45.1001 65.8815C44.5584 66.0392 44.0542 66.3049 43.6181 66.6625C43.182 67.0202 42.8229 67.4624 42.5627 67.9624L30.1438 89.4966L27.6713 93.8035C28.3541 92.6112 28.7439 91.2742 28.8087 89.9022C28.8735 88.5302 28.6113 87.1625 28.0438 85.9113L10.2961 55.1659H52.3623C53.1032 55.168 53.8307 55.3637 54.4725 55.7335C55.1142 56.1034 55.6478 56.6346 56.0202 57.2742V57.2742L74.705 89.5868C75.5297 90.797 76.6276 91.7968 77.91 92.5057C79.1925 93.2146 80.6238 93.6128 82.0886 93.6682H77.0533ZM104.127 55.1772L84.2902 89.4966L63.2119 53.114C62.8435 52.4722 62.6497 51.7454 62.6497 51.0056C62.6497 50.2659 62.8435 49.5391 63.2119 48.8973V48.8973L84.2902 12.5034L86.7627 8.20782C85.9355 9.65508 85.5406 11.3086 85.6246 12.9729C85.7087 14.6371 86.2681 16.2426 87.2368 17.5994C87.9481 18.5916 104.172 46.8228 104.172 46.8228H79.2097C78.1018 46.8228 77.0393 47.2623 76.2559 48.0446C75.4725 48.827 75.0324 49.888 75.0324 50.9944C75.0324 52.1007 75.4725 53.1618 76.2559 53.9441C77.0393 54.7264 78.1018 55.1659 79.2097 55.1659H99.1928H99.0799C100.606 55.1759 102.107 54.7841 103.433 54.03C104.759 53.2759 105.863 52.186 106.633 50.8703L104.115 55.1885L104.127 55.1772Z" fill="white"/>
</svg>
