<svg width="52" height="58" viewBox="0 0 52 58" fill="none" xmlns="http://www.w3.org/2000/svg">
<path fill-rule="evenodd" clip-rule="evenodd" d="M50.8738 6.16757C50.9276 6.23351 50.9659 6.31089 50.9858 6.39391C51.0138 6.81828 53.983 48.0109 26.1399 57.6017H25.8598C-1.98336 48.0109 0.985826 6.81828 1.01384 6.39391C1.03379 6.31089 1.0721 6.23351 1.12588 6.16757C1.17896 6.10511 1.24624 6.05657 1.32196 6.02611L25.9158 0H26.0839L50.6777 6.02611C50.7534 6.05657 50.8207 6.10511 50.8738 6.16757ZM46.364 10.5811C46.3976 10.6346 46.4258 10.6915 46.448 10.7508C46.476 11.0903 48.913 44.729 26.1119 52.5375H25.8878C3.08667 44.729 5.52364 11.0903 5.55165 10.7508L5.63569 10.5811C5.69171 10.5245 5.74773 10.4679 5.80375 10.4679L25.9158 5.51687H26.0839L46.1959 10.4679C46.2519 10.4679 46.308 10.5245 46.364 10.5811Z" fill="#798CE5"/>
<path d="M25.7199 12.9009L12.3025 16.1827L12.1905 16.2676C12.1616 16.2992 12.1421 16.3384 12.1345 16.3807C12.1345 16.6071 10.5098 39.0423 25.6919 44.248H25.832C41.042 39.0423 39.4174 16.6071 39.3894 16.3807C39.3817 16.3384 39.3623 16.2992 39.3334 16.2676L39.2213 16.1827L25.8039 12.9009H25.7199Z" fill="#798CE5"/>
</svg>
