<svg xmlns="http://www.w3.org/2000/svg" xmlns:xlink="http://www.w3.org/1999/xlink" viewBox="0 0 500 500" class="jss461"><defs><style>.a{fill:none;}.b{fill:url(#a);}.c{isolation:isolate;}.d{fill:#02143d;}.e{fill:#fff;}</style><radialGradient id="a" cx="174.8" cy="431.14" r="306.92" gradientTransform="matrix(1, 0, 0, -1, 0, 598)" gradientUnits="userSpaceOnUse"><stop offset="0" stop-color="#028bf4"></stop><stop offset="0.15" stop-color="#0387ef"></stop><stop offset="0.33" stop-color="#057ce2"></stop><stop offset="0.51" stop-color="#0869cc"></stop><stop offset="0.69" stop-color="#0d4fad"></stop><stop offset="0.78" stop-color="#10409b"></stop><stop offset="0.84" stop-color="#143e8e"></stop><stop offset="0.95" stop-color="#1f386c"></stop><stop offset="1" stop-color="#253558"></stop></radialGradient></defs><rect class="a" width="500" height="500"></rect><path class="b" d="M250,0C112,.05.05,112,0,250S111.93,500,250,500,500,388.05,500,250,388.07,0,250,0Z" transform="translate(0 0)"></path><g class="c"><path class="d" d="M203.16,362.43l16.32-1.59q1.49,8.22,6,12.08t12.17,3.85q8.1,0,12.21-3.43a10.19,10.19,0,0,0,4.11-8,7.55,7.55,0,0,0-1.73-5q-1.72-2.07-6-3.6-3-1-13.44-3.63-13.5-3.35-18.94-8.22a21.61,21.61,0,0,1-7.65-16.72,21.39,21.39,0,0,1,3.6-11.88,22.58,22.58,0,0,1,10.38-8.42,41.66,41.66,0,0,1,16.35-2.89q15.64,0,23.56,6.86t8.3,18.31l-16.78.74q-1.08-6.41-4.62-9.21t-10.63-2.81q-7.31,0-11.45,3a6,6,0,0,0-2.66,5.16,6.39,6.39,0,0,0,2.49,5q3.18,2.67,15.42,5.56t18.11,6a23.25,23.25,0,0,1,9.19,8.45,26.2,26.2,0,0,1-.65,26.61,23.78,23.78,0,0,1-11.23,9.27q-7.26,3-18.08,3-15.77,0-24.21-7.28T203.16,362.43Z" transform="translate(0 0)"></path><path class="d" d="M323.51,358.91v-14h36.17V378q-5.26,5.1-15.27,9a55.65,55.65,0,0,1-20.27,3.89q-13,0-22.74-5.47a34.84,34.84,0,0,1-14.57-15.65A50.55,50.55,0,0,1,282,347.63a47.82,47.82,0,0,1,5.44-23.07,36.66,36.66,0,0,1,15.93-15.48q8-4.14,19.9-4.14,15.48,0,24.18,6.49a29.36,29.36,0,0,1,11.2,17.95l-16.67,3.12a17.53,17.53,0,0,0-6.61-9.67,20,20,0,0,0-12.1-3.54q-11,0-17.49,7T299.25,347q0,14.81,6.58,22.2t17.23,7.39a28.82,28.82,0,0,0,10.57-2.06,36.28,36.28,0,0,0,9.1-5V358.91Z" transform="translate(0 0)"></path><path class="d" d="M375.1,306.36h30.67q10.38,0,15.82,1.59a27.78,27.78,0,0,1,12.53,7.65,36.41,36.41,0,0,1,7.94,13.47q2.71,8,2.72,19.64a54.66,54.66,0,0,1-2.55,17.69,36.74,36.74,0,0,1-8.9,14.68,29.32,29.32,0,0,1-11.8,6.63q-5.55,1.76-14.85,1.76H375.1Zm16.78,14.06v55.05h12.53a45.58,45.58,0,0,0,10.15-.8,15.58,15.58,0,0,0,6.78-3.45q2.69-2.45,4.39-8t1.7-15.22q0-9.63-1.7-14.79a19,19,0,0,0-4.76-8.06,16,16,0,0,0-7.77-3.91q-3.51-.79-13.78-.79Z" transform="translate(0 0)"></path></g><g class="c"><path class="e" d="M203.16,358.4l16.32-1.59q1.49,8.22,6,12.07t12.17,3.86q8.1,0,12.21-3.43a10.21,10.21,0,0,0,4.11-8,7.53,7.53,0,0,0-1.73-5q-1.72-2.07-6-3.6-3-1-13.44-3.63-13.5-3.35-18.94-8.22a21.63,21.63,0,0,1-7.65-16.72,21.39,21.39,0,0,1,3.6-11.88,22.58,22.58,0,0,1,10.38-8.42,41.48,41.48,0,0,1,16.35-2.89q15.64,0,23.56,6.86t8.3,18.31l-16.78.74q-1.08-6.4-4.62-9.21t-10.63-2.81q-7.31,0-11.45,3a6.05,6.05,0,0,0-2.66,5.16A6.39,6.39,0,0,0,224.7,328q3.18,2.67,15.42,5.56t18.11,6a23.29,23.29,0,0,1,9.19,8.44,26.21,26.21,0,0,1-.65,26.62,23.78,23.78,0,0,1-11.23,9.27q-7.26,3-18.08,3-15.77,0-24.21-7.28T203.16,358.4Z" transform="translate(0 0)"></path><path class="e" d="M323.51,354.88v-14h36.17V374q-5.26,5.1-15.27,9a55.65,55.65,0,0,1-20.27,3.89q-13,0-22.74-5.48a34.77,34.77,0,0,1-14.57-15.64A50.61,50.61,0,0,1,282,343.6a47.8,47.8,0,0,1,5.44-23.07,36.66,36.66,0,0,1,15.93-15.48q8-4.14,19.9-4.14,15.48,0,24.18,6.49a29.37,29.37,0,0,1,11.2,17.94l-16.67,3.12a17.54,17.54,0,0,0-6.61-9.66,20,20,0,0,0-12.1-3.55q-11,0-17.49,7t-6.49,20.69q0,14.79,6.58,22.19t17.23,7.4a28.84,28.84,0,0,0,10.57-2.07,36.26,36.26,0,0,0,9.1-5V354.88Z" transform="translate(0 0)"></path><path class="e" d="M375.1,302.33h30.67q10.38,0,15.82,1.59a27.69,27.69,0,0,1,12.53,7.65A36.37,36.37,0,0,1,442.06,325q2.71,8,2.72,19.65a54.7,54.7,0,0,1-2.55,17.69,36.74,36.74,0,0,1-8.9,14.68,29.55,29.55,0,0,1-11.8,6.63q-5.55,1.76-14.85,1.76H375.1Zm16.78,14.06v55.05h12.53a45.58,45.58,0,0,0,10.15-.8,15.49,15.49,0,0,0,6.78-3.46q2.69-2.43,4.39-8t1.7-15.22q0-9.65-1.7-14.8a19,19,0,0,0-4.76-8.05,16,16,0,0,0-7.77-3.91q-3.51-.8-13.78-.79Z" transform="translate(0 0)"></path></g><path class="d" d="M86.32,132.45c39.44-51.37,99.06-80.8,163.66-80.8h.63A204.69,204.69,0,0,1,382,99.41l12.36-6.89h0v-8L387.7,87C296.4,13.3,162.42,24.37,84.58,113.52A219.51,219.51,0,0,0,75.4,391l11.5-6.88h0v-8l-5.2,1A206.14,206.14,0,0,1,86.32,132.45Z" transform="translate(0 0)"></path><path class="d" d="M427.75,129l-6.11,3.41-.23-4.89-5.35,0v8h0a206.29,206.29,0,0,1-2.38,247.89c-39.44,51.37-99.06,80.8-163.67,80.8h-.62a204.65,204.65,0,0,1-127.7-44.8l-3.4,2-.18-1.16-8.59-1.62v8h0a217.89,217.89,0,0,0,139.83,50.82H250c68.77,0,132.24-31.31,174.22-86A219.55,219.55,0,0,0,427.75,129Z" transform="translate(0 0)"></path><path class="e" d="M250,43.63h.63A204.68,204.68,0,0,1,382,91.38l12.36-6.88c-91.34-79.74-230-70.34-309.76,21A219.52,219.52,0,0,0,75.4,383l11.5-6.88a206.12,206.12,0,0,1-.58-251.69C125.76,73.05,185.38,43.63,250,43.63Z" transform="translate(0 0)"></path><path class="e" d="M427.75,121h0l-11.69,6.52A206.32,206.32,0,0,1,250,456.16h-.62a204.65,204.65,0,0,1-127.7-44.8l-12.17,7.28a217.9,217.9,0,0,0,139.83,50.83H250c68.77,0,132.24-31.32,174.22-86A219.53,219.53,0,0,0,427.75,121Z" transform="translate(0 0)"></path><polygon class="d" points="216.11 278.83 216.11 274.75 210.78 278.83 181.82 278.83 143.81 327.18 121.01 278.83 91.02 278.83 90.04 275.4 86.61 274.75 86.61 278.83 123.43 345.22 69.57 410.76 65.44 411.7 65.44 415.79 100.46 415.79 137.27 369.23 160.11 415.79 193.47 415.79 193.47 411.7 191.03 411.37 157.76 351.07 216.11 278.83"></polygon><polygon class="e" points="216.11 274.75 181.82 274.75 143.81 323.1 121.01 274.75 86.61 274.75 123.43 341.13 65.44 411.7 100.46 411.7 137.27 365.14 160.11 411.7 193.47 411.7 157.76 346.99 216.11 274.75"></polygon><path class="e" d="M220.29,239.77A37,37,0,0,1,215,223.08c-.57-8.5,1.5-16.72,6.34-25.12a143.63,143.63,0,0,1,13.71-19.16c1.29-1.56,2.64-3.07,4-4.58,1.53-1.7,3.12-3.47,4.56-5.29a87.45,87.45,0,0,0,8.87-13c4-7.48,5.7-14.68,5.26-22A24.71,24.71,0,0,0,254,121.71a25.47,25.47,0,0,0-4.17-5.19,21.65,21.65,0,0,1-6,2,25.5,25.5,0,0,1,.52,8.92A24.18,24.18,0,0,1,240,139.05a51.18,51.18,0,0,1-14,12.77c-1.88,1.21-3.83,2.34-5.72,3.42s-3.62,2.09-5.38,3.21a137.11,137.11,0,0,0-14.32,10.36c-3.84,3.22-8.69,7.65-12.21,13.3A42.8,42.8,0,0,0,182,211.3a57.54,57.54,0,0,0,8.73,24,96.2,96.2,0,0,0,14.87,17.89A120.67,120.67,0,0,0,222,265.81l1,.63a7.43,7.43,0,0,1-.21-1,24.66,24.66,0,0,1,3.87-17.38,1.74,1.74,0,0,0,.1-.19l-.13-.13A38,38,0,0,1,220.29,239.77Z" transform="translate(0 0)"></path><path class="e" d="M337.46,138.2a61.56,61.56,0,0,0-9-22.61,86,86,0,0,0-14.35-16.36,60.18,60.18,0,0,0-18.11-11,48.13,48.13,0,0,0-19.35-3.77,43.68,43.68,0,0,0-25,8.42l1.34,0,6-.1,2.07,0a55,55,0,0,1,13.46,1.49,62,62,0,0,1,21.33,9.65,82.24,82.24,0,0,1,8.88,7.13c1.5,1.42,2.91,3,4.28,4.44a58.84,58.84,0,0,1,6,7.4,54.85,54.85,0,0,1,8,21.58,81.76,81.76,0,0,1,1,10.7,48.09,48.09,0,0,1-.47,10.52c-.32,1.72-.79,3.43-1.24,5.08-.27,1-.54,2-.78,3A68.67,68.67,0,0,1,316.21,188c-.18.37-.37.73-.56,1.08.46-.39.91-.79,1.36-1.19l1.82-1.59A62.83,62.83,0,0,0,333.34,168a43.22,43.22,0,0,0,4.8-14.07A46.14,46.14,0,0,0,337.46,138.2Z" transform="translate(0 0)"></path><path class="e" d="M318.4,158.41a84.2,84.2,0,0,0-1-14l0-.36a39.36,39.36,0,0,0-2.58-9.77c-2.67-6.53-6.92-12.69-13-18.82a60.06,60.06,0,0,0-15.26-11.16,58.3,58.3,0,0,0-10-4.21,56.22,56.22,0,0,0-18.07-2,9.29,9.29,0,0,1,.53.85,9.12,9.12,0,0,1,.91,5,53.62,53.62,0,0,1,11.42,4.91,40.26,40.26,0,0,1,9.66,7.36,56.2,56.2,0,0,1,5.11,6.58,46.39,46.39,0,0,1,7.52,17,33.61,33.61,0,0,1-1.17,18.24c-2,5.53-5,10.95-9.73,17.55a98.25,98.25,0,0,1-8.46,9.77L271.83,188a41.53,41.53,0,0,0-8.29,12.79,32.89,32.89,0,0,0-2.33,17.45.13.13,0,0,1,0,.06l.06,0c5.63-2.88,10.3-5.16,14.68-7.19,2.07-.95,4.15-1.86,6.23-2.78,3.67-1.61,7.46-3.27,11.07-5.13a38.5,38.5,0,0,0,9-5.83,46.11,46.11,0,0,0,10.86-15.58c3.51-8.16,5.35-16.23,5.31-23.34Z" transform="translate(0 0)"></path><path class="e" d="M258.08,200.37a54.89,54.89,0,0,1,11.83-18,100.6,100.6,0,0,0,12.27-15.33c3.39-5.33,5.28-9.7,6.13-14.16a31.42,31.42,0,0,0,0-12.52,41.24,41.24,0,0,0-5.75-13.53,41.84,41.84,0,0,0-14.47-13.77,44.4,44.4,0,0,0-9.63-4.09.81.81,0,0,0-.31-.06.62.62,0,0,0-.15.21,20.47,20.47,0,0,1-3.19,4l-.34.36.33.35a27.86,27.86,0,0,1,5.43,8A36.44,36.44,0,0,1,262.67,143a56.3,56.3,0,0,1-6.94,18.44,67.29,67.29,0,0,1-9.63,12.82,171.06,171.06,0,0,0-16.61,20.58,61.09,61.09,0,0,0-6.33,11.26,37.53,37.53,0,0,0-3.08,13.52c0,.23,0,.45,0,.68a31.34,31.34,0,0,0,.89,7.4,32.74,32.74,0,0,0,8.78,15.84l.08.08.08-.1a68.79,68.79,0,0,1,9.69-10.49,97.34,97.34,0,0,1,16.54-12,38.85,38.85,0,0,1-.37-10.33A39.66,39.66,0,0,1,258.08,200.37Z" transform="translate(0 0)"></path><path class="e" d="M241.14,92.75c1.56,0,2.38-.33,3-1.19a3.7,3.7,0,0,1,.69-.68l.2-.17a44.77,44.77,0,0,1,16.19-9.07c9.46-3.09,17.52-3.72,25.36-2a70.58,70.58,0,0,1,9.12,2.57A51.09,51.09,0,0,0,283.6,76,66.79,66.79,0,0,0,271,72.65a103.25,103.25,0,0,0-15.22-1.15c-1,0-2,0-3,0h-.54a39.5,39.5,0,0,0-8.26.82,25,25,0,0,0-13.06,8,12.34,12.34,0,0,1-5.46,3.57,18,18,0,0,1-4.31.71c-.62,0-1.24.1-1.87.18L217.4,85a34.36,34.36,0,0,0-4,.6c-4.59,1-7.76,4-10.45,7.29l13.29-.06Q228.68,92.77,241.14,92.75Z" transform="translate(0 0)"></path><path class="e" d="M192.5,146.21c2.77-.27,5.58-.31,8.28-.35,1.52,0,3-.05,4.54-.11h0c1.64-.06,3.29-.06,4.94-.07a76.91,76.91,0,0,0,9.84-.45,21.05,21.05,0,0,0,18.71-20.75,22,22,0,0,0-2.06-9.51,1.64,1.64,0,0,1-.07-1.73c.45-.59,1.14-.48,1.73-.4A14.08,14.08,0,0,0,249.83,110c2.34-1.85,3.64-3.59,4.21-5.64a4.84,4.84,0,0,0-2.55-5.58,9.17,9.17,0,0,0-4.25-.56h-.32c-7.71.17-15.54.17-23.13.16h-6.38a5.85,5.85,0,0,1-5.48,4,5,5,0,0,1-5.22-3c-.35-.83-.51-.88-1.62-.87-5.13.12-10.25.1-15.48.09a13.33,13.33,0,0,0-8.33,2.37A7.38,7.38,0,0,0,178,106.4a11.22,11.22,0,0,1,2.89-.93l.65-.14a1.86,1.86,0,0,1,1.74.15c.61.49.59,1.31.56,2.55a1.74,1.74,0,0,1-1.61,1.79,27.82,27.82,0,0,0-2.86.72,5.18,5.18,0,0,0-3.16,2.58,5.26,5.26,0,0,0-.23,4.1c.29.86.6,1.72.92,2.57q1.23,3.28,2.49,6.57a13.15,13.15,0,0,1,5.81-2.21,38.44,38.44,0,0,1,13.36-.16,6.71,6.71,0,0,1,4.7,2.8,5.24,5.24,0,0,1,.77,4.13,6.42,6.42,0,0,1-3.06,4,17.15,17.15,0,0,1-21.45-3.77l0,0a.2.2,0,0,0,0,.08,20.92,20.92,0,0,0,2,20.76l.32-.42C184.19,148.39,187.62,146.69,192.5,146.21Z" transform="translate(0 0)"></path></svg>
