<svg id="Layer_1" data-name="Layer 1" xmlns="http://www.w3.org/2000/svg" viewBox="0 0 255.12 255.12"><defs><style>.cls-1{fill:#1048e5;}.cls-2{fill:#fff;}</style></defs><circle class="cls-1" cx="127.56" cy="127.56" r="113.39"/><path class="cls-2" d="M63.86,123.85c9.42-5.35,10.32-13,11.54-19.85.73-4.13,1-5.74,1-5.74H93.13s-.79,4.39-1.53,8.53c-1.22,6.85-1,11.84-10.14,17.06l-13.07,7.42c-9.42,5.34-10.32,13-11.54,19.85-.73,4.13-1,5.74-1,5.74H39.12l1.53-8.53c1.21-6.85,1-11.84,10.14-17.06Z"/><path class="cls-2" d="M60,121.79H53.2a11.7,11.7,0,0,1-11.58-9.55l-2.5-14H55.81Z"/><path class="cls-2" d="M72.22,133.34h6.83a11.69,11.69,0,0,1,11.57,9.54l2.51,14H76.44Z"/><path class="cls-2" d="M119.16,148.65a24.44,24.44,0,0,1-8-1.41,21.32,21.32,0,0,1-7.42-4.41l6.14-7.38a20.86,20.86,0,0,0,4.72,2.84,12.13,12.13,0,0,0,4.79,1.1,6.43,6.43,0,0,0,3.54-.75,2.43,2.43,0,0,0,1.09-2.13,2,2,0,0,0-.37-1.25,3.87,3.87,0,0,0-1.1-.94,13.14,13.14,0,0,0-1.72-.85c-.67-.27-1.44-.57-2.32-.9l-5.07-2.13a15.47,15.47,0,0,1-3.13-1.66,12.16,12.16,0,0,1-2.62-2.44,11.09,11.09,0,0,1-1.79-3.22,11.67,11.67,0,0,1-.66-4,11,11,0,0,1,1.13-4.91,12.47,12.47,0,0,1,3.13-4,15.12,15.12,0,0,1,4.79-2.72,17.82,17.82,0,0,1,6.1-1,20.72,20.72,0,0,1,7.1,1.31,17.65,17.65,0,0,1,6.42,4.13l-5.38,6.76a19.4,19.4,0,0,0-4-2.19,11.27,11.27,0,0,0-4.16-.75,6,6,0,0,0-3.13.69,2.27,2.27,0,0,0-1.13,2.06,2.46,2.46,0,0,0,1.6,2.23c1.06.52,2.54,1.13,4.41,1.84l5,1.94a13.35,13.35,0,0,1,5.88,4.2,11.06,11.06,0,0,1,2.07,6.94,12.08,12.08,0,0,1-4.17,9.11,15.31,15.31,0,0,1-5,2.85A19.82,19.82,0,0,1,119.16,148.65Z"/><path class="cls-2" d="M160.82,148.65a24.72,24.72,0,0,1-8-1.28A17.58,17.58,0,0,1,141.89,137a26.47,26.47,0,0,1,0-18.21,19.75,19.75,0,0,1,4.41-6.7,19.06,19.06,0,0,1,6.48-4.16,21.17,21.17,0,0,1,7.76-1.44,17.69,17.69,0,0,1,7.79,1.59,20.21,20.21,0,0,1,5.48,3.79l-5.63,6.88a15.63,15.63,0,0,0-3.16-2.15,9.86,9.86,0,0,0-7.92,0,9.35,9.35,0,0,0-3.07,2.32,10.58,10.58,0,0,0-2,3.69,15.81,15.81,0,0,0-.72,5c0,3.84.85,6.78,2.57,8.82s4.4,3.07,8.07,3.07a7.62,7.62,0,0,0,1.72-.19,4.12,4.12,0,0,0,1.41-.56V133h-6v-8.76h15.52v19.4a18.48,18.48,0,0,1-5.82,3.54A21,21,0,0,1,160.82,148.65Z"/><path class="cls-2" d="M183.08,147.9V107.22h12a29.79,29.79,0,0,1,8.48,1.13,17.05,17.05,0,0,1,6.6,3.56,16.33,16.33,0,0,1,4.29,6.26,24.74,24.74,0,0,1,1.53,9.2,25.64,25.64,0,0,1-1.5,9.26,16.73,16.73,0,0,1-4.22,6.39,17.06,17.06,0,0,1-6.45,3.69,26.62,26.62,0,0,1-8.11,1.19Zm10.77-8.64h.62a15.32,15.32,0,0,0,4.13-.53,7.77,7.77,0,0,0,3.35-1.85,8.77,8.77,0,0,0,2.22-3.63,17.75,17.75,0,0,0,.82-5.88,17.2,17.2,0,0,0-.82-5.82,8.32,8.32,0,0,0-2.22-3.5,7.67,7.67,0,0,0-3.35-1.73,17.66,17.66,0,0,0-4.13-.46h-.62Z"/><path class="cls-2" d="M52.33,83.61a87.1,87.1,0,0,1,150.46,0h6.92a93.18,93.18,0,0,0-164.3,0Z"/><path class="cls-2" d="M202.79,171.51a87.1,87.1,0,0,1-150.46,0H45.41a93.18,93.18,0,0,0,164.3,0Z"/></svg>