<?xml version="1.0" encoding="UTF-8"?>
<svg version="1.1" viewBox="0 0 46.7 48.2" xml:space="preserve" xmlns="http://www.w3.org/2000/svg">
   <title>nextgame_graphic_icon</title>
   <defs>
      <linearGradient id="b" x2="1.0013" y1=".50212" y2=".50212">
         <stop stop-color="#B82AFF" offset="0" />
         <stop stop-color="#EE3FFF" offset="1" />
      </linearGradient>
      <linearGradient id="a" x1=".10073" x2="1.0507" y1=".59263" y2=".34473">
         <stop stop-color="#B82AFF" offset="0" />
         <stop stop-color="#EE3FFF" offset="1" />
      </linearGradient>
   </defs>
   <g>
      <title>Layer 1</title>

      <circle class="st1" cx="23.35" cy="24.1" r="22.425" fill="url(#b)" />

      <path class="st2"
         d="m16.603 14.971c-3.5721 7.3427-0.59535 16.471 6.7473 20.44 7.1442 3.969 15.876 1.1907 19.448-5.9535 3.5721-7.3427 0.59535-16.471-6.7473-20.44-7.3427-4.1675-16.075-1.3892-19.448 5.9535z"
         fill="#fff" opacity=".65" />


      <path class="st3"
         d="m33.669 13.384c1.3892 0.3969 2.183 1.1907 2.7783 2.5799 0.3969 1.3892 0.3969 2.5799-0.3969 3.5721-0.7938 1.1907-1.9845 1.9845-3.7706 2.7783l0.59535 1.7861-4.1675 1.5876-1.5876-4.1675 1.7861-0.59535c1.1907-0.3969 2.183-0.99226 2.7783-1.3892 0.59535-0.59535 0.7938-1.1907 0.3969-1.9845-0.19845-0.3969-0.3969-0.7938-0.7938-0.99226-0.3969-0.19845-0.99226-0.19845-1.3892 0-0.59535 0.19845-0.99226 0.59535-1.1907 0.99226-0.19845 0.3969-0.19845 0.7938-0.19845 1.3892l-4.1675 1.5876c-0.3969-0.7938-0.3969-1.5876-0.19845-2.5799 0.19845-0.7938 0.7938-1.5876 1.5876-2.3814 0.7938-0.7938 1.7861-1.3892 3.1752-1.7861 1.7861-0.59535 3.3737-0.7938 4.7628-0.3969zm0.19845 12.502 1.3892 3.5721-4.5644 1.5876-1.3892-3.5721 4.5644-1.5876z"
         fill="url(#a)" />


   </g>
</svg>