<?xml version="1.0" encoding="UTF-8"?>
<svg data-name="Layer 1" viewBox="0 0 1724.6 1086.2" xmlns="http://www.w3.org/2000/svg">
<defs>
<style>.cls-1{fill:none;clip-rule:evenodd;}.cls-2{clip-path:url(#b);}.cls-3{fill:url(#a);}</style>
<clipPath id="b">
<path class="cls-1" d="M417.37,69.26h889.9l121.59,88.8H733.12l0,.68H729V468.61L460.33,158.06H382.64V550.7L106.89,296,417.37,69.26M1328.05,0H396.61L0,289.62l862.33,796.53,862.31-796.53ZM482.85,643.29V328L747.93,631.23h85.41V435.29h204.79V360.66H833.34v-122h309.72V631.23h99.49V238.7h296.74l78.47,57.3c-56.69,52.38-715.71,661.1-755.43,697.79Z"/>
</clipPath>
<linearGradient id="a" x1="3076.4" x2="3084.3" y1="1163.2" y2="1163.2" gradientTransform="matrix(-.06 226.14 -213.55 -.06 249451 -696283)" gradientUnits="userSpaceOnUse">
<stop stop-color="#f4eba8" offset="0"/>
<stop stop-color="#ca9a45" offset=".58"/>
<stop stop-color="#936228" offset="1"/>
</linearGradient>
</defs>
<g class="cls-2">
<rect class="cls-3" transform="translate(-44.48 78.06)" x="-44.48" y="-73.39" width="1813.6" height="1232.9"/>
</g>
</svg>
