<?xml version="1.0" encoding="utf-8"?>
<!DOCTYPE svg PUBLIC "-//W3C//DTD SVG 1.1//EN" "http://www.w3.org/Graphics/SVG/1.1/DTD/svg11.dtd">
<svg version="1.1" id="Layer_1" xmlns="http://www.w3.org/2000/svg" xmlns:xlink="http://www.w3.org/1999/xlink" x="0px" y="0px"
	 width="100" height="100" viewBox="9.073 19.054 88.884 79.589" enable-background="new 9.073 19.054 88.884 79.589"
	 xml:space="preserve">
<path fill="#3CEAAA" d="M38.979,21.148c2.792-2.793,7.32-2.793,10.113,0l23.386,23.386l-9.481,9.481L44.035,35.054L25.073,54.015
	l9.48,9.481l9.481-9.481l9.481,9.481l-9.481,9.48l14.221,14.222c2.618,2.618,2.618,6.862,0,9.481c-2.618,2.617-6.863,2.617-9.48,0
	L11.168,59.072c-2.793-2.793-2.793-7.321,0-10.114L38.979,21.148z"/>
<path fill="#03BCE4" d="M57.94,21.148c2.792-2.793,7.32-2.793,10.113,0l27.811,27.81c2.792,2.793,2.792,7.321,0,10.114
	L58.572,96.363c-2.792,2.792-7.32,2.792-10.113,0l-4.424-4.425l18.961-18.962L44.035,54.015l9.481-9.481l18.961,18.962l9.481-9.481
	L53.516,25.573L57.94,21.148z"/>
<rect x="37.331" y="37.831" transform="matrix(-0.7071 -0.7071 0.7071 -0.7071 43.6826 107.1631)" fill="#029ABB" width="13.408" height="13.408"/>
<rect x="56.292" y="37.831" transform="matrix(-0.7071 -0.7071 0.7071 -0.7071 76.0521 120.5705)" opacity="0.95" fill="#3CEAAA" enable-background="new    " width="13.408" height="13.408"/>
</svg>
