<svg width="73" height="18" viewBox="0 0 73 18" fill="none" xmlns="http://www.w3.org/2000/svg">
<path d="M44.5206 7.20698C46.3844 7.70305 47.7403 9.90936 47.4734 11.6149C47.2065 13.3204 46.1624 14.922 44.1545 15.0661C42.5529 15.1795 40.9371 15.0779 39.3285 15.1133C38.5891 15.1299 38.641 14.674 38.641 14.185C38.641 10.8212 38.641 7.45737 38.641 4.09356C38.641 3.31166 38.6647 2.5274 38.641 1.74787C38.6198 1.21637 38.7733 0.947073 39.3497 0.963609C40.408 0.994318 41.4757 0.944717 42.5269 0.999048C44.1332 1.07936 45.5813 2.59118 45.6427 4.18096C45.7065 5.72349 45.7065 5.72351 44.5206 7.20698ZM40.7411 10.97C40.7115 11.4762 40.7186 11.9838 40.7623 12.4889C40.7978 12.7251 41.0529 13.1196 41.2348 13.1314C42.3592 13.2117 43.5025 13.3181 44.4899 12.5432C45.1986 11.9858 45.5222 10.6535 45.0734 9.91881C44.4805 8.9314 42.6119 8.26526 41.1615 8.78495C40.2167 9.12747 40.9608 10.1668 40.7411 10.8542C40.7363 10.8927 40.7363 10.9316 40.7411 10.97ZM41.7308 2.87938C41.308 2.95498 40.7482 2.6904 40.7482 3.41796C40.7482 4.31797 40.7269 5.21798 40.7482 6.11562C40.7482 6.28806 40.9489 6.58807 41.0907 6.60224C41.8513 6.7298 42.5812 6.63059 43.082 5.95972C43.5828 5.28885 43.5545 4.54239 43.2757 3.85262C42.997 3.16285 42.4017 2.91009 41.7308 2.87938Z" fill="#55BE93"/>
<path d="M56.632 15.7874C56.2824 15.674 55.8548 15.648 55.5974 15.4283C55.0517 14.9559 54.4658 15.0338 53.8351 15.0574C52.5831 15.1047 51.3264 15.1259 50.0745 15.0811C48.7469 15.0338 47.854 14.0629 47.8422 12.7377C47.8304 11.6062 47.8422 10.4724 47.8422 9.34085C47.8422 7.68729 48.8059 6.68334 50.4973 6.64791C51.5546 6.61637 52.6128 6.6416 53.6674 6.7235C55.0658 6.83925 56.1808 7.64713 56.0698 9.2936C56.0013 10.3046 56.0556 11.3228 56.058 12.3385C56.058 13.4889 55.8714 14.6748 56.8611 15.6456L56.632 15.7874Z" fill="#4EBD91"/>
<path d="M4.90654 10.9942C5.30811 9.79415 5.69552 8.58706 6.11836 7.39413C6.62151 5.9768 7.1601 4.55947 7.68215 3.14213C7.88294 2.59882 8.06483 2.05078 8.28688 1.51928C8.35349 1.33377 8.45669 1.16352 8.59035 1.01865C8.72401 0.87378 8.88541 0.757238 9.06498 0.675938C9.24454 0.594638 9.43861 0.550233 9.63566 0.54537C9.83271 0.540506 10.0287 0.575279 10.2121 0.647622C10.746 0.831875 10.6066 1.29959 10.5097 1.63503C10.2735 2.45 9.96642 3.2437 9.6735 4.03977C8.66956 6.75869 7.65617 9.47289 6.65458 12.1942C6.37348 12.9525 6.07347 13.7084 5.85851 14.4879C5.72859 14.9603 5.48292 15.1304 5.03173 15.1044C4.54511 15.0737 3.99235 15.258 3.76558 14.5682C3.53881 13.8784 3.26715 13.2808 3.03329 12.6312C1.87108 9.39494 0.713585 6.15869 -0.43918 2.92245C-0.641799 2.42351 -0.817642 1.91412 -0.965956 1.39644C-1.08879 0.886202 -0.883279 0.616907 -0.283274 0.612182C0.779728 0.612182 1.03957 0.746835 1.41753 1.76968C2.46636 4.60435 3.51519 7.4335 4.56401 10.2572C4.62442 10.4816 4.66551 10.7108 4.68685 10.9422L4.90654 10.9942Z" fill="#57BF94"/>
<path d="M29.7566 9.8389C28.7881 12.1846 27.8668 14.398 26.9621 16.6138C26.7889 17.0392 26.4548 17.3791 26.0323 17.5596C25.6099 17.7401 25.1333 17.7465 24.7062 17.5775C24.6214 17.5037 24.5569 17.4093 24.5188 17.3035C24.4808 17.1976 24.4705 17.0838 24.4888 16.9728C25.0416 15.5555 25.6251 14.1689 26.2227 12.7775C26.8204 11.3862 27.4322 10.0255 28.0416 8.65071C28.2401 8.20188 28.422 7.74125 28.6487 7.3066C29.0149 6.59793 29.6857 6.94281 30.2338 6.88848C30.7062 6.84124 30.8928 7.1247 31.0535 7.54754C31.4645 8.62471 31.9086 9.69245 32.4094 10.7318C32.8062 11.5586 32.9362 11.5586 33.3543 10.7625C33.8669 9.77749 34.3275 8.76173 34.7598 7.73653C34.7889 7.61459 34.7904 7.48771 34.7642 7.36512C34.7381 7.24253 34.6849 7.12732 34.6086 7.02786C34.2307 6.57667 34.3937 6.38297 34.8448 6.168C35.3345 5.92568 35.8079 5.65187 36.2622 5.3483C36.9212 4.93019 37.1787 5.02942 37.3559 5.78769C37.4882 6.35226 37.6535 6.90974 37.7457 7.4814C37.774 7.64676 37.5874 8.00818 37.5094 8.00346C36.5102 7.93968 36.4819 8.78298 36.2267 9.36645C35.4708 11.1003 34.7574 12.8531 34.0299 14.5988C33.7393 15.2909 33.1251 15.0712 32.6125 15.0996C32.1873 15.1185 31.9582 14.9697 31.774 14.4996C31.1787 12.9641 30.4724 11.4712 29.7566 9.8389Z" fill="#58BF94"/>
<path d="M64.269 11.8412C64.3254 11.5741 64.3358 11.2993 64.2998 11.0286C64.1675 9.46955 64.921 8.34749 66.0738 7.4215C67.5242 6.25928 70.562 6.18369 72.029 8.71363C72.1423 8.90969 72.2439 9.11521 72.3431 9.32072C73.0707 10.8444 72.8156 11.2837 71.162 11.2837C69.8675 11.2837 68.5636 11.2696 67.2762 11.2956C66.9927 11.2956 66.4777 11.442 66.4754 11.5318C66.4623 11.8984 66.5488 12.2616 66.7258 12.583C67.3848 13.6696 68.8352 13.7806 69.9124 13.0011C70.0943 12.8688 70.3423 12.5971 70.4533 12.642C70.816 12.7839 71.1439 13.0023 71.4148 13.2822C71.8589 13.7546 71.488 14.0853 71.1266 14.442C68.8258 16.7216 65.2541 14.9924 64.5761 12.8759C64.4474 12.5394 64.3448 12.1935 64.269 11.8412ZM66.395 9.90891C67.5596 9.90891 68.573 9.90891 69.5864 9.90891C69.7965 9.87228 70.0002 9.80546 70.1911 9.7105C70.0919 9.47427 70.0494 9.18608 69.884 9.00183C68.9226 7.98371 67.373 8.32386 66.395 9.90891Z" fill="#5AC095"/>
<path d="M19.6725 11.2757C18.9284 11.2757 18.1819 11.2616 17.4378 11.2757C16.5756 11.2946 16.337 11.7151 16.7599 12.4568C16.9418 12.7844 17.2127 13.0537 17.5413 13.2339C17.8698 13.414 18.2426 13.4976 18.6166 13.475C19.089 13.4632 19.7174 13.3214 20.0221 13.0025C20.4945 12.497 20.8252 12.7191 21.2032 12.9907C21.9402 13.5198 21.9331 13.7608 21.2315 14.408C20.1449 15.3978 18.8906 15.7829 17.4662 15.3529C15.5764 14.786 14.5748 13.4442 14.374 11.5356C14.1992 9.88201 14.7945 8.50721 16.1551 7.47255C17.4425 6.49223 18.8764 6.42373 20.2489 7.00011C21.4843 7.52689 22.4245 8.46232 22.578 9.9647C22.715 11.2828 22.7599 11.2781 21.4371 11.2805L19.6725 11.2757ZM16.6913 9.8584H20.5607C20.1496 8.84028 19.4646 8.4009 18.4465 8.46704C17.6103 8.51901 16.9276 8.79776 16.6913 9.8584Z" fill="#59BF95"/>
<path d="M63.8274 12.05L63.8415 13.4674C63.799 14.5871 62.8967 14.9012 62.0935 15.2603C60.8226 15.8201 59.1336 15.4705 58.236 14.4335C58.0036 14.1386 57.8653 13.7805 57.8391 13.4059C57.8179 13.1697 59.1029 12.8485 59.3817 12.9784C59.6785 13.1597 59.9957 13.3056 60.3266 13.413C60.7027 13.4939 61.0926 13.4858 61.4651 13.3894C62.0344 13.2217 62.1455 12.7067 61.7203 12.324C61.4546 12.1029 61.1556 11.9251 60.8344 11.7973C60.3407 11.5823 59.8116 11.4453 59.3202 11.2303C57.5438 10.4508 57.6667 7.88778 59.0486 7.12005C60.4305 6.35233 62.4833 6.49643 63.466 7.65392C63.7612 8.00117 63.9148 8.23503 63.3313 8.52794C62.7478 8.82086 62.325 9.00039 61.6919 8.69567C60.91 8.31771 60.251 8.43818 60.0927 8.82795C59.9344 9.21772 60.5155 9.75394 61.3399 9.93347C62.5494 10.198 63.5392 10.7154 63.8274 12.05Z" fill="#58BF94"/>
<path d="M11.3577 10.9729C11.3577 9.87681 11.3436 8.77838 11.3577 7.68231C11.3577 6.89096 11.594 6.69727 12.442 6.69727C13.29 6.69727 13.557 6.88388 13.5617 7.64216C13.5759 9.87446 13.5617 12.1068 13.5759 14.3391C13.5759 14.8918 13.4105 15.1446 12.8436 15.0973C12.5696 15.0761 12.2932 15.0973 12.0192 15.0973C11.5302 15.0973 11.3317 14.8776 11.3459 14.3721C11.3766 13.243 11.3577 12.1091 11.3577 10.9729Z" fill="#5BC095"/>
<path d="M23.4732 6.87905C24.5835 6.87905 24.6071 6.89322 25.0205 7.91134C25.3819 8.80426 25.7292 9.69719 26.1024 10.5877C26.2843 11.0413 25.715 12.9004 25.2922 13.0704C25.1948 13.0769 25.0974 13.0586 25.009 13.0173C24.9207 12.976 24.8442 12.913 24.7866 12.8342C24.078 11.2161 23.3693 9.59088 22.7102 7.95149C22.285 6.89086 22.3157 6.87669 23.4732 6.87905Z" fill="#5CC096"/>
<path d="M13.7789 4.21037C13.7506 5.04187 13.2521 5.49541 12.4135 5.45525C11.575 5.41509 11.2324 4.95918 11.2773 4.03791C11.3222 3.25602 11.7946 2.845 12.586 2.89697C12.7518 2.90102 12.9151 2.93867 13.0659 3.00766C13.2168 3.07664 13.3521 3.17552 13.4636 3.29831C13.5751 3.42109 13.6606 3.56523 13.7148 3.722C13.769 3.87877 13.7908 4.04492 13.7789 4.21037Z" fill="#61C198"/>
</svg>
