<svg width="43" height="41" viewBox="0 0 43 41" fill="none" xmlns="http://www.w3.org/2000/svg">
<path d="M20.8139 23.9718L3.5382 33.9713L1 31.4332L16.1446 21.2569L20.8139 23.9718Z" fill="url(#paint0_linear_2464_98)"/>
<path d="M21.2044 24.6481L3.9067 34.6096L4.83572 38.0768L21.2209 30.0494L21.2044 24.6481Z" fill="url(#paint1_linear_2464_98)"/>
<path d="M21.8912 24.6481L39.1889 34.6096L38.2599 38.0768L21.8747 30.0494L21.8912 24.6481Z" fill="url(#paint2_linear_2464_98)"/>
<path d="M22.2817 23.9718L39.5574 33.9713L42.0956 31.4331L26.951 21.2569L22.2817 23.9718Z" fill="url(#paint3_linear_2464_98)"/>
<path d="M21.8912 23.2328L21.8692 3.27183L25.3364 2.34277L26.5771 20.5465L21.8912 23.2328Z" fill="url(#paint4_linear_2464_98)"/>
<path d="M21.1102 23.2328L21.1322 3.27183L17.665 2.34277L16.4243 20.5465L21.1102 23.2328Z" fill="url(#paint5_linear_2464_98)"/>
<path d="M20.8139 23.9718L3.5382 33.9713L1 31.4332L16.1446 21.2569L20.8139 23.9718Z" stroke="url(#paint6_linear_2464_98)" stroke-width="0.226527"/>
<path d="M21.2044 24.6481L3.9067 34.6096L4.83572 38.0768L21.2209 30.0494L21.2044 24.6481Z" stroke="url(#paint7_linear_2464_98)" stroke-width="0.226527"/>
<path d="M21.8912 24.6481L39.1889 34.6096L38.2599 38.0768L21.8747 30.0494L21.8912 24.6481Z" stroke="url(#paint8_linear_2464_98)" stroke-width="0.226527"/>
<path d="M22.2817 23.9718L39.5574 33.9713L42.0956 31.4331L26.951 21.2569L22.2817 23.9718Z" stroke="url(#paint9_linear_2464_98)" stroke-width="0.226527"/>
<path d="M21.8912 23.2328L21.8692 3.27183L25.3364 2.34277L26.5771 20.5465L21.8912 23.2328Z" stroke="url(#paint10_linear_2464_98)" stroke-width="0.226527"/>
<path d="M21.1102 23.2328L21.1322 3.27183L17.665 2.34277L16.4243 20.5465L21.1102 23.2328Z" stroke="url(#paint11_linear_2464_98)" stroke-width="0.226527"/>
<defs>
<linearGradient id="paint0_linear_2464_98" x1="21.5478" y1="2.34277" x2="21.5478" y2="38.0768" gradientUnits="userSpaceOnUse">
<stop stop-color="#33E6BF"/>
<stop offset="1" stop-color="#0439C7"/>
</linearGradient>
<linearGradient id="paint1_linear_2464_98" x1="21.5478" y1="2.34277" x2="21.5478" y2="38.0768" gradientUnits="userSpaceOnUse">
<stop stop-color="#33E6BF"/>
<stop offset="1" stop-color="#0439C7"/>
</linearGradient>
<linearGradient id="paint2_linear_2464_98" x1="21.5478" y1="2.34277" x2="21.5478" y2="38.0768" gradientUnits="userSpaceOnUse">
<stop stop-color="#33E6BF"/>
<stop offset="1" stop-color="#0439C7"/>
</linearGradient>
<linearGradient id="paint3_linear_2464_98" x1="21.5478" y1="2.34277" x2="21.5478" y2="38.0768" gradientUnits="userSpaceOnUse">
<stop stop-color="#33E6BF"/>
<stop offset="1" stop-color="#0439C7"/>
</linearGradient>
<linearGradient id="paint4_linear_2464_98" x1="21.5478" y1="2.34277" x2="21.5478" y2="38.0768" gradientUnits="userSpaceOnUse">
<stop stop-color="#33E6BF"/>
<stop offset="1" stop-color="#0439C7"/>
</linearGradient>
<linearGradient id="paint5_linear_2464_98" x1="21.5478" y1="2.34277" x2="21.5478" y2="38.0768" gradientUnits="userSpaceOnUse">
<stop stop-color="#33E6BF"/>
<stop offset="1" stop-color="#0439C7"/>
</linearGradient>
<linearGradient id="paint6_linear_2464_98" x1="21.5478" y1="2.34277" x2="21.5478" y2="38.0768" gradientUnits="userSpaceOnUse">
<stop stop-color="#33E6BF"/>
<stop offset="1" stop-color="#0439C7"/>
</linearGradient>
<linearGradient id="paint7_linear_2464_98" x1="21.5478" y1="2.34277" x2="21.5478" y2="38.0768" gradientUnits="userSpaceOnUse">
<stop stop-color="#33E6BF"/>
<stop offset="1" stop-color="#0439C7"/>
</linearGradient>
<linearGradient id="paint8_linear_2464_98" x1="21.5478" y1="2.34277" x2="21.5478" y2="38.0768" gradientUnits="userSpaceOnUse">
<stop stop-color="#33E6BF"/>
<stop offset="1" stop-color="#0439C7"/>
</linearGradient>
<linearGradient id="paint9_linear_2464_98" x1="21.5478" y1="2.34277" x2="21.5478" y2="38.0768" gradientUnits="userSpaceOnUse">
<stop stop-color="#33E6BF"/>
<stop offset="1" stop-color="#0439C7"/>
</linearGradient>
<linearGradient id="paint10_linear_2464_98" x1="21.5478" y1="2.34277" x2="21.5478" y2="38.0768" gradientUnits="userSpaceOnUse">
<stop stop-color="#33E6BF"/>
<stop offset="1" stop-color="#0439C7"/>
</linearGradient>
<linearGradient id="paint11_linear_2464_98" x1="21.5478" y1="2.34277" x2="21.5478" y2="38.0768" gradientUnits="userSpaceOnUse">
<stop stop-color="#33E6BF"/>
<stop offset="1" stop-color="#0439C7"/>
</linearGradient>
</defs>
</svg>
