<svg width="43" height="58" viewBox="0 0 43 58" fill="none" xmlns="http://www.w3.org/2000/svg">
<path d="M41.7058 47.2228C39.4403 49.1003 36.7444 50.0093 33.9352 50.6408C33.2046 50.8022 32.4683 51.0061 31.7065 50.9523C31.0722 50.9098 30.9023 51.2525 30.9051 51.816C30.9051 53.2716 30.9306 54.73 30.8541 56.1827C30.789 57.4486 29.9791 58.0291 28.8718 57.7176C28.0393 57.4797 27.8326 56.8284 27.8241 56.0808C27.8042 54.7215 27.7986 53.3594 27.8241 51.9973C27.8241 51.3516 27.7193 50.9891 26.9235 50.924C22.8796 50.5983 19.3002 49.0465 16.0662 46.6479C14.9335 45.7983 14.9335 45.7983 13.9168 46.8206C13.1267 47.6221 12.3367 48.4235 11.5239 49.2079C10.7112 49.9923 9.84462 50.0999 9.16497 49.4911C8.48533 48.8822 8.51931 47.8458 9.32355 47.0019C10.3912 45.8691 11.4984 44.793 12.6 43.6773C12.6283 43.329 12.3536 43.1109 12.1526 42.8589C9.58621 39.7118 7.96676 35.9004 7.48285 31.8685C7.33276 30.7669 6.91648 30.5771 5.97348 30.6253C4.80109 30.6876 3.6202 30.6592 2.44215 30.6253C1.2641 30.5913 0.652419 30.0816 0.686401 29.1074C0.720384 28.1332 1.28676 27.581 2.45065 27.5584C3.61454 27.5357 4.80675 27.4989 5.98197 27.5584C6.93064 27.6122 7.33843 27.4168 7.47435 26.3152C7.98956 21.9345 9.82121 17.8131 12.7274 14.495C11.5381 13.4133 10.3034 12.3457 9.14232 11.2016C8.99924 11.0758 8.88237 10.923 8.79838 10.7519C8.71439 10.5809 8.66493 10.395 8.65283 10.2049C8.64073 10.0147 8.66623 9.82405 8.72787 9.64376C8.78951 9.46347 8.88608 9.2971 9.01206 9.15415C9.50197 8.51698 10.1929 8.41221 10.9122 8.72937C11.1533 8.87169 11.3679 9.05469 11.5466 9.27026C12.4216 10.1198 13.308 10.9694 14.149 11.8472C14.605 12.3258 14.942 12.3173 15.4545 11.9039C18.7876 9.22779 22.5342 7.52018 26.8442 7.14071C27.6145 7.07274 27.8609 6.68761 27.8326 5.94C27.7844 4.7223 27.7901 3.49894 27.8326 2.27841C27.8807 1.14567 28.3649 0.669922 29.3533 0.669922C30.3416 0.669922 30.7918 1.12302 30.8485 2.30673C30.9098 3.43286 30.9146 4.56136 30.8626 5.68797C30.8088 6.67911 31.1458 7.1039 32.1851 7.18602C35.7872 7.4692 38.9617 8.93044 42.0966 10.9156C41.1338 12.3315 40.1851 13.7078 39.2647 15.0954C38.8286 15.7495 38.4152 15.4012 37.9621 15.1379C35.8929 13.9233 33.6146 13.1068 31.2449 12.7308C23.0127 11.4961 14.2736 18.0773 13.2089 26.3237C12.2715 33.593 14.9278 39.2511 21.138 43.0316C25.6039 45.753 30.4662 45.9966 35.3794 44.0907C36.0826 43.8256 36.7659 43.5105 37.424 43.1477C38.6786 42.4369 38.6729 42.4058 39.4601 43.5187C40.137 44.4759 40.7996 45.4443 41.4651 46.4043C41.5472 46.7017 41.6265 46.9622 41.7058 47.2228Z" fill="#BF2432"/>
</svg>
