<?xml version="1.0" encoding="utf-8"?>
<!-- Generator: Adobe Illustrator 25.2.3, SVG Export Plug-In . SVG Version: 6.00 Build 0)  -->
<svg version="1.1" id="Layer_2" xmlns="http://www.w3.org/2000/svg" xmlns:xlink="http://www.w3.org/1999/xlink" x="0px" y="0px"
	 viewBox="0 0 2988 2988" style="enable-background:new 0 0 2988 2988;" xml:space="preserve">
<style type="text/css">
	.st0{enable-background:new    ;}
	.st1{fill:url(#SVGID_1_);}
</style>
<ellipse class="st0" cx="1494.8" cy="1494" rx="1443.3" ry="1442.6"/>
<linearGradient id="SVGID_1_" gradientUnits="userSpaceOnUse" x1="2551.4639" y1="437.3013" x2="438.0661" y2="2550.699">
	<stop  offset="0" style="stop-color:#3EF8F3"/>
	<stop  offset="1" style="stop-color:#07AEFE"/>
</linearGradient>
<path class="st1" d="M2872.1,912.5c-75.3-177.9-183.1-337.7-320.3-474.9c-26.2-26.2-53.2-51.3-81-75.3c-3.1-2.6-6.2-5.3-9.3-7.9
	c-115.6-98.2-244.6-177.6-384.9-236.9C1892.3,39.5,1696.5,0,1494.7,0C1293,0,1097.2,39.5,912.9,117.4
	c-178,75.3-337.9,182.9-475.1,320.1c-137.3,137.2-245,297-320.3,474.9C39.5,1096.7,0,1292.3,0,1494c0,201.7,39.5,397.3,117.5,581.5
	c75.3,177.9,183.1,337.7,320.3,474.9c22.2,22.2,45.1,43.7,68.5,64.3c4.4,3.9,8.9,7.8,13.3,11.6c117.7,101.5,249.6,183.5,393.3,244.2
	c184.3,77.9,380.1,117.4,581.8,117.4c201.8,0,397.5-39.5,581.8-117.4c178-75.2,337.9-182.9,475.1-320.1
	c137.3-137.2,245-297,320.3-474.9c77.9-184.2,117.5-379.9,117.5-581.5C2989.5,1292.3,2950,1096.7,2872.1,912.5z M1494.7,2907.5
	c-337.4,0-647.6-118.7-890.9-316.5l1481.5-623.5l-507.3-514.8l-0.2,0.2l-1-1L561.3,2555C266.7,2295.7,80.5,1916.2,80.5,1494
	C80.5,714.6,714.9,80.5,1494.7,80.5c333.3,0,640,115.9,882,309.3L1069.2,937.9l507.6,513.9l0.2-0.2l1,1l841.1-1027.5
	C2719,684.5,2909,1067.5,2909,1494C2909,2273.4,2274.6,2907.5,1494.7,2907.5z M762.5,2444.7l816.4-886.8l378.4,384L762.5,2444.7z
	 M2242.1,525.8l-669.4,817.7l-375.2-379.8L2242.1,525.8z"/>
</svg>
