<svg width="55" height="55" viewBox="0 0 56 55" fill="none" xmlns="http://www.w3.org/2000/svg">
<path d="M53.8373 0.0888302C51.8633 2.06284 50.215 3.74075 48.547 5.40385C45.6502 8.2859 42.7089 11.1186 39.8564 14.0401C33.7123 20.3125 22.9096 20.6333 16.2967 14.0401C12.0279 9.78121 7.71962 5.57164 3.43603 1.33246C3.10539 1.00675 2.82902 0.62179 2.51318 0.251664C2.60615 0.206565 2.70379 0.171831 2.80435 0.148048C6.68821 -0.0838978 6.67834 -0.0740276 9.39259 2.61556C12.4474 5.65552 15.5959 8.60664 18.5717 11.7206C19.7825 13.0224 21.2469 14.0628 22.8747 14.7776C24.5025 15.4925 26.2594 15.8667 28.0372 15.8773C29.8151 15.888 31.5763 15.5348 33.2125 14.8395C34.8488 14.1442 36.3255 13.1214 37.5518 11.8342C40.8336 8.4241 44.3177 5.20644 47.6143 1.81115C48.8332 0.552717 50.0818 -0.24677 51.8831 0.0690708C52.5333 0.120531 53.1862 0.127145 53.8373 0.0888302Z" fill="#111736"/>
<path d="M53.5523 54.6657C53.4094 54.7223 53.2626 54.7685 53.1131 54.8039C49.6092 54.9224 49.624 54.9075 47.1911 52.4943C43.9487 49.2816 40.6423 46.1331 37.4296 42.8908C36.223 41.6377 34.7776 40.6389 33.1788 39.9534C31.5799 39.2678 29.86 38.9094 28.1204 38.8993C26.3808 38.8892 24.6568 39.2275 23.0501 39.8944C21.4434 40.5613 19.9865 41.5432 18.7654 42.7823C15.3701 46.0936 11.9254 49.3606 8.71767 52.8448C7.01016 54.6954 5.19901 55.2382 2.86475 54.6411C2.86475 53.886 3.46682 53.511 3.9159 53.0668C8.1008 48.9362 12.2758 44.7908 16.5051 40.6997C19.8067 37.5067 23.7448 35.7647 28.4183 35.8634C32.3219 35.9522 35.8701 37.1761 38.693 39.841C43.4947 44.3763 48.1238 49.0892 52.8219 53.738C53.0827 54.0332 53.3266 54.3429 53.5523 54.6657Z" fill="#121737"/>
<path d="M0.530385 43.5616C0.472423 43.3111 0.429575 43.0574 0.402075 42.8017C0.29844 39.6038 0.29844 39.6038 2.60309 37.309C4.51294 35.409 6.34877 33.435 8.34745 31.6288C8.90941 31.1056 9.36196 30.4761 9.67889 29.7767C9.99583 29.0774 10.1708 28.3221 10.1938 27.5546C10.2167 26.7872 10.0872 26.0228 9.8126 25.3058C9.53802 24.5887 9.12389 23.9333 8.5942 23.3774C6.52149 21.3146 4.4784 19.2024 2.27245 17.2926C0.742591 15.9749 0.110909 14.5487 0.392205 12.6241C0.451425 12.2293 0.441555 11.8246 0.481035 11.1436C3.2249 13.7492 5.81085 16.1921 8.37706 18.6546C9.20121 19.4442 10.0204 20.2388 10.7903 21.0827C14.3682 25.0307 14.5409 29.6943 10.8692 33.4696C7.68616 36.7464 4.38957 39.885 1.13739 43.1175C0.946543 43.2806 0.743629 43.4291 0.530385 43.5616Z" fill="#131837"/>
<path d="M55.5436 43.1419C55.3202 43.1609 55.0957 43.1213 54.8923 43.0269C54.6889 42.9326 54.5137 42.7868 54.3839 42.604C51.2502 39.5097 48.1263 36.4006 44.9778 33.3261C41.8292 30.2516 42.0168 24.5616 44.7656 21.8029C48.1658 18.3977 51.6055 15.0271 55.0353 11.6515C55.1242 11.5627 55.3117 11.5775 55.4696 11.543C55.8348 12.2339 55.5584 12.984 55.667 13.6946C55.8447 14.9333 55.3808 15.8216 54.453 16.6803C52.2421 18.7382 50.1891 20.959 47.9881 23.0218C45.2739 25.5584 44.9531 28.9734 48.0325 31.9048C50.0362 33.8196 51.8424 35.9664 53.9546 37.7183C55.9039 39.3173 55.7953 41.1333 55.5436 43.1419Z" fill="#121836"/>
<path d="M15.8169 54.6908C18.3634 51.9765 20.5545 49.4301 23.3231 47.5499C26.363 45.4821 29.6547 45.4821 32.7391 47.5499C35.5323 49.4054 37.5754 52.0654 40.26 54.5823C38.7351 55.0215 37.6149 54.7944 36.5193 54.8388C35.8679 54.8684 35.5323 54.3454 35.1177 53.9506C34.19 53.0326 33.2638 52.1098 32.3393 51.182C29.7731 48.6059 26.1706 48.6454 23.6882 51.2462C23.2934 51.6607 22.8789 52.0604 22.4742 52.4651C19.9524 54.9425 19.9524 54.9425 15.8169 54.6908Z" fill="#141A37"/>
<path d="M40.232 0.0896865C37.9471 2.40914 35.9336 4.53121 33.8164 6.57924C31.1219 9.18987 25.5404 9.2836 22.9249 6.97895C20.5462 4.8865 18.3353 2.60159 15.9023 0.25746C16.2282 0.185706 16.5577 0.131366 16.8893 0.0946264C20.2106 0.00579606 20.2106 0.0107481 22.6288 2.39436C23.0927 2.85825 23.6158 3.27276 24.0204 3.77613C25.8365 5.98208 29.6612 6.20417 32.1484 3.85511C32.9992 3.08825 33.8096 2.2778 34.5764 1.42706C35.4351 0.440053 36.4123 -0.107729 37.7743 0.074867C38.5925 0.128513 39.4132 0.133472 40.232 0.0896865Z" fill="#131837"/>
<path d="M20.6551 28.8995C20.4874 27.9196 20.4874 26.9184 20.6551 25.9385H35.4601C35.7081 26.3974 35.8275 26.9148 35.8058 27.436C35.7841 27.9571 35.622 28.4628 35.3368 28.8995H20.6551Z" fill="#171A39"/>
</svg>
