<?xml version="1.0" encoding="UTF-8"?>
<svg xmlns="http://www.w3.org/2000/svg" viewBox="0 0 1161.32 1500">
  <defs>
    <style>
      .cls-1 {
        fill: #fff;
      }
    </style>
  </defs>
  <g id="Layer_6" data-name="Layer 6">
    <path class="cls-1" d="M1116.99,826.91c-30.71-77.43-77.31-153.69-138.49-226.67-81.09-96.73-167.01-162.27-201.45-186.78,15.98-7.51,25.37-25.09,21.99-43.11-3.12-16.61-16.34-29.17-32.56-31.79l171.28-243.3c3.61-5.13,3-12.08-1.46-16.55-11.52-11.41-53.09-47.53-104.15-33.12-12.56,3.54-24.08,7.75-34.24,11.46-35.23,12.86-56.5,20.63-84.67-5.45C676.39,17.46,652.02-1.78,580.66.13c-71.39-1.91-95.73,17.33-132.59,51.46-28.17,26.08-49.44,18.31-84.67,5.45-10.16-3.71-21.68-7.92-34.24-11.46-51.06-14.4-92.62,21.71-104.17,33.15-4.44,4.44-5.04,11.39-1.43,16.53l171.27,243.3c-16.22,2.62-29.44,15.18-32.56,31.79-3.39,18.03,6,35.6,21.99,43.11-34.44,24.51-120.36,90.05-201.45,186.78-61.18,72.98-107.78,149.24-138.49,226.67C5.81,923.98-7.7,1023.1,4.16,1121.54c11.7,97.1,57.31,178.35,135.56,241.49,65.22,52.63,151.37,91.63,256.05,115.92,60.48,14.03,122.68,21.05,184.89,21.05s124.41-7.02,184.89-21.05c104.68-24.29,190.83-63.29,256.05-115.92,78.25-63.14,123.86-144.39,135.56-241.49,11.86-98.44-1.65-197.56-40.16-294.63ZM324.4,62.46c11.93,3.36,22.63,7.27,32.99,11.05,35.72,13.04,66.57,24.31,102.6-9.05,35.47-32.85,55.42-48.56,120.43-46.79h.24s.24,0,.24,0c65-1.78,84.96,13.94,120.43,46.79,36.04,33.36,66.89,22.09,102.6,9.05,10.36-3.78,21.06-7.69,32.99-11.05,38.58-10.88,71.54,14.34,84.19,25.98l-176.96,251.38c-20.86,2.66-51.21,5.97-86.93,8.2l57.07-162.28c1.61-4.57-.79-9.58-5.36-11.18-4.57-1.61-9.58.79-11.18,5.36l-59.48,169.12c-19.52.94-38.88,1.47-57.6,1.52-18.72-.06-38.08-.58-57.6-1.52l-59.48-169.12c-1.61-4.57-6.61-6.97-11.18-5.36-4.57,1.61-6.97,6.61-5.36,11.18l57.07,162.28c-35.73-2.23-66.09-5.55-86.93-8.2L240.21,88.44c12.68-11.68,45.62-36.85,84.18-25.98ZM379.51,373.58c1.96-10.43,11.05-18,21.62-18,.99,0,2.02.07,3.03.2l6.93.94c23.56,3.08,60.93,7.25,105.2,9.58,21.81,1.14,43.45,1.76,64.34,1.82h.05c20.89-.06,42.54-.68,64.34-1.82,44.27-2.33,81.64-6.49,105.24-9.58l6.87-.93c1.03-.14,2.06-.21,3.05-.21,10.57,0,19.66,7.57,21.62,18,2.17,11.53-5.04,22.72-16.39,25.48-3.53.85-7.08,1.68-10.6,2.47-51.84,11.55-110.4,17.14-174.08,16.62h-.14c-63.67.52-122.24-5.07-174.06-16.61-3.55-.8-7.09-1.63-10.61-2.48-11.36-2.76-18.57-13.95-16.4-25.48ZM1139.74,1119.44c-26.09,216.54-220.05,305.73-378.16,342.42-118.36,27.47-243.49,27.47-361.85,0-158.11-36.69-352.06-125.88-378.16-342.42-26.06-216.31,80.44-395.4,174.36-507.55,92.9-110.92,192.17-180.14,210.44-192.44,52.2,11.29,110.8,16.77,174.28,16.25,2.75.02,5.49.03,8.22.03,60.32,0,116.11-5.48,166.06-16.28,18.27,12.31,117.55,81.52,210.44,192.44,93.92,112.15,200.42,291.25,174.36,507.55Z"/>
  </g>
  <g id="Layer_7" data-name="Layer 7">
    <g>
      <path class="cls-1" d="M426.15,820.97c-23.48-.39-43.76,8.11-58.6,24.68-21.28,23.75-30.24,62.71-24.58,106.87,4.92,38.36,28.2,56.28,46.86,64.56,18.69,8.29,36.28,8.59,38.74,8.59.14,0,.22,0,.27,0h.06c33.5-.66,78.26-11.15,80.18-94.13,1.04-45-5.74-72.62-22-89.56-13.26-13.82-32.62-20.49-60.92-21ZM491.54,931.13c-1.54,66.57-31.16,76.36-62.95,77-2.85-.02-60.84-.37-68.22-57.85-5.02-39.1,2.36-72.97,20.24-92.93,11.21-12.51,25.96-18.85,43.84-18.85.46,0,.92,0,1.38.01,23.33.42,38.77,5.38,48.58,15.61,12.77,13.3,18.05,37.05,17.12,77.01Z"/>
      <path class="cls-1" d="M792.76,831.42c-19.73-8.75-38.23-8.62-39-8.59h-.06c-33.5.66-78.26,11.14-80.18,94.13-1.04,45,5.74,72.62,22,89.56,13.26,13.82,32.62,20.49,60.92,21,.56.01,1.11.01,1.66.01,22.79,0,42.45-8.52,56.94-24.69,21.28-23.75,30.24-62.71,24.57-106.87-4.92-38.36-28.2-56.28-46.86-64.56ZM801.98,991.14c-11.5,12.84-26.78,19.16-45.22,18.84-23.33-.42-38.77-5.38-48.58-15.61-12.77-13.3-18.05-37.05-17.12-77.01,1.54-66.57,31.16-76.36,62.94-77,2.94-.01,60.85.37,68.22,57.85,5.02,39.1-2.36,72.97-20.24,92.93Z"/>
      <g>
        <path class="cls-1" d="M567.39,623.76h-67.96c-5.63,0-10.2,4.57-10.2,10.2v139.11c-22.2-13.09-46.95-19.94-72.45-19.94-84.92,0-153.99,76.27-153.99,170.02s69.08,170.01,153.99,170.01c27.15,0,53.27-7.69,76.46-22.4v8.46c0,6.19,5.02,11.21,11.21,11.21h61.93c6.19,0,11.21-5.02,11.21-11.21v-445.26c0-5.63-4.57-10.2-10.2-10.2ZM560.05,1072.9h-49.27v-28.2c0-2.19-1.79-3.95-3.98-3.92l-7.97.12c-1.36.02-2.63.74-3.31,1.92-19.55,34.04-78.75,32.81-78.75,32.81-75.24,0-136.45-68.4-136.45-152.47s61.21-152.48,136.45-152.48c0,0,59.05-.39,73.75,29.22.73,1.47,2.2,2.41,3.84,2.41h8.12c2.36,0,4.28-1.92,4.28-4.28v-156.72h53.27v431.59Z"/>
        <path class="cls-1" d="M765.81,755.33c-27.15,0-53.27,7.69-76.46,22.4v-8.46c0-6.19-5.02-11.21-11.21-11.21h-61.93c-6.19,0-11.21,5.02-11.21,11.21v445.26c0,5.63,4.57,10.2,10.2,10.2h67.96c5.63,0,10.2-4.57,10.2-10.2v-139.11c22.2,13.09,46.95,19.94,72.45,19.94,84.92,0,153.99-76.27,153.99-170.02s-69.08-170.01-153.99-170.01ZM765.81,1077.82s-59.05.39-73.75-29.22c-.73-1.47-2.2-2.41-3.84-2.41h-8.12c-2.36,0-4.28,1.92-4.28,4.28v156.72h-53.27v-431.59h49.27v28.2c0,2.19,1.79,3.95,3.98,3.92l7.97-.12c1.36-.02,2.63-.74,3.31-1.92,19.55-34.04,78.75-32.81,78.75-32.81,75.24,0,136.45,68.4,136.45,152.47s-61.21,152.48-136.45,152.48Z"/>
      </g>
    </g>
  </g>
</svg>