<svg viewBox="0 0 156 156" xmlns="http://www.w3.org/2000/svg"><circle cx="78" cy="78" fill="#fff" r="75.87"/><path d="m78 0a78 78 0 1 1 -78 78v-.83c.42-42.53 35.18-77.28 78-77.17zm1.66 5.66c-41.42.01-73.78 32.34-73.95 71.89-.18 39.94 32.29 72.8 72.29 72.66 19.81-.07 36.92-7.08 50.92-21.05 15.93-15.89 22.91-35.38 21.09-57.7a69.24 69.24 0 0 0 -20.81-44.46c-14.11-14-31.27-21.08-49.56-21.34z" fill="#333"/><path d="m148.08 70.34a67.52 67.52 0 0 0 -20-41.95c-13.81-13.86-30.64-20.9-50.26-20.93a70.52 70.52 0 0 0 -.47 141c19.54.14 36.49-6.7 50.29-20.52 15.85-15.86 22.69-35.23 20.44-57.6zm-39.63-47.21a2.15 2.15 0 1 1 -2.19 2.11 2.16 2.16 0 0 1 2.19-2.11zm-9.65-4.49a2.21 2.21 0 0 1 2.2 2.21 2.14 2.14 0 0 1 -2.2 2.08 2.08 2.08 0 0 1 -2.11-2.05v-.1a2.16 2.16 0 0 1 2.11-2.14zm-10.16-2.76a2.44 2.44 0 0 1 2.19 2.12 2.32 2.32 0 0 1 -2.36 2.17 2.16 2.16 0 0 1 -2.08-2.17 2.22 2.22 0 0 1 2.25-2.12zm-10.64-.88a2.14 2.14 0 1 1 -2.13 2.16 2.16 2.16 0 0 1 2.13-2.16zm-10.51.89a2.23 2.23 0 0 1 2.11 2.11 2.14 2.14 0 0 1 -2.15 2.14h-.08a2.12 2.12 0 0 1 -2.1-2.14 2.22 2.22 0 0 1 2.18-2.12zm-10.28 2.75a2.15 2.15 0 0 1 2.12 2.16 2.08 2.08 0 0 1 -2 2.13h-.1a2.15 2.15 0 0 1 -2.23-2.09.28.28 0 0 1 0-.09 2.22 2.22 0 0 1 2.21-2.11zm-9.66 4.49a2.15 2.15 0 1 1 .3 4.29h-.3a2.15 2.15 0 0 1 0-4.29zm-8.63 6.07a2.19 2.19 0 0 1 2.14 2.16 2.15 2.15 0 0 1 -2.14 2.14 2.07 2.07 0 0 1 -2.15-2 .37.37 0 0 1 0-.11 2.14 2.14 0 0 1 2.05-2.21zm-7.46 7.49a2.16 2.16 0 0 1 2.08 2.21 2.14 2.14 0 0 1 -2.17 2.1 2.22 2.22 0 0 1 -2.15-2.16 2.24 2.24 0 0 1 2.23-2.15zm-6.13 8.72a2.08 2.08 0 0 1 2.12 2 .14.14 0 0 1 0 .09 2.15 2.15 0 0 1 -2.11 2.18 2.24 2.24 0 0 1 -2.2-2.21 2.18 2.18 0 0 1 2.18-2.1zm-4.48 9.59a2.18 2.18 0 0 1 2.15 2.19v.05a2.17 2.17 0 0 1 -4.33-.13 2.2 2.2 0 0 1 2.18-2.11zm-2.8 10.23a2.22 2.22 0 0 1 2.21 2.19 2.16 2.16 0 0 1 -2.18 2.1 2.07 2.07 0 0 1 -2.08-2.06 2.15 2.15 0 0 1 2.06-2.17zm-3.05 12.77a2.24 2.24 0 0 1 2.14-2.18 2.14 2.14 0 0 1 2.16 2.12 2.11 2.11 0 0 1 -2 2.21h-.22a2.22 2.22 0 0 1 -2.08-2.15zm1 10.55a2.16 2.16 0 0 1 2.12-2.16 2.23 2.23 0 0 1 2.19 2.21 2.14 2.14 0 0 1 -2.2 2.08 2.06 2.06 0 0 1 -2.11-2v-.12zm4.9 12.38a2.16 2.16 0 0 1 -2.2-2.09 2.24 2.24 0 0 1 2.19-2.22 2.21 2.21 0 0 1 2.11 2.15 2.15 2.15 0 0 1 -2.14 2.14zm4.47 9.63a2.21 2.21 0 0 1 -2.18-2.12 2.17 2.17 0 0 1 2.15-2.17h.05a2.08 2.08 0 0 1 2.12 2 .41.41 0 0 1 0 .11 2.12 2.12 0 0 1 -2.12 2.13h-.06zm0-16.8.11-.39h22.8c5.92 0 5.92 0 5.92-6 0-5 0-10 0-15 0-1.63.22-2.39 2.17-2.31 4.29.18 8.6.12 12.89 0 1.5 0 2 .46 2 1.93q-.06 12.58 0 25.19c0 1.6-.5 2.41-2.19 2.25a7.32 7.32 0 0 0 -1.48 0c-1.93.21-2.59-.54-2.59-2.43.09-6.07 0-12.13 0-18.2 0-1.67-.52-2.44-2.31-2.44s-2.38.56-2.35 2.34c.08 6.07 0 12.14.07 18.2 0 2-.61 2.56-2.54 2.53-6.14-.1-12.3.28-18.4-.17-2.88-.21-5.67-1.83-8.46-2.93-1.89-.74-3.77-1.71-5.68-2.59zm6.31 25.52a2.2 2.2 0 0 1 -2.44-1.94 2 2 0 0 1 0-.34 2.33 2.33 0 0 1 2.26-2.19 2.51 2.51 0 0 1 2.18 2.37 2.54 2.54 0 0 1 -2 2.09zm7.2 7.43a2.07 2.07 0 0 1 -2.07-2.07v-.1a2.16 2.16 0 0 1 2.19-2.13 2.21 2.21 0 0 1 2.14 2.17 2.13 2.13 0 0 1 -2.14 2.12h-.08zm8.78 6.09a2.08 2.08 0 0 1 -2.16-2 .22.22 0 0 1 0-.08 2.17 2.17 0 0 1 2.09-2.23h.06a2.19 2.19 0 0 1 2.14 2.16 2.12 2.12 0 0 1 -2.11 2.15zm9.62 4.47a2.15 2.15 0 0 1 -2.27-2s0-.08 0-.12a2.25 2.25 0 0 1 2.17-2.15 2.16 2.16 0 0 1 2.15 2.14 2.07 2.07 0 0 1 -2 2.12zm-8.14-32.49c-1.9-.76-3.72-1.72-5.58-2.59l.23-.61h29.21c4.52 0 3.94.4 4-4 0-13 0-26.11 0-39.16 0-2.15.59-2.8 2.74-2.72 4.16.16 8.32.1 12.49 0 1.5 0 2.17.39 2.17 2q0 24.24 0 48.47c0 1.74-.74 2.28-2.34 2a7.65 7.65 0 0 0 -1.66-.25c-2.65.09-2.66.11-2.66-2.67v-40c0-1.1.42-2.52-1.41-2.81-2.14-.34-2.78.16-2.78 2.4v40.64c0 2.76 0 2.77-2.84 2.77-7.06 0-14.11-.1-21.17 0-4 .16-7-2.13-10.38-3.47zm18.35 35.22a2.14 2.14 0 0 1 -2.21-2.06.22.22 0 0 1 0-.08 2.17 2.17 0 1 1 2.21 2.14zm10.51 1a2.2 2.2 0 0 1 -2.16-2.23 2.17 2.17 0 1 1 2.16 2.23zm10.4-1a2.15 2.15 0 0 1 -2-2.19 2.17 2.17 0 0 1 4.34.16 2.14 2.14 0 0 1 -2.23 2zm10.39-2.74a2.09 2.09 0 0 1 -2.12-2v-.1a2.17 2.17 0 0 1 2.12-2.16 2.23 2.23 0 0 1 2.19 2.21 2.15 2.15 0 0 1 -2.19 2.05zm9.65-4.48a2.12 2.12 0 0 1 -2.17-2.07 2.2 2.2 0 0 1 2.18-2.21 2.15 2.15 0 0 1 2.11 2.18 2.09 2.09 0 0 1 -2 2.14h-.09zm1.81-20.63c.32-3.18-.14-47.87-.13-61.42 0-1.31.14-2.53-1.87-2.5-1.62 0-2 .59-2 2.12.06 7-.11 59.68-.11 59.68v6.62c-.75.08-1.36.19-2 .2-9.16 0-18.33.18-27.48-.1-2.3-.07-4.59-1.53-6.83-2.47a42.67 42.67 0 0 1 -7.44-3.86c.6 0 1.2-.11 1.8-.11l30.68.13c4.7 0 4.63 0 4.63-4.52v-61.81c0-1.73.39-2.53 2.35-2.47 4.44.14 8.89.09 13.33 0 1.49 0 2 .51 2 2v70.36c0 2.85 0 2.85-2.94 2.86-4.54 0-4.47-.08-4-4.69zm6.85 14.54a2.15 2.15 0 0 1 -2.16-2.11 2.23 2.23 0 0 1 2.21-2.19 2.14 2.14 0 0 1 2.09 2.19 2 2 0 0 1 -2 2.12h-.15zm.07-93.2a2.15 2.15 0 0 1 -2.17-2.07.17.17 0 0 1 0-.07 2.21 2.21 0 0 1 2.14-2.16 2.13 2.13 0 0 1 2.15 2.12 2.07 2.07 0 0 1 -1.94 2.19h-.12zm7.4 85.72a2.15 2.15 0 0 1 0-4.29 2.15 2.15 0 1 1 0 4.29zm0-78.18a2.17 2.17 0 1 1 2.17-2.17 2.17 2.17 0 0 1 -2.17 2.14zm15.43 26.4a2.06 2.06 0 0 1 -2 2.11h-.12a2.16 2.16 0 0 1 -2.17-2.12 2.24 2.24 0 0 1 2.29-2.19 2.15 2.15 0 0 1 2 2.2zm-9.34-22a2.17 2.17 0 0 1 2.16 2.13 2.23 2.23 0 0 1 -2.22 2.18 2.16 2.16 0 0 1 -2.08-2.2 2.09 2.09 0 0 1 2-2.13h.15zm0 65.13a2.13 2.13 0 0 1 -2.13-2.13 2.08 2.08 0 0 1 2-2.15h.11a2.15 2.15 0 0 1 2.21 2.11v.05a2.19 2.19 0 0 1 -2.16 2.11zm4.48-55.56a2.14 2.14 0 1 1 -2.14 2.11 2.19 2.19 0 0 1 2.14-2.11zm.07 45.91a2.16 2.16 0 0 1 -2.21-2.07 2.17 2.17 0 1 1 4.33-.37 1.31 1.31 0 0 1 0 .28 2.16 2.16 0 0 1 -2.12 2.16zm2.65-10.25a2.18 2.18 0 0 1 -2.13-2.15 2.23 2.23 0 0 1 2.27-2.14 2.15 2.15 0 0 1 2 2.22 2.06 2.06 0 0 1 -2.06 2.07zm1-10.56a2.07 2.07 0 0 1 -2.15-2 .49.49 0 0 1 0-.12 2 2 0 0 1 1.79-2.19h.14a2.29 2.29 0 0 1 2.45 2.12v.09a2.08 2.08 0 0 1 -2.09 2.1h-.13z" fill="#004b6a"/></svg>