<svg xmlns="http://www.w3.org/2000/svg" viewBox="0 0 215.09 215.09"><defs><style>.cls-1,.cls-2{fill:#ff97c3;}.cls-2,.cls-3,.cls-4,.cls-5{stroke:#fff;stroke-linecap:round;stroke-linejoin:round;stroke-width:2px;}.cls-3{fill:#dce8f2;}.cls-4{fill:#d96c9f;}.cls-5{fill:#a9a7d9;}</style></defs><g id="Layer_2" data-name="Layer 2"><g id="Layer_5" data-name="Layer 5"><circle class="cls-1" cx="107.54" cy="107.54" r="107.54"/><path class="cls-2" d="M155,101a32.85,32.85,0,0,1-2.94,5,27.12,27.12,0,0,0-2.73-2.84l-14.06-12.7L113.57,72.05h0L108,77.32l-10.51,10L77.65,106.05,73.49,110,57.86,97.1l.55-.53L77.65,78.35,97.48,59.57l10.51-10,5.57-5.27h0l21.72,18.39,14.06,12.7a25.69,25.69,0,0,1,5.08,6.2c.13.23.27.47.39.71C157.15,86.74,158.75,93.06,155,101Z"/><polygon class="cls-3" points="113.53 143.03 113.53 170.73 101.08 160.45 79.48 142.63 57.86 124.8 58.41 124.27 73.49 109.99 79.48 114.94 101.08 132.75 113.53 143.03"/><path class="cls-4" d="M152.08,106a48.82,48.82,0,0,1-3.92,4.8l-1.38,1.29-33.25,31-12.45-10.28-21.6-17.81-6-5,4.16-3.94L97.48,87.27l10.51-10,5.57-5.27h0l21.72,18.39,14.06,12.7A27.12,27.12,0,0,1,152.08,106Z"/><path class="cls-3" d="M155,128.7a39.25,39.25,0,0,1-6.86,9.78l-1.38,1.29-33.25,31V143l33.25-31,1.38-1.29a48.82,48.82,0,0,0,3.92-4.8,23,23,0,0,1,2.35,3.36c.13.23.27.47.39.71C157.15,114.44,158.75,120.76,155,128.7Z"/><polygon class="cls-5" points="73.49 109.99 58.41 124.27 57.86 124.8 57.86 97.1 73.49 109.99"/></g></g></svg>