<?xml version="1.0" encoding="UTF-8"?>
<svg enable-background="new 0 0 500 500" version="1.1" viewBox="0 0 500 500" xml:space="preserve" xmlns="http://www.w3.org/2000/svg">
<path d="m430.9 0c-10.2 0-18.4 8.2-18.4 18.4v436.1c0 10.2 8.2 18.4 18.4 18.4s18.4-8.2 18.4-18.4v-436.1c0-10.2-8.2-18.4-18.4-18.4z" fill="#4CDBC4"/>
<path d="M412.5,18.4c0-4.5,1.7-8.6,4.4-11.8L163,126.6v219.8l253.9,119.9c-2.7-3.2-4.4-7.3-4.4-11.8V18.4z" fill="#F2F2F2"/>
<path d="m449.3 154v165.2c34.2-11.9 58.7-44.4 58.7-82.6s-24.5-70.7-58.7-82.6z" fill="#CDD6E0"/>
<path d="M21.2,126.6C9.5,126.6,0,136,0,147.7v177.5c0,11.7,9.5,21.2,21.2,21.2H163V126.6H21.2z" fill="#4CDBC4"/>
<path d="m151.5 450.9-1.1-8.2-2.7-19.5-2.8-19.8-2.7-19.5-2.8-19.8-2.5-17.7h-101.3l16.5 118.4c3.4 24.8 24.6 43.2 49.7 43.2 26.5 0 47.6-20.3 49.9-45.5 0.2-1.5 0.2-3 0.2-4.6 0.1-2.3-0.1-4.7-0.4-7z" fill="#40596B"/>
<g fill="#334A5E">
	<path d="m142.1 383.9h-43.7c-5.5 0-9.9-4.5-9.9-9.9 0-5.5 4.5-9.9 9.9-9.9h40.9l2.8 19.8z"/>
	<path d="m147.6 423.2h-34.9c-5.5 0-9.9-4.4-9.9-9.9s4.4-9.9 9.9-9.9h32.2l2.7 19.8z"/>
	<path d="m152 457.9c0 1.5-0.1 3.1-0.2 4.6h-24.8c-5.5 0-9.9-4.4-9.9-9.9s4.5-9.9 9.9-9.9h23.3l1.1 8.2c0.4 2.3 0.6 4.7 0.6 7z"/>
</g>
</svg>
