<svg width="160" height="181" viewBox="0 0 160 181" fill="none" xmlns="http://www.w3.org/2000/svg">
<path d="M73.1 1.79321L6.68001 40.1432C4.64984 41.3142 2.9637 42.9989 1.7911 45.0282C0.618501 47.0574 0.00077184 49.3596 1.25895e-05 51.7032V128.403C-0.00321046 130.753 0.612471 133.062 1.78512 135.099C2.95776 137.135 4.64601 138.827 6.68001 140.003L73.1 178.313C75.1285 179.488 77.431 180.106 79.775 180.106C82.119 180.106 84.4216 179.488 86.45 178.313L152.87 140.003C154.902 138.831 156.589 137.145 157.761 135.114C158.934 133.083 159.551 130.779 159.55 128.433V51.7032C159.551 49.3592 158.934 47.0562 157.762 45.0266C156.589 42.997 154.902 41.3126 152.87 40.1432L86.45 1.79321C84.4216 0.618563 82.119 0 79.775 0C77.431 0 75.1285 0.618563 73.1 1.79321V1.79321Z" fill="#00FFB0"/>
<path d="M83.2094 53.0033C81.6374 52.1651 79.8012 51.9702 78.0883 52.46C76.3753 52.9497 74.9196 54.0857 74.0284 55.6283C73.1371 57.1709 72.8799 58.9994 73.311 60.728C73.7422 62.4566 74.828 63.9501 76.3394 64.8933L130.539 96.1833C131.583 96.7847 132.766 97.1011 133.971 97.1009C135.175 97.1007 136.358 96.7838 137.401 96.1821C138.445 95.5805 139.312 94.7151 139.915 93.6727C140.518 92.6304 140.837 91.4477 140.839 90.2433V58.5733C140.84 57.3691 140.524 56.1859 139.921 55.1431C139.319 54.1002 138.453 53.2346 137.409 52.6333L83.2094 21.3433C82.1653 20.7394 80.9805 20.4214 79.7744 20.4214C78.5682 20.4214 77.3834 20.7394 76.3394 21.3433L22.1394 52.6333C21.0972 53.2369 20.2319 54.1039 19.6304 55.1473C19.0289 56.1907 18.7123 57.374 18.7123 58.5783C18.7123 59.7827 19.0289 60.9659 19.6304 62.0094C20.2319 63.0528 21.0972 63.9198 22.1394 64.5233C22.1394 64.5233 98.7994 109.113 114.939 118.523C118.029 120.313 118.139 122.793 114.939 124.653L83.1494 143.003C82.1451 143.672 80.9657 144.028 79.7594 144.028C78.5531 144.028 77.3737 143.672 76.3694 143.003L42.3694 123.353L34.8194 118.993C33.2294 118.088 32.0644 116.587 31.5805 114.823C31.0967 113.058 31.3337 111.173 32.2394 109.583C33.1451 107.993 34.6453 106.828 36.41 106.344C38.1748 105.861 40.0594 106.098 41.6494 107.003L62.9994 119.343V119.443L76.2994 127.133C77.8774 128.044 79.7527 128.291 81.5128 127.82C83.2728 127.348 84.7734 126.196 85.6844 124.618C86.5954 123.04 86.8422 121.165 86.3706 119.405C85.8989 117.645 84.7474 116.144 83.1694 115.233L28.9994 83.9433C27.9514 83.3394 26.7626 83.0229 25.5531 83.0257C24.3436 83.0286 23.1563 83.3507 22.1112 83.9595C21.0661 84.5683 20.2002 85.4422 19.6012 86.4929C19.0021 87.5436 18.691 88.7339 18.6994 89.9433V121.583C18.6995 122.787 19.0166 123.97 19.6187 125.013C20.2208 126.055 21.0867 126.921 22.1294 127.523L76.3294 158.823C77.3751 159.422 78.5592 159.738 79.7644 159.738C80.9695 159.738 82.1537 159.422 83.1994 158.823L137.399 127.523C138.443 126.923 139.31 126.057 139.913 125.014C140.515 123.971 140.831 122.788 140.829 121.583C140.864 120.365 140.562 119.16 139.957 118.102C139.352 117.044 138.467 116.172 137.399 115.583C135.099 114.243 60.7394 70.9933 44.5994 61.6433C41.5094 59.8533 41.3994 57.3633 44.5994 55.5033L76.3994 37.1633C77.4027 36.4926 78.5825 36.1346 79.7894 36.1346C80.9963 36.1346 82.176 36.4926 83.1794 37.1633L113.399 54.6233L124.859 61.2333C126.44 62.143 127.595 63.6434 128.069 65.4044C128.544 67.1653 128.299 69.0427 127.389 70.6233C126.48 72.204 124.979 73.3586 123.218 73.8331C121.457 74.3075 119.58 74.063 117.999 73.1533L96.6094 60.8133V60.7133L83.2094 53.0033Z" fill="#003340"/>
</svg>
