<?xml version="1.0" encoding="UTF-8"?>
<svg width="627px" height="627px" viewBox="0 0 627 627" version="1.1" xmlns="http://www.w3.org/2000/svg" xmlns:xlink="http://www.w3.org/1999/xlink">
    <title>Fill 1</title>
    <defs>
        <radialGradient cx="92.0754525%" cy="5.42036187%" fx="92.0754525%" fy="5.42036187%" r="131.996958%" id="radialGradient-1">
            <stop stop-color="#15D9E1" offset="0%"></stop>
            <stop stop-color="#0D58EF" offset="63%"></stop>
            <stop stop-color="#100E75" offset="100%"></stop>
        </radialGradient>
    </defs>
    <g id="XY-Logo" stroke="none" stroke-width="1" fill="none" fill-rule="evenodd">
        <path d="M313.477,9.09494702e-13 C486.606,9.09494702e-13 626.954,140.348 626.954,313.477 L626.954,313.477 L626.912003,318.660899 C624.143762,489.397945 484.87471,626.954 313.477,626.954 L313.477,626.954 L311.391678,626.947205 C242.629006,626.498953 179.13199,603.8966 127.651,565.94 L127.651,565.94 L539.383,159.631 L413.374,159.631 L317.426,252.356 L274.964,210.125 L106.634,210.125 L232.414,336.216 L63.75,502.957 L62.5550295,501.374143 C23.2822755,449.011524 9.09494702e-13,383.96698 9.09494702e-13,313.477 L9.09494702e-13,313.477 L0.04199713,308.293072 C2.8102579,137.555075 142.08028,9.09494702e-13 313.477,9.09494702e-13 Z M404.914,338.658 L320.175,420.885 L362.258,462.7 L530.787,462.731 L404.914,338.658 Z" id="Fill-1" fill="url(#radialGradient-1)" fill-rule="nonzero"></path>
    </g>
</svg>