<?xml version="1.0" standalone="no"?>
<!DOCTYPE svg PUBLIC "-//W3C//DTD SVG 20010904//EN"
 "http://www.w3.org/TR/2001/REC-SVG-20010904/DTD/svg10.dtd">
<svg version="1.0" xmlns="http://www.w3.org/2000/svg"
 width="400.000000pt" height="400.000000pt" viewBox="0 0 400.000000 400.000000"
 preserveAspectRatio="xMidYMid meet">

<g transform="translate(0.000000,400.000000) scale(0.100000,-0.100000)"
fill="#000000" stroke="none">
<path d="M0 2000 l0 -2000 2000 0 2000 0 0 2000 0 2000 -2000 0 -2000 0 0
-2000z m3035 1369 c16 -46 22 -53 69 -74 l51 -23 -27 -11 c-16 -6 -39 -15 -52
-20 -17 -7 -29 -25 -41 -61 -9 -28 -20 -48 -24 -45 -3 4 -13 27 -21 52 -15 42
-21 47 -70 66 -46 17 -51 21 -35 28 11 5 36 15 55 22 29 12 38 23 53 66 10 28
20 51 22 51 2 0 11 -23 20 -51z m-504 -251 c105 -39 149 -70 276 -196 129
-127 226 -260 262 -358 74 -197 43 -522 -73 -769 l-33 -70 127 -130 c204 -210
300 -354 308 -466 6 -74 -14 -110 -75 -140 -43 -21 -61 -24 -163 -23 -136 1
-241 23 -445 92 -131 45 -140 49 -143 75 -2 15 1 27 5 27 5 0 49 -14 99 -31
218 -74 433 -103 525 -71 128 45 124 169 -11 351 -71 96 -250 280 -256 265
-15 -36 -173 -266 -217 -317 -74 -85 -226 -218 -338 -293 l-96 -65 -163 115
c-90 64 -166 116 -169 116 -21 -2 -126 -68 -128 -80 -1 -8 -13 -80 -27 -158
-15 -79 -24 -148 -20 -153 3 -5 -30 -9 -78 -9 -149 0 -288 51 -473 174 -156
105 -301 229 -352 304 -69 101 -88 179 -88 357 1 124 5 165 24 234 102 381
382 748 769 1010 139 94 350 186 507 222 141 32 339 26 446 -13z m1101 -283
c42 -17 79 -33 83 -36 3 -4 -31 -19 -76 -35 l-82 -30 -31 -87 c-17 -48 -33
-87 -36 -87 -3 0 -19 39 -35 87 l-31 87 -87 31 c-48 16 -87 32 -87 35 0 3 39
19 87 35 l88 30 25 70 c15 39 30 79 34 90 6 16 15 1 40 -70 l31 -90 77 -30z"/>
<path d="M2071 2925 c-250 -55 -481 -193 -711 -424 -463 -467 -547 -1031 -174
-1170 284 -107 765 105 1095 483 95 108 195 254 183 265 -14 13 -193 144 -247
180 -27 18 -51 30 -54 27 -6 -5 39 -225 57 -278 8 -26 5 -31 -50 -73 -32 -25
-63 -45 -69 -45 -5 0 -63 27 -128 60 -148 75 -476 230 -480 226 -7 -7 69 -476
76 -476 4 0 64 45 136 100 71 55 132 100 137 100 4 0 41 -21 83 -46 l75 -45
-28 -23 c-37 -31 -332 -250 -358 -266 -19 -12 -29 -8 -98 34 -42 27 -76 51
-76 54 0 3 -32 156 -70 341 -39 185 -72 345 -75 356 -3 15 13 33 65 73 38 28
74 52 81 52 6 0 105 -49 219 -110 114 -60 209 -110 212 -110 6 0 -55 307 -62
313 -3 2 -25 18 -49 36 -24 17 -41 31 -36 31 4 0 1 7 -6 16 -11 13 -3 12 30
-5 23 -12 45 -20 47 -18 3 2 -1 28 -7 56 -6 29 -9 54 -7 55 1 1 31 24 65 49
34 26 67 47 75 47 7 0 43 -20 79 -44 l65 -44 17 -79 c10 -43 27 -120 38 -171
l22 -92 116 -82 c64 -45 142 -101 173 -125 l57 -44 15 23 c8 13 28 57 45 99
106 266 91 483 -42 606 -53 49 -94 71 -162 89 -63 17 -191 16 -274 -1z"/>
</g>
</svg>
