<?xml version="1.0" encoding="UTF-8"?>
<!DOCTYPE svg  PUBLIC '-//W3C//DTD SVG 20010904//EN'  'http://www.w3.org/TR/2001/REC-SVG-20010904/DTD/svg10.dtd'>
<svg width="3873pt" height="3873pt" version="1.0" viewBox="0 0 3873 3873" xmlns="http://www.w3.org/2000/svg">
<g transform="translate(0 3873) scale(.1 -.1)">
<path d="m19035 29354c-442-22-661-40-965-80-1661-215-3215-834-4580-1824-430-313-812-640-1200-1029-1560-1563-2552-3579-2834-5761-60-461-80-787-80-1295 0-550 26-934 100-1445 339-2362 1541-4552 3354-6115 1589-1369 3533-2200 5595-2389 603-56 1271-56 1875 0 2563 236 4936 1460 6629 3419 690 798 1253 1707 1658 2675 389 931 632 1905 727 2915 56 591 56 1277 0 1880-162 1760-804 3470-1842 4905-1121 1549-2640 2734-4407 3440-989 394-1985 617-3085 690-159 11-819 20-945 14zm2528-2791c-18-2-48-2-65 0-18 2-4 4 32 4s50-2 33-4zm124-19c-3-3-12-4-19-1-8 3-5 6 6 6 11 1 17-2 13-5zm-460-336c-2-13-4-3-4 22s2 35 4 23c2-13 2-33 0-45zm2063-394c0-2-9 0-20 6s-20 13-20 16c0 2 9 0 20-6s20-13 20-16zm-2063-176c-2-18-4-6-4 27s2 48 4 33 2-42 0-60zm53-213c0-5-5-3-10 5s-10 20-10 25c0 6 5 3 10-5s10-19 10-25zm41-62c13-16 12-17-3-4-10 7-18 15-18 17 0 8 8 3 21-13zm54-53c10-11 16-20 13-20s-13 9-23 20-16 20-13 20 13-9 23-20zm2666-17c13-16 12-17-3-4-17 13-22 21-14 21 2 0 10-8 17-17zm50-40c13-16 12-17-3-4-17 13-22 21-14 21 2 0 10-8 17-17zm54-43c10-11 16-20 13-20s-13 9-23 20-16 20-13 20 13-9 23-20zm-3955-7c0-10-7-72-15-138-28-224-16-613 30-915 89-600 309-1255 622-1860 217-419 230-446 252-538 23-98 29-272 12-357-52-268-246-527-543-724-95-63-279-162-348-186-37-13-40-13-40 4 0 9 30 42 66 72 142 116 276 328 310 489 23 110 15 264-19 352-43 111-91 174-291 378-204 208-291 313-419 505-286 431-410 934-332 1342 8 42 13 78 11 80-14 14-354-286-525-462-741-764-1007-1515-771-2180 18-49 45-115 60-146 84-166 241-350 380-445 77-52 92-80 38-71-58 11-290 135-383 204-260 195-448 459-555 779-372 1116 292 2335 1893 3483 132 94 302 207 482 319 57 35 85 40 85 15zm4005-33c10-11 16-20 13-20s-13 9-23 20-16 20-13 20 13-9 23-20zm60-50c10-11 16-20 13-20s-13 9-23 20-16 20-13 20 13-9 23-20zm70-60c10-11 16-20 13-20s-13 9-23 20-16 20-13 20 13-9 23-20zm-2358-16c-3-3-12-4-19-1-8 3-5 6 6 6 11 1 17-2 13-5zm70-20c-3-3-12-4-19-1-8 3-5 6 6 6 11 1 17-2 13-5zm40-10c-3-3-12-4-19-1-8 3-5 6 6 6 11 1 17-2 13-5zm2323-19c13-14 21-25 18-25-2 0-15 11-28 25s-21 25-18 25c2 0 15-11 28-25zm-2283 9c-3-3-12-4-19-1-8 3-5 6 6 6 11 1 17-2 13-5zm40-10c-3-3-12-4-19-1-8 3-5 6 6 6 11 1 17-2 13-5zm40-10c-3-3-12-4-19-1-8 3-5 6 6 6 11 1 17-2 13-5zm50-10c-3-3-12-4-19-1-8 3-5 6 6 6 11 1 17-2 13-5zm251-1c-26-2-71-2-100 0s-8 3 47 3 79-1 53-3zm129-9c-3-3-12-4-19-1-8 3-5 6 6 6 11 1 17-2 13-5zm60-10c-3-3-12-4-19-1-8 3-5 6 6 6 11 1 17-2 13-5zm50-10c-3-3-12-4-19-1-8 3-5 6 6 6 11 1 17-2 13-5zm1773-49c19-19 32-35 29-35s-20 16-39 35-32 35-29 35 20-16 39-35zm-1560-25c8-5 11-10 5-10-5 0-17 5-25 10s-10 10-5 10c6 0 17-5 25-10zm150-87c8-8-13 2-47 22-35 21-63 39-63 42 0 7 92-47 110-64zm1635-103c71-71 127-130 125-130-3 0-64 59-135 130-71 72-127 130-125 130 3 0 64-58 135-130zm-1518 17c66-55 145-143 202-224 41-59 15-34-37 35-48 64-159 177-232 236-19 15-28 25-20 20 8-4 47-34 87-67zm1743-252c19-19 32-35 29-35s-20 16-39 35-32 35-29 35 20-16 39-35zm-1495-45c9-16 13-30 11-30-3 0-12 14-21 30-9 17-13 30-11 30 3 0 12-13 21-30zm1581-52 29-33-32 29c-18 17-33 31-33 33 0 8 8 1 36-29zm69-78c10-11 16-20 13-20s-13 9-23 20-16 20-13 20 13-9 23-20zm-1575-25c0-5-5-3-10 5s-10 20-10 25c0 6 5 3 10-5s10-19 10-25zm20-50c0-5-5-3-10 5s-10 20-10 25c0 6 5 3 10-5s10-19 10-25zm1615 5c10-11 16-20 13-20s-13 9-23 20-16 20-13 20 13-9 23-20zm-11615-32c0-18-2-20-9-8-6 8-7 18-5 22 9 14 14 9 14-14zm-20-11c0-2-10-12-22-23l-23-19 19 23c18 21 26 27 26 19zm11681-14c13-16 12-17-3-4-17 13-22 21-14 21 2 0 10-8 17-17zm-11674-45c-3-7-5-2-5 12s2 19 5 13c2-7 2-19 0-25zm10040-10c-3-8-6-5-6 6-1 11 2 17 5 13 3-3 4-12 1-19zm-10097 8c0-2-8-10-17-17-16-13-17-12-4 4s21 21 21 13zm11781-13c13-16 12-17-3-4-17 13-22 21-14 21 2 0 10-8 17-17zm-11734-55c-3-7-5-2-5 12s2 19 5 13c2-7 2-19 0-25zm10070-40c-3-7-5-2-5 12s2 19 5 13c2-7 2-19 0-25zm1734 5c13-16 12-17-3-4-17 13-22 21-14 21 2 0 10-8 17-17zm-11931 3c0-2-8-10-17-17-16-13-17-12-4 4s21 21 21 13zm117-38c-3-7-5-2-5 12s2 19 5 13c2-7 2-19 0-25zm10197-138 101-105-107 105c-60 57-108 111-107 120 0 13 1 13 6 0 3-8 51-62 107-120zm-10207 58c-3-7-5-2-5 12s2 19 5 13c2-7 2-19 0-25zm-10-90c-3-7-5-2-5 12s2 19 5 13c2-7 2-19 0-25zm-10-115c-3-10-5-2-5 17s2 27 5 18c2-10 2-26 0-35zm10428-63c21-22 37-40 34-40s-23 18-44 40-37 40-34 40 23-18 44-40zm-10438-97c-2-16-4-5-4 22 0 28 2 40 4 28 2-13 2-35 0-50zm10533-8c13-14 21-25 18-25-2 0-15 11-28 25s-21 25-18 25c2 0 15-11 28-25zm75-85c10-11 16-20 13-20s-13 9-23 20-16 20-13 20 13-9 23-20zm-10618-317c-1-54-3-12-3 92 0 105 2 149 3 98 2-51 2-136 0-190zm10674 250c13-16 12-17-3-4-17 13-22 21-14 21 2 0 10-8 17-17zm50-60c13-16 12-17-3-4-17 13-22 21-14 21 2 0 10-8 17-17zm44-53c10-11 16-20 13-20s-13 9-23 20-16 20-13 20 13-9 23-20zm36-47c13-16 12-17-3-4-17 13-22 21-14 21 2 0 10-8 17-17zm70-90c13-16 12-17-3-4-17 13-22 21-14 21 2 0 10-8 17-17zm-10864-240c-3-10-5-2-5 17s2 27 5 18c2-10 2-26 0-35zm10-145c-2-13-4-3-4 22s2 35 4 23c2-13 2-33 0-45zm-10-70c-3-7-5-2-5 12s2 19 5 13c2-7 2-19 0-25zm7567-19c-25-9-34-2-34 22 0 19 1 19 26 2 24-15 25-17 8-24zm-7577-41c-3-7-5-2-5 12s2 19 5 13c2-7 2-19 0-25zm-10-60c-3-7-5-2-5 12s2 19 5 13c2-7 2-19 0-25zm-10-70c-3-7-5-2-5 12s2 19 5 13c2-7 2-19 0-25zm-10-80c-3-7-5-2-5 12s2 19 5 13c2-7 2-19 0-25zm-10-105c-3-10-5-4-5 12 0 17 2 24 5 18 2-7 2-21 0-30zm-10-180c-2-16-4-3-4 27s2 43 4 28c2-16 2-40 0-55zm11613-108c0-5-5-3-10 5s-10 20-10 25c0 6 5 3 10-5s10-19 10-25zm-11613-262c-2-16-4-3-4 27s2 43 4 28c2-16 2-40 0-55zm10-150c-3-10-5-4-5 12 0 17 2 24 5 18 2-7 2-21 0-30zm10-95c-3-7-5-2-5 12s2 19 5 13c2-7 2-19 0-25zm10-85c-3-10-5-4-5 12 0 17 2 24 5 18 2-7 2-21 0-30zm13290-405c-3-8-6-5-6 6-1 11 2 17 5 13 3-3 4-12 1-19zm-7332-32c76-58 75-50 75-604v-492l58 5c235 24 523 70 627 100 76 23 517 130 635 155 232 49 396 36 458-34 61-70 57 160 57-3131 0-2903-1-3022-18-3080-41-131-110-221-213-277-75-41-208-75-356-92-193-23-2548-24-2738-1-294 35-447 111-528 264-64 118-62 79-62 1261 0 847-3 1079-12 1089-10 11-10 13 0 7 9-6 12 185 12 938v946l-277 2-278 3 278 2 277 3v978c0 1071-1 1048 58 1105 35 34 79 47 159 47 87 0 182-20 476-101 419-115 697-171 924-185l103-7v494c0 458 2 497 19 534 33 73 91 107 173 102 43-2 65-10 93-31zm6022-88c-3-8-6-5-6 6-1 11 2 17 5 13 3-3 4-12 1-19zm10-40c-3-8-6-5-6 6-1 11 2 17 5 13 3-3 4-12 1-19zm-13490-10c-3-8-6-5-6 6-1 11 2 17 5 13 3-3 4-12 1-19zm14830-20c-3-8-6-5-6 6-1 11 2 17 5 13 3-3 4-12 1-19zm-1320-60c-3-8-6-5-6 6-1 11 2 17 5 13 3-3 4-12 1-19zm-13530-30c-3-8-6-5-6 6-1 11 2 17 5 13 3-3 4-12 1-19zm14870-10c-3-8-6-5-6 6-1 11 2 17 5 13 3-3 4-12 1-19zm-14880-40c-3-8-6-5-6 6-1 11 2 17 5 13 3-3 4-12 1-19zm14900-70c-3-8-6-5-6 6-1 11 2 17 5 13 3-3 4-12 1-19zm-1320-50c-3-8-6-5-6 6-1 11 2 17 5 13 3-3 4-12 1-19zm-13600-10c-3-8-6-5-6 6-1 11 2 17 5 13 3-3 4-12 1-19zm14930 0c-3-8-6-5-6 6-1 11 2 17 5 13 3-3 4-12 1-19zm-1320-40c-3-8-6-5-6 6-1 11 2 17 5 13 3-3 4-12 1-19zm-13620-30c-3-7-5-2-5 12s2 19 5 13c2-7 2-19 0-25zm1340 10c-3-8-6-5-6 6-1 11 2 17 5 13 3-3 4-12 1-19zm13610-10c-3-8-6-5-6 6-1 11 2 17 5 13 3-3 4-12 1-19zm-1320-30c-3-8-6-5-6 6-1 11 2 17 5 13 3-3 4-12 1-19zm-12300-20c-3-8-6-5-6 6-1 11 2 17 5 13 3-3 4-12 1-19zm-1340-10c-3-8-6-5-6 6-1 11 2 17 5 13 3-3 4-12 1-19zm14970-10c-3-7-5-2-5 12s2 19 5 13c2-7 2-19 0-25zm-1320-30c-3-8-6-5-6 6-1 11 2 17 5 13 3-3 4-12 1-19zm-12320-20c-3-7-5-2-5 12s2 19 5 13c2-7 2-19 0-25zm-1340-20c-3-7-5-2-5 12s2 19 5 13c2-7 2-19 0-25zm14990-10c-3-7-5-2-5 12s2 19 5 13c2-7 2-19 0-25zm-1320-20c-3-7-5-2-5 12s2 19 5 13c2-7 2-19 0-25zm-12340-30c-3-7-5-2-5 12s2 19 5 13c2-7 2-19 0-25zm-1340-20c-3-7-5-2-5 12s2 19 5 13c2-7 2-19 0-25zm15010-5c-3-10-5-4-5 12 0 17 2 24 5 18 2-7 2-21 0-30zm-1320-25c-3-7-5-2-5 12s2 19 5 13c2-7 2-19 0-25zm-12360-20c-3-8-6-5-6 6-1 11 2 17 5 13 3-3 4-12 1-19zm-1340-35c-3-10-5-4-5 12 0 17 2 24 5 18 2-7 2-21 0-30zm15030-10c-3-10-5-4-5 12 0 17 2 24 5 18 2-7 2-21 0-30zm-1320-20c-3-10-5-4-5 12 0 17 2 24 5 18 2-7 2-21 0-30zm-12380-20c-3-10-5-4-5 12 0 17 2 24 5 18 2-7 2-21 0-30zm-1340-50c-3-10-5-4-5 12 0 17 2 24 5 18 2-7 2-21 0-30zm15050-10c-3-10-5-4-5 12 0 17 2 24 5 18 2-7 2-21 0-30zm-1320-20c-3-10-5-2-5 17s2 27 5 18c2-10 2-26 0-35zm-12400-25c-3-7-5-2-5 12s2 19 5 13c2-7 2-19 0-25zm-1340-55c-3-10-5-2-5 17s2 27 5 18c2-10 2-26 0-35zm15070-25c-2-13-4-5-4 17-1 22 1 32 4 23 2-10 2-28 0-40zm-1320-20c-2-13-4-5-4 17-1 22 1 32 4 23 2-10 2-28 0-40zm-12420-15c-3-10-5-2-5 17s2 27 5 18c2-10 2-26 0-35zm-1340-65c-2-13-4-5-4 17-1 22 1 32 4 23 2-10 2-28 0-40zm15090-65c-2-16-4-5-4 22 0 28 2 40 4 28 2-13 2-35 0-50zm-13760-5c-2-13-4-3-4 22s2 35 4 23c2-13 2-33 0-45zm12440-35c-2-21-4-6-4 32 0 39 2 55 4 38 2-18 2-50 0-70zm-13780-70c-2-16-4-3-4 27s2 43 4 28c2-16 2-40 0-55zm1330-90c-2-16-4-5-4 22 0 28 2 40 4 28 2-13 2-35 0-50zm13780-250c-1-54-3-10-3 97s2 151 3 98c2-54 2-142 0-195zm-15120-75c-1-51-3-12-3 87s2 141 3 93c2-48 2-129 0-180zm13790-50c-2-18-4-4-4 32s2 50 4 33c2-18 2-48 0-65zm-12450-185c-2-16-4-3-4 27s2 43 4 28c2-16 2-40 0-55zm13770 0c-2-16-4-3-4 27s2 43 4 28c2-16 2-40 0-55zm-1330 15c-2-13-4-5-4 17-1 22 1 32 4 23 2-10 2-28 0-40zm-13770-70c-2-13-4-5-4 17-1 22 1 32 4 23 2-10 2-28 0-40zm13760-55c-3-10-5-2-5 17s2 27 5 18c2-10 2-26 0-35zm1330-45c-2-13-4-5-4 17-1 22 1 32 4 23 2-10 2-28 0-40zm-13750-20c-2-13-4-5-4 17-1 22 1 32 4 23 2-10 2-28 0-40zm-1330-30c-2-13-4-5-4 17-1 22 1 32 4 23 2-10 2-28 0-40zm13740-5c-3-10-5-4-5 12 0 17 2 24 5 18 2-7 2-21 0-30zm1330-70c-3-10-5-2-5 17s2 27 5 18c2-10 2-26 0-35zm-13730-20c-3-10-5-4-5 12 0 17 2 24 5 18 2-7 2-21 0-30zm12390 5c-3-7-5-2-5 12s2 19 5 13c2-7 2-19 0-25zm-13720-25c-3-10-5-4-5 12 0 17 2 24 5 18 2-7 2-21 0-30zm13710-60c-3-10-5-4-5 12 0 17 2 24 5 18 2-7 2-21 0-30zm1340 0c-3-10-5-4-5 12 0 17 2 24 5 18 2-7 2-21 0-30zm-13710-15c-3-7-5-2-5 12s2 19 5 13c2-7 2-19 0-25zm-1330-20c-3-7-5-2-5 12s2 19 5 13c2-7 2-19 0-25zm13690-30c-3-8-6-5-6 6-1 11 2 17 5 13 3-3 4-12 1-19zm1340-25c-3-10-5-4-5 12 0 17 2 24 5 18 2-7 2-21 0-30zm-13690-20c-3-10-5-4-5 12 0 17 2 24 5 18 2-7 2-21 0-30zm-1330-15c-3-7-5-2-5 12s2 19 5 13c2-7 2-19 0-25zm13670-20c-3-7-5-2-5 12s2 19 5 13c2-7 2-19 0-25zm1340-30c-3-7-5-2-5 12s2 19 5 13c2-7 2-19 0-25zm-13670-10c-3-8-6-5-6 6-1 11 2 17 5 13 3-3 4-12 1-19zm-1330-10c-3-8-6-5-6 6-1 11 2 17 5 13 3-3 4-12 1-19zm10220 0c-3-8-6-5-6 6-1 11 2 17 5 13 3-3 4-12 1-19zm3430-10c-3-7-5-2-5 12s2 19 5 13c2-7 2-19 0-25zm1340-40c-3-7-5-2-5 12s2 19 5 13c2-7 2-19 0-25zm-14980-25c-3-10-5-4-5 12 0 17 2 24 5 18 2-7 2-21 0-30zm1330 15c-3-8-6-5-6 6-1 11 2 17 5 13 3-3 4-12 1-19zm8890 0c-3-8-6-5-6 6-1 11 2 17 5 13 3-3 4-12 1-19zm3410-10c-3-8-6-5-6 6-1 11 2 17 5 13 3-3 4-12 1-19zm-3400-50c-3-8-6-5-6 6-1 11 2 17 5 13 3-3 4-12 1-19zm4740 0c-3-8-6-5-6 6-1 11 2 17 5 13 3-3 4-12 1-19zm-13630-10c-3-8-6-5-6 6-1 11 2 17 5 13 3-3 4-12 1-19zm12280 0c-3-8-6-5-6 6-1 11 2 17 5 13 3-3 4-12 1-19zm-13610-10c-3-8-6-5-6 6-1 11 2 17 5 13 3-3 4-12 1-19zm13600-40c-3-8-6-5-6 6-1 11 2 17 5 13 3-3 4-12 1-19zm-12260-10c-3-8-6-5-6 6-1 11 2 17 5 13 3-3 4-12 1-19zm8890-15c-3-10-5-4-5 12 0 17 2 24 5 18 2-7 2-21 0-30zm4720 15c-3-8-6-5-6 6-1 11 2 17 5 13 3-3 4-12 1-19zm-14940-20c-3-8-6-5-6 6-1 11 2 17 5 13 3-3 4-12 1-19zm14930-40c-3-8-6-5-6 6-1 11 2 17 5 13 3-3 4-12 1-19zm-4700-70c-2-13-4-3-4 22s2 35 4 23c2-13 2-33 0-45zm3340 30c-3-8-6-5-6 6-1 11 2 17 5 13 3-3 4-12 1-19zm-13550-30c-3-8-6-5-6 6-1 11 2 17 5 13 3-3 4-12 1-19zm14890-50c-3-8-6-5-6 6-1 11 2 17 5 13 3-3 4-12 1-19zm-14880-10c-3-8-6-5-6 6-1 11 2 17 5 13 3-3 4-12 1-19zm1340-20c-3-8-6-5-6 6-1 11 2 17 5 13 3-3 4-12 1-19zm-1330-30c-3-8-6-5-6 6-1 11 2 17 5 13 3-3 4-12 1-19zm4826 15c-7-2-19-2-25 0-7 3-2 5 12 5s19-2 13-5zm8674-15c-3-8-6-5-6 6-1 11 2 17 5 13 3-3 4-12 1-19zm-3300-140c-2-29-3-6-3 52s1 81 3 53c2-29 2-77 0-105zm-8860 120c-3-8-6-5-6 6-1 11 2 17 5 13 3-3 4-12 1-19zm13510-30c-3-8-6-5-6 6-1 11 2 17 5 13 3-3 4-12 1-19zm-10177 9c0-2-15-16-32-33l-33-29 29 33c28 30 36 37 36 29zm8807-49c-3-8-6-5-6 6-1 11 2 17 5 13 3-3 4-12 1-19zm1360-10c-3-8-6-5-6 6-1 11 2 17 5 13 3-3 4-12 1-19zm-14790-140c-3-8-6-5-6 6-1 11 2 17 5 13 3-3 4-12 1-19zm4510-15c-3-10-5-4-5 12 0 17 2 24 5 18 2-7 2-21 0-30zm10250 15c-3-8-6-5-6 6-1 11 2 17 5 13 3-3 4-12 1-19zm-4620-80c-2-13-4-5-4 17-1 22 1 32 4 23 2-10 2-28 0-40zm-5630 5c-3-10-5-4-5 12 0 17 2 24 5 18 2-7 2-21 0-30zm10230-15c-3-8-6-5-6 6-1 11 2 17 5 13 3-3 4-12 1-19zm-10220-50c-3-8-6-5-6 6-1 11 2 17 5 13 3-3 4-12 1-19zm5610-30c-3-7-5-2-5 12s2 19 5 13c2-7 2-19 0-25zm-5600-30c-3-8-6-5-6 6-1 11 2 17 5 13 3-3 4-12 1-19zm10-40c-3-8-6-5-6 6-1 11 2 17 5 13 3-3 4-12 1-19zm5580 0c-3-8-6-5-6 6-1 11 2 17 5 13 3-3 4-12 1-19zm-5570-50c-3-8-6-5-6 6-1 11 2 17 5 13 3-3 4-12 1-19zm5560-10c-3-7-5-2-5 12s2 19 5 13c2-7 2-19 0-25zm-5530-110c-3-8-6-5-6 6-1 11 2 17 5 13 3-3 4-12 1-19zm5500-20c-3-8-6-5-6 6-1 11 2 17 5 13 3-3 4-12 1-19zm-5328-418c11-24 11-24-3-6-9 11-16 24-16 30 0 12 5 7 19-24zm61-110c6-11 8-20 6-20-3 0-10 9-16 20s-8 20-6 20c3 0 10-9 16-20zm30-50c6-11 8-20 6-20-3 0-10 9-16 20s-8 20-6 20c3 0 10-9 16-20zm-3110-55c0-5-5-3-10 5s-10 20-10 25c0 6 5 3 10-5s10-19 10-25zm8070 11c0-2-8-10-17-17-16-13-17-12-4 4s21 21 21 13zm-8005-136c9-16 13-30 11-30-3 0-12 14-21 30-9 17-13 30-11 30 3 0 12-13 21-30zm3166 3c13-16 12-17-3-4-17 13-22 21-14 21 2 0 10-8 17-17zm7990-16c-10-9-11-8-5 6 3 10 9 15 12 12s0-11-7-18zm-3261 0c0-2-10-12-22-23l-23-19 19 23c18 21 26 27 26 19zm-4699-24c13-16 12-17-3-4-17 13-22 21-14 21 2 0 10-8 17-17zm4659-26c0-2-12-14-27-28l-28-24 24 28c23 25 31 32 31 24zm-4610-32c13-14 21-25 18-25-2 0-15 11-28 25s-21 25-18 25c2 0 15-11 28-25zm7871 2c-10-9-11-8-5 6 3 10 9 15 12 12s0-11-7-18zm-11031-67c6-11 8-20 6-20-3 0-10 9-16 20s-8 20-6 20c3 0 10-9 16-20zm7630-55c-41-41-77-75-79-75-3 0 28 34 69 75s77 75 79 75c3 0-28-34-69-75zm3361 42c-10-9-11-8-5 6 3 10 9 15 12 12s0-11-7-18zm-7716-47c33-33 57-60 54-60-2 0-31 27-64 60s-57 60-54 60c2 0 31-27 64-60zm115-105c13-14 21-25 18-25-2 0-15 11-28 25s-21 25-18 25c2 0 15-11 28-25zm4130 12c0-2-10-12-22-23l-23-19 19 23c18 21 26 27 26 19zm-4069-64c13-16 12-17-3-4-17 13-22 21-14 21 2 0 10-8 17-17zm8860-80c-12-20-14-14-5 12 4 9 9 14 11 11 3-2 0-13-6-23zm-121-243c-6-11-13-20-16-20-2 0 0 9 6 20s13 20 16 20c2 0 0-9-6-20zm-11729-167c13-16 12-17-3-4-10 7-18 15-18 17 0 8 8 3 21-13zm70-90c13-16 12-17-3-4-17 13-22 21-14 21 2 0 10-8 17-17zm9969 3c0-2-8-10-17-17-16-13-17-12-4 4s21 21 21 13zm-9889-103c13-16 12-17-3-4-17 13-22 21-14 21 2 0 10-8 17-17zm9819 13c0-2-8-10-17-17-16-13-17-12-4 4s21 21 21 13zm-40-50c0-2-8-10-17-17-16-13-17-12-4 4s21 21 21 13zm-9729-23c13-16 12-17-3-4-17 13-22 21-14 21 2 0 10-8 17-17zm49-58c13-14 21-25 18-25-2 0-15 11-28 25s-21 25-18 25c2 0 15-11 28-25zm9630 21c0-2-8-10-17-17-16-13-17-12-4 4s21 21 21 13zm-40-49c0-2-12-14-27-28l-28-24 24 28c23 25 31 32 31 24zm-9520-52c13-14 21-25 18-25-2 0-15 11-28 25s-21 25-18 25c2 0 15-11 28-25zm9450-28c0-2-12-14-27-28l-28-24 24 28c23 25 31 32 31 24zm-9360-72c19-19 32-35 29-35s-20 16-39 35-32 35-29 35 20-16 39-35zm9240-60c-24-25-46-45-49-45s15 20 39 45 46 45 49 45-15-20-39-45zm-9040-150c52-52 92-95 90-95-3 0-48 43-100 95s-92 95-90 95c3 0 48-43 100-95zm8770-120c-24-25-46-45-49-45s15 20 39 45 46 45 49 45-15-20-39-45zm-10369-62c13-16 12-17-3-4-17 13-22 21-14 21 2 0 10-8 17-17zm1819-28c19-19 32-35 29-35s-20 16-39 35-32 35-29 35 20-16 39-35zm10240 31c0-2-8-10-17-17-16-13-17-12-4 4s21 21 21 13zm-1790-29c0-2-15-16-32-33l-33-29 29 33c28 30 36 37 36 29zm1760-11c0-2-8-10-17-17-16-13-17-12-4 4s21 21 21 13zm-11959-53c13-16 12-17-3-4-17 13-22 21-14 21 2 0 10-8 17-17zm1855-35 29-33-32 29c-18 17-33 31-33 33 0 8 8 1 36-29zm8254 19c0-2-10-12-22-23l-23-19 19 23c18 21 26 27 26 19zm-10069-34c13-16 12-17-3-4-17 13-22 21-14 21 2 0 10-8 17-17zm11839 3c0-2-8-10-17-17-16-13-17-12-4 4s21 21 21 13zm-1830-19c0-2-10-12-22-23l-23-19 19 23c18 21 26 27 26 19zm-9969-34c13-16 12-17-3-4-17 13-22 21-14 21 2 0 10-8 17-17zm1854-3c10-11 16-20 13-20s-13 9-23 20-16 20-13 20 13-9 23-20zm9915 16c0-2-8-10-17-17-16-13-17-12-4 4s21 21 21 13zm-1860-30c0-2-8-10-17-17-16-13-17-12-4 4s21 21 21 13zm-9869-33c13-16 12-17-3-4-17 13-22 21-14 21 2 0 10-8 17-17zm1884-13c10-11 16-20 13-20s-13 9-23 20-16 20-13 20 13-9 23-20zm9795 16c0-2-8-10-17-17-16-13-17-12-4 4s21 21 21 13zm-11625-66c10-11 16-20 13-20s-13 9-23 20-16 20-13 20 13-9 23-20zm9715 16c0-2-8-10-17-17-16-13-17-12-4 4s21 21 21 13zm-7819-23c13-16 12-17-3-4-17 13-22 21-14 21 2 0 10-8 17-17zm9679 13c0-2-8-10-17-17-16-13-17-12-4 4s21 21 21 13zm-11515-76c10-11 16-20 13-20s-13 9-23 20-16 20-13 20 13-9 23-20zm9565 16c0-2-8-10-17-17-16-13-17-12-4 4s21 21 21 13zm1900 1c0-2-12-14-27-28l-28-24 24 28c23 25 31 32 31 24zm-11384-109 29-33-32 29c-18 17-33 31-33 33 0 8 8 1 36-29zm11314 29c0-2-12-14-27-28l-28-24 24 28c23 25 31 32 31 24zm-9359-34c13-16 12-17-3-4-17 13-22 21-14 21 2 0 10-8 17-17zm9279-56c0-2-19-21-42-42l-43-40 40 43c36 39 45 47 45 39zm-11090-94c0-8-9 0-50 45l-45 47 48-45c26-24 47-45 47-47zm10950-56c0-1-51-52-112-112l-113-110 110 113c102 104 115 117 115 109zm-10625-267c27-27 47-50 44-50s-27 23-54 50c-27 28-47 50-44 50s27-22 54-50zm10335-13c0-2-19-21-42-42l-43-40 40 43c36 39 45 47 45 39zm-10204-109 29-33-32 29c-18 17-33 31-33 33 0 8 8 1 36-29zm10084-1c0-2-12-14-27-28l-28-24 24 28c23 25 31 32 31 24zm-10005-67c10-11 16-20 13-20s-13 9-23 20-16 20-13 20 13-9 23-20zm9915-13c0-2-10-12-22-23l-23-19 19 23c18 21 26 27 26 19zm-9839-54c13-16 12-17-3-4-17 13-22 21-14 21 2 0 10-8 17-17zm9779 4c0-2-10-12-22-23l-23-19 19 23c18 21 26 27 26 19zm-9715-57c10-11 16-20 13-20s-13 9-23 20-16 20-13 20 13-9 23-20zm9645-4c0-2-8-10-17-17-16-13-17-12-4 4s21 21 21 13zm-9595-36c10-11 16-20 13-20s-13 9-23 20-16 20-13 20 13-9 23-20zm2600-8c-3-3-11 0-18 7-9 10-8 11 6 5 10-3 15-9 12-12zm6945 5c0-2-10-12-22-23l-23-19 19 23c18 21 26 27 26 19zm-50-41c0-2-8-10-17-17-16-13-17-12-4 4s21 21 21 13zm-2720-60c0-2-8-10-17-17-16-13-17-12-4 4s21 21 21 13zm-6619-23c13-16 12-17-3-4-17 13-22 21-14 21 2 0 10-8 17-17zm2644-3c10-11 16-20 13-20s-13 9-23 20-16 20-13 20 13-9 23-20zm3925-24c0-2-8-10-17-17-16-13-17-12-4 4s21 21 21 13zm2630 0c0-2-8-10-17-17-16-13-17-12-4 4s21 21 21 13zm-40-30c0-2-8-10-17-17-16-13-17-12-4 4s21 21 21 13zm-2632-31c-6-14-13-23-15-21-5 5 15 46 22 46 3 0-1-11-7-25zm-31-87c-3-8-6-5-6 6-1 11 2 17 5 13 3-3 4-12 1-19zm-10-50c-3-8-6-5-6 6-1 11 2 17 5 13 3-3 4-12 1-19zm-3740-10c-3-8-6-5-6 6-1 11 2 17 5 13 3-3 4-12 1-19zm10-110c-2-13-4-5-4 17-1 22 1 32 4 23 2-10 2-28 0-40zm3720-105c-2-32-3-8-3 52 0 61 1 87 3 58s2-78 0-110zm2113 2c0-2-10-9-22-15-22-11-22-10-4 4 21 17 26 19 26 11zm-50-30c0-2-10-9-22-15-22-11-22-10-4 4 21 17 26 19 26 11zm-2063-257c-2-24-4-5-4 42s2 66 4 43c2-24 2-62 0-85zm-5362 22c3-6-1-7-9-4-18 7-21 14-7 14 6 0 13-4 16-10zm7025 6c0-2-7-7-16-10-8-3-12-2-9 4 6 10 25 14 25 6zm-6865-86c3-6-1-7-9-4-18 7-21 14-7 14 6 0 13-4 16-10zm5192-107c-2-16-4-3-4 27s2 43 4 28c2-16 2-40 0-55zm-3710-20c-3-10-5-4-5 12 0 17 2 24 5 18 2-7 2-21 0-30zm-10-65c-3-8-6-5-6 6-1 11 2 17 5 13 3-3 4-12 1-19zm3794-125c13-16 12-17-3-4-17 13-22 21-14 21 2 0 10-8 17-17zm-3851-16c0-2-15-16-32-33l-33-29 29 33c28 30 36 37 36 29zm-75-67c-3-5-12-10-18-10-7 0-6 4 3 10 19 12 23 12 15 0zm4122-26c-3-3-12-4-19-1-8 3-5 6 6 6 11 1 17-2 13-5zm160 0c-3-3-12-4-19-1-8 3-5 6 6 6 11 1 17-2 13-5zm-4409-11c-15-2-42-2-60 0s-6 4 27 4 48-2 33-4z"/>
</g>
</svg>
