<svg width="200" height="200" viewBox="0 0 200 200" fill="none" xmlns="http://www.w3.org/2000/svg">
<path d="M134.163 93.541H65.8364C65.1361 93.541 64.5913 94.0858 64.5913 94.7862V106.304C64.5913 107.004 65.1361 107.549 65.8364 107.549H91.7508V142.646C91.7508 143.346 92.2956 143.891 92.996 143.891H107.159C107.86 143.891 108.405 143.346 108.405 142.646V107.549H134.319C135.019 107.549 135.564 107.004 135.564 106.304V94.7862C135.408 94.0858 134.864 93.541 134.163 93.541Z" fill="#080503"/>
<path d="M100 77.1982C105.837 77.1982 110.506 72.4511 110.506 66.6924C110.506 60.8558 105.759 56.1865 100 56.1865C94.1634 56.1865 89.4941 60.9336 89.4941 66.6924C89.4941 72.5289 94.1634 77.1982 100 77.1982Z" fill="#080503"/>
<path d="M100 0C44.7471 0 0 44.7471 0 100C0 155.253 44.7471 200 100 200C155.253 200 200 155.253 200 100C200 44.7471 155.253 0 100 0ZM161.323 161.323C144.903 177.743 123.113 186.77 100 186.77C76.8872 186.77 55.0195 177.743 38.677 161.323C22.2568 144.981 13.2296 123.191 13.2296 100C13.2296 76.8093 22.2568 55.0195 38.677 38.677C55.0195 22.2568 76.8093 13.2296 100 13.2296C123.191 13.2296 144.981 22.2568 161.323 38.677C177.743 55.0973 186.77 76.8872 186.77 100C186.77 123.191 177.743 144.981 161.323 161.323Z" fill="#080503"/>
</svg>
