<svg id="Layer_1" data-name="Layer 1" xmlns="http://www.w3.org/2000/svg" viewBox="0 0 188.9 218.1"><title>quant-qnt-logo</title><polygon points="141.7 81.8 141.7 81.8 141.7 136.3 188.9 109.1 188.9 109.1 188.9 54.5 141.7 81.8" style="fill:#9290b0"/><polygon points="188.9 163.6 188.9 163.6 141.7 136.3 141.7 190.9 141.7 190.9 188.9 218.1 188.9 163.6" style="fill:#a2eee3"/><path d="M94.5,54.5h0V0L0,54.5,47.2,81.8h0L94.5,54.5h0Z" style="fill:#46ddc8"/><polygon points="94.5 163.6 47.2 136.3 47.2 136.3 0 163.6 47.2 190.9 47.2 190.9 47.2 190.9 47.2 190.9 94.5 218.1 94.5 163.6 94.5 163.6" style="fill:#262261"/><polygon points="0 54.5 0 109.1 0 109.1 0 163.6 47.2 136.3 47.2 136.3 47.2 81.8 0 54.5" style="fill:#9290b0"/><polygon points="141.7 136.3 94.5 163.6 94.5 163.6 94.5 218.1 141.7 190.9 141.7 190.9 141.7 136.3" style="fill:#46ddc8"/><polygon points="141.7 81.8 188.9 54.5 141.7 27.3 141.7 27.3 141.7 27.3 141.7 27.3 141.7 27.3 141.7 27.3 94.5 0 94.5 54.5 94.5 54.5 141.7 81.8 141.7 81.8 141.7 81.8 141.7 81.8" style="fill:#262261"/></svg>