<?xml version="1.0" encoding="UTF-8"?>
<svg enable-background="new 0 0 256 256" version="1.1" viewBox="0 0 256 256" xml:space="preserve" xmlns="http://www.w3.org/2000/svg">
<style type="text/css">
	.st0{fill:#3C3E3F;}
	.st1{fill:#FFFFFF;}
</style>
	<path class="st0" d="m128 0c70.6 0 128 57.4 128 128s-57.4 128-128 128-128-57.4-128-128 57.4-128 128-128zm118.1 128c0-65.1-53-118.1-118.1-118.1s-118.1 53-118.1 118.1 53 118.1 118.1 118.1 118.1-53 118.1-118.1z"/>
	<path class="st1" d="m128 9.9c65.1 0 118.1 53 118.1 118.1s-53 118.1-118.1 118.1-118.1-53-118.1-118.1 53-118.1 118.1-118.1zm68.1 108.5 15.1-48.9h-59.6l10.8-16.9-26.5 16.9h-69.6l-14.9 48.9h51.6l-7.6 25.3-32.4 46.9 23.3-17.7-0.8 3.1-10.6 31.7h57l20.5-84.9 5.9-4.5c0 0.1 37.8 0.1 37.8 0.1z"/>
	<path class="st0" d="m211.2 69.4-15.1 48.9h-37.9l-5.9 4.5-20.5 84.9h-57l10.7-31.7 0.8-3.1-23.3 17.7 32.3-46.9 7.6-25.3h-51.6l14.9-48.9h69.6l26.5-16.9-10.8 16.9 59.7-0.1zm-20.3 41.6 10.7-32.9h-47.7l-13.1 21.5 30 11.3 20.1 0.1zm-104.1 54.7 67.9-51.5-30-12.6 1.9-3 17.9-28.1 0.1-0.3-51.5 32.9 26.9 14.1-33.2 48.5zm38.1 32.5 15.2-58-45.2 35.2-7.3 22.9h37.3zm-50.9-94 40.7-26-43.7-0.1-10 32.8 29.1 0.2-16.1-6.9z"/>
	<polygon class="st1" points="201.5 78.1 190.9 111 170.8 110.9 140.8 99.6 153.9 78.1"/>
	<polygon class="st1" points="154.6 114.3 86.8 165.7 120 117.4 93.1 103.3 144.5 70.4 144.4 70.6 126.5 98.7 124.7 101.7"/>
	<polygon class="st1" points="140.1 140.1 124.9 198.2 87.6 198.2 94.9 175.3"/>
	<polygon class="st1" points="114.7 78.2 74 104.2 90 111 60.9 110.9 71 78.1"/>
</svg>
