<svg width="128" height="128" viewBox="0 0 128 128" fill="none" xmlns="http://www.w3.org/2000/svg">
<circle cx="64" cy="64" r="64" fill="#00D0FF"/>
<path fill-rule="evenodd" clip-rule="evenodd" d="M40.7726 62.6243C40.7814 62.3063 40.8764 61.9964 41.0479 61.7268L64.1296 25.0819C64.1988 24.9744 64.2372 24.8504 64.2406 24.7231C64.244 24.5958 64.2124 24.4699 64.149 24.3589C64.0856 24.2479 63.9929 24.156 63.8807 24.0928C63.7685 24.0296 63.641 23.9976 63.5118 24.0001C54.8181 24.2682 46.439 27.2683 39.598 32.5622C32.7569 37.8562 27.8123 45.1668 25.4859 53.4266C23.1596 61.6864 23.5734 70.4628 26.667 78.4744C29.7606 86.486 35.3719 93.3132 42.6816 97.9591C42.7626 98.0132 42.8539 98.0505 42.95 98.0687C43.0461 98.0869 43.1449 98.0856 43.2405 98.0649C43.336 98.0442 43.4263 98.0045 43.5058 97.9482C43.5853 97.892 43.6523 97.8203 43.7027 97.7377L63.9815 65.7621C64.0634 65.6327 64.1088 65.484 64.1128 65.3316C64.1169 65.1791 64.0794 65.0283 64.0044 64.8948C63.9295 64.7614 63.8196 64.6501 63.6863 64.5726C63.553 64.4951 63.4011 64.4541 63.2463 64.4539H42.5795C42.2567 64.4539 41.9397 64.3688 41.6616 64.2072C41.3835 64.0457 41.1543 63.8137 40.998 63.5353C40.8417 63.2569 40.7638 62.9424 40.7726 62.6243ZM92.7187 91.5874C99.9562 84.1108 103.994 74.1744 103.994 63.8411C103.998 57.2688 102.365 50.796 99.2375 44.991C96.1104 39.186 91.5851 34.2263 86.059 30.5473C85.9787 30.4927 85.8879 30.4548 85.7922 30.4358C85.6965 30.4169 85.598 30.4173 85.5025 30.4371C85.407 30.4568 85.3165 30.4955 85.2367 30.5508C85.1568 30.6061 85.0892 30.6768 85.0379 30.7586L65.0603 62.2562C64.9782 62.3848 64.9325 62.5328 64.9281 62.6847C64.9237 62.8367 64.9607 62.987 65.0353 63.12C65.1098 63.2531 65.2192 63.364 65.352 63.4413C65.4848 63.5186 65.6362 63.5593 65.7904 63.5594H86.4521C86.7751 63.5604 87.0919 63.6464 87.3698 63.8086C87.6477 63.9708 87.8766 64.2032 88.0328 64.4818C88.1889 64.7604 88.2667 65.075 88.2581 65.3932C88.2495 65.7114 88.1548 66.0215 87.9838 66.2915L64.6161 103.133C64.5612 103.22 64.5315 103.32 64.5301 103.422C64.5287 103.525 64.5557 103.626 64.6082 103.714C64.6608 103.803 64.7368 103.876 64.8282 103.925C64.9195 103.974 65.0227 103.997 65.1267 103.993C75.6001 103.507 85.4812 99.064 92.7187 91.5874Z" fill="white"/>
</svg>
