<svg width="420" height="406" viewBox="0 0 420 406" fill="none" xmlns="http://www.w3.org/2000/svg">
<rect x="128" width="156" height="19" fill="#00CCFF"/>
<rect x="84" y="19" width="248" height="24" fill="#00CCFF"/>
<rect x="64" y="41" width="282" height="19" fill="#00CCFF"/>
<rect x="44" y="60" width="324" height="23" fill="#00CCFF"/>
<rect x="22" y="82" width="368" height="43" fill="#1FD3FF"/>
<rect y="125" width="409" height="111" fill="#41D9FF"/>
<rect y="236" width="409" height="46" fill="#FA00ED"/>
<rect x="22" y="278" width="368" height="46" fill="#DA00CF"/>
<rect x="44" y="323" width="324" height="23" fill="#D109C6"/>
<rect x="65" y="346" width="281" height="18" fill="#D109C6"/>
<rect x="87" y="364" width="240" height="21" fill="#D109C6"/>
<rect x="128" y="385" width="157" height="21" fill="#D109C6"/>
<path d="M137.23 168.34H164.21V277.02H137.23V168.34ZM164.21 304V277.02H245.91V304H164.21ZM245.91 168.34H272.89V277.02H245.91V168.34Z" fill="white"/>
<path d="M137.23 168.34V167.34H136.23V168.34H137.23ZM164.21 168.34H165.21V167.34H164.21V168.34ZM164.21 277.02V278.02H165.21V277.02H164.21ZM137.23 277.02H136.23V278.02H137.23V277.02ZM164.21 304H163.21V305H164.21V304ZM164.21 277.02V276.02H163.21V277.02H164.21ZM245.91 277.02H246.91V276.02H245.91V277.02ZM245.91 304V305H246.91V304H245.91ZM245.91 168.34V167.34H244.91V168.34H245.91ZM272.89 168.34H273.89V167.34H272.89V168.34ZM272.89 277.02V278.02H273.89V277.02H272.89ZM245.91 277.02H244.91V278.02H245.91V277.02ZM137.23 169.34H164.21V167.34H137.23V169.34ZM163.21 168.34V277.02H165.21V168.34H163.21ZM164.21 276.02H137.23V278.02H164.21V276.02ZM138.23 277.02V168.34H136.23V277.02H138.23ZM165.21 304V277.02H163.21V304H165.21ZM164.21 278.02H245.91V276.02H164.21V278.02ZM244.91 277.02V304H246.91V277.02H244.91ZM245.91 303H164.21V305H245.91V303ZM245.91 169.34H272.89V167.34H245.91V169.34ZM271.89 168.34V277.02H273.89V168.34H271.89ZM272.89 276.02H245.91V278.02H272.89V276.02ZM246.91 277.02V168.34H244.91V277.02H246.91Z" fill="white"/>
<path d="M157.415 156H140.827V151.882H153.297V139.412H157.415V156ZM136.709 131.118H140.827V151.882H136.709V131.118ZM157.415 127V131.118H140.827V127H157.415ZM165.636 156V151.882H178.106V156H165.636ZM161.518 131.118H165.636V151.882H161.518V131.118ZM178.106 127V131.118H165.636V127H178.106ZM178.106 131.118H182.224V151.882H178.106V131.118ZM207.032 127V131.118H198.738V156H194.62V131.118H186.326V127H207.032ZM231.841 156H215.253V151.882H231.841V156ZM211.135 131.118H215.253V151.882H211.135V131.118ZM231.841 127V131.118H215.253V127H231.841ZM252.531 127H256.649V156H252.531V143.588H240.061V156H235.943V127H240.061V139.412H252.531V127ZM273.164 131.118H269.046V151.882H273.164V156H260.752V151.882H264.87V131.118H260.752V127H273.164V131.118Z" fill="white"/>
<path d="M157.415 156V157H158.415V156H157.415ZM140.827 156H139.827V157H140.827V156ZM140.827 151.882V150.882H139.827V151.882H140.827ZM153.297 151.882V152.882H154.297V151.882H153.297ZM153.297 139.412V138.412H152.297V139.412H153.297ZM157.415 139.412H158.415V138.412H157.415V139.412ZM136.709 131.118V130.118H135.709V131.118H136.709ZM140.827 131.118H141.827V130.118H140.827V131.118ZM140.827 151.882V152.882H141.827V151.882H140.827ZM136.709 151.882H135.709V152.882H136.709V151.882ZM157.415 127H158.415V126H157.415V127ZM157.415 131.118V132.118H158.415V131.118H157.415ZM140.827 131.118H139.827V132.118H140.827V131.118ZM140.827 127V126H139.827V127H140.827ZM157.415 155H140.827V157H157.415V155ZM141.827 156V151.882H139.827V156H141.827ZM140.827 152.882H153.297V150.882H140.827V152.882ZM154.297 151.882V139.412H152.297V151.882H154.297ZM153.297 140.412H157.415V138.412H153.297V140.412ZM156.415 139.412V156H158.415V139.412H156.415ZM136.709 132.118H140.827V130.118H136.709V132.118ZM139.827 131.118V151.882H141.827V131.118H139.827ZM140.827 150.882H136.709V152.882H140.827V150.882ZM137.709 151.882V131.118H135.709V151.882H137.709ZM156.415 127V131.118H158.415V127H156.415ZM157.415 130.118H140.827V132.118H157.415V130.118ZM141.827 131.118V127H139.827V131.118H141.827ZM140.827 128H157.415V126H140.827V128ZM165.636 156H164.636V157H165.636V156ZM165.636 151.882V150.882H164.636V151.882H165.636ZM178.106 151.882H179.106V150.882H178.106V151.882ZM178.106 156V157H179.106V156H178.106ZM161.518 131.118V130.118H160.518V131.118H161.518ZM165.636 131.118H166.636V130.118H165.636V131.118ZM165.636 151.882V152.882H166.636V151.882H165.636ZM161.518 151.882H160.518V152.882H161.518V151.882ZM178.106 127H179.106V126H178.106V127ZM178.106 131.118V132.118H179.106V131.118H178.106ZM165.636 131.118H164.636V132.118H165.636V131.118ZM165.636 127V126H164.636V127H165.636ZM178.106 131.118V130.118H177.106V131.118H178.106ZM182.224 131.118H183.224V130.118H182.224V131.118ZM182.224 151.882V152.882H183.224V151.882H182.224ZM178.106 151.882H177.106V152.882H178.106V151.882ZM166.636 156V151.882H164.636V156H166.636ZM165.636 152.882H178.106V150.882H165.636V152.882ZM177.106 151.882V156H179.106V151.882H177.106ZM178.106 155H165.636V157H178.106V155ZM161.518 132.118H165.636V130.118H161.518V132.118ZM164.636 131.118V151.882H166.636V131.118H164.636ZM165.636 150.882H161.518V152.882H165.636V150.882ZM162.518 151.882V131.118H160.518V151.882H162.518ZM177.106 127V131.118H179.106V127H177.106ZM178.106 130.118H165.636V132.118H178.106V130.118ZM166.636 131.118V127H164.636V131.118H166.636ZM165.636 128H178.106V126H165.636V128ZM178.106 132.118H182.224V130.118H178.106V132.118ZM181.224 131.118V151.882H183.224V131.118H181.224ZM182.224 150.882H178.106V152.882H182.224V150.882ZM179.106 151.882V131.118H177.106V151.882H179.106ZM207.032 127H208.032V126H207.032V127ZM207.032 131.118V132.118H208.032V131.118H207.032ZM198.738 131.118V130.118H197.738V131.118H198.738ZM198.738 156V157H199.738V156H198.738ZM194.62 156H193.62V157H194.62V156ZM194.62 131.118H195.62V130.118H194.62V131.118ZM186.326 131.118H185.326V132.118H186.326V131.118ZM186.326 127V126H185.326V127H186.326ZM206.032 127V131.118H208.032V127H206.032ZM207.032 130.118H198.738V132.118H207.032V130.118ZM197.738 131.118V156H199.738V131.118H197.738ZM198.738 155H194.62V157H198.738V155ZM195.62 156V131.118H193.62V156H195.62ZM194.62 130.118H186.326V132.118H194.62V130.118ZM187.326 131.118V127H185.326V131.118H187.326ZM186.326 128H207.032V126H186.326V128ZM231.841 156V157H232.841V156H231.841ZM215.253 156H214.253V157H215.253V156ZM215.253 151.882V150.882H214.253V151.882H215.253ZM231.841 151.882H232.841V150.882H231.841V151.882ZM211.135 131.118V130.118H210.135V131.118H211.135ZM215.253 131.118H216.253V130.118H215.253V131.118ZM215.253 151.882V152.882H216.253V151.882H215.253ZM211.135 151.882H210.135V152.882H211.135V151.882ZM231.841 127H232.841V126H231.841V127ZM231.841 131.118V132.118H232.841V131.118H231.841ZM215.253 131.118H214.253V132.118H215.253V131.118ZM215.253 127V126H214.253V127H215.253ZM231.841 155H215.253V157H231.841V155ZM216.253 156V151.882H214.253V156H216.253ZM215.253 152.882H231.841V150.882H215.253V152.882ZM230.841 151.882V156H232.841V151.882H230.841ZM211.135 132.118H215.253V130.118H211.135V132.118ZM214.253 131.118V151.882H216.253V131.118H214.253ZM215.253 150.882H211.135V152.882H215.253V150.882ZM212.135 151.882V131.118H210.135V151.882H212.135ZM230.841 127V131.118H232.841V127H230.841ZM231.841 130.118H215.253V132.118H231.841V130.118ZM216.253 131.118V127H214.253V131.118H216.253ZM215.253 128H231.841V126H215.253V128ZM252.531 127V126H251.531V127H252.531ZM256.649 127H257.649V126H256.649V127ZM256.649 156V157H257.649V156H256.649ZM252.531 156H251.531V157H252.531V156ZM252.531 143.588H253.531V142.588H252.531V143.588ZM240.061 143.588V142.588H239.061V143.588H240.061ZM240.061 156V157H241.061V156H240.061ZM235.943 156H234.943V157H235.943V156ZM235.943 127V126H234.943V127H235.943ZM240.061 127H241.061V126H240.061V127ZM240.061 139.412H239.061V140.412H240.061V139.412ZM252.531 139.412V140.412H253.531V139.412H252.531ZM252.531 128H256.649V126H252.531V128ZM255.649 127V156H257.649V127H255.649ZM256.649 155H252.531V157H256.649V155ZM253.531 156V143.588H251.531V156H253.531ZM252.531 142.588H240.061V144.588H252.531V142.588ZM239.061 143.588V156H241.061V143.588H239.061ZM240.061 155H235.943V157H240.061V155ZM236.943 156V127H234.943V156H236.943ZM235.943 128H240.061V126H235.943V128ZM239.061 127V139.412H241.061V127H239.061ZM240.061 140.412H252.531V138.412H240.061V140.412ZM253.531 139.412V127H251.531V139.412H253.531ZM273.164 131.118V132.118H274.164V131.118H273.164ZM269.046 131.118V130.118H268.046V131.118H269.046ZM269.046 151.882H268.046V152.882H269.046V151.882ZM273.164 151.882H274.164V150.882H273.164V151.882ZM273.164 156V157H274.164V156H273.164ZM260.752 156H259.752V157H260.752V156ZM260.752 151.882V150.882H259.752V151.882H260.752ZM264.87 151.882V152.882H265.87V151.882H264.87ZM264.87 131.118H265.87V130.118H264.87V131.118ZM260.752 131.118H259.752V132.118H260.752V131.118ZM260.752 127V126H259.752V127H260.752ZM273.164 127H274.164V126H273.164V127ZM273.164 130.118H269.046V132.118H273.164V130.118ZM268.046 131.118V151.882H270.046V131.118H268.046ZM269.046 152.882H273.164V150.882H269.046V152.882ZM272.164 151.882V156H274.164V151.882H272.164ZM273.164 155H260.752V157H273.164V155ZM261.752 156V151.882H259.752V156H261.752ZM260.752 152.882H264.87V150.882H260.752V152.882ZM265.87 151.882V131.118H263.87V151.882H265.87ZM264.87 130.118H260.752V132.118H264.87V130.118ZM261.752 131.118V127H259.752V131.118H261.752ZM260.752 128H273.164V126H260.752V128ZM272.164 127V131.118H274.164V127H272.164Z" fill="white"/>
</svg>
