<?xml version="1.0" encoding="UTF-8" standalone="no"?>
<svg version="1.1" xmlns="http://www.w3.org/2000/svg" xmlns:xlink="http://www.w3.org/1999/xlink" width="100" height="100" viewBox="0 0 100 100">
	<path id="dp_path001" transform="matrix(1,0,0,1,78.8947,76.9133)" fill="#90c722" fill-rule="evenodd" stroke="none" stroke-width="0" d="M 1.13467,9.11467 C -0.361333,10.0893 -2.24667,8.172 -2.24667,8.172 C -2.24667,8.172 -4.62133,10.636 -6.776,7.964 C -7.46133,7.11333 -7.29867,5.82267 -6.48667,4.66933 C -3.924,6.012 -1.38,7.504 1.13467,9.11467 Z M -6.888,4.46 C -8.00533,5.356 -9.412,5.43867 -10.3333,4.74133 C -11.4333,3.916 -11.664,3.00267 -11.56,2.22267 C -9.99733,2.908 -8.44,3.656 -6.888,4.46 Z M -22.5467,-1.49733 C -22.892,-0.805333 -23.4507,-0.350667 -23.4507,-0.350667 C -23.4507,-0.350667 -21.052,2.064 -23.7707,3.996 C -24.6827,4.64267 -25.912,4.38267 -27.0413,3.6 C -27.7213,3.12667 -27.76,3.13067 -27.308,3.91067 C -26.752,4.868 -26.648,5.94 -27.0093,6.85333 C -28.436,10.4733 -31.4587,7.39733 -31.4587,7.39733 C -31.4587,7.39733 -33.8347,9.86133 -35.9893,7.19067 C -36.68,6.33333 -36.5093,5.028 -35.6787,3.86667 C -35.064,3.00933 -34.9933,2.776 -36.0627,3.656 C -37.1827,4.57867 -38.6107,4.66933 -39.544,3.96933 C -42.168,1.992 -39.8427,-0.465333 -39.8427,-0.465333 C -39.8427,-0.465333 -40.46,-0.994667 -40.768,-1.76933 C -34.8253,-3.14933 -28.696,-2.92133 -22.5467,-1.49733 Z M -68.9933,18.9813 C -68.0093,18.5467 -66.972,18.54 -66.0707,19.1613 C -62.9293,21.3187 -65.7693,23.6173 -65.7693,23.6173 C -65.7693,23.6173 -63.3667,26.032 -66.0853,27.964 C -66.9987,28.6107 -68.228,28.3507 -69.3573,27.568 C -70.036,27.0947 -70.0747,27.0987 -69.6227,27.8787 C -69.0707,28.836 -68.964,29.908 -69.328,30.8213 C -70.6187,34.104 -73.2253,31.88 -73.7013,31.436 C -73.172,27.412 -71.724,23.2213 -68.9933,18.9813 Z M -34.5613,139.492 C -34.7747,138.827 -34.7533,138.159 -34.352,137.483 C -32.4307,134.259 -30.1467,136.936 -30.1467,136.936 C -30.1467,136.936 -27.9333,134.507 -25.8627,137.057 C -25.472,137.536 -25.3653,138.115 -25.4573,138.732 C -26.9027,139.016 -28.344,139.223 -29.7773,139.349 C -31.3853,139.495 -32.984,139.541 -34.5613,139.492 Z M 4.784,121.863 C 4.216,121.263 2.78933,119.368 5.39867,117.677 C 6.71067,116.829 8.22933,117.421 9.56533,118.411 C 10.428,119.052 10.4573,119.035 9.75467,118.121 C 8.80267,116.841 8.168,115.58 8.936,114.288 C 10.86,111.064 13.144,113.741 13.144,113.741 C 13.144,113.741 15.3533,111.313 17.4253,113.86 C 18.3773,115.033 17.6493,116.783 16.432,118.277 C 15.832,119.013 15.9987,119.159 16.692,118.515 C 18.028,117.276 19.7013,116.776 21.0693,117.716 C 24.2107,119.873 21.3707,122.172 21.3707,122.172 C 21.3707,122.172 23.7693,124.587 21.0547,126.519 C 20.1387,127.167 18.912,126.907 17.7827,126.123 C 17.1027,125.651 17.0653,125.653 17.5173,126.433 C 18.0693,127.391 18.1733,128.464 17.812,129.376 C 16.388,132.996 13.3653,129.92 13.3653,129.92 C 13.3653,129.92 10.9893,132.385 8.83467,129.713 C 8.80533,129.679 8.776,129.64 8.74933,129.601 C 11.6867,125.009 12.9787,121.863 11.9827,120.452 L 11.9733,120.452 C 10.992,119.067 8.70533,119.445 4.784,121.863 Z M 1.24133,141.028 C 2.384,140.321 3.652,140.171 4.728,140.909 C 7.86933,143.067 5.032,145.367 5.032,145.367 C 5.032,145.367 7.432,147.78 4.71333,149.713 C 3.8,150.363 2.57067,150.1 1.44133,149.317 C 0.762667,148.844 0.724,148.847 1.176,149.627 C 1.732,150.584 1.83467,151.657 1.47467,152.571 C 0.0466667,156.191 -2.976,153.115 -2.976,153.115 C -2.976,153.115 -3.40133,153.555 -4.05467,153.861 C -2.928,149.616 -1.14933,145.295 1.24133,141.028 Z M 21.488,198.192 C 21.5973,197.968 21.7307,197.744 21.888,197.525 C 22.4987,196.668 22.5707,196.435 21.5027,197.315 C 21.2133,197.552 20.904,197.735 20.5907,197.861 C 19.3667,197.395 18.1347,196.845 16.9,196.209 C 16.3493,194.641 17.7213,193.193 17.7213,193.193 C 17.7213,193.193 14.988,190.852 18.14,188.813 C 19.4493,187.965 20.968,188.556 22.304,189.547 C 23.1693,190.188 23.196,190.169 22.4933,189.257 C 21.5413,187.977 20.9067,186.716 21.6773,185.424 C 23.6013,182.2 25.8827,184.877 25.8827,184.877 C 25.8827,184.877 28.096,182.448 30.168,184.996 C 31.1187,186.169 30.392,187.921 29.1747,189.413 C 28.5747,190.149 28.7373,190.293 29.432,189.649 C 30.7707,188.412 32.4427,187.912 33.808,188.852 C 36.9493,191.009 34.112,193.308 34.112,193.308 C 34.112,193.308 36.512,195.723 33.7933,197.655 C 32.88,198.305 31.6507,198.041 30.5213,197.259 C 29.8453,196.787 29.8067,196.789 30.256,197.569 C 30.7253,198.376 30.8707,199.265 30.6907,200.075 C 27.7053,199.889 24.624,199.297 21.488,198.192 Z M 46.1653,197.664 L 46.116,197.628 C 43.492,195.651 45.8173,193.193 45.8173,193.193 C 45.8173,193.193 43.084,190.852 46.236,188.813 C 47.5453,187.965 49.064,188.556 50.4,189.547 C 51.2667,190.188 51.292,190.169 50.5893,189.257 C 49.6373,187.977 49.0053,186.716 49.7733,185.424 C 51.6973,182.2 53.9787,184.877 53.9787,184.877 C 53.9787,184.877 56.192,182.448 58.264,184.996 C 59.2147,186.169 58.488,187.921 57.2707,189.413 C 56.6707,190.149 56.8333,190.293 57.528,189.649 C 58.8133,188.461 60.4053,187.956 61.7387,188.748 C 58.2987,191.5 52.8467,195.232 46.1653,197.664 Z M 74.5667,189.015 C 75.8227,188.373 77.24,188.949 78.4987,189.883 C 79.3627,190.524 79.3893,190.507 78.688,189.593 C 77.7333,188.315 77.1013,187.052 77.8693,185.761 C 79.7907,182.537 82.0773,185.215 82.0773,185.215 C 82.0773,185.215 84.288,182.783 86.36,185.332 C 87.3107,186.505 86.584,188.255 85.3667,189.751 C 84.7667,190.485 84.9293,190.631 85.624,189.987 C 86.9627,188.748 88.6347,188.249 90.0027,189.189 C 93.1413,191.345 90.304,193.645 90.304,193.645 C 90.304,193.645 92.3547,195.708 90.52,197.543 C 84.1373,194.901 78.4933,191.58 74.5667,189.015 Z M 137.389,155.26 C 136.713,155.233 135.963,154.917 135.239,154.019 C 134.547,153.161 134.719,151.852 135.548,150.693 C 135.623,150.593 135.688,150.499 135.744,150.416 C 136.349,152.027 136.901,153.643 137.389,155.26 Z M 135.628,150.117 C 135.507,150.207 135.356,150.328 135.167,150.481 C 134.044,151.407 132.615,151.497 131.68,150.795 C 129.059,148.82 131.385,146.361 131.385,146.361 C 131.385,146.361 128.652,144.021 131.804,141.983 C 131.869,141.939 131.935,141.9 132.003,141.864 C 133.335,144.56 134.564,147.325 135.628,150.117 Z M 125.708,130.299 C 125.377,130.612 123.205,132.509 121.22,130.048 C 120.528,129.193 120.7,127.884 121.529,126.725 C 122.144,125.869 122.216,125.636 121.145,126.513 C 120.023,127.439 118.596,127.529 117.661,126.827 C 115.041,124.852 117.367,122.393 117.367,122.393 C 117.367,122.393 114.633,120.053 117.783,118.015 C 119.095,117.164 120.613,117.755 121.949,118.748 C 122.816,119.389 122.841,119.368 122.139,118.457 C 121.187,117.179 120.552,115.913 121.323,114.625 C 123.244,111.401 125.528,114.079 125.528,114.079 C 125.528,114.079 127.741,111.647 129.809,114.197 C 130.764,115.369 130.035,117.119 128.82,118.612 C 128.217,119.351 128.383,119.492 129.077,118.851 C 130.413,117.613 132.088,117.113 133.453,118.053 C 136.595,120.211 133.755,122.509 133.755,122.509 C 133.755,122.509 135.664,124.427 134.151,126.212 C 128.927,122.657 125.948,121.129 124.296,122.835 C 123.093,124.076 123.696,126.383 125.708,130.299 Z M 201.268,102.728 C 200.904,102.599 200.535,102.404 200.177,102.152 C 199.497,101.683 199.459,101.685 199.911,102.465 C 200.464,103.423 200.571,104.492 200.207,105.408 C 198.783,109.028 195.76,105.949 195.76,105.949 C 195.76,105.949 193.384,108.417 191.229,105.745 C 190.539,104.888 190.709,103.58 191.54,102.421 C 192.155,101.564 192.225,101.331 191.156,102.208 C 190.036,103.133 188.608,103.225 187.672,102.521 C 185.051,100.548 187.376,98.0893 187.376,98.0893 C 187.376,98.0893 184.643,95.7493 187.793,93.7093 C 189.105,92.8613 190.624,93.4533 191.96,94.4427 C 192.825,95.084 192.852,95.0667 192.148,94.1533 C 191.197,92.8733 190.561,91.6093 191.329,90.32 C 193.253,87.096 195.537,89.7733 195.537,89.7733 C 195.537,89.7733 196.948,88.2253 198.569,88.896 C 199.048,90.1347 199.48,91.4107 199.852,92.732 C 199.599,93.264 199.24,93.8013 198.829,94.3093 C 198.229,95.0453 198.392,95.1867 199.087,94.5467 C 199.417,94.2387 199.769,93.9787 200.129,93.772 C 200.853,96.6147 201.285,99.62 201.268,102.728 Z M 190.809,75.2347 C 190.987,76.0453 190.816,77.0253 189.572,77.9093 C 188.659,78.556 187.429,78.296 186.3,77.5133 C 185.621,77.04 185.585,77.044 186.035,77.824 C 186.591,78.7813 186.693,79.8533 186.333,80.7667 C 184.905,84.3867 181.883,81.3107 181.883,81.3107 C 181.883,81.3107 179.507,83.7747 177.353,81.104 C 176.664,80.2467 176.833,78.9413 177.663,77.78 C 178.277,76.9227 178.349,76.6893 177.281,77.5693 C 176.159,78.492 174.732,78.5867 173.795,77.8827 C 171.173,75.9053 173.5,73.448 173.5,73.448 C 173.5,73.448 170.767,71.1067 173.919,69.068 C 175.228,68.22 176.747,68.8107 178.083,69.8013 C 178.948,70.4427 178.975,70.424 178.272,69.5107 C 177.32,68.232 176.688,66.9707 177.456,65.6787 C 179.377,62.4547 181.661,65.132 181.661,65.132 C 181.661,65.132 183.875,62.7027 185.945,65.2507 C 186.897,66.424 186.171,68.1733 184.953,69.668 C 184.353,70.404 184.516,70.548 185.211,69.904 C 185.381,69.7453 185.556,69.6 185.736,69.4667 L 187.164,70.9333 C 187.184,70.9533 188.741,72.5227 190.809,75.2347 Z M 196.596,57.3333 C 196.096,57.012 195.76,56.6693 195.76,56.6693 C 195.76,56.6693 193.384,59.136 191.229,56.4627 C 190.539,55.6053 190.709,54.2987 191.54,53.14 C 192.155,52.2813 192.225,52.0507 191.156,52.928 C 190.036,53.8533 188.608,53.944 187.672,53.2413 C 185.051,51.2667 187.376,48.8053 187.376,48.8053 C 187.376,48.8053 184.643,46.468 187.793,44.4267 C 189.105,43.5787 190.624,44.1693 191.96,45.1587 C 192.825,45.8 192.852,45.7827 192.148,44.872 C 191.197,43.5933 190.561,42.328 191.329,41.0373 C 193.253,37.8133 195.537,40.4933 195.537,40.4933 C 195.537,40.4933 197.751,38.0613 199.82,40.612 C 200.775,41.784 200.047,43.5333 198.829,45.0267 C 198.229,45.7627 198.392,45.9067 199.087,45.2627 C 200.287,44.1547 201.755,43.6373 203.029,44.22 C 201.637,49.228 199.169,53.6907 196.596,57.3333 Z M 175.355,-0.469333 C 175.068,0.453333 174.28,1.09467 174.28,1.09467 C 174.28,1.09467 176.679,3.508 173.96,5.44133 C 173.048,6.09067 171.819,5.828 170.689,5.04533 C 170.009,4.572 169.975,4.57467 170.424,5.356 C 170.979,6.31333 171.083,7.38533 170.721,8.30133 C 169.295,11.9187 166.275,8.84267 166.275,8.84267 C 166.275,8.84267 163.896,11.3067 161.741,8.636 C 161.053,7.77867 161.221,6.472 162.052,5.31333 C 162.667,4.45467 162.737,4.22 161.668,5.10133 C 160.548,6.02267 159.12,6.11733 158.184,5.41467 C 155.563,3.43733 157.888,0.978667 157.888,0.978667 C 157.888,0.978667 155.276,-1.25733 158.107,-3.264 C 159.212,-3.32933 160.315,-3.35333 161.413,-3.332 C 161.775,-3.14933 162.129,-2.92133 162.472,-2.664 C 163.337,-2.02667 163.364,-2.044 162.66,-2.95733 C 162.575,-3.072 162.492,-3.188 162.412,-3.30267 C 164.652,-3.20533 166.875,-2.91867 169.073,-2.43467 C 168.863,-2.09733 168.987,-2.05333 169.375,-2.36667 C 171.392,-1.90533 173.387,-1.276 175.355,-0.469333 Z M 147.413,-1.31733 C 147.336,-0.126667 146.24,0.76 146.24,0.76 C 146.24,0.76 148.643,3.17467 145.924,5.104 C 145.011,5.75467 143.781,5.49467 142.652,4.708 C 141.972,4.236 141.935,4.24133 142.387,5.02133 C 142.939,5.976 143.045,7.048 142.685,7.964 C 141.257,11.584 138.235,8.50533 138.235,8.50533 C 138.235,8.50533 135.859,10.9693 133.704,8.30133 C 133.013,7.444 133.184,6.136 134.015,4.97733 C 134.204,4.71467 134.34,4.51067 134.408,4.37733 C 138.672,1.924 143.031,-0.00266667 147.413,-1.31733 Z M 112.153,8.76533 C 111.956,9.01067 111.761,9.25333 111.569,9.492 C 110.759,9.13733 110.139,8.50533 110.139,8.50533 C 110.139,8.50533 107.763,10.9693 105.608,8.30133 C 104.917,7.444 105.088,6.136 105.919,4.97733 C 106.533,4.11733 106.604,3.88667 105.535,4.764 C 104.415,5.68933 102.984,5.78133 102.051,5.07733 C 99.4267,3.104 101.755,0.642667 101.755,0.642667 C 101.755,0.642667 99.0213,-1.69467 102.172,-3.73467 C 103.484,-4.58533 105.003,-3.99067 106.339,-3.00133 C 107.204,-2.36 107.231,-2.38133 106.528,-3.29067 C 105.576,-4.57067 104.94,-5.83467 105.712,-7.124 C 107.632,-10.348 109.917,-7.67067 109.917,-7.67067 C 109.917,-7.67067 112.131,-10.1027 114.199,-7.552 C 115.153,-6.37867 114.423,-4.62933 113.209,-3.13733 C 112.605,-2.39867 112.772,-2.25733 113.465,-2.90133 C 114.801,-4.13867 116.477,-4.636 117.843,-3.696 C 119.52,-2.544 119.491,-1.352 119.101,-0.489333 C 118.871,-0.156 118.64,0.178667 118.407,0.512 C 118.253,0.669333 118.144,0.76 118.144,0.76 L 118.193,0.813333 C 117.325,2.04533 113.22,7.456 112.153,8.76533 Z M 129.452,-19.44 C 129.16,-19.564 128.864,-19.732 128.575,-19.9307 C 127.895,-20.404 127.856,-20.4 128.309,-19.62 C 128.633,-19.0613 128.803,-18.4613 128.817,-17.88 C 128.451,-17.0133 128.064,-16.148 127.661,-15.28 C 126.148,-14.1067 124.157,-16.1333 124.157,-16.1333 C 124.157,-16.1333 121.781,-13.6693 119.627,-16.34 C 118.936,-17.1973 119.107,-18.5027 119.937,-19.664 C 120.552,-20.5213 120.623,-20.7547 119.556,-19.8773 C 118.433,-18.952 117.003,-18.8613 116.069,-19.5613 C 113.445,-21.5387 115.773,-23.996 115.773,-23.996 C 115.773,-23.996 113.04,-26.3373 116.191,-28.376 C 117.503,-29.224 119.021,-28.6333 120.357,-27.6427 C 121.223,-27.0013 121.249,-27.02 120.545,-27.9333 C 119.595,-29.212 118.959,-30.4733 119.731,-31.7653 C 121.651,-34.9893 123.936,-32.312 123.936,-32.312 C 123.936,-32.312 126.148,-34.744 128.217,-32.1933 C 129.172,-31.02 128.441,-29.2707 127.227,-27.776 C 126.628,-27.04 126.789,-26.896 127.484,-27.54 C 128.82,-28.7773 130.496,-29.2773 131.86,-28.3373 C 131.976,-28.2573 132.083,-28.1773 132.183,-28.0987 C 131.529,-25.252 130.608,-22.36 129.452,-19.44 Z M 104.903,-71.016 C 104.92,-70.316 104.612,-69.5333 103.605,-68.8187 C 102.692,-68.168 101.463,-68.428 100.333,-69.2147 C 99.6573,-69.684 99.6187,-69.684 100.071,-68.904 C 100.624,-67.9467 100.727,-66.8733 100.367,-65.9573 C 98.9413,-62.3373 95.9187,-65.4173 95.9187,-65.4173 C 95.9187,-65.4173 93.5427,-62.952 91.3893,-65.624 C 90.6973,-66.4773 90.8693,-67.7867 91.6987,-68.9453 C 92.3133,-69.8027 92.3813,-70.036 91.3147,-69.1573 C 90.192,-68.2333 88.7653,-68.1413 87.8307,-68.844 C 87.2013,-69.3173 86.8587,-69.8173 86.7,-70.308 C 92.1573,-72.036 98.36,-72.6973 104.903,-71.016 Z M 46.0333,-68.788 C 45.572,-68.8213 45.164,-68.9453 44.5053,-69.0987 C 44.112,-69.1907 43.6947,-69.3907 43.9173,-68.916 C 44.3867,-67.9173 44.68,-67.208 44.3187,-66.2947 C 42.892,-62.6747 39.868,-65.7507 39.868,-65.7507 C 39.868,-65.7507 37.4933,-63.2867 35.3387,-65.9573 C 34.6467,-66.8147 34.8187,-68.12 35.6493,-69.2813 C 36.264,-70.1387 36.3347,-70.372 35.2653,-69.492 C 34.1413,-68.5693 32.7147,-68.4787 31.7813,-69.1813 C 30.6813,-70.0093 30.4507,-70.9187 30.5547,-71.7027 C 36.2107,-72.3347 41.5147,-71.04 46.1093,-68.9867 C 46.6147,-68.7613 46.6293,-68.7507 46.0333,-68.788 Z M 5.10667,-53.52 C 5.224,-53.4613 5.34267,-53.3933 5.45733,-53.3133 C 8.596,-51.156 5.75867,-48.8573 5.75867,-48.8573 C 5.75867,-48.8573 8.15867,-46.4453 5.44267,-44.5133 C 4.52667,-43.8627 3.3,-44.1227 2.172,-44.9093 C 1.492,-45.3813 1.45333,-45.3787 1.90533,-44.596 C 2.45867,-43.6413 2.56133,-42.5693 2.20133,-41.6533 C 1.232,-39.1947 -0.476,-39.8267 -1.46933,-40.4853 C -0.677333,-43.34 0.544,-46.2 2.252,-49.0667 C 3.19733,-50.6533 4.148,-52.128 5.10667,-53.52 Z M 20.4747,21.0587 C 21.5747,22.8227 19.636,24.392 19.636,24.392 C 19.636,24.392 22.0347,26.8053 19.316,28.7347 C 18.404,29.3853 17.1773,29.1253 16.048,28.3427 C 15.3693,27.8693 15.3307,27.872 15.7827,28.652 C 16.3347,29.6093 16.4387,30.6827 16.0773,31.596 C 14.6507,35.216 11.6307,32.14 11.6307,32.14 C 11.6307,32.14 9.25467,34.604 7.1,31.932 C 6.40933,31.076 6.58,29.7693 7.41067,28.608 C 8.02267,27.7507 8.09333,27.5173 7.02667,28.396 C 5.904,29.32 4.476,29.412 3.54267,28.712 C 0.918667,26.7347 3.244,24.276 3.244,24.276 C 3.244,24.276 0.513333,21.936 3.664,19.8973 C 4.976,19.0493 6.49467,19.64 7.83067,20.6293 C 8.69333,21.2707 8.72,21.2533 8.02,20.34 C 7.06533,19.06 6.43333,17.7987 7.20133,16.508 C 7.952,15.2493 8.75867,14.888 9.45867,14.9213 C 15.9947,19.7133 12.9107,21.2947 20.4747,21.0587 Z M 106.475,201.809 C 107.52,201.911 108.567,201.972 109.609,201.987 C 110.095,201.703 110.396,201.393 110.396,201.393 C 110.396,201.393 110.676,201.68 111.111,201.975 C 112.213,201.943 113.309,201.86 114.396,201.709 C 114.556,201.479 114.707,201.195 114.843,200.849 C 115.203,199.936 115.1,198.864 114.547,197.905 C 114.095,197.125 114.133,197.123 114.813,197.596 C 115.943,198.379 117.168,198.639 118.084,197.989 C 120.8,196.059 118.4,193.645 118.4,193.645 C 118.4,193.645 121.237,191.345 118.099,189.189 C 116.731,188.249 115.059,188.748 113.723,189.987 C 113.028,190.631 112.863,190.485 113.463,189.751 C 114.68,188.255 115.407,186.505 114.456,185.332 C 112.384,182.783 110.173,185.215 110.173,185.215 C 110.173,185.215 107.889,182.537 105.965,185.761 C 105.197,187.052 105.831,188.315 106.784,189.593 C 107.485,190.507 107.459,190.524 106.596,189.883 C 105.26,188.893 103.741,188.303 102.429,189.151 C 99.2787,191.189 102.009,193.529 102.009,193.529 C 102.009,193.529 99.684,195.988 102.308,197.963 C 103.241,198.668 104.669,198.573 105.792,197.649 C 106.859,196.771 106.791,197.005 106.176,197.861 C 105.345,199.023 105.175,200.329 105.865,201.187 C 106.067,201.437 106.271,201.641 106.475,201.809 Z M 184.781,131.752 C 185.169,131.453 185.551,131.156 185.923,130.855 C 186.071,130.632 186.207,130.367 186.333,130.048 C 186.693,129.135 186.591,128.061 186.035,127.104 C 185.585,126.324 185.621,126.321 186.3,126.793 C 187.429,127.577 188.659,127.84 189.572,127.189 C 192.291,125.257 189.891,122.843 189.891,122.843 C 189.891,122.843 192.728,120.547 189.587,118.389 C 188.221,117.451 186.549,117.947 185.211,119.185 C 184.516,119.829 184.353,119.684 184.953,118.948 C 186.171,117.456 186.897,115.707 185.945,114.533 C 183.875,111.984 181.661,114.416 181.661,114.416 C 181.661,114.416 179.377,111.735 177.456,114.959 C 176.688,116.251 177.32,117.515 178.272,118.792 C 178.975,119.705 178.948,119.723 178.083,119.084 C 176.747,118.092 175.228,117.5 173.919,118.348 C 170.767,120.388 173.5,122.728 173.5,122.728 C 173.5,122.728 171.173,125.187 173.795,127.164 C 174.732,127.867 176.159,127.775 177.281,126.851 C 178.349,125.972 178.277,126.203 177.663,127.063 C 176.833,128.221 176.664,129.528 177.353,130.384 C 179.507,133.056 181.883,130.591 181.883,130.591 C 181.883,130.591 183.393,132.128 184.781,131.752 Z M -21.4213,-6.016 C -10.3067,-3.42667 -0.225333,3.848 10.144,11.5373 C 13.0427,13.6853 13.412,12.0307 10.8067,9.29467 L 10.78,9.256 C 3.40933,-0.642667 -2.74,-10.5133 -5.57867,-20.492 C -8.496,-30.7453 -7.94667,-41.0387 -1.73467,-51.4547 C 25.1907,-96.6067 56.5493,-69.5187 64.1053,-61.8853 C 71.6227,-68.9987 102.021,-93.64 130.8,-58.204 C 137.96,-49.3893 139.319,-38.656 136.769,-27.3027 C 133.879,-14.4347 125.912,-0.764 115.759,11.7 C 112.94,15.16 114.556,15.4173 117.724,12.4827 C 128.616,2.388 139.556,-4.92533 151.987,-7.188 C 163.535,-9.292 175.101,-7.36 185.556,-0.176 L 185.559,-0.182667 C 229.617,30.0827 200.1,62.0533 192.133,69.4933 C 198.989,77.4333 223.309,110.145 185.367,137.107 C 178.201,142.201 169.892,143.871 161.177,142.819 C 151.949,141.701 142.28,137.52 133.081,131.129 C 128.137,126.632 126.721,126.127 132.392,132.772 C 137.132,140.957 141.352,150.304 143.255,159.476 C 144.836,167.1 144.816,174.609 142.185,181.279 L 142.185,181.275 C 125.377,229.001 77.028,196.724 67.5987,189.851 C 60.32,196.488 27.2747,222.801 -3.10267,185.132 C -8.652,178.249 -10.804,169.627 -9.94133,160.416 C -9.06933,151.093 -5.10667,141.179 1.53067,131.912 C 5.58533,126.253 8.312,123.321 8.176,123.129 L 8.18267,123.127 C 7.80667,122.633 5.80933,126.319 -0.922667,131.859 C -9.71067,139.092 -19.7067,143.108 -29.376,143.977 C -39.3573,144.872 -48.9947,142.411 -56.624,136.667 C -93.3067,109.047 -69.4867,75.652 -62.956,67.7293 C -70.5093,60.304 -99.016,27.9107 -54.6653,-0.797333 C -44.124,-7.62 -32.7853,-8.66267 -21.4213,-6.016 Z M -53.92,23.5027 C -53.92,23.5027 -56.6533,21.1613 -53.5,19.1227 C -52.192,18.2747 -50.672,18.8653 -49.3373,19.856 C -48.4707,20.4973 -48.444,20.4787 -49.148,19.5653 C -50.0987,18.2867 -50.7347,17.024 -49.9627,15.7333 C -48.0427,12.5093 -45.7587,15.1867 -45.7587,15.1867 C -45.7587,15.1867 -43.5453,12.7573 -41.476,15.3053 C -40.5227,16.4773 -41.2493,18.228 -42.4667,19.7227 C -43.0667,20.4587 -42.904,20.6027 -42.2093,19.9587 C -40.8707,18.7213 -39.1987,18.2213 -37.8333,19.1613 C -34.692,21.3187 -37.5293,23.6173 -37.5293,23.6173 C -37.5293,23.6173 -35.1293,26.032 -37.848,27.964 C -38.7613,28.6107 -39.9907,28.3507 -41.1187,27.568 C -41.7987,27.0947 -41.8347,27.0987 -41.3853,27.8787 C -40.8293,28.836 -40.7267,29.908 -41.0867,30.8213 C -42.5133,34.4413 -45.5373,31.3653 -45.5373,31.3653 C -45.5373,31.3653 -47.912,33.8293 -50.0667,31.1587 C -50.7547,30.3013 -50.5867,28.996 -49.756,27.8347 C -49.1413,26.9773 -49.0707,26.744 -50.1373,27.624 C -51.26,28.5467 -52.688,28.6413 -53.624,27.9373 C -56.2453,25.96 -53.92,23.5027 -53.92,23.5027 Z M -66.2507,51.796 C -68.8747,49.8187 -66.5467,47.36 -66.5467,47.36 C -66.5467,47.36 -69.28,45.02 -66.1307,42.9813 C -64.8187,42.1333 -63.2987,42.724 -61.964,43.7147 C -61.1013,44.356 -61.0707,44.3373 -61.7747,43.424 C -62.7253,42.148 -63.3613,40.8827 -62.5933,39.592 C -60.6693,36.368 -58.3853,39.0453 -58.3853,39.0453 C -58.3853,39.0453 -56.1747,36.616 -54.1027,39.164 C -53.152,40.336 -53.8787,42.0853 -55.096,43.5813 C -55.696,44.3173 -55.5307,44.4613 -54.836,43.8173 C -53.5,42.58 -51.828,42.0827 -50.46,43.02 C -47.3187,45.1773 -50.1587,47.476 -50.1587,47.476 C -50.1587,47.476 -47.756,49.8907 -50.4747,51.8227 C -51.3907,52.4693 -52.6173,52.2093 -53.7453,51.4267 C -54.4253,50.9533 -54.464,50.9573 -54.012,51.7373 C -53.4587,52.6947 -53.356,53.7667 -53.716,54.68 C -55.14,58.3 -58.164,55.224 -58.164,55.224 C -58.164,55.224 -60.5387,57.688 -62.6933,55.0173 C -63.3853,54.16 -63.2133,52.8547 -62.3827,51.6933 C -61.768,50.836 -61.7,50.6027 -62.768,51.4827 C -63.8907,52.4053 -65.3173,52.5 -66.2507,51.796 Z M -26.9707,23.5027 C -26.9707,23.5027 -29.704,21.1613 -26.5507,19.1227 C -25.2413,18.2747 -23.7227,18.8653 -22.3867,19.856 C -21.5213,20.4973 -21.4947,20.4787 -22.1987,19.5653 C -23.1493,18.2867 -23.7827,17.024 -23.0133,15.7333 C -21.0933,12.5093 -18.8093,15.1867 -18.8093,15.1867 C -18.8093,15.1867 -16.596,12.7573 -14.5267,15.3053 C -13.572,16.4773 -14.3,18.228 -15.5173,19.7227 C -16.1173,20.4587 -15.9547,20.6027 -15.26,19.9587 C -13.9213,18.7213 -12.2493,18.2213 -10.884,19.1613 C -7.74267,21.3187 -10.5787,23.6173 -10.5787,23.6173 C -10.5787,23.6173 -8.18,26.032 -10.8987,27.964 C -11.812,28.6107 -13.04,28.3507 -14.1693,27.568 C -14.8493,27.0947 -14.884,27.0987 -14.436,27.8787 C -13.8827,28.836 -13.776,29.908 -14.1373,30.8213 C -15.564,34.4413 -18.5867,31.3653 -18.5867,31.3653 C -18.5867,31.3653 -20.9627,33.8293 -23.1173,31.1587 C -23.8053,30.3013 -23.6373,28.996 -22.8067,27.8347 C -22.192,26.9773 -22.1213,26.744 -23.1907,27.624 C -24.3107,28.5467 -25.7387,28.6413 -26.6747,27.9373 C -29.296,25.96 -26.9707,23.5027 -26.9707,23.5027 Z M 21.2467,-44.8533 C 20.1227,-43.928 18.696,-43.836 17.7627,-44.54 C 15.1387,-46.516 17.464,-48.9747 17.464,-48.9747 C 17.464,-48.9747 14.7333,-51.312 17.884,-53.352 C 19.196,-54.2 20.7147,-53.608 22.0493,-52.6187 C 22.9133,-51.9773 22.9427,-51.9987 22.2387,-52.908 C 21.288,-54.188 20.652,-55.452 21.42,-56.7413 C 23.344,-59.9653 25.628,-57.288 25.628,-57.288 C 25.628,-57.288 27.8387,-59.72 29.9107,-57.1693 C 30.8613,-55.996 30.1347,-54.2467 28.9173,-52.7547 C 28.3173,-52.016 28.4827,-51.8747 29.1773,-52.5187 C 30.5133,-53.756 32.1853,-54.2533 33.5533,-53.3133 C 36.6947,-51.156 33.8547,-48.8573 33.8547,-48.8573 C 33.8547,-48.8573 36.2573,-46.4453 33.5387,-44.5133 C 32.6253,-43.8627 31.396,-44.1227 30.268,-44.9093 C 29.588,-45.3813 29.5493,-45.3787 30.0013,-44.596 C 30.5547,-43.6413 30.6573,-42.5693 30.2973,-41.6533 C 28.8733,-38.0333 25.8507,-41.112 25.8507,-41.112 C 25.8507,-41.112 23.4747,-38.644 21.32,-41.316 C 20.628,-42.1733 20.8,-43.4813 21.6307,-44.64 C 22.2453,-45.5 22.3133,-45.7307 21.2467,-44.8533 Z M 7.41067,-19.9987 C 8.02267,-20.8587 8.09333,-21.092 7.02667,-20.2107 C 5.904,-19.2893 4.476,-19.1947 3.54267,-19.8987 C 0.918667,-21.8747 3.244,-24.3333 3.244,-24.3333 C 3.244,-24.3333 0.513333,-26.6733 3.664,-28.7133 C 4.976,-29.5613 6.492,-28.9693 7.83067,-27.9773 C 8.69333,-27.3387 8.72,-27.356 8.02,-28.2693 C 7.06533,-29.5467 6.43333,-30.8107 7.20133,-32.1027 C 9.12133,-35.3267 11.4067,-32.6493 11.4067,-32.6493 C 11.4067,-32.6493 13.62,-35.0773 15.6907,-32.5307 C 16.6427,-31.3573 15.916,-29.6053 14.6973,-28.1133 C 14.0987,-27.3773 14.26,-27.232 14.9547,-27.876 C 16.2907,-29.1147 17.9667,-29.6107 19.332,-28.6747 C 22.472,-26.5173 19.636,-24.2187 19.636,-24.2187 C 19.636,-24.2187 22.0347,-21.804 19.316,-19.872 C 18.404,-19.2213 17.1747,-19.484 16.0453,-20.268 C 15.3693,-20.74 15.3307,-20.7373 15.78,-19.9573 C 16.3347,-19 16.4387,-17.9267 16.0773,-17.0107 C 14.6507,-13.3947 11.628,-16.4707 11.628,-16.4707 C 11.628,-16.4707 9.25467,-14.0053 7.1,-16.6773 C 6.40933,-17.5347 6.57733,-18.84 7.41067,-19.9987 Z M 45.5627,-48.9747 C 45.5627,-48.9747 42.8293,-51.312 45.98,-53.352 C 47.292,-54.2 48.8107,-53.608 50.1467,-52.6187 C 51.0093,-51.9773 51.0387,-51.9987 50.3347,-52.908 C 49.384,-54.188 48.748,-55.452 49.5173,-56.7413 C 51.44,-59.9653 53.724,-57.288 53.724,-57.288 C 53.724,-57.288 55.9347,-59.72 58.0067,-57.1693 C 58.9573,-55.996 58.2307,-54.2467 57.0133,-52.7547 C 56.4133,-52.016 56.5787,-51.8747 57.2733,-52.5187 C 58.6093,-53.756 60.2813,-54.2533 61.6493,-53.3133 C 64.7907,-51.156 61.9507,-48.8573 61.9507,-48.8573 C 61.9507,-48.8573 64.3533,-46.4453 61.6347,-44.5133 C 60.7227,-43.8627 59.4933,-44.1227 58.364,-44.9093 C 57.684,-45.3813 57.6453,-45.3787 58.0973,-44.596 C 58.6507,-43.6413 58.7533,-42.5693 58.3933,-41.6533 C 56.9693,-38.0333 53.9467,-41.112 53.9467,-41.112 C 53.9467,-41.112 51.5707,-38.644 49.416,-41.316 C 48.7253,-42.1733 48.896,-43.4813 49.7267,-44.64 C 50.3413,-45.5 50.4093,-45.7307 49.3427,-44.8533 C 48.22,-43.928 46.792,-43.836 45.8587,-44.54 C 43.2347,-46.516 45.5627,-48.9747 45.5627,-48.9747 Z M 31.4853,-24.3333 C 31.4853,-24.3333 28.752,-26.6733 31.9013,-28.7133 C 33.2133,-29.5613 34.7333,-28.9693 36.068,-27.9773 C 36.932,-27.3387 36.9613,-27.356 36.2573,-28.2693 C 35.3067,-29.5467 34.6707,-30.8107 35.4387,-32.1027 C 37.3627,-35.3267 39.6467,-32.6493 39.6467,-32.6493 C 39.6467,-32.6493 41.8573,-35.0773 43.9293,-32.5307 C 44.88,-31.3573 44.1533,-29.6053 42.9387,-28.1133 C 42.336,-27.3773 42.5013,-27.232 43.196,-27.876 C 44.532,-29.1147 46.2067,-29.6107 47.572,-28.6747 C 50.7133,-26.5173 47.8733,-24.2187 47.8733,-24.2187 C 47.8733,-24.2187 50.276,-21.804 47.5573,-19.872 C 46.644,-19.2213 45.4147,-19.484 44.2867,-20.268 C 43.6067,-20.74 43.568,-20.7373 44.02,-19.9573 C 44.5733,-19 44.68,-17.9267 44.3187,-17.0107 C 42.892,-13.3947 39.868,-16.4707 39.868,-16.4707 C 39.868,-16.4707 37.4933,-14.0053 35.3387,-16.6773 C 34.6467,-17.5347 34.8187,-18.84 35.6493,-19.9987 C 36.264,-20.8587 36.3347,-21.092 35.2653,-20.2107 C 34.1413,-19.2893 32.7147,-19.1947 31.7813,-19.8987 C 29.1573,-21.8747 31.4853,-24.3333 31.4853,-24.3333 Z M 22.2387,-3.628 C 21.288,-4.908 20.652,-6.16933 21.42,-7.46 C 23.344,-10.684 25.628,-8.00667 25.628,-8.00667 C 25.628,-8.00667 27.8387,-10.4387 29.9107,-7.88933 C 30.8613,-6.716 30.1347,-4.96667 28.9173,-3.47067 C 28.3173,-2.736 28.4827,-2.59067 29.1773,-3.23467 C 30.5133,-4.47333 32.1853,-4.972 33.5533,-4.032 C 36.6947,-1.876 33.8547,0.424 33.8547,0.424 C 33.8547,0.424 36.2573,2.83733 33.5387,4.76667 C 32.6253,5.41733 31.396,5.15733 30.268,4.37467 C 29.588,3.90133 29.5493,3.904 30.0013,4.684 C 30.5547,5.64267 30.6573,6.71467 30.2973,7.628 C 28.8733,11.248 25.8507,8.172 25.8507,8.172 C 25.8507,8.172 23.4747,10.636 21.32,7.964 C 20.628,7.108 20.8,5.79867 21.6307,4.64 C 22.2453,3.78267 22.3133,3.54933 21.2467,4.428 C 20.1227,5.352 18.696,5.444 17.7627,4.74133 C 15.1387,2.76667 17.464,0.308 17.464,0.308 C 17.464,0.308 14.7333,-2.032 17.884,-4.07067 C 19.196,-4.91867 20.7147,-4.328 22.0493,-3.33867 C 22.9133,-2.69733 22.9427,-2.71467 22.2387,-3.628 Z M 73.9547,-44.2027 C 71.3307,-46.18 73.6587,-48.6387 73.6587,-48.6387 C 73.6587,-48.6387 70.9253,-50.9787 74.076,-53.0173 C 75.388,-53.8653 76.9067,-53.2747 78.2427,-52.2813 C 79.108,-51.644 79.1347,-51.6613 78.4307,-52.5747 C 77.48,-53.8507 76.844,-55.116 77.6133,-56.4067 C 79.536,-59.6307 81.8213,-56.9533 81.8213,-56.9533 C 81.8213,-56.9533 84.0347,-59.3827 86.1027,-56.832 C 87.0573,-55.66 86.3267,-53.9107 85.112,-52.4173 C 84.5133,-51.6813 84.6747,-51.5373 85.3693,-52.1813 C 86.7053,-53.42 88.3773,-53.916 89.7467,-52.9787 C 92.8867,-50.8227 90.048,-48.5227 90.048,-48.5227 C 90.048,-48.5227 92.4493,-46.1093 89.7307,-44.176 C 88.8187,-43.5267 87.5893,-43.7893 86.46,-44.572 C 85.78,-45.0453 85.7413,-45.0427 86.1947,-44.2613 C 86.7467,-43.304 86.8507,-42.232 86.492,-41.316 C 85.0653,-37.6987 82.0427,-40.7747 82.0427,-40.7747 C 82.0427,-40.7747 79.6667,-38.3107 77.512,-40.9813 C 76.8213,-41.8387 76.992,-43.1453 77.8227,-44.304 C 78.4373,-45.1627 78.508,-45.3973 77.4387,-44.516 C 76.3187,-43.5947 74.888,-43.5 73.9547,-44.2027 Z M 58.432,-24.3333 C 58.432,-24.3333 55.7013,-26.6733 58.852,-28.7133 C 60.164,-29.5613 61.6827,-28.9693 63.0187,-27.9773 C 63.8813,-27.3387 63.9107,-27.356 63.2067,-28.2693 C 62.256,-29.5467 61.62,-30.8107 62.388,-32.1027 C 64.312,-35.3267 66.596,-32.6493 66.596,-32.6493 C 66.596,-32.6493 68.8067,-35.0773 70.8787,-32.5307 C 71.8293,-31.3573 71.1027,-29.6053 69.8853,-28.1133 C 69.2853,-27.3773 69.4507,-27.232 70.1453,-27.876 C 71.4813,-29.1147 73.1533,-29.6107 74.5213,-28.6747 C 77.6627,-26.5173 74.8227,-24.2187 74.8227,-24.2187 C 74.8227,-24.2187 77.2253,-21.804 74.5067,-19.872 C 73.5933,-19.2213 72.3653,-19.484 71.236,-20.268 C 70.556,-20.74 70.5173,-20.7373 70.9693,-19.9573 C 71.5227,-19 71.6253,-17.9267 71.2653,-17.0107 C 69.8413,-13.3947 66.8187,-16.4707 66.8187,-16.4707 C 66.8187,-16.4707 64.4427,-14.0053 62.288,-16.6773 C 61.5973,-17.5347 61.768,-18.84 62.5987,-19.9987 C 63.2133,-20.8587 63.284,-21.092 62.2147,-20.2107 C 61.092,-19.2893 59.664,-19.1947 58.7307,-19.8987 C 56.1067,-21.8747 58.432,-24.3333 58.432,-24.3333 Z M -34.5267,51.4827 C -35.6493,52.4053 -37.076,52.5 -38.0107,51.796 C -40.6347,49.8187 -38.3093,47.36 -38.3093,47.36 C -38.3093,47.36 -41.0427,45.02 -37.8893,42.9813 C -36.58,42.1333 -35.0613,42.724 -33.7253,43.7147 C -32.86,44.356 -32.8333,44.3373 -33.536,43.424 C -34.488,42.148 -35.12,40.8827 -34.352,39.592 C -32.4307,36.368 -30.1467,39.0453 -30.1467,39.0453 C -30.1467,39.0453 -27.9333,36.616 -25.8627,39.164 C -24.9107,40.336 -25.6413,42.0853 -26.8547,43.5813 C -27.4547,44.3173 -27.292,44.4613 -26.5987,43.8173 C -25.26,42.58 -23.5867,42.0827 -22.2213,43.02 C -19.08,45.1773 -21.9173,47.476 -21.9173,47.476 C -21.9173,47.476 -19.5173,49.8907 -22.236,51.8227 C -23.1493,52.4693 -24.3787,52.2093 -25.508,51.4267 C -26.188,50.9533 -26.2227,50.9573 -25.7707,51.7373 C -25.2187,52.6947 -25.1147,53.7667 -25.4747,54.68 C -26.9027,58.3 -29.9253,55.224 -29.9253,55.224 C -29.9253,55.224 -32.3013,57.688 -34.456,55.0173 C -35.144,54.16 -34.976,52.8547 -34.1453,51.6933 C -33.5307,50.836 -33.46,50.6027 -34.5267,51.4827 Z M 45.5627,0.308 C 45.5627,0.308 42.8293,-2.032 45.98,-4.07067 C 47.292,-4.91867 48.8107,-4.328 50.1467,-3.33867 C 51.0093,-2.69733 51.0387,-2.71467 50.3347,-3.628 C 49.384,-4.908 48.748,-6.16933 49.5173,-7.46 C 51.44,-10.684 53.724,-8.00667 53.724,-8.00667 C 53.724,-8.00667 55.9347,-10.4387 58.0067,-7.88933 C 58.9573,-6.716 58.2307,-4.96667 57.0133,-3.47067 C 56.4133,-2.736 56.5787,-2.59067 57.2733,-3.23467 C 58.6093,-4.47333 60.2813,-4.972 61.6493,-4.032 C 64.7907,-1.876 61.9507,0.424 61.9507,0.424 C 61.9507,0.424 64.3533,2.83733 61.6347,4.76667 C 60.7227,5.41733 59.4933,5.15733 58.364,4.37467 C 57.684,3.90133 57.6453,3.904 58.0973,4.684 C 58.6507,5.64267 58.7533,6.71467 58.3933,7.628 C 56.9693,11.248 53.9467,8.172 53.9467,8.172 C 53.9467,8.172 51.5707,10.636 49.416,7.964 C 48.7253,7.108 48.896,5.79867 49.7267,4.64 C 50.3413,3.78267 50.4093,3.54933 49.3427,4.428 C 48.22,5.352 46.792,5.444 45.8587,4.74133 C 43.2347,2.76667 45.5627,0.308 45.5627,0.308 Z M 105.608,-40.9813 C 104.917,-41.8387 105.088,-43.1453 105.919,-44.304 C 106.533,-45.1627 106.604,-45.3973 105.535,-44.516 C 104.415,-43.5947 102.984,-43.5 102.051,-44.2027 C 99.4267,-46.18 101.755,-48.6387 101.755,-48.6387 C 101.755,-48.6387 99.0213,-50.9787 102.172,-53.0173 C 103.484,-53.8653 105.003,-53.2747 106.339,-52.2813 C 107.204,-51.644 107.231,-51.6613 106.528,-52.5747 C 105.576,-53.8507 104.94,-55.116 105.712,-56.4067 C 107.632,-59.6307 109.917,-56.9533 109.917,-56.9533 C 109.917,-56.9533 112.131,-59.3827 114.199,-56.832 C 115.153,-55.66 114.423,-53.9107 113.209,-52.4173 C 112.605,-51.6813 112.772,-51.5373 113.465,-52.1813 C 114.801,-53.42 116.477,-53.916 117.843,-52.9787 C 120.983,-50.8227 118.144,-48.5227 118.144,-48.5227 C 118.144,-48.5227 120.545,-46.1093 117.828,-44.176 C 116.915,-43.5267 115.685,-43.7893 114.556,-44.572 C 113.876,-45.0453 113.839,-45.0427 114.291,-44.2613 C 114.843,-43.304 114.947,-42.232 114.589,-41.316 C 113.161,-37.6987 110.139,-40.7747 110.139,-40.7747 C 110.139,-40.7747 107.763,-38.3107 105.608,-40.9813 Z M -52.0293,76.4347 C -54.6533,74.4613 -52.3267,72.0027 -52.3267,72.0027 C -52.3267,72.0027 -55.0613,69.6627 -51.9107,67.6227 C -50.5987,66.7747 -49.08,67.3653 -47.744,68.356 C -46.8787,68.9973 -46.852,68.98 -47.5547,68.0667 C -48.5067,66.7867 -49.1413,65.5227 -48.3707,64.2333 C -46.4493,61.0093 -44.1653,63.6867 -44.1653,63.6867 C -44.1653,63.6867 -41.952,61.2547 -39.8813,63.8053 C -38.9293,64.9787 -39.6587,66.728 -40.8733,68.2227 C -41.4733,68.9587 -41.3107,69.1 -40.6173,68.46 C -39.2813,67.2187 -37.6053,66.7213 -36.24,67.6613 C -33.0987,69.8187 -35.9387,72.1173 -35.9387,72.1173 C -35.9387,72.1173 -33.536,74.532 -36.2547,76.4613 C -37.168,77.112 -38.3973,76.852 -39.5267,76.0653 C -40.2053,75.596 -40.2413,75.596 -39.792,76.3787 C -39.2373,77.336 -39.1333,78.4093 -39.4933,79.3213 C -40.9213,82.9413 -43.944,79.8653 -43.944,79.8653 C -43.944,79.8653 -46.32,82.3307 -48.4747,79.6587 C -49.1653,78.8013 -48.9947,77.4933 -48.164,76.3347 C -47.5493,75.4773 -47.4787,75.244 -48.548,76.1213 C -49.668,77.0467 -51.0987,77.1387 -52.0293,76.4347 Z M -11.3587,47.36 C -11.3587,47.36 -14.092,45.02 -10.94,42.9813 C -9.63067,42.1333 -8.112,42.724 -6.77333,43.7147 C -5.91067,44.356 -5.884,44.3373 -6.58667,43.424 C -7.53867,42.148 -8.17067,40.8827 -7.40267,39.592 C -5.48133,36.368 -3.19733,39.0453 -3.19733,39.0453 C -3.19733,39.0453 -0.984,36.616 1.08667,39.164 C 2.03867,40.336 1.312,42.0853 0.0946667,43.5813 C -0.505333,44.3173 -0.342667,44.4613 0.352,43.8173 C 1.69067,42.58 3.36267,42.0827 4.728,43.02 C 7.86933,45.1773 5.032,47.476 5.032,47.476 C 5.032,47.476 7.432,49.8907 4.71333,51.8227 C 3.8,52.4693 2.57067,52.2093 1.44133,51.4267 C 0.762667,50.9533 0.724,50.9573 1.176,51.7373 C 1.732,52.6947 1.83467,53.7667 1.47467,54.68 C 0.0466667,58.3 -2.976,55.224 -2.976,55.224 C -2.976,55.224 -5.352,57.688 -7.50533,55.0173 C -8.19467,54.16 -8.02533,52.8547 -7.196,51.6933 C -6.58133,50.836 -6.51067,50.6027 -7.58,51.4827 C -8.7,52.4053 -10.1267,52.5 -11.0613,51.796 C -13.6853,49.8187 -11.3587,47.36 -11.3587,47.36 Z M 36.2573,20.34 C 35.3067,19.06 34.6707,17.7987 35.4387,16.508 C 37.3627,13.284 39.6467,15.9613 39.6467,15.9613 C 39.6467,15.9613 41.8573,13.532 43.9293,16.0787 C 44.88,17.252 44.1533,19.0013 42.9387,20.4973 C 42.336,21.232 42.5013,21.3773 43.196,20.7333 C 44.532,19.492 46.2067,18.996 47.572,19.9347 C 50.7133,22.092 47.8733,24.392 47.8733,24.392 C 47.8733,24.392 50.276,26.8053 47.5573,28.7347 C 46.644,29.3853 45.4147,29.1253 44.2867,28.3427 C 43.6067,27.8693 43.568,27.872 44.02,28.652 C 44.5733,29.6093 44.68,30.6827 44.3187,31.596 C 42.892,35.216 39.868,32.14 39.868,32.14 C 39.868,32.14 37.4933,34.604 35.3387,31.932 C 34.6467,31.076 34.8187,29.7693 35.6493,28.608 C 36.264,27.7507 36.3347,27.5173 35.2653,28.396 C 34.1413,29.32 32.7147,29.412 31.7813,28.712 C 29.1573,26.7347 31.4853,24.276 31.4853,24.276 C 31.4853,24.276 28.752,21.936 31.9013,19.8973 C 33.2133,19.0493 34.7333,19.64 36.068,20.6293 C 36.932,21.2707 36.9613,21.2533 36.2573,20.34 Z M 91.3893,-16.34 C 90.6973,-17.1973 90.8693,-18.5027 91.6987,-19.664 C 92.3133,-20.5213 92.3813,-20.7547 91.3147,-19.8773 C 90.192,-18.952 88.7653,-18.8613 87.8307,-19.5613 C 85.2067,-21.5387 87.5333,-23.996 87.5333,-23.996 C 87.5333,-23.996 84.8027,-26.3373 87.952,-28.376 C 89.264,-29.224 90.7827,-28.6333 92.1187,-27.6427 C 92.9813,-27.0013 93.0107,-27.02 92.308,-27.9333 C 91.356,-29.212 90.7213,-30.4733 91.4893,-31.7653 C 93.4133,-34.9893 95.6973,-32.312 95.6973,-32.312 C 95.6973,-32.312 97.908,-34.744 99.9787,-32.1933 C 100.931,-31.02 100.204,-29.2707 98.9867,-27.776 C 98.3867,-27.04 98.552,-26.896 99.2467,-27.54 C 100.581,-28.7773 102.255,-29.2773 103.623,-28.3373 C 106.764,-26.18 103.924,-23.8813 103.924,-23.8813 C 103.924,-23.8813 106.327,-21.4667 103.605,-19.5347 C 102.692,-18.888 101.463,-19.148 100.333,-19.9307 C 99.6573,-20.404 99.6187,-20.4 100.071,-19.62 C 100.624,-18.6627 100.727,-17.5907 100.367,-16.6773 C 98.9413,-13.0573 95.9187,-16.1333 95.9187,-16.1333 C 95.9187,-16.1333 93.5427,-13.6693 91.3893,-16.34 Z M 73.9547,5.07733 C 71.3307,3.104 73.6587,0.642667 73.6587,0.642667 C 73.6587,0.642667 70.9253,-1.69467 74.076,-3.73467 C 75.388,-4.58533 76.9067,-3.99067 78.2427,-3.00133 C 79.108,-2.36 79.1347,-2.38133 78.4307,-3.29067 C 77.48,-4.57067 76.844,-5.83467 77.6133,-7.124 C 79.536,-10.348 81.8213,-7.67067 81.8213,-7.67067 C 81.8213,-7.67067 84.0347,-10.1027 86.1027,-7.552 C 87.0573,-6.37867 86.3267,-4.62933 85.112,-3.13733 C 84.5133,-2.39867 84.6747,-2.25733 85.3693,-2.90133 C 86.7053,-4.13867 88.3773,-4.636 89.7467,-3.696 C 92.8867,-1.53867 90.048,0.76 90.048,0.76 C 90.048,0.76 92.4493,3.17467 89.7307,5.104 C 88.8187,5.75467 87.5893,5.49467 86.46,4.708 C 85.78,4.236 85.7413,4.24133 86.1947,5.02133 C 86.7467,5.976 86.8507,7.048 86.492,7.964 C 85.0653,11.584 82.0427,8.50533 82.0427,8.50533 C 82.0427,8.50533 79.6667,10.9693 77.512,8.30133 C 76.8213,7.444 76.992,6.136 77.8227,4.97733 C 78.4373,4.11733 78.508,3.88667 77.4387,4.764 C 76.3187,5.68933 74.888,5.78133 73.9547,5.07733 Z M -66.2507,101.076 C -68.8747,99.1 -66.5467,96.6413 -66.5467,96.6413 C -66.5467,96.6413 -69.28,94.304 -66.1307,92.2613 C -64.8187,91.4133 -63.2987,92.0053 -61.964,92.9947 C -61.1013,93.636 -61.0707,93.6187 -61.7747,92.708 C -62.7253,91.428 -63.3613,90.164 -62.5933,88.872 C -60.6693,85.648 -58.3853,88.3253 -58.3853,88.3253 C -58.3853,88.3253 -56.1747,85.8973 -54.1027,88.4467 C -53.152,89.62 -53.8787,91.3693 -55.096,92.8613 C -55.696,93.5973 -55.5307,93.7427 -54.836,93.0987 C -53.5,91.86 -51.828,91.364 -50.46,92.3027 C -47.3187,94.4573 -50.1587,96.756 -50.1587,96.756 C -50.1587,96.756 -47.756,99.1707 -50.4747,101.103 C -51.3907,101.753 -52.6173,101.491 -53.7453,100.707 C -54.4253,100.235 -54.464,100.237 -54.012,101.017 C -53.4587,101.975 -53.356,103.048 -53.716,103.964 C -55.14,107.58 -58.164,104.504 -58.164,104.504 C -58.164,104.504 -60.5387,106.969 -62.6933,104.297 C -63.3853,103.44 -63.2133,102.135 -62.3827,100.973 C -61.768,100.116 -61.7,99.8853 -62.768,100.764 C -63.8907,101.688 -65.3173,101.78 -66.2507,101.076 Z M -23.9333,76.4347 C -26.5573,74.4613 -24.2307,72.0027 -24.2307,72.0027 C -24.2307,72.0027 -26.964,69.6627 -23.812,67.6227 C -22.5027,66.7747 -20.984,67.3653 -19.648,68.356 C -18.7827,68.9973 -18.756,68.98 -19.4587,68.0667 C -20.4107,66.7867 -21.0427,65.5227 -20.2747,64.2333 C -18.3533,61.0093 -16.0693,63.6867 -16.0693,63.6867 C -16.0693,63.6867 -13.856,61.2547 -11.7853,63.8053 C -10.8333,64.9787 -11.56,66.728 -12.7773,68.2227 C -13.3773,68.9587 -13.2147,69.1 -12.52,68.46 C -11.1853,67.2187 -9.50933,66.7213 -8.144,67.6613 C -5.00267,69.8187 -7.84,72.1173 -7.84,72.1173 C -7.84,72.1173 -5.44,74.532 -8.15867,76.4613 C -9.072,77.112 -10.3013,76.852 -11.4307,76.0653 C -12.1093,75.596 -12.148,75.596 -11.696,76.3787 C -11.14,77.336 -11.0373,78.4093 -11.3973,79.3213 C -12.8253,82.9413 -15.848,79.8653 -15.848,79.8653 C -15.848,79.8653 -18.224,82.3307 -20.3773,79.6587 C -21.0693,78.8013 -20.8973,77.4933 -20.068,76.3347 C -19.4533,75.4773 -19.3827,75.244 -20.452,76.1213 C -21.572,77.0467 -22.9987,77.1387 -23.9333,76.4347 Z M 19.1547,52.5707 C 16.5307,50.5933 18.856,48.1347 18.856,48.1347 C 18.856,48.1347 16.1253,45.7947 19.2747,43.756 C 20.584,42.908 22.1027,43.4987 23.4413,44.488 C 24.304,45.1293 24.3307,45.112 23.6307,44.1987 C 22.676,42.9187 22.044,41.6573 22.812,40.3667 C 24.7333,37.1427 27.0173,39.82 27.0173,39.82 C 27.0173,39.82 29.2307,37.3907 31.3027,39.9373 C 32.2533,41.1107 31.5267,42.86 30.3093,44.356 C 29.7093,45.0907 29.872,45.236 30.5667,44.592 C 31.9053,43.3533 33.5773,42.8547 34.9453,43.7933 C 38.084,45.9507 35.2467,48.2507 35.2467,48.2507 C 35.2467,48.2507 37.6467,50.664 34.928,52.5973 C 34.0147,53.244 32.788,52.984 31.66,52.2013 C 30.98,51.728 30.9413,51.7307 31.3907,52.5107 C 31.9467,53.468 32.0493,54.5413 31.6893,55.4547 C 30.2613,59.0747 27.2387,55.9987 27.2387,55.9987 C 27.2387,55.9987 24.8667,58.4627 22.712,55.7907 C 22.02,54.9347 22.1893,53.628 23.0227,52.4667 C 23.6373,51.6093 23.7053,51.376 22.6387,52.2547 C 21.5147,53.1787 20.088,53.2733 19.1547,52.5707 Z M 58.7307,28.712 C 56.1067,26.7347 58.432,24.276 58.432,24.276 C 58.432,24.276 55.7013,21.936 58.852,19.8973 C 60.164,19.0493 61.6827,19.64 63.0187,20.6293 C 63.8813,21.2707 63.9107,21.2533 63.2067,20.34 C 62.256,19.06 61.62,17.7987 62.388,16.508 C 64.312,13.284 66.596,15.9613 66.596,15.9613 C 66.596,15.9613 68.8067,13.532 70.8787,16.0787 C 71.8293,17.252 71.1027,19.0013 69.8853,20.4973 C 69.2853,21.232 69.4507,21.3773 70.1453,20.7333 C 71.4813,19.492 73.1533,18.996 74.5213,19.9347 C 77.6627,22.092 74.8227,24.392 74.8227,24.392 C 74.8227,24.392 77.2253,26.8053 74.5067,28.7347 C 73.5933,29.3853 72.3653,29.1253 71.236,28.3427 C 70.556,27.8693 70.5173,27.872 70.9693,28.652 C 71.5227,29.6093 71.6253,30.6827 71.2653,31.596 C 69.8413,35.216 66.8187,32.14 66.8187,32.14 C 66.8187,32.14 64.4427,34.604 62.288,31.932 C 61.5973,31.076 61.768,29.7693 62.5987,28.608 C 63.2133,27.7507 63.284,27.5173 62.2147,28.396 C 61.092,29.32 59.664,29.412 58.7307,28.712 Z M 51.0507,40.3667 C 52.9747,37.1427 55.2587,39.82 55.2587,39.82 C 55.2587,39.82 57.468,37.3907 59.54,39.9373 C 60.492,41.1107 59.764,42.86 58.5507,44.356 C 57.9467,45.0907 58.1133,45.236 58.8067,44.592 C 60.1427,43.3533 61.8187,42.8547 63.184,43.7933 C 66.3253,45.9507 63.4853,48.2507 63.4853,48.2507 C 63.4853,48.2507 65.888,50.664 63.1693,52.5973 C 62.256,53.244 61.0267,52.984 59.8973,52.2013 C 59.2173,51.728 59.18,51.7307 59.632,52.5107 C 60.184,53.468 60.2907,54.5413 59.9307,55.4547 C 58.5027,59.0747 55.48,55.9987 55.48,55.9987 C 55.48,55.9987 53.104,58.4627 50.9493,55.7907 C 50.2587,54.9347 50.4293,53.628 51.26,52.4667 C 51.8747,51.6093 51.9453,51.376 50.876,52.2547 C 49.7533,53.1787 48.3253,53.2733 47.392,52.5707 C 44.768,50.5933 47.096,48.1347 47.096,48.1347 C 47.096,48.1347 44.3627,45.7947 47.5133,43.756 C 48.8253,42.908 50.344,43.4987 51.68,44.488 C 52.5427,45.1293 52.572,45.112 51.8693,44.1987 C 50.9173,42.9187 50.2827,41.6573 51.0507,40.3667 Z M 92.308,20.6747 C 91.356,19.3973 90.7213,18.1333 91.4893,16.844 C 93.4133,13.62 95.6973,16.2973 95.6973,16.2973 C 95.6973,16.2973 97.908,13.8653 99.9787,16.416 C 100.931,17.5893 100.204,19.3387 98.9867,20.8307 C 98.3867,21.5693 98.552,21.7107 99.2467,21.0707 C 100.581,19.8293 102.255,19.332 103.623,20.272 C 106.764,22.4293 103.924,24.7253 103.924,24.7253 C 103.924,24.7253 106.327,27.1427 103.608,29.072 C 102.695,29.7227 101.465,29.4627 100.337,28.676 C 99.6573,28.204 99.6187,28.2067 100.071,28.9867 C 100.624,29.944 100.727,31.016 100.367,31.932 C 98.9413,35.552 95.9187,32.4733 95.9187,32.4733 C 95.9187,32.4733 93.5427,34.9413 91.3893,32.2667 C 90.6973,31.412 90.8693,30.104 91.6987,28.9453 C 92.3133,28.088 92.3813,27.8547 91.3147,28.732 C 90.192,29.6573 88.7653,29.7493 87.8307,29.0453 C 85.2067,27.072 87.536,24.6133 87.536,24.6133 C 87.536,24.6133 84.8027,22.2733 87.952,20.2333 C 89.264,19.3853 90.7827,19.9733 92.1187,20.9667 C 92.9813,21.608 93.0107,21.5867 92.308,20.6747 Z M -38.0107,101.076 C -40.6347,99.1 -38.3093,96.6413 -38.3093,96.6413 C -38.3093,96.6413 -41.0427,94.304 -37.8893,92.2613 C -36.58,91.4133 -35.0613,92.0053 -33.7253,92.9947 C -32.86,93.636 -32.8333,93.6187 -33.536,92.708 C -34.488,91.428 -35.12,90.164 -34.352,88.872 C -32.4307,85.648 -30.1467,88.3253 -30.1467,88.3253 C -30.1467,88.3253 -27.9333,85.8973 -25.8627,88.4467 C -24.9107,89.62 -25.6413,91.3693 -26.8547,92.8613 C -27.4547,93.5973 -27.292,93.7427 -26.5987,93.0987 C -25.26,91.86 -23.5867,91.364 -22.2213,92.3027 C -19.08,94.4573 -21.9173,96.756 -21.9173,96.756 C -21.9173,96.756 -19.5173,99.1707 -22.236,101.103 C -23.1493,101.753 -24.3787,101.491 -25.508,100.707 C -26.188,100.235 -26.2227,100.237 -25.7707,101.017 C -25.2187,101.975 -25.1147,103.048 -25.4747,103.964 C -26.9027,107.58 -29.9253,104.504 -29.9253,104.504 C -29.9253,104.504 -32.3013,106.969 -34.456,104.297 C -35.144,103.44 -34.976,102.135 -34.1453,100.973 C -33.5307,100.116 -33.46,99.8853 -34.5267,100.764 C -35.6493,101.688 -37.076,101.78 -38.0107,101.076 Z M 5.27733,77.2093 C 2.65333,75.2347 4.97867,72.776 4.97867,72.776 C 4.97867,72.776 2.248,70.436 5.39867,68.3973 C 6.71067,67.5467 8.22933,68.14 9.56533,69.1307 C 10.428,69.772 10.4573,69.7533 9.75467,68.84 C 8.80267,67.5613 8.168,66.296 8.936,65.008 C 10.86,61.784 13.144,64.4613 13.144,64.4613 C 13.144,64.4613 15.3533,62.0293 17.4253,64.58 C 18.3773,65.752 17.6493,67.5013 16.432,68.9947 C 15.832,69.7333 15.9987,69.8747 16.692,69.2333 C 18.028,67.992 19.7013,67.496 21.0693,68.436 C 24.2107,70.5933 21.3707,72.892 21.3707,72.892 C 21.3707,72.892 23.7693,75.3067 21.0547,77.236 C 20.1387,77.8853 18.912,77.6253 17.7827,76.84 C 17.1027,76.3693 17.0653,76.3733 17.5173,77.1533 C 18.0693,78.108 18.1733,79.18 17.812,80.096 C 16.388,83.716 13.3653,80.6373 13.3653,80.6373 C 13.3653,80.6373 10.9893,83.104 8.83467,80.4333 C 8.144,79.576 8.31467,78.2667 9.14533,77.108 C 9.76,76.252 9.83067,76.0187 8.76133,76.896 C 7.63867,77.8213 6.21067,77.912 5.27733,77.2093 Z M 78.8187,44.1987 C 77.8667,42.9187 77.232,41.6573 78,40.3667 C 79.924,37.1427 82.208,39.82 82.208,39.82 C 82.208,39.82 84.4213,37.3907 86.4893,39.9373 C 87.4413,41.1107 86.7147,42.86 85.4973,44.356 C 84.8973,45.0907 85.0627,45.236 85.7573,44.592 C 87.092,43.3533 88.7653,42.8547 90.1333,43.7933 C 93.2747,45.9507 90.4347,48.2507 90.4347,48.2507 C 90.4347,48.2507 92.8373,50.664 90.1187,52.5973 C 89.2053,53.244 87.976,52.984 86.8467,52.2013 C 86.168,51.728 86.1293,51.7307 86.5813,52.5107 C 87.1333,53.468 87.24,54.5413 86.8773,55.4547 C 85.452,59.0747 82.4293,55.9987 82.4293,55.9987 C 82.4293,55.9987 80.0533,58.4627 77.9,55.7907 C 77.208,54.9347 77.38,53.628 78.2093,52.4667 C 78.824,51.6093 78.8947,51.376 77.8253,52.2547 C 76.7027,53.1787 75.276,53.2733 74.3413,52.5707 C 71.7173,50.5933 74.0467,48.1347 74.0467,48.1347 C 74.0467,48.1347 71.3133,45.7947 74.4627,43.756 C 75.7747,42.908 77.2933,43.4987 78.6293,44.488 C 79.492,45.1293 79.5213,45.112 78.8187,44.1987 Z M 115.773,24.6133 C 115.773,24.6133 113.04,22.2733 116.191,20.2333 C 117.503,19.3853 119.021,19.9733 120.357,20.9667 C 121.223,21.608 121.249,21.5867 120.545,20.6747 C 119.595,19.3973 118.959,18.1333 119.731,16.844 C 121.651,13.62 123.936,16.2973 123.936,16.2973 C 123.936,16.2973 126.148,13.8653 128.217,16.416 C 129.172,17.5893 128.441,19.3387 127.227,20.8307 C 126.628,21.5693 126.789,21.7107 127.484,21.0707 C 128.82,19.8293 130.496,19.332 131.86,20.272 C 135.001,22.4293 132.163,24.7253 132.163,24.7253 C 132.163,24.7253 134.564,27.1427 131.845,29.072 C 130.933,29.7227 129.704,29.4627 128.575,28.676 C 127.895,28.204 127.856,28.2067 128.309,28.9867 C 128.861,29.944 128.968,31.016 128.607,31.932 C 127.18,35.552 124.157,32.4733 124.157,32.4733 C 124.157,32.4733 121.781,34.9413 119.627,32.2667 C 118.936,31.412 119.107,30.104 119.937,28.9453 C 120.552,28.088 120.623,27.8547 119.556,28.732 C 118.433,29.6573 117.003,29.7493 116.069,29.0453 C 113.445,27.072 115.773,24.6133 115.773,24.6133 Z M -52.3267,121.283 C -52.3267,121.283 -55.0613,118.943 -51.9107,116.904 C -50.5987,116.056 -49.08,116.647 -47.744,117.636 C -46.8787,118.277 -46.852,118.26 -47.5547,117.347 C -48.5067,116.067 -49.1413,114.805 -48.3707,113.515 C -46.4493,110.291 -44.1653,112.968 -44.1653,112.968 C -44.1653,112.968 -41.952,110.539 -39.8813,113.085 C -38.9293,114.259 -39.6587,116.008 -40.8733,117.504 C -41.4733,118.239 -41.3107,118.384 -40.6173,117.74 C -39.2813,116.501 -37.6053,116.005 -36.24,116.941 C -33.0987,119.099 -35.9387,121.399 -35.9387,121.399 C -35.9387,121.399 -33.536,123.812 -36.2547,125.745 C -37.168,126.392 -38.3973,126.132 -39.5267,125.349 C -40.2053,124.876 -40.2413,124.879 -39.792,125.659 C -39.2373,126.616 -39.1333,127.689 -39.4933,128.603 C -40.9213,132.223 -43.944,129.147 -43.944,129.147 C -43.944,129.147 -46.32,131.611 -48.4747,128.939 C -49.1653,128.083 -48.9947,126.776 -48.164,125.615 C -47.5493,124.757 -47.4787,124.524 -48.548,125.405 C -49.668,126.327 -51.0987,126.421 -52.0293,125.719 C -54.6533,123.741 -52.3267,121.283 -52.3267,121.283 Z M -11.0613,101.076 C -13.6853,99.1 -11.3587,96.6413 -11.3587,96.6413 C -11.3587,96.6413 -14.092,94.304 -10.94,92.2613 C -9.63067,91.4133 -8.112,92.0053 -6.77333,92.9947 C -5.91067,93.636 -5.884,93.6187 -6.58667,92.708 C -7.53867,91.428 -8.17067,90.164 -7.40267,88.872 C -5.48133,85.648 -3.19733,88.3253 -3.19733,88.3253 C -3.19733,88.3253 -0.984,85.8973 1.08667,88.4467 C 2.03867,89.62 1.312,91.3693 0.0946667,92.8613 C -0.505333,93.5973 -0.342667,93.7427 0.352,93.0987 C 1.69067,91.86 3.36267,91.364 4.728,92.3027 C 7.86933,94.4573 5.032,96.756 5.032,96.756 C 5.032,96.756 7.432,99.1707 4.71333,101.103 C 3.8,101.753 2.57067,101.491 1.44133,100.707 C 0.762667,100.235 0.724,100.237 1.176,101.017 C 1.732,101.975 1.83467,103.048 1.47467,103.964 C 0.0466667,107.58 -2.976,104.504 -2.976,104.504 C -2.976,104.504 -5.352,106.969 -7.50533,104.297 C -8.19467,103.44 -8.02533,102.135 -7.196,100.973 C -6.58133,100.116 -6.51067,99.8853 -7.58,100.764 C -8.7,101.688 -10.1267,101.78 -11.0613,101.076 Z M 33.3733,77.2093 C 30.7493,75.2347 33.0787,72.776 33.0787,72.776 C 33.0787,72.776 30.344,70.436 33.4947,68.3973 C 34.8067,67.5467 36.3253,68.14 37.6613,69.1307 C 38.524,69.772 38.5533,69.7533 37.8507,68.84 C 36.8987,67.5613 36.264,66.296 37.032,65.008 C 38.956,61.784 41.24,64.4613 41.24,64.4613 C 41.24,64.4613 43.4507,62.0293 45.5213,64.58 C 46.4733,65.752 45.7467,67.5013 44.528,68.9947 C 43.9293,69.7333 44.0947,69.8747 44.7893,69.2333 C 46.124,67.992 47.7973,67.496 49.1653,68.436 C 52.3067,70.5933 49.4667,72.892 49.4667,72.892 C 49.4667,72.892 51.8693,75.3067 49.1507,77.236 C 48.2347,77.8853 47.008,77.6253 45.8787,76.84 C 45.2,76.3693 45.1613,76.3733 45.6133,77.1533 C 46.1653,78.108 46.2693,79.18 45.908,80.096 C 44.484,83.716 41.4613,80.6373 41.4613,80.6373 C 41.4613,80.6373 39.0853,83.104 36.932,80.4333 C 36.24,79.576 36.4107,78.2667 37.2413,77.108 C 37.856,76.252 37.924,76.0187 36.8573,76.896 C 35.7347,77.8213 34.3067,77.912 33.3733,77.2093 Z M 142.723,24.6133 C 142.723,24.6133 139.989,22.2733 143.14,20.2333 C 144.452,19.3853 145.971,19.9733 147.307,20.9667 C 148.172,21.608 148.199,21.5867 147.496,20.6747 C 146.544,19.3973 145.909,18.1333 146.68,16.844 C 148.601,13.62 150.885,16.2973 150.885,16.2973 C 150.885,16.2973 153.099,13.8653 155.167,16.416 C 156.121,17.5893 155.391,19.3387 154.177,20.8307 C 153.577,21.5693 153.74,21.7107 154.433,21.0707 C 155.769,19.8293 157.445,19.332 158.811,20.272 C 161.952,22.4293 159.112,24.7253 159.112,24.7253 C 159.112,24.7253 161.515,27.1427 158.796,29.072 C 157.883,29.7227 156.653,29.4627 155.524,28.676 C 154.844,28.204 154.807,28.2067 155.259,28.9867 C 155.811,29.944 155.917,31.016 155.557,31.932 C 154.129,35.552 151.107,32.4733 151.107,32.4733 C 151.107,32.4733 148.731,34.9413 146.576,32.2667 C 145.885,31.412 146.056,30.104 146.887,28.9453 C 147.501,28.088 147.572,27.8547 146.503,28.732 C 145.383,29.6573 143.956,29.7493 143.019,29.0453 C 140.395,27.072 142.723,24.6133 142.723,24.6133 Z M 23.6307,93.4787 C 22.676,92.2027 22.044,90.9387 22.812,89.6467 C 24.7333,86.4227 27.0173,89.1027 27.0173,89.1027 C 27.0173,89.1027 29.2307,86.6707 31.3027,89.2213 C 32.2533,90.392 31.5267,92.144 30.3093,93.636 C 29.7093,94.372 29.872,94.516 30.5667,93.872 C 31.9053,92.6347 33.5773,92.1373 34.9453,93.0747 C 38.084,95.2347 35.2467,97.5307 35.2467,97.5307 C 35.2467,97.5307 37.6467,99.9453 34.928,101.877 C 34.0147,102.528 32.788,102.264 31.66,101.481 C 30.98,101.008 30.9413,101.012 31.3907,101.792 C 31.9467,102.749 32.0493,103.821 31.6893,104.735 C 30.2613,108.355 27.2387,105.279 27.2387,105.279 C 27.2387,105.279 24.8667,107.743 22.712,105.072 C 22.02,104.215 22.1893,102.909 23.0227,101.751 C 23.6373,100.891 23.7053,100.66 22.6387,101.537 C 21.5147,102.463 20.088,102.555 19.1547,101.851 C 16.5307,99.8733 18.856,97.416 18.856,97.416 C 18.856,97.416 16.1253,95.0747 19.2747,93.036 C 20.584,92.188 22.1027,92.7787 23.4413,93.772 C 24.304,94.4107 24.3307,94.392 23.6307,93.4787 Z M 61.4693,77.2093 C 58.8453,75.2347 61.1747,72.776 61.1747,72.776 C 61.1747,72.776 58.4413,70.436 61.5907,68.3973 C 62.9027,67.5467 64.4213,68.14 65.7573,69.1307 C 66.62,69.772 66.6493,69.7533 65.9467,68.84 C 64.992,67.5613 64.36,66.296 65.128,65.008 C 67.052,61.784 69.336,64.4613 69.336,64.4613 C 69.336,64.4613 71.5467,62.0293 73.6173,64.58 C 74.572,65.752 73.8427,67.5013 72.628,68.9947 C 72.028,69.7333 72.1907,69.8747 72.8853,69.2333 C 74.22,67.992 75.8933,67.496 77.2613,68.436 C 80.4027,70.5933 77.5627,72.892 77.5627,72.892 C 77.5627,72.892 79.9653,75.3067 77.2467,77.236 C 76.3333,77.8853 75.104,77.6253 73.9747,76.84 C 73.296,76.3693 73.2573,76.3733 73.7093,77.1533 C 74.2613,78.108 74.3653,79.18 74.0053,80.096 C 72.58,83.716 69.5573,80.6373 69.5573,80.6373 C 69.5573,80.6373 67.1813,83.104 65.028,80.4333 C 64.336,79.576 64.508,78.2667 65.3373,77.108 C 65.952,76.252 66.0227,76.0187 64.9533,76.896 C 63.8333,77.8213 62.404,77.912 61.4693,77.2093 Z M 106.927,52.5907 C 105.804,53.516 104.376,53.608 103.443,52.904 C 100.819,50.9307 103.147,48.472 103.147,48.472 C 103.147,48.472 100.413,46.132 103.564,44.092 C 104.876,43.244 106.395,43.832 107.731,44.8253 C 108.593,45.4667 108.623,45.4493 107.919,44.536 C 106.965,43.256 106.332,41.992 107.101,40.7027 C 109.024,37.4787 111.308,40.156 111.308,40.156 C 111.308,40.156 113.519,37.724 115.591,40.2747 C 116.541,41.448 115.815,43.1973 114.597,44.692 C 113.997,45.428 114.163,45.5693 114.857,44.9293 C 116.193,43.688 117.865,43.1907 119.233,44.1307 C 122.375,46.288 119.536,48.5867 119.536,48.5867 C 119.536,48.5867 121.937,51.0013 119.219,52.9307 C 118.303,53.5813 117.077,53.3213 115.948,52.5347 C 115.268,52.0653 115.229,52.0653 115.683,52.848 C 116.235,53.8053 116.339,54.8747 115.977,55.7907 C 114.553,59.4107 111.531,56.3347 111.531,56.3347 C 111.531,56.3347 109.155,58.8 107,56.128 C 106.309,55.2707 106.48,53.9627 107.311,52.804 C 107.925,51.9467 107.993,51.7133 106.927,52.5907 Z M 171.765,24.9467 C 171.765,24.9467 169.032,22.6067 172.181,20.568 C 173.493,19.72 175.012,20.3107 176.348,21.3 C 177.211,21.9413 177.24,21.924 176.537,21.0107 C 175.585,19.7347 174.951,18.4693 175.721,17.1787 C 177.643,13.9547 179.927,16.6347 179.927,16.6347 C 179.927,16.6347 182.14,14.2027 184.212,16.7533 C 185.163,17.9253 184.433,19.6747 183.219,21.168 C 182.619,21.904 182.781,22.048 183.476,21.404 C 184.811,20.1653 186.487,19.6693 187.852,20.6067 C 190.993,22.7627 188.153,25.0627 188.153,25.0627 C 188.153,25.0627 190.556,27.476 187.837,29.4093 C 186.924,30.0587 185.695,29.796 184.565,29.0133 C 183.887,28.54 183.851,28.5427 184.3,29.324 C 184.852,30.2813 184.959,31.3533 184.599,32.2667 C 183.171,35.8867 180.148,32.8107 180.148,32.8107 C 180.148,32.8107 177.772,35.2747 175.619,32.604 C 174.927,31.7467 175.099,30.44 175.928,29.2813 C 176.543,28.4227 176.615,28.192 175.544,29.0693 C 174.424,29.9947 172.995,30.0853 172.06,29.3827 C 169.44,27.408 171.765,24.9467 171.765,24.9467 Z M -24.2307,121.283 C -24.2307,121.283 -26.964,118.943 -23.812,116.904 C -22.5027,116.056 -20.984,116.647 -19.648,117.636 C -18.7827,118.277 -18.756,118.26 -19.4587,117.347 C -20.4107,116.067 -21.0427,114.805 -20.2747,113.515 C -18.3533,110.291 -16.0693,112.968 -16.0693,112.968 C -16.0693,112.968 -13.856,110.539 -11.7853,113.085 C -10.8333,114.259 -11.56,116.008 -12.7773,117.504 C -13.3773,118.239 -13.2147,118.384 -12.52,117.74 C -11.1853,116.501 -9.50933,116.005 -8.144,116.941 C -5.00267,119.099 -7.84,121.399 -7.84,121.399 C -7.84,121.399 -5.44,123.812 -8.15867,125.745 C -9.072,126.392 -10.3013,126.132 -11.4307,125.349 C -12.1093,124.876 -12.148,124.879 -11.696,125.659 C -11.14,126.616 -11.0373,127.689 -11.3973,128.603 C -12.8253,132.223 -15.848,129.147 -15.848,129.147 C -15.848,129.147 -18.224,131.611 -20.3773,128.939 C -21.0693,128.083 -20.8973,126.776 -20.068,125.615 C -19.4533,124.757 -19.3827,124.524 -20.452,125.405 C -21.572,126.327 -22.9987,126.421 -23.9333,125.719 C -26.5573,123.741 -24.2307,121.283 -24.2307,121.283 Z M 89.2707,73.1107 C 89.2707,73.1107 86.5373,70.7707 89.6867,68.7307 C 90.9987,67.8827 92.5173,68.4747 93.8533,69.4667 C 94.7187,70.1053 94.7453,70.088 94.0427,69.1747 C 93.0907,67.8973 92.456,66.6333 93.2267,65.3413 C 95.148,62.1173 97.432,64.7987 97.432,64.7987 C 97.432,64.7987 99.6453,62.3667 101.713,64.916 C 102.668,66.0893 101.939,67.8387 100.724,69.3307 C 100.124,70.0667 100.287,70.212 100.981,69.568 C 102.316,68.3293 103.992,67.8333 105.357,68.7693 C 108.499,70.9293 105.659,73.2293 105.659,73.2293 C 105.659,73.2293 108.061,75.64 105.343,77.572 C 104.429,78.2227 103.2,77.9627 102.071,77.176 C 101.392,76.704 101.353,76.7067 101.805,77.4893 C 102.357,78.444 102.461,79.5173 102.104,80.4333 C 100.676,84.0493 97.6533,80.9733 97.6533,80.9733 C 97.6533,80.9733 95.2773,83.4387 93.124,80.7667 C 92.432,79.9093 92.604,78.604 93.4333,77.4453 C 94.048,76.5853 94.12,76.3547 93.0493,77.2333 C 91.9293,78.1573 90.5,78.2493 89.5653,77.5453 C 86.9413,75.5693 89.2707,73.1107 89.2707,73.1107 Z M 131.68,52.904 C 129.059,50.9307 131.385,48.472 131.385,48.472 C 131.385,48.472 128.652,46.132 131.804,44.092 C 133.113,43.244 134.632,43.832 135.968,44.8253 C 136.833,45.4667 136.86,45.4493 136.157,44.536 C 135.205,43.256 134.571,41.992 135.341,40.7027 C 137.263,37.4787 139.547,40.156 139.547,40.156 C 139.547,40.156 141.76,37.724 143.828,40.2747 C 144.783,41.448 144.053,43.1973 142.839,44.692 C 142.239,45.428 142.401,45.5693 143.096,44.9293 C 144.431,43.688 146.107,43.1907 147.472,44.1307 C 150.613,46.288 147.773,48.5867 147.773,48.5867 C 147.773,48.5867 150.176,51.0013 147.457,52.9307 C 146.544,53.5813 145.315,53.3213 144.185,52.5347 C 143.507,52.0653 143.471,52.0653 143.92,52.848 C 144.472,53.8053 144.579,54.8747 144.219,55.7907 C 142.791,59.4107 139.768,56.3347 139.768,56.3347 C 139.768,56.3347 137.392,58.8 135.239,56.128 C 134.547,55.2707 134.719,53.9627 135.548,52.804 C 136.163,51.9467 136.235,51.7133 135.167,52.5907 C 134.044,53.516 132.615,53.608 131.68,52.904 Z M 47.096,97.416 C 47.096,97.416 44.3627,95.0747 47.5133,93.036 C 48.8253,92.188 50.344,92.7787 51.68,93.772 C 52.5427,94.4107 52.572,94.392 51.8693,93.4787 C 50.9173,92.2027 50.2827,90.9387 51.0507,89.6467 C 52.9747,86.4227 55.2587,89.1027 55.2587,89.1027 C 55.2587,89.1027 57.468,86.6707 59.54,89.2213 C 60.492,90.392 59.764,92.144 58.5507,93.636 C 57.9467,94.372 58.1133,94.516 58.8067,93.872 C 60.1427,92.6347 61.8187,92.1373 63.184,93.0747 C 66.3253,95.2347 63.4853,97.5307 63.4853,97.5307 C 63.4853,97.5307 65.888,99.9453 63.1693,101.877 C 62.256,102.528 61.0267,102.264 59.8973,101.481 C 59.2173,101.008 59.18,101.012 59.632,101.792 C 60.184,102.749 60.2907,103.821 59.9307,104.735 C 58.5027,108.355 55.48,105.279 55.48,105.279 C 55.48,105.279 53.104,107.743 50.9493,105.072 C 50.2587,104.215 50.4293,102.909 51.26,101.751 C 51.8747,100.891 51.9453,100.66 50.876,101.537 C 49.7533,102.463 48.3253,102.555 47.392,101.851 C 44.768,99.8733 47.096,97.416 47.096,97.416 Z M 122.139,69.1747 C 121.187,67.8973 120.552,66.6333 121.323,65.3413 C 123.244,62.1173 125.528,64.7987 125.528,64.7987 C 125.528,64.7987 127.741,62.3667 129.809,64.916 C 130.764,66.0893 130.035,67.8387 128.82,69.3307 C 128.217,70.0667 128.383,70.212 129.077,69.568 C 130.413,68.3293 132.088,67.8333 133.453,68.7693 C 136.595,70.9293 133.755,73.2293 133.755,73.2293 C 133.755,73.2293 136.157,75.64 133.439,77.572 C 132.525,78.2227 131.296,77.9627 130.168,77.176 C 129.488,76.704 129.449,76.7067 129.901,77.4893 C 130.455,78.444 130.56,79.5173 130.2,80.4333 C 128.773,84.0493 125.749,80.9733 125.749,80.9733 C 125.749,80.9733 123.373,83.4387 121.22,80.7667 C 120.528,79.9093 120.7,78.604 121.529,77.4453 C 122.144,76.5853 122.216,76.3547 121.145,77.2333 C 120.023,78.1573 118.596,78.2493 117.661,77.5453 C 115.041,75.5693 117.367,73.1107 117.367,73.1107 C 117.367,73.1107 114.633,70.7707 117.783,68.7307 C 119.095,67.8827 120.613,68.4747 121.949,69.4667 C 122.816,70.1053 122.841,70.088 122.139,69.1747 Z M 158.629,52.904 C 156.009,50.9307 158.335,48.472 158.335,48.472 C 158.335,48.472 155.601,46.132 158.755,44.092 C 160.063,43.244 161.583,43.832 162.917,44.8253 C 163.784,45.4667 163.811,45.4493 163.107,44.536 C 162.155,43.256 161.52,41.992 162.291,40.7027 C 164.212,37.4787 166.496,40.156 166.496,40.156 C 166.496,40.156 168.707,37.724 170.777,40.2747 C 171.732,41.448 171.003,43.1973 169.788,44.692 C 169.188,45.428 169.351,45.5693 170.045,44.9293 C 171.381,43.688 173.056,43.1907 174.421,44.1307 C 177.563,46.288 174.725,48.5867 174.725,48.5867 C 174.725,48.5867 177.125,51.0013 174.407,52.9307 C 173.493,53.5813 172.264,53.3213 171.136,52.5347 C 170.456,52.0653 170.417,52.0653 170.869,52.848 C 171.423,53.8053 171.528,54.8747 171.168,55.7907 C 169.741,59.4107 166.717,56.3347 166.717,56.3347 C 166.717,56.3347 164.341,58.8 162.188,56.128 C 161.496,55.2707 161.668,53.9627 162.499,52.804 C 163.113,51.9467 163.184,51.7133 162.113,52.5907 C 160.993,53.516 159.564,53.608 158.629,52.904 Z M 74.0467,97.416 C 74.0467,97.416 71.3133,95.0747 74.4627,93.036 C 75.7747,92.188 77.2933,92.7787 78.6293,93.772 C 79.492,94.4107 79.5213,94.392 78.8187,93.4787 C 77.8667,92.2027 77.232,90.9387 78,89.6467 C 79.924,86.4227 82.208,89.1027 82.208,89.1027 C 82.208,89.1027 84.4213,86.6707 86.4893,89.2213 C 87.4413,90.392 86.7147,92.144 85.4973,93.636 C 84.8973,94.372 85.0627,94.516 85.7573,93.872 C 87.092,92.6347 88.7653,92.1373 90.1333,93.0747 C 93.2747,95.2347 90.4347,97.5307 90.4347,97.5307 C 90.4347,97.5307 92.8373,99.9453 90.1187,101.877 C 89.2053,102.528 87.976,102.264 86.8467,101.481 C 86.168,101.008 86.1293,101.012 86.5813,101.792 C 87.1333,102.749 87.24,103.821 86.8773,104.735 C 85.452,108.355 82.4293,105.279 82.4293,105.279 C 82.4293,105.279 80.0533,107.743 77.9,105.072 C 77.208,104.215 77.38,102.909 78.2093,101.751 C 78.824,100.891 78.8947,100.66 77.8253,101.537 C 76.7027,102.463 75.276,102.555 74.3413,101.851 C 71.7173,99.8733 74.0467,97.416 74.0467,97.416 Z M 37.8507,118.121 C 36.8987,116.841 36.264,115.58 37.032,114.288 C 38.956,111.064 41.24,113.741 41.24,113.741 C 41.24,113.741 43.4507,111.313 45.5213,113.86 C 46.4733,115.033 45.7467,116.783 44.528,118.277 C 43.9293,119.013 44.0947,119.159 44.7893,118.515 C 46.124,117.276 47.7973,116.776 49.1653,117.716 C 52.3067,119.873 49.4667,122.172 49.4667,122.172 C 49.4667,122.172 51.8693,124.587 49.1507,126.519 C 48.2347,127.167 47.008,126.907 45.8787,126.123 C 45.2,125.651 45.1613,125.653 45.6133,126.433 C 46.1653,127.391 46.2693,128.464 45.908,129.376 C 44.484,132.996 41.4613,129.92 41.4613,129.92 C 41.4613,129.92 39.0853,132.385 36.932,129.713 C 36.24,128.856 36.4107,127.551 37.2413,126.389 C 37.856,125.532 37.924,125.299 36.8573,126.176 C 35.7347,127.101 34.3067,127.193 33.3733,126.492 C 30.7493,124.516 33.0787,122.057 33.0787,122.057 C 33.0787,122.057 30.344,119.717 33.4947,117.677 C 34.8067,116.829 36.3253,117.421 37.6613,118.411 C 38.524,119.052 38.5533,119.035 37.8507,118.121 Z M 107.101,89.984 C 109.024,86.76 111.308,89.4373 111.308,89.4373 C 111.308,89.4373 113.519,87.008 115.591,89.5547 C 116.541,90.728 115.815,92.4773 114.597,93.9733 C 113.997,94.708 114.163,94.8533 114.857,94.2093 C 116.193,92.9707 117.865,92.472 119.233,93.412 C 122.375,95.568 119.536,97.868 119.536,97.868 C 119.536,97.868 121.937,100.281 119.219,102.215 C 118.303,102.861 117.077,102.601 115.948,101.819 C 115.268,101.345 115.229,101.348 115.683,102.128 C 116.235,103.087 116.339,104.159 115.977,105.072 C 114.553,108.692 111.531,105.616 111.531,105.616 C 111.531,105.616 109.155,108.08 107,105.408 C 106.309,104.552 106.48,103.245 107.311,102.084 C 107.925,101.227 107.993,100.993 106.927,101.872 C 105.804,102.796 104.376,102.888 103.443,102.188 C 100.819,100.211 103.147,97.752 103.147,97.752 C 103.147,97.752 100.413,95.412 103.564,93.3733 C 104.876,92.5253 106.395,93.116 107.731,94.1053 C 108.593,94.7467 108.623,94.7293 107.919,93.816 C 106.965,92.5373 106.332,91.2747 107.101,89.984 Z M 145.757,77.5453 C 143.137,75.5693 145.463,73.1107 145.463,73.1107 C 145.463,73.1107 142.729,70.7707 145.879,68.7307 C 147.191,67.8827 148.711,68.4747 150.045,69.4667 C 150.912,70.1053 150.939,70.088 150.235,69.1747 C 149.283,67.8973 148.648,66.6333 149.419,65.3413 C 151.34,62.1173 153.624,64.7987 153.624,64.7987 C 153.624,64.7987 155.837,62.3667 157.909,64.916 C 158.857,66.0893 158.131,67.8387 156.916,69.3307 C 156.313,70.0667 156.479,70.212 157.173,69.568 C 158.509,68.3293 160.184,67.8333 161.549,68.7693 C 164.691,70.9293 161.851,73.2293 161.851,73.2293 C 161.851,73.2293 164.253,75.64 161.535,77.572 C 160.621,78.2227 159.392,77.9627 158.264,77.176 C 157.584,76.704 157.545,76.7067 157.997,77.4893 C 158.553,78.444 158.656,79.5173 158.296,80.4333 C 156.869,84.0493 153.845,80.9733 153.845,80.9733 C 153.845,80.9733 151.471,83.4387 149.316,80.7667 C 148.624,79.9093 148.796,78.604 149.627,77.4453 C 150.241,76.5853 150.312,76.3547 149.241,77.2333 C 148.121,78.1573 146.692,78.2493 145.757,77.5453 Z M 18.8587,146.025 C 18.8587,146.025 16.1253,143.685 19.2747,141.645 C 20.5867,140.797 22.1067,141.389 23.4413,142.379 C 24.304,143.02 24.3307,143.003 23.6307,142.089 C 22.676,140.809 22.044,139.548 22.812,138.256 C 24.736,135.032 27.02,137.709 27.02,137.709 C 27.02,137.709 29.2307,135.281 31.3027,137.828 C 32.2533,139.001 31.5267,140.751 30.3093,142.245 C 29.7093,142.981 29.8747,143.127 30.5693,142.483 C 31.9053,141.244 33.5773,140.744 34.9453,141.684 C 38.084,143.841 35.2467,146.14 35.2467,146.14 C 35.2467,146.14 37.6467,148.555 34.9307,150.487 C 34.0147,151.135 32.788,150.875 31.66,150.091 C 30.98,149.619 30.9413,149.621 31.3933,150.401 C 31.9467,151.359 32.0493,152.432 31.6893,153.344 C 30.2613,156.964 27.2413,153.888 27.2413,153.888 C 27.2413,153.888 24.8667,156.353 22.712,153.681 C 22.02,152.824 22.1893,151.519 23.0227,150.357 C 23.6373,149.5 23.7053,149.267 22.6387,150.147 C 21.5147,151.069 20.088,151.164 19.1547,150.46 C 16.5307,148.484 18.8587,146.025 18.8587,146.025 Z M 47.096,146.025 C 47.096,146.025 44.3627,143.685 47.5133,141.645 C 48.8253,140.797 50.344,141.389 51.68,142.379 C 52.5427,143.02 52.572,143.003 51.8693,142.089 C 50.9173,140.809 50.2827,139.548 51.0507,138.256 C 52.9747,135.032 55.2587,137.709 55.2587,137.709 C 55.2587,137.709 57.468,135.281 59.54,137.828 C 60.492,139.001 59.764,140.751 58.5507,142.245 C 57.9467,142.981 58.1133,143.127 58.8067,142.483 C 60.1427,141.244 61.8187,140.744 63.184,141.684 C 66.3253,143.841 63.4853,146.14 63.4853,146.14 C 63.4853,146.14 65.888,148.555 63.1693,150.487 C 62.256,151.135 61.0267,150.875 59.8973,150.091 C 59.2173,149.619 59.18,149.621 59.632,150.401 C 60.184,151.359 60.2907,152.432 59.9307,153.344 C 58.5027,156.964 55.48,153.888 55.48,153.888 C 55.48,153.888 53.104,156.353 50.9493,153.681 C 50.2587,152.824 50.4293,151.519 51.26,150.357 C 51.8747,149.5 51.9453,149.267 50.876,150.147 C 49.7533,151.069 48.3253,151.164 47.392,150.46 C 44.768,148.484 47.096,146.025 47.096,146.025 Z M 8.27333,164.617 C 7.32267,163.339 6.68667,162.073 7.45867,160.783 C 9.37867,157.559 11.6627,160.239 11.6627,160.239 C 11.6627,160.239 13.876,157.807 15.9453,160.357 C 16.9,161.529 16.1693,163.279 14.9547,164.772 C 14.352,165.508 14.5173,165.652 15.212,165.008 C 16.548,163.769 18.2227,163.273 19.588,164.213 C 22.7293,166.371 19.8893,168.667 19.8893,168.667 C 19.8893,168.667 22.292,171.084 19.5733,173.013 C 18.66,173.663 17.4307,173.403 16.3027,172.617 C 15.6227,172.147 15.584,172.147 16.036,172.931 C 16.5893,173.885 16.696,174.957 16.3347,175.873 C 14.908,179.491 11.8853,176.417 11.8853,176.417 C 11.8853,176.417 9.50933,178.881 7.35467,176.211 C 6.66267,175.353 6.83467,174.044 7.66533,172.887 C 8.28,172.029 8.35067,171.796 7.28133,172.673 C 6.15733,173.599 4.73067,173.689 3.79733,172.987 C 1.17333,171.012 3.50133,168.551 3.50133,168.551 C 3.50133,168.551 0.768,166.213 3.91867,164.172 C 5.23067,163.327 6.74933,163.915 8.084,164.908 C 8.95067,165.545 8.97733,165.528 8.27333,164.617 Z M 74.0467,146.025 C 74.0467,146.025 71.3133,143.685 74.4627,141.645 C 75.7747,140.797 77.2933,141.389 78.6293,142.379 C 79.492,143.02 79.5213,143.003 78.8187,142.089 C 77.8667,140.809 77.232,139.548 78,138.256 C 79.924,135.032 82.208,137.709 82.208,137.709 C 82.208,137.709 84.4213,135.281 86.4893,137.828 C 87.4413,139.001 86.7147,140.751 85.4973,142.245 C 84.8973,142.981 85.0627,143.127 85.7573,142.483 C 87.092,141.244 88.7653,140.744 90.1333,141.684 C 93.2747,143.841 90.4347,146.14 90.4347,146.14 C 90.4347,146.14 92.8373,148.555 90.1187,150.487 C 89.2053,151.135 87.976,150.875 86.8467,150.091 C 86.168,149.619 86.1293,149.621 86.5813,150.401 C 87.1333,151.359 87.24,152.432 86.8773,153.344 C 85.452,156.964 82.4293,153.888 82.4293,153.888 C 82.4293,153.888 80.0533,156.353 77.9,153.681 C 77.208,152.824 77.38,151.519 78.2093,150.357 C 78.824,149.5 78.8947,149.267 77.8253,150.147 C 76.7027,151.069 75.276,151.164 74.3413,150.46 C 71.7173,148.484 74.0467,146.025 74.0467,146.025 Z M 61.1747,122.057 C 61.1747,122.057 58.4413,119.717 61.5907,117.677 C 62.9027,116.829 64.4213,117.421 65.7573,118.411 C 66.62,119.052 66.6493,119.035 65.9467,118.121 C 64.992,116.841 64.36,115.58 65.128,114.288 C 67.052,111.064 69.336,113.741 69.336,113.741 C 69.336,113.741 71.5467,111.313 73.6173,113.86 C 74.572,115.033 73.8427,116.783 72.628,118.277 C 72.028,119.013 72.1907,119.159 72.8853,118.515 C 74.22,117.276 75.8933,116.776 77.2613,117.716 C 80.4027,119.873 77.5627,122.172 77.5627,122.172 C 77.5627,122.172 79.9653,124.587 77.2467,126.519 C 76.3333,127.167 75.104,126.907 73.9747,126.123 C 73.296,125.651 73.2573,125.653 73.7093,126.433 C 74.2613,127.391 74.3653,128.464 74.0053,129.376 C 72.58,132.996 69.5573,129.92 69.5573,129.92 C 69.5573,129.92 67.1813,132.385 65.028,129.713 C 64.336,128.856 64.508,127.551 65.3373,126.389 C 65.952,125.532 66.0227,125.299 64.9533,126.176 C 63.8333,127.101 62.404,127.193 61.4693,126.492 C 58.8453,124.516 61.1747,122.057 61.1747,122.057 Z M 35.696,160.783 C 37.62,157.559 39.904,160.239 39.904,160.239 C 39.904,160.239 42.1147,157.807 44.1853,160.357 C 45.1373,161.529 44.4107,163.279 43.1933,164.772 C 42.5933,165.508 42.756,165.652 43.4507,165.008 C 44.7893,163.769 46.4613,163.273 47.8293,164.213 C 50.968,166.371 48.1307,168.667 48.1307,168.667 C 48.1307,168.667 50.5307,171.084 47.812,173.013 C 46.8987,173.663 45.672,173.403 44.544,172.617 C 43.864,172.147 43.8253,172.147 44.2773,172.931 C 44.8307,173.885 44.9333,174.957 44.5733,175.873 C 43.1453,179.491 40.1227,176.417 40.1227,176.417 C 40.1227,176.417 37.7493,178.881 35.596,176.211 C 34.904,175.353 35.072,174.044 35.9053,172.887 C 36.52,172.029 36.588,171.796 35.5213,172.673 C 34.3987,173.599 32.972,173.689 32.0373,172.987 C 29.4133,171.012 31.74,168.551 31.74,168.551 C 31.74,168.551 29.0093,166.213 32.1587,164.172 C 33.4707,163.327 34.9867,163.915 36.3253,164.908 C 37.188,165.545 37.2147,165.528 36.5147,164.617 C 35.56,163.339 34.928,162.073 35.696,160.783 Z M 103.147,146.361 C 103.147,146.361 100.413,144.021 103.564,141.983 C 104.876,141.135 106.395,141.723 107.731,142.716 C 108.593,143.357 108.623,143.339 107.919,142.425 C 106.968,141.147 106.332,139.881 107.101,138.593 C 109.024,135.369 111.308,138.047 111.308,138.047 C 111.308,138.047 113.519,135.615 115.591,138.165 C 116.541,139.337 115.815,141.087 114.597,142.583 C 113.997,143.319 114.163,143.46 114.857,142.819 C 116.193,141.581 117.865,141.081 119.233,142.021 C 122.375,144.179 119.536,146.475 119.536,146.475 C 119.536,146.475 121.937,148.892 119.219,150.821 C 118.307,151.471 117.077,151.211 115.948,150.425 C 115.268,149.955 115.229,149.959 115.683,150.739 C 116.235,151.693 116.339,152.765 115.977,153.681 C 114.553,157.301 111.531,154.225 111.531,154.225 C 111.531,154.225 109.155,156.689 107,154.019 C 106.309,153.161 106.48,151.852 107.311,150.693 C 107.925,149.837 107.993,149.604 106.927,150.481 C 105.804,151.407 104.376,151.497 103.443,150.795 C 100.819,148.82 103.147,146.361 103.147,146.361 Z M 62.6453,160.783 C 64.5693,157.559 66.8507,160.239 66.8507,160.239 C 66.8507,160.239 69.064,157.807 71.136,160.357 C 72.0867,161.529 71.36,163.279 70.1427,164.772 C 69.5427,165.508 69.7053,165.652 70.4,165.008 C 71.7387,163.769 73.4107,163.273 74.776,164.213 C 77.9173,166.371 75.08,168.667 75.08,168.667 C 75.08,168.667 77.48,171.084 74.7613,173.013 C 73.848,173.663 72.6187,173.403 71.4933,172.617 C 70.8133,172.147 70.7747,172.147 71.224,172.931 C 71.78,173.885 71.8827,174.957 71.5227,175.873 C 70.0947,179.491 67.072,176.417 67.072,176.417 C 67.072,176.417 64.7,178.881 62.5427,176.211 C 61.8533,175.353 62.0253,174.044 62.852,172.887 C 63.4707,172.029 63.5387,171.796 62.472,172.673 C 61.348,173.599 59.9213,173.689 58.988,172.987 C 56.364,171.012 58.6893,168.551 58.6893,168.551 C 58.6893,168.551 55.956,166.213 59.108,164.172 C 60.42,163.327 61.936,163.915 63.2747,164.908 C 64.1387,165.545 64.164,165.528 63.464,164.617 C 62.5093,163.339 61.8773,162.073 62.6453,160.783 Z M 89.2707,122.393 C 89.2707,122.393 86.5373,120.053 89.6867,118.015 C 90.9987,117.164 92.5173,117.755 93.8533,118.748 C 94.7187,119.389 94.7453,119.368 94.0427,118.457 C 93.0907,117.179 92.456,115.913 93.2267,114.625 C 95.148,111.401 97.432,114.079 97.432,114.079 C 97.432,114.079 99.6453,111.647 101.713,114.197 C 102.668,115.369 101.939,117.119 100.724,118.612 C 100.124,119.351 100.287,119.492 100.981,118.851 C 102.316,117.613 103.992,117.113 105.357,118.053 C 108.499,120.211 105.659,122.509 105.659,122.509 C 105.659,122.509 108.061,124.924 105.343,126.853 C 104.429,127.503 103.2,127.243 102.071,126.457 C 101.392,125.987 101.353,125.991 101.805,126.771 C 102.357,127.725 102.461,128.797 102.104,129.713 C 100.676,133.333 97.6533,130.255 97.6533,130.255 C 97.6533,130.255 95.2773,132.719 93.124,130.048 C 92.432,129.193 92.604,127.884 93.4333,126.725 C 94.048,125.869 94.12,125.636 93.0493,126.513 C 91.9293,127.439 90.5,127.529 89.5653,126.827 C 86.9413,124.852 89.2707,122.393 89.2707,122.393 Z M 145.463,122.393 C 145.463,122.393 142.729,120.053 145.879,118.015 C 147.191,117.164 148.711,117.755 150.045,118.748 C 150.912,119.389 150.939,119.368 150.235,118.457 C 149.283,117.179 148.648,115.913 149.419,114.625 C 151.34,111.401 153.624,114.079 153.624,114.079 C 153.624,114.079 155.837,111.647 157.909,114.197 C 158.857,115.369 158.131,117.119 156.916,118.612 C 156.313,119.351 156.479,119.492 157.173,118.851 C 158.509,117.613 160.184,117.113 161.549,118.053 C 164.691,120.211 161.851,122.509 161.851,122.509 C 161.851,122.509 164.253,124.924 161.535,126.853 C 160.621,127.503 159.392,127.243 158.264,126.457 C 157.584,125.987 157.545,125.991 157.997,126.771 C 158.553,127.725 158.656,128.797 158.296,129.713 C 156.869,133.333 153.845,130.255 153.845,130.255 C 153.845,130.255 151.471,132.719 149.316,130.048 C 148.624,129.193 148.796,127.884 149.627,126.725 C 150.241,125.869 150.312,125.636 149.241,126.513 C 148.121,127.439 146.692,127.529 145.757,126.827 C 143.137,124.852 145.463,122.393 145.463,122.393 Z M 131.385,97.752 C 131.385,97.752 128.652,95.412 131.804,93.3733 C 133.113,92.5253 134.632,93.116 135.968,94.1053 C 136.833,94.7467 136.86,94.7293 136.157,93.816 C 135.205,92.5373 134.571,91.2747 135.341,89.984 C 137.263,86.76 139.547,89.4373 139.547,89.4373 C 139.547,89.4373 141.76,87.008 143.828,89.5547 C 144.783,90.728 144.053,92.4773 142.839,93.9733 C 142.239,94.708 142.401,94.8533 143.096,94.2093 C 144.431,92.9707 146.107,92.472 147.472,93.412 C 150.613,95.568 147.773,97.868 147.773,97.868 C 147.773,97.868 150.176,100.281 147.457,102.215 C 146.544,102.861 145.315,102.601 144.185,101.819 C 143.507,101.345 143.471,101.348 143.92,102.128 C 144.472,103.087 144.579,104.159 144.219,105.072 C 142.791,108.692 139.768,105.616 139.768,105.616 C 139.768,105.616 137.392,108.08 135.239,105.408 C 134.547,104.552 134.719,103.245 135.548,102.084 C 136.163,101.227 136.235,100.993 135.167,101.872 C 134.044,102.796 132.615,102.888 131.68,102.188 C 129.059,100.211 131.385,97.752 131.385,97.752 Z M 158.335,97.752 C 158.335,97.752 155.601,95.412 158.755,93.3733 C 160.063,92.5253 161.583,93.116 162.917,94.1053 C 163.784,94.7467 163.811,94.7293 163.107,93.816 C 162.155,92.5373 161.52,91.2747 162.291,89.984 C 164.212,86.76 166.496,89.4373 166.496,89.4373 C 166.496,89.4373 168.707,87.008 170.777,89.5547 C 171.732,90.728 171.003,92.4773 169.788,93.9733 C 169.188,94.708 169.351,94.8533 170.045,94.2093 C 171.381,92.9707 173.056,92.472 174.421,93.412 C 177.563,95.568 174.725,97.868 174.725,97.868 C 174.725,97.868 177.125,100.281 174.407,102.215 C 173.493,102.861 172.264,102.601 171.136,101.819 C 170.456,101.345 170.417,101.348 170.869,102.128 C 171.423,103.087 171.528,104.159 171.168,105.072 C 169.741,108.692 166.717,105.616 166.717,105.616 C 166.717,105.616 164.341,108.08 162.188,105.408 C 161.496,104.552 161.668,103.245 162.499,102.084 C 163.113,101.227 163.184,100.993 162.113,101.872 C 160.993,102.796 159.564,102.888 158.629,102.188 C 156.009,100.211 158.335,97.752 158.335,97.752 Z M 87.7893,168.888 C 87.7893,168.888 85.056,166.551 88.2067,164.508 C 89.5187,163.66 91.0373,164.252 92.3733,165.241 C 93.2387,165.883 93.2653,165.865 92.5627,164.952 C 91.6107,163.672 90.9747,162.411 91.7467,161.119 C 93.6667,157.895 95.952,160.572 95.952,160.572 C 95.952,160.572 98.1653,158.144 100.233,160.691 C 101.188,161.864 100.461,163.616 99.244,165.108 C 98.644,165.844 98.8067,165.989 99.5,165.345 C 100.839,164.107 102.512,163.611 103.877,164.547 C 107.017,166.704 104.181,169.003 104.181,169.003 C 104.181,169.003 106.58,171.417 103.863,173.349 C 102.949,174 101.72,173.737 100.591,172.953 C 99.9107,172.481 99.876,172.484 100.325,173.264 C 100.877,174.221 100.984,175.295 100.624,176.211 C 99.196,179.827 96.1733,176.751 96.1733,176.751 C 96.1733,176.751 93.7973,179.216 91.6427,176.544 C 90.9547,175.688 91.1227,174.381 91.9533,173.22 C 92.568,172.363 92.6387,172.129 91.572,173.011 C 90.4493,173.932 89.0227,174.027 88.088,173.324 C 85.464,171.347 87.7893,168.888 87.7893,168.888 Z M 120.803,164.952 C 119.852,163.672 119.216,162.411 119.984,161.119 C 121.908,157.895 124.192,160.572 124.192,160.572 C 124.192,160.572 126.403,158.144 128.475,160.691 C 129.425,161.864 128.699,163.616 127.481,165.108 C 126.881,165.844 127.047,165.989 127.741,165.345 C 129.077,164.107 130.749,163.611 132.117,164.547 C 135.259,166.704 132.419,169.003 132.419,169.003 C 132.419,169.003 134.821,171.417 132.103,173.349 C 131.187,174 129.96,173.737 128.832,172.953 C 128.152,172.481 128.113,172.484 128.565,173.264 C 129.119,174.221 129.221,175.295 128.861,176.211 C 127.437,179.827 124.415,176.751 124.415,176.751 C 124.415,176.751 122.039,179.216 119.884,176.544 C 119.192,175.688 119.364,174.381 120.195,173.22 C 120.809,172.363 120.877,172.129 119.811,173.011 C 118.687,173.932 117.26,174.027 116.327,173.324 C 113.703,171.347 116.031,168.888 116.031,168.888 C 116.031,168.888 113.297,166.551 116.448,164.508 C 117.76,163.66 119.279,164.252 120.613,165.241 C 121.477,165.883 121.507,165.865 120.803,164.952 Z "/>
</svg>
