<?xml version="1.0" encoding="UTF-8" standalone="no"?>
<svg
   xmlns:dc="http://purl.org/dc/elements/1.1/"
   xmlns:cc="http://creativecommons.org/ns#"
   xmlns:rdf="http://www.w3.org/1999/02/22-rdf-syntax-ns#"
   xmlns:svg="http://www.w3.org/2000/svg"
   xmlns="http://www.w3.org/2000/svg"
   xmlns:sodipodi="http://sodipodi.sourceforge.net/DTD/sodipodi-0.dtd"
   xmlns:inkscape="http://www.inkscape.org/namespaces/inkscape"
   version="1.1"
   id="Шар_1"
   x="0px"
   y="0px"
   viewBox="0 0 1500 1500"
   style="enable-background:new 0 0 1500 1500;"
   xml:space="preserve"
   sodipodi:docname="logo256.svg"
   inkscape:version="1.0.1 (c497b03c, 2020-09-10)"><metadata
   id="metadata1077"><rdf:RDF><cc:Work
       rdf:about=""><dc:format>image/svg+xml</dc:format><dc:type
         rdf:resource="http://purl.org/dc/dcmitype/StillImage" /><dc:title></dc:title></cc:Work></rdf:RDF></metadata><defs
   id="defs1075" /><sodipodi:namedview
   pagecolor="#ffffff"
   bordercolor="#666666"
   borderopacity="1"
   objecttolerance="10"
   gridtolerance="10"
   guidetolerance="10"
   inkscape:pageopacity="0"
   inkscape:pageshadow="2"
   inkscape:window-width="1012"
   inkscape:window-height="648"
   id="namedview1073"
   showgrid="false"
   inkscape:zoom="0.47466667"
   inkscape:cx="121.36141"
   inkscape:cy="332.0106"
   inkscape:window-x="505"
   inkscape:window-y="145"
   inkscape:window-maximized="0"
   inkscape:current-layer="Шар_1" />
<g
   id="g1070"
   transform="matrix(0.19619706,0,0,0.20181814,80.380294,96.178527)">
	<g
   id="g1021">
		<ellipse
   style="fill:#ffffff"
   cx="755.414"
   cy="750"
   rx="644.586"
   ry="629.50299"
   id="ellipse833" />
		<ellipse
   style="fill:#fefefe"
   cx="754.77197"
   cy="749.25897"
   rx="643.013"
   ry="627.96698"
   id="ellipse835" />
		<ellipse
   style="fill:#fdfdfd"
   cx="754.13"
   cy="748.51801"
   rx="641.44"
   ry="626.43103"
   id="ellipse837" />
		<ellipse
   style="fill:#fcfcfc"
   cx="753.487"
   cy="747.77698"
   rx="639.86798"
   ry="624.89502"
   id="ellipse839" />
		<ellipse
   style="fill:#fbfbfb"
   cx="752.84497"
   cy="747.03601"
   rx="638.29498"
   ry="623.35901"
   id="ellipse841" />
		<ellipse
   style="fill:#fafafa"
   cx="752.203"
   cy="746.29498"
   rx="636.72198"
   ry="621.823"
   id="ellipse843" />
		<ellipse
   style="fill:#f9f9f9"
   cx="751.56097"
   cy="745.55499"
   rx="635.14899"
   ry="620.28699"
   id="ellipse845" />
		<ellipse
   style="fill:#f8f8f8"
   cx="750.91901"
   cy="744.81403"
   rx="633.57703"
   ry="618.75098"
   id="ellipse847" />
		<ellipse
   style="fill:#f7f7f7"
   cx="750.27698"
   cy="744.073"
   rx="632.00403"
   ry="617.21503"
   id="ellipse849" />
		<ellipse
   style="fill:#f6f6f6"
   cx="749.63397"
   cy="743.33197"
   rx="630.43103"
   ry="615.67902"
   id="ellipse851" />
		<ellipse
   style="fill:#f5f5f5"
   cx="748.992"
   cy="742.591"
   rx="628.85797"
   ry="614.14301"
   id="ellipse853" />
		<ellipse
   style="fill:#f4f4f4"
   cx="748.34998"
   cy="741.84998"
   rx="627.28497"
   ry="612.60699"
   id="ellipse855" />
		<ellipse
   style="fill:#f3f3f3"
   cx="747.70801"
   cy="741.10901"
   rx="625.71301"
   ry="611.07098"
   id="ellipse857" />
		<ellipse
   style="fill:#f2f2f2"
   cx="747.06598"
   cy="740.36798"
   rx="624.14001"
   ry="609.53497"
   id="ellipse859" />
		<ellipse
   style="fill:#f1f1f1"
   cx="746.42297"
   cy="739.62701"
   rx="622.56702"
   ry="607.99902"
   id="ellipse861" />
		<ellipse
   style="fill:#f0f0f0"
   cx="745.78101"
   cy="738.88599"
   rx="620.99402"
   ry="606.46301"
   id="ellipse863" />
		<ellipse
   style="fill:#efefef"
   cx="745.13898"
   cy="738.14502"
   rx="619.42102"
   ry="604.927"
   id="ellipse865" />
		<ellipse
   style="fill:#eeeeee"
   cx="744.49701"
   cy="737.40503"
   rx="617.849"
   ry="603.39099"
   id="ellipse867" />
		<ellipse
   style="fill:#ededed"
   cx="743.85498"
   cy="736.664"
   rx="616.276"
   ry="601.85498"
   id="ellipse869" />
		<ellipse
   style="fill:#ececec"
   cx="743.21301"
   cy="735.92297"
   rx="614.703"
   ry="600.31897"
   id="ellipse871" />
		<ellipse
   style="fill:#ebebeb"
   cx="742.57001"
   cy="735.18201"
   rx="613.13"
   ry="598.78302"
   id="ellipse873" />
		<ellipse
   style="fill:#eaeaea"
   cx="741.92798"
   cy="734.44098"
   rx="611.55701"
   ry="597.24701"
   id="ellipse875" />
		<ellipse
   style="fill:#e9e9e9"
   cx="741.28601"
   cy="733.70001"
   rx="609.98499"
   ry="595.711"
   id="ellipse877" />
		<ellipse
   style="fill:#e8e8e8"
   cx="740.64398"
   cy="732.95898"
   rx="608.41199"
   ry="594.17499"
   id="ellipse879" />
		<ellipse
   style="fill:#e7e7e7"
   cx="740.00201"
   cy="732.21802"
   rx="606.83899"
   ry="592.63898"
   id="ellipse881" />
		<ellipse
   style="fill:#e6e6e6"
   cx="739.35901"
   cy="731.47699"
   rx="605.26599"
   ry="591.10303"
   id="ellipse883" />
		<ellipse
   style="fill:#e5e5e5"
   cx="738.71698"
   cy="730.73602"
   rx="603.69397"
   ry="589.56702"
   id="ellipse885" />
		<ellipse
   style="fill:#e4e4e4"
   cx="738.07501"
   cy="729.99597"
   rx="602.12097"
   ry="588.03101"
   id="ellipse887" />
		<ellipse
   style="fill:#e3e3e3"
   cx="737.43298"
   cy="729.255"
   rx="600.54797"
   ry="586.495"
   id="ellipse889" />
		<ellipse
   style="fill:#e2e2e2"
   cx="736.79102"
   cy="728.51398"
   rx="598.97498"
   ry="584.95898"
   id="ellipse891" />
		<ellipse
   style="fill:#e1e1e1"
   cx="736.14899"
   cy="727.77301"
   rx="597.40198"
   ry="583.42297"
   id="ellipse893" />
		<ellipse
   style="fill:#e0e0e0"
   cx="735.50598"
   cy="727.03198"
   rx="595.83002"
   ry="581.88702"
   id="ellipse895" />
		<ellipse
   style="fill:#dfdfdf"
   cx="734.86401"
   cy="726.29102"
   rx="594.25702"
   ry="580.35101"
   id="ellipse897" />
		<ellipse
   style="fill:#dedede"
   cx="734.22198"
   cy="725.54999"
   rx="592.68402"
   ry="578.815"
   id="ellipse899" />
		<ellipse
   style="fill:#dddddd"
   cx="733.58002"
   cy="724.80902"
   rx="591.11102"
   ry="577.27899"
   id="ellipse901" />
		<ellipse
   style="fill:#dcdcdc"
   cx="732.93799"
   cy="724.06799"
   rx="589.53802"
   ry="575.74298"
   id="ellipse903" />
		<ellipse
   style="fill:#dbdbdb"
   cx="732.29602"
   cy="723.32703"
   rx="587.966"
   ry="574.20697"
   id="ellipse905" />
		<ellipse
   style="fill:#dadada"
   cx="731.65302"
   cy="722.586"
   rx="586.39301"
   ry="572.67102"
   id="ellipse907" />
		<ellipse
   style="fill:#d9d9d9"
   cx="731.01099"
   cy="721.84601"
   rx="584.82001"
   ry="571.13501"
   id="ellipse909" />
		<ellipse
   style="fill:#d8d8d8"
   cx="730.36902"
   cy="721.10498"
   rx="583.24701"
   ry="569.599"
   id="ellipse911" />
		<ellipse
   style="fill:#d7d7d7"
   cx="729.72699"
   cy="720.36401"
   rx="581.67401"
   ry="568.06299"
   id="ellipse913" />
		<ellipse
   style="fill:#d6d6d6"
   cx="729.08502"
   cy="719.62299"
   rx="580.10199"
   ry="566.52698"
   id="ellipse915" />
		<ellipse
   style="fill:#d5d5d5"
   cx="728.44299"
   cy="718.88202"
   rx="578.52899"
   ry="564.99103"
   id="ellipse917" />
		<ellipse
   style="fill:#d4d4d4"
   cx="727.79999"
   cy="718.14099"
   rx="576.95599"
   ry="563.45502"
   id="ellipse919" />
		<ellipse
   style="fill:#d3d3d3"
   cx="727.15802"
   cy="717.40002"
   rx="575.383"
   ry="561.91901"
   id="ellipse921" />
		<ellipse
   style="fill:#d2d2d2"
   cx="726.51599"
   cy="716.659"
   rx="573.81"
   ry="560.383"
   id="ellipse923" />
		<ellipse
   style="fill:#d1d1d1"
   cx="725.87402"
   cy="715.91803"
   rx="572.23798"
   ry="558.84698"
   id="ellipse925" />
		<ellipse
   style="fill:#d1d1d1"
   cx="725.23199"
   cy="715.177"
   rx="570.66498"
   ry="557.31097"
   id="ellipse927" />
		<ellipse
   style="fill:#d0d0d0"
   cx="724.58899"
   cy="714.43701"
   rx="569.09198"
   ry="555.77502"
   id="ellipse929" />
		<ellipse
   style="fill:#cfcfcf"
   cx="723.94702"
   cy="713.69598"
   rx="567.51898"
   ry="554.23901"
   id="ellipse931" />
		<ellipse
   style="fill:#cecece"
   cx="723.30499"
   cy="712.95502"
   rx="565.94702"
   ry="552.703"
   id="ellipse933" />
		<ellipse
   style="fill:#cdcdcd"
   cx="722.66302"
   cy="712.21399"
   rx="564.37402"
   ry="551.16699"
   id="ellipse935" />
		<ellipse
   style="fill:#cccccc"
   cx="722.021"
   cy="711.47302"
   rx="562.80103"
   ry="549.63098"
   id="ellipse937" />
		<ellipse
   style="fill:#cbcbcb"
   cx="721.37903"
   cy="710.73199"
   rx="561.22803"
   ry="548.09497"
   id="ellipse939" />
		<ellipse
   style="fill:#cacaca"
   cx="720.73602"
   cy="709.99103"
   rx="559.65503"
   ry="546.56"
   id="ellipse941" />
		<ellipse
   style="fill:#c9c9c9"
   cx="720.09399"
   cy="709.25"
   rx="558.08301"
   ry="545.02301"
   id="ellipse943" />
		<ellipse
   style="fill:#c8c8c8"
   cx="719.45203"
   cy="708.50897"
   rx="556.51001"
   ry="543.487"
   id="ellipse945" />
		<ellipse
   style="fill:#c7c7c7"
   cx="718.81"
   cy="707.76801"
   rx="554.93701"
   ry="541.95203"
   id="ellipse947" />
		<ellipse
   style="fill:#c6c6c6"
   cx="718.16803"
   cy="707.02698"
   rx="553.36401"
   ry="540.41602"
   id="ellipse949" />
		<ellipse
   style="fill:#c5c5c5"
   cx="717.526"
   cy="706.28699"
   rx="551.79102"
   ry="538.88"
   id="ellipse951" />
		<ellipse
   style="fill:#c4c4c4"
   cx="716.883"
   cy="705.54602"
   rx="550.21899"
   ry="537.34399"
   id="ellipse953" />
		<ellipse
   style="fill:#c3c3c3"
   cx="716.24103"
   cy="704.80499"
   rx="548.646"
   ry="535.80798"
   id="ellipse955" />
		<ellipse
   style="fill:#c2c2c2"
   cx="715.599"
   cy="704.06403"
   rx="547.073"
   ry="534.27197"
   id="ellipse957" />
		<ellipse
   style="fill:#c1c1c1"
   cx="714.95697"
   cy="703.323"
   rx="545.5"
   ry="532.73602"
   id="ellipse959" />
		<ellipse
   style="fill:#c0c0c0"
   cx="714.315"
   cy="702.58197"
   rx="543.927"
   ry="531.20001"
   id="ellipse961" />
		<ellipse
   style="fill:#bfbfbf"
   cx="713.672"
   cy="701.841"
   rx="542.35498"
   ry="529.664"
   id="ellipse963" />
		<ellipse
   style="fill:#bebebe"
   cx="713.03003"
   cy="701.09998"
   rx="540.78198"
   ry="528.12799"
   id="ellipse965" />
		<ellipse
   style="fill:#bdbdbd"
   cx="712.388"
   cy="700.35901"
   rx="539.20898"
   ry="526.59198"
   id="ellipse967" />
		<ellipse
   style="fill:#bcbcbc"
   cx="711.74597"
   cy="699.61798"
   rx="537.63599"
   ry="525.05603"
   id="ellipse969" />
		<ellipse
   style="fill:#bbbbbb"
   cx="711.104"
   cy="698.87799"
   rx="536.06299"
   ry="523.52002"
   id="ellipse971" />
		<ellipse
   style="fill:#bababa"
   cx="710.46198"
   cy="698.13702"
   rx="534.49103"
   ry="521.98401"
   id="ellipse973" />
		<ellipse
   style="fill:#b9b9b9"
   cx="709.81897"
   cy="697.396"
   rx="532.91803"
   ry="520.448"
   id="ellipse975" />
		<ellipse
   style="fill:#b8b8b8"
   cx="709.177"
   cy="696.65503"
   rx="531.34497"
   ry="518.91199"
   id="ellipse977" />
		<ellipse
   style="fill:#b7b7b7"
   cx="708.53497"
   cy="695.914"
   rx="529.77197"
   ry="517.37598"
   id="ellipse979" />
		<ellipse
   style="fill:#b6b6b6"
   cx="707.89301"
   cy="695.17297"
   rx="528.20001"
   ry="515.84003"
   id="ellipse981" />
		<ellipse
   style="fill:#b5b5b5"
   cx="707.25098"
   cy="694.43201"
   rx="526.62701"
   ry="514.30402"
   id="ellipse983" />
		<ellipse
   style="fill:#b4b4b4"
   cx="706.60797"
   cy="693.69098"
   rx="525.05402"
   ry="512.76801"
   id="ellipse985" />
		<ellipse
   style="fill:#b3b3b3"
   cx="705.966"
   cy="692.95001"
   rx="523.48102"
   ry="511.23199"
   id="ellipse987" />
		<ellipse
   style="fill:#b2b2b2"
   cx="705.32397"
   cy="692.20898"
   rx="521.90802"
   ry="509.69601"
   id="ellipse989" />
		<ellipse
   style="fill:#b1b1b1"
   cx="704.68201"
   cy="691.46802"
   rx="520.336"
   ry="508.16"
   id="ellipse991" />
		<ellipse
   style="fill:#b0b0b0"
   cx="704.03998"
   cy="690.72803"
   rx="518.763"
   ry="506.62399"
   id="ellipse993" />
		<ellipse
   style="fill:#afafaf"
   cx="703.39801"
   cy="689.987"
   rx="517.19"
   ry="505.08801"
   id="ellipse995" />
		<ellipse
   style="fill:#aeaeae"
   cx="702.755"
   cy="689.24597"
   rx="515.617"
   ry="503.552"
   id="ellipse997" />
		<ellipse
   style="fill:#adadad"
   cx="702.11298"
   cy="688.505"
   rx="514.04401"
   ry="502.01599"
   id="ellipse999" />
		<ellipse
   style="fill:#acacac"
   cx="701.47101"
   cy="687.76398"
   rx="512.47198"
   ry="500.48001"
   id="ellipse1001" />
		<ellipse
   style="fill:#ababab"
   cx="700.82898"
   cy="687.02301"
   rx="510.89899"
   ry="498.944"
   id="ellipse1003" />
		<ellipse
   style="fill:#aaaaaa"
   cx="700.18701"
   cy="686.28198"
   rx="509.32599"
   ry="497.40799"
   id="ellipse1005" />
		<ellipse
   style="fill:#a9a9a9"
   cx="699.54401"
   cy="685.54102"
   rx="507.75299"
   ry="495.87201"
   id="ellipse1007" />
		<ellipse
   style="fill:#a8a8a8"
   cx="698.90198"
   cy="684.79999"
   rx="506.17999"
   ry="494.336"
   id="ellipse1009" />
		<ellipse
   style="fill:#a7a7a7"
   cx="698.26001"
   cy="684.05902"
   rx="504.608"
   ry="492.79999"
   id="ellipse1011" />
		<ellipse
   style="fill:#a6a6a6"
   cx="697.61798"
   cy="683.31799"
   rx="503.035"
   ry="491.26401"
   id="ellipse1013" />
		<ellipse
   style="fill:#a5a5a5"
   cx="696.97601"
   cy="682.578"
   rx="501.46201"
   ry="489.728"
   id="ellipse1015" />
		<ellipse
   style="fill:#a4a4a4"
   cx="696.33398"
   cy="681.83698"
   rx="499.88901"
   ry="488.19199"
   id="ellipse1017" />
		<ellipse
   style="fill:#a3a3a3"
   cx="695.69098"
   cy="681.09601"
   rx="498.31601"
   ry="486.65601"
   id="ellipse1019" />
	</g>
	<linearGradient
   id="SVGID_1_"
   gradientUnits="userSpaceOnUse"
   x1="100"
   y1="681.10388"
   x2="1248.0404"
   y2="681.10388">
		<stop
   offset="0"
   style="stop-color:#FF9900"
   id="stop1023" />
		<stop
   offset="1"
   style="stop-color:#FF3B00"
   id="stop1025" />
	</linearGradient>
	<path
   style="fill:url(#SVGID_1_)"
   d="m 1248.04,681.104 c 0,28.423 -2.166,56.306 -6.406,83.603 0,0.134 -0.046,0.269 -0.046,0.405 -0.72,5.144 -1.579,10.242 -2.527,15.339 -1.804,9.927 -3.926,19.761 -6.27,29.46 -2.888,11.958 -6.138,23.779 -9.836,35.417 -55.764,178.03 -199.913,318.525 -382.499,372.394 -5.1,1.489 -10.244,2.932 -15.386,4.331 -7.895,2.075 -15.837,4.016 -23.823,5.82 -36.274,8.032 -73.857,12.678 -112.431,13.625 -4.917,0.137 -9.834,0.181 -14.797,0.181 -7.671,0 -15.339,-0.134 -22.966,-0.452 C 344.668,1229.453 100,983.161 100,681.104 100,371.468 356.985,120.528 674.02,120.528 c 316.989,0 574.02,250.94 574.02,560.576 z"
   id="path1028" />
	<path
   style="opacity:0.2"
   d="m 1241.634,764.706 c 0,0.134 -0.046,0.269 -0.046,0.405 -0.72,5.144 -1.579,10.242 -2.527,15.339 -1.804,9.927 -3.926,19.761 -6.27,29.46 -2.888,11.958 -6.138,23.779 -9.836,35.417 -55.764,178.03 -199.913,318.525 -382.499,372.394 -5.1,1.489 -10.244,2.932 -15.386,4.331 -7.895,2.075 -15.837,4.016 -23.823,5.82 -36.274,8.032 -73.857,12.678 -112.431,13.625 -4.917,0.137 -9.834,0.181 -14.797,0.181 -7.671,0 -15.339,-0.134 -22.966,-0.452 L 394.836,985.01 l -1.577,-4.104 -16.604,-43.042 1.128,-4.739 2.21,-9.429 7.219,-30.634 v -65.734 l 14.619,-29.236 -14.619,-138.644 c 0,0 0,-80.263 -7.263,-94.882 -7.309,-14.617 0,-58.335 0,-72.953 0,-14.617 7.263,-29.236 36.499,-51.118 29.191,-21.836 14.575,-14.573 43.764,-29.189 29.189,-14.573 14.619,-7.309 36.455,-7.309 h 94.926 c 14.165,0 72.458,8.12 75.3,8.528 v 0.044 c 0.044,0 0.09,0 0.09,0 l 85.046,85.001 8.03,7.984 -3.879,-64.02 47.058,-37.536 80.307,2.527 z"
   id="path1030" />
	<g
   id="g1068">
		<path
   style="fill:#ffffff"
   d="m 399.845,895.388 c 0,2.605 2.115,4.72 4.717,4.72 h 141.572 c 2.602,0 4.72,-2.115 4.72,-4.72 V 881.234 H 399.845 Z"
   id="path1032" />
		<path
   style="fill:#ffffff"
   d="m 517.82,843.479 h -13.401 c -4.706,0 -9.216,-1.744 -12.699,-4.908 l -16.506,-15.005 c -2.61,-2.373 -5.993,-3.681 -9.523,-3.681 h -10.836 c -3.784,0 -7.341,1.469 -10.013,4.144 l -20.424,20.424 c -1.717,1.711 -4.451,1.846 -6.324,0.317 l -10.541,-8.622 c -1.014,-0.834 -2.05,-1.081 -2.925,-1.081 -0.974,0 -1.752,0.307 -2.085,0.468 -0.633,0.301 -2.696,1.491 -2.696,4.263 v 31.996 h 150.632 c -2.304,-15.983 -16.05,-28.315 -32.659,-28.315 z"
   id="path1034" />
		<path
   style="fill:#ffffff"
   d="m 900.067,697.188 c 0,-15.613 -12.701,-28.314 -28.312,-28.314 -1.591,0 -3.164,0.169 -4.72,0.43 v 55.765 c 1.551,0.259 3.123,0.428 4.72,0.428 15.611,0 28.312,-12.702 28.312,-28.309 z"
   id="path1036" />
		<path
   style="fill:#ffffff"
   d="m 409.283,985.051 h 226.515 c 18.215,0 33.034,-14.816 33.034,-33.034 V 933.143 H 376.248 v 18.874 c 0,18.218 14.819,33.034 33.035,33.034 z"
   id="path1038" />
		<path
   style="fill:#ffffff"
   d="m 612.203,513.142 h -42.711 c -2.376,23.813 -22.524,42.469 -46.953,42.469 -24.429,0 -44.576,-18.656 -46.952,-42.469 h -42.711 c -18.215,0 -33.032,14.816 -33.032,33.034 v 89.663 c 0,7.804 6.348,14.155 14.155,14.155 h 28.314 v -66.069 c 0,-2.605 2.112,-4.72 4.72,-4.72 2.608,0 4.72,2.115 4.72,4.72 v 179.326 c 0,7.809 6.351,14.16 14.157,14.16 h 113.257 c 7.807,0 14.157,-6.351 14.157,-14.16 V 583.925 c 0,-2.605 2.112,-4.72 4.72,-4.72 2.607,0 4.72,2.115 4.72,4.72 v 66.069 h 28.315 c 7.806,0 14.154,-6.351 14.154,-14.155 v -89.663 c 0.002,-18.218 -14.814,-33.034 -33.03,-33.034 z"
   id="path1040" />
		<path
   style="fill:#ffffff"
   d="m 666.897,412.553 v -0.048 c -4.5,-12.844 -16.688,-22.081 -31.082,-22.081 H 409.283 c -18.238,0 -33.053,14.815 -33.053,33.053 V 923.703 H 668.82 V 423.477 c 0,-3.798 -0.657,-7.502 -1.923,-10.924 z M 560.289,895.386 c 0,7.829 -6.329,14.158 -14.158,14.158 H 404.547 c -7.781,0 -14.158,-6.329 -14.158,-14.158 v -55.601 c 0,-5.533 3.143,-10.409 8.11,-12.799 4.97,-2.344 10.736,-1.641 15.049,1.875 l 7.22,5.908 17.393,-17.395 c 4.455,-4.452 10.409,-6.936 16.69,-6.936 h 10.83 c 5.908,0 11.533,2.202 15.894,6.139 l 16.502,15.003 c 1.735,1.593 3.985,2.438 6.329,2.438 h 13.408 c 23.441,0 42.475,19.08 42.475,42.475 z m 94.372,0 c 0,7.829 -6.329,14.158 -14.158,14.158 h -66.056 c -2.626,0 -4.736,-2.108 -4.736,-4.734 0,-2.58 2.111,-4.688 4.736,-4.688 h 66.056 c 2.626,0 4.736,-2.111 4.736,-4.736 v -14.158 h -70.792 c -2.626,0 -4.736,-2.108 -4.736,-4.734 0,-2.58 2.111,-4.688 4.736,-4.688 h 70.416 c -2.298,-15.987 -16.033,-28.317 -32.678,-28.317 h -13.408 c -4.688,0 -9.189,-1.735 -12.659,-4.922 l -16.502,-15.003 c -2.623,-2.392 -6,-3.658 -9.564,-3.658 h -28.081 c -2.626,0 -4.736,-2.156 -4.736,-4.734 0,-2.626 2.111,-4.734 4.736,-4.734 h 28.081 c 5.908,0 11.533,2.202 15.893,6.139 l 16.502,15.003 c 1.735,1.593 3.985,2.438 6.329,2.438 h 13.408 c 23.441,0 42.475,19.08 42.475,42.475 v 18.893 z m 0,-259.536 c 0,12.986 -10.548,23.58 -23.58,23.58 h -28.317 v 103.845 c 0,12.986 -10.596,23.58 -23.583,23.58 H 465.917 c -13.034,0 -23.583,-10.594 -23.583,-23.58 V 659.43 h -28.317 c -13.032,0 -23.629,-10.594 -23.629,-23.58 v -89.684 c 0,-23.395 19.082,-42.475 42.475,-42.475 h 84.95 v -18.846 c 0,-2.626 2.111,-4.736 4.734,-4.736 15.612,0 28.317,-12.705 28.317,-28.314 0,-15.612 -12.705,-28.317 -28.317,-28.317 -15.61,0 -28.317,12.705 -28.317,28.317 0,2.623 -2.108,4.734 -4.734,4.734 -2.578,0 -4.688,-2.111 -4.688,-4.734 0,-20.817 16.924,-37.741 37.739,-37.741 20.817,0 37.741,16.924 37.741,37.741 0,19.22 -14.44,35.113 -33.053,37.457 v 14.44 h 84.95 c 23.441,0 42.475,19.08 42.475,42.475 v 89.683 z"
   id="path1042" />
		<path
   style="fill:#ffffff"
   d="m 846.594,603.172 c -1.875,0.048 -3.095,0.094 -3.095,0.094 v -0.467 H 725.453 c -7.783,0 -14.158,6.375 -14.158,14.156 v 160.478 c 0,7.781 6.375,14.11 14.158,14.11 H 843.5 v -0.421 c 0,0 1.22,0.046 3.095,0.046 6.281,-1.454 11.018,-7.032 11.018,-13.735 V 616.955 c -0.001,-6.703 -4.737,-12.329 -11.019,-13.783 z m -12.61,112.891 h -2.344 c -11.72,0 -21.236,-9.516 -21.236,-21.236 v -56.633 c 0,-6.517 -5.297,-11.814 -11.814,-11.814 -6.471,0 -11.768,5.297 -11.768,11.814 V 744.38 c 0,0.142 -0.094,0.327 -0.094,0.469 0.048,0.609 0.094,1.266 0.094,1.875 0,16.924 -13.783,30.709 -30.707,30.709 -16.878,0 -30.661,-13.785 -30.661,-30.709 0,-16.878 13.783,-30.661 30.661,-30.661 8.25,0 15.752,3.283 21.236,8.58 v -86.45 c 0,-11.72 9.564,-21.239 21.239,-21.239 11.72,0 21.236,9.518 21.236,21.239 v 56.633 c 0,6.515 5.297,11.814 11.814,11.814 h 2.344 c 2.626,0 4.736,2.108 4.736,4.688 0,2.627 -2.111,4.735 -4.736,4.735 z"
   id="path1044" />
		<path
   style="fill:#ffffff"
   d="m 867.035,777.411 c 0,5.272 -1.8,10.096 -4.735,14.028 4.493,0.071 8.337,0.126 9.455,0.126 52.041,0 94.38,-42.34 94.38,-94.378 0,-52.043 -42.34,-94.383 -94.38,-94.383 -1.118,0 -4.962,0.056 -9.455,0.126 2.935,3.933 4.735,8.756 4.735,14.028 v 42.814 c 1.563,-0.196 3.135,-0.34 4.72,-0.34 20.814,0 37.752,16.937 37.752,37.754 0,20.812 -16.937,37.749 -37.752,37.749 -1.589,0 -3.16,-0.144 -4.72,-0.34 z"
   id="path1046" />
		<path
   style="fill:#ffffff"
   d="m 903.182,426.148 c -15.424,-21.612 -40.694,-35.724 -69.198,-35.724 -34.834,0 -64.79,21.051 -77.824,51.101 -4.594,10.409 -7.078,21.848 -7.078,33.85 0,7.689 1.03,15.097 2.953,22.175 9.752,36.146 42.802,62.775 81.949,62.775 46.836,0 84.95,-38.117 84.95,-84.95 0,-18.333 -5.815,-35.302 -15.752,-49.227 z m -92.779,96.435 c 0,2.58 -2.111,4.736 -4.736,4.736 -2.578,0 -4.688,-2.156 -4.688,-4.736 v -82.979 l -20.252,20.252 c -1.875,1.829 -4.83,1.829 -6.705,0 -1.829,-1.829 -1.829,-4.828 0,-6.657 l 28.317,-28.317 c 0.423,-0.469 0.984,-0.797 1.547,-1.032 0.469,-0.185 0.936,-0.282 1.454,-0.282 0.14,-0.046 0.234,-0.092 0.327,-0.092 0.142,0 0.236,0.046 0.375,0.092 0.469,0 0.984,0.096 1.454,0.282 0.563,0.236 1.078,0.563 1.547,1.032 l 28.317,28.317 c 1.827,1.829 1.827,4.828 0,6.657 -0.939,0.891 -2.156,1.36 -3.376,1.36 -1.172,0 -2.39,-0.469 -3.328,-1.36 l -20.252,-20.252 v 82.979 z m 83.542,-24.989 -28.269,28.317 c -0.469,0.423 -0.984,0.797 -1.547,1.032 -0.609,0.233 -1.22,0.375 -1.829,0.375 -0.609,0 -1.22,-0.142 -1.781,-0.375 -0.563,-0.236 -1.126,-0.609 -1.547,-1.032 l -28.317,-28.317 c -1.829,-1.827 -1.829,-4.828 0,-6.657 1.829,-1.875 4.828,-1.875 6.705,0 l 20.252,20.254 V 428.21 c 0,-2.626 2.111,-4.734 4.688,-4.734 2.626,0 4.736,2.108 4.736,4.734 v 82.981 l 20.252,-20.254 c 1.829,-1.875 4.828,-1.875 6.657,0 1.875,1.83 1.875,4.831 0,6.657 z"
   id="path1048" />
		<path
   style="fill:#ffffff"
   d="m 522.54,546.17 c 19.216,0 35.09,-14.437 37.424,-33.029 h -74.848 c 2.335,18.592 18.209,33.029 37.424,33.029 z"
   id="path1050" />
		<path
   style="fill:#ffffff"
   d="m 756.135,767.971 c 11.711,0 21.237,-9.526 21.237,-21.237 0,-11.706 -9.526,-21.232 -21.237,-21.232 -11.708,0 -21.234,9.526 -21.234,21.232 0,11.711 9.526,21.237 21.234,21.237 z"
   id="path1052" />
		<rect
   x="753.77802"
   y="824.599"
   style="fill:#ffffff"
   width="174.604"
   height="47.195"
   id="rect1054" />
		<path
   style="fill:#ffffff"
   d="m 725.461,871.794 h 18.877 v -47.195 h -18.877 c -7.807,0 -14.155,6.351 -14.155,14.16 v 18.875 c 0,7.809 6.348,14.16 14.155,14.16 z"
   id="path1056" />
		<path
   style="fill:#ffffff"
   d="M 956.721,881.227 H 725.453 c -7.783,0 -14.158,6.378 -14.158,14.158 v 18.895 c 0,7.781 6.375,14.158 14.158,14.158 h 231.268 c 7.783,0 14.158,-6.378 14.158,-14.158 v -18.895 c 0,-7.78 -6.375,-14.158 -14.158,-14.158 z m -47.212,28.317 H 772.662 c -2.626,0 -4.734,-2.108 -4.734,-4.734 0,-2.58 2.108,-4.688 4.734,-4.688 h 136.847 c 2.626,0 4.736,2.108 4.736,4.688 0,2.626 -2.11,4.734 -4.736,4.734 z"
   id="path1058" />
		<path
   style="fill:#ffffff"
   d="m 956.699,824.599 h -18.877 v 47.195 h 18.877 c 7.807,0 14.157,-6.351 14.157,-14.16 v -18.875 c 0,-7.809 -6.351,-14.16 -14.157,-14.16 z"
   id="path1060" />
		<path
   style="fill:#ffffff"
   d="m 956.699,937.863 h -18.877 v 47.189 h 18.877 c 7.807,0 14.157,-6.351 14.157,-14.16 v -18.874 c 0,-7.805 -6.351,-14.155 -14.157,-14.155 z"
   id="path1062" />
		<path
   style="fill:#ffffff"
   d="m 711.306,952.017 v 18.874 c 0,7.809 6.348,14.16 14.155,14.16 h 18.877 v -47.189 h -18.877 c -7.807,0.001 -14.155,6.351 -14.155,14.155 z"
   id="path1064" />
		<rect
   x="753.77802"
   y="937.86298"
   style="fill:#ffffff"
   width="174.604"
   height="47.188999"
   id="rect1066" />
	</g>
</g>
</svg>
