<?xml version="1.0" encoding="iso-8859-1"?>
<!-- Generator: Adobe Illustrator 21.0.2, SVG Export Plug-In . SVG Version: 6.00 Build 0)  -->
<svg version="1.1" id="&#x428;&#x430;&#x440;_1" xmlns="http://www.w3.org/2000/svg" xmlns:xlink="http://www.w3.org/1999/xlink"
	 x="0px" y="0px" viewBox="0 0 1500 1500" style="enable-background:new 0 0 1500 1500;" xml:space="preserve">
<g>
	<g>
		<ellipse style="fill:#FFFFFF;" cx="755.414" cy="750" rx="644.586" ry="629.503"/>
		<ellipse style="fill:#FEFEFE;" cx="754.772" cy="749.259" rx="643.013" ry="627.967"/>
		<ellipse style="fill:#FDFDFD;" cx="754.13" cy="748.518" rx="641.44" ry="626.431"/>
		<ellipse style="fill:#FCFCFC;" cx="753.487" cy="747.777" rx="639.868" ry="624.895"/>
		<ellipse style="fill:#FBFBFB;" cx="752.845" cy="747.036" rx="638.295" ry="623.359"/>
		<ellipse style="fill:#FAFAFA;" cx="752.203" cy="746.295" rx="636.722" ry="621.823"/>
		<ellipse style="fill:#F9F9F9;" cx="751.561" cy="745.555" rx="635.149" ry="620.287"/>
		<ellipse style="fill:#F8F8F8;" cx="750.919" cy="744.814" rx="633.577" ry="618.751"/>
		<ellipse style="fill:#F7F7F7;" cx="750.277" cy="744.073" rx="632.004" ry="617.215"/>
		<ellipse style="fill:#F6F6F6;" cx="749.634" cy="743.332" rx="630.431" ry="615.679"/>
		<ellipse style="fill:#F5F5F5;" cx="748.992" cy="742.591" rx="628.858" ry="614.143"/>
		<ellipse style="fill:#F4F4F4;" cx="748.35" cy="741.85" rx="627.285" ry="612.607"/>
		<ellipse style="fill:#F3F3F3;" cx="747.708" cy="741.109" rx="625.713" ry="611.071"/>
		<ellipse style="fill:#F2F2F2;" cx="747.066" cy="740.368" rx="624.14" ry="609.535"/>
		<ellipse style="fill:#F1F1F1;" cx="746.423" cy="739.627" rx="622.567" ry="607.999"/>
		<ellipse style="fill:#F0F0F0;" cx="745.781" cy="738.886" rx="620.994" ry="606.463"/>
		<ellipse style="fill:#EFEFEF;" cx="745.139" cy="738.145" rx="619.421" ry="604.927"/>
		<ellipse style="fill:#EEEEEE;" cx="744.497" cy="737.405" rx="617.849" ry="603.391"/>
		<ellipse style="fill:#EDEDED;" cx="743.855" cy="736.664" rx="616.276" ry="601.855"/>
		<ellipse style="fill:#ECECEC;" cx="743.213" cy="735.923" rx="614.703" ry="600.319"/>
		<ellipse style="fill:#EBEBEB;" cx="742.57" cy="735.182" rx="613.13" ry="598.783"/>
		<ellipse style="fill:#EAEAEA;" cx="741.928" cy="734.441" rx="611.557" ry="597.247"/>
		<ellipse style="fill:#E9E9E9;" cx="741.286" cy="733.7" rx="609.985" ry="595.711"/>
		<ellipse style="fill:#E8E8E8;" cx="740.644" cy="732.959" rx="608.412" ry="594.175"/>
		<ellipse style="fill:#E7E7E7;" cx="740.002" cy="732.218" rx="606.839" ry="592.639"/>
		<ellipse style="fill:#E6E6E6;" cx="739.359" cy="731.477" rx="605.266" ry="591.103"/>
		<ellipse style="fill:#E5E5E5;" cx="738.717" cy="730.736" rx="603.694" ry="589.567"/>
		<ellipse style="fill:#E4E4E4;" cx="738.075" cy="729.996" rx="602.121" ry="588.031"/>
		<ellipse style="fill:#E3E3E3;" cx="737.433" cy="729.255" rx="600.548" ry="586.495"/>
		<ellipse style="fill:#E2E2E2;" cx="736.791" cy="728.514" rx="598.975" ry="584.959"/>
		<ellipse style="fill:#E1E1E1;" cx="736.149" cy="727.773" rx="597.402" ry="583.423"/>
		<ellipse style="fill:#E0E0E0;" cx="735.506" cy="727.032" rx="595.83" ry="581.887"/>
		<ellipse style="fill:#DFDFDF;" cx="734.864" cy="726.291" rx="594.257" ry="580.351"/>
		<ellipse style="fill:#DEDEDE;" cx="734.222" cy="725.55" rx="592.684" ry="578.815"/>
		<ellipse style="fill:#DDDDDD;" cx="733.58" cy="724.809" rx="591.111" ry="577.279"/>
		<ellipse style="fill:#DCDCDC;" cx="732.938" cy="724.068" rx="589.538" ry="575.743"/>
		<ellipse style="fill:#DBDBDB;" cx="732.296" cy="723.327" rx="587.966" ry="574.207"/>
		<ellipse style="fill:#DADADA;" cx="731.653" cy="722.586" rx="586.393" ry="572.671"/>
		<ellipse style="fill:#D9D9D9;" cx="731.011" cy="721.846" rx="584.82" ry="571.135"/>
		<ellipse style="fill:#D8D8D8;" cx="730.369" cy="721.105" rx="583.247" ry="569.599"/>
		<ellipse style="fill:#D7D7D7;" cx="729.727" cy="720.364" rx="581.674" ry="568.063"/>
		<ellipse style="fill:#D6D6D6;" cx="729.085" cy="719.623" rx="580.102" ry="566.527"/>
		<ellipse style="fill:#D5D5D5;" cx="728.443" cy="718.882" rx="578.529" ry="564.991"/>
		<ellipse style="fill:#D4D4D4;" cx="727.8" cy="718.141" rx="576.956" ry="563.455"/>
		<ellipse style="fill:#D3D3D3;" cx="727.158" cy="717.4" rx="575.383" ry="561.919"/>
		<ellipse style="fill:#D2D2D2;" cx="726.516" cy="716.659" rx="573.81" ry="560.383"/>
		<ellipse style="fill:#D1D1D1;" cx="725.874" cy="715.918" rx="572.238" ry="558.847"/>
		<ellipse style="fill:#D1D1D1;" cx="725.232" cy="715.177" rx="570.665" ry="557.311"/>
		<ellipse style="fill:#D0D0D0;" cx="724.589" cy="714.437" rx="569.092" ry="555.775"/>
		<ellipse style="fill:#CFCFCF;" cx="723.947" cy="713.696" rx="567.519" ry="554.239"/>
		<ellipse style="fill:#CECECE;" cx="723.305" cy="712.955" rx="565.947" ry="552.703"/>
		<ellipse style="fill:#CDCDCD;" cx="722.663" cy="712.214" rx="564.374" ry="551.167"/>
		<ellipse style="fill:#CCCCCC;" cx="722.021" cy="711.473" rx="562.801" ry="549.631"/>
		<ellipse style="fill:#CBCBCB;" cx="721.379" cy="710.732" rx="561.228" ry="548.095"/>
		<ellipse style="fill:#CACACA;" cx="720.736" cy="709.991" rx="559.655" ry="546.56"/>
		<ellipse style="fill:#C9C9C9;" cx="720.094" cy="709.25" rx="558.083" ry="545.023"/>
		<ellipse style="fill:#C8C8C8;" cx="719.452" cy="708.509" rx="556.51" ry="543.487"/>
		<ellipse style="fill:#C7C7C7;" cx="718.81" cy="707.768" rx="554.937" ry="541.952"/>
		<ellipse style="fill:#C6C6C6;" cx="718.168" cy="707.027" rx="553.364" ry="540.416"/>
		<ellipse style="fill:#C5C5C5;" cx="717.526" cy="706.287" rx="551.791" ry="538.88"/>
		<ellipse style="fill:#C4C4C4;" cx="716.883" cy="705.546" rx="550.219" ry="537.344"/>
		<ellipse style="fill:#C3C3C3;" cx="716.241" cy="704.805" rx="548.646" ry="535.808"/>
		<ellipse style="fill:#C2C2C2;" cx="715.599" cy="704.064" rx="547.073" ry="534.272"/>
		<ellipse style="fill:#C1C1C1;" cx="714.957" cy="703.323" rx="545.5" ry="532.736"/>
		<ellipse style="fill:#C0C0C0;" cx="714.315" cy="702.582" rx="543.927" ry="531.2"/>
		<ellipse style="fill:#BFBFBF;" cx="713.672" cy="701.841" rx="542.355" ry="529.664"/>
		<ellipse style="fill:#BEBEBE;" cx="713.03" cy="701.1" rx="540.782" ry="528.128"/>
		<ellipse style="fill:#BDBDBD;" cx="712.388" cy="700.359" rx="539.209" ry="526.592"/>
		<ellipse style="fill:#BCBCBC;" cx="711.746" cy="699.618" rx="537.636" ry="525.056"/>
		<ellipse style="fill:#BBBBBB;" cx="711.104" cy="698.878" rx="536.063" ry="523.52"/>
		<ellipse style="fill:#BABABA;" cx="710.462" cy="698.137" rx="534.491" ry="521.984"/>
		<ellipse style="fill:#B9B9B9;" cx="709.819" cy="697.396" rx="532.918" ry="520.448"/>
		<ellipse style="fill:#B8B8B8;" cx="709.177" cy="696.655" rx="531.345" ry="518.912"/>
		<ellipse style="fill:#B7B7B7;" cx="708.535" cy="695.914" rx="529.772" ry="517.376"/>
		<ellipse style="fill:#B6B6B6;" cx="707.893" cy="695.173" rx="528.2" ry="515.84"/>
		<ellipse style="fill:#B5B5B5;" cx="707.251" cy="694.432" rx="526.627" ry="514.304"/>
		<ellipse style="fill:#B4B4B4;" cx="706.608" cy="693.691" rx="525.054" ry="512.768"/>
		<ellipse style="fill:#B3B3B3;" cx="705.966" cy="692.95" rx="523.481" ry="511.232"/>
		<ellipse style="fill:#B2B2B2;" cx="705.324" cy="692.209" rx="521.908" ry="509.696"/>
		<ellipse style="fill:#B1B1B1;" cx="704.682" cy="691.468" rx="520.336" ry="508.16"/>
		<ellipse style="fill:#B0B0B0;" cx="704.04" cy="690.728" rx="518.763" ry="506.624"/>
		<ellipse style="fill:#AFAFAF;" cx="703.398" cy="689.987" rx="517.19" ry="505.088"/>
		<ellipse style="fill:#AEAEAE;" cx="702.755" cy="689.246" rx="515.617" ry="503.552"/>
		<ellipse style="fill:#ADADAD;" cx="702.113" cy="688.505" rx="514.044" ry="502.016"/>
		<ellipse style="fill:#ACACAC;" cx="701.471" cy="687.764" rx="512.472" ry="500.48"/>
		<ellipse style="fill:#ABABAB;" cx="700.829" cy="687.023" rx="510.899" ry="498.944"/>
		<ellipse style="fill:#AAAAAA;" cx="700.187" cy="686.282" rx="509.326" ry="497.408"/>
		<ellipse style="fill:#A9A9A9;" cx="699.544" cy="685.541" rx="507.753" ry="495.872"/>
		<ellipse style="fill:#A8A8A8;" cx="698.902" cy="684.8" rx="506.18" ry="494.336"/>
		<ellipse style="fill:#A7A7A7;" cx="698.26" cy="684.059" rx="504.608" ry="492.8"/>
		<ellipse style="fill:#A6A6A6;" cx="697.618" cy="683.318" rx="503.035" ry="491.264"/>
		<ellipse style="fill:#A5A5A5;" cx="696.976" cy="682.578" rx="501.462" ry="489.728"/>
		<ellipse style="fill:#A4A4A4;" cx="696.334" cy="681.837" rx="499.889" ry="488.192"/>
		<ellipse style="fill:#A3A3A3;" cx="695.691" cy="681.096" rx="498.316" ry="486.656"/>
	</g>
	<linearGradient id="SVGID_1_" gradientUnits="userSpaceOnUse" x1="100" y1="681.1039" x2="1248.0404" y2="681.1039">
		<stop  offset="0" style="stop-color:#FF9900"/>
		<stop  offset="1" style="stop-color:#FF3B00"/>
	</linearGradient>
	<path style="fill:url(#SVGID_1_);" d="M1248.04,681.104c0,28.423-2.166,56.306-6.406,83.603c0,0.134-0.046,0.269-0.046,0.405
		c-0.72,5.144-1.579,10.242-2.527,15.339c-1.804,9.927-3.926,19.761-6.27,29.46c-2.888,11.958-6.138,23.779-9.836,35.417
		c-55.764,178.03-199.913,318.525-382.499,372.394c-5.1,1.489-10.244,2.932-15.386,4.331c-7.895,2.075-15.837,4.016-23.823,5.82
		c-36.274,8.032-73.857,12.678-112.431,13.625c-4.917,0.137-9.834,0.181-14.797,0.181c-7.671,0-15.339-0.134-22.966-0.452
		C344.668,1229.453,100,983.161,100,681.104c0-309.636,256.985-560.576,574.02-560.576
		C991.009,120.528,1248.04,371.468,1248.04,681.104z"/>
	<path style="opacity:0.2;" d="M1241.634,764.706c0,0.134-0.046,0.269-0.046,0.405c-0.72,5.144-1.579,10.242-2.527,15.339
		c-1.804,9.927-3.926,19.761-6.27,29.46c-2.888,11.958-6.138,23.779-9.836,35.417c-55.764,178.03-199.913,318.525-382.499,372.394
		c-5.1,1.489-10.244,2.932-15.386,4.331c-7.895,2.075-15.837,4.016-23.823,5.82c-36.274,8.032-73.857,12.678-112.431,13.625
		c-4.917,0.137-9.834,0.181-14.797,0.181c-7.671,0-15.339-0.134-22.966-0.452L394.836,985.01l-1.577-4.104l-16.604-43.042
		l1.128-4.739l2.21-9.429l7.219-30.634v-65.734l14.619-29.236l-14.619-138.644c0,0,0-80.263-7.263-94.882
		c-7.309-14.617,0-58.335,0-72.953c0-14.617,7.263-29.236,36.499-51.118c29.191-21.836,14.575-14.573,43.764-29.189
		c29.189-14.573,14.619-7.309,36.455-7.309h94.926c14.165,0,72.458,8.12,75.3,8.528v0.044c0.044,0,0.09,0,0.09,0l85.046,85.001
		l8.03,7.984l-3.879-64.02l47.058-37.536l80.307,2.527L1241.634,764.706z"/>
	<g>
		<path style="fill:#FFFFFF;" d="M399.845,895.388c0,2.605,2.115,4.72,4.717,4.72h141.572c2.602,0,4.72-2.115,4.72-4.72v-14.154
			H399.845V895.388z"/>
		<path style="fill:#FFFFFF;" d="M517.82,843.479h-13.401c-4.706,0-9.216-1.744-12.699-4.908l-16.506-15.005
			c-2.61-2.373-5.993-3.681-9.523-3.681h-10.836c-3.784,0-7.341,1.469-10.013,4.144l-20.424,20.424
			c-1.717,1.711-4.451,1.846-6.324,0.317l-10.541-8.622c-1.014-0.834-2.05-1.081-2.925-1.081c-0.974,0-1.752,0.307-2.085,0.468
			c-0.633,0.301-2.696,1.491-2.696,4.263v31.996h150.632C548.175,855.811,534.429,843.479,517.82,843.479z"/>
		<path style="fill:#FFFFFF;" d="M900.067,697.188c0-15.613-12.701-28.314-28.312-28.314c-1.591,0-3.164,0.169-4.72,0.43v55.765
			c1.551,0.259,3.123,0.428,4.72,0.428C887.366,725.497,900.067,712.795,900.067,697.188z"/>
		<path style="fill:#FFFFFF;" d="M409.283,985.051h226.515c18.215,0,33.034-14.816,33.034-33.034v-18.874H376.248v18.874
			C376.248,970.235,391.067,985.051,409.283,985.051z"/>
		<path style="fill:#FFFFFF;" d="M612.203,513.142h-42.711c-2.376,23.813-22.524,42.469-46.953,42.469
			c-24.429,0-44.576-18.656-46.952-42.469h-42.711c-18.215,0-33.032,14.816-33.032,33.034v89.663
			c0,7.804,6.348,14.155,14.155,14.155h28.314v-66.069c0-2.605,2.112-4.72,4.72-4.72c2.608,0,4.72,2.115,4.72,4.72v179.326
			c0,7.809,6.351,14.16,14.157,14.16h113.257c7.807,0,14.157-6.351,14.157-14.16V583.925c0-2.605,2.112-4.72,4.72-4.72
			c2.607,0,4.72,2.115,4.72,4.72v66.069h28.315c7.806,0,14.154-6.351,14.154-14.155v-89.663
			C645.235,527.958,630.419,513.142,612.203,513.142z"/>
		<path style="fill:#FFFFFF;" d="M666.897,412.553v-0.048c-4.5-12.844-16.688-22.081-31.082-22.081H409.283
			c-18.238,0-33.053,14.815-33.053,33.053v500.226H668.82V423.477C668.82,419.679,668.163,415.975,666.897,412.553z
			 M560.289,895.386c0,7.829-6.329,14.158-14.158,14.158H404.547c-7.781,0-14.158-6.329-14.158-14.158v-55.601
			c0-5.533,3.143-10.409,8.11-12.799c4.97-2.344,10.736-1.641,15.049,1.875l7.22,5.908l17.393-17.395
			c4.455-4.452,10.409-6.936,16.69-6.936h10.83c5.908,0,11.533,2.202,15.894,6.139l16.502,15.003
			c1.735,1.593,3.985,2.438,6.329,2.438h13.408c23.441,0,42.475,19.08,42.475,42.475V895.386z M654.661,895.386
			c0,7.829-6.329,14.158-14.158,14.158h-66.056c-2.626,0-4.736-2.108-4.736-4.734c0-2.58,2.111-4.688,4.736-4.688h66.056
			c2.626,0,4.736-2.111,4.736-4.736v-14.158h-70.792c-2.626,0-4.736-2.108-4.736-4.734c0-2.58,2.111-4.688,4.736-4.688h70.416
			c-2.298-15.987-16.033-28.317-32.678-28.317h-13.408c-4.688,0-9.189-1.735-12.659-4.922l-16.502-15.003
			c-2.623-2.392-6-3.658-9.564-3.658h-28.081c-2.626,0-4.736-2.156-4.736-4.734c0-2.626,2.111-4.734,4.736-4.734h28.081
			c5.908,0,11.533,2.202,15.893,6.139l16.502,15.003c1.735,1.593,3.985,2.438,6.329,2.438h13.408
			c23.441,0,42.475,19.08,42.475,42.475V895.386z M654.661,635.85c0,12.986-10.548,23.58-23.58,23.58h-28.317v103.845
			c0,12.986-10.596,23.58-23.583,23.58H465.917c-13.034,0-23.583-10.594-23.583-23.58V659.43h-28.317
			c-13.032,0-23.629-10.594-23.629-23.58v-89.684c0-23.395,19.082-42.475,42.475-42.475h84.95v-18.846
			c0-2.626,2.111-4.736,4.734-4.736c15.612,0,28.317-12.705,28.317-28.314c0-15.612-12.705-28.317-28.317-28.317
			c-15.61,0-28.317,12.705-28.317,28.317c0,2.623-2.108,4.734-4.734,4.734c-2.578,0-4.688-2.111-4.688-4.734
			c0-20.817,16.924-37.741,37.739-37.741c20.817,0,37.741,16.924,37.741,37.741c0,19.22-14.44,35.113-33.053,37.457v14.44h84.95
			c23.441,0,42.475,19.08,42.475,42.475V635.85z"/>
		<path style="fill:#FFFFFF;" d="M846.594,603.172c-1.875,0.048-3.095,0.094-3.095,0.094v-0.467H725.453
			c-7.783,0-14.158,6.375-14.158,14.156v160.478c0,7.781,6.375,14.11,14.158,14.11H843.5v-0.421c0,0,1.22,0.046,3.095,0.046
			c6.281-1.454,11.018-7.032,11.018-13.735V616.955C857.612,610.252,852.876,604.626,846.594,603.172z M833.984,716.063h-2.344
			c-11.72,0-21.236-9.516-21.236-21.236v-56.633c0-6.517-5.297-11.814-11.814-11.814c-6.471,0-11.768,5.297-11.768,11.814V744.38
			c0,0.142-0.094,0.327-0.094,0.469c0.048,0.609,0.094,1.266,0.094,1.875c0,16.924-13.783,30.709-30.707,30.709
			c-16.878,0-30.661-13.785-30.661-30.709c0-16.878,13.783-30.661,30.661-30.661c8.25,0,15.752,3.283,21.236,8.58v-86.45
			c0-11.72,9.564-21.239,21.239-21.239c11.72,0,21.236,9.518,21.236,21.239v56.633c0,6.515,5.297,11.814,11.814,11.814h2.344
			c2.626,0,4.736,2.108,4.736,4.688C838.72,713.955,836.609,716.063,833.984,716.063z"/>
		<path style="fill:#FFFFFF;" d="M867.035,777.411c0,5.272-1.8,10.096-4.735,14.028c4.493,0.071,8.337,0.126,9.455,0.126
			c52.041,0,94.38-42.34,94.38-94.378c0-52.043-42.34-94.383-94.38-94.383c-1.118,0-4.962,0.056-9.455,0.126
			c2.935,3.933,4.735,8.756,4.735,14.028v42.814c1.563-0.196,3.135-0.34,4.72-0.34c20.814,0,37.752,16.937,37.752,37.754
			c0,20.812-16.937,37.749-37.752,37.749c-1.589,0-3.16-0.144-4.72-0.34V777.411z"/>
		<path style="fill:#FFFFFF;" d="M903.182,426.148c-15.424-21.612-40.694-35.724-69.198-35.724
			c-34.834,0-64.79,21.051-77.824,51.101c-4.594,10.409-7.078,21.848-7.078,33.85c0,7.689,1.03,15.097,2.953,22.175
			c9.752,36.146,42.802,62.775,81.949,62.775c46.836,0,84.95-38.117,84.95-84.95C918.934,457.042,913.119,440.073,903.182,426.148z
			 M810.403,522.583c0,2.58-2.111,4.736-4.736,4.736c-2.578,0-4.688-2.156-4.688-4.736v-82.979l-20.252,20.252
			c-1.875,1.829-4.83,1.829-6.705,0c-1.829-1.829-1.829-4.828,0-6.657l28.317-28.317c0.423-0.469,0.984-0.797,1.547-1.032
			c0.469-0.185,0.936-0.282,1.454-0.282c0.14-0.046,0.234-0.092,0.327-0.092c0.142,0,0.236,0.046,0.375,0.092
			c0.469,0,0.984,0.096,1.454,0.282c0.563,0.236,1.078,0.563,1.547,1.032l28.317,28.317c1.827,1.829,1.827,4.828,0,6.657
			c-0.939,0.891-2.156,1.36-3.376,1.36c-1.172,0-2.39-0.469-3.328-1.36l-20.252-20.252V522.583z M893.945,497.594l-28.269,28.317
			c-0.469,0.423-0.984,0.797-1.547,1.032c-0.609,0.233-1.22,0.375-1.829,0.375c-0.609,0-1.22-0.142-1.781-0.375
			c-0.563-0.236-1.126-0.609-1.547-1.032l-28.317-28.317c-1.829-1.827-1.829-4.828,0-6.657c1.829-1.875,4.828-1.875,6.705,0
			l20.252,20.254V428.21c0-2.626,2.111-4.734,4.688-4.734c2.626,0,4.736,2.108,4.736,4.734v82.981l20.252-20.254
			c1.829-1.875,4.828-1.875,6.657,0C895.82,492.767,895.82,495.768,893.945,497.594z"/>
		<path style="fill:#FFFFFF;" d="M522.54,546.17c19.216,0,35.09-14.437,37.424-33.029h-74.848
			C487.451,531.733,503.325,546.17,522.54,546.17z"/>
		<path style="fill:#FFFFFF;" d="M756.135,767.971c11.711,0,21.237-9.526,21.237-21.237c0-11.706-9.526-21.232-21.237-21.232
			c-11.708,0-21.234,9.526-21.234,21.232C734.901,758.445,744.427,767.971,756.135,767.971z"/>
		<rect x="753.778" y="824.599" style="fill:#FFFFFF;" width="174.604" height="47.195"/>
		<path style="fill:#FFFFFF;" d="M725.461,871.794h18.877v-47.195h-18.877c-7.807,0-14.155,6.351-14.155,14.16v18.875
			C711.306,865.443,717.654,871.794,725.461,871.794z"/>
		<path style="fill:#FFFFFF;" d="M956.721,881.227H725.453c-7.783,0-14.158,6.378-14.158,14.158v18.895
			c0,7.781,6.375,14.158,14.158,14.158h231.268c7.783,0,14.158-6.378,14.158-14.158v-18.895
			C970.879,887.605,964.504,881.227,956.721,881.227z M909.509,909.544H772.662c-2.626,0-4.734-2.108-4.734-4.734
			c0-2.58,2.108-4.688,4.734-4.688h136.847c2.626,0,4.736,2.108,4.736,4.688C914.245,907.436,912.135,909.544,909.509,909.544z"/>
		<path style="fill:#FFFFFF;" d="M956.699,824.599h-18.877v47.195h18.877c7.807,0,14.157-6.351,14.157-14.16v-18.875
			C970.856,830.95,964.505,824.599,956.699,824.599z"/>
		<path style="fill:#FFFFFF;" d="M956.699,937.863h-18.877v47.189h18.877c7.807,0,14.157-6.351,14.157-14.16v-18.874
			C970.856,944.213,964.505,937.863,956.699,937.863z"/>
		<path style="fill:#FFFFFF;" d="M711.306,952.017v18.874c0,7.809,6.348,14.16,14.155,14.16h18.877v-47.189h-18.877
			C717.654,937.863,711.306,944.213,711.306,952.017z"/>
		<rect x="753.778" y="937.863" style="fill:#FFFFFF;" width="174.604" height="47.189"/>
	</g>
</g>
</svg>
