<?xml version="1.0" encoding="UTF-8" standalone="no"?>
<svg
   xmlns:dc="http://purl.org/dc/elements/1.1/"
   xmlns:cc="http://creativecommons.org/ns#"
   xmlns:rdf="http://www.w3.org/1999/02/22-rdf-syntax-ns#"
   xmlns:svg="http://www.w3.org/2000/svg"
   xmlns="http://www.w3.org/2000/svg"
   xmlns:sodipodi="http://sodipodi.sourceforge.net/DTD/sodipodi-0.dtd"
   xmlns:inkscape="http://www.inkscape.org/namespaces/inkscape"
   version="1.1"
   id="Шар_1"
   x="0px"
   y="0px"
   viewBox="0 0 1500 1500"
   style="enable-background:new 0 0 1500 1500;"
   xml:space="preserve"
   sodipodi:docname="logo.svg"
   inkscape:version="1.0.1 (c497b03c, 2020-09-10)"><metadata
   id="metadata1077"><rdf:RDF><cc:Work
       rdf:about=""><dc:format>image/svg+xml</dc:format><dc:type
         rdf:resource="http://purl.org/dc/dcmitype/StillImage" /><dc:title></dc:title></cc:Work></rdf:RDF></metadata><defs
   id="defs1075" /><sodipodi:namedview
   pagecolor="#ffffff"
   bordercolor="#666666"
   borderopacity="1"
   objecttolerance="10"
   gridtolerance="10"
   guidetolerance="10"
   inkscape:pageopacity="0"
   inkscape:pageshadow="2"
   inkscape:window-width="1920"
   inkscape:window-height="979"
   id="namedview1073"
   showgrid="false"
   inkscape:zoom="0.47466667"
   inkscape:cx="750"
   inkscape:cy="750"
   inkscape:window-x="0"
   inkscape:window-y="23"
   inkscape:window-maximized="1"
   inkscape:current-layer="g1070" />
<g
   id="g1070"
   transform="translate(88.483146,40.02809)">
	
	<linearGradient
   id="SVGID_1_"
   gradientUnits="userSpaceOnUse"
   x1="100"
   y1="681.10388"
   x2="1248.0404"
   y2="681.10388">
		<stop
   offset="0"
   style="stop-color:#FF9900"
   id="stop1023" />
		<stop
   offset="1"
   style="stop-color:#FF3B00"
   id="stop1025" />
	</linearGradient>
	<path
   style="fill:url(#SVGID_1_)"
   d="m 1248.04,681.104 c 0,28.423 -2.166,56.306 -6.406,83.603 0,0.134 -0.046,0.269 -0.046,0.405 -0.72,5.144 -1.579,10.242 -2.527,15.339 -1.804,9.927 -3.926,19.761 -6.27,29.46 -2.888,11.958 -6.138,23.779 -9.836,35.417 -55.764,178.03 -199.913,318.525 -382.499,372.394 -5.1,1.489 -10.244,2.932 -15.386,4.331 -7.895,2.075 -15.837,4.016 -23.823,5.82 -36.274,8.032 -73.857,12.678 -112.431,13.625 -4.917,0.137 -9.834,0.181 -14.797,0.181 -7.671,0 -15.339,-0.134 -22.966,-0.452 C 344.668,1229.453 100,983.161 100,681.104 100,371.468 356.985,120.528 674.02,120.528 c 316.989,0 574.02,250.94 574.02,560.576 z"
   id="path1028" />
	<path
   style="opacity:0.2"
   d="m 1241.634,764.706 c 0,0.134 -0.046,0.269 -0.046,0.405 -0.72,5.144 -1.579,10.242 -2.527,15.339 -1.804,9.927 -3.926,19.761 -6.27,29.46 -2.888,11.958 -6.138,23.779 -9.836,35.417 -55.764,178.03 -199.913,318.525 -382.499,372.394 -5.1,1.489 -10.244,2.932 -15.386,4.331 -7.895,2.075 -15.837,4.016 -23.823,5.82 -36.274,8.032 -73.857,12.678 -112.431,13.625 -4.917,0.137 -9.834,0.181 -14.797,0.181 -7.671,0 -15.339,-0.134 -22.966,-0.452 L 394.836,985.01 l -1.577,-4.104 -16.604,-43.042 1.128,-4.739 2.21,-9.429 7.219,-30.634 v -65.734 l 14.619,-29.236 -14.619,-138.644 c 0,0 0,-80.263 -7.263,-94.882 -7.309,-14.617 0,-58.335 0,-72.953 0,-14.617 7.263,-29.236 36.499,-51.118 29.191,-21.836 14.575,-14.573 43.764,-29.189 29.189,-14.573 14.619,-7.309 36.455,-7.309 h 94.926 c 14.165,0 72.458,8.12 75.3,8.528 v 0.044 c 0.044,0 0.09,0 0.09,0 l 85.046,85.001 8.03,7.984 -3.879,-64.02 47.058,-37.536 80.307,2.527 z"
   id="path1030" />
	<g
   id="g1068">
		<path
   style="fill:#ffffff"
   d="m 399.845,895.388 c 0,2.605 2.115,4.72 4.717,4.72 h 141.572 c 2.602,0 4.72,-2.115 4.72,-4.72 V 881.234 H 399.845 Z"
   id="path1032" />
		<path
   style="fill:#ffffff"
   d="m 517.82,843.479 h -13.401 c -4.706,0 -9.216,-1.744 -12.699,-4.908 l -16.506,-15.005 c -2.61,-2.373 -5.993,-3.681 -9.523,-3.681 h -10.836 c -3.784,0 -7.341,1.469 -10.013,4.144 l -20.424,20.424 c -1.717,1.711 -4.451,1.846 -6.324,0.317 l -10.541,-8.622 c -1.014,-0.834 -2.05,-1.081 -2.925,-1.081 -0.974,0 -1.752,0.307 -2.085,0.468 -0.633,0.301 -2.696,1.491 -2.696,4.263 v 31.996 h 150.632 c -2.304,-15.983 -16.05,-28.315 -32.659,-28.315 z"
   id="path1034" />
		<path
   style="fill:#ffffff"
   d="m 900.067,697.188 c 0,-15.613 -12.701,-28.314 -28.312,-28.314 -1.591,0 -3.164,0.169 -4.72,0.43 v 55.765 c 1.551,0.259 3.123,0.428 4.72,0.428 15.611,0 28.312,-12.702 28.312,-28.309 z"
   id="path1036" />
		<path
   style="fill:#ffffff"
   d="m 409.283,985.051 h 226.515 c 18.215,0 33.034,-14.816 33.034,-33.034 V 933.143 H 376.248 v 18.874 c 0,18.218 14.819,33.034 33.035,33.034 z"
   id="path1038" />
		<path
   style="fill:#ffffff"
   d="m 612.203,513.142 h -42.711 c -2.376,23.813 -22.524,42.469 -46.953,42.469 -24.429,0 -44.576,-18.656 -46.952,-42.469 h -42.711 c -18.215,0 -33.032,14.816 -33.032,33.034 v 89.663 c 0,7.804 6.348,14.155 14.155,14.155 h 28.314 v -66.069 c 0,-2.605 2.112,-4.72 4.72,-4.72 2.608,0 4.72,2.115 4.72,4.72 v 179.326 c 0,7.809 6.351,14.16 14.157,14.16 h 113.257 c 7.807,0 14.157,-6.351 14.157,-14.16 V 583.925 c 0,-2.605 2.112,-4.72 4.72,-4.72 2.607,0 4.72,2.115 4.72,4.72 v 66.069 h 28.315 c 7.806,0 14.154,-6.351 14.154,-14.155 v -89.663 c 0.002,-18.218 -14.814,-33.034 -33.03,-33.034 z"
   id="path1040" />
		<path
   style="fill:#ffffff"
   d="m 666.897,412.553 v -0.048 c -4.5,-12.844 -16.688,-22.081 -31.082,-22.081 H 409.283 c -18.238,0 -33.053,14.815 -33.053,33.053 V 923.703 H 668.82 V 423.477 c 0,-3.798 -0.657,-7.502 -1.923,-10.924 z M 560.289,895.386 c 0,7.829 -6.329,14.158 -14.158,14.158 H 404.547 c -7.781,0 -14.158,-6.329 -14.158,-14.158 v -55.601 c 0,-5.533 3.143,-10.409 8.11,-12.799 4.97,-2.344 10.736,-1.641 15.049,1.875 l 7.22,5.908 17.393,-17.395 c 4.455,-4.452 10.409,-6.936 16.69,-6.936 h 10.83 c 5.908,0 11.533,2.202 15.894,6.139 l 16.502,15.003 c 1.735,1.593 3.985,2.438 6.329,2.438 h 13.408 c 23.441,0 42.475,19.08 42.475,42.475 v 18.893 z m 94.372,0 c 0,7.829 -6.329,14.158 -14.158,14.158 h -66.056 c -2.626,0 -4.736,-2.108 -4.736,-4.734 0,-2.58 2.111,-4.688 4.736,-4.688 h 66.056 c 2.626,0 4.736,-2.111 4.736,-4.736 v -14.158 h -70.792 c -2.626,0 -4.736,-2.108 -4.736,-4.734 0,-2.58 2.111,-4.688 4.736,-4.688 h 70.416 c -2.298,-15.987 -16.033,-28.317 -32.678,-28.317 h -13.408 c -4.688,0 -9.189,-1.735 -12.659,-4.922 l -16.502,-15.003 c -2.623,-2.392 -6,-3.658 -9.564,-3.658 h -28.081 c -2.626,0 -4.736,-2.156 -4.736,-4.734 0,-2.626 2.111,-4.734 4.736,-4.734 h 28.081 c 5.908,0 11.533,2.202 15.893,6.139 l 16.502,15.003 c 1.735,1.593 3.985,2.438 6.329,2.438 h 13.408 c 23.441,0 42.475,19.08 42.475,42.475 v 18.893 z m 0,-259.536 c 0,12.986 -10.548,23.58 -23.58,23.58 h -28.317 v 103.845 c 0,12.986 -10.596,23.58 -23.583,23.58 H 465.917 c -13.034,0 -23.583,-10.594 -23.583,-23.58 V 659.43 h -28.317 c -13.032,0 -23.629,-10.594 -23.629,-23.58 v -89.684 c 0,-23.395 19.082,-42.475 42.475,-42.475 h 84.95 v -18.846 c 0,-2.626 2.111,-4.736 4.734,-4.736 15.612,0 28.317,-12.705 28.317,-28.314 0,-15.612 -12.705,-28.317 -28.317,-28.317 -15.61,0 -28.317,12.705 -28.317,28.317 0,2.623 -2.108,4.734 -4.734,4.734 -2.578,0 -4.688,-2.111 -4.688,-4.734 0,-20.817 16.924,-37.741 37.739,-37.741 20.817,0 37.741,16.924 37.741,37.741 0,19.22 -14.44,35.113 -33.053,37.457 v 14.44 h 84.95 c 23.441,0 42.475,19.08 42.475,42.475 v 89.683 z"
   id="path1042" />
		<path
   style="fill:#ffffff"
   d="m 846.594,603.172 c -1.875,0.048 -3.095,0.094 -3.095,0.094 v -0.467 H 725.453 c -7.783,0 -14.158,6.375 -14.158,14.156 v 160.478 c 0,7.781 6.375,14.11 14.158,14.11 H 843.5 v -0.421 c 0,0 1.22,0.046 3.095,0.046 6.281,-1.454 11.018,-7.032 11.018,-13.735 V 616.955 c -0.001,-6.703 -4.737,-12.329 -11.019,-13.783 z m -12.61,112.891 h -2.344 c -11.72,0 -21.236,-9.516 -21.236,-21.236 v -56.633 c 0,-6.517 -5.297,-11.814 -11.814,-11.814 -6.471,0 -11.768,5.297 -11.768,11.814 V 744.38 c 0,0.142 -0.094,0.327 -0.094,0.469 0.048,0.609 0.094,1.266 0.094,1.875 0,16.924 -13.783,30.709 -30.707,30.709 -16.878,0 -30.661,-13.785 -30.661,-30.709 0,-16.878 13.783,-30.661 30.661,-30.661 8.25,0 15.752,3.283 21.236,8.58 v -86.45 c 0,-11.72 9.564,-21.239 21.239,-21.239 11.72,0 21.236,9.518 21.236,21.239 v 56.633 c 0,6.515 5.297,11.814 11.814,11.814 h 2.344 c 2.626,0 4.736,2.108 4.736,4.688 0,2.627 -2.111,4.735 -4.736,4.735 z"
   id="path1044" />
		<path
   style="fill:#ffffff"
   d="m 867.035,777.411 c 0,5.272 -1.8,10.096 -4.735,14.028 4.493,0.071 8.337,0.126 9.455,0.126 52.041,0 94.38,-42.34 94.38,-94.378 0,-52.043 -42.34,-94.383 -94.38,-94.383 -1.118,0 -4.962,0.056 -9.455,0.126 2.935,3.933 4.735,8.756 4.735,14.028 v 42.814 c 1.563,-0.196 3.135,-0.34 4.72,-0.34 20.814,0 37.752,16.937 37.752,37.754 0,20.812 -16.937,37.749 -37.752,37.749 -1.589,0 -3.16,-0.144 -4.72,-0.34 z"
   id="path1046" />
		<path
   style="fill:#ffffff"
   d="m 903.182,426.148 c -15.424,-21.612 -40.694,-35.724 -69.198,-35.724 -34.834,0 -64.79,21.051 -77.824,51.101 -4.594,10.409 -7.078,21.848 -7.078,33.85 0,7.689 1.03,15.097 2.953,22.175 9.752,36.146 42.802,62.775 81.949,62.775 46.836,0 84.95,-38.117 84.95,-84.95 0,-18.333 -5.815,-35.302 -15.752,-49.227 z m -92.779,96.435 c 0,2.58 -2.111,4.736 -4.736,4.736 -2.578,0 -4.688,-2.156 -4.688,-4.736 v -82.979 l -20.252,20.252 c -1.875,1.829 -4.83,1.829 -6.705,0 -1.829,-1.829 -1.829,-4.828 0,-6.657 l 28.317,-28.317 c 0.423,-0.469 0.984,-0.797 1.547,-1.032 0.469,-0.185 0.936,-0.282 1.454,-0.282 0.14,-0.046 0.234,-0.092 0.327,-0.092 0.142,0 0.236,0.046 0.375,0.092 0.469,0 0.984,0.096 1.454,0.282 0.563,0.236 1.078,0.563 1.547,1.032 l 28.317,28.317 c 1.827,1.829 1.827,4.828 0,6.657 -0.939,0.891 -2.156,1.36 -3.376,1.36 -1.172,0 -2.39,-0.469 -3.328,-1.36 l -20.252,-20.252 v 82.979 z m 83.542,-24.989 -28.269,28.317 c -0.469,0.423 -0.984,0.797 -1.547,1.032 -0.609,0.233 -1.22,0.375 -1.829,0.375 -0.609,0 -1.22,-0.142 -1.781,-0.375 -0.563,-0.236 -1.126,-0.609 -1.547,-1.032 l -28.317,-28.317 c -1.829,-1.827 -1.829,-4.828 0,-6.657 1.829,-1.875 4.828,-1.875 6.705,0 l 20.252,20.254 V 428.21 c 0,-2.626 2.111,-4.734 4.688,-4.734 2.626,0 4.736,2.108 4.736,4.734 v 82.981 l 20.252,-20.254 c 1.829,-1.875 4.828,-1.875 6.657,0 1.875,1.83 1.875,4.831 0,6.657 z"
   id="path1048" />
		<path
   style="fill:#ffffff"
   d="m 522.54,546.17 c 19.216,0 35.09,-14.437 37.424,-33.029 h -74.848 c 2.335,18.592 18.209,33.029 37.424,33.029 z"
   id="path1050" />
		<path
   style="fill:#ffffff"
   d="m 756.135,767.971 c 11.711,0 21.237,-9.526 21.237,-21.237 0,-11.706 -9.526,-21.232 -21.237,-21.232 -11.708,0 -21.234,9.526 -21.234,21.232 0,11.711 9.526,21.237 21.234,21.237 z"
   id="path1052" />
		<rect
   x="753.77802"
   y="824.599"
   style="fill:#ffffff"
   width="174.604"
   height="47.195"
   id="rect1054" />
		<path
   style="fill:#ffffff"
   d="m 725.461,871.794 h 18.877 v -47.195 h -18.877 c -7.807,0 -14.155,6.351 -14.155,14.16 v 18.875 c 0,7.809 6.348,14.16 14.155,14.16 z"
   id="path1056" />
		<path
   style="fill:#ffffff"
   d="M 956.721,881.227 H 725.453 c -7.783,0 -14.158,6.378 -14.158,14.158 v 18.895 c 0,7.781 6.375,14.158 14.158,14.158 h 231.268 c 7.783,0 14.158,-6.378 14.158,-14.158 v -18.895 c 0,-7.78 -6.375,-14.158 -14.158,-14.158 z m -47.212,28.317 H 772.662 c -2.626,0 -4.734,-2.108 -4.734,-4.734 0,-2.58 2.108,-4.688 4.734,-4.688 h 136.847 c 2.626,0 4.736,2.108 4.736,4.688 0,2.626 -2.11,4.734 -4.736,4.734 z"
   id="path1058" />
		<path
   style="fill:#ffffff"
   d="m 956.699,824.599 h -18.877 v 47.195 h 18.877 c 7.807,0 14.157,-6.351 14.157,-14.16 v -18.875 c 0,-7.809 -6.351,-14.16 -14.157,-14.16 z"
   id="path1060" />
		<path
   style="fill:#ffffff"
   d="m 956.699,937.863 h -18.877 v 47.189 h 18.877 c 7.807,0 14.157,-6.351 14.157,-14.16 v -18.874 c 0,-7.805 -6.351,-14.155 -14.157,-14.155 z"
   id="path1062" />
		<path
   style="fill:#ffffff"
   d="m 711.306,952.017 v 18.874 c 0,7.809 6.348,14.16 14.155,14.16 h 18.877 v -47.189 h -18.877 c -7.807,0.001 -14.155,6.351 -14.155,14.155 z"
   id="path1064" />
		<rect
   x="753.77802"
   y="937.86298"
   style="fill:#ffffff"
   width="174.604"
   height="47.188999"
   id="rect1066" />
	</g>
</g>
</svg>
