<?xml version="1.0" standalone="no"?>
<!DOCTYPE svg PUBLIC "-//W3C//DTD SVG 20010904//EN"
 "http://www.w3.org/TR/2001/REC-SVG-20010904/DTD/svg10.dtd">
<svg version="1.0" xmlns="http://www.w3.org/2000/svg"
 width="400.000000pt" height="400.000000pt" viewBox="0 0 400.000000 400.000000"
 preserveAspectRatio="xMidYMid meet">

<g transform="translate(0.000000,400.000000) scale(0.100000,-0.100000)"
fill="#000000" stroke="none">
<path d="M1838 3839 c-737 -59 -1380 -575 -1602 -1286 -177 -569 -59 -1209
309 -1678 367 -467 921 -724 1515 -702 288 10 540 77 789 209 885 467 1235
1555 786 2447 -56 112 -147 256 -209 331 -69 83 -220 232 -301 295 -361 284
-823 422 -1287 384z m352 -110 c329 -40 627 -165 885 -369 33 -27 110 -99 171
-162 554 -572 637 -1462 198 -2136 -475 -731 -1425 -994 -2209 -613 -852 415
-1212 1436 -811 2296 247 529 754 901 1334 980 121 16 320 18 432 4z"/>
<path d="M2411 3035 c-237 -52 -379 -314 -316 -584 42 -178 168 -295 349 -323
145 -22 285 22 379 121 91 95 127 192 127 341 0 146 -36 245 -121 335 -101
107 -250 146 -418 110z m228 -182 c34 -21 53 -44 76 -87 26 -53 30 -71 33
-165 3 -89 0 -115 -17 -162 -39 -102 -108 -152 -211 -153 -143 -1 -225 93
-237 270 -11 163 55 286 175 325 48 15 131 3 181 -28z"/>
<path d="M1355 3018 c-48 -126 -315 -864 -315 -870 0 -4 45 -8 100 -8 l99 0
32 100 32 100 165 -2 165 -3 32 -95 32 -95 103 -3 c80 -2 101 0 98 10 -3 7
-74 208 -159 445 l-154 433 -113 0 c-81 0 -114 -4 -117 -12z m171 -339 c30
-91 54 -171 54 -177 0 -9 -33 -12 -115 -12 -63 0 -115 3 -115 6 0 3 25 83 55
178 30 94 56 180 56 191 1 20 1 20 6 0 3 -11 29 -95 59 -186z"/>
<path d="M652 1628 c-33 -90 -59 -164 -58 -165 0 0 16 -3 35 -5 31 -3 35 0 46
32 12 35 12 35 77 38 l65 3 11 -38 c10 -35 14 -38 47 -38 19 0 35 2 35 5 0 3
-26 78 -57 167 l-58 163 -41 0 -42 0 -60 -162z m138 -30 c0 -5 -18 -8 -40 -8
-22 0 -40 4 -40 9 0 7 20 68 36 111 5 13 43 -86 44 -112z"/>
<path d="M1074 1781 c-33 -15 -83 -78 -90 -116 -21 -112 40 -203 143 -212 64
-6 129 27 156 79 22 45 25 134 4 175 -30 57 -62 77 -130 80 -34 2 -71 -1 -83
-6z m111 -57 c25 -10 45 -58 45 -109 0 -107 -120 -143 -165 -50 -8 18 -15 43
-15 54 0 33 26 88 47 100 20 12 63 14 88 5z"/>
<path d="M1380 1778 c1 -7 20 -82 43 -167 l42 -154 40 0 40 0 32 114 c17 63
32 116 33 119 1 3 16 -49 34 -114 l32 -119 39 0 39 0 43 159 c23 87 43 162 43
167 0 4 -15 7 -34 7 l-33 0 -22 -107 c-13 -60 -25 -117 -28 -128 -4 -13 -18
25 -38 105 l-31 125 -36 3 -37 3 -20 -68 c-11 -37 -25 -88 -31 -113 -19 -79
-22 -77 -44 25 -37 166 -32 155 -71 155 -22 0 -35 -5 -35 -12z"/>
<path d="M2000 1733 c-24 -62 -100 -274 -100 -276 0 -1 17 -2 37 -1 35 1 39 4
47 37 l10 37 66 0 66 0 10 -37 c8 -33 12 -36 47 -37 20 -1 37 1 37 4 0 3 -26
77 -58 165 l-58 160 -41 3 -41 3 -22 -58z m84 -77 c9 -27 16 -53 16 -58 0 -4
-19 -8 -41 -8 -35 0 -41 3 -36 18 3 9 11 38 18 64 15 54 20 52 43 -16z"/>
<path d="M2312 1624 l3 -166 95 0 c94 0 95 0 98 26 3 24 1 25 -60 28 l-63 3
-3 138 -3 137 -35 0 -34 0 2 -166z"/>
<path d="M2600 1625 l0 -165 90 0 c50 0 93 -1 98 -2 4 -2 8 9 10 25 l3 27 -65
0 -66 0 0 140 0 140 -35 0 -35 0 0 -165z"/>
<path d="M2890 1623 l0 -168 95 0 95 0 0 28 c0 26 -1 27 -60 27 l-60 0 0 39 0
40 53 3 c48 3 52 5 55 31 3 27 2 27 -52 27 l-56 0 0 40 0 39 58 3 c54 3 57 4
60 31 l3 27 -95 0 -96 0 0 -167z"/>
<path d="M3160 1760 c0 -29 2 -30 45 -30 l44 0 3 -137 3 -136 33 -1 32 -1 0
138 0 137 50 0 c49 0 50 1 50 30 l0 30 -130 0 -130 0 0 -30z"/>
<path d="M1624 1087 c-31 -28 -37 -42 -41 -84 -10 -99 48 -161 141 -151 56 7
92 36 107 89 17 54 3 107 -36 146 -29 29 -40 33 -84 33 -44 0 -56 -5 -87 -33z
m136 -32 c21 -26 25 -101 6 -130 -13 -20 -25 -25 -56 -25 -48 0 -70 27 -70 85
0 58 22 85 69 85 22 0 44 -6 51 -15z"/>
<path d="M1920 986 l0 -137 28 3 c25 3 27 7 30 56 2 28 6 52 11 52 13 0 37
-24 64 -67 23 -36 33 -43 58 -43 l31 0 -17 28 c-10 15 -29 42 -42 60 l-25 33
26 24 c30 28 33 64 8 95 -15 19 -31 24 -95 28 l-77 5 0 -137z m127 68 c9 -24
-10 -49 -41 -52 -24 -3 -26 0 -26 32 0 33 2 36 30 36 19 0 33 -6 37 -16z"/>
<path d="M2254 1101 c-47 -28 -64 -59 -64 -113 0 -64 14 -94 52 -118 36 -22
109 -27 152 -10 24 9 26 14 26 75 l0 65 -55 0 c-52 0 -55 -1 -55 -25 0 -20 5
-25 25 -25 20 0 25 -5 25 -25 0 -22 -4 -25 -38 -25 -64 0 -95 59 -68 125 17
40 44 50 112 42 41 -4 44 -3 44 18 0 13 -7 26 -16 29 -33 13 -109 6 -140 -13z"/>
</g>
</svg>
