<?xml version="1.0" encoding="UTF-8"?>
<!DOCTYPE svg  PUBLIC '-//W3C//DTD SVG 20010904//EN'  'http://www.w3.org/TR/2001/REC-SVG-20010904/DTD/svg10.dtd'>
<svg width="400pt" height="400pt" version="1.0" viewBox="0 0 400 400" xmlns="http://www.w3.org/2000/svg">
<g transform="translate(0 400) scale(.1 -.1)">
<path d="m1838 3839c-737-59-1380-575-1602-1286-177-569-59-1209 309-1678 367-467 921-724 1515-702 288 10 540 77 789 209 885 467 1235 1555 786 2447-56 112-147 256-209 331-69 83-220 232-301 295-361 284-823 422-1287 384zm352-110c329-40 627-165 885-369 33-27 110-99 171-162 554-572 637-1462 198-2136-475-731-1425-994-2209-613-852 415-1212 1436-811 2296 247 529 754 901 1334 980 121 16 320 18 432 4z"/>
<path d="m2411 3035c-237-52-379-314-316-584 42-178 168-295 349-323 145-22 285 22 379 121 91 95 127 192 127 341 0 146-36 245-121 335-101 107-250 146-418 110zm228-182c34-21 53-44 76-87 26-53 30-71 33-165 3-89 0-115-17-162-39-102-108-152-211-153-143-1-225 93-237 270-11 163 55 286 175 325 48 15 131 3 181-28z"/>
<path d="m1355 3018c-48-126-315-864-315-870 0-4 45-8 100-8h99l64 200 165-2 165-3 64-190 103-3c80-2 101 0 98 10-3 7-74 208-159 445l-154 433h-113c-81 0-114-4-117-12zm171-339c30-91 54-171 54-177 0-9-33-12-115-12-63 0-115 3-115 6s25 83 55 178c30 94 56 180 56 191 1 20 1 20 6 0 3-11 29-95 59-186z"/>
<path d="m652 1628c-33-90-59-164-58-165 0 0 16-3 35-5 31-3 35 0 46 32 12 35 12 35 77 38l65 3 11-38c10-35 14-38 47-38 19 0 35 2 35 5s-26 78-57 167l-58 163h-41-42l-60-162zm138-30c0-5-18-8-40-8s-40 4-40 9c0 7 20 68 36 111 5 13 43-86 44-112z"/>
<path d="m1074 1781c-33-15-83-78-90-116-21-112 40-203 143-212 64-6 129 27 156 79 22 45 25 134 4 175-30 57-62 77-130 80-34 2-71-1-83-6zm111-57c25-10 45-58 45-109 0-107-120-143-165-50-8 18-15 43-15 54 0 33 26 88 47 100 20 12 63 14 88 5z"/>
<path d="m1380 1778c1-7 20-82 43-167l42-154h40 40l32 114c17 63 32 116 33 119s16-49 34-114l32-119h39 39l43 159c23 87 43 162 43 167 0 4-15 7-34 7h-33l-22-107c-13-60-25-117-28-128-4-13-18 25-38 105l-31 125-36 3-37 3-20-68c-11-37-25-88-31-113-19-79-22-77-44 25-37 166-32 155-71 155-22 0-35-5-35-12z"/>
<path d="m2e3 1733c-24-62-100-274-100-276 0-1 17-2 37-1 35 1 39 4 47 37l10 37h66 66l10-37c8-33 12-36 47-37 20-1 37 1 37 4s-26 77-58 165l-58 160-82 6-22-58zm84-77c9-27 16-53 16-58 0-4-19-8-41-8-35 0-41 3-36 18 3 9 11 38 18 64 15 54 20 52 43-16z"/>
<path d="m2312 1624 3-166h95c94 0 95 0 98 26 3 24 1 25-60 28l-63 3-3 138-3 137h-35-34l2-166z"/>
<path d="m2600 1625v-165h90c50 0 93-1 98-2 4-2 8 9 10 25l3 27h-65-66v140 140h-35-35v-165z"/>
<path d="m2890 1623v-168h95 95v28c0 26-1 27-60 27h-60v39 40l53 3c48 3 52 5 55 31 3 27 2 27-52 27h-56v40 39l58 3c54 3 57 4 60 31l3 27h-95-96v-167z"/>
<path d="m3160 1760c0-29 2-30 45-30h44l3-137 3-136 33-1 32-1v138 137h50c49 0 50 1 50 30v30h-130-130v-30z"/>
<path d="m1624 1087c-31-28-37-42-41-84-10-99 48-161 141-151 56 7 92 36 107 89 17 54 3 107-36 146-29 29-40 33-84 33s-56-5-87-33zm136-32c21-26 25-101 6-130-13-20-25-25-56-25-48 0-70 27-70 85s22 85 69 85c22 0 44-6 51-15z"/>
<path d="m1920 986v-137l28 3c25 3 27 7 30 56 2 28 6 52 11 52 13 0 37-24 64-67 23-36 33-43 58-43h31l-17 28c-10 15-29 42-42 60l-25 33 26 24c30 28 33 64 8 95-15 19-31 24-95 28l-77 5v-137zm127 68c9-24-10-49-41-52-24-3-26 0-26 32 0 33 2 36 30 36 19 0 33-6 37-16z"/>
<path d="m2254 1101c-47-28-64-59-64-113 0-64 14-94 52-118 36-22 109-27 152-10 24 9 26 14 26 75v65h-55c-52 0-55-1-55-25 0-20 5-25 25-25s25-5 25-25c0-22-4-25-38-25-64 0-95 59-68 125 17 40 44 50 112 42 41-4 44-3 44 18 0 13-7 26-16 29-33 13-109 6-140-13z"/>
</g>
</svg>
