<svg xmlns="http://www.w3.org/2000/svg" xmlns:xlink="http://www.w3.org/1999/xlink" width="296" height="296" viewBox="0 0 312 296">
  <defs>
    <linearGradient id="linear-gradient" x1="0.5" x2="0.5" y2="1" gradientUnits="objectBoundingBox">
      <stop offset="0" stop-color="#e17f14"/>
      <stop offset="0.296" stop-color="#e07c14"/>
      <stop offset="0.474" stop-color="#df7414"/>
      <stop offset="0.621" stop-color="#dc6515"/>
      <stop offset="0.75" stop-color="#d95116"/>
      <stop offset="0.869" stop-color="#d53718"/>
      <stop offset="0.978" stop-color="#d0171a"/>
      <stop offset="1" stop-color="#cf101b"/>
    </linearGradient>
    <clipPath id="clip-logo-header">
      <rect width="1024" height="296"/>
    </clipPath>
  </defs>

  <g id="logo-header" clip-path="url(#clip-logo-header)">
    <g id="Group_3528" data-name="Group 3528" transform="translate(-112.541 -404.176)">
      <g id="Group_3527" data-name="Group 3527" transform="translate(112.54 404.176)">
        <path id="Path_932" data-name="Path 932" d="M357.579,439.115c-35.861-31.523-90.679-30.085-124.8,3.28a7.018,7.018,0,0,0-2.109,5.237,7.278,7.278,0,0,0,2.474,5.258,7.144,7.144,0,0,0,9.792-.31c28.771-28.036,74.947-29.2,105.141-2.665a98.705,98.705,0,0,1,8.958,139.143c-1.782,2.027-3.651,4.022-5.558,5.923-46.454,46.459-121.526,48.846-170.917,5.438a158.266,158.266,0,0,1-52.513-137.829,7.186,7.186,0,0,0-14.282-1.613,172.643,172.643,0,0,0,57.3,150.248,139.683,139.683,0,0,0,190.577-6.065c2.1-2.1,4.179-4.321,6.19-6.6a113.1,113.1,0,0,0-10.261-159.441Z" transform="translate(-112.54 -349.837)" fill="url(#linear-gradient)"/>
        <path id="Path_933" data-name="Path 933" d="M216.606,670.936a101.663,101.663,0,0,0,21.682,2.343,100.557,100.557,0,0,0,71.225-29.594,99.182,99.182,0,0,0,26.837-49.14c8.909-40.923-15.606-82.777-55.815-95.272a7.307,7.307,0,0,0-5.863.654,7.052,7.052,0,0,0-3.384,4.665,7.209,7.209,0,0,0,5.013,8.419c33.125,10.321,53.33,44.792,46,78.478a84.876,84.876,0,0,1-37.637,53.821,86.161,86.161,0,0,1-65,11.574,109.431,109.431,0,0,1-69.046-47.723,107.848,107.848,0,0,1-15-82.1c15.764-72.38,85.665-119.15,159.13-106.453a7.19,7.19,0,0,0,2.4-14.179,153.075,153.075,0,0,0-111.385,23.638A151.134,151.134,0,0,0,121.562,524a122.138,122.138,0,0,0,16.979,92.984A123.737,123.737,0,0,0,216.606,670.936Z" transform="translate(-85.083 -404.176)" fill="url(#linear-gradient)"/>
        <path id="Path_934" data-name="Path 934" d="M244.073,410.925a107.913,107.913,0,0,0-80.3,26.831,114.515,114.515,0,0,0-38.716,77.317c-4.147,50.687,32.515,95.2,81.726,99.228q2.991.237,5.94.24c35.234,0,65.667-25.752,72.092-62.038a7.367,7.367,0,0,0-1.4-5.76,7.075,7.075,0,0,0-5.089-2.757,7.235,7.235,0,0,0-7.678,6.043c-5.487,30.94-32.428,52.48-62.692,49.93-41.3-3.378-72.059-40.939-68.566-83.72,4.239-51.832,46.486-91.294,95.9-91.294q3.776,0,7.607.316c64.681,5.286,113.527,61.962,111.195,129.018a7.166,7.166,0,0,0,6.582,7.405v.005a7.252,7.252,0,0,0,5.378-1.8,7.149,7.149,0,0,0,2.414-5.139C371.059,480.014,316.415,416.837,244.073,410.925Z" transform="translate(-58.266 -375.724)" fill="url(#linear-gradient)"/>
      </g>
    </g>
  </g>
</svg>
