<svg xmlns="http://www.w3.org/2000/svg" xmlns:xlink="http://www.w3.org/1999/xlink" viewBox="0 0 511.51 510.91"><defs><style>.cls-1{fill:none;}.cls-2{isolation:isolate;}.cls-3{clip-path:url(#clip-path);}.cls-4{fill:url(#radial-gradient);}.cls-5{mix-blend-mode:screen;opacity:0.75;}.cls-6{fill:#57fbff;}.cls-7{fill:#fff;}</style><clipPath id="clip-path" transform="translate(5.41 4.68)"><rect class="cls-1" x="2.43" y="4.09" width="493.68" height="493.68" rx="241.99"/></clipPath><radialGradient id="radial-gradient" cx="252" cy="429.98" fx="533.5177845049827" fy="865.6822644340463" r="673.95" gradientTransform="translate(106.74 75.61) scale(0.59 0.42)" gradientUnits="userSpaceOnUse"><stop offset="0.27" stop-color="#7b2c2d"/><stop offset="0.35" stop-color="#702c2d"/><stop offset="0.51" stop-color="#542c2c"/><stop offset="0.71" stop-color="#252b2a"/><stop offset="0.81" stop-color="#0a2b29"/><stop offset="0.85" stop-color="#0a2b29"/></radialGradient></defs><g class="cls-2"><g id="Layer_1" data-name="Layer 1"><g class="cls-3"><polygon class="cls-4" points="0 0 0 510.91 76.94 507.72 511.51 507.72 511.51 0 0 0"/></g><g class="cls-5"><g class="cls-3"><polygon class="cls-6" points="0 0 0 510.91 76.94 507.72 511.51 507.72 511.51 0 0 0"/></g></g><g class="cls-3"><polygon class="cls-4" points="0 0 0 510.91 76.94 507.72 511.51 507.72 511.51 0 0 0"/></g><path class="cls-7" d="M426.55,148.63A156.59,156.59,0,0,1,425,202.32a149.76,149.76,0,0,1-19,48.3,122.25,122.25,0,0,1-35.16,37.1q-21.6,14.89-49.6,19.19l-79.36,11.21,13.82,115.59c.84,13.8-1.45,22.57-6.93,26.3s-12.49,5.9-21.12,6.48q-12.08,3-20.24.43t-13-24.15L147.06,234.46l-45.71,11.2q-20.73,3-31.07-10.35T58.22,209q-2.59-13.8,3-33.42t28.9-21.35l38.38-2.17-6.47-28q-9.51-36.67-5.6-49.6T145.77,57.2l132.4-29.33a114.27,114.27,0,0,1,53.28,4.74A132.48,132.48,0,0,1,376.5,58.7a155.8,155.8,0,0,1,33,41A145.27,145.27,0,0,1,426.55,148.63ZM329.5,206q9.47-16,5.17-44-2.16-14.67-7.11-24.59a50.16,50.16,0,0,0-12.08-16,38.62,38.62,0,0,0-15.32-8.19,37.56,37.56,0,0,0-16-.88l-70.73,10.36,2.16,24.15,53.88-3.45a30.79,30.79,0,0,1,20.07,4.09c5.9,3.61,9.41,9.34,10.57,17.26a35.16,35.16,0,0,1-4.75,23.09q-6.46,11.19-17.67,13.36L226.4,214.18l3.47,21.13,73.75-10.77Q320,222.38,329.5,206Z" transform="translate(5.41 4.68)"/></g></g></svg>
