<svg width="1000" height="1000" viewBox="0 0 1000 1000" fill="none" xmlns="http://www.w3.org/2000/svg">
<path d="M687.42 290.439C687.42 329.018 656.145 360.292 617.567 360.292C578.988 360.292 547.714 329.018 547.714 290.439C547.714 251.86 578.988 220.586 617.567 220.586C656.145 220.586 687.42 251.86 687.42 290.439Z" fill="#102440"/>
<path d="M499.266 733.822C475.736 764.214 434.805 779.41 376.472 779.41C346.08 779.41 319.854 770.341 297.795 752.204C275.736 733.576 264.707 711.027 264.707 684.557C264.707 669.851 265.442 658.822 266.913 651.469L316.178 389.704L465.442 374.998L411.766 658.822C409.805 669.606 408.825 678.184 408.825 684.557C408.825 712.988 417.403 727.204 434.56 727.204C453.678 727.204 470.099 714.214 483.825 688.233C488.236 679.9 491.423 670.341 493.383 659.557L545.589 389.704L690.442 374.998L636.031 661.763C634.56 669.116 633.825 676.714 633.825 684.557C633.825 692.4 636.031 700.733 640.442 709.557C644.854 717.89 654.168 723.037 668.384 724.998C665.442 736.763 658.825 746.567 648.531 754.41C626.962 771.076 604.413 779.41 580.884 779.41C557.844 779.41 539.462 775.243 525.736 766.91C512.011 758.576 503.187 747.547 499.266 733.822Z" fill="#102440"/>
</svg>
