<svg width="80" height="85" viewBox="0 0 80 85" fill="none" xmlns="http://www.w3.org/2000/svg">
<path d="M48.0689 42.4332C48.0689 53.3593 48.0689 64.1972 48.0689 75.1233C48.0689 82.3486 45.4255 84.992 38.4645 84.3752C35.1802 84.1117 31.8801 84.1117 28.5958 84.3752C23.309 84.3752 21.723 82.1724 21.8111 77.238C21.8111 63.4042 21.8111 49.5704 21.8111 35.8247C21.8111 28.4231 20.1369 25.251 12.1186 25.8678C8.85838 26.5727 2.51421 28.6875 1.19251 22.872C-0.52654 16.1402 -0.343521 9.0635 1.72119 2.42962C2.69044 0.138672 6.03875 0.138672 8.85838 0.138672C19.432 0.138672 30.0938 0.138672 40.5793 0.138672C47.2759 0.138672 48.5976 2.95831 48.4214 8.95003C47.8046 19.9642 48.0689 31.1546 48.0689 42.4332Z" fill="#5396F7"/>
<path d="M79.3479 12.818C79.3986 14.5785 79.0848 16.3304 78.4261 17.9637C77.7675 19.5971 76.7783 21.0767 75.5206 22.3095C74.2629 23.5424 72.7639 24.5019 71.1177 25.1279C69.4715 25.7538 67.7137 26.0327 65.9547 25.9469C64.281 25.9938 62.6146 25.7089 61.0515 25.1088C59.4885 24.5087 58.0597 23.6051 56.8474 22.4502C55.6352 21.2953 54.6635 19.9119 53.9884 18.3797C53.3133 16.8475 52.9481 15.1969 52.9138 13.5229C52.8779 11.7542 53.1997 9.99649 53.86 8.35528C54.5204 6.71408 55.5056 5.22325 56.7565 3.97232C58.0074 2.7214 59.4983 1.73619 61.1395 1.07586C62.7807 0.415523 64.5384 0.0936848 66.3071 0.12967C67.9966 0.106368 69.674 0.416095 71.2438 1.04116C72.8135 1.66623 74.2447 2.59439 75.4557 3.77265C76.6667 4.9509 77.6337 6.35616 78.3015 7.90818C78.9694 9.4602 79.3249 11.1286 79.3479 12.818Z" fill="#5396F7"/>
</svg>
