<svg xmlns="http://www.w3.org/2000/svg" viewBox="0 0 400 400"><defs><style>.cls-1{fill:#000de0;}.cls-2{fill:#fff;}</style></defs><g id="Layer_2" data-name="Layer 2"><g id="Layer_1-2" data-name="Layer 1"><circle class="cls-1" cx="200" cy="200" r="200"/><path class="cls-2" d="M53,242.6c3.9-22.8,8-45,11.9-67.4-3.6-.8-7.1-.3-10.5-.4s-6.7,0-10.5,0c1.2-6.2,3.1-11.8,4.6-17.9H67.8l.6-1.3c1.7-9.9,3.5-19.9,5.2-29.8.4-2,.7-4,1.1-6s1.2-2.8,3.4-2.8c14.9,0,29.7-.1,44.5.1,7.1.1,13.9,1.8,19.8,6s9.2,10,10.8,16.9a58.5,58.5,0,0,1,1.1,17.2,246.1,246.1,0,0,1-6.8,43.5c-1.9,7.4-4.2,14.7-8,21.4-6.5,11.3-16,18-28.8,19.8a90.6,90.6,0,0,1-12.7,1H56.8Zm24-18.7,1.1.3c8.2-.1,16.4.2,24.6-.4a24.5,24.5,0,0,0,17.4-9.3c3.6-4.4,5.6-9.5,7-14.8a222.6,222.6,0,0,0,6-30.1,130.6,130.6,0,0,0,1.1-16.5c-.1-5.8-2.3-10.8-7.4-14a22.8,22.8,0,0,0-12.2-3.3L95,135.6l-2.4.2c-1.2,7-2.5,13.8-3.7,21h22c-1.7,6.2-3.2,12-4.9,18H85.7C82.7,191.3,79.9,207.6,77,223.9Z"/><path class="cls-2" d="M302.9,180.7c3.8-.8,11.6-.5,13.1.6-.2,1.3-.4,2.6-.6,4.3,2-1.4,3.6-2.7,5.4-3.7a22.6,22.6,0,0,1,17.6-2.1c6.4,1.7,10.1,6.4,11.7,12.7,1.2,4.7,1,9.5.4,14.3-.9,7.3-2.2,14.5-5.1,21.3-4.7,11.4-13.1,16.5-24.6,16.2-4.8-.1-9.2-1.3-12.6-4.9a28.1,28.1,0,0,1-2-2.4c-1.7,9.7-3.4,19.3-5,28.7-2.5.7-11.5.7-13.6,0a10.9,10.9,0,0,1,.1-1.8q7.2-41.1,14.5-82.1A3,3,0,0,1,302.9,180.7Zm6.7,39.6c.1,1.4.1,2.8.3,4.2.7,4.2,3.2,6.7,7.5,7.4a13.8,13.8,0,0,0,14.5-7.5c2.3-4.5,3.3-9.5,4.1-14.4s1.3-8,.3-12-2.6-5.5-5.8-6.2a13.8,13.8,0,0,0-12.1,2.2c-3.1,2.4-4.7,5.8-5.7,9.3A65.4,65.4,0,0,0,309.6,220.3Z"/><path class="cls-2" d="M238.6,237.7c-1.9,9.3-3.1,18.9-5.2,28.4H220.2a28,28,0,0,1,0-2.9c3.6-20.6,7.3-41.2,10.9-61.8,1.1-5.9,2.1-11.8,3.1-17.7l.7-3.2c4.4-.3,8.7-.1,13.5-.1-.2,1.9-.3,3.5-.5,5.6l2.2-1.9c7.1-5.5,14.9-6.8,23.2-3.4,6,2.4,8.6,7.7,9.6,13.9s.1,12.8-1,19.2a61.9,61.9,0,0,1-5.6,17.7c-5.8,11.1-20.9,16.4-31.7,10.8C242.5,241.2,240.7,239.3,238.6,237.7Zm3.6-17.2c0,1,0,2,.1,3.1.5,4.8,3.2,7.8,7.8,8.3a13.6,13.6,0,0,0,13.3-5.9c2-2.7,2.9-5.9,3.7-9.1a56.7,56.7,0,0,0,2-16.4c-.2-5.8-3.5-9.1-9.4-9.2a13.6,13.6,0,0,0-13.4,8.9A61.2,61.2,0,0,0,242.2,220.5Z"/><path class="cls-2" d="M199.8,205.6a71.5,71.5,0,0,0,.6-9c0-2.8-2.1-4.3-4.6-4.9a25.8,25.8,0,0,0-20.1,2.8l-1.6.9-1.1.2c-.7-1.9-1.6-3.9-2.3-6s-2.6-3.8,2.6-6.3a43.8,43.8,0,0,1,30.6-2.9c7.1,1.8,10.2,6.3,10.3,13.4a77.8,77.8,0,0,1-1.4,11.7c-2,11.5-4.1,22.9-6.2,34.4a17.2,17.2,0,0,1-.8,2.8H193.9c0-.8-.2-1.6-.2-2.4s.2-1.5.3-2.6l-1.2.7c-6.4,6.5-19.7,7.5-26,3.7-4.6-2.7-7.3-6.6-7.8-11.7-.7-7.1,1-13.6,6.7-18.6a26,26,0,0,1,12.1-5.4c5.6-1.1,11.2-.8,16.8-.8Zm-2.2,11-.9-.4c-5.8-.2-11.6-.6-17.4.8s-7.2,5-6.7,10c.3,2.9,1.8,5,4.6,5.4a30.8,30.8,0,0,0,8,.3c6.2-.7,9.9-4.1,11.2-9.8C196.9,220.9,197.2,218.8,197.6,216.6Z"/><path class="cls-2" d="M204.4,156.5h-5.5c-.7-2.3-1.5-4.5-2.1-6.8s-1.3-4.3-2-6.6h-6.1c-.8,4.4-1.6,8.9-2.5,13.4h-5.5c1.9-11.3,3.9-22.2,5.8-33.2l1.3-.3h12.1c6.5.3,9.8,5.2,7.9,11.5a10.8,10.8,0,0,1-5.9,7l-1.7.9C201.5,147,202.9,151.6,204.4,156.5Zm-13.1-28.4c-.6,3.4-1.1,6.4-1.7,9.6,2.9,0,5.5.2,8.1,0a5.1,5.1,0,0,0,4.6-4c1-3-.3-5.2-3.3-5.5A64.7,64.7,0,0,0,191.3,128.1Z"/><path class="cls-2" d="M306.9,133c.5,5.1,1,10.2,1.6,15.3h.4l7.2-15.5h4.5c.6,5.2,1.2,10.3,1.7,15.5h.4l7-15.6h5.1c-.1,1.6-9.6,21.5-11.5,23.9l-4.3-.2c-.5-5.4-1.1-10.4-1.6-15.4h-.3c-2.5,5.1-5,10.3-7.4,15.5h-4.1c-.9-1.4-3.8-20.2-3.6-23.6Z"/><path class="cls-2" d="M295.2,146.4H280.5c-1.6,4.3,1.7,6.8,5.2,5.8a30.1,30.1,0,0,0,5.4-2.3l2.3,2.6c-3.1,4.7-11.4,6.2-15.7,3a7.7,7.7,0,0,1-2.8-5.8,23.5,23.5,0,0,1,2.3-11.9c2.4-4.5,8.7-6.9,13.4-5.1a7.4,7.4,0,0,1,5,7.1A54,54,0,0,1,295.2,146.4Zm-4.9-4.1c.4-3.8-.6-5.3-3.2-5.4s-5.9,1.9-5.8,5.4Z"/><path class="cls-2" d="M231.5,146.4H217.1c-1.2,4.4,1.7,6.6,5,5.9s3.7-1.5,5.8-2.3l2.4,2.5a11.4,11.4,0,0,1-1.4,1.6,13.2,13.2,0,0,1-12.2,2.6,6.5,6.5,0,0,1-4.7-5c-1-5.6-.3-11.1,3.4-15.8s8.5-4.8,12.5-3a7.3,7.3,0,0,1,4.3,5.3A15.6,15.6,0,0,1,231.5,146.4Zm-13.8-4.1h9c1.3-3.4-.1-5.5-3.5-5.4S218.5,138.7,217.7,142.3Z"/><path class="cls-2" d="M254.2,132.9h5.6c-4.3,8.1-8.4,15.9-12.6,23.7h-4.6c-1.7-7.7-2.8-15.6-4.4-23.7h5.4l2.4,15.4h.4Z"/><path class="cls-2" d="M266.4,156.6h-5.3c1.4-7.9,2.7-15.7,4.1-23.7h5.4Z"/><path class="cls-2" d="M267,123.2h5.2c-.3,1.7-.5,3.2-.7,4.9h-5.4C266.4,126.3,266.7,124.7,267,123.2Z"/></g></g></svg>