<svg width="140" height="30" fill="none" xmlns="http://www.w3.org/2000/svg" id="svg-2128165915_2056"><g clip-path="url(#svg-2128165915_2056_a)" fill="#fff"><path d="M35.937 12.03c-2.274-.84-4.248-.397-6.045.727l-2.24-10.031A2.746 2.746 0 0 0 25.261.58a2.756 2.756 0 0 0-1.13.112l-9.683 3.053a4.2 4.2 0 0 0-2.83 3.077l-1.456 6.496c-3.164-2.316-5.6-1.76-6.92-1.119C.596 13.545-.555 16.711.285 20.282c1.087 4.612 5.374 9.282 12.486 9.282 6.44 0 10.673-5.034 14.086-9.058 3.274-3.876 5.404-6.203 7.868-5.28 1.4.517 1.96 1.572 1.68 3.135-.585 3.23-4.886 7.777-12.62 7.777v3.426c6.92 0 14.796-3.963 15.994-10.593.574-3.191-.896-5.854-3.841-6.941Zm-11.704 6.264c-3.257 3.856-6.628 7.844-11.463 7.844-5.236 0-8.372-3.336-9.156-6.645-.353-1.496-.26-3.495 1.167-4.194 1.428-.7 3.293.607 4.536 1.815l-.826 3.669h3.517l2.856-12.75a1.703 1.703 0 0 1 1.145-1.25l7.33-2.304a1.069 1.069 0 0 1 1.361.783l2.24 9.98c-.93.952-1.823 2.006-2.707 3.052Zm88.755-8.944h-8.207v.9l1.423 1.273V23.09l-1.423 1.272v.9h8.229c4.713 0 8.378-3.076 8.378-7.888 0-4.813-3.643-8.024-8.4-8.024Zm-.204 12.367h-2.744v-8.82h2.755c2.366 0 4.76 1.361 4.76 4.474 0 3.113-2.405 4.346-4.771 4.346ZM92.263 9.35h-8.204v.9l1.42 1.273V23.09l-1.42 1.272v.9h8.226c4.712 0 8.378-3.076 8.378-7.888 0-4.813-3.643-8.024-8.4-8.024Zm-.205 12.367h-2.755v-8.82h2.755c2.366 0 4.76 1.361 4.76 4.474 0 3.113-2.394 4.346-4.76 4.346ZM140 9.35h-5.626v.904l.502.45-2.82 4.852h-.07l-2.744-4.844.512-.458V9.35h-6.084v.904l1.551 1.163 4.763 7.573v4.094l-1.431 1.281v.898h6.689v-.898l-1.433-1.284v-4.09l4.698-7.627 1.493-1.11V9.35Zm-60.998.9v-.9h-6.661v.9l1.425 1.276v11.561l-1.425 1.275v.9h6.661v-.9l-1.414-1.264V11.515l1.414-1.264Zm-18.147 6.925v.903l1.697 1.519v.106a4.479 4.479 0 0 1-4.902 1.935 4.48 4.48 0 0 1-3.352-4.063 4.47 4.47 0 0 1 2.838-4.436 4.486 4.486 0 0 1 5.1 1.332h4.404V9.35h-.896l-1.531 1.767a8.24 8.24 0 0 0-13.63 5.543 8.216 8.216 0 0 0 3.944 7.684 8.243 8.243 0 0 0 8.644-.07l1.042.988h2.427v-6.027l1.68-1.158v-.903h-7.465Z"></path></g><defs><clipPath id="svg-2128165915_2056_a"><path fill="#fff" transform="translate(0 .564)" d="M0 0h140v29H0z"></path></clipPath></defs></svg>
