<?xml version="1.0" encoding="utf-8"?>
<svg viewBox="0.0144 0.5636 39.8872 29.0004" xmlns="http://www.w3.org/2000/svg">
  <path d="M 35.937 12.03 C 33.663 11.19 31.689 11.633 29.892 12.757 L 27.652 2.726 C 27.4 1.57 26.437 0.706 25.261 0.58 C 24.881 0.538 24.496 0.577 24.131 0.692 L 14.448 3.745 C 13.025 4.195 11.948 5.366 11.618 6.822 L 10.162 13.318 C 6.998 11.002 4.562 11.558 3.242 12.199 C 0.596 13.545 -0.555 16.711 0.285 20.282 C 1.372 24.894 5.659 29.564 12.771 29.564 C 19.211 29.564 23.444 24.53 26.857 20.506 C 30.131 16.63 32.261 14.303 34.725 15.226 C 36.125 15.743 36.685 16.798 36.405 18.361 C 35.82 21.591 31.519 26.138 23.785 26.138 L 23.785 29.564 C 30.705 29.564 38.581 25.601 39.779 18.971 C 40.353 15.78 38.883 13.117 35.938 12.03 L 35.937 12.03 Z M 24.233 18.294 C 20.976 22.15 17.605 26.138 12.77 26.138 C 7.534 26.138 4.398 22.802 3.614 19.493 C 3.261 17.997 3.354 15.998 4.781 15.299 C 6.209 14.599 8.074 15.906 9.317 17.114 L 8.491 20.783 L 12.008 20.783 L 14.864 8.033 C 14.996 7.442 15.432 6.967 16.009 6.783 L 23.339 4.479 C 23.934 4.293 24.562 4.654 24.7 5.262 L 26.94 15.242 C 26.01 16.194 25.117 17.248 24.233 18.294 Z" transform="matrix(1, 0, 0, 1, 8.881784197001252e-16, 0)"/>
</svg>
