<?xml version="1.0" encoding="UTF-8"?>
<svg xmlns="http://www.w3.org/2000/svg" xmlns:xlink="http://www.w3.org/1999/xlink" viewBox="0 0 1024 1024">
  <defs>
    <style>
      .cls-1 {
        fill: url(#linear-gradient);
      }

      .cls-2 {
        fill: #0a0a0a;
      }
    </style>
    <linearGradient id="linear-gradient" x1="369.56" y1="226.12" x2="731.24" y2="816.13" gradientUnits="userSpaceOnUse">
      <stop offset="0" stop-color="#b183ff"/>
      <stop offset=".52" stop-color="#8535f5"/>
      <stop offset="1" stop-color="#6926e0"/>
    </linearGradient>
  </defs>
  <path class="cls-2" d="M1024,274.02v475.95c0,151.34-122.69,274.01-274.03,274.01h-475.95C122.67,1023.99,0,901.32,0,749.98v-475.95C0,122.68,122.67.01,274.01.01h475.95c151.34,0,274.03,122.67,274.03,274.01Z"/>
  <path class="cls-1" d="M713.2,646.81h-49.15c-11.65,0-22.42-6.21-28.26-16.3l-14.4-24.9c-5.84-10.1-5.85-22.56-.01-32.67l24.59-42.59c5.83-10.1,5.83-22.54,0-32.64l-24.43-42.31c-5.83-10.1-5.83-22.54,0-32.64l14.06-24.38c5.83-10.1,16.61-16.33,28.27-16.33h49.01c11.66,0,22.44-6.22,28.27-16.32l35.62-61.69c5.83-10.1,5.83-22.54,0-32.64l-35.62-61.69c-5.83-10.1-16.61-16.32-28.27-16.32h-71.24c-11.66,0-22.44,6.22-28.27,16.32l-24.52,42.48c-5.83,10.1-16.61,16.32-28.27,16.32h-28.1c-11.66,0-22.44-6.22-28.27-16.32l-24.98-43.27c-5.83-10.1-16.61-16.32-28.27-16.32h-71.24c-11.66,0-22.44,6.22-28.27,16.32l-35.62,61.69c-5.83,10.1-5.83,22.54,0,32.64l24.65,42.7c5.84,10.12,5.83,22.58-.02,32.69l-14.36,24.79c-5.84,10.08-16.6,16.28-28.25,16.28h-49.25c-11.66,0-22.44,6.22-28.27,16.32l-35.62,61.69c-5.83,10.1-5.83,22.54,0,32.64l35.62,61.69c5.83,10.1,16.61,16.32,28.27,16.32h49.05c11.66,0,22.44,6.22,28.27,16.32l14.44,25.01c5.83,10.1,5.83,22.54,0,32.64l-24.52,42.48c-5.83,10.1-5.83,22.54,0,32.64l35.62,61.69c5.83,10.1,16.61,16.32,28.27,16.32h71.24c11.66,0,22.44-6.22,28.27-16.32l24.52-42.48c5.83-10.1,16.61-16.32,28.27-16.32h28.88c11.66,0,22.44,6.22,28.27,16.32l24.52,42.48c5.83,10.1,16.61,16.32,28.27,16.32h71.24c11.66,0,22.44-6.22,28.27-16.32l35.62-61.69c5.83-10.1,5.83-22.54,0-32.64l-35.62-61.69c-5.83-10.1-16.61-16.32-28.27-16.32ZM450.96,646.81h-49.05c-11.66,0-22.44-6.22-28.27-16.32l-14.44-25.01c-5.83-10.1-5.83-22.54,0-32.64l24.52-42.48c5.83-10.1,5.83-22.54,0-32.64l-24.42-42.3c-5.84-10.12-5.83-22.58.02-32.69l14.59-25.19c5.84-10.08,16.6-16.28,28.25-16.28h48.79c11.66,0,22.44-6.22,28.27-16.32l24.06-41.68c5.83-10.1,16.61-16.32,28.27-16.32h29.02c11.66,0,22.44,6.22,28.27,16.32l13.45,23.29c5.83,10.1,5.83,22.54,0,32.64l-13.95,24.18c-5.83,10.1-16.61,16.33-28.27,16.33h-49.24c-11.66,0-22.44,6.22-28.27,16.32l-35.62,61.69c-5.83,10.1-5.83,22.54,0,32.64l35.62,61.69c5.83,10.1,16.61,16.32,28.27,16.32h48.92c11.65,0,22.42,6.21,28.26,16.3l14.52,25.1c5.84,10.1,5.85,22.56.01,32.66l-13.38,23.17c-5.83,10.1-16.61,16.32-28.27,16.32h-28.88c-11.66,0-22.44-6.22-28.27-16.32l-24.52-42.48c-5.83-10.1-16.61-16.32-28.27-16.32Z"/>
</svg>
