<svg width="99" height="109" viewBox="0 0 99 109" fill="none" xmlns="http://www.w3.org/2000/svg">
<path fill-rule="evenodd" clip-rule="evenodd" d="M31.2969 54.1889L63.4106 86.2865L83.6808 66.0295C87.3054 62.768 92.8507 62.9131 96.2995 66.3597C99.7484 69.8063 99.8936 75.3479 96.6299 78.9701L69.8801 105.707C66.287 109.239 60.5242 109.239 56.9311 105.707L18.3379 67.1295V90.0592C18.3379 95.1197 14.2328 99.2221 9.16893 99.2221C4.10507 99.2221 0 95.1197 0 90.0592V18.2887C0 13.2282 4.10507 9.12581 9.16893 9.12581C14.2328 9.12581 18.3379 13.2282 18.3379 18.2887V41.2185L56.9261 2.65054C60.5181 -0.883513 66.2831 -0.883513 69.8752 2.65054L96.6449 29.3828C99.9085 33.005 99.7633 38.5466 96.3145 41.9932C92.8656 45.4398 87.3204 45.5849 83.6958 42.3234L63.4255 22.0664L31.2969 54.1889ZM63.4255 45.016C59.7125 45.014 56.3641 47.2476 54.9418 50.6751C53.5195 54.1026 54.3036 58.0489 56.9283 60.6733C59.5531 63.2978 63.5015 64.0835 66.932 62.664C70.3625 61.2445 72.5994 57.8994 72.5994 54.1889C72.6008 51.7561 71.635 49.4224 69.9145 47.7012C68.1941 45.98 65.8599 45.0124 63.4255 45.011V45.016Z" fill="#23AF91"/>
</svg>
