<?xml version="1.0" standalone="no"?>
<!DOCTYPE svg PUBLIC "-//W3C//DTD SVG 20010904//EN"
 "http://www.w3.org/TR/2001/REC-SVG-20010904/DTD/svg10.dtd">
<svg version="1.0" xmlns="http://www.w3.org/2000/svg"
 width="400.000000pt" height="400.000000pt" viewBox="0 0 400.000000 400.000000"
 preserveAspectRatio="xMidYMid meet">
<metadata>
Created by potrace 1.16, written by Peter Selinger 2001-2019
</metadata>
<g transform="translate(0.000000,400.000000) scale(0.100000,-0.100000)"
fill="#000000" stroke="none">
<path d="M0 2000 l0 -2000 2000 0 2000 0 0 2000 0 2000 -2000 0 -2000 0 0
-2000z m1958 1373 c13 -19 109 -169 176 -276 22 -34 63 -98 91 -142 28 -44
107 -169 176 -277 68 -109 135 -215 149 -237 14 -22 43 -68 64 -103 53 -84
382 -604 411 -648 114 -175 203 -324 199 -334 -4 -11 -167 -93 -354 -179 -41
-19 -133 -63 -205 -97 -71 -34 -166 -79 -210 -100 -44 -21 -228 -108 -410
-195 -181 -86 -344 -159 -361 -162 -24 -4 -38 1 -65 24 -19 16 -61 50 -94 75
-75 58 -351 273 -425 331 -30 24 -117 92 -192 151 -91 71 -138 114 -138 127 0
10 41 92 91 181 51 90 105 188 121 218 37 68 170 306 436 780 243 434 394 703
437 783 53 97 77 116 103 80z"/>
<path d="M1950 3203 c0 -21 -9 -126 -19 -233 -19 -188 -46 -465 -76 -790 -43
-458 -56 -595 -65 -689 -6 -57 -9 -105 -6 -108 3 -3 303 0 667 6 364 6 666 8
670 5 19 -11 7 17 -30 73 -21 32 -46 72 -55 88 -9 17 -66 107 -126 200 -60 94
-142 222 -183 285 -142 221 -332 520 -367 575 -195 308 -394 616 -401 621 -5
3 -9 -12 -9 -33z"/>
<path d="M1856 3148 c-7 -13 -49 -86 -91 -163 -127 -229 -404 -725 -525 -940
-264 -470 -372 -667 -367 -671 2 -2 191 -1 419 2 l416 7 11 111 c28 294 53
555 66 696 16 172 48 505 70 735 23 240 24 245 20 245 -3 0 -11 -10 -19 -22z"/>
<path d="M2425 1319 c-176 -3 -395 -7 -487 -8 l-168 -1 0 -33 c0 -19 -9 -114
-19 -213 -11 -98 -22 -219 -26 -267 -7 -84 -6 -88 12 -79 18 10 1009 472 1158
540 44 20 94 44 110 54 34 21 39 21 -580 7z"/>
<path d="M1226 1300 l-319 -5 369 -288 369 -288 7 68 c8 83 36 363 44 456 l7
67 -79 -2 c-44 -2 -223 -5 -398 -8z"/>
</g>
</svg>
