<svg width="50" height="50" viewBox="0 0 33 48" fill="none" xmlns="http://www.w3.org/2000/svg">
<path d="M32.5493 0.686401C31.3688 3.72209 30.3569 6.75778 29.1763 9.45617C27.6612 12.563 25.9135 15.551 23.9482 18.3946C21.7558 21.4303 18.7201 21.5989 15.6844 19.2378L14.8411 18.3946C12.6487 16.5394 11.6368 16.5394 9.95031 18.9005C7.89344 21.5031 6.2443 24.4033 5.05948 27.5016H19.9006L18.0455 31.7179H4.04759V47.9082H0V0.686401H32.5493ZM4.21623 4.56533V19.2378L8.09517 14.8529C8.64804 14.2757 9.30944 13.8134 10.0414 13.4924C10.7734 13.1714 11.5616 12.9981 12.3607 12.9824C13.1598 12.9667 13.9542 13.109 14.6982 13.4011C15.4422 13.6931 16.1212 14.1292 16.6963 14.6843L17.3709 15.1902C19.732 17.214 20.4066 17.214 21.9244 14.5156C23.067 12.6764 24.0813 10.7605 24.9601 8.78157C25.6347 7.43237 25.972 6.08318 26.6466 4.56533H4.21623Z" fill="black"/>
</svg>
