<svg width="100" height="100" preserveAspectRatio="xMidYMid meet" data-bbox="-0.004 -0.004 143.674 143.644" viewBox="-0.004 -0.004 143.674 143.644" xmlns="http://www.w3.org/2000/svg" data-type="color" role="presentation" aria-hidden="true" aria-label="">
  <g>
    <path d="M71.79 59.5a15.73 15.73 0 0 1-15.73-15.74 12.3 12.3 0 0 0-21-8.69 15.73 15.73 0 1 1-22.24-22.25 43.76 43.76 0 0 1 74.71 30.94A15.73 15.73 0 0 1 71.79 59.5Z" fill="#00ffbb" data-color="1"></path>
    <path d="M23.59 135.06a15.69 15.69 0 0 1-11.33-4.81 43.76 43.76 0 0 1 31.5-74.14 15.73 15.73 0 0 1 0 31.47 12.3 12.3 0 0 0-8.85 20.83 15.73 15.73 0 0 1-11.32 26.66Z" fill="#00cfab" data-color="2"></path>
    <path d="M99.92 143.64a43.81 43.81 0 0 1-43.77-43.77 15.73 15.73 0 0 1 31.47 0 12.3 12.3 0 0 0 21.12 8.57 15.73 15.73 0 1 1 22.57 21.93 43.42 43.42 0 0 1-31.39 13.27Z" fill="#00ffbb" data-color="1"></path>
    <path d="M43.76 143.64a43.41 43.41 0 0 1-31.5-13.38 15.73 15.73 0 1 1 22.65-21.86 12.3 12.3 0 0 0 21.15-8.53 15.73 15.73 0 0 1 31.47 0 43.81 43.81 0 0 1-43.77 43.77Z" fill="#00cfab" data-color="2"></path>
    <path d="M71.89 59.5a15.73 15.73 0 0 1-15.74-15.74A43.77 43.77 0 0 1 126 8.64a15.73 15.73 0 0 1-18.78 25.25 12.18 12.18 0 0 0-7.32-2.42 12.31 12.31 0 0 0-12.3 12.3A15.73 15.73 0 0 1 71.89 59.5Z" fill="#00cfab" data-color="2"></path>
    <path d="M99.92 87.53a15.73 15.73 0 0 1 0-31.47 12.3 12.3 0 0 0 7.32-22.17A15.73 15.73 0 1 1 126 8.64a43.77 43.77 0 0 1-26.08 78.89Z" fill="#00cfab" data-color="2"></path>
    <path d="M120 135.14a15.73 15.73 0 0 1-11.28-26.7 12.3 12.3 0 0 0-8.82-20.86 15.73 15.73 0 0 1 0-31.47 43.76 43.76 0 0 1 31.39 74.26 15.69 15.69 0 0 1-11.29 4.77Z" fill="#00ffbb" data-color="1"></path>
    <path d="M43.76 87.53a43.76 43.76 0 0 1-30.94-74.71 15.73 15.73 0 1 1 22.25 22.25 12.3 12.3 0 0 0 8.69 21 15.73 15.73 0 0 1 0 31.47Z" fill="#00ffbb" data-color="1"></path>
  </g>
</svg>
