<svg id="Layer_1" data-name="Layer 1" xmlns="http://www.w3.org/2000/svg" viewBox="0 0 236.8 236.8"><title>rif-token-rif-logo</title><path d="M55.7,82h53.5a0.65,0.65,0,0,0,.6-0.6V64.1a0.65,0.65,0,0,0-.6-0.6H55.7a0.65,0.65,0,0,0-.6.6V81.4A0.58,0.58,0,0,0,55.7,82ZM91.9,50.3h17.3a0.65,0.65,0,0,0,.6-0.6V32.4a0.65,0.65,0,0,0-.6-0.6H91.9a0.65,0.65,0,0,0-.6.6V49.7A0.65,0.65,0,0,0,91.9,50.3ZM17.9,127H0.6a0.65,0.65,0,0,0-.6.6v17.3a0.65,0.65,0,0,0,.6.6H17.9a0.65,0.65,0,0,0,.6-0.6V127.6A0.65,0.65,0,0,0,17.9,127Zm63.5,0H64.1a0.65,0.65,0,0,0-.6.6v53.5a0.65,0.65,0,0,0,.6.6H81.4a0.65,0.65,0,0,0,.6-0.6V127.6a0.65,0.65,0,0,0-.6-0.6h0Zm105.8-17.3h17.3a0.65,0.65,0,0,0,.6-0.6V91.8a0.65,0.65,0,0,0-.6-0.6H187.2a0.65,0.65,0,0,0-.6.6v17.3A0.53,0.53,0,0,0,187.2,109.7Zm-31.8,0h17.3a0.65,0.65,0,0,0,.6-0.6V55.6a0.65,0.65,0,0,0-.6-0.6H155.4a0.65,0.65,0,0,0-.6.6v53.5A0.58,0.58,0,0,0,155.4,109.7ZM91.9,18.5h17.3a0.65,0.65,0,0,0,.6-0.6V0.6a0.65,0.65,0,0,0-.6-0.6H91.9a0.65,0.65,0,0,0-.6.6V17.9A0.58,0.58,0,0,0,91.9,18.5ZM49.7,127H32.4a0.65,0.65,0,0,0-.6.6v17.3a0.65,0.65,0,0,0,.6.6H49.7a0.65,0.65,0,0,0,.6-0.6V127.6A0.74,0.74,0,0,0,49.7,127Zm131.5,27.8H127.7a0.65,0.65,0,0,0-.6.6v17.3a0.65,0.65,0,0,0,.6.6h53.5a0.65,0.65,0,0,0,.6-0.6V155.4a0.64,0.64,0,0,0-.6-0.6h0Zm36.5-31.5H141.9a0.65,0.65,0,0,0-.6.6v16.8a0.65,0.65,0,0,0,.6.6h75.8a0.65,0.65,0,0,0,.6-0.6V123.9a0.58,0.58,0,0,0-.6-0.6h0Zm-72.8,63.2H127.6a0.65,0.65,0,0,0-.6.6v17.3a0.65,0.65,0,0,0,.6.6h17.3a0.65,0.65,0,0,0,.6-0.6V187.1A0.58,0.58,0,0,0,144.9,186.5ZM95.5,96.1a0.65,0.65,0,0,0-.6-0.6H19.1a0.65,0.65,0,0,0-.6.6v16.8a0.65,0.65,0,0,0,.6.6H94.9a0.65,0.65,0,0,0,.6-0.6V96.1h0Zm140.7-4.8H218.9a0.65,0.65,0,0,0-.6.6v17.3a0.65,0.65,0,0,0,.6.6h17.3a0.65,0.65,0,0,0,.6-0.6V91.9A0.53,0.53,0,0,0,236.2,91.3Zm-123.3,50H96.1a0.65,0.65,0,0,0-.6.6v75.8a0.65,0.65,0,0,0,.6.6h16.8a0.65,0.65,0,0,0,.6-0.6V141.9a0.65,0.65,0,0,0-.6-0.6h0ZM141.3,95V19.1a0.65,0.65,0,0,0-.6-0.6H123.9a0.65,0.65,0,0,0-.6.6V95a0.65,0.65,0,0,0,.6.6h16.8A0.65,0.65,0,0,0,141.3,95Zm3.6,123.3H127.6a0.65,0.65,0,0,0-.6.6v17.3a0.65,0.65,0,0,0,.6.6h17.3a0.65,0.65,0,0,0,.6-0.6V218.9A0.53,0.53,0,0,0,144.9,218.3Z" style="fill:#149dd9"/></svg>