<?xml version="1.0" encoding="utf-8"?>
<!-- Generator: Adobe Illustrator 24.0.0, SVG Export Plug-In . SVG Version: 6.00 Build 0)  -->
<svg version="1.1" id="Layer_1" xmlns="http://www.w3.org/2000/svg" xmlns:xlink="http://www.w3.org/1999/xlink" x="0px" y="0px"
	 viewBox="0 0 65.3 65" style="enable-background:new 0 0 65.3 65;" xml:space="preserve">
<style type="text/css">
	.st0{fill:#32407B;}
	.st1{fill:#FFFFFF;}
</style>
<path class="st0" d="M32.7,0c18,0,32.7,14.6,32.7,32.5S50.7,65,32.7,65C14.6,65,0,50.5,0,32.5S14.6,0,32.7,0z"/>
<path class="st0" d="M32.7,5c15.3,0,27.7,12.3,27.7,27.5S47.9,60.1,32.7,60.1C17.4,60.1,5,47.7,5,32.5C5,17.3,17.4,5,32.7,5z"/>
<path class="st1" d="M32.7,60.6C17.1,60.6,4.4,48,4.4,32.5S17.1,4.4,32.7,4.4c15.6,0,28.3,12.6,28.3,28.1S48.2,60.6,32.7,60.6z
	 M32.7,5.6c-14.9,0-27,12.1-27,26.9s12.1,26.9,27,26.9c14.9,0,27-12.1,27-26.9C59.7,17.7,47.6,5.6,32.7,5.6z"/>
<path class="st1" d="M44.6,43.7h-24c-0.3,0-0.6-0.3-0.6-0.6v-21c0-3.5,2.8-6.3,6.4-6.3h12.5c3.5,0,6.4,2.8,6.4,6.3v21
	C45.2,43.4,45,43.7,44.6,43.7L44.6,43.7z M21.3,42.5H44V22.2c0-2.8-2.3-5.1-5.1-5.1H26.4c-2.8,0-5.1,2.3-5.1,5.1
	C21.3,22.2,21.3,42.5,21.3,42.5z"/>
<path class="st1" d="M26.3,40c-1.4,0-2.5-1.1-2.5-2.5c0,0,0,0,0,0c0-1.4,1.1-2.5,2.5-2.5c0,0,0,0,0,0c1.4,0,2.5,1.1,2.5,2.5
	c0,0,0,0,0,0C28.8,38.9,27.6,40,26.3,40z M26.3,36.2c-0.7,0-1.3,0.6-1.3,1.3s0.6,1.3,1.3,1.3s1.3-0.6,1.3-1.3
	C27.5,36.7,27,36.2,26.3,36.2L26.3,36.2z M39.1,40c-1.4,0-2.5-1.1-2.5-2.5c0,0,0,0,0,0c0-1.4,1.1-2.5,2.5-2.5c0,0,0,0,0,0
	c1.4,0,2.5,1.1,2.5,2.5c0,0,0,0,0,0C41.6,38.9,40.5,40,39.1,40z M39.1,36.2c-0.7,0-1.3,0.6-1.3,1.3s0.6,1.3,1.3,1.3
	c0.7,0,1.3-0.6,1.3-1.3C40.4,36.7,39.8,36.2,39.1,36.2L39.1,36.2z M36.3,20.3H29c-0.3,0-0.6-0.3-0.6-0.6s0.3-0.6,0.6-0.6h7.3
	c0.3,0,0.6,0.3,0.6,0.6C36.9,20,36.7,20.3,36.3,20.3z M44.3,49.5c-0.2,0-0.4-0.1-0.5-0.2l-3.9-5.5c-0.2-0.3-0.1-0.6,0.2-0.8
	c0.3-0.2,0.6-0.1,0.8,0.2l3.9,5.5c0.2,0.3,0.1,0.6-0.2,0.8C44.6,49.5,44.4,49.5,44.3,49.5z M21,49.5c-0.1,0-0.2,0-0.4-0.1
	c-0.3-0.2-0.3-0.6-0.2-0.8l3.9-5.5c0.2-0.3,0.6-0.4,0.8-0.2s0.4,0.6,0.2,0.8l-3.9,5.5C21.4,49.4,21.2,49.5,21,49.5L21,49.5z"/>
<path class="st1" d="M22,48.2c-0.1,0-0.2,0-0.4-0.1c-0.3-0.2-0.3-0.6-0.2-0.8l2.9-4.1c0.2-0.3,0.6-0.4,0.8-0.2s0.4,0.6,0.2,0.8
	l-2.9,4.1C22.4,48.1,22.2,48.2,22,48.2z M44.6,24.9h-24c-0.3,0-0.6-0.3-0.6-0.6s0.3-0.6,0.6-0.6h24c0.3,0,0.6,0.3,0.6,0.6
	S45,24.9,44.6,24.9z M44.6,32.6h-24c-0.3,0-0.6-0.3-0.6-0.6s0.3-0.6,0.6-0.6h24c0.3,0,0.6,0.3,0.6,0.6S45,32.6,44.6,32.6z"/>
<path class="st1" d="M26.3,32.6c-0.2,0-0.3,0-0.4-0.2c-0.3-0.2-0.3-0.6-0.1-0.8l2.8-3.1c0.2-0.2,0.6-0.3,0.8,0
	c0.2,0.2,0.3,0.6,0,0.8l-2.8,3.1C26.6,32.5,26.4,32.6,26.3,32.6z M29.9,32.6c-0.2,0-0.3,0-0.4-0.2c-0.2-0.2-0.3-0.6,0-0.8l5.6-6.3
	c0.2-0.2,0.6-0.3,0.8,0c0.2,0.2,0.3,0.6,0,0.8l-5.6,6.3C30.2,32.5,30.1,32.6,29.9,32.6z M41.4,45.6H23.9c-0.3,0-0.6-0.3-0.6-0.6
	c0-0.3,0.3-0.6,0.6-0.6h17.5c0.3,0,0.6,0.3,0.6,0.6C42,45.3,41.8,45.6,41.4,45.6z M43.3,48.2H22c-0.3,0-0.6-0.3-0.6-0.6
	c0-0.3,0.3-0.6,0.6-0.6h21.3c0.3,0,0.6,0.3,0.6,0.6C44,47.9,43.7,48.2,43.3,48.2z"/>
<path class="st1" d="M32.7,56.9C19.1,56.9,8.1,46,8.1,32.5c0-13.4,11-24.4,24.5-24.4c13.5,0,24.5,10.9,24.5,24.4
	S46.2,56.9,32.7,56.9z M32.7,9.3C19.8,9.3,9.4,19.7,9.4,32.5c0,12.8,10.5,23.2,23.3,23.2C45.5,55.7,56,45.3,56,32.5
	C56,19.7,45.5,9.3,32.7,9.3z"/>
</svg>
