<?xml version="1.0" encoding="UTF-8"?>
<svg fill="none" viewBox="0 0 1024 1024" xmlns="http://www.w3.org/2000/svg">
<g clip-path="url(#a)">
<path d="m512 1024c282.77 0 512-229.23 512-512s-229.23-512-512-512-512 229.23-512 512 229.23 512 512 512z" fill="#fff"/>
<path d="m648.69 337.92h-270.52c-95.75 0-173.37 77.621-173.37 173.37s77.621 173.37 173.37 173.37h270.52c95.751 0 173.37-77.621 173.37-173.37s-77.621-173.37-173.37-173.37z" fill="#2375EF"/>
<path d="m650.49 349.36h-1e-3c-88.441 0-160.14 71.696-160.14 160.14v3.592c0 88.441 71.695 160.14 160.14 160.14h1e-3c88.441 0 160.14-71.696 160.14-160.14v-3.592c0-88.441-71.696-160.14-160.14-160.14z" fill="#F7F7FA"/>
</g>
<defs>
<clipPath id="a">
<rect width="1024" height="1024" fill="#fff"/>
</clipPath>
</defs>
</svg>
