<?xml version="1.0" encoding="utf-8"?>
<svg version="1.1" id="Layer_1" xmlns="http://www.w3.org/2000/svg" xmlns:xlink="http://www.w3.org/1999/xlink" x="0px" y="0px"
	 width="31.828px" height="31.828px" viewBox="0.462 0.078 31.828 31.828" enable-background="new 0.462 0.078 31.828 31.828"
	 xml:space="preserve">
<circle fill="none" stroke="#222326" stroke-width="2.5" cx="16.376" cy="15.992" r="14.664"/>
<path fill="#222326" d="M19.114,21.291c-0.071-0.143-0.132-0.307-0.182-0.492s-0.093-0.381-0.128-0.587
	c-0.164,0.178-0.353,0.346-0.566,0.502c-0.214,0.157-0.452,0.296-0.716,0.417c-0.256,0.114-0.541,0.203-0.854,0.267
	c-0.313,0.071-0.651,0.107-1.015,0.107c-0.591,0-1.136-0.085-1.634-0.256c-0.491-0.171-0.915-0.409-1.271-0.715
	c-0.356-0.307-0.634-0.669-0.833-1.09c-0.2-0.427-0.299-0.89-0.299-1.389c0-1.217,0.452-2.157,1.356-2.82
	c0.912-0.669,2.268-1.004,4.07-1.004h1.656v-0.684c0-0.556-0.182-0.993-0.545-1.314c-0.363-0.328-0.887-0.491-1.57-0.491
	c-0.605,0-1.047,0.132-1.324,0.395c-0.278,0.257-0.417,0.602-0.417,1.036h-2.97c0-0.491,0.107-0.958,0.32-1.399
	c0.221-0.441,0.538-0.83,0.951-1.165c0.42-0.334,0.93-0.598,1.528-0.79c0.605-0.2,1.296-0.299,2.072-0.299
	c0.698,0,1.346,0.085,1.944,0.256c0.605,0.171,1.128,0.424,1.57,0.758c0.442,0.334,0.787,0.758,1.036,1.271
	c0.25,0.506,0.374,1.093,0.374,1.763v4.956c0,0.62,0.039,1.132,0.118,1.538c0.078,0.406,0.192,0.755,0.342,1.047v0.182H19.114z
	 M16.283,19.208c0.299,0,0.577-0.036,0.833-0.107s0.488-0.164,0.694-0.278c0.207-0.114,0.384-0.242,0.534-0.384
	c0.149-0.149,0.267-0.299,0.353-0.449v-1.987H17.18c-0.463,0-0.858,0.046-1.186,0.139c-0.328,0.085-0.595,0.21-0.801,0.374
	c-0.206,0.157-0.359,0.349-0.459,0.577c-0.1,0.221-0.149,0.462-0.149,0.726c0,0.399,0.139,0.73,0.417,0.994
	C15.286,19.076,15.713,19.208,16.283,19.208z"/>
</svg>
