<?xml version="1.0" encoding="UTF-8"?>
<svg height="50" width="50" enable-background="new 0 0 31.8 31.8" version="1.1" viewBox="0 0 31.8 31.8" xml:space="preserve" xmlns="http://www.w3.org/2000/svg">
<style type="text/css">.st0{fill:none;stroke:#222326;stroke-width:2.5;}</style>
<circle class="st0" cx="15.9" cy="15.9" r="14.7"/>
<path fill="#222326" d="m18.7 21.2c-0.1-0.1-0.1-0.3-0.2-0.5 0-0.2-0.1-0.4-0.1-0.6-0.2 0.2-0.4 0.3-0.6 0.5s-0.5 0.3-0.7 0.4c-0.3 0.1-0.5 0.2-0.9 0.3-0.3 0.1-0.7 0.1-1 0.1-0.6 0-1.1-0.1-1.6-0.3s-0.9-0.4-1.3-0.7-0.6-0.7-0.8-1.1-0.3-0.9-0.3-1.4c0-1.2 0.5-2.2 1.4-2.8 0.9-0.7 2.3-1 4.1-1h1.7v-0.7c0-0.6-0.2-1-0.5-1.3-0.4-0.3-0.9-0.5-1.6-0.5-0.6 0-1 0.1-1.3 0.4s-0.4 0.6-0.4 1h-3c0-0.5 0.1-1 0.3-1.4s0.5-0.8 1-1.2c0.4-0.3 0.9-0.6 1.5-0.8s1.3-0.3 2.1-0.3c0.7 0 1.3 0.1 1.9 0.3s1.1 0.4 1.6 0.8c0.4 0.3 0.8 0.8 1 1.3s0.4 1.1 0.4 1.8v5c0 0.6 0 1.1 0.1 1.5s0.2 0.8 0.3 1v0.2h-3.1zm-2.9-2.1c0.3 0 0.6 0 0.8-0.1 0.3-0.1 0.5-0.2 0.7-0.3s0.4-0.2 0.5-0.4l0.4-0.4v-2h-1.5c-0.5 0-0.9 0-1.2 0.1s-0.6 0.2-0.8 0.4-0.4 0.3-0.5 0.6c-0.1 0.2-0.1 0.5-0.1 0.7 0 0.4 0.1 0.7 0.4 1s0.8 0.4 1.3 0.4z"/>
</svg>
