<svg xmlns="http://www.w3.org/2000/svg" viewBox="0 0 400 400"><defs><style>.cls-1{fill:#f0ff00;}</style></defs><g id="Layer_2" data-name="Layer 2"><g id="Layer_1-2" data-name="Layer 1"><circle class="cls-1" cx="200" cy="200" r="200"/><path d="M83.4,346.5c-7.3-1.3-17.8-5.6-19.3-7.8a13.2,13.2,0,0,0-2.4-2.7c-1.5-1.5-1.7-2.3-1.5-7.7s.4-6.3,2.7-8.3c3.8-3.2,8.7-6.6,9.4-6.6s1.9-1.1,3.5-2.4,3.2-2.4,3.8-2.4,4.1-3.1,7.7-6.9c9-9.3,10.3-11,10.8-13.6s.8-2.2,1.1-2.2,1.1-1.1,1.6-2.4,1.3-2.5,1.6-2.5,2.5-5.6,2.5-7.9a2.1,2.1,0,0,1,1-2c.6-.2,1.5-2,2.1-3.9a19.9,19.9,0,0,1,1.7-4.4,13.7,13.7,0,0,0,1.2-4,20.6,20.6,0,0,1,1.7-5.3,31.4,31.4,0,0,0,2-7.2c.5-2.8,1.4-5.7,2-6.3s1.3-3.1,1.6-5.5.9-4.7,1.3-4.9a3.8,3.8,0,0,0,.7-2.6c0-3.1,2.6-15.9,3.3-16.4s.9-3.7,1.2-7.7a39.3,39.3,0,0,1,1.2-8.1c.8-1,2.3-15.5,2.9-29.9.3-6.2.9-11.8,1.3-12.3s1.1-40.6,0-41.7a6,6,0,0,1-1-3.4c0-3.7-2.3-13.8-3.2-14.1s-1-1.5-1.3-3-.8-2.8-1.1-2.8-1.2-2.1-2-4.6a20.2,20.2,0,0,0-2.1-5.1,4.8,4.8,0,0,1-1.2-2.4c-.4-1.6.1-2.7,2-4.8a20.3,20.3,0,0,0,2.5-3.3c0-1.2,6.4-4,11.1-4.9s5.3-.9,12.8,1.7,8,3.1,9.1,5.4,1.5,2.6,1.9,2.6.7.5.7,1.1a6.1,6.1,0,0,0,1.6,2.9,18.1,18.1,0,0,1,2.4,4.6c.5,1.5,1.3,2.8,1.6,2.8s.9,1,1.2,2.3a8.3,8.3,0,0,0,1.7,3.4,3,3,0,0,1,1.2,1.6c0,1,5,11.6,5.7,12.1a21.9,21.9,0,0,1,1.9,4.6c.8,2.4,1.7,4.3,2.1,4.3s.9,1.3,1.2,2.8.8,2.9,1.1,2.9,1.3,2,2.2,4.4,1.8,4.5,2.1,4.5.8,1.1,1.1,2.6a7.7,7.7,0,0,0,1.6,3.4,10.3,10.3,0,0,1,2,4.1,15,15,0,0,0,2.1,4.4,12.8,12.8,0,0,1,1.5,3.1c.3,1,.9,1.8,1.2,1.8s1.2,1.1,1.8,2.6a14.2,14.2,0,0,0,3.2,4.6,22.1,22.1,0,0,1,3.6,4.9,22.2,22.2,0,0,0,2.5,3.9,3.8,3.8,0,0,1,1.1,2.2c0,.7.4,1.2.8,1.2s1.5,1.4,2.4,3c2.2,4.2,6.7,9.1,8.3,9.1s1.4-1.5,1.6-13.1c.4-20.1-.9-69.8-1.8-70.1s-.8-2.8-.8-6c0-10-1.7-28.4-2.9-30.7s-1.2-5.4-1.3-11l-.2-8.8,2.4-2.1a29.8,29.8,0,0,1,5.7-3.8c3-1.5,3.9-1.6,10.1-.8,9,1.1,15,2.7,16.8,4.5a25,25,0,0,1,3.3,5.1c1.6,3.1,2,5.5,2.5,15,.4,6.3,1,12.3,1.5,13.4s1.3,5.6,1.8,10.1,1.4,8.8,2,9.7a15.4,15.4,0,0,1,1.7,4.9,9.3,9.3,0,0,0,1.1,3.6,41.4,41.4,0,0,1,1.9,6.1c.8,3.1,1.7,5.8,2.1,6s.9,1.9,1.2,3.6a12.6,12.6,0,0,0,1.6,4.2c.6.5,1.5,3,2.1,5.5s1.4,4.6,1.7,4.6.9,1.2,1.2,2.6a9.6,9.6,0,0,0,1.6,3.8,18.5,18.5,0,0,1,2.1,5.1c.5,2.1,1.4,4.2,2,4.7a3.3,3.3,0,0,1,1.2,2.4,4.2,4.2,0,0,0,1,2.6,17.3,17.3,0,0,1,2.6,4.9c.8,2.1,1.7,3.8,2.1,3.8s.7.7.7,1.5a7.4,7.4,0,0,0,1.5,3.5,17.3,17.3,0,0,1,2.6,5.1,25.3,25.3,0,0,0,1.5,3.7,8.3,8.3,0,0,1,1.5,2.4,28.2,28.2,0,0,0,1.8,3.2c.4.7,2.1,4.2,3.8,7.7a62.3,62.3,0,0,0,4.1,7.6,3.4,3.4,0,0,1,1,2.1,3.3,3.3,0,0,0,1.2,2,9.8,9.8,0,0,1,2.1,4,9.4,9.4,0,0,0,2.1,3.6,2.2,2.2,0,0,1,1.1,1.7,4,4,0,0,0,1,2.2,21,21,0,0,1,2.6,4.1c.9,1.7,1.9,3.1,2.2,3.1s.8,1.1,1.1,2.4.8,2.4,1.2,2.4,1.3,1.6,2,3.5a17.5,17.5,0,0,0,1.9,3.8c1.1.8,5,7,5,7.8a7,7,0,0,0,1.8,2.9,38.2,38.2,0,0,1,2.9,3.6l3.6,5.5a52.4,52.4,0,0,0,3.8,5.4c3.7,3.9,7.9,10.4,8.6,13s.9,2.3,1.3,2.3,1.1,1.1,1.6,2.4,1.1,2.4,1.4,2.4,2.5,7.5,2.5,11a4.2,4.2,0,0,1-2.2,4.2c-3.1,2-9.4,1.8-14-.6s-12.6-8.5-17.4-13.3c-1.8-1.8-4.2-4.1-5.3-5a125,125,0,0,1-11-12.7c-1.6-2.1-3.2-3.8-3.5-3.8s-.8-.8-1.1-1.8a10.3,10.3,0,0,0-1.7-3.5c-.7-.9-3.2-4.7-5.7-8.5l-5-7.6a56.8,56.8,0,0,1-5.8-9.6c-.5-1.2-1.3-2.2-1.7-2.2s-.8-.5-.8-1.1a3.8,3.8,0,0,0-1.1-2.3,24.3,24.3,0,0,1-2.5-3.9c-.9-1.5-1.8-3-2-3.2s-3.2-5-4.7-8.3c-.7-1.7-1.6-3-2-3s-.7-.6-.7-1.2a5.5,5.5,0,0,0-1.5-2.8,11.6,11.6,0,0,1-2.5-4.4c-1-3-3.7-4.6-5.8-3.3s-.3,25.2,1,29.6c.4,1.5,1.1,5.8,1.6,9.6s1.1,7,1.4,7.2,1.1,2.7,1.7,5.3a27.2,27.2,0,0,0,2.1,6.5,19.8,19.8,0,0,1,1.6,5.3,13.9,13.9,0,0,0,1.4,4.6c.6.8.6,1.4-.1,2a4.6,4.6,0,0,0-.9,2.7,7.2,7.2,0,0,1-1.7,3.7l-2.6,3.1c-1,1.3-3.5,2.7-7.2,4.1-1.2.4-6,.8-10.6.9-10.3.1-13.4-1-15.5-5.8-.8-1.8-1.8-3.2-2.1-3.2s-1-1.1-1.4-2.4-1.2-2.5-1.7-2.5-1-1-1.3-2.2-4-8-5.3-9.1a15.7,15.7,0,0,1-1.7-3.5c-.6-1.8-1.5-3.3-2.1-3.6a1.5,1.5,0,0,1-1-1.4,3.8,3.8,0,0,0-1.1-2.2,23.2,23.2,0,0,1-2.5-3.7c-.7-1.4-1.7-2.6-2.1-2.6s-1-.9-1.3-2-.8-2-1.2-2-1.2-1.3-1.9-2.9a25.1,25.1,0,0,0-2.9-5.1l-3-4-2.8-3.5a5,5,0,0,1-1.4-2.3,3.3,3.3,0,0,0-1.2-1.8,22.2,22.2,0,0,1-2.5-3.9,21.1,21.1,0,0,0-1.9-3.2c-.3-.3-1.7-2.3-3.2-4.5s-2.8-4.4-3.2-4.8l-3.2-4.9c-1.4-2.2-3-4.6-3.6-5.3s-2.1-2.8-3.5-4.8c-2.9-4.5-6.1-7.5-7-6.7s-2.3,20.2-2.3,28.7c0,3-.3,5.5-.7,5.5s-1,4.7-1.3,10.5-.9,10.5-1.3,10.5-.9,2.1-1.1,4.7c-1,9.1-2.3,16.8-3,17.7a21.9,21.9,0,0,0-1.2,5.6,29.2,29.2,0,0,1-1.5,6.8,39.4,39.4,0,0,0-2,8.5c-.6,3.5-1.5,7.2-2.1,8.1A20.9,20.9,0,0,0,145,278c-.3,2.1-.9,4-1.3,4.2s-1.3,3-2,6.1-1.7,5.7-2,5.7-.9,1.2-1.2,2.6c-.7,4-5,12.2-7.9,15.3a22.7,22.7,0,0,0-2.4,3.4,91.8,91.8,0,0,1-8.6,10.9,8.4,8.4,0,0,0-1.8,2.6c0,.3-1.2,1.1-2.6,1.7s-5.4,3.1-8.8,5.7-6.5,4.7-6.9,4.7a2.9,2.9,0,0,0-1.9,1.2,7.6,7.6,0,0,1-3.5,1.7,12.5,12.5,0,0,0-3.8,1.5c-1.9,1.6-3.4,1.9-6.9,1.2Z"/></g></g></svg>