<svg viewBox="0 0 500 500" fill="none" xmlns="http://www.w3.org/2000/svg">
<circle cx="250" cy="250" r="250" fill="black"/>
<path fill-rule="evenodd" clip-rule="evenodd" d="M250 139.106C196.108 139.106 144.599 149.311 97.3009 167.894C126.569 113.576 183.973 76.6602 250 76.6602C288.47 76.6602 324.014 89.1925 352.77 110.397C322.807 128.614 287.629 139.106 250 139.106ZM81.9088 207.498C132.756 182.988 189.774 169.252 250 169.252C296.673 169.252 340.074 155.243 376.228 131.201C390.995 146.885 402.871 165.321 411.005 185.658C364.809 216.12 309.475 233.85 250 233.85C187.487 233.85 129.122 251.609 79.675 282.358C77.6957 271.875 76.6602 261.058 76.6602 250C76.6602 235.336 78.481 221.098 81.9088 207.498ZM250 263.996C190.236 263.996 134.653 281.899 88.3218 312.634C96.2458 333.074 107.934 351.638 122.536 367.474C158.935 342.926 202.794 328.595 250 328.595C310.462 328.595 367.69 314.751 418.688 290.06C421.73 277.201 423.34 263.789 423.34 250C423.34 238.265 422.174 226.802 419.951 215.721C370.584 246.327 312.355 263.996 250 263.996ZM250 358.741C211.707 358.741 175.951 369.606 145.647 388.422C174.677 410.341 210.821 423.34 250 423.34C317.123 423.34 375.335 385.188 404.134 329.386C356.443 348.328 304.438 358.741 250 358.741Z" fill="#29CCC4"/>
</svg>
