<?xml version="1.0" encoding="UTF-8" standalone="no"?>
<!-- Created with Inkscape (http://www.inkscape.org/) -->

<svg
   xmlns:dc="http://purl.org/dc/elements/1.1/"
   xmlns:cc="http://creativecommons.org/ns#"
   xmlns:rdf="http://www.w3.org/1999/02/22-rdf-syntax-ns#"
   xmlns:svg="http://www.w3.org/2000/svg"
   xmlns="http://www.w3.org/2000/svg"
   xmlns:sodipodi="http://sodipodi.sourceforge.net/DTD/sodipodi-0.dtd"
   xmlns:inkscape="http://www.inkscape.org/namespaces/inkscape"
   width="400"
   height="400"
   viewBox="0 0 105.83333 105.83333"
   version="1.1"
   id="svg8"
   inkscape:version="0.92.5 (2060ec1f9f, 2020-04-08)"
   sodipodi:docname="MAMBO-M-400xrund.svg">
  <defs
     id="defs2" />
  <sodipodi:namedview
     id="base"
     pagecolor="#ffffff"
     bordercolor="#666666"
     borderopacity="1.0"
     inkscape:pageopacity="0"
     inkscape:pageshadow="2"
     inkscape:zoom="0.35"
     inkscape:cx="-134.28578"
     inkscape:cy="220.00005"
     inkscape:document-units="px"
     inkscape:current-layer="layer1"
     showgrid="false"
     inkscape:window-width="1564"
     inkscape:window-height="872"
     inkscape:window-x="36"
     inkscape:window-y="0"
     inkscape:window-maximized="1"
     units="px"
     fit-margin-top="0"
     fit-margin-left="0"
     fit-margin-right="0"
     fit-margin-bottom="0"
     inkscape:pagecheckerboard="true" />
  <metadata
     id="metadata5">
    <rdf:RDF>
      <cc:Work
         rdf:about="">
        <dc:format>image/svg+xml</dc:format>
        <dc:type
           rdf:resource="http://purl.org/dc/dcmitype/StillImage" />
        <dc:title></dc:title>
      </cc:Work>
    </rdf:RDF>
  </metadata>
  <g
     inkscape:label="Ebene 1"
     inkscape:groupmode="layer"
     id="layer1"
     transform="translate(217.71426,-101.20834)">
    <g
       id="g18"
       transform="matrix(0.80924857,0,0,0.80924857,-39.082291,37.046479)"
       inkscape:export-xdpi="96"
       inkscape:export-ydpi="96">
      <circle
         r="65.389877"
         cy="144.6756"
         cx="-155.34819"
         id="path8"
         style="fill:#f0ff00;fill-opacity:1;stroke-width:0.26458332" />
      <path
         inkscape:connector-curvature="0"
         id="path12"
         d="m -193.46713,192.58111 c -2.39081,-0.43499 -5.83552,-1.83595 -6.29924,-2.56189 -0.11762,-0.18413 -0.47416,-0.5773 -0.79231,-0.8737 -0.51227,-0.47725 -0.56968,-0.7675 -0.50175,-2.53666 0.0718,-1.8705 0.12936,-2.04205 0.9032,-2.6932 1.24157,-1.04471 2.82189,-2.16061 3.05981,-2.16061 0.1159,0 0.62295,-0.35235 1.12678,-0.783 0.50382,-0.43065 1.07561,-0.78783 1.27063,-0.79375 0.19503,-0.006 1.32612,-1.01862 2.51355,-2.25046 2.92069,-3.02995 3.36387,-3.58645 3.53413,-4.43779 0.0804,-0.40196 0.23591,-0.73083 0.34558,-0.73083 0.10968,0 0.34736,-0.35719 0.52819,-0.79375 0.18083,-0.43657 0.41456,-0.79375 0.51939,-0.79375 0.23167,0 0.80353,-1.83762 0.80353,-2.58208 0,-0.29497 0.15604,-0.59619 0.34674,-0.66937 0.19071,-0.0732 0.50067,-0.65146 0.68879,-1.28508 0.18812,-0.63361 0.43328,-1.27108 0.5448,-1.4166 0.11151,-0.14552 0.28874,-0.74083 0.39382,-1.32292 0.10509,-0.58208 0.3502,-1.35599 0.54469,-1.71979 0.19449,-0.3638 0.49076,-1.42364 0.65838,-2.3552 0.16763,-0.93157 0.46525,-1.85423 0.66139,-2.05037 0.19613,-0.19613 0.43863,-1.0131 0.53888,-1.81547 0.10025,-0.80238 0.28742,-1.52385 0.41593,-1.60328 0.12852,-0.0794 0.23357,-0.4648 0.23346,-0.8564 -2.9e-4,-0.997 0.84113,-5.18185 1.07412,-5.34219 0.10572,-0.0728 0.27868,-1.20386 0.38436,-2.51355 0.10568,-1.30968 0.28605,-2.50031 0.40082,-2.64583 0.27037,-0.34283 0.73095,-5.08847 0.95009,-9.78958 0.095,-2.0373 0.28617,-3.84809 0.42488,-4.02399 0.37812,-0.4795 0.35809,-13.25948 -0.0214,-13.63896 -0.16625,-0.16624 -0.30433,-0.6654 -0.30686,-1.10924 -0.007,-1.21675 -0.75346,-4.49924 -1.04538,-4.59655 -0.14091,-0.047 -0.33274,-0.49346 -0.42631,-0.99219 -0.0936,-0.49873 -0.25418,-0.90678 -0.35693,-0.90678 -0.10275,0 -0.40167,-0.68461 -0.66426,-1.52136 -0.26259,-0.83674 -0.57255,-1.58208 -0.6888,-1.65629 -0.11625,-0.0742 -0.2862,-0.43315 -0.37768,-0.79763 -0.12724,-0.50697 0.0232,-0.87501 0.64048,-1.56635 0.44374,-0.49702 0.80681,-0.97937 0.80681,-1.07189 0,-0.37773 2.08969,-1.29724 3.63205,-1.598169 1.59182,-0.31058 1.73424,-0.2912 4.20128,0.571669 2.2422,0.78423 2.60382,0.99801 2.96539,1.75304 0.22648,0.47294 0.50879,0.8599 0.62736,0.8599 0.11857,0 0.21558,0.16037 0.21558,0.35638 0,0.19602 0.23293,0.62496 0.51761,0.95321 0.28469,0.32824 0.65111,1.0013 0.81427,1.49569 0.16316,0.49438 0.39703,0.89888 0.5197,0.89888 0.12267,0 0.29969,0.34896 0.39336,0.77547 0.0937,0.4265 0.34127,0.91733 0.5502,1.09073 0.20892,0.17339 0.37986,0.41943 0.37986,0.54674 0,0.31536 1.63043,3.77185 1.85712,3.93706 0.0998,0.0728 0.38724,0.75737 0.63867,1.52135 0.25144,0.76399 0.5534,1.38907 0.67103,1.38907 0.11763,0 0.29205,0.41672 0.3876,0.92604 0.0956,0.50932 0.26806,0.92604 0.38335,0.92604 0.11529,0 0.43221,0.65484 0.70426,1.45521 0.27205,0.80036 0.57959,1.45521 0.68341,1.45521 0.10382,0 0.27338,0.38525 0.3768,0.85611 0.10342,0.47086 0.33787,0.97688 0.521,1.12448 0.18312,0.1476 0.48021,0.74462 0.66019,1.3267 0.17997,0.58208 0.47668,1.23693 0.65935,1.45521 0.18268,0.21828 0.41377,0.66476 0.51355,0.99218 0.0998,0.32743 0.27801,0.59532 0.39607,0.59532 0.11806,0 0.37136,0.37832 0.56289,0.84071 0.19153,0.4624 0.66565,1.14701 1.05359,1.52136 0.38794,0.37435 0.91596,1.09153 1.17338,1.59374 0.25742,0.50221 0.63119,1.07626 0.83059,1.27567 0.19941,0.19941 0.36257,0.53265 0.36257,0.74054 0,0.20789 0.11664,0.37798 0.25921,0.37798 0.14256,0 0.49496,0.44648 0.78311,0.99219 0.72138,1.36617 2.19667,2.97656 2.72684,2.97656 0.38758,0 0.44812,-0.50278 0.51769,-4.29948 0.12054,-6.5789 -0.29931,-22.80687 -0.5927,-22.90851 -0.14001,-0.0485 -0.25457,-0.93748 -0.25457,-1.9755 0,-3.27227 -0.57863,-9.280259 -0.96729,-10.043489 -0.23757,-0.46652 -0.39275,-1.76342 -0.42985,-3.59234 l -0.0581,-2.86225 0.79375,-0.70255 c 0.43656,-0.3864 1.27685,-0.94227 1.86732,-1.23526 0.97752,-0.48504 1.27343,-0.50797 3.30729,-0.25629 2.94461,0.3644 4.88633,0.88203 5.46645,1.45726 0.25929,0.25712 0.75097,1.01355 1.09262,1.68097 0.52173,1.01921 0.65389,1.8065 0.82549,4.91765 0.11237,2.03729 0.33137,4.001819 0.48667,4.365619 0.15529,0.36381 0.42021,1.84376 0.58869,3.2888 0.16849,1.44504 0.46482,2.87379 0.65852,3.175 0.1937,0.30121 0.43769,1.02391 0.54221,1.60599 0.10451,0.58208 0.26215,1.11787 0.3503,1.19063 0.0881,0.0728 0.37184,0.96068 0.63041,1.97316 0.25858,1.01248 0.56883,1.90545 0.68944,1.98437 0.12062,0.0789 0.30461,0.6071 0.40888,1.17372 0.10426,0.56661 0.33723,1.17786 0.5177,1.35833 0.18046,0.18046 0.48853,0.99679 0.68459,1.81406 0.19606,0.81727 0.44706,1.48594 0.55778,1.48594 0.11071,0 0.28354,0.38695 0.38406,0.8599 0.10052,0.47294 0.33916,1.03849 0.53032,1.25677 0.19115,0.21828 0.48879,0.95882 0.66141,1.64564 0.17261,0.68683 0.47921,1.38601 0.68133,1.55375 0.20211,0.16774 0.36747,0.52003 0.36747,0.78286 0,0.26283 0.15741,0.63527 0.3498,0.82766 0.19239,0.19239 0.56575,0.91527 0.82969,1.6064 0.26395,0.69113 0.58279,1.2566 0.70854,1.2566 0.12576,0 0.22864,0.22207 0.22864,0.49349 0,0.27142 0.22081,0.77743 0.49069,1.12448 0.26988,0.34704 0.64432,1.10724 0.83209,1.68933 0.18777,0.58208 0.41587,1.11786 0.50689,1.19062 0.091,0.0728 0.31102,0.42995 0.4889,0.79375 0.17788,0.3638 0.4321,0.84005 0.56494,1.05833 0.13283,0.21829 0.69924,1.34803 1.25869,2.51054 0.55945,1.16252 1.16601,2.27235 1.34791,2.4663 0.1819,0.19394 0.33073,0.50814 0.33073,0.69821 0,0.19007 0.1725,0.48874 0.38334,0.66372 0.21083,0.17498 0.52533,0.75511 0.69888,1.28917 0.17354,0.53406 0.47729,1.06624 0.67499,1.18261 0.1977,0.11637 0.35945,0.37576 0.35945,0.57641 0,0.20066 0.14912,0.52216 0.33137,0.71446 0.18225,0.19229 0.56651,0.79611 0.85392,1.34181 0.2874,0.54571 0.60507,0.99219 0.70594,0.99219 0.10087,0 0.26185,0.35719 0.35773,0.79375 0.0959,0.43656 0.27101,0.79375 0.38917,0.79375 0.11816,0 0.41716,0.50567 0.66445,1.12371 0.24729,0.61804 0.52844,1.18358 0.62479,1.25677 0.3391,0.2576 1.62888,2.28153 1.62888,2.55605 0,0.15283 0.26789,0.57592 0.59532,0.94021 0.32742,0.36429 0.7433,0.88769 0.92418,1.16312 0.18089,0.27542 0.71667,1.09541 1.19063,1.8222 0.47396,0.72678 1.04034,1.51256 1.25862,1.74617 1.19554,1.27949 2.57464,3.39237 2.7901,4.27459 0.0977,0.40018 0.29003,0.7276 0.42735,0.7276 0.13731,0 0.37418,0.35719 0.52636,0.79375 0.15219,0.43656 0.36367,0.79375 0.46997,0.79375 0.25711,0 0.81331,2.45233 0.81331,3.58596 0,0.68642 -0.16995,1.01099 -0.71677,1.36888 -1.01809,0.66634 -3.08323,0.58534 -4.5749,-0.17943 -1.37792,-0.70646 -4.11715,-2.80103 -5.7003,-4.35879 -0.60261,-0.59294 -1.38226,-1.33152 -1.73257,-1.64129 -0.76354,-0.67517 -2.26836,-2.41047 -3.5842,-4.13314 -0.52799,-0.69123 -1.0502,-1.25677 -1.16048,-1.25677 -0.11028,0 -0.26801,-0.26789 -0.35052,-0.59532 -0.0825,-0.32742 -0.33529,-0.83343 -0.56173,-1.12448 -0.22644,-0.29104 -1.0613,-1.54119 -1.85524,-2.77812 -0.79394,-1.23693 -1.53634,-2.36802 -1.64977,-2.51354 -0.69179,-0.88751 -1.67117,-2.48606 -1.90469,-3.10886 -0.15005,-0.40018 -0.39483,-0.7276 -0.54395,-0.7276 -0.14913,0 -0.27114,-0.17009 -0.27114,-0.37798 0,-0.20789 -0.14882,-0.53749 -0.33072,-0.73245 -0.18191,-0.19496 -0.55989,-0.76901 -0.83997,-1.27567 -0.28009,-0.50665 -0.57774,-0.98072 -0.66146,-1.05348 -0.24422,-0.21225 -1.03953,-1.63663 -1.51427,-2.71198 -0.2409,-0.54571 -0.53901,-0.99219 -0.66246,-0.99219 -0.12345,0 -0.22445,-0.1786 -0.22445,-0.39688 0,-0.21828 -0.22434,-0.62121 -0.49854,-0.89541 -0.2742,-0.2742 -0.64064,-0.9291 -0.81431,-1.45533 -0.32161,-0.9745 -1.2193,-1.48614 -1.88528,-1.07454 -0.37842,0.23387 -0.12306,8.23247 0.30916,9.68371 0.14501,0.48693 0.38227,1.8929 0.52722,3.12438 0.14496,1.23148 0.35606,2.30304 0.46912,2.38125 0.11305,0.0782 0.35824,0.85657 0.54486,1.72969 0.18663,0.87313 0.49163,1.82823 0.6778,2.12245 0.18616,0.29422 0.42653,1.06812 0.53414,1.71979 0.10761,0.65167 0.32003,1.33872 0.47203,1.52679 0.19394,0.23995 0.18501,0.43331 -0.0299,0.64823 -0.16846,0.16846 -0.30629,0.56191 -0.30629,0.87434 0,0.31243 -0.25034,0.85417 -0.55632,1.20386 -0.30598,0.34969 -0.69294,0.81439 -0.8599,1.03267 -0.31764,0.41527 -1.12868,0.8672 -2.34934,1.3091 -0.39758,0.14393 -1.96049,0.27799 -3.47315,0.29792 -3.36514,0.0443 -4.36874,-0.32888 -5.07077,-1.8857 -0.25899,-0.57433 -0.56022,-1.04424 -0.6694,-1.04424 -0.10919,0 -0.32304,-0.35718 -0.47522,-0.79375 -0.15219,-0.43656 -0.38906,-0.79375 -0.52637,-0.79375 -0.13732,0 -0.32962,-0.32742 -0.42735,-0.7276 -0.15729,-0.64406 -1.32745,-2.62321 -1.75988,-2.97656 -0.089,-0.0728 -0.32708,-0.59378 -0.52896,-1.15781 -0.20189,-0.56403 -0.51633,-1.08278 -0.69875,-1.15278 -0.18242,-0.07 -0.33167,-0.28463 -0.33167,-0.47695 0,-0.19232 -0.16316,-0.51282 -0.36257,-0.71223 -0.19941,-0.19941 -0.55965,-0.7437 -0.80054,-1.20953 -0.24089,-0.46582 -0.55172,-0.84695 -0.69073,-0.84695 -0.13901,0 -0.32745,-0.29766 -0.41876,-0.66146 -0.0913,-0.36381 -0.27058,-0.66146 -0.39837,-0.66146 -0.12779,0 -0.40937,-0.42368 -0.62573,-0.94151 -0.21637,-0.51782 -0.63665,-1.26197 -0.93396,-1.65364 -0.29732,-0.39168 -0.74697,-0.9876 -0.99923,-1.32426 -0.25226,-0.33667 -0.66701,-0.84268 -0.92168,-1.12448 -0.25466,-0.2818 -0.46302,-0.62292 -0.46302,-0.75805 0,-0.13512 -0.16315,-0.40884 -0.36256,-0.60825 -0.19941,-0.19941 -0.57321,-0.77346 -0.83067,-1.27567 -0.25746,-0.5022 -0.54518,-0.97263 -0.63939,-1.04539 -0.0942,-0.0728 -0.55072,-0.72761 -1.01446,-1.45521 -0.46374,-0.7276 -0.93783,-1.44198 -1.05352,-1.5875 -0.11569,-0.14552 -0.58622,-0.8599 -1.04562,-1.5875 -0.4594,-0.7276 -0.99295,-1.50552 -1.18567,-1.7287 -0.19272,-0.22317 -0.70213,-0.93755 -1.13203,-1.5875 -0.96507,-1.45907 -2.02107,-2.4536 -2.30441,-2.17026 -0.23688,0.23688 -0.74448,6.60756 -0.74809,9.38906 -0.001,0.98227 -0.10811,1.78594 -0.2374,1.78594 -0.12929,0 -0.32116,1.54781 -0.42639,3.43959 -0.10522,1.89177 -0.28853,3.43958 -0.40734,3.43958 -0.11882,0 -0.29098,0.68461 -0.38258,1.52135 -0.32649,2.98237 -0.74409,5.49444 -0.95955,5.77212 -0.12035,0.1551 -0.29851,0.98854 -0.39589,1.85208 -0.0974,0.86354 -0.32194,1.86773 -0.49899,2.23153 -0.17705,0.3638 -0.47055,1.60727 -0.65222,2.76327 -0.18167,1.15599 -0.48362,2.34662 -0.671,2.64583 -0.18738,0.29921 -0.42001,1.1068 -0.51695,1.79463 -0.0969,0.68783 -0.27536,1.31185 -0.39648,1.38671 -0.12112,0.0749 -0.42472,0.9706 -0.67467,1.99054 -0.24995,1.01994 -0.54744,1.85444 -0.66109,1.85444 -0.11365,0 -0.27982,0.38695 -0.36927,0.8599 -0.24851,1.31392 -1.63507,3.98312 -2.59049,4.98683 -0.24489,0.25727 -0.60208,0.75647 -0.79375,1.10933 -0.34039,0.62666 -1.6037,2.23957 -2.79587,3.56957 -0.32742,0.36528 -0.59532,0.75137 -0.59532,0.85799 0,0.10662 -0.38695,0.35059 -0.85989,0.54215 -0.47294,0.19157 -1.75778,1.03945 -2.8552,1.88419 -1.09741,0.84473 -2.12463,1.53587 -2.28271,1.53587 -0.15807,0 -0.42927,0.17094 -0.60266,0.37987 -0.1734,0.20893 -0.69399,0.46031 -1.15688,0.55861 -0.46289,0.0983 -1.02021,0.326 -1.23849,0.50596 -0.61875,0.51014 -1.10608,0.59374 -2.24899,0.38579 z"
         style="fill:#000000;stroke-width:0.26458335" />
    </g>
  </g>
</svg>
