<?xml version="1.0" encoding="UTF-8"?>
<svg width="400" height="400" version="1.1" viewBox="0 0 105.83 105.83" xmlns="http://www.w3.org/2000/svg" xmlns:cc="http://creativecommons.org/ns#" xmlns:dc="http://purl.org/dc/elements/1.1/" xmlns:rdf="http://www.w3.org/1999/02/22-rdf-syntax-ns#">
<metadata>
<rdf:RDF>
<cc:Work rdf:about="">
<dc:format>image/svg+xml</dc:format>
<dc:type rdf:resource="http://purl.org/dc/dcmitype/StillImage"/>
<dc:title/>
</cc:Work>
</rdf:RDF>
</metadata>
<g transform="translate(217.71 -101.21)">
<g transform="matrix(.80925 0 0 .80925 -39.082 37.046)">
<circle cx="-155.35" cy="144.68" r="65.39" fill="#f0ff00" stroke-width=".26458"/>
<path d="m-193.47 192.58c-2.3908-0.43499-5.8355-1.836-6.2992-2.5619-0.11762-0.18413-0.47416-0.5773-0.79231-0.8737-0.51227-0.47725-0.56968-0.7675-0.50175-2.5367 0.0718-1.8705 0.12936-2.042 0.9032-2.6932 1.2416-1.0447 2.8219-2.1606 3.0598-2.1606 0.1159 0 0.62295-0.35235 1.1268-0.783 0.50382-0.43065 1.0756-0.78783 1.2706-0.79375 0.19503-6e-3 1.3261-1.0186 2.5136-2.2505 2.9207-3.03 3.3639-3.5864 3.5341-4.4378 0.0804-0.40196 0.23591-0.73083 0.34558-0.73083 0.10968 0 0.34736-0.35719 0.52819-0.79375 0.18083-0.43657 0.41456-0.79375 0.51939-0.79375 0.23167 0 0.80353-1.8376 0.80353-2.5821 0-0.29497 0.15604-0.59619 0.34674-0.66937 0.19071-0.0732 0.50067-0.65146 0.68879-1.2851 0.18812-0.63361 0.43328-1.2711 0.5448-1.4166 0.11151-0.14552 0.28874-0.74083 0.39382-1.3229 0.10509-0.58208 0.3502-1.356 0.54469-1.7198s0.49076-1.4236 0.65838-2.3552c0.16763-0.93157 0.46525-1.8542 0.66139-2.0504 0.19613-0.19613 0.43863-1.0131 0.53888-1.8155 0.10025-0.80238 0.28742-1.5238 0.41593-1.6033 0.12852-0.0794 0.23357-0.4648 0.23346-0.8564-2.9e-4 -0.997 0.84113-5.1818 1.0741-5.3422 0.10572-0.0728 0.27868-1.2039 0.38436-2.5136 0.10568-1.3097 0.28605-2.5003 0.40082-2.6458 0.27037-0.34283 0.73095-5.0885 0.95009-9.7896 0.095-2.0373 0.28617-3.8481 0.42488-4.024 0.37812-0.4795 0.35809-13.259-0.0214-13.639-0.16625-0.16624-0.30433-0.6654-0.30686-1.1092-7e-3 -1.2168-0.75346-4.4992-1.0454-4.5966-0.14091-0.047-0.33274-0.49346-0.42631-0.99219-0.0936-0.49873-0.25418-0.90678-0.35693-0.90678s-0.40167-0.68461-0.66426-1.5214c-0.26259-0.83674-0.57255-1.5821-0.6888-1.6563-0.11625-0.0742-0.2862-0.43315-0.37768-0.79763-0.12724-0.50697 0.0232-0.87501 0.64048-1.5664 0.44374-0.49702 0.80681-0.97937 0.80681-1.0719 0-0.37773 2.0897-1.2972 3.632-1.5982 1.5918-0.31058 1.7342-0.2912 4.2013 0.57167 2.2422 0.78423 2.6038 0.99801 2.9654 1.753 0.22648 0.47294 0.50879 0.8599 0.62736 0.8599s0.21558 0.16037 0.21558 0.35638c0 0.19602 0.23293 0.62496 0.51761 0.95321 0.28469 0.32824 0.65111 1.0013 0.81427 1.4957 0.16316 0.49438 0.39703 0.89888 0.5197 0.89888s0.29969 0.34896 0.39336 0.77547c0.0937 0.4265 0.34127 0.91733 0.5502 1.0907 0.20892 0.17339 0.37986 0.41943 0.37986 0.54674 0 0.31536 1.6304 3.7718 1.8571 3.9371 0.0998 0.0728 0.38724 0.75737 0.63867 1.5214 0.25144 0.76399 0.5534 1.3891 0.67103 1.3891s0.29205 0.41672 0.3876 0.92604c0.0956 0.50932 0.26806 0.92604 0.38335 0.92604s0.43221 0.65484 0.70426 1.4552c0.27205 0.80036 0.57959 1.4552 0.68341 1.4552s0.27338 0.38525 0.3768 0.85611 0.33787 0.97688 0.521 1.1245c0.18312 0.1476 0.48021 0.74462 0.66019 1.3267 0.17997 0.58208 0.47668 1.2369 0.65935 1.4552 0.18268 0.21828 0.41377 0.66476 0.51355 0.99218 0.0998 0.32743 0.27801 0.59532 0.39607 0.59532s0.37136 0.37832 0.56289 0.84071c0.19153 0.4624 0.66565 1.147 1.0536 1.5214s0.91596 1.0915 1.1734 1.5937 0.63119 1.0763 0.83059 1.2757c0.19941 0.19941 0.36257 0.53265 0.36257 0.74054s0.11664 0.37798 0.25921 0.37798c0.14256 0 0.49496 0.44648 0.78311 0.99219 0.72138 1.3662 2.1967 2.9766 2.7268 2.9766 0.38758 0 0.44812-0.50278 0.51769-4.2995 0.12054-6.5789-0.29931-22.807-0.5927-22.909-0.14001-0.0485-0.25457-0.93748-0.25457-1.9755 0-3.2723-0.57863-9.2803-0.96729-10.043-0.23757-0.46652-0.39275-1.7634-0.42985-3.5923l-0.0581-2.8622 0.79375-0.70255c0.43656-0.3864 1.2768-0.94227 1.8673-1.2353 0.97752-0.48504 1.2734-0.50797 3.3073-0.25629 2.9446 0.3644 4.8863 0.88203 5.4664 1.4573 0.25929 0.25712 0.75097 1.0136 1.0926 1.681 0.52173 1.0192 0.65389 1.8065 0.82549 4.9176 0.11237 2.0373 0.33137 4.0018 0.48667 4.3656 0.15529 0.36381 0.42021 1.8438 0.58869 3.2888 0.16849 1.445 0.46482 2.8738 0.65852 3.175s0.43769 1.0239 0.54221 1.606c0.10451 0.58208 0.26215 1.1179 0.3503 1.1906 0.0881 0.0728 0.37184 0.96068 0.63041 1.9732 0.25858 1.0125 0.56883 1.9054 0.68944 1.9844 0.12062 0.0789 0.30461 0.6071 0.40888 1.1737 0.10426 0.56661 0.33723 1.1779 0.5177 1.3583 0.18046 0.18046 0.48853 0.99679 0.68459 1.8141s0.44706 1.4859 0.55778 1.4859c0.11071 0 0.28354 0.38695 0.38406 0.8599 0.10052 0.47294 0.33916 1.0385 0.53032 1.2568 0.19115 0.21828 0.48879 0.95882 0.66141 1.6456 0.17261 0.68683 0.47921 1.386 0.68133 1.5538 0.20211 0.16774 0.36747 0.52003 0.36747 0.78286s0.15741 0.63527 0.3498 0.82766 0.56575 0.91527 0.82969 1.6064c0.26395 0.69113 0.58279 1.2566 0.70854 1.2566 0.12576 0 0.22864 0.22207 0.22864 0.49349s0.22081 0.77743 0.49069 1.1245c0.26988 0.34704 0.64432 1.1072 0.83209 1.6893 0.18777 0.58208 0.41587 1.1179 0.50689 1.1906 0.091 0.0728 0.31102 0.42995 0.4889 0.79375s0.4321 0.84005 0.56494 1.0583c0.13283 0.21829 0.69924 1.348 1.2587 2.5105 0.55945 1.1625 1.166 2.2724 1.3479 2.4663 0.1819 0.19394 0.33073 0.50814 0.33073 0.69821s0.1725 0.48874 0.38334 0.66372c0.21083 0.17498 0.52533 0.75511 0.69888 1.2892 0.17354 0.53406 0.47729 1.0662 0.67499 1.1826s0.35945 0.37576 0.35945 0.57641c0 0.20066 0.14912 0.52216 0.33137 0.71446 0.18225 0.19229 0.56651 0.79611 0.85392 1.3418 0.2874 0.54571 0.60507 0.99219 0.70594 0.99219s0.26185 0.35719 0.35773 0.79375c0.0959 0.43656 0.27101 0.79375 0.38917 0.79375s0.41716 0.50567 0.66445 1.1237 0.52844 1.1836 0.62479 1.2568c0.3391 0.2576 1.6289 2.2815 1.6289 2.556 0 0.15283 0.26789 0.57592 0.59532 0.94021 0.32742 0.36429 0.7433 0.88769 0.92418 1.1631 0.18089 0.27542 0.71667 1.0954 1.1906 1.8222 0.47396 0.72678 1.0403 1.5126 1.2586 1.7462 1.1955 1.2795 2.5746 3.3924 2.7901 4.2746 0.0977 0.40018 0.29003 0.7276 0.42735 0.7276 0.13731 0 0.37418 0.35719 0.52636 0.79375 0.15219 0.43656 0.36367 0.79375 0.46997 0.79375 0.25711 0 0.81331 2.4523 0.81331 3.586 0 0.68642-0.16995 1.011-0.71677 1.3689-1.0181 0.66634-3.0832 0.58534-4.5749-0.17943-1.3779-0.70646-4.1172-2.801-5.7003-4.3588-0.60261-0.59294-1.3823-1.3315-1.7326-1.6413-0.76354-0.67517-2.2684-2.4105-3.5842-4.1331-0.52799-0.69123-1.0502-1.2568-1.1605-1.2568s-0.26801-0.26789-0.35052-0.59532c-0.0825-0.32742-0.33529-0.83343-0.56173-1.1245-0.22644-0.29104-1.0613-1.5412-1.8552-2.7781s-1.5363-2.368-1.6498-2.5135c-0.69179-0.88751-1.6712-2.4861-1.9047-3.1089-0.15005-0.40018-0.39483-0.7276-0.54395-0.7276-0.14913 0-0.27114-0.17009-0.27114-0.37798s-0.14882-0.53749-0.33072-0.73245c-0.18191-0.19496-0.55989-0.76901-0.83997-1.2757-0.28009-0.50665-0.57774-0.98072-0.66146-1.0535-0.24422-0.21225-1.0395-1.6366-1.5143-2.712-0.2409-0.54571-0.53901-0.99219-0.66246-0.99219s-0.22445-0.1786-0.22445-0.39688-0.22434-0.62121-0.49854-0.89541-0.64064-0.9291-0.81431-1.4553c-0.32161-0.9745-1.2193-1.4861-1.8853-1.0745-0.37842 0.23387-0.12306 8.2325 0.30916 9.6837 0.14501 0.48693 0.38227 1.8929 0.52722 3.1244 0.14496 1.2315 0.35606 2.303 0.46912 2.3812 0.11305 0.0782 0.35824 0.85657 0.54486 1.7297 0.18663 0.87313 0.49163 1.8282 0.6778 2.1224 0.18616 0.29422 0.42653 1.0681 0.53414 1.7198s0.32003 1.3387 0.47203 1.5268c0.19394 0.23995 0.18501 0.43331-0.0299 0.64823-0.16846 0.16846-0.30629 0.56191-0.30629 0.87434s-0.25034 0.85417-0.55632 1.2039-0.69294 0.81439-0.8599 1.0327c-0.31764 0.41527-1.1287 0.8672-2.3493 1.3091-0.39758 0.14393-1.9605 0.27799-3.4732 0.29792-3.3651 0.0443-4.3687-0.32888-5.0708-1.8857-0.25899-0.57433-0.56022-1.0442-0.6694-1.0442-0.10919 0-0.32304-0.35718-0.47522-0.79375-0.15219-0.43656-0.38906-0.79375-0.52637-0.79375-0.13732 0-0.32962-0.32742-0.42735-0.7276-0.15729-0.64406-1.3274-2.6232-1.7599-2.9766-0.089-0.0728-0.32708-0.59378-0.52896-1.1578-0.20189-0.56403-0.51633-1.0828-0.69875-1.1528s-0.33167-0.28463-0.33167-0.47695-0.16316-0.51282-0.36257-0.71223-0.55965-0.7437-0.80054-1.2095c-0.24089-0.46582-0.55172-0.84695-0.69073-0.84695s-0.32745-0.29766-0.41876-0.66146c-0.0913-0.36381-0.27058-0.66146-0.39837-0.66146s-0.40937-0.42368-0.62573-0.94151c-0.21637-0.51782-0.63665-1.262-0.93396-1.6536-0.29732-0.39168-0.74697-0.9876-0.99923-1.3243-0.25226-0.33667-0.66701-0.84268-0.92168-1.1245-0.25466-0.2818-0.46302-0.62292-0.46302-0.75805 0-0.13512-0.16315-0.40884-0.36256-0.60825s-0.57321-0.77346-0.83067-1.2757c-0.25746-0.5022-0.54518-0.97263-0.63939-1.0454-0.0942-0.0728-0.55072-0.72761-1.0145-1.4552s-0.93783-1.442-1.0535-1.5875-0.58622-0.8599-1.0456-1.5875-0.99295-1.5055-1.1857-1.7287c-0.19272-0.22317-0.70213-0.93755-1.132-1.5875-0.96507-1.4591-2.0211-2.4536-2.3044-2.1703-0.23688 0.23688-0.74448 6.6076-0.74809 9.3891-1e-3 0.98227-0.10811 1.7859-0.2374 1.7859s-0.32116 1.5478-0.42639 3.4396c-0.10522 1.8918-0.28853 3.4396-0.40734 3.4396-0.11882 0-0.29098 0.68461-0.38258 1.5214-0.32649 2.9824-0.74409 5.4944-0.95955 5.7721-0.12035 0.1551-0.29851 0.98854-0.39589 1.8521-0.0974 0.86354-0.32194 1.8677-0.49899 2.2315s-0.47055 1.6073-0.65222 2.7633c-0.18167 1.156-0.48362 2.3466-0.671 2.6458s-0.42001 1.1068-0.51695 1.7946c-0.0969 0.68783-0.27536 1.3118-0.39648 1.3867-0.12112 0.0749-0.42472 0.9706-0.67467 1.9905s-0.54744 1.8544-0.66109 1.8544-0.27982 0.38695-0.36927 0.8599c-0.24851 1.3139-1.6351 3.9831-2.5905 4.9868-0.24489 0.25727-0.60208 0.75647-0.79375 1.1093-0.34039 0.62666-1.6037 2.2396-2.7959 3.5696-0.32742 0.36528-0.59532 0.75137-0.59532 0.85799s-0.38695 0.35059-0.85989 0.54215c-0.47294 0.19157-1.7578 1.0394-2.8552 1.8842-1.0974 0.84473-2.1246 1.5359-2.2827 1.5359-0.15807 0-0.42927 0.17094-0.60266 0.37987-0.1734 0.20893-0.69399 0.46031-1.1569 0.55861s-1.0202 0.326-1.2385 0.50596c-0.61875 0.51014-1.1061 0.59374-2.249 0.38579z" stroke-width=".26458"/>
</g>
</g>
</svg>
