<svg width="115" height="114" viewBox="0 0 115 114" fill="none" xmlns="http://www.w3.org/2000/svg">
<path d="M56.4946 113.05C87.6957 113.05 112.989 87.7567 112.989 56.5556C112.989 25.3545 87.6957 0.0610352 56.4946 0.0610352C25.2935 0.0610352 0 25.3545 0 56.5556C0 87.7567 25.2935 113.05 56.4946 113.05Z" fill="#0C3E50"/>
<path d="M15.6143 30.1274L21.1819 90.4398L93.5613 89.6444L103.265 39.3084L15.6143 30.1274Z" fill="#FDFEFE"/>
<path d="M1.18164 44.9194C2.43152 44.3058 3.84048 39.7608 4.24953 38.5791C9.18735 25.0746 19.0433 13.9332 31.8447 7.38506C44.646 0.836904 59.4482 -0.634894 73.2883 3.26426C101.399 11.059 119.216 39.8062 113.33 67.8262C110.537 81.9341 102.436 94.4319 90.6975 102.741C78.9591 111.05 64.4791 114.536 50.2451 112.481C27.6564 109.254 12.5896 96.5735 4.3177 75.6664C3.54505 73.712 3.7723 71.1214 1.18164 70.2351V44.9194ZM75.1291 44.9194C72.2657 35.1703 64.9255 30.7616 55.131 32.8523C44.8138 34.2158 39.6779 44.374 41.9732 54.0321C44.0639 62.7813 54.0402 68.258 63.0848 65.9401C65.3091 65.4341 67.4042 64.4718 69.2372 63.114C71.0703 61.7562 72.6014 60.0326 73.7337 58.0523C74.8659 56.0719 75.5746 53.878 75.8148 51.6096C76.055 49.3411 75.8215 47.0474 75.1291 44.8739V44.9194ZM21.5206 42.8968C19.3993 50.8229 20.0766 59.238 23.4381 66.7228C26.7997 74.2076 32.6398 80.304 39.9734 83.9838C47.8036 88.0024 56.7518 89.2906 65.3976 87.6438C74.0434 85.9969 81.8914 81.5095 87.6961 74.8937C96.0134 65.0083 98.6723 49.2144 93.0592 42.1469C89.1166 41.7109 85.1329 41.8179 81.2194 42.465L82.4011 50.1688C83.9919 51.3506 85.9008 50.1688 86.9461 51.8732C87.0243 57.7481 85.1726 63.4863 81.675 68.2072C78.1774 72.9281 73.2273 76.3708 67.5844 78.0071C61.8448 79.9244 55.6591 80.0583 49.8419 78.3911C44.0248 76.7238 38.8491 73.3336 34.9966 68.6671C30.9724 63.8812 29.011 57.6944 29.5426 51.4642L34.0876 50.2598L34.6557 42.0105C30.1789 42.1469 25.9747 41.2152 21.5206 42.8968Z" fill="#0C3E50"/>
<path d="M75.13 44.8753C75.826 47.0503 76.0624 49.3462 75.824 51.6173C75.5856 53.8884 74.8776 56.0852 73.7451 58.0682C72.6126 60.0512 71.0802 61.7771 69.2452 63.1364C67.4102 64.4957 65.3126 65.4587 63.0857 65.9642C53.9956 68.2367 44.0648 62.8054 41.9741 54.0563C39.7016 44.3981 44.8147 34.24 55.1319 32.8765C56.4499 35.8989 60.745 37.4215 59.6769 41.5575C58.2076 41.6367 56.7555 41.9118 55.3591 42.3756C53.7388 43.0164 52.4025 44.2178 51.5933 45.761C50.7842 47.3042 50.5561 49.0866 50.9505 50.7838C51.2047 52.388 51.9902 53.8603 53.1811 54.9646C54.372 56.069 55.8993 56.7414 57.518 56.8742C59.2293 57.2641 61.024 57.0179 62.5671 56.1816C64.1102 55.3452 65.2962 53.9758 65.9036 52.3291C66.329 50.9308 66.6032 49.4909 66.7217 48.0341C67.8579 49.2613 67.1307 51.4883 69.1078 52.2382C75.1527 53.1018 74.8345 48.7386 75.13 44.8753Z" fill="#F8AE1C"/>
<path d="M75.1313 44.8747C74.8358 48.738 75.1313 53.1012 69.0182 52.1694C67.0411 51.4195 67.7683 49.1925 66.6321 47.9653C66.1679 46.3804 65.2927 44.9465 64.0954 43.809C62.8981 42.6715 61.4212 41.871 59.8145 41.4887C60.769 37.2845 56.474 35.8301 55.2695 32.8077C64.9277 30.717 72.2679 35.1256 75.1313 44.8747Z" fill="#F7CB13"/>
<path d="M59.7901 41.4873C61.3967 41.8697 62.8736 42.6702 64.0709 43.8077C65.2683 44.9451 66.1434 46.379 66.6076 47.964C66.5311 49.4395 66.2949 50.9025 65.9031 52.3272C65.2976 53.9551 64.1259 55.3105 62.6026 56.1451C61.0794 56.9798 59.3065 57.2379 57.6085 56.8722C55.9968 56.711 54.4856 56.0147 53.3158 54.8943C52.146 53.774 51.3852 52.2942 51.1546 50.691C50.7602 48.9937 50.9883 47.2113 51.7974 45.6681C52.6066 44.1249 53.9429 42.9236 55.5632 42.2827C56.9315 41.8345 58.3525 41.5671 59.7901 41.4873Z" fill="#13404F"/>
</svg>
