<svg id="Layer_1" data-name="Layer 1" xmlns="http://www.w3.org/2000/svg" viewBox="0 0 400 400"><defs><style>.cls-1{fill:#0075f1;}.cls-2{fill:#fff;}</style></defs><path class="cls-1" d="M200.1,399.9C91.2,400.9-.7,311.6,0,199.2.7,89.1,88.3.4,199.4.1S399.8,89.3,400,200,309,400.7,200.1,399.9Z"/><path d="M127.5,211.1l-5.3-4.9c-7.3-7.3-14.5-14.7-21.9-22-5.6-5.6-13.8-5.8-19-.8s-6,13.2-.1,19.2q25,25.5,50.4,50.7c5.8,5.7,12.7,5.8,19.1.7a45.7,45.7,0,0,0,4.5-4.3l67.9-68.3c2.2-2.3,4.7-4.4,8-7.6v6.9q0,31.1.1,62.1c0,8.9,5.6,14.8,13.3,14.7s12.9-6.4,13.2-14.6c.1-1.7.1-3.4.1-5.1,0-19-.1-38,0-57,0-2,.2-3.9.3-7.2l5,4.7c7.8,7.8,15.5,15.8,23.5,23.4s19.1,4,22.1-6.2c1.8-6.2-1.4-10.7-5.4-14.7l-46.5-46.5c-8.3-8.4-15.7-8.6-24-.2L164.1,203l-8.7,8.5-1.3-.6v-6c.1-21.2.1-42.5,0-63.7,0-9.5-5.7-15.3-14-14.9s-12.4,6.2-12.5,15c-.2,14-.1,28-.1,42Z"/><path class="cls-2" d="M127.5,211.1V183.3c0-14-.1-28,.1-42,.1-8.8,5.1-14.6,12.5-15s14,5.4,14,14.9c.1,21.2.1,42.5,0,63.7v6l1.3.6,8.7-8.5,68.7-68.9c8.3-8.4,15.7-8.2,24,.2l46.5,46.5c4,4,7.2,8.5,5.4,14.7-3,10.2-14.5,13.5-22.1,6.2s-15.7-15.6-23.5-23.4l-5-4.7c-.1,3.3-.3,5.2-.3,7.2-.1,19,0,38,0,57,0,1.7,0,3.4-.1,5.1-.3,8.2-6,14.5-13.2,14.6s-13.3-5.8-13.3-14.7q-.1-31.1-.1-62.1v-6.9c-3.3,3.2-5.8,5.3-8,7.6l-67.9,68.3a45.7,45.7,0,0,1-4.5,4.3c-6.4,5.1-13.3,5-19.1-.7q-25.3-25.2-50.4-50.7c-5.9-6-5.8-13.6.1-19.2s13.4-4.8,19,.8c7.4,7.3,14.6,14.7,21.9,22Z"/></svg>