<svg xmlns="http://www.w3.org/2000/svg" fill="none" viewBox="0.03 0.8 40.02 40.02" width="128" height="128">
 <defs>
  <linearGradient y2="1.57826" x2="-0.63959" y1="0.04397" x1="0.99465" id="paint0_linear_2334_238532">
   <stop stop-color="#EC796B"/>
   <stop stop-color="#D672EF" offset="1"/>
  </linearGradient>
 </defs>
 <g>
  <title>Layer 1</title>
  <path id="svg_1" fill="#0C0C4F" d="m0.04141,20.813c0,11.0458 8.95419,20 19.99999,20c11.0458,0 20.0006,-8.9542 20.0006,-20c0,-11.04582 -8.9548,-20.00001 -20.0006,-20.00001c-11.0458,0 -19.99999,8.95419 -19.99999,20.00001z" clip-rule="evenodd" fill-rule="evenodd"/>
  <path id="svg_2" fill="#FAFAFA" d="m11.2193,16.1014l0.4937,-1.5253c0.1003,-0.3102 0.3452,-0.5516 0.6565,-0.6468l1.5328,-0.4714c0.2122,-0.0648 0.2139,-0.3641 0.0034,-0.4323l-1.5258,-0.4937c-0.3097,-0.1004 -0.5511,-0.3452 -0.6468,-0.6566l-0.4708,-1.5328c-0.0648,-0.2116 -0.3641,-0.2139 -0.4324,-0.0028l-0.4937,1.5253c-0.1003,0.3096 -0.3452,0.551 -0.65656,0.6468l-1.53276,0.4708c-0.21216,0.0653 -0.21445,0.3641 -0.00344,0.4323l1.52587,0.4937c0.30965,0.1004 0.55109,0.3458 0.64679,0.6572l0.4708,1.5321c0.0648,0.2122 0.3641,0.2145 0.4324,0.0035z" clip-rule="evenodd" fill-rule="evenodd"/>
  <path id="svg_3" fill="url(#paint0_linear_2334_238532)" d="m35.4461,15.2138c-0.6319,-0.7066 -1.6181,-1.1045 -2.5768,-1.2676c-0.9665,-0.1567 -1.9797,-0.1422 -2.9338,0.0273c-1.9304,0.3266 -3.6841,1.1259 -5.2136,2.1119c-0.7944,0.484 -1.4717,1.0439 -2.1735,1.6142c-0.3381,0.2884 -0.6464,0.5956 -0.9675,0.8983l-0.8773,0.8729c-0.9532,0.9964 -1.8928,1.9039 -2.8019,2.6562c-0.9127,0.7488 -1.7661,1.3174 -2.607,1.7146c-0.8405,0.3992 -1.7398,0.6339 -2.9119,0.6715c-1.1618,0.041 -2.53645,-0.1687 -4.0068,-0.5148c-1.47826,-0.3446 -3.03057,-0.8358 -4.76525,-1.2584c0.60527,1.6792 1.51674,3.1631 2.68695,4.5195c1.18394,1.3329 2.66232,2.5478 4.5615,3.3468c1.8717,0.8167 4.2239,1.1098 6.4233,0.6675c2.2052,-0.4244 4.1404,-1.4449 5.7046,-2.625c1.5682,-1.1922 2.837,-2.5503 3.9066,-3.9621c0.2953,-0.3901 0.4515,-0.6084 0.6652,-0.9133l0.5905,-0.8748c0.4105,-0.5412 0.7841,-1.1573 1.1903,-1.6934c0.7965,-1.1229 1.5817,-2.2444 2.4942,-3.2777c0.4593,-0.5241 0.9434,-1.0254 1.5151,-1.5071c0.2852,-0.2352 0.5933,-0.4653 0.9345,-0.6726c0.3464,-0.2236 0.7122,-0.3986 1.1626,-0.5339z" clip-rule="evenodd" fill-rule="evenodd"/>
  <path id="svg_4" fill="#FAFAFA" d="m35.4462,15.2134c-0.6789,-1.713 -1.9408,-3.1549 -3.6347,-4.2189c-1.6836,-1.05227 -4.022,-1.5893 -6.3391,-1.13151c-1.1447,0.22141 -2.2537,0.64761 -3.227,1.21521c-0.9688,0.5654 -1.837,1.2459 -2.5885,1.9761c-0.3752,0.3662 -0.7158,0.7483 -1.0541,1.1326l-0.877,1.118l-1.3544,1.7997c-1.7267,2.3156 -3.5861,5.0293 -6.63744,5.8334c-2.99558,0.7894 -4.29482,0.0903 -6.1231,-0.1985c0.33429,0.8631 0.74839,1.7012 1.30977,2.4386c0.55092,0.7523 1.20164,1.4589 2.01067,2.0645c0.40885,0.2909 0.8405,0.578 1.31991,0.8215c0.47722,0.2353 0.99188,0.4423 1.5412,0.5982c1.09269,0.2995 2.32279,0.4044 3.51389,0.2433c1.1917,-0.159 2.3307,-0.5366 3.3263,-1.0382c1.0029,-0.4968 1.8766,-1.1018 2.6567,-1.7404c1.5508,-1.2878 2.7571,-2.7108 3.776,-4.1492c0.5125,-0.7191 0.9777,-1.4519 1.408,-2.1848l0.5064,-0.8725c0.1548,-0.2551 0.3114,-0.5117 0.4705,-0.7507c0.6416,-0.9603 1.2692,-1.7303 2.0315,-2.3082c0.7518,-0.5929 1.7985,-1.0309 3.1973,-1.1327c1.393,-0.1029 3.0011,0.0873 4.7672,0.4845z" clip-rule="evenodd" fill-rule="evenodd"/>
  <path id="svg_5" fill="#EC796B" d="m27.91,29.4455c0,1.2581 1.0204,2.2785 2.2785,2.2785c1.2581,0 2.2773,-1.0204 2.2773,-2.2785c0,-1.2581 -1.0192,-2.2785 -2.2773,-2.2785c-1.2581,0 -2.2785,1.0204 -2.2785,2.2785z" clip-rule="evenodd" fill-rule="evenodd"/>
 </g>
</svg>
