<svg xmlns="http://www.w3.org/2000/svg" viewBox="0 0 612 792" xmlns:v="https://vecta.io/nano"><path fill="#ef959d" d="M171.6 327.1c-11.1-16-15-34.5-17.5-53.4-1.2-9-1.3-18.2-2.1-27.3-.5-5.9 2.1-6.4 6.8-4.8l29.3 9.5c1.6.5 3.2.6 4.8.9-1.1 1.1-1.7 2 .4 2.6 3.7 1.1 7.2 2.4 10.9 3.3 19.2 4.3 38.4 9 54.6 21-1.5.6-3 1.5-4.6 1.9-16.8 4.1-33 9.9-47.2 20.1-1.1-1.1-1.1-3.8-3-3.4-1.4.3-2.8 2.2-3.6 3.7-.7 1.4-.6 3.2-.9 4.8-2.6 2.1-4.9 4.7-7.8 6.1-5.5 2.6-7.4 10.5-14.9 9.8-1.5.3-3.6-.9-4.5.8-.8 1.6 1.4 2.3 2.1 3.5.5.8.8 1.7 1.2 2.6-1.1-.5-2.6-1.1-4-1.7z"/><path fill="#c9ad9a" d="M207.2 301c14.3-10.2 30.4-16 47.2-20.1 1.6-.4 3-1.3 4.6-1.9 1.3 0 1.9-.7 2-2 5.7 1.5 11-1.3 16.4-2 10.8-1.5 21.6-1 32.4-1.2 1.8 0 3.7.6 5.3-.8 2.9 2 5.4.3 7.9-1 2.8 2.4 6.2 3.4 9.7 2.9 7.3-.9 14.2.9 21.1 2.4 17.9 3.8 34.8 10.8 51.3 18.7.6 1.1 1.2.2 1.8 0 .2 2.4 2.3 3.2 3.9 4.2 47.8 27.6 70.1 72.7 83.5 123.2 4.8 18 4.9 37-.7 55.2-1.7 5.5-1.6 8.4 5.2 7.5.7-.1 1.5.5 2.3.8-8-.5-16.1 1.6-24.1-.7 2-.2 2.6-1.6 3.3-3.2 8.3-19.3 8.1-39.5 5.2-59.7-2.9-20-11.5-38-20.6-55.8-7.1-14-14.7-27.7-26.5-38.3-32.3-29.2-70.1-45.2-113.9-47-32.5-1.3-63.9 3.2-93.8 16.4-7.1 3.1-15 5.4-19.6 12.6-2.3-3.3-3.7-6.5-3.9-10.2z"/><path fill="#ef959d" d="M405 296c-16.5-7.8-33.4-14.8-51.3-18.7-6.8-1.5-13.8-3.3-21.1-2.4-3.5.5-6.9-.5-9.7-2.9l13.1-12c13.3-14 30.7-20.5 47.9-27.7 5.6-2.4 8-1.3 10.8 3.7 1.7 3.1 2.1 7.5 6.3 9 2.5 4 4 8.4 4.8 13.1-1.2 1.1-.9 2.4-.7 3.7 1.5 11.4 1.4 22.8-.1 34.2z"/><path fill="#c8ad9a" d="M487 496c-1.6 13.2-12.1 14.1-21.9 15.9-37.6 6.9-75.3 13-113.3 16.8-31.2 3.2-62.4 2.5-93.6-.3-25-2.2-49.9-4.7-74.6-9.4-6-1.1-12.1-2.1-17.7-4.8l7-8.2c5.9 1.7 11.7 3.8 17.6 4.9 24.3 4.6 48.8 7 73.4 9.4 34.7 3.4 69.2 2.5 103.7-1.6 29.9-3.6 59.7-8.3 89.3-14 4.3-.8 9.8.2 12.9-4.6 4.2 2.2 7.9 2.7 11.4-1.7 1.2-1.4 3.8-1.6 5.8-2.4z"/><path fill="#d5af81" d="M336 260l-13.1 12c-2.5 1.3-5 3-7.9 1l11-25.5c7.1-16.3-5.4-24.7-18-24.6-10.5.1-21.1-.3-27.1 10.7-3.7 6.8-5.5 13.9-1.7 21.4-.4.8-.9 1.5-1.3 2.3-6.4-2.1-7.2-7.2-5.8-12.5 5.7-22.5 19.6-40.9 47.8-36.1 6 1 12.2 1.3 18.3 2.2 4.9.7 6.9 3.7 7 8.7.2 10-.1 19.9-3.2 29.5-1.9 3.6-5 6.7-6 10.9z"/><path fill="#c9ae9a" d="M171.6 327.1l4.4 1.8c2.4 1.7 4.5 3.6 5.9 6.2-10.4 11.1-17.2 24.2-22.6 38.2-7.3 19-14.5 37.9-15.7 58.8-.8 15.2 1.6 30.1 2 45.1.1 4.1.9 8.2 3.3 11.8l-12 2-1.2-.3-2.6-38.2c-1.2-27 5.9-52.2 15.9-77 6-14.9 12.7-29.3 22.6-42 1.9-2.3 1.1-4.3 0-6.4z"/><path fill="#de838d" d="M261 277c-.1 1.3-.7 2-2 2-16.3-12.1-35.4-16.7-54.6-21-3.7-.8-7.3-2.2-10.9-3.3-2.1-.6-1.5-1.6-.4-2.6 3-6.8 9.2-10.3 14.9-14.2 2.4-1.6 5.2-.1 7.6.9 18.9 8.1 35 19.8 45.4 38.2z"/><path fill="#e86c6e" d="M137 491.1l12-2c8.2-3.8 16.3-.5 24.5-.1 5.1.2 5.4 2.6 3.8 6.5-1.5 3.5-2.9 7.1-4.3 10.6l-7 8.2c-6.8 2.3-9.8-4.8-15.2-6.1 6.1-2.8 5.8-7.1-.2-14.2-2.6-3-5.1-3.9-8-1.5-3.3 2.7-1.3 5.7.6 8.3 1.8 2.5 5.1 3.8 5.8 7.2-4.7 1.7-4.8 6.8-7.2 10.1l-9.1-.9c-4.3-.4-8.2-1.8-11.9-3.9 3.2-6 9.3-1.1 13.6-3.3 1.4-.7 4.2.8 5.1-1.6 1-2.6.3-5-2.1-6.5-5.2-3.5-7.4-6.9-.4-10.8z"/><path fill="#e86b6e" d="M487 496c-2 .8-4.6 1-5.7 2.5-3.4 4.5-7.2 3.9-11.4 1.7-6.7-3.1-7.1-11.5-13-15.7l20 1.7c8 2.3 16.1.2 24.1.7 7.2.6 12.9 4.9 19.4 7.5 2.7 1.1 1.9 2.9-.2 3.8-6.7 2.8-13.1 6.4-20.5 7.4-3.2.4-4.8-.4-6-3.6-1-3-2.3-6.5-6.7-6z"/><path fill="#e86b6f" d="M137 491.1c-7 3.9-4.8 7.3.5 10.7 2.4 1.5 3.2 4 2.1 6.5-1 2.4-3.7.9-5.1 1.6-4.3 2.3-10.3-2.6-13.6 3.3l-13.5-10.1c-1.5-1.1-2.2-2.7.2-3.1 9.9-1.9 18.3-8 28.3-9.3.3.1.7.2 1.1.4z"/><path fill="#db838c" d="M336 260c1-4.2 4-7.3 6-11l22.1-17.6c3.4-2.5 7.5-5.5 10.4 1 1.1 2.5 2.8.9 4.2.4 12.9-4.9 12.9-5 19.6 6.9 1 1.7 1.8 3.6 2.6 5.3-4.2-1.5-4.6-5.9-6.3-9-2.7-5-5.1-6.1-10.8-3.7-17.1 7.2-34.5 13.7-47.8 27.7z"/><path fill="#dd5e5f" d="M149 507.9c-.7-3.4-4-4.7-5.8-7.2-1.9-2.6-3.9-5.5-.6-8.3 2.9-2.4 5.4-1.5 8 1.5 6.1 7.1 6.4 11.4.2 14.2-.6-.1-1.2-.1-1.8-.2z"/><path fill="#cc868e" d="M405 296c1.5-11.4 1.6-22.8.1-34.2-.2-1.3-.4-2.7.7-3.7 3 12.6 1.7 25.3 1 37.9-.6.2-1.2 1-1.8 0z"/><path fill="#d4bca3" d="M278 257.2c.4-.8.9-1.5 1.3-2.3l8.4 3.4c-4.3 1.2-7 .4-9.7-1.1z"/><path fill="#e86b6f" d="M132.7 517.1l9.1.9c-3.3 2.3-6.1.3-9.1-.9z"/><path fill="#fed63a" d="M181.9 335.1c-1.4-2.6-3.5-4.5-5.9-6.2l-1.2-2.6c-.7-1.2-2.9-1.9-2.1-3.5.8-1.7 2.9-.5 4.5-.8l9 2.2c5.4 1.9 8.9 1 10.1-5.3.8-4.4 2.3-8.6 3.6-12.9.3-1.6.2-3.4.9-4.8.8-1.5 2.1-3.4 3.6-3.7 1.8-.4 1.9 2.3 3 3.4.2 3.7 1.6 7 3.7 9.9 0 .7.1 1.3.1 2 .4 1.9.1 4.3 1.2 5.8 3.2 4.3 2 12.4 9.1 13 6.4.6 11.9 4.1 18.2 4.5.7 0 1.6.7 1.9 1.3.5 1.1-.3 1.9-1.3 2.4-4 2-7.9 4.3-12.1 5.9s-5.7 4.2-5.1 8.4l1.8 13.8c.2 1.4.3 3.6-.5 4.2-1.6 1.2-2.3-1.1-3.5-1.8-1.9-1.2-3.5-3.1-6-3.3-1.9-1.2-4.4-2.1-5.7-3.8-4.2-5.8-9.2-3.7-14-1.6-3.6 1.6-7 3.7-10.5 5.6-.9.5-1.7 1.8-3.1.8-1.3-1-1.2-2.3-.7-3.6 1.5-4.9 2.6-10 4.9-14.5 3.1-6.4 1.3-10.9-3.9-14.8z"/><path fill="#cdac93" d="M199.8 306.1c-1.2 4.3-2.7 8.5-3.6 12.9-1.2 6.3-4.7 7.2-10.1 5.3-2.9-1-6-1.5-9-2.2 7.6.7 9.5-7.2 14.9-9.8 2.9-1.5 5.2-4.2 7.8-6.2z"/><path fill="#f9d7d5" d="M211.1 312.9c0-.7-.1-1.3-.1-2 4.6-7.2 12.5-9.4 19.6-12.6 29.9-13.2 61.3-17.7 93.8-16.4 43.8 1.8 81.6 17.8 113.9 47 11.8 10.6 19.4 24.4 26.5 38.3 9.1 17.8 17.7 35.8 20.6 55.8 2.9 20.2 3.1 40.4-5.2 59.7-.7 1.7-1.3 3-3.3 3.2l-20-1.7c5.9 4.2 6.3 12.6 13 15.7-3.1 4.7-8.5 3.8-12.9 4.6-29.6 5.7-59.4 10.4-89.3 14-34.5 4.1-69 5-103.7 1.6-24.6-2.4-49.1-4.8-73.4-9.4-6-1.1-11.8-3.3-17.6-4.9l4.3-10.6c1.6-3.9 1.3-6.2-3.8-6.5-8.2-.4-16.3-3.7-24.5.1-2.3-3.6-3.2-7.7-3.3-11.8-.4-15-2.8-29.9-2-45.1 1.1-20.9 8.4-39.7 15.7-58.8 5.3-14 12.2-27.2 22.6-38.2 5.2 3.9 7 8.4 3.8 14.8-2.2 4.6-3.3 9.7-4.9 14.5-.4 1.3-.6 2.6.7 3.6s2.1-.3 3.1-.8c3.5-1.9 6.8-4 10.5-5.6 4.9-2.1 9.8-4.2 14 1.6 1.3 1.7 3.8 2.6 5.7 3.8 2.6 2.3 5.1 4.7 7.9 6.7.9.7 2.2 2.3 3.4 1.1.7-.7.8-2.5.6-3.7-.5-6.1-1.1-12.2-1.8-18.3-.3-2.9.8-4.6 3.5-5.8 5-2.1 10.2-4 14.5-7.5 1.2-.9 2.9-1.7 2.4-3.4-.4-1.5-2.2-1-3.5-1.3-13-2.7-27.1-3.8-29.8-21-.2 0-.7-.4-1-.7zM408.9 424c.9-11.1 1.2-22.2.1-33.3-.4-4.2-1.9-9.1-6.7-9.2-4.5 0-7.2 4.1-7.4 8.7-.5 11.3-.6 22.6-.9 33.9-1.6 11.4-1.2 22.9-1.1 34.3 0 4.3 2 8.1 6.8 8.4 4.7.2 6.6-3.3 7.1-7.5 1.3-11.8 2.6-23.5 2.1-35.3zm-104.8-2c-1.3 12.3-1.4 24.6-1.1 36.9.1 4.1 1.9 7.7 6.5 8.1 4.3.4 7.7-1.8 8.2-6.3 1.7-15.8 3.4-31.7 3.1-47.6-.2-7.6 0-15.3-.7-22.8-.4-4.1-2.4-8.8-7.4-8.5-4.7.3-7.5 4.2-7.7 9-.5 10.3-.7 20.7-.9 31.2z"/><path fill="#f0c864" d="M211.1 312.9c.3.4.9.7.9 1.1 2.7 17.2 16.8 18.4 29.8 21 1.3.3 3.1-.2 3.5 1.3.5 1.7-1.2 2.5-2.4 3.4-4.3 3.5-9.5 5.4-14.5 7.5-2.7 1.1-3.8 2.8-3.5 5.8.7 6.1 1.3 12.2 1.8 18.3.1 1.2.1 3-.6 3.7-1.2 1.2-2.5-.5-3.4-1.1-2.7-2.1-5.3-4.5-7.9-6.7 2.5.1 4.1 2 6 3.3 1.2.7 1.9 3 3.5 1.8.8-.6.7-2.8.5-4.2-.5-4.6-1.2-9.2-1.8-13.8-.6-4.2.9-6.9 5.1-8.4 4.2-1.6 8.1-3.9 12.1-5.9.9-.5 1.8-1.3 1.3-2.4-.3-.6-1.2-1.3-1.9-1.3-6.3-.5-11.8-3.9-18.2-4.5-7.1-.6-5.9-8.7-9.1-13-1.1-1.6-.9-4-1.2-5.9z"/><path fill="#72a1b7" d="M320.8 413c.3 16-1.4 31.8-3.1 47.6-.5 4.5-3.9 6.6-8.2 6.3-4.6-.4-6.5-4-6.5-8.1-.3-12.3-.2-24.6 1.1-36.9 1.3 0 2.7-.2 4 .2 8.2 2.4 13.7 1.3 12.7-9.1z"/><path fill="#255284" d="M320.8 413c1 10.4-4.6 11.6-12.8 9.1-1.2-.4-2.6-.1-4-.2l.9-31.3c.2-4.8 3-8.7 7.7-9 5-.3 7 4.4 7.4 8.5.9 7.6.6 15.3.8 22.9z"/><path fill="#73a0b7" d="M408.9 424c.5 11.8-.8 23.5-2.1 35.2-.5 4.2-2.4 7.7-7.1 7.5-4.8-.2-6.8-4.1-6.8-8.4-.1-11.4-.5-22.9 1.1-34.3h14.9z"/><path fill="#225183" d="M408.9 424H394l.9-33.9c.2-4.6 2.9-8.7 7.4-8.7 4.8 0 6.3 5 6.7 9.2 1.1 11.2.8 22.3-.1 33.4z"/></svg>
