<?xml version="1.0" encoding="utf-8"?>
<!-- Generator: Adobe Illustrator 18.1.1, SVG Export Plug-In . SVG Version: 6.00 Build 0)  -->
<svg version="1.1" id="1" xmlns="http://www.w3.org/2000/svg" xmlns:xlink="http://www.w3.org/1999/xlink" x="0px" y="0px"
	 viewBox="0 0 612 792" enable-background="new 0 0 612 792" xml:space="preserve">
<g>
	<g>
		<path fill="#FEFEFE" d="M306.4,653c-83.8,0-167.6,0-251.4,0.1c-3.4,0-4.1-0.7-4.1-4.1c0.1-168,0.1-335.9,0-503.9
			c0-3.9,1.2-4.2,4.5-4.2c167.8,0.1,335.6,0.1,503.4,0c3.6,0,4.4,0.7,4.4,4.3c-0.1,167.8-0.1,335.6,0,503.4c0,4-1.2,4.5-4.7,4.5
			C474.4,653,390.4,653,306.4,653z"/>
		<path fill="#EF959D" d="M171.6,327.1c-12.7-18.8-16.3-40.3-18.4-62.3c-0.6-6.1-0.6-12.3-1.2-18.4c-0.6-5.9,2.1-6.4,6.8-4.8
			c9.7,3.3,19.5,6.4,29.3,9.5c1.6,0.5,3.2,0.6,4.8,0.9c7.2,4.5,15.5,5.9,23.6,7.4c14.4,2.6,27.2,8.5,39.5,15.9
			c1.4,0.8,3,1.6,3.2,3.6c-0.7,2-2.4,2.7-4.2,3.1c-16.3,4.2-31.9,10.1-46.3,19.1c-2.5,1.1-2.7-2.6-4.8-2.2c-0.4,0.2-0.7,0.4-1,0.7
			c-1.9,2.5-1.5,6-3.8,8.3c-5.1,4.6-11.1,8.3-15.6,13.6c-1.7,2-4.2,1.6-6.4,1.8c-1.1,0.2-2.6,0-1.7,2c0.6,1.3,1.7,2.6,0.2,4
			C173.6,330.2,173.1,327.7,171.6,327.1z"/>
		<path fill="#CAAD9A" d="M207.9,301c9.6-8.1,21.1-12.3,32.8-16.1c6.1-2,12.2-3.9,18.2-5.9c0.6-0.7,0.9-1.7,2-2
			c5.8,1.7,11-1.2,16.4-2c10.8-1.5,21.6-1,32.4-1.2c1.8,0,3.5-0.5,5.3-0.8c2.9-0.7,5.7-1.6,8.7-1.5c4.3,1.6,8.7,2.1,13.2,2
			c7.9-0.2,15.4,2.3,23,3.9c15.9,3.4,30.5,10.2,45.1,17c0.7,0.4,1.3,0.9,1.9,1.5c0.7,3.3,3.8,4,6,5.5
			c56.2,37.3,81.9,90.9,84.1,157.1c0.2,7-1.1,14-3.5,20.6c-1.8,5-1.6,7.9,4.8,7c0.9-0.1,1.9,0.5,2.8,0.8c-0.8,1.2-2.1,1.6-3.4,1.6
			c-5.4,0.3-10.8,0.3-16.3,0.4c-1.7,0-3.2-0.5-4.4-1.9c-0.6-1.5,0.5-2.5,1.1-3.6c4.6-9.8,6.8-20.1,7.4-30.9
			c1.4-26.5-5.1-51.1-17.2-74.5c-4.3-8.3-8.2-16.8-13-24.7c-6.5-10.6-14-20.1-23.7-28.1c-27-22.3-57.5-36.6-92.5-40.4
			c-38.8-4.1-76.4,0.2-112.2,16.7c-5.6,2.6-10.4,6.6-16.1,8.9C207,307.8,206.3,305.5,207.9,301z"/>
		<path fill="#EF959D" d="M405,296c-23.9-10.8-47.8-21.2-74.8-21.1c-2.6,0-5.2-0.9-7.2-2.9c0.6-3.7,4-5.1,6.3-7.2
			c2-1.9,4.3-3.6,6.2-5.7c12.1-13.2,27.6-20.6,44.3-25.9c2.4-0.8,4.7-1.7,7-2.7c3.6-1.6,5.4-0.3,7.2,2.8c2.4,3.9,4,8.3,7.1,11.8
			c3.1,5.7,5.4,11.6,5.8,18.1c-0.1,8.9,0.6,17.9-0.3,26.8C406.3,292,406.7,294.2,405,296z"/>
		<path fill="#C9AD9A" d="M487,496c-1.6,13.2-12.1,14.1-21.9,15.9c-42.3,7.6-84.7,14.6-127.7,18c-33.5,2.6-66.8,0.1-100-3.3
			c-21.1-2.1-42.2-4.6-62.9-9.6c-2.9-0.7-5.6-1.8-8.4-2.8c0.6-4.9,3.7-7.4,8.1-8.8c8.1,1.2,15.8,4,23.9,5.3
			c25.7,4.1,51.5,6.8,77.4,8.9c12,1,24,1.3,35.9,1.4c15.2,0.2,30.6-1.2,45.8-2.9c33-3.5,65.7-8.8,98.3-14.7
			c4.6-0.8,9.2-1.6,13.5-3.3c1-0.7,2.2-0.8,3.3-0.4c3,1,5.4,0.1,7.7-1.9C481.9,496.1,484.1,494.4,487,496z"/>
		<path fill="#D5AF81" d="M336,260c-4.4,4-8.7,8-13.1,12c-2.5,1.3-5,3-7.9,1c3.7-10.1,9.8-19.2,12.3-29.9c1.7-7.5-0.1-12.6-6.5-17
			c-13.2-9.1-37-2.6-41.9,11.9c-3.7,10.8-2,15.3,7.4,20.3c-10.3,1.3-16.6-4.6-14-14.2c6.2-23.1,20-40.2,47.9-35.4
			c6.1,1,12.2,1.3,18.3,2.2c4.3,0.7,6.5,3.5,6.6,8c0.3,10.2,0,20.3-3.2,30.1C342.4,254,338,256.3,336,260z"/>
		<path fill="#C8AE9A" d="M171.6,327.1c1.5,0.6,2.9,1.2,4.4,1.8c4.1,0.5,6.2,2.6,6.2,6.8c-4.2,6.6-9.3,12.6-12.8,19.6
			c-10.8,21.5-19.7,43.7-23.3,67.6c-1.9,12.4-1.2,24.9-0.2,37.3c0.8,9.6,1,19.3,3.7,28.6c-3.7,3.2-8.1,3.3-12.6,3
			c-0.5-0.2-0.9-0.6-1.1-1.1c-0.9-14.7-2.8-29.5-2.5-44.2c0.6-40.2,14.5-76.3,36.1-109.7C171.2,333.9,174.7,331.2,171.6,327.1z"/>
		<path fill="#DE838D" d="M261,277c-0.1,1.3-0.7,2-2,2c-16.3-12-35.3-16.8-54.6-21c-3.7-0.8-7.3-2.2-10.9-3.3
			c-2.1-0.6-1.5-1.6-0.4-2.6c7.6-14.5,17.6-17.2,31.5-9.2C239.4,251.4,252.5,261.7,261,277z"/>
		<path fill="#E86C6E" d="M137,491.1c4-0.7,8-1.4,12-2c2.9-3.8,7.2-3.7,11.3-3.5c4.8,0.3,9.5,1.4,14.2,2c3.6,0.5,5.5,2.8,4.6,6.3
			c-1.1,4.4-2.4,8.9-6.1,12.1c-2.3,2.7-4.6,5.5-7,8.2c-6.8,2.3-9.8-4.9-15.2-6.1c3.9-5.9,3.3-9.7-2.2-14.1c-1.4-1.1-2.9-1.9-4.5-0.7
			c-1.9,1.3-1.5,3.1-0.7,4.9c0.9,1.8,2.5,3.1,3.8,4.6c1.2,1.4,3.2,2.7,1.8,5.1c-0.2,0.2-0.5,0.2-0.8,0.2c-4.1,2-4.4,6.4-6.2,9.9l0,0
			c-3.3,1.4-6.2-0.5-9.3-0.9c-4.3-0.4-8.1-1.8-11.8-3.9c-0.8-3.3,1.3-4.3,3.9-4.2c3.2,0.1,6.2-0.8,9.3-1.2c3.4-0.5,4-2.3,1.9-5
			c-1-1.3-2.4-2.2-3.9-3c-1.4-0.8-3-1.7-2.7-3.8c0.3-1.9,1.9-2.6,3.5-3.2C134.3,492.2,135.7,491.9,137,491.1z"/>
		<path fill="#E76B6E" d="M487,496c-2.8,0.5-5.4,1.4-7.3,3.8c-3.1,4-6.5,1.6-9.8,0.4c-2.4,1.1-3.8-0.5-5-2.1
			c-2.7-3.6-4.9-7.4-8.1-10.6c-1.7-1.6-1.2-4.1,1-4c6.4,0.1,13.2-1.5,19.1,2.6c8,2.6,16.1,0.1,24.1,0.7c7.2,0.6,13,4.8,19.4,7.5
			c3.3,1.4,1.4,3.2-0.7,4c-4.9,2.1-9.7,4.2-14.8,5.9c-5.2,1.7-10.3,3.1-12.4-4.7C492.2,498,490.6,494.6,487,496z"/>
		<path fill="#E86B6F" d="M137,491.1c-4.5,5.1-4.6,5.1,0.4,10.8c1.7,1.9,1.9,3.9,1.4,6c-0.7,2.8-3.3,0.6-4.4,1.3
			c-4.2,2.8-10.4-1.8-13.5,4c-4.5-3.4-9-6.7-13.5-10.1c-1.5-1.1-2.2-2.7,0.2-3.1c9.9-1.9,18.3-8,28.3-9.3
			C136.2,490.8,136.6,490.9,137,491.1z"/>
		<path fill="#DB838C" d="M336,260c2-3.7,4-7.3,6-11c7.4-5.9,14.6-12,22.1-17.6c3.4-2.5,7.6-5.5,10.4,1c0.8,1.8,1.9,1.2,3.3,0.8
			c16-4.8,16-4.8,23.2,11.9c-4.3-2.5-5.3-7.3-7.5-11.2c-1.7-3-3.4-4-6.7-2.6C368.6,238.5,350,245.2,336,260z"/>
		<path fill="#DD5E5F" d="M149,507.9c-0.6-3.3-3.7-4.6-5.5-6.9c-2.2-2.8-4.2-5.8-1-8.8c3.2-2.9,5.8-0.8,8.3,2c5.8,6.6,6,11.1,0,13.9
			C150.2,508,149.6,508,149,507.9z"/>
		<path fill="#CB858C" d="M405,296c2.1-9,0.4-18.1,1-27.1c0.1-1.9,0.5-3.8,0.8-5.7c1.7,11,0.7,21.9,0,32.9
			C406.2,296,405.6,296,405,296z"/>
		<path fill="#E86B6F" d="M142,518c0.8-4.1,1.2-8.4,6.2-9.9C146.2,511.4,144.1,514.7,142,518z"/>
		<path fill="#E86B6F" d="M132.7,517.1c3.1,0.3,6.2,0.6,9.3,0.9C138.6,520.2,135.7,518.4,132.7,517.1z"/>
		<path fill="#FED63A" d="M181.8,335.2c-1.2-2.8-3.5-4.6-5.9-6.3c2.8-1.9-10.7-6.5,1.1-6.9c4.2,0.9,8.5,0.1,12.7,1.2
			c2.3,0.6,3.7-1.1,4.4-3.2c1.2-3.4,2.5-6.9,3.8-10.3c3-3.4,2.6-8.2,5-11.8l0,0c3.5-1.2,3.1,1.9,3.8,3.6c1.6,3.6,1.1,8.2,5.2,10.5
			c2.5,3,3.6,6.8,4.8,10.3c1.4,4,3.8,6.4,8.1,7.1c6.2,1.1,12.2,3.4,18.3,5c3.5,0.9,4,2.7,1.3,5.2c-3.6,3.3-8,5.3-12.4,7.2
			c-6.1,2.6-5.9,2.6-5.8,9.1c0.1,4.5,0.9,8.9,1.1,13.4c0.1,2.1,0.5,4.7-1.8,5.8c-2.1,1-3.8-0.7-5.3-1.9c-4.4-3.6-9.3-6.4-13.5-10.2
			c-2.4-2.2-4.8-2.4-7.8-1.2c-4.5,1.8-8.8,4-13.1,6.2c-1.6,0.8-3.3,1.9-5.1,0.4c-1.7-1.4-1.6-3.3-1-5.1c1.4-4.6,2.5-9.3,4.4-13.8
			c1.8-4.3,2.6-8.3-1.5-11.8C181.9,337.3,181.6,336.3,181.8,335.2z"/>
		<path fill="#CCAC94" d="M199,310c-1.4,4.2-2.7,8.5-4.1,12.7c-0.9,2.9-3.4,2.5-5.4,2.2c-4.2-0.7-8.3-1.9-12.4-2.9
			c7.7,0.4,9.8-7.7,15.6-10.3c2.3-1.1,4.2-3.1,6.3-4.7C199.7,308,199.7,309,199,310z"/>
		<path fill="#F2C057" d="M211.1,313c-3.6-2.8-3.3-7.4-4.9-11c-0.7-1.6-0.8-3.6-3.1-4c4.3-3.3,3.4,1.9,4.9,3
			c0.5,3.1,0.3,6.5,2.9,8.9C211.9,310.9,211.9,311.9,211.1,313z"/>
		<path fill="#F2C057" d="M199,310c0-1,0-2,0-3c1.9-2.8,0.7-6.9,4-9C201.7,302,200.3,306,199,310z"/>
		<path fill="#F9D7D5" d="M211.1,313c-0.1-1-0.2-2-0.2-3.1c7.5-7.2,17.1-10.8,26.5-14.4c45-17,91-19.3,136.7-4.4
			c42.1,13.7,74.4,39.4,93.5,81c12,26.3,21.4,52.5,19.5,81.8c-0.7,10.4-3.3,20.2-7.1,29.9c-0.6,1.4-1.6,2.1-3,2.3
			c-6.1-0.6-12.2-1.1-18.2-1.7c-1.2-0.1-3.2,0.6-1.6,1.5c5.8,3.5,6.3,11.5,12.8,14.1c-5.2,5.3-12.4,4.4-18.8,5.6
			c-33.7,6.4-67.6,11.6-101.7,14.9c-28.3,2.7-56.6,2.3-85-0.4c-26.2-2.4-52.4-4.9-78.3-10.4c-4.5-0.9-8.8-2.6-13.3-4
			c0.5-5.7,8.4-13.3,4-15.4c-8.1-3.9-18.4-5.5-28-1.6c-5.2-9.3-3.8-19.7-4.7-29.6c-4.4-45.2,10-85.1,35.1-121.9
			c0.6-0.9,1.7-1.6,2.5-2.3c11.6,8.3,1.3,16.9,0.3,25.3c-0.3,2.5-3,5.3-0.5,7.3c2.2,1.8,3.9-1.5,5.8-2.4c3.2-1.4,6.3-2.9,9.4-4.4
			c11-5.2,14.7,6.7,22.3,9.7c2.2,0.8,4,4.6,6,3.5c2.3-1.3,0.8-4.9,0.6-7.4c-0.3-5-1-9.9-1.6-14.8c-0.4-2.8,1.3-3.9,3.5-4.7
			c5.6-2.2,11-4.5,15.8-8.2c0.7-0.6,1.2-1.5,1.7-2.3c-0.9-0.3-1.7-0.7-2.6-0.9c-7-1.9-14.1-3.9-21.1-5.7c-2.4-0.6-3.6-1.8-4.5-4.1
			C215.1,321.7,213,317.4,211.1,313z"/>
		<path fill="#72A1B7" d="M320.8,413c0.3,16-1.4,31.8-3.1,47.6c-0.5,4.5-3.9,6.6-8.2,6.3c-4.6-0.4-6.6-4-6.5-8.1
			c0.1-12.3,0.7-24.6,1.1-36.9c5.1-2.9,9.8-0.6,14.6,0.5C319.2,419.6,316.5,415.5,320.8,413z"/>
		<path fill="#245184" d="M320.8,413c1,10.4-4.6,11.5-12.8,9.1c-1.2-0.4-2.6-0.1-4-0.2c0.3-10.4,0.5-20.9,0.9-31.3
			c0.2-4.8,3-8.7,7.7-9c5-0.3,7,4.4,7.4,8.5C320.9,397.7,320.6,405.4,320.8,413z"/>
		<path fill="#73A0B7" d="M408.9,424c0.5,11.8-0.8,23.5-2.1,35.2c-0.5,4.2-2.4,7.7-7.1,7.5c-4.8-0.2-6.8-4.1-6.8-8.4
			c0.1-11.4,0.7-22.9,1.1-34.3C399,421.3,404,421.3,408.9,424z"/>
		<path fill="#225183" d="M408.9,424c-5,0-9.9,0-14.9,0c0.3-11.3,0.4-22.6,0.9-33.9c0.2-4.6,2.9-8.7,7.4-8.7c4.8,0,6.3,5,6.7,9.2
			C410.1,401.8,409.8,412.9,408.9,424z"/>
	</g>
</g>
</svg>
