<?xml version="1.0" encoding="utf-8"?>
<svg version="1.1" id="0" xmlns="http://www.w3.org/2000/svg" xmlns:xlink="http://www.w3.org/1999/xlink" x="0px" y="0px"
	 viewBox="0 0 612 792" enable-background="new 0 0 612 792" xml:space="preserve">
<g>
	<g>
		<path fill="#EF959D" d="M171.6,327.1c-11.1-16-15-34.5-17.5-53.4c-1.2-9-1.3-18.2-2.1-27.3c-0.5-5.9,2.1-6.4,6.8-4.8
			c9.7,3.3,19.5,6.4,29.3,9.5c1.6,0.5,3.2,0.6,4.8,0.9c-1.1,1.1-1.7,2,0.4,2.6c3.7,1.1,7.2,2.4,10.9,3.3c19.2,4.3,38.4,9,54.6,21
			c-1.5,0.6-3,1.5-4.6,1.9c-16.8,4.1-33,9.9-47.2,20.1c-1.1-1.1-1.1-3.8-3-3.4c-1.4,0.3-2.8,2.2-3.6,3.7c-0.7,1.4-0.6,3.2-0.9,4.8
			c-2.6,2.1-4.9,4.7-7.8,6.1c-5.5,2.6-7.4,10.5-14.9,9.8c-1.5,0.3-3.6-0.9-4.5,0.8c-0.8,1.6,1.4,2.3,2.1,3.5
			c0.5,0.8,0.8,1.7,1.2,2.6C174.5,328.3,173,327.7,171.6,327.1z"/>
		<path fill="#C9AD9A" d="M207.2,301c14.3-10.2,30.4-16,47.2-20.1c1.6-0.4,3-1.3,4.6-1.9c1.3,0,1.9-0.7,2-2c5.7,1.5,11-1.3,16.4-2
			c10.8-1.5,21.6-1,32.4-1.2c1.8,0,3.7,0.6,5.3-0.8c2.9,2,5.4,0.3,7.9-1c2.8,2.4,6.2,3.4,9.7,2.9c7.3-0.9,14.2,0.9,21.1,2.4
			c17.9,3.8,34.8,10.8,51.3,18.7c0.6,1.1,1.2,0.2,1.8,0c0.2,2.4,2.3,3.2,3.9,4.2c47.8,27.6,70.1,72.7,83.5,123.2
			c4.8,18,4.9,37-0.7,55.2c-1.7,5.5-1.6,8.4,5.2,7.5c0.7-0.1,1.5,0.5,2.3,0.8c-8-0.5-16.1,1.6-24.1-0.7c2-0.2,2.6-1.6,3.3-3.2
			c8.3-19.3,8.1-39.5,5.2-59.7c-2.9-20-11.5-38-20.6-55.8c-7.1-14-14.7-27.7-26.5-38.3c-32.3-29.2-70.1-45.2-113.9-47
			c-32.5-1.3-63.9,3.2-93.8,16.4c-7.1,3.1-15,5.4-19.6,12.6C208.8,307.9,207.4,304.7,207.2,301z"/>
		<path fill="#EF959D" d="M405,296c-16.5-7.8-33.4-14.8-51.3-18.7c-6.8-1.5-13.8-3.3-21.1-2.4c-3.5,0.5-6.9-0.5-9.7-2.9
			c4.4-4,8.7-8,13.1-12c13.3-14,30.7-20.5,47.9-27.7c5.6-2.4,8-1.3,10.8,3.7c1.7,3.1,2.1,7.5,6.3,9c2.5,4,4,8.4,4.8,13.1
			c-1.2,1.1-0.9,2.4-0.7,3.7C406.6,273.2,406.5,284.6,405,296z"/>
		<path fill="#C8AD9A" d="M487,496c-1.6,13.2-12.1,14.1-21.9,15.9c-37.6,6.9-75.3,13-113.3,16.8c-31.2,3.2-62.4,2.5-93.6-0.3
			c-25-2.2-49.9-4.7-74.6-9.4c-6-1.1-12.1-2.1-17.7-4.8c2.3-2.7,4.6-5.4,7-8.2c5.9,1.7,11.7,3.8,17.6,4.9c24.3,4.6,48.8,7,73.4,9.4
			c34.7,3.4,69.2,2.5,103.7-1.6c29.9-3.6,59.7-8.3,89.3-14c4.3-0.8,9.8,0.2,12.9-4.6c4.2,2.2,7.9,2.7,11.4-1.7
			C482.4,497,485,496.8,487,496z"/>
		<path fill="#D5AF81" d="M336,260c-4.4,4-8.7,8-13.1,12c-2.5,1.3-5,3-7.9,1c3.7-8.5,7.3-17,11-25.5c7.1-16.3-5.4-24.7-18-24.6
			c-10.5,0.1-21.1-0.3-27.1,10.7c-3.7,6.8-5.5,13.9-1.7,21.4c-0.4,0.8-0.9,1.5-1.3,2.3c-6.4-2.1-7.2-7.2-5.8-12.5
			c5.7-22.5,19.6-40.9,47.8-36.1c6,1,12.2,1.3,18.3,2.2c4.9,0.7,6.9,3.7,7,8.7c0.2,10-0.1,19.9-3.2,29.5
			C340.1,252.7,337,255.8,336,260z"/>
		<path fill="#C9AE9A" d="M171.6,327.1c1.5,0.6,2.9,1.2,4.4,1.8c2.4,1.7,4.5,3.6,5.9,6.2c-10.4,11.1-17.2,24.2-22.6,38.2
			c-7.3,19-14.5,37.9-15.7,58.8c-0.8,15.2,1.6,30.1,2,45.1c0.1,4.1,0.9,8.2,3.3,11.8c-4,0.7-8,1.4-12,2c-0.4-0.1-0.8-0.2-1.2-0.3
			c-0.9-12.7-2.1-25.5-2.6-38.2c-1.2-27,5.9-52.2,15.9-77c6-14.9,12.7-29.3,22.6-42C173.5,331.2,172.7,329.2,171.6,327.1z"/>
		<path fill="#DE838D" d="M261,277c-0.1,1.3-0.7,2-2,2c-16.3-12.1-35.4-16.7-54.6-21c-3.7-0.8-7.3-2.2-10.9-3.3
			c-2.1-0.6-1.5-1.6-0.4-2.6c3-6.8,9.2-10.3,14.9-14.2c2.4-1.6,5.2-0.1,7.6,0.9C234.5,246.9,250.6,258.6,261,277z"/>
		<path fill="#E86C6E" d="M137,491.1c4-0.7,8-1.4,12-2c8.2-3.8,16.3-0.5,24.5-0.1c5.1,0.2,5.4,2.6,3.8,6.5
			c-1.5,3.5-2.9,7.1-4.3,10.6c-2.3,2.7-4.6,5.4-7,8.2c-6.8,2.3-9.8-4.8-15.2-6.1c6.1-2.8,5.8-7.1-0.2-14.2c-2.6-3-5.1-3.9-8-1.5
			c-3.3,2.7-1.3,5.7,0.6,8.3c1.8,2.5,5.1,3.8,5.8,7.2c-4.7,1.7-4.8,6.8-7.2,10.1c-3-0.3-6-0.6-9.1-0.9c-4.3-0.4-8.2-1.8-11.9-3.9
			c3.2-6,9.3-1.1,13.6-3.3c1.4-0.7,4.2,0.8,5.1-1.6c1-2.6,0.3-5-2.1-6.5C132.2,498.4,130,495,137,491.1z"/>
		<path fill="#E86B6E" d="M487,496c-2,0.8-4.6,1-5.7,2.5c-3.4,4.5-7.2,3.9-11.4,1.7c-6.7-3.1-7.1-11.5-13-15.7
			c6.7,0.6,13.4,1.1,20,1.7c8,2.3,16.1,0.2,24.1,0.7c7.2,0.6,12.9,4.9,19.4,7.5c2.7,1.1,1.9,2.9-0.2,3.8c-6.7,2.8-13.1,6.4-20.5,7.4
			c-3.2,0.4-4.8-0.4-6-3.6C492.7,499,491.4,495.5,487,496z"/>
		<path fill="#E86B6F" d="M137,491.1c-7,3.9-4.8,7.3,0.5,10.7c2.4,1.5,3.2,4,2.1,6.5c-1,2.4-3.7,0.9-5.1,1.6
			c-4.3,2.3-10.3-2.6-13.6,3.3c-4.5-3.4-9-6.7-13.5-10.1c-1.5-1.1-2.2-2.7,0.2-3.1c9.9-1.9,18.3-8,28.3-9.3
			C136.2,490.8,136.6,490.9,137,491.1z"/>
		<path fill="#DB838C" d="M336,260c1-4.2,4-7.3,6-11c7.4-5.9,14.6-12,22.1-17.6c3.4-2.5,7.5-5.5,10.4,1c1.1,2.5,2.8,0.9,4.2,0.4
			c12.9-4.9,12.9-5,19.6,6.9c1,1.7,1.8,3.6,2.6,5.3c-4.2-1.5-4.6-5.9-6.3-9c-2.7-5-5.1-6.1-10.8-3.7C366.7,239.5,349.3,246,336,260z
			"/>
		<path fill="#DD5E5F" d="M149,507.9c-0.7-3.4-4-4.7-5.8-7.2c-1.9-2.6-3.9-5.5-0.6-8.3c2.9-2.4,5.4-1.5,8,1.5
			c6.1,7.1,6.4,11.4,0.2,14.2C150.2,508,149.6,508,149,507.9z"/>
		<path fill="#CC868E" d="M405,296c1.5-11.4,1.6-22.8,0.1-34.2c-0.2-1.3-0.4-2.7,0.7-3.7c3,12.6,1.7,25.3,1,37.9
			C406.2,296.2,405.6,297,405,296z"/>
		<path fill="#D4BCA3" d="M278,257.2c0.4-0.8,0.9-1.5,1.3-2.3c2.5,1,4.9,2,8.4,3.4C283.4,259.5,280.7,258.7,278,257.2z"/>
		<path fill="#E86B6F" d="M132.7,517.1c3,0.3,6,0.6,9.1,0.9C138.5,520.3,135.7,518.3,132.7,517.1z"/>
		<path fill="#FED63A" d="M181.9,335.1c-1.4-2.6-3.5-4.5-5.9-6.2c-0.4-0.9-0.8-1.8-1.2-2.6c-0.7-1.2-2.9-1.9-2.1-3.5
			c0.8-1.7,2.9-0.5,4.5-0.8c3,0.7,6.1,1.2,9,2.2c5.4,1.9,8.9,1,10.1-5.3c0.8-4.4,2.3-8.6,3.6-12.9c0.3-1.6,0.2-3.4,0.9-4.8
			c0.8-1.5,2.1-3.4,3.6-3.7c1.8-0.4,1.9,2.3,3,3.4c0.2,3.7,1.6,7,3.7,9.9c0,0.7,0.1,1.3,0.1,2c0.4,1.9,0.1,4.3,1.2,5.8
			c3.2,4.3,2,12.4,9.1,13c6.4,0.6,11.9,4.1,18.2,4.5c0.7,0,1.6,0.7,1.9,1.3c0.5,1.1-0.3,1.9-1.3,2.4c-4,2-7.9,4.3-12.1,5.9
			c-4.2,1.6-5.7,4.2-5.1,8.4c0.6,4.6,1.3,9.2,1.8,13.8c0.2,1.4,0.3,3.6-0.5,4.2c-1.6,1.2-2.3-1.1-3.5-1.8c-1.9-1.2-3.5-3.1-6-3.3
			c-1.9-1.2-4.4-2.1-5.7-3.8c-4.2-5.8-9.2-3.7-14-1.6c-3.6,1.6-7,3.7-10.5,5.6c-0.9,0.5-1.7,1.8-3.1,0.8c-1.3-1-1.2-2.3-0.7-3.6
			c1.5-4.9,2.6-10,4.9-14.5C188.9,343.5,187.1,339,181.9,335.1z"/>
		<path fill="#CDAC93" d="M199.8,306.1c-1.2,4.3-2.7,8.5-3.6,12.9c-1.2,6.3-4.7,7.2-10.1,5.3c-2.9-1-6-1.5-9-2.2
			c7.6,0.7,9.5-7.2,14.9-9.8C194.9,310.8,197.2,308.1,199.8,306.1z"/>
		<path fill="#F9D7D5" d="M211.1,312.9c0-0.7-0.1-1.3-0.1-2c4.6-7.2,12.5-9.4,19.6-12.6c29.9-13.2,61.3-17.7,93.8-16.4
			c43.8,1.8,81.6,17.8,113.9,47c11.8,10.6,19.4,24.4,26.5,38.3c9.1,17.8,17.7,35.8,20.6,55.8c2.9,20.2,3.1,40.4-5.2,59.7
			c-0.7,1.7-1.3,3-3.3,3.2c-6.7-0.6-13.4-1.1-20-1.7c5.9,4.2,6.3,12.6,13,15.7c-3.1,4.7-8.5,3.8-12.9,4.6
			c-29.6,5.7-59.4,10.4-89.3,14c-34.5,4.1-69,5-103.7,1.6c-24.6-2.4-49.1-4.8-73.4-9.4c-6-1.1-11.8-3.3-17.6-4.9
			c1.4-3.5,2.8-7.1,4.3-10.6c1.6-3.9,1.3-6.2-3.8-6.5c-8.2-0.4-16.3-3.7-24.5,0.1c-2.3-3.6-3.2-7.7-3.3-11.8
			c-0.4-15-2.8-29.9-2-45.1c1.1-20.9,8.4-39.7,15.7-58.8c5.3-14,12.2-27.2,22.6-38.2c5.2,3.9,7,8.4,3.8,14.8
			c-2.2,4.6-3.3,9.7-4.9,14.5c-0.4,1.3-0.6,2.6,0.7,3.6c1.3,1,2.1-0.3,3.1-0.8c3.5-1.9,6.8-4,10.5-5.6c4.9-2.1,9.8-4.2,14,1.6
			c1.3,1.7,3.8,2.6,5.7,3.8c2.6,2.3,5.1,4.7,7.9,6.7c0.9,0.7,2.2,2.3,3.4,1.1c0.7-0.7,0.8-2.5,0.6-3.7c-0.5-6.1-1.1-12.2-1.8-18.3
			c-0.3-2.9,0.8-4.6,3.5-5.8c5-2.1,10.2-4,14.5-7.5c1.2-0.9,2.9-1.7,2.4-3.4c-0.4-1.5-2.2-1-3.5-1.3c-13-2.7-27.1-3.8-29.8-21
			C211.9,313.6,211.4,313.2,211.1,312.9z M408.9,424c0.9-11.1,1.2-22.2,0.1-33.3c-0.4-4.2-1.9-9.1-6.7-9.2c-4.5,0-7.2,4.1-7.4,8.7
			c-0.5,11.3-0.6,22.6-0.9,33.9c-1.6,11.4-1.2,22.9-1.1,34.3c0,4.3,2,8.1,6.8,8.4c4.7,0.2,6.6-3.3,7.1-7.5
			C408.1,447.5,409.4,435.8,408.9,424z M304.1,422c-1.3,12.3-1.4,24.6-1.1,36.9c0.1,4.1,1.9,7.7,6.5,8.1c4.3,0.4,7.7-1.8,8.2-6.3
			c1.7-15.8,3.4-31.7,3.1-47.6c-0.2-7.6,0-15.3-0.7-22.8c-0.4-4.1-2.4-8.8-7.4-8.5c-4.7,0.3-7.5,4.2-7.7,9
			C304.5,401.1,304.3,411.5,304.1,422z"/>
		<path fill="#F0C864" d="M211.1,312.9c0.3,0.4,0.9,0.7,0.9,1.1c2.7,17.2,16.8,18.4,29.8,21c1.3,0.3,3.1-0.2,3.5,1.3
			c0.5,1.7-1.2,2.5-2.4,3.4c-4.3,3.5-9.5,5.4-14.5,7.5c-2.7,1.1-3.8,2.8-3.5,5.8c0.7,6.1,1.3,12.2,1.8,18.3c0.1,1.2,0.1,3-0.6,3.7
			c-1.2,1.2-2.5-0.5-3.4-1.1c-2.7-2.1-5.3-4.5-7.9-6.7c2.5,0.1,4.1,2,6,3.3c1.2,0.7,1.9,3,3.5,1.8c0.8-0.6,0.7-2.8,0.5-4.2
			c-0.5-4.6-1.2-9.2-1.8-13.8c-0.6-4.2,0.9-6.9,5.1-8.4c4.2-1.6,8.1-3.9,12.1-5.9c0.9-0.5,1.8-1.3,1.3-2.4c-0.3-0.6-1.2-1.3-1.9-1.3
			c-6.3-0.5-11.8-3.9-18.2-4.5c-7.1-0.6-5.9-8.7-9.1-13C211.2,317.2,211.4,314.8,211.1,312.9z"/>
		<path fill="#72A1B7" d="M320.8,413c0.3,16-1.4,31.8-3.1,47.6c-0.5,4.5-3.9,6.6-8.2,6.3c-4.6-0.4-6.5-4-6.5-8.1
			c-0.3-12.3-0.2-24.6,1.1-36.9c1.3,0,2.7-0.2,4,0.2C316.3,424.5,321.8,423.4,320.8,413z"/>
		<path fill="#255284" d="M320.8,413c1,10.4-4.6,11.6-12.8,9.1c-1.2-0.4-2.6-0.1-4-0.2c0.3-10.4,0.5-20.9,0.9-31.3
			c0.2-4.8,3-8.7,7.7-9c5-0.3,7,4.4,7.4,8.5C320.9,397.7,320.6,405.4,320.8,413z"/>
		<path fill="#73A0B7" d="M408.9,424c0.5,11.8-0.8,23.5-2.1,35.2c-0.5,4.2-2.4,7.7-7.1,7.5c-4.8-0.2-6.8-4.1-6.8-8.4
			c-0.1-11.4-0.5-22.9,1.1-34.3C399,424,404,424,408.9,424z"/>
		<path fill="#225183" d="M408.9,424c-5,0-9.9,0-14.9,0c0.3-11.3,0.4-22.6,0.9-33.9c0.2-4.6,2.9-8.7,7.4-8.7c4.8,0,6.3,5,6.7,9.2
			C410.1,401.8,409.8,412.9,408.9,424z"/>
	</g>
</g>
</svg>
