<svg xmlns="http://www.w3.org/2000/svg" viewBox="0 0 512 512" xmlns:v="https://vecta.io/nano"><path fill="#ef959d" d="M100.7 171.7c-11.1-19.5-14.5-41-16.6-62.9-.7-7.1-.8-14.2-1.4-21.3-.5-5.7 2-6.8 7.1-5.3 13.1 3.7 25.5 9.8 39.1 11.8-1.2 1.2-1.9 2.3.5 3 4.1 1.2 8.1 2.8 12.3 3.7 21.7 4.6 43.1 10.3 61.5 23.7-2.1.7-4.2 1.6-6.3 2.2-18.2 5.4-36.3 11.1-52 22.5-.6-1.8-1.2-4.1-3.3-3.9-2.2.2-2.9 2.6-3.5 4.5-.8 2.4-1.5 4.9-2.3 7.3-2.7.3-4.7 1.9-6.6 3.8-8.1 7.4-16.1 14.8-28.5 10.9z"/><path fill="#caad9a" d="M144.8 149.1c15.6-11.4 33.7-17.1 52-22.5 2.1-.6 4.2-1.5 6.3-2.2 1.5 0 2.2-.8 2.3-2.2 6.5 1.9 12.3-1.4 18.5-2.2 12.1-1.7 24.3-1.1 36.4-1.3 2 0 4-.6 5.9-.9 3 2.3 5.9-.2 8.9 0 3.3.7 6.5 2.1 9.8 2.1 23.4.5 45.2 7.3 66.4 16.6 5.8 2.5 11.2 7 18.2 5.9-.3 3 1.7 4.3 3.9 5.5 53.8 30.9 79.1 81.5 94.3 138.4 5.5 20.8 6 42.8-1.1 63.7-3.8 11.2 6 5.5 8.9 8.2-9-.7-18.2 2.1-27.1-.8 2.2-.2 2.9-1.8 3.7-3.6 9.4-21.8 9.2-44.5 5.8-67.2-3.1-20.9-12.6-39.6-21-58.8-18.6-42.2-51.1-69.3-92.7-85.4C283.9 119 223.8 123 165 148.9c-5.8 2.6-12.6 4.8-15.9 11.4-2.4-3.4-4-7-4.3-11.2z"/><path fill="#ef959d" d="M369.5 142.4c-7 1.1-12.4-3.4-18.2-5.9-21.2-9.3-43-16.1-66.4-16.6-3.3-.1-6.5-1.4-9.8-2.1l14.7-14.7c13.2-13.7 29.9-21.8 47.3-28.6 7.5-2.9 15.8-9.4 20.1 4.1l1.4-.3c12.3 17.3 12.8 37 11.7 57.1-.2 2.2-.5 4.6-.8 7z"/><path fill="#c9ad9a" d="M459.7 368.6c-2.1 14.6-13.7 15.8-24.8 17.9-47.2 8.5-94.6 16.3-142.5 20.1-38 3-75.9.3-113.7-3.7-26.2-2.8-52.4-5.4-77.8-12.8-.9-.3-1.7-.7-2.5-1.1l7.8-9.3c5 1.5 9.9 3.4 14.9 4.5 25.2 5.4 50.7 8 76.3 10.6 35.4 3.7 70.8 4.8 106.2 1.5 38.8-3.7 77.3-9.5 115.6-16.8 7.1-1.4 15.3-.2 21.1-6.3 4.8 2.5 8.9 3 12.8-2 1.4-1.6 4.4-1.8 6.6-2.6z"/><path fill="#d5af81" d="M289.8 103l-14.7 14.7c-3-.1-5.9 2.3-8.9 0 4.1-11.2 10.6-21.3 13.7-33 2.7-10.2-1-16.3-9.7-21.1-17.2-9.5-41.4 0-45.9 18.4-2.6 10.7-.4 15.1 9.5 18.7-9.4 2.7-17.8-3.5-16.2-13 3.9-22.3 19.3-47.5 51.5-43l23.3 3c4.9.8 7.3 4 7.4 9 .4 11.5 0 22.8-3.5 33.8-2 4.2-4.3 8.3-6.5 12.5z"/><path fill="#c8ae9a" d="M64.6 362.6c-1-17-3.2-33.9-2.8-50.9.9-44.8 16.5-84.9 40.4-122.2 2.1-3.2 6.1-6.1 2.8-10.8l.3-.3 4.5 2.1 6.6 6.9c-1.5 1.6-3.3 3-4.5 4.9C85 233.1 69.1 277.1 74 326.8c1.1 11.3-.7 23.3 5.4 33.9l-14.8 1.9z"/><path fill="#e76b6e" d="M64.6 362.6l14.8-1.9c10.8-4.5 22.3-2.6 31.5 1.7 4.9 2.3-3.9 11-4.5 17.3l-7.8 9.3c-5.6 2.8-8.5-2.2-12.2-4.5-5.9-3.6-9.8-2.5-11.9 4-1.8 5.9-5.3 6.1-10.8 5-12.4-2.3-21.6-9.7-31-17-1.6-1.3-2.6-3 .2-3.5 10.9-2 20.4-9 31.7-10.4z"/><path fill="#de838d" d="M205.4 122.1c-.1 1.4-.8 2.2-2.3 2.2-18.4-13.4-39.7-19-61.5-23.7-4.2-.9-8.2-2.5-12.3-3.7-2.3-.7-1.7-1.8-.5-3 7.2-14.5 19-19 32.5-11.9 18.1 9.7 34 21.7 44.1 40.1z"/><path fill="#e76b6e" d="M459.7 368.6c-2.2.8-5.3 1-6.5 2.6-3.9 4.9-8.1 4.5-12.8 2-7.2-3.1-7.9-12-14.4-15.9-1.8-1.1.5-1.8 1.8-1.7l20.5 1.8c9 2.9 18.1.1 27.1.8 8.1.7 14.7 5.5 21.8 8.6 3.8 1.7 1.3 3.6-.9 4.5-5 2.2-9.9 4.4-15.1 6.1-6.1 2-12.7 5-15.5-4.9-.4-1.8-2.1-5.6-6-3.9z"/><path fill="#dc838c" d="M289.8 103l6.7-12.4 24.9-19.8c3.8-2.8 8.3-6.2 11.8.9 1.8 3.6 4.4.8 6.1-.2 9.1-5.4 15.9-4.6 19.3 6.5-.5.1-1.4.4-1.4.3-4.3-13.5-12.6-7-20.1-4.1-17.5 6.9-34.1 15.1-47.3 28.8z"/><path fill="#ccac93" d="M100.7 171.7c12.4 3.9 20.4-3.4 28.3-11 1.9-1.8 3.9-3.4 6.6-3.8-.1 1.3.4 3-.3 3.9-3.8 5.3.2 17.3-12.6 14.9-4.6-.8-9.1-1.8-13.7-2.7-2.8-.6-4.1 0-2.8 3.1-.3.7-.7 1.5-1 2.2l-.3.3c-1.4-2.2-2.8-4.6-4.2-6.9z"/><path fill="#fed63a" d="M106.3 176.1c-1.3-3.1.1-3.7 2.8-3.1l13.7 2.7c12.8 2.4 8.8-9.6 12.6-14.9.6-.9.2-2.6.3-3.9.8-2.4 1.5-4.9 2.3-7.3.6-1.9 1.4-4.3 3.5-4.5s2.7 2.2 3.3 3.9c.3 4.1 1.9 7.8 4.2 11.2 3.4 13.5 8.9 24.6 25.4 25.1 4.4.2 8.7 2.5 13.6 3.9-4 4.7-9.1 7.3-14.5 9.2-6.4 2.3-11.4 4.7-9 13.3 1.4 4.9 1.1 10.4 1.4 15.6.1 1.4-.4 2.8-.6 4.2-1.3-.5-2.8-.8-3.9-1.7-5-3.6-10.7-6.6-14.6-11.2-5.4-6.2-10.5-3.5-15.9-1.3-5.1 2-11.6 8.9-14.6 6.2-4.3-4 1.5-10.9 3.3-16.3 2.6-7.5 5.4-14.5-3.3-19.9l-6.6-6.9c-.2-2-1.6-3.3-3.4-4.3z"/><path fill="#f9d7d5" d="M116.4 187.5c8.7 5.4 5.8 12.4 3.3 19.9-1.8 5.4-7.6 12.3-3.3 16.3 2.9 2.8 9.4-4.2 14.6-6.2 5.4-2.1 10.5-4.9 15.9 1.3 4 4.5 9.6 7.6 14.6 11.2 1.1.8 2.6 1.1 3.9 1.7.2-1.4.7-2.8.6-4.2-.3-5.2-.1-10.6-1.4-15.6-2.4-8.6 2.6-10.9 9-13.3 5.3-1.9 10.5-4.5 14.5-9.2-4.8-1.5-9.2-3.8-13.6-3.9-16.5-.6-22-11.7-25.4-25.1 3.3-6.6 10.1-8.9 15.9-11.4 58.8-25.9 118.9-30 179.2-6.5 41.6 16.1 74.1 43.2 92.7 85.4 8.4 19.2 17.9 37.9 21 58.8 3.3 22.7 3.5 45.4-5.8 67.2-.8 1.9-1.5 3.4-3.7 3.6l-20.5-1.8c-1.3-.1-3.6.6-1.8 1.7 6.5 3.9 7.1 12.9 14.4 15.9-5.8 6.1-14 4.9-21.1 6.3-38.2 7.4-76.8 13.2-115.6 16.8-35.4 3.3-70.8 2.2-106.2-1.5-25.6-2.7-51.2-5.2-76.3-10.6-5.1-1.1-9.9-3-14.9-4.5.6-6.4 9.4-15 4.5-17.3-9.2-4.4-20.7-6.3-31.5-1.7-6.1-10.6-4.3-22.6-5.4-33.9-4.9-49.6 11-93.7 37.9-134.4 1.2-2 3-3.4 4.5-5zM372 250.4c-.9-4.9-2.1-10.6-7.8-10.6-5 0-8 4.7-8.2 9.8l-1 38-1.2 38.6c-.1 4.8 2.2 9.2 7.6 9.4 5.2.2 7.4-3.7 7.9-8.4 1.5-13.2 3-26.4 2.4-39.7.1-.3.2-.7.2-1.1 1.6-12 1.7-24 .1-36zm-99.3 24.7c-.2-8.6 0-17.2-.8-25.7-.4-4.6-2.7-9.9-8.3-9.6-5.3.3-8.4 4.7-8.7 10.1l-1.1 35.2-1.2 41.5c0 4.5 2.1 8.6 7.3 9.1 4.9.4 8.7-2 9.2-7 2-17.8 3.9-35.6 3.6-53.6z"/><path fill="#ef959d" d="M106.3 176.1c1.8.9 3.2 2.2 3.5 4.4l-4.5-2.1c.3-.8.6-1.5 1-2.3z"/><path fill="#72a1b7" d="M272.7 275.1c.3 18-1.6 35.8-3.5 53.6-.6 5-4.3 7.5-9.2 7-5.3-.5-7.4-4.6-7.3-9.1.1-13.8.8-27.6 1.2-41.5 1.5 0 3.1-.2 4.5.2 9.1 2.7 15.4 1.5 14.3-10.2z"/><path fill="#73a0b7" d="M371.8 287.5c.6 13.3-.8 26.5-2.4 39.7-.5 4.7-2.7 8.7-7.9 8.4-5.4-.3-7.7-4.6-7.6-9.4l1.2-38.6 16.7-.1z"/><path fill="#245184" d="M272.7 275.1c1.1 11.7-5.2 12.9-14.4 10.3-1.4-.4-3-.1-4.5-.2l1.1-35.2c.3-5.4 3.4-9.8 8.7-10.1 5.6-.4 7.9 5 8.3 9.6.8 8.5.6 17.1.8 25.6z"/><path fill="#225183" d="M371.8 287.5h-16.7l1-38c.2-5.2 3.2-9.8 8.2-9.8 5.7 0 6.9 5.8 7.8 10.6v36c-.1.5-.2.8-.3 1.2z"/><path fill="#73a0b7" d="M372 286.4v-36c1.6 12 1.5 24 0 36z"/></svg>
