<?xml version="1.0" encoding="utf-8"?>
<svg version="1.1" id="0" xmlns="http://www.w3.org/2000/svg" xmlns:xlink="http://www.w3.org/1999/xlink" x="0px" y="0px"
 viewBox="0 0 612 792" enable-background="new 0 0 612 792" xml:space="preserve">
<g>
<g>
<path fill="#EF959D" d="M711.6,394.6c-11.1-16.1-15-34.5-17.5-53.4c-1.2-9-1.3-18.2-2.1-27.3c-0.5-5.9,2.1-6.4,6.8-4.8
c9.7,3.3,19.5,6.4,29.3,9.5c1.6,0.5,3.2,0.6,4.8,0.9c-1.1,1.1-1.7,2,0.4,2.6c3.7,1.1,7.2,2.5,11,3.3c19.3,4.2,38.3,9,54.6,21
c-6.1,2-12.2,3.9-18.2,5.9c-11.7,3.9-23.2,8-32.8,16.1c-1.6-1.1-0.6-6.4-4.9-3c0,0,0,0,0,0c-3.4,2.1-2.2,6.2-4,9
c-2.1,1.6-4,3.6-6.3,4.7c-5.7,2.7-7.8,10.8-15.6,10.3c-1.5,0.3-3.6-0.9-4.5,0.8c-0.8,1.6,1.4,2.3,2.1,3.5c0.5,0.8,0.8,1.7,1.2,2.6
C714.5,395.8,713,395.2,711.6,394.6z"/>
<path fill="#CAAD9A" d="M747.9,368.5c9.6-8.1,21.1-12.3,32.8-16.1c6.1-2,12.2-3.9,18.3-5.9c1.3,0,1.9-0.7,2-2
c5.8,1.7,11-1.2,16.4-2c10.8-1.5,21.6-1,32.4-1.2c1.8,0,3.7,0.6,5.3-0.8c2.9,2,5.4,0.3,7.9-1c2.8,2.4,6.2,3.4,9.7,2.9
c7.3-0.9,14.2,0.9,21.1,2.4c17.9,3.8,34.8,10.8,51.3,18.6c0.6,0,1.2,0,1.8,0c0.6,3.1,3.5,3.8,5.6,5.2
c16.6,11.2,33.5,22.4,44.5,39.5c23,35.9,42.5,73.2,40.1,117.9c-0.4,7.2-1.3,14.3-3.7,21c-1.6,4.5-1.6,7.4,4.5,6.5
c1-0.2,2.2,0.5,3.3,0.8c-8-0.5-16.1,1.6-24.1-0.7c1.4-0.2,2.4-0.8,3-2.3c3.8-9.6,6.4-19.5,7.1-29.9c1.4-22.5-2.4-44.2-11.6-64.6
c-9.2-20.4-17.8-41.7-34.3-57.5c-27.4-26.3-59.7-43.4-98-48c-35.5-4.3-70.3-2.3-103.9,11c-10,3.9-20.2,7.6-28.4,15.1
C748.2,375,748.4,371.7,747.9,368.5z"/>
<path fill="#EF959D" d="M945,363.5c-16.5-7.8-33.4-14.8-51.3-18.6c-6.8-1.5-13.8-3.3-21.1-2.4c-3.5,0.5-6.9-0.5-9.7-2.9
c4.4-4,8.7-8,13.1-12c13.9-14.6,32.2-21.3,50.3-28.7c3.7-1.5,5.6-0.5,7.5,2.9c2.1,3.7,2.9,8.5,7.3,10.7c3.1,5.7,5.3,11.6,5.8,18.1
c-1.5,1.9-0.7,4.1-0.8,6.2C945.5,345.7,947,354.7,945,363.5z"/>
<path fill="#C9AD9A" d="M1027,563.5c-1.6,13.2-12.1,14.1-21.9,15.9c-37.6,6.9-75.3,13-113.3,16.8c-31.2,3.1-62.4,2.5-93.6-0.3
c-25-2.2-49.9-4.7-74.6-9.4c-6-1.1-12.1-2.2-17.7-4.8c2.3-2.7,4.6-5.5,7-8.2c5.9,1.7,11.6,3.8,17.6,4.9c24.3,4.6,48.8,7,73.4,9.4
c34.7,3.4,69.2,2.6,103.7-1.5c29.9-3.5,59.7-8.4,89.3-14c4.4-0.8,9.8,0.1,12.9-4.6c4.2,2.2,7.9,2.7,11.4-1.7
C1022.4,564.5,1025,564.3,1027,563.5z"/>
<path fill="#D5AF81" d="M876,327.5c-4.3,4-8.7,8-13.1,12c-2.5,1.3-5,3-7.9,1c3.5-8,7-16.1,10.6-24.1c7.4-16.9-3.1-26.1-18-26.1
c-18.8,0-25.8,4.1-29.5,17.4c-2.7,9.8-0.8,14,8.1,17.8c-8.9,2-16-3.6-14.2-12.3c4.4-21.5,18.6-42.2,47.3-37.4
c6.4,1.1,12.9,1.4,19.3,2.4c4.3,0.7,6.4,3.5,6.6,8c0.3,10.2,0,20.3-3.2,30.1C880.1,320.2,877,323.3,876,327.5z"/>
<path fill="#C8AE9A" d="M711.6,394.6c1.5,0.6,2.9,1.2,4.4,1.8c2.4,1.7,4.6,3.5,5.9,6.3c-3.9,3.2-6.7,7.4-9.1,11.6
c-19.5,34.4-33.1,70.5-28.6,111.1c1.2,10.4-0.6,21.3,4.8,31.1c-4,0.7-8,1.4-12,2c-0.4-0.1-0.8-0.2-1.2-0.3
c-0.9-12.7-2.1-25.5-2.6-38.2c-1.2-27,5.9-52.2,15.9-77c6-14.9,12.7-29.2,22.6-42C713.5,398.7,712.8,396.7,711.6,394.6z"/>
<path fill="#DE838D" d="M801,344.5c-0.1,1.3-0.7,2-2,2c-16.3-12-35.3-16.8-54.6-21c-3.7-0.8-7.3-2.2-11-3.3
c-2.1-0.6-1.5-1.6-0.4-2.6c3-6.8,9.2-10.3,14.9-14.2c2.4-1.6,5.2-0.1,7.6,0.9C774.5,314.4,790.6,326.1,801,344.5z"/>
<path fill="#E86C6E" d="M677,558.6c4-0.7,8-1.4,12-2c8.2-3.8,16.3-0.5,24.5-0.1c5.1,0.2,5.4,2.6,3.8,6.5
c-1.5,3.5-2.9,7.1-4.3,10.6c-2.3,2.7-4.6,5.5-7,8.2c-6.8,2.3-9.8-4.8-15.2-6.1c6.2-2.8,5.9-7.1-0.5-14.5c-2.4-2.7-4.8-3.7-7.6-1.6
c-3.1,2.3-1.8,5.3-0.1,7.9c1.8,2.9,5.6,4.3,6.4,7.9c-0.2,0.2-0.5,0.2-0.8,0.2c-5,1.5-5.5,5.8-6.2,9.9c0,0,0,0,0,0
c-3.1-0.3-6.2-0.6-9.2-0.9c-4.3-0.4-8.1-1.8-11.9-3.9c3.1-5.8,9.4-1.2,13.5-4c1-0.7,3.7,1.5,4.4-1.3c0.5-2.1,0.3-4.1-1.4-6
C672.4,563.7,672.5,563.6,677,558.6z"/>
<path fill="#E76B6E" d="M1027,563.5c-2,0.8-4.6,1-5.7,2.5c-3.4,4.4-7.2,3.9-11.4,1.7c-6.7-3.1-7.2-11.5-13-15.7
c6.7,0.6,13.4,1.1,20,1.7c8,2.3,16.1,0.2,24.1,0.7c7.2,0.6,12.9,4.9,19.4,7.5c2.7,1.1,1.9,2.9-0.2,3.8c-6.7,2.8-13.1,6.4-20.5,7.4
c-3.2,0.4-4.8-0.4-5.9-3.6C1032.7,566.5,1031.4,563,1027,563.5z"/>
<path fill="#E86B6F" d="M677,558.6c-4.5,5.1-4.6,5.1,0.4,10.8c1.7,1.9,1.9,3.9,1.4,6c-0.7,2.8-3.3,0.6-4.4,1.3
c-4.2,2.8-10.4-1.8-13.5,4c-4.5-3.4-9-6.7-13.5-10.1c-1.5-1.1-2.2-2.7,0.2-3.1c9.9-1.9,18.3-8,28.3-9.3
C676.2,558.3,676.6,558.4,677,558.6z"/>
<path fill="#DB838C" d="M876,327.5c1-4.2,4-7.3,6-11c7.4-5.9,14.6-12,22.1-17.6c3.4-2.5,7.5-5.5,10.5,1c1.1,2.5,2.8,0.9,4.2,0.4
c12.9-4.9,12.9-5,19.6,6.9c1,1.7,1.8,3.6,2.6,5.3c-4.3-2.3-5.1-7-7.3-10.7c-1.9-3.4-3.7-4.4-7.5-2.9
C908.3,306.2,889.9,312.9,876,327.5z"/>
<path fill="#DD5E5F" d="M689,575.4c-0.8-3.7-4.5-5.1-6.4-7.9c-1.7-2.6-3-5.6,0.1-7.9c2.8-2.1,5.2-1.1,7.6,1.6
c6.4,7.4,6.7,11.6,0.5,14.5C690.2,575.5,689.6,575.5,689,575.4z"/>
<path fill="#CB858C" d="M945,363.5c2-8.8,0.5-17.8,1-26.6c0.1-2.1-0.7-4.3,0.8-6.2c1.7,11,0.7,21.9,0,32.9
C946.2,363.5,945.6,363.5,945,363.5z"/>
<path fill="#E86B6F" d="M682,585.5c0.8-4.1,1.2-8.4,6.2-9.9C686.2,578.9,684.1,582.2,682,585.5z"/>
<path fill="#E86B6F" d="M672.7,584.6c3.1,0.3,6.2,0.6,9.2,0.9C678.6,587.7,675.7,585.9,672.7,584.6z"/>
<path fill="#FED63A" d="M721.8,402.7c-1.2-2.8-3.5-4.6-5.9-6.3c-0.4-0.9-0.8-1.7-1.2-2.6c-0.7-1.2-2.9-1.9-2.1-3.5
c0.8-1.7,2.9-0.5,4.5-0.8c4.1,1,8.2,2.1,12.4,2.9c2,0.3,4.5,0.7,5.4-2.2c1.4-4.2,2.7-8.5,4.1-12.7c2.5-3.6,2.8-7.9,4-12
c0,0,0,0,0,0c2.6,0.4,2.5,2.7,3.3,4.4c1.6,3.5,1.3,7.9,4.8,10.6c0.7,1.5,1.7,2.9,2.1,4.4c2.4,8.7,7.1,14.2,16.9,15
c5.1,0.4,10.1,2.7,15.6,4.3c-5,5.6-11.6,7.8-17.9,10.4c-2.9,1.2-3.9,2.7-3.4,6.1c1,6,1.2,12.2,1.6,18.3c0.1,0.9,0,2.3-0.5,2.7
c-1.1,0.9-2.1-0.3-3-1c-4.6-3.3-9.8-6.1-13.4-10.2c-4.6-5.2-9.1-3.5-13.7-1.5c-3.6,1.5-7,3.7-10.5,5.6c-1.1,0.6-2,2.1-3.5,0.8
c-1.2-1.1-0.8-2.5-0.5-3.7c0.3-1.3,1.1-2.5,1.3-3.7C723.1,419.5,733.4,410.9,721.8,402.7z"/>
<path fill="#CCAC94" d="M739,377.5c-1.4,4.2-2.7,8.5-4.1,12.7c-0.9,2.9-3.4,2.5-5.4,2.2c-4.2-0.7-8.3-1.9-12.4-2.9
c7.7,0.4,9.8-7.7,15.6-10.3c2.3-1.1,4.2-3.1,6.3-4.7C739,375.5,739,376.5,739,377.5z"/>
<path fill="#F2C057" d="M751.1,380.5c-3.5-2.7-3.2-7-4.8-10.6c-0.8-1.7-0.7-4-3.3-4.4c4.3-3.3,3.4,1.9,4.9,3
c0.5,3.1,0.3,6.5,2.9,8.9C750.9,378.5,751,379.5,751.1,380.5z"/>
<path fill="#F2C057" d="M739,377.5c0-1,0-2,0-3c1.9-2.8,0.6-6.9,4-9C741.8,369.6,741.4,373.9,739,377.5z"/>
<path fill="#F9D7D5" d="M751.1,380.5c-0.1-1-0.2-2-0.2-3.1c8.2-7.5,18.3-11.1,28.4-15.1c33.6-13.2,68.4-15.2,103.9-11
c38.3,4.6,70.6,21.7,98,48c16.5,15.9,25.1,37.1,34.3,57.5c9.2,20.4,13,42.1,11.6,64.6c-0.6,10.4-3.3,20.2-7.1,29.9
c-0.6,1.4-1.6,2.1-3,2.3c-6.7-0.6-13.4-1.1-20-1.7c5.8,4.2,6.3,12.6,13,15.7c-3.1,4.7-8.5,3.8-12.9,4.6
c-29.6,5.6-59.4,10.4-89.3,14c-34.5,4.1-69.1,4.9-103.7,1.5c-24.6-2.4-49.1-4.8-73.4-9.4c-6-1.1-11.8-3.3-17.6-4.9
c1.4-3.5,2.8-7.1,4.3-10.6c1.6-3.9,1.4-6.2-3.8-6.5c-8.2-0.4-16.3-3.7-24.5,0.1c-5.4-9.8-3.6-20.7-4.8-31.1
c-4.5-40.5,9.1-76.6,28.6-111.1c2.4-4.3,5.2-8.5,9.1-11.6c11.5,8.2,1.2,16.8,0.4,25.2c-0.1,1.3-0.9,2.5-1.3,3.7
c-0.3,1.3-0.7,2.6,0.5,3.7c1.5,1.3,2.4-0.2,3.5-0.8c3.5-1.9,6.8-4.1,10.5-5.6c4.7-1.9,9.1-3.7,13.7,1.5c3.6,4.1,8.8,6.9,13.4,10.2
c0.9,0.6,1.9,1.9,3,1c0.6-0.4,0.6-1.8,0.5-2.7c-0.5-6.1-0.7-12.3-1.6-18.3c-0.5-3.4,0.5-4.9,3.4-6.1c6.3-2.6,12.9-4.9,17.9-10.4
c-5.6-1.6-10.5-3.9-15.6-4.3c-9.7-0.8-14.5-6.3-16.9-15C752.8,383.4,751.8,382,751.1,380.5z M948.9,491.5
c0.9-11.1,1.2-22.2,0.1-33.3c-0.4-4.2-1.9-9.1-6.7-9.2c-4.5,0-7.2,4.1-7.4,8.7c-0.5,11.3-0.6,22.6-0.9,33.9
c-1.5,11.4-1.2,22.9-1.1,34.3c0,4.3,2,8.1,6.8,8.4c4.7,0.2,6.6-3.3,7.1-7.5C948.1,515,949.4,503.3,948.9,491.5z M844.1,489.5
c-1.3,12.3-1.4,24.6-1.1,36.9c0.1,4.1,1.9,7.7,6.5,8.1c4.3,0.4,7.7-1.8,8.2-6.3c1.7-15.8,3.4-31.7,3.1-47.6
c-0.2-7.6,0-15.3-0.7-22.8c-0.4-4.1-2.4-8.8-7.4-8.5c-4.7,0.3-7.5,4.2-7.7,9C844.5,468.6,844.4,479,844.1,489.5z"/>
<path fill="#72A1B7" d="M860.8,480.5c0.3,16-1.4,31.8-3.1,47.6c-0.5,4.5-3.9,6.6-8.2,6.3c-4.6-0.4-6.4-4-6.5-8.1
c-0.3-12.3-0.2-24.6,1.1-36.9c1.3,0,2.7-0.2,4,0.2C856.2,492,861.8,490.9,860.8,480.5z"/>
<path fill="#245184" d="M860.8,480.5c1,10.4-4.6,11.5-12.8,9.1c-1.2-0.4-2.6-0.1-4-0.2c0.3-10.4,0.5-20.9,0.9-31.3
c0.2-4.8,3-8.7,7.7-9c5-0.3,7,4.4,7.4,8.5C860.9,465.2,860.6,472.9,860.8,480.5z"/>
<path fill="#73A0B7" d="M948.9,491.5c0.5,11.8-0.8,23.5-2.1,35.2c-0.5,4.2-2.4,7.7-7.1,7.5c-4.8-0.2-6.8-4.1-6.8-8.4
c-0.1-11.5-0.5-22.9,1.1-34.3C939,491.5,944,491.5,948.9,491.5z"/>
<path fill="#225183" d="M948.9,491.5c-5,0-9.9,0-14.9,0c0.3-11.3,0.4-22.6,0.9-33.9c0.2-4.6,2.9-8.7,7.4-8.7c4.8,0,6.3,5,6.7,9.2
C950.1,469.3,949.8,480.4,948.9,491.5z"/>
</g>
</g>
</svg>
