<svg width="158" height="158" viewPort="0 0 158 158" xmlns="http://www.w3.org/2000/svg" xml:space="preserve" version="1.0">
 <g>
   <path fill="white" d="m97.66769,70.39357c5.2,-5.2 10.5,-10.3 15.7,-15.5c8.8,-8.6 17.4,-17.4 26.1,-26c5.5,-5.4 14,-4.1 17.4,2.5c0.7,1.4 1.1,2.9 1.1,4.5l0,85.8c0,5.6 -4.3,10.1 -9.9,10.5l-111.3,0c0.2,-0.2 0.2,-0.5 0.3,-0.6l8.8,-8.8c2,-1.7 3.8,-3.6 5.4,-5.7c0.4,-0.3 0.7,-0.6 1.1,-0.9l11.4,-11.4c1.2,-1.2 1.1,-1.2 2,0.2c2.3,3.7 4.5,7.2 6.8,10.9c0.3,0.5 0.5,0.8 1.1,0.8c3.1,0 6,0 9.1,-0.2c2.6,0.2 5.2,0.3 7.8,0.2c2.4,0.1 4.8,0 7.2,-0.2c0.3,0 0.6,0.2 0.9,0.2l43.1,0c1.1,0 1.2,-0.5 1.2,-1.4l0,-66.6c0,-0.5 0.3,-0.9 -0.3,-1.2s-0.8,0.3 -1.1,0.6l-26.8,26.8c-5.7,5.5 -11.2,11.2 -16.9,16.8c-0.1,-0.3 -0.2,-0.6 -0.2,-0.9l0,-19.4c-0.1,-0.1 -0.1,-0.6 0,-1z" class="st0"/>
   <path fill="#3DD4ED" d="m97.56769,116.79357c-2.4,0.2 -4.8,0.2 -7.2,0.2c-2.6,0.1 -5.2,0 -7.8,-0.2l0,-45.7c-0.5,0.2 -1,0.6 -1.4,1.1c-6.2,6.2 -12.3,12.3 -18.6,18.5c-8.3,8.3 -16.8,16.6 -25.1,25.1c-0.3,0.3 -0.8,0.5 -0.6,0.9s0.8,0.3 1.2,0.3l11.7,0c0.5,0 0.9,-0.2 1.4,0.3c-1.6,2 -3.4,3.9 -5.4,5.7l-8.8,8.8c-0.2,0.2 -0.2,0.3 -0.3,0.6l-35.4,0c-0.5,0 -1.1,0.3 -1.2,-0.3c-0.2,-0.6 0.5,-0.8 0.8,-1.1l63.2,-63.2c5.1,-5.1 10.1,-10.1 15.2,-15.1c2.1,-2.4 5.1,-3.6 8.3,-3.5c5.5,0.1 9.9,4.5 10.1,10c0.2,3.9 0,7.5 0.2,11.4c0,0.5 -0.2,0.9 -0.2,1.2l0,19.3c0,0.3 0,0.6 0.2,0.9l0,15.2c-0.3,3.1 -0.3,6.4 -0.3,9.6z" class="st1"/>
 </g>
</svg>
