<?xml version="1.0" encoding="utf-8"?>
<!-- Generator: Adobe Illustrator 25.0.1, SVG Export Plug-In . SVG Version: 6.00 Build 0)  -->
<svg version="1.0" id="Layer_1" xmlns="http://www.w3.org/2000/svg" xmlns:xlink="http://www.w3.org/1999/xlink" x="0px" y="0px"
	 viewBox="0 0 862.3 508.5" style="enable-background:new 0 0 862.3 508.5;" xml:space="preserve">
<style type="text/css">
	.st0{fill:#1D2939;}
	.st1{fill:#3DD4ED;}
	.st2{fill:none;}
</style>
<path class="st0" d="M167.1,245.6c5.2-5.2,10.5-10.3,15.7-15.5c8.8-8.6,17.4-17.4,26.1-26c5.5-5.4,14-4.1,17.4,2.5
	c0.7,1.4,1.1,2.9,1.1,4.5v85.8c0,5.6-4.3,10.1-9.9,10.5H106.2c0.2-0.2,0.2-0.5,0.3-0.6l8.8-8.8c2-1.7,3.8-3.6,5.4-5.7
	c0.4-0.3,0.7-0.6,1.1-0.9l11.4-11.4c1.2-1.2,1.1-1.2,2,0.2c2.3,3.7,4.5,7.2,6.8,10.9c0.3,0.5,0.5,0.8,1.1,0.8c3.1,0,6,0,9.1-0.2
	c2.6,0.2,5.2,0.3,7.8,0.2c2.4,0.1,4.8,0,7.2-0.2c0.3,0,0.6,0.2,0.9,0.2h43.1c1.1,0,1.2-0.5,1.2-1.4v-66.6c0-0.5,0.3-0.9-0.3-1.2
	s-0.8,0.3-1.1,0.6l-26.8,26.8c-5.7,5.5-11.2,11.2-16.9,16.8c-0.1-0.3-0.2-0.6-0.2-0.9v-19.4C167,246.5,167,246,167.1,245.6z"/>
<path class="st1" d="M167,292c-2.4,0.2-4.8,0.2-7.2,0.2c-2.6,0.1-5.2,0-7.8-0.2v-45.7c-0.5,0.2-1,0.6-1.4,1.1
	c-6.2,6.2-12.3,12.3-18.6,18.5c-8.3,8.3-16.8,16.6-25.1,25.1c-0.3,0.3-0.8,0.5-0.6,0.9s0.8,0.3,1.2,0.3h11.7c0.5,0,0.9-0.2,1.4,0.3
	c-1.6,2-3.4,3.9-5.4,5.7l-8.8,8.8c-0.2,0.2-0.2,0.3-0.3,0.6H70.7c-0.5,0-1.1,0.3-1.2-0.3c-0.2-0.6,0.5-0.8,0.8-1.1l63.2-63.2
	c5.1-5.1,10.1-10.1,15.2-15.1c2.1-2.4,5.1-3.6,8.3-3.5c5.5,0.1,9.9,4.5,10.1,10c0.2,3.9,0,7.5,0.2,11.4c0,0.5-0.2,0.9-0.2,1.2v19.3
	c0,0.3,0,0.6,0.2,0.9v15.2C167,285.5,167,288.8,167,292z"/>
<path class="st0" d="M654.8,262.9v40.3c0,2.5-0.6,3.1-2.9,2.9c-2.4-0.1-4.8-0.1-7.2,0c-2.3,0.2-3.2-0.6-2.9-2.9
	c0.2-0.9,0.5-2.2-0.3-2.6c-0.8-0.5-1.5,0.8-2.3,1.2c-10.6,7.5-22,7.5-33.2,2.5c-11.5-5.2-18-14.9-18.9-27.7
	c-1.2-15.1,4.5-27.1,18-34.2c11.7-6,23.7-5.1,34.6,2.6c0.6,0.5,1.2,1.5,2,1.1s0.3-1.5,0.3-2.3c0-7.2,0.2-14.6,0-21.8
	c0-1.9,0.5-2.5,2.3-2.3c2.7,0.2,5.4,0.2,8.2,0c2-0.1,2.5,0.6,2.5,2.5V262.9z M600.2,272.9c-0.3,12,9.2,21.9,21.2,22.2l0,0
	c11.1,0,20.8-10,20.8-21.4c0-11.8-9.8-22.3-21.1-22.2C609.5,251.7,600.1,261.3,600.2,272.9L600.2,272.9z"/>
<path class="st1" d="M662.5,263.4v-38.9c0-4.8,0-4.8,4.6-4.8h48.5c3.7,0,3.7,0,3.7,3.9c0,1.8-0.2,3.5,0,5.4c0.2,2.1-0.5,2.9-2.8,2.9
	c-12.2-0.1-24.3,0-36.5-0.1c-2.9,0-3.5,0.8-3.5,3.5c0.2,6.3,0.2,12.8,0,19.1c0,2.5,0.8,2.9,3.1,2.9c12-0.2,24,0,35.8,0
	c3.7,0,3.7,0,3.8,3.8c0,1.9-0.2,3.7,0,5.5c0.2,2.1-0.6,2.9-2.8,2.9c-12-0.1-24.2,0-36.1,0c-3.7,0-3.7,0-3.7,3.7
	c0,6,0.2,12.2-0.2,18.2c-0.2,2.6,0.8,3.1,3.2,3.1c12.2-0.2,24.3,0,36.5-0.2c2.5,0,3.4,0.8,3.1,3.2c-0.2,2.4-0.2,4.7,0,7.1
	c0.2,2.1-0.6,2.9-2.9,2.9c-6.8-0.2-13.7,0-20.5,0h-30.3c-2.5,0-3.4-0.6-3.4-3.4C662.5,290.5,662.5,276.9,662.5,263.4L662.5,263.4z"
	/>
<path class="st0" d="M333.2,307.4c-4.6,0-8.9-0.1-13.4,0c-1.7,0-2-1.1-2.5-2.1c-2.5-6.3-4.8-12.8-7.1-19.1c-0.8-2.2-1.7-3.1-4.2-2.9
	c-8.8,0.2-17.5,0.2-26.3,0c-1.6-0.2-3.2,0.9-3.5,2.5c-2.5,6.6-5.1,13.2-7.5,19.8c-0.3,1.3-1.5,2.1-2.8,2c-4.1-0.2-8.1,0-12.6,0
	c2-5.4,4-10.5,6-15.5c8.9-22.6,17.7-45.2,26.4-67.8c0.8-1.8,1.5-2.6,3.5-2.5c2.9,0.1,5.7,0.1,8.6,0c1.1-0.2,2.2,0.5,2.6,1.5
	c10.8,27.8,21.6,55.7,32.6,83.5L333.2,307.4z M293.4,240.6c-3.7,9.7-7.1,18.6-10.5,27.5c-0.5,1.1,0,1.5,1.1,1.5h18.5
	c1.1,0,1.5-0.2,1.1-1.5C300.3,259.3,296.9,250.2,293.4,240.6z"/>
<path class="st0" d="M496.9,278.3h-24.5c-2.3,0-2.5,0.6-1.8,2.6c2.9,7.5,8.1,12.5,16.3,13.7c7.7,1.5,15.4-2,19.5-8.6
	c0.4-1.1,1.5-1.7,2.6-1.5c3.7,0.2,7.2,0,10.9,0c1.5,0,2.2,0.3,1.4,1.8c-4.6,10.5-11.8,18.6-23.2,20.8c-24.9,4.8-41.2-11.8-42.1-33
	c-0.8-16.8,11.5-30,23.2-33.7c17.8-5.7,36.8,4.1,42.6,21.8c0.6,1.8,1,3.7,1.3,5.5c0.4,2.8,0.7,5.5,0.8,8.3c0.2,1.9-0.3,2.6-2.5,2.6
	C513.3,278.2,505,278.3,496.9,278.3z M489.6,266.4c5.7,0,11.4-0.2,17.1,0c2.6,0,2.5-0.8,1.7-2.8c-3.5-7.9-9.5-12.5-18.3-12.3
	S475,256,471.3,264c-0.8,1.7-0.8,2.5,1.5,2.5C478.4,266.3,483.9,266.5,489.6,266.4L489.6,266.4z"/>
<path class="st1" d="M785.1,307.4c-6.2,1.7-9.1-1.7-11.7-6.6c-4.5-8.5-9.8-16.3-14.2-24.8c-1.1-2-1.5-1.4-2.5,0.2
	c-5.5,9.8-11.7,19.5-17.7,29.2c-0.7,1.4-2.3,2.3-3.8,2.2c-3.2-0.2-6.6,0-9.8,0c-2.6,0-2.8-0.3-1.4-2.6c6.8-11.1,13.7-22,20.6-33.1
	c1.7-2.8,3.4-5.5,5.2-8.3c1-1.2,1-2.9,0-4.2c-7.2-11.8-14.5-23.8-21.5-35.7c-0.6-1.1-2.2-2.3-1.4-3.7c0.8-1.1,2.5-0.3,3.7-0.5
	c1.2-0.1,2.5-0.1,3.7,0c7.1,0,7.1,0,10.6,6c4.2,7.2,8.3,14.3,12.3,21.5c0.9,1.7,1.4,1.7,2.3,0c4.6-8.5,10-16.3,14.9-24.6
	c1-2.1,3.2-3.4,5.5-3.1c2.8,0.2,5.6,0.2,8.5,0c0.8,0,1.8-0.5,2.3,0.5s-0.6,1.5-0.9,2.1c-7.5,12.3-15.1,24.6-22.8,36.9
	c-1,1.1-1,2.8-0.2,4c8.5,14,16.8,28,25.2,42c1.1,1.7,1.1,2.5-1.2,2.5C788.9,307.3,786.9,307.4,785.1,307.4z"/>
<path class="st0" d="M422.1,307.4c-17.7,0-31.2-11.5-33.8-27.4c-3.4-19.8,9.1-36,24.5-40c17.7-4.6,34.1,3.1,40.6,21.5
	c0.5,1.5,0.5,2-1.2,2c-3.7,0-7.2-0.2-10.9,0c-1,0.1-2-0.5-2.3-1.5c-5.1-9.4-16.1-11.8-24.6-8.8c-8.5,3.1-13.7,12.9-12.8,22.8
	c1.1,12.8,12.8,22.5,26.6,18.1c4.7-1.5,8.6-4.8,10.8-9.2c0.5-1.3,1.8-2.2,3.2-2c3.4,0.2,6.8,0,10.1,0c1.2,0,2.1,0,1.5,1.7
	c-4.3,11.2-11.3,19.7-23.6,22.7C427.6,307.5,424.9,307.5,422.1,307.4z"/>
<path class="st0" d="M583.9,285.5v19.7c0,1.7-0.5,2.3-2.2,2.1c-2.7-0.1-5.4-0.1-8.2,0c-2.3,0.2-3.1-0.5-2.9-2.9
	c0.2-11.2,0.2-22.6,0-33.8c0-7.4-3.7-12.9-10-15.2c-9.7-3.7-20.1,3.8-20.3,14.5c-0.1,11.7,0,23.4,0,35.1c0,2-0.3,2.9-2.5,2.6
	c-2.9-0.2-5.7-0.2-8.6,0c-1.5,0-2.2-0.3-2.2-2c0-12.6-0.2-25.2,0.2-37.8c0.4-13.6,10.4-25,23.8-27.2c14.5-2,27.4,6,31.7,19.5
	c0.9,2.9,1.4,6,1.2,9.1C583.9,274.5,583.9,280,583.9,285.5z"/>
<path class="st0" d="M357.7,307.3c-5.6,0.7-11.3-0.7-16-3.8c-4.8-3.3-8.1-8.3-9.4-14c-0.3-1.5,0-2,1.5-2c3.4,0,6.9,0.2,10.3,0
	c0.9-0.1,1.8,0.5,2,1.4c2.9,7.7,12.1,9.4,18.5,7.2c2.7-0.8,4.7-3.1,5.1-5.8c0.4-2.7-0.8-5.4-3.1-6.8c-2.9-2.3-6.5-3.2-9.8-4.6
	c-4.2-1.7-8.3-3.8-12.1-6.2c-10.3-6.1-9.8-21.5,0.3-28.1c9.4-6,24-5.8,32.1,0.6c3.4,2.6,5.9,6.1,7.2,10.1c0.5,1.5,0.3,2.5-1.7,2.3
	c-3.2-0.2-6.4-0.2-9.5,0c-1.6,0.1-3-0.7-3.8-2c-3.1-4.6-9.4-5.8-14-2.7c-1,0.6-1.8,1.5-2.5,2.4c-1.6,1.7-1.5,4.4,0.2,6
	c2.2,2.3,5,4,8,4.9c4.9,1.6,9.7,3.6,14.3,6.1c6.1,3.7,9.4,9.1,8.9,16.1c-0.5,8.2-4.8,13.7-12.3,16.8
	C367.5,307.5,363.1,307.4,357.7,307.3z"/>
<rect x="50.3" y="175.6" class="st2" width="761.7" height="157.4"/>
</svg>
