<svg width="259" height="259" viewBox="0 0 259 259" fill="none" xmlns="http://www.w3.org/2000/svg">
<path d="M118.78 258.198C76.8239 253.97 38.608 231.853 18.1178 199.817C9.82417 186.807 3.31934 170.22 1.20527 156.723C0.213288 147.325 -0.167245 137.873 0.0669293 128.427C1.04265 99.1548 7.87272 76.5505 21.6955 56.3855C25.987 50.071 31.0088 44.2849 36.6566 39.1477C47.4953 28.5839 60.0984 19.9991 73.8967 13.7789C86.4592 7.692 99.9063 3.62973 113.739 1.74496C124.501 0.661904 135.349 0.715568 146.1 1.90758C170.819 5.64786 192.61 16.2182 213.588 34.5943C234.566 52.9705 250.503 77.3636 255.869 100.781C257.983 109.563 258.309 112.978 258.309 123.873C258.575 131.853 257.809 139.833 256.032 147.616L254.731 153.795L250.178 154.771C236.778 157.378 223.573 160.91 210.661 165.341C202.855 168.269 201.229 168.919 189.683 173.96C178.137 179.002 173.583 180.79 167.566 182.417C155.044 185.832 141.71 186.157 132.765 183.23C120.569 179.164 111.462 169.407 109.511 158.511C108.891 153.569 109.166 148.557 110.324 143.713C112.926 134.443 118.617 124.849 127.562 114.929L130.651 111.677C130.651 111.677 131.302 115.742 131.79 120.458C132.278 125.174 132.928 129.24 132.928 129.402L136.506 128.264C147.245 124.397 158.866 123.663 170.006 126.15C178.787 128.314 187.422 131.03 195.862 134.281C199.765 135.744 203.993 137.208 205.457 137.533C213.998 138.688 222.695 137.566 230.663 134.281C232.615 133.468 232.777 133.305 233.265 131.354C233.917 126.823 233.917 122.224 233.265 117.694L232.777 115.254L224.809 109.888C177.324 78.3393 137.319 59.4753 103.494 52.9705C94.2243 51.019 78.1249 49.5555 78.1249 50.5312C78.1249 51.5069 78.1249 51.1817 77.9623 51.3443C77.7996 51.5069 82.5156 54.1088 94.8748 60.1258L111.95 68.4195C109.571 69.4489 107.127 70.3189 104.632 71.0214C95.4131 74.0185 86.3974 77.6043 77.637 81.7544C71.1322 85.0068 61.7002 90.3733 61.7002 91.0238L69.506 91.9995L77.3118 92.65L73.0836 97.2033C67.2293 103.22 63.9769 107.123 55.6832 117.206L48.8531 125.825H54.8701C56.885 125.831 58.8966 125.994 60.8871 126.312C60.8871 126.475 58.1225 135.744 54.7075 146.965C51.2925 158.186 48.5279 167.455 48.6905 167.455L55.0327 166.155C59.2609 165.179 61.5376 164.854 61.7002 165.179C61.8628 165.504 62.5133 174.448 63.3264 185.344C64.1395 196.239 64.6274 205.184 64.79 205.184C66.7609 203.887 68.6116 202.419 70.3191 200.793L76.1734 196.402C76.3361 196.402 81.2147 203.72 87.2316 212.664C93.2486 221.608 98.1272 228.926 98.2898 228.926C100.168 227.224 101.908 225.375 103.494 223.397C107.397 218.844 108.535 217.705 108.86 218.193L113.414 223.56C115.528 226.162 119.431 230.39 122.032 232.992L126.586 237.545H136.343C151.792 237.545 161.387 239.009 174.234 243.725L178.137 245.026L176.836 246.001C169.192 251.693 159.273 255.433 146.913 257.385C141.958 258.094 136.958 258.419 131.952 258.361C126.586 258.523 120.569 258.36 118.78 258.198Z" fill="#00FFFF"/>
</svg>
