<?xml version="1.0" encoding="utf-8"?>
<!-- Generator: Adobe Illustrator 25.2.3, SVG Export Plug-In . SVG Version: 6.00 Build 0)  -->
<svg version="1.1" id="Layer_1" xmlns="http://www.w3.org/2000/svg" xmlns:xlink="http://www.w3.org/1999/xlink" x="0px" y="0px"
	 viewBox="0 0 500 500" style="enable-background:new 0 0 500 500;" xml:space="preserve">
<style type="text/css">
	.st0{fill:#F6E3BC;}
	.st1{fill:#006673;}
	.st2{fill:#FF8834;}
	.st3{fill:#BE1E2D;}
	.st4{stroke:#000000;stroke-width:3;stroke-miterlimit:10;}
</style>
<rect y="-2.3" class="st0" width="500" height="504.6"/>
<path class="st1" d="M276.9,64.2c-7.5-60.1-75-56.5-122.9-50.1c-1,0.1-2.1-0.2-3-0.1s-1.7,0.8-2.9,1.1s-2.1-0.2-3-0.1
	s-3.8,0.9-5.9,1s-4.3,1.4-6.1,1.7c-0.9,0.1-1.9,0.2-2.8,0.2c-0.9,0.1-1.5,0.7-2.1,0.8c-59.8,12.4-63.8,87.9-76.8,136.2
	c-1.8,6.7-3.7,13.4-5.4,20.1c-0.1,3,0.8,5.7,1,8.6s-0.5,3.7-0.1,5.2s0.8,1.6,1,2.9c-0.1,0.7-0.1,1.4,0.2,2l1.6,1.9
	c0.8,2.1,0.9,4.2,1.9,6.1s2.9,5.2,4.2,7.7S58,213,59,215c0.4,1.1,0.8,2.2,1.4,3.3c0.6,1,1.8,1.5,2.5,2.6c2.5,3.7,5.2,7.1,8.3,10.3
	c7.2,7.2,16.5,12.2,24.6,18.4s18.2,11.9,27.5,17c4.8,2.6,9.3,5.7,15,5.6c3.6,0,7.2-0.3,10.7-0.9c3.4-0.6,6.6-2.3,9.1-4.7
	c0.4-0.6,0.9-1.1,1.5-1.5c0.5-0.4,1.6-0.6,2-0.9s0.5-1.6,0.9-2.1c0.4-0.5,1-1.1,1.5-1.5l1.5-0.4c0.2-0.5,0.3-1,0.4-1.5l1.5-1.5
	l3.5-3.4c2.7-2.9,5.3-5.7,7.8-8.9c1.3-1.6,3.2-2.8,4.5-4.4s0.5-1.3,0.9-1.9c0.4-0.5,1-1.1,1.5-1.5c20.3-19.5,33.1-45.2,51.5-66.3
	c1.9-2.1,3.2-4.5,4.9-6.8s0.8-2.5,1.5-3.5s1.1-0.9,1.5-1.4s1.9-3.4,3-4.9s3.2-6.3,5.3-9.4c2.4-3.3,4.6-6.7,6.4-10.3
	c1.3-2.6,3-4.9,4.2-7.5s2-3.2,2.9-5s0.7-3.2,1.2-4.7s1.9-2.1,2.6-3.3s0.5-3.4,1.1-4.8c0.9-1.8,1.6-3.7,2.2-5.6
	c0.4-1.3,1.5-2.8,1.8-4.1s0-1.9,0.2-2.8s0.6-1.5,0.7-2.2c0.5-1.9,0.9-3.9,1-5.9V75.9l0,0C277.6,72,277.4,68.1,276.9,64.2z"/>
<path class="st2" d="M429,416c0.1-3.1-1.6-5.8-2-8.8c-0.1-0.9,0.3-2.1,0.1-3s-0.8-1-1.1-1.9s0.2-2,0.1-3c-0.2-0.7-0.4-1.4-0.8-2.1
	c-0.4-1.9,0.2-3.9-0.1-5.7s-1.4-3.3-1.8-4.9c-0.2-1-0.2-2-0.2-3c-0.1-1-0.7-1.5-0.8-2.1s-0.5-3.8-1-5.7c-0.3-1.7-0.7-3.3-1.2-4.9
	c-0.5-1.2-0.9-2.6-1-3.9c-0.3-2.4-0.4-4.6-0.9-6.9s-1.2-4-1.8-5.9c-1.2-4-1.4-7.9-2.4-11.8c-0.6-2.2-0.5-4.7-1.5-6.9
	c-1-1.8-1.4-3.9-1.2-5.9c0-2-0.8-3-1-4.8s0.3-2.1,0-3.1s-0.8-0.9-1.1-1.8s0.3-4.6-0.1-6.7c-0.4-0.7-0.6-1.4-0.8-2.2
	c-0.1-0.9,0-2,0-3c0-1.7-0.3-3.3-0.9-4.9c-0.9-2-0.7-2.8-1-5.1s-0.7-3.8-1-5.6s-1.3-3-1.8-4.8s0.1-2.1-0.2-3.1s-0.7-1.7-0.8-2.2
	c-0.1-0.9-0.1-1.8-0.1-2.7c-0.2-1-0.7-1.5-0.8-2.2c-0.1-0.9-0.2-1.9-0.2-2.8c-0.1-1.1-0.5-1.3-0.8-2.4c-1.2-4.4-1.6-8.8-3.2-13.3
	c-1.1-3-1.8-6-3.8-8.8s-6-4.8-8.7-6.9s-4.6-3.1-6.8-5.1c-1-0.7-2.1-1.3-3.3-1.7c-0.7-0.4-1-0.9-1.7-1.3c-1.6-0.8-3.2-1.4-4.9-1.9
	c-1.4-0.6-2.6-2-4.1-2.5s-3.5-0.5-5-1.2s-3.2-1.5-4.9-2.2s-3.6-0.7-5.9-0.7c-1.7,0-3.3,0.3-4.8,1c-1,0.1-1.9,0.5-2.8,0.9
	c-0.8,0.5-0.7,1.2-2,1.2s-1.2,2.8-1.9,3.8s-2,2.4-2.9,3.9s-2.7,3.3-4,5.1s-0.7,2.5-1.4,3.5s-1.5,1.2-2,1.9s-1.7,4.2-2.9,5.9
	s-2,1.5-2.6,2.4s0.1,1.7-0.3,2.6l-1.1,0.9c-0.6,1-1.4,2-2,2.9s-0.8,2.2-1.4,3.3s-1.7,1.7-2.2,2.9c0.1,0.6,0,1.2-0.2,1.7
	c-0.5,0.3-0.8,0.7-1.1,1.2c-1.5,2.7-3,5.1-4.3,7.9s-2.5,4.2-3.5,6.6c-0.5,1.4-1.1,2.7-1.9,4c-2.2,2.8-3.7,5.9-5.7,9
	s-4.7,7.7-7.1,11.6c-0.9,1.4-1.6,3-2.4,4.4s-2.6,3.3-3.5,5.6c-0.7,1.7-1.6,3.4-2.7,4.9c-1,1.4-1.3,3.4-2.2,4.7s-1.8,2-2.5,3.4
	c-0.5,1.4-1.2,2.7-1.9,4c-2.2,3.3-5,6.1-6.9,9.6c-0.9,1.6-1.9,3.1-3,4.8s-1,2.8-1.9,4s-1.5,1.1-2,1.9s-1.5,3.9-2.4,5.7
	c-0.9,1.5-1.6,3.2-2,4.9c-0.8,3.4-2.5,7.3-3.5,11s-0.2,8.8-0.2,12.8s0.1,8.5,0,12.7s1.9,7.1,3.7,10.8c1.5,2.7,3.3,5.3,5.4,7.6
	c2.5,2.9,4.8,5.9,6.9,9.1c1.1,1.8,2.3,3.1,3.4,4.9s1.9,4.2,4,4.1c0.1,0.3,0.1,0.6,0.2,0.8l37.3,28.5c2.6,0.5,5.2,0.9,7.9,1h5.8
	c2,0,4,0.1,5.9,0s3.1-0.9,4.9-1c2.3-0.1,4.6-0.3,6.9-0.8c2-0.4,3.9-1,5.8-1.2s2.7,0.1,4,0.1s3.1-0.6,4.7-0.8s4.7-1,7.1-1.3
	s5.8,0.1,8.8-0.7s5.3-0.8,7.8-1.4s8.1-0.8,11.9-2.5s5-1.6,7.6-2.5c1.1-0.2,2.1-0.5,3.2-0.8c1.1-0.7,1.8-1.9,2.9-2.7s4.1-1.6,6-2.9
	c1.4-0.9,2.6-2,3.8-3.1c3.8-3.3,6.5-6.6,8.1-11.6c1.2-3.5,1.8-7.3,1.7-11L429,416z"/>
<path class="st3" d="M399.5,45.8C396,33,382.4,29.7,371,27l-20.6,5.9l-0.8,0.2c-10.8,20.8-19.2,42.7-30.3,63.3
	c-4.9,9-11.1,18.7-11.5,29.3s6.2,19.9,14.5,26.1s19.3,10.7,29.3,7.5s15.2-12.9,19.3-21.6s7.7-18.5,11.5-27.8s7.7-17.5,11.1-26.5
	C397.8,72.1,402.8,58,399.5,45.8z"/>
<g>
	<path class="st4" d="M335.8,429.4c-0.6,0.4-1.3,0.7-2.1,0.9c-1.2,0.4-2.4,0.6-3.7,0.8c-3.6,0.7-7.2,1.1-10.8,1.4
		c-10.6,1-21.2,1.4-31.9,1.6c-24.1,0.6-48.4,0.4-72.5-0.8c-7.5-0.4-15.1-0.7-22.5-2.1l-2.7-0.7c-0.6-0.2,0,0.1-0.5-0.2s0,0.1,0,0.1
		v-0.2l-0.3-0.8c-0.2-0.7-0.4-1.5-0.5-2.2c-1.1-5.5-1.8-11-2.2-16.6c-0.9-9-1.7-18.1-2.3-27.2c-1.8-24.5-3.2-49-4.4-73.5
		S176.9,258,176,232c-0.7-19.1-1.3-38.2-1.4-57.3c0-2.8-0.1-5.7,0.1-8.5c0.2-4.5,3.3-7.8,7.1-9.9c8.7-4.8,21.2-4.4,30-0.2
		c4,1.9,7.6,4.9,8.7,9.3c0.3,1,0.4,2.1,0.4,3.1c0,0.1-0.2,1,0,0.3s0.1-0.3,0-0.1h0.1l-0.9,0.4l-1.8,0.3c-3.8,0.5-7.7,0.6-11.5,0.4
		l-16.3-0.2c-11-0.3-22.1-0.6-33,1.2c-3.4,0.6-7.3,1.4-10.1,3.6s-2.4,5.6-2.4,8.9c0.2,25.7,1.5,51.3,2.8,77s3.1,53.6,6,80.3
		c0.8,7.8,1.5,15.7,3.4,23.3c0.4,1.6,0.8,3.7,2.1,4.8s4,1.8,6,2.3c8.6,1.9,17.6,2.5,26.4,3.2c12,0.8,24.1,1.3,36.1,1.4
		s22.3,0,33.3-1c4-0.3,7.9-0.9,11.8-1.7c2.3-0.5,4.9-1.1,6.7-2.7s1.3-2.7,1.6-4.1c0.7-3.6,1.1-7.2,1.3-10.8
		c0.3-6.5,0.1-14.6-3.9-20.2c-1-1.7-2.8-2.8-4.7-3.1c-2.1-0.2-4.2-0.1-6.4-0.1c-7.4,0.2-14.9-0.3-22.2-1.7
		c-7.4-1.6-14.4-4.4-20.8-8.4l-2.8-1.8v-0.2c-0.1-1.2,1.5-2.9,2.4-3.8c1.9-2,3.9-3.7,6.2-5.2c4.6-3.3,9.9-6.3,15.4-7.5
		c0.9-0.2,1.9-0.3,2.8-0.2c1.3,0,2.3,0.8,3.4,1.3c3,1.4,6.5,1.7,9.7,0.9c2.7-0.6,5.2-2,8-2c1.7,0,3.5,0.4,5,1.2
		c2.5,1.1,4.9,2.4,7.3,3.7s7.6,3.7,10.6,6.6c0.3,0.2,0.6,0.5,0.7,0.9c-0.1-0.3,0.2-0.5-0.2-0.3s-0.3,0.1-0.4,0.2l-0.9,0.2
		c-4.2,0.8-8.5,1.2-12.8,1.2c-6.1,0.2-12.2,0.3-18.3,0.2c-6.1-0.1-11.5-0.3-17.2-0.9c-1.9-0.2-3.9-0.4-5.9-0.8
		c-0.6-0.2-1.3-0.4-1.9-0.6l-0.7-0.4c0.1,0.1,0.2,0.5,0.1,0.1c-0.1-0.2-0.1-0.4-0.1-0.6l-0.3-2.1c-0.2-2.4-0.3-4.8-0.4-7.1
		c-0.4-6.6-0.6-13.1-0.8-19.7s-0.3-12.1-0.3-18.2c0-1.3-0.2-4,0.2-4.9s0.5-0.4,1-0.5c0.9-0.2,1.8-0.3,2.7-0.2
		c6.9,0.3,23.5,5.5,23.6-6.3c0-6.9-8.5-8.6-13.8-6.7c-7.2,2.5-8.8,11.8-8.8,18.4c0,2-0.1,4.6,1.6,5.9c1.2,0.8,2.6,1.4,4.1,1.6
		c5.1,1,10.2,1.5,15.4,1.6c5.7,0.2,11.5,0,17.2-0.5c2.9-0.3,7.9-0.4,10.1-2.9s0.7-3.2,0.7-4.7s-0.2-4.4-0.4-6.6
		c-0.4-5.5-1.1-10.9-1.8-16.4c-1.5-13-3.3-25.9-4.1-39c-0.7-11.5-1.2-23.6,1.9-34.8c1-4.1,3-7.9,5.9-11c3.4-3.3,7.7-4,12.3-4
		c6.5-0.1,13.6,1.3,18.5,5.9c2.6,2.3,4.8,5.9,4.5,9.5c-0.1,1.1-0.6,1.6-1.1,1.7c-2.2,0.7-4.5,1.1-6.8,1.3
		c-6.9,0.5-13.7,0.7-20.6,0.4c-6.9-0.2-13.7-0.6-20.5-1.3c-2.3-0.2-4.5-0.5-6.7-1c-1-0.1-1.9-0.6-2.5-1.4c-2.2-2.2-3.4-5.8-4.3-8.8
		c-1.4-4.8-2.5-9.7-3.3-14.6c-1.9-12.2-3-24.4-3.4-36.7c-0.6-10.5-0.5-20.9,0.2-31.4c0.2-1.5,0.3-3.1,0.6-4.7l0.3-1.6
		c0.1-0.2,0.2-0.5,0.2-0.7c0.1-0.2,0.3-0.8,0.1-0.5c-0.2,0.3,0.6-0.8,1.5-1.3c1.2-0.5,2.4-0.9,3.6-1.2c9.4-2.4,19.6-2.5,29.2-2.6
		c12.1-0.2,24.1,0.4,36.1,1.8c4.9,0.5,9.7,1.3,14.5,2.4c2.7,0.6,6.3,1.6,8.3,3.2l0.8,0.8c0.2,0.3,0-0.1,0.1,0.2
		c0.1,0.2,0.1,0.4,0.1,0.6c0.2,0.8,0.3,1.6,0.4,2.4c0.1,0.4,0.1,0.7,0.1,1.1c0.1,0.5,0.2,1.1,0.2,1.6l0.3,3.5
		c1.1,15.1,1,30.2,0.9,45.3c-0.1,22.3-0.6,44.5-1.2,66.8c-0.8,25.2-1.7,50.5-2.9,75.8s-2.3,48.2-3.8,72.3
		c-1.2,18.9-2.4,37.8-4.2,56.6c-0.6,6-1.3,12.3-2.1,18.2c-0.3,3.3-0.9,6.6-2,9.7c-0.1,0.3,0.2-0.4,0,0s-0.1,0.2-0.1,0.3h0.1
		c-1.4,1-0.1,3.4,1.4,2.4s2.1-4.8,2.5-6.8c0.9-5.1,1.5-10.3,2.1-15.4c1.8-17.3,3-34.6,4.2-51.9c1.6-23.4,2.8-46.8,3.9-70.2
		c1.3-25.3,2.3-50.7,3.1-76.1c0.8-23.2,1.4-46.4,1.6-69.6c0.2-16.8,0.4-33.7-0.4-50.5c-0.1-4.9-0.5-9.8-1.2-14.6
		c-0.1-1.9-1-3.6-2.5-4.8c-2.6-1.9-6-2.7-9-3.5c-10.5-2.5-21.4-3.3-32.1-3.8C297.8,64,286,64.1,274.2,65c-4.4,0.2-8.8,0.8-13.1,1.6
		c-2.3,0.6-5.4,1.2-6.9,3.2s-1.6,4.6-1.9,6.8c-0.5,4.1-0.7,8.3-0.8,12.4c-0.3,11.8,0.1,23.6,1,35.4c0.9,11.5,2.1,23.1,4.9,34.3
		c0.8,4,2.2,7.8,4.1,11.4c1.4,2.4,3.2,4.4,6,5c5.4,1,10.8,1.6,16.3,1.8c7.3,0.5,14.6,0.7,21.9,0.6c5.6-0.1,11.5-0.2,17-1.6
		c3.2-0.9,4-3.7,3.6-6.8c-1.6-11.8-15.6-15.9-25.6-15.9c-4.9-0.1-9.4,0.8-13.2,3.9s-5.4,6.5-6.8,10.4c-3.8,10.5-3.6,22.5-3.1,33.5
		c0.6,13.2,2.2,26.3,3.9,39.3c1.2,10,2.9,20.2,2.6,30.3c0,0.3,0.1,0,0.2-0.1l-0.4,0.3l-1.7,0.7c-2,0.5-4,0.9-6.1,1
		c-5.7,0.6-11.5,0.8-17.2,0.5c-5.1,0-10.1-0.5-15.1-1.6l-2.2-0.6l-0.7-0.5c-0.2-0.2,0,0.3,0,0c-0.1-0.3-0.2-0.6-0.2-0.9
		c-0.1-0.7-0.1-1.5-0.2-2.3c0-2,0.2-4,0.5-6c0.7-3.6,2-7.8,5.3-9.7c2.9-1.6,6.3-1.6,9.2-0.1c2.2,1.3,2.9,4.1,1.6,6.3
		c-0.9,1.7-3.1,2.1-4.8,2.3c-5,0.4-10-0.9-15-1.3c-1.8-0.2-3.6,0-5.3,0.8c-1.6,0.8-1.7,2.5-1.8,4.1c-0.4,12,0.2,24.2,0.8,36.2
		c0.2,4.8,0.3,9.5,0.9,14.2c0.2,1.2,0.3,2.2,1.3,3c1.1,0.6,2.3,1,3.6,1.2c4.6,0.9,9.4,1.4,14.1,1.5c6.2,0.3,12.4,0.4,18.6,0.3
		s11.7-0.3,16.5-0.6c1.9-0.2,3.8-0.4,5.7-0.8c1.3-0.1,2.4-0.6,3.4-1.4c1.8-2.1-0.9-4.4-2.5-5.6c-3.7-2.6-7.6-4.9-11.7-6.8
		c-3.6-1.9-7.3-4.2-11.5-4.2s-5.4,1.2-8.1,2s-6.9,0.3-10.2-1.4c-1.8-0.9-3.9-1-5.8-0.5c-5.5,0.9-10.8,4-15.4,7s-8.6,5.7-10.6,10
		c-0.7,1.5-0.8,3.1,0.4,4.3c1.7,1.4,3.6,2.6,5.6,3.6c2.3,1.3,4.6,2.5,7.1,3.5c8.2,3.3,16.9,5.2,25.7,5.5c3.2,0.2,6.4,0.2,9.7,0.1
		c2-0.1,4,0,6,0.2c0.6,0,1.2,0.3,1.6,0.8c1,1,1.8,2.3,2.3,3.6c1.2,3.4,1.8,6.9,1.9,10.5c0.2,3.8,0,7.7-0.5,11.5
		c-0.2,1.6-0.5,3.3-0.8,4.9s-0.3,1.2-0.5,1.8s0.1-0.1-0.1,0.2l-0.4,0.3l-1.3,0.7c-1.2,0.5-2.4,0.9-3.6,1.1
		c-3.8,0.8-7.6,1.4-11.4,1.7c-11,1-22.2,1.1-33.3,1s-24.1-0.6-36.1-1.5c-8.7-0.6-17.5-1.2-26-3.1l-3.5-1l-0.8-0.4
		c-0.1-0.1-0.5-0.4-0.2-0.1H161c-0.3-0.5-0.6-1-0.7-1.6c-0.4-1.1-0.6-2.3-0.9-3.4c-1.6-8.2-2.8-16.5-3.4-24.9
		c-1.3-12.7-2.3-25.4-3.2-38.1c-2-28.5-3.5-57-4.4-85.7c-0.4-11-0.7-22-0.7-32.9c-0.1-1.4,0-2.2,0.8-3c0.9-1,2-1.7,3.3-2.1
		c4.1-1.4,8.3-2.1,12.6-2.3c11.3-0.9,22.8-0.5,34.2-0.2c4.8,0.1,9.7,0.2,14.5,0c2.9-0.1,6.1,0,8.8-1.2s1.3-6.9,0.3-9.1
		c-2-4.3-6.1-7.1-10.2-8.9c-9.4-4.1-21.4-4.3-30.7,0.1c-4.2,1.8-7.4,5.2-8.9,9.5c-0.9,3-0.6,6.5-0.6,9.5c0,7.8,0.1,15.6,0.3,23.4
		c0.5,23.1,1.4,46.3,2.4,69.4c1.1,26.4,2.4,52.7,3.9,79c1.2,21.3,2.5,42.5,4.6,63.7c0.6,6.1,1.2,12.3,2.2,18.5
		c0.5,2.8,0.8,5.8,3.9,6.8c2.3,0.7,4.8,1.1,7.2,1.3c3.9,0.5,7.8,0.8,11.6,1.1c10.9,0.7,21.8,1.1,32.7,1.3c24,0.5,48.1,0.5,72-1.1
		c5.3-0.4,10.7-0.8,15.9-1.6c2.9-0.5,6.3-0.9,8.7-2.4c0.7-0.4,0.9-1.3,0.5-2C337.4,429.2,336.5,429,335.8,429.4z"/>
	<path class="st4" d="M210.9,156.8c-1.6,4.9-4.7,9.9-9.8,11.6s-8.8-0.2-12-3.2s-4.6-6.3-6-9.9l-3.3-8c-7-17.4-13.9-35.1-18.9-53.3
		c-1.1-4-2.1-8.1-2.9-12.2c-0.6-3-0.8-6-0.7-9c0-0.4,0.1-0.9,0.2-1.3c0-0.2,0.1-0.5,0.2-0.7c0-0.1,0-0.2,0.1-0.3
		c0.1-0.4-0.1,0,0-0.2l0.3-0.5h0.1c0.2-0.3,0.5-0.5,0.8-0.6c2-1.1,4.9-1.6,7.4-2.1c8.3-1.4,17-1.5,25.5-1.4c8.9,0,17.8,0.5,26.7,1.5
		c2.9,0.3,5.9,1,8.7,1.8c0.8,0.1,1.6,0.4,2.3,0.9c0,0,0.2,0.3,0.1,0.2h0.1c0.1,0.2,0.1,0.4,0.2,0.6c0.1,0.4,0.1,0.7,0.1,1.1
		c0.1,0.6,0.1,1.2,0.1,1.8c0,1.6-0.2,3.1-0.3,4.6c-0.5,4.1-1.2,8.1-1.9,12.1c-3.9,20.3-9.2,40.4-15.1,60.2
		C212.2,152.6,211.6,154.7,210.9,156.8c-0.2,0.7,0.2,1.5,1,1.7c0.7,0.2,1.5-0.2,1.7-1c6.1-18.8,11-38,15.2-57.3
		c1.8-8.3,3.7-16.8,4.2-25.2c0.1-2.1,0.2-4.6-0.8-6.4s-3.3-2.2-5-2.7c-7.2-1.9-15-2.3-22.4-2.7c-9.4-0.5-18.7-0.5-28.1,0
		c-3.8,0.3-7.7,0.6-11.6,1.3c-2.6,0.4-5.1,1.1-7.4,2.3c-4.4,2.5-3.1,9.7-2.5,13.8c1.3,8.7,3.9,17.2,6.6,25.5s6.5,18.9,10.1,28.2
		c2.6,6.9,5.4,13.8,8.2,20.6c1.1,3.2,2.5,6.3,4.4,9.1c2.9,4,7,7,12,7.6c8.7,1.1,14.7-6.7,17.1-14.1
		C214.1,155.8,211.5,155.1,210.9,156.8z"/>
</g>
<path class="st4" d="M323.6,166.2c0.5,5-3.5,7.5-7.9,8.3s-10.6,0.3-12.9-3.8c-1.1-2.1-1.3-5.3,0.4-7.1c1.5-1.5,3.5-2.5,5.6-2.9
	c4.1-1,9.6-0.7,12.9,2.2c1.1,0.9,1.8,2.3,2,3.7c0.2,1.7,2.8,1,2.6-0.7c-0.6-4.6-5-7.1-9.2-8s-9.8-0.4-13.8,2.1
	c-2.1,1.2-3.5,3.2-3.9,5.6c-0.4,2.8,0.3,5.6,2,7.8c2.9,3.8,9.1,4.5,13.6,4s12.1-4.4,11.4-11.2C326.2,164.5,323.5,164.5,323.6,166.2z
	"/>
</svg>
