<svg xmlns="http://www.w3.org/2000/svg" xmlns:xlink="http://www.w3.org/1999/xlink" width="500" zoomAndPan="magnify" viewBox="0 0 375 374.999991" height="500" preserveAspectRatio="xMidYMid meet" version="1.0"><defs><g><g id="id1"/></g></defs><rect x="-37.5" width="450" fill="rgb(100%, 100%, 100%)" y="-37.499999" height="449.999989" fill-opacity="1"/><rect x="-37.5" width="450" fill="rgb(100%, 100%, 100%)" y="-37.499999" height="449.999989" fill-opacity="1"/><rect x="-37.5" width="450" fill="rgb(100%, 100%, 100%)" y="-37.499999" height="449.999989" fill-opacity="1"/><rect x="-37.5" width="450" fill="rgb(100%, 100%, 100%)" y="-37.499999" height="449.999989" fill-opacity="1"/><g fill="rgb(0%, 0%, 0%)" fill-opacity="1"><g transform="translate(37.500002, 233.157061)"><g><path d="M 55.6875 -103.890625 C 61.457031 -103.890625 67.160156 -103.234375 72.796875 -101.921875 C 78.429688 -100.609375 82.628906 -99.296875 85.390625 -97.984375 L 89.515625 -96.015625 L 78.109375 -73.1875 C 70.242188 -77.382812 62.769531 -79.484375 55.6875 -79.484375 C 51.75 -79.484375 48.957031 -79.054688 47.3125 -78.203125 C 45.675781 -77.347656 44.859375 -75.742188 44.859375 -73.390625 C 44.859375 -72.859375 44.921875 -72.332031 45.046875 -71.8125 C 45.179688 -71.289062 45.445312 -70.800781 45.84375 -70.34375 C 46.238281 -69.882812 46.597656 -69.488281 46.921875 -69.15625 C 47.253906 -68.832031 47.8125 -68.472656 48.59375 -68.078125 C 49.382812 -67.679688 50.007812 -67.382812 50.46875 -67.1875 C 50.925781 -66.988281 51.675781 -66.691406 52.71875 -66.296875 C 53.769531 -65.910156 54.554688 -65.617188 55.078125 -65.421875 C 55.609375 -65.222656 56.492188 -64.925781 57.734375 -64.53125 C 58.984375 -64.132812 59.9375 -63.875 60.59375 -63.75 C 64.664062 -62.5625 68.207031 -61.242188 71.21875 -59.796875 C 74.238281 -58.359375 77.421875 -56.394531 80.765625 -53.90625 C 84.109375 -51.414062 86.695312 -48.269531 88.53125 -44.46875 C 90.375 -40.664062 91.296875 -36.335938 91.296875 -31.484375 C 91.296875 -8.523438 75.359375 2.953125 43.484375 2.953125 C 36.265625 2.953125 29.410156 1.835938 22.921875 -0.390625 C 16.429688 -2.617188 11.742188 -4.847656 8.859375 -7.078125 L 4.53125 -10.625 L 18.6875 -34.4375 C 19.738281 -33.507812 21.113281 -32.421875 22.8125 -31.171875 C 24.519531 -29.929688 27.601562 -28.226562 32.0625 -26.0625 C 36.53125 -23.90625 40.398438 -22.828125 43.671875 -22.828125 C 50.890625 -22.828125 54.5 -25.253906 54.5 -30.109375 C 54.5 -32.335938 53.578125 -34.070312 51.734375 -35.3125 C 49.898438 -36.5625 46.785156 -37.972656 42.390625 -39.546875 C 38.003906 -41.117188 34.5625 -42.5625 32.0625 -43.875 C 25.769531 -47.15625 20.785156 -50.859375 17.109375 -54.984375 C 13.441406 -59.117188 11.609375 -64.597656 11.609375 -71.421875 C 11.609375 -81.648438 15.578125 -89.617188 23.515625 -95.328125 C 31.453125 -101.035156 42.175781 -103.890625 55.6875 -103.890625 Z M 55.6875 -103.890625 "/></g></g></g><g fill="rgb(0%, 0%, 0%)" fill-opacity="1"><g transform="translate(124.461996, 233.157061)"><g><path d="M 21.34375 -12 C 10.132812 -21.96875 4.53125 -34.753906 4.53125 -50.359375 C 4.53125 -65.972656 10.363281 -78.796875 22.03125 -88.828125 C 33.707031 -98.867188 48.140625 -103.890625 65.328125 -103.890625 C 82.242188 -103.890625 96.503906 -98.835938 108.109375 -88.734375 C 119.722656 -78.628906 125.53125 -65.835938 125.53125 -50.359375 C 125.53125 -34.890625 119.851562 -22.132812 108.5 -12.09375 C 97.15625 -2.0625 82.765625 2.953125 65.328125 2.953125 C 47.222656 2.953125 32.5625 -2.03125 21.34375 -12 Z M 48.296875 -67.484375 C 43.773438 -63.023438 41.515625 -57.316406 41.515625 -50.359375 C 41.515625 -43.410156 43.675781 -37.738281 48 -33.34375 C 52.332031 -28.957031 58.039062 -26.765625 65.125 -26.765625 C 71.945312 -26.765625 77.550781 -28.992188 81.9375 -33.453125 C 86.332031 -37.910156 88.53125 -43.550781 88.53125 -50.375 C 88.53125 -57.320312 86.269531 -63.023438 81.75 -67.484375 C 77.226562 -71.941406 71.6875 -74.171875 65.125 -74.171875 C 58.4375 -74.171875 52.828125 -71.941406 48.296875 -67.484375 Z M 48.296875 -67.484375 "/></g></g></g><g fill="rgb(0%, 0%, 0%)" fill-opacity="1"><g transform="translate(244.674231, 233.157061)"><g><path d="M 55.6875 -103.890625 C 61.457031 -103.890625 67.160156 -103.234375 72.796875 -101.921875 C 78.429688 -100.609375 82.628906 -99.296875 85.390625 -97.984375 L 89.515625 -96.015625 L 78.109375 -73.1875 C 70.242188 -77.382812 62.769531 -79.484375 55.6875 -79.484375 C 51.75 -79.484375 48.957031 -79.054688 47.3125 -78.203125 C 45.675781 -77.347656 44.859375 -75.742188 44.859375 -73.390625 C 44.859375 -72.859375 44.921875 -72.332031 45.046875 -71.8125 C 45.179688 -71.289062 45.445312 -70.800781 45.84375 -70.34375 C 46.238281 -69.882812 46.597656 -69.488281 46.921875 -69.15625 C 47.253906 -68.832031 47.8125 -68.472656 48.59375 -68.078125 C 49.382812 -67.679688 50.007812 -67.382812 50.46875 -67.1875 C 50.925781 -66.988281 51.675781 -66.691406 52.71875 -66.296875 C 53.769531 -65.910156 54.554688 -65.617188 55.078125 -65.421875 C 55.609375 -65.222656 56.492188 -64.925781 57.734375 -64.53125 C 58.984375 -64.132812 59.9375 -63.875 60.59375 -63.75 C 64.664062 -62.5625 68.207031 -61.242188 71.21875 -59.796875 C 74.238281 -58.359375 77.421875 -56.394531 80.765625 -53.90625 C 84.109375 -51.414062 86.695312 -48.269531 88.53125 -44.46875 C 90.375 -40.664062 91.296875 -36.335938 91.296875 -31.484375 C 91.296875 -8.523438 75.359375 2.953125 43.484375 2.953125 C 36.265625 2.953125 29.410156 1.835938 22.921875 -0.390625 C 16.429688 -2.617188 11.742188 -4.847656 8.859375 -7.078125 L 4.53125 -10.625 L 18.6875 -34.4375 C 19.738281 -33.507812 21.113281 -32.421875 22.8125 -31.171875 C 24.519531 -29.929688 27.601562 -28.226562 32.0625 -26.0625 C 36.53125 -23.90625 40.398438 -22.828125 43.671875 -22.828125 C 50.890625 -22.828125 54.5 -25.253906 54.5 -30.109375 C 54.5 -32.335938 53.578125 -34.070312 51.734375 -35.3125 C 49.898438 -36.5625 46.785156 -37.972656 42.390625 -39.546875 C 38.003906 -41.117188 34.5625 -42.5625 32.0625 -43.875 C 25.769531 -47.15625 20.785156 -50.859375 17.109375 -54.984375 C 13.441406 -59.117188 11.609375 -64.597656 11.609375 -71.421875 C 11.609375 -81.648438 15.578125 -89.617188 23.515625 -95.328125 C 31.453125 -101.035156 42.175781 -103.890625 55.6875 -103.890625 Z M 55.6875 -103.890625 "/></g></g></g></svg>