<?xml version="1.0" encoding="UTF-8"?>
<svg fill="none" viewBox="0 0 2500 2500" xmlns="http://www.w3.org/2000/svg" xmlns:xlink="http://www.w3.org/1999/xlink">
<path d="M0 0h2500v2500H0z" fill="#fff"/>
<path d="m2e3 1248.3c0 412.6-334.48 747.09-747.09 747.09-412.61 0-747.09-334.49-747.09-747.09 0-412.61 334.48-747.09 747.09-747.09 412.61 0 747.09 334.48 747.09 747.09z" fill="url(#ad)"/>
<path d="m1994.2 1248.3c0 412.6-334.48 747.09-747.09 747.09-412.61 0-747.09-334.49-747.09-747.09 0-412.61 334.48-747.09 747.09-747.09 412.61 0 747.09 334.48 747.09 747.09z" fill="url(#ac)" fill-opacity=".2"/>
<path d="M1089.48 932.995c-.96.863-11.09 1.534-11.09 1.534s9.31.384 11.09 1.486c1.77 1.103 1.77 9.829 1.77 9.829s.67-8.342 2.02-9.829c1.34-1.486 10.89-1.486 10.89-1.486s-9.74-1.007-10.89-1.534c-1.16-.527-2.02-9.589-2.02-9.589s-.81 8.726-1.77 9.589Z" fill="#fff"/>
<g filter="url(#ab)">
<path d="M1445.55 741.513c-1.86 1.467-21.45 2.608-21.45 2.608s18.01.653 21.45 2.528c3.43 1.875 3.43 16.713 3.43 16.713s1.3-14.186 3.9-16.713c2.6-2.528 21.08-2.528 21.08-2.528s-18.85-1.712-21.08-2.608c-2.22-.897-3.9-16.306-3.9-16.306s-1.57 14.838-3.43 16.306Z" fill="#fff"/>
</g>
<g filter="url(#aa)">
<path d="m1249.4 1838.5c-1.86 1.46-21.45 2.6-21.45 2.6s18.01 0.66 21.45 2.53c3.43 1.88 3.43 16.72 3.43 16.72s1.3-14.19 3.9-16.72 21.08-2.53 21.08-2.53-18.85-1.71-21.08-2.6c-2.23-0.9-3.9-16.31-3.9-16.31s-1.58 14.84-3.43 16.31z" fill="#fff"/>
</g>
<path d="m1726.4 1117.4c-0.99 0.89-11.44 1.59-11.44 1.59s9.61 0.39 11.44 1.53 1.83 10.15 1.83 10.15 0.69-8.61 2.08-10.15c1.39-1.53 11.24-1.53 11.24-1.53s-10.05-1.04-11.24-1.59c-1.19-0.54-2.08-9.9-2.08-9.9s-0.84 9.01-1.83 9.9z" fill="#fff"/>
<g filter="url(#z)">
<path d="m1640.2 1357.1c-2.52 2.27-29.13 4.04-29.13 4.04s24.47 1.01 29.13 3.91c4.67 2.9 4.67 25.84 4.67 25.84s1.77-21.93 5.3-25.84 28.63-3.91 28.63-3.91-25.6-2.65-28.63-4.04c-3.03-1.38-5.3-25.21-5.3-25.21s-2.14 22.94-4.67 25.21z" fill="#fff"/>
</g>
<path d="M1034.21 625.935c-.96.863-11.08 1.534-11.08 1.534s9.31.384 11.08 1.487c1.78 1.103 1.78 9.831 1.78 9.831s.67-8.345 2.01-9.831c1.35-1.487 10.89-1.487 10.89-1.487s-9.74-1.007-10.89-1.534c-1.15-.528-2.01-9.591-2.01-9.591s-.82 8.727-1.78 9.591Z" fill="#fff"/>
<g filter="url(#y)">
<path d="M743.265 1048.55c-1.671 1.5-19.304 2.67-19.304 2.67s16.212.67 19.304 2.58c3.092 1.92 3.092 17.11 3.092 17.11s1.17-14.52 3.51-17.11c2.34-2.58 18.969-2.58 18.969-2.58s-16.964-1.75-18.969-2.67c-2.006-.92-3.51-16.69-3.51-16.69s-1.421 15.18-3.092 16.69Z" fill="#fff"/>
</g>
<g filter="url(#x)">
<path d="M1035.42 1503.14c-1.43 1.28-16.45 2.27-16.45 2.27s13.81.57 16.45 2.21c2.63 1.63 2.63 14.57 2.63 14.57s1-12.37 2.99-14.57c2-2.21 16.16-2.21 16.16-2.21s-14.45-1.49-16.16-2.27c-1.71-.79-2.99-14.22-2.99-14.22s-1.21 12.94-2.63 14.22Z" fill="#fff"/>
</g>
<path d="m1405.8 1220.4-21.38-18.48-33.53 38.79s-19.76 32.58-12.8 37.47c6.95 4.89 29.98-14.12 29.98-14.12l37.73-43.66z" fill="url(#w)"/>
<path d="m1458.3 1265-21.38-18.48-33.53 38.79s-2.71 4.47-5.77 10.34c-5.2 9.99-11.42 24.05-7.04 27.13 6.96 4.89 29.99-14.12 29.99-14.12l37.73-43.66z" fill="url(#v)"/>
<path d="m1576.4 953.04 90.75 74.221-155.65 190.31-90.75-74.22 155.65-190.31z" fill="url(#u)"/>
<path d="m1671 1022.4-90.65-74.134s24.3-31.241 54.44-50.422c28.5-18.132 64.63-22.865 74.27-14.983 8.82 7.211 12.46 42.591 2.12 71.605-12.92 36.245-40.18 67.934-40.18 67.934z" fill="url(#t)"/>
<path d="m1489 979.26 39.47 32.272-95.35 116.59-39.47-32.27 95.35-116.59z" fill="url(#s)"/>
<path d="m1494 973.25 39.46 32.274-2.13 2.61-39.46-32.28 2.13-2.604z" fill="#AE2323"/>
<path d="m1504.5 960.32-7.29 8.915 40.66 33.261 7.29-8.917s36.78-68.882 27.46-76.5c-9.31-7.618-68.12 43.241-68.12 43.241z" fill="#860505"/>
<path d="m1619.3 1085.8 39.46 32.27-95.35 116.59-39.46-32.27 95.35-116.59z" fill="url(#r)"/>
<path d="m1624.2 1079.7 39.47 32.27-2.13 2.61-39.47-32.28 2.13-2.6z" fill="#AE2323"/>
<path d="m1634.7 1066.8-7.29 8.92 40.67 33.25 7.29-8.91s36.77-68.88 27.46-76.5c-9.32-7.62-68.13 43.24-68.13 43.24z" fill="#860505"/>
<path d="m1387.5 1091.3c50.72-1.32 69.4-7.6 69.4-7.6s75.26-52.79 93.66-72.84c18.41-20.049 96.95-89.714 115.58-74.477 18.63 15.238-51.17 127.16-51.17 127.16s-52.64 96.86-53.2 105.93c-0.56 9.06 7.02 70.1 7.02 70.1s3.18 31.68 2.47 42.97-12.11 34.22-12.11 34.22l-126.16-71.58-23.94-19.58-95.2-109.45s8.51-8.74 26.65-15.87c11.62-4.57 27.19-8.47 47-8.98z" fill="url(#q)"/>
<path d="m1433 1245.2 126.16 71.59s11.4-22.93 12.11-34.22l-230.76-182.26c-18.14 7.12-26.65 15.87-26.65 15.87l95.2 109.45 23.94 19.57z" fill="url(#p)"/>
<path d="m1408.9 1180.5c-12.01 4.43-29.79 20.08-35.91 26.13 0 0 3.7 8.54 14.05 15.51 10.36 6.96 21.71 7.39 21.71 7.39s10.81-13.23 19.43-27.24 9.49-18.15 6.5-21.43c-3-3.29-9.89-6.23-25.78-0.36zm68.41 55.95c-1.96 12.64-13.77 33.18-18.48 40.38 0 0-9.12-1.94-17.99-10.71-8.88-8.76-11.55-19.8-11.55-19.8s10.81-13.23 22.83-24.45c12.03-11.23 15.91-12.91 19.72-10.62 3.82 2.28 8.07 8.46 5.47 25.2z" fill="#571515"/>
<path d="m1569.9 1050.8 5.14 4.04-82.99 105.47-5.14-4.04 82.99-105.47z" fill="#2E2E2E"/>
<path d="m878.53 1490.2c0 32.13-26.044 58.17-58.172 58.17-32.127 0-58.171-26.04-58.171-58.17s26.044-58.17 58.171-58.17c32.128 0 58.172 26.04 58.172 58.17z" fill="#fff"/>
<path d="m1005.1 1217.5-177.31 224.43c-4.134 5.23-3.389 12.8 1.688 17.12l11.984 10.22c5.375 4.58 13.483 3.75 17.822-1.82l145.75-187.09c4.99-6.41 14.7-6.37 19.63 0.09l142.64 186.86c4.31 5.63 12.45 6.52 17.86 1.94l12.14-10.26c5.08-4.29 5.87-11.83 1.78-17.08l-174.46-224.33c-4.94-6.35-14.53-6.39-19.52-0.08z" fill="#fff"/>
<path d="m1266 1490.2c0 32.13-26.04 58.17-58.17 58.17s-58.17-26.04-58.17-58.17 26.04-58.17 58.17-58.17 58.17 26.04 58.17 58.17z" fill="#fff"/>
<path d="m1250 1961.2c392.81 0 711.25-318.44 711.25-711.25 0-392.82-318.44-711.25-711.25-711.25-392.82 0-711.25 318.44-711.25 711.25 0 392.81 318.44 711.25 711.25 711.25zm0 38.75c414.21 0 750-335.79 750-750 0-414.21-335.79-750-750-750-414.21 0-750 335.79-750 750 0 414.21 335.79 750 750 750z" clip-rule="evenodd" fill="#F5A08A" fill-rule="evenodd"/>
<path d="m1322.2 1322.8 30.02 23.61-103.4 131.52-30.02-23.6 103.4-131.53z" fill="#fff"/>
<defs>
<linearGradient id="ad" x1="1252.9" x2="1252.9" y1="561.06" y2="2025" gradientUnits="userSpaceOnUse">
<stop stop-color="#8E00FD" offset="0"/>
<stop stop-color="#2A0183" offset=".505"/>
<stop stop-color="#16002C" offset="1"/>
</linearGradient>
<linearGradient id="u" x1="1621.7" x2="1466.1" y1="990.15" y2="1180.5" gradientUnits="userSpaceOnUse">
<stop stop-color="#D50000" offset="0"/>
<stop stop-color="#540909" offset="1"/>
</linearGradient>
<linearGradient id="t" x1="1709.3" x2="1625.6" y1="883.04" y2="985.31" gradientUnits="userSpaceOnUse">
<stop stop-color="#DB3501" offset="0"/>
<stop stop-color="#A00" offset="1"/>
</linearGradient>
<linearGradient id="s" x1="1508.8" x2="1413.4" y1="995.4" y2="1112" gradientUnits="userSpaceOnUse">
<stop stop-color="#B70101" offset="0"/>
<stop stop-color="#730606" offset="1"/>
</linearGradient>
<linearGradient id="r" x1="1639" x2="1543.6" y1="1101.9" y2="1218.5" gradientUnits="userSpaceOnUse">
<stop stop-color="#B00" offset="0"/>
<stop stop-color="#570707" offset="1"/>
</linearGradient>
<linearGradient id="q" x1="1665.8" x2="1421.1" y1="936.12" y2="1235.4" gradientUnits="userSpaceOnUse">
<stop stop-color="#fff" offset="0"/>
<stop stop-color="#E9E9E9" offset="1"/>
</linearGradient>
<linearGradient id="p" x1="1455.9" x2="1421.1" y1="1192.6" y2="1235.4" gradientUnits="userSpaceOnUse">
<stop stop-color="#676767" offset="0"/>
<stop stop-color="#343434" offset="1"/>
</linearGradient>
<filter id="ab" x="1413.1" y="714.21" width="71.861" height="60.156" color-interpolation-filters="sRGB" filterUnits="userSpaceOnUse">
<feFlood flood-opacity="0" result="BackgroundImageFix"/>
<feBlend in="SourceGraphic" in2="BackgroundImageFix" result="shape"/>
<feGaussianBlur result="effect1_foregroundBlur_73_114" stdDeviation="5.5"/>
</filter>
<filter id="aa" x="1217" y="1811.2" width="71.861" height="60.156" color-interpolation-filters="sRGB" filterUnits="userSpaceOnUse">
<feFlood flood-opacity="0" result="BackgroundImageFix"/>
<feBlend in="SourceGraphic" in2="BackgroundImageFix" result="shape"/>
<feGaussianBlur result="effect1_foregroundBlur_73_114" stdDeviation="5.5"/>
</filter>
<filter id="z" x="1598.1" y="1318.9" width="93.728" height="85.004" color-interpolation-filters="sRGB" filterUnits="userSpaceOnUse">
<feFlood flood-opacity="0" result="BackgroundImageFix"/>
<feBlend in="SourceGraphic" in2="BackgroundImageFix" result="shape"/>
<feGaussianBlur result="effect1_foregroundBlur_73_114" stdDeviation="6.5"/>
</filter>
<filter id="y" x="714.96" y="1022.9" width="62.875" height="57.059" color-interpolation-filters="sRGB" filterUnits="userSpaceOnUse">
<feFlood flood-opacity="0" result="BackgroundImageFix"/>
<feBlend in="SourceGraphic" in2="BackgroundImageFix" result="shape"/>
<feGaussianBlur result="effect1_foregroundBlur_73_114" stdDeviation="4.5"/>
</filter>
<filter id="x" x="1010" y="1479.9" width="56.227" height="51.273" color-interpolation-filters="sRGB" filterUnits="userSpaceOnUse">
<feFlood flood-opacity="0" result="BackgroundImageFix"/>
<feBlend in="SourceGraphic" in2="BackgroundImageFix" result="shape"/>
<feGaussianBlur result="effect1_foregroundBlur_73_114" stdDeviation="4.5"/>
</filter>
<radialGradient id="w" cx="0" cy="0" r="1" gradientTransform="rotate(130.83 422.61 923.71) scale(92.224 29.613)" gradientUnits="userSpaceOnUse">
<stop stop-color="#FAFF00" offset="0"/>
<stop stop-color="#B5550F" offset=".461"/>
<stop stop-color="#800" offset="1"/>
</radialGradient>
<radialGradient id="v" cx="0" cy="0" r="1" gradientTransform="rotate(130.83 438.66 957.99) scale(92.224 29.613)" gradientUnits="userSpaceOnUse">
<stop stop-color="#FAFF00" offset="0"/>
<stop stop-color="#B5550F" offset=".461"/>
<stop stop-color="#800" offset="1"/>
</radialGradient>
<pattern id="ac" width="1" height="1" patternContentUnits="objectBoundingBox">
<use transform="translate(-.389) scale(.00278)" xlink:href="#p"/>
</pattern>
</defs>
</svg>
