<svg version="1.2" xmlns="http://www.w3.org/2000/svg" viewBox="0 0 920 920" width="920" height="920">
	<defs>
		<linearGradient id="g1" x2="1" gradientUnits="userSpaceOnUse" gradientTransform="matrix(795.75,0,0,795.75,61.772,61.713)">
			<stop offset=".068" stop-color="#28f4af"/>
			<stop offset=".909" stop-color="#01caff"/>
		</linearGradient>
	</defs>
	<style>
		.s0 { fill: #000000 } 
		.s1 { fill: none;stroke: url(#g1);stroke-miterlimit:10;stroke-width: 18 } 
		.s2 { fill: #215140 } 
		.s3 { fill: #ffffff } 
	</style>
	<g>
		<g>
			<path class="s0" d="m917.1 459.6c0 252.7-204.8 457.5-457.5 457.5-252.6 0-457.5-204.8-457.5-457.5 0-252.7 204.9-457.5 457.5-457.5 252.7 0 457.5 204.8 457.5 457.5z"/>
		</g>
		<path class="s1" d="m857.5 459.6c0 219.7-178.1 397.9-397.9 397.9-219.7 0-397.8-178.2-397.8-397.9 0-219.8 178.1-397.9 397.8-397.9 219.8 0 397.9 178.1 397.9 397.9z"/>
		<g style="opacity: .53">
			<path class="s2" d="m333.9 367.2c-7.6-4.7-7.9-15.7-0.5-20.8l225.9-155c7.6-4 16.8-3.2 23.5 2.1 6.4 5.1 9.4 13.5 7.5 21.6l-118.9 228c-2 3.7-6.7 5.1-10.4 2.8z"/>
			<path class="s2" d="m473.4 452c-3.4-2-7.8-0.9-9.9 2.4l-149.5 240c-5.2 10.7-2.6 23.4 6 30.5 7.2 5.9 17.4 7.1 26.3 3q0.6-0.3 1.2-0.7l254.2-175.2c8.7-6 8.3-19-0.8-24.4z"/>
		</g>
		<g>
			<path class="s3" d="m262.1 544.4v-131.6h-52.1v-38h151.9v38h-51.8v131.6z"/>
			<path class="s3" d="m461.9 547.8q-20.1 0-37.1-6.5-17.1-6.4-29.6-18.2-12.5-11.9-19.5-28-7-16.1-7-35.5 0-19.4 7-35.5 7-16.1 19.5-28 12.5-11.9 29.6-18.3 17-6.4 37.1-6.4 23.5 0 42.1 8.2 18.5 8.3 30.9 23.8l-30.6 27.6q-8.2-9.7-18-14.8-9.8-5.1-21.9-5.1-10.4 0-19.2 3.4-8.7 3.4-14.9 9.8-6.1 6.5-9.7 15.4-3.5 9-3.5 19.9 0 10.9 3.5 19.9 3.6 8.9 9.7 15.3 6.2 6.5 14.9 9.8 8.8 3.4 19.2 3.4 12.1 0 21.9-5 9.8-5.1 18-14.8l30.6 27.6q-12.4 15.3-30.9 23.6-18.6 8.4-42.1 8.4z"/>
			<path class="s3" d="m596.4 544.4v-71.7l11.1 28.8-75.8-126.7h50.7l54.7 91.8h-29.3l55-91.8h46.5l-75.6 126.7 10.7-28.8v71.7z"/>
		</g>
	</g>
</svg>
