<svg width="63" height="84" viewBox="0 0 63 84" fill="none" xmlns="http://www.w3.org/2000/svg">
<path d="M41.1117 16.7701C48.126 11.0436 52.3672 9.08027 53.9984 10.2256C55.6296 11.3709 53.509 17.5882 48.7785 26.0961C47.6342 24.7315 46.3183 23.5216 44.8636 22.4966C39.6893 18.669 33.2137 17.0537 26.8546 18.0043C20.4955 18.9549 14.7709 22.394 10.9342 27.5686C9.02779 30.1537 7.65009 33.0915 6.88037 36.2129C6.11065 39.3342 5.96419 42.5775 6.44937 45.7559C6.93455 48.9343 8.04174 51.985 9.70732 54.7323C11.3729 57.4797 13.5639 59.8695 16.1541 61.764C17.5605 62.8262 19.0951 63.7058 20.7215 64.3818C14.0335 71.4172 8.81366 75.3439 7.18244 74.035C5.55122 72.7261 5.87751 68.7993 9.46618 59.8006C1.96259 72.5625 -1.62607 82.0521 0.820753 83.6882C3.26758 85.3244 21.0478 70.2719 37.8493 47.5295C54.6508 24.7872 65.0907 4.00824 61.3389 1.2268C57.5871 -1.55464 51.0622 5.80799 41.1117 16.7701Z" fill="#00DAFF"/>
<path d="M29.8561 63.0745C29.0405 64.2198 28.0617 65.2015 27.2461 66.1831C31.5659 66.7766 35.9654 66.1936 39.9834 64.4952C44.0014 62.7968 47.4898 60.0456 50.0831 56.5299C52.6441 53.002 54.2209 48.8529 54.651 44.5103C55.0811 40.1677 54.3489 35.7886 52.5299 31.8242C49.1044 37.3871 45.0264 43.4408 40.459 49.4945C35.8916 55.5482 34.2604 57.8388 31.1611 61.602" fill="#00DAFF"/>
</svg>
