<svg width="180" height="180" viewBox="0 0 180 180" fill="none" xmlns="http://www.w3.org/2000/svg">
<circle cx="90" cy="90" r="90" fill="url(#paint0_linear_49_38)"/>
<circle cx="89.9999" cy="89.9999" r="79.4681" fill="#1B1821"/>
<path d="M109.332 102.526H93.0867V92.7791H135.325V102.526H119.079V125.92H135.325V135.667L93.0867 135.667V125.92H109.332V102.526Z" fill="url(#paint1_linear_49_38)"/>
<path d="M102.834 44.0426V70.9411L109.076 77.1834H125.578V44.0426H135.325V86.9307H104.783L93.0867 75.2339V44.0426H102.834Z" fill="url(#paint2_linear_49_38)"/>
<path d="M87.2383 92.7791V123.97L75.5415 135.667H45V112.274H54.7473V125.92H71.2485L77.491 119.678V102.526H66.444V92.7791H87.2383Z" fill="url(#paint3_linear_49_38)"/>
<path fill-rule="evenodd" clip-rule="evenodd" d="M45 44.0426H87.8881V73.9343H76.5482L87.8881 86.9306H73.917L62.577 73.9343H54.7473L54.7473 86.9307H45V64.187H54.072L45 53.7899V44.0426ZM58.9711 53.7899L68.0431 64.187H78.1408V53.7899L58.9711 53.7899Z" fill="url(#paint4_linear_49_38)"/>
<defs>
<linearGradient id="paint0_linear_49_38" x1="174.815" y1="22.1311" x2="28.713" y2="159.943" gradientUnits="userSpaceOnUse">
<stop stop-color="#D615EB"/>
<stop offset="1" stop-color="#8436F5"/>
</linearGradient>
<linearGradient id="paint1_linear_49_38" x1="160.668" y1="31.696" x2="18.4369" y2="141.231" gradientUnits="userSpaceOnUse">
<stop stop-color="#D615EB"/>
<stop offset="1" stop-color="#8436F5"/>
</linearGradient>
<linearGradient id="paint2_linear_49_38" x1="152.22" y1="29.7466" x2="28.0517" y2="151.179" gradientUnits="userSpaceOnUse">
<stop stop-color="#D615EB"/>
<stop offset="1" stop-color="#8436F5"/>
</linearGradient>
<linearGradient id="paint3_linear_49_38" x1="152.22" y1="33.6455" x2="29.3584" y2="154.443" gradientUnits="userSpaceOnUse">
<stop stop-color="#D615EB"/>
<stop offset="1" stop-color="#8436F5"/>
</linearGradient>
<linearGradient id="paint4_linear_49_38" x1="152.22" y1="30.3964" x2="33.8166" y2="155.647" gradientUnits="userSpaceOnUse">
<stop stop-color="#D615EB"/>
<stop offset="1" stop-color="#8436F5"/>
</linearGradient>
</defs>
</svg>
