<svg width="124" height="124" xmlns="http://www.w3.org/2000/svg">
 <g>
  <path fill="white" d="m0,0l150,0l0,150l-150,0l0,-150z" />
  <path fill="black" d="m0,0l0,123.98l123.98,0l0,-123.98l-123.98,0zm26.82,28.64c0,-0.87 0.71,-1.58 1.58,-1.58l20.3,0c0.87,0 1.58,0.71 1.58,1.58l0,20.3c0,0.88 -0.71,1.59 -1.58,1.59l-20.3,0c-0.87,0 -1.58,-0.71 -1.58,-1.59l0,-20.3zm23.46,66.7c0,0.87 -0.71,1.58 -1.58,1.58l-20.3,0c-0.87,0 -1.58,-0.71 -1.58,-1.58l0,-20.3c0,-0.88 0.71,-1.59 1.58,-1.59l20.3,0c0.87,0 1.58,0.71 1.58,1.59l0,20.3zm21.86,-21.62l-20.3,0c-0.87,0 -1.59,-0.71 -1.59,-1.59l0,-20.3c0,-0.87 0.71,-1.59 1.59,-1.59l20.3,0c0.87,0 1.59,0.71 1.59,1.59l0,20.3c0,0.87 -0.71,1.59 -1.59,1.59zm25.05,21.62c0,0.87 -0.71,1.58 -1.59,1.58l-20.3,0c-0.87,0 -1.58,-0.71 -1.58,-1.58l0,-20.3c0,-0.88 0.71,-1.59 1.58,-1.59l20.3,0c0.87,0 1.59,0.71 1.59,1.59l0,20.3zm0,-46.41c0,0.88 -0.71,1.59 -1.59,1.59l-20.3,0c-0.87,0 -1.58,-0.71 -1.58,-1.59l0,-20.3c0,-0.87 0.71,-1.58 1.58,-1.58l20.3,0c0.87,0 1.59,0.71 1.59,1.58l0,20.3z" />
 </g>
</svg>
