<svg width="47" height="50" viewBox="0 0 47 50" fill="none" xmlns="http://www.w3.org/2000/svg">
<path d="M17.2832 49.2832C17.2578 49.4247 17.2578 49.5697 17.2832 49.7112H1.9352C1.91255 49.5881 1.89702 49.4639 1.88867 49.339L17.2832 49.2832Z" fill="#C2B0D6"/>
<path d="M29.7926 49.688C29.7926 49.5623 29.7601 49.4367 29.7461 49.3111L45.1453 49.2832C45.1183 49.4179 45.1074 49.5553 45.1127 49.6926L29.7926 49.688Z" fill="#B5B7DC"/>
<path d="M17.2827 49.283L1.87883 49.3156C-0.103063 48.1106 -0.447335 47.3337 0.585482 45.7007C3.61415 41.0065 6.74051 36.3961 9.82966 31.7158C13.2352 33.6419 16.6034 35.647 20.0648 37.4428C21.4884 38.1826 22.6236 39.0246 23.2795 40.4668C23.2795 40.6064 23.2795 40.746 23.2795 40.8856C21.8513 43.1001 20.4602 45.3425 18.9808 47.5244C18.4708 48.1623 17.9023 48.751 17.2827 49.283Z" fill="#7E5EA8"/>
<path d="M23.2793 40.9094C23.2793 40.7698 23.2793 40.6302 23.2793 40.4907L25.1402 38.1924C30.1647 39.9417 33.6959 37.0898 35.2823 33.2237C35.6173 32.4003 36.0034 31.5954 36.3663 30.7812C39.6229 35.6662 42.8796 40.5512 46.0617 45.4547C47.0434 46.9714 46.6712 48.0693 45.1313 49.3022L29.7321 49.3347C28.9886 48.7152 28.2991 48.0335 27.6711 47.297C26.1684 45.1849 24.7541 43.0215 23.2793 40.9094Z" fill="#646FB4"/>
<path d="M25.1409 38.1681L23.28 40.4664C22.624 39.0241 21.4888 38.1821 20.0652 37.4424C16.5946 35.6466 13.2263 33.6414 9.83008 31.7153C10.7978 30.1708 11.812 28.6495 12.7192 27.063C13.0649 26.3293 13.3497 25.5684 13.5705 24.788L17.2552 20.6475C17.7091 20.6612 18.1587 20.7395 18.5904 20.8801C21.3492 22.2106 24.136 23.49 26.8018 24.9881C28.2254 25.7929 29.421 26.9979 30.719 28.0214C30.424 28.8787 30.0743 29.7163 29.6723 30.529C28.2114 33.0971 26.6715 35.6233 25.1409 38.1681Z" fill="#6C65AD"/>
<path d="M30.7236 28.0258C29.4256 27.0023 28.23 25.7974 26.8063 24.9925C24.1406 23.4945 21.3538 22.2011 18.595 20.8845C18.1632 20.7439 17.7136 20.6656 17.2598 20.6519C18.6555 18.4048 20.1489 16.2089 21.4469 13.9014C22.0935 12.7523 22.3773 11.4077 22.8426 10.1562L23.7358 10.4168C26.9924 12.2777 30.2212 14.1387 33.4499 15.9996C34.7572 16.7626 36.0179 17.6139 37.2973 18.4281L33.0265 25.7136L30.7236 28.0258Z" fill="#5F6AB1"/>
<path d="M9.28139 18.024C6.37834 13.5299 3.41946 9.06828 0.595495 4.53226C-0.642024 2.54106 0.38614 0.880186 2.77278 0.84762C6.93196 0.796444 11.0958 0.763867 15.255 0.894132C16.2088 0.978004 17.0935 1.42622 17.7254 2.14561C18.7861 3.425 19.5444 4.93701 20.4284 6.37923C14.3803 5.93726 11.0865 8.70539 9.95133 14.4975C9.72336 15.6653 9.5047 16.847 9.28139 18.024Z" fill="#646FB4"/>
<path d="M37.2783 18.4476C35.9989 17.6335 34.7382 16.7821 33.4309 16.0191C30.2021 14.1303 26.9548 12.2973 23.7168 10.4363C25.4258 7.84963 27.1316 5.26604 28.8344 2.68555C32.0631 4.26269 35.3476 5.74678 38.4926 7.45884C39.8883 8.21717 41.0514 9.43142 42.3168 10.4363L37.2783 18.4476Z" fill="#5372B7"/>
<path d="M42.3261 10.4174C41.0607 9.41247 39.9069 8.19822 38.5019 7.43989C35.3477 5.72783 32.0724 4.24373 28.8623 2.6666C29.3275 1.35929 30.258 0.805664 31.6863 0.805664C35.7757 0.861492 39.8651 0.805663 43.9545 0.833577C46.3225 0.856839 47.36 2.41538 46.2248 4.50893C45.0896 6.60248 43.6334 8.45409 42.3261 10.4174Z" fill="#497ABD"/>
<path d="M22.8145 10.1574C22.3493 11.4089 22.0794 12.7534 21.4188 13.9026C20.1301 16.2287 18.6274 18.406 17.2317 20.6531L13.5471 24.7936L12.6166 23.3421C12.4538 21.5277 12.1514 19.7133 12.1514 17.8989C12.1514 12.5441 15.194 9.58984 20.5256 9.58984H22.3865L22.8145 10.1574Z" fill="#5864AE"/>
<path d="M30.7239 28.026L33.0035 25.7324L36.3765 30.7569C36.0136 31.5711 35.6274 32.3759 35.2925 33.1994C33.706 37.0655 30.1749 39.9174 25.1504 38.1681C26.667 35.6233 28.207 33.0971 29.6771 30.5336C30.0792 29.721 30.4288 28.8834 30.7239 28.026Z" fill="#5965AE"/>
<path d="M22.3777 9.58932H20.5167C15.2084 9.58932 12.1798 12.5435 12.1425 17.8984C12.1425 19.7128 12.4449 21.5272 12.6078 23.3416L9.24414 18.024C9.46745 16.847 9.68611 15.6653 9.91408 14.4882C11.0492 8.69609 14.357 5.92795 20.3911 6.36992C21.075 7.44461 21.7263 8.51463 22.3777 9.58932Z" fill="#5F6AB1"/>
</svg>
