<svg width="216" height="27" viewBox="0 0 216 27" fill="none" xmlns="http://www.w3.org/2000/svg">
<path d="M7.65002 6.22272H0.780019C0.677387 6.22344 0.575636 6.20353 0.480678 6.16412C0.38572 6.12472 0.299448 6.06661 0.226875 5.99318C0.154302 5.91974 0.0968748 5.83245 0.0579304 5.73637C0.018986 5.64029 -0.00069905 5.53733 1.89568e-05 5.43349V0.819523C-0.00069905 0.715677 0.018986 0.612722 0.0579304 0.51664C0.0968748 0.420558 0.154302 0.333265 0.226875 0.259833C0.299448 0.186401 0.38572 0.128295 0.480678 0.0888894C0.575636 0.0494842 0.677387 0.0295661 0.780019 0.0302926H20.37C20.9904 0.0310958 21.5851 0.280806 22.0238 0.724661C22.4624 1.16852 22.7092 1.77028 22.71 2.39798V5.43349C22.7107 5.53733 22.691 5.64029 22.6521 5.73637C22.6132 5.83245 22.5557 5.91974 22.4832 5.99318C22.4106 6.06661 22.3243 6.12472 22.2293 6.16412C22.1344 6.20353 22.0326 6.22344 21.93 6.22272H15.03V25.8017C15.0307 25.9056 15.011 26.0085 14.9721 26.1046C14.9332 26.2007 14.8757 26.288 14.8032 26.3614C14.7306 26.4348 14.6443 26.4929 14.5494 26.5323C14.4544 26.5717 14.3526 26.5917 14.25 26.5909H9.99002C9.36965 26.5901 8.77492 26.3404 8.33626 25.8966C7.8976 25.4527 7.65081 24.851 7.65002 24.2232V6.22272Z" fill="#2D2D4F"/>
<path d="M27.9 9.74445L27.93 9.89623C28.89 8.16599 30.63 7.40712 32.43 7.40712C34.0396 7.38109 35.6047 7.94129 36.84 8.98558C36.9712 9.10563 37.0576 9.26759 37.085 9.4444C37.1123 9.6212 37.0787 9.80213 36.99 9.95694L34.95 13.6906C34.8997 13.7832 34.8309 13.8644 34.7482 13.9289C34.6654 13.9934 34.5703 14.04 34.4689 14.0656C34.3676 14.0912 34.262 14.0954 34.159 14.0779C34.0559 14.0604 33.9576 14.0216 33.87 13.9638C33.1441 13.5035 32.2956 13.2809 31.44 13.3263C29.73 13.3263 28.26 14.3888 28.26 16.8475V25.8023C28.2608 25.9061 28.2411 26.0091 28.2021 26.1051C28.1632 26.2012 28.1058 26.2885 28.0332 26.3619C27.9606 26.4354 27.8743 26.4935 27.7794 26.5329C27.6844 26.5723 27.5827 26.5922 27.48 26.5915H23.67C23.0497 26.5907 22.4549 26.341 22.0163 25.8971C21.5776 25.4533 21.3308 24.8515 21.33 24.2238V8.62132C21.3293 8.51747 21.349 8.41452 21.3879 8.31844C21.4269 8.22235 21.4843 8.13506 21.5569 8.06163C21.6295 7.9882 21.7157 7.93009 21.8107 7.89069C21.9057 7.85128 22.0074 7.83136 22.11 7.83209H25.62C26.158 7.84216 26.6767 8.03689 27.0909 8.38436C27.5052 8.73182 27.7905 9.2114 27.9 9.74445Z" fill="#2D2D4F"/>
<path d="M52.26 7.86247H55.77C56.3904 7.86327 56.9851 8.11298 57.4238 8.55684C57.8625 9.00069 58.1092 9.60246 58.11 10.2302V25.8023C58.1108 25.9061 58.0911 26.0091 58.0521 26.1052C58.0132 26.2013 57.9558 26.2886 57.8832 26.362C57.8106 26.4354 57.7243 26.4935 57.6294 26.5329C57.5344 26.5723 57.4327 26.5923 57.33 26.5915H53.73C53.1727 26.589 52.6345 26.3861 52.2113 26.0191C51.7882 25.6522 51.5078 25.145 51.42 24.5881C49.86 26.4094 47.37 27.0468 45.3 26.9254C39.87 26.5915 36.84 22.6757 36.84 17.2118C36.84 11.6872 40.44 7.4375 45.84 7.4375C48.45 7.4375 50.31 8.34815 51.27 9.8659L51.51 8.49993C51.5426 8.32215 51.6352 8.16136 51.772 8.04507C51.9088 7.92878 52.0814 7.86423 52.26 7.86247ZM43.71 17.2118C43.71 19.8224 45.36 21.3097 47.43 21.3097C49.74 21.3097 51.24 19.4277 51.24 17.2118C51.24 14.7227 49.86 13.0835 47.43 13.0835C45.36 13.0835 43.71 14.6013 43.71 17.2118Z" fill="#2D2D4F"/>
<path d="M68.5501 13.0827L70.5301 19.1538L72.3901 13.0827L74.1901 8.34737C74.2458 8.20107 74.3449 8.07583 74.4739 7.98886C74.6028 7.90189 74.7552 7.85747 74.9101 7.86168H78.2101C78.5922 7.8618 78.9684 7.95692 79.3057 8.13869C79.643 8.32045 79.931 8.58328 80.1443 8.90407C80.3576 9.22486 80.4898 9.59377 80.5292 9.97837C80.5685 10.363 80.5139 10.7515 80.3701 11.1097L74.2501 26.1961C74.1943 26.3424 74.0952 26.4677 73.9663 26.5546C73.8373 26.6416 73.685 26.686 73.5301 26.6818H68.7301C68.2734 26.6757 67.8278 26.5383 67.4454 26.2857C67.0629 26.0331 66.7594 25.6757 66.5701 25.2551L59.6701 8.92411C59.62 8.80421 59.6001 8.6736 59.6121 8.544C59.6242 8.4144 59.6679 8.28986 59.7393 8.18155C59.8106 8.07323 59.9074 7.98454 60.021 7.92341C60.1346 7.86229 60.2614 7.83065 60.3901 7.83133H66.0001C66.155 7.82711 66.3073 7.87154 66.4363 7.95851C66.5652 8.04548 66.6643 8.17072 66.7201 8.31701L68.5501 13.0827Z" fill="#2D2D4F"/>
<path d="M96.51 7.92204H100.02C100.64 7.92284 101.235 8.17255 101.674 8.61641C102.112 9.06026 102.359 9.66203 102.36 10.2897V25.8619C102.361 25.9657 102.341 26.0687 102.302 26.1648C102.263 26.2608 102.206 26.3481 102.133 26.4216C102.061 26.495 101.974 26.5531 101.879 26.5925C101.784 26.6319 101.683 26.6518 101.58 26.6511H97.98C97.4227 26.6486 96.8844 26.4457 96.4613 26.0787C96.0381 25.7117 95.7577 25.2045 95.67 24.6477C94.11 26.469 91.62 27.1064 89.55 26.985C84.12 26.6511 81.09 22.7353 81.09 17.2714C81.09 11.7468 84.69 7.49707 90.09 7.49707C92.7 7.49707 94.56 8.40772 95.52 9.92547L95.76 8.5595C95.7925 8.38172 95.8851 8.22093 96.022 8.10464C96.1588 7.98835 96.3313 7.9238 96.51 7.92204ZM87.96 17.3017C87.96 19.9123 89.61 21.3997 91.68 21.3997C93.99 21.3997 95.49 19.5177 95.49 17.3017C95.49 14.8126 94.11 13.1735 91.68 13.1735C89.61 13.1735 87.96 14.6912 87.96 17.3017Z" fill="#2D2D4F"/>
<path d="M112.5 2.36771V25.8018C112.501 25.9056 112.481 26.0086 112.442 26.1047C112.403 26.2008 112.346 26.288 112.273 26.3615C112.2 26.4349 112.114 26.493 112.019 26.5324C111.924 26.5718 111.823 26.5917 111.72 26.591H108C107.38 26.5902 106.785 26.3405 106.346 25.8967C105.907 25.4528 105.661 24.851 105.66 24.2233V0.78925C105.659 0.685404 105.679 0.582449 105.718 0.486367C105.757 0.390285 105.814 0.302992 105.887 0.22956C105.959 0.156128 106.046 0.0980213 106.141 0.058616C106.236 0.0192107 106.337 -0.000707323 106.44 1.91812e-05H110.16C110.78 0.000822387 111.375 0.250533 111.814 0.694387C112.252 1.13824 112.499 1.74001 112.5 2.36771Z" fill="#2D2D4F"/>
<path d="M130.29 7.89274H133.8C134.42 7.89355 135.015 8.14326 135.454 8.58711C135.892 9.03097 136.139 9.63273 136.14 10.2604V25.8326C136.141 25.9364 136.121 26.0394 136.082 26.1354C136.043 26.2315 135.986 26.3188 135.913 26.3923C135.841 26.4657 135.754 26.5238 135.659 26.5632C135.564 26.6026 135.463 26.6225 135.36 26.6218H131.76C131.203 26.6192 130.664 26.4164 130.241 26.0494C129.818 25.6824 129.538 25.1752 129.45 24.6184C127.89 26.4397 125.4 27.0771 123.33 26.9557C117.9 26.6218 114.87 22.706 114.87 17.2421C114.87 11.7175 118.47 7.46777 123.87 7.46777C126.48 7.46777 128.34 8.37842 129.3 9.89618L129.54 8.5302C129.568 8.35033 129.66 8.18678 129.797 8.06966C129.935 7.95253 130.11 7.88971 130.29 7.89274ZM121.74 17.2421C121.74 19.8526 123.39 21.34 125.46 21.34C127.77 21.34 129.27 19.458 129.27 17.2421C129.27 14.753 127.89 13.1138 125.46 13.1138C123.39 13.1138 121.74 14.6316 121.74 17.2421Z" fill="#2D2D4F"/>
<path d="M141.69 19.8223C146.7 19.8223 146.67 26.6825 141.69 26.6825C136.8 26.6521 136.71 19.8223 141.69 19.8223Z" fill="#2D2D4F"/>
<path d="M163.29 22.7361C163.389 22.8427 163.465 22.969 163.513 23.1069C163.56 23.2448 163.579 23.3913 163.568 23.537C163.557 23.6828 163.515 23.8245 163.447 23.9532C163.378 24.0818 163.284 24.1946 163.17 24.2842C161.244 25.8214 158.872 26.6747 156.42 26.7127C151.02 26.7127 145.95 24.0111 145.95 17.0294C145.95 10.2299 151.11 7.22472 156.3 7.22472C158.127 7.2162 159.926 7.68681 161.52 8.5907C161.791 8.74777 162.023 8.96489 162.199 9.22578C162.376 9.48667 162.491 9.78455 162.537 10.0971C162.584 10.4096 162.559 10.7286 162.466 11.0303C162.373 11.3319 162.214 11.6083 162 11.8387L160.56 13.4171C160.384 13.6034 160.146 13.7184 159.893 13.7408C159.639 13.7631 159.385 13.6912 159.18 13.5386C158.45 13.026 157.578 12.7603 156.69 12.7797C154.08 12.7797 152.64 14.7224 152.64 17.0598C152.64 19.0935 154.02 20.9148 156.63 20.9148C157.407 20.922 158.172 20.7231 158.85 20.3381C159.249 20.1141 159.711 20.0313 160.162 20.1028C160.613 20.1743 161.027 20.3959 161.34 20.7327L163.29 22.7361Z" fill="#2D2D4F"/>
<path d="M185.07 17.0293C185.07 23.8288 179.73 26.8036 174.51 26.8036C169.2 26.8036 163.95 23.8592 163.95 17.0293C163.95 10.1083 169.14 7.22461 174.51 7.22461C179.97 7.22461 185.07 10.2298 185.07 17.0293ZM178.32 17.0293C178.32 14.8741 176.94 12.9314 174.51 12.9314C172.08 12.9314 170.7 14.8741 170.7 17.0293C170.7 19.1845 172.08 21.0969 174.51 21.0969C176.82 21.0969 178.32 19.3059 178.32 17.0293Z" fill="#2D2D4F"/>
<path d="M200.64 26.3474C199.948 26.3469 199.284 26.0685 198.795 25.5734C198.306 25.0782 198.03 24.4068 198.03 23.7065V15.9963C198.03 13.8411 197.31 13.1126 196.08 13.1126C194.91 13.1126 193.68 14.0536 193.65 16.1177V25.4064C193.652 25.5344 193.628 25.6615 193.58 25.7801C193.533 25.8987 193.462 26.0064 193.372 26.097C193.283 26.1875 193.176 26.259 193.059 26.3072C192.942 26.3554 192.816 26.3794 192.69 26.3777H189.42C188.728 26.3773 188.064 26.0989 187.575 25.6037C187.086 25.1085 186.81 24.4371 186.81 23.7368V8.62005C186.808 8.49202 186.832 8.36496 186.88 8.24635C186.927 8.12775 186.998 8.02 187.087 7.92946C187.177 7.83893 187.283 7.76744 187.401 7.71922C187.518 7.67099 187.643 7.64701 187.77 7.64868H190.56C191.142 7.6446 191.708 7.84056 192.166 8.2045C192.624 8.56844 192.946 9.07882 193.08 9.65212C194.25 8.01294 196.26 7.22371 198.18 7.25407C200.04 7.28442 201.84 8.16472 202.77 9.89496C204.3 7.95223 206.37 7.19336 208.92 7.19336C212.91 7.19336 216 9.68247 216 15.9053V25.3457C216.002 25.4737 215.978 25.6008 215.93 25.7194C215.883 25.838 215.812 25.9457 215.722 26.0362C215.633 26.1268 215.526 26.1983 215.409 26.2465C215.292 26.2947 215.166 26.3187 215.04 26.317H211.71C211.018 26.3165 210.354 26.0382 209.865 25.543C209.376 25.0478 209.1 24.3764 209.1 23.6761V15.9963C209.1 14.0232 208.2 13.234 207.18 13.234C206.01 13.234 204.78 14.0232 204.78 16.0874V25.4064C204.782 25.5344 204.758 25.6615 204.71 25.7801C204.663 25.8987 204.592 26.0064 204.502 26.097C204.413 26.1875 204.306 26.259 204.189 26.3072C204.072 26.3554 203.946 26.3794 203.82 26.3777H200.64V26.3474Z" fill="#2D2D4F"/>
</svg>
