<?xml version="1.0" encoding="utf-8"?>
<!DOCTYPE svg PUBLIC "-//W3C//DTD SVG 1.1//EN" "http://www.w3.org/Graphics/SVG/1.1/DTD/svg11.dtd">
<svg width="55" height="55" viewBox="0 0 49 54" fill="none" xmlns="http://www.w3.org/2000/svg"><path d="M44.4025 8.67846C43.1375 7.91669 41.6897 7.51183 40.213 7.50684C39.9746 7.50684 39.7293 7.50684 39.4909 7.50684C38.3957 7.61622 37.3318 7.93538 36.3572 8.44688L32.0178 10.8038L29.9741 11.9005L15.2118 19.8023C13.9074 20.4966 12.8168 21.533 12.057 22.8004C11.2973 24.0677 10.8972 25.5181 10.8997 26.9957V34.1277L16.3495 31.2122V26.9957C16.3507 26.5053 16.4843 26.0243 16.7361 25.6035C16.9879 25.1827 17.3485 24.8376 17.7801 24.6047L29.9741 18.0789L32.0178 16.989L37.4676 14.0735L38.9323 13.2901C39.1143 13.188 39.309 13.1101 39.5113 13.0585C39.732 12.9906 39.9616 12.9562 40.1926 12.9564C40.6872 12.9608 41.1716 13.0972 41.5959 13.3514C41.9996 13.5892 42.3336 13.9291 42.5643 14.3368C42.7951 14.7446 42.9145 15.2058 42.9107 15.6743V31.0147C42.9094 31.5051 42.7759 31.9861 42.5241 32.4069C42.2723 32.8277 41.9116 33.1727 41.4801 33.4057L16.3495 46.8592V42.0296L10.8997 44.9178V51.1166C10.8994 51.615 11.0283 52.1049 11.2739 52.5385C11.5195 52.9722 11.8734 53.3347 12.301 53.5907C12.7286 53.8467 13.2153 53.9874 13.7136 53.9991C14.2118 54.0108 14.7046 53.8931 15.1437 53.6575L44.0551 38.1808C45.356 37.4893 46.4443 36.4573 47.2039 35.195C47.9634 33.9328 48.3656 32.4878 48.3673 31.0147V15.6743C48.3735 14.2638 48.0108 12.8763 47.3154 11.6491C46.6199 10.422 45.6158 9.39793 44.4025 8.67846V8.67846Z" fill="white"></path><path d="M32.0179 19.3053V23.5219C32.0166 24.0123 31.8831 24.4933 31.6313 24.9141C31.3795 25.3349 31.0188 25.6799 30.5873 25.9129L18.3933 32.4387L16.3496 33.5354L10.8997 36.4509L8.85605 37.5408L5.4499 39.3664V19.5029C5.45112 19.0125 5.58467 18.5315 5.83646 18.1107C6.08824 17.6899 6.44893 17.3448 6.88048 17.1119L27.9986 5.79734C28.386 5.58095 28.8219 5.46613 29.2657 5.46356C29.7603 5.46805 30.2447 5.60441 30.669 5.85862C31.0727 6.09644 31.4067 6.4363 31.6375 6.84403C31.8683 7.25175 31.9877 7.71302 31.9838 8.1815V8.48805L35.3559 6.68288C35.9202 6.3823 36.5108 6.1338 37.1203 5.9404C36.5624 3.9402 35.2545 2.23222 33.4689 1.17207C32.2616 0.44032 30.8839 0.0370935 29.4725 0.00243934C28.0612 -0.0322148 26.6653 0.302882 25.4236 0.974499L4.30544 12.2959C3.00023 12.9921 1.90963 14.0311 1.15101 15.301C0.392379 16.5709 -0.0055524 18.0237 5.85259e-05 19.5029V43.6511C-0.000257515 44.1494 0.128691 44.6393 0.374311 45.073C0.61993 45.5066 0.973814 45.8691 1.40142 46.1251C1.82902 46.3811 2.31571 46.5218 2.81396 46.5335C3.3122 46.5452 3.80497 46.4275 4.24413 46.1919L8.85605 43.726L10.8997 42.6293L16.3496 39.7138L18.3933 38.6171L33.1555 30.7153C34.4604 30.0216 35.5515 28.9853 36.3113 27.7178C37.0711 26.4503 37.4709 24.9997 37.4677 23.5219V16.3898L32.0179 19.3053Z" fill="white"></path></svg>
