<svg id="图层_1" data-name="图层 1" xmlns="http://www.w3.org/2000/svg" xmlns:xlink="http://www.w3.org/1999/xlink" viewBox="0 0 600 282.72"><defs><style>.cls-1{fill:url(#未命名的渐变_10);}.cls-2{fill:url(#未命名的渐变_10-2);}.cls-3{fill:url(#未命名的渐变_10-3);}.cls-4{fill:url(#未命名的渐变_10-4);}.cls-5{fill:url(#未命名的渐变_10-5);}.cls-6{fill:url(#未命名的渐变_10-6);}.cls-7{fill:url(#未命名的渐变_10-7);}.cls-8{fill:url(#未命名的渐变_10-8);}.cls-9{fill:url(#未命名的渐变_10-9);}.cls-10{fill:url(#未命名的渐变_10-10);}.cls-11{fill:url(#未命名的渐变_10-11);}</style><linearGradient id="未命名的渐变_10" x1="370.96" y1="486.66" x2="653.68" y2="486.66" gradientUnits="userSpaceOnUse"><stop offset="0" stop-color="#fda9ff"/><stop offset="1" stop-color="#039cff"/></linearGradient><linearGradient id="未命名的渐变_10-2" x1="355.09" y1="486.65" x2="669.55" y2="486.65" xlink:href="#未命名的渐变_10"/><linearGradient id="未命名的渐变_10-3" x1="339.23" y1="486.65" x2="685.41" y2="486.65" xlink:href="#未命名的渐变_10"/><linearGradient id="未命名的渐变_10-4" x1="323.37" y1="486.65" x2="701.28" y2="486.65" xlink:href="#未命名的渐变_10"/><linearGradient id="未命名的渐变_10-5" x1="307.5" y1="486.64" x2="717.14" y2="486.64" xlink:href="#未命名的渐变_10"/><linearGradient id="未命名的渐变_10-6" x1="291.64" y1="486.64" x2="733.01" y2="486.64" xlink:href="#未命名的渐变_10"/><linearGradient id="未命名的渐变_10-7" x1="275.78" y1="486.63" x2="748.87" y2="486.63" xlink:href="#未命名的渐变_10"/><linearGradient id="未命名的渐变_10-8" x1="259.92" y1="486.63" x2="764.73" y2="486.63" xlink:href="#未命名的渐变_10"/><linearGradient id="未命名的渐变_10-9" x1="244.05" y1="486.63" x2="780.6" y2="486.63" xlink:href="#未命名的渐变_10"/><linearGradient id="未命名的渐变_10-10" x1="228.19" y1="486.62" x2="796.46" y2="486.62" xlink:href="#未命名的渐变_10"/><linearGradient id="未命名的渐变_10-11" x1="212.32" y1="486.62" x2="812.32" y2="486.62" xlink:href="#未命名的渐变_10"/></defs><title>logo</title><path class="cls-1" d="M512.32,628C434.37,628,371,564.61,371,486.66s63.41-141.37,141.36-141.37,141.36,63.42,141.36,141.37S590.27,628,512.32,628Zm0-278.14c-75.42,0-136.77,61.36-136.77,136.78S436.9,623.43,512.32,623.43s136.77-61.36,136.77-136.77S587.74,349.88,512.32,349.88Z" transform="translate(-212.32 -345.29)"/><path class="cls-2" d="M512.34,619.07v-4.59c84.15,0,152.62-57.34,152.62-127.82S596.49,358.82,512.32,358.82,359.68,416.16,359.68,486.64s68.48,127.84,152.64,127.84l0,2.3v2.29c-86.71,0-157.25-59.41-157.25-132.43S425.62,354.23,512.3,354.23s157.25,59.41,157.25,132.43S599,619.07,512.34,619.07Z" transform="translate(-212.32 -345.29)"/><path class="cls-3" d="M512.37,610.13h0c-95.45,0-173.1-55.4-173.1-123.5s77.63-123.46,173.06-123.46,173.12,55.4,173.12,123.49S607.79,610.13,512.37,610.13Zm0-242.37c-92.93,0-168.51,53.33-168.51,118.87s75.59,118.91,168.51,118.91h0c92.88,0,168.45-53.33,168.45-118.88S605.23,367.76,512.33,367.76Z" transform="translate(-212.32 -345.29)"/><path class="cls-4" d="M512.39,601.18h-.06c-104.2,0-189-51.39-189-114.56S408.1,372.11,512.26,372.11s189,51.39,189,114.56S616.54,601.18,512.39,601.18Zm-.06-224.48C410.63,376.7,328,426,328,486.62s82.7,110,184.37,110h.06c101.62,0,184.3-49.31,184.3-109.92S614,376.7,512.33,376.7Z" transform="translate(-212.32 -345.29)"/><path class="cls-5" d="M512.43,592.24h-.1c-112.94,0-204.83-47.39-204.83-105.63s91.84-105.56,204.72-105.56c113,0,204.92,47.38,204.92,105.62S625.31,592.24,512.43,592.24Zm-.1-206.6c-53.62,0-104.08,10.77-142.19,30.34-37.43,19.2-58.05,44.29-58.05,70.63s20.63,51.46,58.08,70.68c38.13,19.57,88.62,30.36,142.16,30.36l.1,2.29v-2.29c53.51,0,104-10.78,142.08-30.34,37.43-19.21,58-44.3,58-70.64S691.93,435.22,654.48,416C616.35,396.42,565.87,385.64,512.33,385.64Z" transform="translate(-212.32 -345.29)"/><path class="cls-6" d="M512.49,583.29h-.16c-121.69,0-220.69-43.38-220.69-96.69S390.57,390,512.17,390C634,390,733,433.36,733,486.68S634.08,583.29,512.49,583.29Zm-.16-188.71c-117.21,0-216.1,42.14-216.1,92s99,92.1,216.1,92.1l.16,2.29V578.7c117,0,215.93-42.14,215.93-92S629.46,394.58,512.33,394.58Z" transform="translate(-212.32 -345.29)"/><path class="cls-7" d="M512.56,574.34h-.23c-130.43,0-236.55-39.37-236.55-87.75s106-87.66,236.33-87.66c130.65,0,236.76,39.37,236.76,87.75S642.86,574.34,512.56,574.34Zm-.23-170.82c-125.83,0-232,38-232,83.07s106.23,83.16,232,83.16h.23c125.6,0,231.72-38,231.72-83.07S638.06,403.52,512.33,403.52Z" transform="translate(-212.32 -345.29)"/><path class="cls-8" d="M512.63,565.4h-.3c-66.46,0-129.52-8.22-177.54-23.12-48.28-15-74.87-34.76-74.87-55.7s26.55-40.67,74.77-55.63c48-14.89,110.94-23.08,177.33-23.08h.31c66.46,0,129.5,8.21,177.53,23.11,48.28,15,74.87,34.77,74.87,55.71S738.18,527.35,690,542.32C642,557.2,579,565.4,512.63,565.4ZM512,412.46c-131.85,0-247.51,34.63-247.51,74.12s115.8,74.22,247.82,74.23h.3c131.85,0,247.51-34.64,247.51-74.12s-115.8-74.23-247.81-74.23Z" transform="translate(-212.32 -345.29)"/><path class="cls-9" d="M512.75,556.45h-.42c-70.45,0-137.45-7.3-188.65-20.55-51.35-13.29-79.63-30.81-79.63-49.33s28.23-36,79.49-49.25,118-20.51,188.38-20.51h.41c70.45,0,137.44,7.3,188.64,20.55s79.63,30.81,79.63,49.33-28.23,36-79.5,49.25C650,549.17,583.1,556.45,512.75,556.45Zm-.83-135.05c-155.15,0-263.28,34.34-263.28,65.17s108.3,65.29,263.69,65.29h.42c155.14,0,263.26-34.35,263.26-65.17S667.72,421.4,512.33,421.4Z" transform="translate(-212.32 -345.29)"/><path class="cls-10" d="M512.9,547.5h-.56c-154,0-284.15-27.91-284.15-60.94s129.86-60.81,283.57-60.81h.58c154,0,284.12,27.91,284.12,60.95S666.61,547.5,512.9,547.5Zm-1.14-117.16c-73.92,0-144.4,6.34-198.43,17.85-50.44,10.75-80.55,25.09-80.55,38.37S263,514.24,313.51,525c54.16,11.54,124.77,17.89,198.83,17.89h.56c73.92,0,144.39-6.34,198.42-17.85,50.44-10.75,80.55-25.09,80.55-38.36S761.69,459,711.14,448.23C657,436.7,586.39,430.34,512.34,430.34Z" transform="translate(-212.32 -345.29)"/><path class="cls-11" d="M513.1,538.56h-.76c-162.63,0-300-23.82-300-52s137-51.85,299.26-51.85h.76c162.61,0,300,23.82,300,52S675.3,538.56,513.1,538.56Zm-1.52-99.28c-77.76,0-152.2,5.44-209.62,15.33-62.7,10.8-85,23.57-85,31.93s22.4,21.21,85.29,32.05C359.79,528.51,434.41,534,512.34,534h.76c77.74,0,152.17-5.45,209.59-15.34,62.7-10.79,85-23.57,85-31.93s-22.4-21.21-85.29-32c-57.57-9.92-132.19-15.38-210.1-15.38Z" transform="translate(-212.32 -345.29)"/></svg>