<svg id="图层_1" data-name="图层 1" xmlns="http://www.w3.org/2000/svg" xmlns:xlink="http://www.w3.org/1999/xlink" viewBox="0 0 648 329.83"><defs><style>.cls-1{fill:#494b68;}.cls-2{fill:url(#未命名的渐变_10);}.cls-3{fill:url(#未命名的渐变_10-2);}.cls-4{fill:url(#未命名的渐变_10-3);}.cls-5{fill:url(#未命名的渐变_10-4);}.cls-6{fill:url(#未命名的渐变_10-5);}.cls-7{fill:url(#未命名的渐变_10-6);}.cls-8{fill:url(#未命名的渐变_10-7);}.cls-9{fill:url(#未命名的渐变_10-8);}.cls-10{fill:url(#未命名的渐变_10-9);}.cls-11{fill:url(#未命名的渐变_10-10);}.cls-12{fill:url(#未命名的渐变_10-11);}</style><linearGradient id="未命名的渐变_10" x1="414.32" y1="444.3" x2="609.43" y2="444.3" gradientUnits="userSpaceOnUse"><stop offset="0" stop-color="#fda9ff"/><stop offset="1" stop-color="#039cff"/></linearGradient><linearGradient id="未命名的渐变_10-2" x1="403.37" y1="444.29" x2="620.38" y2="444.29" xlink:href="#未命名的渐变_10"/><linearGradient id="未命名的渐变_10-3" x1="392.43" y1="444.29" x2="631.33" y2="444.29" xlink:href="#未命名的渐变_10"/><linearGradient id="未命名的渐变_10-4" x1="381.48" y1="444.29" x2="642.28" y2="444.29" xlink:href="#未命名的渐变_10"/><linearGradient id="未命名的渐变_10-5" x1="370.53" y1="444.29" x2="653.23" y2="444.29" xlink:href="#未命名的渐变_10"/><linearGradient id="未命名的渐变_10-6" x1="359.58" y1="444.28" x2="664.17" y2="444.28" xlink:href="#未命名的渐变_10"/><linearGradient id="未命名的渐变_10-7" x1="348.64" y1="444.28" x2="675.12" y2="444.28" xlink:href="#未命名的渐变_10"/><linearGradient id="未命名的渐变_10-8" x1="337.69" y1="444.28" x2="686.07" y2="444.28" xlink:href="#未命名的渐变_10"/><linearGradient id="未命名的渐变_10-9" x1="326.74" y1="444.28" x2="697.02" y2="444.28" xlink:href="#未命名的渐变_10"/><linearGradient id="未命名的渐变_10-10" x1="315.79" y1="444.27" x2="707.97" y2="444.27" xlink:href="#未命名的渐变_10"/><linearGradient id="未命名的渐变_10-11" x1="304.85" y1="444.27" x2="718.91" y2="444.27" xlink:href="#未命名的渐变_10"/></defs><title>logoVertical</title><path class="cls-1" d="M240.61,676.38v-17.6h-46.8a5.94,5.94,0,0,1-5.93-5.94v-16.5h4.84v17.6h47.89v-17.6h4.83v40Z" transform="translate(-187.88 -346.74)"/><path class="cls-1" d="M281.17,676.26a20,20,0,1,1,0-40l37.5.16,0,4.84-37.49-.16a15.16,15.16,0,0,0,0,30.31l37.5.17,0,4.83ZM284,658.87l0-4.83,34.64.15,0,4.83Z" transform="translate(-187.88 -346.74)"/><path class="cls-1" d="M365.06,676.38a5.94,5.94,0,0,1-4.27-1.82l-.17-.18-22.87-35.83,4.07-2.6,23.24,36.41L388.3,636l4.07,2.6-22.86,35.82-.17.18A5.94,5.94,0,0,1,365.06,676.38Z" transform="translate(-187.88 -346.74)"/><path class="cls-1" d="M426.29,676.21a20,20,0,0,1,0-40l37.51.16,0,4.84-37.5-.17a15.16,15.16,0,0,0,0,30.32l37.51.16,0,4.84Zm2.86-17.39,0-4.84,34.64.15,0,4.84Z" transform="translate(-187.88 -346.74)"/><path class="cls-1" d="M506.25,676.47a5.94,5.94,0,0,1-5.94-5.93V659.93a5.94,5.94,0,0,1,5.94-5.94h19.24a6.48,6.48,0,0,0,6.46-6.5v-.22a6.2,6.2,0,0,0-6.2-6.2H484.06v35.39h-4.84v-34.3a5.94,5.94,0,0,1,5.93-5.93h40.6a11,11,0,0,1,11,11v.22a11.34,11.34,0,0,1-11.3,11.34H505.15v12.81h30v4.83Z" transform="translate(-187.88 -346.74)"/><path class="cls-1" d="M560,676.36a5.94,5.94,0,0,1-5.94-5.93V636.34h4.84v35.19h52.51v4.83Z" transform="translate(-187.88 -346.74)"/><path class="cls-1" d="M681.35,676.36V660.69H646.19v-4.84h35.16V641.18h-47.9v35.18h-4.83V642.27a5.94,5.94,0,0,1,5.93-5.93h45.7a5.94,5.94,0,0,1,5.93,5.93v34.09Z" transform="translate(-187.88 -346.74)"/><path class="cls-1" d="M755.06,676.57a5.92,5.92,0,0,1-2.75-.68l-.22-.12-43.84-35.91v36.52h-4.83v-34.3a5.89,5.89,0,0,1,2.85-5.07,6,6,0,0,1,3.08-.87,5.88,5.88,0,0,1,2.74.68l.22.11,43.84,35.92V636.33H761v34.3a5.95,5.95,0,0,1-5.92,5.94Z" transform="translate(-187.88 -346.74)"/><path class="cls-1" d="M778.22,676.38V655.73h4.84v15.82h32.82a15.16,15.16,0,0,0,0-30.32H778.22v-4.84h37.66a20,20,0,1,1,0,40Z" transform="translate(-187.88 -346.74)"/><path class="cls-2" d="M511.88,541.85a97.56,97.56,0,1,1,97.55-97.55A97.66,97.66,0,0,1,511.88,541.85Zm0-191.94a94.39,94.39,0,1,0,94.39,94.39A94.49,94.49,0,0,0,511.88,349.91Z" transform="translate(-187.88 -346.74)"/><path class="cls-3" d="M511.89,535.68v-3.17c58.08,0,105.32-39.57,105.32-88.21S570,356.08,511.88,356.08s-105.34,39.57-105.34,88.21,47.25,88.22,105.34,88.22v3.17c-59.84,0-108.52-41-108.52-91.39s48.67-91.38,108.5-91.38,108.51,41,108.51,91.39S571.71,535.68,511.89,535.68Z" transform="translate(-187.88 -346.74)"/><path class="cls-4" d="M511.91,529.5h0c-65.87,0-119.45-38.23-119.45-85.22s53.57-85.2,119.42-85.2,119.48,38.23,119.48,85.22S577.76,529.5,511.91,529.5Zm0-167.25c-64.13,0-116.29,36.8-116.29,82s52.17,82.06,116.29,82.06h0c64.1,0,116.25-36.8,116.25-82S576,362.25,511.88,362.25Z" transform="translate(-187.88 -346.74)"/><path class="cls-5" d="M511.93,523.33h-.05c-71.9,0-130.4-35.46-130.4-79.06s58.47-79,130.35-79,130.45,35.46,130.45,79.05S583.8,523.33,511.93,523.33Zm-.05-154.91c-70.18,0-127.23,34-127.23,75.85s57.07,75.89,127.23,75.89h.05c70.13,0,127.18-34,127.18-75.86S582,368.42,511.88,368.42Z" transform="translate(-187.88 -346.74)"/><path class="cls-6" d="M512,517.16h-.07c-77.94,0-141.35-32.7-141.35-72.9s63.38-72.84,141.28-72.84,141.42,32.7,141.42,72.89S589.85,517.16,512,517.16Zm-.07-142.58c-37,0-71.83,7.44-98.13,20.94-25.83,13.25-40.05,30.57-40.05,48.74s14.23,35.52,40.07,48.78C440.09,506.55,474.93,514,511.88,514l.07,1.58V514c36.93,0,71.75-7.44,98.05-20.93,25.83-13.26,40.06-30.58,40.06-48.75S635.83,408.8,610,395.53C583.67,382,548.83,374.58,511.88,374.58Z" transform="translate(-187.88 -346.74)"/><path class="cls-7" d="M512,511h-.11c-84,0-152.3-29.93-152.3-66.72s68.28-66.68,152.19-66.68c84.09,0,152.4,29.94,152.4,66.73S595.91,511,512,511Zm-.11-130.23c-80.88,0-149.13,29.08-149.13,63.51s68.3,63.55,149.13,63.55l.11,1.59v-1.59c80.78,0,149-29.08,149-63.5S592.72,380.75,511.88,380.75Z" transform="translate(-187.88 -346.74)"/><path class="cls-8" d="M512,504.81h-.16c-90,0-163.24-27.17-163.24-60.56s73.16-60.5,163.09-60.5c90.16,0,163.39,27.17,163.39,60.56S602,504.81,512,504.81Zm-.16-117.89c-86.84,0-160.08,26.26-160.08,57.33s73.31,57.39,160.08,57.39H512c86.68,0,159.91-26.25,159.91-57.33S598.65,386.92,511.88,386.92Z" transform="translate(-187.88 -346.74)"/><path class="cls-9" d="M512.09,498.64h-.2c-45.87,0-89.39-5.67-122.53-16-33.32-10.34-51.67-24-51.67-38.44s18.33-28.06,51.6-38.39c33.1-10.27,76.57-15.93,122.38-15.93h.22c45.86,0,89.37,5.67,122.51,16,33.32,10.34,51.67,24,51.67,38.44s-18.33,28.06-51.6,38.39C601.36,493,557.9,498.64,512.09,498.64Zm-.42-105.55c-91,0-170.81,23.9-170.81,51.15s79.92,51.23,171,51.23h.2c91,0,170.81-23.91,170.81-51.15s-79.91-51.23-171-51.23Z" transform="translate(-187.88 -346.74)"/><path class="cls-10" d="M512.17,492.46h-.28c-48.63,0-94.86-5-130.2-14.18s-54.95-21.26-54.95-34,19.48-24.83,54.86-34,81.45-14.16,130-14.16h.29c48.61,0,94.84,5,130.18,14.19s54.95,21.26,54.95,34-19.48,24.83-54.86,34S560.72,492.46,512.17,492.46Zm-.57-93.2c-107.07,0-181.69,23.7-181.69,45s74.73,45.06,182,45.06h.28c107.07,0,181.68-23.7,181.68-45s-74.73-45.06-182-45.06Z" transform="translate(-187.88 -346.74)"/><path class="cls-11" d="M512.28,486.29h-.39c-106.29,0-196.1-19.26-196.1-42.06s89.62-42,195.7-42h.4c106.29,0,196.08,19.27,196.08,42.06S618.35,486.29,512.28,486.29Zm-.79-80.86c-51,0-99.65,4.37-136.94,12.32C339.74,425.17,319,435.06,319,444.23s20.83,19.1,55.72,26.54c37.37,8,86.1,12.35,137.21,12.35h.39c51,0,99.64-4.37,136.93-12.32,34.81-7.42,55.59-17.31,55.59-26.48s-20.83-19.1-55.72-26.54c-37.37-8-86.09-12.35-137.19-12.35Z" transform="translate(-187.88 -346.74)"/><path class="cls-12" d="M512.42,480.11h-.53c-112.23,0-207-16.44-207-35.89s94.57-35.79,206.51-35.79h.53c112.22,0,207,16.44,207,35.9S624.35,480.11,512.42,480.11Zm-1.06-68.51c-53.66,0-105,3.76-144.66,10.58-43.27,7.45-58.69,16.27-58.69,22s15.47,14.63,58.87,22.11c39.73,6.85,91.23,10.62,145,10.62h.53c53.64,0,105-3.76,144.64-10.59,43.27-7.45,58.68-16.27,58.68-22s-15.46-14.64-58.85-22.12c-39.74-6.84-91.23-10.61-145-10.61Z" transform="translate(-187.88 -346.74)"/></svg>