<svg xmlns="http://www.w3.org/2000/svg" viewBox="0 0 400 400"><defs><style>.cls-1{fill:#2e2db1;}.cls-2{fill:#fff;}</style></defs><g id="Layer_2" data-name="Layer 2"><g id="Layer_1-2" data-name="Layer 1"><circle class="cls-1" cx="200" cy="200" r="200"/><path class="cls-2" d="M208.3,236.6c.6-27.8.3-54.8.4-82.5H191.2a169.7,169.7,0,0,1-.2-22.5c5.7-1.6,11.3,0,17.2-1.2.2-2,.4-4.1.5-6.2.3-8.7,1.2-17.2,4.3-25.5,5.5-14.8,16-24.2,31-28.8a66.1,66.1,0,0,1,21.7-2.3c7.5.4,15,1.2,22.4,1.9,4.1.4,4.8,1.3,4.9,5.4s0,11-.1,16.5a27.3,27.3,0,0,1-.7,3.9l-11.8-2.4c-9.5-1.9-18.9-2.2-28.2.5s-13.7,8.2-15.3,16.7c-1.1,5.7-1.3,11.6-1.8,17.3-.1,1,.4,1.9.7,3.5h46c1.5,4.3,1.6,17.6.3,23-7.4.5-15,.1-22.6.2H236.2c-.1,2.1-.3,3.7-.3,5.3-.1,42.3,0,84.7-.1,127,0,19.1-6.4,35.5-20.8,48.5-21.8,19.7-53.5,20.8-77,4.5-21.3-14.7-30.5-40.7-24.4-66s31.1-45.3,55.9-46.6c13.1-.7,25,2.5,36.3,8.7Zm-.2,51.6c.9-19.6-16.7-35-35-34.5-20.2.7-35.1,16.8-34.3,36.7a34.8,34.8,0,0,0,37.2,33C195.2,322.2,209.7,305.3,208.1,288.2Z"/></g></g></svg>