<svg xmlns="http://www.w3.org/2000/svg" viewBox="0 0 349.6 358"><defs><style>.cls-1{fill:#ca1e7b;}.cls-2{fill:#811f58;}.cls-3{fill:#cd4190;}.cls-4{fill:#1d1e40;}.cls-5{fill:#fff;}</style></defs><g id="Layer_2" data-name="Layer 2"><g id="Layer_1-2" data-name="Layer 1"><polygon class="cls-1" points="322.4 183.8 349.6 177.1 349.6 226.7 322.4 233.4 322.4 183.8"/><polygon class="cls-2" points="279.5 159 279.5 208.6 322.4 233.4 322.4 183.8 279.5 159"/><polygon class="cls-3" points="322.4 183.8 349.6 177.1 306.5 152.3 279.5 159 322.4 183.8"/><polygon class="cls-2" points="84.2 160.8 84.2 219.3 41.9 194.5 41.9 136.7 84.2 160.8"/><polygon class="cls-3" points="41.9 136.7 84.2 160.8 124.9 151.7 82 126.2 41.9 136.7"/><polygon class="cls-1" points="124.9 209.2 124.9 151.7 84.2 160.8 84.2 219.3 124.9 209.2"/><polygon class="cls-2" points="42.2 89.8 42.2 137 0 112.2 0 64.7 42.2 89.8"/><polygon class="cls-3" points="0 64.7 42.2 89.8 83 79.4 40.1 54.3 0 64.7"/><polygon class="cls-1" points="83 126.9 83 79.4 42.2 89.8 42.2 137 83 126.9"/><polygon class="cls-2" points="66.4 178.9 109.6 203.7 109.6 278.1 66.4 253.3 66.4 178.9"/><polygon class="cls-4" points="109.6 203.7 102.6 199.7 102.6 274.1 109.6 278.1 109.6 203.7"/><polygon class="cls-3" points="263.9 129.9 306.8 154.7 109.6 203.7 66.4 178.9 263.9 129.9"/><polyline class="cls-4" points="252.3 168.2 245.2 163.9 102.6 199.7 109.6 203.7"/><polygon class="cls-1" points="306.8 229.1 306.8 154.7 109.6 203.7 109.6 278.1 306.8 229.1"/><polygon class="cls-1" points="163.2 59.5 285 28.9 285 281.2 163.2 312.1 163.2 59.5"/><polygon class="cls-2" points="287.5 311.8 287.5 336.6 236 306.6 236 281.8 287.5 311.8"/><polygon class="cls-2" points="206 333.8 206 358 184.6 345.8 184.6 321.3 206 333.8"/><polygon class="cls-3" points="184.6 321.6 206 333.8 246.8 322.2 224.7 311.2 184.6 321.6"/><polygon class="cls-1" points="246.8 347 246.8 322.2 206 333.8 206 358 246.8 347"/><polygon class="cls-4" points="306.8 289.1 184.6 321.9 184.6 171.3 184.6 171.3 306.8 140.3 306.8 289.1"/><polygon class="cls-4" points="163.2 100.2 285 69.3 285 130.5 163.2 161.5 163.2 100.2"/><polygon class="cls-2" points="184.6 171.3 184.6 345.8 163.2 333.2 163.2 158.7 184.6 171.3"/><polygon class="cls-5" points="243.7 185.3 243.7 289.1 229.3 292.8 229.3 189 243.7 185.3"/><polygon class="cls-5" points="278.9 176.5 278.9 280.2 264.5 283.9 264.5 179.8 278.9 176.5"/><polygon class="cls-5" points="218.9 227.3 288.4 209.8 288.4 194.5 218.9 212 218.9 227.3"/><polygon class="cls-5" points="218.9 275 288.4 257.6 288.4 242.3 218.9 259.7 218.9 275"/><polygon class="cls-2" points="163.2 158.7 163.2 133.9 206 158.7 206 183.5 163.2 158.7"/><polygon class="cls-4" points="285 103.3 328.2 128.1 206 158.7 163.2 133.9 285 103.3"/><path class="cls-2" d="M163.2,133.9v-30s2.1,31.2,29.1,46.8Z"/><path class="cls-4" d="M285.3,103.3v-38s3.4,40.1,42.9,63.1Z"/><path class="cls-1" d="M206,109.1v24.8l112.7-28.5a12.1,12.1,0,0,0,9.2-11.9V78.2Z"/><path class="cls-1" d="M206,158.7v24.8L318.7,155a12.1,12.1,0,0,0,9.2-11.9V127.8Z"/><polygon class="cls-3" points="285 53.4 328.2 78.2 206 109.1 163.2 84.3 285 53.4"/><polygon class="cls-2" points="163.2 109.1 163.2 84.3 206 109.1 206 133.9 163.2 109.1"/><polygon class="cls-3" points="266.7 300.1 287.5 311.8 328.2 301.7 306.8 289.1 266.7 300.1"/><polygon class="cls-1" points="328.2 326.5 328.2 301.7 287.5 311.8 287.5 336.6 328.2 326.5"/><path class="cls-3" d="M218,1,118.8,26.1h0a12.6,12.6,0,0,0-6.4,4c11.3,6.4,50.8,29.4,50.8,29.4h0L285,28.6,243.1,4.4A34.2,34.2,0,0,0,218,1Z"/><path class="cls-2" d="M112.4,30.1a12.1,12.1,0,0,0-3.1,8V53.4h0V302.3l53.9,30.9V59.5Z"/><path class="cls-5" d="M144.8,80.3c-.6,5.5-5.2,8.9-10.1,7.4s-8.3-7.4-7.3-12.9,5.2-8.9,10.1-7.3S145.4,74.8,144.8,80.3Z"/><polygon class="cls-1" points="184.6 219 211.9 212 211.9 261.9 184.6 268.6 184.6 219"/><polygon class="cls-2" points="141.7 194.2 141.7 243.8 184.6 268.6 184.6 219 141.7 194.2"/><polygon class="cls-3" points="184.6 219 211.9 212 168.7 187.2 141.7 194.2 184.6 219"/><circle class="cls-2" cx="143.9" cy="80.9" r="7.7"/></g></g></svg>