<?xml version="1.0" encoding="utf-8"?>
<!-- Generator: Adobe Illustrator 24.0.0, SVG Export Plug-In . SVG Version: 6.00 Build 0)  -->
<svg version="1.1" id="Layer_1" xmlns="http://www.w3.org/2000/svg" xmlns:xlink="http://www.w3.org/1999/xlink" x="0px" y="0px"
	 viewBox="0 0 122 122" style="enable-background:new 0 0 122 122;" xml:space="preserve">
<style type="text/css">
	.st0{fill:#1B1B1B;stroke:#FFFFFF;stroke-width:4;}
	.st1{fill-rule:evenodd;clip-rule:evenodd;fill:#FFFFFF;}
	.st2{fill:none;stroke:#FFFFFF;stroke-width:2;stroke-linecap:round;}
</style>
<circle class="st0" cx="61" cy="61" r="59"/>
<path class="st1" d="M78.3,43.7c0.8,0.8,2.1,0.7,2.7-0.2c0.6-0.7,0.5-1.8-0.2-2.4c-6.6-6.3-12.5-9.5-22.3-9
	C48.2,32.6,39.1,38,39.7,49.4C40.2,59.5,50,63.2,58.6,66.5c6.6,2.5,12.4,4.7,12.7,9.4c0.3,5.2-5,8.3-9.6,8.6
	c-8.7,0.5-13.8-2.6-19.5-8.1c-0.7-0.7-1.8-0.7-2.5-0.1c-0.8,0.7-0.8,1.9-0.1,2.7c6.4,6.4,13,9.6,22.6,9.1C71.8,87.4,83.6,82,83,70.6
	c-0.5-9.9-9.9-13.6-18.4-16.8c-7-2.7-13.5-5.2-13.8-10.9c-0.2-4.1,4.7-7.1,8.2-7.3C67.5,35.2,72.8,38.2,78.3,43.7z M79.4,70.8
	c0,4.4-2.4,8.2-6,10.4l-0.2-0.1c1.3-1.8,1.5-4.1,1.5-6.3c0-6.5-7.1-9-14.6-11.7c-8.3-3-17-6.1-17-14.9c0-4,1.8-8.3,5.3-10.3l0.1,0.2
	c-0.9,1.9-1.3,4-1.3,6.1c0,7.2,7.9,10.1,15.9,13.1C71.3,60.3,79.4,63.3,79.4,70.8z"/>
<path class="st2" d="M60.5,108c26.2,0,47.5-21.3,47.5-47.5S86.7,13,60.5,13S13,34.3,13,60.5S34.3,108,60.5,108z"/>
</svg>
