<svg id="svg" version="1.1" xmlns="http://www.w3.org/2000/svg" xmlns:xlink="http://www.w3.org/1999/xlink" width="400" height="188" viewBox="0, 0, 400,188"><g id="svgg"><path id="path0" d="M230.465 35.979 C 227.486 37.063,226.842 40.698,229.236 42.923 L 230.199 43.818 231.949 43.818 L 233.698 43.818 234.762 42.787 L 235.825 41.757 235.825 39.890 L 235.825 38.023 235.148 37.206 C 234.014 35.838,232.177 35.356,230.465 35.979 M165.617 77.605 C 165.548 77.674,165.491 100.862,165.491 129.134 L 165.491 180.537 202.492 180.489 L 239.492 180.442 239.492 169.535 L 239.492 158.627 213.963 158.579 L 188.434 158.532 188.434 149.036 L 188.434 139.539 209.967 139.539 L 231.500 139.539 231.500 128.538 L 231.500 117.536 209.967 117.536 L 188.434 117.536 188.434 109.074 L 188.434 100.611 226.986 100.611 L 265.538 100.611 265.538 140.574 L 265.538 180.536 277.480 180.536 L 289.422 180.536 289.422 140.574 L 289.422 100.611 304.560 100.611 C 319.468 100.611,319.705 100.605,320.077 100.234 C 320.447 99.863,320.453 99.653,320.406 88.715 L 320.357 77.574 243.050 77.527 C 200.531 77.501,165.686 77.536,165.617 77.605 M354.678 90.476 C 354.109 90.564,352.484 90.764,351.068 90.919 C 348.684 91.181,344.581 92.091,343.729 92.547 C 343.529 92.654,342.927 92.871,342.392 93.029 C 339.623 93.848,334.658 97.733,332.781 100.547 C 331.356 102.684,331.196 102.977,330.643 104.466 C 328.917 109.116,328.673 113.023,329.824 117.553 C 330.927 121.898,332.733 124.135,337.753 127.375 C 338.584 127.911,340.922 128.830,343.112 129.481 C 344.813 129.986,347.038 130.657,349.941 131.541 C 350.801 131.803,351.670 132.017,351.873 132.017 C 352.076 132.017,352.727 132.188,353.319 132.397 C 353.911 132.606,354.988 132.866,355.712 132.975 C 356.967 133.163,358.294 133.511,360.790 134.309 C 361.410 134.507,362.468 134.830,363.141 135.026 C 363.813 135.223,364.828 135.554,365.397 135.763 C 365.966 135.971,366.575 136.145,366.750 136.148 C 367.024 136.153,368.347 136.790,370.280 137.847 C 376.337 141.158,378.536 148.211,375.442 154.400 C 374.481 156.323,372.088 158.622,370.445 159.202 C 370.014 159.354,369.569 159.548,369.457 159.632 C 367.345 161.222,359.160 162.322,354.396 161.657 C 353.155 161.484,351.199 161.270,350.051 161.181 C 348.902 161.093,347.760 160.910,347.512 160.776 C 347.264 160.642,346.385 160.343,345.557 160.111 C 341.826 159.069,341.128 158.795,338.520 157.347 C 335.767 155.818,334.238 154.803,331.869 152.932 C 330.026 151.477,329.705 151.615,327.976 154.607 C 327.820 154.878,327.535 155.320,327.344 155.590 C 327.152 155.859,326.921 156.399,326.829 156.789 C 326.637 157.609,326.553 157.514,329.198 159.473 C 332.168 161.674,333.026 162.242,334.180 162.771 C 334.542 162.937,335.515 163.396,336.342 163.792 C 340.138 165.608,340.815 165.890,341.835 166.078 C 342.434 166.189,343.207 166.397,343.552 166.541 C 343.898 166.685,344.744 166.896,345.433 167.011 C 346.122 167.126,347.151 167.376,347.720 167.568 C 352.004 169.015,365.465 168.446,370.381 166.612 C 370.898 166.419,371.575 166.203,371.885 166.133 C 372.659 165.957,375.985 164.182,377.057 163.372 C 378.219 162.495,380.256 160.524,380.748 159.801 C 381.045 159.364,381.607 158.583,381.997 158.065 C 382.386 157.547,382.831 156.705,382.984 156.194 C 383.138 155.683,383.426 154.921,383.626 154.501 C 384.186 153.319,384.676 149.596,384.656 146.671 C 384.624 142.077,383.468 139.156,380.254 135.547 C 379.446 134.640,377.615 133.149,377.300 133.142 C 377.218 133.140,376.810 132.907,376.393 132.625 C 375.224 131.832,369.754 129.196,369.277 129.196 C 369.141 129.196,368.529 129.021,367.918 128.808 C 367.307 128.594,366.280 128.299,365.634 128.153 C 364.989 128.006,364.163 127.762,363.798 127.609 C 363.434 127.457,362.459 127.240,361.631 127.127 C 360.803 127.013,359.774 126.796,359.343 126.644 C 358.912 126.492,357.962 126.276,357.230 126.164 C 356.499 126.052,355.621 125.844,355.279 125.703 C 354.937 125.561,354.006 125.321,353.210 125.170 C 352.414 125.018,351.467 124.771,351.105 124.620 C 350.743 124.470,349.939 124.244,349.318 124.117 C 348.698 123.991,347.946 123.762,347.649 123.610 C 347.351 123.457,346.701 123.211,346.205 123.064 C 339.579 121.096,336.368 116.322,336.986 109.356 C 337.292 105.902,340.080 101.643,343.112 99.996 C 344.960 98.993,346.139 98.501,347.344 98.231 C 348.016 98.080,349.072 97.829,349.690 97.673 C 352.654 96.924,357.197 96.896,361.542 97.600 C 365.826 98.294,368.278 99.004,370.288 100.132 C 373.227 101.782,374.640 102.785,376.459 104.512 C 376.596 104.642,376.779 104.748,376.867 104.748 C 376.954 104.748,377.155 104.798,377.312 104.858 C 377.507 104.933,377.722 104.740,377.992 104.247 C 378.209 103.850,378.616 103.170,378.897 102.735 C 379.178 102.301,379.725 101.428,380.112 100.796 L 380.816 99.647 380.222 98.907 C 379.894 98.500,379.571 98.166,379.503 98.166 C 379.434 98.166,378.789 97.722,378.069 97.179 C 375.963 95.591,375.736 95.452,373.860 94.595 C 372.877 94.146,371.904 93.671,371.697 93.539 C 371.161 93.196,368.092 92.207,367.090 92.053 C 366.624 91.982,365.868 91.760,365.409 91.561 C 364.867 91.325,363.777 91.133,362.298 91.013 C 361.047 90.912,359.307 90.702,358.432 90.548 C 356.696 90.243,356.232 90.234,354.678 90.476 M98.274 91.316 C 97.806 91.784,97.823 167.378,98.292 167.846 C 98.708 168.263,105.053 168.198,105.566 167.772 C 105.850 167.536,105.877 166.318,105.877 153.738 C 105.877 142.603,105.924 139.922,106.123 139.757 C 106.294 139.615,110.229 139.531,118.864 139.485 C 131.994 139.415,135.251 139.252,136.524 138.602 C 136.891 138.415,137.571 138.161,138.036 138.037 C 140.401 137.407,144.957 133.950,147.390 130.941 C 147.623 130.654,148.054 130.122,148.347 129.760 C 150.562 127.029,152.108 122.076,152.641 116.005 C 153.009 111.815,150.602 104.262,147.870 101.032 C 147.322 100.384,146.874 99.778,146.874 99.686 C 146.874 98.639,139.569 93.092,138.185 93.088 C 138.051 93.088,137.687 92.934,137.377 92.746 C 136.210 92.039,133.838 91.418,131.547 91.220 C 127.542 90.873,98.634 90.956,98.274 91.316 M131.464 97.968 C 133.360 98.115,133.804 98.217,134.952 98.776 C 136.820 99.685,139.610 101.774,140.668 103.055 C 140.926 103.368,141.265 103.774,141.420 103.957 C 142.323 105.019,143.941 107.951,144.150 108.902 C 144.221 109.225,144.461 109.882,144.683 110.363 C 145.255 111.601,145.297 118.859,144.739 120.075 C 144.549 120.489,144.266 121.251,144.110 121.768 C 143.954 122.285,143.757 122.793,143.673 122.897 C 143.589 123.000,143.340 123.540,143.121 124.097 C 142.729 125.090,141.183 127.547,140.405 128.414 C 139.086 129.881,137.622 130.814,134.368 132.259 L 133.051 132.843 119.849 132.912 C 110.514 132.960,106.534 132.920,106.262 132.774 C 105.702 132.474,105.647 98.319,106.206 97.993 C 106.622 97.751,128.378 97.729,131.464 97.968 " stroke="none" fill="#fa04cc" fill-rule="evenodd"></path><path id="path1" d="M230.693 3.691 C 230.619 3.764,230.559 6.216,230.559 9.139 L 230.559 14.454 230.138 14.514 C 229.564 14.596,229.480 15.106,229.453 18.665 C 229.433 21.438,229.408 21.627,229.075 21.627 C 228.580 21.627,228.491 21.974,228.491 23.899 L 228.491 25.576 227.457 25.576 C 226.433 25.576,226.422 25.570,226.422 25.012 C 226.422 24.535,226.349 24.448,225.952 24.448 C 225.576 24.448,225.482 24.354,225.482 23.977 C 225.482 23.601,225.388 23.507,225.012 23.507 C 224.636 23.507,224.542 23.413,224.542 23.037 C 224.542 22.640,224.454 22.567,223.977 22.567 C 223.419 22.567,223.413 22.557,223.413 21.533 C 223.413 20.555,223.388 20.498,222.943 20.498 C 222.567 20.498,222.473 20.404,222.473 20.028 C 222.473 19.652,222.379 19.558,222.003 19.558 C 221.628 19.558,221.533 19.464,221.533 19.092 C 221.533 18.754,221.406 18.593,221.073 18.510 C 220.794 18.439,220.591 18.236,220.556 17.989 C 220.516 17.705,220.344 17.566,219.981 17.524 C 219.575 17.477,219.464 17.366,219.464 17.007 C 219.464 16.647,219.366 16.549,219.004 16.549 C 218.589 16.549,218.539 16.462,218.487 15.656 C 218.441 14.946,218.345 14.725,218.014 14.580 C 217.786 14.480,217.574 14.226,217.544 14.016 C 217.507 13.757,217.324 13.615,216.972 13.575 C 216.566 13.528,216.455 13.417,216.455 13.058 C 216.455 12.695,216.358 12.600,215.985 12.600 C 215.588 12.600,215.515 12.512,215.515 12.036 C 215.515 11.570,215.438 11.472,215.076 11.472 C 214.702 11.472,214.612 11.339,214.465 10.578 L 214.292 9.685 212.929 9.630 L 211.566 9.574 211.566 10.523 C 211.566 11.404,211.598 11.472,212.026 11.472 C 212.449 11.472,212.491 11.552,212.543 12.459 C 212.593 13.319,212.654 13.454,213.023 13.506 C 213.341 13.551,213.447 13.692,213.449 14.070 C 213.454 15.025,213.652 15.421,214.126 15.421 C 214.532 15.421,214.575 15.501,214.575 16.271 C 214.575 16.996,214.644 17.153,215.045 17.336 C 215.351 17.475,215.515 17.703,215.515 17.990 C 215.515 18.331,215.618 18.430,215.975 18.430 C 216.398 18.430,216.440 18.510,216.492 19.417 C 216.545 20.338,216.584 20.408,217.066 20.464 C 217.560 20.521,217.583 20.570,217.583 21.545 C 217.583 22.496,217.615 22.567,218.031 22.567 C 218.444 22.567,218.485 22.655,218.562 23.716 C 218.626 24.605,218.736 24.935,219.045 25.174 C 219.341 25.401,219.460 25.728,219.502 26.422 C 219.553 27.285,219.600 27.367,220.061 27.421 C 220.554 27.478,220.566 27.511,220.625 28.973 L 220.686 30.466 219.618 30.466 C 218.654 30.465,218.544 30.424,218.490 30.042 C 218.434 29.652,218.320 29.615,216.999 29.565 C 215.687 29.515,215.551 29.472,215.358 29.048 C 215.155 28.603,215.076 28.585,213.356 28.585 C 211.757 28.585,211.566 28.549,211.566 28.246 C 211.566 27.642,211.157 27.457,209.831 27.457 C 208.635 27.457,208.535 27.424,208.369 26.986 C 208.201 26.547,208.105 26.516,206.872 26.516 C 205.624 26.516,205.549 26.492,205.437 26.046 C 205.325 25.598,205.253 25.576,203.949 25.576 C 202.663 25.576,202.573 25.549,202.467 25.128 C 202.307 24.488,200.823 24.236,199.168 24.567 C 198.590 24.683,198.573 24.714,198.627 25.554 L 198.684 26.422 199.577 26.480 C 200.383 26.531,200.470 26.582,200.470 26.997 C 200.470 27.428,200.534 27.457,201.492 27.457 C 202.467 27.457,202.517 27.480,202.573 27.974 C 202.618 28.360,202.751 28.507,203.098 28.556 C 203.354 28.593,203.676 28.783,203.814 28.979 C 203.951 29.175,204.393 29.389,204.796 29.453 C 205.353 29.542,205.541 29.665,205.585 29.971 C 205.632 30.305,205.789 30.381,206.535 30.429 C 207.238 30.474,207.428 30.556,207.428 30.814 C 207.428 31.347,207.827 31.594,208.688 31.594 C 209.425 31.594,209.497 31.635,209.497 32.064 C 209.497 32.458,209.586 32.534,210.048 32.534 C 210.476 32.534,210.613 32.628,210.659 32.957 C 210.710 33.317,210.851 33.389,211.601 33.437 C 212.402 33.489,212.488 33.540,212.541 34.001 C 212.596 34.472,212.671 34.513,213.587 34.566 C 214.494 34.618,214.575 34.660,214.575 35.083 C 214.575 35.448,214.671 35.543,215.045 35.543 C 215.421 35.543,215.515 35.637,215.515 36.013 C 215.515 36.386,215.610 36.483,215.972 36.483 C 216.302 36.483,216.446 36.600,216.489 36.905 C 216.532 37.206,216.711 37.357,217.113 37.430 C 217.646 37.526,217.653 37.539,217.240 37.652 C 217.000 37.718,216.757 37.947,216.701 38.162 C 216.614 38.496,216.453 38.552,215.587 38.552 C 214.632 38.552,214.575 38.579,214.575 39.022 C 214.575 39.484,214.549 39.492,213.070 39.492 C 211.591 39.492,211.566 39.500,211.566 39.962 C 211.566 40.410,211.514 40.433,210.463 40.433 C 208.371 40.433,207.616 40.614,207.616 41.116 C 207.616 41.547,207.568 41.561,206.112 41.561 C 204.633 41.561,204.607 41.569,204.607 42.031 L 204.607 42.501 202.366 42.501 C 199.869 42.501,199.530 42.571,199.530 43.085 C 199.530 43.399,199.380 43.442,198.260 43.444 C 196.639 43.448,196.482 43.554,196.556 44.588 L 196.615 45.416 207.616 45.464 L 218.618 45.513 218.553 46.546 C 218.494 47.494,218.452 47.579,218.036 47.579 C 217.679 47.579,217.583 47.678,217.583 48.049 C 217.583 48.446,217.496 48.519,217.019 48.519 C 216.547 48.519,216.455 48.594,216.455 48.976 C 216.455 49.307,216.338 49.450,216.032 49.493 C 215.729 49.536,215.592 49.700,215.549 50.071 C 215.503 50.477,215.392 50.588,215.032 50.588 C 214.669 50.588,214.575 50.685,214.575 51.058 C 214.575 51.428,214.479 51.528,214.124 51.528 C 213.692 51.528,213.446 51.837,213.446 52.380 C 213.446 52.521,213.235 52.865,212.976 53.144 C 212.717 53.423,212.506 53.851,212.506 54.094 C 212.506 54.441,212.404 54.537,212.036 54.537 C 211.663 54.537,211.566 54.632,211.566 54.995 C 211.566 55.354,211.455 55.465,211.048 55.512 C 210.642 55.558,210.518 55.682,210.472 56.088 C 210.425 56.495,210.314 56.606,209.955 56.606 C 209.592 56.606,209.497 56.703,209.497 57.076 C 209.497 57.452,209.403 57.546,209.027 57.546 C 208.654 57.546,208.557 57.641,208.557 58.003 C 208.557 58.363,208.446 58.474,208.039 58.521 C 207.633 58.567,207.510 58.691,207.463 59.097 C 207.416 59.504,207.305 59.614,206.946 59.614 C 206.583 59.614,206.488 59.712,206.488 60.085 C 206.488 60.461,206.394 60.555,206.018 60.555 C 205.642 60.555,205.548 60.649,205.548 61.025 C 205.548 61.395,205.452 61.495,205.099 61.495 C 204.575 61.495,204.457 61.968,204.607 63.470 L 204.701 64.410 205.454 64.410 C 206.053 64.410,206.244 64.324,206.392 63.987 C 206.505 63.727,206.742 63.564,207.003 63.564 C 207.350 63.564,207.428 63.460,207.428 63.000 C 207.428 62.498,207.491 62.435,207.992 62.435 C 208.466 62.435,208.557 62.361,208.557 61.976 C 208.557 61.560,208.643 61.510,209.450 61.458 C 210.204 61.410,210.352 61.337,210.402 60.989 C 210.443 60.701,210.612 60.560,210.966 60.519 C 211.360 60.474,211.485 60.346,211.531 59.944 C 211.578 59.537,211.689 59.426,212.048 59.426 C 212.408 59.426,212.506 59.328,212.506 58.966 C 212.506 58.543,212.587 58.501,213.493 58.449 C 214.353 58.399,214.488 58.338,214.541 57.969 C 214.584 57.663,214.727 57.546,215.058 57.546 C 215.420 57.546,215.515 57.448,215.515 57.076 C 215.515 56.654,215.591 56.606,216.254 56.606 C 217.010 56.606,217.583 56.235,217.583 55.746 C 217.583 55.585,217.772 55.477,218.054 55.477 C 218.430 55.477,218.524 55.383,218.524 55.007 C 218.524 54.568,218.587 54.537,219.460 54.537 C 220.297 54.537,220.409 54.488,220.512 54.078 C 220.583 53.798,220.786 53.596,221.033 53.560 C 221.317 53.520,221.456 53.348,221.498 52.985 C 221.554 52.499,221.613 52.468,222.485 52.468 C 223.350 52.468,223.413 52.436,223.413 51.998 C 223.413 51.601,223.501 51.528,223.977 51.528 L 224.542 51.528 224.542 54.067 C 224.542 56.454,224.520 56.606,224.177 56.606 C 223.650 56.606,223.646 56.620,223.497 59.759 C 223.376 62.305,223.324 62.623,223.033 62.623 C 222.566 62.623,222.478 63.146,222.476 65.941 L 222.473 68.412 221.998 68.532 L 221.523 68.651 221.575 71.514 L 221.627 74.377 222.473 74.377 L 223.319 74.377 223.374 72.920 L 223.429 71.462 223.985 71.462 C 224.526 71.462,224.542 71.436,224.542 70.542 C 224.542 69.718,224.590 69.610,225.012 69.504 C 225.461 69.392,225.482 69.323,225.482 67.979 C 225.482 66.604,225.492 66.573,225.952 66.573 C 226.396 66.573,226.422 66.515,226.422 65.551 C 226.422 64.576,226.446 64.526,226.939 64.469 C 227.421 64.414,227.460 64.343,227.513 63.435 C 227.562 62.594,227.626 62.451,227.983 62.400 C 228.363 62.346,228.401 62.222,228.452 60.884 C 228.505 59.476,228.522 59.426,228.969 59.426 C 229.397 59.426,229.431 59.359,229.431 58.499 C 229.431 57.626,229.462 57.567,229.948 57.511 C 230.431 57.456,230.469 57.385,230.522 56.465 C 230.574 55.558,230.617 55.477,231.039 55.477 C 231.405 55.477,231.500 55.380,231.500 55.007 C 231.500 54.631,231.594 54.537,231.970 54.537 C 232.346 54.537,232.440 54.631,232.440 55.007 C 232.440 55.404,232.528 55.477,233.004 55.477 C 233.563 55.477,233.568 55.488,233.568 56.512 C 233.568 57.489,233.594 57.546,234.039 57.546 C 234.477 57.546,234.509 57.609,234.509 58.486 C 234.509 59.364,234.540 59.426,234.979 59.426 C 235.426 59.426,235.449 59.480,235.452 60.508 C 235.455 62.045,235.593 62.435,236.129 62.435 C 236.547 62.435,236.577 62.505,236.577 63.470 C 236.577 64.442,236.605 64.504,237.038 64.504 C 237.460 64.504,237.503 64.585,237.555 65.491 C 237.604 66.351,237.666 66.486,238.035 66.539 C 238.426 66.594,238.458 66.695,238.458 67.865 C 238.458 69.173,238.646 69.582,239.248 69.582 C 239.529 69.582,239.586 69.742,239.586 70.522 C 239.586 71.395,239.619 71.462,240.049 71.462 C 240.495 71.462,240.513 71.512,240.566 72.920 L 240.621 74.377 241.467 74.377 L 242.313 74.377 242.313 71.556 C 242.313 68.785,242.306 68.734,241.895 68.676 C 241.491 68.618,241.476 68.537,241.425 66.137 C 241.374 63.727,241.361 63.656,240.950 63.598 C 240.533 63.539,240.527 63.494,240.527 60.839 C 240.527 57.876,240.468 57.546,239.942 57.546 C 239.608 57.546,239.586 57.364,239.586 54.537 L 239.586 51.528 240.056 51.528 C 240.433 51.528,240.527 51.622,240.527 51.998 C 240.527 52.443,240.583 52.468,241.561 52.468 C 242.585 52.468,242.595 52.474,242.595 53.032 C 242.595 53.505,242.670 53.597,243.052 53.597 C 243.383 53.597,243.526 53.713,243.569 54.020 C 243.621 54.379,243.761 54.451,244.505 54.499 C 245.255 54.548,245.397 54.622,245.496 55.017 C 245.580 55.351,245.740 55.477,246.078 55.477 C 246.445 55.477,246.544 55.573,246.544 55.927 C 246.544 56.435,246.853 56.606,247.769 56.606 C 248.279 56.606,248.410 56.686,248.459 57.029 C 248.502 57.332,248.666 57.469,249.036 57.511 C 249.442 57.558,249.553 57.669,249.553 58.028 C 249.553 58.386,249.652 58.486,250.003 58.486 C 250.326 58.486,250.486 58.619,250.571 58.956 C 250.677 59.379,250.783 59.426,251.626 59.426 C 252.541 59.426,252.562 59.439,252.562 59.991 C 252.562 60.467,252.635 60.555,253.032 60.555 C 253.409 60.555,253.503 60.649,253.503 61.025 C 253.503 61.469,253.559 61.495,254.537 61.495 C 255.515 61.495,255.571 61.521,255.571 61.965 C 255.571 62.338,255.666 62.435,256.029 62.435 C 256.388 62.435,256.499 62.546,256.546 62.953 C 256.587 63.311,256.727 63.487,257.003 63.526 C 257.221 63.558,257.495 63.790,257.610 64.044 C 257.852 64.575,258.937 64.699,259.319 64.238 C 259.737 63.734,259.498 61.599,259.015 61.531 C 258.758 61.494,258.581 61.317,258.545 61.060 C 258.503 60.770,258.334 60.631,257.969 60.589 C 257.563 60.543,257.452 60.432,257.452 60.072 C 257.452 59.713,257.354 59.614,256.994 59.614 C 256.635 59.614,256.524 59.504,256.477 59.097 C 256.435 58.732,256.297 58.563,256.006 58.522 C 255.750 58.485,255.572 58.308,255.536 58.051 C 255.494 57.761,255.325 57.622,254.960 57.580 C 254.554 57.534,254.443 57.423,254.443 57.063 C 254.443 56.700,254.345 56.606,253.973 56.606 C 253.576 56.606,253.503 56.518,253.503 56.041 C 253.503 55.565,253.429 55.477,253.032 55.477 C 252.656 55.477,252.562 55.383,252.562 55.007 C 252.562 54.610,252.475 54.537,251.998 54.537 C 251.522 54.537,251.434 54.464,251.434 54.067 C 251.434 53.691,251.340 53.597,250.964 53.597 C 250.567 53.597,250.494 53.509,250.494 53.032 C 250.494 52.556,250.421 52.468,250.024 52.468 C 249.637 52.468,249.553 52.377,249.551 51.951 C 249.546 50.993,249.348 50.588,248.886 50.588 C 248.550 50.588,248.436 50.469,248.390 50.071 C 248.348 49.700,248.211 49.536,247.908 49.493 C 247.602 49.450,247.485 49.307,247.485 48.976 C 247.485 48.614,247.387 48.519,247.015 48.519 C 246.638 48.519,246.544 48.425,246.544 48.049 C 246.544 47.652,246.457 47.579,245.980 47.579 C 245.422 47.579,245.416 47.568,245.416 46.544 L 245.416 45.510 256.417 45.510 L 267.419 45.510 267.419 44.590 C 267.419 43.503,267.323 43.441,265.630 43.441 C 264.535 43.441,264.431 43.406,264.376 43.018 C 264.318 42.608,264.243 42.594,261.931 42.543 C 259.628 42.492,259.543 42.476,259.486 42.073 C 259.431 41.685,259.315 41.651,257.875 41.600 C 256.492 41.552,256.323 41.507,256.323 41.186 C 256.323 40.725,255.334 40.435,253.758 40.434 C 252.683 40.433,252.595 40.400,252.485 39.962 C 252.369 39.498,252.342 39.492,250.396 39.492 L 248.425 39.492 248.425 39.022 C 248.425 38.583,248.362 38.552,247.485 38.552 C 246.614 38.552,246.544 38.518,246.544 38.094 C 246.544 37.739,246.428 37.619,246.027 37.558 L 245.510 37.480 246.027 37.452 C 246.446 37.429,246.544 37.334,246.544 36.953 C 246.544 36.515,246.607 36.483,247.485 36.483 C 248.355 36.483,248.425 36.449,248.425 36.026 C 248.425 35.666,248.536 35.555,248.942 35.508 C 249.308 35.466,249.477 35.328,249.518 35.036 C 249.568 34.687,249.715 34.613,250.458 34.566 C 251.259 34.514,251.345 34.462,251.398 34.001 C 251.452 33.540,251.538 33.489,252.339 33.437 C 253.043 33.392,253.258 33.295,253.406 32.957 C 253.520 32.698,253.756 32.534,254.017 32.534 C 254.343 32.534,254.443 32.427,254.443 32.074 C 254.443 31.651,254.524 31.609,255.430 31.557 C 256.351 31.504,256.421 31.465,256.477 30.983 C 256.533 30.498,256.594 30.465,257.444 30.465 C 258.255 30.465,258.364 30.416,258.469 29.995 C 258.556 29.652,258.713 29.525,259.054 29.525 C 259.424 29.525,259.520 29.430,259.520 29.065 C 259.520 28.642,259.601 28.600,260.508 28.548 C 261.429 28.495,261.499 28.456,261.555 27.974 C 261.611 27.487,261.670 27.457,262.542 27.457 C 263.406 27.457,263.470 27.424,263.470 26.986 C 263.470 26.599,263.561 26.516,263.987 26.514 C 265.155 26.508,265.374 26.342,265.313 25.512 C 265.245 24.597,265.013 24.495,262.953 24.466 L 261.589 24.448 261.589 25.012 L 261.589 25.576 260.085 25.576 C 258.605 25.576,258.580 25.584,258.580 26.046 C 258.580 26.508,258.555 26.516,257.076 26.516 C 255.603 26.516,255.571 26.526,255.571 26.978 C 255.571 27.425,255.521 27.443,254.114 27.496 C 252.679 27.550,252.655 27.559,252.597 28.068 L 252.537 28.585 250.575 28.585 L 248.613 28.585 248.613 29.055 C 248.613 29.517,248.587 29.525,247.122 29.525 C 245.718 29.525,245.627 29.550,245.570 29.948 C 245.471 30.643,242.407 30.708,242.407 30.015 C 242.407 29.648,242.516 29.538,242.924 29.491 C 243.407 29.435,243.445 29.365,243.498 28.444 C 243.545 27.631,243.616 27.457,243.901 27.457 C 244.361 27.457,244.476 27.098,244.476 25.655 C 244.476 24.492,244.493 24.448,244.946 24.448 C 245.384 24.448,245.416 24.384,245.416 23.520 C 245.416 22.647,245.447 22.588,245.933 22.532 C 246.416 22.477,246.454 22.407,246.507 21.486 C 246.559 20.579,246.602 20.498,247.024 20.498 C 247.457 20.498,247.485 20.436,247.485 19.464 C 247.485 18.486,247.510 18.430,247.955 18.430 C 248.393 18.430,248.425 18.366,248.425 17.502 C 248.425 16.630,248.456 16.571,248.942 16.515 C 249.425 16.459,249.463 16.389,249.516 15.468 C 249.568 14.561,249.611 14.480,250.033 14.480 C 250.466 14.480,250.494 14.418,250.494 13.446 C 250.494 12.468,250.519 12.412,250.964 12.412 C 251.423 12.412,251.434 12.381,251.434 11.001 L 251.434 9.591 250.494 9.591 C 249.616 9.591,249.553 9.622,249.553 10.061 C 249.553 10.434,249.458 10.531,249.097 10.531 C 248.684 10.531,248.628 10.631,248.511 11.566 C 248.395 12.494,248.336 12.600,247.933 12.600 C 247.580 12.600,247.485 12.700,247.485 13.070 C 247.485 13.446,247.391 13.540,247.015 13.540 C 246.638 13.540,246.544 13.634,246.544 14.010 C 246.544 14.382,246.449 14.480,246.089 14.480 C 245.738 14.480,245.606 14.607,245.513 15.033 C 245.430 15.410,245.260 15.605,244.981 15.644 C 244.634 15.694,244.561 15.843,244.512 16.596 C 244.461 17.403,244.411 17.489,243.995 17.489 C 243.634 17.489,243.535 17.587,243.535 17.946 C 243.535 18.277,243.419 18.420,243.112 18.464 C 242.809 18.507,242.672 18.671,242.630 19.041 C 242.580 19.474,242.481 19.558,242.019 19.558 C 241.560 19.558,241.467 19.635,241.467 20.015 C 241.467 20.346,241.350 20.489,241.044 20.532 C 240.741 20.575,240.604 20.739,240.561 21.110 C 240.514 21.516,240.403 21.627,240.044 21.627 C 239.620 21.627,239.586 21.696,239.586 22.567 C 239.586 23.486,239.574 23.507,239.022 23.507 C 238.546 23.507,238.458 23.580,238.458 23.977 C 238.458 24.354,238.364 24.448,237.988 24.448 C 237.591 24.448,237.518 24.535,237.518 25.012 C 237.518 25.488,237.444 25.576,237.047 25.576 C 236.671 25.576,236.577 25.670,236.577 26.046 C 236.577 26.443,236.490 26.516,236.013 26.516 L 235.449 26.516 235.449 25.012 C 235.449 23.535,235.440 23.507,234.982 23.507 L 234.516 23.507 234.465 19.135 C 234.415 14.804,234.411 14.761,233.992 14.577 C 233.570 14.392,233.568 14.379,233.546 9.593 C 233.517 3.348,233.600 3.681,232.055 3.612 C 231.379 3.582,230.766 3.618,230.693 3.691 M233.596 36.081 C 234.182 36.288,234.694 36.659,235.148 37.206 L 235.825 38.023 235.825 39.890 L 235.825 41.757 234.762 42.787 L 233.698 43.818 231.949 43.818 L 230.199 43.818 229.236 42.923 C 228.401 42.147,228.237 41.872,228.002 40.851 C 227.164 37.227,229.996 34.813,233.596 36.081 " stroke="none" fill="#04bcfc" fill-rule="evenodd"></path><path id="path2" d="M352.735 78.734 C 352.666 78.803,352.609 79.012,352.609 79.200 C 352.609 79.515,352.343 79.544,349.083 79.592 C 345.604 79.642,345.556 79.648,345.498 80.059 C 345.442 80.454,345.339 80.479,343.523 80.530 L 341.608 80.583 341.548 81.100 C 341.489 81.616,341.485 81.617,339.997 81.617 C 338.531 81.617,338.505 81.625,338.505 82.087 C 338.505 82.538,338.457 82.558,337.330 82.560 C 336.071 82.564,335.819 82.653,335.629 83.169 C 335.559 83.360,335.314 83.498,335.044 83.498 C 334.337 83.498,333.615 83.830,333.615 84.156 C 333.615 84.330,333.387 84.493,333.051 84.560 C 332.614 84.648,332.487 84.774,332.487 85.120 C 332.487 85.529,332.410 85.567,331.567 85.567 C 330.743 85.567,330.635 85.615,330.529 86.037 C 330.443 86.380,330.286 86.507,329.945 86.507 C 329.576 86.507,329.478 86.603,329.478 86.964 C 329.478 87.295,329.361 87.438,329.055 87.481 C 328.752 87.524,328.615 87.688,328.572 88.058 C 328.526 88.460,328.413 88.575,328.068 88.575 C 327.750 88.575,327.607 88.696,327.564 88.999 C 327.521 89.302,327.357 89.439,326.986 89.481 C 326.585 89.527,326.469 89.640,326.469 89.985 C 326.469 90.303,326.349 90.447,326.046 90.490 C 325.743 90.533,325.606 90.697,325.563 91.067 C 325.517 91.473,325.406 91.584,325.046 91.584 C 324.683 91.584,324.589 91.682,324.589 92.055 C 324.589 92.452,324.501 92.525,324.024 92.525 C 323.549 92.525,323.460 92.598,323.460 92.991 C 323.460 93.332,323.334 93.490,322.990 93.576 C 322.569 93.682,322.520 93.789,322.520 94.614 C 322.520 95.470,322.487 95.534,322.050 95.534 C 321.655 95.534,321.580 95.622,321.580 96.085 C 321.580 96.510,321.485 96.650,321.164 96.696 C 320.652 96.770,320.495 97.283,320.470 98.970 C 320.453 100.137,320.412 100.261,319.981 100.457 C 319.575 100.642,319.511 100.794,319.511 101.569 C 319.511 102.356,319.459 102.473,319.088 102.526 C 318.677 102.584,318.663 102.655,318.612 105.078 C 318.560 107.554,318.557 107.569,318.117 107.569 C 317.479 107.569,317.448 107.835,317.447 113.211 C 317.446 118.892,317.503 119.417,318.118 119.417 C 318.536 119.417,318.558 119.485,318.610 120.969 C 318.661 122.415,318.693 122.524,319.088 122.580 C 319.483 122.636,319.511 122.732,319.511 124.034 C 319.511 125.364,319.533 125.433,319.981 125.546 C 320.364 125.642,320.451 125.779,320.451 126.286 C 320.451 127.190,320.623 127.504,321.117 127.504 C 321.455 127.504,321.568 127.622,321.614 128.021 C 321.656 128.387,321.794 128.555,322.087 128.597 C 322.436 128.646,322.509 128.793,322.557 129.537 C 322.606 130.287,322.677 130.427,323.037 130.479 C 323.343 130.522,323.460 130.665,323.460 130.996 C 323.460 131.378,323.552 131.453,324.024 131.453 C 324.526 131.453,324.589 131.515,324.589 132.017 C 324.589 132.493,324.662 132.581,325.059 132.581 C 325.435 132.581,325.529 132.675,325.529 133.051 C 325.529 133.427,325.623 133.521,325.999 133.521 C 326.659 133.521,326.702 134.590,326.046 134.684 C 325.685 134.735,325.615 134.875,325.566 135.637 C 325.514 136.444,325.464 136.530,325.048 136.530 C 324.616 136.530,324.589 136.593,324.589 137.565 C 324.589 138.589,324.583 138.599,324.024 138.599 C 323.552 138.599,323.460 138.674,323.460 139.056 C 323.460 139.387,323.343 139.530,323.037 139.573 C 322.669 139.626,322.607 139.760,322.557 140.621 C 322.505 141.527,322.463 141.608,322.040 141.608 C 321.614 141.608,321.580 141.677,321.580 142.536 C 321.580 143.408,321.549 143.467,321.063 143.523 C 320.656 143.570,320.533 143.693,320.486 144.100 C 320.439 144.506,320.328 144.617,319.969 144.617 C 319.545 144.617,319.511 144.686,319.511 145.557 C 319.511 146.435,319.480 146.497,319.041 146.497 C 318.646 146.497,318.571 146.586,318.571 147.049 C 318.571 147.420,318.457 147.636,318.223 147.711 C 317.845 147.831,317.442 148.561,317.442 149.126 C 317.442 149.350,317.287 149.502,317.019 149.540 C 316.651 149.593,316.589 149.728,316.539 150.588 C 316.487 151.494,316.445 151.575,316.022 151.575 C 315.662 151.575,315.562 151.673,315.562 152.025 C 315.562 152.343,315.429 152.508,315.109 152.588 C 314.732 152.683,314.636 152.858,314.528 153.643 C 314.413 154.476,314.346 154.584,313.946 154.584 C 313.529 154.584,313.493 154.658,313.493 155.504 C 313.493 156.328,313.444 156.436,313.023 156.542 C 312.680 156.628,312.553 156.785,312.553 157.126 C 312.553 157.495,312.457 157.593,312.096 157.593 C 311.686 157.593,311.627 157.694,311.515 158.594 C 311.325 160.111,311.427 160.497,312.036 160.567 C 312.442 160.614,312.553 160.725,312.553 161.084 C 312.553 161.447,312.650 161.542,313.023 161.542 C 313.399 161.542,313.493 161.636,313.493 162.012 C 313.493 162.388,313.587 162.482,313.963 162.482 C 314.291 162.482,314.433 162.585,314.433 162.821 C 314.433 163.254,314.790 163.611,315.223 163.611 C 315.459 163.611,315.562 163.754,315.562 164.081 C 315.562 164.453,315.657 164.551,316.019 164.551 C 316.350 164.551,316.493 164.668,316.536 164.974 C 316.579 165.274,316.743 165.414,317.102 165.456 C 317.456 165.497,317.625 165.638,317.666 165.926 C 317.712 166.253,317.908 166.373,318.618 166.510 C 319.379 166.657,319.511 166.748,319.511 167.121 C 319.511 167.460,319.615 167.560,319.968 167.560 C 320.299 167.560,320.442 167.677,320.485 167.983 C 320.538 168.351,320.673 168.414,321.521 168.463 C 322.425 168.515,322.501 168.557,322.555 169.027 C 322.596 169.383,322.737 169.552,323.026 169.593 C 323.282 169.630,323.459 169.807,323.496 170.063 C 323.537 170.351,323.706 170.492,324.060 170.533 C 324.414 170.574,324.583 170.715,324.624 171.003 C 324.673 171.350,324.822 171.424,325.564 171.472 C 326.365 171.524,326.451 171.575,326.505 172.036 C 326.559 172.507,326.635 172.548,327.551 172.600 C 328.457 172.653,328.538 172.695,328.538 173.117 C 328.538 173.544,328.606 173.578,329.475 173.578 C 330.317 173.578,330.423 173.625,330.529 174.048 C 330.635 174.468,330.744 174.518,331.555 174.518 C 332.405 174.518,332.466 174.551,332.522 175.035 C 332.577 175.518,332.648 175.556,333.568 175.609 C 334.475 175.661,334.556 175.704,334.556 176.126 C 334.556 176.576,334.589 176.587,336.060 176.587 C 337.540 176.587,337.565 176.595,337.565 177.057 L 337.565 177.527 339.539 177.527 L 341.514 177.527 341.514 177.997 L 341.514 178.467 343.476 178.467 L 345.438 178.467 345.498 178.984 L 345.557 179.502 349.549 179.552 C 353.516 179.603,353.543 179.606,354.006 180.070 C 354.849 180.912,360.495 180.738,361.166 179.849 C 361.308 179.662,362.213 179.588,364.833 179.551 L 368.312 179.502 368.372 178.984 L 368.431 178.467 370.487 178.467 L 372.543 178.467 372.543 178.005 C 372.543 177.559,372.593 177.541,374.001 177.488 C 375.341 177.437,375.463 177.400,375.517 177.018 C 375.572 176.636,375.694 176.598,377.022 176.547 C 378.348 176.497,378.472 176.458,378.526 176.079 C 378.576 175.731,378.723 175.657,379.466 175.609 C 380.267 175.558,380.353 175.506,380.407 175.045 C 380.461 174.574,380.537 174.533,381.441 174.481 C 382.289 174.431,382.424 174.369,382.477 174.001 C 382.520 173.695,382.663 173.578,382.994 173.578 C 383.349 173.578,383.451 173.479,383.451 173.132 C 383.451 172.739,383.562 172.671,384.389 172.562 C 385.181 172.456,385.346 172.365,385.444 171.973 C 385.527 171.642,385.689 171.509,386.010 171.509 C 386.364 171.509,386.460 171.409,386.460 171.039 C 386.460 170.664,386.554 170.569,386.926 170.569 C 387.264 170.569,387.425 170.442,387.508 170.109 C 387.578 169.830,387.782 169.628,388.029 169.592 C 388.313 169.552,388.452 169.380,388.494 169.017 C 388.541 168.611,388.652 168.500,389.011 168.500 C 389.370 168.500,389.469 168.402,389.469 168.043 C 389.469 167.712,389.586 167.570,389.892 167.526 C 390.260 167.474,390.322 167.339,390.372 166.479 C 390.427 165.524,390.447 165.491,390.983 165.491 C 391.445 165.491,391.537 165.415,391.537 165.034 C 391.537 164.703,391.654 164.561,391.961 164.517 C 392.329 164.465,392.391 164.330,392.440 163.470 C 392.493 162.563,392.535 162.482,392.958 162.482 C 393.385 162.482,393.418 162.414,393.418 161.542 C 393.418 160.762,393.476 160.602,393.756 160.602 C 394.358 160.602,394.546 160.193,394.546 158.885 C 394.546 157.715,394.579 157.614,394.969 157.559 C 395.374 157.502,395.395 157.410,395.446 155.519 C 395.495 153.680,395.528 153.527,395.916 153.357 C 396.332 153.174,396.333 153.166,396.333 147.908 L 396.333 142.642 395.915 142.583 C 395.512 142.526,395.496 142.441,395.445 140.138 C 395.395 137.842,395.377 137.750,394.979 137.694 C 394.622 137.643,394.557 137.500,394.509 136.660 C 394.456 135.755,394.415 135.680,393.943 135.625 C 393.444 135.568,393.432 135.537,393.379 134.121 C 393.328 132.784,393.292 132.671,392.901 132.615 C 392.598 132.572,392.478 132.428,392.478 132.111 C 392.478 131.794,392.357 131.650,392.055 131.607 C 391.717 131.559,391.611 131.394,391.531 130.795 C 391.404 129.847,391.234 129.572,390.774 129.572 C 390.510 129.572,390.409 129.442,390.409 129.102 C 390.409 128.726,390.315 128.632,389.939 128.632 C 389.542 128.632,389.469 128.544,389.469 128.068 C 389.469 127.591,389.396 127.504,388.999 127.504 C 388.622 127.504,388.528 127.409,388.528 127.033 C 388.528 126.661,388.434 126.563,388.071 126.563 C 387.741 126.563,387.598 126.446,387.554 126.140 C 387.512 125.840,387.347 125.700,386.988 125.659 C 386.597 125.613,386.469 125.485,386.424 125.094 C 386.384 124.747,386.242 124.571,385.968 124.532 C 385.750 124.501,385.477 124.268,385.361 124.015 C 385.184 123.625,385.021 123.554,384.301 123.554 C 383.520 123.554,383.451 123.516,383.451 123.084 C 383.451 122.647,383.387 122.614,382.532 122.614 C 381.671 122.614,381.609 122.581,381.545 122.097 C 381.413 121.105,381.568 120.572,382.005 120.510 C 382.360 120.459,382.424 120.315,382.473 119.464 C 382.526 118.557,382.568 118.477,382.991 118.477 C 383.351 118.477,383.451 118.379,383.451 118.027 C 383.451 117.706,383.583 117.544,383.915 117.461 C 384.306 117.363,384.398 117.198,384.503 116.406 C 384.613 115.579,384.681 115.468,385.074 115.468 C 385.483 115.468,385.520 115.391,385.520 114.528 C 385.520 113.650,385.551 113.587,385.990 113.587 C 386.387 113.587,386.460 113.499,386.460 113.023 C 386.460 112.552,386.535 112.459,386.912 112.459 C 387.312 112.459,387.380 112.350,387.493 111.530 C 387.597 110.769,387.694 110.590,388.027 110.542 C 388.377 110.492,388.442 110.345,388.491 109.497 C 388.543 108.590,388.586 108.510,389.008 108.510 C 389.368 108.510,389.469 108.412,389.469 108.060 C 389.469 107.737,389.601 107.577,389.939 107.492 C 390.361 107.386,390.409 107.279,390.409 106.450 C 390.409 105.581,390.440 105.522,390.926 105.466 C 391.399 105.412,391.448 105.330,391.500 104.525 C 391.548 103.782,391.622 103.635,391.970 103.585 C 392.263 103.543,392.401 103.375,392.443 103.009 C 392.490 102.603,392.601 102.492,392.960 102.492 C 393.383 102.492,393.418 102.422,393.418 101.564 C 393.418 100.692,393.449 100.633,393.935 100.577 C 394.341 100.530,394.465 100.406,394.512 100.000 C 394.552 99.646,394.680 99.483,394.915 99.483 C 395.397 99.483,395.487 99.125,395.487 97.211 C 395.487 95.560,395.479 95.534,395.030 95.534 C 394.699 95.534,394.556 95.417,394.512 95.110 C 394.469 94.808,394.305 94.670,393.935 94.628 C 393.535 94.582,393.418 94.469,393.418 94.128 C 393.418 93.743,393.301 93.672,392.478 93.559 C 391.646 93.445,391.537 93.378,391.537 92.977 C 391.537 92.600,391.444 92.525,390.973 92.525 C 390.497 92.525,390.409 92.452,390.409 92.055 C 390.409 91.682,390.314 91.584,389.951 91.584 C 389.592 91.584,389.481 91.473,389.434 91.067 C 389.392 90.702,389.254 90.533,388.963 90.491 C 388.707 90.455,388.529 90.278,388.493 90.021 C 388.442 89.666,388.298 89.602,387.447 89.553 C 386.540 89.501,386.460 89.458,386.460 89.036 C 386.460 88.670,386.363 88.575,385.990 88.575 C 385.612 88.575,385.520 88.482,385.520 88.101 C 385.520 87.723,385.403 87.603,384.955 87.513 C 384.584 87.439,384.391 87.287,384.391 87.068 C 384.391 86.672,384.027 86.507,383.153 86.507 C 382.593 86.507,382.511 86.446,382.511 86.037 C 382.511 85.641,382.422 85.567,381.953 85.567 C 381.591 85.567,381.326 85.437,381.198 85.197 C 381.089 84.993,380.668 84.738,380.262 84.628 C 379.824 84.511,379.479 84.287,379.413 84.078 C 379.294 83.705,378.791 83.505,377.963 83.500 C 377.585 83.499,377.444 83.393,377.399 83.075 C 377.348 82.715,377.208 82.643,376.464 82.595 C 375.714 82.547,375.572 82.472,375.473 82.078 C 375.359 81.626,375.321 81.617,373.386 81.617 L 371.415 81.617 371.415 81.053 L 371.415 80.489 369.911 80.489 C 368.560 80.489,368.406 80.453,368.406 80.133 C 368.406 79.590,368.098 79.549,364.075 79.549 C 361.132 79.549,360.306 79.495,360.188 79.294 C 359.847 78.717,359.190 78.608,356.038 78.608 C 354.290 78.608,352.804 78.665,352.735 78.734 M86.507 97.038 L 86.507 114.528 57.546 114.528 L 28.585 114.528 28.585 114.998 C 28.585 115.444,28.531 115.468,27.504 115.470 C 25.967 115.474,25.576 115.611,25.576 116.148 C 25.576 116.521,25.481 116.596,25.012 116.596 C 24.539 116.596,24.448 116.670,24.448 117.056 C 24.448 117.471,24.361 117.521,23.554 117.573 L 22.661 117.630 22.605 118.606 C 22.552 119.510,22.511 119.586,22.040 119.641 C 21.698 119.680,21.515 119.824,21.478 120.081 C 21.448 120.291,21.236 120.545,21.008 120.645 C 20.678 120.790,20.581 121.010,20.535 121.721 C 20.483 122.527,20.433 122.614,20.018 122.614 C 19.591 122.614,19.558 122.682,19.558 123.554 C 19.558 124.373,19.509 124.495,19.177 124.495 C 18.751 124.495,18.430 125.141,18.430 125.998 C 18.430 126.414,18.333 126.551,18.007 126.597 C 17.638 126.650,17.576 126.784,17.527 127.645 C 17.474 128.551,17.432 128.632,17.009 128.632 C 16.583 128.632,16.549 128.701,16.549 129.559 C 16.549 130.377,16.499 130.493,16.126 130.546 C 15.777 130.596,15.672 130.778,15.529 131.585 C 15.391 132.363,15.275 132.575,14.965 132.619 C 14.644 132.665,14.564 132.830,14.518 133.550 C 14.469 134.300,14.395 134.442,14.001 134.541 C 13.589 134.645,13.540 134.756,13.540 135.594 C 13.540 136.467,13.509 136.530,13.070 136.530 C 12.666 136.530,12.600 136.616,12.597 137.142 C 12.593 138.203,12.409 138.599,11.920 138.599 C 11.508 138.599,11.472 138.675,11.472 139.526 C 11.472 140.345,11.422 140.460,11.048 140.513 C 10.680 140.566,10.618 140.701,10.568 141.561 C 10.516 142.468,10.474 142.548,10.051 142.548 C 9.619 142.548,9.591 142.610,9.591 143.583 C 9.591 144.606,9.585 144.617,9.027 144.617 C 8.478 144.617,8.463 144.641,8.463 145.527 C 8.463 146.315,8.400 146.466,7.992 146.651 L 7.522 146.865 7.522 150.255 L 7.522 153.644 7.052 153.644 C 6.615 153.644,6.582 153.708,6.582 154.564 C 6.582 155.376,6.530 155.497,6.134 155.596 C 5.616 155.726,5.460 156.171,5.456 157.533 C 5.454 158.399,5.407 158.514,5.031 158.567 C 4.627 158.624,4.605 158.718,4.554 160.553 C 4.502 162.427,4.488 162.482,4.033 162.596 L 3.566 162.713 3.617 167.064 C 3.667 171.392,3.669 171.415,4.083 171.474 C 4.464 171.529,4.502 171.651,4.553 172.979 C 4.603 174.305,4.642 174.429,5.021 174.483 C 5.378 174.534,5.443 174.676,5.491 175.517 C 5.544 176.425,5.583 176.497,6.065 176.552 C 6.551 176.608,6.582 176.667,6.582 177.540 C 6.582 178.397,6.617 178.467,7.040 178.467 C 7.399 178.467,7.510 178.578,7.557 178.984 C 7.599 179.350,7.737 179.519,8.028 179.560 C 8.284 179.597,8.462 179.774,8.498 180.030 C 8.539 180.321,8.708 180.459,9.074 180.501 C 9.480 180.548,9.591 180.659,9.591 181.019 C 9.591 181.442,9.661 181.476,10.531 181.476 C 11.311 181.476,11.472 181.534,11.472 181.815 C 11.472 182.417,11.880 182.605,13.189 182.605 C 14.358 182.605,14.459 182.637,14.514 183.028 L 14.575 183.451 20.498 183.451 L 26.422 183.451 26.482 183.028 C 26.537 182.640,26.641 182.605,27.736 182.605 C 29.228 182.605,29.525 182.492,29.525 181.926 C 29.525 181.512,29.599 181.476,30.465 181.476 C 31.343 181.476,31.406 181.445,31.406 181.006 C 31.406 180.609,31.493 180.536,31.970 180.536 C 32.446 180.536,32.534 180.463,32.534 180.066 C 32.534 179.679,32.626 179.595,33.051 179.593 C 34.009 179.588,34.415 179.390,34.415 178.928 C 34.415 178.592,34.534 178.479,34.932 178.433 C 35.302 178.390,35.466 178.253,35.509 177.950 C 35.553 177.644,35.695 177.527,36.026 177.527 C 36.388 177.527,36.483 177.429,36.483 177.057 C 36.483 176.043,37.369 176.446,37.518 177.527 C 37.631 178.351,37.702 178.467,38.087 178.467 C 38.427 178.467,38.540 178.585,38.586 178.984 C 38.629 179.350,38.767 179.519,39.058 179.560 C 39.314 179.597,39.491 179.774,39.528 180.030 C 39.565 180.291,39.742 180.464,40.009 180.502 C 40.273 180.539,40.475 180.734,40.547 181.019 C 40.648 181.424,40.765 181.476,41.569 181.476 C 42.419 181.476,42.480 181.509,42.536 181.993 C 42.591 182.476,42.662 182.514,43.583 182.567 C 44.489 182.620,44.570 182.662,44.570 183.085 L 44.570 183.545 50.494 183.545 L 56.417 183.545 56.417 183.085 C 56.417 182.662,56.498 182.620,57.405 182.567 C 58.326 182.514,58.396 182.476,58.452 181.993 C 58.508 181.500,58.558 181.476,59.533 181.476 C 60.498 181.476,60.555 181.450,60.555 181.006 C 60.555 180.567,60.617 180.536,61.495 180.536 C 62.366 180.536,62.435 180.502,62.435 180.078 C 62.435 179.719,62.546 179.608,62.953 179.561 C 63.359 179.514,63.482 179.391,63.529 178.984 C 63.576 178.578,63.687 178.467,64.046 178.467 C 64.406 178.467,64.504 178.369,64.504 178.007 C 64.504 177.592,64.591 177.542,65.397 177.490 C 66.131 177.443,66.300 177.364,66.346 177.048 C 66.378 176.822,66.631 176.576,66.957 176.453 C 67.320 176.316,67.513 176.112,67.513 175.864 C 67.513 175.614,67.657 175.464,67.936 175.424 C 68.297 175.373,68.368 175.233,68.417 174.471 C 68.471 173.621,68.500 173.578,69.028 173.578 C 69.489 173.578,69.582 173.501,69.582 173.121 C 69.582 172.790,69.698 172.647,70.005 172.604 C 70.308 172.561,70.445 172.397,70.487 172.026 C 70.534 171.620,70.645 171.509,71.004 171.509 C 71.427 171.509,71.462 171.439,71.462 170.581 C 71.462 169.709,71.493 169.650,71.979 169.594 C 72.382 169.548,72.509 169.423,72.555 169.029 C 72.596 168.675,72.737 168.506,73.025 168.465 C 73.372 168.415,73.446 168.267,73.494 167.525 C 73.542 166.781,73.615 166.634,73.964 166.584 C 74.254 166.543,74.394 166.375,74.435 166.020 C 74.476 165.666,74.617 165.497,74.906 165.456 C 75.250 165.407,75.326 165.258,75.373 164.542 C 75.422 163.789,75.496 163.661,75.984 163.477 C 76.488 163.287,76.540 163.187,76.540 162.405 C 76.540 161.610,76.577 161.542,77.010 161.542 C 77.454 161.542,77.480 161.486,77.480 160.508 C 77.480 159.530,77.506 159.473,77.950 159.473 C 78.388 159.473,78.420 159.410,78.420 158.546 C 78.420 157.673,78.451 157.614,78.937 157.558 C 79.420 157.503,79.458 157.432,79.511 156.512 C 79.564 155.605,79.606 155.524,80.029 155.524 C 80.461 155.524,80.489 155.462,80.489 154.490 C 80.489 153.512,80.515 153.456,80.959 153.456 C 81.397 153.456,81.429 153.392,81.429 152.528 C 81.429 151.655,81.460 151.596,81.946 151.540 C 82.428 151.485,82.467 151.414,82.520 150.505 C 82.569 149.665,82.633 149.522,82.990 149.471 C 83.399 149.413,83.404 149.369,83.455 145.510 L 83.506 141.608 83.032 141.608 C 82.606 141.608,82.558 141.533,82.558 140.871 C 82.558 139.846,82.401 139.539,81.879 139.539 C 81.525 139.539,81.429 139.440,81.429 139.069 C 81.429 138.631,81.366 138.599,80.501 138.599 C 79.629 138.599,79.570 138.568,79.514 138.082 C 79.459 137.600,79.387 137.561,78.479 137.508 C 77.638 137.460,77.496 137.395,77.445 137.038 C 77.352 136.386,73.657 136.395,73.565 137.047 C 73.512 137.421,73.391 137.473,72.530 137.489 C 71.139 137.516,70.626 137.696,70.556 138.184 C 70.513 138.482,70.367 138.599,70.039 138.599 C 69.680 138.599,69.582 138.697,69.582 139.057 C 69.582 139.416,69.471 139.527,69.064 139.574 C 68.582 139.629,68.543 139.700,68.490 140.621 C 68.438 141.527,68.396 141.608,67.973 141.608 C 67.546 141.608,67.513 141.676,67.513 142.548 C 67.513 143.426,67.482 143.488,67.043 143.488 C 66.599 143.488,66.573 143.546,66.573 144.510 C 66.573 145.485,66.549 145.535,66.055 145.592 C 65.573 145.647,65.534 145.718,65.481 146.638 C 65.429 147.545,65.387 147.626,64.964 147.626 C 64.537 147.626,64.504 147.694,64.504 148.566 C 64.504 149.444,64.473 149.506,64.034 149.506 C 63.637 149.506,63.564 149.594,63.564 150.071 C 63.564 150.541,63.489 150.635,63.111 150.635 C 62.712 150.635,62.644 150.743,62.531 151.564 C 62.426 152.325,62.329 152.504,61.996 152.551 C 61.647 152.601,61.581 152.749,61.532 153.597 C 61.480 154.503,61.438 154.584,61.015 154.584 C 60.588 154.584,60.555 154.652,60.555 155.524 C 60.555 156.304,60.497 156.465,60.216 156.465 C 60.030 156.465,59.776 156.566,59.652 156.690 C 59.477 156.866,59.426 156.660,59.426 155.762 C 59.426 154.644,59.442 154.607,59.944 154.549 C 60.425 154.494,60.465 154.422,60.517 153.514 C 60.566 152.674,60.631 152.531,60.987 152.480 C 61.336 152.431,61.410 152.283,61.458 151.546 C 61.506 150.796,61.580 150.654,61.975 150.555 C 62.385 150.452,62.435 150.339,62.435 149.523 C 62.435 148.706,62.485 148.594,62.899 148.490 C 63.291 148.392,63.383 148.227,63.488 147.436 C 63.584 146.712,63.688 146.497,63.944 146.497 C 64.350 146.497,64.504 146.131,64.504 145.166 C 64.504 144.505,64.553 144.429,64.974 144.429 C 65.412 144.429,65.444 144.365,65.444 143.502 C 65.444 142.683,65.494 142.567,65.867 142.514 C 66.217 142.465,66.321 142.283,66.466 141.467 C 66.597 140.729,66.723 140.480,66.963 140.480 C 67.398 140.480,67.513 140.103,67.513 138.678 C 67.513 137.516,67.530 137.471,67.983 137.471 C 68.421 137.471,68.453 137.407,68.453 136.543 C 68.453 135.670,68.484 135.611,68.970 135.556 C 69.377 135.509,69.500 135.385,69.547 134.979 C 69.588 134.625,69.715 134.462,69.950 134.462 C 70.355 134.462,70.522 134.104,70.522 133.237 C 70.522 132.727,70.602 132.596,70.945 132.547 C 71.248 132.504,71.385 132.340,71.428 131.970 C 71.474 131.570,71.587 131.453,71.927 131.453 C 72.313 131.453,72.383 131.336,72.496 130.512 C 72.611 129.680,72.678 129.572,73.078 129.572 C 73.436 129.572,73.531 129.473,73.531 129.102 C 73.531 128.726,73.625 128.632,74.001 128.632 C 74.398 128.632,74.471 128.544,74.471 128.068 C 74.471 127.524,74.502 127.504,75.321 127.504 C 76.041 127.504,76.204 127.433,76.381 127.043 C 76.497 126.790,76.770 126.557,76.989 126.526 C 77.235 126.491,77.409 126.308,77.446 126.046 C 77.490 125.740,77.632 125.623,77.963 125.623 C 78.344 125.623,78.420 125.530,78.420 125.069 C 78.420 124.532,78.453 124.512,79.408 124.457 C 80.259 124.408,80.403 124.344,80.454 123.989 C 80.490 123.733,80.667 123.555,80.924 123.519 C 81.180 123.482,81.357 123.305,81.394 123.049 C 81.435 122.760,81.604 122.619,81.958 122.578 C 82.352 122.533,82.477 122.406,82.523 122.003 C 82.570 121.597,82.681 121.486,83.040 121.486 C 83.400 121.486,83.498 121.388,83.498 121.026 C 83.498 120.611,83.585 120.560,84.391 120.509 C 85.153 120.460,85.293 120.389,85.345 120.028 C 85.378 119.795,85.519 119.605,85.658 119.605 C 85.798 119.605,86.046 119.554,86.209 119.491 C 86.480 119.387,86.507 122.108,86.507 149.487 L 86.507 179.598 101.975 179.550 L 117.442 179.502 117.491 165.538 L 117.539 151.575 124.876 151.575 L 132.213 151.575 132.427 151.105 L 132.641 150.635 135.412 150.635 L 138.183 150.635 138.779 150.078 C 139.316 149.576,139.515 149.516,140.820 149.467 C 142.157 149.416,142.271 149.380,142.326 148.989 C 142.382 148.594,142.478 148.566,143.788 148.566 C 145.099 148.566,145.202 148.536,145.364 148.110 C 145.464 147.846,145.719 147.629,145.970 147.593 C 146.281 147.549,146.420 147.389,146.462 147.024 C 146.516 146.554,146.593 146.512,147.496 146.460 C 148.345 146.411,148.480 146.348,148.532 145.980 C 148.576 145.674,148.718 145.557,149.049 145.557 C 149.411 145.557,149.506 145.460,149.506 145.087 C 149.506 144.658,149.578 144.617,150.315 144.617 C 151.175 144.617,151.575 144.370,151.575 143.840 C 151.575 143.646,151.745 143.490,151.998 143.455 C 152.270 143.416,152.443 143.243,152.481 142.971 C 152.525 142.665,152.668 142.548,152.999 142.548 C 153.361 142.548,153.456 142.451,153.456 142.078 C 153.456 141.751,153.558 141.608,153.794 141.608 C 154.223 141.608,154.584 141.253,154.584 140.831 C 154.584 140.637,154.754 140.481,155.007 140.446 C 155.283 140.406,155.452 140.234,155.492 139.951 C 155.526 139.712,155.695 139.464,155.868 139.400 C 156.329 139.231,156.458 138.964,156.462 138.176 C 156.464 137.518,156.503 137.471,157.029 137.471 C 157.501 137.471,157.593 137.396,157.593 137.014 C 157.593 136.683,157.710 136.540,158.016 136.496 C 158.385 136.444,158.446 136.309,158.496 135.449 C 158.548 134.542,158.590 134.462,159.013 134.462 C 159.440 134.462,159.473 134.394,159.473 133.521 C 159.473 132.644,159.505 132.581,159.944 132.581 C 160.388 132.581,160.414 132.525,160.414 131.547 C 160.414 130.523,160.419 130.512,160.978 130.512 C 161.528 130.512,161.542 130.489,161.542 129.593 C 161.542 128.768,161.591 128.660,162.012 128.555 C 162.464 128.441,162.482 128.379,162.482 126.944 C 162.482 125.603,162.530 125.404,162.953 124.982 C 163.415 124.519,163.423 124.462,163.423 121.494 L 163.423 118.477 163.871 118.477 C 164.885 118.477,164.889 111.879,163.875 111.625 C 163.436 111.515,163.432 111.487,163.380 108.554 C 163.330 105.660,163.319 105.593,162.912 105.535 C 162.517 105.479,162.492 105.376,162.442 103.561 C 162.391 101.736,162.368 101.643,161.965 101.585 C 161.610 101.535,161.542 101.409,161.542 100.800 C 161.542 100.062,161.168 99.483,160.693 99.483 C 160.518 99.483,160.416 99.194,160.377 98.590 C 160.328 97.827,160.258 97.687,159.897 97.636 C 159.568 97.589,159.473 97.453,159.473 97.025 C 159.473 96.566,159.397 96.474,159.014 96.474 C 158.598 96.474,158.548 96.387,158.496 95.581 C 158.448 94.818,158.377 94.679,158.016 94.627 C 157.763 94.591,157.593 94.436,157.593 94.242 C 157.593 93.820,157.232 93.465,156.803 93.465 C 156.567 93.465,156.465 93.322,156.465 92.995 C 156.465 92.619,156.370 92.525,155.994 92.525 C 155.618 92.525,155.524 92.431,155.524 92.055 C 155.524 91.682,155.429 91.584,155.067 91.584 C 154.707 91.584,154.596 91.473,154.549 91.067 C 154.503 90.661,154.379 90.537,153.973 90.491 C 153.567 90.444,153.456 90.333,153.456 89.973 C 153.456 89.611,153.358 89.516,152.985 89.516 C 152.609 89.516,152.515 89.422,152.515 89.046 C 152.515 88.673,152.420 88.575,152.058 88.575 C 151.698 88.575,151.587 88.464,151.540 88.058 C 151.494 87.652,151.370 87.528,150.964 87.482 C 150.558 87.435,150.447 87.324,150.447 86.964 C 150.447 86.602,150.349 86.507,149.976 86.507 C 149.600 86.507,149.506 86.413,149.506 86.037 C 149.506 85.662,149.412 85.567,149.040 85.567 C 148.699 85.567,148.541 85.440,148.455 85.096 C 148.367 84.744,148.212 84.626,147.840 84.624 C 146.971 84.619,146.521 84.414,146.461 83.996 C 146.412 83.650,146.261 83.584,145.416 83.535 C 144.509 83.483,144.429 83.441,144.429 83.018 C 144.429 82.592,144.360 82.558,143.502 82.558 C 142.683 82.558,142.567 82.508,142.514 82.134 C 142.459 81.743,142.345 81.707,141.008 81.657 C 139.592 81.603,139.562 81.592,139.504 81.092 L 139.445 80.583 137.424 80.530 C 135.598 80.481,135.402 80.442,135.402 80.127 C 135.402 79.544,135.581 79.549,110.657 79.549 L 86.507 79.549 86.507 97.038 M360.790 90.342 C 361.410 90.498,362.735 90.709,363.733 90.810 C 364.755 90.913,365.905 91.155,366.366 91.362 C 366.816 91.565,367.649 91.790,368.218 91.862 C 368.787 91.934,369.591 92.143,370.005 92.328 C 370.418 92.513,371.053 92.773,371.415 92.907 C 371.777 93.041,372.207 93.264,372.370 93.402 C 372.534 93.540,372.732 93.653,372.812 93.653 C 373.046 93.653,376.161 95.197,376.775 95.617 C 377.085 95.830,377.635 96.242,377.997 96.533 C 378.359 96.824,378.867 97.227,379.126 97.430 C 381.513 99.302,381.597 99.567,380.346 101.269 C 379.890 101.890,379.357 102.736,379.163 103.150 C 378.969 103.564,378.670 104.018,378.498 104.160 C 378.326 104.302,378.185 104.525,378.185 104.654 C 378.185 105.676,376.702 105.425,375.400 104.183 C 374.858 103.667,374.348 103.244,374.265 103.244 C 374.183 103.244,373.932 103.032,373.707 102.774 C 373.482 102.515,373.192 102.304,373.062 102.303 C 372.932 102.303,372.529 102.049,372.167 101.740 C 371.805 101.430,371.366 101.176,371.191 101.176 C 371.016 101.176,370.820 101.089,370.755 100.984 C 370.690 100.878,370.198 100.571,369.662 100.301 C 369.127 100.031,368.640 99.734,368.580 99.641 C 368.520 99.548,367.928 99.388,367.264 99.285 C 366.599 99.181,365.675 98.938,365.209 98.743 C 364.692 98.527,363.449 98.308,362.012 98.180 C 360.719 98.064,359.246 97.845,358.738 97.692 C 357.568 97.340,354.727 97.332,353.045 97.676 C 352.340 97.821,350.874 98.043,349.788 98.171 C 348.702 98.298,347.518 98.549,347.156 98.729 C 346.794 98.909,346.195 99.111,345.826 99.178 C 345.456 99.244,344.869 99.510,344.520 99.767 C 344.171 100.025,343.789 100.235,343.670 100.235 C 342.620 100.235,339.703 103.437,338.395 106.026 L 337.291 108.213 337.289 111.041 C 337.287 113.390,337.344 113.981,337.623 114.528 C 337.808 114.890,338.043 115.559,338.146 116.016 C 338.248 116.473,338.583 117.131,338.889 117.480 C 339.195 117.829,339.445 118.232,339.445 118.377 C 339.445 118.521,339.602 118.689,339.793 118.750 C 339.984 118.810,340.236 119.070,340.353 119.327 C 340.470 119.583,340.675 119.793,340.809 119.793 C 340.943 119.793,341.346 120.035,341.706 120.331 C 342.066 120.626,342.572 120.934,342.830 121.015 C 343.089 121.095,343.502 121.319,343.749 121.512 C 343.996 121.704,344.300 121.862,344.426 121.862 C 344.552 121.862,345.028 122.060,345.484 122.302 C 345.940 122.545,346.650 122.806,347.063 122.882 C 347.476 122.959,348.075 123.182,348.394 123.378 C 348.714 123.575,349.545 123.816,350.242 123.915 C 350.940 124.013,351.713 124.227,351.961 124.390 C 352.209 124.552,353.048 124.774,353.825 124.882 C 354.602 124.990,355.599 125.234,356.040 125.425 C 356.480 125.615,357.433 125.830,358.157 125.903 C 358.881 125.975,359.854 126.194,360.320 126.388 C 360.785 126.582,361.878 126.828,362.748 126.933 C 363.619 127.038,364.536 127.259,364.786 127.423 C 365.037 127.587,365.806 127.807,366.495 127.911 C 367.184 128.016,367.936 128.221,368.166 128.368 C 368.396 128.514,369.062 128.759,369.646 128.911 C 370.230 129.063,370.813 129.274,370.941 129.381 C 371.069 129.487,371.575 129.695,372.065 129.842 C 372.554 129.990,373.095 130.232,373.266 130.382 C 373.438 130.531,373.901 130.757,374.296 130.884 C 374.691 131.011,375.058 131.228,375.111 131.366 C 375.164 131.505,375.450 131.671,375.746 131.736 C 376.043 131.801,376.597 132.103,376.979 132.406 C 377.361 132.709,377.755 132.957,377.854 132.957 C 378.258 132.957,381.070 135.508,381.316 136.097 C 381.459 136.439,381.663 136.718,381.770 136.718 C 381.878 136.718,382.089 137.015,382.241 137.377 C 382.392 137.739,382.604 138.035,382.712 138.035 C 382.820 138.035,383.079 138.394,383.288 138.834 C 383.496 139.274,383.787 139.845,383.932 140.103 C 384.078 140.362,384.199 140.769,384.200 141.008 C 384.202 141.247,384.424 141.910,384.694 142.481 L 385.185 143.518 385.097 147.500 C 385.022 150.923,384.954 151.649,384.607 152.681 C 384.385 153.341,384.203 154.060,384.202 154.279 C 384.202 154.499,384.038 154.947,383.837 155.276 C 383.637 155.605,383.375 156.237,383.255 156.681 C 383.136 157.125,382.856 157.718,382.633 157.998 C 382.411 158.278,382.017 158.813,381.758 159.186 C 380.820 160.542,380.319 161.129,379.493 161.846 C 378.734 162.505,378.461 162.751,377.402 163.729 C 377.054 164.051,376.258 164.514,374.988 165.133 C 374.523 165.360,373.940 165.702,373.693 165.894 C 373.447 166.086,373.057 166.244,372.828 166.244 C 372.599 166.244,372.037 166.443,371.579 166.686 C 371.122 166.929,370.331 167.191,369.823 167.267 C 369.314 167.343,368.497 167.564,368.007 167.757 C 367.516 167.951,366.199 168.201,365.081 168.313 C 363.962 168.425,362.708 168.608,362.294 168.720 C 361.192 169.017,355.526 169.024,354.490 168.730 C 354.024 168.598,352.290 168.421,350.635 168.337 C 348.233 168.214,347.455 168.106,346.780 167.798 C 346.314 167.586,345.383 167.353,344.711 167.279 C 344.039 167.205,343.108 166.989,342.642 166.799 C 342.177 166.609,341.316 166.359,340.729 166.244 C 340.142 166.129,339.565 165.917,339.445 165.773 C 339.326 165.630,338.818 165.376,338.317 165.209 C 337.816 165.043,337.306 164.786,337.184 164.640 C 337.062 164.493,336.674 164.319,336.322 164.253 C 335.969 164.187,335.488 163.981,335.253 163.796 C 335.017 163.610,334.464 163.362,334.022 163.243 C 333.581 163.124,333.174 162.908,333.119 162.764 C 333.063 162.619,332.729 162.405,332.376 162.289 C 332.024 162.172,331.735 162.001,331.735 161.908 C 331.735 161.816,331.492 161.614,331.196 161.461 C 330.899 161.308,330.455 161.014,330.209 160.808 C 329.962 160.603,329.453 160.176,329.077 159.860 C 328.702 159.544,328.338 159.285,328.270 159.285 C 327.952 159.285,326.093 157.701,326.093 157.429 C 326.093 156.994,327.170 154.772,327.381 154.772 C 327.478 154.772,327.608 154.567,327.671 154.316 C 327.734 154.066,328.012 153.591,328.289 153.262 C 328.567 152.932,328.926 152.397,329.089 152.072 C 329.675 150.899,330.940 151.314,333.092 153.386 C 333.270 153.557,333.577 153.791,333.774 153.905 C 333.971 154.020,334.623 154.452,335.222 154.866 C 336.492 155.743,336.567 155.789,337.189 156.081 C 337.447 156.202,338.082 156.549,338.599 156.852 C 339.116 157.154,339.835 157.552,340.197 157.736 C 340.559 157.919,341.067 158.210,341.326 158.382 C 341.584 158.553,342.346 158.792,343.018 158.911 C 343.691 159.031,344.505 159.291,344.827 159.489 C 345.150 159.687,345.708 159.850,346.068 159.850 C 346.429 159.850,347.103 160.052,347.568 160.298 C 348.312 160.694,348.766 160.764,351.404 160.884 C 353.050 160.960,355.115 161.125,355.994 161.251 C 357.594 161.482,358.417 161.449,363.127 160.967 C 364.206 160.857,365.391 160.636,365.760 160.477 C 366.129 160.317,366.928 160.068,367.534 159.922 C 368.140 159.776,368.849 159.488,369.110 159.283 C 369.372 159.077,369.776 158.909,370.009 158.909 C 370.954 158.909,374.426 155.813,374.820 154.619 C 374.938 154.261,375.236 153.672,375.481 153.310 C 375.790 152.855,375.930 152.383,375.932 151.784 C 375.934 151.307,376.058 150.334,376.209 149.622 C 376.360 148.910,376.440 148.257,376.386 148.170 C 376.333 148.083,376.205 147.276,376.103 146.375 C 376.001 145.475,375.796 144.520,375.649 144.254 C 375.501 143.988,375.210 143.410,375.002 142.969 C 374.794 142.529,374.409 141.936,374.146 141.653 C 373.883 141.370,373.621 140.990,373.563 140.809 C 373.506 140.628,373.344 140.480,373.204 140.480 C 373.064 140.480,372.414 140.023,371.759 139.466 C 371.105 138.908,370.273 138.314,369.911 138.146 C 369.549 137.978,369.041 137.718,368.782 137.569 C 367.744 136.972,366.154 136.348,365.375 136.233 C 364.922 136.165,364.280 135.956,363.948 135.767 C 363.616 135.578,362.861 135.335,362.270 135.225 C 361.679 135.116,360.998 134.898,360.758 134.740 C 360.517 134.582,359.638 134.334,358.804 134.189 C 357.969 134.043,357.178 133.833,357.044 133.722 C 356.911 133.611,356.091 133.428,355.222 133.314 C 354.354 133.200,353.267 132.944,352.807 132.744 C 352.347 132.545,351.392 132.299,350.684 132.199 C 349.977 132.098,349.211 131.897,348.982 131.752 C 348.753 131.606,348.058 131.388,347.438 131.267 C 346.817 131.145,346.013 130.896,345.651 130.713 C 345.289 130.530,344.570 130.319,344.053 130.244 C 343.535 130.169,342.841 129.950,342.509 129.757 C 342.177 129.564,341.423 129.317,340.832 129.208 C 340.241 129.098,339.624 128.894,339.461 128.753 C 339.297 128.612,338.909 128.412,338.599 128.308 C 338.072 128.133,337.447 127.762,335.901 126.709 C 334.348 125.652,332.002 123.446,331.729 122.787 C 331.603 122.485,331.424 122.238,331.330 122.238 C 331.236 122.238,331.107 122.090,331.043 121.909 C 330.979 121.728,330.724 121.305,330.475 120.969 C 330.213 120.614,329.938 119.865,329.820 119.182 C 329.708 118.536,329.464 117.703,329.277 117.332 C 328.578 115.942,328.621 107.672,329.332 106.867 C 329.493 106.684,329.685 106.154,329.757 105.689 C 329.829 105.223,330.135 104.313,330.436 103.667 C 330.736 103.020,330.983 102.411,330.983 102.313 C 330.983 102.215,331.098 102.067,331.239 101.984 C 331.380 101.901,331.646 101.537,331.831 101.175 C 332.619 99.625,336.552 95.594,338.013 94.838 C 338.335 94.671,338.811 94.392,339.069 94.217 C 340.624 93.167,341.103 92.901,341.437 92.901 C 341.642 92.901,342.146 92.724,342.555 92.508 C 342.965 92.292,343.724 92.002,344.241 91.865 C 344.758 91.728,345.531 91.485,345.958 91.327 C 346.385 91.168,347.636 90.946,348.738 90.834 C 349.840 90.722,350.930 90.547,351.159 90.445 C 352.445 89.873,358.659 89.807,360.790 90.342 M135.236 91.349 C 135.610 91.582,136.036 91.772,136.181 91.772 C 136.327 91.772,136.951 92.024,137.569 92.331 C 138.187 92.638,138.835 92.892,139.008 92.895 C 139.181 92.898,139.574 93.112,139.881 93.371 C 140.188 93.630,140.564 93.841,140.716 93.841 C 140.869 93.841,141.195 93.998,141.441 94.191 C 141.688 94.383,142.176 94.687,142.525 94.866 C 143.200 95.212,145.369 97.305,145.369 97.609 C 145.369 97.709,145.498 97.790,145.655 97.790 C 145.813 97.790,146.037 98.001,146.154 98.258 C 146.271 98.515,146.566 98.855,146.808 99.014 C 147.051 99.173,147.250 99.394,147.250 99.505 C 147.250 99.616,147.702 100.228,148.256 100.864 C 149.407 102.189,150.165 103.441,150.349 104.325 C 150.419 104.661,150.547 104.937,150.634 104.937 C 150.721 104.937,150.934 105.339,151.107 105.830 C 151.281 106.321,151.577 107.062,151.764 107.475 C 151.952 107.889,152.200 108.851,152.316 109.613 C 152.431 110.375,152.607 111.150,152.706 111.335 C 153.296 112.437,153.285 118.329,152.692 119.439 C 152.597 119.616,152.393 120.636,152.240 121.705 C 151.977 123.532,151.263 125.742,150.731 126.375 C 150.601 126.530,150.387 126.996,150.255 127.409 C 150.010 128.180,149.243 129.413,148.509 130.214 C 148.282 130.463,147.673 131.141,147.156 131.722 C 146.638 132.303,146.105 132.882,145.971 133.009 C 145.837 133.136,145.625 133.350,145.501 133.485 C 143.870 135.260,142.589 136.265,140.856 137.128 C 140.597 137.257,140.161 137.544,139.886 137.766 C 139.611 137.988,139.027 138.227,138.589 138.297 C 138.151 138.367,137.561 138.589,137.278 138.790 C 136.920 139.045,136.200 139.217,134.908 139.355 C 133.887 139.464,132.797 139.656,132.487 139.780 C 132.076 139.945,128.464 140.032,119.135 140.102 L 106.347 140.197 106.299 153.912 C 106.255 166.346,106.222 167.659,105.940 167.970 C 105.555 168.395,98.430 168.500,98.016 168.087 C 97.682 167.753,97.688 91.386,98.022 91.052 C 98.203 90.870,102.211 90.831,116.405 90.873 L 134.556 90.926 135.236 91.349 M106.394 98.275 C 106.227 98.443,106.205 131.539,106.371 132.158 L 106.485 132.581 117.887 132.581 C 130.355 132.580,133.831 132.353,135.054 131.458 C 135.328 131.257,135.794 131.034,136.088 130.962 C 136.383 130.890,136.857 130.639,137.140 130.403 C 137.424 130.167,137.848 129.914,138.081 129.840 C 138.480 129.714,139.104 129.231,139.601 128.661 C 139.722 128.522,140.012 128.216,140.244 127.981 C 140.477 127.747,140.668 127.470,140.668 127.367 C 140.668 127.265,140.963 126.809,141.324 126.355 C 141.685 125.900,141.981 125.433,141.982 125.317 C 141.983 125.200,142.111 125.000,142.266 124.871 C 142.420 124.743,142.674 124.211,142.829 123.689 C 142.984 123.167,143.237 122.600,143.392 122.429 C 143.547 122.258,143.755 121.685,143.856 121.156 C 143.956 120.628,144.211 119.873,144.421 119.480 C 145.045 118.316,144.996 112.284,144.352 110.896 C 144.103 110.359,143.842 109.565,143.773 109.132 C 143.704 108.698,143.531 108.247,143.390 108.130 C 143.249 108.013,142.995 107.500,142.825 106.991 C 142.656 106.481,142.453 106.065,142.375 106.065 C 142.296 106.065,142.070 105.748,141.873 105.360 C 141.675 104.972,141.366 104.544,141.185 104.409 C 141.004 104.274,140.856 104.055,140.856 103.923 C 140.856 103.790,140.602 103.456,140.291 103.180 C 139.981 102.903,139.727 102.593,139.727 102.490 C 139.727 102.388,139.607 102.304,139.459 102.304 C 139.311 102.304,139.024 102.092,138.821 101.834 C 138.617 101.575,138.360 101.363,138.249 101.363 C 138.139 101.363,137.770 101.128,137.430 100.841 C 136.466 100.025,135.316 99.295,134.997 99.295 C 134.837 99.295,134.291 99.066,133.784 98.786 L 132.863 98.276 119.699 98.204 C 112.459 98.165,106.472 98.196,106.394 98.275 M360.508 108.980 C 360.508 109.442,360.534 109.450,362.000 109.450 C 363.488 109.450,363.492 109.451,363.551 109.967 C 363.607 110.449,363.677 110.488,364.598 110.541 C 365.505 110.593,365.585 110.636,365.585 111.058 C 365.585 111.485,365.653 111.519,366.526 111.519 C 367.403 111.519,367.466 111.550,367.466 111.989 C 367.466 112.386,367.554 112.459,368.030 112.459 C 368.532 112.459,368.594 112.522,368.594 113.023 C 368.594 113.499,368.667 113.587,369.064 113.587 C 369.441 113.587,369.535 113.681,369.535 114.057 C 369.535 114.433,369.629 114.528,370.005 114.528 C 370.381 114.528,370.475 114.622,370.475 114.998 C 370.475 115.370,370.570 115.468,370.930 115.468 C 371.283 115.468,371.413 115.595,371.509 116.032 C 371.605 116.469,371.735 116.596,372.088 116.596 C 372.448 116.596,372.543 116.694,372.543 117.066 C 372.543 117.529,372.518 117.536,371.039 117.536 C 369.560 117.536,369.535 117.529,369.535 117.066 C 369.535 116.604,369.509 116.596,368.030 116.596 C 366.645 116.596,366.526 116.566,366.526 116.215 C 366.526 115.674,365.826 115.468,363.987 115.468 C 362.612 115.468,362.400 115.423,362.301 115.114 C 362.158 114.661,361.468 114.528,359.275 114.528 C 357.603 114.528,357.522 114.509,357.465 114.104 C 357.408 113.701,357.314 113.679,355.477 113.628 C 353.595 113.575,353.550 113.564,353.550 113.132 C 353.550 112.604,353.153 112.465,351.635 112.461 C 350.671 112.459,350.561 112.417,350.507 112.036 C 350.454 111.667,350.319 111.605,349.459 111.556 L 348.472 111.499 348.472 110.474 L 348.472 109.450 349.976 109.450 C 351.456 109.450,351.481 109.442,351.481 108.980 L 351.481 108.510 355.994 108.510 L 360.508 108.510 360.508 108.980 M130.547 109.967 C 130.590 110.337,130.727 110.501,131.029 110.544 C 131.293 110.582,131.495 110.776,131.567 111.061 C 131.648 111.386,131.812 111.519,132.131 111.519 C 132.486 111.519,132.581 111.618,132.581 111.989 C 132.581 112.365,132.675 112.459,133.051 112.459 L 133.521 112.459 133.521 114.985 C 133.521 117.461,133.513 117.511,133.098 117.570 C 132.730 117.623,132.668 117.758,132.619 118.606 C 132.566 119.510,132.525 119.586,132.055 119.641 C 131.699 119.682,131.529 119.822,131.488 120.111 C 131.452 120.367,131.274 120.544,131.018 120.581 C 130.758 120.618,130.584 120.795,130.546 121.063 L 130.486 121.486 124.011 121.486 L 117.536 121.486 117.536 115.468 L 117.536 109.450 124.012 109.450 L 130.487 109.450 130.547 109.967 M42.089 122.272 C 42.132 122.643,42.032 122.838,41.713 123.006 C 41.474 123.132,41.101 123.413,40.885 123.630 C 40.668 123.847,40.203 124.280,39.850 124.591 C 39.498 124.903,39.063 125.368,38.883 125.626 C 38.704 125.883,38.093 126.770,37.526 127.598 C 36.960 128.425,36.155 129.587,35.737 130.179 C 35.320 130.771,34.979 131.307,34.979 131.370 C 34.979 131.434,34.310 132.684,33.493 134.149 C 32.676 135.614,31.400 138.082,30.657 139.633 C 29.273 142.522,28.772 143.535,25.817 149.412 C 24.261 152.505,23.513 154.125,22.558 156.465 C 22.368 156.930,21.912 157.998,21.544 158.839 C 21.176 159.679,20.874 160.428,20.874 160.503 C 20.874 160.578,20.748 160.906,20.593 161.232 C 18.689 165.247,18.843 170.368,20.931 172.409 L 21.645 173.108 23.375 173.108 C 26.262 173.108,30.895 169.489,34.087 164.739 C 34.261 164.480,34.656 163.930,34.965 163.517 C 35.587 162.684,36.564 161.239,37.571 159.661 C 37.935 159.093,38.388 158.398,38.580 158.118 C 38.771 157.837,38.928 157.549,38.928 157.477 C 38.928 157.405,39.123 157.084,39.361 156.764 C 39.599 156.444,40.288 155.336,40.892 154.302 C 41.496 153.268,42.212 152.040,42.485 151.575 C 42.991 150.709,43.095 150.528,44.090 148.781 C 45.302 146.654,47.727 141.942,51.993 133.427 C 56.401 124.631,56.758 124.028,58.272 122.834 C 59.472 121.887,59.887 121.819,65.088 121.723 C 71.069 121.612,70.995 121.561,68.486 124.095 C 67.589 125.000,66.516 126.185,66.102 126.728 C 65.220 127.886,65.022 128.207,63.015 131.735 C 62.033 133.461,55.101 147.461,55.101 147.718 C 55.101 147.773,54.797 148.473,54.425 149.274 C 53.056 152.221,52.876 152.632,52.470 153.738 C 52.242 154.358,51.887 155.289,51.680 155.806 C 51.474 156.323,51.200 157.127,51.070 157.593 C 50.940 158.058,50.704 158.693,50.546 159.003 C 50.387 159.314,50.162 160.016,50.046 160.564 C 49.930 161.112,49.705 161.814,49.545 162.123 C 49.169 162.850,48.829 166.693,48.988 168.426 C 49.221 170.972,51.440 173.319,53.109 172.784 C 53.429 172.682,54.156 172.458,54.725 172.288 C 57.121 171.573,60.606 168.305,63.580 163.987 C 64.185 163.108,64.935 162.050,65.246 161.636 C 65.558 161.222,65.904 160.672,66.017 160.414 C 66.129 160.155,66.380 159.774,66.573 159.567 C 66.766 159.361,67.014 158.980,67.124 158.721 C 67.235 158.463,67.828 157.405,68.443 156.370 C 69.058 155.336,70.379 152.840,71.379 150.823 C 72.378 148.806,73.470 146.606,73.805 145.933 C 75.056 143.421,77.556 143.883,76.369 146.408 C 76.153 146.868,75.976 147.303,75.976 147.374 C 75.976 147.444,75.731 148.016,75.431 148.645 C 75.132 149.274,74.618 150.381,74.289 151.105 C 73.191 153.523,71.063 157.636,70.055 159.285 C 69.707 159.854,69.034 160.997,68.558 161.824 C 68.083 162.652,67.537 163.540,67.346 163.799 C 67.154 164.057,66.610 164.861,66.138 165.585 C 65.665 166.309,65.020 167.188,64.703 167.538 C 64.387 167.889,64.128 168.251,64.128 168.344 C 64.128 169.068,57.148 175.082,56.307 175.082 C 56.251 175.082,55.917 175.301,55.566 175.569 C 55.109 175.918,54.563 176.102,53.643 176.217 C 52.936 176.306,52.123 176.468,51.836 176.577 C 48.490 177.849,43.271 174.504,42.236 170.424 C 41.578 167.828,41.534 165.478,42.046 160.219 C 42.232 158.307,41.693 158.063,40.831 159.668 C 40.005 161.207,38.569 163.446,37.761 164.457 C 37.265 165.078,36.711 165.784,36.530 166.027 C 36.349 166.269,35.884 166.846,35.496 167.307 C 35.108 167.769,34.791 168.230,34.791 168.332 C 34.791 168.434,33.670 169.620,32.301 170.968 C 29.146 174.075,26.303 175.894,24.118 176.204 C 23.393 176.307,22.573 176.477,22.295 176.583 C 19.418 177.677,12.704 174.672,12.024 171.986 C 11.919 171.569,11.645 170.719,11.417 170.099 C 10.775 168.355,10.861 163.330,11.559 161.856 C 11.821 161.302,12.036 160.704,12.036 160.529 C 12.036 160.354,12.196 159.897,12.391 159.513 C 12.587 159.129,12.876 158.392,13.035 157.875 C 13.194 157.358,13.600 156.427,13.937 155.806 C 14.274 155.186,14.793 154.213,15.091 153.644 C 15.389 153.075,15.761 152.372,15.918 152.082 C 16.179 151.600,16.173 151.513,15.859 151.071 C 14.929 149.764,14.890 149.668,15.061 149.072 C 15.320 148.170,18.211 142.240,20.120 138.693 C 20.455 138.072,22.190 134.673,23.978 131.139 C 28.961 121.287,28.366 121.708,37.236 121.747 L 42.031 121.768 42.089 122.272 M46.450 129.102 C 46.450 129.478,46.356 129.572,45.980 129.572 C 45.542 129.572,45.510 129.635,45.510 130.509 C 45.510 131.351,45.463 131.457,45.040 131.564 C 44.620 131.669,44.570 131.778,44.570 132.589 C 44.570 133.439,44.537 133.500,44.053 133.556 C 43.570 133.611,43.532 133.682,43.479 134.603 C 43.426 135.509,43.384 135.590,42.961 135.590 C 42.601 135.590,42.501 135.688,42.501 136.040 C 42.501 136.363,42.369 136.523,42.031 136.608 C 41.608 136.714,41.561 136.820,41.561 137.662 C 41.561 138.526,41.526 138.599,41.108 138.599 C 40.708 138.599,40.641 138.707,40.526 139.540 C 40.418 140.325,40.322 140.500,39.945 140.595 C 39.545 140.695,39.492 140.814,39.492 141.615 C 39.492 142.412,39.441 142.529,39.069 142.582 C 38.700 142.634,38.639 142.769,38.589 143.630 C 38.538 144.523,38.491 144.617,38.092 144.617 C 37.594 144.617,37.424 144.929,37.424 145.842 C 37.424 146.351,37.343 146.483,37.000 146.531 C 36.700 146.574,36.560 146.738,36.519 147.097 C 36.478 147.451,36.337 147.620,36.049 147.661 C 35.702 147.711,35.628 147.859,35.580 148.601 C 35.532 149.344,35.458 149.492,35.111 149.542 C 34.771 149.590,34.672 149.774,34.543 150.588 C 34.404 151.464,34.335 151.575,33.930 151.575 C 33.503 151.575,33.474 151.640,33.474 152.609 C 33.474 153.587,33.449 153.644,33.004 153.644 C 32.628 153.644,32.534 153.738,32.534 154.114 C 32.534 154.490,32.440 154.584,32.064 154.584 C 31.404 154.584,31.361 153.515,32.017 153.422 C 32.377 153.370,32.449 153.230,32.497 152.480 C 32.545 151.737,32.618 151.589,32.967 151.540 C 33.324 151.489,33.388 151.346,33.437 150.494 C 33.489 149.593,33.534 149.506,33.945 149.506 C 34.355 149.506,34.400 149.419,34.452 148.519 C 34.501 147.674,34.567 147.523,34.913 147.474 C 35.327 147.415,35.536 146.964,35.540 146.119 C 35.542 145.811,35.690 145.582,35.966 145.461 C 36.304 145.313,36.401 145.097,36.446 144.394 C 36.494 143.650,36.568 143.503,36.916 143.453 C 37.264 143.404,37.345 143.244,37.424 142.454 C 37.502 141.671,37.585 141.504,37.922 141.456 C 38.336 141.397,38.545 140.947,38.549 140.101 C 38.551 139.793,38.699 139.564,38.975 139.443 C 39.314 139.294,39.410 139.080,39.456 138.364 C 39.507 137.557,39.558 137.471,39.973 137.471 C 40.398 137.471,40.433 137.402,40.433 136.543 C 40.433 135.670,40.463 135.611,40.950 135.556 C 41.432 135.500,41.471 135.430,41.524 134.509 C 41.576 133.602,41.618 133.521,42.041 133.521 C 42.403 133.521,42.501 133.424,42.501 133.064 C 42.501 132.734,42.618 132.591,42.924 132.547 C 43.227 132.504,43.364 132.340,43.407 131.970 C 43.453 131.570,43.566 131.453,43.906 131.453 C 44.292 131.453,44.363 131.336,44.476 130.512 C 44.590 129.680,44.657 129.572,45.058 129.572 C 45.415 129.572,45.510 129.473,45.510 129.102 C 45.510 128.726,45.604 128.632,45.980 128.632 C 46.356 128.632,46.450 128.726,46.450 129.102 M336.588 139.539 C 337.504 139.539,337.565 139.568,337.565 140.009 C 337.565 140.453,337.622 140.480,338.586 140.480 C 339.496 140.480,339.614 140.525,339.667 140.895 C 339.743 141.420,340.256 141.565,342.125 141.589 C 343.549 141.607,343.583 141.619,343.583 142.078 L 343.583 142.548 345.557 142.548 L 347.532 142.548 347.532 143.018 L 347.532 143.488 349.506 143.488 C 351.336 143.488,351.481 143.515,351.481 143.853 C 351.481 144.396,351.761 144.489,353.730 144.605 C 355.410 144.704,355.528 144.738,355.584 145.134 C 355.642 145.542,355.715 145.557,357.606 145.557 L 359.567 145.557 359.567 146.027 C 359.567 146.472,359.624 146.497,360.602 146.497 C 361.564 146.497,361.636 146.528,361.636 146.943 C 361.636 147.421,362.245 147.619,363.730 147.624 C 364.309 147.625,364.427 147.698,364.503 148.096 C 364.578 148.489,364.521 148.566,364.152 148.566 C 363.839 148.566,363.678 148.702,363.594 149.036 C 363.480 149.489,363.420 149.506,361.945 149.509 C 359.947 149.512,359.567 149.621,359.567 150.186 C 359.567 150.632,359.553 150.635,357.499 150.635 C 355.442 150.635,355.430 150.632,355.430 150.185 C 355.430 149.556,355.187 149.506,352.124 149.506 L 349.412 149.506 349.412 149.036 C 349.412 148.577,349.381 148.566,348.005 148.566 C 346.662 148.566,346.593 148.545,346.481 148.096 C 346.375 147.676,346.266 147.626,345.455 147.626 C 344.605 147.626,344.544 147.593,344.488 147.109 C 344.433 146.626,344.362 146.588,343.441 146.535 C 342.535 146.482,342.454 146.440,342.454 146.017 C 342.454 145.655,342.357 145.557,341.997 145.557 C 341.666 145.557,341.523 145.440,341.480 145.134 C 341.428 144.765,341.293 144.704,340.433 144.654 C 339.478 144.599,339.445 144.579,339.445 144.043 C 339.445 143.577,339.370 143.488,338.975 143.488 C 338.599 143.488,338.505 143.394,338.505 143.018 C 338.505 142.642,338.411 142.548,338.035 142.548 C 337.659 142.548,337.565 142.454,337.565 142.078 C 337.565 141.681,337.477 141.608,337.000 141.608 C 336.499 141.608,336.436 141.545,336.436 141.044 C 336.436 140.567,336.363 140.480,335.966 140.480 C 335.590 140.480,335.496 140.386,335.496 140.009 C 335.496 139.633,335.402 139.539,335.026 139.539 C 334.641 139.539,334.556 139.448,334.556 139.034 L 334.556 138.529 335.083 139.034 C 335.517 139.450,335.784 139.539,336.588 139.539 M31.560 156.362 C 31.074 156.761,30.465 156.611,30.465 156.092 C 30.465 155.612,30.538 155.524,30.936 155.524 C 31.194 155.524,31.419 155.418,31.436 155.289 C 31.452 155.160,31.501 155.337,31.543 155.683 C 31.586 156.029,31.593 156.335,31.560 156.362 M42.313 157.687 C 42.313 157.945,42.398 158.157,42.501 158.157 C 42.605 158.157,42.689 157.945,42.689 157.687 C 42.689 157.428,42.605 157.217,42.501 157.217 C 42.398 157.217,42.313 157.428,42.313 157.687 " stroke="none" fill="#040404" fill-rule="evenodd"></path><path id="path3" d="M352.985 90.087 C 352.210 90.182,351.388 90.343,351.159 90.445 C 350.930 90.547,349.840 90.722,348.738 90.834 C 347.636 90.946,346.385 91.168,345.958 91.327 C 345.531 91.485,344.758 91.728,344.241 91.865 C 343.724 92.002,342.965 92.292,342.555 92.508 C 342.146 92.724,341.642 92.901,341.437 92.901 C 341.103 92.901,340.624 93.167,339.069 94.217 C 338.811 94.392,338.335 94.671,338.013 94.838 C 336.552 95.594,332.619 99.625,331.831 101.175 C 331.646 101.537,331.380 101.901,331.239 101.984 C 331.098 102.067,330.983 102.215,330.983 102.313 C 330.983 102.411,330.736 103.020,330.436 103.667 C 330.135 104.313,329.829 105.223,329.757 105.689 C 329.685 106.154,329.493 106.684,329.332 106.867 C 328.621 107.672,328.578 115.942,329.277 117.332 C 329.464 117.703,329.708 118.536,329.820 119.182 C 329.938 119.865,330.213 120.614,330.475 120.969 C 330.724 121.305,330.979 121.728,331.043 121.909 C 331.107 122.090,331.236 122.238,331.330 122.238 C 331.424 122.238,331.603 122.485,331.729 122.787 C 332.002 123.446,334.348 125.652,335.901 126.709 C 337.447 127.762,338.072 128.133,338.599 128.308 C 338.909 128.412,339.297 128.612,339.461 128.753 C 339.624 128.894,340.241 129.098,340.832 129.208 C 341.423 129.317,342.177 129.564,342.509 129.757 C 342.841 129.950,343.535 130.169,344.053 130.244 C 344.570 130.319,345.289 130.530,345.651 130.713 C 346.013 130.896,346.817 131.145,347.438 131.267 C 348.058 131.388,348.753 131.606,348.982 131.752 C 349.211 131.897,349.977 132.098,350.684 132.199 C 351.392 132.299,352.347 132.545,352.807 132.744 C 353.267 132.944,354.354 133.200,355.222 133.314 C 356.091 133.428,356.911 133.611,357.044 133.722 C 357.178 133.833,357.969 134.043,358.804 134.189 C 359.638 134.334,360.517 134.582,360.758 134.740 C 360.998 134.898,361.679 135.116,362.270 135.225 C 362.861 135.335,363.616 135.578,363.948 135.767 C 364.280 135.956,364.922 136.165,365.375 136.233 C 366.154 136.348,367.744 136.972,368.782 137.569 C 369.041 137.718,369.549 137.978,369.911 138.146 C 370.273 138.314,371.105 138.908,371.759 139.466 C 372.414 140.023,373.064 140.480,373.204 140.480 C 373.344 140.480,373.506 140.628,373.563 140.809 C 373.621 140.990,373.883 141.370,374.146 141.653 C 374.409 141.936,374.794 142.529,375.002 142.969 C 375.210 143.410,375.501 143.988,375.649 144.254 C 375.796 144.520,376.001 145.475,376.103 146.375 C 376.205 147.276,376.333 148.083,376.386 148.170 C 376.440 148.257,376.360 148.910,376.209 149.622 C 376.058 150.334,375.934 151.307,375.932 151.784 C 375.930 152.383,375.790 152.855,375.481 153.310 C 375.236 153.672,374.938 154.261,374.820 154.619 C 374.426 155.813,370.954 158.909,370.009 158.909 C 369.776 158.909,369.372 159.077,369.110 159.283 C 368.849 159.488,368.140 159.776,367.534 159.922 C 366.928 160.068,366.129 160.317,365.760 160.477 C 365.391 160.636,364.206 160.857,363.127 160.967 C 358.417 161.449,357.594 161.482,355.994 161.251 C 355.115 161.125,353.050 160.960,351.404 160.884 C 348.766 160.764,348.312 160.694,347.568 160.298 C 347.103 160.052,346.429 159.850,346.068 159.850 C 345.708 159.850,345.150 159.687,344.827 159.489 C 344.505 159.291,343.691 159.031,343.018 158.911 C 342.346 158.792,341.584 158.553,341.326 158.382 C 341.067 158.210,340.559 157.919,340.197 157.736 C 339.835 157.552,339.116 157.154,338.599 156.852 C 338.082 156.549,337.447 156.202,337.189 156.081 C 336.567 155.789,336.492 155.743,335.222 154.866 C 334.623 154.452,333.971 154.020,333.774 153.905 C 333.577 153.791,333.270 153.557,333.092 153.386 C 330.940 151.314,329.675 150.899,329.089 152.072 C 328.926 152.397,328.567 152.932,328.289 153.262 C 328.012 153.591,327.734 154.066,327.671 154.316 C 327.608 154.567,327.478 154.772,327.381 154.772 C 327.170 154.772,326.093 156.994,326.093 157.429 C 326.093 157.701,327.952 159.285,328.270 159.285 C 328.338 159.285,328.702 159.544,329.077 159.860 C 329.453 160.176,329.962 160.603,330.209 160.808 C 330.455 161.014,330.899 161.308,331.196 161.461 C 331.492 161.614,331.735 161.816,331.735 161.908 C 331.735 162.001,332.024 162.172,332.376 162.289 C 332.729 162.405,333.063 162.619,333.119 162.764 C 333.174 162.908,333.581 163.124,334.022 163.243 C 334.464 163.362,335.017 163.610,335.253 163.796 C 335.488 163.981,335.969 164.187,336.322 164.253 C 336.674 164.319,337.062 164.493,337.184 164.640 C 337.306 164.786,337.816 165.043,338.317 165.209 C 338.818 165.376,339.326 165.630,339.445 165.773 C 339.565 165.917,340.142 166.129,340.729 166.244 C 341.316 166.359,342.177 166.609,342.642 166.799 C 343.108 166.989,344.039 167.205,344.711 167.279 C 345.383 167.353,346.314 167.586,346.780 167.798 C 347.455 168.106,348.233 168.214,350.635 168.337 C 352.290 168.421,354.024 168.598,354.490 168.730 C 355.526 169.024,361.192 169.017,362.294 168.720 C 362.708 168.608,363.962 168.425,365.081 168.313 C 366.199 168.201,367.516 167.951,368.007 167.757 C 368.497 167.564,369.314 167.343,369.823 167.267 C 370.331 167.191,371.122 166.929,371.579 166.686 C 372.037 166.443,372.599 166.244,372.828 166.244 C 373.057 166.244,373.447 166.086,373.693 165.894 C 373.940 165.702,374.523 165.360,374.988 165.133 C 376.258 164.514,377.054 164.051,377.402 163.729 C 378.461 162.751,378.734 162.505,379.493 161.846 C 380.319 161.129,380.820 160.542,381.758 159.186 C 382.017 158.813,382.411 158.278,382.633 157.998 C 382.856 157.718,383.136 157.125,383.255 156.681 C 383.375 156.237,383.637 155.605,383.837 155.276 C 384.038 154.947,384.202 154.499,384.202 154.279 C 384.203 154.060,384.385 153.341,384.607 152.681 C 384.954 151.649,385.022 150.923,385.097 147.500 L 385.185 143.518 384.694 142.481 C 384.424 141.910,384.202 141.247,384.200 141.008 C 384.199 140.769,384.078 140.362,383.932 140.103 C 383.787 139.845,383.496 139.274,383.288 138.834 C 383.079 138.394,382.820 138.035,382.712 138.035 C 382.604 138.035,382.392 137.739,382.241 137.377 C 382.089 137.015,381.878 136.718,381.770 136.718 C 381.663 136.718,381.459 136.439,381.316 136.097 C 381.070 135.508,378.258 132.957,377.854 132.957 C 377.755 132.957,377.361 132.709,376.979 132.406 C 376.597 132.103,376.043 131.801,375.746 131.736 C 375.450 131.671,375.164 131.505,375.111 131.366 C 375.058 131.228,374.691 131.011,374.296 130.884 C 373.901 130.757,373.438 130.531,373.266 130.382 C 373.095 130.232,372.554 129.990,372.065 129.842 C 371.575 129.695,371.069 129.487,370.941 129.381 C 370.813 129.274,370.230 129.063,369.646 128.911 C 369.062 128.759,368.396 128.514,368.166 128.368 C 367.936 128.221,367.184 128.016,366.495 127.911 C 365.806 127.807,365.037 127.587,364.786 127.423 C 364.536 127.259,363.619 127.038,362.748 126.933 C 361.878 126.828,360.785 126.582,360.320 126.388 C 359.854 126.194,358.881 125.975,358.157 125.903 C 357.433 125.830,356.480 125.615,356.040 125.425 C 355.599 125.234,354.602 124.990,353.825 124.882 C 353.048 124.774,352.209 124.552,351.961 124.390 C 351.713 124.227,350.940 124.013,350.242 123.915 C 349.545 123.816,348.714 123.575,348.394 123.378 C 348.075 123.182,347.476 122.959,347.063 122.882 C 346.650 122.806,345.940 122.545,345.484 122.302 C 345.028 122.060,344.552 121.862,344.426 121.862 C 344.300 121.862,343.996 121.704,343.749 121.512 C 343.502 121.319,343.089 121.095,342.830 121.015 C 342.572 120.934,342.066 120.626,341.706 120.331 C 341.346 120.035,340.943 119.793,340.809 119.793 C 340.675 119.793,340.470 119.583,340.353 119.327 C 340.236 119.070,339.984 118.810,339.793 118.750 C 339.602 118.689,339.445 118.521,339.445 118.377 C 339.445 118.232,339.195 117.829,338.889 117.480 C 338.583 117.131,338.248 116.473,338.146 116.016 C 338.043 115.559,337.808 114.890,337.623 114.528 C 337.344 113.981,337.287 113.390,337.289 111.041 L 337.291 108.213 338.395 106.026 C 339.703 103.437,342.620 100.235,343.670 100.235 C 343.789 100.235,344.171 100.025,344.520 99.767 C 344.869 99.510,345.456 99.244,345.826 99.178 C 346.195 99.111,346.794 98.909,347.156 98.729 C 347.518 98.549,348.702 98.298,349.788 98.171 C 350.874 98.043,352.340 97.821,353.045 97.676 C 354.727 97.332,357.568 97.340,358.738 97.692 C 359.246 97.845,360.719 98.064,362.012 98.180 C 363.449 98.308,364.692 98.527,365.209 98.743 C 365.675 98.938,366.599 99.181,367.264 99.285 C 367.928 99.388,368.520 99.548,368.580 99.641 C 368.640 99.734,369.127 100.031,369.662 100.301 C 370.198 100.571,370.690 100.878,370.755 100.984 C 370.820 101.089,371.016 101.176,371.191 101.176 C 371.366 101.176,371.805 101.430,372.167 101.740 C 372.529 102.049,372.932 102.303,373.062 102.303 C 373.192 102.304,373.482 102.515,373.707 102.774 C 373.932 103.032,374.183 103.244,374.265 103.244 C 374.348 103.244,374.858 103.667,375.400 104.183 C 376.702 105.425,378.185 105.676,378.185 104.654 C 378.185 104.525,378.326 104.302,378.498 104.160 C 378.670 104.018,378.969 103.564,379.163 103.150 C 379.357 102.736,379.890 101.890,380.346 101.269 C 381.597 99.567,381.513 99.302,379.126 97.430 C 378.867 97.227,378.359 96.824,377.997 96.533 C 377.635 96.242,377.085 95.830,376.775 95.617 C 376.161 95.197,373.046 93.653,372.812 93.653 C 372.732 93.653,372.534 93.540,372.370 93.402 C 372.207 93.264,371.777 93.041,371.415 92.907 C 371.053 92.773,370.418 92.513,370.005 92.328 C 369.591 92.143,368.787 91.934,368.218 91.862 C 367.649 91.790,366.816 91.565,366.366 91.362 C 365.905 91.155,364.755 90.913,363.733 90.810 C 362.735 90.709,361.410 90.498,360.790 90.342 C 359.416 89.997,354.925 89.850,352.985 90.087 M358.432 90.548 C 359.307 90.702,361.047 90.912,362.298 91.013 C 363.777 91.133,364.867 91.325,365.409 91.561 C 365.868 91.760,366.624 91.982,367.090 92.053 C 368.092 92.207,371.161 93.196,371.697 93.539 C 371.904 93.671,372.877 94.146,373.860 94.595 C 375.736 95.452,375.963 95.591,378.069 97.179 C 378.789 97.722,379.434 98.166,379.503 98.166 C 379.571 98.166,379.894 98.500,380.222 98.907 L 380.816 99.647 380.112 100.796 C 379.725 101.428,379.178 102.301,378.897 102.735 C 378.616 103.170,378.209 103.850,377.992 104.247 C 377.722 104.740,377.507 104.933,377.312 104.858 C 377.155 104.798,376.954 104.748,376.867 104.748 C 376.779 104.748,376.596 104.642,376.459 104.512 C 374.640 102.785,373.227 101.782,370.288 100.132 C 368.278 99.004,365.826 98.294,361.542 97.600 C 357.197 96.896,352.654 96.924,349.690 97.673 C 349.072 97.829,348.016 98.080,347.344 98.231 C 343.557 99.080,340.141 101.760,338.166 105.433 C 334.427 112.388,338.212 120.690,346.205 123.064 C 346.701 123.211,347.351 123.457,347.649 123.610 C 347.946 123.762,348.698 123.991,349.318 124.117 C 349.939 124.244,350.743 124.470,351.105 124.620 C 351.467 124.771,352.414 125.018,353.210 125.170 C 354.006 125.321,354.937 125.561,355.279 125.703 C 355.621 125.844,356.499 126.052,357.230 126.164 C 357.962 126.276,358.912 126.492,359.343 126.644 C 359.774 126.796,360.803 127.013,361.631 127.127 C 362.459 127.240,363.434 127.457,363.798 127.609 C 364.163 127.762,364.989 128.006,365.634 128.153 C 366.280 128.299,367.307 128.594,367.918 128.808 C 368.529 129.021,369.141 129.196,369.277 129.196 C 369.754 129.196,375.224 131.832,376.393 132.625 C 376.810 132.907,377.218 133.140,377.300 133.142 C 378.391 133.167,381.999 137.254,383.250 139.882 C 384.964 143.483,385.163 151.257,383.626 154.501 C 383.426 154.921,383.138 155.683,382.984 156.194 C 382.831 156.705,382.386 157.547,381.997 158.065 C 381.607 158.583,381.045 159.364,380.748 159.801 C 380.256 160.524,378.219 162.495,377.057 163.372 C 375.985 164.182,372.659 165.957,371.885 166.133 C 371.575 166.203,370.898 166.419,370.381 166.612 C 365.465 168.446,352.004 169.015,347.720 167.568 C 347.151 167.376,346.122 167.126,345.433 167.011 C 344.744 166.896,343.898 166.685,343.552 166.541 C 343.207 166.397,342.434 166.189,341.835 166.078 C 340.815 165.890,340.138 165.608,336.342 163.792 C 335.515 163.396,334.542 162.937,334.180 162.771 C 333.026 162.242,332.168 161.674,329.198 159.473 C 326.553 157.514,326.637 157.609,326.829 156.789 C 326.921 156.399,327.152 155.859,327.344 155.590 C 327.535 155.320,327.820 154.878,327.976 154.607 C 329.705 151.615,330.026 151.477,331.869 152.932 C 334.238 154.803,335.767 155.818,338.520 157.347 C 341.128 158.795,341.826 159.069,345.557 160.111 C 346.385 160.343,347.264 160.642,347.512 160.776 C 347.760 160.910,348.902 161.093,350.051 161.181 C 351.199 161.270,353.155 161.484,354.396 161.657 C 359.160 162.322,367.345 161.222,369.457 159.632 C 369.569 159.548,370.014 159.354,370.445 159.202 C 372.088 158.622,374.481 156.323,375.442 154.400 C 378.536 148.211,376.337 141.158,370.280 137.847 C 368.347 136.790,367.024 136.153,366.750 136.148 C 366.575 136.145,365.966 135.971,365.397 135.763 C 364.828 135.554,363.813 135.223,363.141 135.026 C 362.468 134.830,361.410 134.507,360.790 134.309 C 358.294 133.511,356.967 133.163,355.712 132.975 C 354.988 132.866,353.911 132.606,353.319 132.397 C 352.727 132.188,352.076 132.017,351.873 132.017 C 351.670 132.017,350.801 131.803,349.941 131.541 C 347.038 130.657,344.813 129.986,343.112 129.481 C 339.136 128.299,337.557 127.485,334.584 125.083 C 329.131 120.679,327.600 112.666,330.643 104.466 C 331.196 102.977,331.356 102.684,332.781 100.547 C 334.658 97.733,339.623 93.848,342.392 93.029 C 342.927 92.871,343.529 92.654,343.729 92.547 C 344.581 92.091,348.684 91.181,351.068 90.919 C 352.484 90.764,354.109 90.564,354.678 90.476 C 356.232 90.234,356.696 90.243,358.432 90.548 M98.022 91.052 C 97.688 91.386,97.682 167.753,98.016 168.087 C 98.430 168.500,105.555 168.395,105.940 167.970 C 106.222 167.659,106.255 166.346,106.299 153.912 L 106.347 140.197 119.135 140.102 C 128.464 140.032,132.076 139.945,132.487 139.780 C 132.797 139.656,133.887 139.464,134.908 139.355 C 136.200 139.217,136.920 139.045,137.278 138.790 C 137.561 138.589,138.151 138.367,138.589 138.297 C 139.027 138.227,139.611 137.988,139.886 137.766 C 140.161 137.544,140.597 137.257,140.856 137.128 C 142.589 136.265,143.870 135.260,145.501 133.485 C 145.625 133.350,145.837 133.136,145.971 133.009 C 146.105 132.882,146.638 132.303,147.156 131.722 C 147.673 131.141,148.282 130.463,148.509 130.214 C 149.243 129.413,150.010 128.180,150.255 127.409 C 150.387 126.996,150.601 126.530,150.731 126.375 C 151.263 125.742,151.977 123.532,152.240 121.705 C 152.393 120.636,152.597 119.616,152.692 119.439 C 153.285 118.329,153.296 112.437,152.706 111.335 C 152.607 111.150,152.431 110.375,152.316 109.613 C 152.200 108.851,151.952 107.889,151.764 107.475 C 151.577 107.062,151.281 106.321,151.107 105.830 C 150.934 105.339,150.721 104.937,150.634 104.937 C 150.547 104.937,150.419 104.661,150.349 104.325 C 150.165 103.441,149.407 102.189,148.256 100.864 C 147.702 100.228,147.250 99.616,147.250 99.505 C 147.250 99.394,147.051 99.173,146.808 99.014 C 146.566 98.855,146.271 98.515,146.154 98.258 C 146.037 98.001,145.813 97.790,145.655 97.790 C 145.498 97.790,145.369 97.709,145.369 97.609 C 145.369 97.305,143.200 95.212,142.525 94.866 C 142.176 94.687,141.688 94.383,141.441 94.191 C 141.195 93.998,140.869 93.841,140.716 93.841 C 140.564 93.841,140.188 93.630,139.881 93.371 C 139.574 93.112,139.181 92.898,139.008 92.895 C 138.835 92.892,138.187 92.638,137.569 92.331 C 136.951 92.024,136.327 91.772,136.181 91.772 C 136.036 91.772,135.610 91.582,135.236 91.349 L 134.556 90.926 116.405 90.873 C 102.211 90.831,98.203 90.870,98.022 91.052 M131.547 91.220 C 133.838 91.418,136.210 92.039,137.377 92.746 C 137.687 92.934,138.051 93.088,138.185 93.088 C 139.569 93.092,146.874 98.639,146.874 99.686 C 146.874 99.778,147.322 100.384,147.870 101.032 C 150.602 104.262,153.009 111.815,152.641 116.005 C 152.108 122.076,150.562 127.029,148.347 129.760 C 148.054 130.122,147.623 130.654,147.390 130.941 C 144.957 133.950,140.401 137.407,138.036 138.037 C 137.571 138.161,136.891 138.415,136.524 138.602 C 135.251 139.252,131.994 139.415,118.864 139.485 C 110.229 139.531,106.294 139.615,106.123 139.757 C 105.924 139.922,105.877 142.603,105.877 153.738 C 105.877 166.318,105.850 167.536,105.566 167.772 C 105.053 168.198,98.708 168.263,98.292 167.846 C 97.823 167.378,97.806 91.784,98.274 91.316 C 98.634 90.956,127.542 90.873,131.547 91.220 M106.206 97.993 C 105.647 98.319,105.702 132.474,106.262 132.774 C 106.534 132.920,110.514 132.960,119.849 132.912 L 133.051 132.843 134.368 132.259 C 137.622 130.814,139.086 129.881,140.405 128.414 C 141.183 127.547,142.729 125.090,143.121 124.097 C 143.340 123.540,143.589 123.000,143.673 122.897 C 143.757 122.793,143.954 122.285,144.110 121.768 C 144.266 121.251,144.549 120.489,144.739 120.075 C 145.297 118.859,145.255 111.601,144.683 110.363 C 144.461 109.882,144.221 109.225,144.150 108.902 C 143.941 107.951,142.323 105.019,141.420 103.957 C 141.265 103.774,140.926 103.368,140.668 103.055 C 139.610 101.774,136.820 99.685,134.952 98.776 C 133.804 98.217,133.360 98.115,131.464 97.968 C 128.378 97.729,106.622 97.751,106.206 97.993 M133.784 98.786 C 134.291 99.066,134.837 99.295,134.997 99.295 C 135.316 99.295,136.466 100.025,137.430 100.841 C 137.770 101.128,138.139 101.363,138.249 101.363 C 138.360 101.363,138.617 101.575,138.821 101.834 C 139.024 102.092,139.311 102.304,139.459 102.304 C 139.607 102.304,139.727 102.388,139.727 102.490 C 139.727 102.593,139.981 102.903,140.291 103.180 C 140.602 103.456,140.856 103.790,140.856 103.923 C 140.856 104.055,141.004 104.274,141.185 104.409 C 141.366 104.544,141.675 104.972,141.873 105.360 C 142.070 105.748,142.296 106.065,142.375 106.065 C 142.453 106.065,142.656 106.481,142.825 106.991 C 142.995 107.500,143.249 108.013,143.390 108.130 C 143.531 108.247,143.704 108.698,143.773 109.132 C 143.842 109.565,144.103 110.359,144.352 110.896 C 144.996 112.284,145.045 118.316,144.421 119.480 C 144.211 119.873,143.956 120.628,143.856 121.156 C 143.755 121.685,143.547 122.258,143.392 122.429 C 143.237 122.600,142.984 123.167,142.829 123.689 C 142.674 124.211,142.420 124.743,142.266 124.871 C 142.111 125.000,141.983 125.200,141.982 125.317 C 141.981 125.433,141.685 125.900,141.324 126.355 C 140.963 126.809,140.668 127.265,140.668 127.367 C 140.668 127.470,140.477 127.747,140.244 127.981 C 140.012 128.216,139.722 128.522,139.601 128.661 C 139.104 129.231,138.480 129.714,138.081 129.840 C 137.848 129.914,137.424 130.167,137.140 130.403 C 136.857 130.639,136.383 130.890,136.088 130.962 C 135.794 131.034,135.328 131.257,135.054 131.458 C 133.831 132.353,130.355 132.580,117.887 132.581 L 106.485 132.581 106.371 132.158 C 106.205 131.539,106.227 98.443,106.394 98.275 C 106.472 98.196,112.459 98.165,119.699 98.204 L 132.863 98.276 133.784 98.786 M31.394 121.841 C 28.815 122.124,28.055 123.077,23.978 131.139 C 22.190 134.673,20.455 138.072,20.120 138.693 C 18.211 142.240,15.320 148.170,15.061 149.072 C 14.890 149.668,14.929 149.764,15.859 151.071 C 16.173 151.513,16.179 151.600,15.918 152.082 C 15.761 152.372,15.389 153.075,15.091 153.644 C 14.793 154.213,14.274 155.186,13.937 155.806 C 13.600 156.427,13.194 157.358,13.035 157.875 C 12.876 158.392,12.587 159.129,12.391 159.513 C 12.196 159.897,12.036 160.354,12.036 160.529 C 12.036 160.704,11.821 161.302,11.559 161.856 C 10.861 163.330,10.775 168.355,11.417 170.099 C 11.645 170.719,11.919 171.569,12.024 171.986 C 12.704 174.672,19.418 177.677,22.295 176.583 C 22.573 176.477,23.393 176.307,24.118 176.204 C 26.303 175.894,29.146 174.075,32.301 170.968 C 33.670 169.620,34.791 168.434,34.791 168.332 C 34.791 168.230,35.108 167.769,35.496 167.307 C 35.884 166.846,36.349 166.269,36.530 166.027 C 36.711 165.784,37.265 165.078,37.761 164.457 C 38.569 163.446,40.005 161.207,40.831 159.668 C 41.693 158.063,42.232 158.307,42.046 160.219 C 41.534 165.478,41.578 167.828,42.236 170.424 C 43.271 174.504,48.490 177.849,51.836 176.577 C 52.123 176.468,52.936 176.306,53.643 176.217 C 54.563 176.102,55.109 175.918,55.566 175.569 C 55.917 175.301,56.251 175.082,56.307 175.082 C 57.148 175.082,64.128 169.068,64.128 168.344 C 64.128 168.251,64.387 167.889,64.703 167.538 C 65.020 167.188,65.665 166.309,66.138 165.585 C 66.610 164.861,67.154 164.057,67.346 163.799 C 67.537 163.540,68.083 162.652,68.558 161.824 C 69.034 160.997,69.707 159.854,70.055 159.285 C 71.063 157.636,73.191 153.523,74.289 151.105 C 74.618 150.381,75.132 149.274,75.431 148.645 C 75.731 148.016,75.976 147.444,75.976 147.374 C 75.976 147.303,76.153 146.868,76.369 146.408 C 77.556 143.883,75.056 143.421,73.805 145.933 C 73.470 146.606,72.378 148.806,71.379 150.823 C 70.379 152.840,69.058 155.336,68.443 156.370 C 67.828 157.405,67.235 158.463,67.124 158.721 C 67.014 158.980,66.766 159.361,66.573 159.567 C 66.380 159.774,66.129 160.155,66.017 160.414 C 65.904 160.672,65.558 161.222,65.246 161.636 C 64.935 162.050,64.185 163.108,63.580 163.987 C 60.606 168.305,57.121 171.573,54.725 172.288 C 54.156 172.458,53.429 172.682,53.109 172.784 C 51.440 173.319,49.221 170.972,48.988 168.426 C 48.829 166.693,49.169 162.850,49.545 162.123 C 49.705 161.814,49.930 161.112,50.046 160.564 C 50.162 160.016,50.387 159.314,50.546 159.003 C 50.704 158.693,50.940 158.058,51.070 157.593 C 51.200 157.127,51.474 156.323,51.680 155.806 C 51.887 155.289,52.242 154.358,52.470 153.738 C 52.876 152.632,53.056 152.221,54.425 149.274 C 54.797 148.473,55.101 147.773,55.101 147.718 C 55.101 147.461,62.033 133.461,63.015 131.735 C 65.022 128.207,65.220 127.886,66.102 126.728 C 66.516 126.185,67.589 125.000,68.486 124.095 C 70.995 121.561,71.069 121.612,65.088 121.723 C 59.887 121.819,59.472 121.887,58.272 122.834 C 56.758 124.028,56.401 124.631,51.993 133.427 C 47.727 141.942,45.302 146.654,44.090 148.781 C 43.095 150.528,42.991 150.709,42.485 151.575 C 42.212 152.040,41.496 153.268,40.892 154.302 C 40.288 155.336,39.599 156.444,39.361 156.764 C 39.123 157.084,38.928 157.405,38.928 157.477 C 38.928 157.549,38.771 157.837,38.580 158.118 C 38.388 158.398,37.935 159.093,37.571 159.661 C 36.564 161.239,35.587 162.684,34.965 163.517 C 34.656 163.930,34.261 164.480,34.087 164.739 C 30.895 169.489,26.262 173.108,23.375 173.108 L 21.645 173.108 20.931 172.409 C 18.843 170.368,18.689 165.247,20.593 161.232 C 20.748 160.906,20.874 160.578,20.874 160.503 C 20.874 160.428,21.176 159.679,21.544 158.839 C 21.912 157.998,22.368 156.930,22.558 156.465 C 23.513 154.125,24.261 152.505,25.817 149.412 C 28.772 143.535,29.273 142.522,30.657 139.633 C 31.400 138.082,32.676 135.614,33.493 134.149 C 34.310 132.684,34.979 131.434,34.979 131.370 C 34.979 131.307,35.320 130.771,35.737 130.179 C 36.155 129.587,36.960 128.425,37.526 127.598 C 38.093 126.770,38.704 125.883,38.883 125.626 C 39.063 125.368,39.498 124.903,39.850 124.591 C 40.203 124.280,40.668 123.847,40.885 123.630 C 41.101 123.413,41.474 123.132,41.713 123.006 C 42.032 122.838,42.132 122.643,42.089 122.272 L 42.031 121.768 37.236 121.747 C 34.598 121.735,31.969 121.778,31.394 121.841 M42.689 157.687 C 42.689 157.945,42.605 158.157,42.501 158.157 C 42.398 158.157,42.313 157.945,42.313 157.687 C 42.313 157.428,42.398 157.217,42.501 157.217 C 42.605 157.217,42.689 157.428,42.689 157.687 " stroke="none" fill="#0c682a" fill-rule="evenodd"></path></g></svg> 
