<?xml version="1.0" standalone="no"?>
<!DOCTYPE svg PUBLIC "-//W3C//DTD SVG 20010904//EN"
 "http://www.w3.org/TR/2001/REC-SVG-20010904/DTD/svg10.dtd">
<svg version="1.0" xmlns="http://www.w3.org/2000/svg"
 width="500.000000pt" height="500.000000pt" viewBox="0 0 500.000000 500.000000"
 preserveAspectRatio="xMidYMid meet">

<g transform="translate(0.000000,500.000000) scale(0.100000,-0.100000)"
fill="#000000" stroke="none">
<path d="M2225 4324 c-764 -117 -1363 -680 -1532 -1439 -30 -138 -43 -447 -24
-602 43 -353 192 -693 424 -969 292 -348 727 -582 1179 -635 160 -18 445 -7
594 25 486 103 892 380 1167 796 150 227 240 468 283 754 20 133 15 434 -9
561 -73 387 -227 690 -490 962 -294 304 -645 486 -1052 548 -125 19 -416 18
-540 -1z m595 -34 c403 -74 794 -300 1055 -611 465 -554 564 -1310 255 -1957
-270 -566 -826 -957 -1450 -1022 -409 -42 -831 59 -1171 282 -186 121 -364
291 -492 469 -79 110 -204 356 -246 484 -121 373 -121 774 1 1142 43 131 163
367 243 478 256 356 618 602 1050 712 224 57 522 66 755 23z"/>
<path d="M2509 4093 c-29 -74 -39 -107 -33 -112 3 -3 11 2 18 12 16 21 66 23
66 2 0 -8 7 -15 15 -15 19 0 19 2 -8 74 -25 68 -42 80 -58 39z m37 -60 c-2 -3
-11 -3 -19 -1 -11 2 -12 9 -5 28 l10 25 9 -24 c5 -13 7 -26 5 -28z"/>
<path d="M2777 4083 c-2 -5 -7 -26 -11 -48 -4 -22 -9 -48 -12 -57 -4 -12 0
-18 10 -18 9 0 16 9 16 20 0 31 27 23 34 -10 3 -16 11 -30 17 -30 7 0 9 11 5
30 -4 22 -1 32 9 36 8 4 15 19 15 34 0 22 -6 30 -31 39 -38 13 -46 14 -52 4z
m58 -43 c0 -8 -10 -16 -22 -18 -22 -3 -32 16 -16 32 12 11 38 2 38 -14z"/>
<path d="M2022 4038 c-29 -29 -2 -68 47 -68 13 0 21 -6 21 -16 0 -13 -7 -15
-30 -10 -22 4 -30 2 -30 -8 0 -32 71 -25 83 8 11 28 -4 46 -44 52 -45 7 -48
31 -4 26 19 -2 26 1 23 10 -6 18 -50 22 -66 6z"/>
<path d="M3026 3956 l-24 -61 36 -17 c43 -19 52 -21 52 -9 0 5 -13 14 -29 21
-39 16 -31 44 10 36 33 -6 40 9 8 19 -23 8 -22 42 2 36 8 -2 22 -6 32 -8 34
-10 16 14 -22 29 l-40 16 -25 -62z"/>
<path d="M1753 3928 c-13 -6 -23 -15 -23 -20 0 -21 52 -108 64 -108 30 0 66
41 66 74 0 56 -50 81 -107 54z m71 -24 c26 -26 14 -74 -19 -74 -16 0 -48 59
-41 76 7 19 41 18 60 -2z"/>
<path d="M1547 3794 c-4 -4 5 -20 19 -37 14 -16 23 -31 21 -33 -2 -2 -24 3
-47 11 -71 25 -77 13 -28 -50 25 -32 46 -51 51 -46 6 6 -2 24 -18 45 l-27 36
42 -15 c44 -16 80 -19 80 -9 0 10 -73 104 -80 104 -4 0 -10 -3 -13 -6z"/>
<path d="M3455 3756 c-19 -13 -19 -16 -3 -49 9 -19 14 -38 11 -41 -13 -13 -33
-5 -33 13 0 25 -18 37 -26 17 -15 -39 45 -82 74 -52 14 13 14 21 4 49 -15 42
-15 47 2 47 7 0 16 -9 19 -21 5 -20 27 -19 27 2 0 11 -37 49 -48 49 -5 0 -17
-6 -27 -14z"/>
<path d="M1326 3591 c-4 -5 10 -23 30 -39 23 -19 35 -37 32 -48 -5 -30 -33
-27 -71 6 -23 20 -38 27 -42 19 -8 -11 47 -64 77 -74 25 -9 57 12 64 41 5 19
0 32 -22 56 -36 37 -61 51 -68 39z"/>
<path d="M3690 3552 c-79 -26 -119 -45 -114 -53 3 -6 13 -8 21 -4 24 9 54 -24
47 -51 -4 -13 -2 -24 3 -24 9 0 73 105 73 120 0 13 -13 18 -30 12z m-14 -48
c-3 -9 -6 -18 -6 -21 0 -3 -7 0 -15 7 -13 11 -13 15 -3 21 21 13 31 10 24 -7z"/>
<path d="M2347 3290 l-139 -220 -350 0 c-307 0 -349 -2 -346 -15 5 -26 972
-1554 983 -1554 11 0 985 1540 985 1558 0 8 -97 11 -349 11 l-349 0 -139 220
c-76 121 -142 220 -148 220 -5 0 -72 -99 -148 -220z m143 -190 c0 -221 -3
-330 -10 -330 -13 0 -190 118 -190 126 0 5 154 440 181 512 5 12 11 22 14 22
3 0 5 -148 5 -330z m119 59 c50 -141 91 -261 91 -265 -1 -10 -165 -117 -187
-122 -10 -3 -13 61 -13 329 0 190 4 329 9 324 5 -6 50 -125 100 -266z m-256
-22 l-88 -245 -135 -105 c-74 -57 -136 -103 -138 -102 -1 1 97 160 219 354
122 193 224 350 226 347 2 -2 -36 -114 -84 -249z m422 -92 c115 -181 215 -341
224 -355 19 -30 31 -38 -144 99 l-130 102 -81 227 c-95 266 -100 281 -86 267
5 -5 103 -158 217 -340z m-585 0 c0 -2 -73 -119 -162 -260 -128 -202 -164
-253 -173 -243 -17 18 -315 493 -315 501 0 4 146 7 325 7 179 0 325 -2 325 -5z
m1257 -10 c-8 -19 -296 -476 -312 -493 -9 -10 -46 43 -171 239 -87 139 -160
256 -162 261 -2 4 143 8 323 8 283 0 326 -2 322 -15z m-1047 -242 l85 -58 3
-76 3 -76 -101 -154 c-56 -85 -105 -155 -108 -156 -4 -2 -33 56 -66 127 l-58
130 52 147 c75 212 67 195 87 184 10 -5 56 -36 103 -68z m365 -73 c27 -73 48
-139 48 -146 0 -17 -117 -314 -124 -314 -3 0 -47 73 -97 163 l-93 162 3 75 3
75 100 67 c54 38 102 65 106 60 3 -4 28 -68 54 -142z m-619 -162 c-56 -158
-105 -290 -108 -293 -6 -6 -158 226 -158 241 0 5 17 35 38 66 28 45 70 83 181
168 79 61 145 109 147 108 1 -2 -43 -133 -100 -290z m773 155 c103 -85 151
-131 169 -164 l25 -46 -74 -118 c-41 -65 -79 -116 -84 -115 -6 1 -32 64 -58
139 -152 428 -156 441 -139 431 9 -5 82 -62 161 -127z m-325 -331 c84 -148 88
-159 117 -289 16 -75 30 -145 31 -157 1 -12 -53 -106 -122 -215 -111 -173
-125 -191 -137 -175 -7 9 -67 104 -133 209 l-120 191 30 147 29 148 102 155
c56 85 105 151 109 147 4 -4 46 -77 94 -161z m296 -12 l50 -142 -87 -138 c-49
-76 -89 -137 -90 -136 -1 1 -15 62 -32 136 l-29 134 61 158 c40 101 64 152 69
143 5 -7 31 -77 58 -155z m-678 -6 l57 -125 -26 -130 c-14 -71 -29 -129 -32
-129 -3 0 -41 56 -83 124 l-78 124 46 131 c26 72 50 131 53 131 4 0 32 -57 63
-126z"/>
<path d="M1135 3325 c-14 -13 -25 -33 -25 -45 0 -29 44 -70 74 -70 60 0 87 82
40 119 -35 27 -59 26 -89 -4z m80 -21 c20 -21 16 -43 -12 -61 -20 -14 -24 -13
-48 11 -21 21 -24 29 -15 46 13 24 52 26 75 4z"/>
<path d="M3815 3326 c-11 -7 -33 -20 -48 -30 -34 -21 -27 -40 9 -24 20 10 27
8 38 -8 18 -24 31 -12 16 15 -9 18 -8 22 6 28 10 4 19 2 21 -4 8 -22 30 -46
36 -37 7 13 -32 74 -46 73 -7 0 -21 -6 -32 -13z"/>
<path d="M3923 3087 c-48 -18 -67 -41 -59 -71 10 -40 36 -48 92 -29 58 19 58
19 49 32 -4 7 -17 6 -42 -4 -46 -19 -69 -19 -77 1 -9 23 -2 29 49 48 25 10 45
22 45 27 0 12 -17 10 -57 -4z"/>
<path d="M1011 3058 c-18 -50 -14 -55 49 -76 48 -16 60 -18 60 -7 0 8 -9 17
-21 20 -16 5 -20 13 -16 31 6 33 -11 41 -19 9 -7 -27 -12 -29 -32 -17 -9 7
-10 15 -3 35 6 14 6 29 2 32 -5 3 -14 -9 -20 -27z"/>
<path d="M3036 1287 c-16 -12 -15 -19 19 -106 41 -106 40 -132 -5 -151 -48
-20 -72 3 -111 109 -22 61 -39 91 -49 91 -38 -1 -38 -15 2 -118 33 -84 46
-107 72 -123 40 -25 73 -24 116 2 46 29 59 48 60 87 0 33 -67 222 -79 222 -4
0 -15 -6 -25 -13z"/>
<path d="M1934 1257 c-43 -38 -38 -78 19 -135 50 -51 58 -75 29 -91 -27 -14
-66 9 -70 41 -3 23 -23 37 -54 38 -14 0 -8 -55 8 -78 29 -42 101 -64 149 -46
23 9 48 62 41 89 -3 12 -27 43 -52 67 -36 36 -45 50 -39 67 12 38 75 22 75
-20 0 -14 26 -28 53 -29 13 0 7 45 -9 68 -19 28 -65 52 -98 52 -14 0 -37 -11
-52 -23z"/>
<path d="M2660 1186 c-98 -13 -89 6 -70 -156 17 -148 17 -148 46 -142 24 4 24
6 18 68 l-7 64 36 0 c48 0 67 9 67 31 0 17 -5 19 -54 13 l-53 -6 -7 32 c-3 18
-6 36 -6 40 0 5 29 12 65 15 60 7 65 9 65 31 0 13 -3 23 -7 23 -5 -1 -46 -7
-93 -13z"/>
<path d="M2243 1051 l-71 -139 28 -4 c24 -4 31 1 43 28 15 30 17 32 64 27 57
-7 71 -16 75 -51 2 -21 9 -28 31 -30 15 -2 27 0 27 5 0 7 -62 286 -64 289 -1
1 -14 4 -31 8 -30 6 -30 5 -102 -133z m111 -13 c6 -36 5 -38 -18 -38 -54 0
-57 7 -28 66 29 60 29 59 46 -28z"/>
</g>
</svg>
