<?xml version="1.0" encoding="utf-8"?>
<!-- Generator: Adobe Illustrator 24.0.0, SVG Export Plug-In . SVG Version: 6.00 Build 0)  -->
<svg version="1.1" id="CIRCLE_OUTLINE_BLACK" xmlns="http://www.w3.org/2000/svg" xmlns:xlink="http://www.w3.org/1999/xlink"
	 x="0px" y="0px" viewBox="0 0 512 512" style="enable-background:new 0 0 512 512;" xml:space="preserve">
<style type="text/css">
	.st0{fill:#3D8130;}
	.st1{fill:none;}
	.st2{fill:#983B1F;}
	.st3{fill:#C82727;}
	.st4{fill:#FFFFFF;}
</style>
<circle class="st0" cx="256" cy="256" r="256"/>
<path class="st1" d="M157.1,409.2l3.7,0.7c-2.9-0.9-6.3-1.9-9.5-2.9L157.1,409.2z"/>
<polygon class="st0" points="370,221.8 370,221.8 370,221.8 "/>
<path class="st0" d="M372.6,268.1L372.6,268.1L372.6,268.1L372.6,268.1z"/>
<polygon class="st0" points="353.5,339.4 353.5,339.4 353.4,339.3 "/>
<path class="st0" d="M152.1,203l-11.5,22.4l-11.9,23.5l-8.4,22l-5.6,23.4l-3.5,25.6l-2.1,22.1l-2.4,14.5l2.4,11.3l4.1,9.7l7.6,13.4
	l17.6,11l13,5.1c3.2,1,6.6,2,9.5,2.9l15.4,2.8l22,1l18.2,0c2.1,0,20.5-1,20.6-1.1l0,0l0,0l23.4,0.4l22.6-2.8l9.8-4.1l6.7-8l0.3-10.6
	c-0.4-0.9-1.7-4.3-2.1-5.6c-0.3-0.9-4.8-6.2-8.9-10.8l-0.1-0.1c-1.8-2.6-4.7-7.1-4.7-8.6c0-1.5,1.8-5.9,2.2-6.7l0.2-0.4l9.4-2.7
	l6.2,4.5l5.6-3.1l6.3-6.3l11-8.1l10-5.7l7.9-1.5l10.4,7.1l-0.7-0.8l4.3-3.8l4-6.6v-6.9l-0.8-2l-5.1,4.1l-9.1,2.6l-0.2,0l-14-0.3
	l-20.3,2.1l-6.4,0.7l-4.9-0.7l-13.1-1.8l-14.8-2.8l-23.9-3.9l-0.1,0l-22.9-9.5l-20.1-11.6l-12.3-8.3l-1.2-5.9l1.6-5.5l4.9-3.6
	l11.4,2.6l24.9,7.7c12.2,2.5,30.8,6.2,32,6.3h0c0.6,0,3,0.4,9,1.4c6.4,1,15.2,2.5,17,2.5c3.1,0,27,1.3,28.4,1.4
	c1.3,0,20.7-0.4,22.8-0.4c1.4,0,8.9-2.5,13.4-4.1l6.8-8.1l6.5-11.3c0.4-3.3,0-6.6-1.2-9.7c-1.6-4.2-4.6-7.8-8.4-10.2
	c-2,3.8-4.6,6.2-7.6,7.3c-1.1,0.4-2.4,0.6-3.6,0.6c-1.8,0-3.6-0.4-5.1-1.2l1-1.8c2.2,1.1,4.7,1.3,7.1,0.5c2.7-1,5-3.4,6.8-7.1
	c-2.2,0.8-4.6,1.3-7,1.3c-1.5,0-3-0.1-4.5-0.5l0.2-1l0.2-1c0.1,0,7.8,1.9,13.6-2.6c4.1-3.1,6.4-8.7,6.8-16.4l-6.7,7.9l-8.1,3.7
	c-3.6,0.9-15.6,3.9-16.7,3.9c-0.4,0-2-0.2-5.9-0.9c-4.9-0.8-12.2-1.9-14.1-1.9c-3.4,0-8.2-3.7-8.7-4.1l-0.6-0.4l3.8-11.1l10.5-11.9
	l11.1-7.9l13.8,0l13,1.4l5.6,6.4l2.7,4v-10.8l-10.8-3.9c-1.2-0.2-11.9-1.7-14.5-1.7c-2.5,0-12.1,1.5-13.7,1.7l-13.9,9l-1.1-1.7
	l14.2-9.2l0.2,0c0.5-0.1,11.3-1.8,14.2-1.8c2.8,0,14.4,1.7,14.9,1.8l0.2,0.1l11.7,4.3l1.1,0.6l0.1-0.8l-5.5-4.8l-9.9-4.8l-12-1
	l-13.8,2.4l-5.5,2.4l-0.8-1.9l5.8-2.5l14.2-2.5l12.6,1.1l0.5,0.3l-3.8-5.9l-10.7-9.4l0.1-0.1l-41.6,1.2c0,0-5.4,0.7-11.6,1.5
	l5.9,8.5l3,5.3l-1.5,5.3l-2-0.6l1.3-4.5l-2.6-4.5l-6.3-9.1l0.4-0.3c-7.8,1-16.1,2-16.6,2c-0.9,0-34.3,2.5-35.7,2.5
	c-2.8-0.2-5.6-0.5-8.3-1.1c-0.5-0.3-22.8-8.4-23.6-8.9c-0.8-0.5-8.6-8-8.6-8l-15.2-4.7l-13.3,16.4L152.1,203z M314.4,248.9
	c2,0.9,3.8,2,5.7,3.1l11.4,1.3l6.5-1.4l0.4,2l-6.8,1.4l-7.9-0.9c3.4,2.5,6.5,5.3,9.3,8.5c2,2.3,3.8,4.8,5.3,7.4l-1.8,1
	c-1.8-3-3.9-5.9-6.4-8.4c-3.3-3.4-7-6.5-11-9l0,0l-5.8-3.3L314.4,248.9z M200.1,211.5l9.1-8.7l7.9-6.5l11.3-2.2l11.9-0.4l12.7,0
	l10.5,0.4l21.3,0.4l6.7,4.1l8.2,7.5l4.7,5.8l2.2,11.8l-2,0.4l-2.1-11.3l-4.3-5.4l-7.9-7.2l-6-3.7l-16.7-0.3l7.3,4
	c3.9,2,10.6,5.6,11.3,7.1c0.5,0.8,5.8,6,10.7,10.6l0.1,0.1l7.5,9.7l1.1,8l-2,0.3l-1-7.4l-7.1-9.2c-2.5-2.3-10.3-9.7-11-11.1
	c-0.6-0.8-5.8-3.8-10.4-6.2l-10.7-5.9l-10.3-0.3l-12.6,0l-11.8,0.3l-10.5,2l-7.5,6.1l-8.5,8.2l-0.9,5.4l1.8,1.6l4.5-2.4l7.4-9.2
	l13.4-5.1l17.4-1.8l14.7,1.4l19.1,9.9l7.9,4.7l7.6,10.1l3.5,11l5.1,3.3v4.5l-4.7,4.3l-8.4,3.5l-3.6,3l-3.8,6.2l-1.9,3.1l-0.2,0.1
	c-2.5,1.3-6.9,3.6-8.1,3.6c-0.9,0.2-6.5,2.7-11.5,5.2L261,275c-0.4,0.1-9.2,2.8-11.4,3.2l-0.3-2c1.9-0.3,10.2-2.8,11-3.1
	c5-2.4,11.2-5.3,12.3-5.3c2.4-0.9,4.7-2,7-3.3l0.9-1.5l4.6-7.5l1.1-0.9c-3.2-0.3-7.4-0.8-8.5-1.4c-0.5-0.2-3.5-0.6-19.2-0.6
	c-3.9,0-13.1-2.1-14.4-2.5c-1-0.3-10.4-3.1-10.5-3.1l-0.2-0.1l-0.2-0.2c-0.1-0.1-8.8-8.4-15.2-12.1l1-1.8c6.2,3.6,14.1,11,15.5,12.3
	c1.5,0.4,9.3,2.8,10.3,3.1c1.1,0.4,10.1,2.4,13.7,2.4c18.9,0,19.7,0.5,20.2,0.9c0.7,0.4,5.2,0.9,9,1.2l-0.1,0.7l1.5-1.3l8.4-3.5
	l3.7-3.4v-2.5l-2.6-1.7l0.1,0.3l-8.7,3.2l-12,1.4c-0.6,0-3.2,0.1-6.1,0.1c-3.4,0-7.1-0.1-8.2-0.5c-1.6-0.5-11.7-2.7-16.7-3.8l-0.1,0
	l-0.1-0.1c-6.3-3.4-14.1-7.7-14.7-8.8c-0.5-0.6-4.4-2.6-7.7-4.2l-0.1,0l-11.1-6.5l-1.5,0.3l-0.2-1.3l-3.5-2l-5.4,2.9l-3.8-3.3
	L200.1,211.5z M204.7,259.4l0.5,2l-6.8,1.6l-3.4,0.8l-0.2-0.8l-0.3-1.2L204.7,259.4z M209,268.9l-0.5,2c-2.3-0.5-4.7-0.4-7,0
	c-3.8,0.7-9.4,2.9-14.8,9.1l-1.5-1.3C196.3,265.7,208.5,268.7,209,268.9L209,268.9z"/>
<path class="st0" d="M222.7,218.3c0.6-0.1,14.8-1.8,16.6-1.8c0.7,0,2.7,0.2,5.3,0.4c3.5,0.3,9.4,0.8,10.3,0.7
	c1.4-0.4,15.4-1.6,17-1.8l8.3-0.6l-1.7-1l-18.7-9.7l-14.1-1.4l-17,1.7l-12.6,4.8l-6.4,8l4.1,2.4L222.7,218.3z"/>
<path class="st0" d="M272,217.9c-6.2,0.6-15.7,1.5-16.7,1.7c-0.9,0.2-4.1,0-10.9-0.6c-2.3-0.2-4.5-0.4-5.1-0.4
	c-1.4,0-12.2,1.3-16.3,1.7l-6.6,1.2l9,5.3c2.8,1.3,7.6,3.7,8.4,4.9c0.8,0.8,7.6,4.7,13.9,8.1c1.6,0.3,14.8,3.2,16.8,3.9
	c1.4,0.5,9.1,0.4,13.6,0.3l11.8-1.4l7.1-2.7l-0.4-0.2l-3.6-11.4l-7.1-9.5l-4.2-2.5l0.1,1L272,217.9z"/>
<path class="st0" d="M364.4,217.1l-5-5.6l-12.2-1.4h-13l-10.5,7.5l-10,11.3l-3.2,9.3c1.6,1.2,4.8,3.2,6.9,3.2c2.1,0,8.9,1.1,14.4,2
	c2.6,0.4,5.2,0.8,5.6,0.8c0.9-0.1,10.3-2.4,16.1-3.8l7.4-3.4l5.9-6.8l-0.5-3.2l-18.2-7.4l-23.3-0.7l0.1-2l23.7,0.7l19.6,8l0.8,5.1
	c0-0.3,0-0.6,0-0.9l0-5.6L364.4,217.1z"/>
<path class="st0" d="M342.6,334.4l-6.8,1.3l-9.6,5.5l-10.8,8l-3,3l6.8,4.8l0.5,3.8l-4.6,4.6l-1.4-1.4l3.9-3.9l-0.2-1.9l-6.4-4.5
	l-1.9,1.9l-4,2.2l-1.1,5.4l5.6,4.9l8.1-0.3c1.5-1.1,4-2.7,5.2-2.8c1.2-0.7,2.4-1.5,3.5-2.4c2.7-2.1,3.8-2.8,4.6-2.8
	c2.4-1.2,4.7-2.5,6.9-4l0.3-0.2l9.8,1.1l3.4,3.4l-0.7,0.7c-2.1,2.3-4.5,5.3-4.6,6c0,0.5-0.1,1-0.3,1.4l2.3-1.3l10.8-7.7l1.2,1.7
	l-11,7.8l-5.1,2.8c-0.2,0.3-0.4,0.6-0.5,0.7l-0.4-0.3l-7.8,4.3l-5.4,7.8l-1.9,4.6l3.9,5.5l4.3,4.9l5.1,0.6l4.7-1l-0.1-1l5.2-8.2
	l9.8-9.5l1.4,1.5l-9.7,9.4l-4.7,7.3l0.3,5.5l5,3.4l6.6,0.7l3.7-1.1l-0.7-1.1l0.5-0.6c0.2-0.3,5.6-6.4,6.7-7.4
	c0.8-0.8,5.4-6.1,7.7-8.7l1.5,1.3c-0.3,0.3-6.7,7.8-7.8,8.8c-0.8,0.8-4.7,5.1-6.1,6.7l3.5,5.2h5.9l5.1-2.3l4.2-6.2l5.6-6l1.5,1.4
	l-5.6,5.9l-4.3,6.5l-6.1,2.7h-7.4l-3.1-4.6l-4.7,1.4l-7.5-0.7l-6.2-4.3l-0.2-4l-4.7,1l-6.2-0.8l-4.7-5.4l-7-4.2l-7.3-8.1l-1.8-12.6
	l2-0.3l1.5,10.8l8.7-6.9l9.4-9l5.4-7.4l-2.6-0.3c-2.9,1.9-6.3,4-7.5,4.2c-1.2,0.7-2.4,1.5-3.5,2.4c-2.8,2.1-3.9,2.8-4.6,2.8
	c-1.5,0.7-3,1.6-4.3,2.6l-0.3,0.2l-9.5,0.4l-7.1-6.3l1-4.8l-0.7,0.4l-6.4-4.6l-7.5,2.2c-0.8,1.8-1.4,3.6-1.8,5.5
	c0.1,0.8,2.3,4.5,4.3,7.4c2.7,3,8.9,10.1,9.3,11.6c0.3,1.1,1.6,4.3,2.1,5.5l0.1,0.2l-0.3,13.6l3.9,5.8c2,1.2,16.7,9.8,18.4,10.8
	c1.2,0.7,11.8,3.7,18.3,5.5l21.9,2.1l17.6-2.4l15.1-6.9l8.2-7.9l-1.9-7l-10.1-18.8l-7.3-11.1L373.4,357l-18.7-10.3l-2.8-6
	L342.6,334.4z"/>
<path class="st2" d="M358.5,293.9l-0.3,0.1c-2,0.7-12.2,4.3-14.4,4.3c-2.1,0-22.6,0.3-22.8,0.4l0,0l0,0c-0.3,0-25.3-1.4-28.4-1.4
	c-2,0-10.1-1.3-17.3-2.5c-4-0.7-8.1-1.3-8.7-1.3c-1.4,0-27.3-5.3-32.5-6.3l-0.1,0l-24.9-7.7l-10.4-2.3l-3.6,2.7l-1.2,4.3l0.9,4.6
	l11.6,7.8l19.9,11.5l22.6,9.4l23.7,3.8l14.8,2.8l17.7,2.4l26.6-2.8l0.1,0l13.9,0.3l8.4-2.4l7.1-5.7l5.8-8.9l1.3-4.1l-1.9-4.6
	c-8.4,7.6-9.3,7.9-9.8,8l-8.6,2.1l-23.9,1.1l-0.1,0l-25-1.4l-24.8-4.5l-20,0.4l-0.1,0l-20.8-5.3l-18.4-6.4l-9.8-6l1.1-1.7l9.7,5.9
	l18.1,6.3l20.5,5.2l20-0.4l0.1,0l24.8,4.5l24.8,1.4l23.7-1l8.3-2.1c0.5-0.2,3.3-2.4,9.2-7.8c0.8-0.7,1.3-1.2,1.5-1.4l7.6-10.4
	l2.6-4.9c-0.4-1.7-0.8-3.3-1-5c-1-1.6-2.1-3-3.4-4.4c0,0.9,0,1.8-0.2,2.7l0,0.2l-6.9,11.9L358.5,293.9z"/>
<path d="M405.1,400l-10.2-19l-7.4-11.3l-12.8-14.3l-18.5-10.1l-2.7-5.8l-0.5,0.3c0,0,1.7,6.2,2.9,6.8s17.2,8.8,18,9.2
	c0.8,0.4,14.7,17,14.7,17l11.2,19.5l6.7,15c0,0-8.6,8.8-9.1,8.9c-0.5,0.1-17.1,8.2-17.6,8.2s-16.6,1.8-17.5,1.6
	c-0.9-0.3-20.7-2-22.2-2.1c-1.6-0.1-19.9-7.4-19.9-7.4l-15.8-9.5l-4.5-7l-6.3,7.1c0,0-8.9,4.5-10.1,4.5c-1.2,0-23,2.9-24.7,2.9
	h-43.9c0,0-43.4-0.8-45.3-1.7c-0.6-0.3-4.1-1.4-8.7-2.9l-3.7-0.7l-5.8-2.2c-7.1-2.2-13.5-4.1-13.5-4.1l-17.9-11.6
	c0,0-7.5-13-7.8-13.7c-0.3-0.7-4.9-11.6-4.9-12.1c0-0.5-1.6-9.2-1.6-9.2l3.2-19.9l1.4-20.9l3.4-22.8c0,0,5.7-22.9,5.8-23.9
	c0.1-1.1,9.3-23.7,9.3-23.7l9.7-17.5l12.8-26.4l14.1-19.9l13.7-16.3l0.9,0.3l0,0l-1.6-1.3l-13.3,16.5l-14.8,21.5l-11.6,22.6
	L126.8,248l-8.5,22.2l-5.7,23.6l-3.5,25.8l-2.1,22.1l-2.5,14.9l2.5,11.8l4.3,10l7.9,14l18.1,11.4l19.1,7.5l19.5,3.6l22.3,1.1h18.2
	c2.1,0,19.6-1,20.7-1.1l23.5,0.4l0.1,0l22.9-2.8l0.1,0l10.5-4.4l5.4-6.5l4.5,6.7l0.2,0.1c0.2,0.1,16.9,9.8,18.6,10.9
	c1.8,1.1,17.1,5.3,18.9,5.7l22.4,2.1l18-2.5l0.1,0l15.6-7.1l0.2-0.1l9.3-9L405.1,400z"/>
<path d="M165.4,181.3l-14.1,19.9l-12.8,26.4l-9.7,17.5c0,0-9.2,22.6-9.3,23.7c-0.1,1.1-5.8,23.9-5.8,23.9l-3.4,22.8l-1.4,20.9
	l-3.2,19.9c0,0,1.6,8.7,1.6,9.2c0,0.5,4.6,11.4,4.9,12.1c0.3,0.7,7.8,13.7,7.8,13.7l17.9,11.6c0,0,6.4,1.9,13.5,4.1l-13-5.1
	l-17.6-11l-7.6-13.4l-4.1-9.7l-2.4-11.3l2.4-14.5l2.1-22.1l3.5-25.6l5.6-23.4l8.4-22l11.9-23.5l11.5-22.4l14.7-21.3l13.3-16.4
	l-0.9-0.3L165.4,181.3z"/>
<path d="M343,332.3l-7.9,1.5l-10,5.7l-11,8.1l-6.3,6.3l-5.6,3.1l-6.2-4.5l-9.4,2.7l-0.2,0.4c-0.4,0.9-2.2,5.2-2.2,6.7
	c0,1.5,3,6.1,4.7,8.6l0.1,0.1c4.1,4.6,8.6,9.9,8.9,10.8c0.3,1.3,1.7,4.7,2.1,5.6l-0.3,10.6l-6.7,8l-9.8,4.1l-22.6,2.8l-23.4-0.4l0,0
	l0,0c-0.2,0-18.6,1.1-20.6,1.1l-18.2,0l-22-1l-15.4-2.8c4.5,1.4,8.1,2.6,8.7,2.9c1.8,0.9,45.3,1.7,45.3,1.7h43.9
	c1.7,0,23.6-2.9,24.7-2.9c1.2,0,10.1-4.5,10.1-4.5l6.3-7.1l4.5,7l15.8,9.5c0,0,18.3,7.2,19.9,7.4c1.6,0.1,21.3,1.8,22.2,2.1
	c0.9,0.3,17-1.6,17.5-1.6s17.1-8,17.6-8.2c0.5-0.1,9.1-8.9,9.1-8.9l-6.7-15l-11.2-19.5c0,0-13.9-16.6-14.7-17
	c-0.8-0.4-16.8-8.6-18-9.2s-2.9-6.8-2.9-6.8l0.5-0.3l0-0.1L343,332.3z M354.6,346.7l18.7,10.3l12.5,13.8l7.3,11.1l10.1,18.8l1.9,7
	l-8.2,7.9l-15.1,6.9l-17.6,2.4l-21.9-2.1c-6.5-1.8-17.1-4.8-18.3-5.5c-1.7-1-16.4-9.6-18.4-10.8l-3.9-5.8l0.3-13.6L302,387
	c-0.5-1.2-1.8-4.4-2.1-5.5c-0.4-1.5-6.6-8.6-9.3-11.6c-2-3-4.3-6.7-4.3-7.4c0.4-1.9,1-3.7,1.8-5.5l7.5-2.2l6.4,4.6l0.7-0.4l-1,4.8
	l7.1,6.3l9.5-0.4l0.3-0.2c1.3-1,2.8-1.9,4.3-2.6c0.8,0,1.8-0.7,4.6-2.8c1.1-0.9,2.3-1.7,3.5-2.4c1.2-0.1,4.7-2.3,7.5-4.2l2.6,0.3
	l-5.4,7.4l-9.4,9l-8.7,6.9l-1.5-10.8l-2,0.3l1.8,12.6l7.3,8.1l7,4.2l4.7,5.4l6.2,0.8l4.7-1l0.2,4l6.2,4.3l7.5,0.7l4.7-1.4l3.1,4.6
	h7.4l6.1-2.7l4.3-6.5l5.6-5.9l-1.5-1.4l-5.6,6l-4.2,6.2l-5.1,2.3h-5.9l-3.5-5.2c1.4-1.6,5.3-5.9,6.1-6.7c1.1-1.1,7.5-8.5,7.8-8.8
	l-1.5-1.3c-2.3,2.7-6.9,7.9-7.7,8.7c-1.1,1.1-6.5,7.2-6.7,7.4l-0.5,0.6l0.7,1.1l-3.7,1.1l-6.6-0.7l-5-3.4l-0.3-5.5l4.7-7.3l9.7-9.4
	l-1.4-1.5l-9.8,9.5l-5.2,8.2l0.1,1l-4.7,1l-5.1-0.6l-4.3-4.9l-3.9-5.5l1.9-4.6l5.4-7.8l7.8-4.3l0.4,0.3c0.1-0.2,0.3-0.4,0.5-0.7
	l5.1-2.8l11-7.8l-1.2-1.7l-10.8,7.7l-2.3,1.3c0.2-0.4,0.3-0.9,0.3-1.4c0.1-0.8,2.5-3.7,4.6-6l0.7-0.7l-3.4-3.4l-9.8-1.1l-0.3,0.2
	c-2.2,1.5-4.5,2.9-6.9,4c-0.8,0-1.9,0.8-4.6,2.8c-1.1,0.9-2.3,1.7-3.5,2.4c-1.2,0.1-3.6,1.7-5.2,2.8l-8.1,0.3l-5.6-4.9l1.1-5.4
	l4-2.2l1.9-1.9l6.4,4.5l0.2,1.9l-3.9,3.9l1.4,1.4l4.6-4.6l-0.5-3.8l-6.8-4.8l3-3l10.8-8l9.6-5.5l6.8-1.3l9.2,6.3L354.6,346.7z
	 M327.2,391.4l-2.7-1.6l-6-6.6l9.2-7.2l9.5-9.2l6.2-8.6l3.5,0.4l1.5,1.5c-1.9,2.1-4.5,5.2-4.5,6.6c-0.3,1.2-0.9,2.3-1.6,3.2
	l-8.7,4.8l-5.8,8.3l-2.4,6L327.2,391.4z"/>
<path d="M351.7,187.6l5.1,6.7c0,0,2.5,3.9,3.4,4.2c0.9,0.3,9.2,5.1,9.2,5.1l3.4,3.8l-0.7,2.2l-2.6-0.8l0.4,12.9h0.8v-11.6l2.3,1.3
	l0.6-4.9l-6.5-5.7l-7-3.4l0.3-0.2l-5.4-8.5l-10.9-9.6l-1.2,1.4l1.1,0L351.7,187.6z"/>
<path d="M368.7,240.3c0,0-3.7,7.4-4.1,7.6c-0.4,0.3-3.7,1.7-3.7,1.7l0.3,1.8c1.5,1.1,3,2.3,4.3,3.6c0.2,0.3,2.4,4.7,4.2,8h1.8
	c-1.7-5-5.1-9.3-9.6-12c0.2-0.4,0.4-0.9,0.6-1.3c0.3-0.2,0.7-0.4,1-0.7c4.9-3.7,7.4-10.1,7.7-19.1v-6.3l-1.2-1.8l0.3,9.7
	L368.7,240.3z"/>
<path d="M353.5,190.2l3.8,5.9l-0.5-0.3l-12.6-1.1l-14.2,2.5l-5.8,2.5l0.8,1.9l5.5-2.4l13.8-2.4l12,1l9.9,4.8l5.5,4.8l-0.1,0.8
	l-1.1-0.6l-11.7-4.3l-0.2-0.1c-0.5-0.1-12-1.8-14.9-1.8c-2.9,0-13.7,1.7-14.2,1.8l-0.2,0l-14.2,9.2l1.1,1.7l13.9-9
	c1.6-0.2,11.2-1.7,13.7-1.7c2.6,0,13.3,1.6,14.5,1.7l10.8,3.9V220l-2.7-4l-5.6-6.4l-13-1.4l-13.8,0l-11.1,7.9l-10.5,11.9l-3.8,11.1
	l0.6,0.4c0.5,0.4,5.3,4.1,8.7,4.1c1.9,0,9.3,1.2,14.1,1.9c3.9,0.6,5.5,0.9,5.9,0.9c1.1,0,13.1-3,16.7-3.9l8.1-3.7l6.7-7.9
	c-0.4,7.7-2.7,13.3-6.8,16.4c-5.9,4.5-13.6,2.6-13.6,2.6l-0.2,1l-0.2,1c1.5,0.3,3,0.5,4.5,0.5c2.4,0,4.8-0.4,7-1.3
	c-1.8,3.7-4.1,6.1-6.8,7.1c-2.3,0.8-4.9,0.6-7.1-0.5l-1,1.8c1.6,0.8,3.4,1.2,5.1,1.2c1.2,0,2.4-0.2,3.6-0.6c3-1.1,5.5-3.5,7.6-7.3
	c3.8,2.4,6.8,6,8.4,10.2h0.3c-1.7-3.3-4-7.7-4.2-8c-1.4-1.3-2.8-2.5-4.3-3.6l-0.3-1.8c0,0,3.3-1.4,3.7-1.7c0.4-0.3,4.1-7.6,4.1-7.6
	l1.6-8.7l-0.3-9.7l0,0h0l-0.4-12.9l2.6,0.8l0.7-2.2l-3.4-3.8c0,0-8.3-4.9-9.2-5.1c-0.9-0.3-3.4-4.2-3.4-4.2l-5.1-6.7l-7.8-7l-1.1,0
	l-0.1,0.1L353.5,190.2z M369.1,230.7l-0.8-5.1l-19.6-8l-23.7-0.7l-0.1,2l23.3,0.7l18.2,7.4l0.5,3.2l-5.9,6.8l-7.4,3.4
	c-5.8,1.4-15.2,3.7-16.1,3.8c-0.4,0-3-0.4-5.6-0.8c-5.5-0.9-12.3-2-14.4-2c-2,0-5.2-2-6.9-3.2l3.2-9.3l10-11.3l10.5-7.5h13l12.2,1.4
	l5,5.6l4.7,7.1l0,5.6C369.1,230.1,369.1,230.4,369.1,230.7L369.1,230.7z"/>
<polygon points="305.2,328.4 311.6,327.7 300.3,327.7 "/>
<path d="M362.1,328.1c-0.3,0.5-6.1,9.9-6.1,9.9l-2.6,1.4l0.6,0.7l4.6-4l4.4-7.4v-1h-0.9C362.2,327.9,362.2,328,362.1,328.1z"/>
<path d="M362.1,328.1c0-0.1,0.1-0.3,0.1-0.4h-1.1v0.4l-4,6.6l-4.3,3.8l0.7,0.8l0.1,0.1l2.6-1.4C356.1,338,361.9,328.7,362.1,328.1z"
	/>
<path d="M371.7,266.8l0.9,1.3c-0.2-1.7-0.5-3.4-1.1-5.1h-1.8C370.8,265.1,371.7,266.8,371.7,266.8z"/>
<path d="M378.2,278c-0.1,0.5-1.3,4.5-1.6,5.1c-0.3,0.7-9.7,13.6-9.7,13.6l2.2,4.5c0,0,0.4,3.2,0.1,3.7c-0.3,0.5-8.6,13.4-8.6,13.4
	l1.3,3.6c0,0,0.3,4.5,0.2,5.9h0.9v-6.9l-1.1-3l0,0l0.9-0.7l6.1-9.4l1.6-5.1l-2.4-5.9c0.2-0.2,0.3-0.3,0.3-0.3l7.8-10.7l3.1-5.7
	l-0.1-0.4c-0.4-1.6-0.8-3.3-1-5c0-0.4,0-1.5-5.2-7l-0.4,0.4l3.1,4.4C375.7,272.5,378.3,277.5,378.2,278z"/>
<path d="M369.7,263h-0.3c1.2,3.1,1.6,6.4,1.2,9.7L364,284l-6.8,8.1c-4.6,1.6-12.1,4.1-13.4,4.1c-2.1,0-21.5,0.3-22.8,0.4
	c-1.5-0.1-25.3-1.4-28.4-1.4c-1.8,0-10.6-1.4-17-2.5c-5.9-1-8.4-1.4-9-1.4h0c-1.3-0.1-19.8-3.8-32-6.3l-24.9-7.7l-11.4-2.6l-4.9,3.6
	l-1.6,5.5l1.2,5.9l12.3,8.3l20.1,11.6l22.9,9.5l0.1,0l23.9,3.9l14.8,2.8l13.1,1.8h11.4l20.3-2.1l14,0.3l0.2,0l9.1-2.6l5.1-4.1l0.8,2
	v6.5h1.1c0.1-1.4-0.2-5.9-0.2-5.9l-1.3-3.6c0,0,8.3-12.9,8.6-13.4c0.3-0.5-0.1-3.7-0.1-3.7l-2.2-4.5c0,0,9.5-12.9,9.7-13.6
	c0.3-0.7,1.4-4.6,1.6-5.1c0.1-0.5-2.5-5.5-2.5-5.5l-3.1-4.4l0,0l0,0l-0.9-1.3C371.7,266.8,370.8,265.1,369.7,263z M372.6,273.2
	c0.1-0.9,0.2-1.8,0.2-2.7c1.3,1.3,2.4,2.8,3.4,4.4c0.2,1.7,0.5,3.4,1,5l-2.6,4.9l-7.6,10.4c-0.2,0.2-0.8,0.7-1.5,1.4
	c-5.9,5.4-8.6,7.5-9.2,7.8l-8.3,2.1l-23.7,1l-24.8-1.4l-24.8-4.5l-0.1,0l-20,0.4l-20.5-5.2l-18.1-6.3l-9.7-5.9l-1.1,1.7l9.8,6
	l18.4,6.4l20.8,5.3l0.1,0l20-0.4l24.8,4.5l25,1.4l0.1,0l23.9-1.1l8.6-2.1c0.4-0.1,1.4-0.4,9.8-8l1.9,4.6l-1.3,4.1l-5.8,8.9l-7.1,5.7
	l-8.4,2.4l-13.9-0.3l-0.1,0l-26.6,2.8l-17.7-2.4l-14.8-2.8l-23.7-3.8l-22.6-9.4l-19.9-11.5l-11.6-7.8l-0.9-4.6l1.2-4.3l3.6-2.7
	l10.4,2.3l24.9,7.7l0.1,0c5.2,1.1,31,6.3,32.5,6.3c0.5,0,4.7,0.7,8.7,1.3c7.2,1.2,15.3,2.5,17.3,2.5c3.1,0,28.1,1.4,28.4,1.4l0,0
	l0,0c0.2,0,20.7-0.4,22.8-0.4c2.2,0,12.4-3.6,14.4-4.3l0.3-0.1l7.2-8.6l6.9-11.9L372.6,273.2z"/>
<path d="M201.5,270.9c2.3-0.5,4.7-0.5,7,0l0.5-2c-0.5-0.1-12.7-3.2-23.8,9.8l1.5,1.3C192.1,273.7,197.7,271.6,201.5,270.9z"/>
<polygon points="198.3,263 205.1,261.4 204.7,259.4 194.5,261.8 194.8,263 "/>
<polygon points="195,263.8 198.3,263 194.8,263 "/>
<path d="M319.3,254c4,2.6,7.7,5.6,11,9h2.8c-2.8-3.2-5.9-6-9.3-8.5l7.9,0.9l6.8-1.4l-0.4-2l-6.5,1.4l-11.4-1.3
	c-1.8-1.2-3.7-2.2-5.7-3.1l-0.9,1.8L319.3,254L319.3,254z"/>
<path d="M336.6,271.4l1.8-1c-1.5-2.6-3.3-5.1-5.3-7.4h-2.8C332.7,265.6,334.8,268.4,336.6,271.4z"/>
<path d="M208,219.1l3.5,2l0.2,1.3l1.5-0.3l11.1,6.5l0.1,0c3.3,1.6,7.2,3.6,7.7,4.2c0.7,1,8.4,5.3,14.7,8.8l0.1,0.1l0.1,0
	c5.1,1.1,15.1,3.3,16.7,3.8c1.2,0.4,4.9,0.5,8.2,0.5c2.9,0,5.6-0.1,6.1-0.1l12-1.4l8.7-3.2l-0.1-0.3l2.6,1.7v2.5l-3.7,3.4l-8.4,3.5
	l-1.5,1.3l0.1-0.7c-3.8-0.3-8.3-0.9-9-1.2c-0.5-0.3-1.3-0.9-20.2-0.9c-3.6,0-12.6-2-13.7-2.4c-1-0.3-8.8-2.7-10.3-3.1
	c-1.3-1.3-9.2-8.6-15.5-12.3l-1,1.8c6.5,3.8,15.2,12,15.2,12.1l0.2,0.2l0.2,0.1c0.1,0,9.5,2.8,10.5,3.1c1.2,0.4,10.4,2.5,14.4,2.5
	c15.7,0,18.6,0.4,19.2,0.6c1.1,0.6,5.3,1.1,8.5,1.4l-1.1,0.9l-4.6,7.5h2.4l3.8-6.2l3.6-3l8.4-3.5l4.7-4.3v-4.5l-5.1-3.3l-3.5-11
	l-7.6-10.1l-7.9-4.7l-19.1-9.9l-14.7-1.4l-17.4,1.8l-13.4,5.1l-7.4,9.2l-4.5,2.4l-1.8-1.6l0.9-5.4l8.5-8.2l7.5-6.1l10.5-2l11.8-0.3
	l12.6,0l10.3,0.3l10.7,5.9c4.6,2.4,9.9,5.4,10.4,6.2c0.7,1.4,8.5,8.8,11,11.1l7.1,9.2l1,7.4l2-0.3l-1.1-8l-7.5-9.7l-0.1-0.1
	c-4.9-4.5-10.2-9.7-10.7-10.6c-0.7-1.5-7.4-5.1-11.3-7.1l-7.3-4l16.7,0.3l6,3.7l7.9,7.2l4.3,5.4l2.1,11.3l2-0.4l-2.2-11.8l-4.7-5.8
	l-8.2-7.5l-6.7-4.1l-21.3-0.4l-10.5-0.4l-12.7,0l-11.9,0.4l-11.3,2.2l-7.9,6.5l-9.1,8.7l-1.2,7.2l3.8,3.3L208,219.1z M286,218.7
	l7.1,9.5l3.6,11.4l0.4,0.2l-7.1,2.7l-11.8,1.4c-4.5,0.1-12.2,0.2-13.6-0.3c-2-0.7-15.2-3.5-16.8-3.9c-6.3-3.4-13.2-7.3-13.9-8.1
	c-0.8-1.1-5.6-3.5-8.4-4.9l-9-5.3l6.6-1.2c4.1-0.5,14.9-1.7,16.3-1.7c0.6,0,2.8,0.2,5.1,0.4c6.8,0.6,10,0.8,10.9,0.6
	c1-0.2,10.5-1.2,16.7-1.7l9.8-0.7l-0.1-1L286,218.7z M216,209.7l12.6-4.8l17-1.7l14.1,1.4l18.7,9.7l1.7,1l-8.3,0.6
	c-1.6,0.1-15.6,1.4-17,1.8c-0.9,0.2-6.7-0.4-10.3-0.7c-2.6-0.2-4.6-0.4-5.3-0.4c-1.8,0-16,1.7-16.6,1.8l-9,1.7l-4.1-2.4L216,209.7z"
	/>
<path d="M279.6,264.5c-2.3,1.3-4.6,2.3-7,3.3c-1.1,0-7.3,2.9-12.3,5.3c-0.9,0.3-9.1,2.8-11,3.1l0.3,2c2.1-0.4,11-3.1,11.4-3.2
	l0.1-0.1c5-2.4,10.7-5,11.5-5.2c1.2-0.1,5.6-2.3,8.1-3.6l0.2-0.1l1.9-3.1h-2.4L279.6,264.5z"/>
<path d="M289.2,182.6l-1.3,0.9c0.6-0.1,1.2-0.1,1.8-0.2L289.2,182.6z"/>
<path d="M293.9,192.9l2.6,4.5l-1.3,4.5l2,0.6l1.5-5.3l-3-5.3l-5.9-8.5c-0.6,0.1-1.2,0.1-1.8,0.2l-0.4,0.3L293.9,192.9z"/>
<path class="st3" d="M355.1,190.5l8.9-0.9c0,0,22.2,6.6,23.1,7.5s12.1,5.8,12.1,5.8l6.6,0.6l0.9-6l-4.9-7l-14.1-10.4l-16.1-7.8
	l-10.1-3.5l-3.6-51l-8.5-12.7l-12.7-10.4l-16.4-8.1l-17-0.3l-32,4l-29.4,5.8l-1.7-5c-2.3-0.6-4.6-1-6.9-1.3
	c-1.7,0-17.3,4.8-17.3,4.8l-9.5,5l-2,5.8l-13.6,7.5l-11,13.8l-6.3,13.3c0,0-3.2,13.3-3.2,14.1s1.7,8.1,2.9,8.6s10.1,2.9,10.1,2.9
	l11.7,5.8l16.9,9.8l21,6.9c0,0,19.9-1.4,21.9-1.4s32-3.2,33.7-3.2s34.6-2.6,35.5-2.6s20.5-0.3,20.5-0.3l7.8,6.9L355.1,190.5z"/>
<polyline points="347.3,218.8 349.9,224.3 351.5,230.6 350.7,234.6 347.3,243.3 336.5,245.1 319.1,242 317,235.9 317.8,230.4 
	319.6,221.7 324.1,216.7 327,218.3 346.2,218.8 "/>
<path d="M268.1,218l3.2,6.1l0.3,7.4l-1.6,6.6l-3.4,5.3l-5.5,0.3l-21.1-6.3l-8.4-7.4l1.1-4.7l2.9-4.5l3.9-3.1l14.8,0.4
	C254.1,218,267.5,219.1,268.1,218z"/>
<path d="M404,191.3l-8.2-7.2l-11.8-7.9l-19.4-7.1l-2.7-1.1l-0.8-16.7c-1-8.2-2.4-20.6-2.4-21.6c0-1.4-0.7-11.6-0.7-12l0-0.2
	l-5.8-10.5l-9.7-10l-14.9-8.5L315.2,85h-17l-16.7,2.1c-6.7,1.1-17.2,2.8-18.4,2.8c-1.8,0-15.8,3.2-17.4,3.5l-4.9,1.3l0.8-0.4
	l-1.6-3.2l-5.2-2l-7.6,0.7L215,92.8l-9.2,5.9l-1.9,4.9l1.3,0.5l-5.1,1.3l-0.2,0l-10.8,6.8l-7.5,8.5l-6.8,11.4l-5.4,18.6v6.7l3.5,6.2
	l21.9,7.8l7.3,6.6l16.3,7.4l14.4,3.6l26.9-1.8l38.9-4.2l27.7-2.1l23,0.3l24.3,3.5l19.2,9.1l0.9-1.8l-19.4-9.2l-24.7-3.5l-23.3-0.4
	l-27.8,2.1l-38.9,4.2l-26.5,1.7l-13.8-3.4l-15.9-7.3l-7.4-6.7l-21.6-7.7l-2.8-5v-5.9l5.2-18l6.6-11l7.2-8.2l10.3-6.5l45.4-11.9
	c5.9-1.3,15.8-3.5,17-3.5c1.8,0,17-2.5,18.7-2.8l16.4-2.1h16.6l11.7,3.4l14.5,8.3l9.3,9.6l5.4,9.9c0.2,3.7,0.7,10.6,0.7,11.6
	c0,1.4,2.2,19.8,2.5,21.8l0.8,15.7l-11.8-4.5l-23.3-2.5l-17.6-1.8l-17.3,1.4l-20,2.1l-23.3,5.3l-17.5,4.2l-11.7,0.7l-15-3l7.6,5.5
	l6.2,3.6l14.2,3.5l13.9,0.4l0.1,0l12.4-1.4l17.5-2.8l17.1-2.8l19.2-1.4l13.3-0.7l16,1l21.7,2.8l28,5.3l4.9,3.2l7.8,6.8l2.2,5.1
	l-0.5,3.8l-4.2,0.3l-8.2-3.8l-15.1-6l-11.9-3.6l-10.4,1.1l0.2,2l10-1l11.3,3.4l15,5.9l8.7,4l6.3-0.4l0.9-6L404,191.3z M206,103.8
	l1.5-3.8l8.3-5.3l11.7-2.8l7.1-0.7l4,1.5l1.1,2.2L206,103.8z M361.9,175.2l-0.2,1L361.9,175.2l-21.9-2.8l-16.2-1.1l-13.4,0.7
	l-19.3,1.4l-17.3,2.8l-17.5,2.8l-12.2,1.4l-13.5-0.3l-13.8-3.4l-5.8-3.4l-0.1,0l6.1,1.2l12.1-0.7l17.7-4.2l23.1-5.2l19.9-2.1
	l17.1-1.4l17.4,1.7l23,2.4l16.4,6.3l19.2,7l2.2,1.5L361.9,175.2z"/>
<ellipse transform="matrix(0.9585 -0.2851 0.2851 0.9585 -54.6422 83.6469)" class="st4" cx="260" cy="229.5" rx="6.3" ry="5.3"/>
<circle class="st4" cx="245.2" cy="231.4" r="2.6"/>
<circle class="st4" cx="243.6" cy="223.3" r="2.6"/>
<circle class="st4" cx="328.3" cy="234.9" r="2.4"/>
<circle class="st4" cx="328" cy="225.6" r="2.6"/>
<circle class="st4" cx="342.3" cy="230.9" r="4.7"/>
</svg>
