<?xml version="1.0" encoding="UTF-8"?>
<svg version="1.1" width="100" height="100" viewBox="0 0 100 100" xmlns="http://www.w3.org/2000/svg">
    <defs>
        <linearGradient id="a" x1="65.859" x2="9.1133" y1="59.68" y2="22.237" gradientTransform="scale(1.5625)" gradientUnits="userSpaceOnUse">
            <stop stop-color="#c13bff" offset="0"/>
            <stop stop-color="#763fff" offset="1"/>
        </linearGradient>
    </defs>
    <g>
        <path d="m71.719 27.656 3.4375 3.9062-3.9062 27.5c-0.15625 1.5625-1.5625 2.8125-3.2812 2.8125h-17.188l-3.5938-4.0625 24.531-30.156m0-1.4062-25.625 31.562 4.375 5.1562h17.656c2.0312 0 3.9062-1.5625 4.0625-3.5938l3.9062-27.969z" fill="#39314c"/>
        <path d="m83.125 16.719 2.8125 3.2812h-67.344l-2.8125-3.2812h67.344m0.3125-0.9375h-69.531l4.375 5.1562h69.531z" fill="#39314c"/>
        <path d="m20.469 27.188 3.5938 4.2188-17.969 20.938-3.4375-4.0625c-0.15625-1.5625-0.625-10.312 4.6875-21.094h13.125m0.3125-0.9375h-14.219c-6.25 12.5-5 22.344-5 22.344l4.375 5.1562 19.219-22.344z" fill="#39314c"/>
        <path d="m84.688 36.719 2.6562 2.9688c0.625 2.5 1.4062 4.2188 2.3438 6.0938l0.46875 0.78125 7.5 17.656c-5.3125 20.156-23.594 34.062-44.531 34.062-2.3438 0-4.8438-0.15625-7.1875-0.625l-3.9062-4.5312 1.0938-7.3438 41.719-16.094 0.625-0.15625v-0.625l-0.78125-32.188m-0.9375-2.3438 0.46875 35-42.188 16.25-1.0938 8.125 4.375 5.1562c2.5 0.46875 5.1562 0.625 7.6562 0.625 21.875 0 40.156-14.844 45.469-35.156l-7.6562-17.969c-1.0938-2.3438-2.0312-4.2188-2.6562-7.0312z" fill="#8638ff"/>
        <path d="m30.781 69.219 3.75 4.375-2.8125 19.844c-8.2812-4.375-15.156-11.094-19.531-19.531l18.594-4.6875m0.3125-0.9375-20.156 5.1562c4.6875 9.375 12.188 16.875 21.562 21.406l3.125-21.406z" fill="#8638ff"/>
        <path d="m37.188 27.656 3.4375 4.0625-4.375 30.312h-21.25l-3.5938-4.2188 25.781-30.156m0-1.4062-27.031 31.562 4.375 5.1562h22.5l4.5312-31.562z" fill="#39314c"/>
        <path d="m10.156 57.812h22.5l4.5312-31.562z" fill="#39314c"/>
        <path d="m63.75 57.812c2.0312 0 3.9062-1.5625 4.0625-3.5938l3.9062-27.969h-21.094l-4.5312 31.562z" fill="#39314c"/>
        <path d="m79.219 15.781h-65.312c8.5938-9.375 20.938-15.312 34.688-15.312 13.906 0 26.25 5.7812 34.844 15.312z" fill="#39314c"/>
        <path d="m6.7188 26.25c-3.2812 6.4062-5.1562 13.594-5.1562 21.25v1.25l19.219-22.344h-14.062z" fill="#39314c"/>
        <path d="m94.062 59.375c-5.3125 20.156-23.594 35.156-45.469 35.156-2.6562 0-5.1562-0.15625-7.6562-0.625l3.5938-25.469h28.125l1.7188-0.15625c2.8125-0.625 5-3.125 5.4688-6.0938l2.9688-20 0.9375-7.8125c0.625 2.8125 1.5625 4.8438 2.6562 7.0312zm-62.969 8.9062h-24.531c4.6875 9.375 12.188 16.875 21.562 21.406z" fill="url(#a)"/>
    </g>
</svg>
