<?xml version="1.0" encoding="UTF-8"?>
<svg xmlns="http://www.w3.org/2000/svg" xmlns:xlink="http://www.w3.org/1999/xlink" width="100" height="100" viewBox="0 0 100 100" version="1.1">
<defs>
<linearGradient id="linear0" gradientUnits="userSpaceOnUse" x1="65.8588" y1="59.6795" x2="9.1133" y2="22.2368" gradientTransform="matrix(1.5625,0,0,1.5625,0,0)">
<stop offset="0" style="stop-color:rgb(75.686275%,23.137255%,100%);stop-opacity:1;"/>
<stop offset="1" style="stop-color:rgb(46.27451%,25.098039%,100%);stop-opacity:1;"/>
</linearGradient>
</defs>
<g id="surface1">
<path style=" stroke:none;fill-rule:nonzero;fill:rgb(22.745098%,19.607843%,29.803922%);fill-opacity:1;" d="M 71.71875 27.65625 L 75.15625 31.5625 L 71.25 59.0625 C 71.09375 60.625 69.6875 61.875 67.96875 61.875 L 50.78125 61.875 L 47.1875 57.8125 L 71.71875 27.65625 M 71.71875 26.25 L 46.09375 57.8125 L 50.46875 62.96875 L 68.125 62.96875 C 70.15625 62.96875 72.03125 61.40625 72.1875 59.375 L 76.09375 31.40625 Z M 71.71875 26.25 "/>
<path style=" stroke:none;fill-rule:nonzero;fill:rgb(22.745098%,19.607843%,29.803922%);fill-opacity:1;" d="M 83.125 16.71875 L 85.9375 20 L 18.59375 20 L 15.78125 16.71875 L 83.125 16.71875 M 83.4375 15.78125 L 13.90625 15.78125 L 18.28125 20.9375 L 87.8125 20.9375 Z M 83.4375 15.78125 "/>
<path style=" stroke:none;fill-rule:nonzero;fill:rgb(22.745098%,19.607843%,29.803922%);fill-opacity:1;" d="M 20.46875 27.1875 L 24.0625 31.40625 L 6.09375 52.34375 L 2.65625 48.28125 C 2.5 46.71875 2.03125 37.96875 7.34375 27.1875 L 20.46875 27.1875 M 20.78125 26.25 C 20.78125 26.25 19.21875 26.25 6.5625 26.25 C 0.3125 38.75 1.5625 48.59375 1.5625 48.59375 L 5.9375 53.75 L 25.15625 31.40625 Z M 20.78125 26.25 "/>
<path style=" stroke:none;fill-rule:nonzero;fill:rgb(52.54902%,22.352941%,100%);fill-opacity:1;" d="M 84.6875 36.71875 L 87.34375 39.6875 C 87.96875 42.1875 88.75 43.90625 89.6875 45.78125 L 90.15625 46.5625 L 97.65625 64.21875 C 92.34375 84.375 74.0625 98.28125 53.125 98.28125 C 50.78125 98.28125 48.28125 98.125 45.9375 97.65625 L 42.03125 93.125 L 43.125 85.78125 L 84.84375 69.6875 L 85.46875 69.53125 L 85.46875 68.90625 L 84.6875 36.71875 M 83.75 34.375 L 84.21875 69.375 L 42.03125 85.625 L 40.9375 93.75 L 45.3125 98.90625 C 47.8125 99.375 50.46875 99.53125 52.96875 99.53125 C 74.84375 99.53125 93.125 84.6875 98.4375 64.375 L 90.78125 46.40625 C 89.6875 44.0625 88.75 42.1875 88.125 39.375 Z M 83.75 34.375 "/>
<path style=" stroke:none;fill-rule:nonzero;fill:rgb(52.54902%,22.352941%,100%);fill-opacity:1;" d="M 30.78125 69.21875 L 34.53125 73.59375 L 31.71875 93.4375 C 23.4375 89.0625 16.5625 82.34375 12.1875 73.90625 L 30.78125 69.21875 M 31.09375 68.28125 L 10.9375 73.4375 C 15.625 82.8125 23.125 90.3125 32.5 94.84375 L 35.625 73.4375 Z M 31.09375 68.28125 "/>
<path style=" stroke:none;fill-rule:nonzero;fill:rgb(22.745098%,19.607843%,29.803922%);fill-opacity:1;" d="M 37.1875 27.65625 L 40.625 31.71875 L 36.25 62.03125 L 15 62.03125 L 11.40625 57.8125 L 37.1875 27.65625 M 37.1875 26.25 L 10.15625 57.8125 L 14.53125 62.96875 L 37.03125 62.96875 L 41.5625 31.40625 Z M 37.1875 26.25 "/>
<path style=" stroke:none;fill-rule:nonzero;fill:rgb(22.745098%,19.607843%,29.803922%);fill-opacity:1;" d="M 10.15625 57.8125 L 32.65625 57.8125 L 37.1875 26.25 Z M 10.15625 57.8125 "/>
<path style=" stroke:none;fill-rule:nonzero;fill:rgb(22.745098%,19.607843%,29.803922%);fill-opacity:1;" d="M 63.75 57.8125 C 65.78125 57.8125 67.65625 56.25 67.8125 54.21875 L 71.71875 26.25 L 50.625 26.25 L 46.09375 57.8125 Z M 63.75 57.8125 "/>
<path style=" stroke:none;fill-rule:nonzero;fill:rgb(22.745098%,19.607843%,29.803922%);fill-opacity:1;" d="M 79.21875 15.78125 L 13.90625 15.78125 C 22.5 6.40625 34.84375 0.46875 48.59375 0.46875 C 62.5 0.46875 74.84375 6.25 83.4375 15.78125 Z M 79.21875 15.78125 "/>
<path style=" stroke:none;fill-rule:nonzero;fill:rgb(22.745098%,19.607843%,29.803922%);fill-opacity:1;" d="M 6.71875 26.25 C 3.4375 32.65625 1.5625 39.84375 1.5625 47.5 C 1.5625 47.96875 1.5625 48.28125 1.5625 48.75 L 20.78125 26.40625 L 6.71875 26.40625 Z M 6.71875 26.25 "/>
<path style=" stroke:none;fill-rule:nonzero;fill:url(#linear0);" d="M 94.0625 59.375 C 88.75 79.53125 70.46875 94.53125 48.59375 94.53125 C 45.9375 94.53125 43.4375 94.375 40.9375 93.90625 L 44.53125 68.4375 L 72.65625 68.4375 L 74.375 68.28125 C 77.1875 67.65625 79.375 65.15625 79.84375 62.1875 L 82.8125 42.1875 L 83.75 34.375 C 84.375 37.1875 85.3125 39.21875 86.40625 41.40625 Z M 31.09375 68.28125 L 6.5625 68.28125 C 11.25 77.65625 18.75 85.15625 28.125 89.6875 Z M 31.09375 68.28125 "/>
</g>
</svg>
