<svg width="500" height="500" viewBox="0 0 523 425" xmlns="http://www.w3.org/2000/svg" fill="none">
 <g>
  <path fill="#B3B3B3" d="m500.129,248.845c0,-137.433 -110.771,-248.845 -247.415,-248.845c-136.643,0 -252.71392,111.412 -252.71392,248.845l0,155.315c-0.01494,5.267 2.05843,10.322 5.76094,14.046c3.70251,3.724 8.72858,5.809 13.96468,5.794l28.1793,0c5.2361,0.015 10.2621,-2.07 13.9646,-5.794c3.7025,-3.724 5.7759,-8.779 5.7609,-14.046l0,-129.014c0,-10.957 8.8314,-19.839 19.7255,-19.839l40.127,0c10.894,0 19.726,8.882 19.726,19.839l0,129.014c-0.015,5.267 2.058,10.322 5.761,14.046c3.702,3.724 8.728,5.809 13.964,5.794l28.18,0c5.236,0.015 10.262,-2.07 13.964,-5.794c3.703,-3.724 5.776,-8.779 5.761,-14.046l0,-39.169c0,-39.186 20.786,-75.396 54.527,-94.989c33.742,-19.593 75.313,-19.593 109.054,0c33.742,19.593 54.527,55.803 54.527,94.989l0,39.169c0,10.957 8.831,19.84 19.726,19.84l27.843,0c10.894,0 19.726,-8.883 19.726,-19.84l-0.113,-155.315zm-357.711,-52.97c-3.691,5.99 -8.754,11.004 -14.766,14.624c-10.475,6.045 -23.054,7.184 -34.4347,3.118c-1.6537,-0.515 -3.228,-1.259 -4.6778,-2.211c-12.9989,-7.178 -21.0774,-20.909 -21.0774,-35.824c0,-14.916 8.0785,-28.646 21.0774,-35.825c1.5179,-0.975 3.1699,-1.719 4.9032,-2.211c14.7933,-5.231 31.2583,-1.537 42.4383,9.523c7.86,7.301 12.316,17.582 12.286,28.343c-0.012,7.222 -2.001,14.302 -5.749,20.463z"/>
  <path fill="#505050" d="m522.129,248.845c0,-137.433 -110.771,-248.845 -247.415,-248.845c-136.643,0 -252.7139,111.412 -252.7139,248.845l0,155.315c-0.015,5.267 2.0584,10.322 5.7609,14.046c3.7025,3.724 8.7286,5.809 13.9647,5.794l28.1793,0c5.2361,0.015 10.2621,-2.07 13.9646,-5.794c3.7025,-3.724 5.7759,-8.779 5.7609,-14.046l0,-129.014c0,-10.957 8.8314,-19.839 19.7255,-19.839l40.127,0c10.894,0 19.726,8.882 19.726,19.839l0,129.014c-0.015,5.267 2.058,10.322 5.761,14.046c3.702,3.724 8.728,5.809 13.964,5.794l28.18,0c5.236,0.015 10.262,-2.07 13.964,-5.794c3.703,-3.724 5.776,-8.779 5.761,-14.046l0,-39.169c0,-39.186 20.786,-75.396 54.527,-94.989c33.742,-19.593 75.313,-19.593 109.054,0c33.742,19.593 54.527,55.803 54.527,94.989l0,39.169c0,10.957 8.831,19.84 19.726,19.84l27.843,0c10.894,0 19.726,-8.883 19.726,-19.84l-0.113,-155.315zm-357.711,-52.97c-3.691,5.99 -8.754,11.004 -14.766,14.624c-10.475,6.045 -23.054,7.184 -34.435,3.118c-1.653,-0.515 -3.228,-1.259 -4.677,-2.211c-12.9994,-7.178 -21.0779,-20.909 -21.0779,-35.824c0,-14.916 8.0785,-28.646 21.0779,-35.825c1.517,-0.975 3.169,-1.719 4.903,-2.211c14.793,-5.231 31.258,-1.537 42.438,9.523c7.86,7.301 12.316,17.582 12.286,28.343c-0.012,7.222 -2.001,14.302 -5.749,20.463z"/>
 </g>
</svg>
