<svg id="Layer_1" data-name="Layer 1" xmlns="http://www.w3.org/2000/svg" viewBox="0 0 400 400"><defs><style>.cls-1{fill:#007ea4;}.cls-2{fill:#1aa64a;}</style></defs><path class="cls-1" d="M175.3,171.7h19.9c15.7,0,25.9,9.9,29.2,24.2,2.8,12.6-5.7,29.2-21.4,31.6-4.5.7-9.1,1.1-13.7,1.5-10.7.9-21.4.4-32.1.5-3,0-4.1,1.2-3.2,4a28,28,0,0,0,2.9,6.9c10.1,17.3,23.2,31.8,40,42.9a40.9,40.9,0,0,0,13.2,5.8l1.8.5c4.9,1.6,6.9,4.2,6.9,9.3.1,12.8,0,25.7,0,38.5a19.6,19.6,0,0,1-.9,5.3,6.7,6.7,0,0,1-6.8,4.6,43.6,43.6,0,0,1-8-.9,160.3,160.3,0,0,1-44.5-15.1,138.8,138.8,0,0,1-47.9-40.9,155,155,0,0,1-24.9-48.7,64.2,64.2,0,0,0-2.4-6.6,7.8,7.8,0,0,0-6.9-5.1l-10.9-.9c-16.3-1.3-24.9-12.4-26.9-25s7.5-30,24.7-32.2a60.3,60.3,0,0,1,8.5-.2c7.3.1,11.3-2.8,13.3-9.8a157.2,157.2,0,0,1,7.1-20.3A151,151,0,0,1,108,113.9a38.9,38.9,0,0,1,4.6-5.3c2.9-2.7,5.7-2.9,9-.8a36.7,36.7,0,0,1,6.2,5c7.9,7.7,15.6,15.5,23.4,23.2l.9,1c3.8,4.4,4,8.6.9,13.5-2,3.2-3.9,6.5-5.7,9.8a21.4,21.4,0,0,0-1.7,4.6c-.7,3.1.7,5.4,3.8,6.2a22.2,22.2,0,0,0,4.6.6Z"/><path class="cls-2" d="M332.1,169.9a28.5,28.5,0,0,1-22.9-11.6,59.1,59.1,0,0,1-3.5-5.2c-7.5-11.4-16.5-21.3-28.1-28.8a89.9,89.9,0,0,0-32-12.7,93.9,93.9,0,0,0-16.7-1.9,88.1,88.1,0,0,0-45.1,11.8l-6.8,3.8c-3.9,2.1-7.6,1.8-10.9-1.2s-3.9-3.5-5.7-5.4L140.2,98.5c-1.1-1.2-2.2-2.4-3.2-3.7-2.7-3.9-2.5-7.4.7-10.8a23,23,0,0,1,3.8-3.2,132.9,132.9,0,0,1,43-21.2,167.5,167.5,0,0,1,25.3-5.4A144.2,144.2,0,0,1,240.6,53a140.3,140.3,0,0,1,49.2,12.3A144.9,144.9,0,0,1,340.2,104a180.4,180.4,0,0,1,15.2,20.7,39.3,39.3,0,0,1,6,16.4,22.1,22.1,0,0,1-4,15.2c-5.2,7.2-12.3,11.3-20.9,13C334.9,169.7,333.1,169.7,332.1,169.9Z"/><path class="cls-2" d="M238.6,317.8V297.6c.2-4.3,2.2-6.9,6.4-8s6.6-1.6,9.8-2.6a86.5,86.5,0,0,0,42.8-28.4,162,162,0,0,0,10.3-14.3c4.3-6.6,9.9-11.3,17.9-12.5,11.6-1.8,26.9,2.3,33.5,16.6a23,23,0,0,1-.5,21.2A133,133,0,0,1,336,301.9a149.3,149.3,0,0,1-62.8,39.5,154,154,0,0,1-24,5.4,14.5,14.5,0,0,1-3.6,0c-4-.4-6.6-3-6.9-7.2s-.2-9.5-.3-14.3c-.1-2.5,0-5,0-7.5Z"/></svg>