<svg id="svg" version="1.1" xmlns="http://www.w3.org/2000/svg" xmlns:xlink="http://www.w3.org/1999/xlink" width="400" height="400" viewBox="0, 0, 400,400"><g id="svgg"><path id="path0" d="M302.400 29.993 C 302.400 30.314,300.637 33.456,298.804 36.400 C 298.598 36.730,298.031 37.765,297.544 38.700 C 297.057 39.635,296.510 40.400,296.329 40.400 C 296.148 40.400,296.000 40.590,296.000 40.821 C 296.000 41.053,294.605 43.524,292.900 46.313 C 289.247 52.287,289.198 52.369,288.322 53.984 C 287.950 54.671,287.265 55.847,286.801 56.598 L 285.958 57.962 288.679 58.081 L 291.400 58.200 291.506 70.894 L 291.611 83.589 304.306 83.694 L 317.000 83.800 317.103 109.300 L 317.206 134.800 329.803 134.800 L 342.400 134.800 342.400 211.600 L 342.400 288.400 329.806 288.400 L 317.211 288.400 317.106 301.100 L 317.000 313.800 304.300 313.906 L 291.600 314.011 291.600 326.606 L 291.600 339.200 204.795 339.200 L 117.990 339.200 116.695 341.310 C 115.983 342.470,115.174 343.775,114.897 344.210 C 114.621 344.644,114.271 345.270,114.121 345.600 C 113.970 345.930,111.991 349.223,109.723 352.917 C 107.455 356.611,105.600 359.711,105.600 359.805 C 105.600 359.899,103.874 362.798,101.764 366.248 C 97.088 373.895,97.260 373.462,98.772 373.794 C 99.447 373.942,100.000 374.210,100.000 374.388 C 100.000 374.567,100.450 374.826,101.000 374.964 C 101.550 375.102,102.000 375.392,102.000 375.608 C 102.000 375.823,102.270 376.000,102.600 376.000 C 102.930 376.000,103.200 376.166,103.200 376.368 C 103.200 376.571,103.740 376.855,104.400 377.000 C 105.060 377.145,105.600 377.409,105.600 377.587 C 105.600 377.765,106.230 378.029,107.000 378.174 C 107.770 378.318,108.400 378.608,108.400 378.818 C 108.400 379.028,108.670 379.200,109.000 379.200 C 109.330 379.200,109.600 379.366,109.600 379.568 C 109.600 379.771,110.140 380.055,110.800 380.200 C 111.460 380.345,112.000 380.609,112.000 380.787 C 112.000 380.965,112.630 381.229,113.400 381.374 C 114.170 381.518,114.800 381.808,114.800 382.018 C 114.800 382.228,115.070 382.400,115.400 382.400 C 115.730 382.400,116.000 382.557,116.000 382.749 C 116.000 382.941,116.720 383.213,117.600 383.354 C 118.480 383.494,119.200 383.768,119.200 383.961 C 119.200 384.155,119.695 384.433,120.300 384.579 C 121.835 384.950,123.600 385.743,123.600 386.062 C 123.600 386.209,124.320 386.451,125.200 386.600 C 126.080 386.749,126.800 387.011,126.800 387.184 C 126.800 387.357,127.520 387.613,128.400 387.754 C 129.280 387.894,130.000 388.187,130.000 388.405 C 130.000 388.622,130.450 388.800,131.000 388.800 C 131.550 388.800,132.000 388.960,132.000 389.155 C 132.000 389.350,132.806 389.630,133.791 389.778 C 134.776 389.925,135.680 390.205,135.800 390.400 C 135.920 390.595,136.824 390.875,137.809 391.022 C 138.794 391.170,139.600 391.450,139.600 391.645 C 139.600 391.840,140.039 392.000,140.576 392.000 C 141.113 392.000,141.654 392.163,141.777 392.363 C 141.900 392.562,142.900 392.849,144.000 393.000 C 145.100 393.151,146.095 393.430,146.212 393.619 C 146.329 393.808,147.499 394.085,148.812 394.233 C 150.125 394.382,151.200 394.660,151.200 394.852 C 151.200 395.043,151.729 395.200,152.376 395.200 C 153.023 395.200,153.655 395.365,153.779 395.566 C 153.904 395.767,155.354 396.059,157.003 396.213 C 158.651 396.368,160.000 396.639,160.000 396.817 C 160.000 396.995,161.620 397.267,163.600 397.422 C 165.580 397.576,167.200 397.843,167.200 398.013 C 167.200 398.183,168.055 398.424,169.100 398.547 C 170.145 398.671,172.260 398.958,173.800 399.185 C 181.720 400.352,226.108 400.009,227.380 398.770 C 227.589 398.567,228.624 398.400,229.680 398.400 C 230.736 398.400,231.600 398.243,231.600 398.052 C 231.600 397.860,233.220 397.576,235.200 397.422 C 237.180 397.267,238.800 396.995,238.800 396.817 C 238.800 396.639,240.149 396.368,241.797 396.213 C 243.446 396.059,244.896 395.767,245.021 395.566 C 245.145 395.365,245.777 395.200,246.424 395.200 C 247.071 395.200,247.600 395.038,247.600 394.839 C 247.600 394.641,248.680 394.353,250.001 394.200 C 251.321 394.047,252.491 393.776,252.601 393.598 C 252.711 393.420,253.700 393.151,254.800 393.000 C 255.900 392.849,256.900 392.562,257.023 392.363 C 257.146 392.163,257.687 392.000,258.224 392.000 C 258.761 392.000,259.200 391.840,259.200 391.645 C 259.200 391.450,260.010 391.169,261.000 391.021 C 261.990 390.872,262.800 390.599,262.800 390.413 C 262.800 390.227,263.700 389.951,264.800 389.800 C 265.900 389.649,266.800 389.362,266.800 389.162 C 266.800 388.963,267.250 388.800,267.800 388.800 C 268.350 388.800,268.800 388.622,268.800 388.405 C 268.800 388.187,269.520 387.894,270.400 387.754 C 271.280 387.613,272.000 387.357,272.000 387.184 C 272.000 387.011,272.720 386.749,273.600 386.600 C 274.480 386.451,275.200 386.209,275.200 386.062 C 275.200 385.743,276.965 384.950,278.500 384.579 C 279.105 384.433,279.600 384.172,279.600 384.000 C 279.600 383.828,280.095 383.567,280.700 383.421 C 282.241 383.049,284.000 382.256,284.000 381.934 C 284.000 381.785,284.540 381.545,285.200 381.400 C 285.860 381.255,286.400 380.991,286.400 380.813 C 286.400 380.635,287.030 380.371,287.800 380.226 C 288.570 380.082,289.200 379.792,289.200 379.582 C 289.200 379.372,289.470 379.200,289.800 379.200 C 290.130 379.200,290.400 379.034,290.400 378.832 C 290.400 378.629,290.940 378.345,291.600 378.200 C 292.260 378.055,292.800 377.791,292.800 377.613 C 292.800 377.435,293.430 377.171,294.200 377.026 C 294.970 376.882,295.600 376.592,295.600 376.382 C 295.600 376.172,295.870 376.000,296.200 376.000 C 296.530 376.000,296.800 375.832,296.800 375.627 C 296.800 375.422,297.205 375.128,297.700 374.973 C 298.195 374.819,298.690 374.581,298.800 374.446 C 298.910 374.311,299.630 373.868,300.400 373.462 C 303.128 372.025,304.192 371.394,304.721 370.900 C 305.016 370.625,305.432 370.400,305.645 370.400 C 306.059 370.400,306.678 369.949,308.256 368.500 C 308.795 368.005,309.504 367.600,309.831 367.600 C 310.158 367.600,310.522 367.346,310.641 367.036 C 310.761 366.726,311.295 366.363,311.829 366.228 C 312.363 366.094,312.800 365.808,312.800 365.592 C 312.800 365.377,313.070 365.200,313.400 365.200 C 313.730 365.200,314.000 365.032,314.000 364.827 C 314.000 364.622,314.405 364.327,314.900 364.171 C 315.395 364.016,316.196 363.464,316.681 362.944 C 317.165 362.425,317.750 362.000,317.981 362.000 C 318.211 362.000,318.400 361.832,318.400 361.627 C 318.400 361.422,318.756 361.141,319.190 361.003 C 319.625 360.865,320.618 360.133,321.397 359.376 C 322.177 358.619,322.977 358.000,323.177 358.000 C 323.376 358.000,324.078 357.460,324.738 356.800 C 325.398 356.140,326.063 355.600,326.216 355.600 C 326.369 355.600,327.171 354.902,327.998 354.049 C 328.826 353.197,329.722 352.426,329.990 352.337 C 330.805 352.065,345.200 338.363,345.200 337.859 C 345.200 337.708,346.550 336.212,348.200 334.535 C 349.850 332.858,351.200 331.339,351.200 331.158 C 351.200 330.978,351.896 330.142,352.746 329.300 C 353.597 328.458,354.416 327.380,354.567 326.905 C 354.717 326.430,355.183 325.933,355.600 325.800 C 356.017 325.667,356.479 325.180,356.626 324.717 C 356.773 324.254,357.281 323.498,357.754 323.038 C 358.866 321.956,360.587 319.596,360.917 318.700 C 361.059 318.315,361.332 318.000,361.524 318.000 C 361.717 318.000,362.213 317.370,362.628 316.600 C 363.043 315.830,363.500 315.200,363.644 315.200 C 363.789 315.200,364.012 314.885,364.142 314.500 C 364.476 313.504,365.315 312.255,365.900 311.880 C 366.175 311.704,366.400 311.299,366.400 310.980 C 366.400 310.661,366.577 310.400,366.792 310.400 C 367.008 310.400,367.298 309.950,367.436 309.400 C 367.574 308.850,367.819 308.400,367.980 308.400 C 368.142 308.400,368.613 307.770,369.028 307.000 C 369.443 306.230,369.901 305.600,370.048 305.600 C 370.194 305.600,370.430 305.135,370.573 304.566 C 370.716 303.997,371.192 303.146,371.632 302.674 C 372.071 302.202,372.534 301.407,372.659 300.908 C 372.784 300.409,373.028 300.000,373.200 300.000 C 373.372 300.000,373.626 299.550,373.764 299.000 C 373.902 298.450,374.178 298.000,374.376 298.000 C 374.574 298.000,374.855 297.460,375.000 296.800 C 375.145 296.140,375.387 295.600,375.537 295.600 C 375.835 295.600,377.200 292.643,377.200 291.997 C 377.200 291.779,377.366 291.600,377.568 291.600 C 377.771 291.600,378.055 291.060,378.200 290.400 C 378.345 289.740,378.629 289.200,378.832 289.200 C 379.034 289.200,379.200 288.930,379.200 288.600 C 379.200 288.270,379.360 288.000,379.555 288.000 C 379.751 288.000,380.029 287.370,380.174 286.600 C 380.318 285.830,380.606 285.200,380.813 285.200 C 381.021 285.200,381.306 284.480,381.446 283.600 C 381.587 282.720,381.859 282.000,382.051 282.000 C 382.243 282.000,382.400 281.730,382.400 281.400 C 382.400 281.070,382.566 280.800,382.768 280.800 C 382.971 280.800,383.255 280.258,383.401 279.596 C 383.649 278.466,384.368 276.698,385.226 275.105 C 385.432 274.723,385.600 274.138,385.600 273.805 C 385.600 273.472,385.757 273.200,385.949 273.200 C 386.141 273.200,386.413 272.480,386.554 271.600 C 386.694 270.720,386.970 270.000,387.167 270.000 C 387.364 270.000,387.649 269.100,387.800 268.000 C 387.951 266.900,388.238 266.000,388.438 266.000 C 388.637 266.000,388.800 265.651,388.800 265.224 C 388.800 264.797,388.970 264.342,389.177 264.214 C 389.384 264.086,389.675 263.176,389.822 262.191 C 389.970 261.206,390.237 260.400,390.417 260.400 C 390.596 260.400,390.866 259.410,391.017 258.200 C 391.168 256.990,391.451 256.000,391.646 256.000 C 391.841 256.000,392.000 255.561,392.000 255.024 C 392.000 254.487,392.172 253.941,392.382 253.811 C 392.591 253.682,392.885 252.501,393.033 251.188 C 393.182 249.875,393.449 248.800,393.627 248.800 C 393.806 248.800,394.076 247.540,394.227 246.000 C 394.379 244.460,394.660 243.200,394.852 243.200 C 395.043 243.200,395.200 242.480,395.200 241.600 C 395.200 240.720,395.364 240.000,395.564 240.000 C 395.764 240.000,396.058 238.425,396.216 236.500 C 396.374 234.575,396.652 232.904,396.834 232.788 C 397.015 232.671,397.288 230.646,397.441 228.288 C 397.593 225.929,397.871 224.000,398.059 224.000 C 398.247 224.000,398.400 222.481,398.400 220.624 C 398.400 218.767,398.580 217.136,398.800 217.000 C 399.056 216.842,399.200 210.937,399.200 200.600 C 399.200 190.263,399.056 184.358,398.800 184.200 C 398.580 184.064,398.400 182.534,398.400 180.800 C 398.400 179.066,398.243 177.550,398.052 177.432 C 397.861 177.314,397.575 175.233,397.418 172.809 C 397.261 170.384,396.994 168.400,396.824 168.400 C 396.654 168.400,396.391 166.916,396.240 165.103 C 396.089 163.289,395.793 161.633,395.583 161.423 C 395.372 161.212,395.200 160.356,395.200 159.520 C 395.200 158.684,395.043 158.000,394.852 158.000 C 394.660 158.000,394.379 156.740,394.227 155.200 C 394.076 153.660,393.800 152.400,393.615 152.400 C 393.430 152.400,393.153 151.320,393.000 149.999 C 392.847 148.679,392.559 147.498,392.361 147.376 C 392.162 147.253,392.000 146.713,392.000 146.176 C 392.000 145.639,391.841 145.200,391.646 145.200 C 391.451 145.200,391.168 144.210,391.017 143.000 C 390.866 141.790,390.596 140.800,390.417 140.800 C 390.237 140.800,389.969 139.990,389.821 139.000 C 389.672 138.010,389.382 137.200,389.175 137.200 C 388.969 137.200,388.800 136.750,388.800 136.200 C 388.800 135.650,388.637 135.200,388.438 135.200 C 388.238 135.200,387.951 134.300,387.800 133.200 C 387.649 132.100,387.364 131.200,387.167 131.200 C 386.970 131.200,386.694 130.480,386.554 129.600 C 386.413 128.720,386.141 128.000,385.949 128.000 C 385.757 128.000,385.600 127.640,385.600 127.200 C 385.600 126.760,385.420 126.400,385.200 126.400 C 384.980 126.400,384.799 126.085,384.798 125.700 C 384.796 125.315,384.543 124.517,384.235 123.927 C 383.927 123.337,383.554 122.302,383.406 121.627 C 383.258 120.952,382.971 120.400,382.768 120.400 C 382.566 120.400,382.400 120.130,382.400 119.800 C 382.400 119.470,382.243 119.200,382.051 119.200 C 381.859 119.200,381.587 118.480,381.446 117.600 C 381.306 116.720,381.027 116.000,380.827 116.000 C 380.627 116.000,380.345 115.460,380.200 114.800 C 380.055 114.140,379.771 113.600,379.568 113.600 C 379.366 113.600,379.200 113.240,379.200 112.800 C 379.200 112.360,379.034 112.000,378.832 112.000 C 378.629 112.000,378.345 111.460,378.200 110.800 C 378.055 110.140,377.785 109.600,377.600 109.600 C 377.415 109.600,377.145 109.060,377.000 108.400 C 376.855 107.740,376.571 107.200,376.368 107.200 C 376.166 107.200,376.000 106.855,376.000 106.433 C 376.000 106.012,375.865 105.607,375.700 105.533 C 375.535 105.460,374.950 104.500,374.400 103.400 C 373.850 102.300,373.310 101.310,373.200 101.200 C 373.090 101.090,372.654 100.370,372.230 99.600 C 371.807 98.830,371.357 98.110,371.230 98.000 C 371.104 97.890,370.550 96.933,370.000 95.874 C 369.450 94.814,368.721 93.644,368.380 93.274 C 368.039 92.903,367.639 92.285,367.492 91.900 C 367.345 91.515,367.039 91.200,366.813 91.200 C 366.586 91.200,366.400 90.834,366.400 90.387 C 366.400 89.941,366.130 89.471,365.800 89.345 C 365.470 89.218,365.200 88.864,365.200 88.557 C 365.200 88.251,365.032 88.000,364.827 88.000 C 364.622 88.000,364.330 87.609,364.178 87.131 C 363.881 86.194,363.835 86.127,362.014 83.947 C 361.346 83.148,360.800 82.293,360.800 82.047 C 360.800 81.801,360.659 81.600,360.486 81.600 C 360.314 81.600,359.830 81.020,359.411 80.311 C 358.993 79.603,358.234 78.637,357.725 78.166 C 357.216 77.694,356.800 77.134,356.800 76.920 C 356.800 76.707,356.260 76.051,355.600 75.463 C 354.940 74.875,354.398 74.170,354.396 73.897 C 354.394 73.624,353.676 72.770,352.800 72.000 C 351.924 71.230,351.206 70.416,351.204 70.192 C 351.202 69.967,350.748 69.337,350.196 68.792 C 349.085 67.695,348.723 67.324,347.069 65.587 C 346.447 64.934,345.772 64.400,345.569 64.400 C 345.366 64.400,345.200 64.124,345.200 63.786 C 345.200 62.985,337.015 54.800,336.214 54.800 C 335.876 54.800,335.600 54.634,335.600 54.431 C 335.600 54.228,335.066 53.553,334.413 52.931 C 332.676 51.277,332.305 50.915,331.208 49.804 C 330.663 49.252,330.033 48.798,329.808 48.796 C 329.584 48.794,328.770 48.076,328.000 47.200 C 327.230 46.324,326.376 45.606,326.103 45.604 C 325.830 45.602,325.125 45.060,324.537 44.400 C 323.949 43.740,323.293 43.200,323.080 43.200 C 322.866 43.200,322.306 42.784,321.834 42.275 C 321.363 41.766,320.397 41.007,319.689 40.589 C 318.980 40.170,318.400 39.686,318.400 39.514 C 318.400 39.341,318.124 39.200,317.787 39.200 C 317.451 39.200,317.080 38.953,316.964 38.650 C 316.848 38.348,316.134 37.767,315.377 37.359 C 314.619 36.952,314.000 36.499,314.000 36.352 C 314.000 36.206,313.550 35.974,313.000 35.836 C 312.450 35.698,312.000 35.408,312.000 35.192 C 312.000 34.977,311.749 34.800,311.443 34.800 C 311.136 34.800,310.782 34.530,310.655 34.200 C 310.529 33.870,310.079 33.600,309.655 33.600 C 309.232 33.600,308.782 33.330,308.655 33.000 C 308.529 32.670,308.164 32.400,307.846 32.400 C 307.527 32.400,307.207 32.265,307.133 32.100 C 306.624 30.955,302.400 29.074,302.400 29.993 M112.672 83.861 C 112.523 84.011,112.400 89.773,112.400 96.667 L 112.400 109.200 125.206 109.200 L 138.011 109.200 137.906 96.500 L 137.800 83.800 125.372 83.694 C 118.537 83.636,112.822 83.711,112.672 83.861 M266.000 86.882 L 266.000 90.163 267.800 87.244 C 268.790 85.638,269.600 84.161,269.600 83.962 C 269.600 83.763,268.790 83.600,267.800 83.600 L 266.000 83.600 266.000 86.882 M138.306 122.100 L 138.200 135.000 125.300 135.106 L 112.400 135.211 112.400 147.800 L 112.400 160.389 99.700 160.494 L 87.000 160.600 86.899 224.300 L 86.798 288.000 99.599 288.000 L 112.400 288.000 112.400 300.800 L 112.400 313.600 122.509 313.600 L 132.618 313.600 133.405 312.100 C 133.838 311.275,134.297 310.510,134.425 310.400 C 134.554 310.290,134.779 309.930,134.927 309.600 C 135.074 309.270,135.370 308.730,135.584 308.400 C 136.634 306.784,143.600 295.155,143.600 295.020 C 143.600 294.934,145.310 292.059,147.400 288.631 C 149.490 285.203,151.200 282.218,151.200 281.999 C 151.200 281.780,151.380 281.600,151.600 281.600 C 151.820 281.600,152.000 281.421,152.000 281.202 C 152.000 280.983,153.710 278.007,155.800 274.590 C 157.890 271.172,159.600 268.294,159.600 268.195 C 159.600 268.095,160.318 266.841,161.196 265.407 L 162.791 262.800 150.396 262.800 L 138.000 262.800 138.000 249.800 L 138.000 236.800 150.794 236.800 L 163.588 236.800 163.694 248.900 L 163.800 261.000 165.357 258.604 C 166.213 257.286,167.257 255.576,167.677 254.804 C 168.098 254.032,168.607 253.130,168.808 252.800 C 169.010 252.470,170.626 249.770,172.400 246.800 C 174.174 243.830,175.800 241.130,176.015 240.800 C 176.230 240.470,176.529 239.930,176.679 239.600 C 176.830 239.270,178.809 235.977,181.077 232.283 C 183.345 228.589,185.200 225.485,185.200 225.385 C 185.200 225.237,188.184 220.302,193.656 211.400 C 194.061 210.740,194.517 209.930,194.668 209.600 C 194.928 209.034,200.760 199.287,201.609 198.000 C 201.827 197.670,202.128 197.130,202.278 196.800 C 202.428 196.470,204.227 193.454,206.275 190.098 C 208.324 186.742,210.000 183.817,210.000 183.598 C 210.000 183.379,210.180 183.200,210.400 183.200 C 210.620 183.200,210.800 183.021,210.800 182.802 C 210.800 182.583,212.510 179.607,214.600 176.190 C 216.690 172.772,218.400 169.897,218.400 169.800 C 218.400 169.703,220.110 166.828,222.200 163.410 C 224.290 159.993,226.000 157.017,226.000 156.798 C 226.000 156.579,226.160 156.400,226.357 156.400 C 226.553 156.400,226.826 155.950,226.964 155.400 C 227.102 154.850,227.392 154.400,227.608 154.400 C 227.823 154.400,228.000 154.219,228.000 153.998 C 228.000 153.678,233.105 144.982,234.809 142.400 C 235.027 142.070,235.326 141.530,235.473 141.200 C 235.620 140.870,236.429 139.501,237.270 138.157 C 238.112 136.813,238.800 135.508,238.800 135.257 C 238.800 134.918,229.116 134.800,201.200 134.800 L 163.600 134.800 163.600 122.000 L 163.600 109.200 151.006 109.200 L 138.411 109.200 138.306 122.100 M240.400 121.090 L 240.400 132.979 242.200 130.087 C 243.190 128.496,244.000 127.107,244.000 126.999 C 244.000 126.892,245.710 124.007,247.800 120.590 C 249.890 117.172,251.600 114.294,251.600 114.194 C 251.600 114.094,252.140 113.134,252.800 112.062 C 254.622 109.101,254.816 109.200,247.200 109.200 L 240.400 109.200 240.400 121.090 M163.600 198.800 L 163.600 211.600 150.800 211.600 L 138.000 211.600 138.000 198.800 L 138.000 186.000 150.800 186.000 L 163.600 186.000 163.600 198.800 " stroke="none" fill="#040404" fill-rule="evenodd"></path><path id="path1" d="M112.800 71.000 L 112.800 83.600 125.200 83.600 L 137.600 83.600 137.600 71.000 L 137.600 58.400 125.200 58.400 L 112.800 58.400 112.800 71.000 M265.906 71.100 L 265.800 83.800 253.106 83.906 L 240.411 84.011 240.306 96.706 L 240.200 109.400 202.100 109.502 L 164.000 109.604 164.000 122.002 L 164.000 134.400 201.320 134.400 C 229.813 134.400,238.754 134.514,239.120 134.880 C 239.797 135.557,239.751 136.237,239.986 122.200 L 240.200 109.400 252.894 109.294 L 265.589 109.189 265.694 96.494 L 265.800 83.800 278.500 83.694 L 291.200 83.589 291.200 70.994 L 291.200 58.400 278.606 58.400 L 266.011 58.400 265.906 71.100 M87.200 109.600 L 87.200 135.200 74.400 135.200 L 61.600 135.200 61.600 211.594 L 61.600 287.989 74.300 288.094 L 87.000 288.200 87.106 300.894 L 87.211 313.589 99.906 313.694 L 112.600 313.800 112.706 326.480 L 112.811 339.160 115.106 339.280 C 116.368 339.346,156.502 339.354,204.294 339.298 L 291.189 339.196 291.294 326.498 L 291.400 313.800 304.094 313.694 L 316.789 313.589 316.894 300.894 L 317.000 288.200 329.700 288.094 L 342.400 287.989 342.400 211.594 L 342.400 135.200 329.600 135.200 L 316.800 135.200 316.800 109.600 L 316.800 84.000 304.200 84.000 L 291.600 84.000 291.600 121.994 L 291.600 159.989 304.300 160.094 L 317.000 160.200 317.000 224.200 L 317.000 288.200 304.306 288.306 L 291.611 288.411 291.506 301.106 L 291.400 313.800 202.000 313.800 L 112.600 313.800 112.494 301.106 L 112.389 288.411 99.694 288.306 L 87.000 288.200 86.899 224.100 L 86.798 160.000 99.599 160.000 L 112.400 160.000 112.400 122.000 L 112.400 84.000 99.800 84.000 L 87.200 84.000 87.200 109.600 M138.400 96.600 L 138.400 109.200 151.300 109.168 C 158.395 109.151,163.975 109.046,163.700 108.935 C 163.315 108.780,163.200 105.886,163.200 96.367 L 163.200 84.000 150.800 84.000 L 138.400 84.000 138.400 96.600 M138.400 198.800 L 138.400 211.200 150.800 211.200 L 163.200 211.200 163.200 198.800 L 163.200 186.400 150.800 186.400 L 138.400 186.400 138.400 198.800 M240.400 198.800 L 240.400 211.200 253.000 211.200 L 265.600 211.200 265.600 198.800 L 265.600 186.400 253.000 186.400 L 240.400 186.400 240.400 198.800 M142.600 262.683 C 153.677 262.966,163.108 262.974,162.939 262.700 C 162.836 262.535,157.228 262.438,150.476 262.486 C 143.724 262.533,140.180 262.622,142.600 262.683 " stroke="none" fill="#6c6c6c" fill-rule="evenodd"></path><path id="path2" d="M193.660 1.300 C 193.311 1.650,191.572 1.800,187.880 1.800 C 184.976 1.800,182.480 1.967,182.333 2.170 C 182.186 2.374,180.836 2.566,179.333 2.596 C 177.830 2.627,176.330 2.765,176.000 2.904 C 175.670 3.042,174.500 3.248,173.400 3.360 C 169.927 3.716,163.824 4.632,163.200 4.891 C 162.444 5.205,158.757 5.762,158.130 5.657 C 157.872 5.614,157.546 5.764,157.407 5.989 C 157.267 6.215,156.544 6.400,155.800 6.400 C 155.056 6.400,154.349 6.559,154.229 6.753 C 154.109 6.948,152.989 7.234,151.741 7.390 C 150.493 7.546,149.185 7.820,148.836 7.999 C 148.486 8.178,147.030 8.629,145.600 9.000 C 144.170 9.371,142.724 9.815,142.387 9.987 C 142.050 10.158,141.150 10.422,140.387 10.572 C 139.624 10.723,138.640 11.001,138.200 11.190 C 137.760 11.379,135.690 12.107,133.600 12.807 C 131.510 13.506,129.233 14.331,128.540 14.639 C 127.846 14.948,127.177 15.200,127.051 15.200 C 126.780 15.200,122.499 17.064,121.505 17.615 C 121.123 17.827,120.612 18.000,120.369 18.000 C 119.834 18.000,104.773 25.374,102.800 26.603 C 102.030 27.082,100.320 28.073,99.000 28.804 C 97.680 29.536,95.340 30.959,93.800 31.967 C 92.260 32.975,90.820 33.889,90.600 34.000 C 89.153 34.725,80.813 40.659,77.200 43.534 C 73.876 46.179,70.182 49.242,67.006 51.988 C 64.916 53.793,52.584 66.127,50.788 68.207 C 42.908 77.334,39.057 82.352,33.297 91.000 C 30.633 94.999,27.600 99.905,27.600 100.215 C 27.600 100.325,27.111 101.177,26.514 102.108 C 25.232 104.105,17.416 119.483,16.986 120.855 C 16.645 121.941,14.956 125.865,14.385 126.895 C 14.173 127.277,14.000 127.789,14.000 128.034 C 14.000 128.448,13.143 130.603,12.417 132.013 C 12.244 132.350,11.968 133.250,11.805 134.013 C 11.641 134.776,11.369 135.580,11.200 135.800 C 11.031 136.020,10.759 136.824,10.595 137.587 C 10.432 138.350,10.159 139.250,9.989 139.587 C 9.819 139.924,9.369 141.280,8.990 142.600 C 8.611 143.920,8.165 145.277,8.000 145.615 C 7.834 145.954,7.566 147.034,7.404 148.015 C 7.242 148.997,6.973 149.980,6.805 150.200 C 6.638 150.420,6.402 151.140,6.282 151.800 C 6.162 152.460,5.988 153.270,5.896 153.600 C 5.804 153.930,5.596 154.920,5.433 155.800 C 5.271 156.680,5.029 157.670,4.897 158.000 C 4.613 158.708,3.663 163.834,3.340 166.400 C 3.216 167.390,2.958 168.393,2.768 168.628 C 2.577 168.864,2.429 169.584,2.439 170.228 C 2.473 172.498,1.887 177.223,1.546 177.434 C 1.355 177.551,1.200 178.957,1.200 180.557 C 1.200 182.157,1.085 183.582,0.944 183.723 C 0.206 184.461,0.133 217.600,0.870 217.600 C 1.018 217.600,1.229 218.995,1.338 220.700 C 1.448 222.405,1.750 225.240,2.009 227.000 C 2.268 228.760,2.467 230.727,2.450 231.372 C 2.434 232.016,2.576 232.736,2.765 232.972 C 2.955 233.207,3.210 234.120,3.333 235.000 C 3.910 239.137,4.483 242.271,4.798 243.000 C 4.987 243.440,5.274 244.520,5.435 245.400 C 5.597 246.280,5.791 247.180,5.866 247.400 C 5.942 247.620,6.116 248.430,6.253 249.200 C 6.389 249.970,6.641 250.780,6.813 251.000 C 6.985 251.220,7.253 252.257,7.409 253.305 C 7.565 254.353,7.852 255.308,8.046 255.429 C 8.241 255.549,8.400 255.990,8.400 256.410 C 8.400 257.169,9.320 260.277,9.995 261.800 C 10.190 262.240,10.465 263.050,10.606 263.600 C 10.977 265.045,12.784 270.079,13.225 270.895 C 13.431 271.277,13.606 271.817,13.614 272.095 C 13.621 272.373,13.975 273.320,14.400 274.200 C 14.825 275.080,15.179 276.008,15.186 276.262 C 15.194 276.516,15.552 277.416,15.981 278.262 C 16.411 279.108,17.154 280.700,17.632 281.800 C 20.301 287.942,25.707 298.241,29.391 304.200 C 33.255 310.451,40.623 321.005,43.567 324.505 C 45.366 326.644,47.457 329.167,48.161 330.048 C 52.824 335.882,65.651 348.458,72.796 354.200 C 74.165 355.300,75.671 356.532,76.143 356.938 C 78.100 358.624,88.220 365.791,92.566 368.570 C 97.354 371.631,98.220 371.857,98.647 370.156 C 98.779 369.630,99.047 369.200,99.243 369.200 C 99.440 369.200,99.600 369.005,99.600 368.766 C 99.600 368.527,101.310 365.549,103.400 362.148 C 105.490 358.748,107.200 355.884,107.200 355.785 C 107.200 355.685,108.910 352.807,111.000 349.390 C 113.090 345.972,114.800 343.001,114.800 342.788 C 114.800 342.575,114.980 342.400,115.200 342.400 C 115.420 342.400,115.600 342.152,115.600 341.849 C 115.600 341.546,115.870 341.074,116.200 340.800 C 117.266 339.915,116.846 339.600,114.600 339.600 L 112.400 339.600 112.400 326.800 L 112.400 314.000 99.600 314.000 L 86.800 314.000 86.800 301.200 L 86.800 288.400 74.000 288.400 L 61.200 288.400 61.200 211.600 L 61.200 134.800 74.000 134.800 L 86.800 134.800 86.800 109.200 L 86.800 83.600 99.600 83.600 L 112.400 83.600 112.400 70.794 L 112.400 57.989 125.300 58.094 L 138.200 58.200 138.306 70.900 L 138.411 83.600 151.006 83.600 L 163.600 83.600 163.600 95.767 C 163.600 102.459,163.709 108.219,163.843 108.567 C 164.062 109.138,167.800 109.200,202.043 109.200 L 240.000 109.200 240.000 96.400 L 240.000 83.600 252.800 83.600 L 265.600 83.600 265.600 70.800 L 265.600 58.000 275.333 58.000 L 285.067 58.000 288.133 52.968 C 289.820 50.200,291.200 47.770,291.200 47.568 C 291.200 47.365,291.360 47.200,291.557 47.200 C 291.753 47.200,292.026 46.750,292.164 46.200 C 292.302 45.650,292.592 45.200,292.808 45.200 C 293.023 45.200,293.200 45.004,293.200 44.765 C 293.200 44.526,294.640 41.989,296.400 39.127 C 298.160 36.264,299.600 33.773,299.600 33.590 C 299.600 33.407,299.825 33.019,300.100 32.729 C 301.803 30.928,301.703 28.891,299.907 28.813 C 299.746 28.806,298.486 28.111,297.107 27.268 C 294.181 25.480,279.121 18.000,278.447 18.000 C 278.195 18.000,277.677 17.827,277.295 17.615 C 276.207 17.012,272.307 15.343,271.200 15.006 C 270.650 14.839,270.020 14.565,269.800 14.397 C 269.580 14.230,268.770 13.961,268.000 13.800 C 267.230 13.639,266.420 13.381,266.200 13.227 C 265.980 13.073,264.720 12.606,263.400 12.189 C 262.080 11.773,260.820 11.313,260.600 11.168 C 260.380 11.023,259.503 10.779,258.651 10.625 C 257.799 10.471,256.809 10.194,256.451 10.010 C 256.093 9.826,254.630 9.370,253.200 8.997 C 251.770 8.624,250.202 8.165,249.716 7.976 C 249.230 7.787,247.921 7.511,246.807 7.363 C 245.693 7.215,244.685 6.938,244.567 6.747 C 244.449 6.556,243.744 6.400,243.000 6.400 C 242.256 6.400,241.549 6.241,241.429 6.047 C 241.309 5.853,239.994 5.565,238.506 5.406 C 237.018 5.248,235.620 5.002,235.400 4.859 C 235.012 4.608,229.468 3.777,225.400 3.360 C 224.300 3.248,223.130 3.042,222.800 2.904 C 222.470 2.765,221.002 2.616,219.537 2.572 C 218.072 2.528,216.632 2.344,216.337 2.161 C 216.043 1.979,213.731 1.876,211.201 1.931 C 207.669 2.009,206.334 1.890,205.454 1.416 C 203.967 0.616,194.438 0.522,193.660 1.300 M269.317 85.892 C 268.703 86.932,267.978 88.147,267.706 88.592 C 267.435 89.036,267.099 89.715,266.960 90.100 C 266.821 90.485,266.548 90.800,266.353 90.800 C 266.159 90.800,266.000 94.940,266.000 100.000 L 266.000 109.200 278.600 109.200 L 291.200 109.200 291.200 96.600 L 291.200 84.000 280.817 84.000 L 270.434 84.000 269.317 85.892 M254.653 110.500 C 252.505 113.916,250.000 118.096,250.000 118.265 C 250.000 118.376,248.490 120.927,246.644 123.934 C 241.683 132.015,241.609 132.141,241.348 132.900 C 241.215 133.285,240.948 133.600,240.753 133.600 C 240.559 133.600,240.400 133.792,240.400 134.027 C 240.400 134.262,239.140 136.512,237.600 139.028 C 236.060 141.543,234.800 143.781,234.800 144.001 C 234.800 144.220,234.661 144.400,234.491 144.400 C 234.321 144.400,233.829 145.075,233.397 145.900 C 232.966 146.725,230.945 150.146,228.907 153.502 C 226.868 156.858,225.200 159.678,225.200 159.770 C 225.200 159.861,223.490 162.741,221.400 166.169 C 219.310 169.597,217.600 172.582,217.600 172.801 C 217.600 173.020,217.441 173.200,217.247 173.200 C 217.052 173.200,216.788 173.515,216.658 173.900 C 216.529 174.285,216.244 174.870,216.024 175.200 C 215.805 175.530,214.174 178.230,212.400 181.200 C 210.626 184.170,208.995 186.870,208.776 187.200 C 208.556 187.530,208.271 188.115,208.142 188.500 C 208.012 188.885,207.748 189.200,207.553 189.200 C 207.359 189.200,207.200 189.379,207.200 189.598 C 207.200 189.817,205.532 192.742,203.493 196.098 C 201.455 199.454,199.434 202.875,199.003 203.700 C 198.571 204.525,198.079 205.200,197.909 205.200 C 197.739 205.200,197.600 205.392,197.600 205.627 C 197.600 205.862,196.340 208.112,194.800 210.628 C 193.260 213.143,192.000 215.381,192.000 215.601 C 192.000 215.820,191.820 216.000,191.600 216.000 C 191.380 216.000,191.200 216.195,191.200 216.434 C 191.200 216.672,189.690 219.327,187.844 222.334 C 182.883 230.415,182.809 230.541,182.548 231.300 C 182.415 231.685,182.148 232.000,181.953 232.000 C 181.759 232.000,181.600 232.196,181.600 232.435 C 181.600 232.674,180.174 235.189,178.430 238.024 C 176.687 240.859,175.145 243.544,175.003 243.989 C 174.862 244.435,174.578 244.800,174.373 244.800 C 174.168 244.800,174.000 244.981,174.000 245.202 C 174.000 245.423,172.557 247.958,170.794 250.835 C 169.030 253.712,167.022 257.086,166.331 258.333 C 165.641 259.580,164.813 261.005,164.492 261.500 L 163.908 262.400 176.554 262.400 L 189.200 262.400 189.200 249.800 L 189.200 237.200 202.000 237.200 L 214.800 237.200 214.800 249.800 L 214.800 262.400 227.600 262.400 L 240.400 262.400 240.400 249.800 L 240.400 237.200 253.206 237.200 L 266.011 237.200 265.906 249.900 L 265.800 262.600 253.106 262.706 L 240.411 262.811 240.306 275.506 L 240.200 288.200 227.500 288.306 L 214.800 288.411 214.800 275.606 L 214.800 262.800 202.006 262.800 L 189.211 262.800 189.106 275.500 L 189.000 288.200 176.400 288.200 L 163.800 288.200 163.600 275.696 L 163.400 263.193 161.100 267.022 C 159.835 269.128,158.800 271.019,158.800 271.225 C 158.800 271.431,158.620 271.600,158.400 271.600 C 158.180 271.600,158.000 271.779,158.000 271.998 C 158.000 272.318,151.558 283.242,149.979 285.600 C 149.758 285.930,149.471 286.515,149.342 286.900 C 149.212 287.285,148.948 287.600,148.753 287.600 C 148.559 287.600,148.400 287.792,148.400 288.027 C 148.400 288.262,147.140 290.512,145.600 293.028 C 144.060 295.543,142.800 297.781,142.800 298.001 C 142.800 298.220,142.663 298.400,142.495 298.400 C 142.327 298.400,142.012 298.747,141.795 299.171 C 140.169 302.345,139.413 303.600,139.129 303.600 C 138.948 303.600,138.800 303.792,138.800 304.027 C 138.800 304.262,137.540 306.512,136.001 309.027 L 133.201 313.600 212.201 313.600 L 291.200 313.600 291.200 300.800 L 291.200 288.000 304.000 288.000 L 316.800 288.000 316.800 224.200 L 316.800 160.400 304.000 160.400 L 291.200 160.400 291.200 147.600 L 291.200 134.800 278.600 134.800 L 266.000 134.800 266.000 122.200 L 266.000 109.600 260.609 109.600 C 255.453 109.600,255.194 109.639,254.653 110.500 M265.906 198.700 L 266.011 211.600 253.006 211.600 L 240.000 211.600 240.000 198.867 C 240.000 191.863,240.122 186.011,240.272 185.861 C 240.422 185.711,246.227 185.636,253.172 185.694 L 265.800 185.800 265.906 198.700 " stroke="none" fill="#fbfbfb" fill-rule="evenodd"></path><path id="path3" d="M266.000 122.000 L 266.000 134.800 278.600 134.800 L 291.200 134.800 291.200 122.000 L 291.200 109.200 278.600 109.200 L 266.000 109.200 266.000 122.000 M112.800 122.206 L 112.800 134.811 125.300 134.706 L 137.800 134.600 137.906 122.100 L 138.011 109.600 125.406 109.600 L 112.800 109.600 112.800 122.206 M189.200 250.006 L 189.200 262.811 201.900 262.706 L 214.600 262.600 214.706 249.900 L 214.811 237.200 202.006 237.200 L 189.200 237.200 189.200 250.006 " stroke="none" fill="#fcacac" fill-rule="evenodd"></path><path id="path4" d="M188.800 1.200 C 188.800 1.420,189.160 1.600,189.600 1.600 C 190.040 1.600,190.400 1.420,190.400 1.200 C 190.400 0.980,190.040 0.800,189.600 0.800 C 189.160 0.800,188.800 0.980,188.800 1.200 M208.000 1.200 C 208.786 1.708,210.000 1.708,210.000 1.200 C 210.000 0.980,209.415 0.803,208.700 0.806 C 207.714 0.811,207.545 0.906,208.000 1.200 M173.200 2.800 C 171.816 3.091,171.814 3.095,173.000 3.141 C 173.660 3.167,174.470 3.013,174.800 2.800 C 175.466 2.370,175.245 2.370,173.200 2.800 M224.000 2.794 C 224.330 3.011,225.035 3.191,225.567 3.194 C 226.851 3.202,226.525 2.975,224.800 2.658 C 223.815 2.477,223.578 2.518,224.000 2.794 M255.015 9.225 C 255.262 9.625,257.200 9.949,257.200 9.590 C 257.200 9.425,256.670 9.213,256.021 9.118 C 255.373 9.023,254.920 9.071,255.015 9.225 M124.500 15.482 C 124.005 15.578,123.600 15.806,123.600 15.990 C 123.600 16.403,125.130 16.036,125.430 15.552 C 125.549 15.358,125.592 15.225,125.524 15.254 C 125.456 15.284,124.995 15.387,124.500 15.482 M273.406 15.610 C 273.672 16.040,275.200 16.380,275.200 16.009 C 275.200 15.835,274.755 15.608,274.212 15.504 C 273.669 15.401,273.306 15.448,273.406 15.610 M58.187 59.700 L 55.800 62.200 58.300 59.813 C 59.675 58.499,60.800 57.374,60.800 57.313 C 60.800 57.017,60.405 57.378,58.187 59.700 M265.778 71.000 C 265.779 78.040,265.833 80.864,265.899 77.275 C 265.966 73.686,265.966 67.926,265.899 64.475 C 265.833 61.024,265.778 63.960,265.778 71.000 M291.378 96.600 C 291.379 103.640,291.433 106.464,291.499 102.875 C 291.566 99.286,291.566 93.526,291.499 90.075 C 291.433 86.624,291.378 89.560,291.378 96.600 M12.304 130.588 C 12.201 131.131,12.248 131.494,12.410 131.394 C 12.840 131.128,13.180 129.600,12.809 129.600 C 12.635 129.600,12.408 130.045,12.304 130.588 M291.378 147.800 C 291.379 154.840,291.433 157.664,291.499 154.075 C 291.566 150.486,291.566 144.726,291.499 141.275 C 291.433 137.824,291.378 140.760,291.378 147.800 M9.200 139.376 C 9.200 140.602,9.428 140.701,9.716 139.600 C 9.831 139.161,9.762 138.700,9.562 138.577 C 9.363 138.454,9.200 138.813,9.200 139.376 M5.927 150.972 C 5.839 151.727,5.889 152.269,6.037 152.177 C 6.417 151.942,6.724 149.600,6.374 149.600 C 6.217 149.600,6.015 150.217,5.927 150.972 M2.752 166.313 C 2.621 167.107,2.679 167.481,2.901 167.259 C 3.103 167.057,3.201 166.467,3.119 165.946 C 2.993 165.145,2.937 165.202,2.752 166.313 M0.400 219.353 C 0.400 219.683,0.580 220.064,0.800 220.200 C 1.020 220.336,1.200 220.177,1.200 219.847 C 1.200 219.517,1.020 219.136,0.800 219.000 C 0.580 218.864,0.400 219.023,0.400 219.353 M138.400 249.800 L 138.400 262.400 151.043 262.400 C 162.407 262.400,163.661 262.336,163.443 261.767 C 163.309 261.419,163.200 255.749,163.200 249.167 L 163.200 237.200 150.800 237.200 L 138.400 237.200 138.400 249.800 M240.400 249.800 L 240.400 262.400 253.000 262.400 L 265.600 262.400 265.600 249.800 L 265.600 237.200 253.000 237.200 L 240.400 237.200 240.400 249.800 M6.000 250.576 C 6.000 251.113,6.147 251.644,6.328 251.755 C 6.508 251.867,6.577 251.427,6.482 250.779 C 6.272 249.349,6.000 249.235,6.000 250.576 M9.118 261.621 C 9.213 262.270,9.425 262.800,9.590 262.800 C 9.949 262.800,9.625 260.862,9.225 260.615 C 9.071 260.520,9.023 260.973,9.118 261.621 M163.911 275.400 L 164.022 288.000 176.411 288.000 L 188.800 288.000 188.800 275.400 L 188.800 262.800 176.300 262.800 L 163.800 262.800 163.911 275.400 M214.800 275.400 L 214.800 288.000 227.400 288.000 L 240.000 288.000 240.000 275.400 L 240.000 262.800 227.400 262.800 L 214.800 262.800 214.800 275.400 M12.304 270.612 C 12.408 271.155,12.635 271.600,12.809 271.600 C 13.180 271.600,12.840 270.072,12.410 269.806 C 12.248 269.706,12.201 270.069,12.304 270.612 M15.504 278.612 C 15.608 279.155,15.835 279.600,16.009 279.600 C 16.380 279.600,16.040 278.072,15.610 277.806 C 15.448 277.706,15.401 278.069,15.504 278.612 M67.925 288.299 C 71.514 288.366,77.274 288.366,80.725 288.299 C 84.176 288.233,81.240 288.178,74.200 288.178 C 67.160 288.179,64.336 288.233,67.925 288.299 M291.382 288.504 C 291.275 288.781,291.239 294.586,291.300 301.404 L 291.412 313.800 291.506 301.106 L 291.600 288.411 304.300 288.300 L 317.000 288.188 304.287 288.094 C 294.364 288.021,291.532 288.111,291.382 288.504 M93.525 313.899 C 97.114 313.966,102.874 313.966,106.325 313.899 C 109.776 313.833,106.840 313.778,99.800 313.778 C 92.760 313.779,89.936 313.833,93.525 313.899 M65.613 348.700 C 65.619 348.865,66.114 349.346,66.713 349.768 L 67.800 350.536 66.830 349.468 C 65.811 348.346,65.592 348.207,65.613 348.700 " stroke="none" fill="#bcbcbc" fill-rule="evenodd"></path><path id="path5" d="M185.490 1.276 C 185.216 1.450,185.838 1.590,186.900 1.594 C 187.945 1.597,188.800 1.414,188.800 1.187 C 188.800 0.725,186.250 0.794,185.490 1.276 M210.000 1.163 C 210.000 1.417,210.783 1.600,211.867 1.600 C 214.072 1.600,213.919 1.178,211.616 0.912 C 210.600 0.795,210.000 0.888,210.000 1.163 M178.200 2.000 C 178.056 2.233,178.463 2.400,179.176 2.400 C 179.849 2.400,180.400 2.220,180.400 2.000 C 180.400 1.780,179.961 1.600,179.424 1.600 C 178.887 1.600,178.336 1.780,178.200 2.000 M218.600 2.000 C 218.456 2.233,218.863 2.400,219.576 2.400 C 220.249 2.400,220.800 2.220,220.800 2.000 C 220.800 1.780,220.361 1.600,219.824 1.600 C 219.287 1.600,218.736 1.780,218.600 2.000 M168.000 3.200 C 168.000 3.420,168.450 3.600,169.000 3.600 C 169.550 3.600,170.000 3.420,170.000 3.200 C 170.000 2.980,169.550 2.800,169.000 2.800 C 168.450 2.800,168.000 2.980,168.000 3.200 M228.800 3.200 C 228.800 3.420,229.160 3.600,229.600 3.600 C 230.040 3.600,230.400 3.420,230.400 3.200 C 230.400 2.980,230.040 2.800,229.600 2.800 C 229.160 2.800,228.800 2.980,228.800 3.200 M164.000 4.000 C 163.531 4.303,163.634 4.389,164.476 4.394 C 165.068 4.397,165.664 4.220,165.800 4.000 C 166.116 3.489,164.790 3.489,164.000 4.000 M233.000 4.000 C 233.136 4.220,233.732 4.397,234.324 4.394 C 235.166 4.389,235.269 4.303,234.800 4.000 C 234.010 3.489,232.684 3.489,233.000 4.000 M160.662 4.500 C 160.923 4.924,162.400 4.875,162.400 4.442 C 162.400 4.246,161.967 4.111,161.438 4.142 C 160.909 4.174,160.560 4.335,160.662 4.500 M236.400 4.400 C 236.400 4.620,236.771 4.800,237.224 4.800 C 237.677 4.800,237.936 4.620,237.800 4.400 C 237.664 4.180,237.293 4.000,236.976 4.000 C 236.659 4.000,236.400 4.180,236.400 4.400 M158.000 5.200 C 158.000 5.420,158.270 5.600,158.600 5.600 C 158.930 5.600,159.200 5.420,159.200 5.200 C 159.200 4.980,158.930 4.800,158.600 4.800 C 158.270 4.800,158.000 4.980,158.000 5.200 M239.600 5.200 C 239.600 5.420,239.870 5.600,240.200 5.600 C 240.530 5.600,240.800 5.420,240.800 5.200 C 240.800 4.980,240.530 4.800,240.200 4.800 C 239.870 4.800,239.600 4.980,239.600 5.200 M152.000 6.400 C 152.000 6.620,152.270 6.800,152.600 6.800 C 152.930 6.800,153.200 6.620,153.200 6.400 C 153.200 6.180,152.930 6.000,152.600 6.000 C 152.270 6.000,152.000 6.180,152.000 6.400 M149.200 7.200 C 148.712 7.515,148.764 7.589,149.476 7.594 C 149.958 7.597,150.464 7.420,150.600 7.200 C 150.915 6.691,149.988 6.691,149.200 7.200 M248.200 7.200 C 248.336 7.420,248.842 7.597,249.324 7.594 C 250.036 7.589,250.088 7.515,249.600 7.200 C 248.812 6.691,247.885 6.691,248.200 7.200 M147.200 7.600 C 146.715 7.914,146.772 7.989,147.500 7.994 C 147.995 7.997,148.400 7.820,148.400 7.600 C 148.400 7.099,147.976 7.099,147.200 7.600 M250.400 7.625 C 250.400 7.831,250.760 8.000,251.200 8.000 C 251.640 8.000,252.000 7.858,252.000 7.685 C 252.000 7.512,251.640 7.343,251.200 7.310 C 250.760 7.277,250.400 7.419,250.400 7.625 M144.800 8.400 C 144.800 8.620,145.070 8.800,145.400 8.800 C 145.730 8.800,146.000 8.620,146.000 8.400 C 146.000 8.180,145.730 8.000,145.400 8.000 C 145.070 8.000,144.800 8.180,144.800 8.400 M140.400 9.600 C 140.400 9.820,140.670 10.000,141.000 10.000 C 141.330 10.000,141.600 9.820,141.600 9.600 C 141.600 9.380,141.330 9.200,141.000 9.200 C 140.670 9.200,140.400 9.380,140.400 9.600 M257.200 9.600 C 257.200 9.820,257.470 10.000,257.800 10.000 C 258.130 10.000,258.400 9.820,258.400 9.600 C 258.400 9.380,258.130 9.200,257.800 9.200 C 257.470 9.200,257.200 9.380,257.200 9.600 M136.852 10.679 C 136.255 11.133,136.259 11.176,136.900 11.187 C 137.285 11.194,137.600 11.037,137.600 10.837 C 137.600 10.638,137.940 10.564,138.355 10.672 C 138.770 10.781,139.230 10.675,139.377 10.438 C 139.743 9.844,137.690 10.040,136.852 10.679 M259.400 10.303 C 260.004 10.926,262.400 11.348,262.400 10.832 C 262.400 10.594,262.085 10.398,261.700 10.395 C 261.315 10.392,260.550 10.277,260.000 10.140 C 259.318 9.970,259.127 10.022,259.400 10.303 M130.800 12.800 C 130.800 13.020,131.070 13.200,131.400 13.200 C 131.730 13.200,132.000 13.020,132.000 12.800 C 132.000 12.580,131.730 12.400,131.400 12.400 C 131.070 12.400,130.800 12.580,130.800 12.800 M268.800 13.600 C 268.800 13.820,269.070 14.000,269.400 14.000 C 269.730 14.000,270.000 13.820,270.000 13.600 C 270.000 13.380,269.730 13.200,269.400 13.200 C 269.070 13.200,268.800 13.380,268.800 13.600 M120.700 16.676 C 119.611 16.960,119.877 17.513,121.000 17.298 C 121.550 17.193,122.000 16.948,122.000 16.753 C 122.000 16.384,121.851 16.375,120.700 16.676 M276.800 16.711 C 276.800 16.928,277.250 17.193,277.800 17.298 C 278.350 17.403,278.800 17.334,278.800 17.145 C 278.800 16.955,278.635 16.800,278.433 16.800 C 278.231 16.800,277.781 16.691,277.433 16.557 C 277.085 16.424,276.800 16.493,276.800 16.711 M118.000 18.000 C 118.000 18.220,118.270 18.400,118.600 18.400 C 118.930 18.400,119.200 18.220,119.200 18.000 C 119.200 17.780,118.930 17.600,118.600 17.600 C 118.270 17.600,118.000 17.780,118.000 18.000 M113.376 20.233 C 112.666 20.812,112.662 20.846,113.333 20.633 C 113.736 20.505,114.231 20.400,114.433 20.400 C 114.635 20.400,114.800 20.220,114.800 20.000 C 114.800 19.421,114.266 19.508,113.376 20.233 M284.000 20.055 C 284.000 20.245,284.165 20.400,284.367 20.400 C 284.569 20.400,285.019 20.509,285.367 20.643 C 285.715 20.776,286.000 20.707,286.000 20.489 C 286.000 20.272,285.550 20.007,285.000 19.902 C 284.450 19.797,284.000 19.866,284.000 20.055 M106.976 23.387 C 106.549 23.710,106.391 23.980,106.624 23.987 C 106.856 23.994,107.396 23.736,107.824 23.413 C 108.251 23.090,108.409 22.820,108.176 22.813 C 107.944 22.806,107.404 23.064,106.976 23.387 M290.976 23.367 C 291.866 24.092,292.400 24.179,292.400 23.600 C 292.400 23.380,292.235 23.200,292.033 23.200 C 291.831 23.200,291.336 23.095,290.933 22.967 C 290.262 22.754,290.266 22.788,290.976 23.367 M103.200 25.400 C 102.650 25.723,101.885 26.101,101.500 26.240 C 101.115 26.379,100.800 26.658,100.800 26.860 C 100.800 27.154,104.136 25.555,104.767 24.958 C 105.181 24.565,104.102 24.870,103.200 25.400 M296.971 26.609 C 297.395 26.929,297.840 27.094,297.959 26.974 C 298.210 26.723,297.194 26.009,296.600 26.019 C 296.380 26.022,296.547 26.288,296.971 26.609 M300.800 28.786 C 300.800 29.014,301.055 29.200,301.367 29.200 C 301.678 29.200,302.024 29.425,302.135 29.700 C 302.287 30.077,302.345 30.080,302.368 29.714 C 302.386 29.447,302.040 29.035,301.600 28.800 C 301.058 28.510,300.800 28.505,300.800 28.786 M92.600 31.634 C 91.940 32.060,91.085 32.518,90.700 32.651 C 90.315 32.784,90.000 33.052,90.000 33.247 C 90.000 33.797,90.650 33.663,91.200 33.000 C 91.474 32.670,91.918 32.400,92.187 32.400 C 92.456 32.400,93.002 32.040,93.400 31.600 C 94.281 30.626,94.151 30.632,92.600 31.634 M84.439 37.026 C 83.470 37.788,82.596 38.329,82.497 38.230 C 82.397 38.131,81.909 38.488,81.412 39.025 C 80.915 39.561,80.332 40.000,80.116 40.000 C 79.680 40.000,78.400 41.303,78.400 41.747 C 78.400 41.904,78.625 41.841,78.900 41.608 C 80.202 40.506,86.163 36.400,86.462 36.400 C 86.648 36.400,86.800 36.220,86.800 36.000 C 86.800 35.346,86.297 35.565,84.439 37.026 M76.137 43.200 C 75.549 43.860,74.828 44.400,74.534 44.400 C 74.240 44.400,74.000 44.568,74.000 44.773 C 74.000 44.978,73.637 45.261,73.194 45.402 C 72.751 45.543,72.492 45.826,72.620 46.032 C 72.749 46.240,73.118 46.139,73.454 45.803 C 73.786 45.471,74.179 45.197,74.329 45.194 C 74.844 45.182,78.199 42.012,77.703 42.006 C 77.430 42.003,76.725 42.540,76.137 43.200 M71.200 47.133 C 71.200 47.390,70.992 47.600,70.739 47.600 C 70.485 47.600,69.630 48.294,68.839 49.142 C 68.047 49.990,67.139 50.767,66.820 50.869 C 66.501 50.970,66.411 51.157,66.620 51.283 C 67.088 51.566,71.836 47.303,71.466 46.932 C 71.320 46.786,71.200 46.877,71.200 47.133 M63.426 53.826 C 61.399 55.853,60.954 56.400,61.332 56.400 C 61.405 56.400,62.440 55.501,63.632 54.402 C 64.824 53.304,65.935 52.404,66.100 52.402 C 66.265 52.401,66.400 52.220,66.400 52.000 C 66.400 51.168,65.582 51.670,63.426 53.826 M57.881 59.400 C 57.088 60.170,56.575 60.800,56.741 60.800 C 56.907 60.800,57.654 60.170,58.400 59.400 C 59.146 58.630,59.659 58.000,59.540 58.000 C 59.420 58.000,58.674 58.630,57.881 59.400 M112.667 58.267 C 112.520 58.413,112.400 64.171,112.400 71.061 L 112.400 83.589 99.700 83.694 L 87.000 83.800 86.996 109.200 L 86.991 134.600 87.099 109.306 L 87.206 84.011 99.903 83.906 L 112.600 83.800 112.706 71.106 L 112.811 58.411 125.306 58.300 L 137.800 58.188 125.367 58.094 C 118.528 58.042,112.813 58.120,112.667 58.267 M270.923 58.299 C 273.741 58.368,278.241 58.368,280.923 58.299 C 283.605 58.230,281.300 58.173,275.800 58.173 C 270.300 58.174,268.105 58.230,270.923 58.299 M53.012 64.300 C 51.358 66.005,50.004 67.527,50.003 67.681 C 50.001 67.836,49.220 68.736,48.267 69.681 C 47.314 70.627,46.209 71.940,45.811 72.600 C 44.923 74.070,46.987 72.005,50.200 68.208 C 51.300 66.908,53.145 64.878,54.300 63.696 C 55.455 62.514,56.400 61.469,56.400 61.374 C 56.400 60.909,55.788 61.438,53.012 64.300 M43.798 74.802 C 43.398 75.244,43.215 75.739,43.391 75.902 C 43.566 76.066,43.791 75.972,43.890 75.693 C 43.990 75.414,44.338 74.919,44.664 74.593 C 44.990 74.267,45.092 74.000,44.891 74.000 C 44.689 74.000,44.197 74.361,43.798 74.802 M41.700 77.488 C 40.888 78.425,40.550 79.200,40.953 79.200 C 41.036 79.200,41.586 78.570,42.173 77.800 C 43.405 76.184,43.039 75.942,41.700 77.488 M38.908 81.100 C 38.647 81.783,38.319 82.249,37.300 83.385 C 37.025 83.692,36.800 84.071,36.800 84.227 C 36.800 84.384,36.505 84.727,36.145 84.991 C 35.785 85.254,35.566 85.699,35.660 85.979 C 35.756 86.268,36.344 85.732,37.015 84.744 C 37.667 83.785,38.426 82.761,38.703 82.469 C 39.578 81.543,40.075 80.400,39.602 80.400 C 39.367 80.400,39.055 80.715,38.908 81.100 M144.500 83.899 C 147.965 83.966,153.635 83.966,157.100 83.899 C 160.565 83.833,157.730 83.778,150.800 83.778 C 143.870 83.778,141.035 83.833,144.500 83.899 M246.725 83.899 C 250.314 83.966,256.074 83.966,259.525 83.899 C 262.976 83.833,260.040 83.778,253.000 83.778 C 245.960 83.779,243.136 83.833,246.725 83.899 M33.064 89.600 C 32.674 90.260,32.533 90.800,32.750 90.800 C 32.968 90.800,33.260 90.440,33.400 90.000 C 33.540 89.560,33.822 89.200,34.027 89.200 C 34.232 89.200,34.400 89.020,34.400 88.800 C 34.400 88.031,33.767 88.410,33.064 89.600 M265.780 90.909 C 265.672 91.189,265.633 95.464,265.693 100.409 L 265.802 109.400 266.001 99.900 C 266.196 90.601,266.178 89.871,265.780 90.909 M31.600 91.813 C 31.600 92.149,31.330 92.529,31.000 92.655 C 30.333 92.911,30.171 94.000,30.800 94.000 C 31.020 94.000,31.200 93.752,31.200 93.449 C 31.200 93.146,31.470 92.674,31.800 92.400 C 32.486 91.831,32.591 91.200,32.000 91.200 C 31.780 91.200,31.600 91.476,31.600 91.813 M29.433 95.057 C 29.052 96.050,29.472 96.186,29.982 95.234 C 30.227 94.775,30.261 94.400,30.057 94.400 C 29.853 94.400,29.572 94.696,29.433 95.057 M28.400 96.951 C 28.400 97.254,28.130 97.726,27.800 98.000 C 27.114 98.569,27.009 99.200,27.600 99.200 C 27.820 99.200,28.000 98.952,28.000 98.649 C 28.000 98.346,28.270 97.874,28.600 97.600 C 29.286 97.031,29.391 96.400,28.800 96.400 C 28.580 96.400,28.400 96.648,28.400 96.951 M26.284 100.400 C 26.169 100.840,26.238 101.200,26.437 101.200 C 26.637 101.200,26.800 101.125,26.800 101.033 C 26.800 100.941,26.909 100.581,27.043 100.233 C 27.176 99.885,27.107 99.600,26.889 99.600 C 26.672 99.600,26.399 99.960,26.284 100.400 M23.232 105.939 C 22.708 106.920,22.690 107.200,23.153 107.200 C 23.517 107.200,24.087 105.554,23.817 105.283 C 23.733 105.200,23.470 105.495,23.232 105.939 M21.884 108.692 C 21.689 109.714,21.712 109.735,22.238 109.016 C 22.881 108.137,22.960 107.600,22.447 107.600 C 22.252 107.600,21.999 108.092,21.884 108.692 M183.330 109.500 C 193.852 109.559,210.952 109.559,221.330 109.500 C 231.709 109.441,223.100 109.392,202.200 109.392 C 181.300 109.392,172.809 109.441,183.330 109.500 M291.379 122.200 C 291.379 129.460,291.433 132.486,291.499 128.925 C 291.565 125.364,291.566 119.424,291.499 115.725 C 291.433 112.026,291.379 114.940,291.379 122.200 M112.578 122.200 C 112.579 129.240,112.633 132.064,112.699 128.475 C 112.766 124.886,112.766 119.126,112.699 115.675 C 112.633 112.224,112.578 115.160,112.578 122.200 M20.000 111.744 C 20.000 112.069,19.879 112.649,19.732 113.033 C 19.564 113.472,19.620 113.635,19.884 113.472 C 20.468 113.111,20.802 111.648,20.362 111.377 C 20.163 111.254,20.000 111.419,20.000 111.744 M18.684 115.092 C 18.489 116.114,18.512 116.135,19.038 115.416 C 19.681 114.537,19.760 114.000,19.247 114.000 C 19.052 114.000,18.799 114.492,18.684 115.092 M15.600 121.567 C 15.600 121.769,15.486 122.264,15.346 122.667 C 15.123 123.311,15.170 123.303,15.733 122.600 C 16.476 121.673,16.567 121.200,16.000 121.200 C 15.780 121.200,15.600 121.365,15.600 121.567 M13.600 126.600 C 13.368 127.211,13.268 127.801,13.378 127.911 C 13.488 128.021,13.768 127.611,14.000 127.000 C 14.232 126.389,14.332 125.799,14.222 125.689 C 14.112 125.579,13.832 125.989,13.600 126.600 M10.400 134.767 C 10.400 135.189,10.284 135.864,10.141 136.267 C 9.966 136.762,10.015 136.870,10.289 136.600 C 10.891 136.010,11.291 134.000,10.808 134.000 C 10.583 134.000,10.400 134.345,10.400 134.767 M61.396 211.600 C 61.396 253.730,61.443 270.965,61.500 249.900 C 61.557 228.835,61.557 194.365,61.500 173.300 C 61.443 152.235,61.396 169.470,61.396 211.600 M6.000 149.000 C 6.000 149.330,6.180 149.600,6.400 149.600 C 6.620 149.600,6.800 149.330,6.800 149.000 C 6.800 148.670,6.620 148.400,6.400 148.400 C 6.180 148.400,6.000 148.670,6.000 149.000 M3.888 158.933 C 3.442 160.066,3.515 160.645,4.038 160.122 C 4.278 159.882,4.408 159.351,4.326 158.942 C 4.182 158.226,4.166 158.226,3.888 158.933 M316.995 224.200 C 316.995 259.400,317.042 273.741,317.100 256.068 C 317.158 238.396,317.158 209.596,317.100 192.068 C 317.042 174.541,316.995 189.000,316.995 224.200 M2.800 163.000 C 2.800 163.330,2.980 163.600,3.200 163.600 C 3.420 163.600,3.600 163.330,3.600 163.000 C 3.600 162.670,3.420 162.400,3.200 162.400 C 2.980 162.400,2.800 162.670,2.800 163.000 M1.600 170.400 C 1.600 170.840,1.780 171.200,2.000 171.200 C 2.220 171.200,2.400 170.840,2.400 170.400 C 2.400 169.960,2.220 169.600,2.000 169.600 C 1.780 169.600,1.600 169.960,1.600 170.400 M0.900 174.600 C 0.900 175.150,1.057 175.600,1.250 175.600 C 1.443 175.600,1.600 175.150,1.600 174.600 C 1.600 174.050,1.443 173.600,1.250 173.600 C 1.057 173.600,0.900 174.050,0.900 174.600 M0.705 178.800 C 0.247 180.357,0.318 181.842,0.827 181.333 C 1.062 181.098,1.197 180.207,1.127 179.353 C 1.014 177.973,0.967 177.911,0.705 178.800 M0.114 188.200 C 0.117 189.300,0.195 189.703,0.287 189.095 C 0.379 188.486,0.377 187.586,0.282 187.095 C 0.187 186.603,0.111 187.100,0.114 188.200 M265.694 198.694 L 265.600 211.189 252.900 211.300 L 240.200 211.412 252.913 211.506 C 262.839 211.579,265.668 211.490,265.819 211.096 C 265.925 210.819,265.962 205.104,265.900 198.396 L 265.788 186.200 265.694 198.694 M0.120 213.200 C 0.120 214.410,0.195 214.905,0.287 214.300 C 0.378 213.695,0.378 212.705,0.287 212.100 C 0.195 211.495,0.120 211.990,0.120 213.200 M0.428 220.876 C 0.482 222.648,1.140 223.575,1.172 221.924 C 1.187 221.112,1.020 220.336,0.800 220.200 C 0.575 220.061,0.412 220.357,0.428 220.876 M0.806 225.900 C 0.824 226.777,1.588 227.359,1.594 226.500 C 1.597 226.005,1.420 225.600,1.200 225.600 C 0.980 225.600,0.803 225.735,0.806 225.900 M1.600 230.776 C 1.600 231.229,1.780 231.600,2.000 231.600 C 2.220 231.600,2.400 231.341,2.400 231.024 C 2.400 230.707,2.220 230.336,2.000 230.200 C 1.780 230.064,1.600 230.323,1.600 230.776 M163.294 249.276 C 163.207 260.673,163.380 262.928,164.234 261.545 C 164.414 261.254,164.350 261.183,164.068 261.358 C 163.731 261.566,163.582 258.416,163.500 249.320 L 163.388 237.000 163.294 249.276 M2.800 238.400 C 2.800 239.147,2.907 239.253,3.280 238.880 C 3.653 238.507,3.653 238.293,3.280 237.920 C 2.907 237.547,2.800 237.653,2.800 238.400 M3.606 241.276 C 3.618 242.281,4.387 243.108,4.394 242.124 C 4.397 241.642,4.220 241.136,4.000 241.000 C 3.780 240.864,3.603 240.988,3.606 241.276 M4.000 244.376 C 4.000 244.829,4.180 245.200,4.400 245.200 C 4.620 245.200,4.800 244.941,4.800 244.624 C 4.800 244.307,4.620 243.936,4.400 243.800 C 4.180 243.664,4.000 243.923,4.000 244.376 M6.000 252.153 C 6.000 252.483,6.180 252.864,6.400 253.000 C 6.620 253.136,6.800 252.977,6.800 252.647 C 6.800 252.317,6.620 251.936,6.400 251.800 C 6.180 251.664,6.000 251.823,6.000 252.153 M6.806 254.476 C 6.818 255.481,7.587 256.308,7.594 255.324 C 7.597 254.842,7.420 254.336,7.200 254.200 C 6.980 254.064,6.803 254.188,6.806 254.476 M8.000 259.000 C 8.000 259.330,8.180 259.600,8.400 259.600 C 8.620 259.600,8.800 259.330,8.800 259.000 C 8.800 258.670,8.620 258.400,8.400 258.400 C 8.180 258.400,8.000 258.670,8.000 259.000 M13.340 274.000 C 13.477 274.550,13.592 275.135,13.595 275.300 C 13.598 275.465,13.792 275.600,14.027 275.600 C 14.515 275.600,14.138 274.023,13.501 273.400 C 13.223 273.128,13.171 273.321,13.340 274.000 M14.400 277.000 C 14.400 277.330,14.580 277.600,14.800 277.600 C 15.020 277.600,15.200 277.330,15.200 277.000 C 15.200 276.670,15.020 276.400,14.800 276.400 C 14.580 276.400,14.400 276.670,14.400 277.000 M18.613 286.000 C 18.955 287.195,19.121 287.413,19.441 287.093 C 19.573 286.960,19.377 286.435,19.004 285.926 L 18.326 285.000 18.613 286.000 M19.770 288.678 C 19.825 289.051,20.065 289.422,20.303 289.501 C 20.563 289.588,20.651 289.316,20.522 288.823 C 20.264 287.835,19.629 287.713,19.770 288.678 M86.978 301.000 C 86.979 308.040,87.033 310.864,87.099 307.275 C 87.166 303.686,87.166 297.926,87.099 294.475 C 87.033 291.024,86.978 293.960,86.978 301.000 M21.813 292.400 C 22.155 293.595,22.321 293.813,22.641 293.493 C 22.773 293.360,22.577 292.835,22.204 292.326 L 21.526 291.400 21.813 292.400 M22.967 294.533 C 23.095 294.936,23.200 295.431,23.200 295.633 C 23.200 295.835,23.380 296.000,23.600 296.000 C 24.179 296.000,24.092 295.466,23.367 294.576 C 22.788 293.866,22.754 293.862,22.967 294.533 M26.384 300.800 C 26.620 301.350,26.918 302.103,27.046 302.472 C 27.174 302.842,27.546 303.247,27.872 303.372 C 28.299 303.536,28.215 303.181,27.569 302.100 C 26.405 300.153,25.841 299.534,26.384 300.800 M28.400 304.115 C 28.400 304.632,29.978 307.159,30.138 306.900 C 30.252 306.716,29.980 305.988,29.533 305.282 C 28.826 304.166,28.400 303.727,28.400 304.115 M30.400 307.800 C 30.400 308.130,30.570 308.400,30.778 308.400 C 31.151 308.400,32.138 309.939,32.637 311.300 C 32.778 311.685,33.067 312.000,33.280 312.000 C 33.760 312.000,33.709 311.887,32.065 309.300 C 30.647 307.068,30.400 306.845,30.400 307.800 M34.406 313.471 C 34.418 314.084,35.155 314.978,35.426 314.707 C 35.574 314.559,35.404 314.147,35.048 313.790 C 34.691 313.434,34.403 313.291,34.406 313.471 M172.732 313.900 C 194.584 313.957,230.224 313.957,251.932 313.900 C 273.639 313.843,255.760 313.796,212.200 313.796 C 168.640 313.796,150.879 313.843,172.732 313.900 M112.578 326.600 C 112.579 333.640,112.633 336.464,112.699 332.875 C 112.766 329.286,112.766 323.526,112.699 320.075 C 112.633 316.624,112.578 319.560,112.578 326.600 M35.692 315.675 C 35.779 315.936,36.064 316.221,36.325 316.308 C 36.618 316.406,36.707 316.223,36.557 315.833 C 36.278 315.106,35.452 314.955,35.692 315.675 M37.090 317.500 C 37.439 318.422,38.378 319.355,38.667 319.067 C 38.792 318.941,38.604 318.547,38.248 318.190 C 37.891 317.834,37.600 317.376,37.600 317.171 C 37.600 316.967,37.426 316.800,37.213 316.800 C 36.999 316.800,36.944 317.115,37.090 317.500 M38.800 319.971 C 38.800 320.466,39.953 321.600,40.457 321.600 C 40.677 321.600,40.574 321.317,40.229 320.971 C 39.883 320.626,39.600 320.176,39.600 319.971 C 39.600 319.767,39.420 319.600,39.200 319.600 C 38.980 319.600,38.800 319.767,38.800 319.971 M40.721 322.212 C 40.579 322.355,40.989 323.024,41.634 323.699 C 43.154 325.289,43.457 324.985,42.060 323.273 C 41.467 322.547,40.864 322.069,40.721 322.212 M43.200 325.597 C 43.200 325.815,43.740 326.509,44.400 327.140 C 45.060 327.771,45.600 328.420,45.600 328.583 C 45.600 328.996,49.162 332.571,49.368 332.366 C 49.459 332.274,48.784 331.375,47.867 330.368 C 45.464 327.728,44.000 325.894,44.000 325.523 C 44.000 325.345,43.820 325.200,43.600 325.200 C 43.380 325.200,43.200 325.378,43.200 325.597 M49.946 333.493 C 50.576 334.678,65.397 349.471,66.522 350.038 C 67.221 350.391,65.114 348.244,63.000 346.450 C 62.780 346.263,59.646 343.071,56.035 339.355 C 52.425 335.640,49.685 333.002,49.946 333.493 M67.600 350.598 C 67.600 351.056,70.002 353.328,71.410 354.202 C 72.376 354.802,72.291 354.645,70.958 353.370 C 68.334 350.861,67.600 350.255,67.600 350.598 M72.800 355.156 C 72.800 355.869,74.567 357.299,74.754 356.737 C 74.845 356.464,74.710 356.170,74.453 356.084 C 74.196 355.999,73.719 355.662,73.393 355.336 C 73.067 355.010,72.800 354.929,72.800 355.156 M75.200 357.078 C 75.200 357.299,75.772 357.912,76.472 358.440 C 77.171 358.968,78.188 359.805,78.730 360.300 C 79.786 361.263,80.400 361.447,80.400 360.800 C 80.400 360.580,80.248 360.400,80.061 360.400 C 79.875 360.400,79.290 360.043,78.761 359.607 C 78.233 359.171,77.613 358.676,77.384 358.507 C 77.155 358.338,76.570 357.857,76.084 357.438 C 75.598 357.019,75.200 356.857,75.200 357.078 M80.800 361.453 C 80.800 361.804,82.447 363.200,82.861 363.200 C 83.530 363.200,83.183 362.449,82.400 362.200 C 81.960 362.060,81.600 361.778,81.600 361.573 C 81.600 361.368,81.420 361.200,81.200 361.200 C 80.980 361.200,80.800 361.314,80.800 361.453 M83.692 363.675 C 83.891 364.273,84.800 364.602,84.800 364.076 C 84.800 363.861,84.515 363.576,84.167 363.443 C 83.777 363.293,83.594 363.382,83.692 363.675 M85.200 364.629 C 85.200 365.000,86.146 365.824,86.900 366.110 C 87.285 366.256,87.600 366.213,87.600 366.014 C 87.600 365.816,87.240 365.540,86.800 365.400 C 86.360 365.260,86.000 364.978,86.000 364.773 C 86.000 364.568,85.820 364.400,85.600 364.400 C 85.380 364.400,85.200 364.503,85.200 364.629 M88.000 366.800 C 88.000 367.020,88.248 367.200,88.551 367.200 C 88.854 367.200,89.326 367.470,89.600 367.800 C 90.169 368.486,90.800 368.591,90.800 368.000 C 90.800 367.780,90.552 367.600,90.249 367.600 C 89.946 367.600,89.474 367.330,89.200 367.000 C 88.631 366.314,88.000 366.209,88.000 366.800 M91.200 368.743 C 91.200 369.154,92.412 369.722,92.692 369.442 C 92.789 369.344,92.493 369.064,92.034 368.818 C 91.575 368.573,91.200 368.539,91.200 368.743 M93.200 369.922 C 93.200 370.114,93.695 370.520,94.300 370.823 C 95.983 371.667,96.276 371.713,95.400 370.996 C 94.204 370.017,93.200 369.527,93.200 369.922 M97.783 371.627 C 97.638 371.862,97.267 371.958,96.960 371.840 C 96.652 371.722,96.400 371.780,96.400 371.970 C 96.400 372.693,97.479 372.686,97.932 371.960 C 98.193 371.542,98.326 371.200,98.227 371.200 C 98.128 371.200,97.928 371.392,97.783 371.627 " stroke="none" fill="#a5a5a5" fill-rule="evenodd"></path><path id="path6" d="M285.867 57.467 C 285.173 58.161,285.821 58.400,288.394 58.400 L 291.189 58.400 291.294 71.100 L 291.400 83.800 304.100 83.906 L 316.800 84.011 316.800 109.606 L 316.800 135.200 329.700 135.106 L 342.600 135.012 329.903 134.900 L 317.206 134.789 317.103 109.294 L 317.000 83.800 304.306 83.694 L 291.611 83.589 291.506 70.894 L 291.400 58.200 288.688 58.081 C 287.098 58.012,286.073 57.805,286.211 57.581 C 286.482 57.144,286.263 57.071,285.867 57.467 M137.906 109.214 L 138.012 134.789 125.106 134.903 L 112.200 135.017 125.200 135.009 L 138.200 135.000 138.303 109.623 C 138.360 95.666,138.270 84.110,138.103 83.943 C 137.936 83.776,137.848 95.148,137.906 109.214 M265.660 87.100 C 265.627 88.915,265.735 90.400,265.900 90.401 C 266.065 90.401,266.149 89.366,266.087 88.101 C 265.890 84.087,265.722 83.693,265.660 87.100 M163.694 121.900 L 163.600 134.800 201.167 134.800 C 226.423 134.800,238.800 134.934,238.937 135.210 C 239.049 135.436,239.094 135.391,239.037 135.110 C 238.954 134.702,231.448 134.580,201.472 134.498 L 164.011 134.396 163.900 121.698 L 163.788 109.000 163.694 121.900 M240.085 121.300 C 240.038 127.845,240.135 133.200,240.300 133.200 C 240.465 133.201,240.554 129.736,240.498 125.500 C 240.302 110.811,240.169 109.461,240.085 121.300 M86.800 160.300 C 86.799 160.465,90.624 160.554,95.300 160.498 C 111.178 160.308,112.633 160.171,99.700 160.086 C 92.605 160.038,86.800 160.135,86.800 160.300 M138.000 198.800 L 138.000 211.600 150.800 211.600 L 163.600 211.600 163.600 198.800 L 163.600 186.000 150.800 186.000 L 138.000 186.000 138.000 198.800 M163.200 198.800 L 163.200 211.200 150.800 211.200 L 138.400 211.200 138.400 198.800 L 138.400 186.400 150.800 186.400 L 163.200 186.400 163.200 198.800 M144.300 237.099 C 147.875 237.166,153.725 237.166,157.300 237.099 C 160.875 237.033,157.950 236.979,150.800 236.979 C 143.650 236.979,140.725 237.033,144.300 237.099 M93.525 288.299 C 97.114 288.366,102.874 288.366,106.325 288.299 C 109.776 288.233,106.840 288.178,99.800 288.178 C 92.760 288.179,89.936 288.233,93.525 288.299 M317.067 288.267 C 316.920 288.413,316.800 294.171,316.800 301.061 L 316.800 313.589 304.100 313.694 L 291.400 313.800 291.391 326.500 L 291.383 339.200 291.497 326.606 L 291.611 314.011 304.306 313.906 L 317.000 313.800 317.106 301.106 L 317.211 288.411 329.906 288.300 L 342.600 288.188 329.967 288.094 C 323.018 288.042,317.213 288.120,317.067 288.267 M117.700 313.899 C 120.505 313.968,125.095 313.968,127.900 313.899 C 130.705 313.830,128.410 313.774,122.800 313.774 C 117.190 313.774,114.895 313.830,117.700 313.899 " stroke="none" fill="#525252" fill-rule="evenodd"></path><path id="path7" d="M183.362 1.261 C 183.080 1.717,184.850 1.683,185.584 1.218 C 186.007 0.951,185.810 0.859,184.870 0.886 C 184.156 0.906,183.477 1.075,183.362 1.261 M213.200 1.200 C 213.530 1.413,214.250 1.588,214.800 1.588 C 215.592 1.588,215.675 1.507,215.200 1.200 C 214.870 0.987,214.150 0.812,213.600 0.812 C 212.808 0.812,212.725 0.893,213.200 1.200 M176.600 2.000 C 176.464 2.220,176.713 2.400,177.153 2.400 C 177.593 2.400,178.064 2.220,178.200 2.000 C 178.336 1.780,178.087 1.600,177.647 1.600 C 177.207 1.600,176.736 1.780,176.600 2.000 M220.800 2.000 C 220.800 2.220,221.171 2.400,221.624 2.400 C 222.077 2.400,222.336 2.220,222.200 2.000 C 222.064 1.780,221.693 1.600,221.376 1.600 C 221.059 1.600,220.800 1.780,220.800 2.000 M156.800 5.200 C 156.800 5.420,157.070 5.600,157.400 5.600 C 157.730 5.600,158.000 5.420,158.000 5.200 C 158.000 4.980,157.730 4.800,157.400 4.800 C 157.070 4.800,156.800 4.980,156.800 5.200 M97.212 28.384 C 96.888 28.589,96.744 28.878,96.893 29.026 C 97.041 29.174,97.453 29.004,97.810 28.648 C 98.513 27.944,98.157 27.787,97.212 28.384 M74.800 43.800 C 74.522 44.135,74.479 44.400,74.702 44.400 C 74.922 44.400,75.326 44.130,75.600 43.800 C 75.878 43.465,75.921 43.200,75.698 43.200 C 75.478 43.200,75.074 43.470,74.800 43.800 M58.076 58.634 C 57.128 59.605,56.513 60.400,56.710 60.400 C 56.907 60.400,57.549 59.860,58.137 59.200 C 58.725 58.540,59.366 58.000,59.560 58.000 C 59.755 58.000,60.018 57.730,60.145 57.400 C 60.530 56.396,59.885 56.781,58.076 58.634 M137.686 70.876 C 137.638 77.848,137.735 83.636,137.900 83.739 C 138.065 83.841,138.154 80.117,138.098 75.462 C 137.908 59.679,137.771 58.160,137.686 70.876 M49.029 68.229 C 48.249 69.009,48.230 69.240,48.969 68.957 C 49.282 68.836,49.636 68.482,49.757 68.169 C 50.040 67.430,49.809 67.449,49.029 68.229 M163.378 96.400 C 163.378 103.330,163.433 106.165,163.499 102.700 C 163.566 99.235,163.566 93.565,163.499 90.100 C 163.433 86.635,163.378 89.470,163.378 96.400 M118.700 109.499 C 122.275 109.566,128.125 109.566,131.700 109.499 C 135.275 109.433,132.350 109.379,125.200 109.379 C 118.050 109.379,115.125 109.433,118.700 109.499 M67.900 135.099 C 71.475 135.166,77.325 135.166,80.900 135.099 C 84.475 135.033,81.550 134.979,74.400 134.979 C 67.250 134.979,64.325 135.033,67.900 135.099 M297.925 160.299 C 301.514 160.366,307.274 160.366,310.725 160.299 C 314.176 160.233,311.240 160.178,304.200 160.178 C 297.160 160.179,294.336 160.233,297.925 160.299 M1.600 169.000 C 1.600 169.330,1.780 169.600,2.000 169.600 C 2.220 169.600,2.400 169.330,2.400 169.000 C 2.400 168.670,2.220 168.400,2.000 168.400 C 1.780 168.400,1.600 168.670,1.600 169.000 M246.725 186.299 C 250.314 186.366,256.074 186.366,259.525 186.299 C 262.976 186.233,260.040 186.178,253.000 186.178 C 245.960 186.179,243.136 186.233,246.725 186.299 M0.812 227.000 C 0.812 227.440,0.987 228.070,1.200 228.400 C 1.521 228.897,1.588 228.862,1.588 228.200 C 1.588 227.760,1.413 227.130,1.200 226.800 C 0.879 226.303,0.812 226.338,0.812 227.000 M1.600 232.200 C 1.600 232.530,1.780 232.800,2.000 232.800 C 2.220 232.800,2.400 232.530,2.400 232.200 C 2.400 231.870,2.220 231.600,2.000 231.600 C 1.780 231.600,1.600 231.870,1.600 232.200 M138.178 249.800 C 138.179 256.840,138.233 259.664,138.299 256.075 C 138.366 252.486,138.366 246.726,138.299 243.275 C 138.233 239.824,138.178 242.760,138.178 249.800 M54.740 339.033 C 55.137 339.827,56.400 341.104,56.400 340.711 C 56.400 340.608,55.933 340.001,55.362 339.362 C 54.669 338.587,54.462 338.477,54.740 339.033 M56.800 341.007 C 56.800 341.444,60.131 344.830,61.000 345.276 C 61.498 345.532,61.347 345.253,60.600 344.536 C 59.940 343.903,58.815 342.790,58.100 342.062 C 57.385 341.334,56.800 340.859,56.800 341.007 M66.562 350.579 C 67.893 351.748,68.057 351.813,67.765 351.054 C 67.650 350.754,67.071 350.294,66.478 350.033 L 65.400 349.557 66.562 350.579 M71.483 354.769 C 72.431 355.660,72.800 355.799,72.800 355.264 C 72.800 355.080,72.305 354.705,71.700 354.433 L 70.600 353.937 71.483 354.769 " stroke="none" fill="#7c7c7c" fill-rule="evenodd"></path><path id="path8" d="M190.400 1.259 C 190.400 1.429,188.915 1.637,187.100 1.720 C 184.929 1.820,185.402 1.859,188.480 1.836 C 191.758 1.811,193.316 1.644,193.680 1.278 C 194.108 0.848,193.862 0.772,192.300 0.852 C 191.255 0.906,190.400 1.089,190.400 1.259 M205.119 1.259 C 205.491 1.647,206.961 1.814,210.319 1.849 L 215.000 1.899 211.600 1.573 C 209.730 1.393,207.390 1.127,206.400 0.982 C 204.894 0.761,204.685 0.806,205.119 1.259 M181.200 2.000 C 181.200 2.220,181.470 2.400,181.800 2.400 C 182.130 2.400,182.400 2.220,182.400 2.000 C 182.400 1.780,182.130 1.600,181.800 1.600 C 181.470 1.600,181.200 1.780,181.200 2.000 M216.200 2.000 C 216.336 2.220,216.707 2.400,217.024 2.400 C 217.341 2.400,217.600 2.220,217.600 2.000 C 217.600 1.780,217.229 1.600,216.776 1.600 C 216.323 1.600,216.064 1.780,216.200 2.000 M174.800 2.800 C 174.312 3.115,174.364 3.189,175.076 3.194 C 175.558 3.197,176.064 3.020,176.200 2.800 C 176.515 2.291,175.588 2.291,174.800 2.800 M222.600 2.800 C 222.736 3.020,223.242 3.197,223.724 3.194 C 224.436 3.189,224.488 3.115,224.000 2.800 C 223.212 2.291,222.285 2.291,222.600 2.800 M170.400 3.200 C 170.400 3.420,169.500 3.600,168.400 3.600 C 167.204 3.600,166.400 3.778,166.400 4.043 C 166.400 4.286,166.685 4.376,167.033 4.243 C 167.381 4.109,168.336 4.000,169.156 4.000 C 169.976 4.000,170.996 3.736,171.424 3.413 C 172.181 2.840,172.177 2.825,171.300 2.813 C 170.805 2.806,170.400 2.980,170.400 3.200 M227.200 3.365 C 228.375 3.991,232.400 4.437,232.400 3.941 C 232.400 3.754,231.500 3.600,230.400 3.600 C 229.300 3.600,228.400 3.420,228.400 3.200 C 228.400 2.980,227.905 2.807,227.300 2.816 L 226.200 2.832 227.200 3.365 M162.800 4.376 C 162.800 4.609,162.080 4.800,161.200 4.800 C 160.320 4.800,159.600 4.963,159.600 5.162 C 159.600 5.575,162.826 5.257,163.335 4.795 C 163.519 4.627,163.474 4.369,163.235 4.222 C 162.996 4.074,162.800 4.143,162.800 4.376 M235.200 4.413 C 235.200 4.891,235.637 5.053,237.700 5.341 C 238.525 5.456,239.200 5.381,239.200 5.175 C 239.200 4.969,238.480 4.800,237.600 4.800 C 236.720 4.800,236.000 4.620,236.000 4.400 C 236.000 4.180,235.820 4.000,235.600 4.000 C 235.380 4.000,235.200 4.186,235.200 4.413 M156.200 6.000 C 156.064 6.220,156.223 6.400,156.553 6.400 C 156.883 6.400,157.264 6.220,157.400 6.000 C 157.536 5.780,157.377 5.600,157.047 5.600 C 156.717 5.600,156.336 5.780,156.200 6.000 M241.400 6.000 C 241.536 6.220,241.917 6.400,242.247 6.400 C 242.577 6.400,242.736 6.220,242.600 6.000 C 242.464 5.780,242.083 5.600,241.753 5.600 C 241.423 5.600,241.264 5.780,241.400 6.000 M153.816 6.373 C 153.671 6.608,153.034 6.800,152.400 6.800 C 151.766 6.800,151.143 6.969,151.015 7.176 C 150.876 7.400,151.393 7.460,152.291 7.324 C 153.844 7.089,154.724 6.591,154.313 6.180 C 154.185 6.052,153.961 6.139,153.816 6.373 M244.483 6.399 C 244.675 7.027,247.600 7.720,247.600 7.137 C 247.600 6.952,247.096 6.800,246.480 6.800 C 245.864 6.800,245.122 6.575,244.830 6.300 C 244.402 5.897,244.335 5.916,244.483 6.399 M147.700 7.889 C 146.985 7.978,146.400 8.188,146.400 8.356 C 146.400 8.764,148.750 8.404,149.029 7.954 C 149.149 7.759,149.192 7.629,149.124 7.664 C 149.056 7.699,148.415 7.801,147.700 7.889 M249.268 7.771 C 249.698 8.250,252.400 8.756,252.400 8.358 C 252.400 8.161,251.965 8.000,251.433 8.000 C 250.901 8.000,250.136 7.881,249.733 7.736 C 249.330 7.591,249.121 7.607,249.268 7.771 M143.800 9.200 C 143.508 9.673,143.899 9.673,145.000 9.200 C 145.771 8.869,145.769 8.855,144.924 8.828 C 144.442 8.813,143.936 8.980,143.800 9.200 M253.800 9.200 C 254.901 9.673,255.292 9.673,255.000 9.200 C 254.864 8.980,254.358 8.813,253.876 8.828 C 253.031 8.855,253.029 8.869,253.800 9.200 M142.000 9.533 C 142.000 9.790,141.561 10.000,141.024 10.000 C 140.487 10.000,139.932 10.187,139.790 10.416 C 139.622 10.688,139.924 10.740,140.666 10.564 C 141.980 10.254,142.665 9.732,142.273 9.340 C 142.123 9.190,142.000 9.277,142.000 9.533 M256.687 10.016 C 257.197 10.474,259.292 10.872,259.038 10.462 C 258.913 10.259,258.262 10.012,257.592 9.914 C 256.923 9.815,256.516 9.861,256.687 10.016 M136.900 11.082 C 136.405 11.178,136.000 11.398,136.000 11.572 C 136.000 11.981,137.943 11.615,138.230 11.152 C 138.349 10.959,138.302 10.825,138.124 10.854 C 137.946 10.884,137.395 10.987,136.900 11.082 M260.615 11.225 C 260.862 11.625,262.800 11.949,262.800 11.590 C 262.800 11.425,262.270 11.213,261.621 11.118 C 260.973 11.023,260.520 11.071,260.615 11.225 M131.300 13.082 C 130.805 13.178,130.400 13.414,130.400 13.607 C 130.400 13.800,130.940 13.770,131.600 13.540 C 132.676 13.165,133.266 12.715,132.500 12.854 C 132.335 12.884,131.795 12.987,131.300 13.082 M266.128 13.084 C 266.456 13.614,268.400 14.008,268.400 13.545 C 268.400 13.355,268.145 13.200,267.833 13.200 C 267.521 13.200,266.951 13.079,266.567 12.932 C 266.128 12.763,265.965 12.820,266.128 13.084 M127.800 14.614 C 126.795 15.098,126.763 15.153,127.600 14.951 C 128.150 14.819,128.771 14.550,128.980 14.355 C 129.498 13.871,129.214 13.933,127.800 14.614 M123.300 16.282 C 122.805 16.378,122.400 16.606,122.400 16.790 C 122.400 17.203,123.930 16.836,124.230 16.352 C 124.349 16.158,124.392 16.025,124.324 16.054 C 124.256 16.084,123.795 16.187,123.300 16.282 M274.606 16.410 C 274.872 16.840,276.400 17.180,276.400 16.809 C 276.400 16.635,275.955 16.408,275.412 16.304 C 274.869 16.201,274.506 16.248,274.606 16.410 M115.700 19.612 C 115.205 19.811,114.800 20.070,114.800 20.187 C 114.800 20.575,115.437 20.408,116.224 19.813 C 117.108 19.143,116.985 19.096,115.700 19.612 M282.399 19.751 C 282.949 20.072,283.474 20.259,283.566 20.167 C 283.814 19.919,283.514 19.730,282.400 19.433 L 281.400 19.167 282.399 19.751 M284.570 20.752 C 284.690 20.945,285.195 21.206,285.694 21.332 C 286.568 21.552,286.573 21.540,285.824 20.980 C 284.964 20.338,284.232 20.204,284.570 20.752 M94.900 30.846 C 93.537 31.719,93.095 32.306,94.300 31.643 C 95.218 31.139,96.656 30.027,96.400 30.019 C 96.290 30.016,95.615 30.388,94.900 30.846 M91.400 33.010 C 90.520 33.552,90.070 33.990,90.400 33.984 C 90.730 33.977,91.540 33.529,92.200 32.988 C 93.718 31.743,93.444 31.751,91.400 33.010 M88.100 35.246 C 86.737 36.119,86.295 36.706,87.500 36.043 C 88.418 35.539,89.856 34.427,89.600 34.419 C 89.490 34.416,88.815 34.788,88.100 35.246 M76.300 43.835 C 75.035 44.842,74.000 45.751,74.000 45.856 C 74.000 45.961,75.080 45.216,76.400 44.200 C 78.470 42.607,79.116 41.991,78.700 42.003 C 78.645 42.005,77.565 42.829,76.300 43.835 M71.200 48.060 C 70.650 48.518,69.851 49.138,69.424 49.437 C 68.997 49.737,68.728 50.061,68.825 50.158 C 68.922 50.255,69.811 49.634,70.800 48.779 C 72.651 47.180,72.991 46.568,71.200 48.060 M66.574 52.107 L 65.000 53.799 66.596 52.399 C 67.473 51.630,68.268 50.955,68.362 50.900 C 68.456 50.845,68.447 50.713,68.341 50.607 C 68.235 50.501,67.440 51.176,66.574 52.107 M58.995 59.300 L 53.400 65.000 59.100 59.405 C 62.235 56.328,64.800 53.763,64.800 53.705 C 64.800 53.419,64.192 54.005,58.995 59.300 M138.178 71.000 C 138.179 78.040,138.233 80.864,138.299 77.275 C 138.366 73.686,138.366 67.926,138.299 64.475 C 138.233 61.024,138.178 63.960,138.178 71.000 M50.648 67.843 C 49.064 69.749,49.483 69.822,51.146 67.931 C 51.887 67.089,52.337 66.413,52.146 66.429 C 51.956 66.445,51.282 67.081,50.648 67.843 M47.832 71.113 L 47.064 72.200 48.132 71.230 C 49.254 70.211,49.393 69.992,48.900 70.013 C 48.735 70.019,48.254 70.514,47.832 71.113 M42.977 77.100 C 40.854 79.754,40.677 80.000,40.892 80.000 C 40.996 80.000,41.930 78.920,42.968 77.600 C 44.005 76.280,44.773 75.200,44.675 75.200 C 44.577 75.200,43.812 76.055,42.977 77.100 M240.178 96.200 C 240.179 103.240,240.233 106.064,240.299 102.475 C 240.366 98.886,240.366 93.126,240.299 89.675 C 240.233 86.224,240.178 89.160,240.178 96.200 M275.676 83.899 C 278.468 83.967,283.148 83.968,286.076 83.899 C 289.004 83.831,286.720 83.775,281.000 83.774 C 275.280 83.774,272.884 83.830,275.676 83.899 M34.363 88.718 C 34.025 89.112,33.625 89.787,33.473 90.218 C 33.207 90.976,33.218 90.975,33.828 90.200 C 35.135 88.542,35.587 87.289,34.363 88.718 M31.919 92.403 C 31.042 93.943,31.302 93.942,32.400 92.400 C 32.870 91.740,33.107 91.201,32.927 91.203 C 32.747 91.204,32.293 91.744,31.919 92.403 M22.814 107.974 C 22.307 108.921,22.284 109.319,22.752 109.030 C 23.105 108.812,23.655 107.200,23.377 107.200 C 23.295 107.200,23.042 107.548,22.814 107.974 M254.749 109.900 C 254.265 110.517,254.275 110.542,254.826 110.112 C 255.227 109.800,257.387 109.579,260.826 109.499 L 266.200 109.375 260.749 109.287 C 255.969 109.211,255.230 109.286,254.749 109.900 M16.379 121.455 C 16.158 122.036,16.052 122.585,16.143 122.676 C 16.233 122.767,16.499 122.292,16.733 121.620 C 17.253 120.128,16.939 119.982,16.379 121.455 M13.409 128.543 C 13.294 128.904,13.116 129.470,13.013 129.800 C 12.909 130.130,12.914 130.400,13.022 130.400 C 13.328 130.400,14.048 128.315,13.821 128.087 C 13.710 127.976,13.525 128.181,13.409 128.543 M11.200 134.167 C 11.200 134.479,11.079 135.049,10.932 135.433 C 10.763 135.872,10.820 136.035,11.084 135.872 C 11.614 135.544,12.008 133.600,11.545 133.600 C 11.355 133.600,11.200 133.855,11.200 134.167 M9.918 138.379 C 9.823 139.027,9.871 139.480,10.025 139.385 C 10.425 139.138,10.749 137.200,10.390 137.200 C 10.225 137.200,10.013 137.730,9.918 138.379 M9.000 141.200 C 8.850 141.673,8.817 142.150,8.927 142.260 C 9.037 142.370,9.250 142.073,9.400 141.600 C 9.550 141.127,9.583 140.650,9.473 140.540 C 9.363 140.430,9.150 140.727,9.000 141.200 M8.000 144.200 C 8.000 144.750,7.809 145.200,7.576 145.200 C 7.343 145.200,7.266 145.383,7.404 145.607 C 7.542 145.830,7.802 145.922,7.982 145.811 C 8.429 145.535,8.741 143.200,8.331 143.200 C 8.149 143.200,8.000 143.650,8.000 144.200 M6.727 148.972 C 6.639 149.727,6.689 150.269,6.837 150.177 C 7.217 149.942,7.524 147.600,7.174 147.600 C 7.017 147.600,6.815 148.217,6.727 148.972 M5.022 155.300 C 4.603 156.672,4.421 158.536,4.740 158.188 C 5.125 157.768,5.670 154.800,5.362 154.800 C 5.259 154.800,5.106 155.025,5.022 155.300 M3.600 162.367 C 3.600 163.228,3.393 164.002,3.140 164.087 C 2.887 164.171,2.767 164.501,2.873 164.819 C 3.022 165.266,3.159 165.217,3.477 164.599 C 4.070 163.447,4.417 160.800,3.975 160.800 C 3.769 160.800,3.600 161.505,3.600 162.367 M2.692 167.442 C 2.531 167.602,2.400 168.009,2.400 168.347 C 2.400 168.797,2.518 168.842,2.845 168.515 C 3.090 168.270,3.221 167.863,3.137 167.610 C 3.052 167.357,2.852 167.281,2.692 167.442 M1.600 174.000 C 1.600 175.333,1.422 176.400,1.200 176.400 C 0.980 176.400,0.800 176.670,0.800 177.000 C 0.800 177.725,1.562 177.803,1.780 177.100 C 2.149 175.911,2.292 171.600,1.962 171.600 C 1.763 171.600,1.600 172.680,1.600 174.000 M0.700 182.231 C 0.535 182.397,0.400 182.899,0.400 183.347 C 0.400 183.935,0.521 184.039,0.838 183.722 C 1.078 183.482,1.213 182.980,1.138 182.607 C 1.062 182.233,0.865 182.064,0.700 182.231 M0.479 187.641 C 0.436 188.874,0.315 191.034,0.211 192.441 L 0.022 195.000 0.428 193.056 C 0.651 191.987,0.772 189.827,0.696 188.256 C 0.570 185.633,0.552 185.583,0.479 187.641 M240.182 186.104 C 240.075 186.381,240.039 192.276,240.100 199.204 L 240.212 211.800 240.306 198.906 L 240.400 186.011 253.100 185.900 L 265.800 185.788 253.087 185.694 C 243.167 185.621,240.332 185.711,240.182 186.104 M0.295 210.800 C 0.413 213.330,0.576 215.475,0.655 215.567 C 0.946 215.901,0.744 209.354,0.416 207.800 C 0.199 206.770,0.156 207.838,0.295 210.800 M0.400 218.176 C 0.400 218.493,0.580 218.864,0.800 219.000 C 1.020 219.136,1.200 218.877,1.200 218.424 C 1.200 217.971,1.020 217.600,0.800 217.600 C 0.580 217.600,0.400 217.859,0.400 218.176 M0.800 223.976 C 0.800 224.183,0.980 224.464,1.200 224.600 C 1.420 224.736,1.600 225.917,1.600 227.224 C 1.600 228.531,1.754 229.600,1.941 229.600 C 2.268 229.600,2.160 226.392,1.770 224.500 C 1.592 223.633,0.800 223.206,0.800 223.976 M2.813 236.500 C 2.806 236.885,2.980 237.200,3.200 237.200 C 3.420 237.200,3.600 237.909,3.600 238.776 C 3.600 239.643,3.811 240.483,4.068 240.642 C 4.387 240.839,4.451 240.709,4.268 240.233 C 4.121 239.849,4.000 239.044,4.000 238.444 C 4.000 237.179,2.835 235.272,2.813 236.500 M265.694 249.700 L 265.600 262.400 239.900 262.494 C 225.765 262.546,220.005 262.639,227.100 262.700 L 240.000 262.811 240.000 275.400 L 240.000 287.989 227.400 288.103 L 214.800 288.217 227.500 288.209 L 240.200 288.200 240.306 275.500 L 240.411 262.800 253.018 262.800 C 262.787 262.800,265.669 262.687,265.818 262.296 C 265.925 262.019,265.961 256.214,265.900 249.396 L 265.788 237.000 265.694 249.700 M4.222 243.165 C 4.074 243.404,4.143 243.600,4.376 243.600 C 4.609 243.600,4.800 244.230,4.800 245.000 C 4.800 245.770,4.969 246.400,5.175 246.400 C 5.592 246.400,5.270 243.593,4.793 243.065 C 4.627 242.881,4.369 242.926,4.222 243.165 M5.612 248.000 C 5.612 248.330,5.787 248.870,6.000 249.200 C 6.345 249.733,6.388 249.733,6.388 249.200 C 6.388 248.870,6.213 248.330,6.000 248.000 C 5.655 247.467,5.612 247.467,5.612 248.000 M6.645 252.013 C 6.789 252.776,7.065 253.574,7.260 253.788 C 7.469 254.015,7.508 253.602,7.355 252.788 C 7.211 252.024,6.935 251.226,6.740 251.013 C 6.531 250.785,6.492 251.198,6.645 252.013 M7.845 256.413 C 7.989 257.176,8.265 257.974,8.460 258.188 C 8.669 258.415,8.708 258.002,8.555 257.188 C 8.411 256.424,8.135 255.626,7.940 255.413 C 7.731 255.185,7.692 255.598,7.845 256.413 M9.823 262.600 C 9.977 263.260,10.273 263.980,10.480 264.200 C 10.717 264.452,10.753 264.156,10.577 263.400 C 10.423 262.740,10.127 262.020,9.920 261.800 C 9.683 261.548,9.647 261.844,9.823 262.600 M163.749 262.100 C 163.557 262.375,163.490 268.360,163.600 275.400 L 163.800 288.200 176.400 288.200 L 189.000 288.200 189.106 275.300 L 189.211 262.400 176.582 262.400 C 168.264 262.400,164.037 262.263,164.200 262.000 C 164.558 261.420,164.162 261.508,163.749 262.100 M188.800 275.400 L 188.800 288.000 176.411 288.000 L 164.022 288.000 163.911 275.400 L 163.800 262.800 176.300 262.800 L 188.800 262.800 188.800 275.400 M11.046 266.200 C 11.188 266.860,11.480 267.580,11.697 267.800 C 11.955 268.063,11.989 267.857,11.797 267.200 C 11.323 265.585,10.751 264.823,11.046 266.200 M13.106 271.818 C 13.210 272.365,13.428 272.894,13.590 272.994 C 13.752 273.094,13.799 272.729,13.694 272.182 C 13.590 271.635,13.372 271.106,13.210 271.006 C 13.048 270.906,13.001 271.271,13.106 271.818 M14.000 274.300 C 14.000 274.491,14.261 274.996,14.580 275.424 C 15.140 276.173,15.152 276.168,14.932 275.294 C 14.704 274.391,14.000 273.640,14.000 274.300 M16.304 279.812 C 16.408 280.355,16.635 280.800,16.809 280.800 C 17.180 280.800,16.840 279.272,16.410 279.006 C 16.248 278.906,16.201 279.269,16.304 279.812 M16.966 282.055 C 16.785 282.348,16.850 282.416,17.138 282.238 C 17.409 282.071,17.600 282.201,17.600 282.553 C 17.600 282.883,17.763 283.254,17.963 283.377 C 18.162 283.500,18.230 283.238,18.114 282.794 C 17.848 281.775,17.341 281.449,16.966 282.055 M19.433 286.400 C 19.730 287.514,19.919 287.814,20.167 287.566 C 20.259 287.474,20.072 286.949,19.751 286.399 L 19.167 285.400 19.433 286.400 M23.600 294.700 C 23.600 294.891,23.861 295.396,24.180 295.824 C 24.740 296.573,24.752 296.568,24.532 295.694 C 24.304 294.791,23.600 294.040,23.600 294.700 M32.873 310.297 C 33.383 311.230,33.941 311.995,34.114 311.997 C 34.498 312.001,33.912 310.945,32.784 309.600 C 32.021 308.689,32.029 308.751,32.873 310.297 M35.447 314.100 C 36.111 315.227,41.213 322.000,41.399 322.000 C 41.509 322.000,40.229 320.110,38.553 317.800 C 35.925 314.175,34.474 312.447,35.447 314.100 M43.481 324.987 C 43.877 325.531,44.343 325.981,44.519 325.987 C 44.694 325.994,44.514 325.556,44.119 325.013 C 43.723 324.469,43.257 324.019,43.081 324.013 C 42.906 324.006,43.086 324.444,43.481 324.987 M46.168 328.100 C 47.009 329.145,47.777 330.000,47.875 330.000 C 48.192 330.000,46.517 327.826,45.563 327.000 C 45.055 326.560,45.328 327.055,46.168 328.100 M51.637 334.368 C 54.490 337.671,56.443 339.697,56.603 339.518 C 56.662 339.453,54.991 337.600,52.892 335.400 C 49.961 332.329,49.669 332.089,51.637 334.368 M113.507 339.490 C 114.226 339.579,115.306 339.577,115.907 339.486 C 116.508 339.395,115.920 339.322,114.600 339.324 C 113.280 339.326,112.788 339.401,113.507 339.490 M57.200 340.091 C 57.200 340.441,59.666 342.867,59.843 342.691 C 59.923 342.611,59.361 341.937,58.594 341.194 C 57.827 340.451,57.200 339.955,57.200 340.091 M60.400 343.304 C 60.400 343.618,62.013 345.198,65.941 348.732 C 67.733 350.345,69.200 351.560,69.200 351.431 C 69.200 351.303,68.435 350.524,67.500 349.700 C 66.565 348.876,64.585 347.047,63.100 345.635 C 61.615 344.224,60.400 343.174,60.400 343.304 M71.400 353.369 C 73.954 355.703,76.001 357.295,75.984 356.934 C 75.970 356.627,75.007 355.827,71.200 352.961 C 69.963 352.029,69.986 352.077,71.400 353.369 M78.000 358.594 C 78.000 358.708,79.665 360.032,81.700 361.536 C 85.464 364.317,88.124 366.086,87.400 365.327 C 86.731 364.626,78.000 358.372,78.000 358.594 M88.000 365.932 C 88.000 366.119,88.405 366.471,88.900 366.714 C 89.395 366.958,90.385 367.544,91.100 368.018 C 91.815 368.491,92.400 368.796,92.400 368.696 C 92.400 368.595,91.410 367.856,90.200 367.053 C 88.990 366.249,88.000 365.745,88.000 365.932 " stroke="none" fill="#c7c7c7" fill-rule="evenodd"></path></g></svg>
