<svg width="28" height="31" viewBox="0 0 28 31" fill="none" xmlns="http://www.w3.org/2000/svg">
<path d="M14.1511 0.0336956C14.315 0.0688027 14.4672 0.145908 14.5933 0.257638C17.6885 2.65702 21.2575 3.5208 25.0792 3.58478C26.9743 3.61677 27.1006 3.74474 27.0691 5.66424C27.0642 9.29923 26.8532 12.9309 26.4374 16.5414C26.2328 18.138 25.8839 19.7122 25.3951 21.2442C24.5423 23.7716 22.9315 25.6271 20.7206 27.0027C18.5097 28.3784 16.4883 29.4021 14.4985 30.7778C14.3164 30.9132 14.0977 30.9889 13.8718 30.9946C13.6459 31.0004 13.4237 30.9358 13.2351 30.8098C11.1822 29.4341 9.00284 28.2824 6.91827 27.0027C3.66509 25.0512 2.18062 22.012 1.54894 18.4289C1.06162 15.445 0.776692 12.4307 0.696161 9.40728C0.664577 9.18333 0.790914 8.9274 0.569824 8.76744V7.99964C0.617609 7.88302 0.642206 7.758 0.642206 7.63173C0.642206 7.50547 0.617609 7.38045 0.569824 7.26383V6.87993C0.696161 6.592 0.601409 6.27209 0.632993 5.98416V4.38457C0.75933 3.71275 1.04359 3.45681 1.8332 3.42482C3.06963 3.43516 4.30503 3.3496 5.52856 3.16889C8.06739 2.84518 10.4874 1.88888 12.5719 0.385605C12.8436 0.166119 13.1732 0.0325934 13.5194 0.00170388C13.7305 -0.00448958 13.9417 0.00620755 14.1511 0.0336956Z" fill="#3375BA"/>
<path d="M24.7638 9.31123C24.4795 12.7663 24.3532 16.2214 23.4688 19.6126C23.1961 20.767 22.6905 21.8518 21.9839 22.7988C21.2773 23.7457 20.3849 24.5344 19.3628 25.1151L14.1199 28.2183C13.9619 28.3143 13.8356 28.4103 13.6145 28.2823C11.6247 27.0666 9.6033 25.883 7.61348 24.6353C5.62367 23.3876 4.42347 20.9242 3.91812 18.4289C3.42977 15.8539 3.14461 13.2437 3.06534 10.6229C2.97059 9.24724 2.97059 7.83961 2.90742 6.46396C2.87584 6.04807 3.00218 5.88811 3.44436 5.88811C7.02617 5.84747 10.5219 4.77079 13.5198 2.78491C13.6014 2.70847 13.7086 2.66602 13.8198 2.66602C13.931 2.66602 14.0382 2.70847 14.1199 2.78491C17.1425 4.76787 20.6575 5.84374 24.2584 5.88811C24.669 5.88811 24.7953 6.01608 24.7953 6.43197C24.7638 7.39172 24.7638 8.35148 24.7638 9.31123Z" fill="#FEFEFE"/>
</svg>
