<svg width="256" height="256" viewBox="0 0 256 256" fill="none" xmlns="http://www.w3.org/2000/svg">
<path d="M128 256C198.692 256 256 198.692 256 128C256 57.3076 198.692 0 128 0C57.3076 0 0 57.3076 0 128C0 198.692 57.3076 256 128 256Z" fill="#00A478"/>
<path fill-rule="evenodd" clip-rule="evenodd" d="M109.806 109.216C74.3888 110.863 48 117.215 48 124.8C48 132.385 74.3888 138.737 109.806 140.384V202.667H145.765V140.404C181.398 138.788 208 132.416 208 124.8C208 117.215 181.611 110.863 146.194 109.216V83.3669H192V53.3335H64V82.9497H109.806V109.216ZM109.806 111.386V128H146.194V111.386C178.638 113.013 202.667 118.739 202.667 123.734C202.667 129.625 169.237 135.467 128 135.467C86.7628 135.467 53.3333 129.625 53.3333 123.734C53.3333 118.739 77.3622 113.013 109.806 111.386Z" fill="white"/>
</svg>
