<?xml version="1.0" encoding="utf-8"?>
<!DOCTYPE svg PUBLIC "-//W3C//DTD SVG 1.1//EN" "http://www.w3.org/Graphics/SVG/1.1/DTD/svg11.dtd">
<!-- exported from Silhouette Studio® Business Edition V4.4.259ssbe -->
<svg version="1.1" xmlns="http://www.w3.org/2000/svg" xmlns:xlink="http://www.w3.org/1999/xlink" width="304.8mm" height="304.8mm" viewBox="0 0 304.8 304.8">
<defs>
<path id="path_6d27c7ad59297f265a8b66d5495e42aa" d="M 181.2627 158.964 C 178.7264 159.0414 176.3703 159.1135 176.2571 159.1172 L 169.2028 159.3462 L 160.7379 159.5992 C 156.5373 159.7276 152.2739 159.8517 148.211 159.9772 L 125.3765 160.6891 C 125.2675 160.6923 125.2675 160.6914 119.9262 160.855 C 116.1461 160.971 112.7642 161.083 109.9788 161.1697 C 109.7323 161.1773 108.9777 161.2168 107.9786 161.2478 C 107.8429 159.4391 107.8575 157.3103 107.8152 154.7907 C 107.8138 154.698 107.7316 150.8983 107.7152 150.1569 C 107.6653 147.9193 107.6276 146.2414 107.6262 146.1615 L 107.4127 134.7636 C 107.4053 134.3747 107.3617 132.1714 107.2542 128.2836 C 98.73247 122.251 98.22368 124.2228 81.75016 114.4746 C 81.12515 115.5594 81.18939 116.4204 80.46665 116.6246 C 79.22842 116.9744 79.64063 115.7392 76.89177 113.7371 C 76.18797 113.2244 71.69743 109.4982 71.7374 108.6283 C 71.76351 108.0594 73.80949 105.0878 74.52484 103.6629 C 59.6366 98.07231 61.446 93.00713 59.84409 90.25942 C 54.63681 81.32661 48.17559 79.74065 46.82299 78.0833 C 45.85695 76.89983 44.8484 73.47491 51.21396 73.47491 C 51.21512 66.71934 59.49427 73.08536 63.86398 79.64454 C 64.15372 78.40308 63.90742 79.52901 64.16389 78.45622 C 61.08092 75.24826 61.92959 69.40165 66.55716 72.36678 C 72.05996 75.89268 70.25311 82.19815 74.66811 85.64595 C 74.79935 84.8904 74.9613 78.94097 78.328 81.57107 C 80.9886 83.64964 79.17229 89.1432 81.86754 91.51081 C 83.95235 90.00179 84.51219 86.10506 86.37565 86.45673 C 88.13675 86.78876 87.61157 91.49625 98.20335 95.57414 C 108.4208 99.50808 103.5148 97.09933 116.2027 98.57323 C 109.3815 92.26728 108.5937 80.78248 118.3335 76.55856 C 117.7753 74.25217 113.5451 76.67941 112.9416 76.44558 C 111.8356 76.0172 112.7376 74.40491 112.145 73.58928 C 111.3307 72.46889 109.0546 73.4264 108.8007 72.13919 C 108.5923 71.08258 111.2459 69.23275 112.016 65.15047 C 111.0773 65.21008 109.8612 65.37643 109.2732 64.79071 C 108.9723 64.49126 108.8381 63.68419 108.8767 63.43234 C 108.9712 62.81427 109.9901 61.6211 110.4698 60.74333 C 102.8829 57.51664 98.85793 49.66725 101.1872 49.31628 C 101.8885 49.21068 103.8903 50.78255 106.455 51.99328 C 104.9072 47.95814 105.0236 48.55611 105.0546 48.32228 C 105.1137 47.87311 105.8556 47.25088 106.2055 47.18503 C 107.0761 47.02121 110.9273 50.06697 112.0079 49.70745 C 112.202 49.64299 112.0579 49.68273 113.6658 47.76312 C 111.6706 47.66954 108.6877 47.82112 108.8809 46.33567 C 108.9583 45.73978 110.6001 44.79408 115.2968 42.432 C 112.663 40.1434 111.7531 39.252 112.2101 38.33309 C 112.9511 36.84325 119.0004 37.5854 122.1097 35.14615 C 127.3165 31.06133 138.0698 24.71125 153.2755 24.02941 C 165.0392 23.50191 172.0013 26.87577 175.3093 29.25749 C 182.9223 34.7388 181.9552 41.68338 181.1867 44.94426 C 187.0732 52.03787 181.2507 60.88449 183.0852 64.89307 C 184.1333 64.89307 192.9517 65.07814 193.5095 65.96516 C 193.5627 66.0495 193.7856 68.94762 194.1842 70.89957 C 194.3716 71.81709 194.8459 73.02666 194.1595 73.82611 C 193.6923 74.37002 192.3455 74.31086 191.8196 74.31571 C 192.9263 81.69884 189.8993 85.60042 185.2994 87.74831 C 185.4854 88.82941 185.6938 97.78302 177.9623 104.497 C 178.8983 106.4339 188.8614 107.3124 195.6733 107.2676 C 203.8994 107.2135 208.9409 106.2456 213.8252 102.7907 C 213.7769 101.5585 213.4611 101.5331 213.6399 101.088 C 213.7605 100.7879 217.7502 98.48335 218.3943 98.54435 C 219.1605 98.61667 220.0055 100.4573 221.4664 102.2449 C 224.393 98.7486 223.3019 91.69081 225.7264 90.31787 C 229.2084 88.34606 229.557 93.99164 229.6991 95.40455 C 232.7608 92.533 232.0732 91.22893 234.3202 86.54267 C 235.9521 83.13876 238.8889 81.17688 240.6449 81.8689 C 242.8117 82.72288 241.501 86.11082 240.2639 88.70858 C 240.3115 88.80678 240.4547 89.10137 240.7408 89.69056 C 244.8799 84.75616 251.339 79.34369 252.3605 84.13092 C 258.3737 83.52232 259.5158 87.18015 256.1542 88.83589 C 250.6703 91.53715 252.4185 89.78899 245.6253 98.88538 C 239.408 107.2105 241.5806 105.2586 240.0679 106.7389 C 235.9376 110.7801 232.9396 111.4987 229.9569 114.1937 C 232.0914 117.2124 233.7567 118.9157 233.764 119.0387 C 233.7938 119.526 225.4239 127.0949 224.0932 126.483 C 223.6309 126.2705 223.6753 126.0835 223.2407 125.355 C 205.7678 136.6585 191.1684 138.0533 183.6804 138.2876 C 183.7062 144.7713 183.8015 146.741 183.145 150.2826 C 182.7518 152.4053 182.2053 157.3908 181.2619 158.9631 L 181.2627 158.964 Z M 124.67 158.8968 L 132.2165 158.6546 L 141.3799 158.3822 C 141.9201 158.3661 145.7902 158.233 145.8801 158.2293 C 147.5728 158.1611 147.5335 158.1422 147.802 158.1193 C 147.3799 157.5675 146.7163 156.763 144.1017 153.6664 C 144.0208 153.5707 140.5361 149.4626 140.049 148.89 C 139.9249 148.7442 135.5776 143.649 133.8364 141.613 L 125.725 132.1284 L 120.9602 126.5389 C 118.8913 124.1122 118.687 123.819 118.7587 123.446 C 118.8964 122.7286 122.478 120.6119 124.5336 118.971 C 121.7092 118.2674 120.4645 118.7575 120.136 117.8125 C 120.0849 117.6655 120.6431 112.0811 120.8791 110.0738 C 121.9627 100.8542 122.4863 101.3165 122.0133 101.0437 C 121.3909 100.6846 120.916 102.2535 118.4858 107.3039 C 116.2378 111.9751 116.6062 111.211 116.4428 111.5507 L 111.3799 122.0468 C 109.7991 125.325 109.2455 126.4842 109.0604 126.8703 C 109.1891 132.4117 109.1817 132.0921 109.184 132.1986 C 109.2036 133.0792 109.352 140.1236 109.501 146.8743 C 109.5084 147.2057 109.6059 151.6248 109.6228 152.3981 C 109.6309 152.769 109.7531 158.4564 109.7545 158.58 L 109.7545 159.3792 C 111.2196 159.3212 111.5953 159.3062 111.6329 159.3048 C 111.7468 159.3007 117.0967 159.1294 117.3243 159.1225 L 124.67 158.8968 Z M 167.4535 157.5523 L 178.4921 157.2253 C 178.5205 157.2246 178.4921 157.2239 179.9147 157.1602 C 182.253 151.1352 181.8828 138.6347 181.8819 138.2546 C 176.6832 132.3467 176.4939 109.8783 176.2569 105.9506 C 175.6903 106.2831 176.2405 105.9251 174.411 107.1285 C 174.7421 112.8441 174.4274 120.6937 173.9942 121.4352 C 173.6282 122.0616 173.2677 121.5849 169.8114 123.184 C 172.2026 124.0017 173.4267 123.529 173.9154 124.6468 C 174.5454 126.0877 169.5082 135.2924 164.7356 142.0295 C 160.2138 148.4124 152.9497 155.8161 151.6341 157.9069 C 151.791 157.9349 151.2371 158.0453 155.62 157.9277 C 155.7189 157.9252 160.3589 157.7829 160.5563 157.7766 C 161.5218 157.7461 166.6256 157.5765 167.4535 157.5523 Z M 167.0727 123.4576 C 166.9495 122.1191 170.5233 121.105 172.3086 120.3076 C 173.2998 112.6449 172.8671 109.1916 172.6949 108.2412 C 172.4026 108.2814 166.5413 110.3103 165.7157 110.6299 C 157.7785 140.7255 155.4298 128.4636 151.1262 155.4746 C 158.4444 146.3461 169.0177 136.0106 171.9953 125.4539 C 170.2409 125.0253 167.17 124.5156 167.0727 123.4576 Z M 152.7912 138.0877 C 152.7168 137.9001 152.6734 137.7014 150.1017 128.3566 C 150.0902 128.3146 149.8131 127.3051 149.5248 126.2534 C 149.0717 126.2534 148.3924 126.2534 147.2597 126.2534 L 146.9635 127.179 C 146.9233 127.301 145.1987 132.4128 144.9104 133.2645 C 143.8875 136.2844 143.1698 138.3719 142.9367 139.0697 C 142.8526 139.3214 142.7828 139.4242 142.7849 139.6012 C 142.796 140.5055 145.2066 143.2486 147.0608 147.5705 C 148.6262 151.2191 148.6971 153.4869 149.4196 154.832 C 149.8443 153.4429 149.6498 152.5749 150.8529 146.8903 C 152.3282 139.9198 153.1865 139.384 153.0992 138.7111 C 153.0634 138.4353 153.007 138.6305 152.7912 138.0877 Z M 140.8743 140.219 C 139.6657 138.1448 129.1769 122.6842 131.8362 101.2428 C 131.6074 101.0194 130.0059 99.45538 129.5482 99.00852 C 124.767 101.9905 124.4604 100.9411 124.0357 101.3641 C 123.6002 101.7983 121.9042 116.1512 122.2792 116.6387 C 122.6399 117.1075 127.6187 116.9164 127.9955 118.162 C 128.4059 119.5193 126.731 119.135 121.0912 123.7171 C 121.6887 124.6108 124.1328 127.4791 125.3507 128.913 C 126.7869 130.6037 125.6915 129.3165 128.7823 132.9278 C 131.3983 135.9845 141.3494 147.591 141.8732 148.2017 L 142.4425 148.8653 C 142.8316 149.3191 146.26 153.3097 146.339 153.3995 C 147.1299 154.3002 147.0594 154.1703 147.1632 154.2701 C 145.8774 148.4025 144.117 145.7643 143.2519 144.2821 C 142.4924 142.981 141.3013 140.9508 140.8743 140.219 Z M 145.6742 125.502 L 145.7121 125.3439 C 145.7486 124.9241 144.281 120.9308 144.022 120.3541 C 142.9319 122.2155 142.0465 125.2434 141.5169 125.4477 C 140.1842 125.9622 135.1811 119.6265 134.2451 118.2887 C 134.8105 124.8559 139.3403 134.5607 141.5213 137.5591 C 141.6363 137.2858 141.7812 136.917 142.0897 136.0122 L 145.6742 125.502 Z M 221.6238 121.3642 L 215.3724 106.2297 C 214.5831 104.3189 215.0665 105.4203 214.6575 104.4915 C 210.7034 106.4295 200.1105 112.6149 178.0513 107.0471 C 178.0513 119.5981 180.7525 132.847 182.6538 136.5734 C 197.7533 136.5556 216.285 129.118 222.5029 123.4872 C 221.6226 121.3647 222.0272 122.3412 221.6238 121.3642 Z M 154.9314 125.239 C 154.23 124.8023 154.3725 123.1071 153.8316 120.782 C 153.1851 121.7392 152.4321 123.4407 151.245 125.9458 C 154.3875 137.0815 153.9508 135.6552 154.2246 136.2368 C 155.7919 133.5288 159.3127 124.5172 159.3968 124.2704 C 158.4943 124.4149 155.7073 125.7217 154.9314 125.239 Z M 116.9615 106.3048 L 119.7945 100.4531 C 105.9148 99.34632 102.7632 101.7181 89.18526 92.42161 C 88.67418 93.59121 87.1 98.22871 85.67924 102.4644 L 82.29475 112.5529 C 89.68967 117.8924 100.857 121.5052 107.3425 126.1565 C 108.1948 124.3927 113.8885 112.6398 114.4585 111.4649 C 116.8116 106.6144 116.5611 107.1303 116.9615 106.3048 Z M 153.3494 117.3353 C 152.267 110.2981 152.4758 111.5751 152.3487 110.9404 C 151.0994 110.6384 149.3889 110.2849 148.634 110.2406 C 148.135 110.936 145.2445 117.541 145.0804 118.0276 C 145.0899 118.0601 145.0335 118.0082 145.6211 119.6343 C 145.6523 119.7205 147.018 123.4109 147.2096 123.9255 L 147.4515 124.5706 C 148.7863 124.5706 148.9007 124.5334 150.1082 124.3109 C 151.2126 121.9403 152.0116 120.276 153.3494 117.3353 Z M 230 117.2977 L 222.3396 106.6146 C 222.283 106.5358 219.74 102.9813 219.5129 102.6661 C 218.0977 100.7028 218.2816 100.9877 218.0704 100.7227 C 216.8955 101.0589 217.417 101.0323 215.508 101.7934 C 216.2529 103.4032 217.0189 105.3914 218.9004 109.9875 L 223.125 120.3072 C 224.664 124.066 224.7749 124.2159 224.8955 124.4583 C 226.3514 123.3481 230.5811 119.8263 231.2537 119.0879 C 231.2299 119.0511 231.2743 119.0733 230 117.2977 Z M 154.1346 111.1021 C 155.2639 117.9906 155.7924 121.9465 156.0812 123.4144 C 158.5761 122.5944 162.5986 123.7716 163.7155 110.9806 C 163.1406 110.9933 156.9643 111.6079 154.1346 111.1021 Z M 145.0952 113.6391 C 146.8765 109.6862 146.7632 109.7311 146.7909 109.649 C 133.6938 104.356 136.6931 104.308 133.4413 102.7477 C 132.6099 111.3676 132.838 115.7674 140.7902 123.1124 C 141.1477 122.4213 140.8071 123.12 142.2602 119.8959 C 142.3732 119.6454 144.9823 113.8896 145.0952 113.6391 Z M 87.70074 90.81092 C 85.87195 88.8793 87.5337 90.66768 85.93387 88.75037 C 85.85831 88.84927 85.89321 88.72427 85.07666 90.04798 C 84.98215 90.20117 83.48054 92.66167 82.72823 93.89066 C 82.44333 94.35623 80.87331 96.91586 80.34951 97.76868 C 77.63231 102.1915 77.68661 102.1033 77.63231 102.1915 C 76.04866 104.7645 74.92828 106.5714 74.6956 106.9538 C 73.67503 108.6326 73.74389 108.5361 73.77577 108.6897 C 73.80859 108.8473 79.34627 113.1195 79.89618 113.9132 C 80.25801 112.9732 81.06671 110.5878 81.08958 110.5197 L 83.84029 102.3614 L 87.70074 90.81092 Z M 227.9052 109.2858 C 226.597 109.5894 226.3288 106.7479 228.4706 105.1271 C 230.3214 103.7267 237.1093 101.4323 236.4224 99.62428 C 235.6008 97.46207 232.1345 98.98079 231.6714 97.97617 C 231.1647 96.87589 233.351 95.69843 236.2604 97.17186 C 235.4644 92.02974 233.9376 87.75707 238.9358 87.52948 C 239.9543 85.06089 240.2882 83.74458 239.9612 83.48488 C 239.6967 83.27485 236.9182 83.70969 234.7017 90.09072 C 232.2287 97.21069 230.0168 96.93757 229.4787 97.93179 C 228.804 99.17834 231.0506 101.1966 230.2347 102.0314 C 226.7592 105.5871 228.9828 91.31646 226.661 91.8301 C 224.176 92.37978 227.6088 96.22408 222.581 103.8838 C 223.7511 105.5145 224.7862 106.9573 224.8313 107.0199 C 226.8461 109.833 227.7218 111.0679 227.9759 111.418 C 228.9891 112.8138 228.8283 112.5358 228.9547 112.68 C 236.4827 106.5441 239.8582 107.5333 241.4989 99.79201 C 242.1782 96.5875 240.3755 97.3158 239.6592 94.2393 C 239.1146 91.90034 239.3868 89.30605 238.1352 89.24621 C 235.0608 89.09926 240.0631 99.09792 237.1985 102.0362 C 235.5647 103.7121 230.8202 105.442 229.4334 106.5901 C 228.1919 107.6176 228.871 109.0619 227.9052 109.2858 Z M 167.1612 76.38502 C 166.1092 78.82381 164.7083 92.41352 151.437 91.96019 C 147.5904 91.82872 143.6721 89.09326 141.3175 85.45969 C 138.0989 80.49271 138.7918 76.97491 138.277 76.4109 C 137.9517 76.05438 134.5725 75.8462 134.3311 75.63386 C 133.99 75.33418 133.9346 74.16575 133.8278 73.1625 C 131.8172 73.23782 131.896 73.23458 131.8565 73.23621 C 131.2162 73.26185 127.8331 73.41042 127.2843 73.43214 C 120.4118 73.7041 121.3483 73.3046 119.2882 73.58694 C 120.1512 76.91275 120.9925 77.72884 120.9239 78.21497 C 120.6602 80.08513 116.7755 76.18123 114.172 82.25727 C 111.7092 88.00499 113.364 94.74902 117.9562 97.42532 C 126.5995 102.4623 127.8294 96.03345 130.1406 96.81534 C 131.0133 97.11063 132.3918 101.4022 142.4466 106.0021 C 147.5211 108.3237 154.5862 110.1798 162.1054 109.277 C 181.9098 106.899 183.2892 91.6173 183.5702 88.00153 C 172.3116 87.9939 169.5584 76.11167 167.1612 76.38502 Z M 66.46956 78.07403 C 64.73618 80.31133 67.76648 77.50194 62.03678 88.01585 C 61.04578 89.83448 62.50837 94.51797 65.53726 96.75573 C 66.98505 97.82551 74.62395 102.2955 75.48094 102.0201 C 75.80442 101.9161 76.62512 100.353 76.61726 100.2257 C 76.46315 97.6714 69.61053 94.99648 68.07494 93.84536 C 61.22533 88.71087 69.27341 81.51489 66.46956 78.07403 Z M 242.1038 95.35854 C 242.8619 96.49002 243.3166 97.1982 243.3275 98.93874 C 245.2059 96.81604 247.1754 92.83474 250.7681 89.76725 C 253.3462 87.56576 256.2152 87.55976 256.09 86.43684 C 255.8629 84.40309 250.511 86.72587 249.3413 87.42828 C 246.58 89.08656 244.0193 93.32804 242.1038 95.35854 Z M 77.00774 82.88344 C 75.78083 84.09995 77.07313 87.60204 76.18103 90.03527 C 75.43819 92.06093 74.25172 92.62817 73.76212 91.80377 C 73.31271 91.04752 74.54215 90.40659 74.79146 87.94031 C 68.32101 83.40031 69.67984 73.43423 64.29095 73.36421 C 64.27223 73.43353 63.64053 73.57355 65.06082 76.87278 C 70.92476 74.41089 67.06776 86.84627 67.02132 87.0482 C 70.0687 86.95947 73.21243 86.9165 71.62 88.78967 C 71.39034 88.81115 71.99662 88.93731 67.77872 88.63554 C 65.04695 92.18524 73.35916 93.00409 77.77461 98.43412 C 78.28963 97.75782 80.46339 94.23423 80.93312 93.24717 C 76.10338 85.54958 79.49666 84.33493 77.00774 82.88344 Z M 241.1077 92.02188 C 241.0453 92.1693 241.0301 92.72105 241.2944 93.61015 C 242.9192 92.23492 244.5807 88.87583 247.0763 86.88414 C 249.0146 85.33723 251.3956 84.81737 250.5077 84.08446 C 249.3689 83.14499 241.8741 90.20856 241.1077 92.02188 Z M 140.47 77.87949 C 138.3953 79.41439 145.7588 87.16164 147.4598 88.29659 C 148.2898 88.85043 155.0373 92.17784 154.5966 89.22427 C 154.3919 87.85157 151.818 89.36291 147.5881 86.01053 C 143.3535 82.65445 141.6862 76.97953 140.47 77.87949 Z M 47.96231 76.32079 C 48.01476 78.96128 49.89763 74.93561 60.16732 87.43452 C 60.31936 87.24459 60.04856 87.72104 61.89469 84.93313 C 58.84338 82.73833 57.75673 79.69557 53.62177 76.5955 C 50.81099 74.48828 47.93528 74.96126 47.96231 76.32079 Z M 171.2277 75.46635 C 170.6457 76.0828 170.5424 78.65144 175.0138 83.05234 C 177.7525 85.7476 183.5136 87.22772 184.7252 85.86958 C 184.4283 83.86887 181.3851 85.24921 177.5388 82.88991 C 174.0503 80.75011 172.4091 76.14819 171.2277 75.46635 Z M 53.06424 72.46448 C 52.98014 73.44785 53.30153 74.17892 53.32093 74.20825 C 53.60236 74.63294 54.57256 74.55783 58.13774 78.37186 C 60.10078 80.47192 61.24035 82.25982 62.77894 83.40216 C 63.20431 82.56689 63.30759 82.07266 63.27339 81.92039 C 63.15162 81.37718 56.68256 72.44183 53.06424 72.46448 Z M 114.2464 74.25584 C 114.376 74.2607 113.9453 74.45732 117.4733 73.91966 C 116.7256 72.05228 114.3906 74.12507 114.2464 74.25584 Z M 114.6103 69.82906 C 114.2175 70.07513 114.5479 69.84015 112.2043 71.4416 C 113.1923 71.95246 112.6239 71.66549 113.5987 72.38754 C 113.6202 72.37991 114.3199 72.22441 114.5946 71.83231 C 114.7094 71.66826 114.8779 71.40901 114.6103 69.82906 Z M 177.317 49.32295 C 166.715 51.18595 170.8333 52.39344 163.9144 53.90338 C 144.4101 58.15987 138.0982 58.60027 125.8132 58.61159 C 126.1048 61.65712 125.663 63.20634 126.8257 67.55271 C 133.5168 67.69504 132.8971 67.68394 133.021 67.68488 C 134.7541 67.69874 134.4898 67.69204 136.6139 66.55086 C 144.3584 66.67216 147.6488 66.68418 151.5077 66.35585 C 152.3998 66.28007 154.5165 66.07212 157.0807 65.84106 C 160.1699 65.56287 161.9012 65.42377 163.2614 65.3131 C 163.3703 65.40621 168.3728 69.52638 169.088 69.48318 C 171.1402 69.35933 170.0521 65.58921 181.0797 64.86508 C 179.9896 61.85837 177.4484 49.94888 177.317 49.32295 Z M 120.1284 63.91706 C 122.2189 62.48106 120.8259 63.43947 123.9974 61.25462 C 123.996 60.41728 123.9664 60.50924 123.9652 60.49399 C 122.3576 61.16035 121.8578 62.31909 113.9604 64.76157 C 113.2402 68.01298 113.2247 67.47253 112.6708 68.94944 C 113.581 68.50235 112.6311 69.06682 113.708 68.33206 C 113.7905 68.27592 116.1715 66.63496 117.8155 65.50557 C 118.2781 65.18787 119.6658 64.23454 120.1284 63.91706 Z M 118.2543 67.32581 C 119.0403 67.47923 120.386 67.473 124.9225 67.58553 C 123.9241 62.91706 124.5755 65.174 124.1064 63.32279 C 123.3756 63.75856 119.4886 66.37201 118.2543 67.32581 Z M 113.0038 60.98914 C 112.641 61.12223 111.1144 62.85883 110.8277 63.36253 C 113.5167 63.78398 121.1822 60.36066 122.4842 59.21833 C 121.1052 59.5358 119.4865 60.60767 117.3497 61.02333 C 114.5343 61.57117 113.4934 60.80938 113.0038 60.98914 Z M 107.6731 50.11177 C 108.5742 52.74372 111.8104 53.90638 109.9451 54.95514 C 109.1221 55.41794 104.3861 52.87565 103.6308 52.58475 C 105.0828 55.15038 108.918 58.8371 111.0735 59.00068 C 118.5288 59.5663 114.294 60.16797 121.9558 57.42974 C 124.6032 56.48334 126.9463 57.13838 137.5365 56.32368 C 135.485 53.85232 130.8796 49.52236 124.4632 49.82596 C 115.7406 50.23886 118.3317 54.20837 107.6731 50.11177 Z M 181.5055 60.80776 C 181.5205 60.75647 181.8951 58.05637 181.8988 56.55728 C 180.5737 55.93158 180.7426 57.69522 181.5055 60.80776 Z M 113.2311 45.73629 C 115.4359 46.04868 115.6461 45.58333 116.2275 46.01147 C 117.5091 46.9551 115.3672 48.49093 114.5089 49.83128 C 123.5031 49.91977 125.3239 41.93845 140.168 56.27239 C 146.0224 55.90455 152.4037 54.46739 154.5909 53.61734 C 150.4028 51.62403 133.9667 43.99113 130.9288 43.41557 C 124.6154 42.21964 119.0267 41.56644 113.2311 45.73629 Z M 182.0928 52.7897 C 182.0513 52.79709 181.4646 52.80472 180.0709 53.42718 C 180.2324 54.15477 180.0099 53.25042 180.5242 55.23449 C 181.9819 54.71993 181.8375 55.00598 182.0182 54.83707 C 182.1081 54.7532 182.3179 53.78901 182.0928 52.7897 Z M 135.5482 37.18565 L 128.539 37.41462 C 120.4179 37.6801 121.8407 38.09646 114.6616 39.33284 C 115.0946 39.78686 114.9578 39.74388 117.3404 41.56274 C 128.733 37.64128 142.4669 46.04243 148.2431 48.66006 C 148.4949 48.7742 150.5846 49.74255 152.4261 50.58983 C 153.9448 51.28831 157.8402 52.80933 157.9548 52.84353 C 158.172 52.90823 165.3243 52.59284 168.8511 49.74832 C 159.6586 42.15725 161.2834 40.84116 156.7852 39.07313 C 150.8323 36.73323 138.9577 37.07428 135.5482 37.18565 Z M 180.4269 47.17091 C 179.2243 49.13002 179.2463 48.9394 179.2315 48.9803 C 179.1598 49.18039 179.4267 50.795 179.7275 51.59007 C 179.951 51.54478 181.6799 51.17279 181.8468 50.74834 C 182.0438 50.24695 180.7405 47.60922 180.4269 47.17091 Z M 124.8065 35.56549 C 130.6714 35.66738 146.1232 34.45504 154.1267 36.29447 C 164.3622 38.64684 163.4458 45.16096 171.0473 48.74023 C 177.8893 47.33242 178.1892 47.249 178.3089 47.16074 C 180.5794 45.48743 181.957 35.76188 173.3488 30.24475 C 158.5481 20.7588 133.0725 28.70316 124.8065 35.56549 Z M 225.2356 117.6003 C 225.4218 117.3039 226.3973 116.6523 226.9757 116.7313 C 228.3798 116.9229 228.057 119.0098 227.7915 119.4455 C 227.6492 119.6791 227.3953 119.8656 227.1734 119.961 L 226.9195 120.0426 L 226.6547 120.0761 L 226.3867 120.0599 C 225.7543 119.9599 225.3345 119.4455 225.2354 119.278 C 224.928 118.7581 225.0397 117.9129 225.2356 117.6003 Z M 77.0216 105.6867 C 77.66416 105.4344 78.84439 105.9831 79.18266 106.4767 C 80.14754 107.8847 78.19328 109.6796 76.78362 108.717 C 75.77945 108.0312 76.00311 106.0864 77.0216 105.6867 Z M 173.2319 94.28622 C 174.0859 95.10809 173.7513 96.4549 167.5034 95.80424 C 163.1981 95.356 162.6826 97.664 162.3504 95.83891 C 162.1808 94.90729 163.962 93.98631 165.4139 93.87032 C 166.3504 93.79568 173.1189 94.17762 173.2319 94.28622 Z M 116.449 89.92367 C 115.1775 88.59996 117.1937 79.2635 121.5627 82.30348 C 125.4569 85.01329 126.593 96.73402 123.8841 96.06303 C 122.3643 95.68665 124.8046 85.51052 119.9377 83.62674 C 117.2055 84.92133 118.6433 92.20788 116.449 89.92367 Z M 171.8694 85.71455 C 169.2538 83.01513 166.1408 79.93933 168.3559 79.70573 C 168.8559 79.65305 174.1979 85.23048 174.1801 85.73303 C 174.163 86.21271 169.9052 91.39988 168.3204 91.17946 C 167.4061 90.07524 167.4333 90.12515 171.8694 85.71455 Z" fill-rule="evenodd" fill="#000000" fill-opacity="1" stroke="none" stroke-opacity="1" stroke-width="0.2310548" stroke-linecap="butt" stroke-linejoin="miter"/>
<path id="path_a55a1defbaf580e61531991133e53e80" d="M 173.3486 30.24478 C 158.5479 20.75882 133.0723 28.70318 124.8065 35.56551 C 130.6714 35.6674 146.1232 34.45506 154.1267 36.29449 C 164.3622 38.64686 163.4458 45.16098 171.0473 48.74025 C 177.8893 47.33243 178.1892 47.24902 178.3089 47.16076 C 180.5795 45.48746 181.957 35.7619 173.3486 30.24478 Z M 181.8985 56.55753 C 180.5734 55.93183 180.7423 57.69548 181.5053 60.80801 C 181.5203 60.75672 181.8948 58.05661 181.8985 56.55753 Z M 180.0704 53.42743 C 180.2319 54.15502 180.0094 53.25068 180.5238 55.23474 C 181.9815 54.72018 181.8371 55.00623 182.0178 54.83733 C 182.1076 54.75345 182.3174 53.78926 182.0924 52.78972 C 182.0508 52.79711 181.4642 52.80473 180.0704 53.42743 Z M 179.2312 48.98055 C 179.1596 49.18064 179.4265 50.79525 179.7273 51.59031 C 179.9507 51.54503 181.6797 51.17303 181.8465 50.74858 C 182.0436 50.24719 180.7402 47.60947 180.4269 47.17116 C 179.2243 49.13027 179.2462 48.93965 179.2312 48.98055 Z M 124.1059 63.32304 C 123.3751 63.75882 119.4881 66.37227 118.2538 67.32607 C 119.0398 67.47948 120.3855 67.47324 124.922 67.58577 C 123.9237 62.9173 124.575 65.17426 124.1059 63.32304 Z M 117.4726 73.91968 C 116.7249 72.05229 114.3899 74.12508 114.2457 74.25586 C 114.3753 74.26071 113.9446 74.45734 117.4726 73.91968 Z M 114.6096 69.82909 C 114.2168 70.07516 114.5472 69.84018 112.2036 71.44162 C 113.1916 71.95248 112.6232 71.66551 113.598 72.38756 C 113.6195 72.37993 114.3192 72.22443 114.5939 71.83234 C 114.7087 71.66829 114.8772 71.40904 114.6096 69.82909 Z M 113.0033 60.98916 C 112.6405 61.12225 111.114 62.85886 110.8272 63.36256 C 113.5162 63.784 121.1817 60.36069 122.4837 59.21835 C 121.1048 59.53582 119.486 60.60769 117.3492 61.02336 C 114.5338 61.57119 113.4929 60.8094 113.0033 60.98916 Z M 113.9596 64.76183 C 113.2394 68.01323 113.224 67.47279 112.6701 68.94969 C 113.5803 68.5026 112.6304 69.06706 113.7073 68.33231 C 113.7898 68.27616 116.1708 66.63521 117.8148 65.50582 C 118.2774 65.18812 119.6651 64.23479 120.1279 63.91709 C 122.2185 62.48109 120.8254 63.4395 123.9969 61.25465 C 123.9955 60.4173 123.9659 60.50926 123.9648 60.49401 C 122.3571 61.16037 121.8573 62.31911 113.9596 64.76183 Z M 124.4629 49.82575 C 115.7404 50.23865 118.3314 54.20816 107.6726 50.11179 C 108.5738 52.74374 111.8099 53.90641 109.9446 54.95517 C 109.1216 55.41797 104.3856 52.87567 103.6303 52.58477 C 105.0823 55.15041 108.9176 58.83711 111.0731 59.0007 C 118.5283 59.56632 114.2935 60.168 121.9553 57.42976 C 124.6027 56.48336 126.9458 57.1384 137.536 56.3237 C 135.4845 53.85234 130.8791 49.52237 124.4629 49.82575 Z M 130.9283 43.4156 C 124.6149 42.21966 119.0262 41.56647 113.2307 45.73631 C 115.4354 46.0487 115.6456 45.58335 116.227 46.0115 C 117.5086 46.95512 115.3668 48.49095 114.5084 49.8313 C 123.5027 49.91979 125.3234 41.93846 140.1675 56.27241 C 146.0219 55.90457 152.4032 54.46741 154.5904 53.61736 C 150.4023 51.62405 133.9662 43.99116 130.9283 43.4156 Z M 135.5478 37.18544 L 128.5385 37.41441 C 120.4174 37.6799 121.8402 38.09626 114.6611 39.33263 C 115.0941 39.78665 114.9573 39.74368 117.34 41.56254 C 128.7326 37.64108 142.4665 46.04223 148.2426 48.65985 C 148.4945 48.77399 150.5841 49.74234 152.4256 50.58962 C 153.9444 51.2881 157.8397 52.80914 157.9543 52.84333 C 158.1715 52.90803 165.3238 52.59263 168.8506 49.74812 C 159.6581 42.15704 161.2829 40.84096 156.7847 39.07293 C 150.8318 36.73303 138.9572 37.07407 135.5478 37.18544 Z" fill-rule="evenodd" fill="#F3C206" fill-opacity="1" stroke="none" stroke-opacity="1" stroke-width="0.2310548" stroke-linecap="butt" stroke-linejoin="miter"/>
<path id="path_b0acf356710e0ec40dc032113eda9ba0" d="M 140.4697 77.87972 C 138.3951 79.41462 145.7585 87.16189 147.4596 88.29682 C 148.2895 88.85066 155.037 92.17808 154.5964 89.2245 C 154.3916 87.85181 151.8177 89.36314 147.5878 86.01077 C 143.3532 82.6547 141.686 76.97977 140.4697 77.87972 Z M 218.9001 109.9878 L 223.1247 120.3074 C 224.6637 124.0662 224.7746 124.2161 224.8953 124.4585 C 226.3511 123.3483 230.5808 119.8266 231.2534 119.0881 C 231.2296 119.0514 231.274 119.0736 229.9999 117.2977 L 222.3396 106.6146 C 222.283 106.5358 219.74 102.9813 219.5128 102.6661 C 218.0976 100.7029 218.2816 100.9877 218.0704 100.7227 C 216.8954 101.0589 217.4169 101.0323 215.508 101.7934 C 216.2529 103.4032 217.0188 105.3914 218.9001 109.9878 Z M 225.2356 117.6006 C 225.4218 117.3041 226.3973 116.6526 226.9757 116.7316 C 228.3798 116.9231 228.057 119.01 227.7915 119.4458 C 227.6492 119.6794 227.3953 119.8658 227.1734 119.9613 L 226.9195 120.0428 L 226.6547 120.0763 L 226.3867 120.0602 C 225.7543 119.9601 225.3345 119.4458 225.2354 119.2783 C 224.928 118.7584 225.0396 117.9132 225.2356 117.6006 Z M 80.34901 97.76891 C 77.63181 102.1918 77.6861 102.1035 77.63181 102.1918 C 76.04816 104.7648 74.92776 106.5716 74.6951 106.954 C 73.67453 108.6329 73.74338 108.5363 73.77527 108.6899 C 73.80807 108.8475 79.34578 113.1197 79.89569 113.9134 C 80.25751 112.9735 81.06621 110.5881 81.08908 110.5199 L 83.83979 102.3616 L 87.70049 90.81069 C 85.87169 88.87907 87.53344 90.66744 85.93361 88.75014 C 85.85806 88.84904 85.89294 88.72404 85.07639 90.04776 C 84.9819 90.20095 83.48026 92.66145 82.72795 93.89043 C 82.44306 94.35601 80.87304 96.91563 80.34901 97.76891 Z M 77.02183 105.6869 C 77.66439 105.4346 78.84462 105.9834 79.18288 106.4769 C 80.14776 107.8849 78.1935 109.6798 76.78384 108.7172 C 75.77968 108.0314 76.00334 106.0867 77.02183 105.6869 Z M 133.4413 102.7479 C 132.6099 111.3679 132.838 115.7676 140.7902 123.1126 C 141.1476 122.4215 140.807 123.1202 142.2601 119.8961 C 142.3731 119.6456 144.9822 113.8898 145.0952 113.6394 C 146.8764 109.6865 146.7631 109.7313 146.7908 109.6493 C 133.6937 104.3563 136.6931 104.3082 133.4413 102.7479 Z M 154.1345 111.1024 C 155.2639 117.9908 155.7923 121.9467 156.0811 123.4146 C 158.576 122.5946 162.5985 123.7718 163.7154 110.9809 C 163.1405 110.9936 156.9642 111.6082 154.1345 111.1024 Z M 153.8316 120.7822 C 153.1851 121.7395 152.4321 123.4409 151.2449 125.946 C 154.3875 137.0817 153.9508 135.6554 154.2246 136.237 C 155.7918 133.529 159.3127 124.5174 159.3967 124.2707 C 158.4942 124.4151 155.7073 125.7219 154.9314 125.2393 C 154.2299 124.8026 154.3725 123.1073 153.8316 120.7822 Z M 134.2451 118.2889 C 134.8105 124.8561 139.3403 134.5609 141.5212 137.5593 C 141.6363 137.286 141.7811 136.9172 142.0896 136.0124 L 145.6739 125.5017 L 145.7119 125.3437 C 145.7484 124.9239 144.2807 120.9305 144.0217 120.3538 C 142.9316 122.2152 142.0462 125.2432 141.5166 125.4474 C 140.1839 125.962 135.1808 119.6262 134.2451 118.2889 Z M 171.2272 75.46658 C 170.6452 76.08303 170.5419 78.65168 175.0133 83.05257 C 177.752 85.74783 183.5131 87.22797 184.7247 85.86983 C 184.4278 83.86913 181.3846 85.24944 177.5383 82.89014 C 174.0498 80.75034 172.4086 76.14842 171.2272 75.46658 Z" fill-rule="evenodd" fill="#E6E6E6" fill-opacity="1" stroke="none" stroke-opacity="1" stroke-width="0.2310548" stroke-linecap="butt" stroke-linejoin="miter"/>
<path id="path_82d8c16b7bb98095ee558d2dce1d7b97" d="M 163.9139 53.90363 C 144.4097 58.16012 138.0977 58.60051 125.8128 58.61183 C 126.1044 61.65736 125.6626 63.20658 126.8253 67.55296 C 133.5164 67.69528 132.8967 67.6842 133.0205 67.68512 C 134.7537 67.69898 134.4893 67.69228 136.6134 66.55111 C 144.3579 66.67242 147.6484 66.68443 151.5072 66.35609 C 152.3993 66.28031 154.516 66.07236 157.0803 65.84131 C 160.1695 65.56312 161.9008 65.42403 163.261 65.31335 C 163.3698 65.40646 168.3724 69.52663 169.0875 69.48342 C 171.1397 69.35957 170.0517 65.58946 181.0792 64.86533 C 179.9891 61.85862 177.448 49.94913 177.3165 49.32297 C 166.7146 51.18596 170.8329 52.39346 163.9139 53.90363 Z M 53.62132 76.59552 C 50.81054 74.4883 47.93483 74.96128 47.96187 76.32103 C 48.01432 78.96153 49.89719 74.93585 60.16688 87.43476 C 60.31892 87.24483 60.04811 87.72128 61.89424 84.93336 C 58.84293 82.73858 57.75628 79.69582 53.62132 76.59552 Z M 63.27271 81.92042 C 63.15095 81.3772 56.68188 72.44185 53.06402 72.46472 C 52.97992 73.44809 53.30132 74.17915 53.32072 74.2085 C 53.60215 74.63318 54.57235 74.55807 58.13752 78.3721 C 60.10056 80.47216 61.24012 82.26006 62.77872 83.4024 C 63.20409 82.56712 63.30737 82.07291 63.27271 81.92042 Z M 76.18059 90.03529 C 75.43774 92.06094 74.25128 92.62818 73.76167 91.80379 C 73.31227 91.04754 74.54173 90.4066 74.79102 87.94032 C 68.32057 83.40032 69.6794 73.43424 64.2905 73.36422 C 64.27179 73.43354 63.64008 73.57357 65.06038 76.8728 C 70.92432 74.41091 67.06733 86.84627 67.02089 87.04821 C 70.06828 86.95948 73.212 86.91651 71.61957 88.78967 C 71.3899 88.81116 71.99619 88.93732 67.77829 88.63556 C 65.04652 92.18524 73.35871 93.0041 77.77417 98.43413 C 78.28919 97.75784 80.46296 94.23425 80.93269 93.24718 C 76.10296 85.54958 79.49622 84.33494 77.0073 82.88368 C 75.7804 84.10019 77.07269 87.60228 76.18059 90.03529 Z M 62.03657 88.0161 C 61.04557 89.83472 62.50815 94.51821 65.53705 96.75597 C 66.98484 97.82575 74.62374 102.2957 75.48072 102.0203 C 75.80421 101.9163 76.62491 100.3533 76.61705 100.226 C 76.46294 97.67165 69.61031 94.99671 68.07472 93.8456 C 61.22511 88.71111 69.27321 81.51514 66.46912 78.07427 C 64.73575 80.31158 67.76603 77.50217 62.03657 88.0161 Z M 250.5075 84.08493 C 249.3687 83.14546 241.8739 90.20904 241.1075 92.02213 C 241.0451 92.16954 241.0299 92.7213 241.2942 93.6104 C 242.919 92.23516 244.5805 88.87608 247.0761 86.88439 C 249.0144 85.33748 251.3954 84.81761 250.5075 84.08493 Z M 249.3409 87.42807 C 246.5796 89.08635 244.0188 93.32781 242.1036 95.35855 C 242.8617 96.49003 243.3164 97.19821 243.3273 98.93875 C 245.2057 96.81605 247.1752 92.83474 250.7679 89.76727 C 253.346 87.56577 256.215 87.55978 256.0898 86.43684 C 255.8627 84.4031 250.5107 86.72589 249.3409 87.42807 Z M 226.6608 91.83035 C 224.1758 92.38003 227.6086 96.22431 222.5808 103.884 C 223.7509 105.5148 224.786 106.9575 224.8311 107.0201 C 226.8459 109.8332 227.7215 111.0682 227.9757 111.4182 C 228.9889 112.814 228.828 112.5361 228.9544 112.6803 C 236.4824 106.5444 239.8579 107.5335 241.4987 99.79227 C 242.1779 96.58777 240.3753 97.31606 239.659 94.23956 C 239.1144 91.9006 239.3866 89.30631 238.135 89.24648 C 235.0606 89.09953 240.0629 99.09818 237.1983 102.0365 C 235.5645 103.7123 230.8199 105.4423 229.4332 106.5904 C 228.1917 107.6179 228.8708 109.0622 227.9048 109.2865 C 226.5965 109.5901 226.3283 106.7486 228.4701 105.1278 C 230.3209 103.7274 237.1088 101.433 236.4219 99.62498 C 235.6003 97.46278 232.134 98.9815 231.6709 97.97688 C 231.1642 96.87659 233.3505 95.69913 236.2599 97.17257 C 235.464 92.03045 233.9371 87.75779 238.9353 87.5302 C 239.9538 85.06161 240.2877 83.74529 239.9607 83.48559 C 239.6962 83.27556 236.9178 83.7104 234.7013 90.09143 C 232.2283 97.2114 230.0163 96.93828 229.4782 97.9325 C 228.8035 99.17905 231.0501 101.1973 230.2342 102.0321 C 226.7587 105.5878 228.9824 91.31718 226.6608 91.83035 Z M 120.9236 78.21522 C 120.66 80.08537 116.7753 76.18147 114.1718 82.25752 C 111.7089 88.00524 113.3637 94.74926 117.956 97.42557 C 126.5993 102.4626 127.8292 96.03369 130.1404 96.81558 C 131.0131 97.11087 132.3916 101.4025 142.4464 106.0023 C 147.5208 108.324 154.586 110.18 162.1052 109.2773 C 181.9096 106.8993 183.289 91.61755 183.57 88.00176 C 172.3114 87.99415 169.5581 76.11192 167.1612 76.38526 C 166.1092 78.82405 164.7083 92.41376 151.437 91.96043 C 147.5904 91.82896 143.6721 89.09351 141.3175 85.45995 C 138.0989 80.49296 138.7918 76.97516 138.277 76.41115 C 137.9517 76.05463 134.5725 75.84644 134.3311 75.6341 C 133.99 75.33443 133.9346 74.16599 133.8278 73.16274 C 131.8172 73.23807 131.896 73.23483 131.8564 73.23644 C 131.2162 73.26209 127.8331 73.41065 127.2843 73.43238 C 120.4118 73.70434 121.3483 73.30484 119.2882 73.58719 C 120.1512 76.91299 120.9925 77.72906 120.9236 78.21522 Z M 162.3508 95.83915 C 162.1812 94.90753 163.9624 93.98654 165.4144 93.87056 C 166.3509 93.79593 173.1194 94.17786 173.2321 94.28646 C 174.0861 95.10832 173.7516 96.45514 167.5036 95.80449 C 163.1984 95.35625 162.6829 97.66425 162.3508 95.83915 Z M 121.5632 82.30373 C 125.4574 85.01354 126.5935 96.73425 123.8846 96.06327 C 122.3647 95.68688 124.8051 85.51077 119.9382 83.62698 C 117.206 84.92158 118.6438 92.20812 116.4495 89.92392 C 115.178 88.6002 117.1942 79.26373 121.5632 82.30373 Z M 171.8698 85.7148 C 169.2543 83.01538 166.1413 79.93958 168.3564 79.70599 C 168.8564 79.65331 174.1984 85.23074 174.1806 85.73328 C 174.1635 86.21295 169.9056 91.40012 168.3208 91.1797 C 167.4066 90.07549 167.4338 90.12539 171.8698 85.7148 Z" fill-rule="evenodd" fill="#FFCCA3" fill-opacity="1" stroke="none" stroke-opacity="1" stroke-width="0.2310548" stroke-linecap="butt" stroke-linejoin="miter"/>
<path id="path_a8364f04c3e0de7e094846438bc71af0" d="M 51.67976 181.4949 L 59.07328 209.9023 L 65.41711 209.7519 L 70.58281 188.2588 L 76.72148 209.4839 L 82.89896 209.3374 L 89.10393 180.6074 L 83.2989 180.7451 L 79.42319 200.8036 L 73.96268 180.9664 L 67.08696 181.1293 L 62.33923 200.8759 L 57.6248 181.3534 L 51.67976 181.4949 Z M 97.36946 161.5585 C 94.50784 161.6456 94.50807 161.65 79.48535 162.1149 C 64.14169 162.5897 65.32191 162.5539 59.81403 162.726 C 54.77774 162.8836 55.06818 162.8746 54.97136 162.8776 C 53.5104 162.9217 50.95355 162.9966 50.40572 163.0114 C 43.6506 163.1939 43.80055 163.1336 42.55286 163.2889 C 42.62287 165.0303 42.62449 165.0666 42.62587 165.1029 C 42.63003 165.2177 42.80217 170.7281 42.80563 170.843 L 43.05402 179.4003 L 43.61201 198.1255 L 44.04432 212.297 C 44.06557 212.995 44.15984 215.7876 44.21968 216.6586 C 44.30194 216.6598 44.3031 216.6993 48.32854 216.5708 L 64.72834 216.047 L 83.66975 215.4636 L 92.60349 215.1787 C 93.2546 215.1586 92.33223 215.1872 95.31606 215.0948 C 101.7128 214.8963 94.51639 215.1168 105.311 214.7889 C 107.6676 214.7175 137.5168 213.7834 144.5864 213.5611 L 145.555 213.5306 C 148.2849 213.4449 155.1098 213.2385 155.3048 213.233 C 156.4994 213.1983 157.8922 212.928 158.3661 213.5146 L 162.1933 213.553 C 161.8423 213.2672 161.4975 212.9649 161.16 212.6463 C 157.9275 209.5959 156.4742 208.5606 155.9929 207.604 L 155.9917 207.604 L 143.9492 207.8896 L 143.2775 179.5623 L 149.0627 179.425 L 149.62 202.9247 L 156.7297 202.756 C 157.0541 201.3736 157.4118 199.5437 157.7117 197.0443 C 158.9218 186.9602 167.4555 183.7048 168.4405 183.9514 C 169.3155 184.1704 170.8899 185.8738 168.7864 192.9653 C 177.1282 190.3398 183.4064 188.134 187.7627 191.8151 C 195.9081 189.4785 194.1181 186.765 205.303 183.8624 C 207.0916 183.3983 208.7122 183.0755 210.1768 182.8735 L 210.0914 181.9329 C 210.0849 181.9274 210.0784 181.9218 210.0717 181.9158 C 209.9068 181.7746 209.956 181.7067 209.6214 176.5073 C 209.5988 176.1561 209.3929 173.1133 209.2309 170.6553 L 208.6059 161.1394 C 208.3954 157.9281 208.3654 158.2824 208.3566 158.2244 C 208.0528 158.1819 208.4684 158.1319 206.9631 158.1745 C 205.3746 158.2191 201.4037 158.3519 187.1072 158.7856 C 184.9371 158.8514 176.4741 159.11 176.2571 159.1172 L 169.2028 159.3461 L 160.7379 159.5992 C 156.5373 159.7276 152.2739 159.8517 148.211 159.9772 L 125.3765 160.689 C 125.2675 160.6923 125.2675 160.6913 119.9262 160.8549 C 116.1461 160.9709 112.7642 161.083 109.9788 161.1696 C 109.62 161.1807 107.1077 161.259 106.3901 161.2815 C 102.9624 161.3884 104.586 161.3383 97.36946 161.5585 Z M 94.31006 169.1967 L 101.9739 162.7609 L 102.9104 164.8963 L 98.0014 169.0186 L 105.2593 169.0697 L 105.1585 171.6059 L 97.89835 171.5549 L 102.4797 175.7495 L 101.3736 177.8701 L 93.05313 170.2517 L 94.31006 169.1967 Z M 117.0916 173.3197 L 117.1251 175.5436 L 108.7025 175.6704 C 108.7803 174.8227 109.0426 174.0189 109.4864 173.2561 C 109.9303 172.4934 110.8168 171.4759 112.1406 170.2037 C 113.208 169.1776 113.8601 168.4819 114.0999 168.1191 C 114.4222 167.6179 114.5812 167.1251 114.5738 166.6378 C 114.5657 166.1008 114.4165 165.6914 114.1232 165.407 C 113.833 165.1223 113.4338 164.9853 112.9289 164.9929 C 112.4268 165.0006 112.0324 165.1581 111.7392 165.4661 C 111.449 165.7711 111.2873 166.2758 111.2512 166.9798 L 108.8487 166.7767 C 108.9719 165.4495 109.4039 164.4916 110.1482 163.9024 C 110.8924 163.3162 111.8279 163.013 112.9571 162.9962 C 114.1946 162.9775 115.1713 163.2984 115.8908 163.956 C 116.6071 164.6136 116.9728 165.44 116.9879 166.4352 C 116.9964 167.0015 116.9024 167.5399 116.7087 168.0565 C 116.5151 168.5704 116.202 169.1092 115.7697 169.6762 C 115.4865 170.0542 114.9664 170.596 114.218 171.3051 C 113.4668 172.0143 112.9922 172.4826 112.7945 172.716 C 112.5934 172.9468 112.4335 173.1739 112.3113 173.3918 L 117.0916 173.3197 Z M 126.8303 173.173 L 126.8638 175.3969 L 118.4412 175.5237 C 118.5191 174.6762 118.7813 173.8721 119.2252 173.1096 C 119.669 172.3469 120.5556 171.3294 121.8793 170.057 C 122.9468 169.0308 123.5988 168.3351 123.8386 167.9724 C 124.1609 167.4712 124.3199 166.9784 124.3125 166.4911 C 124.3044 165.9541 124.1552 165.5447 123.862 165.2603 C 123.5718 164.9756 123.1725 164.8386 122.6676 164.8462 C 122.1656 164.8539 121.7712 165.0117 121.4779 165.3194 C 121.1877 165.6244 121.026 166.129 120.99 166.8331 L 118.5874 166.63 C 118.7106 165.3028 119.1427 164.3448 119.8869 163.7556 C 120.6311 163.1695 121.5667 162.8663 122.6958 162.8495 C 123.9334 162.8307 124.91 163.1517 125.6295 163.8092 C 126.3458 164.4671 126.7116 165.2933 126.7266 166.2885 C 126.7351 166.8548 126.6411 167.3934 126.4474 167.9098 C 126.2538 168.4237 125.9408 168.9625 125.5085 169.5295 C 125.2252 169.9075 124.7051 170.4493 123.9567 171.1582 C 123.2055 171.8673 122.7309 172.3356 122.5332 172.569 C 122.3321 172.7998 122.1723 173.027 122.05 173.2448 L 126.8303 173.173 Z M 128.6725 172.0242 L 128.6362 169.6251 L 133.3641 169.5539 L 133.4001 171.9528 L 128.6725 172.0242 Z M 134.295 172.065 L 136.6901 171.7809 C 136.7685 172.3227 136.9764 172.7515 137.3165 173.0646 C 137.6599 173.3777 138.0503 173.5295 138.4912 173.5228 C 138.9933 173.5151 139.4161 173.3044 139.7572 172.8876 C 140.0982 172.471 140.2641 171.8497 140.2516 171.0237 C 140.2398 170.2473 140.0589 169.6692 139.7058 169.2864 C 139.3555 168.9033 138.9032 168.7175 138.3488 168.7261 C 137.6571 168.7365 137.0402 169.0493 136.5006 169.6646 L 134.5529 169.4139 L 135.6804 162.8815 L 142.0367 162.7856 L 142.0705 165.0271 L 137.5383 165.0955 L 137.191 167.2346 C 137.7211 166.9608 138.2677 166.8185 138.8278 166.8099 C 139.896 166.794 140.8066 167.1685 141.5596 167.9363 C 142.3154 168.7013 142.7012 169.7055 142.7202 170.9488 C 142.7359 171.9848 142.4492 172.9116 141.863 173.7349 C 141.0623 174.8562 139.9385 175.4278 138.4909 175.4495 C 137.3324 175.4671 136.3821 175.169 135.6432 174.5583 C 134.9013 173.9449 134.454 173.1168 134.295 172.065 Z M 150.1934 175.0452 L 147.7946 175.0815 L 147.6579 166.0052 C 146.7949 166.8413 145.7708 167.4668 144.586 167.8788 L 144.5529 165.69 C 145.1772 165.4763 145.8514 165.0777 146.5753 164.4918 C 147.3022 163.9088 147.7942 163.233 148.0569 162.467 L 150.0033 162.4377 L 150.1934 175.0452 Z M 177.0681 180.9872 L 179.2994 180.7317 C 179.4454 181.4773 179.7229 182.0196 180.1377 182.3648 C 180.5524 182.71 181.1069 182.8759 181.8015 182.8655 C 182.5358 182.8544 183.088 182.6903 183.4558 182.3729 C 183.8237 182.0556 184.0058 181.6882 183.9993 181.271 C 183.9951 181.0015 183.9126 180.7756 183.7537 180.5877 C 183.5952 180.4024 183.3179 180.243 182.9249 180.1115 C 182.6566 180.0205 182.0469 179.8659 181.0924 179.6425 C 179.8648 179.3546 179.0009 178.9925 178.5002 178.5535 C 177.7961 177.938 177.4387 177.1799 177.4251 176.2792 C 177.4163 175.7009 177.5718 175.1542 177.889 174.6448 C 178.2091 174.1353 178.6735 173.7453 179.2849 173.4719 C 179.8962 173.1984 180.6337 173.0553 181.5055 173.0422 C 182.9237 173.0207 183.9981 173.319 184.7234 173.9394 C 185.4512 174.5597 185.8389 175.3938 185.8919 176.4474 L 183.5952 176.5614 C 183.4887 175.9763 183.2735 175.5595 182.9501 175.3083 C 182.6266 175.057 182.1441 174.9347 181.5048 174.9444 C 180.8445 174.9544 180.329 175.0995 179.9607 175.3797 C 179.7232 175.5605 179.6051 175.7973 179.6095 176.093 C 179.6136 176.3624 179.7308 176.5905 179.9607 176.7774 C 180.2523 177.0186 180.9561 177.2617 182.0721 177.5089 C 183.188 177.7536 184.0134 178.0158 184.5487 178.2878 C 185.0866 178.5623 185.5094 178.9391 185.8181 179.4232 C 186.1266 179.9073 186.2863 180.5073 186.2971 181.2229 C 186.3068 181.8726 186.1363 182.4856 185.783 183.0586 C 185.4297 183.6321 184.9263 184.0623 184.2703 184.347 C 183.6141 184.6342 182.7923 184.7839 181.807 184.7989 C 180.3729 184.8204 179.2663 184.5069 178.4879 183.8555 C 177.7093 183.2067 177.2379 182.2497 177.0681 180.9872 Z M 190.8473 184.457 L 190.7052 175.0279 L 187.3456 175.0785 L 187.3168 173.1609 L 196.318 173.0253 L 196.3468 174.9426 L 193.003 174.993 L 193.1451 184.4223 L 190.8473 184.457 Z M 118.9065 180.1402 L 119.5784 208.4675 L 139.6869 207.9906 L 139.5725 203.1629 L 125.2492 203.5026 L 124.6919 180.003 L 118.9065 180.1402 Z M 98.10745 180.3939 L 87.69334 209.2237 L 93.81099 209.0786 L 96.03049 202.519 L 107.4878 202.2473 L 110.1091 208.6921 L 116.3398 208.5442 L 104.2184 180.2488 L 98.10745 180.3939 Z M 97.67168 197.6497 L 101.2777 186.9854 L 105.4982 197.4642 L 97.67168 197.6497 Z M 211.9202 197.3156 C 207.3501 198.8734 203.0662 199.7308 202.9807 201.8616 C 202.8889 204.1525 210.7471 206.9945 211.9819 205.0624 C 212.9467 203.5532 209.9567 201.2613 210.1574 200.1197 C 210.2665 199.4995 210.9532 198.9926 211.8968 198.5725 L 211.9202 197.3156 Z M 212.5761 190.6481 C 212.2182 189.1531 202.431 190.3311 200.1442 193.7327 C 202.4684 196.1178 212.9338 192.1428 212.5761 190.6481 Z M 187.6345 202.3588 C 186.7505 206.7665 184.9773 210.1895 182.6832 212.6389 L 185.4362 212.5914 C 186.3706 211.9555 189.7521 211.916 192.3053 211.7778 C 195.0909 211.6269 198.4492 211.1875 199.3062 211.8587 L 200.794 211.9 C 198.3483 211.0983 196.8201 210.1341 196.2066 209.7625 C 191.1689 206.711 189.6795 203.333 187.6345 202.3588 Z M 175.0827 198.5002 C 172.3127 199.2341 172.0503 200.1234 166.7421 203.1551 C 167.868 205.8528 171.9731 209.61 175.1393 208.0992 C 178.9512 206.2801 181.0212 196.9267 175.0827 198.5002 Z" fill-rule="evenodd" fill="#333333" fill-opacity="1" stroke="none" stroke-opacity="1" stroke-width="0.2310548" stroke-linecap="butt" stroke-linejoin="miter"/>
<path id="path_3def2f7d02b9a1bf342dc8e0a35715e1" d="M 214.6575 104.4914 C 210.7034 106.4295 200.1105 112.6149 178.0513 107.0471 C 178.0513 119.598 180.7525 132.8469 182.6539 136.5734 C 197.7533 136.5556 216.285 129.1179 222.503 123.4871 C 221.6226 121.3647 222.0272 122.3411 221.6238 121.3642 L 215.3723 106.2297 C 214.5831 104.3188 215.0665 105.4203 214.6575 104.4914 Z M 89.18528 92.42184 C 88.67419 93.59144 87.10001 98.22894 85.67926 102.4646 L 82.29477 112.5532 C 89.68967 117.8926 100.857 121.5054 107.3425 126.1567 C 108.1948 124.3929 113.8885 112.6401 114.4585 111.4651 C 116.8116 106.6146 116.5611 107.1306 116.9618 106.305 L 119.7947 100.4533 C 105.915 99.34655 102.7634 101.7183 89.18528 92.42184 Z M 109.1842 132.1988 C 109.2039 133.0794 109.3522 140.1238 109.5012 146.8745 C 109.5086 147.2058 109.6061 151.625 109.623 152.3983 C 109.6311 152.7691 109.7533 158.4566 109.7547 158.5802 L 109.7547 159.3794 C 111.2198 159.3214 111.5955 159.3064 111.6332 159.305 C 111.7471 159.3008 117.0969 159.1296 117.3245 159.1227 L 124.6702 158.897 L 132.2167 158.6548 L 141.3801 158.3824 C 141.9203 158.3662 145.7905 158.2332 145.8803 158.2295 C 147.573 158.1613 147.5338 158.1423 147.8022 158.1195 C 147.3801 157.5677 146.7165 156.7632 144.1019 153.6666 C 144.021 153.5709 140.5363 149.4628 140.0492 148.8902 C 139.9251 148.7444 135.5778 143.6492 133.8366 141.6132 L 125.7252 132.1286 L 120.9604 126.5391 C 118.8915 124.1124 118.6873 123.8192 118.7589 123.4462 C 118.8966 122.7288 122.4782 120.6121 124.5339 118.9712 C 121.7095 118.2676 120.4648 118.7577 120.1362 117.8127 C 120.0852 117.6657 120.6434 112.0814 120.8793 110.074 C 121.9629 100.8544 122.4865 101.3167 122.0135 101.0439 C 121.3911 100.6848 120.9163 102.2537 118.486 107.3041 C 116.2381 111.9753 116.6064 111.2112 116.443 111.5509 L 111.3802 122.047 C 109.7993 125.3252 109.2457 126.4844 109.0606 126.8705 C 109.1893 132.4118 109.1819 132.0923 109.1842 132.1988 Z M 127.9955 118.1627 C 128.4059 119.52 126.731 119.1357 121.0912 123.7177 C 121.6887 124.6114 124.1328 127.4798 125.3507 128.9137 C 126.7869 130.6043 125.6915 129.3171 128.7823 132.9285 C 131.3983 135.9851 141.3494 147.5917 141.8732 148.2024 L 142.4425 148.866 C 142.8316 149.3197 146.26 153.3103 146.339 153.4002 C 147.1299 154.3008 147.0594 154.171 147.1632 154.2708 C 145.8773 148.4032 144.1169 145.765 143.2519 144.2828 C 142.4924 142.9817 141.3013 140.9514 140.8748 140.2192 C 139.6661 138.145 129.1774 122.6845 131.8366 101.243 C 131.6079 101.0196 130.0064 99.45561 129.5487 99.00875 C 124.7675 101.9907 124.4609 100.9413 124.0362 101.3643 C 123.6007 101.7985 121.9047 116.1514 122.2797 116.6389 C 122.6404 117.1077 127.6192 116.9167 127.9955 118.1627 Z M 165.7159 110.6303 C 157.7787 140.7259 155.4301 128.4641 151.1264 155.4751 C 158.4446 146.3466 169.0179 136.011 171.9955 125.4543 C 170.2411 125.0257 167.1702 124.516 167.0729 123.458 C 166.9498 122.1195 170.5235 121.1054 172.3088 120.3081 C 173.3 112.6453 172.8673 109.192 172.6952 108.2417 C 172.4029 108.2819 166.5415 110.3108 165.7159 110.6303 Z M 173.9156 124.6473 C 174.5457 126.0881 169.5085 135.2929 164.7358 142.03 C 160.2141 148.4128 152.9499 155.8166 151.6343 157.9074 C 151.7912 157.9353 151.2374 158.0458 155.6202 157.9282 C 155.7191 157.9256 160.3592 157.7833 160.5565 157.7771 C 161.5221 157.7466 166.6258 157.577 167.4535 157.5525 L 178.4921 157.2256 C 178.5205 157.2249 178.4921 157.2241 179.9147 157.1604 C 182.253 151.1354 181.8828 138.6349 181.8819 138.2548 C 176.6832 132.347 176.4939 109.8785 176.2569 105.9508 C 175.6903 106.2833 176.2405 105.9254 174.411 107.1287 C 174.7421 112.8443 174.4274 120.6939 173.9941 121.4354 C 173.6281 122.0618 173.2677 121.5851 169.8114 123.1842 C 172.2026 124.0019 173.4267 123.5292 173.9156 124.6473 Z" fill-rule="evenodd" fill="#2E4761" fill-opacity="1" stroke="none" stroke-opacity="1" stroke-width="0.2310548" stroke-linecap="butt" stroke-linejoin="miter"/>
<path id="path_0aec9a13272d736ad999598981374ece" d="M 51.67976 181.4949 L 59.07329 209.9023 L 65.41713 209.7519 L 70.58282 188.2588 L 76.72148 209.4839 L 82.89896 209.3374 L 89.10394 180.6074 L 83.29892 180.7451 L 79.4232 200.8036 L 73.96269 180.9664 L 67.08696 181.1293 L 62.33925 200.8759 L 57.6248 181.3534 L 51.67976 181.4949 Z M 94.30983 169.1967 L 101.9737 162.7609 L 102.9102 164.8963 L 98.00116 169.0186 L 105.259 169.0697 L 105.1583 171.6059 L 97.89812 171.5549 L 102.4795 175.7495 L 101.3734 177.8701 L 93.05291 170.2517 L 94.30983 169.1967 Z M 117.0914 173.3197 L 117.1249 175.5436 L 108.7022 175.6704 C 108.7801 174.8227 109.0424 174.0189 109.4862 173.2561 C 109.9301 172.4934 110.8166 171.4759 112.1403 170.2037 C 113.2078 169.1776 113.8598 168.4819 114.0997 168.1191 C 114.422 167.6179 114.581 167.1251 114.5736 166.6378 C 114.5655 166.1008 114.4162 165.6914 114.123 165.407 C 113.8328 165.1223 113.4335 164.9853 112.9287 164.9929 C 112.4266 165.0006 112.0322 165.1581 111.739 165.4661 C 111.4488 165.7711 111.287 166.2758 111.251 166.9798 L 108.8485 166.7767 C 108.9716 165.4495 109.4037 164.4916 110.1479 163.9024 C 110.8922 163.3162 111.8277 163.013 112.9569 162.9962 C 114.1944 162.9775 115.1711 163.2984 115.8906 163.956 C 116.6068 164.6136 116.9726 165.44 116.9876 166.4352 C 116.9962 167.0015 116.9021 167.5399 116.7085 168.0565 C 116.5149 168.5704 116.2018 169.1092 115.7695 169.6762 C 115.4862 170.0542 114.9661 170.596 114.2177 171.3051 C 113.4666 172.0143 112.992 172.4826 112.7942 172.716 C 112.5932 172.9468 112.4333 173.1739 112.3111 173.3918 L 117.0914 173.3197 Z M 126.8301 173.173 L 126.8636 175.3969 L 118.4409 175.5237 C 118.5188 174.6762 118.7811 173.8721 119.2249 173.1096 C 119.6688 172.3469 120.5553 171.3294 121.8791 170.057 C 122.9465 169.0308 123.5986 168.3351 123.8384 167.9724 C 124.1607 167.4712 124.3197 166.9784 124.3123 166.4911 C 124.3042 165.9541 124.1549 165.5447 123.8617 165.2603 C 123.5715 164.9756 123.1723 164.8386 122.6674 164.8462 C 122.1653 164.8539 121.7709 165.0117 121.4777 165.3194 C 121.1875 165.6244 121.0258 166.129 120.9897 166.8331 L 118.5872 166.63 C 118.7104 165.3028 119.1424 164.3448 119.8867 163.7556 C 120.6309 163.1695 121.5664 162.8663 122.6956 162.8495 C 123.9331 162.8307 124.9098 163.1517 125.6293 163.8092 C 126.3456 164.4671 126.7113 165.2933 126.7263 166.2885 C 126.7349 166.8548 126.6409 167.3934 126.4472 167.9098 C 126.2536 168.4237 125.9405 168.9625 125.5082 169.5295 C 125.225 169.9075 124.7049 170.4493 123.9565 171.1582 C 123.2053 171.8673 122.7307 172.3356 122.5329 172.569 C 122.3319 172.7998 122.172 173.027 122.0498 173.2448 L 126.8301 173.173 Z M 128.6723 172.0242 L 128.636 169.6251 L 133.3639 169.5539 L 133.3999 171.9528 L 128.6723 172.0242 Z M 134.2948 172.065 L 136.6899 171.7809 C 136.7682 172.3227 136.9762 172.7515 137.3163 173.0646 C 137.6596 173.3777 138.0501 173.5295 138.491 173.5228 C 138.993 173.5151 139.4159 173.3044 139.7569 172.8876 C 140.098 172.471 140.2639 171.8497 140.2514 171.0237 C 140.2396 170.2473 140.0587 169.6692 139.7056 169.2864 C 139.3553 168.9033 138.9029 168.7175 138.3486 168.7261 C 137.6568 168.7365 137.0399 169.0493 136.5004 169.6646 L 134.5526 169.4139 L 135.6802 162.8815 L 142.0365 162.7856 L 142.0702 165.0271 L 137.5381 165.0955 L 137.1908 167.2346 C 137.7208 166.9608 138.2675 166.8185 138.8276 166.8099 C 139.8958 166.794 140.8064 167.1685 141.5594 167.9363 C 142.3151 168.7013 142.701 169.7055 142.72 170.9488 C 142.7357 171.9848 142.4489 172.9116 141.8627 173.7349 C 141.0621 174.8562 139.9383 175.4278 138.4907 175.4495 C 137.3322 175.4671 136.3819 175.169 135.643 174.5583 C 134.901 173.9449 134.4537 173.1168 134.2948 172.065 Z M 150.1932 175.0452 L 147.7944 175.0815 L 147.6576 166.0052 C 146.7946 166.8413 145.7706 167.4668 144.5857 167.8788 L 144.5527 165.69 C 145.177 165.4763 145.8512 165.0777 146.5751 164.4918 C 147.302 163.9088 147.7939 163.233 148.0566 162.467 L 150.003 162.4377 L 150.1932 175.0452 Z M 177.0679 180.9872 L 179.2992 180.7317 C 179.4452 181.4773 179.7227 182.0196 180.1374 182.3648 C 180.5522 182.71 181.1067 182.8759 181.8013 182.8655 C 182.5356 182.8544 183.0878 182.6903 183.4556 182.3729 C 183.8235 182.0556 184.0055 181.6882 183.9991 181.271 C 183.9949 181.0015 183.9124 180.7756 183.7535 180.5877 C 183.595 180.4024 183.3177 180.243 182.9247 180.1115 C 182.6564 180.0205 182.0467 179.8659 181.0922 179.6425 C 179.8646 179.3546 179.0007 178.9925 178.5 178.5535 C 177.7959 177.938 177.4385 177.1799 177.4249 176.2792 C 177.4161 175.7009 177.5716 175.1542 177.8888 174.6448 C 178.2088 174.1353 178.6732 173.7453 179.2846 173.4719 C 179.896 173.1984 180.6335 173.0553 181.5053 173.0422 C 182.9235 173.0207 183.9979 173.319 184.7232 173.9394 C 185.451 174.5597 185.8387 175.3938 185.8916 176.4474 L 183.595 176.5614 C 183.4884 175.9763 183.2733 175.5595 182.9499 175.3083 C 182.6264 175.057 182.1439 174.9347 181.5046 174.9444 C 180.8442 174.9544 180.3288 175.0995 179.9605 175.3797 C 179.7229 175.5605 179.6049 175.7973 179.6093 176.093 C 179.6134 176.3624 179.7306 176.5905 179.9605 176.7774 C 180.252 177.0186 180.9559 177.2617 182.0719 177.5089 C 183.1878 177.7536 184.0132 178.0158 184.5485 178.2878 C 185.0864 178.5623 185.5092 178.9391 185.8179 179.4232 C 186.1264 179.9073 186.286 180.5073 186.2969 181.2229 C 186.3066 181.8726 186.1361 182.4856 185.7828 183.0586 C 185.4295 183.6321 184.926 184.0623 184.2701 184.347 C 183.6139 184.6342 182.792 184.7839 181.8068 184.7989 C 180.3727 184.8204 179.2661 184.5069 178.4877 183.8555 C 177.7091 183.2067 177.2377 182.2497 177.0679 180.9872 Z M 190.8471 184.457 L 190.705 175.0279 L 187.3454 175.0785 L 187.3166 173.1609 L 196.3177 173.0253 L 196.3466 174.9426 L 193.0028 174.993 L 193.1449 184.4223 L 190.8471 184.457 Z M 143.2773 179.5621 L 143.9489 207.8894 L 155.9915 207.6038 L 158.2681 207.5497 C 157.8206 207.0636 157.5551 206.7447 157.5451 206.693 C 157.4303 206.0983 158.019 204.8316 158.5625 202.7124 L 156.7298 202.7558 L 149.6197 202.9245 L 149.0624 179.4248 L 143.2773 179.5621 Z M 118.9063 180.1399 L 119.5782 208.4673 L 139.6867 207.9904 L 139.5723 203.1627 L 125.249 203.5024 L 124.6917 180.0027 L 118.9063 180.1399 Z M 98.10721 180.3936 L 87.6931 209.2235 L 93.81075 209.0784 L 96.03026 202.5188 L 107.4876 202.247 L 110.1089 208.6918 L 116.3395 208.544 L 104.2182 180.2486 L 98.10721 180.3936 Z M 97.67143 197.6495 L 101.2775 186.9852 L 105.498 197.464 L 97.67143 197.6495 Z" fill-rule="evenodd" fill="#E6E6E6" fill-opacity="1" stroke="none" stroke-opacity="1" stroke-width="0.2310548" stroke-linecap="butt" stroke-linejoin="miter"/>
<path id="path_022edd76258f2130ffa5c76454819cca" d="M 167.8871 185.8273 C 165.3933 186.517 161.5204 190.0053 160.2618 193.4475 C 159.5426 195.4147 159.4203 197.8195 159.1248 199.893 C 158.5731 203.7634 157.3861 205.8706 157.5451 206.6932 C 157.5943 206.9485 163.8684 213.7115 167.5523 214.9927 C 173.8456 217.1814 179.3662 213.2242 180.5785 212.181 C 185.5235 207.9261 185.0931 203.7639 186.1853 200.9582 C 186.6966 200.6488 187.3354 200.338 187.8574 200.415 C 190.5469 200.811 193.494 208.9735 204.1939 210.9113 C 217.0556 213.2408 219.9218 205.0909 220.126 204.434 C 221.5879 199.7318 218.5646 196.6694 212.2561 200.5113 C 217.071 208.0382 208.988 209.5149 203.1835 205.0703 C 195.3352 199.061 211.7517 195.5751 217.0932 193.1714 C 219.4758 192.0993 223.3463 186.834 217.9169 185.048 C 214.9393 184.0686 207.4178 183.9782 198.5823 188.2074 C 195.2613 189.7969 191.1084 193.5695 187.6834 193.8486 C 187.2996 193.8799 186.6275 193.5342 186.4868 193.3847 C 186.185 193.0645 186.4138 193.0088 186.0293 192.5903 C 184.3701 190.7856 177.3046 191.9796 173.7794 193.0263 C 166.4307 195.2084 165.7152 197.4817 164.9167 196.0007 C 164.3131 194.8812 169.9137 191.1795 167.8871 185.8273 Z M 144.9106 133.2642 C 143.8877 136.2841 143.17 138.3717 142.9369 139.0695 C 142.8528 139.3211 142.783 139.4239 142.7851 139.6009 C 142.7962 140.5052 145.2068 143.2483 147.061 147.5702 C 148.6264 151.2188 148.6973 153.4866 149.4198 154.8318 C 149.8445 153.4427 149.65 152.5746 150.8531 146.89 C 152.3283 139.9195 153.1867 139.3837 153.0994 138.7109 C 153.0636 138.435 153.0072 138.6302 152.7914 138.0875 C 152.717 137.8999 152.6735 137.7012 150.1019 128.3564 C 150.0903 128.3143 149.8133 127.3049 149.5249 126.2531 C 149.0718 126.2531 148.3925 126.2531 147.2599 126.2531 L 146.9637 127.1787 C 146.9235 127.3007 145.1989 132.4126 144.9106 133.2642 Z M 148.6342 110.2405 C 148.1352 110.936 145.2447 117.541 145.0806 118.0276 C 145.0901 118.0601 145.0337 118.0081 145.6213 119.6343 C 145.6525 119.7205 147.0182 123.4109 147.2098 123.9255 L 147.4517 124.5706 C 148.7865 124.5706 148.9009 124.5334 150.1084 124.3109 C 151.2128 121.9402 152.0118 120.276 153.3494 117.3351 C 152.2669 110.2979 152.4758 111.5749 152.3487 110.9402 C 151.0994 110.6382 149.3889 110.2847 148.6342 110.2405 Z M 226.9525 182.7021 C 227.1533 186.548 229.1261 194.1257 227.6196 195.5217 C 227.2758 195.8403 226.831 195.6074 220.0881 197.6104 C 220.6473 198.1647 221.6159 199.019 222.0408 200.6095 C 223.0094 200.3424 227.7157 199.2941 228.2441 199.6335 C 229.0323 200.1403 228.7804 205.4131 233.1152 207.6375 C 236.2467 209.2445 238.2978 206.7417 238.7137 204.3002 C 239.497 199.7029 236.9618 197.7403 237.9792 196.2932 C 238.4616 195.6069 241.7999 195.3923 244.695 194.3535 C 251.5155 191.9064 248.7507 191.3842 250.174 190.6966 C 250.9833 190.3054 253.0784 192.6042 256.1149 193.1347 C 261.2593 194.0339 266.8887 193.503 267.4423 193.8999 C 269.0784 195.0732 259.5957 202.1687 261.3676 204.9187 C 262.657 206.9199 265.7353 205.1375 270.6702 199.3911 C 271.1422 198.8415 274.5149 194.8937 274.593 194.8017 C 277.6455 191.2155 277.8472 190.8539 278.422 189.7183 C 277.4849 189.5048 279.0168 189.8026 272.4779 188.8507 L 262.0483 187.3319 C 260.3358 187.0826 258.9374 186.8666 258.6502 186.6732 C 258.4136 186.514 257.9189 185.6605 257.8975 185.462 C 257.6877 183.5228 265.3272 181.2397 271.5592 182.7335 C 272.7018 181.9084 275.2141 178.2272 274.6066 177.0992 C 273.9553 175.8894 269.9945 176.1013 260.9333 175.7554 C 259.7964 175.712 256.4048 175.5768 253.8616 176.4878 C 250.2288 177.7892 247.3443 180.62 247.2749 181.0974 C 247.0774 182.4606 249.1231 182.6512 248.6562 183.7543 C 248.2384 184.7413 247.1552 183.5396 245.8329 185.5561 C 244.4773 187.6235 245.3348 189.593 244.417 190.0947 C 244.0649 190.2871 244.3366 190.0447 240.4043 190.0773 C 238.7574 190.0909 237.7345 191.4556 236.9951 190.466 C 236.8109 190.2194 236.807 189.7333 236.8493 188.9343 C 236.8636 188.6637 237.219 182.9839 237.2666 182.1723 C 237.5517 177.3102 237.9198 173.7563 233.7698 174.2092 C 225.5417 175.1073 226.8726 181.1792 226.9525 182.7021 Z M 164.593 202.707 C 164.6798 202.2489 172.5882 197.2641 174.6295 196.7796 C 184.5974 194.4142 180.7067 211.741 172.5133 210.0925 C 167.4174 209.0671 164.4719 203.3454 164.593 202.707 Z M 201.4337 196.1388 C 199.7562 195.909 198.698 195.0527 198.5069 194.7116 C 196.603 191.3105 206.808 187.6349 212.1396 188.4743 C 218.6429 189.4981 210.5652 197.3903 201.4337 196.1388 Z" fill-rule="evenodd" fill="#E30103" fill-opacity="1" stroke="none" stroke-opacity="1" stroke-width="0.2310548" stroke-linecap="butt" stroke-linejoin="miter"/>
</defs>
<g>
<use xlink:href="#path_6d27c7ad59297f265a8b66d5495e42aa"/>
</g>
<g>
<use xlink:href="#path_a55a1defbaf580e61531991133e53e80"/>
</g>
<g>
<use xlink:href="#path_b0acf356710e0ec40dc032113eda9ba0"/>
</g>
<g>
<use xlink:href="#path_82d8c16b7bb98095ee558d2dce1d7b97"/>
</g>
<g>
<use xlink:href="#path_a8364f04c3e0de7e094846438bc71af0"/>
</g>
<g>
<use xlink:href="#path_3def2f7d02b9a1bf342dc8e0a35715e1"/>
</g>
<g>
<use xlink:href="#path_0aec9a13272d736ad999598981374ece"/>
</g>
<g>
<use xlink:href="#path_022edd76258f2130ffa5c76454819cca"/>
</g>
</svg>