<svg xmlns="http://www.w3.org/2000/svg" viewBox="0 0 379 270.9"><defs><style>.cls-1{fill:#20323f;}.cls-2{fill:#c4d0d2;}.cls-3{fill:#b3bdbe;}.cls-4{fill:#deeaeb;}</style></defs><g id="Layer_2" data-name="Layer 2"><g id="Layer_1-2" data-name="Layer 1"><path d="M197.9,15c-2.6-1.4-5.5-2.2-7.9-4A133.2,133.2,0,0,1,247.8.1c-1.8,1.8-4.3,1-6.4,1.3a137.6,137.6,0,0,0-37,10.7Z"/><path class="cls-1" d="M247.8.1a136.3,136.3,0,0,1,29.7,4.2,134,134,0,0,1,66.1,39.8,132.2,132.2,0,0,1,33.7,70.5,133.6,133.6,0,0,1-10.6,77.1,135.6,135.6,0,0,1-93.2,75.8,147.2,147.2,0,0,1-38.6,3.2,5.3,5.3,0,0,1-1.7-.4c1.5-1.3,3.3-.6,5-.6s4,.2,6,.4c-10.5-.7-20.4-3.3-30.2-6.8a136.6,136.6,0,0,1-74.3-65.1,131.6,131.6,0,0,1-14.6-47.3,153.2,153.2,0,0,1-.3-27.1,134.4,134.4,0,0,1,25.2-68,7.1,7.1,0,0,1,2.9-2.8,4.8,4.8,0,0,1,3.1.3c9.4,2.3,17.9,6.5,26.1,11.6,1,.6,1.9,1.6,3,2.2l1.7,1.4c1,1.1,3.1,1.4,2.7,3.6s-3.4,3.6-5.1,5.4a77.6,77.6,0,0,0-21.6,44.7,79.9,79.9,0,0,0,11.9,55.1,89.4,89.4,0,0,0,15.5,18.1,2.1,2.1,0,0,1,.4.6,2.7,2.7,0,0,0,2.9,2.2c3.5,2.4,7,4.9,10.8,7a77.8,77.8,0,0,0,19.3,7.4,14,14,0,0,1,3.5,1c-.1,1.2.7.8,1.3.9h.6a4.8,4.8,0,0,0,2.9-.1h1.3a6.2,6.2,0,0,0,2.3.7,31.6,31.6,0,0,0,9.7.2c1.1-.3,2.4-.1,3.5-.5,8.8-1,17.4-2.5,25.6-6,23.3-10.1,39.3-26.9,46.9-51.2,6.3-20.1,5-39.9-4.1-59-10-21.1-26.4-35.4-48.6-42.8-8.4-2.8-17-3.8-25.8-4.1a4.5,4.5,0,0,1-3-2.4,1.4,1.4,0,0,1-.2-.6,1.2,1.2,0,0,0-1-1.3,2.5,2.5,0,0,1-1.6-1.6c-.1-.2-.1-.4-.2-.6a6.4,6.4,0,0,0-3.2-3.3,9.2,9.2,0,0,1-3.9-3.9,4.5,4.5,0,0,0-2.4-2.5,15.9,15.9,0,0,1-2.2-1.3,15.4,15.4,0,0,1-1.9-1.7,10.7,10.7,0,0,0-1.6-1.4c-.6-.3-1.1-.8-1.6-1.1s-3.3-2.8-5.1-3.9c-5.2-3.2-10.2-6.8-15.5-9.8-.6-.4-1.9-.6-1.2-1.9A105.1,105.1,0,0,1,213,7.8,130.6,130.6,0,0,1,242.6.6C244.3.4,246.1.9,247.8.1Z"/><path class="cls-2" d="M227.3,214a70.9,70.9,0,0,1-20.5-6.9c-4.6-2.4-9.4-4.8-13.2-8.6h-.7c-1.3-.1-1.8-1.2-2.4-2.1s-.1-.2-.1-.4.5-2.7,1.5-3.6a82.2,82.2,0,0,0,12.2-14.7,83.5,83.5,0,0,0,12.7-36.8c1.3-13-.8-25.3-5.4-37.4a80.2,80.2,0,0,0-14-23.1,52.1,52.1,0,0,0-7-7.1,3.1,3.1,0,0,1-1.1-1.6c-.2-1.7-2.2-1.6-2.9-2.9s-.6-1.2-1.4-1.1a89.8,89.8,0,0,0-20.4-11.1c-3.8-1.3-7.6-2.8-11.6-3.2-1.2,0-2.6.6-3.6-.8s.6-.7,1-.2-1,0-1.5-.2-2.3-.1-3.4-.4c-2.8-.1-5.4-1-8.2-.5s-6.4.7-9.6,1.1A80.4,80.4,0,0,0,81.5,72.7a79,79,0,0,0-26.8,50.6,78,78,0,0,0,7,44.6,80.2,80.2,0,0,0,35.4,37.4,76.1,76.1,0,0,0,34,9.5,7,7,0,0,1,2.9.4,5.1,5.1,0,0,1,2.3,2.3c.1.7.1,1.4,1,1.7a1.3,1.3,0,0,1,1,1.1c.1.7.3,1.2,1,1.3a2.2,2.2,0,0,1,1.5,1.6c0,.8.3,1.4,1.2,1.5a4.7,4.7,0,0,1,2.6,2.9,1.9,1.9,0,0,0,1.2,1.4c.2.2.5.4.6.7a7.2,7.2,0,0,0,2.5,2.7l.5.5a2.5,2.5,0,0,0,1.9,1.4,24.5,24.5,0,0,1,5.9,5.2c.2.9.9,1,1.7,1.1a141.5,141.5,0,0,0,17.8,11.9,3.8,3.8,0,0,1,.9.9c.3,1.2,1.4,1,2.3,1.2,2.8.9,5.3,2.5,8,3.7.4.2.7.5.5,1s-1.7,1.6-2.8,2a139.7,139.7,0,0,1-31.7,8.3,22.8,22.8,0,0,1-6.9.6c-4.5.1-8.8-.8-13.2-1.6a129.8,129.8,0,0,1-39.1-14.5,134.8,134.8,0,0,1-32.8-25.4A136.3,136.3,0,0,1,26.5,157a142,142,0,0,1-1.8-24.3c.9-25.3,7.6-48.8,21.3-70.2C63.6,35.3,87.6,16.6,118.3,6.3A122.6,122.6,0,0,1,140.6,1c2.3-.4,4.6,0,6.9-.5a140.4,140.4,0,0,1,22.3,3.8,152.6,152.6,0,0,1,18.7,6.4,8,8,0,0,0,1.5.3c2.8,1,5.7,1.7,7.9,4,6.4,3.6,12.6,7.6,18.7,11.8,1.3.9,2.5,2.1,3.8,3.1a1.5,1.5,0,0,0,1.4,1.2l1.6,1.3a2.4,2.4,0,0,0,1.9,1.6l2,1.5a3.7,3.7,0,0,1,1.9,1.8,10.1,10.1,0,0,0,4.9,4.9,7.8,7.8,0,0,1,3.2,3.5c-.1.1-.1.1-.1.2a1.9,1.9,0,0,0,1.8,1.8c.6.2,1,.5.9,1.2h-.3c.6,1.7,2,2.5,3.5,3.3s3.5,4.4,5.1,6.7A132.1,132.1,0,0,1,266.3,97a144,144,0,0,1,5.2,30.6,134.1,134.1,0,0,1-4.8,44.6A128.9,128.9,0,0,1,251,207.6c-1.8,2.7-3.1,5.7-5.8,7.7s-4.4,0-6.6.5h-2.3l-.6-.3c-.5-1.3-1.4-.2-2.1-.5h-1.8a3.9,3.9,0,0,1-3-.2h.1C228.4,214.6,227.6,214.7,227.3,214Z"/><path class="cls-3" d="M147.5.5c-4,.7-7.9,1.2-11.9,2a135.9,135.9,0,0,0-46,17.8,134.3,134.3,0,0,0-29,24.1A132.7,132.7,0,0,0,33.9,88.5a123.9,123.9,0,0,0-7.6,32.9c-.4,5.2-1.1,10.2-.9,15.4.5,13.3,2.2,26.4,6.3,39.2a139.2,139.2,0,0,0,14.1,30.9A137.3,137.3,0,0,0,103.6,258a131.9,131.9,0,0,0,34.7,10.8l8.7,1.4a129.8,129.8,0,0,1-56-6.9,133.7,133.7,0,0,1-63.3-46A131.6,131.6,0,0,1,1.8,156.4,132.8,132.8,0,0,1,0,133.7,137.1,137.1,0,0,1,11.4,81.3,134.6,134.6,0,0,1,43,36.5,133.1,133.1,0,0,1,88.6,8.3,137,137,0,0,1,126.1.4,152.8,152.8,0,0,1,147.5.5Z"/><path d="M177.5,253.8a79.5,79.5,0,0,1-9.8-5.9c-3.1-2.2-6.5-4.2-9.2-7-.8.1-1.2-.5-1.4-1.1l-5.9-5a3.4,3.4,0,0,1-2.1-2.1h.1a6.7,6.7,0,0,1-3.1-3.1l-.4-.4a2.2,2.2,0,0,1-1.6-1.6c-.5-1.3-1.6-2-2.5-2.9s-1.2-.6-1.1-1.4l-1.4-1.5c-.6-.3-1.2-.7-1.1-1.5a2.2,2.2,0,0,0-.9-1c-.6-.3-1.2-.7-1.1-1.5a4.6,4.6,0,0,0-1.9-2,74.6,74.6,0,0,1-9.8-14.6,133.7,133.7,0,0,1-16.2-51,136.3,136.3,0,0,1,7-60.4,140.4,140.4,0,0,1,20-36.9c.6-.8,1-1.7,2.1-2,2.6-.6,5,.7,7.5.4a22,22,0,0,0,3.7.5,1.6,1.6,0,0,1,1,.5c1.1.9,2.6.1,3.6,1-3.9,3.9-6.6,8.7-9.4,13.3a134.7,134.7,0,0,0-11.5,25,132.3,132.3,0,0,0-6,25.6,145.1,145.1,0,0,0-1,25.5,134.1,134.1,0,0,0,5.2,30.8,134.5,134.5,0,0,0,28.3,51.1,132.3,132.3,0,0,0,28.3,24.4,134.4,134.4,0,0,0,44.2,18.5c4.8,1,9.7,2.1,14.6,2.7H233.2a120.2,120.2,0,0,1-27.3-4.8,158.3,158.3,0,0,1-17.5-6.2l-9-4.4C178.6,254.9,178.1,254.3,177.5,253.8Z"/><path class="cls-4" d="M185,67.7c1.1-.5,1.5,0,1.4,1.1Z"/></g></g></svg>