<svg width="100" height="100" viewBox="0 0 62 72" fill="none" xmlns="http://www.w3.org/2000/svg">
<path d="M30.9127 1.6037L30.5322 1.82336L59.9657 52.8036L60.3462 52.584L30.9127 1.6037Z" fill="white"/>
<path d="M1.70111 19.0551L1.48145 19.4355L60.356 53.4268L60.5757 53.0463L1.70111 19.0551Z" fill="white"/>
<path d="M60.7506 19.4556L1.87598 53.4469L2.09563 53.8273L60.9702 19.8361L60.7506 19.4556Z" fill="white"/>
<path d="M31.3553 2.37244H30.916V70.355H31.3553V2.37244Z" fill="white"/>
<path d="M60.57 53.1123H1.70312V53.5516H60.57V53.1123Z" fill="white"/>
<path d="M30.5164 2.07213L1.11035 53.0049L1.4908 53.2245L30.8968 2.29178L30.5164 2.07213Z" fill="white"/>
<path d="M60.57 19.121H1.70312V19.5603H60.57V19.121Z" fill="white"/>
<path d="M60.9717 19.402L31.5107 70.4298L31.8912 70.6495L61.3521 19.6216L60.9717 19.402Z" fill="white"/>
<path d="M2.15489 19.6481L1.77441 19.8678L31.2051 70.8433L31.5856 70.6236L2.15489 19.6481Z" fill="white"/>
<path d="M31.2456 70.5745L1.64746 53.4416V19.1758H1.75726L31.3006 2.09778L60.8987 19.1758V53.4416L31.2456 70.5745ZM2.03183 53.222L31.2456 70.0803L60.4594 53.222V19.4503L31.2456 2.64691L2.03183 19.4503V53.222Z" fill="white"/>
<path d="M60.57 36.1439H1.70312V36.5832H60.57V36.1439Z" fill="white"/>
<path d="M46.2942 11.1183L16.417 61.8397L16.7955 62.0627L46.6727 11.3412L46.2942 11.1183Z" fill="white"/>
<path d="M16.6345 9.78945L16.25 10.0017L44.7259 61.5857L45.1104 61.3734L16.6345 9.78945Z" fill="white"/>
<path d="M40.3618 55.5833H21.0872C20.6858 55.5797 20.2923 55.4714 19.9456 55.2692C19.5989 55.0669 19.3111 54.7777 19.1104 54.4301L14.278 45.9735C13.9769 45.4481 13.8945 44.8253 14.0486 44.2397C14.2027 43.6541 14.581 43.1525 15.1017 42.8434C15.6271 42.5423 16.2498 42.4599 16.8354 42.614C17.4211 42.7681 17.9226 43.1464 18.2317 43.6671L22.46 51.0255H39.1537L42.5583 45.5891L15.2115 29.829C14.9437 29.6819 14.7114 29.4778 14.5311 29.2311C14.3508 28.9844 14.227 28.7011 14.1682 28.4012C14.0889 28.1054 14.0724 27.7962 14.1197 27.4936C14.1669 27.191 14.277 26.9016 14.4428 26.644L19.7693 18.1325C19.966 17.789 20.2562 17.5085 20.6063 17.3238C20.9563 17.139 21.3516 17.0577 21.7461 17.0891L41.0207 17.3088C41.4163 17.3047 41.8053 17.4103 42.1446 17.6139C42.4838 17.8174 42.7601 18.111 42.9426 18.462L47.7201 26.7539C47.8765 27.0121 47.9795 27.2992 48.0228 27.5981C48.066 27.897 48.0487 28.2015 47.9718 28.4935C47.895 28.7855 47.7602 29.0591 47.5754 29.298C47.3907 29.5369 47.1597 29.7361 46.8964 29.8839C46.6381 30.0404 46.351 30.1433 46.0522 30.1866C45.7533 30.2298 45.4488 30.2125 45.1567 30.1356C44.8647 30.0588 44.5911 29.924 44.3522 29.7392C44.1133 29.5545 43.9141 29.3235 43.7663 29.0602L39.6479 21.8666L22.8993 21.7018L19.4398 27.1382L46.8415 42.8983C47.1094 43.0454 47.3416 43.2495 47.5219 43.4962C47.7022 43.7429 47.8261 44.0262 47.8848 44.3261C47.9641 44.6219 47.9807 44.9311 47.9334 45.2337C47.8861 45.5363 47.776 45.8257 47.6103 46.0833L42.2837 54.5399C42.0747 54.8593 41.7897 55.1218 41.4543 55.3039C41.1188 55.486 40.7434 55.582 40.3618 55.5833Z" fill="white"/>
<path d="M30.9711 71.8377C30.7062 71.8364 30.4445 71.7803 30.2024 71.673L0.768845 54.6499C0.540635 54.5121 0.35068 54.3193 0.216361 54.089C0.0820426 53.8587 0.00771099 53.5984 0.000113982 53.332V19.3407C-0.0032159 19.072 0.0664694 18.8074 0.201882 18.5753C0.337295 18.3431 0.53329 18.1522 0.768845 18.0228L30.2024 1.05463C30.4361 0.919679 30.7012 0.848633 30.9711 0.848633C31.241 0.848633 31.5062 0.919679 31.74 1.05463L46.6763 9.73091C47.0235 9.93699 47.2757 10.2713 47.3784 10.6618C47.4812 11.0522 47.4262 11.4673 47.2255 11.8176C47.0194 12.1648 46.6851 12.4169 46.2946 12.5197C45.9042 12.6224 45.489 12.5675 45.1387 12.3667L30.9711 4.18468L3.07517 20.2742V52.5083L30.9711 68.6528L44.4798 60.8551C44.8301 60.6543 45.2452 60.5994 45.6356 60.7022C46.026 60.8049 46.3604 61.0571 46.5665 61.4042C46.7673 61.7545 46.8221 62.1697 46.7194 62.5601C46.6166 62.9505 46.3645 63.2848 46.0174 63.4909L31.74 71.673C31.4978 71.7803 31.236 71.8364 30.9711 71.8377Z" fill="white"/>
</svg>
