<svg width="91" height="128" viewBox="0 0 91 128" fill="none" xmlns="http://www.w3.org/2000/svg">
<path d="M0 46.1865C0.104119 37.997 1.97825 30.2954 5.93477 23.1514C9.19406 17.3097 13.7006 12.2648 19.131 8.37864C24.5615 4.49243 30.7812 1.86124 37.344 0.673825C41.8515 -0.0868464 46.4434 -0.204169 50.9836 0.325336C59.0702 1.19656 66.2891 4.22841 72.8139 9.00271C77.7238 12.6148 81.7967 17.2513 84.7529 22.5938C86.7659 26.1484 88.4664 29.8424 89.3341 33.8151C89.9588 36.603 90.2018 39.4258 90.7224 42.2137C91.243 45.0016 90.8612 48.1032 90.653 51.0305C90.4637 53.7494 90.0809 56.4513 89.5076 59.1154C88.4451 64.0004 86.9228 68.7729 84.9611 73.3686C82.0984 80.097 78.2497 86.3577 73.5427 91.9431C69.968 96.125 65.9767 99.9235 61.2567 102.851C57.6125 105.081 53.7948 106.928 49.5954 107.521C45.3959 108.113 41.1617 107.939 37.1011 106.405C29.431 103.513 23.288 98.5992 17.9779 92.4658C14.4918 88.4252 11.4653 84.007 8.95425 79.2929C6.62704 74.9487 4.73214 70.3847 3.2971 65.667C2.03742 61.7413 1.15419 57.7037 0.659429 53.6093C0.381778 51.135 0.208238 48.6608 0 46.1865ZM28.3551 75.599C28.6675 78.5263 28.8062 81.4884 29.3615 84.3809C30.3333 89.3643 32.2075 93.9295 36.1293 97.4144C39.0099 99.9932 42.4111 101.248 46.1247 101.039C52.3719 100.655 56.606 97.1007 59.3131 91.6294C61.7079 86.7506 62.5755 81.4884 62.5755 76.1217C62.5526 72.9346 62.2857 69.754 61.7773 66.6079C60.698 59.7157 58.5182 53.0435 55.3219 46.8486C53.0703 42.4031 50.3225 38.2293 47.1312 34.4076C45.7083 32.7 45.6041 32.2818 43.8341 34.4773C39.501 39.771 35.9906 45.6926 33.4222 52.0411C30.3681 59.6033 28.5286 67.4095 28.3551 75.599V75.599ZM22.6286 87.4127L22.9756 86.9597C22.9813 86.7847 22.9696 86.6096 22.9409 86.437C21.8415 81.3346 21.5023 76.0967 21.9344 70.8944C22.3972 65.7016 23.4093 60.5731 24.9539 55.5957C26.6295 49.9732 29.0086 44.5867 32.034 39.5652C34.0816 36.1849 36.1987 32.9091 38.8711 29.9469C40.9882 27.612 40.5023 27.8211 38.4546 26.3226C34.6716 23.6392 30.5416 21.5832 25.7868 21.0953C22.3153 20.7011 18.8158 21.5395 15.8955 23.465C12.3902 25.765 10.4119 29.2151 9.02365 33.0485C6.38596 40.1576 6.52478 47.5107 7.67009 54.8639C9.33599 65.4579 13.5355 75.0762 19.7826 83.7884C20.6503 85.0082 21.6221 86.1233 22.6286 87.4127V87.4127ZM68.0244 87.587C68.3154 87.3964 68.5937 87.1868 68.8574 86.9597C71.6215 83.6007 74.0401 79.9695 76.0763 76.1217C80.2758 68.1064 83.1564 59.7079 83.9199 50.5426C84.2856 46.3905 84.1106 42.2082 83.3993 38.1015C82.4276 32.9439 80.5534 28.2045 76.4928 24.5802C75.0312 23.2473 73.3026 22.2437 71.4231 21.6366C69.5435 21.0296 67.5563 20.8331 65.595 21.0604C60.3543 21.5483 55.7384 23.7786 51.643 27.1241C50.6713 27.9257 50.6366 28.1348 51.4348 29.0757C54.6049 32.6854 57.3853 36.622 59.7296 40.8198C63.4395 47.3833 66.1534 54.4659 67.7815 61.8336C68.9137 66.6962 69.3922 71.6891 69.2044 76.6793C69.135 78.4217 69.0656 80.1642 68.8921 81.8718C68.7185 83.5794 68.3368 85.3915 68.0244 87.587V87.587ZM67.6079 14.0907C65.6991 11.8603 60.3543 9.31635 55.426 7.99209C47.0965 5.76176 38.9405 6.42389 30.9928 9.56029C28.251 10.6406 25.5786 11.8952 23.0797 14.1952L24.9886 14.3346C26.8627 14.5785 28.7716 14.6831 30.611 15.1361C35.7475 16.3907 40.2247 19.0043 44.32 22.315C45.3612 23.1514 45.4306 23.1862 46.5759 22.3847C47.7212 21.5832 48.0336 21.2695 48.7971 20.7468C54.1072 17.018 59.799 14.4043 66.4279 14.3346C66.8263 14.28 67.2205 14.1985 67.6079 14.0907V14.0907Z" fill="#49CC68"/>
<path d="M46.4017 127.552C41.0222 127.343 36.5798 126.89 32.2068 125.635C31.7078 125.486 31.2206 125.299 30.7491 125.078C30.0726 124.729 29.5351 124.159 29.2258 123.462C28.9165 122.765 28.8539 121.982 29.0485 121.244C29.2248 120.529 29.6433 119.899 30.2323 119.46C30.8212 119.021 31.5438 118.802 32.2762 118.84C33.7028 119.034 35.1167 119.314 36.5104 119.676C42.6753 121.059 49.0733 121.012 55.2171 119.537L57.4036 118.979C59.5554 118.526 61.4642 119.328 61.7766 121C62.193 123.196 61.9848 124.729 59.0695 125.6C57.5685 126.055 56.0377 126.405 54.4882 126.646C51.5382 127.064 48.5535 127.343 46.4017 127.552Z" fill="#49CC68"/>
</svg>
