<svg width="147" height="132" viewBox="0 0 147 132" fill="none" xmlns="http://www.w3.org/2000/svg">
<path d="M6.07644 61.6488C6.17644 59.0488 6.17653 56.5488 6.17653 53.9488C6.27653 49.6488 6.27639 45.4487 6.27639 41.1488C6.27639 40.8488 6.27658 40.7487 5.97658 40.6488C4.44419 40.2524 3.06845 39.3991 2.03249 38.2024C0.996526 37.0057 0.349314 35.5221 0.176533 33.9488C-0.150316 32.4188 -0.0213795 30.8265 0.547383 29.3691C1.11615 27.9116 2.09972 26.6529 3.37648 25.7487C4.28205 25.0803 5.32466 24.6214 6.42922 24.4051C7.53378 24.1888 8.67265 24.2205 9.76345 24.498C10.8542 24.7755 11.8699 25.2918 12.7368 26.0096C13.6038 26.7274 14.3003 27.6289 14.7764 28.6487L15.2764 29.6487L16.4766 29.1487L29.1765 23.6487C29.8765 23.3487 29.7764 23.5487 29.7764 22.7487C29.6119 21.6924 29.6694 20.6133 29.9448 19.5803C30.2203 18.5473 30.7079 17.583 31.3765 16.7487C31.9835 15.9033 32.7905 15.2214 33.7254 14.764C34.6603 14.3066 35.6939 14.0879 36.7339 14.1275C37.7739 14.1671 38.7879 14.4638 39.6853 14.991C40.5827 15.5182 41.3356 16.2596 41.8765 17.1487C42.0063 17.4368 42.1745 17.7059 42.3765 17.9488L44.8765 16.9488L64.9766 8.24874C65.0429 8.23686 65.106 8.21171 65.1624 8.1748C65.2187 8.13788 65.2669 8.08998 65.3042 8.03394C65.3416 7.97791 65.3673 7.91491 65.3797 7.84872C65.3921 7.78252 65.391 7.71451 65.3765 7.64875C65.7765 4.24875 67.3765 1.74875 70.6765 0.448752C71.6342 0.104206 72.6513 -0.0444841 73.6675 0.0115117C74.6837 0.0675076 75.6783 0.327046 76.5923 0.774726C77.5063 1.22241 78.3211 1.84911 78.9883 2.61765C79.6555 3.3862 80.1617 4.28091 80.4766 5.24874C80.7348 6.10093 80.9351 6.96957 81.0764 7.84875C81.0764 8.14875 81.0765 8.24875 81.3765 8.34875L103.677 17.9488H103.776L104.076 17.5487C104.596 16.5546 105.371 15.7171 106.323 15.1229C107.274 14.5287 108.367 14.1993 109.488 14.1687C110.61 14.1382 111.719 14.4075 112.701 14.949C113.684 15.4904 114.504 16.2844 115.076 17.2487C115.648 18.0331 116.057 18.9235 116.28 19.8678C116.504 20.8122 116.536 21.7916 116.376 22.7487C116.376 23.2487 116.376 23.4487 116.876 23.6487L130.477 29.5487H130.776L131.076 28.9488C131.652 27.4949 132.661 26.2539 133.968 25.3949C135.274 24.536 136.814 24.1008 138.376 24.1487C139.826 24.1503 141.243 24.5776 142.452 25.3776C143.661 26.1776 144.608 27.3151 145.177 28.6487C146.094 30.57 146.274 32.7609 145.685 34.8065C145.095 36.8521 143.776 38.6105 141.977 39.7487L140.076 40.5487C139.98 40.5902 139.9 40.6608 139.846 40.7505C139.792 40.8402 139.768 40.9445 139.776 41.0487C139.776 47.7487 139.876 54.4487 139.876 61.2487C139.875 61.4183 139.935 61.5827 140.045 61.7115C140.155 61.8402 140.309 61.9245 140.477 61.9488C141.555 62.3965 142.504 63.1068 143.237 64.015C143.971 64.9232 144.466 66.0005 144.677 67.1488C145.077 68.6363 145.045 70.2072 144.585 71.6773C144.124 73.1474 143.254 74.4557 142.076 75.4488L140.276 76.4488C139.976 76.5488 139.876 76.6488 139.876 76.9488C139.876 81.1488 139.776 85.2487 139.776 89.3487C139.762 89.4145 139.761 89.4825 139.773 89.5487C139.786 89.6149 139.811 89.6779 139.849 89.7339C139.886 89.79 139.934 89.8379 139.991 89.8748C140.047 89.9117 140.11 89.9369 140.177 89.9488C141.697 90.3997 143.055 91.2821 144.084 92.4891C145.114 93.6961 145.771 95.1757 145.977 96.7487C146.167 98.0448 146.059 99.3672 145.66 100.615C145.261 101.863 144.583 103.003 143.677 103.949C142.885 104.784 141.914 105.429 140.837 105.835C139.76 106.24 138.605 106.396 137.459 106.29C136.313 106.184 135.206 105.819 134.222 105.223C133.238 104.627 132.401 103.815 131.776 102.849C131.476 102.249 131.476 102.249 130.876 102.549L109.876 111.449C109.476 111.649 109.377 111.749 109.477 112.149C109.762 113.309 109.794 114.517 109.569 115.691C109.345 116.864 108.87 117.976 108.177 118.949C107.598 119.794 106.822 120.486 105.916 120.964C105.01 121.442 104.001 121.692 102.977 121.692C101.952 121.692 100.943 121.442 100.037 120.964C99.1308 120.486 98.3548 119.794 97.7764 118.949L96.6765 117.149L93.6765 118.349L81.6765 123.449C81.4658 123.515 81.2829 123.649 81.1563 123.83C81.0296 124.01 80.9665 124.228 80.9766 124.449C80.8331 125.721 80.3973 126.942 79.7034 128.018C79.0095 129.093 78.0762 129.994 76.9766 130.649C76.0519 131.158 75.0322 131.472 73.981 131.571C72.9298 131.67 71.8695 131.552 70.866 131.223C69.8625 130.895 68.9373 130.364 68.1477 129.663C67.3582 128.962 66.7212 128.106 66.2764 127.149C65.7811 126.182 65.4757 125.13 65.3765 124.049C65.3347 123.853 65.2292 123.678 65.0764 123.549L50.6765 117.349L50.3765 117.849C49.9576 118.833 49.2987 119.696 48.4602 120.36C47.6217 121.024 46.6303 121.467 45.5764 121.649C44.3919 121.86 43.1713 121.717 42.0681 121.237C40.9649 120.756 40.0284 119.96 39.3765 118.949C38.6847 118.032 38.201 116.976 37.9592 115.853C37.7175 114.731 37.7235 113.569 37.9766 112.449C38.0766 112.049 37.9764 111.849 37.5764 111.649L15.1765 102.049H14.7764L14.4766 102.549C13.8163 103.736 12.8418 104.719 11.6599 105.389C10.4781 106.059 9.13439 106.391 7.77639 106.349C6.10594 106.319 4.49043 105.747 3.1736 104.719C1.85677 103.691 0.910271 102.262 0.476582 100.649C-0.164656 98.7162 -0.0822046 96.6165 0.70876 94.7403C1.49972 92.864 2.94516 91.339 4.77639 90.4488L5.97658 90.0487C6.0726 90.0073 6.15299 89.9367 6.20681 89.847C6.26062 89.7573 6.28497 89.653 6.27639 89.5487C6.27639 85.4487 6.17653 81.3487 6.17653 77.3487C6.17653 77.0487 6.17649 76.9487 5.87648 76.8487C4.64215 76.6388 3.49124 76.0872 2.55446 75.2565C1.61768 74.4257 0.93246 73.3491 0.576436 72.1488C-0.0477278 70.583 -0.161301 68.8602 0.251729 67.226C0.664759 65.5918 1.58334 64.1299 2.87648 63.0487C3.80306 62.3114 4.90607 61.8288 6.07644 61.6488ZM87.1765 63.1488V65.5487C87.1902 65.6924 87.159 65.8368 87.0874 65.9621C87.0158 66.0874 86.9071 66.1875 86.7764 66.2487L80.2764 68.6488C80.1723 68.7075 80.0881 68.796 80.0347 68.9029C79.9812 69.0098 79.9611 69.1302 79.9766 69.2487C79.989 69.6844 79.9554 70.1201 79.8765 70.5487C79.7474 71.7469 79.3238 72.8945 78.6433 73.8891C77.9628 74.8837 77.0466 75.6944 75.9766 76.2487C75.5766 76.4487 74.9764 76.5487 74.7764 76.8487C74.5764 77.1488 74.7764 77.8487 74.7764 78.2487C74.6764 82.4487 74.6764 86.6488 74.5764 90.8487C74.5679 90.953 74.5922 91.0573 74.646 91.147C74.6998 91.2367 74.7805 91.3073 74.8765 91.3487C75.8269 91.6304 76.7043 92.1165 77.447 92.7729C78.1898 93.4294 78.7801 94.2402 79.1765 95.1488C79.2765 95.3487 79.3765 95.4488 79.3765 95.6488L86.2764 92.6488L102.677 85.2487C102.877 85.2487 103.076 84.9487 103.076 84.7487C103.076 84.5487 103.376 83.7487 103.576 83.3487C103.942 82.3768 104.517 81.4969 105.26 80.7713C106.003 80.0456 106.896 79.4917 107.876 79.1488C108.376 79.0488 108.376 78.8488 108.376 78.4488V64.8487C108.376 64.6488 108.376 64.4487 108.076 64.3487C107.056 64.0379 106.12 63.4978 105.34 62.7699C104.56 62.042 103.957 61.1455 103.576 60.1488C103.476 60.0488 103.476 59.8487 103.376 59.7487L98.8765 61.4488V58.9488C98.8765 58.6488 98.9764 58.5488 99.2764 58.4488L101.977 57.4488C102.677 57.1488 103.077 56.9487 102.977 56.1488C102.962 56.0078 102.997 55.8661 103.076 55.7487C103.091 55.683 103.092 55.615 103.08 55.5488C103.067 55.4826 103.042 55.4196 103.004 55.3635C102.967 55.3075 102.919 55.2596 102.862 55.2227C102.806 55.1858 102.743 55.1606 102.677 55.1488L99.9766 54.0487C99.7907 54.0133 99.6138 53.9406 99.4568 53.835C99.2998 53.7293 99.1658 53.5929 99.063 53.434C98.9602 53.2751 98.8905 53.097 98.8584 52.9105C98.8264 52.7239 98.8326 52.5328 98.8765 52.3487C98.927 51.7498 98.927 51.1477 98.8765 50.5487L103.977 52.7487L104.177 52.5487C105.033 51.0763 106.434 49.9991 108.076 49.5487C108.376 49.4487 108.276 49.2487 108.276 49.0487V29.4488C107.431 29.064 106.627 28.595 105.876 28.0487C104.838 27.2246 104.027 26.1493 103.519 24.9245C103.012 23.6997 102.825 22.3658 102.977 21.0487C102.991 20.983 102.992 20.915 102.98 20.8488C102.967 20.7826 102.942 20.7196 102.904 20.6635C102.867 20.6075 102.819 20.5596 102.762 20.5227C102.706 20.4858 102.643 20.4606 102.576 20.4488L83.7764 12.3487L80.6765 11.0487L80.4766 11.3487C80.0533 12.6045 79.317 13.7318 78.3372 14.6241C77.3574 15.5164 76.1663 16.1444 74.8765 16.4488C74.5765 16.5488 74.5764 16.6488 74.5764 16.9488C74.5764 22.5488 74.4766 28.1487 74.4766 33.7487C74.4766 34.0487 74.5764 34.0488 74.7764 34.1488C75.5829 34.4672 76.3538 34.8694 77.0764 35.3487C78.0426 36.1452 78.8083 37.1573 79.312 38.3036C79.8157 39.4499 80.0434 40.6984 79.9766 41.9488C79.9621 42.0145 79.9608 42.0825 79.9732 42.1487C79.9856 42.2149 80.0113 42.2779 80.0486 42.3339C80.086 42.39 80.1344 42.4379 80.1907 42.4748C80.247 42.5117 80.3102 42.5369 80.3765 42.5487L86.7764 45.3487C86.9764 45.4487 87.1765 45.5488 87.1765 45.6488V48.4488L79.2764 45.0487C77.9764 47.6487 76.0764 49.2487 73.0764 49.2487C70.0764 49.2487 68.3764 47.4488 67.0764 44.9488L58.7764 48.5487V48.0487C58.793 47.3805 58.7597 46.712 58.6765 46.0487C58.6765 45.6487 58.8765 45.5487 59.1765 45.3487L66.0764 42.4488C66.1427 42.4369 66.2059 42.4117 66.2622 42.3748C66.3186 42.3379 66.367 42.29 66.4043 42.2339C66.4417 42.1779 66.4674 42.1149 66.4798 42.0487C66.4922 41.9825 66.4911 41.9145 66.4766 41.8487C66.4559 41.3798 66.4893 40.91 66.5764 40.4488C66.6956 39.0773 67.2001 37.7675 68.0318 36.6704C68.8634 35.5734 69.9881 34.7339 71.2764 34.2487C71.5764 34.1487 71.5764 34.0487 71.5764 33.7487C71.5764 28.1487 71.5766 22.4487 71.4766 16.8487C71.4852 16.7445 71.4608 16.6402 71.407 16.5505C71.3532 16.4608 71.2726 16.3902 71.1765 16.3487C69.9604 15.9945 68.8455 15.3564 67.9241 14.4872C67.0027 13.6179 66.301 12.5423 65.8765 11.3487C65.8765 11.1487 65.7765 11.0487 65.6765 10.8487L65.2764 11.0487L51.4766 16.9488L43.4766 20.4488C43.2766 20.5488 43.0765 20.5487 43.1765 20.8487C43.426 22.6752 43.0205 24.531 42.032 26.087C41.0435 27.6429 39.5358 28.7985 37.7764 29.3487V34.5487C37.7764 39.3487 37.6765 44.1488 37.6765 48.9488C37.662 49.0145 37.6609 49.0825 37.6734 49.1487C37.6858 49.2149 37.7114 49.2779 37.7488 49.3339C37.7862 49.39 37.8343 49.4379 37.8906 49.4748C37.947 49.5117 38.0101 49.5369 38.0764 49.5487C39.645 49.9817 40.9983 50.9789 41.8765 52.3487L42.0764 52.7487L46.9766 50.6488V53.2487C46.9766 53.5487 46.8764 53.6487 46.5764 53.7487L44.0764 54.8487C43.0764 55.2487 43.0765 55.2487 43.1765 56.3487C43.2765 57.4487 43.2764 56.7487 43.5764 56.8487L45.6765 57.6488C46.0765 57.8488 46.6765 57.8487 46.8765 58.2487C47.0765 58.6487 46.9766 59.1487 46.9766 59.5487V61.0487L42.8765 59.4488L42.6765 59.9488C42.3098 61.009 41.6901 61.9638 40.8711 62.7305C40.0521 63.4972 39.0587 64.0527 37.9766 64.3487C37.6766 64.4487 37.5765 64.5487 37.6765 64.8487C37.6765 66.7487 37.5764 68.6487 37.5764 70.5487V78.6488C37.5764 78.8487 37.5765 79.0488 37.8765 79.1488C40.9765 80.0488 42.5764 82.2487 43.0764 85.3487C43.1023 85.56 43.1797 85.7617 43.3018 85.936C43.4238 86.1104 43.5868 86.2521 43.7764 86.3487L63.9766 95.1488L66.7764 96.3487V96.1488C67.0964 95.0084 67.6929 93.9647 68.5127 93.1099C69.3326 92.2552 70.3506 91.6159 71.4766 91.2487C71.6766 91.2487 71.7764 91.0487 71.7764 90.8487C71.7598 89.9143 71.7932 88.9796 71.8765 88.0487C71.8765 84.4487 71.8766 80.8487 71.9766 77.2487C71.9766 76.9487 71.7766 76.8487 71.4766 76.7487C70.68 76.409 69.9109 76.0078 69.1765 75.5487C68.2562 74.7632 67.526 73.7791 67.041 72.6705C66.556 71.562 66.3288 70.3578 66.3765 69.1488C66.4079 68.9771 66.374 68.7999 66.2815 68.6519C66.189 68.5039 66.0446 68.3958 65.8765 68.3487L58.9766 65.7487C58.6766 65.6487 58.5764 65.5487 58.5764 65.2487C58.6596 64.5855 58.6931 63.917 58.6765 63.2487V62.7487L66.9766 65.9488C68.3766 63.2488 70.2764 61.5488 73.2764 61.6488C76.2764 61.7487 78.0765 63.5488 79.3765 66.1488L87.1765 63.1488ZM8.97658 51.3487H8.87648V61.3487C8.84577 61.4968 8.85757 61.6506 8.91066 61.7922C8.96376 61.9337 9.05603 62.0574 9.17653 62.1488C10.6006 62.7207 11.7719 63.7854 12.4766 65.1488C12.4968 65.2064 12.5298 65.2586 12.5733 65.3014C12.6168 65.3442 12.6696 65.3765 12.7276 65.3958C12.7855 65.4151 12.847 65.4209 12.9075 65.4128C12.968 65.4046 13.0257 65.3827 13.0764 65.3487L18.0764 63.1488L29.2764 58.2487C29.6764 58.1487 29.6765 57.9487 29.6765 57.5487C29.6432 56.7435 29.7104 55.9373 29.8765 55.1488C30.0886 53.8807 30.6364 52.6926 31.4629 51.7078C32.2894 50.723 33.3644 49.9775 34.5764 49.5487C34.8764 49.4487 34.9766 49.3488 34.9766 48.9488V45.0487C34.9766 39.9487 35.0764 34.8487 35.0764 29.6487C35.085 29.5445 35.0607 29.4402 35.0069 29.3505C34.953 29.2608 34.8724 29.1902 34.7764 29.1487C33.9866 28.9632 33.2428 28.6194 32.5896 28.1381C31.9365 27.6568 31.3878 27.0481 30.9766 26.3487C30.7766 26.0487 30.6765 25.9487 30.3765 26.1487L16.1765 32.2487C16.0272 32.2931 15.8967 32.3861 15.8062 32.5129C15.7156 32.6397 15.6701 32.7931 15.6765 32.9488C15.6923 33.2522 15.6584 33.5562 15.5764 33.8487C15.374 35.4954 14.6709 37.0401 13.562 38.2742C12.4532 39.5082 10.9922 40.372 9.37648 40.7487C9.07648 40.7487 8.97658 40.9487 8.97658 41.2487V51.3487ZM132.477 65.0487L132.776 64.6488C133.71 63.2455 135.138 62.2457 136.776 61.8487C137.176 61.7487 137.177 61.5488 137.177 61.1488V53.6488C137.077 49.5488 137.076 45.4487 137.076 41.2487C137.076 40.9487 136.976 40.7487 136.576 40.6488L134.876 40.1488C133.533 39.4569 132.404 38.4114 131.611 37.1249C130.818 35.8385 130.391 34.3599 130.376 32.8487C130.376 32.6487 130.376 32.4487 130.076 32.3487L115.677 26.1487C115.377 25.9487 115.277 26.0487 115.177 26.2487C114.334 27.6306 113.02 28.6607 111.477 29.1487C111.077 29.2487 110.977 29.4487 110.977 29.8487V48.7487C110.977 49.2487 111.076 49.5487 111.576 49.5487L112.076 49.7487C113.531 50.4488 114.728 51.5881 115.5 53.0056C116.271 54.4232 116.578 56.0474 116.376 57.6488C116.363 57.7924 116.394 57.9368 116.466 58.0621C116.537 58.1874 116.646 58.2875 116.776 58.3487L128.876 63.5487L132.477 65.0487ZM103.076 88.1488H102.977L80.2764 98.2487C79.9764 98.3487 79.9766 98.4487 79.9766 98.7487C79.8585 99.6901 79.6916 100.625 79.4766 101.549C79.3766 101.849 79.4764 101.949 79.7764 102.149L96.8765 109.649C97.2765 109.849 97.3765 109.749 97.6765 109.449C98.216 108.555 98.9794 107.817 99.8914 107.308C100.803 106.8 101.832 106.538 102.876 106.549C103.866 106.521 104.847 106.733 105.735 107.169C106.624 107.604 107.393 108.25 107.977 109.049C108.056 109.155 108.174 109.225 108.306 109.244C108.437 109.262 108.57 109.228 108.677 109.149L117.477 105.449L130.177 100.049C130.377 99.9487 130.477 99.8488 130.477 99.4488C130.376 98.6185 130.376 97.7791 130.477 96.9488C130.535 96.2765 130.635 95.6085 130.776 94.9488L116.177 88.9488C114.977 92.1488 112.976 94.4488 109.276 94.1488C105.576 93.8487 103.876 91.4488 103.076 88.1488ZM15.1765 95.0487C15.1765 95.1487 15.2764 95.1487 15.2764 95.2487C15.7108 96.4654 15.8481 97.7683 15.6765 99.0487C15.5765 99.3487 15.7766 99.4487 15.9766 99.5487L38.6765 109.349C39.0765 109.549 39.1766 109.449 39.4766 109.149C40.0063 108.372 40.7085 107.728 41.5283 107.267C42.3482 106.806 43.2633 106.542 44.2024 106.493C45.1416 106.445 46.0793 106.614 46.9422 106.988C47.805 107.362 48.5697 107.93 49.1765 108.649C49.2676 108.737 49.3845 108.795 49.5103 108.813C49.6361 108.831 49.7643 108.808 49.8765 108.749L62.9766 102.949L66.7764 101.249L66.4766 99.6488C66.4766 99.3487 66.3766 99.1488 65.9766 98.9488L43.5764 89.1488L42.9766 88.8487C41.8766 91.8487 40.0765 93.9488 36.8765 94.1488C33.6765 94.3487 31.1766 92.1488 29.9766 88.9488L15.1765 95.0487ZM30.5764 60.7487H30.3765L13.8765 67.9488C13.5765 68.0488 13.4766 68.1488 13.4766 68.4488C13.6543 69.8906 13.4309 71.3536 12.8311 72.6768C12.2312 74 11.278 75.1321 10.0764 75.9488C8.87644 76.2488 8.87648 77.0487 8.87648 78.0487C8.97649 81.8487 8.97658 85.5487 8.97658 89.2487C8.97658 89.5487 8.97649 89.8488 9.37648 89.9488C11.0114 90.2404 12.4951 91.0883 13.5764 92.3487C13.7764 92.5487 13.8764 92.6488 14.2764 92.4488L29.0764 86.3487C29.5764 86.1488 29.6764 85.9487 29.7764 85.3487C29.9219 83.9835 30.4496 82.6869 31.2986 81.6079C32.1477 80.5289 33.2837 79.7112 34.5764 79.2487C34.6725 79.2073 34.7531 79.1367 34.8069 79.047C34.8607 78.9573 34.8851 78.853 34.8765 78.7487C34.8765 74.0487 34.8766 69.4487 34.9766 64.7487C34.9789 64.6318 34.94 64.5177 34.867 64.4263C34.7939 64.335 34.6911 64.2721 34.5764 64.2487C32.9536 63.7512 31.5897 62.6386 30.7764 61.1488C30.6764 61.0488 30.6764 60.8487 30.5764 60.7487ZM137.076 76.8487H136.876C135.465 76.5361 134.198 75.762 133.276 74.6488C132.572 73.7909 132.05 72.7991 131.741 71.7333C131.431 70.6676 131.341 69.5502 131.477 68.4488C131.577 67.7488 131.577 67.7488 130.977 67.4488L119.576 62.5487L115.576 60.8487V61.0487C115.152 61.8589 114.572 62.5766 113.868 63.1603C113.164 63.744 112.351 64.182 111.477 64.4488C111.177 64.5488 111.177 64.7488 111.177 64.9488V78.8487C111.177 79.1488 111.376 79.1488 111.576 79.3487C112.348 79.6343 113.085 80.0031 113.776 80.4488C114.576 81.1126 115.229 81.9355 115.694 82.8651C116.159 83.7947 116.425 84.8107 116.477 85.8487C116.499 85.9579 116.546 86.0602 116.616 86.1472C116.686 86.2341 116.775 86.3032 116.876 86.3487L131.876 92.5487C131.983 92.6283 132.116 92.6625 132.247 92.6437C132.378 92.625 132.497 92.5548 132.576 92.4488C133.615 91.2858 134.97 90.4516 136.477 90.0487L137.177 89.8487L137.076 76.8487ZM50.9766 111.249C51.0766 112.249 51.2764 113.249 51.2764 114.149C51.2653 114.344 51.3181 114.537 51.4263 114.699C51.5345 114.861 51.6924 114.984 51.8765 115.049L64.0764 120.249L65.6765 120.949V120.749C66.0587 119.428 66.7747 118.228 67.7556 117.265C68.7365 116.301 69.949 115.607 71.2764 115.249C71.3644 115.226 71.4421 115.174 71.4966 115.101C71.5511 115.029 71.5793 114.94 71.5764 114.849C71.5764 112.149 71.5765 109.349 71.6765 106.549C71.6765 106.349 71.5764 106.249 71.2764 106.149C70.0382 105.758 68.954 104.989 68.1765 103.949C67.9765 103.749 67.8764 103.749 67.5764 103.849L54.9766 109.449L50.9766 111.249ZM80.7764 121.049L82.2764 120.449L95.7764 114.649C96.0764 114.549 96.1765 114.349 96.1765 113.949C96.1765 113.549 96.2764 113.149 96.2764 112.749C96.2764 112.349 96.2766 112.249 95.9766 112.149L78.3765 104.449C78.3225 104.392 78.256 104.348 78.1822 104.322C78.1083 104.295 78.0291 104.286 77.9512 104.296C77.8733 104.306 77.7988 104.334 77.7337 104.378C77.6686 104.422 77.6147 104.48 77.5764 104.549C76.8586 105.342 75.9174 105.9 74.8765 106.149C74.5765 106.249 74.4766 106.349 74.4766 106.749C74.4766 109.049 74.3765 111.449 74.3765 113.749V115.149C78.1765 116.349 78.8764 116.949 80.7764 121.049Z" fill="white"/>
<path d="M97.7754 87.2487H88.9756V58.4487H57.1755V87.2487H48.2754V21.9487H57.0754V51.4487H88.8755V21.9487H97.7754V87.2487Z" fill="white"/>
</svg>
