<svg id="Layer_1" data-name="Layer 1" xmlns="http://www.w3.org/2000/svg" viewBox="0 0 278.5 63.78"><defs><style>.cls-1{fill:#023f97;}.cls-2{fill:#0062df;}</style></defs><title>logo</title><path class="cls-1" d="M187,19.13H165.45L171.67,0H152.53L131.81,63.78h39.83a21.26,21.26,0,0,0,20.22-14.69l5.21-16A10.64,10.64,0,0,0,187,19.13ZM178.1,32.54,173.79,45.8a10.63,10.63,0,0,1-10.11,7.35H154.4L162,29.76h14.08A2.12,2.12,0,0,1,178.1,32.54Z"/><polygon class="cls-1" points="220.57 0 216.42 12.76 235.56 12.76 239.7 0 220.57 0"/><polygon class="cls-1" points="199.84 63.78 218.98 63.78 233.48 19.13 214.35 19.13 199.84 63.78"/><path class="cls-1" d="M262.18,29.76h12.87l3.45-10.63H265.63L271.85,0H252.71l-16.2,49.86a10.64,10.64,0,0,0,10.12,13.92h21.24l3.46-10.63H257.49a2.11,2.11,0,0,1-2-2.77Z"/><path class="cls-2" d="M54.64,22.26,75.57,0H53.15L35.88,53.15H21.52a2.13,2.13,0,0,1-2-2.78L35.87,0H16.73L.53,49.88a10.62,10.62,0,0,0,10.1,13.9H51.56l14.5-44.65Z"/><path class="cls-2" d="M125.44,0h-44L88,22.26l-9.39-3.12L64.05,63.78H83.19L90.1,42.52h20.69A21.26,21.26,0,0,0,131,27.83l4.53-13.93A10.63,10.63,0,0,0,125.44,0Zm-8.88,13.4-3.62,11.15a10.63,10.63,0,0,1-10.11,7.34H93.55l6.91-21.26h14.09A2.11,2.11,0,0,1,116.56,13.4Z"/></svg>