<svg width="669" height="669" viewBox="0 0 669 669" fill="none" xmlns="http://www.w3.org/2000/svg">
<path d="M306.226 328.032L0.0839844 199.265V486.111C0.24468 498.075 3.82427 509.742 10.4003 519.737C16.9763 529.732 26.2744 537.637 37.197 542.52L304.05 668.31H306.267L306.226 328.032ZM334.06 278.767L649.85 146.121C644.535 140.216 638.102 135.422 630.924 132.018L363.743 7.04917C354.464 2.65741 344.326 0.379395 334.06 0.379395C323.795 0.379395 313.657 2.65741 304.378 7.04917L37.197 132.1C30.0186 135.505 23.586 140.298 18.271 146.203L334.06 278.767ZM361.895 328.032V668.31H363.743L630.924 542.52C641.79 537.664 651.05 529.816 657.622 519.893C664.194 509.969 667.806 498.381 668.037 486.481V199.265L361.895 328.032Z" fill="url(#paint0_linear_18_2)"/>
<defs>
<linearGradient id="paint0_linear_18_2" x1="334.06" y1="0.379395" x2="334.06" y2="668.31" gradientUnits="userSpaceOnUse">
<stop stop-color="#85FFC5"/>
<stop offset="1" stop-color="#7FB4F9"/>
</linearGradient>
</defs>
</svg>
