<svg version="1.1" id="Layer_1" xmlns="http://www.w3.org/2000/svg" x="0" y="0" viewBox="0 0 269.9 91.8" xml:space="preserve"><style>.st0{fill:#028bf4}</style><path class="st0" d="M26.1 59L9.7 29.4h19.2l8.6 18.4L52 29.4h19.6L45.4 61.9l15.9 28.9H42.6L34 73.1 20 90.8H0zM149.9 48.2c1-5.7-2.1-6.9-8.5-6.8-11 .1-12 7.2-13.5 14.8-.1-.1 20 3.3 22-8m-7.4-19.9c13.2-.1 24.9 3.6 24 17.7-1.8 27.9-35.7 22.5-40 20.8-1.6 9.4.7 11.8 8.9 11.9 6.8.2 17.9-.8 25.1-2l-2 11.5c-9.2 2.8-19.2 4.2-32 3.4-14.7-.7-19.4-13-15.2-35.5 3.6-18.8 8.7-27.7 31.2-27.8"></path><path class="st0" d="M116.2 31.7c.8-.8 1.6-1.5 2.5-2.2H94.1l.7-4.4c1.5-9.8 2.1-12.8 8.9-12.7l10.4.1 1.5-9.7c-3.1-1.5-8.9-2.8-14.1-2.8-13.6 0-19.8 5.4-22.3 21.3l-1.3 8.2-9.5 12.3h7.4l-8 49H84l8-49h17.9c1.5-3.9 3.5-7.3 6.3-10.1zM216.6 78.2h28.9c1 0 4-.1 4.7-3.9l.6-3.1c.3-2.5-.2-3.9-3.6-3.9h-13.7c-10.9 0-17-6-15.1-17.8l.9-5.5c1.5-9.7 6.7-15.2 18.6-15.2 11.8 0 27.8.3 32.1 3.1l-1.6 10.2h-27.7c-4.2 0-5.1 2.1-5.4 4.3l-.5 3c-.8 4.5 2 3.9 4.2 3.9h14.1c11.8 0 15.7 8.2 14.2 17.1l-1 7c-2 12.6-10.5 14.3-17.6 14.3-11.7 0-29.8-.5-33.6-3.4l1.5-10.1zM214.3 43.1c1-6.2 3.3-10.9 6.9-14.1-5.6-.1-10.8-.1-12-.1-7.6 0-14 4.2-18.9 8.3l-1.3-7.7h-13.6l-9.7 61.3h16.2l6.1-39.2c5-5.7 10-6.8 16.7-6.8 1.2 0 4.9 0 9.3.1l.3-1.8z"></path></svg>