<?xml version="1.0" encoding="UTF-8"?>
<svg viewBox="0 0 500 500" xmlns="http://www.w3.org/2000/svg" xmlns:xlink="http://www.w3.org/1999/xlink">
<defs>
<style>.cls-1{fill:url(#l);}.cls-2{fill:url(#b);}.cls-3{fill:url(#a);}.cls-4{fill:url(#k);}.cls-5{fill:url(#j);}.cls-6{fill:url(#i);}.cls-7{fill:url(#h);}.cls-8{fill:url(#g);}.cls-9{fill:url(#f);}.cls-10{fill:url(#c);}.cls-11{fill:url(#e);}.cls-12{fill:none;stroke-miterlimit:10;stroke-width:3px;stroke:url(#d);}</style>
<linearGradient id="l" x1="250" x2="250" y1="497.98" y2="2.02" gradientUnits="userSpaceOnUse">
<stop offset="0"/>
<stop stop-color="#414042" offset="1"/>
</linearGradient>
<linearGradient id="b" x1="2066.3" x2="2061.7" y1="284.15" y2="284.15" gradientUnits="userSpaceOnUse">
<stop stop-color="#fff" offset="0"/>
<stop stop-color="#2bb673" offset="1"/>
</linearGradient>
<linearGradient id="a" x1="2066.3" x2="2061.7" y1="247.52" y2="247.52" gradientUnits="userSpaceOnUse">
<stop stop-color="#fff" offset="0"/>
<stop stop-color="#2ee192" offset="1"/>
</linearGradient>
<linearGradient id="k" x1="2066.3" x2="2061.7" y1="270.52" y2="270.52" xlink:href="#a"/>
<linearGradient id="j" x1="2066.3" x2="2061.7" y1="206.96" y2="206.96" xlink:href="#a"/>
<linearGradient id="i" x1="2066.3" x2="2061.7" y1="171.09" y2="171.09" xlink:href="#a"/>
<linearGradient id="h" x1="2066.3" x2="2061.7" y1="150.18" y2="150.18" xlink:href="#a"/>
<linearGradient id="g" x1="2066.3" x2="2061.7" y1="149.33" y2="149.33" xlink:href="#a"/>
<linearGradient id="f" x1="2066.3" x2="2061.7" y1="123.69" y2="123.69" xlink:href="#a"/>
<linearGradient id="c" x1="2066.3" x2="2061.7" y1="190.7" y2="190.7" gradientUnits="userSpaceOnUse">
<stop stop-color="#fff" offset="0"/>
<stop stop-color="#5bba85" offset="1"/>
</linearGradient>
<linearGradient id="e" x1="2066.3" x2="2061.7" y1="399.46" y2="399.46" xlink:href="#a"/>
<linearGradient id="d" x1="396.1" x2="-102.15" y1="-555.44" y2="-555.44" gradientTransform="translate(-279.06 474.08) rotate(52.22)" xlink:href="#b"/>
</defs>
<g data-name="Ram Logo">
<circle class="cls-1" cx="250" cy="250" r="247.98"/>
</g>
<g data-name="Layer 4">
<path class="cls-2" d="M320.88,184.46c13.94-18.16,10.68-43.71,6.75-66.26a125.21,125.21,0,0,1-44.24,21.3q2.64,8.07,5.27,16.13a17.75,17.75,0,0,1,17.41-9.78c-4.94,2.58-4.33,9.92-1.88,14.92s6.12,10.1,5,15.55c-1,5-5.65,8.18-9.86,11a362.2,362.2,0,0,0-32,23.95c-8.21,31.95-23.91,61.82-58.93,62.25q-5.79,7.75-11.16,15.79c18.48-6,39.06-8.38,57-1.06,26,10.6,40.46,39,45.71,66.57,5.95,31.34,2.93,63.54-.7,95.3.62-.93,1.26-1.84,1.9-2.74,9.05-32.12,17.31-64.62,19.48-97.88,2.39-36.51-3-74.42-21.54-106-3.31-5.66-7.13-11.37-7.7-17.91-.74-8.69,4.49-16.81,10.66-23S315.57,191.38,320.88,184.46Z"/>
<path class="cls-3" d="m152 250.3a14.46 14.46 0 0 1 14.23-0.7 40.88 40.88 0 0 0-0.47-15.39 32 32 0 0 1-29.44 8.14 36.38 36.38 0 0 0 2.24 15.29l1.33 3.18c4.92-2.2 7.61-7.59 12.11-10.52z"/>
<path class="cls-4" d="m162.28 291a41.77 41.77 0 0 0 35.5-18.68c3.21-4.94 5.32-10.55 8.74-15.36a22.69 22.69 0 0 1 7.71-7 37.48 37.48 0 0 0-11.88 5.69 5.53 5.53 0 0 1-2.11 1c-21.53 15.64-43.63 28.53-67.06 21a41.87 41.87 0 0 0 29.1 13.35z"/>
<path class="cls-5" d="m243.55 216.52a98.51 98.51 0 0 1 42.3-30.77c-5.61 0.51-12.15-6.43-18.65-5.89-2.57 0.22-4.85 1.62-7.16 2.79a42.23 42.23 0 0 1-38-0.31c-2.93-1.54-5.71-3.44-8.85-4.49-6.38-2.12-13.33-0.49-19.82 1.22-5.68 1.5-11.42 3.08-16.51 6-4.72 2.74-8.71 6.57-12.45 10.54a168.17 168.17 0 0 0-20.7 27 26 26 0 0 1 46 14.46c3.26-7.2 6.65-14.58 12.38-20 11.06-10.43 30.17-10.69 41.46-0.55z"/>
<path class="cls-6" d="m261.17 163.35c-4.29-2.06-9.56-2.49-13.75-0.23-6.51 3.51-8.92 12.43-15.72 15.35 4.47 1.16 9 2.26 13.65 2.09s9.37-1.78 12.4-5.27c2.26-2.6 4-6.44 7.44-6.69a6.13 6.13 0 0 1 4.32 1.71v-0.39a27.74 27.74 0 0 0-8.34-6.57z"/>
<path class="cls-7" d="M205.9,116.34c-15.42.34-29.11,11-37.21,24.16S157.07,169,153.68,184A65.43,65.43,0,0,1,210.11,164c4.19.6,8.47,1.62,12.61.73,4.37-.94,8-3.85,11.8-6.18a49,49,0,0,1,34.94-6,6.57,6.57,0,0,1,.05-1C259.3,146,250.61,138,241.34,130.9,231,123,218.92,116.06,205.9,116.34Z"/>
<path class="cls-8" d="m418.8 105.17c-14.86-36.27-55.86-57.75-95-56.17s-75.57 23.14-102 52.1l40.37 29.54c2.14 1.57 4.44 3.2 7.08 3.37 5.35 0.34 9-5 12.27-9.28a46.83 46.83 0 0 1 76.18 2.94c8.52 13 10.09 29.3 9 44.77a153.13 153.13 0 0 1-27.34 77.29c27.82-12.36 53.48-31.25 69.53-57.13s21.45-59.26 9.91-87.43z"/>
<path class="cls-9" d="m147.43 162.16a106.15 106.15 0 0 1 46.14-52.77 16.36 16.36 0 0 0 4.89-3.54c2.76-3.39 2-8.6-0.37-12.24-4.55-6.91-13.88-9.42-22-8s-15.35 6-22 10.89c-5.25 3.82-10.59 8.23-12.59 14.39-1.47 4.51-1 9.39-0.36 14.1q2.36 18.69 6.29 37.17z"/>
<path class="cls-10" d="M87.29,241.66c12-1.51,22.28-9.55,29.57-19.16s12.1-20.82,17.51-31.6c2.65-5.29,5.52-10.68,6-16.58,1-11.92-7.72-23.3-8.22-34.83a5.68,5.68,0,0,1-1,.31c-3.34,13.53-7.48,26.94-14.49,38.95-8.11,13.87-20.56,25.85-36,30.28S46.83,209,37.4,196c3,12,8,23.76,16.61,32.65S75,243.2,87.29,241.66Z"/>
<path class="cls-11" d="m223.94 303.46c-16 0-31.18 6.43-46.74 10.13s-33.56 4.1-45.8-6.21a58.69 58.69 0 0 0 48.64 76c18.7 2.34 38.3-4.3 56.22 1.51 20 6.49 32.55 27.47 35.26 48.34s-2.55 41.88-7.94 62.23c11.19-23.68 22.45-47.61 28.11-73.18s5.3-53.29-6.14-76.85-35.42-41.93-61.61-41.97z"/>
<circle class="cls-12" cx="250" cy="250" r="247.63"/>
</g>
</svg>
