<?xml version="1.0" encoding="utf-8"?>
<!-- Generator: Adobe Illustrator 16.0.0, SVG Export Plug-In . SVG Version: 6.00 Build 0)  -->
<!DOCTYPE svg PUBLIC "-//W3C//DTD SVG 1.1//EN" "http://www.w3.org/Graphics/SVG/1.1/DTD/svg11.dtd">
<svg version="1.1" id="Layer_1" xmlns="http://www.w3.org/2000/svg" xmlns:xlink="http://www.w3.org/1999/xlink" x="0px" y="0px"
   width="300px" height="300px" viewBox="0 0 3214.285 3031.297" enable-background="new 0 0 3214.285 3031.297"
   xml:space="preserve">

<g transform="scale(10.714285714285714) translate(10, 10)">

  <defs id="SvgjsDefs1390">
    <linearGradient id="gradient">
      <stop stop-color="#00ddff" offset="0"></stop>
      <stop stop-color="#ff00d4" offset="1"></stop>
    </linearGradient>
  </defs>

  <g transform="matrix(1.9946717626088046,0,0,1.9946717626088046,40.52540982969959,-1.9946717626088046)">

    <path fill="url(#gradient)" d="M40.623,40.628c0.376,0.688-0.244,1.224,0.155,1.915c1.504-2.744,1.852-5.805,3.107-8.586
      c0.176,1.518-0.038,3.074,0.494,4.69c3.34-2.534,7.003-4.461,10.442-6.739c1.397-0.924,2.178-2.434,2.931-3.894
      c2.655-5.144,4.631-10.593,7.097-15.823c1.332-2.825,2.756-5.589,4.921-7.958c-0.85,2.46-1.724,4.912-2.544,7.381
      c-1.519,4.562-2.905,9.156-3.669,13.922c-0.522,3.255-0.167,6.427,0.59,9.587c0.088,0.372,0.205,0.736,0.363,1.288
      c-2.08-0.444-4.002-0.737-5.847-1.291c-1.001-0.3-1.762-0.101-2.576,0.344c-6.527,3.563-11.067,8.974-14.462,15.478
      c-3.544,6.791-4.18,13.808-1.829,21.099c0.323,1.001,0.297,2.039,0.123,3.043c-0.27,1.556-0.859,1.797-3.49,1.623
      c-0.077,0.587,0.378,0.894,0.688,1.245c0.749,0.843,1.532,1.816,2.805,1.55c1.263-0.264,1.429-1.516,1.698-2.528
      c1.018-3.835,1.155-7.769,1.172-11.708c0.006-1.624,0.001-3.248,0.183-4.941c1.591,1.486,2.583,3.333,3.444,5.248
      c2.669,5.941,4.326,12.216,5.839,18.516c0.732,3.052,2.629,5.117,4.798,7.183c0.187-0.6-0.341-0.786-0.514-1.135
      c-0.204-0.409-0.531-0.759-0.729-1.172c-0.378-0.785-0.861-1.691-0.21-2.446c0.699-0.809,1.652-0.317,2.407,0.063
      c3.074,1.543,5.9,3.501,8.66,5.535c11.521,8.492,21.08,18.81,28.532,31.036c1.933,3.171,1.684,2.365-1.061,3.929
      c-4.674,2.665-9.746,2.869-14.919,2.116c-3.847-0.56-7.662-1.291-11.41-2.35c-1.349-0.381-2.588-0.826-3.631-1.836
      c-0.718-0.696-1.648-1.167-3.037-1.329c1.16,0.841,2.384,1.018,3.115,1.997c-7.624,1.425-28.179-8.062-32.678-15.108
      c1.265-0.055,2.45-0.277,3.62-0.576c1.173-0.299,2.33-0.065,3.524,0.062c-1.314-1.147-2.851-1.754-4.594-1.625
      c-7.723,0.571-15.447,0.942-23.16-0.092c-2.562-0.345-5.057-0.984-7.691-2.23c5.673-1.765,10.934-3.694,15.993-6.14
      c2.375-1.148,4.648-2.418,6.022-4.797c1.178,0.597,1.857,1.673,2.946,2.287c-1.513-2.379-3.833-4.162-5.039-6.817
      c-0.308,1.639,0.293,3.334-0.453,4.927c-2.58-2.794-3.499-14.722-1.523-24.73C23.702,58.298,29.962,48.055,40.623,40.628z
       M35.35,74.942c-4.28-8.525-3.029-16.792,0.938-24.971c-0.241,0.077-0.368,0.155-0.436,0.268
      c-3.097,5.19-4.888,10.764-4.12,16.833C32.098,69.947,32.636,72.971,35.35,74.942z M73.678,123.002
      c5.35,4.484,16.734,6.161,20.536,2.992C87.055,126.935,80.433,125.722,73.678,123.002z M68.525,119.987
      c-2.783-2.018-4.799-5.511-8.911-4.593c0.322,0.672,1.501,0.256,1.793,1.05C62.69,119.914,65.698,119.778,68.525,119.987z
       M46.095,112.099c-0.976-2.498-0.345-4.776,1.137-7.235C44.967,106.777,44.56,109.761,46.095,112.099z M39.918,101.384
      c-1.783,1.701-2.139,4.157-0.896,6.159C38.399,105.36,38.956,103.367,39.918,101.384z M42.146,109.689
      c-0.905-2.251,0.142-4.18,1.036-6.39C41.259,105.199,40.872,107.691,42.146,109.689z"/>
  </g>
</g>
</svg>
