<?xml version="1.0" encoding="UTF-8"?>
<svg class="svg-icon" version="1.1" viewBox="0 0 1024 1024" xmlns="http://www.w3.org/2000/svg">
<g>
<title>Layer 1</title>
<ellipse cx="512" cy="512" rx="500" ry="500"/>
<path d="m795.02 418.03a15.949 15.949 0 0 1-15.954-15.954c0-149.72-121.8-271.52-271.52-271.52-149.71 0.00512-271.52 121.81-271.52 271.53a15.954 15.954 0 1 1-31.908 0c0-167.31 136.12-303.43 303.42-303.43 167.31 0 303.43 136.12 303.43 303.43a15.944 15.944 0 0 1-15.949 15.949zm-574.95 390.87a15.954 15.954 0 0 1-15.954-15.949v-191.17a15.949 15.949 0 0 1 31.908 0v191.17a15.949 15.949 0 0 1-15.954 15.949z" fill="#fff"/>
<path d="m220.08 564.56a15.954 15.954 0 0 1-15.954-15.949v-146.53a15.954 15.954 0 1 1 31.908 0v146.53a15.954 15.954 0 0 1-15.954 15.949zm574.95 286.87a15.949 15.949 0 0 1-15.954-15.949v-433.41a15.954 15.954 0 1 1 31.903 0v433.41a15.944 15.944 0 0 1-15.949 15.949z" fill="#fff"/>
<path d="m386.76 407.55m-65.464 0a65.464 65.464 0 1 0 130.93 0 65.464 65.464 0 1 0-130.93 0z" fill="#ff5656"/>
<path d="m386.76 488.97c-44.892 0-81.413-36.521-81.413-81.413s36.526-81.418 81.413-81.418c44.892 0 81.413 36.526 81.413 81.418s-36.521 81.413-81.413 81.413zm0-130.93c-27.3 0-49.51 22.211-49.51 49.51s22.211 49.51 49.51 49.51c27.305 0 49.51-22.211 49.51-49.51s-22.205-49.51-49.51-49.51z" fill="#fff"/>
<path d="m384.62 404.06m-27.878 0a27.878 27.878 0 1 0 55.757 0 27.878 27.878 0 1 0-55.757 0z"/>
<path d="m625.85 407.55m-65.464 0a65.464 65.464 0 1 0 130.93 0 65.464 65.464 0 1 0-130.93 0z" fill="#ff5656"/>
<path d="m625.85 488.97c-44.892 0-81.408-36.521-81.408-81.413s36.521-81.418 81.408-81.418c44.897 0 81.413 36.526 81.413 81.418s-36.516 81.413-81.413 81.413zm0-130.93c-27.295 0-49.505 22.211-49.505 49.51s22.211 49.51 49.505 49.51c27.3 0 49.51-22.211 49.51-49.51s-22.211-49.51-49.51-49.51z" fill="#fff"/>
<path d="m624.85 402.24m-27.878 0a27.878 27.878 0 1 0 55.757 0 27.878 27.878 0 1 0-55.757 0z"/>
<path d="m261.51 911.4c-31.642 0-57.385-25.564-57.385-56.996v-57.682a15.954 15.954 0 1 1 31.908 0v57.682c0 13.834 11.433 25.093 25.482 25.093 14.054 0 25.487-11.259 25.487-25.093v-57.682a15.954 15.954 0 1 1 31.903 0v57.682c-0.00512 31.432-25.754 56.996-57.395 56.996zm165.75-69.647c-31.642 0-57.385-25.559-57.385-56.991v-57.708a15.954 15.954 0 1 1 31.908 0v57.708c0 13.834 11.433 25.083 25.482 25.083s25.482-11.249 25.482-25.083v-57.708a15.949 15.949 0 1 1 31.908 0v57.708c-0.01024 31.432-25.754 56.991-57.395 56.991zm165.74-37.576c-31.647 0-57.39-25.564-57.39-56.986v-57.692a15.949 15.949 0 1 1 31.903 0v57.692c0 13.829 11.428 25.078 25.487 25.078 14.049 0 25.487-11.249 25.487-25.078v-57.692a15.949 15.949 0 1 1 31.903 0v57.692c0 31.421-25.743 56.986-57.39 56.986z" fill="#fff"/>
<path d="m385.82 749.5a15.954 15.954 0 0 1-15.954-15.949v-57.708c0-13.829-11.428-25.088-25.482-25.088s-25.482 11.259-25.482 25.088v57.708a15.949 15.949 0 1 1-31.903 0v-57.708c0-31.427 25.743-56.996 57.385-56.996s57.39 25.569 57.39 56.996v57.708a15.954 15.954 0 0 1-15.954 15.949zm165.75-5.9904a15.949 15.949 0 0 1-15.954-15.954v-57.702c0-13.834-11.433-25.083-25.487-25.083-14.049 0-25.482 11.249-25.482 25.083v57.702a15.949 15.949 0 1 1-31.908 0v-57.702c0-31.427 25.743-56.991 57.385-56.991 31.647 0 57.39 25.564 57.39 56.991v57.702a15.944 15.944 0 0 1-15.944 15.954zm166.12 13.86a15.949 15.949 0 0 1-15.949-15.954v-57.687c0-13.834-11.433-25.088-25.487-25.088s-25.492 11.254-25.492 25.088v57.687a15.949 15.949 0 1 1-31.898 0v-57.687c0-31.427 25.743-56.996 57.39-56.996s57.39 25.569 57.39 56.996v57.687a15.949 15.949 0 0 1-15.954 15.954z" fill="#fff"/>
</g>
</svg>
