<svg width="50" height="50" viewBox="0 0 54 40" fill="none" xmlns="http://www.w3.org/2000/svg">
<path d="M36.8242 21.4041C36.8242 19.8625 38.0577 18.6292 39.5995 18.6292C41.1413 18.6292 42.3748 19.8625 42.3748 21.4041C42.3748 22.9458 41.1413 24.1791 39.5995 24.1791C38.0577 24.1791 36.8242 22.8944 36.8242 21.4041Z" fill="white"/>
<path d="M53.5794 28.1359C53.4766 29.0095 53.3738 29.8831 53.1168 30.7053C52.3459 33.6345 50.6499 36.3067 47.8746 37.797C44.0715 39.7498 39.5488 39.0303 35.7456 37.54C32.6106 39.7498 32.6106 39.7498 32.6106 39.7498C31.8911 40.2123 30.966 39.4414 31.3771 38.6706C30.5034 38.8248 30.2465 38.0025 30.5034 37.3345C29.7839 37.8998 29.1672 36.872 29.5783 36.2553C29.8353 35.8442 30.2465 35.3817 30.5548 35.022C26.1349 32.5039 22.1262 29.4206 18.0661 26.3887C20.3788 27.8276 29.6297 32.5553 31.8911 33.5317C34.2552 34.5595 36.6193 35.5873 39.0862 36.1526C41.142 36.6151 43.7631 36.872 45.6647 35.69C47.4121 34.6623 48.0802 32.5553 48.3372 30.6539C48.9539 26.5429 47.5149 21.9179 45.3563 18.4234C43.095 14.7748 39.3946 11.4859 35.1803 10.4068C33.6385 9.99567 32.0966 9.99567 30.6576 10.2526C27.317 10.8179 24.2847 12.8734 21.972 15.4429C18.6314 19.1429 16.3187 23.7165 14.2115 28.2387C12.7725 31.2706 10.7681 38.6706 6.03985 35.7414C3.9327 34.4053 2.59645 32.0928 1.67136 29.8317C0.643475 27.4165 -0.0760428 24.179 0.59208 21.5581C2.03111 16.0595 9.74023 20.9415 12.3613 22.6887C12.2071 22.6373 6.03985 19.8109 3.77851 22.0206C2.75063 23.0484 2.80203 24.8984 2.95621 26.2345C3.26457 28.6498 4.44664 32.247 6.70797 33.5831C9.63744 35.2789 11.1279 29.9859 11.8988 28.1359C13.1836 25.0012 14.4171 21.8665 15.8561 18.7832C17.4493 15.3915 19.3509 12.0512 21.972 9.32762C21.4067 8.65957 20.5844 7.83735 20.533 6.96374C20.4302 5.98735 21.4067 4.90819 22.4346 5.42208C21.2525 4.08597 22.8457 2.08181 24.3875 2.85264C23.668 1.72209 24.7987 0.283202 25.9808 0.33459C26.6489 0.33459 27.317 0.899864 27.8309 1.25959C29.1672 2.13319 30.5034 3.05819 31.8911 3.9318C44.6882 1.92764 54.71 16.4707 53.5794 28.1359Z" fill="white"/>
<path d="M53.1169 30.7058C52.346 33.6349 50.65 36.3071 47.8747 37.7974C44.0716 39.7502 39.5489 39.0307 35.7457 37.5405C32.6107 39.7502 32.6107 39.7502 32.6107 39.7502C31.8912 40.2127 30.9661 39.4418 31.3772 38.671C30.5035 38.8252 30.2466 38.003 30.5035 37.3349C29.784 37.9002 29.1673 36.8724 29.5784 36.2557C29.8354 35.8446 30.2466 35.3821 30.5549 35.0224C26.135 32.5044 22.1263 29.421 18.0662 26.3891C20.3789 27.828 29.6298 32.5557 31.8912 33.5321C34.2553 34.5599 36.6194 35.5877 39.0863 36.153C41.1421 36.6155 43.7632 36.8724 45.6648 35.6905C47.4122 34.6627 48.0803 32.5557 48.3373 30.6544C48.954 26.5433 47.515 21.9183 45.3564 18.4238C43.0951 14.7752 39.3947 11.4864 35.1804 10.4072C33.6386 9.99608 32.0967 9.99608 30.6577 10.253C36.4138 8.5058 47.515 10.8183 51.4209 19.7086C53.2711 24.0766 53.6309 27.571 53.1169 30.7058Z" fill="white"/>
</svg>
