<?xml version="1.0" encoding="UTF-8"?><svg xmlns="http://www.w3.org/2000/svg" xmlns:xlink="http://www.w3.org/1999/xlink" contentScriptType="text/ecmascript" width="375" zoomAndPan="magnify" contentStyleType="text/css" viewBox="0 0 375 374.999991" height="374.999991" preserveAspectRatio="xMidYMid meet" version="1.0"><defs><clipPath id="clip-0"><path d="M 74.820312 85.066406 L 299.820312 85.066406 L 299.820312 310.066406 L 74.820312 310.066406 Z M 74.820312 85.066406 " clip-rule="nonzero"/></clipPath><clipPath id="clip-1"><path d="M 98.785156 118.914062 L 276.535156 118.914062 L 276.535156 272.664062 L 98.785156 272.664062 Z M 98.785156 118.914062 " clip-rule="nonzero"/></clipPath></defs><g clip-path="url(#clip-0)"><path fill="rgb(100%, 100%, 100%)" d="M 187.320312 85.066406 C 185.476562 85.066406 183.636719 85.113281 181.800781 85.203125 C 179.960938 85.292969 178.125 85.429688 176.292969 85.609375 C 174.460938 85.789062 172.632812 86.015625 170.8125 86.285156 C 168.992188 86.554688 167.175781 86.871094 165.371094 87.230469 C 163.566406 87.589844 161.769531 87.992188 159.984375 88.441406 C 158.199219 88.886719 156.425781 89.378906 154.660156 89.914062 C 152.898438 90.445312 151.152344 91.023438 149.417969 91.644531 C 147.683594 92.265625 145.96875 92.925781 144.265625 93.632812 C 142.566406 94.335938 140.882812 95.082031 139.21875 95.871094 C 137.554688 96.65625 135.910156 97.484375 134.285156 98.351562 C 132.664062 99.21875 131.0625 100.128906 129.484375 101.074219 C 127.902344 102.019531 126.347656 103.003906 124.816406 104.027344 C 123.285156 105.050781 121.78125 106.109375 120.304688 107.207031 C 118.824219 108.304688 117.375 109.4375 115.949219 110.605469 C 114.527344 111.773438 113.132812 112.976562 111.769531 114.210938 C 110.40625 115.449219 109.070312 116.71875 107.769531 118.019531 C 106.46875 119.320312 105.199219 120.652344 103.960938 122.019531 C 102.726562 123.382812 101.523438 124.777344 100.355469 126.199219 C 99.1875 127.621094 98.054688 129.074219 96.957031 130.550781 C 95.863281 132.03125 94.800781 133.535156 93.777344 135.066406 C 92.757812 136.597656 91.769531 138.152344 90.824219 139.730469 C 89.878906 141.3125 88.972656 142.914062 88.101562 144.535156 C 87.234375 146.160156 86.40625 147.804688 85.621094 149.46875 C 84.832031 151.132812 84.085938 152.816406 83.382812 154.515625 C 82.679688 156.21875 82.015625 157.933594 81.394531 159.667969 C 80.773438 161.402344 80.199219 163.148438 79.664062 164.910156 C 79.128906 166.671875 78.636719 168.445312 78.191406 170.234375 C 77.742188 172.019531 77.339844 173.816406 76.980469 175.621094 C 76.621094 177.425781 76.308594 179.238281 76.035156 181.0625 C 75.765625 182.882812 75.542969 184.710938 75.359375 186.542969 C 75.179688 188.375 75.046875 190.210938 74.953125 192.046875 C 74.863281 193.886719 74.820312 195.726562 74.820312 197.566406 C 74.820312 199.410156 74.863281 201.25 74.953125 203.089844 C 75.046875 204.925781 75.179688 206.761719 75.359375 208.59375 C 75.542969 210.425781 75.765625 212.253906 76.035156 214.074219 C 76.308594 215.898438 76.621094 217.710938 76.980469 219.515625 C 77.339844 221.320312 77.742188 223.117188 78.191406 224.902344 C 78.636719 226.691406 79.128906 228.464844 79.664062 230.226562 C 80.199219 231.988281 80.773438 233.734375 81.394531 235.46875 C 82.015625 237.203125 82.679688 238.917969 83.382812 240.621094 C 84.085938 242.320312 84.832031 244.003906 85.621094 245.667969 C 86.40625 247.332031 87.234375 248.976562 88.101562 250.601562 C 88.972656 252.222656 89.878906 253.824219 90.824219 255.40625 C 91.769531 256.984375 92.757812 258.539062 93.777344 260.070312 C 94.800781 261.601562 95.863281 263.105469 96.957031 264.585938 C 98.054688 266.0625 99.1875 267.515625 100.355469 268.9375 C 101.523438 270.359375 102.726562 271.753906 103.960938 273.117188 C 105.199219 274.484375 106.46875 275.816406 107.769531 277.117188 C 109.070312 278.417969 110.40625 279.6875 111.769531 280.925781 C 113.132812 282.160156 114.527344 283.363281 115.949219 284.53125 C 117.375 285.699219 118.824219 286.832031 120.304688 287.929688 C 121.78125 289.027344 123.285156 290.085938 124.816406 291.109375 C 126.347656 292.132812 127.902344 293.117188 129.484375 294.0625 C 131.0625 295.007812 132.664062 295.917969 134.285156 296.785156 C 135.910156 297.652344 137.554688 298.480469 139.21875 299.265625 C 140.882812 300.054688 142.566406 300.800781 144.265625 301.503906 C 145.96875 302.210938 147.683594 302.871094 149.417969 303.492188 C 151.152344 304.113281 152.898438 304.691406 154.664062 305.222656 C 156.425781 305.757812 158.199219 306.25 159.984375 306.695312 C 161.769531 307.144531 163.566406 307.546875 165.371094 307.90625 C 167.175781 308.265625 168.992188 308.582031 170.8125 308.851562 C 172.632812 309.121094 174.460938 309.347656 176.292969 309.527344 C 178.125 309.707031 179.960938 309.84375 181.800781 309.933594 C 183.636719 310.023438 185.476562 310.066406 187.320312 310.066406 C 189.160156 310.066406 191 310.023438 192.839844 309.933594 C 194.679688 309.84375 196.515625 309.707031 198.347656 309.527344 C 200.179688 309.347656 202.003906 309.121094 203.828125 308.851562 C 205.648438 308.582031 207.460938 308.265625 209.265625 307.90625 C 211.074219 307.546875 212.867188 307.144531 214.65625 306.695312 C 216.441406 306.25 218.214844 305.757812 219.976562 305.222656 C 221.738281 304.691406 223.484375 304.113281 225.21875 303.492188 C 226.953125 302.871094 228.671875 302.210938 230.371094 301.503906 C 232.070312 300.800781 233.753906 300.054688 235.417969 299.265625 C 237.082031 298.480469 238.726562 297.652344 240.351562 296.785156 C 241.976562 295.917969 243.578125 295.007812 245.15625 294.0625 C 246.734375 293.117188 248.289062 292.132812 249.820312 291.109375 C 251.351562 290.085938 252.855469 289.027344 254.335938 287.929688 C 255.8125 286.832031 257.265625 285.699219 258.6875 284.53125 C 260.113281 283.363281 261.503906 282.160156 262.871094 280.925781 C 264.234375 279.6875 265.566406 278.417969 266.867188 277.117188 C 268.171875 275.816406 269.441406 274.484375 270.675781 273.117188 C 271.914062 271.753906 273.113281 270.359375 274.28125 268.9375 C 275.449219 267.515625 276.582031 266.0625 277.679688 264.585938 C 278.777344 263.105469 279.835938 261.601562 280.859375 260.070312 C 281.882812 258.539062 282.867188 256.984375 283.8125 255.40625 C 284.761719 253.824219 285.667969 252.222656 286.535156 250.601562 C 287.402344 248.976562 288.230469 247.332031 289.019531 245.667969 C 289.804688 244.003906 290.550781 242.320312 291.253906 240.621094 C 291.960938 238.917969 292.621094 237.203125 293.242188 235.46875 C 293.863281 233.734375 294.441406 231.988281 294.976562 230.226562 C 295.507812 228.464844 296 226.691406 296.449219 224.902344 C 296.894531 223.117188 297.296875 221.320312 297.65625 219.515625 C 298.015625 217.710938 298.332031 215.898438 298.601562 214.074219 C 298.871094 212.253906 299.097656 210.425781 299.277344 208.59375 C 299.457031 206.761719 299.59375 204.925781 299.683594 203.089844 C 299.773438 201.25 299.820312 199.410156 299.820312 197.566406 C 299.820312 195.726562 299.773438 193.886719 299.683594 192.046875 C 299.59375 190.210938 299.457031 188.375 299.277344 186.542969 C 299.097656 184.710938 298.871094 182.882812 298.601562 181.0625 C 298.332031 179.238281 298.015625 177.425781 297.65625 175.621094 C 297.296875 173.816406 296.894531 172.019531 296.449219 170.234375 C 296 168.445312 295.507812 166.671875 294.976562 164.910156 C 294.441406 163.148438 293.863281 161.402344 293.242188 159.667969 C 292.621094 157.933594 291.960938 156.21875 291.253906 154.515625 C 290.550781 152.816406 289.804688 151.132812 289.019531 149.46875 C 288.230469 147.804688 287.402344 146.160156 286.535156 144.535156 C 285.667969 142.914062 284.761719 141.3125 283.8125 139.730469 C 282.867188 138.152344 281.882812 136.597656 280.859375 135.066406 C 279.835938 133.535156 278.777344 132.03125 277.679688 130.550781 C 276.582031 129.074219 275.449219 127.621094 274.28125 126.199219 C 273.113281 124.777344 271.914062 123.382812 270.675781 122.019531 C 269.441406 120.652344 268.171875 119.320312 266.867188 118.019531 C 265.566406 116.71875 264.234375 115.449219 262.871094 114.210938 C 261.503906 112.976562 260.113281 111.773438 258.6875 110.605469 C 257.265625 109.4375 255.8125 108.304688 254.335938 107.207031 C 252.855469 106.109375 251.351562 105.050781 249.820312 104.027344 C 248.289062 103.003906 246.734375 102.019531 245.15625 101.074219 C 243.578125 100.128906 241.976562 99.21875 240.351562 98.351562 C 238.726562 97.484375 237.082031 96.65625 235.417969 95.871094 C 233.753906 95.082031 232.070312 94.335938 230.371094 93.632812 C 228.671875 92.925781 226.953125 92.265625 225.21875 91.644531 C 223.484375 91.023438 221.738281 90.445312 219.976562 89.914062 C 218.214844 89.378906 216.441406 88.886719 214.65625 88.441406 C 212.867188 87.992188 211.074219 87.589844 209.265625 87.230469 C 207.460938 86.871094 205.648438 86.554688 203.828125 86.285156 C 202.003906 86.015625 200.179688 85.789062 198.347656 85.609375 C 196.515625 85.429688 194.679688 85.292969 192.839844 85.203125 C 191 85.113281 189.160156 85.066406 187.320312 85.066406 Z M 187.320312 85.066406 " fill-opacity="1" fill-rule="nonzero"/></g><path fill="rgb(0%, 0%, 0%)" d="M 210.703125 90.800781 C 210.046875 91.457031 209.351562 92.03125 209.1875 92.03125 C 208.410156 92.03125 199.851562 101.367188 199.238281 102.882812 C 198.867188 103.78125 198.214844 105.460938 197.722656 106.648438 C 196.738281 109.105469 196.617188 112.421875 197.476562 113.570312 C 197.804688 113.980469 198.089844 114.632812 198.089844 115.042969 C 198.089844 115.414062 196.453125 117.214844 194.40625 119.058594 C 192.398438 120.941406 190.0625 123.480469 189.203125 124.75 C 188.386719 126.019531 187.523438 127.164062 187.320312 127.289062 C 187.117188 127.453125 187.074219 127.777344 187.199219 128.023438 C 187.363281 128.269531 187.28125 128.476562 186.992188 128.476562 C 186.253906 128.476562 186.871094 134.78125 187.8125 136.625 C 189.121094 139.121094 192.355469 143.21875 193.625 143.871094 C 195.960938 145.058594 194.8125 146.738281 190.1875 148.867188 C 187.15625 150.261719 183.878906 153.292969 182.53125 155.953125 C 180.523438 159.882812 182.773438 166.761719 186.542969 168.238281 C 187.769531 168.730469 187.6875 169.464844 186.011719 172.457031 C 185.230469 173.890625 184.578125 175.199219 184.578125 175.445312 C 184.578125 175.648438 185.148438 175.773438 185.804688 175.648438 C 187.402344 175.402344 187.402344 176.183594 185.804688 177 C 184.371094 177.738281 183.757812 177.777344 183.757812 177.082031 C 183.757812 176.796875 183.390625 176.347656 182.9375 176.058594 C 182.242188 175.648438 181.914062 175.691406 181.054688 176.265625 C 180.359375 176.714844 178.84375 177 176.671875 177.125 C 172.945312 177.328125 170.980469 178.148438 166.148438 181.382812 C 164.019531 182.855469 162.996094 183.960938 160.90625 187.035156 C 159.515625 189.164062 158.164062 191.621094 157.917969 192.5625 C 157.671875 193.464844 157.222656 194.773438 156.9375 195.46875 C 156.074219 197.515625 150.382812 204.765625 147.84375 207.097656 C 145.429688 209.3125 142.847656 211.070312 142.316406 210.867188 C 141.660156 210.660156 142.03125 214.757812 142.847656 216.925781 C 144.160156 220.40625 145.183594 222.496094 145.757812 222.945312 C 146.042969 223.191406 147.394531 223.726562 148.746094 224.132812 C 150.097656 224.542969 151.40625 225.117188 151.695312 225.445312 C 151.980469 225.773438 152.101562 226.878906 152.023438 228.148438 C 151.941406 229.292969 151.859375 230.644531 151.816406 231.136719 C 151.816406 232.324219 150.753906 233.308594 149.523438 233.308594 C 148.621094 233.308594 148.582031 233.429688 148.949219 234.125 C 149.523438 235.191406 151.367188 235.191406 152.757812 234.125 L 153.78125 233.308594 L 153.496094 234.660156 C 153.003906 236.828125 152.964844 241.085938 153.453125 241.085938 C 153.660156 241.085938 154.722656 239.898438 155.789062 238.425781 C 156.855469 236.953125 157.835938 235.765625 158 235.765625 C 158.164062 235.765625 158.367188 236.132812 158.492188 236.625 C 158.902344 238.097656 160.089844 237.363281 160.582031 235.3125 C 160.867188 234.289062 161.480469 232.816406 161.929688 232.039062 L 162.832031 230.6875 L 163.28125 231.875 C 163.773438 233.144531 163.898438 234.660156 163.652344 235.765625 C 163.527344 236.214844 163.816406 236.335938 164.675781 236.296875 C 165.289062 236.253906 166.109375 236.5 166.476562 236.828125 C 166.84375 237.238281 167.582031 237.402344 168.238281 237.320312 C 168.894531 237.199219 169.464844 237.320312 169.546875 237.566406 C 169.753906 238.140625 168.566406 240.679688 168.113281 240.679688 C 167.949219 240.679688 167.871094 241.210938 167.949219 241.90625 C 168.03125 242.5625 167.910156 243.011719 167.746094 242.890625 C 167.542969 242.765625 167.378906 243.136719 167.378906 243.707031 C 167.378906 245.019531 168.113281 245.101562 168.566406 243.871094 C 168.851562 243.136719 168.976562 243.300781 169.425781 245.019531 C 170.082031 247.476562 170.246094 250.507812 169.753906 250.507812 C 169.546875 250.507812 169.507812 250.875 169.628906 251.324219 C 169.792969 251.816406 169.710938 252.144531 169.425781 252.144531 C 169.136719 252.144531 169.058594 252.429688 169.179688 252.800781 C 169.464844 253.578125 168.359375 255.828125 167.335938 256.566406 C 166.273438 257.304688 166.355469 257.878906 167.5 257.878906 C 168.03125 257.878906 168.894531 257.425781 169.425781 256.855469 C 170.164062 256.074219 170.488281 255.953125 170.734375 256.320312 C 171.226562 257.140625 171.105469 259.636719 170.449219 260.742188 C 169.546875 262.300781 169.710938 262.628906 170.859375 261.5625 C 171.839844 260.660156 171.882812 260.621094 171.882812 261.441406 C 171.882812 261.890625 171.433594 263.117188 170.898438 264.144531 C 170.082031 265.820312 170.039062 266.066406 170.613281 266.066406 C 171.59375 266.066406 174.585938 262.875 175.445312 260.949219 L 176.140625 259.3125 L 176.429688 262.175781 C 176.714844 265.167969 177.574219 267.789062 178.722656 269.058594 C 179.375 269.753906 179.335938 270 178.476562 272.945312 C 177.984375 274.667969 177.125 276.796875 176.550781 277.613281 L 175.566406 279.171875 L 176.46875 279.171875 C 177.574219 279.171875 181.628906 275.8125 184.167969 272.824219 C 185.109375 271.675781 185.96875 270.734375 186.011719 270.652344 C 186.050781 270.570312 186.582031 271.675781 187.15625 273.109375 C 187.6875 274.503906 188.34375 275.730469 188.589844 275.8125 C 189.039062 275.9375 190.1875 272.824219 190.433594 270.777344 C 190.554688 269.628906 190.636719 269.671875 191.703125 272.003906 C 192.316406 273.355469 193.054688 275.527344 193.300781 276.835938 C 193.542969 278.148438 193.914062 279.128906 194.160156 279.046875 C 194.40625 278.964844 194.894531 278.105469 195.222656 277.082031 C 195.550781 276.101562 195.839844 275.199219 195.921875 275.117188 C 195.960938 275.078125 197.066406 275.363281 198.378906 275.8125 C 201.980469 277.042969 203.742188 277.289062 204.847656 276.714844 C 205.746094 276.222656 206.035156 276.386719 208.410156 278.269531 C 209.84375 279.375 211.359375 280.6875 211.769531 281.179688 C 212.792969 282.285156 213.242188 281.710938 213.242188 279.253906 C 213.242188 277.207031 213.980469 277 215.535156 278.558594 C 216.109375 279.128906 216.640625 279.582031 216.722656 279.582031 C 216.84375 279.582031 216.925781 278.433594 216.925781 277.042969 L 216.925781 274.542969 L 218.074219 276.140625 C 220.324219 279.253906 223.234375 281.300781 226.019531 281.832031 C 228.148438 282.242188 228.722656 281.710938 227.207031 280.769531 C 225.691406 279.828125 224.460938 277.535156 224.09375 274.871094 C 223.929688 273.726562 223.726562 272.457031 223.601562 272.003906 C 223.480469 271.554688 223.972656 272.046875 224.667969 273.152344 C 225.363281 274.214844 226.507812 275.445312 227.246094 275.894531 C 228.925781 276.917969 229.621094 276.960938 228.351562 275.9375 L 227.410156 275.199219 L 228.3125 273.109375 C 229.828125 269.589844 229.5 261.113281 227.535156 253.210938 C 227.082031 251.449219 226.796875 249.890625 226.917969 249.769531 C 227.042969 249.644531 228.023438 250.425781 229.046875 251.488281 C 231.710938 254.152344 232.488281 253.988281 230.808594 251.121094 C 230.316406 250.300781 230.03125 249.566406 230.152344 249.441406 C 230.277344 249.320312 231.015625 249.484375 231.792969 249.851562 C 232.570312 250.179688 233.347656 250.34375 233.472656 250.21875 C 233.878906 249.808594 231.21875 246.410156 229.992188 245.757812 C 228.925781 245.222656 228.804688 244.976562 229.007812 244.035156 C 229.210938 243.09375 228.964844 242.644531 227.617188 241.332031 C 226.019531 239.777344 225.976562 239.695312 226.753906 239.164062 C 227.695312 238.507812 228.3125 237.402344 228.84375 235.640625 L 229.210938 234.414062 L 228.023438 235.519531 C 226.222656 237.238281 225.238281 236.871094 222.988281 233.511719 C 221.839844 231.75 220.980469 229.949219 220.816406 228.84375 C 220.652344 227.859375 220.449219 226.796875 220.324219 226.507812 C 220.203125 226.183594 220.367188 225.9375 220.777344 225.9375 C 221.921875 225.9375 221.554688 223.726562 219.875 220.488281 L 218.320312 217.460938 L 219.753906 216.679688 C 221.882812 215.492188 221.964844 214.714844 219.835938 215.085938 C 218.402344 215.332031 218.113281 215.25 217.910156 214.59375 C 217.335938 212.792969 216.3125 210.660156 215.453125 209.472656 C 214.511719 208.203125 214.511719 208.164062 215.289062 207.632812 C 216.273438 206.933594 217.335938 204.96875 217.335938 203.824219 C 217.335938 202.800781 217.132812 202.800781 216.109375 203.824219 C 215.414062 204.519531 214.960938 204.601562 213.527344 204.398438 C 212.585938 204.234375 211.726562 203.988281 211.605469 203.863281 C 211.480469 203.742188 210.867188 203.332031 210.253906 203.003906 C 209.597656 202.675781 208.820312 201.898438 208.492188 201.285156 C 207.753906 199.890625 207.753906 199.359375 208.449219 200.34375 C 208.859375 200.875 209.105469 200.957031 209.351562 200.589844 C 209.515625 200.300781 209.3125 199.6875 208.859375 199.195312 C 208.410156 198.703125 207.34375 197.1875 206.527344 195.839844 C 205.667969 194.488281 204.640625 192.890625 204.152344 192.316406 L 203.332031 191.25 L 204.398438 190.1875 C 205.625 188.957031 205.503906 187.605469 204.234375 188.261719 C 203.824219 188.507812 203.167969 188.671875 202.757812 188.671875 C 202.226562 188.671875 202.183594 188.550781 202.554688 188.097656 C 202.964844 187.605469 202.921875 187.523438 202.265625 187.730469 C 201.652344 187.894531 201.40625 187.648438 201.203125 186.582031 C 200.996094 185.476562 201.160156 185.027344 202.101562 184.003906 C 202.757812 183.308594 203.699219 182.121094 204.234375 181.339844 C 204.765625 180.5625 206.199219 178.804688 207.386719 177.492188 C 209.433594 175.160156 210.375 173.398438 209.800781 172.824219 C 209.679688 172.703125 209.230469 172.863281 208.859375 173.234375 C 208.449219 173.5625 207.097656 174.257812 205.871094 174.75 C 204.640625 175.238281 202.0625 176.46875 200.136719 177.453125 L 196.65625 179.335938 L 194.40625 178.679688 C 193.175781 178.3125 191.496094 177.984375 190.71875 177.941406 C 189.941406 177.859375 189.367188 177.65625 189.492188 177.410156 C 189.613281 177.164062 190.0625 177.082031 190.515625 177.164062 C 190.964844 177.246094 191.785156 177.328125 192.355469 177.371094 C 193.871094 177.453125 194.527344 175.648438 194.691406 171.0625 C 194.855469 167.253906 194.855469 167.132812 193.464844 164.878906 C 192.683594 163.609375 191.949219 162.21875 191.824219 161.808594 C 191.703125 161.359375 191.292969 160.253906 190.964844 159.3125 C 190.105469 156.9375 190.882812 154.355469 193.464844 151.285156 C 198.621094 145.140625 199.074219 144.28125 198.785156 141.414062 C 198.664062 139.777344 198.378906 139.164062 197.351562 138.34375 C 196.65625 137.769531 195.265625 136.582031 194.199219 135.722656 C 193.175781 134.824219 191.867188 133.183594 191.292969 132.078125 L 190.226562 129.992188 L 191.621094 128.925781 C 197.761719 124.132812 201.488281 120.164062 201.449219 118.320312 C 201.449219 117.707031 201.898438 116.394531 202.390625 115.371094 C 203.535156 113.117188 204.191406 109.800781 204.191406 106.566406 C 204.152344 102.757812 205.667969 99.277344 209.515625 94.28125 C 211.316406 91.949219 212.667969 89.574219 212.175781 89.574219 C 212.054688 89.574219 211.398438 90.105469 210.703125 90.800781 Z M 185.804688 188.792969 C 185.804688 189.738281 183.511719 192.601562 182.039062 193.503906 C 180.316406 194.570312 176.507812 195.878906 176.183594 195.550781 C 175.238281 194.609375 180.316406 189.410156 182.816406 188.753906 C 185.027344 188.179688 185.804688 188.179688 185.804688 188.792969 Z M 152.472656 211.5625 C 151.53125 212.585938 146.535156 214.960938 146 214.632812 C 145.796875 214.46875 147.230469 213.570312 149.195312 212.628906 C 153.496094 210.539062 153.371094 210.578125 152.472656 211.5625 Z M 172.539062 224.996094 C 172.824219 226.101562 173.070312 226.550781 173.070312 226.101562 C 173.109375 225.609375 173.398438 224.996094 173.765625 224.667969 C 174.296875 224.214844 174.378906 224.378906 174.257812 226.265625 C 174.175781 227.453125 174.011719 228.394531 173.890625 228.394531 C 173.726562 228.394531 173.644531 228.722656 173.683594 229.089844 C 173.683594 229.5 173.4375 229.867188 173.070312 229.949219 C 171.675781 230.234375 170.246094 224.75 171.226562 223.109375 C 171.675781 222.414062 171.921875 222.78125 172.539062 224.996094 Z M 169.628906 230.441406 C 170.039062 230.890625 170.652344 231.261719 170.980469 231.261719 C 171.472656 231.261719 171.472656 231.421875 170.859375 232.078125 C 170 233.019531 170.488281 233.144531 171.636719 232.285156 C 172.703125 231.503906 172.988281 231.503906 172.988281 232.367188 C 172.988281 233.390625 172.375 234.042969 170.613281 234.984375 C 169.097656 235.765625 165.535156 236.09375 165.820312 235.4375 C 167.007812 232.609375 168.441406 229.621094 168.648438 229.621094 C 168.769531 229.621094 169.21875 229.992188 169.628906 230.441406 Z M 179.664062 268.15625 C 179.664062 268.605469 179.5 268.851562 179.253906 268.730469 C 179.046875 268.605469 178.84375 268.195312 178.84375 267.867188 C 178.84375 267.542969 179.046875 267.296875 179.253906 267.296875 C 179.5 267.296875 179.664062 267.664062 179.664062 268.15625 Z M 179.664062 268.15625 " fill-opacity="1" fill-rule="nonzero"/><path fill="rgb(0%, 0%, 0%)" d="M 182.609375 93.136719 C 181.996094 93.75 179.746094 95.675781 177.617188 97.394531 C 171.71875 102.144531 168.730469 105.585938 166.394531 110.417969 C 165.085938 113.117188 165.042969 115.453125 166.191406 117.625 C 166.640625 118.523438 167.050781 119.792969 167.089844 120.488281 C 167.132812 121.839844 165.453125 125.8125 163.816406 128.1875 C 162.382812 130.277344 162.054688 134.535156 163.078125 138.304688 C 163.445312 139.777344 163.9375 141.742188 164.144531 142.726562 C 164.675781 145.46875 167.335938 150.179688 168.566406 150.671875 C 170.039062 151.203125 171.023438 152.183594 171.921875 153.945312 C 172.332031 154.804688 172.703125 155.542969 172.703125 155.667969 C 172.703125 155.746094 171.882812 156.320312 170.859375 156.894531 C 169.835938 157.507812 168.238281 159.023438 167.335938 160.292969 C 165.78125 162.382812 165.65625 162.710938 165.820312 164.550781 C 166.027344 166.722656 168.402344 171.882812 169.21875 171.882812 C 169.464844 171.882812 169.917969 172.578125 170.164062 173.480469 C 170.898438 175.8125 171.472656 176.101562 175.035156 176.019531 C 178.105469 175.9375 180.769531 175.199219 181.339844 174.257812 C 182.039062 173.109375 179.785156 169.917969 177.410156 168.730469 C 174.707031 167.378906 173.027344 165.167969 172.539062 162.382812 C 172.292969 161.070312 172.414062 160.785156 173.4375 160.089844 C 174.667969 159.1875 175.566406 156.445312 175.566406 153.699219 C 175.566406 151.285156 172.945312 146.820312 169.875 143.953125 C 166.3125 140.636719 165.902344 139.898438 166.683594 138.179688 C 167.007812 137.445312 168.15625 134.578125 169.21875 131.792969 C 170.613281 128.023438 171.0625 126.304688 170.941406 125.242188 C 170.652344 123.191406 172.085938 116.027344 173.601562 111.769531 C 175.320312 106.894531 177.125 103.414062 180.644531 98.214844 C 184.453125 92.644531 185.273438 90.472656 182.609375 93.136719 Z M 182.609375 93.136719 " fill-opacity="1" fill-rule="nonzero"/><path fill="rgb(0%, 0%, 0%)" d="M 166.191406 172.660156 C 165.78125 172.90625 165.699219 173.808594 165.820312 176.140625 C 165.945312 177.941406 165.820312 179.417969 165.574219 179.664062 C 164.839844 180.398438 165.617188 180.074219 168.03125 178.640625 C 169.34375 177.859375 170.53125 177.207031 170.734375 177.207031 C 171.269531 177.207031 171.105469 176.019531 170.40625 174.953125 C 169.875 174.09375 167.460938 172.292969 166.925781 172.292969 C 166.84375 172.292969 166.519531 172.457031 166.191406 172.660156 Z M 166.191406 172.660156 " fill-opacity="1" fill-rule="nonzero"/><g clip-path="url(#clip-1)"><path fill="rgb(0%, 0%, 0%)" d="M 276.535156 272.640625 L 98.785156 272.640625 L 187.660156 118.9375 Z M 106.996094 267.921875 L 268.320312 267.921875 L 187.660156 128.414062 Z M 106.996094 267.921875 " fill-opacity="1" fill-rule="nonzero"/></g></svg>