<?xml version="1.0" encoding="UTF-8"?><svg xmlns="http://www.w3.org/2000/svg" xmlns:xlink="http://www.w3.org/1999/xlink" contentScriptType="text/ecmascript" width="375" zoomAndPan="magnify" contentStyleType="text/css" viewBox="0 0 375 374.999991" height="374.999991" preserveAspectRatio="xMidYMid meet" version="1.0"><defs><clipPath id="clip-0"><path d="M 11.890625 11.890625 L 362.542969 11.890625 L 362.542969 362.542969 L 11.890625 362.542969 Z M 11.890625 11.890625 " clip-rule="nonzero"/></clipPath><clipPath id="clip-1"><path d="M 49.242188 64.640625 L 326.253906 64.640625 L 326.253906 304.25 L 49.242188 304.25 Z M 49.242188 64.640625 " clip-rule="nonzero"/></clipPath></defs><g clip-path="url(#clip-0)"><path fill="rgb(100%, 100%, 100%)" d="M 187.21875 11.890625 C 184.347656 11.890625 181.480469 11.960938 178.617188 12.101562 C 175.75 12.242188 172.890625 12.453125 170.03125 12.738281 C 167.175781 13.015625 164.332031 13.367188 161.492188 13.789062 C 158.652344 14.210938 155.828125 14.699219 153.015625 15.261719 C 150.199219 15.820312 147.402344 16.449219 144.617188 17.144531 C 141.835938 17.84375 139.070312 18.609375 136.324219 19.441406 C 133.578125 20.273438 130.855469 21.175781 128.152344 22.140625 C 125.449219 23.109375 122.773438 24.140625 120.125 25.238281 C 117.472656 26.335938 114.851562 27.5 112.257812 28.726562 C 109.664062 29.953125 107.101562 31.242188 104.570312 32.59375 C 102.039062 33.945312 99.542969 35.359375 97.082031 36.835938 C 94.621094 38.3125 92.199219 39.847656 89.8125 41.441406 C 87.425781 43.035156 85.082031 44.6875 82.777344 46.394531 C 80.472656 48.105469 78.210938 49.867188 75.992188 51.6875 C 73.773438 53.507812 71.601562 55.382812 69.476562 57.308594 C 67.351562 59.238281 65.273438 61.214844 63.242188 63.242188 C 61.214844 65.273438 59.238281 67.351562 57.308594 69.476562 C 55.382812 71.601562 53.507812 73.773438 51.6875 75.992188 C 49.867188 78.210938 48.105469 80.472656 46.394531 82.777344 C 44.6875 85.082031 43.035156 87.425781 41.441406 89.8125 C 39.847656 92.199219 38.3125 94.621094 36.835938 97.082031 C 35.359375 99.542969 33.945312 102.039062 32.59375 104.570312 C 31.242188 107.101562 29.953125 109.664062 28.726562 112.257812 C 27.5 114.851562 26.335938 117.472656 25.238281 120.125 C 24.140625 122.773438 23.109375 125.449219 22.140625 128.152344 C 21.175781 130.855469 20.273438 133.578125 19.441406 136.324219 C 18.609375 139.070312 17.84375 141.835938 17.144531 144.617188 C 16.449219 147.402344 15.820312 150.199219 15.261719 153.015625 C 14.699219 155.828125 14.210938 158.652344 13.789062 161.492188 C 13.367188 164.332031 13.015625 167.175781 12.738281 170.03125 C 12.457031 172.890625 12.242188 175.75 12.101562 178.617188 C 11.960938 181.480469 11.890625 184.347656 11.890625 187.21875 C 11.890625 190.085938 11.960938 192.953125 12.101562 195.820312 C 12.242188 198.6875 12.457031 201.546875 12.738281 204.402344 C 13.015625 207.257812 13.367188 210.105469 13.789062 212.945312 C 14.210938 215.78125 14.699219 218.609375 15.261719 221.421875 C 15.820312 224.238281 16.449219 227.035156 17.144531 229.820312 C 17.84375 232.601562 18.609375 235.367188 19.441406 238.113281 C 20.273438 240.859375 21.175781 243.582031 22.140625 246.285156 C 23.109375 248.984375 24.140625 251.660156 25.238281 254.3125 C 26.335938 256.964844 27.5 259.585938 28.726562 262.179688 C 29.953125 264.773438 31.242188 267.335938 32.59375 269.867188 C 33.945312 272.398438 35.359375 274.894531 36.835938 277.355469 C 38.3125 279.816406 39.847656 282.238281 41.441406 284.625 C 43.035156 287.011719 44.6875 289.355469 46.394531 291.660156 C 48.105469 293.964844 49.867188 296.226562 51.6875 298.445312 C 53.507812 300.660156 55.382812 302.832031 57.308594 304.960938 C 59.238281 307.085938 61.214844 309.164062 63.242188 311.191406 C 65.273438 313.222656 67.351562 315.199219 69.476562 317.125 C 71.601562 319.054688 73.773438 320.925781 75.992188 322.746094 C 78.210938 324.566406 80.472656 326.332031 82.777344 328.042969 C 85.082031 329.75 87.425781 331.402344 89.8125 332.996094 C 92.199219 334.589844 94.621094 336.125 97.082031 337.601562 C 99.542969 339.074219 102.039062 340.488281 104.570312 341.84375 C 107.101562 343.195312 109.664062 344.484375 112.257812 345.710938 C 114.851562 346.9375 117.472656 348.101562 120.125 349.199219 C 122.773438 350.296875 125.449219 351.328125 128.152344 352.296875 C 130.855469 353.261719 133.578125 354.160156 136.324219 354.996094 C 139.070312 355.828125 141.835938 356.59375 144.617188 357.289062 C 147.402344 357.988281 150.199219 358.617188 153.015625 359.175781 C 155.828125 359.734375 158.652344 360.226562 161.492188 360.644531 C 164.332031 361.066406 167.175781 361.417969 170.03125 361.699219 C 172.890625 361.980469 175.75 362.191406 178.617188 362.332031 C 181.480469 362.472656 184.347656 362.542969 187.21875 362.542969 C 190.085938 362.542969 192.953125 362.472656 195.820312 362.332031 C 198.6875 362.191406 201.546875 361.980469 204.402344 361.699219 C 207.257812 361.417969 210.105469 361.066406 212.945312 360.648438 C 215.78125 360.226562 218.609375 359.734375 221.421875 359.175781 C 224.238281 358.617188 227.035156 357.988281 229.820312 357.289062 C 232.601562 356.59375 235.367188 355.828125 238.113281 354.996094 C 240.859375 354.160156 243.582031 353.261719 246.285156 352.296875 C 248.984375 351.328125 251.660156 350.296875 254.3125 349.199219 C 256.964844 348.101562 259.585938 346.9375 262.179688 345.710938 C 264.773438 344.484375 267.335938 343.195312 269.867188 341.84375 C 272.398438 340.488281 274.894531 339.074219 277.355469 337.601562 C 279.816406 336.125 282.238281 334.589844 284.625 332.996094 C 287.011719 331.402344 289.355469 329.75 291.660156 328.042969 C 293.964844 326.332031 296.226562 324.566406 298.445312 322.746094 C 300.660156 320.925781 302.832031 319.054688 304.960938 317.125 C 307.085938 315.199219 309.164062 313.222656 311.191406 311.191406 C 313.222656 309.164062 315.199219 307.085938 317.125 304.960938 C 319.054688 302.832031 320.925781 300.660156 322.746094 298.445312 C 324.566406 296.226562 326.332031 293.964844 328.042969 291.660156 C 329.75 289.355469 331.402344 287.011719 332.996094 284.625 C 334.589844 282.238281 336.125 279.816406 337.601562 277.355469 C 339.074219 274.894531 340.488281 272.398438 341.84375 269.867188 C 343.195312 267.335938 344.484375 264.773438 345.710938 262.179688 C 346.9375 259.585938 348.101562 256.964844 349.199219 254.3125 C 350.296875 251.660156 351.328125 248.984375 352.296875 246.285156 C 353.261719 243.582031 354.160156 240.859375 354.996094 238.113281 C 355.828125 235.367188 356.59375 232.601562 357.289062 229.820312 C 357.988281 227.035156 358.617188 224.238281 359.175781 221.421875 C 359.734375 218.609375 360.226562 215.78125 360.644531 212.945312 C 361.066406 210.105469 361.417969 207.257812 361.699219 204.402344 C 361.980469 201.546875 362.191406 198.6875 362.332031 195.820312 C 362.472656 192.953125 362.542969 190.085938 362.542969 187.21875 C 362.542969 184.347656 362.472656 181.480469 362.332031 178.617188 C 362.191406 175.75 361.980469 172.890625 361.699219 170.03125 C 361.417969 167.175781 361.066406 164.332031 360.644531 161.492188 C 360.226562 158.652344 359.734375 155.828125 359.175781 153.015625 C 358.617188 150.199219 357.988281 147.402344 357.289062 144.617188 C 356.59375 141.835938 355.828125 139.070312 354.996094 136.324219 C 354.160156 133.578125 353.261719 130.855469 352.296875 128.152344 C 351.328125 125.449219 350.296875 122.773438 349.199219 120.125 C 348.101562 117.472656 346.9375 114.851562 345.710938 112.257812 C 344.484375 109.664062 343.195312 107.101562 341.84375 104.570312 C 340.488281 102.039062 339.074219 99.542969 337.601562 97.082031 C 336.125 94.621094 334.589844 92.199219 332.996094 89.8125 C 331.402344 87.425781 329.75 85.082031 328.042969 82.777344 C 326.332031 80.472656 324.566406 78.210938 322.746094 75.992188 C 320.925781 73.773438 319.054688 71.601562 317.125 69.476562 C 315.199219 67.351562 313.222656 65.273438 311.191406 63.242188 C 309.164062 61.214844 307.085938 59.238281 304.960938 57.308594 C 302.832031 55.382812 300.660156 53.507812 298.445312 51.6875 C 296.226562 49.867188 293.964844 48.105469 291.660156 46.394531 C 289.355469 44.6875 287.007812 43.035156 284.625 41.441406 C 282.238281 39.847656 279.816406 38.3125 277.355469 36.835938 C 274.890625 35.359375 272.398438 33.945312 269.867188 32.59375 C 267.335938 31.242188 264.773438 29.953125 262.179688 28.726562 C 259.585938 27.5 256.964844 26.335938 254.3125 25.238281 C 251.660156 24.140625 248.984375 23.109375 246.285156 22.140625 C 243.582031 21.175781 240.859375 20.273438 238.113281 19.441406 C 235.367188 18.609375 232.601562 17.84375 229.820312 17.144531 C 227.035156 16.449219 224.238281 15.820312 221.421875 15.261719 C 218.609375 14.699219 215.78125 14.210938 212.945312 13.789062 C 210.105469 13.367188 207.257812 13.015625 204.402344 12.738281 C 201.546875 12.453125 198.6875 12.242188 195.820312 12.101562 C 192.953125 11.960938 190.085938 11.890625 187.21875 11.890625 Z M 187.21875 11.890625 " fill-opacity="1" fill-rule="nonzero"/></g><path fill="rgb(0%, 0%, 0%)" d="M 223.660156 20.828125 C 222.640625 21.847656 221.554688 22.742188 221.300781 22.742188 C 220.085938 22.742188 206.75 37.292969 205.792969 39.652344 C 205.21875 41.058594 204.195312 43.671875 203.429688 45.523438 C 201.898438 49.355469 201.707031 54.523438 203.046875 56.308594 C 203.558594 56.949219 204.003906 57.96875 204.003906 58.605469 C 204.003906 59.183594 201.453125 61.988281 198.261719 64.863281 C 195.132812 67.796875 191.496094 71.753906 190.15625 73.730469 C 188.878906 75.710938 187.539062 77.496094 187.21875 77.6875 C 186.902344 77.945312 186.835938 78.453125 187.027344 78.835938 C 187.285156 79.222656 187.15625 79.539062 186.710938 79.539062 C 185.5625 79.539062 186.519531 89.367188 187.984375 92.238281 C 190.027344 96.132812 195.070312 102.515625 197.046875 103.535156 C 200.6875 105.386719 198.898438 108.003906 191.6875 111.320312 C 186.964844 113.492188 181.859375 118.214844 179.753906 122.363281 C 176.625 128.488281 180.136719 139.210938 186.007812 141.507812 C 187.921875 142.273438 187.792969 143.421875 185.179688 148.082031 C 183.964844 150.316406 182.945312 152.355469 182.945312 152.738281 C 182.945312 153.058594 183.835938 153.25 184.859375 153.058594 C 187.347656 152.675781 187.347656 153.886719 184.859375 155.164062 C 182.625 156.3125 181.667969 156.378906 181.667969 155.292969 C 181.667969 154.847656 181.09375 154.144531 180.390625 153.695312 C 179.308594 153.058594 178.796875 153.121094 177.457031 154.015625 C 176.371094 154.71875 174.007812 155.164062 170.628906 155.355469 C 164.820312 155.675781 161.757812 156.953125 154.226562 161.992188 C 150.90625 164.292969 149.3125 166.015625 146.058594 170.800781 C 143.886719 174.117188 141.78125 177.949219 141.398438 179.417969 C 141.015625 180.820312 140.3125 182.863281 139.867188 183.945312 C 138.527344 187.136719 129.65625 198.433594 125.699219 202.070312 C 121.933594 205.519531 117.914062 208.261719 117.082031 207.941406 C 116.0625 207.625 116.636719 214.003906 117.914062 217.386719 C 119.957031 222.8125 121.550781 226.066406 122.445312 226.769531 C 122.890625 227.152344 124.996094 227.980469 127.101562 228.621094 C 129.210938 229.257812 131.25 230.152344 131.699219 230.664062 C 132.144531 231.171875 132.335938 232.894531 132.207031 234.875 C 132.082031 236.660156 131.953125 238.765625 131.890625 239.535156 C 131.890625 241.382812 130.230469 242.914062 128.316406 242.914062 C 126.910156 242.914062 126.847656 243.105469 127.421875 244.191406 C 128.316406 245.851562 131.1875 245.851562 133.355469 244.191406 L 134.953125 242.914062 L 134.507812 245.023438 C 133.738281 248.402344 133.675781 255.042969 134.441406 255.042969 C 134.761719 255.042969 136.421875 253.191406 138.078125 250.894531 C 139.738281 248.59375 141.269531 246.746094 141.527344 246.746094 C 141.78125 246.746094 142.101562 247.320312 142.292969 248.085938 C 142.929688 250.382812 144.78125 249.234375 145.546875 246.042969 C 145.992188 244.449219 146.949219 242.148438 147.652344 240.9375 L 149.058594 238.832031 L 149.757812 240.683594 C 150.523438 242.660156 150.714844 245.023438 150.332031 246.746094 C 150.140625 247.445312 150.589844 247.636719 151.929688 247.574219 C 152.886719 247.511719 154.164062 247.894531 154.738281 248.402344 C 155.3125 249.042969 156.460938 249.296875 157.480469 249.167969 C 158.5 248.976562 159.394531 249.167969 159.523438 249.554688 C 159.84375 250.445312 157.992188 254.402344 157.289062 254.402344 C 157.035156 254.402344 156.90625 255.234375 157.035156 256.316406 C 157.160156 257.339844 156.96875 258.039062 156.714844 257.847656 C 156.394531 257.65625 156.140625 258.230469 156.140625 259.125 C 156.140625 261.167969 157.289062 261.296875 157.992188 259.382812 C 158.4375 258.230469 158.628906 258.488281 159.332031 261.167969 C 160.351562 264.996094 160.609375 269.71875 159.84375 269.71875 C 159.523438 269.71875 159.460938 270.292969 159.652344 270.996094 C 159.90625 271.761719 159.777344 272.273438 159.332031 272.273438 C 158.882812 272.273438 158.757812 272.71875 158.949219 273.292969 C 159.394531 274.507812 157.671875 278.015625 156.078125 279.164062 C 154.417969 280.3125 154.546875 281.207031 156.332031 281.207031 C 157.160156 281.207031 158.5 280.503906 159.332031 279.613281 C 160.480469 278.398438 160.992188 278.207031 161.375 278.78125 C 162.140625 280.058594 161.949219 283.949219 160.925781 285.675781 C 159.523438 288.097656 159.777344 288.609375 161.566406 286.949219 C 163.097656 285.546875 163.160156 285.484375 163.160156 286.757812 C 163.160156 287.460938 162.457031 289.375 161.628906 290.972656 C 160.351562 293.585938 160.289062 293.96875 161.183594 293.96875 C 162.714844 293.96875 167.371094 288.992188 168.710938 285.992188 L 169.796875 283.441406 L 170.246094 287.90625 C 170.691406 292.566406 172.03125 296.652344 173.816406 298.628906 C 174.839844 299.714844 174.777344 300.097656 173.433594 304.691406 C 172.667969 307.371094 171.328125 310.691406 170.4375 311.96875 L 168.902344 314.394531 L 170.308594 314.394531 C 172.03125 314.394531 178.347656 309.160156 182.304688 304.5 C 183.773438 302.714844 185.113281 301.246094 185.179688 301.117188 C 185.242188 300.992188 186.070312 302.714844 186.964844 304.949219 C 187.792969 307.117188 188.816406 309.03125 189.199219 309.160156 C 189.902344 309.351562 191.6875 304.5 192.070312 301.308594 C 192.261719 299.523438 192.390625 299.585938 194.046875 303.222656 C 195.007812 305.332031 196.15625 308.710938 196.539062 310.753906 C 196.921875 312.796875 197.496094 314.328125 197.878906 314.199219 C 198.261719 314.074219 199.027344 312.734375 199.539062 311.136719 C 200.046875 309.605469 200.496094 308.203125 200.621094 308.074219 C 200.6875 308.011719 202.410156 308.457031 204.453125 309.160156 C 210.066406 311.074219 212.8125 311.457031 214.535156 310.5625 C 215.9375 309.796875 216.386719 310.054688 220.085938 312.988281 C 222.320312 314.710938 224.683594 316.753906 225.320312 317.519531 C 226.914062 319.242188 227.617188 318.347656 227.617188 314.519531 C 227.617188 311.328125 228.765625 311.011719 231.191406 313.433594 C 232.085938 314.328125 232.914062 315.03125 233.042969 315.03125 C 233.234375 315.03125 233.359375 313.242188 233.359375 311.074219 L 233.359375 307.179688 L 235.148438 309.671875 C 238.65625 314.519531 243.1875 317.710938 247.527344 318.539062 C 250.847656 319.179688 251.742188 318.347656 249.378906 316.882812 C 247.019531 315.414062 245.105469 311.839844 244.53125 307.691406 C 244.273438 305.90625 243.953125 303.925781 243.761719 303.222656 C 243.570312 302.523438 244.339844 303.289062 245.421875 305.011719 C 246.507812 306.671875 248.292969 308.585938 249.445312 309.285156 C 252.058594 310.882812 253.144531 310.945312 251.167969 309.351562 L 249.699219 308.203125 L 251.101562 304.949219 C 253.464844 299.460938 252.953125 286.25 249.890625 273.929688 C 249.1875 271.1875 248.742188 268.761719 248.933594 268.570312 C 249.125 268.378906 250.65625 269.59375 252.25 271.25 C 256.398438 275.398438 257.613281 275.144531 254.996094 270.675781 C 254.230469 269.402344 253.78125 268.25 253.972656 268.058594 C 254.164062 267.867188 255.316406 268.125 256.527344 268.699219 C 257.738281 269.207031 258.953125 269.464844 259.144531 269.273438 C 259.78125 268.632812 255.632812 263.335938 253.71875 262.316406 C 252.058594 261.488281 251.867188 261.105469 252.1875 259.636719 C 252.507812 258.167969 252.125 257.464844 250.019531 255.425781 C 247.527344 253 247.464844 252.871094 248.675781 252.042969 C 250.144531 251.019531 251.101562 249.296875 251.933594 246.554688 L 252.507812 244.640625 L 250.65625 246.363281 C 247.847656 249.042969 246.316406 248.46875 242.804688 243.234375 C 241.019531 240.492188 239.679688 237.683594 239.425781 235.960938 C 239.167969 234.429688 238.847656 232.769531 238.65625 232.320312 C 238.464844 231.8125 238.722656 231.429688 239.359375 231.429688 C 241.148438 231.429688 240.574219 227.980469 237.957031 222.941406 L 235.53125 218.21875 L 237.765625 217.003906 C 241.082031 215.15625 241.210938 213.941406 237.890625 214.515625 C 235.660156 214.898438 235.210938 214.773438 234.894531 213.75 C 234 210.941406 232.402344 207.625 231.0625 205.773438 C 229.597656 203.792969 229.597656 203.730469 230.808594 202.902344 C 232.339844 201.816406 234 198.753906 234 196.964844 C 234 195.371094 233.679688 195.371094 232.085938 196.964844 C 231 198.050781 230.296875 198.179688 228.0625 197.859375 C 226.597656 197.605469 225.257812 197.222656 225.066406 197.03125 C 224.875 196.839844 223.914062 196.199219 222.957031 195.691406 C 221.9375 195.179688 220.726562 193.964844 220.214844 193.007812 C 219.066406 190.839844 219.066406 190.011719 220.152344 191.542969 C 220.789062 192.371094 221.171875 192.5 221.554688 191.925781 C 221.808594 191.476562 221.492188 190.519531 220.789062 189.753906 C 220.085938 188.988281 218.425781 186.628906 217.152344 184.523438 C 215.8125 182.414062 214.214844 179.925781 213.449219 179.03125 L 212.171875 177.375 L 213.832031 175.714844 C 215.746094 173.800781 215.554688 171.695312 213.578125 172.714844 C 212.9375 173.097656 211.917969 173.351562 211.28125 173.351562 C 210.449219 173.351562 210.386719 173.160156 210.960938 172.460938 C 211.597656 171.695312 211.535156 171.566406 210.515625 171.886719 C 209.558594 172.140625 209.175781 171.757812 208.855469 170.097656 C 208.535156 168.375 208.789062 167.671875 210.257812 166.078125 C 211.28125 164.992188 212.746094 163.140625 213.578125 161.929688 C 214.40625 160.71875 216.640625 157.972656 218.492188 155.929688 C 221.683594 152.292969 223.148438 149.550781 222.257812 148.65625 C 222.066406 148.464844 221.363281 148.71875 220.789062 149.292969 C 220.152344 149.804688 218.042969 150.890625 216.128906 151.65625 C 214.214844 152.421875 210.195312 154.335938 207.195312 155.867188 L 201.769531 158.800781 L 198.261719 157.78125 C 196.347656 157.207031 193.730469 156.695312 192.515625 156.632812 C 191.304688 156.503906 190.410156 156.1875 190.601562 155.804688 C 190.792969 155.421875 191.496094 155.292969 192.199219 155.421875 C 192.898438 155.546875 194.175781 155.675781 195.070312 155.738281 C 197.429688 155.867188 198.453125 153.058594 198.707031 145.910156 C 198.960938 139.976562 198.960938 139.785156 196.792969 136.273438 C 195.582031 134.296875 194.433594 132.125 194.242188 131.488281 C 194.046875 130.785156 193.410156 129.0625 192.898438 127.59375 C 191.558594 123.894531 192.773438 119.875 196.792969 115.085938 C 204.835938 105.515625 205.535156 104.175781 205.089844 99.707031 C 204.898438 97.152344 204.453125 96.195312 202.855469 94.921875 C 201.769531 94.027344 199.601562 92.175781 197.941406 90.835938 C 196.347656 89.433594 194.304688 86.878906 193.410156 85.15625 L 191.75 81.902344 L 193.921875 80.242188 C 203.492188 72.773438 209.300781 66.585938 209.238281 63.710938 C 209.238281 62.753906 209.941406 60.714844 210.707031 59.117188 C 212.492188 55.609375 213.511719 50.4375 213.511719 45.398438 C 213.449219 39.460938 215.8125 34.039062 221.808594 26.25 C 224.617188 22.613281 226.722656 18.914062 225.957031 18.914062 C 225.765625 18.914062 224.746094 19.742188 223.660156 20.828125 Z M 184.859375 173.542969 C 184.859375 175.011719 181.285156 179.480469 178.988281 180.882812 C 176.308594 182.542969 170.371094 184.585938 169.863281 184.074219 C 168.394531 182.605469 176.308594 174.503906 180.199219 173.480469 C 183.644531 172.585938 184.859375 172.585938 184.859375 173.542969 Z M 132.910156 209.027344 C 131.441406 210.625 123.65625 214.324219 122.828125 213.8125 C 122.507812 213.558594 124.742188 212.15625 127.804688 210.6875 C 134.507812 207.433594 134.316406 207.496094 132.910156 209.027344 Z M 164.183594 229.960938 C 164.628906 231.683594 165.011719 232.386719 165.011719 231.683594 C 165.074219 230.917969 165.523438 229.960938 166.097656 229.449219 C 166.925781 228.746094 167.054688 229.003906 166.863281 231.9375 C 166.734375 233.789062 166.480469 235.257812 166.289062 235.257812 C 166.03125 235.257812 165.90625 235.769531 165.96875 236.34375 C 165.96875 236.980469 165.585938 237.554688 165.011719 237.683594 C 162.839844 238.128906 160.609375 229.578125 162.140625 227.023438 C 162.839844 225.941406 163.222656 226.515625 164.183594 229.960938 Z M 159.652344 238.449219 C 160.289062 239.148438 161.246094 239.726562 161.757812 239.726562 C 162.523438 239.726562 162.523438 239.980469 161.566406 241 C 160.226562 242.46875 160.992188 242.660156 162.777344 241.320312 C 164.4375 240.109375 164.882812 240.109375 164.882812 241.449219 C 164.882812 243.042969 163.925781 244.0625 161.183594 245.53125 C 158.820312 246.746094 153.269531 247.253906 153.714844 246.234375 C 155.566406 241.832031 157.800781 237.171875 158.117188 237.171875 C 158.308594 237.171875 159.011719 237.746094 159.652344 238.449219 Z M 175.285156 297.226562 C 175.285156 297.925781 175.03125 298.308594 174.648438 298.117188 C 174.328125 297.925781 174.007812 297.289062 174.007812 296.777344 C 174.007812 296.269531 174.328125 295.886719 174.648438 295.886719 C 175.03125 295.886719 175.285156 296.460938 175.285156 297.226562 Z M 175.285156 297.226562 " fill-opacity="1" fill-rule="nonzero"/><path fill="rgb(0%, 0%, 0%)" d="M 179.882812 24.464844 C 178.921875 25.421875 175.414062 28.421875 172.09375 31.101562 C 162.90625 38.503906 158.246094 43.863281 154.609375 51.394531 C 152.566406 55.609375 152.503906 59.246094 154.289062 62.628906 C 154.992188 64.03125 155.628906 66.011719 155.695312 67.09375 C 155.757812 69.203125 153.140625 75.390625 150.589844 79.09375 C 148.355469 82.347656 147.84375 88.984375 149.441406 94.855469 C 150.015625 97.152344 150.78125 100.21875 151.097656 101.75 C 151.929688 106.023438 156.078125 113.363281 157.992188 114.128906 C 160.289062 114.960938 161.820312 116.492188 163.222656 119.234375 C 163.863281 120.574219 164.4375 121.722656 164.4375 121.914062 C 164.4375 122.042969 163.160156 122.9375 161.566406 123.828125 C 159.96875 124.789062 157.480469 127.148438 156.078125 129.128906 C 153.652344 132.382812 153.460938 132.890625 153.714844 135.765625 C 154.035156 139.148438 157.734375 147.1875 159.011719 147.1875 C 159.394531 147.1875 160.097656 148.273438 160.480469 149.675781 C 161.628906 153.3125 162.523438 153.761719 168.074219 153.632812 C 172.859375 153.503906 177.007812 152.355469 177.902344 150.890625 C 178.988281 149.101562 175.476562 144.125 171.777344 142.273438 C 167.5625 140.167969 164.949219 136.722656 164.183594 132.382812 C 163.796875 130.339844 163.988281 129.894531 165.585938 128.808594 C 167.5 127.402344 168.902344 123.128906 168.902344 118.851562 C 168.902344 115.085938 164.820312 108.128906 160.035156 103.664062 C 154.480469 98.492188 153.84375 97.34375 155.054688 94.664062 C 155.566406 93.515625 157.351562 89.050781 159.011719 84.710938 C 161.183594 78.835938 161.882812 76.15625 161.691406 74.5 C 161.246094 71.308594 163.480469 60.140625 165.839844 53.5 C 168.519531 45.90625 171.328125 40.484375 176.816406 32.378906 C 182.753906 23.699219 184.027344 20.316406 179.882812 24.464844 Z M 179.882812 24.464844 " fill-opacity="1" fill-rule="nonzero"/><path fill="rgb(0%, 0%, 0%)" d="M 154.289062 148.398438 C 153.652344 148.78125 153.523438 150.1875 153.714844 153.824219 C 153.90625 156.632812 153.714844 158.929688 153.332031 159.3125 C 152.183594 160.460938 153.394531 159.953125 157.160156 157.71875 C 159.203125 156.503906 161.054688 155.484375 161.375 155.484375 C 162.203125 155.484375 161.949219 153.632812 160.863281 151.972656 C 160.035156 150.632812 156.269531 147.824219 155.4375 147.824219 C 155.3125 147.824219 154.800781 148.082031 154.289062 148.398438 Z M 154.289062 148.398438 " fill-opacity="1" fill-rule="nonzero"/><g clip-path="url(#clip-1)"><path fill="rgb(0%, 0%, 0%)" d="M 326.253906 304.214844 L 49.242188 304.214844 L 187.746094 64.671875 Z M 62.039062 296.859375 L 313.457031 296.859375 L 187.746094 79.445312 Z M 62.039062 296.859375 " fill-opacity="1" fill-rule="nonzero"/></g></svg>
