<?xml version="1.0" standalone="no"?>
<!DOCTYPE svg PUBLIC "-//W3C//DTD SVG 20010904//EN"
 "http://www.w3.org/TR/2001/REC-SVG-20010904/DTD/svg10.dtd">
<svg version="1.0" xmlns="http://www.w3.org/2000/svg"
 width="500.000000pt" height="500.000000pt" viewBox="0 0 500.000000 500.000000"
 preserveAspectRatio="xMidYMid meet">

<g transform="translate(0.000000,500.000000) scale(0.100000,-0.100000)"
fill="#000000" stroke="none">
<path d="M3068 4860 c-16 -16 -33 -30 -37 -30 -19 0 -228 -228 -243 -265 -9
-22 -25 -63 -37 -92 -24 -60 -27 -141 -6 -169 8 -10 15 -26 15 -36 0 -9 -40
-53 -90 -98 -49 -46 -106 -108 -127 -139 -20 -31 -41 -59 -46 -62 -5 -4 -6
-12 -3 -18 4 -6 2 -11 -5 -11 -18 0 -3 -154 20 -199 32 -61 111 -161 142 -177
57 -29 29 -70 -84 -122 -74 -34 -154 -108 -187 -173 -49 -96 6 -264 98 -300
30 -12 28 -30 -13 -103 -19 -35 -35 -67 -35 -73 0 -5 14 -8 30 -5 39 6 39 -13
0 -33 -35 -18 -50 -19 -50 -2 0 7 -9 18 -20 25 -17 10 -25 9 -46 -5 -17 -11
-54 -18 -107 -21 -91 -5 -139 -25 -257 -104 -52 -36 -77 -63 -128 -138 -34
-52 -67 -112 -73 -135 -6 -22 -17 -54 -24 -71 -21 -50 -160 -227 -222 -284
-59 -54 -122 -97 -135 -92 -16 5 -7 -95 13 -148 32 -85 57 -136 71 -147 7 -6
40 -19 73 -29 33 -10 65 -24 72 -32 7 -8 10 -35 8 -66 -2 -28 -4 -61 -5 -73 0
-29 -26 -53 -56 -53 -22 0 -23 -3 -14 -20 14 -26 59 -26 93 0 l25 20 -7 -33
c-12 -53 -13 -157 -1 -157 5 0 31 29 57 65 26 36 50 65 54 65 4 0 9 -9 12 -21
10 -36 39 -18 51 32 7 25 22 61 33 80 l22 33 11 -29 c12 -31 15 -68 9 -95 -3
-11 4 -14 25 -13 15 1 35 -5 44 -13 9 -10 27 -14 43 -12 16 3 30 0 32 -6 5
-14 -24 -76 -35 -76 -4 0 -6 -13 -4 -30 2 -16 -1 -27 -5 -24 -5 3 -9 -6 -9
-20 0 -32 18 -34 29 -4 7 18 10 14 21 -28 16 -60 20 -134 8 -134 -5 0 -6 -9
-3 -20 4 -12 2 -20 -5 -20 -7 0 -9 -7 -6 -16 7 -19 -20 -74 -45 -92 -26 -18
-24 -32 4 -32 13 0 34 11 47 25 18 19 26 22 32 13 12 -20 9 -81 -7 -108 -22
-38 -18 -46 10 -20 24 22 25 23 25 3 0 -11 -11 -41 -24 -66 -20 -41 -21 -47
-7 -47 24 0 97 78 118 125 l17 40 7 -70 c7 -73 28 -137 56 -168 16 -17 15 -23
-6 -95 -12 -42 -33 -94 -47 -114 l-24 -38 22 0 c27 0 126 82 188 155 23 28 44
51 45 53 1 2 14 -25 28 -60 13 -34 29 -64 35 -66 11 -3 39 73 45 123 3 28 5
27 31 -30 15 -33 33 -86 39 -118 6 -32 15 -56 21 -54 6 2 18 23 26 48 8 24 15
46 17 48 1 1 28 -6 60 -17 88 -30 131 -36 158 -22 22 12 29 8 87 -38 35 -27
72 -59 82 -71 25 -27 36 -13 36 47 0 50 18 55 56 17 14 -14 27 -25 29 -25 3 0
5 28 5 62 l0 61 28 -39 c55 -76 126 -126 194 -139 52 -10 66 3 29 26 -37 23
-67 79 -76 144 -4 28 -9 59 -12 70 -3 11 9 -1 26 -28 17 -26 45 -56 63 -67 41
-25 58 -26 27 -1 l-23 18 22 51 c37 86 29 293 -19 486 -11 43 -18 81 -15 84 3
3 27 -16 52 -42 65 -65 84 -61 43 9 -12 20 -19 38 -16 41 3 3 21 -1 40 -10 19
-8 38 -12 41 -9 10 10 -55 93 -85 109 -26 13 -29 19 -24 42 5 23 -1 34 -34 66
-39 38 -40 40 -21 53 23 16 38 43 51 86 l9 30 -29 -27 c-44 -42 -68 -33 -123
49 -28 43 -49 87 -53 114 -4 24 -9 50 -12 57 -3 8 1 14 11 14 28 0 19 54 -22
133 l-38 74 35 19 c52 29 54 48 2 39 -35 -6 -42 -4 -47 12 -14 44 -39 96 -60
125 -23 31 -23 32 -4 45 24 17 50 65 50 93 0 25 -5 25 -30 0 -17 -17 -28 -19
-63 -14 -23 4 -44 10 -47 13 -3 3 -18 13 -33 21 -16 8 -35 27 -43 42 -18 34
-18 47 -1 23 10 -13 16 -15 22 -6 4 7 -1 22 -12 34 -11 12 -37 49 -57 82 -21
33 -46 72 -58 86 l-20 26 26 26 c30 30 27 63 -4 47 -10 -6 -26 -10 -36 -10
-13 0 -14 3 -5 14 10 12 9 14 -7 9 -15 -4 -21 2 -26 28 -5 27 -1 38 22 63 16
17 39 46 52 65 13 19 48 62 77 94 50 57 73 100 59 114 -3 3 -14 -1 -23 -10
-10 -8 -43 -25 -73 -37 -30 -12 -93 -42 -140 -66 l-85 -46 -55 16 c-30 9 -71
17 -90 18 -19 2 -33 7 -30 13 3 6 14 8 25 6 11 -2 31 -4 45 -5 37 -2 53 42 57
154 4 93 4 96 -30 151 -19 31 -37 65 -40 75 -3 11 -13 38 -21 61 -21 58 -2
121 61 196 126 150 137 171 130 241 -3 40 -10 55 -35 75 -17 14 -51 43 -77 64
-25 22 -57 62 -71 89 l-26 51 34 26 c150 117 241 214 240 259 0 15 11 47 23
72 28 55 44 136 44 215 -1 93 36 178 130 300 44 57 77 115 65 115 -3 0 -19
-13 -36 -30z m-608 -2393 c0 -23 -56 -93 -92 -115 -42 -26 -135 -58 -143 -50
-23 23 101 150 162 166 54 14 73 14 73 -1z m-814 -556 c-23 -25 -145 -83 -158
-75 -5 4 30 26 78 49 105 51 102 50 80 26z m490 -328 c7 -27 13 -38 13 -27 1
12 8 27 17 35 13 11 15 7 12 -39 -2 -29 -6 -52 -9 -52 -4 0 -6 -8 -5 -17 0
-10 -6 -19 -15 -21 -34 -7 -69 127 -45 167 11 17 17 8 32 -46z m-71 -133 c10
-11 25 -20 33 -20 12 0 12 -4 -3 -20 -21 -23 -9 -26 19 -5 26 19 33 19 33 -2
0 -25 -15 -41 -58 -64 -37 -19 -124 -27 -117 -11 29 69 64 142 69 142 3 0 14
-9 24 -20z m245 -921 c0 -11 -4 -17 -10 -14 -5 3 -10 13 -10 21 0 8 5 14 10
14 6 0 10 -9 10 -21z"/>
<path d="M2382 4803 c-15 -15 -70 -62 -122 -104 -144 -116 -217 -200 -274
-318 -32 -66 -33 -123 -5 -176 11 -22 21 -53 22 -70 1 -33 -40 -130 -80 -188
-35 -51 -43 -155 -18 -247 9 -36 21 -84 26 -108 13 -67 78 -182 108 -194 36
-13 60 -37 82 -80 10 -21 19 -39 19 -42 0 -2 -20 -16 -45 -30 -25 -15 -64 -52
-86 -83 -38 -51 -41 -59 -37 -104 5 -53 63 -179 83 -179 6 0 17 -17 23 -39 18
-57 32 -64 119 -62 75 2 140 20 154 43 17 28 -38 106 -96 135 -66 33 -107 87
-119 155 -6 32 -3 39 22 56 30 22 52 89 52 156 0 59 -64 168 -139 238 -87 81
-97 99 -78 141 8 18 36 88 62 156 34 92 45 134 42 160 -7 50 28 225 65 329 42
119 86 204 172 331 93 136 113 189 48 124z"/>
<path d="M1981 2861 c-10 -6 -12 -28 -9 -85 3 -44 0 -80 -6 -86 -18 -18 1 -10
60 25 32 19 61 35 66 35 13 0 9 29 -8 55 -13 21 -72 65 -85 65 -2 0 -10 -4
-18 -9z"/>
</g>
</svg>
