<svg width="500" height="500" viewBox="0 0 500 500" fill="none" xmlns="http://www.w3.org/2000/svg">
<path d="M250 500C388.071 500 500 388.071 500 250C500 111.929 388.071 0 250 0C111.929 0 0 111.929 0 250C0 388.071 111.929 500 250 500Z" fill="#DD5A57"/>
<path d="M374.431 213.202H325.683V134.484C325.683 108.877 334.408 104.514 352.238 100.721L351.1 98.4446H213.961L213.392 100.721C231.411 104.514 239.947 108.687 239.947 134.484V213.202H184.75C182.094 213.202 180.008 215.288 180.008 217.944C180.008 220.599 182.094 222.686 184.75 222.686H240.137V313.733C240.137 359.256 236.723 396.244 188.733 396.244C161.609 396.244 140.175 382.587 132.018 363.998C140.744 371.586 152.883 376.328 168.437 376.328C197.269 376.328 215.858 360.774 215.858 338.012C215.858 314.871 197.269 299.696 168.437 299.696C140.744 299.696 121.017 314.871 121.017 338.012C120.448 367.982 137.14 401.555 192.147 401.555C249.431 401.555 325.683 395.486 325.683 315.819V222.876H374.431C377.087 222.876 379.173 220.789 379.173 218.134C379.173 215.478 376.897 213.202 374.431 213.202Z" fill="#0A2359"/>
</svg>
