<?xml version="1.0" encoding="utf-8"?>
<svg version="1.1" id="Layer_1" xmlns="http://www.w3.org/2000/svg" xmlns:xlink="http://www.w3.org/1999/xlink" x="0px" y="0px"
	 width="2500px" height="2500px" viewBox="-367 0 2500 2500" enable-background="new -367 0 2500 2500" xml:space="preserve">
<g transform="translate(190.693 -109)">
	<path id="path0_fill" d="M1575.267,1142.048l-359.964,160.493l-954.936,486.065l954.936,459.125v-758.903l359.964-162.213v1121.16
		l-359.964,160.493l-1406.036-672.926v-357.671l973.277-477.468l-973.277-467.723v-362.83l365.695-160.493L1575.267,783.23V1142.048
		z"/>
</g>
<g transform="translate(190.693 -109)">
	<path id="path1_fill" fill="#347B90" d="M-190.733,269.651l1406.036,674.072l359.964-160.493L174.962,109.158L-190.733,269.651z"/>
</g>
<g transform="translate(208.695 -100.365)">
	<path id="path2_fill" fill="#3F8E97" d="M1197.313,933.569l359.964-160.493v358.817l-359.964,160.493V933.569z"/>
</g>
<g transform="translate(190.693 -106.944)">
	<path id="path3_fill" fill="#5AC1BF" d="M-190.733,267.917v362.829l973.277,467.724l-973.277,477.468v357.671l1406.036,672.926
		V2246.57l-954.936-459.698l954.936-486.066V941.989L-190.733,267.917z"/>
</g>
<g transform="translate(208.695 -93.411)">
	<path id="path4_fill" fill="#3F8E97" d="M1197.313,2590.324l359.964-160.493V1308.67l-359.964,162.213V2590.324z"/>
</g>
</svg>
