<?xml version="1.0"?>
<svg width="40" height="40" xmlns="http://www.w3.org/2000/svg" xmlns:svg="http://www.w3.org/2000/svg">
 <g class="layer">
  <g id="svg_10">
   <path d="m32.1,23.6l-12.45,0l7.79,-10.13c0.57,-0.75 0.04,-1.84 -0.91,-1.84l-15.22,0l-3.31,4.32l11.22,-0.01c0.9,0 0.47,0.73 0.19,1.1l-6.16,8.01c-0.89,1.16 -0.06,2.83 1.4,2.83l14.19,0l3.26,-4.28l0,0z" fill="#EA9C2F" id="svg_1"/>
   <path d="m31.66,7.3c1.46,0 2.7,0.78 3.34,2.1c0.63,1.31 0.29,2.78 -0.63,3.92l-4.96,6.43l5.62,0l2.88,-3.75c1.94,-2.43 2.31,-5.67 0.96,-8.47c-1.34,-2.79 -4.11,-4.53 -7.21,-4.53l-13.62,0l-3.3,4.3l16.92,0l0,0z" fill="#EA9C2F" id="svg_2"/>
   <path d="m8.27,32.55c-1.47,0 -2.71,-0.79 -3.35,-2.1c-0.63,-1.32 -0.28,-2.78 0.63,-3.93l5.22,-6.76l-5.62,0l-3.14,4.09c-1.94,2.42 -2.3,5.67 -0.96,8.46c1.35,2.8 4.11,4.54 7.22,4.54l13.61,0l3.3,-4.3l-16.91,0l0,0z" fill="#EA9C2F" id="svg_3"/>
  </g>
 </g>
</svg>
