<svg width="104" height="107" viewBox="0 0 104 107" fill="none" xmlns="http://www.w3.org/2000/svg">
<path d="M0.394531 38.4672C0.394531 25.441 0.394531 18.9279 2.88091 13.9828C5.05812 9.59349 8.55709 6.02911 12.8659 3.81118C17.7202 1.27832 24.1138 1.27832 36.9008 1.27832H66.5005C79.2876 1.27832 85.6811 1.27832 90.5355 3.81118C94.8443 6.02911 98.3432 9.59349 100.52 13.9828C103.007 18.9279 103.007 25.441 103.007 38.4672V68.6203C103.007 81.6464 103.007 88.1595 100.52 93.1046C98.3432 97.494 94.8443 101.058 90.5355 103.276C85.6811 105.809 79.2876 105.809 66.5005 105.809H36.9008C24.1138 105.809 17.7202 105.809 12.8659 103.276C8.55709 101.058 5.05812 97.494 2.88091 93.1046C0.394531 88.1595 0.394531 81.6464 0.394531 68.6203V38.4672Z" fill="url(#paint0_linear_6180_173)"/>
<path d="M45.0698 50.168C47.0431 49.3639 47.8324 50.6907 46.6484 52.2586C43.5306 56.3193 38.7552 64.8827 44.7935 68.7021C47.5167 70.4309 51.5423 69.1846 54.9364 68.0187L55.4889 67.8176L57.9753 67.0538C62.7901 65.727 67.8418 64.4405 72.854 65.526C78.5372 66.7723 82.4049 72.6019 81.655 78.5119C80.9052 84.422 75.7745 88.6434 70.0125 88.6434H34.8875C28.0598 88.8042 23.3633 83.7385 22.8503 77.7883C22.758 76.7434 22.7845 75.6911 22.9292 74.6523C23.9553 67.8176 27.7836 62.2695 32.4801 57.5656C35.519 54.5503 40.9653 51.4545 44.9909 50.2082L45.0698 50.168ZM68.5128 18.2459C75.3404 18.0851 80.0764 23.1508 80.55 29.101C80.6415 30.146 80.615 31.1982 80.471 32.237C79.4449 39.0717 75.6167 44.6198 70.9202 49.3237C67.8813 52.339 62.435 55.4348 58.4094 56.6811H58.3305C56.3571 57.4852 55.5678 56.1584 56.7518 54.5503C59.8696 50.5299 64.6451 41.9664 58.6067 38.147C55.0153 35.8553 49.0954 38.7902 45.425 39.7953C40.6101 41.1221 35.5584 42.3684 30.5462 41.3231C24.8631 40.117 20.9954 34.2874 21.7452 28.3372C22.4951 22.3869 27.6257 18.2459 33.3878 18.2459H68.5128Z" fill="url(#paint1_linear_6180_173)"/>
<path d="M12.866 103.277L12.6687 103.639L12.866 103.277ZM2.88104 93.1053L2.52584 93.3063L2.88104 93.1053ZM100.521 93.1053L100.165 92.9445L100.521 93.1053ZM90.5356 103.277L90.3777 102.915L90.5356 103.277ZM90.5356 3.81186L90.7329 3.45002L90.5356 3.81186ZM12.866 3.81186L12.6687 3.45002L12.866 3.81186ZM2.88104 13.9835L2.52584 13.7825L2.88104 13.9835ZM36.901 1.68104H66.5006V0.876953H36.901V1.68104ZM102.612 38.4678V68.621H103.402V38.4678H102.612ZM66.5006 105.408H36.901V106.212H66.5006V105.408ZM0.789325 68.621V38.4678H0V68.621H0.789325ZM36.901 105.408C30.5074 105.408 25.732 105.408 21.9432 105.086C18.1545 104.765 15.3918 104.161 13.0239 102.915L12.6687 103.639C15.1945 104.925 18.0361 105.569 21.8643 105.89C25.6925 106.212 30.5074 106.212 36.901 106.212V105.408ZM0 68.621C0 75.134 7.05712e-08 80.039 0.31573 83.9388C0.63146 87.8386 1.26292 90.7333 2.52584 93.3063L3.23623 92.9445C2.01278 90.5322 1.42079 87.7179 1.10505 83.8584C0.789325 79.9987 0.789325 75.134 0.789325 68.621H0ZM13.0239 102.915C8.79912 100.743 5.36889 97.2482 3.23623 92.9445L2.52584 93.3063C4.73507 97.7669 8.29002 101.388 12.6687 103.639L13.0239 102.915ZM102.612 68.621C102.612 75.134 102.612 79.9987 102.297 83.8584C101.981 87.7179 101.389 90.5322 100.165 92.9445L100.876 93.3063C102.139 90.7333 102.77 87.8386 103.086 83.9388C103.402 80.039 103.402 75.134 103.402 68.621H102.612ZM66.5006 106.212C72.8942 106.212 77.7091 106.212 81.5373 105.89C85.3655 105.569 88.2071 104.925 90.7329 103.639L90.3777 102.915C88.0098 104.161 85.2471 104.765 81.4584 105.086C77.6696 105.408 72.8942 105.408 66.5006 105.408V106.212ZM100.165 92.9445C98.0327 97.2482 94.6025 100.743 90.3777 102.915L90.7329 103.639C95.1116 101.388 98.6665 97.7669 100.876 93.3063L100.165 92.9445ZM66.5006 1.68104C72.8942 1.68104 77.6696 1.68104 81.4584 2.00267C85.2471 2.3243 88.0098 2.92737 90.3777 4.1737L90.7329 3.45002C88.2071 2.16349 85.3655 1.52022 81.5373 1.19859C77.7091 0.876953 72.8942 0.876953 66.5006 0.876953V1.68104ZM103.402 38.4678C103.402 31.9548 103.402 27.0499 103.086 23.1501C102.77 19.2503 102.139 16.3556 100.876 13.7825L100.165 14.1443C101.389 16.5566 101.981 19.3709 102.297 23.2305C102.612 27.0901 102.612 31.9548 102.612 38.4678H103.402ZM90.3777 4.1737C94.6025 6.34622 98.0327 9.84059 100.165 14.1443L100.876 13.7825C98.6665 9.32197 95.1116 5.70056 90.7329 3.45002L90.3777 4.1737ZM36.901 0.876953C30.5074 0.876953 25.6925 0.876953 21.8643 1.19859C18.0361 1.52022 15.1945 2.16349 12.6687 3.45002L13.0239 4.1737C15.3918 2.92737 18.1545 2.3243 21.9432 2.00267C25.732 1.68104 30.5074 1.68104 36.901 1.68104V0.876953ZM0.789325 38.4678C0.789325 31.9548 0.789325 27.0901 1.10505 23.2305C1.42079 19.3709 2.01278 16.5566 3.23623 14.1443L2.52584 13.7825C1.26292 16.3556 0.63146 19.2503 0.31573 23.1501C7.05712e-08 27.0499 0 31.9548 0 38.4678H0.789325ZM12.6687 3.45002C8.29002 5.70056 4.73507 9.32197 2.52584 13.7825L3.23623 14.1443C5.36889 9.84059 8.79912 6.34622 13.0239 4.1737L12.6687 3.45002Z" fill="url(#paint2_linear_6180_173)"/>
<defs>
<linearGradient id="paint0_linear_6180_173" x1="51.7007" y1="1.27832" x2="51.7007" y2="103.747" gradientUnits="userSpaceOnUse">
<stop stop-color="white"/>
<stop offset="1" stop-color="#E6F7F7"/>
</linearGradient>
<linearGradient id="paint1_linear_6180_173" x1="24.9894" y1="21.3055" x2="81.4056" y2="86.712" gradientUnits="userSpaceOnUse">
<stop stop-color="#4FF4BA"/>
<stop offset="1" stop-color="#43CFC7" stop-opacity="0.68"/>
</linearGradient>
<linearGradient id="paint2_linear_6180_173" x1="51.7008" y1="1.27899" x2="51.7008" y2="105.81" gradientUnits="userSpaceOnUse">
<stop stop-color="#E7F8F8"/>
<stop offset="1" stop-color="#E6F8F8"/>
</linearGradient>
</defs>
</svg>
