<svg width="100" height="100" viewBox="0 0 102 48" fill="none" xmlns="http://www.w3.org/2000/svg">
<path d="M77.9012 20.8816C75.9159 20.6467 73.8137 19.0026 73.9305 15.5969C73.8786 14.8432 73.9881 14.0871 74.2514 13.3795C74.5148 12.6719 74.926 12.0293 75.4572 11.4951C75.9885 10.9609 76.6275 10.5474 77.3311 10.2826C78.0347 10.0178 78.7867 9.90771 79.5362 9.95988C80.2513 9.94184 80.9622 10.0741 81.6235 10.3483C82.2848 10.6224 82.8819 11.0324 83.3766 11.552C83.8713 12.0715 84.2527 12.6892 84.4963 13.3655C84.74 14.0418 84.8405 14.7618 84.7915 15.4795C84.7915 19.0026 82.9229 20.999 77.9012 20.8816Z" fill="black"/>
<path d="M70.5401 19.7085C73.3429 20.0608 75.0947 21.8224 75.0947 25.3455C75.0947 28.8686 72.9926 30.3953 69.7226 30.6302C68.9764 30.6694 68.2306 30.5444 67.5374 30.264C66.8441 29.9835 66.22 29.5545 65.7086 29.0066C65.1971 28.4588 64.8107 27.8054 64.5761 27.0919C64.3416 26.3785 64.2646 25.6222 64.3505 24.8758C64.7008 21.5875 66.5694 19.7085 70.5401 19.7085Z" fill="black"/>
<path d="M75.0966 5.85135C75.3302 9.84423 72.9945 11.4884 69.7245 11.6058C69.0102 11.6393 68.2968 11.5224 67.63 11.2628C66.9631 11.0032 66.3575 10.6064 65.8519 10.0979C65.3462 9.58947 64.9517 8.98048 64.6935 8.30991C64.4353 7.63934 64.3191 6.92196 64.3524 6.20366C64.2356 3.15028 65.637 0.684082 69.3742 0.684082C73.1113 0.684082 74.8631 2.32821 75.0966 5.85135Z" fill="black"/>
<path d="M27.2142 16.0684C26.8639 18.8869 25.3457 20.8834 21.8421 20.8834C18.3386 20.8834 16.2364 18.8869 16.3532 15.3638C16.3199 14.6455 16.4361 13.9281 16.6943 13.2575C16.9525 12.587 17.3471 11.978 17.8527 11.4695C18.3583 10.961 18.9639 10.5643 19.6308 10.3047C20.2976 10.045 21.011 9.92819 21.7253 9.96165C25.1121 9.96165 27.0974 12.0755 27.2142 16.0684Z" fill="black"/>
<path d="M31.1861 30.7483C28.0329 30.1611 25.9308 28.7519 26.0476 25.1113C26.1644 21.4707 27.9162 19.8266 31.3029 19.8266C32.0524 19.7744 32.8044 19.8845 33.508 20.1493C34.2116 20.4141 34.8506 20.8276 35.3819 21.3618C35.9131 21.896 36.3243 22.5386 36.5877 23.2462C36.851 23.9538 36.9605 24.7099 36.9086 25.4636C36.5582 28.6344 34.4561 30.396 31.1861 30.7483Z" fill="black"/>
<path d="M46.2502 15.2453C46.2502 19.2382 44.2649 20.8823 40.6445 20.8823C37.0242 20.8823 35.7396 18.7685 35.3892 15.8325C35.0389 12.8966 38.3088 9.6083 40.9949 9.96061C43.6809 10.3129 46.4838 11.7222 46.2502 15.2453Z" fill="black"/>
<path d="M59.7975 20.8843C56.7611 20.7668 54.8926 19.0053 54.8926 15.2473C54.8926 11.4893 57.2283 9.96256 60.2647 10.08C60.9894 10.0451 61.7132 10.1649 62.3886 10.4315C63.0639 10.6982 63.6755 11.1056 64.183 11.627C64.6904 12.1484 65.0824 12.772 65.3329 13.4567C65.5835 14.1414 65.6871 14.8717 65.6368 15.5996C65.6368 18.7704 64.0018 21.0017 59.7975 20.8843Z" fill="black"/>
<path d="M31.419 0.684114C35.1561 0.566676 36.7911 2.798 36.7911 5.96882C36.8391 6.69187 36.7388 7.41714 36.4963 8.09954C36.2538 8.78195 35.8743 9.4069 35.3814 9.93557C34.8885 10.4642 34.2928 10.8853 33.6312 11.1727C32.9697 11.46 32.2564 11.6075 31.5358 11.6058C28.3826 11.6058 26.0469 10.0791 26.0469 6.32114C26.0469 2.56312 28.0322 0.918989 31.419 0.684114Z" fill="black"/>
<path d="M93.1967 25.1125C92.9631 27.4613 91.6785 29.1054 89.226 29.2229C86.7735 29.3403 84.905 28.0485 84.7882 25.3474C84.738 24.8151 84.8013 24.2781 84.974 23.7723C85.1467 23.2666 85.4247 22.8037 85.7895 22.4147C86.1543 22.0256 86.5975 21.7193 87.0894 21.5162C87.5813 21.3131 88.1106 21.218 88.6421 21.2371C91.4449 21.0022 92.7295 22.5289 93.1967 25.1125Z" fill="black"/>
<path d="M40.7626 30.5151C41.8887 30.5147 42.9704 30.9564 43.7775 31.746C44.5846 32.5357 45.0532 33.611 45.0837 34.7429C45.1197 35.3177 45.0316 35.8935 44.8256 36.4308C44.6195 36.9681 44.3003 37.4543 43.8898 37.8559C43.4793 38.2575 42.9873 38.565 42.4476 38.7575C41.9078 38.9499 41.333 39.0226 40.7626 38.9707C40.2383 39.0232 39.7089 38.9601 39.2114 38.7856C38.7138 38.6111 38.2602 38.3295 37.8821 37.9605C37.504 37.5914 37.2105 37.1438 37.0222 36.6489C36.8339 36.1541 36.7554 35.6238 36.7919 35.0952C36.7919 32.3941 38.3101 31.1023 40.7626 30.5151Z" fill="black"/>
<path d="M46.6 25.1089C46.4832 22.4078 48.0014 21.116 50.6875 21.2334C53.3736 21.3509 54.6582 22.5252 54.6582 24.9914C54.7262 25.5484 54.6732 26.1136 54.5027 26.6479C54.3322 27.1822 54.0484 27.673 53.6708 28.0862C53.2932 28.4994 52.8309 28.8252 52.3158 29.0411C51.8007 29.257 51.2451 29.3578 50.6875 29.3366C48.0014 29.3366 46.4832 28.0448 46.6 25.1089Z" fill="black"/>
<path d="M79.3012 30.5151C81.8704 30.9849 83.6222 32.3941 83.5054 34.9778C83.5064 35.5071 83.3995 36.031 83.1914 36.5172C82.9833 37.0034 82.6783 37.4415 82.2953 37.8046C81.9124 38.1678 81.4595 38.4481 80.9646 38.6285C80.4697 38.8088 79.9433 38.8853 79.4179 38.8532C76.6151 38.9707 75.4473 37.3265 75.4473 34.6255C75.4473 31.9244 76.9655 30.8675 79.3012 30.5151Z" fill="black"/>
<path d="M12.2652 29.3378C9.46238 28.9855 7.94418 27.4588 8.06096 24.8751C8.17774 22.2915 9.81273 21.1171 12.2652 21.2346C12.7946 21.1841 13.3286 21.2478 13.8315 21.4214C14.3345 21.5951 14.7948 21.8747 15.1817 22.2415C15.5686 22.6083 15.8732 23.054 16.0751 23.5486C16.277 24.0433 16.3717 24.5756 16.3527 25.11C16.3527 27.8111 14.6009 29.1029 12.2652 29.3378Z" fill="black"/>
<path d="M60.498 38.9678C57.812 38.8504 56.177 37.3237 56.177 34.7401C56.1451 34.2117 56.2212 33.6824 56.4005 33.1848C56.5799 32.6871 56.8587 32.2317 57.2198 31.8466C57.5809 31.4615 58.0166 31.1548 58.5001 30.9455C58.9835 30.7362 59.5045 30.6288 60.0309 30.6297C60.5528 30.5439 61.0871 30.5741 61.5962 30.7182C62.1053 30.8624 62.5767 31.1169 62.9775 31.4639C63.3782 31.8109 63.6985 32.242 63.9158 32.7269C64.1331 33.2117 64.2421 33.7385 64.2352 34.2703C64.4687 36.9714 63.0673 38.4981 60.498 38.9678Z" fill="black"/>
<path d="M25.814 34.978C25.3469 37.4442 24.0622 39.0883 21.3762 38.8535C18.6901 38.6186 17.7559 36.9745 17.7559 34.6257C17.7559 32.2769 19.1573 30.6328 21.6098 30.6328C24.0622 30.6328 25.5804 32.2769 25.814 34.978Z" fill="black"/>
<path d="M50.6872 47.0719C50.3153 47.1045 49.9408 47.0589 49.5874 46.9378C49.2341 46.8168 48.9097 46.623 48.635 46.3689C48.3603 46.1147 48.1413 45.8058 47.9919 45.4618C47.8426 45.1177 47.7662 44.7462 47.7676 44.3708C47.7314 43.9917 47.7791 43.6091 47.9072 43.2507C48.0352 42.8922 48.2405 42.5666 48.5084 42.2973C48.7762 42.0279 49.1 41.8215 49.4565 41.6927C49.813 41.5639 50.1934 41.516 50.5704 41.5523C50.9437 41.5509 51.3132 41.6277 51.6553 41.7779C51.9974 41.9281 52.3046 42.1484 52.5574 42.4246C52.8101 42.7009 53.0028 43.027 53.1232 43.3824C53.2435 43.7377 53.2889 44.1143 53.2565 44.4883C53.2565 46.1324 52.3222 46.9545 50.6872 47.0719Z" fill="black"/>
<path d="M2.57309 31.8047C3.3175 31.862 4.01483 32.193 4.53187 32.7346C5.0489 33.2762 5.34939 33.9903 5.37593 34.7406C5.40783 35.1049 5.36586 35.4719 5.25254 35.8193C5.13922 36.1668 4.95692 36.4875 4.71669 36.762C4.47646 37.0365 4.1833 37.2592 3.85498 37.4164C3.52666 37.5736 3.17002 37.6621 2.80666 37.6766C2.4401 37.7107 2.07053 37.6652 1.72298 37.5432C1.37543 37.4211 1.05801 37.2254 0.792227 36.9693C0.526444 36.7132 0.318499 36.4026 0.182476 36.0586C0.0464524 35.7146 -0.0144725 35.3452 0.00382675 34.9755C-0.0338649 34.221 0.207932 33.4792 0.68248 32.8936C1.15703 32.3079 1.83063 31.92 2.57309 31.8047V31.8047Z" fill="black"/>
<path d="M15.067 44.4903C14.5998 46.2519 13.6656 47.1914 11.9138 46.9565C11.5461 46.9749 11.1788 46.9136 10.8367 46.7768C10.4946 46.6401 10.1858 46.4309 9.93108 46.1637C9.67637 45.8964 9.48175 45.5772 9.3604 45.2277C9.23905 44.8782 9.19381 44.5066 9.22773 44.138C9.25458 43.7601 9.36017 43.3921 9.53764 43.058C9.71512 42.7238 9.96051 42.431 10.2579 42.1984C10.5552 41.9658 10.8979 41.7987 11.2637 41.708C11.6295 41.6173 12.0101 41.6049 12.3809 41.6718C13.0943 41.7289 13.7621 42.0475 14.2573 42.5671C14.7524 43.0867 15.0406 43.7711 15.067 44.4903Z" fill="black"/>
<path d="M101.139 34.9767C101.19 35.3134 101.168 35.6571 101.073 35.984C100.979 36.311 100.815 36.6135 100.593 36.8704C100.37 37.1273 100.095 37.3326 99.7865 37.472C99.4776 37.6114 99.1423 37.6816 98.8037 37.6778C98.1363 37.5726 97.5258 37.238 97.0762 36.7309C96.6267 36.2239 96.3659 35.5757 96.3384 34.897C96.3108 34.2182 96.5182 33.5508 96.9251 33.0086C97.3321 32.4664 97.9134 32.0828 98.5701 31.9233C100.322 31.9233 101.139 33.2152 101.139 34.9767Z" fill="black"/>
<path d="M89.2273 46.954C87.1252 47.0714 86.3077 46.1319 86.1909 44.6052C86.1408 44.2221 86.173 43.8327 86.2853 43.4631C86.3977 43.0936 86.5876 42.7526 86.8422 42.4632C87.0968 42.1737 87.4102 41.9426 87.7612 41.7854C88.1122 41.6282 88.4927 41.5486 88.877 41.5519C89.2451 41.5361 89.6128 41.5935 89.9588 41.7208C90.3049 41.8481 90.6226 42.0427 90.8938 42.2936C91.165 42.5445 91.3843 42.8467 91.5392 43.1829C91.6941 43.5191 91.7816 43.8827 91.7966 44.2529C91.8124 44.602 91.7576 44.9506 91.6356 45.2777C91.5136 45.6049 91.3268 45.9037 91.0866 46.1562C90.8465 46.4087 90.5579 46.6096 90.2383 46.7467C89.9187 46.8838 89.5748 46.9544 89.2273 46.954Z" fill="black"/>
</svg>
