<svg width="87" height="28" viewBox="0 0 87 28" fill="none" xmlns="http://www.w3.org/2000/svg">
<path d="M28.845 9.32555H30.4809V19.0533H28.845V9.32555Z" fill="#CFA466"/>
<path d="M38.0873 9.32555H39.7233V18.4223H44.6238V19.0533H38.0873V9.32555Z" fill="#CFA466"/>
<path d="M51.0417 9.32555H52.6777V18.4223H57.5782V19.0533H51.0417V9.32555Z" fill="#CFA466"/>
<path d="M67.8036 9.10547L72.3814 19.0533H70.7161L69.2342 15.8107H65.0599L63.5267 19.0533H62.705L67.3928 9.10547H67.8036ZM65.346 15.1798H68.9334L67.1654 11.3283L65.346 15.1798Z" fill="#CFA466"/>
<path d="M78.6966 9.32555H82.0712C82.6532 9.32555 83.1643 9.38913 83.6045 9.51629C84.0446 9.63856 84.4114 9.81218 84.7049 10.0372C84.9983 10.2621 85.2184 10.5311 85.3651 10.8441C85.5168 11.1522 85.5926 11.4897 85.5926 11.8565C85.5926 12.1597 85.5339 12.4434 85.4165 12.7075C85.304 12.9716 85.1426 13.2113 84.9323 13.4264C84.7269 13.6367 84.4775 13.8202 84.184 13.9767C83.8906 14.1283 83.5678 14.2481 83.2157 14.3361L86.759 19.0533H84.859L81.477 14.4828H80.3326V19.0533H78.6966V9.32555ZM80.3326 13.9913H81.2789C81.6457 13.9913 81.9832 13.9424 82.2913 13.8446C82.6043 13.7468 82.8733 13.6099 83.0983 13.4338C83.3281 13.2528 83.5067 13.0352 83.6338 12.7809C83.761 12.5265 83.8246 12.2404 83.8246 11.9225C83.8246 11.6291 83.7732 11.3601 83.6705 11.1156C83.5727 10.871 83.4309 10.6632 83.245 10.492C83.064 10.3159 82.8464 10.179 82.5921 10.0812C82.3427 9.98336 82.0688 9.93445 81.7704 9.93445H80.3326V13.9913Z" fill="#CFA466"/>
<path d="M15.0244 6.14634H18.6658C19.2669 6.14634 19.8304 6.21859 20.3564 6.36309C20.8824 6.50759 21.339 6.72145 21.7263 7.00467C22.1193 7.28211 22.4257 7.62602 22.6453 8.0364C22.8707 8.44099 22.9834 8.90628 22.9834 9.43226C22.9834 9.95246 22.8736 10.4062 22.654 10.7934C22.4401 11.1807 22.154 11.5015 21.7956 11.7558C21.4431 12.0101 21.0413 12.2009 20.5905 12.328C20.1397 12.4494 19.6802 12.5101 19.212 12.5101C19.0097 12.5101 18.7987 12.5072 18.5791 12.5014C18.3594 12.4899 18.1485 12.4754 17.9462 12.4581C17.7439 12.4407 17.556 12.4205 17.3826 12.3974C17.2092 12.3743 17.0676 12.3511 16.9578 12.328V21.7403H15.0244V6.14634ZM16.9578 11.6778C17.1774 11.7529 17.4115 11.8165 17.6601 11.8685C17.9086 11.9148 18.1629 11.9379 18.423 11.9379C18.8392 11.9379 19.2033 11.8772 19.5154 11.7558C19.8276 11.6287 20.0877 11.4581 20.2957 11.2443C20.5038 11.0246 20.657 10.7703 20.7552 10.4813C20.8593 10.1865 20.9113 9.87443 20.9113 9.54497C20.9113 9.15771 20.8448 8.80802 20.7119 8.4959C20.579 8.18378 20.394 7.91791 20.157 7.69827C19.9258 7.47285 19.6513 7.29945 19.3334 7.17807C19.0212 7.05669 18.686 6.996 18.3276 6.996H16.9578V11.6778Z" fill="#CFA466"/>
<path d="M7.95903 6.14634H4.31764C3.71653 6.14634 3.15298 6.21859 2.627 6.36309C2.10102 6.50759 1.6444 6.72145 1.25715 7.00467C0.864107 7.28211 0.557768 7.62602 0.338129 8.0364C0.11271 8.44099 0 8.90628 0 9.43226C0 9.95246 0.10982 10.4062 0.329459 10.7934C0.543318 11.1807 0.829427 11.5015 1.18779 11.7558C1.54036 12.0101 1.94207 12.2009 2.39291 12.328C2.84375 12.4494 3.30326 12.5101 3.77144 12.5101C3.97374 12.5101 4.18471 12.5072 4.40434 12.5014C4.62398 12.4899 4.83495 12.4754 5.03725 12.4581C5.23955 12.4407 5.4274 12.4205 5.6008 12.3974C5.7742 12.3743 5.91581 12.3511 6.02563 12.328V21.7403H7.95903V6.14634ZM6.02563 11.6778C5.80599 11.7529 5.5719 11.8165 5.32336 11.8685C5.07482 11.9148 4.8205 11.9379 4.5604 11.9379C4.14425 11.9379 3.78011 11.8772 3.46799 11.7558C3.15587 11.6287 2.89577 11.4581 2.68769 11.2443C2.47961 11.0246 2.32644 10.7703 2.22818 10.4813C2.12414 10.1865 2.07212 9.87443 2.07212 9.54497C2.07212 9.15771 2.13859 8.80802 2.27153 8.4959C2.40447 8.18378 2.58943 7.91791 2.82641 7.69827C3.05761 7.47285 3.33216 7.29945 3.65006 7.17807C3.96218 7.05669 4.29741 6.996 4.65577 6.996H6.02563V11.6778Z" fill="#CFA466"/>
<path d="M10.3593 21.7403V6.14634H12.2927V21.7403H10.3593Z" fill="#CFA466"/>
<path d="M4.09756 25.2683H19.122C19.122 24.514 18.5104 23.9024 17.7561 23.9024H5.46341C4.70907 23.9024 4.09756 24.514 4.09756 25.2683Z" fill="#CFA466"/>
<path d="M2.73171 28H20.4878C20.4878 27.2457 19.8763 26.6341 19.122 26.6341H4.09756C3.34322 26.6341 2.73171 27.2457 2.73171 28Z" fill="#CFA466"/>
<path d="M4.09756 2.73171H19.122C19.122 3.48605 18.5104 4.09756 17.7561 4.09756H5.46341C4.70907 4.09756 4.09756 3.48605 4.09756 2.73171Z" fill="#CFA466"/>
<path d="M2.73171 0H20.4878C20.4878 0.75434 19.8763 1.36585 19.122 1.36585H4.09756C3.34322 1.36585 2.73171 0.75434 2.73171 0Z" fill="#CFA466"/>
</svg>
