<svg xmlns="http://www.w3.org/2000/svg" viewBox="0 0 278.5 326.6"><defs><style>.cls-1{fill:white;}.cls-2{fill:#6c9;}.cls-3{fill:#6a679e;}</style></defs><g id="Layer_2" data-name="Layer 2"><g id="Layer_1-2" data-name="Layer 1"><path id="Shape" class="cls-1" d="M229.5,116.4v72.1c0,25.3-19.8,36.5-40.2,36.5-16.1,0-29-6.2-35.7-18.1l19.4-11a17,17,0,0,0,17.1,9.4c10.4,0,17-5.6,17-16.5v-7.1c-5.6,6.6-13.7,10.4-21.9,9.9a38.6,38.6,0,0,1-27-11.5,35.8,35.8,0,0,1-10.4-27c0-9.9,3.3-19.9,10.4-27a38.2,38.2,0,0,1,27-11.5,25.2,25.2,0,0,1,21.9,10v-7.7h22.4Zm-22.1,36.5c0-4.9-1.5-9.5-5.6-12.8a20,20,0,0,0-13.3-4.8,17.1,17.1,0,0,0-17,8.1c-3.9,6.2-3.9,13.3,0,18.6a17.4,17.4,0,0,0,17,8.2,17.2,17.2,0,0,0,13.3-4.3,17.9,17.9,0,0,0,5.6-13Z"/><polygon class="cls-2" points="264.2 326.6 231.1 279.5 0 279.5 0 0 278.5 0 278.5 196.4 260.9 196.4 260.9 17.6 17.6 17.6 17.6 261.1 240.5 261.1 278.5 316.2 264.2 326.6"/><path class="cls-1" d="M55,92.5H80.3v36.9h32.1V92.5h25.2v98.3H112.4V151.6H80v39.2H54.8V92.5Z"/><polygon class="cls-3" points="264.2 326.6 231.1 279.5 0 279.5 0 261.4 17.6 261.1 240.5 261.1 278.5 316.2 264.2 326.6"/></g></g></svg>
