<svg id="svg" version="1.1" xmlns="http://www.w3.org/2000/svg" xmlns:xlink="http://www.w3.org/1999/xlink" width="400" height="266.5625" viewBox="0, 0, 400,266.5625"><g id="svgg"><path id="path0" d="M211.844 53.836 C 206.185 55.928,203.907 61.246,205.950 67.600 C 206.468 69.213,206.965 70.868,207.054 71.278 C 207.286 72.346,207.632 71.960,207.813 70.431 C 208.905 61.215,221.985 58.969,226.633 67.200 C 227.575 68.868,227.632 68.744,227.057 66.266 C 224.889 56.917,222.068 53.723,215.733 53.446 C 213.713 53.358,212.925 53.437,211.844 53.836 M139.857 68.236 C 133.582 70.497,130.889 77.391,133.945 83.370 C 134.160 83.790,134.423 84.539,134.530 85.035 L 134.724 85.937 133.708 85.746 C 128.382 84.747,125.016 78.672,126.534 72.800 C 126.839 71.620,125.946 72.926,124.655 75.548 C 121.270 82.422,126.297 90.400,134.013 90.400 C 135.017 90.400,135.238 90.504,135.572 91.133 C 136.045 92.027,135.959 90.859,135.304 87.517 C 134.199 81.878,139.027 76.336,145.167 76.193 C 148.943 76.105,151.357 77.356,153.804 80.667 C 154.455 81.547,154.921 82.027,154.839 81.733 C 154.758 81.440,154.613 80.840,154.517 80.400 C 154.046 78.246,152.909 74.888,152.125 73.333 C 149.895 68.912,144.362 66.613,139.857 68.236 M185.733 77.851 C 181.192 78.633,177.958 83.095,178.088 88.400 C 178.132 90.185,178.239 90.809,179.070 94.133 C 179.272 94.940,179.519 96.592,179.620 97.805 C 179.818 100.192,179.741 100.280,178.303 99.309 C 178.029 99.125,177.663 99.028,177.490 99.095 C 177.316 99.161,176.889 98.912,176.541 98.541 C 176.192 98.170,175.773 97.867,175.609 97.867 C 175.145 97.867,173.146 95.678,172.930 94.933 C 172.824 94.567,172.576 94.082,172.379 93.857 C 172.182 93.632,171.844 92.689,171.628 91.763 C 171.411 90.837,171.191 90.035,171.137 89.982 C 170.928 89.772,168.845 99.372,168.783 100.834 C 168.687 103.069,171.160 108.533,172.267 108.533 C 172.379 108.533,172.814 108.881,173.235 109.306 C 174.415 110.497,179.600 111.808,181.003 111.270 C 181.214 111.189,181.505 111.290,181.648 111.494 C 181.933 111.900,181.921 111.792,181.032 105.867 C 180.100 99.656,180.660 96.751,183.310 94.059 C 186.310 91.011,191.180 90.120,194.997 91.921 C 197.924 93.302,198.023 93.929,196.739 102.933 C 195.966 108.355,196.445 114.516,197.684 115.090 C 197.973 115.224,198.343 115.752,198.505 116.263 C 198.677 116.806,199.005 117.233,199.291 117.288 C 199.561 117.339,199.994 117.594,200.252 117.852 C 202.021 119.621,208.742 120.732,210.226 119.501 C 210.468 119.299,210.667 119.239,210.668 119.367 C 210.668 119.495,210.913 119.199,211.212 118.709 C 211.587 118.093,211.887 117.869,212.183 117.982 C 213.649 118.545,213.864 116.871,213.085 110.968 C 212.802 108.822,212.375 105.526,212.136 103.643 C 211.649 99.798,211.317 98.585,210.922 99.209 C 210.728 99.516,210.674 99.523,210.671 99.238 C 210.668 99.001,210.505 98.940,210.200 99.061 C 209.279 99.426,208.860 99.412,206.886 98.953 C 201.280 97.650,198.881 94.582,198.888 88.725 C 198.890 86.933,198.804 85.692,198.697 85.968 C 198.551 86.344,198.411 86.092,198.141 84.965 C 197.888 83.911,197.474 83.122,196.759 82.330 C 196.197 81.709,195.668 80.990,195.584 80.733 C 195.500 80.477,195.319 80.267,195.183 80.267 C 195.046 80.267,194.502 79.859,193.974 79.361 C 193.220 78.650,192.705 78.416,191.578 78.275 C 190.788 78.177,190.073 77.984,189.988 77.848 C 189.816 77.569,187.357 77.571,185.733 77.851 M115.927 108.873 C 114.470 117.836,114.256 119.709,114.626 120.301 C 114.795 120.571,114.933 121.108,114.933 121.492 C 114.933 123.493,118.860 128.267,120.505 128.267 C 120.745 128.267,121.389 128.507,121.936 128.800 C 122.661 129.189,123.441 129.333,124.810 129.333 C 126.162 129.333,126.981 129.184,127.733 128.800 C 128.308 128.507,128.934 128.263,129.123 128.258 C 130.140 128.233,133.600 125.005,133.600 124.082 C 133.600 123.890,133.859 123.474,134.175 123.158 C 134.672 122.662,134.889 121.613,135.760 115.491 C 136.315 111.591,136.833 107.980,136.910 107.467 C 137.041 106.605,136.982 106.657,136.145 108.133 C 131.372 116.557,118.755 114.243,117.246 104.667 L 116.933 102.680 115.927 108.873 M223.600 108.021 C 217.242 108.663,213.550 113.419,214.404 119.867 C 214.560 121.040,214.790 122.840,214.916 123.867 C 215.042 124.893,215.346 126.813,215.593 128.133 C 215.839 129.453,216.198 131.493,216.390 132.667 C 216.692 134.516,216.744 134.640,216.779 133.600 C 216.893 130.181,217.574 128.584,219.938 126.189 C 224.711 121.355,233.206 122.804,236.030 128.933 C 236.595 130.158,236.639 129.877,236.255 127.512 C 236.105 126.584,235.868 124.964,235.729 123.912 C 235.156 119.582,234.382 115.086,234.185 114.948 C 234.069 114.866,233.833 114.320,233.661 113.733 C 233.278 112.430,230.328 109.067,229.568 109.067 C 229.281 109.067,228.600 108.844,228.056 108.572 C 226.732 107.910,225.821 107.797,223.600 108.021 M150.995 117.085 C 146.906 117.616,143.309 120.563,142.269 124.232 C 141.426 127.205,141.455 127.614,143.134 136.800 C 143.684 139.806,144.164 141.906,144.202 141.466 C 144.892 133.378,152.203 128.920,159.178 132.335 C 160.754 133.107,160.940 134.326,159.883 136.965 C 159.110 138.898,159.037 139.258,159.569 138.530 C 159.898 138.081,159.950 138.261,160.039 140.146 C 160.292 145.509,164.579 149.600,169.946 149.600 C 171.859 149.600,174.343 148.964,175.001 148.305 C 175.169 148.137,175.466 148.000,175.660 148.000 C 176.227 148.000,179.057 144.944,179.526 143.824 C 180.315 141.943,181.867 137.710,181.862 137.453 C 181.860 137.314,181.530 137.755,181.129 138.434 C 180.384 139.694,178.350 141.600,177.749 141.600 C 177.566 141.600,177.215 141.822,176.970 142.092 C 175.895 143.281,171.583 143.633,169.190 142.728 C 167.928 142.251,164.533 139.870,164.533 139.461 C 164.533 139.358,164.213 138.808,163.822 138.237 C 162.589 136.440,162.077 133.049,162.659 130.537 C 163.221 128.113,161.474 122.461,159.450 120.156 C 158.540 119.119,152.667 116.245,152.667 116.837 C 152.667 116.854,151.914 116.965,150.995 117.085 M243.002 123.267 C 239.611 131.413,242.346 138.801,249.163 139.910 C 250.361 140.105,250.864 140.982,251.201 143.467 C 251.310 144.273,251.554 146.103,251.743 147.533 C 251.931 148.963,252.192 150.133,252.321 150.133 C 252.451 150.133,252.527 150.283,252.492 150.467 C 252.456 150.650,252.520 151.269,252.633 151.843 L 252.840 152.886 253.454 151.131 C 254.437 148.316,256.792 145.621,258.800 145.010 C 259.387 144.832,260.034 144.523,260.238 144.324 C 260.627 143.945,263.968 143.980,265.842 144.383 C 269.000 145.062,271.096 147.166,272.903 151.467 C 273.089 151.910,273.051 151.571,272.130 144.615 C 270.757 134.232,269.878 131.597,267.036 129.333 C 261.729 125.107,252.947 127.776,250.970 134.215 L 250.494 135.763 250.070 134.748 C 249.837 134.190,249.490 133.133,249.298 132.400 C 249.107 131.667,248.908 131.277,248.856 131.533 C 248.744 132.086,248.746 132.085,247.889 131.695 C 247.284 131.419,245.471 129.264,244.842 128.072 C 244.218 126.891,243.717 124.091,243.886 122.735 C 244.119 120.870,243.961 120.965,243.002 123.267 M190.512 133.451 C 185.114 138.259,186.294 148.047,192.941 153.595 C 193.377 153.959,193.183 153.659,192.509 152.928 C 189.391 149.544,188.701 145.166,190.625 140.965 C 192.210 137.502,193.140 132.673,192.319 132.165 C 192.201 132.093,191.388 132.671,190.512 133.451 M231.008 142.659 C 223.549 144.431,220.759 154.068,226.026 159.867 C 226.559 160.453,226.862 160.743,226.700 160.510 C 226.538 160.277,226.219 159.183,225.991 158.080 C 224.765 152.152,228.539 146.800,234.675 145.767 C 236.605 145.441,237.661 144.438,237.237 143.332 C 236.941 142.562,233.143 142.151,231.008 142.659 M154.249 146.717 C 148.939 151.375,149.939 159.769,156.244 163.455 C 159.875 165.578,163.774 165.159,168.067 162.185 C 169.345 161.299,169.844 160.735,168.733 161.430 C 160.234 166.753,149.944 157.063,154.452 147.982 C 155.603 145.663,155.584 145.546,154.249 146.717 M234.636 150.508 C 229.962 156.042,232.799 164.994,239.857 166.979 C 245.175 168.476,249.436 166.262,253.164 160.067 C 253.511 159.490,253.139 159.699,251.882 160.787 C 244.371 167.287,232.793 160.890,235.035 151.478 C 235.520 149.441,235.526 149.455,234.636 150.508 M284.354 161.316 C 273.419 165.253,276.553 181.276,288.267 181.320 C 290.494 181.328,290.768 180.922,288.772 180.570 C 279.354 178.911,276.835 165.800,285.121 161.572 C 286.848 160.691,286.455 160.560,284.354 161.316 M291.292 161.830 C 280.350 169.757,291.386 186.389,302.681 178.994 C 303.984 178.141,303.914 178.040,302.390 178.571 C 293.592 181.630,285.407 170.600,290.992 163.211 C 292.480 161.244,292.602 161.067,292.473 161.067 C 292.403 161.067,291.872 161.410,291.292 161.830 M107.255 175.477 C 106.934 177.745,106.368 181.340,105.998 183.467 C 105.230 187.874,105.328 189.575,106.498 192.132 C 107.213 193.694,109.722 196.531,110.392 196.537 C 110.616 196.538,111.318 196.836,111.951 197.198 C 114.338 198.562,118.558 198.215,121.171 196.438 C 121.741 196.051,122.363 195.733,122.553 195.733 C 122.742 195.733,122.975 195.490,123.069 195.193 C 123.163 194.896,123.700 194.121,124.262 193.472 C 125.503 192.038,125.853 190.701,126.809 183.733 C 127.181 181.020,127.621 177.989,127.786 176.999 C 128.150 174.814,127.927 174.438,127.230 176.063 C 125.697 179.639,121.359 182.136,117.320 181.766 C 113.433 181.410,109.204 177.988,108.548 174.667 C 107.851 171.136,107.871 171.123,107.255 175.477 M270.423 183.336 C 269.340 186.652,268.370 187.733,266.482 187.733 C 265.570 187.733,262.260 190.162,261.467 191.413 C 261.173 191.876,260.680 192.660,260.371 193.155 C 259.651 194.310,259.177 197.413,259.495 198.891 C 259.986 201.173,260.223 202.039,260.748 203.467 C 261.469 205.430,262.663 207.826,262.835 207.654 C 262.911 207.578,262.764 207.115,262.508 206.625 C 261.793 205.254,261.827 201.057,262.566 199.467 C 263.703 197.019,266.219 194.209,266.650 194.907 C 266.765 195.093,266.983 194.792,267.192 194.158 C 267.384 193.576,267.764 192.762,268.036 192.350 L 268.530 191.600 268.532 192.718 C 268.533 193.332,268.653 193.909,268.800 194.000 C 268.947 194.091,269.067 194.382,269.067 194.649 C 269.067 196.308,271.013 198.989,273.262 200.428 C 277.860 203.370,283.582 202.280,287.074 197.797 C 288.097 196.484,290.400 190.111,290.400 188.594 C 290.400 188.521,289.890 189.089,289.267 189.856 C 287.060 192.572,284.569 193.742,281.047 193.718 C 278.718 193.702,278.739 193.708,275.761 192.134 C 272.764 190.550,271.333 187.770,271.333 183.533 C 271.333 181.883,271.333 180.537,271.333 180.541 C 271.333 180.546,270.924 181.804,270.423 183.336 " stroke="none" fill="#13e785" fill-rule="evenodd"></path><path id="path1" d="M0.000 133.333 L 0.000 266.667 200.000 266.667 L 400.000 266.667 400.000 133.333 L 400.000 0.000 200.000 0.000 L 0.000 0.000 0.000 133.333 M218.940 53.266 C 224.671 55.871,226.842 61.586,229.854 82.000 C 230.460 86.107,231.189 91.027,231.474 92.933 C 231.759 94.840,232.119 97.480,232.274 98.800 C 232.512 100.833,233.041 104.828,234.406 114.933 C 234.535 115.887,234.828 117.867,235.057 119.333 C 235.286 120.800,235.592 122.900,235.737 124.000 C 236.506 129.807,238.289 138.085,238.686 137.686 C 238.897 137.474,239.185 136.461,241.214 128.807 C 244.539 116.266,249.857 110.791,257.533 112.008 C 265.947 113.342,268.940 120.166,272.268 145.600 C 272.566 147.873,273.053 151.353,273.351 153.333 C 273.649 155.313,274.065 158.373,274.276 160.133 C 275.388 169.430,275.421 169.551,276.413 167.979 C 279.543 163.020,284.477 160.373,290.830 160.242 C 293.038 160.197,293.641 160.087,294.542 159.569 C 298.880 157.074,303.899 157.735,307.212 161.238 C 314.110 168.531,307.863 179.843,296.400 180.816 C 294.787 180.953,293.330 181.117,293.162 181.180 C 292.846 181.299,290.599 187.860,289.593 191.600 C 288.349 196.223,286.277 202.146,284.903 205.005 C 278.444 218.451,263.602 216.106,259.984 201.067 C 258.697 195.717,257.107 186.352,255.605 175.281 C 253.269 158.050,253.578 159.427,252.450 161.214 C 250.120 164.901,248.008 166.445,243.733 167.588 C 230.697 171.073,220.243 157.571,216.280 132.133 C 216.120 131.107,215.814 129.307,215.600 128.133 C 215.386 126.960,215.208 125.850,215.205 125.667 C 215.181 124.141,214.672 126.014,214.304 128.983 C 211.877 148.546,208.469 155.257,200.625 155.913 C 193.610 156.500,189.027 151.704,186.817 141.467 C 186.437 139.707,186.014 137.787,185.876 137.200 C 185.738 136.613,185.366 134.633,185.048 132.800 C 184.330 128.653,184.208 128.521,183.620 131.260 C 182.124 138.240,176.886 151.098,173.271 156.667 C 165.435 168.738,151.794 166.959,146.959 153.235 C 145.579 149.318,142.957 137.216,142.011 130.400 C 141.647 127.781,141.444 126.446,139.457 113.600 C 138.274 105.952,138.133 104.956,138.133 104.223 C 138.133 100.218,136.036 111.931,134.401 125.067 C 134.282 126.020,133.992 128.300,133.756 130.133 C 133.519 131.967,133.091 135.507,132.804 138.000 C 132.516 140.493,132.104 143.853,131.887 145.467 C 131.188 150.659,130.951 152.511,129.861 161.333 C 129.271 166.100,128.545 171.620,128.247 173.600 C 127.948 175.580,127.529 178.632,127.316 180.382 C 126.295 188.756,124.699 196.556,123.433 199.358 C 118.473 210.341,101.950 204.256,104.367 192.338 C 106.438 182.126,108.493 167.894,110.942 146.800 C 111.521 141.813,112.301 135.453,112.676 132.667 C 113.488 126.624,113.961 122.935,114.524 118.267 C 117.931 90.006,124.284 71.141,132.094 66.094 C 140.418 60.713,150.263 65.841,153.672 77.333 C 155.358 83.014,158.298 98.845,159.986 111.333 C 160.283 113.533,160.715 116.473,160.945 117.867 C 161.175 119.260,161.472 121.120,161.606 122.000 C 162.267 126.367,162.806 129.019,162.972 128.721 C 163.211 128.295,164.959 120.660,165.336 118.400 C 165.495 117.447,166.326 113.067,167.183 108.667 C 168.040 104.267,168.941 99.587,169.186 98.267 C 172.774 78.912,176.758 72.026,184.652 71.534 C 191.128 71.130,195.098 74.756,197.694 83.447 C 198.764 87.032,198.569 87.485,199.868 78.400 C 201.942 63.890,202.993 59.959,205.727 56.478 C 208.848 52.506,214.333 51.173,218.940 53.266 " stroke="none" fill="#fbfbfb" fill-rule="evenodd"></path><path id="path2" d="M202.397 63.743 C 202.089 64.887,200.994 70.721,200.521 73.733 C 200.383 74.613,200.209 75.693,200.135 76.133 C 200.040 76.698,200.075 76.818,200.253 76.541 C 200.572 76.043,200.589 76.067,201.309 78.087 C 202.187 80.549,203.956 82.891,204.963 82.924 C 205.126 82.929,205.666 83.207,206.163 83.542 C 206.660 83.876,207.352 84.170,207.701 84.194 C 208.584 84.256,209.569 85.260,209.710 86.243 C 209.776 86.696,210.015 88.327,210.243 89.867 C 210.471 91.407,210.718 93.207,210.791 93.867 C 211.233 97.811,211.432 99.249,211.755 100.800 L 212.116 102.533 212.312 100.835 C 212.420 99.901,212.670 98.941,212.869 98.702 C 213.068 98.462,213.375 97.928,213.552 97.514 C 214.270 95.832,216.149 94.078,218.533 92.866 C 223.003 90.592,230.953 94.324,231.891 99.136 C 231.984 99.615,232.146 100.059,232.250 100.123 C 232.488 100.270,232.065 96.862,230.681 87.467 C 230.086 83.433,229.592 79.953,229.581 79.733 C 229.569 79.463,229.497 79.500,229.361 79.847 C 229.190 80.284,229.074 80.184,228.584 79.172 C 227.975 77.914,226.017 75.694,225.611 75.802 C 225.479 75.838,225.213 75.675,225.019 75.441 C 223.352 73.430,216.310 73.676,213.936 75.830 C 211.704 77.854,211.037 78.661,210.579 79.890 C 209.362 83.156,209.405 83.185,208.569 78.533 C 207.373 71.873,207.500 72.267,206.022 70.651 C 204.181 68.639,203.381 66.950,203.250 64.800 C 203.118 62.644,202.800 62.249,202.397 63.743 M135.193 64.602 C 133.471 65.194,130.638 66.815,130.729 67.156 C 130.755 67.254,130.354 67.993,129.839 68.800 C 127.339 72.716,127.572 77.302,130.454 80.893 C 132.123 82.973,134.507 84.154,133.338 82.321 C 131.789 79.893,131.197 78.714,130.951 77.565 C 129.297 69.854,135.841 63.423,143.600 65.134 C 144.207 65.267,144.110 65.172,143.200 64.738 C 141.377 63.869,137.518 63.803,135.193 64.602 M182.742 71.725 C 177.737 72.915,173.307 78.646,173.459 83.733 C 173.566 87.306,175.272 90.748,177.609 92.105 L 178.479 92.610 178.296 91.231 C 178.195 90.473,177.638 88.632,177.057 87.141 C 174.048 79.422,178.345 72.000,185.822 72.000 C 186.580 72.000,187.200 71.880,187.200 71.733 C 187.200 71.424,184.032 71.419,182.742 71.725 M188.667 72.267 C 189.464 72.609,190.130 72.609,189.600 72.267 C 189.380 72.124,188.960 72.015,188.667 72.023 L 188.133 72.037 188.667 72.267 M121.014 85.467 C 120.768 86.200,120.147 88.420,119.635 90.400 C 118.641 94.241,118.646 93.875,119.540 97.570 C 121.197 104.419,130.094 106.801,136.133 102.012 C 137.349 101.048,137.720 101.356,137.994 103.554 C 138.399 106.797,138.974 110.558,139.259 111.830 L 139.566 113.200 139.782 111.794 C 140.674 105.973,147.063 101.910,152.656 103.607 C 153.985 104.010,155.728 105.026,155.732 105.400 C 155.733 105.510,155.954 105.600,156.224 105.600 C 156.494 105.600,156.851 105.900,157.018 106.267 C 157.185 106.633,157.474 106.933,157.661 106.934 C 157.847 106.934,158.274 107.553,158.610 108.310 C 159.813 111.026,159.766 109.422,158.393 100.923 C 157.076 92.771,156.862 91.645,156.821 92.641 C 156.807 92.972,156.437 92.587,155.762 91.544 C 153.371 87.844,149.159 86.183,144.851 87.241 C 143.481 87.577,140.074 89.629,139.830 90.265 C 139.746 90.484,139.568 90.596,139.435 90.514 C 139.150 90.338,137.945 92.813,137.706 94.067 C 137.615 94.543,137.458 94.933,137.357 94.933 C 136.997 94.933,136.533 94.284,136.509 93.747 C 136.494 93.391,136.396 93.510,136.230 94.085 C 135.866 95.351,134.609 95.839,131.733 95.833 C 126.163 95.820,122.037 91.918,121.619 86.267 L 121.462 84.133 121.014 85.467 M189.433 104.753 C 188.680 105.015,187.780 105.434,187.433 105.684 C 184.805 107.572,184.414 107.945,184.198 108.775 C 184.073 109.261,183.896 109.585,183.805 109.494 C 183.715 109.404,183.413 110.021,183.133 110.865 C 182.297 113.391,182.371 113.262,182.101 112.667 C 181.909 112.243,181.886 112.298,181.986 112.933 C 182.866 118.468,182.664 121.696,181.466 121.237 C 181.268 121.161,180.976 121.255,180.817 121.446 C 179.325 123.244,171.529 121.759,170.160 119.415 C 169.929 119.019,169.544 118.644,169.303 118.582 C 168.623 118.404,167.192 115.226,167.013 113.497 C 166.787 111.305,166.516 111.892,165.733 116.268 C 165.353 118.394,164.816 121.153,164.541 122.400 C 162.094 133.463,177.321 140.026,182.974 130.346 C 183.671 129.153,184.261 128.855,184.456 129.599 C 184.679 130.452,184.985 130.221,185.171 129.058 C 185.605 126.340,188.159 122.622,189.867 122.220 C 190.233 122.134,190.793 121.828,191.111 121.540 C 191.491 121.195,191.876 121.076,192.240 121.191 C 192.631 121.316,192.990 121.168,193.474 120.683 C 193.850 120.307,194.263 120.000,194.391 120.000 C 194.519 120.000,194.700 119.190,194.793 118.200 C 194.886 117.210,195.076 115.860,195.215 115.200 C 195.503 113.834,195.965 110.286,196.186 107.751 C 196.301 106.422,196.231 105.843,195.875 105.181 L 195.415 104.327 193.108 104.302 C 191.525 104.285,190.370 104.427,189.433 104.753 M253.662 112.030 C 251.949 112.315,250.400 112.935,250.400 113.335 C 250.400 113.498,250.304 113.572,250.187 113.500 C 249.936 113.345,249.203 113.755,249.193 114.057 C 249.190 114.172,248.800 114.795,248.327 115.440 C 245.402 119.430,245.094 123.709,247.444 127.695 C 247.862 128.405,248.290 129.253,248.393 129.580 C 248.756 130.723,248.814 129.922,248.504 128.045 C 246.802 117.735,262.222 112.454,267.115 121.670 C 267.811 122.981,267.866 121.959,267.193 120.240 C 265.441 115.770,261.862 112.701,257.600 112.016 C 255.659 111.704,255.616 111.704,253.662 112.030 M193.651 129.676 C 193.487 130.441,193.161 132.027,192.926 133.200 C 192.691 134.373,192.396 135.753,192.269 136.267 C 190.882 141.913,191.893 146.950,194.822 148.988 C 195.201 149.251,195.891 149.775,196.355 150.152 C 198.382 151.795,203.835 152.102,205.847 150.686 C 206.224 150.421,206.791 150.123,207.105 150.026 C 207.756 149.824,210.133 147.382,210.133 146.916 C 210.133 146.748,210.301 146.674,210.505 146.752 C 210.971 146.931,211.972 143.078,213.057 136.935 C 214.318 129.790,214.327 128.856,213.109 131.362 C 211.274 135.140,207.154 137.360,203.055 136.779 C 199.104 136.220,195.360 133.201,194.643 129.996 C 194.208 128.053,194.011 127.989,193.651 129.676 M226.354 131.586 C 224.002 132.101,220.000 135.107,220.000 136.358 C 220.000 136.562,219.772 137.018,219.493 137.373 C 219.161 137.794,218.889 138.799,218.707 140.275 L 218.427 142.533 219.619 146.321 C 221.023 150.782,221.332 151.171,221.336 148.482 C 221.348 140.731,230.363 135.266,236.267 139.432 C 236.633 139.691,237.143 139.981,237.400 140.076 C 237.965 140.286,237.989 141.011,237.494 142.944 C 236.439 147.068,236.750 150.298,238.426 152.639 C 238.998 153.438,239.467 154.216,239.467 154.368 C 239.467 155.233,244.136 157.256,246.400 157.372 C 250.600 157.587,252.536 156.500,252.528 153.930 C 252.517 150.089,251.765 147.288,250.873 147.765 C 249.400 148.554,244.345 146.941,242.616 145.129 C 241.154 143.597,240.000 141.852,240.000 141.173 C 240.000 140.835,239.887 140.283,239.749 139.946 C 239.612 139.609,239.418 138.733,239.318 138.000 C 239.153 136.778,239.116 136.722,238.872 137.333 L 238.606 138.000 238.348 137.270 C 236.910 133.191,231.257 130.512,226.354 131.586 M112.184 137.067 C 112.081 137.433,111.522 141.873,110.942 146.933 C 110.362 151.993,109.821 156.553,109.739 157.067 C 109.625 157.777,109.650 157.873,109.843 157.467 L 110.096 156.933 110.124 157.467 C 110.253 159.934,113.502 164.504,115.467 164.981 C 115.833 165.070,116.579 165.365,117.123 165.638 C 118.400 166.278,121.642 166.318,122.800 165.709 C 123.240 165.478,124.140 165.106,124.800 164.884 C 125.460 164.662,126.240 164.270,126.533 164.013 C 126.827 163.756,127.277 163.472,127.533 163.381 C 127.790 163.291,128.000 163.040,128.000 162.825 C 128.000 162.167,129.445 160.006,129.800 160.132 C 129.983 160.197,130.134 160.044,130.135 159.792 C 130.136 159.210,131.275 149.918,131.987 144.667 C 132.840 138.385,132.686 136.971,131.523 140.400 C 131.225 141.280,130.899 141.958,130.799 141.907 C 130.699 141.856,130.298 142.106,129.908 142.461 C 126.158 145.885,120.502 146.514,117.327 143.862 C 116.716 143.351,116.112 142.933,115.984 142.933 C 115.857 142.933,115.447 142.483,115.073 141.933 C 114.699 141.383,114.305 140.964,114.197 141.001 C 113.978 141.076,112.990 138.787,112.614 137.333 C 112.380 136.432,112.365 136.423,112.184 137.067 M158.391 139.027 C 157.944 139.253,157.520 139.281,157.067 139.114 C 153.705 137.872,147.066 142.841,146.541 146.991 C 146.443 147.766,146.249 148.770,146.109 149.223 C 145.790 150.253,147.276 154.764,148.720 157.149 C 149.868 159.046,149.987 159.000,149.286 156.931 C 147.765 152.442,149.702 147.103,153.675 144.835 C 156.181 143.405,157.186 143.483,156.106 145.025 C 155.870 145.361,155.641 146.078,155.596 146.618 C 155.551 147.158,155.430 148.151,155.327 148.824 C 154.595 153.616,158.502 158.579,163.993 159.831 C 165.806 160.244,169.772 159.196,171.426 157.867 C 172.035 157.378,172.610 157.054,172.704 157.149 C 172.910 157.355,173.947 155.754,175.434 152.932 C 176.515 150.878,176.855 149.896,176.200 150.715 C 168.987 159.725,154.696 151.733,158.508 140.821 C 159.290 138.583,159.289 138.571,158.391 139.027 M233.427 148.284 C 228.031 151.108,226.170 157.385,229.165 162.657 C 229.533 163.306,229.763 163.952,229.676 164.093 C 229.589 164.234,229.657 164.263,229.827 164.158 C 230.002 164.050,230.209 164.153,230.301 164.392 C 230.682 165.387,234.706 167.491,236.934 167.861 C 237.962 168.032,237.942 168.010,236.382 167.241 C 230.922 164.548,228.758 158.401,231.425 153.162 C 232.357 151.334,234.367 149.253,235.081 149.380 C 235.442 149.444,235.613 149.246,235.748 148.609 C 236.049 147.181,235.642 147.124,233.427 148.284 M261.600 159.727 C 258.271 160.932,256.349 163.104,255.082 167.093 C 254.661 168.420,254.680 168.663,255.852 177.198 C 257.246 187.344,257.189 187.145,257.825 184.095 C 257.982 183.341,258.416 182.274,258.789 181.725 C 259.162 181.175,259.475 180.592,259.485 180.429 C 259.588 178.748,264.412 176.474,267.913 176.457 C 271.300 176.440,271.854 176.800,271.669 178.895 C 271.545 180.297,271.556 180.336,271.835 179.464 C 272.523 177.308,272.975 177.135,273.181 178.952 C 274.115 187.206,284.598 190.721,290.467 184.747 C 291.310 183.889,292.006 183.279,292.012 183.393 C 292.023 183.566,293.066 181.066,293.066 180.867 C 293.067 180.830,292.830 180.800,292.542 180.800 C 291.611 180.800,288.752 179.110,287.247 177.669 C 282.123 172.766,285.130 162.283,292.080 160.823 C 293.311 160.565,292.768 160.127,291.333 160.221 C 281.331 160.876,278.787 175.802,288.000 179.774 C 288.660 180.058,289.408 180.406,289.663 180.545 C 289.918 180.685,290.518 180.804,290.996 180.810 L 291.867 180.819 291.067 181.475 C 290.289 182.113,288.622 182.702,286.615 183.049 C 279.725 184.238,273.567 175.867,276.188 168.875 C 276.340 168.471,276.304 168.451,275.947 168.741 C 275.444 169.149,275.340 168.832,275.048 166.000 C 274.927 164.831,274.788 164.324,274.675 164.644 C 274.524 165.073,274.369 164.940,273.714 163.826 C 271.243 159.621,266.411 157.986,261.600 159.727 M265.512 197.318 C 261.451 204.837,266.007 213.053,274.248 213.071 C 275.642 213.074,276.029 213.148,275.733 213.355 C 275.053 213.831,276.504 213.358,278.129 212.573 C 280.185 211.581,283.094 208.607,284.338 206.228 C 285.618 203.777,285.592 203.650,284.114 205.149 C 281.411 207.891,276.724 209.056,273.440 207.801 C 271.788 207.170,269.076 205.408,268.860 204.824 C 268.774 204.591,268.318 203.836,267.848 203.147 C 266.828 201.651,266.308 199.141,266.566 196.952 C 266.788 195.059,266.720 195.082,265.512 197.318 " stroke="none" fill="#e81382" fill-rule="evenodd"></path><path id="path3" d="M215.209 62.279 C 210.340 63.635,206.705 69.239,207.701 73.854 C 207.845 74.521,208.228 76.567,208.552 78.400 C 209.400 83.200,209.357 83.168,210.579 79.890 C 211.037 78.661,211.704 77.854,213.936 75.830 C 216.310 73.676,223.352 73.430,225.019 75.441 C 225.213 75.675,225.479 75.838,225.611 75.802 C 226.016 75.695,227.973 77.911,228.604 79.192 L 229.200 80.400 229.286 79.503 C 229.520 77.060,227.813 69.384,226.513 67.032 C 224.386 63.184,219.435 61.102,215.209 62.279 M129.322 68.333 C 124.199 73.620,125.386 81.812,131.746 85.071 C 133.614 86.028,134.773 86.069,134.562 85.170 C 134.233 83.766,133.821 82.968,133.491 83.094 C 132.404 83.511,129.479 80.253,128.659 77.712 C 127.645 74.572,128.062 71.541,129.893 68.733 C 131.076 66.919,130.848 66.759,129.322 68.333 M143.867 76.236 C 138.260 77.025,134.388 82.313,135.352 87.867 C 136.508 94.530,137.246 96.476,137.706 94.067 C 137.945 92.813,139.150 90.338,139.435 90.514 C 139.568 90.596,139.746 90.484,139.830 90.265 C 140.074 89.629,143.481 87.577,144.851 87.241 C 149.159 86.183,153.371 87.844,155.762 91.544 L 156.800 93.149 156.799 92.241 C 156.790 82.036,151.263 75.196,143.867 76.236 M200.153 76.739 C 199.697 78.175,198.927 85.408,198.907 88.450 C 198.862 95.143,202.066 98.623,208.933 99.338 C 209.227 99.369,209.692 99.278,209.967 99.136 C 210.325 98.952,210.533 98.981,210.696 99.239 C 210.879 99.527,210.926 99.530,210.929 99.251 C 210.931 99.059,211.030 98.962,211.149 99.035 C 211.426 99.206,211.242 96.111,210.915 95.094 C 210.779 94.668,210.664 93.768,210.660 93.094 C 210.657 92.419,210.543 91.387,210.408 90.800 C 210.273 90.213,210.046 88.785,209.902 87.627 C 209.617 85.319,208.956 84.282,207.714 84.195 C 207.358 84.170,206.660 83.876,206.163 83.542 C 205.666 83.207,205.126 82.929,204.963 82.924 C 203.941 82.891,202.142 80.488,201.271 77.993 C 200.646 76.203,200.408 75.935,200.153 76.739 M172.458 84.467 C 171.100 89.054,171.071 92.362,172.378 93.856 C 172.575 94.082,172.824 94.567,172.930 94.933 C 173.146 95.678,175.145 97.867,175.609 97.867 C 175.773 97.867,176.192 98.170,176.541 98.541 C 176.889 98.912,177.316 99.161,177.490 99.095 C 177.663 99.028,178.029 99.125,178.303 99.309 C 179.747 100.284,179.813 100.201,179.604 97.686 C 179.497 96.409,179.244 94.817,179.041 94.149 C 178.838 93.480,178.663 92.633,178.651 92.267 C 178.633 91.723,178.594 91.688,178.440 92.080 C 178.266 92.520,178.161 92.495,177.192 91.792 C 174.988 90.194,173.515 87.100,173.514 84.067 C 173.514 81.547,173.299 81.628,172.458 84.467 M187.369 91.573 C 180.422 94.091,179.507 97.623,182.016 112.235 C 182.210 113.364,182.438 113.104,183.079 111.021 C 183.358 110.116,183.675 109.431,183.783 109.497 C 183.891 109.564,184.080 109.231,184.204 108.756 C 184.416 107.936,185.224 107.184,187.600 105.594 C 189.776 104.137,195.088 103.727,195.750 104.964 C 196.288 105.970,196.479 105.728,196.665 103.800 C 196.761 102.810,196.946 101.340,197.076 100.533 C 197.636 97.073,197.686 94.541,197.214 93.627 C 196.054 91.384,190.872 90.303,187.369 91.573 M118.563 94.818 C 118.289 95.533,117.366 100.285,117.177 101.953 C 115.681 115.184,134.373 117.613,137.480 104.590 C 138.223 101.475,137.654 100.685,135.806 102.267 C 135.206 102.780,134.637 103.200,134.541 103.200 C 134.445 103.200,133.695 103.518,132.873 103.907 C 127.414 106.489,119.337 101.844,119.181 96.033 C 119.149 94.847,118.809 94.178,118.563 94.818 M247.377 115.544 C 243.151 119.873,242.689 125.332,246.155 129.967 C 247.038 131.147,248.096 132.000,248.679 132.000 C 249.296 132.000,247.991 128.116,246.932 126.800 C 245.034 124.443,245.768 118.800,248.425 115.319 C 249.664 113.695,249.053 113.826,247.377 115.544 M224.914 123.465 C 222.872 123.765,221.637 124.461,219.787 126.357 C 216.625 129.596,216.109 132.679,217.625 139.267 C 218.339 142.372,218.532 142.487,218.769 139.947 C 218.867 138.891,219.112 137.841,219.314 137.613 C 219.515 137.386,219.854 136.780,220.067 136.267 C 222.622 130.108,233.054 129.703,237.254 135.600 C 238.121 136.818,238.139 136.394,237.352 133.200 C 235.862 127.145,233.616 124.515,229.139 123.578 C 227.193 123.171,226.962 123.164,224.914 123.465 M163.881 125.598 C 162.081 130.927,162.036 135.500,163.757 138.112 C 164.184 138.761,164.533 139.372,164.533 139.470 C 164.533 139.871,167.942 142.257,169.190 142.728 C 171.583 143.633,175.895 143.281,176.970 142.092 C 177.215 141.822,177.566 141.600,177.749 141.600 C 179.550 141.600,182.154 137.403,183.292 132.667 C 184.147 129.106,184.064 128.479,182.981 130.333 C 181.941 132.115,180.973 132.963,178.825 133.972 C 172.512 136.939,165.754 133.282,164.342 126.133 C 164.125 125.031,164.087 124.988,163.881 125.598 M150.878 131.839 C 145.651 133.988,143.433 138.692,144.684 144.971 C 145.657 149.855,146.115 150.395,146.516 147.135 C 147.043 142.858,153.659 137.834,157.070 139.120 C 158.690 139.731,160.652 136.858,160.477 134.133 C 160.320 131.690,154.577 130.317,150.878 131.839 M191.249 139.426 C 189.836 142.871,189.600 143.745,189.601 145.527 C 189.609 154.986,200.337 159.393,207.308 152.801 C 209.178 151.032,211.391 146.667,210.418 146.667 C 210.281 146.667,210.097 146.894,210.009 147.172 C 209.818 147.772,207.355 150.133,206.919 150.133 C 206.752 150.133,206.288 150.366,205.888 150.651 C 203.854 152.100,198.425 151.816,196.343 150.152 C 195.872 149.775,195.145 149.207,194.728 148.889 C 192.477 147.174,191.285 143.820,191.706 140.382 C 192.052 137.553,192.033 137.513,191.249 139.426 M260.238 144.324 C 260.034 144.523,259.387 144.832,258.800 145.010 C 256.796 145.620,254.437 148.316,253.459 151.117 C 253.057 152.267,252.807 152.690,252.723 152.362 C 252.653 152.090,252.581 152.735,252.564 153.796 C 252.521 156.516,250.668 157.590,246.400 157.372 C 244.136 157.256,239.467 155.233,239.467 154.368 C 239.467 154.216,238.998 153.438,238.426 152.639 C 237.210 150.941,236.671 148.577,236.913 146.003 C 237.002 145.059,236.974 144.613,236.844 144.919 C 236.676 145.314,236.161 145.516,234.693 145.764 C 227.485 146.978,223.724 154.131,226.843 160.693 C 227.448 161.965,230.400 165.188,230.400 164.577 C 230.400 164.424,230.290 164.230,230.155 164.147 C 227.657 162.603,227.097 155.698,229.182 152.141 C 231.030 148.987,236.332 146.110,235.740 148.582 C 234.416 154.111,234.414 154.731,235.719 157.520 C 238.747 163.991,246.406 165.526,251.909 160.764 C 253.418 159.458,253.389 159.420,253.978 163.467 C 254.702 168.440,254.679 168.379,255.193 166.800 C 256.023 164.247,256.565 163.324,258.078 161.893 C 262.865 157.364,270.472 158.315,273.729 163.849 C 274.341 164.889,274.547 165.081,274.624 164.684 C 274.828 163.639,273.440 153.115,272.891 151.543 C 271.528 147.636,268.993 145.061,265.842 144.383 C 263.968 143.980,260.627 143.945,260.238 144.324 M155.096 146.730 C 147.738 157.783,163.386 168.974,171.845 158.708 C 173.377 156.849,173.092 156.522,171.229 158.002 C 168.818 159.919,165.110 160.363,161.867 159.122 C 157.287 157.371,154.114 151.729,155.489 147.785 C 155.945 146.475,155.701 145.820,155.096 146.730 M109.635 158.316 C 107.376 168.216,107.763 175.344,110.723 178.335 C 117.013 184.689,126.430 181.859,128.254 173.067 C 128.998 169.476,130.044 159.995,129.694 160.008 C 129.389 160.020,128.000 162.330,128.000 162.825 C 128.000 163.040,127.790 163.291,127.533 163.381 C 127.277 163.472,126.827 163.756,126.533 164.013 C 126.240 164.270,125.460 164.662,124.800 164.884 C 124.140 165.106,123.240 165.478,122.800 165.709 C 121.642 166.318,118.400 166.278,117.123 165.638 C 116.579 165.365,115.833 165.070,115.467 164.981 C 114.737 164.804,111.981 162.334,111.516 161.441 C 111.356 161.134,110.933 160.016,110.577 158.957 L 109.928 157.031 109.635 158.316 M298.425 158.173 C 296.419 158.422,293.191 160.098,292.369 161.318 C 292.017 161.840,291.367 162.739,290.924 163.317 C 284.897 171.172,294.645 182.340,303.805 178.075 C 314.640 173.029,310.228 156.706,298.425 158.173 M287.200 160.620 C 277.836 163.759,277.836 177.450,287.200 180.209 C 289.855 180.991,290.608 180.779,288.267 179.909 C 280.209 176.913,280.129 165.240,288.138 161.206 C 290.122 160.207,289.533 159.839,287.200 160.620 M272.499 177.970 C 269.637 181.780,271.503 189.884,275.761 192.134 C 278.739 193.708,278.718 193.702,281.047 193.718 C 286.210 193.753,289.762 190.945,291.437 185.505 C 292.210 182.995,292.198 182.985,290.467 184.747 C 284.635 190.682,274.548 187.416,273.218 179.162 C 272.942 177.445,272.920 177.409,272.499 177.970 M265.306 195.533 C 259.779 201.050,261.291 209.512,268.398 212.838 C 270.564 213.852,273.721 214.168,275.200 213.519 L 276.133 213.110 274.248 213.088 C 265.893 212.992,261.423 204.779,265.592 197.183 C 267.084 194.466,266.979 193.863,265.306 195.533 " stroke="none" fill="#1d24f8" fill-rule="evenodd"></path><path id="path4" d="M211.290 52.656 C 207.615 53.692,204.368 57.189,203.066 61.512 C 202.882 62.124,202.824 62.724,202.938 62.846 C 203.051 62.967,203.192 63.847,203.250 64.800 C 203.379 66.918,204.182 68.641,205.914 70.516 L 207.162 71.867 206.921 70.767 C 206.788 70.163,206.302 68.543,205.840 67.167 C 202.868 58.307,211.094 50.477,219.555 54.113 C 221.966 55.149,221.441 54.403,218.969 53.279 C 216.805 52.296,213.513 52.029,211.290 52.656 M138.267 65.168 C 131.140 67.466,128.438 75.225,132.669 81.244 C 133.381 82.258,133.386 82.260,133.218 81.467 C 131.008 71.023,140.473 63.931,148.911 69.708 C 150.567 70.842,150.701 70.893,150.260 70.217 C 148.800 67.985,144.969 64.916,144.072 65.261 C 143.838 65.350,143.713 65.314,143.794 65.179 C 144.030 64.790,139.467 64.781,138.267 65.168 M187.200 71.770 C 187.200 71.897,186.580 72.000,185.822 72.000 C 178.364 72.000,174.027 79.459,177.053 87.080 L 178.107 89.733 178.074 88.133 C 177.984 83.838,179.993 80.429,183.729 78.535 C 185.228 77.776,189.315 77.298,189.933 77.811 C 190.124 77.969,190.897 78.181,191.651 78.281 C 192.648 78.413,193.278 78.691,193.958 79.298 C 194.473 79.757,195.053 80.274,195.247 80.445 C 195.441 80.617,195.953 81.247,196.384 81.845 C 197.416 83.276,197.660 83.220,197.162 81.667 C 195.629 76.887,192.121 72.574,189.612 72.388 C 188.432 72.301,188.247 72.247,188.381 72.030 C 188.461 71.901,188.229 71.737,187.864 71.667 C 187.499 71.598,187.200 71.644,187.200 71.770 M123.200 78.742 C 123.200 78.800,122.827 79.917,122.371 81.224 C 119.473 89.532,125.627 97.416,133.702 95.740 C 135.792 95.306,136.379 94.693,136.170 93.164 C 135.881 91.061,135.366 90.400,134.015 90.400 C 128.385 90.400,123.719 85.918,123.663 80.456 C 123.654 79.606,123.547 78.849,123.424 78.773 C 123.301 78.697,123.200 78.683,123.200 78.742 M220.000 92.509 C 218.730 92.690,218.700 92.704,216.751 93.941 C 215.417 94.787,214.076 96.285,213.552 97.514 C 213.375 97.928,213.071 98.459,212.876 98.694 C 212.332 99.351,212.029 102.548,212.299 104.800 C 212.430 105.900,212.777 108.615,213.069 110.834 C 213.865 116.881,213.658 118.548,212.183 117.982 C 211.887 117.869,211.587 118.093,211.212 118.709 C 210.913 119.199,210.668 119.495,210.668 119.367 C 210.667 119.239,210.468 119.299,210.226 119.501 C 208.742 120.732,202.021 119.621,200.252 117.852 C 199.994 117.594,199.561 117.339,199.291 117.288 C 199.005 117.233,198.677 116.806,198.505 116.263 C 198.343 115.752,197.976 115.225,197.691 115.093 C 197.028 114.786,196.508 113.164,196.332 110.859 C 196.156 108.556,196.046 108.696,195.725 111.630 C 195.583 112.934,195.353 114.540,195.214 115.200 C 195.076 115.860,194.886 117.210,194.793 118.200 C 194.700 119.190,194.519 120.000,194.391 120.000 C 194.263 120.000,193.850 120.307,193.474 120.683 C 192.990 121.168,192.631 121.316,192.240 121.191 C 191.876 121.076,191.491 121.195,191.111 121.540 C 190.793 121.828,190.233 122.134,189.867 122.220 C 188.159 122.622,185.605 126.340,185.171 129.058 C 185.076 129.649,184.886 130.133,184.748 130.133 C 184.610 130.133,184.561 130.343,184.638 130.600 C 184.716 130.857,185.026 132.447,185.327 134.133 C 185.628 135.820,186.087 138.217,186.347 139.460 L 186.820 141.720 187.121 139.774 C 187.531 137.126,188.582 135.157,190.473 133.492 C 192.259 131.920,192.351 131.909,192.545 133.258 C 192.690 134.263,192.692 134.261,193.015 132.667 C 194.025 127.689,194.099 127.568,194.643 129.996 C 194.897 131.134,195.286 131.842,196.298 133.009 C 201.235 138.699,209.656 137.988,212.977 131.600 C 213.358 130.867,213.781 130.196,213.916 130.109 C 214.298 129.864,215.000 124.277,214.818 122.933 C 214.147 117.986,214.130 117.683,214.425 116.000 C 215.433 110.231,223.039 106.002,227.923 108.494 C 228.540 108.809,229.281 109.067,229.568 109.067 C 230.375 109.067,233.298 112.440,233.668 113.800 C 234.051 115.202,234.534 115.305,234.298 113.933 C 234.203 113.383,233.763 110.173,233.319 106.800 C 232.874 103.427,232.406 100.427,232.277 100.133 C 232.149 99.840,231.928 99.232,231.786 98.782 C 230.349 94.221,225.624 91.706,220.000 92.509 M168.551 101.661 C 168.511 102.098,166.633 111.627,166.524 111.947 C 166.459 112.138,166.508 112.231,166.633 112.154 C 166.758 112.077,166.930 112.691,167.015 113.518 C 167.192 115.227,168.628 118.405,169.303 118.582 C 169.544 118.644,169.929 119.019,170.160 119.415 C 171.529 121.759,179.325 123.244,180.817 121.446 C 180.976 121.255,181.268 121.161,181.466 121.237 C 182.650 121.691,182.896 118.921,182.110 114.000 C 181.671 111.250,181.625 111.131,181.067 111.277 C 179.378 111.719,174.508 110.535,173.223 109.371 C 170.753 107.131,170.118 106.264,169.582 104.400 C 169.038 102.512,168.584 101.305,168.551 101.661 M147.333 103.571 C 143.518 104.502,140.404 107.964,139.755 111.995 C 139.478 113.712,139.593 114.835,140.801 122.267 C 141.087 124.027,141.361 125.827,141.410 126.267 C 141.513 127.194,141.659 126.896,142.128 124.800 C 142.430 123.449,144.255 120.241,145.122 119.538 C 150.287 115.347,157.805 116.715,160.952 122.417 C 161.798 123.950,161.884 124.034,161.758 123.200 C 161.680 122.687,161.490 121.260,161.335 120.030 C 161.179 118.799,160.997 117.702,160.928 117.592 C 160.860 117.481,160.624 115.968,160.404 114.229 C 159.847 109.823,159.742 109.297,159.451 109.476 C 159.311 109.563,158.927 109.026,158.598 108.284 C 158.269 107.541,157.847 106.934,157.661 106.934 C 157.474 106.933,157.185 106.633,157.018 106.267 C 156.851 105.900,156.494 105.600,156.224 105.600 C 155.954 105.600,155.733 105.510,155.732 105.400 C 155.718 103.959,150.446 102.811,147.333 103.571 M256.000 117.032 C 248.880 119.405,246.578 126.287,250.075 134.748 L 250.494 135.763 250.970 134.215 C 253.685 125.370,267.255 125.011,270.125 133.708 C 270.699 135.449,270.702 134.558,270.131 131.836 C 268.877 125.857,267.940 122.139,267.721 122.274 C 267.594 122.353,267.302 122.055,267.073 121.612 C 265.337 118.255,259.534 115.854,256.000 117.032 M114.290 120.729 C 114.208 120.988,113.965 122.640,113.748 124.400 C 113.532 126.160,113.107 129.460,112.804 131.733 C 112.307 135.461,112.290 136.010,112.632 137.333 C 113.112 139.186,114.093 141.462,114.316 141.239 C 114.410 141.146,114.771 141.489,115.119 142.001 C 115.468 142.514,115.857 142.933,115.984 142.933 C 116.112 142.933,116.716 143.351,117.327 143.862 C 120.502 146.514,126.158 145.885,129.908 142.461 C 130.298 142.106,130.718 141.800,130.842 141.783 C 130.965 141.765,131.291 141.087,131.566 140.275 C 132.135 138.595,132.517 138.037,132.567 138.813 C 132.602 139.366,133.068 135.836,133.573 131.200 C 133.740 129.660,133.987 127.860,134.121 127.200 C 134.852 123.604,134.576 121.867,133.624 124.067 C 132.923 125.685,130.127 128.267,129.075 128.267 C 128.912 128.267,128.308 128.507,127.733 128.800 C 126.981 129.184,126.162 129.333,124.810 129.333 C 123.441 129.333,122.661 129.189,121.936 128.800 C 121.389 128.507,120.745 128.267,120.505 128.267 C 118.805 128.267,114.933 123.481,114.933 121.378 C 114.933 120.450,114.512 120.025,114.290 120.729 M240.762 130.533 C 238.963 137.244,239.006 136.692,239.946 140.993 C 240.700 144.439,245.325 147.848,249.200 147.812 C 251.875 147.788,251.820 147.820,251.611 146.422 C 251.511 145.750,251.332 144.480,251.214 143.600 C 250.862 140.980,250.377 140.108,249.163 139.910 C 247.014 139.561,244.153 137.559,242.812 135.467 C 242.201 134.513,241.782 133.005,241.404 130.400 L 241.191 128.933 240.762 130.533 M159.438 138.675 C 157.588 141.517,157.374 145.849,158.933 148.902 C 162.420 155.727,170.624 156.529,176.362 150.605 C 176.751 150.204,178.933 145.565,178.933 145.140 C 178.933 145.087,178.273 145.709,177.467 146.522 C 176.660 147.335,175.844 148.000,175.653 148.000 C 175.463 148.000,175.169 148.137,175.001 148.305 C 174.343 148.964,171.859 149.600,169.946 149.600 C 164.597 149.600,160.365 145.573,160.007 140.142 C 159.871 138.076,159.855 138.035,159.438 138.675 M229.408 138.403 C 222.865 139.359,219.389 146.929,222.404 153.662 C 223.469 156.041,224.159 157.127,223.448 155.304 C 222.917 153.944,223.363 150.056,224.251 148.302 C 226.572 143.714,231.797 141.281,236.147 142.763 C 237.666 143.281,237.522 143.380,237.750 141.666 C 237.911 140.452,237.871 140.253,237.434 140.097 C 237.159 139.999,236.727 139.742,236.475 139.526 C 235.891 139.025,232.661 138.123,231.606 138.167 C 231.163 138.185,230.174 138.291,229.408 138.403 M154.141 144.593 C 149.894 146.783,147.775 151.998,149.224 156.691 C 149.491 157.558,149.718 158.387,149.727 158.534 C 149.786 159.481,153.127 162.414,155.362 163.480 C 157.602 164.550,157.785 164.464,155.867 163.245 C 150.858 160.061,149.315 153.736,152.378 148.950 C 153.192 147.678,154.979 145.867,155.418 145.867 C 155.663 145.867,156.533 144.430,156.533 144.026 C 156.533 143.538,155.890 143.691,154.141 144.593 M233.284 150.600 C 226.282 157.812,232.996 170.383,242.529 167.912 L 243.858 167.567 241.639 167.254 C 236.246 166.491,233.006 163.185,232.373 157.799 C 232.093 155.417,233.209 151.850,234.638 150.559 C 234.947 150.279,235.200 149.889,235.200 149.692 C 235.200 149.010,234.509 149.338,233.284 150.600 M290.267 161.507 C 284.331 164.542,282.692 173.311,287.247 177.669 C 289.631 179.951,293.358 181.549,294.863 180.934 C 295.219 180.789,294.959 180.600,293.788 180.154 C 285.570 177.027,284.195 165.563,291.565 161.619 C 293.329 160.675,292.100 160.569,290.267 161.507 M278.622 165.267 C 273.700 170.437,274.819 178.668,280.864 181.760 C 282.559 182.626,285.387 183.260,286.615 183.049 C 288.656 182.696,290.293 182.109,291.067 181.451 L 291.867 180.770 290.933 180.937 C 280.446 182.818,273.966 173.354,279.747 164.600 C 280.571 163.352,280.280 163.525,278.622 165.267 M265.733 176.520 C 263.127 177.268,262.443 177.601,261.047 178.803 C 260.198 179.535,259.495 180.267,259.485 180.429 C 259.475 180.592,259.162 181.175,258.789 181.725 C 258.416 182.274,257.985 183.341,257.830 184.095 C 257.676 184.849,257.452 185.658,257.332 185.892 C 257.118 186.309,258.890 196.846,259.231 197.187 C 259.322 197.277,259.478 196.626,259.578 195.741 C 259.682 194.820,260.012 193.728,260.347 193.192 C 260.669 192.676,261.173 191.876,261.467 191.413 C 262.258 190.166,265.570 187.733,266.477 187.733 C 268.437 187.733,269.294 186.746,270.532 183.067 C 271.857 179.129,272.023 177.535,271.168 176.977 C 270.415 176.487,266.884 176.190,265.733 176.520 M104.993 189.001 C 104.922 189.551,104.646 191.052,104.379 192.338 C 102.959 199.172,107.400 204.900,114.133 204.922 C 120.446 204.942,123.701 201.498,125.186 193.228 L 125.372 192.190 124.306 193.421 C 123.720 194.098,123.163 194.896,123.069 195.193 C 122.975 195.490,122.742 195.733,122.553 195.733 C 122.363 195.733,121.741 196.051,121.171 196.438 C 118.558 198.215,114.338 198.562,111.951 197.198 C 111.318 196.836,110.616 196.538,110.392 196.537 C 109.051 196.526,105.933 191.837,105.661 189.422 C 105.492 187.927,105.159 187.717,104.993 189.001 M267.641 193.170 C 266.072 196.418,266.159 200.671,267.843 203.140 C 268.316 203.833,268.774 204.591,268.860 204.824 C 269.076 205.408,271.788 207.170,273.440 207.801 C 276.735 209.060,281.281 207.926,284.147 205.132 C 285.646 203.670,285.854 203.282,287.097 199.620 C 288.140 196.549,288.113 196.318,286.905 197.999 C 283.892 202.196,277.738 203.291,273.262 200.428 C 271.035 199.004,269.067 196.309,269.067 194.686 C 269.067 194.441,268.955 194.126,268.818 193.987 C 268.681 193.847,268.531 193.253,268.484 192.667 L 268.400 191.600 267.641 193.170 " stroke="none" fill="#dadc08" fill-rule="evenodd"></path></g></svg>
