<?xml version="1.0" encoding="UTF-8"?>
<!DOCTYPE svg  PUBLIC '-//W3C//DTD SVG 1.1//EN'  'http://www.w3.org/Graphics/SVG/1.1/DTD/svg11.dtd'>
<svg enable-background="new 0 0 200 200" version="1.1" viewBox="0 0 200 200" xml:space="preserve" xmlns="http://www.w3.org/2000/svg">
<path d="m108.87 40.299c-4.237 1.566-5.942 5.547-4.413 10.303 0.39 1.208 0.761 2.446 0.828 2.753 0.172 0.799 0.433 0.511 0.567-0.635 0.818-6.898 10.607-8.579 14.088-2.417 0.704 1.249 0.748 1.155 0.316-0.7-1.622-6.998-3.734-9.389-8.475-9.596-1.512-0.066-2.101-6e-3 -2.911 0.292m-53.886 10.78c-4.697 1.692-6.713 6.852-4.426 11.328 0.161 0.314 0.357 0.875 0.438 1.247l0.145 0.675-0.76-0.144c-3.986-0.748-6.506-5.295-5.37-9.691 0.228-0.882-0.44 0.095-1.407 2.057-2.535 5.146 1.229 11.118 7.004 11.118 0.752 0 0.917 0.078 1.168 0.548 0.354 0.67 0.29-0.205-0.201-2.707-0.827-4.221 2.787-8.37 7.383-8.476 2.827-0.066 4.634 0.871 6.465 3.349 0.487 0.658 0.836 1.018 0.774 0.798-0.061-0.219-0.168-0.668-0.241-0.998-0.352-1.612-1.204-4.126-1.791-5.29-1.668-3.309-5.808-5.03-9.181-3.814m34.341 7.196c-3.399 0.586-5.82 3.926-5.723 7.897 0.033 1.335 0.113 1.802 0.735 4.291 0.152 0.604 0.336 1.84 0.412 2.748 0.148 1.787 0.09 1.854-0.986 1.126-0.205-0.137-0.479-0.21-0.608-0.16-0.13 0.05-0.45-0.137-0.71-0.415s-0.575-0.504-0.697-0.504c-0.348 0-1.843-1.639-2.005-2.196-0.079-0.274-0.265-0.637-0.412-0.805-0.148-0.169-0.401-0.874-0.563-1.568-0.162-0.693-0.327-1.293-0.368-1.333-0.156-0.158-1.716 7.029-1.762 8.124-0.072 1.672 1.779 5.762 2.608 5.762 0.084 0 0.41 0.261 0.725 0.579 0.883 0.892 4.764 1.873 5.814 1.47 0.158-0.06 0.376 0.016 0.483 0.168 0.213 0.304 0.204 0.223-0.461-4.212-0.697-4.649-0.278-6.825 1.705-8.839 2.246-2.281 5.891-2.948 8.749-1.601 2.191 1.034 2.266 1.503 1.305 8.243-0.58 4.06-0.22 8.671 0.707 9.101 0.217 0.1 0.494 0.496 0.614 0.878 0.13 0.407 0.375 0.727 0.59 0.768 0.2 0.038 0.525 0.229 0.72 0.421 1.323 1.325 6.354 2.157 7.466 1.235 0.182-0.151 0.331-0.196 0.331-0.1s0.184-0.125 0.405-0.493c0.281-0.461 0.507-0.629 0.729-0.544 1.096 0.421 1.258-0.832 0.675-5.251-0.213-1.606-0.532-4.073-0.709-5.483-0.366-2.878-0.614-3.786-0.91-3.319-0.146 0.229-0.186 0.236-0.187 0.022-3e-3 -0.177-0.126-0.223-0.354-0.133-0.688 0.273-1.003 0.263-2.48-0.08-4.195-0.976-5.992-3.272-5.987-7.657 2e-3 -1.341-0.062-2.27-0.143-2.063-0.108 0.281-0.213 0.093-0.416-0.751-0.189-0.789-0.5-1.379-1.035-1.972-0.42-0.465-0.816-1.003-0.879-1.195s-0.198-0.35-0.3-0.35c-0.103 0-0.51-0.305-0.905-0.678-0.564-0.532-0.95-0.708-1.793-0.812-0.591-0.074-1.126-0.218-1.19-0.321-0.134-0.209-1.974-0.207-3.19 2e-3m-52.254 23.222c-1.091 6.709-1.251 8.111-0.974 8.555 0.127 0.202 0.229 0.605 0.229 0.892 0 1.498 2.94 5.071 4.171 5.071 0.18 0 0.662 0.18 1.071 0.399 0.543 0.292 1.127 0.399 2.151 0.399 1.013 0 1.626-0.112 2.189-0.399 0.431-0.219 0.898-0.402 1.04-0.405 0.761-0.019 3.352-2.436 3.352-3.126 0-0.145 0.194-0.455 0.431-0.692 0.372-0.371 0.534-1.156 1.186-5.739 0.416-2.92 0.804-5.623 0.861-6.007 0.099-0.645 0.055-0.606-0.573 0.499-3.572 6.306-13.017 4.574-14.146-2.594l-0.235-1.488-0.753 4.635m80.599-0.637c-4.759 0.48-7.522 4.041-6.884 8.867 0.115 0.878 0.288 2.225 0.384 2.995 0.095 0.767 0.321 2.204 0.508 3.193 0.184 0.989 0.452 2.515 0.596 3.394 0.225 1.384 0.265 1.478 0.29 0.698 0.086-2.56 0.595-3.754 2.364-5.547 3.573-3.619 9.934-2.535 12.049 2.053 0.42 0.917 0.453 0.707 0.165-1.063-0.111-0.694-0.289-1.907-0.393-2.694-0.429-3.242-1.009-6.607-1.156-6.71-0.086-0.061-0.264-0.47-0.393-0.91-0.286-0.976-2.494-3.492-3.062-3.492-0.216 0-0.727-0.167-1.134-0.371-0.989-0.496-1.672-0.582-3.334-0.413m-54.349 6.785c-3.061 0.397-5.753 2.603-6.532 5.35-0.631 2.226-0.609 2.532 0.648 9.408 0.412 2.249 0.771 3.821 0.8 3.49 0.516-6.052 5.989-9.389 11.209-6.833 1.18 0.578 1.32 1.491 0.528 3.465-0.578 1.447-0.633 1.717-0.234 1.174 0.246-0.337 0.284-0.203 0.351 1.207 0.189 4.014 3.398 7.078 7.417 7.078 1.431 0 3.291-0.477 3.783-0.972 0.126-0.124 0.348-0.226 0.494-0.226 0.424 0 2.542-2.287 2.894-3.127 0.591-1.408 1.752-4.575 1.749-4.771-1e-3 -0.103-0.249 0.226-0.549 0.734-0.558 0.945-2.08 2.372-2.53 2.372-0.136 0-0.4 0.166-0.583 0.367-0.805 0.89-4.032 1.153-5.823 0.479-0.945-0.36-3.487-2.141-3.487-2.448 0-0.075-0.239-0.488-0.532-0.914-0.923-1.346-1.307-3.885-0.871-5.766 0.42-1.814-0.887-6.045-2.401-7.77-0.682-0.777-5.078-2.928-5.078-2.485-2e-3 0.015-0.565 0.097-1.253 0.188m68.872 4.627c-2.539 6.098-0.492 11.627 4.612 12.459 0.896 0.144 1.273 0.802 1.525 2.661 0.08 0.604 0.264 1.974 0.404 3.045 0.141 1.068 0.337 1.944 0.433 1.944 0.099 0 0.156 0.113 0.129 0.249-0.025 0.14 0.021 0.603 0.105 1.033l0.156 0.78 0.458-1.314c0.736-2.107 2.5-4.125 4.003-4.582 0.438-0.133 0.924-0.364 1.075-0.513 0.291-0.285 2.793-0.259 4.194 0.042 2.365 0.511 3.934 2.085 5.287 5.304 0.141 0.33 0.11 0.078-0.579-5.128-1.027-7.772-1.686-9.746-3.813-11.44-3.973-3.163-10.545-1.166-12.026 3.654l-0.355 1.158-0.317-0.759c-0.176-0.418-0.434-1.209-0.579-1.757-0.142-0.549-0.291-0.841-0.331-0.649-0.083 0.414-0.082 0.413-0.723 0.121-0.452-0.207-1.811-1.82-2.282-2.712-0.465-0.885-0.841-2.98-0.714-3.995 0.174-1.395 0.056-1.324-0.662 0.399m-39.292 7.624c-4.041 3.599-3.157 10.926 1.819 15.078 0.326 0.273 0.181 0.05-0.324-0.499-2.334-2.532-2.851-5.811-1.41-8.955 1.186-2.591 1.882-6.207 1.268-6.586-0.088-0.055-0.696 0.378-1.353 0.962m30.314 6.894c-5.583 1.323-7.673 8.537-3.729 12.879 0.398 0.44 0.627 0.656 0.503 0.482-0.119-0.176-0.358-0.995-0.528-1.819-0.919-4.438 1.906-8.444 6.5-9.219 1.443-0.242 2.233-0.992 1.918-1.82-0.223-0.578-3.065-0.886-4.664-0.503m-57.458 3.035c-3.975 3.486-3.226 9.771 1.493 12.529 2.718 1.589 5.637 1.277 8.85-0.95 0.956-0.664 1.33-1.085 0.499-0.564-6.363 3.983-14.065-3.271-10.69-10.068 0.861-1.735 0.847-1.821-0.152-0.947m60.175 2.838c-3.501 4.143-1.376 10.845 3.907 12.331 3.981 1.12 7.171-0.538 9.961-5.176 0.261-0.433-0.019-0.275-0.959 0.539-5.623 4.866-14.289 0.079-12.611-6.968 0.363-1.525 0.369-1.514-0.298-0.726m37.217 8.093c-8.188 2.945-5.841 14.94 2.928 14.974 1.668 5e-3 1.872-0.299 0.38-0.562-7.052-1.243-8.936-11.057-2.734-14.223 1.291-0.658 0.997-0.759-0.574-0.189m5.194 0.382c-8.192 5.935 0.069 18.384 8.522 12.849 0.977-0.639 0.924-0.713-0.217-0.317-6.586 2.292-12.714-5.965-8.531-11.496 1.113-1.473 1.204-1.604 1.108-1.604-0.052-2e-3 -0.45 0.254-0.882 0.568m-137.76 10.216c-0.241 1.7-0.664 4.391-0.941 5.982-0.575 3.299-0.501 4.571 0.375 6.485 0.535 1.171 2.413 3.293 2.914 3.297 0.168 2e-3 0.694 0.225 1.167 0.496 1.787 1.021 4.946 0.761 6.901-0.57 0.427-0.289 0.894-0.526 1.035-0.526 0.142 0 0.316-0.184 0.387-0.405 0.07-0.222 0.472-0.801 0.893-1.287 0.929-1.073 1.191-2.075 1.906-7.291 0.279-2.03 0.609-4.301 0.732-5.039 0.273-1.636 0.105-1.919-0.416-0.704-1.148 2.68-4.396 4.548-7.418 4.271-2.911-0.266-6.076-2.828-6.567-5.312-0.523-2.646-0.507-2.655-0.968 0.603m122.14 5.882c-0.812 2.482-1.536 3.293-2.949 3.293-0.682 0-3.161 1.817-3.755 2.755-0.221 0.344-0.589 0.933-0.819 1.304-0.539 0.863-0.896 3.188-0.656 4.292 0.367 1.708 0.545 2.358 0.938 3.426 0.539 1.469 1.434 3.263 1.562 3.135 0.056-0.056-0.055-0.403-0.246-0.77-0.534-1.026-0.508-4.169 0.045-5.358 0.85-1.832 2.733-3.937 3.057-3.414 0.086 0.14 0.251-0.084 0.404-0.561 0.144-0.436 0.429-1.044 0.632-1.354l0.372-0.56v0.837c1e-3 0.459 0.09 0.892 0.201 0.959 0.11 0.066 0.198 0.286 0.198 0.485 0 1.243 1.457 3.248 3.142 4.326 3.441 2.203 7.726 1.387 10.339-1.97 0.767-0.981 2.489-5.753 2.489-6.89 0-0.053-0.38 0.371-0.849 0.945-1.652 2.033-3.516 2.909-6.152 2.892-1.742-0.012-1.729-8e-3 -3.956-1.188-2.244-1.184-3.315-3.265-3.315-6.438v-2.24c-1e-3 7e-3 -0.307 0.949-0.682 2.094" fill="#13E785"/>
<path d="m-49.711 99.808v99.808h299.42v-199.62h-299.42v99.808m163.89-59.935c4.29 1.95 5.914 6.228 8.169 21.509 0.455 3.075 1 6.757 1.213 8.183 0.213 1.428 0.482 3.405 0.599 4.392 0.179 1.522 0.575 4.513 1.597 12.077 0.097 0.714 0.315 2.196 0.487 3.293 0.171 1.099 0.4 2.671 0.51 3.494 0.574 4.346 1.91 10.543 2.206 10.245 0.16-0.161 0.372-0.918 1.894-6.647 2.487-9.388 6.47-13.485 12.215-12.575 6.3 0.999 8.54 6.107 11.029 25.146 0.225 1.7 0.588 4.307 0.812 5.787 0.222 1.482 0.536 3.775 0.693 5.092 0.83 6.96 0.856 7.05 1.601 5.873 2.341-3.712 6.034-5.693 10.789-5.791 1.654-0.034 2.104-0.116 2.78-0.503 3.246-1.868 7.003-1.375 9.483 1.249 5.163 5.458 0.488 13.928-8.093 14.654-1.208 0.104-2.298 0.226-2.425 0.273-0.236 0.088-1.918 4.999-2.671 7.8-0.933 3.46-2.482 7.895-3.511 10.033-4.833 10.065-15.945 8.31-18.653-2.947-0.964-4.005-2.154-11.015-3.277-19.302-1.748-12.898-1.518-11.868-2.362-10.529-1.743 2.76-3.325 3.915-6.525 4.771-9.759 2.608-17.584-7.5-20.549-26.541-0.12-0.767-0.35-2.116-0.511-2.994-0.159-0.878-0.293-1.708-0.295-1.846-0.019-1.143-0.399 0.259-0.674 2.482-1.818 14.645-4.369 19.667-10.24 20.159-5.25 0.438-8.681-3.151-10.335-10.813-0.285-1.317-0.602-2.756-0.705-3.196-0.103-0.438-0.381-1.919-0.62-3.292-0.538-3.104-0.629-3.203-1.069-1.153-1.12 5.224-5.041 14.848-7.746 19.019-5.867 9.035-16.077 7.704-19.696-2.57-1.033-2.93-2.995-11.992-3.704-17.092-0.272-1.96-0.424-2.96-1.912-12.576-0.885-5.725-0.991-6.47-0.991-7.019 0-2.998-1.569 5.77-2.793 15.603-0.09 0.713-0.306 2.42-0.483 3.792s-0.498 4.023-0.713 5.887c-0.215 1.867-0.523 4.384-0.686 5.591-0.523 3.887-0.7 5.273-1.516 11.877-0.442 3.567-0.986 7.702-1.208 9.183-0.224 1.482-0.538 3.768-0.696 5.078-0.765 6.268-1.959 12.104-2.907 14.205-3.713 8.218-16.081 3.664-14.272-5.258 1.549-7.645 3.088-18.296 4.922-34.087 0.433-3.733 1.017-8.495 1.297-10.579 0.608-4.523 0.962-7.285 1.384-10.779 2.55-21.155 7.306-35.277 13.152-39.055 6.23-4.027 13.6-0.189 16.152 8.414 1.263 4.252 3.463 16.103 4.727 25.45 0.222 1.647 0.545 3.848 0.717 4.892 0.172 1.042 0.394 2.435 0.496 3.094 0.494 3.269 0.897 5.254 1.021 5.031 0.18-0.319 1.489-6.034 1.77-7.725 0.12-0.713 0.742-3.992 1.382-7.286 0.642-3.294 1.317-6.797 1.499-7.785 2.688-14.488 5.668-19.642 11.579-20.011 4.847-0.303 7.818 2.411 9.762 8.917 0.8 2.684 0.655 3.023 1.627-3.778 1.552-10.862 2.338-13.804 4.386-16.409 2.332-2.976 6.439-3.975 9.888-2.407" fill="#FBFBFB"/>
<path d="m101.8 47.715c-0.23 0.856-1.051 5.223-1.404 7.478-0.104 0.659-0.233 1.467-0.29 1.796-0.07 0.424-0.044 0.514 0.089 0.306 0.239-0.373 0.251-0.355 0.791 1.157 0.656 1.843 1.982 3.596 2.734 3.621 0.122 3e-3 0.526 0.212 0.899 0.462 0.371 0.251 0.89 0.471 1.151 0.489 0.661 0.046 1.398 0.798 1.503 1.534 0.05 0.339 0.229 1.56 0.398 2.713 0.171 1.153 0.356 2.5 0.41 2.995 0.332 2.952 0.479 4.028 0.722 5.189l0.271 1.297 0.146-1.271c0.08-0.698 0.268-1.417 0.417-1.597 0.148-0.179 0.378-0.58 0.51-0.89 0.538-1.259 1.945-2.571 3.729-3.479 3.347-1.702 9.297 1.092 9.999 4.693 0.069 0.359 0.191 0.691 0.269 0.739 0.179 0.11-0.137-2.441-1.175-9.474-0.445-3.02-0.814-5.624-0.823-5.789-7e-3 -0.203-0.063-0.175-0.164 0.084-0.127 0.328-0.215 0.252-0.581-0.505-0.457-0.942-1.923-2.604-2.226-2.523-0.1 0.027-0.299-0.095-0.443-0.27-1.249-1.506-6.521-1.322-8.297 0.291-1.671 1.514-2.169 2.119-2.514 3.039-0.909 2.446-0.877 2.467-1.502-1.016-0.897-4.985-0.802-4.69-1.907-5.9-1.381-1.506-1.979-2.77-2.076-4.38-0.098-1.612-0.334-1.907-0.636-0.789m-50.306 0.643c-1.29 0.444-3.411 1.657-3.342 1.912 0.02 0.073-0.281 0.627-0.666 1.23-1.872 2.932-1.697 6.365 0.46 9.053 1.25 1.557 3.034 2.441 2.159 1.069-1.16-1.818-1.602-2.701-1.786-3.56-1.239-5.773 3.66-10.586 9.468-9.306 0.455 0.099 0.382 0.028-0.299-0.296-1.365-0.65-4.255-0.7-5.994-0.102m35.593 5.332c-3.747 0.891-7.064 5.181-6.95 8.989 0.081 2.675 1.358 5.251 3.107 6.267l0.65 0.378-0.137-1.032c-0.075-0.568-0.492-1.946-0.927-3.062-2.252-5.778 0.964-11.334 6.562-11.334 0.567 0 1.031-0.089 1.031-0.199 1e-3 -0.232-2.371-0.237-3.336-7e-3m4.435 0.406c0.597 0.256 1.095 0.256 0.698 0-0.164-0.107-0.478-0.189-0.698-0.182l-0.399 0.01 0.399 0.172m-50.642 9.881c-0.184 0.549-0.648 2.21-1.032 3.693-0.744 2.875-0.74 2.602-0.071 5.367 1.241 5.127 7.9 6.91 12.42 3.325 0.911-0.721 1.188-0.49 1.394 1.154 0.304 2.428 0.733 5.243 0.947 6.195l0.23 1.026 0.162-1.053c0.667-4.357 5.449-7.398 9.637-6.128 0.995 0.301 2.299 1.062 2.303 1.342 0 0.083 0.166 0.149 0.368 0.149 0.203 0 0.469 0.226 0.595 0.5 0.125 0.274 0.341 0.499 0.481 0.499 0.139 0 0.459 0.464 0.71 1.031 0.9 2.033 0.865 0.832-0.163-5.53-0.985-6.102-1.146-6.946-1.176-6.2-0.011 0.248-0.288-0.04-0.794-0.821-1.789-2.77-4.942-4.013-8.167-3.221-1.025 0.251-3.576 1.788-3.758 2.264-0.063 0.164-0.196 0.247-0.296 0.186-0.213-0.131-1.114 1.721-1.294 2.66-0.068 0.356-0.185 0.648-0.261 0.648-0.27 0-0.617-0.486-0.635-0.888-0.011-0.267-0.084-0.177-0.209 0.253-0.272 0.948-1.213 1.313-3.366 1.309-4.169-0.01-7.258-2.931-7.571-7.161l-0.118-1.597-0.336 0.998m51.215 14.437c-0.563 0.196-1.237 0.509-1.498 0.696-1.967 1.414-2.259 1.693-2.421 2.314-0.093 0.363-0.226 0.606-0.294 0.538-0.067-0.067-0.293 0.395-0.503 1.027-0.626 1.891-0.57 1.794-0.772 1.348-0.144-0.317-0.161-0.276-0.086 0.199 0.659 4.144 0.508 6.56-0.389 6.217-0.148-0.057-0.367 0.013-0.486 0.156-1.116 1.346-6.952 0.234-7.977-1.521-0.173-0.297-0.461-0.578-0.643-0.623-0.508-0.133-1.579-2.513-1.713-3.807-0.169-1.642-0.373-1.202-0.958 2.074-0.285 1.591-0.687 3.657-0.893 4.591-1.832 8.281 9.567 13.195 13.798 5.947 0.522-0.893 0.963-1.115 1.11-0.559 0.167 0.639 0.396 0.466 0.535-0.405 0.325-2.034 2.236-4.816 3.515-5.118 0.274-0.065 0.693-0.294 0.932-0.509 0.284-0.258 0.572-0.347 0.845-0.261 0.292 0.094 0.562-0.017 0.923-0.38 0.281-0.282 0.59-0.511 0.686-0.511s0.232-0.606 0.301-1.347c0.07-0.742 0.212-1.752 0.316-2.246 0.216-1.023 0.562-3.679 0.727-5.576 0.085-0.995 0.034-1.428-0.233-1.924l-0.344-0.639-1.727-0.019c-1.185-0.013-2.049 0.093-2.751 0.338m48.079 5.447c-1.281 0.213-2.442 0.677-2.442 0.977 0 0.122-0.07 0.178-0.158 0.124-0.188-0.117-0.736 0.19-0.744 0.416-2e-3 0.086-0.295 0.553-0.647 1.036-2.191 2.986-2.423 6.189-0.661 9.173 0.312 0.532 0.631 1.166 0.709 1.411 0.272 0.855 0.315 0.256 0.083-1.149-1.274-7.717 10.27-11.67 13.932-4.772 0.52 0.982 0.563 0.216 0.058-1.07-1.311-3.347-3.988-5.643-7.181-6.157-1.453-0.234-1.485-0.234-2.949 0.011m-44.922 13.208c-0.122 0.573-0.366 1.76-0.542 2.639-0.176 0.878-0.397 1.911-0.493 2.293-1.038 4.229-0.281 7.998 1.912 9.524 0.284 0.197 0.8 0.589 1.147 0.872 1.517 1.229 5.6 1.459 7.105 0.397 0.281-0.196 0.707-0.42 0.942-0.491 0.487-0.151 2.266-1.981 2.266-2.329 0-0.127 0.127-0.182 0.278-0.123 0.349 0.132 1.099-2.75 1.911-7.35 0.943-5.347 0.95-6.046 0.038-4.17-1.374 2.827-4.457 4.487-7.526 4.056-2.957-0.421-5.759-2.679-6.297-5.078-0.324-1.455-0.471-1.502-0.741-0.24m24.481 1.43c-1.761 0.386-4.757 2.636-4.757 3.573 0 0.151-0.169 0.492-0.38 0.761-0.249 0.312-0.451 1.064-0.588 2.17l-0.21 1.691 0.893 2.834c1.051 3.34 1.282 3.632 1.285 1.618 0.01-5.803 6.759-9.894 11.177-6.774 0.274 0.195 0.656 0.409 0.849 0.482 0.422 0.156 0.44 0.7 0.07 2.147-0.789 3.087-0.557 5.503 0.697 7.257 0.429 0.597 0.78 1.18 0.78 1.295 0 0.647 3.495 2.161 5.189 2.247 3.144 0.16 4.592-0.652 4.587-2.574-0.01-2.875-0.571-4.973-1.239-4.615-1.103 0.591-4.888-0.618-6.18-1.974-1.096-1.146-1.959-2.454-1.959-2.963 0-0.251-0.086-0.666-0.188-0.918-0.104-0.251-0.248-0.906-0.322-1.458-0.125-0.913-0.151-0.954-0.336-0.499l-0.198 0.499-0.193-0.545c-1.076-3.052-5.308-5.058-8.977-4.254m-85.463 4.103c-0.077 0.275-0.495 3.599-0.929 7.386-0.435 3.787-0.84 7.201-0.901 7.586-0.085 0.531-0.066 0.604 0.078 0.3l0.189-0.399 0.021 0.399c0.097 1.846 2.529 5.268 4 5.623 0.274 0.067 0.833 0.289 1.239 0.491 0.956 0.48 3.383 0.511 4.25 0.054 0.33-0.17 1.003-0.451 1.498-0.617 0.494-0.165 1.078-0.459 1.297-0.652 0.22-0.191 0.558-0.403 0.749-0.473 0.192-0.066 0.35-0.256 0.35-0.415 0-0.491 1.082-2.111 1.347-2.016 0.138 0.048 0.25-0.067 0.251-0.255 0-0.436 0.854-7.392 1.386-11.322 0.639-4.703 0.523-5.76-0.347-3.194-0.223 0.66-0.467 1.167-0.542 1.127-0.075-0.038-0.375 0.149-0.667 0.415-2.808 2.564-7.042 3.035-9.418 1.05-0.457-0.382-0.909-0.696-1.005-0.696-0.095 0-0.402-0.334-0.682-0.747-0.28-0.412-0.575-0.726-0.656-0.698-0.164 0.057-0.903-1.658-1.185-2.747-0.176-0.675-0.187-0.683-0.323-0.2m34.588 1.466c-0.334 0.172-0.652 0.191-0.99 0.066-2.518-0.931-7.487 2.787-7.88 5.896-0.073 0.58-0.218 1.33-0.323 1.67-0.239 0.771 0.874 4.148 1.954 5.933 0.86 1.421 0.949 1.387 0.424-0.162-1.139-3.362 0.312-7.355 3.286-9.055 1.876-1.07 2.627-1.01 1.82 0.142-0.177 0.251-0.349 0.79-0.382 1.191-0.034 0.406-0.125 1.15-0.201 1.653-0.549 3.588 2.376 7.302 6.487 8.241 1.356 0.308 4.326-0.479 5.563-1.473 0.457-0.365 0.887-0.606 0.958-0.538 0.154 0.155 0.93-1.044 2.042-3.157 0.81-1.536 1.064-2.271 0.574-1.658-5.399 6.744-16.097 0.763-13.244-7.407 0.585-1.673 0.585-1.682-0.088-1.342m56.168 6.931c-4.038 2.113-5.432 6.812-3.19 10.759 0.275 0.483 0.446 0.97 0.383 1.075-0.065 0.104-0.015 0.126 0.114 0.049 0.13-0.08 0.285-5e-3 0.354 0.173 0.284 0.746 3.298 2.323 4.964 2.599 0.77 0.129 0.755 0.111-0.411-0.463-4.088-2.018-5.708-6.617-3.711-10.54 0.696-1.369 2.201-2.926 2.736-2.832 0.269 0.049 0.397-0.098 0.498-0.576 0.226-1.072-0.078-1.112-1.737-0.244m21.089 8.564c-2.49 0.903-3.931 2.529-4.879 5.517-0.315 0.99-0.301 1.174 0.577 7.564 1.043 7.593 1.001 7.443 1.477 5.16 0.118-0.564 0.442-1.362 0.722-1.773s0.514-0.848 0.521-0.97c0.076-1.259 3.688-2.963 6.31-2.974 2.535-0.012 2.948 0.258 2.811 1.824-0.093 1.05-0.086 1.079 0.125 0.427 0.515-1.614 0.852-1.742 1.005-0.383 0.701 6.178 8.548 8.81 12.941 4.336 0.631-0.641 1.151-1.098 1.156-1.014 9e-3 0.132 0.79-1.74 0.79-1.89 0-0.026-0.178-0.05-0.393-0.05-0.697 0-2.838-1.266-3.965-2.345-3.835-3.67-1.585-11.516 3.618-12.609 0.921-0.191 0.515-0.521-0.56-0.452-7.484 0.492-9.391 11.663-2.494 14.638 0.494 0.214 1.054 0.474 1.245 0.577 0.189 0.104 0.639 0.195 0.998 0.197l0.65 0.01-0.599 0.489c-0.582 0.479-1.831 0.92-3.332 1.179-5.157 0.891-9.767-5.377-7.805-10.609 0.113-0.305 0.087-0.319-0.181-0.1-0.376 0.304-0.454 0.067-0.674-2.054-0.09-0.874-0.193-1.253-0.277-1.014-0.115 0.321-0.229 0.222-0.72-0.612-1.848-3.147-5.465-4.37-9.067-3.069m2.929 28.141c-3.039 5.627 0.372 11.777 6.54 11.791 1.043 4e-3 1.333 0.058 1.113 0.214-0.511 0.355 0.575 2e-3 1.791-0.585 1.538-0.742 3.717-2.971 4.648-4.751 0.958-1.834 0.938-1.93-0.169-0.809-2.022 2.054-5.531 2.924-7.987 1.986-1.237-0.474-3.268-1.792-3.431-2.228-0.063-0.176-0.404-0.74-0.757-1.257-0.764-1.119-1.152-2.999-0.959-4.636 0.168-1.416 0.115-1.399-0.789 0.275" fill="#E81382"/>
<path d="m111.38 46.62c-3.645 1.014-6.365 5.209-5.619 8.664 0.106 0.5 0.393 2.031 0.635 3.403 0.636 3.594 0.604 3.57 1.518 1.115 0.345-0.919 0.843-1.524 2.514-3.039 1.776-1.613 7.048-1.797 8.297-0.291 0.145 0.175 0.344 0.297 0.443 0.27 0.303-0.08 1.768 1.579 2.239 2.538l0.446 0.904 0.063-0.671c0.175-1.829-1.102-7.575-2.076-9.335-1.59-2.881-5.299-4.44-8.46-3.558m-64.291 4.531c-3.835 3.957-2.947 10.09 1.814 12.529 1.398 0.716 2.266 0.747 2.108 0.074-0.246-1.051-0.555-1.648-0.801-1.554-0.814 0.312-3.004-2.127-3.617-4.029-0.76-2.351-0.446-4.62 0.923-6.721 0.886-1.357 0.714-1.477-0.427-0.299m10.887 5.916c-4.198 0.59-7.096 4.548-6.375 8.706 0.865 4.988 1.418 6.444 1.762 4.641 0.18-0.939 1.081-2.792 1.294-2.66 0.101 0.061 0.233-0.022 0.296-0.186 0.183-0.476 2.733-2.012 3.758-2.264 3.225-0.792 6.378 0.451 8.167 3.221l0.777 1.202v-0.68c-5e-3 -7.638-4.142-12.758-9.679-11.98m42.134 0.377c-0.342 1.074-0.919 6.489-0.933 8.766-0.035 5.009 2.364 7.615 7.504 8.15 0.22 0.023 0.568-0.044 0.774-0.151 0.268-0.137 0.424-0.115 0.545 0.078 0.138 0.216 0.173 0.218 0.175 9e-3 0-0.144 0.077-0.217 0.165-0.162 0.207 0.127 0.069-2.188-0.176-2.95-0.101-0.319-0.188-0.993-0.189-1.498-4e-3 -0.504-0.088-1.277-0.189-1.716-0.101-0.44-0.271-1.508-0.379-2.375-0.213-1.727-0.708-2.504-1.637-2.569-0.267-0.019-0.79-0.239-1.161-0.49-0.373-0.25-0.777-0.458-0.899-0.462-0.765-0.025-2.113-1.823-2.764-3.691-0.467-1.341-0.645-1.542-0.836-0.939m-20.732 5.784c-1.017 3.434-1.038 5.911-0.06 7.029 0.148 0.169 0.334 0.532 0.414 0.806 0.162 0.558 1.658 2.196 2.005 2.196 0.123 0 0.437 0.227 0.697 0.504 0.261 0.278 0.58 0.464 0.71 0.415 0.129-0.05 0.404 0.023 0.608 0.16 1.081 0.73 1.13 0.668 0.974-1.215-0.08-0.956-0.269-2.147-0.421-2.647-0.152-0.501-0.283-1.136-0.291-1.409-0.015-0.407-0.043-0.434-0.159-0.14-0.131 0.329-0.208 0.31-0.934-0.216-1.65-1.196-2.753-3.512-2.754-5.783 1e-3 -1.886-0.159-1.825-0.789 0.3m11.162 5.319c-5.2 1.885-5.885 4.529-4.008 15.467 0.146 0.845 0.317 0.65 0.797-0.909 0.208-0.678 0.446-1.191 0.527-1.142 0.08 0.051 0.222-0.198 0.315-0.555 0.158-0.614 0.763-1.177 2.542-2.367 1.629-1.091 5.605-1.397 6.101-0.472 0.403 0.753 0.545 0.572 0.686-0.872 0.071-0.741 0.21-1.841 0.308-2.445 0.418-2.589 0.456-4.485 0.103-5.169-0.87-1.677-4.749-2.486-7.371-1.536m-51.505 2.43c-0.205 0.535-0.896 4.092-1.037 5.341-1.12 9.904 12.872 11.722 15.198 1.974 0.556-2.332 0.13-2.923-1.254-1.739-0.449 0.384-0.875 0.699-0.947 0.699-0.071 0-0.633 0.237-1.249 0.529-4.085 1.932-10.132-1.545-10.25-5.894-0.022-0.889-0.277-1.39-0.461-0.91m96.424 15.514c-3.162 3.24-3.51 7.327-0.913 10.796 0.661 0.884 1.452 1.522 1.889 1.522 0.462 0-0.515-2.907-1.308-3.892-1.421-1.765-0.872-5.989 1.117-8.594 0.927-1.216 0.47-1.118-0.785 0.168m-16.816 5.929c-1.528 0.224-2.452 0.746-3.836 2.165-2.367 2.424-2.754 4.732-1.618 9.663 0.533 2.323 0.678 2.412 0.855 0.511 0.073-0.792 0.257-1.578 0.408-1.748 0.15-0.171 0.402-0.623 0.562-1.01 1.912-4.607 9.723-4.911 12.866-0.497 0.649 0.912 0.662 0.595 0.073-1.796-1.114-4.533-2.796-6.501-6.147-7.203-1.456-0.305-1.628-0.31-3.163-0.085m-45.685 1.597c-1.348 3.989-1.38 7.413-0.092 9.369 0.319 0.485 0.58 0.94 0.58 1.016 0 0.3 2.553 2.086 3.487 2.44 1.791 0.675 5.018 0.411 5.823-0.479 0.183-0.201 0.447-0.367 0.583-0.367 1.349 0 3.298-3.143 4.149-6.688 0.641-2.665 0.578-3.135-0.232-1.747-0.779 1.334-1.504 1.969-3.111 2.724-4.726 2.222-9.785-0.516-10.842-5.868-0.162-0.824-0.191-0.856-0.345-0.4m-9.734 4.671c-3.913 1.609-5.573 5.131-4.637 9.828 0.729 3.659 1.072 4.061 1.372 1.622 0.395-3.201 5.348-6.964 7.901-6 1.213 0.457 2.682-1.692 2.55-3.732-0.118-1.828-4.416-2.856-7.186-1.718m30.22 5.68c-1.058 2.578-1.235 3.234-1.233 4.567 6e-3 7.08 8.037 10.378 13.255 5.443 1.399-1.323 3.056-4.59 2.328-4.59-0.103 0-0.239 0.17-0.308 0.378-0.142 0.448-1.985 2.215-2.312 2.215-0.125 0-0.471 0.177-0.772 0.391-1.521 1.082-5.585 0.87-7.144-0.375-0.353-0.283-0.896-0.708-1.209-0.946-1.685-1.284-2.577-3.795-2.262-6.367 0.258-2.119 0.245-2.15-0.343-0.716m51.642 3.667c-0.151 0.148-0.637 0.38-1.075 0.513-1.5 0.457-3.267 2.475-3.999 4.57-0.3 0.861-0.487 1.179-0.551 0.934-0.052-0.204-0.104 0.277-0.119 1.073-0.031 2.035-1.418 2.84-4.613 2.676-1.694-0.086-5.189-1.6-5.189-2.247 0-0.115-0.352-0.698-0.78-1.295-0.909-1.272-1.312-3.039-1.131-4.968 0.065-0.707 0.043-1.04-0.054-0.812-0.126 0.297-0.511 0.447-1.609 0.633-5.396 0.911-8.211 6.264-5.875 11.176 0.452 0.952 2.661 3.364 2.661 2.909 0-0.115-0.083-0.261-0.183-0.323-1.87-1.155-2.289-6.323-0.729-8.987 1.385-2.36 5.353-4.514 4.909-2.664-0.99 4.141-0.992 4.604-0.015 6.689 2.266 4.845 8 5.994 12.12 2.43 1.128-0.978 1.106-1.007 1.546 2.023 0.543 3.724 0.526 3.676 0.91 2.496 0.623-1.913 1.028-2.604 2.16-3.675 3.584-3.391 9.278-2.678 11.716 1.464 0.457 0.778 0.611 0.923 0.671 0.625 0.15-0.782-0.886-8.66-1.299-9.837-1.02-2.924-2.918-4.852-5.277-5.36-1.402-0.302-3.904-0.328-4.195-0.043m-78.704 1.8c-5.507 8.273 6.206 16.65 12.538 8.968 1.146-1.395 0.933-1.639-0.461-0.53-1.805 1.435-4.58 1.77-7.008 0.838-3.428-1.31-5.803-5.535-4.774-8.486 0.341-0.979 0.158-1.472-0.295-0.79m-34.03 8.673c-1.691 7.41-1.402 12.746 0.814 14.987 4.709 4.755 11.758 2.638 13.123-3.945 0.557-2.688 1.34-9.785 1.078-9.775-0.229 0.01-1.268 1.738-1.268 2.109 0 0.159-0.158 0.349-0.35 0.415-0.191 0.069-0.529 0.281-0.749 0.473-0.219 0.193-0.803 0.487-1.297 0.652-0.495 0.166-1.168 0.447-1.498 0.617-0.867 0.457-3.293 0.427-4.25-0.054-0.407-0.202-0.965-0.424-1.239-0.491-0.546-0.132-2.609-1.979-2.958-2.646-0.119-0.231-0.436-1.069-0.702-1.861l-0.486-1.442-0.218 0.961m141.32-0.109c-1.502 0.188-3.918 1.443-4.534 2.356-0.264 0.39-0.749 1.063-1.081 1.495-4.511 5.881 2.785 14.241 9.643 11.047 8.108-3.775 4.806-15.993-4.028-14.898m-8.405 1.834c-7.008 2.349-7.008 12.597 0 14.664 1.988 0.585 2.554 0.426 0.8-0.226-6.031-2.242-6.092-10.98-0.098-13.999 1.486-0.746 1.047-1.024-0.702-0.439m-11.002 12.987c-2.143 2.854-0.745 8.919 2.442 10.602 2.228 1.18 2.214 1.176 3.956 1.188 3.866 0.027 6.523-2.075 7.777-6.148 0.58-1.877 0.571-1.886-0.726-0.568-4.365 4.443-11.918 1.999-12.912-4.179-0.206-1.287-0.223-1.314-0.537-0.895m-5.386 13.147c-4.135 4.129-3.005 10.464 2.316 12.954 1.621 0.759 3.984 0.996 5.091 0.51l0.699-0.308-1.411-0.016c-6.255-0.072-9.602-6.22-6.48-11.905 1.117-2.035 1.039-2.484-0.215-1.235" fill="#1D24F8"/>
<path d="m108.45 39.416c-2.75 0.775-5.183 3.394-6.155 6.628-0.139 0.458-0.182 0.908-0.098 0.999 0.085 0.091 0.19 0.749 0.234 1.463 0.097 1.585 0.698 2.875 1.995 4.279l0.934 1.011-0.179-0.824c-0.1-0.452-0.466-1.664-0.812-2.694-2.226-6.633 3.934-12.494 10.267-9.771 1.805 0.775 1.413 0.216-0.438-0.625-1.619-0.736-4.085-0.935-5.748-0.466m-54.662 9.366c-5.334 1.721-7.357 7.528-4.19 12.034 0.533 0.758 0.537 0.76 0.411 0.167-1.654-7.818 5.431-13.127 11.747-8.803 1.24 0.849 1.34 0.887 1.01 0.38-1.092-1.669-3.96-3.967-4.632-3.709-0.175 0.066-0.269 0.04-0.208-0.061 0.177-0.291-3.239-0.298-4.138-8e-3m36.63 4.941c0 0.096-0.464 0.172-1.031 0.172-5.583 0-8.83 5.583-6.565 11.289l0.789 1.986-0.024-1.198c-0.067-3.215 1.436-5.767 4.232-7.185 1.122-0.568 4.182-0.926 4.644-0.542 0.144 0.119 0.723 0.277 1.287 0.353 0.747 0.098 1.218 0.307 1.727 0.761 0.386 0.344 0.82 0.731 0.965 0.859 0.146 0.128 0.529 0.6 0.852 1.048 0.772 1.071 0.955 1.029 0.582-0.133-1.147-3.579-3.773-6.807-5.651-6.946-0.884-0.065-1.022-0.105-0.922-0.268 0.06-0.096-0.114-0.219-0.387-0.272-0.275-0.052-0.498-0.018-0.498 0.076m-47.908 5.22c0 0.043-0.279 0.879-0.621 1.857-2.169 6.22 2.438 12.121 8.482 10.867 1.564-0.326 2.003-0.784 1.847-1.928-0.216-1.575-0.602-2.069-1.613-2.069-4.214 0-7.707-3.355-7.749-7.443-6e-3 -0.636-0.087-1.204-0.179-1.26-0.092-0.058-0.167-0.069-0.167-0.024m72.46 10.305c-0.95 0.136-0.974 0.146-2.432 1.072-0.997 0.633-2.003 1.754-2.396 2.674-0.132 0.31-0.359 0.708-0.506 0.884-0.406 0.491-0.633 2.885-0.432 4.571 0.098 0.824 0.358 2.856 0.578 4.517 0.595 4.526 0.44 5.774-0.664 5.351-0.222-0.085-0.447 0.083-0.729 0.544-0.222 0.367-0.405 0.588-0.405 0.493 0-0.096-0.149-0.051-0.331 0.1-1.111 0.922-6.143 0.09-7.466-1.235-0.194-0.193-0.52-0.384-0.72-0.421-0.215-0.041-0.46-0.361-0.59-0.768-0.12-0.382-0.396-0.777-0.608-0.875-0.496-0.229-0.886-1.444-1.018-3.169-0.131-1.724-0.214-1.619-0.454 0.577-0.106 0.976-0.279 2.178-0.382 2.673-0.103 0.494-0.246 1.504-0.315 2.246-0.069 0.741-0.205 1.347-0.301 1.347s-0.405 0.229-0.686 0.511c-0.362 0.363-0.631 0.474-0.923 0.38-0.272-0.085-0.561 3e-3 -0.845 0.261-0.239 0.215-0.658 0.444-0.932 0.509-1.279 0.301-3.19 3.083-3.515 5.118-0.071 0.443-0.214 0.806-0.317 0.806s-0.141 0.157-0.083 0.349c0.059 0.193 0.292 1.383 0.516 2.646 0.225 1.264 0.568 3.058 0.763 3.987l0.354 1.69 0.226-1.455c0.307-1.983 1.094-3.458 2.509-4.703 1.337-1.177 1.406-1.185 1.551-0.176 0.109 0.752 0.11 0.751 0.352-0.442 0.756-3.726 0.812-3.816 1.218-1.999 0.191 0.851 0.482 1.381 1.24 2.255 3.695 4.259 10 3.728 12.484-1.055 0.287-0.548 0.603-1.051 0.704-1.116 0.285-0.184 0.811-4.365 0.675-5.373-0.502-3.702-0.516-3.93-0.293-5.189 0.754-4.318 6.447-7.484 10.103-5.619 0.462 0.235 1.018 0.429 1.233 0.429 0.603 0 2.789 2.524 3.067 3.542 0.287 1.05 0.649 1.127 0.471 0.1-0.07-0.411-0.4-2.814-0.73-5.339-0.334-2.525-0.685-4.771-0.78-4.991-0.097-0.219-0.263-0.674-0.368-1.011-1.076-3.415-4.611-5.297-8.823-4.696m-38.513 6.851c-0.03 0.326-1.436 7.46-1.517 7.7-0.049 0.143-0.013 0.213 0.081 0.155s0.223 0.401 0.286 1.02c0.133 1.279 1.208 3.659 1.712 3.792 0.181 0.045 0.469 0.326 0.643 0.623 1.024 1.754 6.86 2.866 7.977 1.521 0.119-0.144 0.338-0.213 0.486-0.156 0.887 0.34 1.071-1.734 0.482-5.417-0.329-2.059-0.364-2.147-0.781-2.039-1.264 0.331-4.91-0.555-5.872-1.426-1.849-1.677-2.324-2.326-2.726-3.721-0.405-1.416-0.746-2.319-0.771-2.052m-15.882 1.43c-2.856 0.696-5.187 3.288-5.672 6.305-0.208 1.285-0.121 2.126 0.783 7.689 0.214 1.318 0.419 2.665 0.456 2.994 0.077 0.695 0.187 0.472 0.537-1.097 0.227-1.011 1.592-3.413 2.241-3.938 3.867-3.138 9.494-2.114 11.85 2.154 0.633 1.147 0.698 1.21 0.603 0.587-0.059-0.385-0.2-1.453-0.317-2.373-0.117-0.922-0.253-1.743-0.304-1.826-0.051-0.082-0.228-1.215-0.392-2.518-0.417-3.297-0.496-3.691-0.714-3.557-0.105 0.065-0.393-0.337-0.639-0.893s-0.562-1.011-0.701-1.011c-0.14 0-0.357-0.225-0.481-0.499-0.125-0.274-0.392-0.5-0.595-0.5-0.202 0-0.367-0.067-0.368-0.149-0.01-1.078-3.957-1.938-6.287-1.368m81.344 10.076c-5.332 1.776-7.054 6.927-4.438 13.261l0.315 0.759 0.355-1.158c2.032-6.621 12.189-6.89 14.34-0.379 0.43 1.303 0.432 0.637 4e-3 -1.401-0.938-4.475-1.64-7.259-1.804-7.157-0.095 0.059-0.314-0.165-0.485-0.496-1.3-2.514-5.642-4.311-8.287-3.429m-106.08 2.767c-0.062 0.195-0.243 1.431-0.406 2.749-0.161 1.317-0.48 3.787-0.707 5.489-0.372 2.791-0.384 3.202-0.128 4.19 0.359 1.389 1.094 3.091 1.261 2.925 0.07-0.069 0.341 0.188 0.602 0.569 0.261 0.385 0.552 0.698 0.647 0.698 0.096 0 0.548 0.314 1.005 0.696 2.377 1.985 6.611 1.515 9.418-1.05 0.291-0.266 0.605-0.493 0.699-0.507 0.092-0.014 0.336-0.522 0.542-1.129 0.426-1.258 0.712-1.675 0.75-1.094 0.026 0.415 0.375-2.228 0.753-5.699 0.125-1.152 0.31-2.5 0.41-2.994 0.547-2.692 0.34-3.993-0.372-2.345-0.525 1.21-2.618 3.143-3.405 3.143-0.123 0-0.574 0.18-1.005 0.399-0.562 0.288-1.176 0.399-2.189 0.399-1.023 0-1.608-0.108-2.151-0.399-0.41-0.219-0.891-0.399-1.071-0.399-1.272 0-4.171-3.582-4.171-5.156-1e-3 -0.693-0.316-1.011-0.482-0.485m94.673 7.339c-1.348 5.024-1.315 4.609-0.612 7.83 0.565 2.58 4.026 5.131 6.927 5.104 2.003-0.02 1.962 6e-3 1.806-1.04-0.074-0.503-0.208-1.454-0.296-2.114-0.263-1.96-0.628-2.612-1.536-2.76-1.61-0.262-3.751-1.761-4.755-3.327-0.457-0.715-0.771-1.843-1.054-3.792l-0.158-1.099-0.322 1.198m-60.877 6.097c-1.385 2.123-1.545 5.367-0.378 7.654 2.61 5.108 8.752 5.709 13.047 1.274 0.291-0.301 1.925-3.771 1.925-4.09 0-0.042-0.494 0.425-1.098 1.033s-1.215 1.107-1.357 1.107-0.362 0.102-0.488 0.226c-0.492 0.495-2.352 0.972-3.783 0.972-4.005 0-7.172-3.015-7.44-7.082-0.104-1.544-0.116-1.576-0.428-1.094m52.377-0.206c-4.897 0.717-7.5 6.382-5.243 11.422 0.797 1.782 1.314 2.596 0.782 1.231-0.396-1.018-0.064-3.93 0.6-5.244 1.738-3.433 5.648-5.254 8.907-4.146 1.136 0.389 1.028 0.463 1.199-0.818 0.118-0.908 0.09-1.058-0.237-1.175-0.205-0.074-0.529-0.266-0.719-0.428-0.436-0.375-2.854-1.051-3.644-1.018-0.331 0.011-1.072 0.092-1.645 0.176m-56.342 4.635c-3.179 1.638-4.765 5.541-3.681 9.055 0.2 0.648 0.37 1.27 0.376 1.381 0.044 0.707 2.545 2.903 4.218 3.702 1.677 0.8 1.814 0.736 0.378-0.176-3.749-2.385-4.904-7.118-2.612-10.702 0.61-0.951 1.947-2.309 2.276-2.309 0.184 0 0.834-1.075 0.834-1.375 1e-3 -0.368-0.48-0.252-1.789 0.424m59.244 4.495c-5.242 5.397-0.216 14.809 6.92 12.959l0.994-0.26-1.661-0.233c-4.037-0.569-6.462-3.047-6.936-7.076-0.209-1.783 0.625-4.455 1.694-5.421 0.232-0.21 0.421-0.503 0.421-0.649 1e-3 -0.509-0.518-0.265-1.432 0.68m42.652 8.165c-4.44 2.271-5.669 8.836-2.26 12.097 1.786 1.71 4.575 2.905 5.702 2.444 0.266-0.107 0.071-0.249-0.805-0.583-6.151-2.342-7.182-10.923-1.663-13.874 1.319-0.706 0.4-0.786-0.974-0.084m-8.715 2.813c-3.684 3.871-2.847 10.032 1.679 12.347 1.27 0.647 3.386 1.122 4.305 0.966 1.528-0.265 2.753-0.704 3.332-1.196l0.599-0.51-0.697 0.126c-7.852 1.407-12.703-5.679-8.376-12.231 0.617-0.934 0.401-0.804-0.842 0.498m-9.647 8.426c-1.952 0.558-2.464 0.809-3.51 1.709-0.635 0.548-1.161 1.095-1.168 1.217-8e-3 0.122-0.241 0.559-0.521 0.97-0.279 0.411-0.602 1.209-0.718 1.773-0.116 0.563-0.281 1.172-0.373 1.344-0.16 0.314 1.167 8.201 1.421 8.458 0.068 0.066 0.185-0.421 0.261-1.083 0.077-0.69 0.324-1.507 0.576-1.908 0.239-0.387 0.616-0.987 0.837-1.331 0.593-0.934 3.073-2.755 3.751-2.755 1.468 0 2.107-0.74 3.035-3.494 0.993-2.947 1.116-4.141 0.477-4.558-0.565-0.368-3.209-0.589-4.068-0.342m-120.32 9.341c-0.053 0.413-0.259 1.536-0.459 2.498-1.063 5.118 2.262 9.406 7.301 9.421 4.726 0.016 7.162-2.562 8.274-8.754l0.139-0.774-0.798 0.92c-0.439 0.507-0.855 1.104-0.926 1.325-0.071 0.222-0.245 0.405-0.387 0.405-0.141 0-0.607 0.237-1.035 0.526-1.956 1.331-5.115 1.591-6.901 0.57-0.473-0.271-0.999-0.494-1.167-0.496-1.003-7e-3 -3.337-3.519-3.541-5.326-0.127-1.119-0.375-1.275-0.5-0.315m121.75 3.121c-1.174 2.433-1.108 5.615 0.152 7.465 0.354 0.517 0.696 1.085 0.76 1.261 0.163 0.436 2.193 1.754 3.431 2.228 2.465 0.941 5.867 0.092 8.014-1.998 1.122-1.094 1.277-1.385 2.208-4.126 0.781-2.299 0.76-2.473-0.143-1.212-2.259 3.14-6.863 3.959-10.214 1.816-1.666-1.067-3.142-3.083-3.142-4.299 0-0.183-0.082-0.419-0.185-0.521-0.104-0.105-0.215-0.551-0.25-0.989l-0.062-0.799-0.569 1.174" fill="#DADC08"/>
</svg>
