<?xml version="1.0" encoding="UTF-8"?>
<svg version="1.1" viewBox="0 0 400 400" xmlns="http://www.w3.org/2000/svg" xmlns:cc="http://creativecommons.org/ns#" xmlns:dc="http://purl.org/dc/elements/1.1/" xmlns:rdf="http://www.w3.org/1999/02/22-rdf-syntax-ns#">
<g transform="matrix(1.0026 0 0 1.0402 4.135 -3.5595)" fill-rule="evenodd">
<path d="m220.75 3.4219c-18.143 14.207-16.326 47.127-41.839 52.874-26.788 5.3779-53.327 21.009-81.21 14.359-12.345-4.4861-35.116-36.83-41.756-11.893 5.9328 20.784 24.05 38.105 15.163 61.834-3.8165 35.095-16.646 68.544-18.843 103.93-3.9175 35.192-7.3914 72.231-26.754 102.81-15.778 11.45-38.958 32.732-25.687 53.788 19.284 17.23 45.718-1.8865 60.8-16.452 18.752-19.208 22.405-47.369 22.131-73.093 3.4401-23.182 15.965-44.573 14.096-68.581 11.147-21.246 13.899 21.651 20.758 20.343 13.493 29.555 47.307 73.216 67.192 112.11 16.642 20.775 58.05 10.644 59.18-17.505 5.8772-38.685 5.0931-77.931 7.2616-116.91-9.4023-10.586 4.8322-46.069 12.183-18.974 11.8 23.118 26.143 45.877 29.836 72.117 13.404 31.867 48.182 53.592 82.211 51.762 21.811-6.6262 16.631-38.675-0.0221-48.448-24.019-10.11-51.342-22.961-60.182-50.003-21.293-46.078-35.5-96.19-67.153-136.69-16.286-17.465-22.252-41.097-18.153-64.388 0.0678-7.9372 0.90458-20.934-9.2149-22.995zm-5.9144 22.084c10.717-11.512-3.4273-14.182 0 0zm10.54 0.24077c4.0146 2.966-4.7295 1.5834 0 0zm-20.232 19.024c-0.78212-18.726 18.712-7.3376 0 0zm11.147-1.5939-0.20785 0.24869zm2.1694 8.1495c5.0996 9.3708-9.4807 8.9615 0 0zm-22.043 8.2673c2.9477 12.647-31.23 14.48-12.044 25.349-1.0804 12.658 10.847 30.959 20.534 14.001 8.7177-2.4334 2.699 26.395 2.1179 35.043-4.6883 14.688 1.187 34.653-6.5278 44.458 6.9308 22.483 6.4277 48.342 19.023 69.323-1.5642 21.468 4.8452 40.569 17.613 56.745 0.65635 20.035-2.0945 49.198-24.939 52.63-24.44 0.93435-29.89-27.563-37.924-45.893-1.032-13.151 4.301-21.545-9.3674-30.695-10.972-15.711 3.915-33.09-2.1534-53.164-7.7745-16.371-24.511-42.63-28.198-69.262-9.9456-17.773-17.735-38.233-16.476-57.6 2.0358-10.53-7.1329-19.477 9.3949-21.141 23.704-3.6882 46.159-12.436 68.947-19.792zm28.04 5.236c13.198 3.709-2.9749 29.599-8.9496 14.74 12.91 4.613 1.8344-11.44 8.9496-14.74zm-136.44 3.6909c1.3796 1.4184-1.2869 0.20622 0 0zm57.894 2.2401-0.63412 0.96668zm-9.1264 8.9643c-19.886 5.5925 17.874 23.085 5.784 5.4596-1.5194-1.952-2.8381-5.2261-5.784-5.4596zm-38.815 1.2212c-22.016 8.3396 20.646 34.77-8.0504 37.065-17.03 17.94-12.087-25.722-5.7376-34.288 3.4838-3.7872 9.146-3.9867 13.788-2.777zm144.01 20.296c14.295 20.395 0.87844 45.069-8.57 64.365-5.0352 8.3103-7.9401 43.839-9.82 16.104 1.63-25.115-10.102-55.961 5.4198-77.322 3.5999-2.8608 8.4529-4.2609 12.97-3.1466zm-148.35 35.637c19.708 16.729 41.344 37.432 41.235 65.443-8.812-15.608-22.755-27.298-34.372-40.999-4.021-6.3056-11.586-17.488-6.8629-24.444zm162.13 3.0686c4.1936 12.531-21.059 35.193 2.4699 37.268-25.246-1.2352-19.225 32.978-26.917 47.237 0.59653-29.748 9.5918-58.903 24.447-84.505zm12.552 19.533c14.566 3.6165 15.814 41.231 12.939 38.817 0.62649-14.402-14.146-24.306-12.939-38.817zm-178.95 11.623c24.344 10.039 32.144 37.863 49.451 55.579 4.1502 8.687 17.355 39.054 1.7829 16.271-17.862-11.754-23.781-34.223-35.373-48.338-13.749-2.2672-28.002-6.6383-15.861-23.512zm31.075 17.612c1.3895 0.95822-1.3467 0.38946 0 0zm-17.924 6.3963c4.8171 3.4392-4.9167 0.15327 0 0zm-20.076 27.225c2.0897 8.9279-7.2729 17.112-2.2747 3.799 0.10741 1.5587 2.173-8.8895 2.2747-3.799zm-21.824 8.9486c16.679 2.4165-7.7087 14.612 0 0zm254.52 60.655c8.5749 5.6833 30.034 22.665 8.6767 8.06-3.0953-2.4511-6.0151-5.1334-8.6767-8.06z" fill="#dca185"/>
<path d="m223.6 6.8887c-12.908 7.5232-4.5962 40.093-24.673 38.195-16.021 10.874-37.724 10.334-55.562 18.768-14.578 6.9487-39.203 5.2172-50.325 3.0206-12.738 2.0022-20.407-15.204-33.21-12.427-4.4526 16.371 20.527 23.548 13.671 41.479-3.9902 22.653 3.2548 45.665 4.6186 68.354 0.46142 14.394 0.52045 33.339 12.287 39.809-6.2756 13.372-3.7576 35.457-7.6703 41.067-6.668 2.3529 4.4782 22.351-3.0032 9.6226-1.9831-18.483 6.1654-40.124-4.5421-55.906-1.8838-7.6262-7.2436-30.533-14.776-13.077-6.5163 27.232-7.5435 55.331-9.0507 83.187-7.6395 14.508 5.3757 32.654-7.8192 43.158-2.0634 8.8527 0.09664 10.688-7.4823 15.663-3.0985 13.729 19.438 8.4474 11.015-3.0202 16.922 0.49239 0.29481-29.027 16.605-20.355-0.68164 16.719 1.4723 32.022-12.694 46.955-7.3964 4.0626-12.514 2.3352-19.319 7.9677-2.2838 9.4788-23.687 11.974-24.677-2.6524-20.987-4.8456-9.1099 37.481 9.5545 30.468 29.84-1.7302 56.376-24.75 65.38-53.115 2.3047-15.335 7.0667-36.286 6.5794-54.968-4.4266-16.998 12.827-22.327 11.137-39.229 3.7739-8.9542 2.311-35.956 6.3717-36.451 2.2631 17.039 14.435 30.913 19.229 47.275 12.489 0.75681 2.7011 8.8093 9.7733 17.556 0.35431 15.907 19.056 18.843 24.473 14.645-20.025 13.933 11.948 30.581 13.53 46.401 7.1567 20.756 27.197 42.666 50.97 35.465 24.243-6.3944 26.916-35.523 27.363-56.599-2.0154-14.69 9.612-44.123-4.904-48.727-7.6142 7.6713-14.595-6.5259-3.9825-9.0947 1.1189-17.292 2.2541-35.264 9.2452-51.614 1.8183-12.98 8.285-19.254 13.82-3.6778 4.3974 3.037-0.27338 16.76 9.9969 13.517-3.8129 18.012 19.071 26.27 14.587 45.518 3.5936 25.965 20.997 47.619 43.599 59.737 15.942 7.9915 35.547 15.943 53.098 9.1744 14.977-6.5061 6.915-38.52-7.0774-17.926-22.031 4.1304-40.994-12.014-57.063-24.949-8.9782-10.223-19.238-26.978-12.279-40.004-7.338 16.294 21.712 21.714 13.268 3.4028-13.224-9.1322-9.9096-27.763-16.565-42.372-7.5759-19.496-10.59-42.705-26.532-57.614-10.762 4.1837 2.7715 27.62 4.2431 38.716 1.0796 7.7572 4.7026 27.978 0.1495 27.542-13.555 1.4577-2.3301-10.817-6.3118-18.217 2.0955-17.842-16.123-27.049-8.0804-44.308-4.4811-10.616-4.5-39.594-5.8652-37.427-4.775-4.3235-10.84-23.348-20.342-24.328 3.4524-19.254-29.32-43.381-14.401-59.076 2.0127-4.2566-1.2408-20.219-6.3572-19.528zm-52.582 62.24c-0.39517 9.9279 6.8307 15.704 11.066 19.399-5.9736 16.793 10.539 27.033 25.311 20.944-1.3298 12.713 6.3056 34.502-7.9021 39.557-4.5467 13.68 0.92182 29.83 1.6835 45.154-2.4669 21.964 15.149 38.816 10.355 59.975 0.58996 20.876 12.997 36.836 23.054 56.082-1.782 20.448-3.8915 32.58-23.646 28.741-7.3784 6.3981-4.1652 14.435-15.004 4.7997-1.5864-5.6782-1.858-14.544-10.171-16.23 6.6009-11.943-12.587-23.895-1.768-37.89 3.5365-26.023-9.0078-50.523-10.784-76.232 0.41491-19.83-9.6345-35.968-24.489-45.688-2.2286-15.275-16.739-26.479-17.277-43.619 27.185-0.32064-17.013-35.247 9.4404-29.072 15.731 4.3215 16.02-12.862 6.9726-17.686 8.3325-0.92887 15.406-5.1634 23.158-8.2348zm68.873 21.215c8.9163 15.477 19.648 35.542 5.6279 50.81-11.141 20.47-15.536 42.14-20.296 64.276-1.4735 8.1895-1.3106 17.545-3.8948 4.3848 1.4884-15.06 4.7966-27.152 1.7703-43.956 1.8548-14.915-4.5992-29.047-2.886-45.696 2.6655-15.936 0.82851-29.495 19.679-29.819zm-105.69 23.151c1.3454 5.4212-5.5746 0.83498 0 0zm-34.712 8.5559c5.3353 8.6184 18.206 1.1438 17.977 14.973 10.266 15.802 13.277 34.668 20.163 51.526 0.61871 9.0144 14.452 24.858 11.035 29.302-11.549-19.818-26.371-37.56-42.165-53.984-12.735-5.9748-15.996-28.909-8.9098-41.574zm-29.724 42.291c-18.65 7.1836 13.027 21.377 4.5224 1.7866l-1.9876-1.3449zm25.274 7.2229c4.5158 5.2806-6.9326 13.457 0 0zm59.086 11.043c1.3633 2.4537-2.2168-0.11963 0 0zm115.46 0.7539c3.0424 2.8596-4.2046 2.0403 0 0zm-119.02 37.681c7.1705 3.8293 9.0872 21.986 3.0778 5.5186l-1.5282-2.8021zm144.35 25.766c3.7569 2.3487-2.7948 4.1242 0 0zm-56.792 22.424c2.871 7.9647-8.185-0.92111 0 0zm2.2665 17.524c2.6171 2.6816-4.0772 0.2838 0 0zm-0.20799 3.1236c2.5874 6.2623-7.4276-0.77273 0 0zm-211.87 36.069c-20.909 2.5986-13.354 33.614 3.0214 12.539 4.149-3.7139 4.5453-13.067-3.0214-12.539zm-24.434 34.471c3.9503 4.1543-5.9832 0.39715 0 0z" fill="#c2926b"/>
<path d="m216.07 53.898c-2.531 5.6769 4.5082 1.6917 0 0zm-40.538 14.45c-14.958 6.2896-38.536 3.3941-43.449 22.529-8.7909-0.80728-16.645-8.0246-9.1021 4.4178-3.7318 5.5088-14.044-18.393-15.143 0.10598 8.7556 6.5636 31.661 36.183 6.6757 29.503-20.242-4.5869 13.862 11.11 6.625 22.621 8.511 15.05 15.829 37.067 23.787 41.526-0.75789 10.66 7.1329 18.281 11.459 10.741 3.9884 27.365 7.6797 54.922 15.357 81.562-5.8172 19.909-1.0548 39.892 1.775 58.014 5.5145 20.863 39.103 37.467 52.313 14.628 2.9924-2.3158 6.7702-12.434-0.63489-5.5013 7.5222-18.828 2.2351-39.229-2.8359-60.123-14.913-15.849-9.2614-37.747-15.804-56.199-8.1443-17.055-9.9907-40.155-7.2382-59.302 7.9171-21.065 9.5463-44.633 5.2208-66.495-3.0519 1.684-26.693 13.895-22.629-4.0299 9.2874-13.288-6.2046-21.537-9.5567-17.361 6.0225-7.7854 21.817-14.302 3.1796-16.636zm-117.01 2.3009c-0.09813 11.225 9.809-0.82815 0 0zm117.21 0.96901c-1.6026 19.046-13.619-2.9033 0 0zm-107.38 4.6269c-4.6001 14.865 22.26 23.092 17.67 10.325-6.4828-3.6495-15.569 1.1972-17.67-10.325zm150.2 4.4058c-16.76 5.7437 15.634 2.1815 0 0zm-81.212 11.68c11.134 9.857-21.562 0.9813 0 0zm-20.511 1.8767c-3.2051 3.457-1.4607-3.7285 0 0zm-35.585 5.8774c-3.9405 13.472 26.176 7.2723 3.7395 5.6995-1.9814-2.2312 2.3892-8.4565-3.7395-5.6995zm23.756 4.2721c0.30064 14.066 12.444 7.0463 0 0zm-11.069 2.3532c-1.1482 1.5995-0.54516-1.5494 0 0zm103.72 1.5088c-4.9253 2.3316 3.3945 0.29707 0 0zm-117.97 2.3712c-13.098 18.498 41.644 8.4072 10.652 3.7344-3.7153-0.38509-8.0168-0.62182-10.652-3.7344zm11.53 5.7718c4e-3 3.4246-4.241-2.1834 0 0zm23.507 2.7542c2.0976 11.501 11.447 0.54159 0 0zm9.9426 3.2438c0.86843 3.596 3.1956-1.3367 0 0zm-47.048 1.347c-14.848 18.029 9.8023 3.6466 0 0zm-2.0343 13.9c-3.6813 9.0566 3.5489 32.572 3.1992 10.168 1.1795-3.4662 2.7595-10.47-3.1992-10.168zm173.19 4.0037c-5.6353 6.7744-11.121 37.237 0.96777 17.694 1.9196-4.9513 12.518-20.938-0.96777-17.694zm-46.739 9.127c-7.8274 14.296 2.0474-17.539 0.0438-0.43366zm-3.4488 10.452c2.0864 10.555-8.6436 2.1172 0 0zm-112.45 12.292c-16.76 15.312 8.4601 29.602 21.574 27.647 4.9231 18.472 23.171 30.949 30.09 50.187 5.2163 13.404 13.278 9.8729 8.2326-3.1752-9.8743-18.666-20.632-37.491-34.566-53.432-4.3714-11.046-23.366-3.6422-15.503-12.901-1.9153-3.9709-5.794-6.8349-9.827-8.326zm149.01 2.9181c-9.1367 15.4-12.482 45.16-9.1661 56.144 6.3813-16.233 12.621-37.667 14.021-52.804l-1.9557-1.1797zm14.714 0.30859c-3.6158 13.633 19.975 12.076 3.5887 1.2861l-1.6641-1.0116zm-161.94 43.898c-5.3908 6.7907 3.9502 10.201 0 0zm198.87 25.789c1.0636 27.451 14.485 54.731 39.105 67.848 13.487 7.7287 45.654 22.842 52.876 4.4193-11.815 9.8365-30.377 1.785-43.072-4.037-19.503-10.926-39.471-26.5-43.064-50.283-1.6412-6.074-3.1939-12.222-5.8455-17.947zm-134.18 54.013c1.83 16.557 18.764 6.0371 0 0zm-80.488 5.5899c-4.8444 11.664 4.627 13.803 0 0zm-1.471 18.426c-7.8999 29.194-30.356 58.933-62.382 61.005-5.9851-1.4192-17.406-14.551-9.9239-1.1037 22.776 11.846 46.312-7.6835 60.334-24.636 7.759-9.8585 13.59-22.387 11.972-35.265zm163.22 12.443c-8.0522 7.4882 4.3633 7.6698 0 0z" fill="#5b4d5c"/>
</g>
<path d="m232.76 81.987c-3.0532-7.2415-4.6343-12.566-5.2962-17.836-0.65787-5.2371-0.26089-10.245 1.1882-14.989 0.32028-1.0486 0.32287-1.0586 0.45198-1.7478 0.0628-0.33498 0.29981-1.2526 0.52679-2.0392 0.22698-0.78658 0.59511-2.0618 0.81806-2.8337 0.85893-2.974 1.1656-4.4741 1.229-6.0117 0.0833-2.0205-0.45376-2.9937-1.7832-3.2314l-0.18669-0.03337-0.54989 1.394c-1.8876 4.7851-5.1338 11.686-8.9276 18.979-1.8475 3.5514-1.8953 3.6371-2.0135 3.6095-1.3132-0.30619-2.0869-0.383-2.5518-0.25333-0.13248 0.03695-0.27807 0.12925-0.3629 0.23007-0.12906 0.15338-0.13987 0.20028-0.12141 0.52687 0.0397 0.70291 0.63328 1.6572 2.5052 4.0275 1.7646 2.2346 2.1645 2.846 2.17 3.3184 2e-3 0.20413-0.0174 0.25188-0.1296 0.31245-0.40248 0.21732-1.6794-0.16915-3.9105-1.1835l-0.97088-0.44141-0.20126 0.12705c-0.54363 0.34318-1.969 0.82636-3.7362 1.2665-4.7034 1.1715-9.2608 1.5237-10.837 0.83759-1.4751-0.64214-0.70676-2.1402 2.23-4.3476 0.45153-0.33939 1.0312-0.75916 1.2881-0.93283s0.44312-0.32374 0.41382-0.33351c-0.0293-0.0098-0.19182 0.0085-0.36116 0.04049-0.50357 0.09527-1.4973 0.12823-1.7536 0.05815-0.46867-0.12813-0.3962-0.4557 0.23665-1.0697 0.919-0.89163 2.3936-1.9018 7.1412-4.8923 3.2793-2.0655 4.3955-2.7797 5.6038-3.5849l1.1017-0.73424 0.13451 0.15985c0.0939 0.11155 0.1819 0.15985 0.29133 0.15985 0.42982 0 0.88287-0.52674 0.82489-0.95905l-0.0269-0.20028 0.66988-0.4883c1.7556-1.2797 3.3754-2.7369 3.8763-3.4872 0.66873-1.0016 0.5538-1.6758-0.35412-2.0774-0.97508-0.43133-3.707-0.48101-6.7666-0.12306-0.35244 0.04123-0.78381 0.08902-0.95859 0.10621l-0.3178 0.03124 0.462-0.18556c1.5981-0.64183 3.7728-1.7126 6.0238-2.9659 0.45013-0.25062 0.8234-0.45568 0.82949-0.45568 6e-3 0 0.0633 0.10791 0.12717 0.23979 0.11774 0.24323 0.32164 0.3958 0.52896 0.3958 0.26075 0 0.62276-0.30615 0.7652-0.64713 0.1069-0.25592 0.10348-0.4028-0.0139-0.59606l-0.0956-0.15739 0.79766-0.48047c3.0195-1.8188 5.3752-3.5274 5.8486-4.2421 0.32652-0.49295 0.19759-0.63235-0.54466-0.58895-1.0691 0.06251-3.6399 0.91187-7.6648 2.5323-2.5047 1.0084-2.5542 1.0323-3.1764 1.5337-1.8331 1.4772-3.1363 2.6118-4.2235 3.677-1.1747 1.1509-1.6901 1.8809-1.4945 2.1166 0.0762 0.09176 0.0916 0.08707-0.71183 0.21628-0.29132 0.04685-0.54554 0.10164-0.56494 0.12176s-0.56473 0.96614-1.2118 2.1023c-2.8564 5.0151-4.7413 8.1196-6.962 11.467-3.5787 5.3946-6.7789 9.4088-10.326 12.952-2.7576 2.755-5.3718 4.8664-8.0938 6.5369-0.3423 0.21007-0.62235 0.39042-0.62235 0.40077 0 0.01035 0.10854-0.01816 0.24121-0.06336 0.13267-0.04521 0.25003-0.07338 0.26079-0.06262 0.034 0.03404-0.87258 0.65108-1.5878 1.0807-1.954 1.1736-4.4934 2.2342-6.6389 2.7729-1.079 0.27091-1.5096 0.34405-3.001 0.50983-0.67002 0.07448-1.6935 0.19344-2.2744 0.26438-0.99159 0.12108-1.2902 0.13864-0.94574 0.05561 0.33491-0.08072 2.5906-0.7859 2.664-0.83284 0.0526-0.03361-0.0354-0.03956-0.26038-0.01758-0.64021 0.06253-2.9808 0.03125-3.818-0.05103-0.45154-0.04438-0.94611-0.08096-1.099-0.0813l-0.27807-6.25e-4v-53.496h75.582l0.0134 27.701 0.0133 27.701-8.7924-0.00106-0.34034-0.80725zm-59.88-1.0754c2.0202-0.26412 3.9956-0.78395 6.0624-1.5953 1.1913-0.46768 4.0375-1.8761 3.956-1.9576-0.014-0.01401-2.457 0.78423-5.4288 1.7739s-5.4472 1.8106-5.5008 1.8245c-0.22739 0.05866 0.32622 0.03109 0.91111-0.04538zm34.46-18.93c0.57695-0.17831 1.165-0.61459 1.3739-1.0194 0.29336-0.56828-0.0835-1.0596-1.0031-1.3077-0.43922-0.11852-1.4826-0.25197-1.6044-0.20522-0.096 0.03682-0.29096 0.6492-0.37115 1.1655-0.10752 0.69237 0.0695 1.1717 0.50599 1.3699 0.28185 0.128 0.6781 0.12688 1.0987-0.0031z" fill-opacity="0" stroke-width=".052966"/>
<path d="m232.76 81.987c-3.0532-7.2415-4.6343-12.566-5.2962-17.836-0.65787-5.2371-0.26089-10.245 1.1882-14.989 0.32028-1.0486 0.32287-1.0586 0.45198-1.7478 0.0628-0.33498 0.29981-1.2526 0.52679-2.0392 0.22698-0.78658 0.59511-2.0618 0.81806-2.8337 0.85893-2.974 1.1656-4.4741 1.229-6.0117 0.0833-2.0205-0.45376-2.9937-1.7832-3.2314l-0.18669-0.03337-0.54989 1.394c-1.8876 4.7851-5.1338 11.686-8.9276 18.979-1.8475 3.5514-1.8953 3.6371-2.0135 3.6095-1.3132-0.30619-2.0869-0.383-2.5518-0.25333-0.13248 0.03695-0.27807 0.12925-0.3629 0.23007-0.12906 0.15338-0.13987 0.20028-0.12141 0.52687 0.0397 0.70291 0.63328 1.6572 2.5052 4.0275 1.7646 2.2346 2.1645 2.846 2.17 3.3184 2e-3 0.20413-0.0174 0.25188-0.1296 0.31245-0.40248 0.21732-1.6794-0.16915-3.9105-1.1835l-0.97088-0.44141-0.20126 0.12705c-0.54363 0.34318-1.969 0.82636-3.7362 1.2665-4.7034 1.1715-9.2608 1.5237-10.837 0.83759-1.4751-0.64214-0.70676-2.1402 2.23-4.3476 0.45153-0.33939 1.0312-0.75916 1.2881-0.93283s0.44312-0.32374 0.41382-0.33351c-0.0293-0.0098-0.19182 0.0085-0.36116 0.04049-0.50357 0.09527-1.4973 0.12823-1.7536 0.05815-0.46867-0.12813-0.3962-0.4557 0.23665-1.0697 0.919-0.89163 2.3936-1.9018 7.1412-4.8923 3.2793-2.0655 4.3955-2.7797 5.6038-3.5849l1.1017-0.73424 0.13451 0.15985c0.0939 0.11155 0.1819 0.15985 0.29133 0.15985 0.42982 0 0.88287-0.52674 0.82489-0.95905l-0.0269-0.20028 0.66988-0.4883c1.7556-1.2797 3.3754-2.7369 3.8763-3.4872 0.66873-1.0016 0.5538-1.6758-0.35412-2.0774-0.97508-0.43133-3.707-0.48101-6.7666-0.12306-0.35244 0.04123-0.78381 0.08902-0.95859 0.10621l-0.3178 0.03124 0.462-0.18556c1.5981-0.64183 3.7728-1.7126 6.0238-2.9659 0.45013-0.25062 0.8234-0.45568 0.82949-0.45568 6e-3 0 0.0633 0.10791 0.12717 0.23979 0.11774 0.24323 0.32164 0.3958 0.52896 0.3958 0.26075 0 0.62276-0.30615 0.7652-0.64713 0.1069-0.25592 0.10348-0.4028-0.0139-0.59606l-0.0956-0.15739 0.79766-0.48047c3.0195-1.8188 5.3752-3.5274 5.8486-4.2421 0.32652-0.49295 0.19759-0.63235-0.54466-0.58895-1.0691 0.06251-3.6399 0.91187-7.6648 2.5323-2.5047 1.0084-2.5542 1.0323-3.1764 1.5337-1.8331 1.4772-3.1363 2.6118-4.2235 3.677-1.1747 1.1509-1.6901 1.8809-1.4945 2.1166 0.0762 0.09176 0.0916 0.08707-0.71183 0.21628-0.29132 0.04685-0.54554 0.10164-0.56494 0.12176s-0.56473 0.96614-1.2118 2.1023c-2.8564 5.0151-4.7413 8.1196-6.962 11.467-3.5787 5.3946-6.7789 9.4088-10.326 12.952-2.7576 2.755-5.3718 4.8664-8.0938 6.5369-0.3423 0.21007-0.62235 0.39042-0.62235 0.40077 0 0.01035 0.10854-0.01816 0.24121-0.06336 0.13267-0.04521 0.25003-0.07338 0.26079-0.06262 0.034 0.03404-0.87258 0.65108-1.5878 1.0807-1.954 1.1736-4.4934 2.2342-6.6389 2.7729-1.079 0.27091-1.5096 0.34405-3.001 0.50983-0.67002 0.07448-1.6935 0.19344-2.2744 0.26438-0.99159 0.12108-1.2902 0.13864-0.94574 0.05561 0.33491-0.08072 2.5906-0.7859 2.664-0.83284 0.0526-0.03361-0.0354-0.03956-0.26038-0.01758-0.64021 0.06253-2.9808 0.03125-3.818-0.05103-0.45154-0.04438-0.94611-0.08096-1.099-0.0813l-0.27807-6.25e-4v-53.496h75.582l0.0134 27.701 0.0133 27.701-8.7924-0.00106-0.34034-0.80725zm-59.88-1.0754c2.0202-0.26412 3.9956-0.78395 6.0624-1.5953 1.1913-0.46768 4.0375-1.8761 3.956-1.9576-0.014-0.01401-2.457 0.78423-5.4288 1.7739s-5.4472 1.8106-5.5008 1.8245c-0.22739 0.05866 0.32622 0.03109 0.91111-0.04538zm34.46-18.93c0.57695-0.17831 1.165-0.61459 1.3739-1.0194 0.29336-0.56828-0.0835-1.0596-1.0031-1.3077-0.43922-0.11852-1.4826-0.25197-1.6044-0.20522-0.096 0.03682-0.29096 0.6492-0.37115 1.1655-0.10752 0.69237 0.0695 1.1717 0.50599 1.3699 0.28185 0.128 0.6781 0.12688 1.0987-0.0031z" fill-opacity="0" stroke-width=".052966"/>
</svg>
