<svg width="68" height="49" viewBox="0 0 68 49" fill="none" xmlns="http://www.w3.org/2000/svg">
<path d="M55.7292 48.4146L34.8649 36.5891C34.6634 36.4759 34.4512 36.384 34.2425 36.285L34.1152 29.3503V25.1067C34.1152 23.8124 34.1152 22.5157 34.1152 21.2167V16.9731C34.1435 15.838 34.1152 14.6993 34.2249 13.5748C34.2531 13.26 34.6421 12.9806 34.8649 12.6836L37.3899 14.0981C37.5683 14.2408 37.7549 14.373 37.9486 14.4942C44.123 18.0069 50.2998 21.5161 56.4789 25.0218V25.4462C56.4577 28.6677 56.4259 31.8893 56.4153 35.1145C56.4153 39.0398 56.4153 42.9686 56.4153 46.8975C56.4365 47.5093 56.7618 48.3155 55.7292 48.4146Z" fill="#602F91"/>
<path d="M37.4141 14.1406L34.8892 12.7261L33.5101 12.7579C32.8346 12.917 32.1663 13.1115 31.4873 13.2353C28.591 13.7905 25.7019 14.3846 22.795 14.8585C19.7679 15.35 16.7232 15.739 13.6819 16.128C10.2906 16.5594 6.89572 16.9414 3.50439 17.3445C7.20692 15.1909 10.8988 13.0514 14.612 10.9296C20.6237 7.49232 26.6637 4.10453 32.6472 0.635401C33.7434 -0.00113656 34.5851 -0.0435731 35.7061 0.607109C41.7992 4.14343 47.9382 7.58073 54.0561 11.0675C54.2901 11.2328 54.5058 11.4224 54.6997 11.6333C53.9777 11.948 53.2299 12.2 52.4647 12.3866C50.06 12.772 47.6412 13.0939 45.2223 13.3874C42.6302 13.6703 40.0204 13.886 37.4141 14.1406Z" fill="#FDBB51"/>
<path d="M10.9413 48.4147C7.81876 46.6465 4.68912 44.9243 1.58777 43.1102C1.35768 42.9673 1.16116 42.7765 1.01163 42.5506C0.862099 42.3248 0.76309 42.0694 0.721369 41.8018C0.668324 34.3967 0.686007 26.9881 0.700152 19.5831C0.74258 19.3607 0.82399 19.1476 0.940622 18.9536L11.8643 25.121L11.9704 27.1897V31.0796V38.8595C11.9704 41.6426 11.9421 44.4257 11.9704 47.2088C11.9598 47.9656 11.8466 48.4925 10.9413 48.4147Z" fill="#612F91"/>
<path d="M37.4146 14.1406C40.0208 13.886 42.6306 13.6703 45.2333 13.3697C47.6522 13.0904 50.071 12.7544 52.4757 12.369C53.2409 12.1824 53.9887 11.9304 54.7107 11.6157C58.8057 13.8743 62.8996 16.1387 66.9923 18.409C67.208 18.5328 67.3071 18.8581 67.4627 19.0915L67.3601 19.1658L59.269 23.6922L56.5036 25.0749C50.3245 21.5669 44.1477 18.0577 37.9733 14.5473C37.7793 14.4227 37.5928 14.2869 37.4146 14.1406Z" fill="#F9A141"/>
<path d="M11.96 38.8666V31.0867H33.6376C33.8462 30.3547 33.9912 29.8631 34.1256 29.3716L34.2529 36.3063L28.5948 39.2733C28.0644 39.1389 27.5339 38.8878 27.0035 38.8843C21.9854 38.8666 16.9745 38.8666 11.96 38.8666Z" fill="#D763A4"/>
<path d="M11.8646 25.1314L0.940918 18.964L3.50475 17.3303C6.89608 16.9271 10.2909 16.5452 13.6823 16.1138C16.7235 15.7248 19.7683 15.3358 22.7954 14.8442C25.7022 14.3704 28.5914 13.7833 31.4876 13.2211C32.1666 13.0902 32.835 12.9028 33.5104 12.7437C31.9615 13.6348 30.4138 14.5283 28.8672 15.4242L20.7832 20.1239L14.4673 23.6885L11.8646 25.1314Z" fill="#FAA946"/>
<path d="M11.9599 38.8665C16.9744 38.8665 21.9853 38.8488 26.9998 38.8665C27.5303 38.8665 28.0607 39.1211 28.5912 39.2555C26.3421 40.5852 24.0965 41.9325 21.8333 43.2374C18.8097 44.9843 15.7649 46.6888 12.7414 48.4358C12.1013 48.8071 11.5249 49.1855 10.9414 48.3933C11.8467 48.4818 11.9599 47.9548 11.9528 47.2051C11.9316 44.4327 11.9563 41.6496 11.9599 38.8665Z" fill="#A862A8"/>
<path d="M55.729 48.4145C56.7616 48.3013 56.4363 47.495 56.4363 46.9257C56.461 42.9968 56.4363 39.068 56.4363 35.1427C56.4363 31.9175 56.4787 28.696 56.4999 25.4744L56.7758 27.2107C56.7758 28.2692 56.7758 29.3242 56.7758 30.3757C56.7758 31.5545 56.7758 32.7332 56.7758 33.912V40.3057H67.3529V43.3964C65.2099 44.5528 63.0739 45.7268 60.9168 46.862C59.8443 47.4538 58.7325 47.9713 57.5891 48.4109C57.0551 48.6089 56.362 48.4357 55.729 48.4145Z" fill="#A562A7"/>
<path d="M67.3813 43.3966V40.3059H56.8042V33.9158H67.2823C67.3813 35.0156 67.4521 35.8254 67.5263 36.6352C67.4745 38.889 67.4261 41.1428 67.3813 43.3966Z" fill="#C963A6"/>
<path d="M67.5122 36.6317C67.4379 35.8219 67.3672 35.0121 67.2682 33.9123H56.8042C56.8042 32.7335 56.8042 31.5547 56.8042 30.376C59.361 30.376 61.9177 30.4078 64.4745 30.3547C65.4096 30.2927 66.3401 30.1747 67.2611 30.0011C67.3636 29.1878 67.4344 28.6184 67.5051 28.0491C67.5098 30.9111 67.5122 33.772 67.5122 36.6317Z" fill="#E0659A"/>
<path d="M67.5085 28.0524C67.4378 28.6217 67.3671 29.1911 67.2645 30.0044C66.3436 30.1779 65.413 30.296 64.4779 30.358C61.9211 30.4111 59.3644 30.3793 56.8076 30.3793C56.8076 29.3254 56.8076 28.2704 56.8076 27.2142C60.2803 26.9879 63.8025 27.6704 67.3635 26.6873V23.6709L67.4767 21.5491H67.5297L67.5085 28.0524Z" fill="#E46889"/>
<path d="M67.5155 21.5882H67.4624C67.4271 20.7843 67.3929 19.9815 67.3599 19.18L67.4624 19.1057L67.5155 21.5882Z" fill="#E96C76"/>
<path d="M34.1256 29.3646C33.9877 29.8561 33.8462 30.3477 33.6376 31.0797H11.96V27.1897H33.627C33.8286 26.3375 33.9806 25.7292 34.115 25.1174L34.1256 29.3646Z" fill="#E4688A"/>
<path d="M34.1259 25.1281C33.9809 25.7399 33.8394 26.3481 33.6379 27.2004H11.9708L11.8647 25.1316L14.4675 23.7171C16.2639 23.8267 18.0604 24.0106 19.8604 24.0354C23.5523 24.0849 27.2407 24.0354 30.9326 24.0354C33.5565 24.0354 33.553 24.0354 33.9314 21.5175C33.9314 21.4185 34.0622 21.3336 34.1329 21.2417C34.1306 22.5383 34.1282 23.8338 34.1259 25.1281Z" fill="#E96C76"/>
<path d="M34.1327 21.2415C34.062 21.3334 33.9453 21.4183 33.9312 21.5173C33.5528 24.0352 33.5563 24.0352 30.9324 24.0352C27.2405 24.0352 23.5521 24.0705 19.8602 24.0352C18.0602 24.0104 16.2637 23.8265 14.4673 23.7169L20.7831 20.124C21.2677 20.299 21.7708 20.4176 22.2825 20.4776C25.8365 20.5095 29.3905 20.4953 32.9445 20.4776C33.1946 20.4514 33.4405 20.3944 33.6766 20.3079C33.8428 19.1268 33.9913 18.0588 34.1398 16.9873L34.1327 21.2415Z" fill="#EE7063"/>
<path d="M34.1399 17.0015C33.9914 18.0624 33.8428 19.1409 33.6766 20.3221C33.4405 20.4085 33.1947 20.4655 32.9446 20.4918C29.3906 20.4918 25.8366 20.5201 22.2826 20.4918C21.7709 20.4318 21.2678 20.3132 20.7832 20.1382L28.8672 15.4243C30.4138 14.526 31.9615 13.6325 33.5104 12.7437L34.8896 12.7119C34.6668 13.009 34.2778 13.2883 34.2495 13.6031C34.1469 14.7276 34.1682 15.8805 34.1399 17.0015Z" fill="#F37748"/>
<path d="M67.3493 23.6816V26.6981C63.7882 27.6812 60.2767 26.9987 56.7934 27.225L56.5176 25.4887V25.0643L59.283 23.6922L67.3493 23.6816Z" fill="#E96C76"/>
<path d="M67.349 23.6815H59.2686L67.3597 19.155C67.3903 19.9566 67.4245 20.7593 67.4622 21.5633L67.349 23.6815Z" fill="#EE7162"/>
</svg>
