<svg width="94" height="94" viewBox="0 0 94 94" fill="none" xmlns="http://www.w3.org/2000/svg">
<path d="M46.7714 93.6051C72.472 93.6051 93.3064 72.839 93.3064 47.2228C93.3064 21.6066 72.472 0.840576 46.7714 0.840576C21.0708 0.840576 0.236328 21.6066 0.236328 47.2228C0.236328 72.839 21.0708 93.6051 46.7714 93.6051Z" fill="#FF4044"/>
<g style="mix-blend-mode:multiply" opacity="0.75">
<path fill-rule="evenodd" clip-rule="evenodd" d="M54.072 50.5145C54.5264 49.1254 55.0718 47.1324 54.9203 45.079C54.7991 43.5994 56.1927 42.8747 57.5561 43.3578L57.9802 43.5088C60.0359 44.3494 61.8556 45.6759 63.2821 47.374C65.009 49.3972 64.3424 51.209 62.0702 52.3565C60.5028 53.1797 58.8716 53.8764 57.1925 54.44C55.6171 55.0138 55.6777 54.9232 54.6779 53.8059L54.5264 53.6247C53.2237 52.3263 53.4055 52.5678 54.072 50.5145V50.5145ZM54.1629 46.6795C54.1487 48.1684 53.8612 49.6421 53.3146 51.0278C52.5572 52.9 52.3451 52.2055 50.8606 52.6584C50.0729 52.8698 49.2852 53.3228 49.0731 53.9267C48.861 54.5306 49.7699 55.5875 50.9212 54.8024C51.0704 54.6881 51.2412 54.6051 51.4235 54.5584C51.6057 54.5117 51.7956 54.5022 51.9816 54.5306C52.2547 54.5484 52.5172 54.6426 52.739 54.8024C53.0042 54.9763 53.231 55.2024 53.4055 55.4667C53.8902 56.2518 54.0114 57.3993 53.254 58.6676C52.7003 59.6761 51.778 60.4331 50.6788 60.7814C49.5384 61.1177 48.3156 61.0428 47.2251 60.57C45.4038 59.771 43.9534 58.3146 43.1654 56.4934C42.105 54.1079 42.2868 51.4204 43.3471 49.0952C44.4553 46.6116 46.4859 44.6526 49.0125 43.6296C52.133 42.3009 54.1932 43.086 54.1629 46.6795V46.6795ZM57.5258 55.4667C58.8588 55.0138 60.3433 54.1079 61.9793 53.2926C64.8575 51.8431 66.8873 52.9906 67.2509 56.0405C67.3358 56.8025 67.3763 57.5687 67.3721 58.3354C67.323 59.4008 67.1913 60.4609 66.9782 61.5061C66.4026 64.0728 65.5543 65.1297 62.9488 64.3748C60.9493 63.7708 54.2235 61.6269 55.3747 59.0299C55.6332 58.426 55.7869 57.7828 55.8292 57.1275C55.8898 56.0103 56.5563 55.7989 57.5258 55.4667V55.4667ZM56.2836 62.1402C58.2872 63.3642 60.4084 64.3859 62.6155 65.1901C64.3424 65.8242 65.1907 66.247 64.0092 67.9078C62.2136 70.4499 59.8752 72.564 57.1622 74.0981C54.587 75.5174 52.951 72.1957 52.1027 70.2631C51.4801 68.814 51.0031 67.3068 50.6788 65.7638C50.1638 63.65 50.6485 63.1971 52.436 62.2308C54.2235 61.2645 53.8296 60.6908 56.2836 62.1402V62.1402ZM49.8608 65.3411C50.4751 67.625 51.2444 69.8647 52.1633 72.0448C53.1328 74.2793 53.1934 76.0005 50.6182 76.4837C47.3085 77.0748 43.9061 76.8886 40.6811 75.9401C35.6822 74.4907 33.41 72.4675 37.4394 67.6662C38.833 66.0054 40.2872 64.5258 41.5294 63.2273C43.6501 61.0229 43.8622 61.3249 46.4071 62.4422L47.5886 62.8347C49.3155 63.2575 49.4064 63.5897 49.8608 65.3411V65.3411ZM40.772 62.9253C39.4389 64.3446 37.8635 66.0658 36.379 67.8776C33.8341 70.9879 32.6829 72.5279 29.4109 69.2666C28.3449 68.1929 27.3719 67.0312 26.5024 65.794C25.6844 64.6163 25.2906 63.4085 25.6238 62.4724C26.1692 60.9323 28.4111 59.2715 30.0774 58.0334C32.2284 56.4028 39.7116 53.7455 41.287 57.3087L41.6808 58.0938C42.9836 60.4794 42.7109 60.9323 40.772 62.9253V62.9253ZM37.6817 54.4098C34.8945 54.9836 31.4407 56.0405 29.1988 57.7315C26.4721 59.7849 22.9275 59.5131 22.1095 55.8291C21.4278 52.7568 21.2741 49.5916 21.655 46.4681C21.958 43.9617 22.9578 42.8445 23.9575 42.0594C27.0175 39.553 38.0453 44.3543 40.2872 47.072C40.5812 47.4589 40.783 47.9073 40.8775 48.3834C40.9719 48.8594 40.9566 49.3507 40.8325 49.8199C40.6578 50.4546 40.5262 51.1002 40.4387 51.7525C40.3175 52.9906 38.9542 54.1381 37.6817 54.4098V54.4098ZM40.2872 45.7132C37.6211 44.0825 33.5009 41.6064 29.017 40.0664C26.3206 39.1303 24.7755 36.2918 26.6842 33.6043C28.2531 31.4172 30.0845 29.4296 32.1375 27.6857C33.7432 26.3268 37.4091 23.0958 38.6512 26.7194C40.3781 31.7321 38.5906 33.7552 44.1954 39.8248C46.0435 41.848 47.0433 41.9688 44.7711 43.8712C44.3654 44.2097 43.9809 44.5728 43.6198 44.9582C42.3777 46.2869 41.9232 46.7097 40.2872 45.7132ZM44.7105 39.0397C38.4997 32.0944 42.1353 29.5881 40.7417 24.7264C40.4084 23.5789 39.7722 22.8844 41.1355 22.2805C41.7111 22.0087 42.2565 21.8275 42.8018 21.6161C43.3471 21.4048 44.2257 21.1632 45.1043 20.9216C50.6392 19.2882 56.5024 19.1011 62.1308 20.3781C65.8875 21.2236 67.7356 21.9785 65.3422 25.9947C62.5247 30.7356 59.1618 32.336 60.1313 38.0734C60.7069 41.4856 59.7374 41.7272 56.8896 41.0327C55.1312 40.6277 53.3121 40.556 51.5271 40.8213C48.2551 41.3044 47.0736 41.6366 44.7105 39.0397V39.0397Z" fill="#444444"/>
</g>
<path fill-rule="evenodd" clip-rule="evenodd" d="M53.3145 49.0042C53.7993 47.6152 54.3143 45.6222 54.1628 43.5688C54.072 42.0891 55.4353 41.3644 56.7986 41.8476L57.2228 41.9986C59.2836 42.8454 61.1117 44.1705 62.5549 45.8637C64.2818 47.8869 63.585 49.6987 61.343 50.8462C59.7629 51.6647 58.1221 52.3613 56.4351 52.9298C54.8899 53.5035 54.9505 53.3827 53.9205 52.2957L53.769 52.1145C52.4662 50.816 52.648 51.0576 53.3145 49.0042V49.0042ZM53.4054 45.1692C53.3882 46.6452 53.1113 48.1067 52.5874 49.4874C51.83 51.3596 51.618 50.6952 50.1031 51.118C49.3154 51.3596 48.5277 51.8125 48.346 52.4164C48.1642 53.0204 49.0125 54.0773 50.1637 53.2921C50.4715 53.0722 50.8462 52.9655 51.2241 52.9902C51.5011 53.0133 51.7649 53.1184 51.9815 53.2921C52.2523 53.4461 52.4811 53.6638 52.648 53.9263C53.1631 54.7114 53.254 55.8891 52.4965 57.1573C51.9429 58.1658 51.0206 58.9229 49.9214 59.2711C48.7912 59.6079 47.5777 59.533 46.4979 59.0597C44.6597 58.2598 43.1969 56.791 42.4079 54.953C41.3475 52.5976 41.5293 49.8799 42.5897 47.5548C43.7094 45.0862 45.7375 43.1405 48.2551 42.1193C51.3756 40.7907 53.4357 41.5758 53.4054 45.1692V45.1692ZM56.7986 53.9565C58.1014 53.4733 59.5859 52.5674 61.2219 51.7823C64.1303 50.3329 66.1299 51.4803 66.4934 54.5302C66.5934 55.2909 66.634 56.0582 66.6146 56.8252C66.5937 57.8928 66.4617 58.9554 66.2207 59.9958C65.6451 62.5626 64.7968 63.6194 62.1913 62.8343C60.2221 62.2606 53.466 60.1166 54.6173 57.5197C54.8757 56.9158 55.0294 56.2725 55.0717 55.6173C55.1323 54.5 55.8291 54.2886 56.7986 53.9565V53.9565ZM55.5565 60.63C57.5623 61.8304 59.6711 62.8511 61.8581 63.6798C63.585 64.314 64.4333 64.7367 63.282 66.3975C61.4743 68.9321 59.1256 71.0359 56.4048 72.5577C53.8599 74.0071 52.1936 70.6855 51.3453 68.7529C50.75 67.2937 50.2739 65.7891 49.9214 64.2536C49.4063 62.1398 49.8911 61.6869 51.6785 60.7206C53.466 59.7543 53.1025 59.1805 55.5565 60.63V60.63ZM49.1034 63.8308C49.7361 66.1091 50.505 68.3477 51.4059 70.5345C52.3754 72.7691 52.436 74.4601 49.8608 74.9432C46.5519 75.5491 43.146 75.3628 39.9236 74.3997C34.955 72.9804 32.6525 70.9573 36.6819 66.156C38.1058 64.4951 39.5298 63.0155 40.7719 61.717C42.9229 59.5127 43.1047 59.7845 45.6799 60.9017C46.0468 61.0772 46.4333 61.209 46.8311 61.2943C48.558 61.717 48.6489 62.0794 49.1034 63.8308V63.8308ZM40.0448 61.4151C38.6815 62.8343 37.1061 64.5555 35.6215 66.3673C33.0767 69.4776 31.9254 71.0176 28.6837 67.7564C27.6076 66.6918 26.6339 65.5292 25.7753 64.2838C24.927 63.1061 24.5331 61.8982 24.8967 60.9319C25.442 59.4221 27.6536 57.7613 29.3199 56.5232C31.471 54.8926 38.9844 52.2353 40.5295 55.7683L40.9234 56.5836C42.2261 58.9389 41.9535 59.3919 40.0448 61.4151V61.4151ZM36.9243 52.8996C34.137 53.4431 30.6833 54.5302 28.4413 56.2212C25.7147 58.2444 22.2003 58.0028 21.352 54.2886C20.684 51.2146 20.5304 48.0516 20.8976 44.9276C21.2005 42.4515 22.2003 41.3342 23.2001 40.5491C26.26 38.0428 37.2878 42.8441 39.5298 45.5618C39.8257 45.9476 40.0288 46.396 40.1234 46.8724C40.2179 47.3489 40.2014 47.8406 40.0751 48.3097C39.8929 48.941 39.7711 49.5881 39.7115 50.2423C39.56 51.4803 38.1967 52.6278 36.9243 52.8996V52.8996ZM39.5298 44.2029C36.8637 42.5723 32.7434 40.0962 28.2898 38.5561C25.5632 37.62 24.0181 34.7513 25.957 32.094C27.5067 29.9009 29.3289 27.9122 31.3801 26.1754C32.9858 24.8166 36.6516 21.5855 37.8938 25.2091C39.6206 30.2218 37.8332 32.245 43.438 38.3145C45.3163 40.3377 46.2858 40.4283 44.0439 42.3307C43.6285 42.6798 43.234 43.0529 42.8623 43.448C41.6505 44.7767 41.196 45.1994 39.5298 44.2029ZM43.953 37.4992C37.7423 30.5842 41.3778 28.0778 39.9842 23.2162C39.6509 22.0687 39.0147 21.3742 40.4083 20.7702C40.9474 20.51 41.5042 20.288 42.0746 20.1059L44.3469 19.3812C49.897 17.7726 55.7662 17.5959 61.4036 18.8678C65.1604 19.7133 66.9782 20.4381 64.615 24.4844C61.7975 29.1951 58.4043 30.8258 59.3738 36.5631C59.9494 39.9754 59.0102 40.2169 56.1321 39.5224C54.3738 39.1167 52.5546 39.045 50.7697 39.311C47.4977 39.7942 46.3161 40.1264 43.953 37.4992V37.4992Z" fill="white"/>
</svg>
