<svg id="Layer_1" data-name="Layer 1" xmlns="http://www.w3.org/2000/svg" viewBox="0 0 282.43 255.72"><title>monetha</title><path d="M189,182.49L151.44,211.6V123.74a48,48,0,0,1,19.13-38.35l37-27.84v87A48,48,0,0,1,189,182.49h0Zm-95.58.05a48,48,0,0,1-18.6-37.94v-87l37,27.88a48,48,0,0,1,19.11,38.33v87.84L93.39,182.54h0Zm169,45.7-36,27.46V68.14a51,51,0,0,1,20-40.5L282.43,0V187.68a51,51,0,0,1-20.09,40.56h0Zm-242.26,0A51,51,0,0,1,0,187.7V0L36.12,27.66a51,51,0,0,1,20,40.5V255.72l-36-27.46h0Z" style="fill:#0072ff"/></svg>