<?xml version="1.0" standalone="no"?>
<!DOCTYPE svg PUBLIC "-//W3C//DTD SVG 20010904//EN"
 "http://www.w3.org/TR/2001/REC-SVG-20010904/DTD/svg10.dtd">
<svg version="1.0" xmlns="http://www.w3.org/2000/svg"
 width="500.000000pt" height="500.000000pt" viewBox="0 0 500.000000 500.000000"
 preserveAspectRatio="xMidYMid meet">

<g transform="translate(0.000000,500.000000) scale(0.100000,-0.100000)"
fill="#000000" stroke="none">
<path d="M2176 4350 c-53 -17 -63 -17 -94 -4 -19 8 -49 14 -68 14 -54 0 -153
-42 -242 -103 -77 -52 -158 -87 -206 -87 -19 0 -45 -11 -161 -71 -53 -28 -82
-55 -90 -87 -3 -14 -33 -55 -66 -90 -33 -36 -62 -77 -65 -91 -7 -34 -48 -117
-79 -160 -14 -19 -25 -42 -25 -53 0 -10 -7 -30 -16 -43 -24 -37 -15 -123 19
-174 20 -30 25 -48 21 -70 -7 -36 18 -116 52 -167 14 -20 34 -60 45 -89 10
-28 30 -62 44 -75 16 -15 25 -34 25 -55 0 -41 45 -104 92 -129 l35 -19 6 -106
c6 -112 25 -186 71 -263 14 -24 32 -77 41 -117 18 -88 36 -130 101 -236 26
-44 73 -129 104 -190 51 -99 61 -112 100 -133 24 -12 62 -22 84 -22 25 0 67
-13 116 -37 l76 -37 22 -70 c12 -39 44 -136 72 -216 27 -80 50 -153 50 -163 0
-10 -9 -36 -21 -58 -26 -52 -73 -213 -88 -302 -7 -38 -21 -91 -31 -118 -11
-27 -20 -53 -20 -58 0 -5 17 -20 38 -35 65 -44 146 -32 252 39 39 26 134 71
235 110 227 88 504 207 695 297 41 20 98 46 125 57 88 38 252 153 267 186 7
17 25 42 41 56 l28 26 -74 61 c-70 58 -75 64 -86 118 -20 102 -15 131 35 219
69 118 74 128 74 148 0 31 -15 18 -43 -35 -15 -29 -46 -87 -68 -128 -39 -72
-41 -78 -35 -139 l5 -64 -20 19 c-55 50 -61 105 -24 221 18 58 37 93 70 132
25 29 45 62 45 73 0 12 -19 38 -45 60 -65 58 -80 92 -76 173 2 28 3 28 14 10
7 -10 44 -51 84 -90 60 -60 74 -81 90 -131 l18 -59 3 38 c4 51 -41 131 -99
175 -53 41 -79 84 -79 134 0 31 6 42 40 69 43 34 110 153 110 194 0 25 20 45
68 69 51 26 67 74 51 149 -10 48 -10 77 1 152 15 110 7 143 -45 198 -40 42
-43 71 -24 200 13 91 1 143 -45 195 -51 57 -74 110 -68 160 14 133 -37 174
-253 206 -55 8 -113 20 -128 25 -34 13 -71 53 -98 106 -27 52 -85 112 -129
135 -42 21 -71 28 -173 39 -58 7 -87 16 -115 35 -32 22 -49 26 -103 26 -36 0
-91 -5 -123 -11 -56 -12 -57 -12 -109 24 -92 63 -130 69 -231 37z m167 -26
c18 -10 46 -27 62 -39 46 -34 57 -35 149 -18 109 20 147 13 195 -36 21 -21 44
-40 52 -43 23 -8 -25 -53 -84 -78 -38 -17 -64 -21 -104 -18 -37 3 -53 1 -53
-8 0 -14 32 -24 81 -24 71 0 226 102 189 125 -46 28 53 34 144 8 76 -21 126
-69 180 -173 47 -92 76 -132 121 -166 56 -43 63 -17 8 33 l-48 44 39 -6 c21
-4 81 -13 133 -21 106 -15 176 -42 192 -72 6 -12 11 -74 11 -142 0 -122 15
-190 41 -190 11 0 10 9 -6 80 -6 22 -2 20 29 -15 20 -22 41 -55 47 -74 13 -39
6 -133 -15 -201 l-13 -45 -11 40 c-6 22 -15 69 -21 104 -7 43 -19 74 -38 98
-54 68 -57 74 -47 90 6 10 2 45 -13 107 -26 106 -37 130 -71 152 -36 24 -40 8
-5 -26 30 -30 54 -95 52 -142 -1 -20 -2 -20 -6 -3 -13 58 -36 115 -53 130 -29
26 -35 12 -11 -22 11 -15 24 -43 27 -62 6 -30 5 -33 -10 -28 -10 4 -38 7 -63
7 -38 0 -44 2 -34 14 10 12 4 18 -31 34 -27 11 -64 43 -97 81 -65 75 -76 81
-173 97 -43 7 -92 19 -109 28 -37 18 -49 20 -49 6 0 -19 77 -49 155 -59 94
-13 112 -24 154 -90 23 -35 46 -57 81 -74 48 -24 55 -37 18 -37 -37 0 -96 40
-132 90 -46 64 -82 86 -158 94 -84 10 -130 31 -166 75 -17 21 -45 44 -63 51
-28 12 -30 15 -13 21 10 4 29 8 41 8 35 1 132 41 161 66 36 31 22 43 -16 15
-38 -28 -152 -60 -214 -60 -27 0 -48 -4 -48 -10 0 -16 -96 -12 -138 5 -20 9
-79 59 -133 114 -115 117 -157 137 -249 122 -30 -5 -67 -14 -83 -20 -22 -9
-36 -7 -72 11 -32 15 -48 19 -56 11 -7 -7 6 -18 45 -38 54 -27 55 -27 102 -11
26 9 59 16 73 16 22 -1 20 -3 -12 -14 -21 -8 -55 -25 -75 -39 -32 -20 -41 -23
-55 -12 -9 7 -50 18 -91 25 l-75 13 -71 -37 c-50 -25 -79 -34 -96 -30 -16 4
-26 1 -30 -9 -6 -17 -58 -38 -86 -34 -25 3 -23 -17 2 -21 30 -5 126 27 167 55
19 13 39 21 44 17 5 -3 22 2 36 11 21 14 39 16 91 11 36 -4 73 -11 84 -17 17
-9 16 -13 -17 -51 -33 -39 -43 -58 -30 -58 3 0 28 22 55 49 63 63 158 111 220
111 71 0 139 -39 184 -105 38 -55 82 -95 168 -153 52 -36 58 -38 58 -19 0 6
-19 22 -41 35 -22 13 -39 25 -37 27 1 2 40 -1 86 -5 93 -10 152 -37 189 -88
24 -32 81 -55 168 -67 66 -9 99 -27 124 -69 49 -79 128 -121 253 -133 35 -4
63 -12 73 -23 9 -9 22 -61 30 -121 16 -108 31 -165 47 -186 19 -24 27 -3 14
35 -7 20 -16 59 -20 86 -7 46 -6 49 9 36 25 -21 33 -42 45 -115 15 -93 63
-179 111 -197 25 -10 59 -84 59 -128 0 -20 -5 -62 -11 -94 -9 -44 -9 -69 1
-110 18 -77 9 -99 -56 -141 -100 -64 -173 -129 -199 -177 -14 -25 -39 -61 -55
-78 -26 -28 -35 -32 -63 -26 -17 3 -44 15 -59 26 -35 26 -52 26 -39 1 14 -25
71 -51 113 -51 42 1 99 51 126 113 19 42 97 116 109 103 13 -13 -52 -126 -96
-168 -73 -69 -104 -194 -66 -268 21 -43 74 -100 92 -100 13 0 17 -12 13 -40
-1 -8 -18 -32 -37 -53 -39 -44 -93 -150 -93 -184 0 -12 -5 -25 -10 -28 -6 -4
-10 23 -10 73 0 103 -17 155 -78 246 -28 40 -55 88 -59 107 -11 41 -33 51 -33
14 0 -30 19 -69 67 -140 19 -27 41 -66 49 -85 19 -43 31 -170 16 -155 -22 22
-142 327 -172 440 -41 149 -80 315 -80 336 0 9 10 24 22 35 23 21 23 23 2 -46
-11 -35 16 -22 32 16 8 20 17 35 19 33 1 -2 -4 -35 -12 -73 -16 -82 -5 -183
28 -250 27 -56 97 -156 146 -209 44 -48 63 -97 63 -164 0 -44 16 -65 31 -42 5
8 7 30 3 50 -4 28 -1 38 10 42 10 4 16 18 16 37 0 31 -41 123 -60 135 -23 15
-20 -5 9 -57 30 -53 39 -88 23 -88 -4 0 -13 15 -20 33 -7 17 -32 53 -56 79
-89 98 -187 301 -158 330 5 5 8 27 5 47 -5 36 20 158 35 173 5 5 4 -18 -2 -50
-5 -32 -6 -71 -2 -86 7 -27 8 -28 26 -11 11 10 20 23 20 29 0 27 51 115 92
161 49 54 81 110 75 128 -2 6 -20 -13 -40 -43 -20 -30 -48 -68 -62 -84 -25
-27 -27 -28 -40 -10 -8 11 -15 25 -15 32 0 18 -17 15 -29 -5 -6 -10 -11 -13
-11 -6 0 6 5 15 11 18 5 4 15 18 20 32 9 25 10 25 23 7 23 -31 27 -12 15 71
-13 94 -45 162 -94 199 -45 35 -69 30 -160 -30 -94 -61 -125 -60 -188 4 -26
27 -45 51 -42 54 4 3 1 9 -6 14 -8 5 -10 3 -4 -7 8 -12 6 -12 -8 -1 -9 8 -15
17 -14 20 1 4 -12 27 -29 52 -17 25 -48 77 -69 115 -48 87 -118 156 -182 180
-112 41 -231 105 -261 139 -17 20 -37 36 -44 36 -7 0 3 -14 22 -31 32 -27 33
-30 10 -23 -14 3 -34 17 -45 29 -16 18 -35 24 -86 29 -87 8 -152 31 -221 79
-66 44 -76 56 -58 67 10 6 3 20 -25 54 -46 56 -55 111 -31 182 19 55 12 70
-15 34 -11 -14 -28 -36 -39 -48 -29 -34 -24 -132 6 -132 8 0 14 -4 14 -10 0
-5 -4 -10 -10 -10 -13 0 -63 -87 -56 -98 3 -5 -30 -43 -74 -84 -58 -56 -88
-77 -115 -82 -20 -4 -56 -18 -80 -32 -25 -14 -46 -20 -50 -14 -3 5 -27 -7 -53
-27 -26 -20 -71 -47 -100 -61 -32 -14 -50 -28 -45 -33 15 -15 109 21 150 56
43 36 78 51 88 36 6 -11 -61 -117 -89 -140 -9 -7 -16 -25 -16 -40 0 -30 -25
-81 -81 -163 -21 -32 -39 -63 -39 -69 0 -14 33 28 45 56 7 18 9 17 15 -10 17
-69 60 -223 69 -249 20 -50 15 -60 -19 -36 -36 25 -73 87 -46 77 8 -3 18 -2
21 3 7 12 -25 70 -39 70 -17 0 -56 43 -56 61 0 9 -3 19 -8 21 -17 7 -91 146
-97 183 -6 37 -5 39 9 21 9 -11 16 -23 16 -28 0 -4 7 -8 15 -8 8 0 15 2 15 4
0 8 -56 103 -82 139 -39 55 -47 120 -19 157 11 16 21 41 21 56 0 14 18 52 41
84 22 32 45 76 49 97 14 61 59 132 100 158 25 16 39 33 43 53 4 18 20 41 39
55 53 41 179 87 237 87 39 0 56 5 76 24 14 13 42 32 62 41 20 10 58 33 83 51
89 64 171 81 244 50 30 -12 40 -12 87 4 68 23 131 25 172 4z m-523 -519 c-7
-14 -17 -25 -22 -25 -5 0 -1 13 8 30 21 35 33 31 14 -5z m149 -140 c59 -36
133 -61 212 -70 35 -4 71 -14 80 -22 9 -7 97 -50 195 -94 112 -50 191 -92 212
-112 18 -18 65 -90 105 -160 57 -102 86 -142 145 -199 71 -69 74 -70 115 -66
24 3 62 17 85 32 44 28 59 31 81 17 11 -7 7 -16 -21 -45 -19 -20 -42 -36 -51
-36 -9 0 -19 -4 -22 -10 -15 -24 44 -7 70 20 16 17 35 30 42 30 17 0 33 -42
26 -69 -6 -24 -8 -25 -34 -10 -14 7 -29 7 -54 -2 -29 -11 -35 -18 -35 -41 0
-15 5 -28 10 -28 6 0 10 9 10 20 0 10 9 24 20 30 21 11 60 5 60 -9 0 -21 -73
-89 -107 -100 -21 -7 -44 -15 -51 -18 -8 -3 -5 8 8 29 28 46 25 86 -9 126 -24
28 -30 31 -41 17 -12 -15 -7 -46 7 -44 26 4 33 -4 33 -40 0 -31 -6 -44 -27
-60 -24 -20 -25 -24 -13 -46 16 -30 20 -31 62 -5 18 11 43 20 55 20 20 0 70
52 116 120 32 46 20 107 -31 162 -22 24 -23 28 -9 34 30 11 66 -5 83 -38 13
-25 15 -48 11 -103 -10 -119 -26 -149 -130 -248 -89 -85 -93 -88 -132 -84 -22
2 -48 7 -57 11 -13 6 -18 4 -18 -7 0 -8 7 -18 16 -21 14 -5 16 -17 10 -79 -8
-83 -39 -158 -88 -213 -56 -63 -130 -173 -126 -186 3 -7 22 11 44 40 21 29 60
78 87 110 69 83 100 152 106 236 l6 70 39 8 c22 5 48 15 57 24 21 19 24 14 39
-61 27 -134 112 -409 170 -545 92 -219 153 -315 282 -442 59 -59 103 -110 98
-113 -6 -4 -19 -23 -30 -44 -14 -28 -45 -56 -119 -105 -56 -37 -118 -74 -138
-82 -21 -8 -90 -39 -153 -69 -291 -135 -409 -185 -692 -295 -86 -34 -187 -81
-224 -105 -82 -54 -150 -71 -200 -50 -44 18 -49 32 -29 80 9 21 23 77 32 124
8 47 25 122 38 166 36 125 56 159 71 120 4 -8 13 -15 21 -15 11 0 13 5 7 18
-4 9 -16 44 -26 77 -11 33 -38 112 -60 175 -56 162 -83 249 -77 254 3 3 23 0
46 -5 65 -17 215 12 191 36 -3 3 -25 1 -49 -4 -24 -6 -66 -10 -94 -10 -55 0
-186 38 -192 55 -2 7 21 13 60 17 75 7 192 47 220 76 30 29 15 36 -24 11 -62
-37 -158 -61 -274 -67 -167 -8 -220 15 -257 114 -9 23 -48 95 -87 162 -91 153
-117 209 -135 298 -9 40 -29 93 -45 120 -45 73 -64 160 -67 303 -3 104 -7 137
-28 195 -32 88 -33 126 -2 162 52 63 68 132 52 228 -6 36 -1 48 47 124 47 74
59 87 96 99 29 10 73 44 149 117 l107 103 40 -43 c22 -23 60 -55 84 -70z
m-571 -491 c-13 -26 -29 -49 -36 -52 -19 -6 -14 39 8 86 23 46 24 52 11 52 -5
0 -12 -11 -15 -25 -4 -14 -11 -25 -16 -25 -6 0 -10 -7 -10 -15 0 -8 -4 -15
-10 -15 -15 0 -13 5 20 57 17 26 30 54 30 63 0 9 6 22 13 29 10 10 14 0 20
-48 8 -53 6 -65 -15 -107z m1949 -321 c-3 -10 -5 -4 -5 12 0 17 2 24 5 18 2
-7 2 -21 0 -30z m5 -225 l-23 -43 6 44 c7 54 14 66 28 52 8 -8 5 -23 -11 -53z"/>
<path d="M2205 4144 c-41 -14 -96 -65 -77 -72 5 -1 21 8 34 21 15 15 42 27 71
31 54 8 86 -5 160 -67 33 -28 51 -37 58 -30 7 7 -5 23 -38 53 -93 83 -127 93
-208 64z"/>
<path d="M1971 4112 c-16 -30 -24 -92 -12 -92 6 0 11 10 11 23 0 12 7 35 15
51 18 33 18 36 5 36 -5 0 -14 -8 -19 -18z"/>
<path d="M1303 3865 c-40 -34 -84 -118 -69 -132 3 -3 7 -4 9 -2 1 2 13 26 26
52 14 27 41 60 62 75 21 15 39 30 39 35 0 17 -29 5 -67 -28z"/>
<path d="M2045 3860 c-4 -6 15 -31 42 -56 l48 -46 -42 21 c-53 26 -72 27 -49
3 29 -33 119 -71 181 -77 61 -6 347 20 371 33 7 4 -71 7 -174 7 -213 0 -242 7
-326 85 -27 25 -47 37 -51 30z"/>
<path d="M2830 3781 c0 -5 15 -18 33 -29 17 -11 59 -43 92 -71 77 -66 97 -66
25 1 -93 85 -150 123 -150 99z"/>
<path d="M2655 3740 c3 -5 21 -10 39 -10 51 0 145 -36 192 -75 23 -19 45 -31
48 -26 11 17 -105 93 -169 110 -51 14 -118 14 -110 1z"/>
<path d="M1632 3710 c-25 -34 -100 -80 -145 -89 -17 -4 -33 -13 -35 -20 -7
-20 72 -6 114 20 36 22 104 94 104 109 0 18 -16 10 -38 -20z"/>
<path d="M1472 3653 c-12 -2 -20 -9 -17 -14 9 -14 39 -11 61 6 19 14 19 14 -1
13 -11 0 -30 -3 -43 -5z"/>
<path d="M1362 3601 c-41 -35 -109 -55 -162 -48 -49 6 -61 -7 -18 -22 39 -14
84 -13 126 2 34 12 121 76 122 90 0 16 -37 4 -68 -22z"/>
<path d="M3035 3566 c-35 -8 -51 -17 -53 -30 -3 -15 0 -17 14 -12 39 15 172
28 227 21 68 -7 75 6 12 23 -55 15 -133 14 -200 -2z"/>
<path d="M2520 3563 c1 -24 71 -68 138 -88 27 -8 204 21 247 41 16 7 21 12 10
9 -102 -23 -195 -33 -234 -24 -47 10 -116 43 -126 59 -7 12 -35 14 -35 3z"/>
<path d="M3048 3523 c-10 -2 -18 -9 -18 -14 0 -6 8 -5 20 1 11 6 20 13 20 15
0 3 -1 4 -2 4 -2 -1 -11 -3 -20 -6z"/>
<path d="M2915 3487 c-27 -11 -68 -23 -90 -27 l-40 -7 42 -2 c42 -1 143 35
143 51 0 4 -1 8 -2 7 -2 -1 -25 -10 -53 -22z"/>
<path d="M2954 3472 c-86 -46 -106 -52 -163 -52 -45 -1 -52 -3 -37 -11 10 -6
37 -9 60 -7 50 6 158 53 182 79 22 24 20 24 -42 -9z"/>
<path d="M2997 3446 c-48 -51 -115 -85 -169 -86 -38 0 -87 17 -101 35 -5 6 -7
4 -5 -4 3 -8 16 -24 31 -35 59 -44 199 -9 260 64 14 16 30 30 36 30 6 0 11 6
11 14 0 32 -23 25 -63 -18z"/>
<path d="M1290 3379 c-19 -16 -42 -29 -52 -29 -19 0 -24 -15 -8 -25 13 -8 60
17 88 48 34 36 13 40 -28 6z"/>
<path d="M3278 3342 c-58 -38 -131 -77 -163 -86 -78 -25 -170 -23 -234 5 -28
12 -55 19 -59 15 -3 -4 -2 -10 4 -14 6 -4 17 -20 25 -37 20 -41 62 -59 144
-63 39 -1 84 -5 101 -8 17 -3 79 4 138 16 140 29 179 24 228 -28 23 -25 43
-61 54 -98 23 -77 38 -92 32 -33 -7 65 -46 137 -92 171 -35 25 -47 28 -117 28
-43 0 -90 -5 -106 -11 -40 -15 -264 -22 -311 -9 -22 5 -45 16 -51 24 -9 11 1
10 54 -2 55 -14 74 -14 132 -3 89 17 133 37 239 107 56 37 103 60 128 64 57 7
59 30 3 30 -37 0 -59 -10 -149 -68z"/>
<path d="M1316 3354 c-23 -28 -50 -47 -68 -51 -26 -5 -28 -7 -14 -21 14 -14
19 -12 56 13 35 24 80 80 80 99 0 15 -18 2 -54 -40z"/>
<path d="M3682 3340 c0 -14 2 -19 5 -12 2 6 2 18 0 25 -3 6 -5 1 -5 -13z"/>
<path d="M3258 3272 c-21 -14 -36 -27 -34 -30 7 -6 76 38 76 49 0 11 3 12 -42
-19z"/>
<path d="M3500 3253 c0 -3 18 -22 40 -40 22 -19 52 -55 67 -81 36 -62 35 -120
-6 -238 -17 -51 -31 -99 -31 -109 0 -36 20 0 51 93 50 146 44 226 -23 311 -32
41 -98 85 -98 64z"/>
<path d="M3188 3223 c7 -3 16 -2 19 1 4 3 -2 6 -13 5 -11 0 -14 -3 -6 -6z"/>
<path d="M3700 3123 c0 -4 5 -21 12 -39 10 -27 8 -46 -7 -109 -13 -49 -26 -80
-37 -86 -10 -5 -18 -21 -18 -35 0 -17 -16 -39 -52 -72 -120 -108 -185 -186
-202 -239 -11 -34 11 -28 30 8 25 50 102 140 157 186 52 43 97 105 97 134 0 9
8 23 18 33 38 34 57 162 31 204 -13 21 -29 29 -29 15z"/>
<path d="M2930 3109 c0 -6 14 -24 30 -41 28 -27 36 -30 75 -25 41 4 102 33 92
43 -2 2 -23 -3 -47 -11 -62 -22 -85 -19 -113 15 -27 32 -37 37 -37 19z"/>
<path d="M1282 3090 c0 -8 4 -26 8 -40 6 -20 8 -21 8 -5 0 11 -3 29 -8 40 -5
12 -8 14 -8 5z"/>
<path d="M3290 3070 c20 -13 33 -13 25 0 -3 6 -14 10 -23 10 -15 0 -15 -2 -2
-10z"/>
<path d="M3440 3020 c1 -25 36 -65 45 -50 4 7 -3 22 -19 38 -18 18 -26 22 -26
12z"/>
<path d="M3726 2840 c-11 -19 -55 -72 -99 -117 -43 -45 -78 -86 -76 -92 6 -16
146 116 175 165 14 24 24 51 22 61 -3 14 -8 10 -22 -17z"/>
<path d="M3464 2507 c-17 -28 -25 -32 -57 -30 -20 1 -37 -2 -37 -8 0 -13 40
-27 62 -21 22 5 68 58 68 78 0 23 -13 16 -36 -19z"/>
<path d="M3340 2301 c0 -14 41 -41 62 -41 29 0 21 15 -17 33 -41 20 -45 20
-45 8z"/>
<path d="M2070 3190 c-76 -12 -102 -23 -164 -70 -64 -48 -81 -82 -89 -170 -3
-36 -20 -109 -36 -164 -34 -110 -40 -166 -16 -166 11 0 15 11 15 39 0 21 13
82 30 135 16 53 32 126 36 161 8 77 28 113 86 152 60 41 100 53 199 60 120 8
214 -14 308 -73 48 -30 77 -42 83 -36 13 13 -128 97 -196 117 -63 19 -186 26
-256 15z"/>
<path d="M1477 3116 c-26 -7 -50 -16 -54 -19 -15 -15 9 -18 57 -8 95 21 123
16 163 -28 86 -96 87 -138 3 -394 -20 -60 -36 -126 -36 -147 0 -63 46 -105
133 -125 25 -5 28 -9 22 -34 -5 -23 -1 -32 17 -45 30 -21 38 -20 72 7 23 18
27 28 21 43 -7 17 -9 17 -12 2 -2 -9 -15 -24 -29 -33 -33 -21 -57 -5 -44 29
11 31 3 40 -50 55 -25 7 -57 25 -72 39 -39 36 -37 84 12 236 21 68 44 154 51
190 10 61 9 69 -12 113 -13 26 -42 67 -66 90 -37 38 -48 43 -85 42 -24 0 -64
-6 -91 -13z"/>
<path d="M2100 3094 c-30 -18 -73 -80 -67 -97 2 -6 16 8 33 31 35 49 60 62
119 62 25 0 45 5 45 10 0 16 -102 11 -130 -6z"/>
<path d="M2133 3049 c-6 -8 -20 -33 -32 -57 -28 -56 -17 -76 51 -97 61 -18 80
-18 132 -4 39 11 96 60 96 83 0 6 -29 26 -65 44 -75 37 -164 52 -182 31z m161
-42 c64 -30 69 -46 24 -80 -33 -24 -127 -29 -176 -8 -30 13 -33 17 -28 45 4
16 13 41 22 54 14 21 22 24 59 20 23 -3 68 -17 99 -31z"/>
<path d="M1465 3010 c-16 -17 -16 -20 -2 -20 9 0 19 5 22 10 3 6 31 10 61 10
30 0 54 5 54 10 0 6 -26 10 -58 10 -46 0 -63 -4 -77 -20z"/>
<path d="M1483 2951 c-54 -45 -41 -81 41 -115 37 -15 41 -15 83 5 49 24 66 48
61 87 -4 34 -39 52 -103 51 -40 0 -56 -5 -82 -28z m148 -1 c42 -23 9 -84 -56
-103 -24 -8 -99 32 -103 54 -8 40 109 75 159 49z"/>
<path d="M2140 2853 c0 -26 127 -45 174 -27 33 13 13 19 -61 19 -43 0 -86 4
-95 9 -11 5 -18 4 -18 -1z"/>
<path d="M1464 2779 c-13 -21 103 -26 130 -6 15 11 6 13 -54 12 -40 0 -74 -3
-76 -6z"/>
<path d="M1907 2633 c-15 -15 -5 -22 23 -16 24 4 37 0 56 -18 34 -31 47 -65
34 -89 -6 -12 -7 -21 -1 -25 15 -9 33 34 27 61 -4 13 -20 39 -37 59 -24 26
-39 35 -63 35 -18 0 -36 -3 -39 -7z"/>
<path d="M1848 2494 c-16 -8 -28 -21 -28 -29 0 -20 35 -28 59 -14 15 10 25 10
47 1 36 -17 37 -12 8 26 -28 35 -45 39 -86 16z"/>
<path d="M2706 2304 c-32 -125 -71 -181 -169 -241 -39 -23 -55 -39 -49 -45 7
-7 34 6 81 36 98 63 146 142 168 279 10 63 -13 42 -31 -29z"/>
<path d="M1870 2290 c-26 -21 -94 -27 -105 -10 -12 19 -35 10 -55 -22 -25 -42
-25 -55 0 -63 13 -4 20 -15 20 -31 0 -14 11 -36 25 -50 20 -20 34 -25 73 -24
26 1 72 -1 103 -5 54 -7 61 -6 133 34 42 24 76 47 76 52 0 14 -7 12 -82 -32
-66 -39 -74 -41 -122 -34 -28 3 -75 7 -104 8 -40 2 -57 7 -68 21 -24 33 -17
46 24 45 20 -1 80 6 132 15 52 9 128 16 168 16 79 0 94 13 32 30 -22 6 -68 24
-102 40 -73 35 -113 37 -148 10z m145 -31 l50 -23 -104 -13 c-57 -7 -115 -16
-129 -21 -29 -9 -112 6 -112 20 0 5 5 18 10 29 10 18 12 18 35 3 28 -19 66
-13 110 17 35 24 68 21 140 -12z"/>
<path d="M3120 2258 c0 -18 12 -91 26 -163 44 -220 43 -413 -3 -677 -9 -54
-14 -101 -10 -104 12 -13 27 8 27 39 0 18 5 50 10 72 20 86 42 342 37 425 -8
104 -67 440 -79 440 -4 0 -8 -15 -8 -32z"/>
<path d="M2570 1496 c0 -33 -76 -143 -111 -161 -15 -8 -53 -15 -84 -15 -69 0
-73 -23 -5 -28 59 -4 84 3 124 38 69 61 132 190 92 190 -10 0 -16 -9 -16 -24z"/>
</g>
</svg>
