<svg xmlns="http://www.w3.org/2000/svg" viewBox="0 0 400 400"><defs><style>.cls-1{fill:#e1edf3;}.cls-2{fill:#1971b9;}.cls-3{fill:#77b4e3;}.cls-4{fill:#448cca;}</style></defs><g id="Layer_2" data-name="Layer 2"><g id="Layer_1-2" data-name="Layer 1"><circle class="cls-1" cx="200" cy="200" r="200"/><path class="cls-2" d="M311.2,88.2c.2,3,.5,5,.5,7.1,0,52.9.1,105.9-.2,158.8,0,3.2-1.2,7.4-3.4,9.4C291.7,279,275,294,258.3,309.1a28.2,28.2,0,0,1-4.2,2.7c-.2-2.9-.5-4.9-.5-7,0-50.4-.1-100.7.2-151.1a16.7,16.7,0,0,1,4.1-10.4c16.2-17.5,32.8-34.7,49.3-52C308.1,90.3,309.3,89.7,311.2,88.2Z"/><path class="cls-3" d="M88.3,89.4c5.4,5.4,10.2,10,14.8,14.7,12.5,13.1,25.1,26.3,37.3,39.7a14.7,14.7,0,0,1,3.9,9.2q.4,53.1.1,106c-.1,2.8-1.4,6.5-3.4,8.3-16.5,14.4-33.2,28.5-49.9,42.7a12.5,12.5,0,0,1-2.8,1.3Z"/><path class="cls-4" d="M171.2,177.5c6.4,5.2,11.7,9.7,17.2,14,12.1,9.5,7.4,9.6,19.1-.2,6.4-5.2,12.4-10.8,19.6-17.1a53.6,53.6,0,0,1,.7,6.3c0,24.8.1,49.7-.1,74.6,0,2.6-.9,6.1-2.8,7.9-16.8,15.8-33.9,31.3-50.9,46.8a20,20,0,0,1-2.8,1.5Z"/></g></g></svg>