<svg id="Group_96" data-name="Group 96" xmlns="http://www.w3.org/2000/svg" width="100" height="100" viewBox="0 0 100 100">
  <rect id="Rectangle_5" data-name="Rectangle 5" width="100" height="100" fill="none"/>
  <g id="Group_95" data-name="Group 95">
    <g id="Group_94" data-name="Group 94">
      <g id="Group_24" data-name="Group 24">
        <path id="Union_2" data-name="Union 2" d="M1460.441,1279.135c-1.348-3.028.626-6.847,4.411-8.532a8.543,8.543,0,0,1,5.432-.584c.578-3.409,3.659-6.4,7.827-7.207,5.15-1,10.009,1.7,10.851,6.041s-2.648,8.664-7.8,9.665a10.411,10.411,0,0,1-7.131-1.068,8.4,8.4,0,0,1-4.3,4.115,8.969,8.969,0,0,1-3.634.793A5.946,5.946,0,0,1,1460.441,1279.135Z" transform="translate(-1424.355 -1239.934)" fill="#ff4141"/>
        <path id="Path_21" data-name="Path 21" d="M-1428.943,144.465l-12.646-10.538-3.928,10.538,1.341,4.6-1.341,3.64,3.928,13.029,12.646-12.167Z" transform="translate(1458 -94)" fill="#ff4141"/>
      </g>
      <g id="Group_93" data-name="Group 93">
        <path id="Path_20" data-name="Path 20" d="M7.5,0C11.25,0,15,18,15,18l-13.252.171S3.75,0,7.5,0Z" transform="translate(39.456 82.995) rotate(-120)" fill="#ffa54b"/>
        <path id="Path_19" data-name="Path 19" d="M30.41,0C47.2,0,60.82,18.117,60.82,18.117S47.2,36.234,30.41,36.234,0,28.123,0,18.117,13.615,0,30.41,0Z" transform="translate(27 36.766)" fill="#ffa54b"/>
      </g>
    </g>
    <g id="fish_5_" data-name="fish (5)" transform="translate(10 -51.894)">
      <path id="Path_16" data-name="Path 16" d="M79.636,105.695c-.381-.609-8.952-14.1-22.611-17.884a12.4,12.4,0,0,0-1.488-9.221,11.521,11.521,0,0,0-20,.214c-8.522-.9-14.9,7.611-12.365,15.753a23.809,23.809,0,0,0-5.093,4.674,37.565,37.565,0,0,1-8.959-9.694,2.326,2.326,0,0,0-3.61-.362C.43,94.325-2.1,101.064,2.16,107c-4.259,5.93-1.731,12.669,3.349,17.82a2.326,2.326,0,0,0,3.61-.362,37.539,37.539,0,0,1,8.981-9.71,28.751,28.751,0,0,0,9.206,7.092,13.941,13.941,0,0,1-3.544,3.2,2.394,2.394,0,0,0,.252,4.211,19.747,19.747,0,0,0,19.992-2.5,51.732,51.732,0,0,0,5.976.351c7.369,0,14.847-3.281,21.625-9.49a50.2,50.2,0,0,0,8.028-9.368,2.4,2.4,0,0,0,0-2.545ZM36.223,83.763a2.336,2.336,0,0,0,2.835-1.44,7.013,7.013,0,0,1,6.548-4.679c4.884,0,7.954,4.909,6.791,9.318a50,50,0,0,0-25,5.083C26.61,86.989,31.075,82.273,36.223,83.763ZM6.979,119.308a11.628,11.628,0,0,1-2.128-4.4A6.5,6.5,0,0,1,6.9,108.677a2.4,2.4,0,0,0,0-3.362,6.5,6.5,0,0,1-2.051-6.227,11.635,11.635,0,0,1,2.128-4.406,40.652,40.652,0,0,0,8.769,8.707,10.81,10.81,0,0,0,.008,7.209,40.65,40.65,0,0,0-8.777,8.712Zm61.4-5.148c-5.96,5.429-12.148,8.181-18.392,8.181-.607,0-1.217-.014-1.829-.038a27.581,27.581,0,0,0,4.114-9.73,2.379,2.379,0,0,0-1.758-2.851A2.345,2.345,0,0,0,47.7,111.5c-1.429,6.279-4.544,10.791-9.007,13.047a15.057,15.057,0,0,1-8.768,1.462,29.665,29.665,0,0,0,6.053-10.773,2.381,2.381,0,0,0-1.592-2.945,2.342,2.342,0,0,0-2.91,1.61,25.888,25.888,0,0,1-1.614,3.913c-4.3-2.12-7.517-4.768-9.046-7.435a1.2,1.2,0,0,0-.111-.2,6.29,6.29,0,0,1,.043-6.5c4.622-8.34,22.414-13.448,32.78-11.789,8.368,1.34,16.231,8.133,21.271,15.077A48.224,48.224,0,0,1,68.375,114.161Z" transform="translate(0)" fill="#171753"/>
      <path id="Path_17" data-name="Path 17" d="M372.375,241.258a2.354,2.354,0,1,0-.848,4.266,2.355,2.355,0,0,0,.848-4.266Z" transform="translate(-311.084 -141.321)" fill="#171753"/>
    </g>
  </g>
</svg>
