<svg xmlns="http://www.w3.org/2000/svg" viewBox="0 0 400 400"><defs><style>.cls-1{fill:#11d078;}.cls-2{fill:#fff;}</style></defs><g id="Layer_2" data-name="Layer 2"><g id="Layer_1-2" data-name="Layer 1"><circle class="cls-1" cx="200" cy="200" r="200"/><path class="cls-2" d="M118.4,199.2c1.7-3.1,3.4-6.1,5.2-9.1,5.2-8.7,10.5-17.3,15.8-26,3-4.9,7.4-7.7,13.1-9,8.9-2,17.9-4.2,26.7-6.8a13,13,0,0,0,6.8-4.4c18.6-25,44.7-37.9,73.6-46.2,18.8-5.5,38.1-8.4,57.6-9.9h4.2a25.8,25.8,0,0,1,.7,3.4c-2.4,38.1-10.1,74.8-31.4,107.4-6.3,9.8-14.7,17.6-23.6,24.8a14.9,14.9,0,0,0-5.4,8.2c-2,8.8-4.4,17.5-6.5,26.3A20.5,20.5,0,0,1,245,272c-10.2,6.1-20.2,12.4-30.3,18.5a35.1,35.1,0,0,1-4.4,1.9c.7-2.1,1.1-3.4,1.6-4.7,2.6-7.6,5.5-15.1,8-22.8a24.9,24.9,0,0,0,.8-7.2c0-6.4-1-7.3-7.3-8.3a81,81,0,0,1-12-3c-2.4-.9-4.1-1.1-6,1-4.9,5.3-11.1,7.1-18.3,6.9s-13.4-.1-20.3-.1c0-10.2-.5-19.6.3-28.8.3-3.5,3.4-7,5.9-10s2.2-3.8,1.2-6.5a61.3,61.3,0,0,1-3.1-11.9c-1.1-6-2.4-7.5-8.4-7.2-9.4.4-18,3.6-26.5,7.3-2.3,1.1-4.7,2-7,3ZM312.3,97.1c-14.4,2.6-27.3,4.6-40.1,7.4-18.6,4-36.5,10.5-52.5,21-18.8,12.3-32.1,29.7-43.3,48.9a44,44,0,0,0-4.9,11.9c-1.5,6.7-2.1,13.6,2.2,19.7,8.8-6.4,16.7-13.7,25.9-18.5s20.2-5.8,31.9-8.2c-3,11.4-4.3,22.2-8.7,31.5s-12.2,17.4-18.7,26.4c9.1,4.1,17.8,3.4,26.4-.4,11.3-5,20.7-12.7,30.4-20.2a112,112,0,0,0,34.6-46.4,232.7,232.7,0,0,0,15.3-59.8C311.3,106.6,311.7,102.7,312.3,97.1ZM172.1,244.3c6.8.7,12.7,1.3,16.9-4,8.1-10.1,16.1-20.3,23.7-30.8,3.6-4.8,4.3-10.8,4.8-18.3-6.9,2.7-13.2,4-18.1,7.4-9.6,6.5-18.3,14.4-27.6,21.4-5.9,4.5-6.6,10.2-5.1,18l27.6-22.7.8.8Zm-10-62.4c3.7-7.1,7.1-14,10.7-21l-1.6-.3-14.8,3.6c-7.4,1.8-14.2,9.5-15.4,17.5C147.8,180.4,154.6,178.7,162.1,181.9Zm67.5,88.5c4.1-2.5,8.4-5.1,12.6-7.9a6.1,6.1,0,0,0,2.4-2.9c2-6.9,3.7-13.9,5.8-22.1L229.6,248Z"/><path class="cls-2" d="M125.7,222.7c-5.2,15.3-10.4,30.4-15.3,45.5-3.3,10.2-7.2,20.2-12.9,29.3a41.3,41.3,0,0,0-2.1,4.5c36.7,3.2,70.7-.8,100-25.6-1.3,1.7-2.5,3.5-3.9,5.1-13.4,15.3-30.9,23.7-50.4,27.8s-41.4,3.4-62.1,0c-.3-.1-.5-.5-1.1-.9a24,24,0,0,1,1.8-2.6c11.7-13.3,19.8-28.6,25.8-45.2a146.8,146.8,0,0,1,18.3-35.4A27.1,27.1,0,0,1,125.7,222.7Z"/><path class="cls-2" d="M261.8,173.2a24.9,24.9,0,1,1,25.1-25.1A25.1,25.1,0,0,1,261.8,173.2Zm15.3-24.7c.1-8.5-6.8-15.7-15-15.7a15.6,15.6,0,0,0-.2,31.2A15.3,15.3,0,0,0,277.1,148.5Z"/></g></g></svg>