<svg viewBox="452 0 157 157" width="157" height="157" fill="none" xmlns="http://www.w3.org/2000/svg">
<path d="M38.1653 128C26.436 128 17.1428 124.736 10.2857 118.209C3.42856 111.591 0 102.162 0 89.9231V67.0769C0 54.8379 3.42856 45.4547 10.2857 38.9272C17.1428 32.3091 26.436 29 38.1653 29C49.8043 29 58.7818 32.2184 65.0975 38.6552C71.5035 45.0014 74.7065 53.75 74.7065 64.9011V65.717H57.1126V64.3571C57.1126 58.7363 55.5337 54.1126 52.3758 50.4863C49.3081 46.8599 44.5713 45.0467 38.1653 45.0467C31.8495 45.0467 26.8871 46.9959 23.2781 50.8942C19.6691 54.7926 17.8646 60.0962 17.8646 66.8049V90.1951C17.8646 96.8132 19.6691 102.117 23.2781 106.106C26.8871 110.004 31.8495 111.953 38.1653 111.953C44.5713 111.953 49.3081 110.14 52.3758 106.514C55.5337 102.797 57.1126 98.1731 57.1126 92.6429V90.1951H74.7065V92.0989C74.7065 103.25 71.5035 112.044 65.0975 118.481C58.7818 124.827 49.8043 128 38.1653 128Z" fill="white"/>
<path d="M81.7092 126.096L106.611 30.9038H137.739L162.641 126.096H144.235L139.092 105.154H105.258L100.115 126.096H81.7092ZM109.453 88.5632H134.897L123.393 42.1909H120.957L109.453 88.5632Z" fill="white"/>
<path d="M209.188 128C197.459 128 188.165 124.736 181.308 118.209C174.451 111.591 171.023 102.162 171.023 89.9231V67.0769C171.023 54.8379 174.451 45.4547 181.308 38.9272C188.165 32.3091 197.459 29 209.188 29C220.827 29 229.804 32.2184 236.12 38.6552C242.526 45.0014 245.729 53.75 245.729 64.9011V65.717H228.135V64.3571C228.135 58.7363 226.556 54.1126 223.398 50.4863C220.331 46.8599 215.594 45.0467 209.188 45.0467C202.872 45.0467 197.91 46.9959 194.301 50.8942C190.692 54.7926 188.887 60.0962 188.887 66.8049V90.1951C188.887 96.8132 190.692 102.117 194.301 106.106C197.91 110.004 202.872 111.953 209.188 111.953C215.594 111.953 220.331 110.14 223.398 106.514C226.556 102.797 228.135 98.1731 228.135 92.6429V90.1951H245.729V92.0989C245.729 103.25 242.526 112.044 236.12 118.481C229.804 124.827 220.827 128 209.188 128Z" fill="white"/>
<path d="M252.732 126.096L277.634 30.9038H308.762L333.664 126.096H315.258L310.115 105.154H276.281L271.138 126.096H252.732ZM280.476 88.5632H305.92L294.416 42.1909H291.98L280.476 88.5632Z" fill="white"/>
<path d="M381.023 128C369.113 128 359.639 124.736 352.602 118.209C345.564 111.591 342.045 102.162 342.045 89.9231V67.0769C342.045 54.8379 345.564 45.4547 352.602 38.9272C359.639 32.3091 369.113 29 381.023 29C392.932 29 402.406 32.3091 409.444 38.9272C416.481 45.4547 420 54.8379 420 67.0769V89.9231C420 102.162 416.481 111.591 409.444 118.209C402.406 124.736 392.932 128 381.023 128ZM381.023 111.953C387.699 111.953 392.887 110.004 396.587 106.106C400.286 102.207 402.135 96.9945 402.135 90.467V66.533C402.135 60.0055 400.286 54.7926 396.587 50.8942C392.887 46.9959 387.699 45.0467 381.023 45.0467C374.436 45.0467 369.248 46.9959 365.459 50.8942C361.76 54.7926 359.91 60.0055 359.91 66.533V90.467C359.91 96.9945 361.76 102.207 365.459 106.106C369.248 110.004 374.436 111.953 381.023 111.953Z" fill="white"/>
<g clip-path="url(#clip0_5977_43873)">
<path d="M389.199 -14.7786C459.873 39.9641 604.859 39.9641 675.533 -14.7786V-40.2007C604.859 32.7712 459.873 32.7712 389.199 -40.2007C389.199 -31.7449 389.199 -23.2892 389.199 -14.7786Z" fill="url(#paint0_linear_5977_43873)"/>
<path d="M389.199 38.9449C459.873 61.7863 604.859 61.7863 675.533 38.9449V13.5228C604.859 54.5386 459.873 54.5386 389.199 13.5228C389.199 21.9785 389.199 30.4342 389.199 38.9449Z" fill="url(#paint1_linear_5977_43873)"/>
<path d="M389.199 92.6376C459.873 83.523 604.859 83.523 675.533 92.6376V67.2155C604.859 76.3302 459.873 76.3302 389.199 67.2155C389.199 75.6713 389.199 84.127 389.199 92.6376Z" fill="url(#paint2_linear_5977_43873)"/>
<path d="M389.199 146.382C459.873 105.366 604.859 105.366 675.533 146.382V120.96C604.859 98.1181 459.873 98.1181 389.199 120.96C389.199 129.415 389.199 137.871 389.199 146.382Z" fill="url(#paint3_linear_5977_43873)"/>
<path d="M389.199 200.082C459.873 127.11 604.859 127.11 675.533 200.082V174.66C604.859 119.918 459.873 119.918 389.199 174.66C389.199 183.116 389.199 191.572 389.199 200.082Z" fill="url(#paint4_linear_5977_43873)"/>
<path fill-rule="evenodd" clip-rule="evenodd" d="M452.536 47.0999H468.236V86.3499H452.536V47.0999ZM609.536 117.75H593.836V86.3499H609.536V117.75Z" fill="url(#paint5_linear_5977_43873)"/>
</g>
<path d="M678.264 128C670.947 128 664.487 126.685 658.887 124.056C653.286 121.427 648.904 117.665 645.743 112.769C642.581 107.874 641 101.981 641 95.0907V91.283H658.616V95.0907C658.616 100.802 660.377 105.109 663.9 108.01C667.423 110.82 672.211 112.225 678.264 112.225C684.407 112.225 688.969 111.001 691.95 108.554C695.021 106.106 696.557 102.978 696.557 99.1703C696.557 96.5412 695.789 94.4107 694.253 92.7788C692.808 91.147 690.64 89.8324 687.749 88.8352C684.949 87.7472 681.516 86.75 677.451 85.8434L674.334 85.1635C667.83 83.7129 662.229 81.8997 657.532 79.7239C652.924 77.4574 649.356 74.511 646.827 70.8846C644.388 67.2582 643.168 62.544 643.168 56.7418C643.168 50.9396 644.523 45.9986 647.233 41.919C650.034 37.7486 653.918 34.5756 658.887 32.3997C663.945 30.1332 669.862 29 676.638 29C683.413 29 689.42 30.1786 694.66 32.5357C699.99 34.8022 704.145 38.2473 707.126 42.8709C710.198 47.4038 711.733 53.1154 711.733 60.0055V64.0852H694.118V60.0055C694.118 56.3791 693.395 53.478 691.95 51.3022C690.595 49.0357 688.607 47.4038 685.988 46.4066C683.368 45.3187 680.251 44.7747 676.638 44.7747C671.218 44.7747 667.198 45.8173 664.578 47.9025C662.048 49.897 660.784 52.6621 660.784 56.1978C660.784 58.5549 661.371 60.5494 662.545 62.1813C663.81 63.8132 665.662 65.1731 668.101 66.261C670.54 67.3489 673.657 68.3008 677.451 69.1168L680.567 69.7967C687.343 71.2472 693.214 73.1058 698.183 75.3723C703.242 77.6387 707.171 80.6305 709.972 84.3475C712.772 88.0646 714.172 92.8242 714.172 98.6264C714.172 104.429 712.682 109.551 709.701 113.993C706.81 118.345 702.655 121.79 697.234 124.328C691.905 126.776 685.581 128 678.264 128Z" fill="white"/>
<path d="M735.101 126.096L722.634 30.9038H740.385L749.599 113.585H752.039L763.963 30.9038H794.858L806.782 113.585H809.221L818.436 30.9038H836.187L823.72 126.096H792.825L780.63 41.511H778.191L765.996 126.096H735.101Z" fill="white"/>
<path d="M840.236 126.096L865.169 30.9038H896.335L921.268 126.096H902.839L897.69 105.154H863.814L858.665 126.096H840.236ZM868.015 88.5632H893.489L881.972 42.1909H879.532L868.015 88.5632Z" fill="white"/>
<path d="M932.622 126.096V30.9038H971.647C977.609 30.9038 982.849 32.1277 987.366 34.5756C991.973 36.9327 995.541 40.2871 998.07 44.6387C1000.69 48.9904 1002 54.158 1002 60.1415V62.0453C1002 67.9382 1000.64 73.1058 997.935 77.5481C995.315 81.8997 991.702 85.2995 987.095 87.7473C982.578 90.1044 977.429 91.283 971.647 91.283H950.508V126.096H932.622ZM950.508 74.9643H969.885C974.131 74.9643 977.564 73.7857 980.184 71.4286C982.804 69.0714 984.113 65.853 984.113 61.7734V60.4135C984.113 56.3338 982.804 53.1154 980.184 50.7582C977.564 48.4011 974.131 47.2225 969.885 47.2225H950.508V74.9643Z" fill="white"/>
<defs>
<linearGradient id="paint0_linear_5977_43873" x1="532.366" y1="-40.2007" x2="532.366" y2="200.082" gradientUnits="userSpaceOnUse">
<stop stop-color="#00FFA0"/>
<stop offset="1" stop-color="#00F2FA"/>
</linearGradient>
<linearGradient id="paint1_linear_5977_43873" x1="532.366" y1="-40.2007" x2="532.366" y2="200.082" gradientUnits="userSpaceOnUse">
<stop stop-color="#00FFA0"/>
<stop offset="1" stop-color="#00F2FA"/>
</linearGradient>
<linearGradient id="paint2_linear_5977_43873" x1="532.366" y1="-40.2007" x2="532.366" y2="200.082" gradientUnits="userSpaceOnUse">
<stop stop-color="#00FFA0"/>
<stop offset="1" stop-color="#00F2FA"/>
</linearGradient>
<linearGradient id="paint3_linear_5977_43873" x1="532.366" y1="-40.2007" x2="532.366" y2="200.082" gradientUnits="userSpaceOnUse">
<stop stop-color="#00FFA0"/>
<stop offset="1" stop-color="#00F2FA"/>
</linearGradient>
<linearGradient id="paint4_linear_5977_43873" x1="532.366" y1="-40.2007" x2="532.366" y2="200.082" gradientUnits="userSpaceOnUse">
<stop stop-color="#00FFA0"/>
<stop offset="1" stop-color="#00F2FA"/>
</linearGradient>
<linearGradient id="paint5_linear_5977_43873" x1="532.366" y1="-40.2007" x2="532.366" y2="200.082" gradientUnits="userSpaceOnUse">
<stop stop-color="#00FFA0"/>
<stop offset="1" stop-color="#00F2FA"/>
</linearGradient>
<clipPath id="clip0_5977_43873">
<rect x="452" width="157" height="157" fill="white"/>
</clipPath>
</defs>
</svg>
