<svg xmlns="http://www.w3.org/2000/svg" xmlns:xlink="http://www.w3.org/1999/xlink" viewBox="0 0 400 400"><defs><style>.cls-1{fill:none;}.cls-2{clip-path:url(#clip-path);}.cls-3{fill:#2b3d6f;}.cls-4{fill:#2a3762;}.cls-5{fill:#fefefe;}.cls-6{fill:#829bbb;}.cls-7{fill:#d2dfe6;}.cls-8{fill:#607da4;}.cls-9{fill:#748eb3;}.cls-10{fill:#6784aa;}.cls-11{fill:#bbc6d8;}.cls-12{fill:#c6d2de;}.cls-13{fill:#ccd8e2;}.cls-14{fill:#2c3966;}.cls-15{fill:#b9c3d6;}.cls-16{fill:#607da5;}.cls-17{fill:#b7c1d4;}.cls-18{fill:#cedae3;}.cls-19{fill:#c3cfdd;}.cls-20{fill:#c5d0dd;}.cls-21{fill:#93abc6;}.cls-22{fill:#607ea6;}.cls-23{fill:#fdfefd;}.cls-24{fill:#6b87ad;}.cls-25{fill:#7892b6;}.cls-26{fill:#8fa6c3;}.cls-27{fill:#728db2;}.cls-28{fill:#8099ba;}</style><clipPath id="clip-path" transform="translate(0 0)"><circle class="cls-1" cx="200" cy="200" r="200"/></clipPath></defs><g id="Layer_2" data-name="Layer 2"><g id="Layer_1-2" data-name="Layer 1"><g class="cls-2"><path class="cls-3" d="M.1,202Q.1,103.3,0,4.7C0,1.2.4,0,4.5,0h391c4.1,0,4.5,1.2,4.5,4.7q-.2,98.7-.1,197.3c-1.5,1.9-3.6,2.1-5.8,2.2-11.3.3-22.5-.6-33.8-.1-4,.2-6.5-1.7-7.4-5.7a49.3,49.3,0,0,1-1.5-10.8c0-8.6.7-17.3-1.5-25.7-.4-13.4-.1-26.8-.2-40.2a28.8,28.8,0,0,0-.4-5.9c-.2-1.9-1.8-2.2-3.1-2.9q-70.5-40.5-140.9-81c-4.1-2.3-7.2-2.2-11.1,0C167.1,47.7,139.7,63.1,112.6,79c-10.3,6-20.9,11.5-31.2,17.7a12.5,12.5,0,0,1-4.7,1.6c-4.6.1-7.9,2.5-10.7,6a6.2,6.2,0,0,1-3.5,2.2c-4.5,2.2-10.7,1.8-12.4,8.1a9.7,9.7,0,0,0-.1,1.7c.7,15.4.1,30.9.3,46.3.1,4.8,0,9.7.1,14.5-.3,11,0,22,0,33-.9,5.2.2,10.4,0,15.7-.4,8.7.2,17.4-.3,26.1s.3,19.7.2,29.6c-.1,2.4.3,5-1.4,7.1s-3.3-1.1-3.7-2.9a23.2,23.2,0,0,1-.3-5.9c0-24.6-.2-49.3,0-73.9.1-7.2,2-14.4,1.1-20.5-.1,2.5.3,6.2.1,9.9-.1,1.7-.1,3.9-1.8,4.4-4.4,1.2-8.1,4.5-13,4.5-8.5-.1-16.9-.5-25.4,0C3.7,204.3,1.6,203.9.1,202Z" transform="translate(0 0)"/><path class="cls-4" d="M351.9,162c1.8,2.6.9,5.5,1,8.2.4,8.5-.9,17,1,25.3.7,2.7.5,5.8,4.3,6.5,5.6.9,9.4-.1,12.1-3.8,1,3.3,3.1,4,6.2,3.9,7.8-.3,15.6-.1,23.4-.1v8c-1.5,1.8-3.6,1.5-5.5,1.5h0c1.9,0,4-.3,5.5,1.5q0,91.5.1,182.9c0,3.4-.7,4.1-4.1,4.1Q200,399.8,4.1,400c-3.4,0-4.1-.7-4.1-4.1Q.2,299,.1,202c4,0,8-.1,12,.1,2.5.1,4.4-.3,5.2-3.6.9,3.5,3.1,3.6,5.6,3.5h7.9c2.5.1,4.6,0,6.1-2.5a2.8,2.8,0,0,1,3.1-1.2c5.9,1.6,5.2-2.6,5.3-6.1s-.1-8.3-.2-12.4a5,5,0,0,1,1.3-3.6c1,1.8.6,3.5.6,5.2.1,33.7.1,67.5.1,101.2,0,2.2-.5,4.4.7,6.4,2.6-.8,4.6.6,6.6,1.7,46.3,26.4,92.7,52.9,138.8,79.7,2.1,1.3,4.2,2.7,6.7,3.2,11.9-5.8,23-13,34.5-19.5,3.4-1.9,6.6-3.8,10-5.5,14.5-8.5,28.9-17,43.5-25.1,11.5-8,24.2-14,36.5-20.6,6.5-3.3,12.1-8.2,18.7-11.3s6.7-6.5,6.7-12c-.2-32-.1-63.9-.1-95.9,0-5.3-.1-10.6.1-15.9C349.8,165.6,349.6,163.3,351.9,162Z" transform="translate(0 0)"/><path class="cls-3" d="M399.9,213H366.5c-1.2,0-2.7-.1-2.7-1.5s1.6-1.4,2.7-1.4h33.4Z" transform="translate(0 0)"/><path class="cls-5" d="M76.1,97l67.3-38.3,52.8-30.3c2.1-1.2,3.8-2,6.4-.5l147.5,84.8.8.7c1.2,2.1-.5,3.1-1.8,3.9-7.4,4.5-14.9,9-22.7,13h-1.5c-8.5-3.5-15.9-8.9-23.9-13.3s-16.5-9.1-24.5-14.1c-1.9-.7-3.2.6-4.6,1.3-8.5,4.5-16.5,10-25.1,14.5-15.7,9.2-31.3,18.6-47.1,27.6q-21.3,13-43.1,25.4a11.2,11.2,0,0,1-6.6,1.8c-9.2-3.9-18.2-8.1-25.4-15.3.3-3.9,3.7-4.9,6.3-6.4q31.7-18.9,63.6-37.4c8.8-5.1,17.2-10.8,26.4-15.1C227,95,233.7,91.7,240,87.7c4.3-2.7,4.3-3.1-.1-5.7q-19.8-11.4-39.7-22.7c-1.9-.6-3.1,1-4.5,1.7-13,7.6-26,15.3-39.2,22.5s-27.7,16.2-41.8,24c-11.4,7.2-23.5,13.4-35,20.5a9.4,9.4,0,0,1-5.7,1.5,7.9,7.9,0,0,1-5.1-1.4c-5.3-3.3-10.8-6.1-16.2-9.2a9.2,9.2,0,0,1-4.5-5,1.3,1.3,0,0,0-.1-.6c3.7-4.4,9.3-5.6,14-8.2a5.3,5.3,0,0,0,3.2-1.9C68.6,100.6,71.8,97.9,76.1,97Z" transform="translate(0 0)"/><path class="cls-6" d="M200,375.9c-5.6-1.5-10-5-14.9-7.8q-66.4-38-132.7-76.1c-1.6-.9-3-2-4.6-3l.3-37a3.3,3.3,0,0,1,4.6.1c4.5,3.6,10.6,4.7,14.4,9.3.7.7,1.5,1.6,2.5,1.3s1.2-1.8,1.3-2.9c.2-3.1-.3-6.3.3-9.4s.4-4.9,3.9-2.9c1.9,3.4.9,7.1,1.2,10.6s-.7,9.5.5,14.2c7.2,5.6,15.5,9.5,23.4,14.1,22,12.6,43.9,25.4,66,37.8,4.3,2.4,4.6,2.2,4.7-2.6s0-10,0-15c.1-2,0-4,1.6-5.6a1.4,1.4,0,0,1,1.4-.2c2.5,1.5,2.2,3.9,2.2,6.2.2,6,0,11.9.1,17.9.1,2,.1,4.2,2.5,4.9,5,1.5,8.6,4.8,12.3,8.2,1.3,1.2,3.1,2.9,4.7,2.3s1.1-3.3,1.1-5c.2-8.6-.2-17.2.2-25.8.6-1.7.2-3.8,2.1-4.8a2,2,0,0,1,1.8.6c1.6,2,1.3,4.4,1.3,6.7.1,18.7.1,37.3,0,56C202.2,370.8,202.2,373.7,200,375.9Z" transform="translate(0 0)"/><path class="cls-7" d="M325.9,129.1c6.7-5.7,15-8.9,22.4-13.6.9-.7,2.2-.9,2.6-2.1,1.6,1.4.8,3.4.8,5.1.1,14.5.2,29,.2,43.5s-.2,28.6-.2,42.9q0,39.8.1,79.7c0,2.6-.1,4.8-2.8,6.3l-25.2,14c-2.5.9-2.7-.7-2.4-2.5a6.3,6.3,0,0,1,3-3.8c1.3-.8,1.5-1.4.2-2.5s-1.1-4.5.5-6.5c3.4-4.3,3.9-11.7.8-16.1a9,9,0,0,1-1.5-5.2c.1-6.9.2-13.9-.8-20.8,1.8-36.9.4-73.9.9-110.8C324.5,134.1,323.8,131.3,325.9,129.1Z" transform="translate(0 0)"/><path class="cls-8" d="M48.2,113.9l25.6,14.4a4.6,4.6,0,0,1,2.3,4.2c.1,20.9.7,41.9-.3,62.8-2.4,4-4.5,1.8-5.9-.6s-3.8-6.1-7.9-6.9a4.2,4.2,0,0,1-2.8-2.7c-1.1-2.4-3-3.4-5.5-3.7a6.4,6.4,0,0,1-5.6-4.4C48.2,156,48.2,134.9,48.2,113.9Z" transform="translate(0 0)"/><path class="cls-9" d="M74,247c-1.9,4.8-.5,9.8-.9,14.7-.2,1.8.1,3.8-2.1,4.6s-3-.8-4.1-2c-5.1-5.8-12.6-8-18.8-12.3V210c3.4-1.1,5.4,1.3,7.4,3.1a33,33,0,0,0,9.7,6.7c6.5,2.8,8.8,9,10.9,15.3C75.7,239.1,77.9,243.6,74,247Z" transform="translate(0 0)"/><path class="cls-10" d="M73.9,234c-2.3-7.2-6.9-11.6-14.1-14.4-4.5-1.8-7.2-7-11.7-9.6V177c1.5,1.1,3,2.2,5,2.2,4.1-.2,7,1.3,8.1,5.6.2.5.8,1.5,1.1,1.5,7.5-1,7.5,6,10.5,9.7a5.8,5.8,0,0,0,1.2,1c2.2,1.3,2.2,3.5,2.2,5.6.2,8.6.2,17.2,0,25.7C76.2,230.5,76.2,232.7,73.9,234Z" transform="translate(0 0)"/><path class="cls-4" d="M62.1,105.1l-14,8.2c.6-2.9,2.3-4.9,5.3-5S58.4,103.9,62.1,105.1Z" transform="translate(0 0)"/><path class="cls-4" d="M76.1,97a58.1,58.1,0,0,1-10.8,6.2C66.2,100.1,72.6,96.4,76.1,97Z" transform="translate(0 0)"/><path class="cls-11" d="M200,375.9c0-23.7-.1-47.3-.1-71-2-2.1-1.4-4.7-1.4-7.1V190.3c0-3.5-.1-7-1.6-10.2s-4.8,1.1-6.4-1.4.6-3.4,1.6-4.9c3.6-5.6,5.2-11.7,3.7-18.3-.9-4.1,1.6-7.2,3-10.6,10.5-7.1,21.7-12.9,32.5-19.4,4.8-2.9,9.8-5.6,14.7-8.4,2.7,1.6.7,3.4-.3,4.3-5.4,4.6-3.1,11.1-4.4,16.7-.3,1.3.7,2.4,1.6,3.5a8.2,8.2,0,0,1,1.4,8.4c-2.4,3.5-6.4,4.8-9.9,6.7s-6.3,6.1-6.3,11.3c.2,37.9.1,75.9.1,113.9,0,5.9.2,11.9-.3,17.9s.1,13.9.2,20.8,1,6.2,5.9,3.2l8.2-4.6c2-1.1,3.9-2,6-.5a3,3,0,0,1,0,3.8c-3.2,3.3-2.6,7.1-2.2,11.2s-.3,10.9-.8,16.3C230.3,359.1,215.4,367.9,200,375.9Z" transform="translate(0 0)"/><path class="cls-12" d="M245.2,350c-2.2-1.8-2.5-4.2-1.8-6.7a23.7,23.7,0,0,0,.3-10.9c-.9-4.4-1.1-8.1,3.1-11,.7-.5.8-1.7,1.2-2.6-.5-2.8,1.6-3.9,3.4-4.9,13-7.6,26.1-15.2,39.3-22.6,1.7-1,3.5-2,5.5-.5a3.3,3.3,0,0,1,0,4.2c-4.6,5.7-2.8,12.8-3.6,19.1-.5,4.3-1,7.8-4,10.8C274.5,333.9,259.9,342,245.2,350Z" transform="translate(0 0)"/><path class="cls-13" d="M288.6,324.9c-1.2-.5-.9-1.2-.1-1.7s2.5-2.1,2.1-3.2c-1.9-5.6,1.6-11,.5-16.5-.6-3,.6-5.4,2.3-7.8s2.3-2.8,2.6-4.7,2.1-3.7,3.9-4.9c6.3-3.9,12.8-7.6,19.3-11.1,1.6-.9,3.2-1.7,3.5-3.8.1-5.7-.1-11.3.1-16.9.1-2.3-.1-4.9,3.1-5.4,0,5.3,0,10.6.1,15.9,0,3-.4,5.8,2.8,8.3s1.2,15.1-1.9,17.9c-1,.8-2.6,1.3-2.2,3s2,.7,3.1,1.1,3.6.8,3.2,3-2.1,1.3-3.6,1.4c-3.2.2-4.9,2.9-3.6,5.4C312.6,312.5,300,317.7,288.6,324.9Z" transform="translate(0 0)"/><path class="cls-14" d="M221.9,100.7l-93.4,54.9-3.3,2.2c2.7,4.2,2.1,8.9,1.9,13.6-.7,2.2.1,4.4.2,6.6-1.3,7-.6,8.7,5.5,12s11.4,7.2,17.6,9.8c6.3-1.8,11.3-6,17-8.8,2.7-1.4,5.6-3.7,8.2.2a5.2,5.2,0,0,1,.5,2.4c.2,21.8.5,43.5-.1,65.2.3,9.7.3,19.3.2,29,0,2.8.2,5.6-.5,8.4s-.3,4-2.8,4.5v.2c-2.5,1.3-4.5-.3-6.4-1.4q-30.3-17.2-60.4-34.7c-3.1-1.7-6.6-3.2-8-7a41.7,41.7,0,0,1-.4-7c0-32.7.1-65.5-.1-98.2,0-6.7,1.5-11.7,7.9-14.6,2.5-1.1,4.1-3.9,7.2-4.2,11.7-5.9,22.9-12.8,34.2-19.4,14.3-7.9,28.4-16.2,42.6-24.3,3.3-1.9,6.5-4.1,10.5-4.3,7.6,2.1,13.9,6.8,20.6,10.7C222.1,97.3,223.3,98.8,221.9,100.7Z" transform="translate(0 0)"/><path class="cls-15" d="M115,135c-4.9,1.5-8.1,5.8-12.7,7.8-2.7,1.1-2,3.5-2,5.5q-.1,51.1-.1,102.1v8.5a4.4,4.4,0,0,1-2.3,3.7c-7.5,4-14.1,9.7-22.6,12.1-1.8-1.3-1.2-3.3-1.2-5-.1-7.6-.1-15.2-.1-22.7,0-4.4,0-8.7-.1-13,0-12.4,0-24.7.1-37-.1-22.9-.1-45.8-.2-68.7,10.6-5.1,20.4-11.4,30.6-17.1L114,106c3,.3,2.7,2.6,2.2,4.4-1.5,5.6-.4,11.4-1.8,17.1C113.8,130.1,116.7,132.4,115,135Z" transform="translate(0 0)"/><path class="cls-16" d="M277,100.9l43.5,25c1.6.9,3,2,4.5,3,.9,6,.4,12,.4,17.9.1,13.4,0,26.7,0,40,0,.9-.3,1.7-1.4,1.2a3.7,3.7,0,0,1-2-3.2c-.5-6.8-5-9.2-10.7-10.9-4.1-1.1-8.5-2.2-9.6-5.1,1.2,6.8-.1,15.6.6,24.3-1,8.3.4,16.7-.1,25.1-.1,1.9.2,3.9,0,5.9-.5,9,.3,18,0,27-.2,2.6.4,5.3-1.5,7.6a1.6,1.6,0,0,1-1.7.5c-3.1-2.1-2.2-5.3-2.2-8.2-.1-30.9-.4-61.7.2-92.6.1-9.7-2.3-16.2-11.5-20-4.2-1.7-8.5-3.7-11.9-7,.1-8.9,0-17.8.4-26.7C274,102.8,274.6,101.1,277,100.9Z" transform="translate(0 0)"/><path class="cls-17" d="M174,190.1c-6.4,2.6-12,6.7-18,10-1.8,1-3.6,2.4-5.9,1.8-1.7-2.6-1.2-5.5-.9-8.3s-.5-5.7,0-8.6-1.4-8.7.8-12.9c3.7-.2,6.3-2.8,9.3-4.4,13.3-7.5,26.4-15.2,39.5-22.8.2.3.6.6.5.8-2.5,6.9.1,14.2-1.4,21.2-1,4.7-4.6,8.1-6.9,12.2a1.6,1.6,0,0,1-.2,1.9C186,185.4,180.9,189.4,174,190.1Z" transform="translate(0 0)"/><path class="cls-18" d="M199.8,86.8,148,116.1c-1.4-1.6-.7-3.4.4-4.5,6.6-6.1,5.7-14,5.6-21.7,0-2.8-.2-5.7,2-7.9l42.3-25a1.9,1.9,0,0,1,2.7.1c2.2,8.4,1,17,1,25.6A4.2,4.2,0,0,1,199.8,86.8Z" transform="translate(0 0)"/><path class="cls-19" d="M156,82c.2,6.5.6,13,.5,19.5-.1,4.3-3.1,7.5-5.8,10.6-1.1,1.3-2.5,2.2-2.7,4-10.7,6.8-21.7,13-33,18.9-5.5-7.1-1-14.9-1.3-22.4-.1-2.2,2.1-4.3.3-6.6C127.6,97.3,141.9,89.9,156,82Z" transform="translate(0 0)"/><path class="cls-8" d="M199.8,86.8c0-8.2,0-16.5.1-24.7,0-1.7-.8-3.7,1.1-5,14.5,8.4,29,16.9,43.6,25.2,3.4,1.9,4.4,2.9.2,5.1-7.8,4.2-15.3,8.8-22.9,13.3-.1-2-1.9-2.5-3.3-3.3Z" transform="translate(0 0)"/><path class="cls-20" d="M277,100.9c-1.9,1.3-1.2,3.3-1.2,5-.1,6.6,0,13.2,0,19.8,0,2,0,3.9-1.9,5.3,0,1.9-1.3,2.9-2.7,3.8a233.5,233.5,0,0,1-22.8,12.9c-1.4.7-2.8,1.2-4.3.4s-2.1-4.4-4.1-6.4-1.5-5.9-.2-8.8,1.4-2.7-.1-4-.8-2.4.2-4,5.4-4.2,6.1-7.8l27.4-16.2C274.6,100.2,275.8,99.6,277,100.9Z" transform="translate(0 0)"/><path class="cls-21" d="M324.8,187.8c.1-19.6.2-39.2.2-58.9l.9.2V248.9c-1.8,6-.4,12.1-.9,18.1-.2,2,.6,4.3-1.1,6.1-.7.1.2.1-.5.2-4.2.3-21.9-9.4-23.7-13a1.7,1.7,0,0,1,.2-1.4c.1-11.6.1-23.2.1-34.8,1.8-1,3.1.2,4.5,1.1,4.7,2.8,9.5,5.2,13.9,8.5s4.3,1.5,4.4-2.4c.3-7.5-.5-15.1.5-22.7a88.1,88.1,0,0,1-.5-15.4C322.8,191.2,322.9,189.2,324.8,187.8Z" transform="translate(0 0)"/><path class="cls-22" d="M150,172.1c2.1,4.1.7,8.6.9,12.9-1.7,1.7-3.6,1.2-5.4.1-5.5-3.2-11.3-5.8-16.8-9.1-1.7-1-2.4-2.7-3.6-4,0-4.7.1-9.5.1-14.2Z" transform="translate(0 0)"/><path class="cls-23" d="M75.3,274.7c1.4-3.3,4.8-3.8,7.3-5.4,5.8-3.6,11.7-7,17.6-10.4l66.5,38.2,6.3,3.8c.1,8.7.3,17.3.3,26,0,4.9-2.7,2.3-4.4,1.3l-63.7-36.4Z" transform="translate(0 0)"/><path class="cls-9" d="M172.9,300.7l1-3.8c2.3-2.1,4.5-1.2,6.7.3,4.2,2.8,8.2,6,13.4,7,3,.6,3.7,3.5,5,5.7v31.5c0,1.1.4,2.6-.6,3.3s-2.3-.7-3.5-1.3c-6.8-3.3-10.6-11.2-19.2-11.8-2.1-.1-1.6-2.6-1.6-4.2v-21C174.1,304.4,174.4,302.3,172.9,300.7Z" transform="translate(0 0)"/><path class="cls-24" d="M199,309.9c-4.6-4.9-12-4.5-16.9-8.8-2.3-2-4.4-4.9-8.2-4.2V259c2.5-1.5,4.1.1,4.9,1.8,2.9,5.7,8,8.7,13.4,11.4s7,5.3,7.3,10.3c-.3,7.5.6,15-.5,22.5Z" transform="translate(0 0)"/><path class="cls-9" d="M199,305V280.9a30.8,30.8,0,0,1-2.3-11.6q.2-42.7.1-85.7a22.9,22.9,0,0,1,1-7.8c.8-.5,1.7-.7,2,.4a15.1,15.1,0,0,1,.2,3q0,62.9-.1,125.7Z" transform="translate(0 0)"/><path class="cls-14" d="M244.1,148.1,273.9,131c4.4-.4,7.4,2.7,10.8,4.6,14.4,7.7,14.4,7.8,14.4,24.1-.1,33.1-.1,66.2-.2,99.3,0,2.6-1.9,3.7-3.8,4.8-21,12.1-42.1,24.1-63.1,36.3-1.8,1.1-3.8,2.2-6,.7q0-69-.1-137.8c0-2.8.7-4.5,3.3-5.9C234.3,154.3,239.1,151.1,244.1,148.1Z" transform="translate(0 0)"/><path class="cls-5" d="M226,300.8,298.9,259h1c7.6,5.4,15.9,9.5,24,14.2-.8,3.7-4.5,4-7.1,5.6C310,283,302.9,286.9,296,291c-16.3,8.9-32.5,17.8-48,27.8-5.9,3.1-11.7,6.2-17.5,9.5-3.3,1.9-4.7,1.6-4.6-2.6C226.1,317.4,226,309.1,226,300.8Z" transform="translate(0 0)"/><path class="cls-16" d="M197.8,175.8c1.7,1.8,1.2,4.1,1.2,6.2v98.9c-2.5-4.1-6.6-6.1-10.6-8.3s-8.9-5.2-11-10.3c-.6-1.5-1.6-3-3.5-3.3.1-23,.1-45.9.1-68.9,5.1-4.6,11.8-6.6,17-11C193.1,177.6,195.2,176.1,197.8,175.8Z" transform="translate(0 0)"/><path class="cls-25" d="M125.1,172l21.3,11.3c1.4.8,2.7,1.8,4.5,1.7,0,3,.1,6,.1,9-1.9,1.7-3.8.7-5.5-.2-4-2.2-8-4.2-12-6.1s-7-4.4-8.4-8.6Z" transform="translate(0 0)"/><path class="cls-26" d="M125.1,179.1c7.5,6.9,17,10.3,25.9,14.9,0,2.7.4,5.4-.9,7.9-8.5-3.3-15.9-8.5-23.6-13.2C123,186.6,125.5,182.3,125.1,179.1Z" transform="translate(0 0)"/><path class="cls-27" d="M324.8,187.8v22.1c-3.8,1.6-6.5-1.3-9.5-2.6s-5.3-3.6-8.2-4.8a10.9,10.9,0,0,1-7.1-10.4V162.5c2.9,6.8,8.2,8.2,13.5,9.7,7.4,2,9.9,5.2,10.5,12.8A12.9,12.9,0,0,0,324.8,187.8Z" transform="translate(0 0)"/><path class="cls-28" d="M300,192.1a12.6,12.6,0,0,0,6.9,7.8c6.2,2.9,12,6.6,17.9,10v30c-8.8-5.7-17.5-9.7-24.8-15.8Z" transform="translate(0 0)"/></g></g></g></svg>