<?xml version="1.0" standalone="no"?>
<!DOCTYPE svg PUBLIC "-//W3C//DTD SVG 20010904//EN"
 "http://www.w3.org/TR/2001/REC-SVG-20010904/DTD/svg10.dtd">
<svg version="1.0" xmlns="http://www.w3.org/2000/svg"
 width="421.000000pt" height="256.000000pt" viewBox="0 0 421.000000 256.000000"
 preserveAspectRatio="xMidYMid meet">

<g transform="translate(0.000000,256.000000) scale(0.100000,-0.100000)"
fill="#000000" stroke="none">
<path d="M1837 1908 c-117 -288 -217 -543 -217 -554 0 -15 90 -177 95 -172 5
4 139 322 190 449 23 58 48 115 54 127 12 22 16 22 246 22 129 0 235 -3 235
-6 0 -4 -8 -28 -17 -55 l-18 -49 -176 0 -176 0 -21 -52 c-11 -29 -23 -61 -27
-70 -7 -17 5 -18 163 -18 l171 0 -21 -50 -21 -50 -159 0 -159 0 -19 -46 c-11
-25 -20 -50 -20 -55 0 -5 99 -9 234 -9 l234 0 67 173 c38 94 76 192 85 217
l18 45 -41 82 -41 83 -327 0 c-252 0 -328 -3 -332 -12z"/>
</g>
</svg>
