<svg width="256" height="256" viewBox="0 0 184 196" fill="none" xmlns="http://www.w3.org/2000/svg">
<path fill-rule="evenodd" clip-rule="evenodd" d="M45.3589 147.827C42.8152 147.146 41.8535 146.465 40.6312 144.462C40.2505 143.837 39.8443 143.085 39.4368 142.23C38.5373 140.342 37.6319 137.958 36.9819 135.362C36.5646 133.696 36.2518 131.943 35.9976 130.142C35.6767 127.866 35.4491 125.513 35.2222 123.159C34.7759 123.033 35.0435 122.75 35.8165 122.065C37.0388 120.984 39.5233 118.9 40.5848 116.837C41.6468 114.773 41.2865 112.729 39.1025 108.081C36.9192 103.434 32.9124 96.1823 30.8487 91.2734C28.7854 86.366 28.6652 83.8016 29.3664 81.1972C30.0675 78.5927 31.5904 75.9495 35.5966 72.0421C39.604 68.1361 46.0942 62.9657 54.1074 57.5577L54.4329 57.3393L54.6424 57.889C56.9964 64.0889 57.3568 64.7902 58.5987 65.1304C59.11 65.2701 59.7705 65.3503 60.5116 65.3489C59.9075 64.7947 59.3572 63.6373 58.1861 60.9362C56.4299 56.8846 53.2763 49.3609 51.364 42.3854C49.6907 36.282 48.9676 30.5976 48.9792 25.6427C21.1699 40.8179 2.30286 70.3261 2.30286 104.238C2.30286 144.972 29.5225 179.349 66.7651 190.172C66.8835 184.853 67.0019 179.534 67.6925 174.46C68.151 171.092 68.8613 167.832 69.672 164.74C70.0824 163.173 70.5188 161.648 70.9617 160.173C72.1549 156.196 73.3928 152.585 74.6337 149.008C69.5033 149.712 62.8418 149.789 57.4589 149.49C52.0302 149.19 47.9032 148.509 45.3589 147.827Z" fill="#FF3369"/>
<path fill-rule="evenodd" clip-rule="evenodd" d="M66.3304 18.9063C70.6187 17.3938 78.8187 15.0984 89.1591 14.8413C99.4983 14.5858 111.978 16.3687 123.753 20.9373C135.527 25.5059 146.596 32.8603 152.753 37.4646C158.911 42.0704 160.156 43.9275 160.601 45.0151C161.046 46.1011 160.691 46.4176 157.803 48.9062C154.913 51.3948 149.492 56.0555 145.467 58.0776C141.442 60.0982 138.812 59.4787 137.074 58.6021C135.336 57.7255 134.487 56.5904 131.916 53.1093C129.345 49.6298 125.048 43.8042 122.627 38.775C120.205 33.7473 119.658 29.5144 118.537 27.6379C117.415 25.76 115.718 26.2399 108.023 29.6838C100.33 33.1292 86.6386 39.5416 79.2888 43.1327C71.9385 46.7237 70.9298 47.4948 69.5149 45.7015C68.0999 43.9082 66.2781 39.5505 64.8401 35.1528C63.4007 30.755 62.3457 26.3171 62.0056 23.7334C61.6661 21.1498 62.0427 20.4203 66.3304 18.9063Z" fill="#FF3369"/>
<path fill-rule="evenodd" clip-rule="evenodd" d="M162.917 71.4196C163.316 73.5873 163.945 77.7384 161.964 82.1748C159.984 86.6112 155.394 91.3314 152.924 93.8289C150.45 96.3264 150.095 96.6013 150.607 98.4005C151.119 100.2 152.499 103.525 151.714 106.339C150.931 109.154 147.985 111.457 146.629 112.776C145.274 114.094 145.505 114.429 146.236 115.394C146.966 116.359 148.193 117.955 146.629 119.766C145.064 121.577 140.711 123.601 136.523 125.272C132.334 126.943 128.314 128.261 125.809 129.448C123.304 130.635 122.315 131.688 120.373 135.477C118.432 139.266 115.54 145.79 114.449 151.916C113.357 158.041 114.069 163.769 114.714 166.774C115.36 169.78 115.941 170.062 118.884 169.245C121.826 168.427 127.131 166.511 130.486 165.868C133.841 165.224 135.245 165.854 136.142 166.178C137.037 166.501 137.425 166.519 139.007 165.834C140.589 165.149 143.364 163.762 145.318 163.031C147.272 162.3 148.404 162.226 149.397 162.588C150.391 162.95 151.246 163.749 151.457 164.958C151.668 166.17 151.233 167.792 152.705 167.204C154.178 166.617 157.555 163.82 161.299 159.744C165.044 155.668 169.155 150.314 172.522 141.616C175.892 132.918 178.515 120.878 179.778 110.922C181.041 100.969 180.942 93.1009 179.199 85.2978C177.458 77.4948 174.073 69.7556 172.22 65.5941C170.368 61.4325 170.045 60.8486 169.017 61.7178C167.988 62.5869 166.254 64.9121 164.997 66.3488C163.738 67.784 162.958 68.3323 162.654 68.6992C162.348 69.0662 162.519 69.2505 162.917 71.4196Z" fill="#FF3369"/>
<path d="M50.9716 162.957C50.9716 165.195 50.9716 167.433 50.9716 169.672M48.4772 166.314C50.1399 166.314 51.8027 166.314 53.4654 166.314M21.5791 129.659C21.5791 133.222 21.5791 136.786 21.5791 140.349M17.6094 135.004C20.256 135.004 22.9029 135.004 25.5495 135.004M134.343 142.915C134.343 144.697 134.343 146.479 134.343 148.262M132.357 145.588C133.68 145.588 135.004 145.588 136.328 145.588M158.128 135.1C158.128 137.339 158.128 139.578 158.128 141.816M155.635 138.458C157.298 138.458 158.962 138.458 160.623 138.458M167.05 101.214C167.05 102.742 167.05 104.269 167.05 105.795M165.349 103.505C166.483 103.505 167.618 103.505 168.751 103.505M15.9866 89.0372C15.9866 90.8186 15.9866 92.6015 15.9866 94.3844M14.0012 91.7101C15.325 91.7101 16.6488 91.7101 17.9727 91.7101M36.2918 48.7146C36.2918 51.1571 36.2918 53.6012 36.2918 56.0437M33.5705 52.3784C35.3847 52.3784 37.1995 52.3784 39.0138 52.3784M76.8364 25.5223C76.8364 28.5116 76.8364 31.5009 76.8364 34.4902M73.5049 30.0062C75.7254 30.0062 77.946 30.0062 80.167 30.0062M25.8324 109.318C25.8324 111.099 25.8324 112.882 25.8324 114.665M23.8465 111.99C25.1709 111.99 26.4946 111.99 27.8184 111.99M140.084 41.4879C140.084 43.0152 140.084 44.5426 140.084 46.0699M138.383 43.7789C139.517 43.7789 140.652 43.7789 141.785 43.7789" stroke="white" stroke-width="3.15864" stroke-miterlimit="22.9256" stroke-linecap="round"/>
<path fill-rule="evenodd" clip-rule="evenodd" d="M137.225 73.204C134.481 74.1861 129.953 74.345 123.121 75.3672C116.291 76.3879 107.156 78.2718 98.1402 81.738C89.1263 85.2042 80.2306 90.2528 74.261 94.7798C68.2907 99.3068 65.2455 103.314 62.8614 107.201C60.4778 111.087 58.7548 114.852 56.6115 117.518C54.4676 120.182 51.9035 121.744 50.2809 122.526C48.6588 123.307 47.9775 123.307 45.533 123.307C43.089 123.307 38.882 123.307 36.759 123.268C35.979 123.252 35.4804 123.232 35.2216 123.159C35.4496 125.513 35.6766 127.866 35.9976 130.142C36.2518 131.943 36.5645 133.697 36.9819 135.362C37.6325 137.958 38.5373 140.342 39.4367 142.23C39.8443 143.085 40.2499 143.837 40.6311 144.462C41.8534 146.465 42.8151 147.146 45.3589 147.827C47.9032 148.509 52.0301 149.19 57.4588 149.49C61.6526 149.723 66.6234 149.728 71.0405 149.386C72.3423 149.285 73.5964 149.153 74.7676 148.989C79.9165 148.268 83.4823 146.906 88.5112 144.482C93.5389 142.058 100.03 138.572 106.921 135.708C112.057 133.572 117.415 131.783 122.649 130.105C124.436 129.532 126.21 128.972 127.956 128.415C134.808 126.232 141.219 124.108 144.443 122.065C147.361 120.217 147.673 118.434 146.578 116.198C146.462 115.962 146.331 115.72 146.186 115.473C144.664 112.889 141.579 109.685 139.276 105.978C138.742 105.122 138.254 104.241 137.805 103.336C136.315 100.328 135.3 97.0842 134.808 93.8185C134.272 90.2751 134.352 86.7019 134.977 83.4333C135.102 82.7855 135.246 82.1481 135.414 81.527C136.422 77.7711 138.194 74.5441 139.968 71.3171C139.403 72.106 138.509 72.7449 137.225 73.204ZM111.565 102.987C110.625 105.871 108.579 108.949 105.587 111.306C104.198 112.398 102.605 113.335 100.947 114.102C99.0346 114.987 97.0378 115.645 95.1717 116.057C91.6892 116.825 88.6642 116.731 86.0546 116.277C83.4446 115.822 81.2527 115.007 79.9886 114.385C78.7263 113.767 78.3943 113.344 78.6479 112.044C78.6938 111.809 78.7587 111.546 78.847 111.255C79.248 109.934 80.129 108.043 81.8851 105.661C84.0279 102.755 87.473 99.1211 91.294 96.7187C91.3727 96.6696 91.453 96.6191 91.5332 96.5701C94.3546 94.8407 97.3677 93.7725 100.133 93.1871C101.048 92.9939 101.936 92.8528 102.782 92.7577C106.249 92.3714 108.991 92.7696 110.435 93.2272C111.88 93.6878 112.029 94.2093 112.185 95.8138C112.341 97.417 112.506 100.105 111.565 102.987Z" fill="#FFD27F"/>
<path fill-rule="evenodd" clip-rule="evenodd" d="M108.278 135.233C101.889 137.888 95.8718 141.12 91.2096 143.367C86.5487 145.614 83.2423 146.877 78.4694 147.545C77.3836 147.697 76.2211 147.819 75.0145 147.913C73.646 151.851 72.2775 155.79 70.9619 160.173C69.6461 164.557 68.3832 169.386 67.6927 174.46C67.0021 179.534 66.8837 184.853 66.7653 190.172C74.704 192.479 83.0979 193.715 91.7801 193.715C102.911 193.715 113.567 191.683 123.398 187.969C121.576 185.873 119.755 183.777 118.232 180.946C116.709 178.115 115.483 174.549 114.87 170.185C114.839 169.958 114.807 169.728 114.779 169.497C114.258 165.284 114.279 160.396 114.666 155.624C115.075 150.591 115.892 145.689 117.324 141.446C118.758 137.204 120.808 133.621 122.857 130.039C118.006 131.594 113.038 133.253 108.278 135.233Z" fill="#FFE3BA"/>
<path fill-rule="evenodd" clip-rule="evenodd" d="M77.6382 43.4107C84.461 39.628 97.5595 32.397 105.334 28.8565C113.109 25.316 115.559 25.4645 116.919 25.9949C118.278 26.5239 118.545 27.4346 119.273 29.9752C120.003 32.5158 121.192 36.6877 124.234 41.7303C127.279 46.7729 132.176 52.6876 135.189 56.7942C138.202 60.9007 139.331 63.1992 139.937 64.9761C140.545 66.753 140.629 68.007 140.063 69.5299C139.499 71.0557 138.282 72.849 133.069 74.1728C127.855 75.4966 118.642 76.3509 108.688 79.0252C98.7332 81.701 88.0367 86.1938 79.4195 92.3789C70.8028 98.5626 64.265 106.438 60.3458 111.842C56.4278 117.246 55.1277 120.181 52.2306 121.871C49.3334 123.561 44.839 124.007 41.7735 124.021C38.7074 124.035 37.0709 123.618 36.2218 123.308C35.3727 122.998 35.313 122.795 36.6883 121.629C38.0644 120.463 40.8757 118.335 40.4619 113.111C40.0476 107.886 36.4075 99.5669 33.9595 94.3089C31.512 89.0509 30.2579 86.8579 29.3844 84.3872C28.5122 81.9179 28.0211 79.1708 31.5272 74.9008C35.0332 70.6308 42.5367 64.8364 47.1605 61.3821C51.7848 57.9278 53.5306 56.8135 54.7377 57.0363C55.9449 57.2592 56.6135 58.8192 57.542 60.8992C58.4706 62.9793 59.6598 65.5793 62.0608 66.0607C64.4623 66.542 68.0756 64.9033 70.7685 63.1769C73.4614 61.449 75.2333 59.6334 75.545 58.268C75.8559 56.9026 74.7063 55.9859 73.4921 54.3279C72.2774 52.6698 70.9983 50.2673 70.6327 48.8975C70.2671 47.5291 70.8156 47.1934 77.6382 43.4107Z" fill="#FFE3BA"/>
<path fill-rule="evenodd" clip-rule="evenodd" d="M108.278 135.233C101.889 137.889 95.8717 141.12 91.2094 143.367C86.5486 145.614 83.2422 146.877 78.4693 147.545C77.3835 147.697 76.2209 147.819 75.0144 147.913C73.6459 151.851 72.2774 155.79 70.9617 160.173C70.5188 161.648 70.0825 163.173 69.6721 164.74C74.1665 164.716 80.4483 164.16 86.0727 162.266C93.0191 159.925 98.962 155.543 106.131 152.125C109.194 150.664 112.484 149.38 115.644 148.059C116.075 145.739 116.626 143.514 117.324 141.446C118.758 137.204 120.808 133.621 122.857 130.039C118.006 131.594 113.038 133.253 108.278 135.233Z" fill="#F0C87F"/>
<path fill-rule="evenodd" clip-rule="evenodd" d="M100.4 193.305C108.422 192.539 116.136 190.713 123.398 187.969C121.576 185.873 119.755 183.777 118.232 180.946C116.709 178.115 115.483 174.55 114.87 170.185C114.839 169.958 114.807 169.729 114.779 169.498C114.258 165.284 114.279 160.396 114.666 155.624C115.075 150.592 115.892 145.689 117.324 141.446C118.758 137.204 120.808 133.621 122.857 130.039C119.719 131.044 116.534 132.095 113.386 133.246C110.224 140.201 107.056 147.885 104.794 154.205C100.671 165.72 99.5564 172.702 99.5564 181.394C99.5564 185.226 99.7733 189.389 100.4 193.305Z" fill="#F0C87F"/>
<path fill-rule="evenodd" clip-rule="evenodd" d="M138.093 107.44C140.068 110.616 142.712 113.362 144.017 115.577C144.142 115.79 144.254 115.995 144.353 116.198C146.369 114.126 148.385 112.053 149.822 109.78C151.26 107.508 152.118 105.036 152.008 102.852C151.897 100.668 150.82 98.772 149.741 96.8748C148.964 97.4646 148.198 98.0247 147.453 98.5521C143.476 101.375 140.155 103.275 136.835 105.176C137.218 105.95 137.638 106.706 138.093 107.44Z" fill="#70CC81"/>
<path fill-rule="evenodd" clip-rule="evenodd" d="M136.835 105.175C140.155 103.275 143.476 101.375 147.453 98.5519C148.198 98.0245 148.964 97.4644 149.741 96.8745C153.111 94.3176 156.638 91.2198 159.122 87.8859C162.178 83.7823 163.655 79.3176 164.107 76.0609C164.559 72.8042 163.987 70.7524 163.413 68.7021C161.358 70.8222 159.048 72.8384 156.582 74.7683C152.083 78.288 147.07 81.5165 143.289 83.6916C139.509 85.8682 136.96 86.9929 134.41 88.1191C133.874 90.9197 133.807 93.9803 134.265 97.0187C134.688 99.8178 135.557 102.596 136.835 105.175Z" fill="#91F7A4"/>
<path fill-rule="evenodd" clip-rule="evenodd" d="M136.835 105.175C140.156 103.275 143.476 101.375 147.453 98.5519C148.198 98.0245 148.964 97.4644 149.742 96.8745C153.111 94.3176 156.638 91.2198 159.122 87.8859C161.605 84.5519 163.045 80.9817 163.74 78.0132C162.685 79.6356 160.604 82.3366 157.76 84.8758C154.566 87.7254 150.412 90.37 146.289 91.4769C142.167 92.5838 138.079 92.1529 134.147 90.8499L134.046 90.8157C133.884 92.8333 133.95 94.9312 134.265 97.0187C134.688 99.8178 135.557 102.596 136.835 105.175Z" fill="#83DE93"/>
<path fill-rule="evenodd" clip-rule="evenodd" d="M143.289 83.6917C147.07 81.5166 152.083 78.2881 156.582 74.7684C159.048 72.8384 161.358 70.8223 163.413 68.7021C164.881 67.1882 166.218 65.6222 167.387 63.9983C167.566 63.7502 167.741 63.4991 167.913 63.248C170.763 59.0597 172.479 54.4926 173.304 49.9596C174.128 45.4266 174.058 40.9293 173.63 38.4051C173.201 35.8823 172.411 35.3326 170.608 36.7574C168.805 38.1822 165.989 41.5816 161.851 45.3761C160.397 46.7103 158.779 48.0935 157.059 49.4441C153.888 51.9341 151.313 53.8374 146.895 56.0749C142.478 58.3139 141.289 58.4743 136.029 59.7164C137.631 61.7296 138.588 62.8795 140.458 65.4989C142.329 68.1182 139.181 73.449 139.323 74.9734C139.469 76.4992 139.239 76.9673 138.687 77.7354C137.168 80.5003 135.648 83.2653 134.784 86.4848C134.642 87.0182 134.517 87.5635 134.41 88.1191C136.96 86.993 139.509 85.8683 143.289 83.6917Z" fill="#C7FFD1"/>
<path fill-rule="evenodd" clip-rule="evenodd" d="M143.289 83.6918C147.07 81.5167 152.083 78.2882 156.582 74.7685C159.048 72.8385 161.358 70.8224 163.413 68.7022C164.881 67.1883 166.218 65.6223 167.387 63.9984C167.566 63.7503 167.741 63.4992 167.913 63.2481C170.763 59.0598 172.479 54.4927 173.304 49.9597C173.779 47.3448 173.957 44.7433 173.941 42.5236C173.812 42.6559 173.678 42.8208 173.54 43.0258C172.338 44.8117 170.834 49.4427 167.301 53.9563C163.768 58.4715 158.206 62.8663 152.48 64.9225C146.755 66.9803 143.639 66.7024 141.387 66.692C139.133 66.6816 140.094 66.6935 139.539 66.7143L139.793 67.0694C142.281 70.5549 139.181 73.4491 139.323 74.9735C139.469 76.4993 139.239 76.9674 138.687 77.7355C137.168 80.5004 135.648 83.2654 134.784 86.4849C134.691 86.8326 134.606 87.1862 134.529 87.5443C134.747 87.623 134.972 87.6973 135.203 87.7671C137.5 86.7494 139.9 85.6425 143.289 83.6918Z" fill="#91F7A4"/>
<path fill-rule="evenodd" clip-rule="evenodd" d="M118.421 169.033C121.113 167.744 126.775 166.169 129.999 165.637C133.224 165.105 134.009 165.615 134.49 166.124C134.972 166.633 135.149 167.139 136.651 166.484C138.153 165.828 140.98 164.011 143.348 163.095C145.717 162.18 147.626 162.165 149.009 162.557C150.391 162.95 151.246 163.748 151.089 165.618C150.931 167.488 149.761 170.43 147.285 173.225C144.81 176.019 141.032 178.668 136.833 181.1C132.635 183.533 128.016 185.751 125.634 186.777C123.252 187.802 123.107 187.634 121.939 185.753C120.771 183.872 118.58 180.278 117.467 177.755C116.354 175.234 116.32 173.785 116.164 172.557C116.008 171.329 115.729 170.324 118.421 169.033Z" fill="#FFD27F"/>
<path fill-rule="evenodd" clip-rule="evenodd" d="M105.587 111.306C108.579 108.949 110.625 105.871 111.566 102.987C112.506 100.105 112.341 97.4169 112.185 95.8138C112.029 94.2092 111.881 93.6877 110.435 93.2271C108.991 92.7695 106.25 92.3713 102.782 92.7576C101.937 92.8527 101.048 92.9939 100.133 93.187C101.674 95.2923 102.798 97.7527 103.357 100.475C104.361 105.351 103.372 110.175 100.947 114.102C102.605 113.335 104.198 112.398 105.587 111.306Z" fill="white"/>
<path fill-rule="evenodd" clip-rule="evenodd" d="M92.2778 105.526C92.2778 110.471 88.9632 114.643 84.4355 115.94C84.9527 116.066 85.4941 116.179 86.0549 116.277C88.6645 116.731 91.6895 116.825 95.172 116.057C97.0381 115.645 99.0349 114.987 100.947 114.102C103.372 110.175 104.361 105.351 103.357 100.475C102.798 97.7527 101.674 95.2924 100.133 93.1871C97.2907 93.7903 94.184 94.9016 91.2943 96.7186C90.6227 97.1406 89.9631 97.6012 89.3212 98.0885C91.1531 100.029 92.2778 102.645 92.2778 105.526Z" fill="#91F7A4"/>
<path fill-rule="evenodd" clip-rule="evenodd" d="M94.0382 100.665C95.7215 100.665 97.0869 102.029 97.0869 103.712C97.0869 105.395 95.7215 106.761 94.0382 106.761C92.3549 106.761 90.991 105.395 90.991 103.712C90.991 102.029 92.3549 100.665 94.0382 100.665Z" fill="white"/>
<path fill-rule="evenodd" clip-rule="evenodd" d="M84.4354 115.939C88.963 114.642 92.2777 110.47 92.2777 105.526C92.2777 102.645 91.153 100.029 89.3211 98.0884C86.3031 100.376 83.652 103.266 81.8853 105.661C79.7431 108.567 78.9022 110.744 78.648 112.044C78.3944 113.344 78.7265 113.767 79.9887 114.385C80.9811 114.873 82.5458 115.48 84.4354 115.939Z" fill="#111726"/>
<path fill-rule="evenodd" clip-rule="evenodd" d="M66.9074 65.5658C68.9153 65.0205 70.8144 63.9478 72.2734 62.841C73.7313 61.7356 74.751 60.5975 75.25 59.9215C75.7503 59.244 75.7295 59.0286 74.1242 56.1017C73.3441 54.6784 72.1899 52.6162 70.938 50.233C69.6142 47.7132 68.1812 44.8339 66.9671 41.9783C64.9951 37.3369 63.6016 32.7564 62.5534 28.2115C62.3474 27.3156 62.1542 26.4212 61.9725 25.5283C60.8704 20.1039 60.1972 14.7255 59.8026 10.9429C59.4066 7.16019 59.2906 4.97319 58.9923 3.71477C58.6941 2.45636 58.2152 2.12653 56.9564 3.21556C55.6977 4.30461 53.6588 6.81401 52.0535 10.2728C50.4493 13.7331 49.2789 18.1457 49.0293 23.5641C48.8789 26.8387 49.064 30.4802 49.6565 34.3877C50.0449 36.9476 50.6067 39.6234 51.3641 42.3854C53.2764 49.3609 56.43 56.8847 58.1869 60.9363C59.3231 63.5571 59.8751 64.7249 60.4584 65.2984C60.7763 65.6104 61.1042 65.7471 61.5419 65.8451C62.7804 66.1259 64.8993 66.1096 66.9074 65.5658Z" fill="white"/>
<path fill-rule="evenodd" clip-rule="evenodd" d="M69.1431 64.7368C70.3022 64.196 71.3717 63.5244 72.2736 62.841C73.7315 61.7356 74.7512 60.5975 75.2502 59.9215C75.7505 59.244 75.7297 59.0286 74.1244 56.1017C73.3443 54.6784 72.1901 52.6162 70.9382 50.2331C69.6144 47.7133 68.1814 44.8339 66.9673 41.9784C64.9953 37.3369 63.6018 32.7564 62.5536 28.2116C62.3476 27.3157 62.1544 26.4213 61.9727 25.5283C60.8706 20.1039 60.1974 14.7256 59.8028 10.9429C59.4068 7.16022 59.2908 4.97322 58.9925 3.71481C58.8109 2.94817 58.5619 2.52623 58.111 2.55892C57.2775 5.7265 56.4929 9.48836 56.1801 13.4983C55.63 20.5675 56.548 28.4017 58.3229 35.6075C60.0976 42.8148 62.7289 49.3936 65.3917 55.8506C66.6701 58.9514 67.9558 62.0239 69.1431 64.7368Z" fill="#DEDEDE"/>
<path d="M81.8853 105.662C79.7426 108.568 78.9022 110.744 78.6486 112.044C78.3944 113.344 78.7271 113.768 79.9894 114.386C81.2528 115.007 83.4447 115.823 86.0547 116.277C88.6644 116.732 91.6893 116.825 95.1719 116.057M81.8853 105.662C84.028 102.756 87.4731 99.1215 91.2941 96.719M81.8853 105.662C79.7432 108.568 78.9021 110.744 78.6478 112.044C78.3942 113.344 78.7263 113.768 79.9886 114.386C80.9809 114.873 82.5457 115.481 84.4352 115.94C88.9628 114.643 92.2775 110.471 92.2775 105.526C92.2775 102.646 91.1528 100.029 89.3209 98.0888C86.3029 100.377 83.652 103.267 81.8853 105.662ZM91.2941 96.719C94.1839 94.902 97.2905 93.7907 100.133 93.1875C101.673 95.2913 102.797 97.7531 103.358 100.475C104.361 105.351 103.372 110.175 100.948 114.102C99.0363 114.986 97.038 115.646 95.1719 116.057M91.2941 96.719C95.1154 94.3166 99.3126 93.1459 102.782 92.7581C106.251 92.3718 108.991 92.77 110.435 93.2291C111.88 93.6881 112.029 94.2096 112.185 95.8142C112.341 97.4173 112.506 100.105 111.565 102.987C110.625 105.871 108.579 108.951 105.587 111.306C102.595 113.659 98.6544 115.289 95.1719 116.057M71.3631 46.8578C74.4385 45.0928 77.5237 43.3872 80.5311 41.7915C89.4056 37.0847 97.6202 33.3184 103.189 30.8283C108.759 28.3397 111.683 27.1288 114.021 26.7173C116.36 26.3072 118.111 26.6979 118.813 28.3441C119.514 29.9918 119.165 32.8979 119.931 35.752C120.698 38.6061 122.582 41.4111 125.726 45.4583C128.871 49.5054 133.279 54.7931 136.184 58.8596C139.088 62.926 140.491 65.7712 140.711 68.0949C140.931 70.4201 139.969 72.2223 137.225 73.2043C134.481 74.1864 129.953 74.3454 123.121 75.3676C116.29 76.3882 107.156 78.2722 98.1402 81.7384C89.1263 85.2046 80.2306 90.2531 74.2609 94.7801C68.2907 99.3072 65.2455 103.314 62.8613 107.201C60.4778 111.088 58.7548 114.852 56.6115 117.518C54.4676 120.183 51.9035 121.744 50.2809 122.526C48.6588 123.307 47.9774 123.307 45.5329 123.307C43.0889 123.307 38.8825 123.307 36.759 123.268C34.6354 123.228 34.5947 123.147 35.8164 122.065C37.0387 120.984 39.5232 118.9 40.5847 116.837C41.6467 114.774 41.2864 112.729 39.1024 108.082C36.9191 103.435 32.9122 96.1827 30.8486 91.2738C28.7853 86.3664 28.6651 83.802 29.3663 81.1976C30.0674 78.5931 31.5902 75.95 35.5965 72.0425C39.6038 68.1365 46.0941 62.9661 54.1073 57.5581C54.2157 57.4853 54.3248 57.4125 54.4328 57.3397M35.2215 123.16C35.6295 127.376 36.037 131.592 36.9818 135.363C37.9265 139.134 39.4095 142.459 40.631 144.462C41.8533 146.465 42.8151 147.147 45.3588 147.828C47.9031 148.509 52.03 149.19 57.4587 149.49C62.888 149.792 69.6191 149.712 74.7675 148.99C79.9164 148.269 83.4822 146.907 88.5111 144.482C93.5388 142.059 100.03 138.573 106.921 135.708C113.812 132.843 121.105 130.6 127.956 128.416C134.808 126.232 141.219 124.109 144.443 122.065C147.669 120.022 147.709 118.058 146.186 115.473C144.664 112.89 141.579 109.685 139.276 105.978C136.971 102.273 135.448 98.0651 134.808 93.8189C134.166 89.5712 134.407 85.2848 135.414 81.5274C136.422 77.7715 138.194 74.5445 139.968 71.3175M122.857 130.04C120.808 133.622 118.758 137.204 117.324 141.447C115.892 145.689 115.075 150.592 114.666 155.625C114.258 160.658 114.258 165.821 114.87 170.186C115.483 174.55 116.709 178.116 118.232 180.947C119.755 183.778 121.576 185.874 123.398 187.97M75.0144 147.913C73.6459 151.851 72.2774 155.79 70.9618 160.174C69.646 164.558 68.3831 169.387 67.6926 174.461C67.002 179.534 66.8836 184.853 66.7652 190.172M114.779 169.498C118.765 168.434 122.75 167.368 125.82 166.446C128.891 165.524 131.045 164.744 132.437 164.595C133.831 164.446 134.462 164.929 134.796 166.127C135.131 167.325 135.168 169.238 134.88 170.956C134.593 172.674 133.979 174.197 133.367 175.719M135.324 167.645C139.815 165.638 144.308 163.631 147.166 162.72C150.025 161.809 151.251 161.994 151.789 162.719C152.328 163.444 152.179 164.706 151.726 166.407C151.276 168.108 150.52 170.248 149.765 172.388M136.858 59.8223C140.17 59.0646 143.483 58.3069 147.869 55.8331C152.255 53.3594 157.715 49.1711 161.851 45.3766C165.989 41.582 168.805 38.1826 170.608 36.7578C172.41 35.333 173.201 35.8827 173.63 38.4055C174.058 40.9298 174.128 45.4271 173.303 49.96C172.479 54.493 170.763 59.0602 167.913 63.2484C165.062 67.4382 161.079 71.2491 156.581 74.7688C152.083 78.2885 147.07 81.517 143.289 83.6921C139.509 85.8687 136.959 86.9934 134.41 88.1196M163.413 68.7026C163.986 70.7529 164.558 72.8047 164.107 76.0614C163.655 79.3181 162.178 83.7827 159.122 87.8863C156.067 91.9884 151.43 95.7325 147.697 98.4142C143.962 101.096 141.128 102.717 138.294 104.338M149.741 96.875C150.82 98.7722 151.897 100.668 152.008 102.852C152.118 105.036 151.26 107.508 150.053 109.541C148.847 111.575 147.293 113.169 145.739 114.763M39.4368 142.23C43.4918 142.043 47.5462 141.856 51.9779 142.723C56.4097 143.592 61.2173 145.515 66.3733 146.416C71.5286 147.317 77.0322 147.196 81.8407 146.176C86.6501 145.157 90.7651 143.239 93.6222 140.515C96.4808 137.791 98.0809 134.261 99.681 130.731M49.7574 133.994C50.2786 133.192 50.7992 132.391 51.1898 131.539C51.5804 130.688 51.841 129.786 52.1016 128.885M39.6469 133.436C38.766 132.844 37.8844 132.252 37.2755 131.703C36.668 131.154 36.3325 130.648 35.9976 130.142M48.9792 25.6429C21.1699 40.8182 2.30286 70.3263 2.30286 104.238C2.30286 153.656 42.3637 193.716 91.7799 193.716C141.197 193.716 181.258 153.656 181.258 104.238C181.258 88.2561 177.065 73.2502 169.723 60.2634M160.335 46.7329C143.922 27.1866 119.302 14.7614 91.7799 14.7614C80.9682 14.7614 70.6042 16.678 61.0101 20.1932M61.5417 65.8455C62.7802 66.1263 64.899 66.1099 66.9071 65.5662C68.9151 65.0209 70.8142 63.9482 72.2726 62.8413C73.7311 61.7359 74.7508 60.5979 75.2498 59.9204C75.7501 59.2444 75.7293 59.0289 74.1239 56.102C72.5186 53.1751 69.3284 47.5338 66.9669 41.9787C64.606 36.422 63.075 30.9531 61.9723 25.5287C60.8702 20.1042 60.197 14.7259 59.8024 10.9432C59.407 7.16054 59.2904 4.97354 58.992 3.71512C58.6939 2.45671 58.215 2.12688 56.9561 3.21592C55.6968 4.30496 53.6586 6.81436 52.0532 10.2731C50.4491 13.7334 49.2786 18.146 49.029 23.5645C48.7794 28.983 49.4516 35.4088 51.3639 42.3858C53.2767 49.3613 56.4298 56.885 58.1866 60.9366C59.9434 64.9882 60.3026 65.5662 61.5417 65.8455Z" stroke="#111726" stroke-width="4.21153" stroke-miterlimit="22.9256" stroke-linecap="round"/>
</svg>
