<svg id="svg" version="1.1" xmlns="http://www.w3.org/2000/svg" xmlns:xlink="http://www.w3.org/1999/xlink" width="400" height="400" viewBox="0, 0, 400,400"><g id="svgg"><path id="path0" d="M193.200 101.003 C 185.952 101.857,182.240 102.409,181.040 102.811 C 180.402 103.025,179.451 103.200,178.927 103.200 C 176.620 103.200,163.748 107.936,156.800 111.341 C 133.506 122.756,112.668 147.164,106.208 170.600 C 105.331 173.783,104.992 174.977,104.224 177.600 C 101.352 187.408,101.318 212.448,104.164 222.200 C 104.485 223.300,105.034 225.264,105.385 226.564 C 108.268 237.248,115.634 252.294,121.025 258.510 C 121.259 258.780,122.478 260.350,123.735 262.000 C 126.056 265.046,133.891 273.223,136.085 274.888 C 136.745 275.390,138.392 276.714,139.743 277.831 C 144.616 281.858,159.412 290.800,161.202 290.800 C 161.390 290.800,162.682 291.319,164.072 291.953 C 165.462 292.588,167.320 293.330,168.200 293.603 C 171.770 294.711,175.824 296.137,176.200 296.419 C 176.420 296.583,177.500 296.801,178.600 296.903 C 179.700 297.004,181.590 297.288,182.800 297.533 C 195.351 300.073,206.482 300.145,220.400 297.776 C 222.490 297.421,225.010 296.992,226.000 296.823 C 227.986 296.485,232.049 295.227,235.904 293.756 C 237.282 293.230,238.752 292.800,239.171 292.800 C 239.590 292.800,239.993 292.655,240.067 292.478 C 240.140 292.300,242.090 291.360,244.400 290.388 C 246.710 289.416,248.690 288.517,248.800 288.390 C 248.910 288.263,249.990 287.653,251.200 287.035 C 252.410 286.416,253.684 285.661,254.031 285.355 C 254.379 285.050,254.780 284.800,254.924 284.800 C 255.153 284.800,257.320 283.423,260.400 281.318 C 263.313 279.329,272.349 271.896,272.701 271.200 C 272.757 271.090,274.287 269.439,276.101 267.532 C 281.270 262.097,283.222 259.645,287.419 253.320 C 290.482 248.703,296.216 237.098,297.361 233.200 C 297.716 231.990,298.458 229.560,299.010 227.800 C 299.994 224.662,301.214 219.162,302.071 214.000 C 302.669 210.398,302.960 191.100,302.454 188.600 C 302.231 187.500,301.754 184.800,301.392 182.600 C 300.813 179.070,299.736 174.839,297.729 168.200 C 297.396 167.100,297.030 165.705,296.916 165.100 C 296.802 164.495,296.550 164.000,296.355 164.000 C 296.160 164.000,296.000 163.720,296.000 163.377 C 296.000 162.616,289.509 149.918,288.397 148.506 C 287.959 147.948,287.600 147.326,287.600 147.122 C 287.600 146.919,287.015 145.973,286.300 145.022 C 285.585 144.070,284.730 142.886,284.400 142.390 C 282.712 139.854,277.831 134.155,274.249 130.538 C 273.562 129.844,272.805 129.034,272.566 128.738 C 270.977 126.769,260.279 118.315,257.400 116.753 C 256.520 116.275,255.243 115.461,254.562 114.942 C 253.881 114.424,253.224 114.000,253.101 114.000 C 252.978 114.000,251.754 113.365,250.381 112.589 C 249.008 111.813,246.606 110.627,245.043 109.953 C 243.479 109.279,241.480 108.397,240.600 107.993 C 238.120 106.854,227.189 103.305,225.400 103.058 C 224.520 102.937,222.090 102.551,220.000 102.201 C 208.996 100.361,201.495 100.025,193.200 101.003 M212.048 150.430 C 219.416 151.938,229.350 156.191,232.460 159.168 C 232.824 159.516,233.724 160.243,234.460 160.785 C 239.994 164.853,246.789 173.787,249.431 180.466 C 249.982 181.860,250.587 183.360,250.776 183.800 C 254.015 191.340,254.035 208.410,250.813 216.200 C 250.631 216.640,250.082 217.990,249.592 219.200 C 246.729 226.269,241.182 233.805,235.409 238.468 C 234.084 239.538,232.634 240.771,232.186 241.207 C 231.738 241.643,231.246 242.000,231.093 242.000 C 230.940 242.000,229.686 242.684,228.307 243.521 C 225.561 245.186,218.843 248.030,216.000 248.730 C 210.983 249.966,208.948 250.185,202.400 250.192 C 197.954 250.197,194.597 250.007,193.200 249.672 C 191.990 249.382,189.877 248.879,188.504 248.554 C 177.896 246.048,166.694 238.107,160.145 228.451 C 157.391 224.391,154.000 217.760,154.000 216.434 C 154.000 216.004,153.803 215.145,153.562 214.526 C 151.713 209.777,150.866 201.792,151.533 195.396 C 151.972 191.181,152.264 189.769,153.806 184.400 C 154.657 181.434,156.382 177.460,157.624 175.600 C 157.992 175.050,158.938 173.592,159.728 172.360 C 163.177 166.977,169.849 160.286,174.200 157.846 C 174.860 157.476,176.217 156.666,177.216 156.048 C 178.215 155.429,180.285 154.435,181.816 153.840 C 183.347 153.245,184.960 152.599,185.400 152.404 C 186.667 151.843,190.352 150.943,193.400 150.449 C 194.940 150.200,196.650 149.919,197.200 149.823 C 198.926 149.525,209.794 149.969,212.048 150.430 " stroke="none" fill="#1c1c1c" fill-rule="evenodd"></path><path id="path1" d="M0.000 200.000 L 0.000 400.000 200.000 400.000 L 400.000 400.000 400.000 200.000 L 400.000 0.000 200.000 0.000 L 0.000 0.000 0.000 200.000 M218.000 100.383 C 221.867 100.941,229.589 102.744,230.220 103.237 C 230.451 103.417,231.400 103.686,232.329 103.835 C 233.258 103.984,234.114 104.261,234.232 104.453 C 234.351 104.644,234.880 104.800,235.410 104.800 C 235.940 104.800,237.054 105.095,237.886 105.455 C 238.719 105.816,239.850 106.291,240.400 106.512 C 245.116 108.401,248.400 109.995,248.400 110.395 C 248.400 110.618,248.749 110.800,249.176 110.800 C 249.603 110.800,250.052 110.960,250.173 111.156 C 250.294 111.351,250.835 111.622,251.376 111.758 C 252.440 112.025,259.694 116.437,260.665 117.407 C 260.990 117.733,261.379 118.000,261.529 118.000 C 261.678 118.001,262.323 118.451,262.962 119.000 C 263.601 119.550,264.252 120.000,264.408 120.000 C 264.563 120.000,265.120 120.414,265.645 120.920 C 266.170 121.426,267.487 122.551,268.570 123.420 C 271.720 125.945,278.299 132.278,279.511 133.950 C 280.105 134.769,283.705 139.361,284.749 140.631 C 284.944 140.869,285.602 141.859,286.211 142.831 C 286.821 143.804,287.438 144.690,287.584 144.800 C 287.822 144.980,289.135 147.107,292.650 153.000 C 294.011 155.282,296.400 160.850,296.400 161.739 C 296.400 162.066,296.535 162.393,296.700 162.467 C 297.182 162.681,298.682 166.352,299.614 169.600 C 300.826 173.821,301.267 175.281,301.607 176.200 C 302.159 177.691,302.907 182.582,303.197 186.600 C 303.356 188.800,303.728 192.715,304.023 195.300 C 304.473 199.229,304.474 200.771,304.027 204.700 C 303.733 207.285,303.363 211.290,303.206 213.600 C 302.901 218.072,302.093 222.344,300.785 226.400 C 300.607 226.950,299.974 229.020,299.377 231.000 C 298.780 232.980,297.879 235.500,297.373 236.600 C 296.868 237.700,295.874 240.040,295.164 241.800 C 294.454 243.560,293.572 245.450,293.205 246.000 C 292.838 246.550,291.845 248.260,290.999 249.800 C 289.310 252.876,287.964 254.927,287.500 255.133 C 287.335 255.207,287.200 255.522,287.200 255.833 C 287.200 256.145,287.049 256.400,286.864 256.400 C 286.680 256.400,286.339 256.816,286.107 257.325 C 285.748 258.113,282.013 262.984,279.150 266.400 C 277.043 268.914,271.699 274.161,269.169 276.200 C 265.416 279.226,264.196 280.160,260.903 282.535 C 258.870 284.001,257.111 285.200,256.993 285.200 C 256.876 285.200,255.640 285.920,254.247 286.800 C 252.854 287.680,251.463 288.413,251.157 288.429 C 250.851 288.445,250.060 288.799,249.400 289.215 C 248.198 289.973,243.789 292.162,242.100 292.839 C 239.429 293.910,238.900 294.128,237.800 294.610 C 237.140 294.899,236.150 295.227,235.600 295.338 C 233.413 295.782,230.931 296.512,229.630 297.093 C 223.320 299.909,195.177 301.562,186.400 299.632 C 185.190 299.366,183.210 298.958,182.000 298.726 C 178.592 298.072,175.040 297.117,174.620 296.741 C 174.411 296.553,173.718 296.400,173.080 296.400 C 172.443 296.400,171.354 296.153,170.660 295.852 C 169.967 295.550,168.590 295.063,167.600 294.770 C 166.610 294.476,164.810 293.807,163.600 293.284 C 162.390 292.760,160.770 292.062,160.000 291.732 C 159.230 291.403,158.330 290.995,158.000 290.826 C 154.109 288.838,152.359 287.857,152.174 287.558 C 152.052 287.361,151.711 287.200,151.417 287.200 C 150.904 287.200,148.817 285.929,144.695 283.105 C 139.769 279.732,137.206 277.739,134.373 275.081 C 132.684 273.496,130.784 271.735,130.151 271.166 C 129.518 270.597,127.963 268.977,126.696 267.566 C 125.428 266.155,124.068 264.640,123.673 264.200 C 123.278 263.760,122.435 262.680,121.799 261.800 C 121.163 260.920,120.538 260.110,120.412 260.000 C 118.401 258.257,110.275 243.900,108.253 238.517 C 107.905 237.591,107.278 236.061,106.859 235.117 C 105.634 232.353,104.800 229.838,104.800 228.910 C 104.800 228.436,104.641 227.949,104.447 227.829 C 104.252 227.709,103.966 226.589,103.810 225.341 C 103.654 224.093,103.378 222.785,103.196 222.436 C 102.824 221.721,101.864 217.216,101.185 213.000 C 100.153 206.594,100.699 187.621,102.072 182.200 C 102.295 181.320,102.571 179.970,102.686 179.200 C 102.801 178.430,103.029 177.620,103.193 177.400 C 103.357 177.180,103.612 176.190,103.761 175.200 C 103.910 174.210,104.188 172.860,104.380 172.200 C 105.467 168.461,106.178 166.386,106.985 164.600 C 107.482 163.500,108.118 161.970,108.398 161.200 C 109.204 158.984,112.028 153.230,112.433 152.980 C 112.635 152.855,112.800 152.512,112.800 152.217 C 112.800 151.601,118.669 142.179,120.286 140.200 C 120.465 139.980,121.029 139.260,121.539 138.600 C 125.210 133.843,136.298 122.579,138.971 120.892 C 139.845 120.341,142.142 118.744,144.076 117.345 C 146.011 115.945,147.713 114.800,147.859 114.800 C 148.005 114.800,148.714 114.350,149.436 113.800 C 150.157 113.250,150.993 112.800,151.293 112.800 C 151.594 112.800,152.011 112.638,152.220 112.440 C 152.918 111.778,158.794 108.800,159.401 108.800 C 159.731 108.800,160.000 108.620,160.000 108.400 C 160.000 108.180,160.320 108.000,160.711 108.000 C 161.102 108.000,161.777 107.758,162.211 107.462 C 163.488 106.591,172.142 103.600,173.384 103.600 C 173.655 103.600,174.400 103.341,175.039 103.024 C 176.423 102.336,181.112 101.254,185.000 100.723 C 186.540 100.513,188.880 100.193,190.200 100.012 C 193.671 99.534,213.999 99.806,218.000 100.383 M199.530 150.603 C 199.418 150.715,197.860 150.990,196.068 151.215 C 188.966 152.106,178.613 155.926,174.393 159.214 C 167.658 164.461,164.342 167.863,160.166 173.812 C 159.247 175.121,155.199 183.312,155.202 183.858 C 155.202 184.046,154.762 185.640,154.223 187.400 C 148.468 206.194,157.346 229.680,174.417 240.825 C 177.040 242.538,185.397 246.647,186.800 246.913 C 187.350 247.018,188.880 247.411,190.200 247.787 C 193.361 248.688,198.584 249.335,202.800 249.349 C 208.569 249.367,217.505 247.485,221.600 245.388 C 222.150 245.106,223.680 244.365,225.000 243.741 C 226.320 243.118,228.231 242.021,229.248 241.304 C 230.264 240.587,231.270 240.000,231.484 240.000 C 232.209 240.000,240.800 231.985,240.800 231.308 C 240.800 231.097,241.157 230.601,241.594 230.206 C 242.030 229.811,243.213 228.163,244.222 226.544 C 245.231 224.925,246.224 223.600,246.428 223.600 C 246.633 223.600,246.800 223.328,246.800 222.995 C 246.800 222.662,246.971 222.077,247.181 221.695 C 247.390 221.313,247.815 220.370,248.124 219.600 C 248.434 218.830,248.918 217.660,249.200 217.000 C 249.481 216.340,249.854 215.170,250.028 214.400 C 250.202 213.630,250.668 211.650,251.064 210.000 C 252.178 205.360,252.076 193.790,250.882 189.245 C 250.397 187.400,250.000 185.635,250.000 185.323 C 250.000 184.783,249.254 182.959,247.566 179.374 C 247.145 178.479,246.800 177.459,246.800 177.107 C 246.800 176.755,246.632 176.407,246.427 176.333 C 246.221 176.260,244.638 174.191,242.908 171.735 C 241.179 169.279,238.613 166.219,237.207 164.935 C 235.802 163.651,234.131 162.105,233.495 161.500 C 232.859 160.895,232.235 160.400,232.109 160.400 C 231.983 160.400,230.512 159.545,228.840 158.500 C 221.865 154.139,217.847 152.724,207.033 150.817 C 204.572 150.383,199.884 150.250,199.530 150.603 " stroke="none" fill="#fbfbfb" fill-rule="evenodd"></path><path id="path2" d="M192.705 100.283 C 193.202 100.379,193.922 100.375,194.305 100.275 C 194.687 100.175,194.280 100.096,193.400 100.101 C 192.520 100.105,192.207 100.187,192.705 100.283 M216.900 101.076 C 217.285 101.176,217.915 101.176,218.300 101.076 C 218.685 100.975,218.370 100.893,217.600 100.893 C 216.830 100.893,216.515 100.975,216.900 101.076 M163.200 107.400 C 162.650 107.714,162.380 107.972,162.600 107.972 C 162.820 107.972,163.450 107.714,164.000 107.400 C 164.550 107.086,164.820 106.828,164.600 106.828 C 164.380 106.828,163.750 107.086,163.200 107.400 M133.381 126.500 L 131.800 128.200 133.500 126.619 C 135.081 125.148,135.384 124.800,135.081 124.800 C 135.016 124.800,134.251 125.565,133.381 126.500 M271.000 126.400 C 271.859 127.280,272.652 128.000,272.762 128.000 C 272.872 128.000,272.259 127.280,271.400 126.400 C 270.541 125.520,269.748 124.800,269.638 124.800 C 269.528 124.800,270.141 125.520,271.000 126.400 M277.800 133.200 C 278.883 134.300,279.860 135.200,279.970 135.200 C 280.080 135.200,279.283 134.300,278.200 133.200 C 277.117 132.100,276.140 131.200,276.030 131.200 C 275.920 131.200,276.717 132.100,277.800 133.200 M198.900 150.276 C 199.285 150.376,199.915 150.376,200.300 150.276 C 200.685 150.175,200.370 150.093,199.600 150.093 C 198.830 150.093,198.515 150.175,198.900 150.276 M204.500 150.276 C 204.885 150.376,205.515 150.376,205.900 150.276 C 206.285 150.175,205.970 150.093,205.200 150.093 C 204.430 150.093,204.115 150.175,204.500 150.276 M170.175 161.700 L 169.000 163.000 170.300 161.825 C 171.512 160.730,171.784 160.400,171.475 160.400 C 171.406 160.400,170.821 160.985,170.175 161.700 M252.093 193.600 C 252.093 194.370,252.175 194.685,252.276 194.300 C 252.376 193.915,252.376 193.285,252.276 192.900 C 252.175 192.515,252.093 192.830,252.093 193.600 M100.950 200.200 C 100.951 202.620,101.016 203.558,101.096 202.285 C 101.176 201.012,101.175 199.032,101.094 197.885 C 101.014 196.738,100.949 197.780,100.950 200.200 M303.744 200.000 C 303.744 202.090,303.812 202.945,303.894 201.900 C 303.976 200.855,303.976 199.145,303.894 198.100 C 303.812 197.055,303.744 197.910,303.744 200.000 M152.093 204.800 C 152.093 205.570,152.175 205.885,152.276 205.500 C 152.376 205.115,152.376 204.485,152.276 204.100 C 152.175 203.715,152.093 204.030,152.093 204.800 M252.093 206.400 C 252.093 207.170,252.175 207.485,252.276 207.100 C 252.376 206.715,252.376 206.085,252.276 205.700 C 252.175 205.315,252.093 205.630,252.093 206.400 M225.600 244.000 C 224.830 244.422,224.344 244.774,224.520 244.783 C 224.944 244.805,227.200 243.632,227.200 243.390 C 227.200 243.128,227.177 243.137,225.600 244.000 M205.700 249.876 C 206.085 249.976,206.715 249.976,207.100 249.876 C 207.485 249.775,207.170 249.693,206.400 249.693 C 205.630 249.693,205.315 249.775,205.700 249.876 M278.378 266.300 L 277.000 267.800 278.500 266.422 C 279.325 265.663,280.000 264.988,280.000 264.922 C 280.000 264.616,279.662 264.904,278.378 266.300 M126.400 266.600 C 127.146 267.370,127.847 268.000,127.957 268.000 C 128.067 268.000,127.546 267.370,126.800 266.600 C 126.054 265.830,125.353 265.200,125.243 265.200 C 125.133 265.200,125.654 265.830,126.400 266.600 M132.000 272.125 C 132.000 272.194,132.585 272.779,133.300 273.425 L 134.600 274.600 133.425 273.300 C 132.330 272.088,132.000 271.816,132.000 272.125 M270.981 273.700 L 269.400 275.400 271.100 273.819 C 272.681 272.348,272.984 272.000,272.681 272.000 C 272.616 272.000,271.851 272.765,270.981 273.700 M216.900 299.076 C 217.285 299.176,217.915 299.176,218.300 299.076 C 218.685 298.975,218.370 298.893,217.600 298.893 C 216.830 298.893,216.515 298.975,216.900 299.076 " stroke="none" fill="#a4a4a4" fill-rule="evenodd"></path><path id="path3" d="M101.320 196.800 C 101.320 198.010,101.395 198.505,101.487 197.900 C 101.578 197.295,101.578 196.305,101.487 195.700 C 101.395 195.095,101.320 195.590,101.320 196.800 M303.344 200.000 C 303.344 202.090,303.412 202.945,303.494 201.900 C 303.576 200.855,303.576 199.145,303.494 198.100 C 303.412 197.055,303.344 197.910,303.344 200.000 M151.724 199.800 C 151.726 201.120,151.801 201.612,151.890 200.893 C 151.979 200.174,151.977 199.094,151.886 198.493 C 151.795 197.892,151.722 198.480,151.724 199.800 M101.320 203.200 C 101.320 204.410,101.395 204.905,101.487 204.300 C 101.578 203.695,101.578 202.705,101.487 202.100 C 101.395 201.495,101.320 201.990,101.320 203.200 " stroke="none" fill="#848484" fill-rule="evenodd"></path><path id="path4" d="M101.293 193.600 C 101.293 194.370,101.375 194.685,101.476 194.300 C 101.576 193.915,101.576 193.285,101.476 192.900 C 101.375 192.515,101.293 192.830,101.293 193.600 M101.301 206.600 C 101.305 207.480,101.387 207.793,101.483 207.295 C 101.579 206.798,101.575 206.078,101.475 205.695 C 101.375 205.313,101.296 205.720,101.301 206.600 M129.600 269.725 C 129.600 269.794,130.185 270.379,130.900 271.025 L 132.200 272.200 131.025 270.900 C 129.930 269.688,129.600 269.416,129.600 269.725 " stroke="none" fill="#8c8c8c" fill-rule="evenodd"></path><path id="path5" d="M200.100 100.297 C 201.585 100.374,204.015 100.374,205.500 100.297 C 206.985 100.220,205.770 100.157,202.800 100.157 C 199.830 100.157,198.615 100.220,200.100 100.297 M187.800 101.201 C 181.544 102.151,177.012 103.125,178.640 103.167 C 179.322 103.185,180.402 103.025,181.040 102.811 C 182.240 102.409,185.952 101.857,193.200 101.003 C 196.752 100.584,197.030 100.505,195.000 100.489 C 193.680 100.479,190.440 100.799,187.800 101.201 M210.200 100.818 C 211.300 100.990,212.920 101.120,213.800 101.109 C 215.193 101.090,215.116 101.048,213.200 100.783 C 211.990 100.616,210.370 100.485,209.600 100.493 C 208.478 100.504,208.597 100.569,210.200 100.818 M215.621 101.332 C 215.864 101.600,222.750 102.754,225.600 103.004 L 227.400 103.163 225.600 102.769 C 221.000 101.763,215.262 100.937,215.621 101.332 M170.000 105.356 C 164.365 107.278,152.493 112.626,152.918 113.051 C 153.000 113.133,154.852 112.318,157.034 111.240 C 161.462 109.051,167.377 106.649,172.200 105.083 C 173.960 104.511,175.040 104.047,174.600 104.052 C 174.160 104.056,172.090 104.643,170.000 105.356 M230.033 104.147 C 230.125 104.228,232.180 104.963,234.600 105.782 C 237.020 106.600,239.720 107.598,240.600 107.999 C 241.480 108.400,243.479 109.279,245.043 109.953 C 246.606 110.627,249.008 111.813,250.381 112.589 C 251.754 113.365,252.978 114.000,253.101 114.000 C 253.224 114.000,253.881 114.424,254.562 114.942 C 255.243 115.461,256.520 116.275,257.400 116.753 C 260.279 118.315,270.977 126.769,272.566 128.738 C 272.805 129.034,273.562 129.844,274.249 130.538 C 277.831 134.155,282.712 139.854,284.400 142.390 C 284.730 142.886,285.585 144.070,286.300 145.022 C 287.015 145.973,287.603 146.898,287.607 147.076 C 287.611 147.254,288.120 148.146,288.739 149.058 C 289.357 149.970,291.008 152.981,292.406 155.750 C 293.805 158.518,295.021 160.712,295.109 160.624 C 295.320 160.414,290.816 151.435,289.366 149.175 C 288.739 148.199,287.883 146.770,287.463 146.000 C 287.043 145.230,286.581 144.510,286.437 144.400 C 286.292 144.290,285.463 143.210,284.594 142.000 C 275.623 129.509,263.221 118.791,249.457 111.632 C 247.005 110.357,244.550 109.177,244.000 109.009 C 243.450 108.842,242.100 108.300,241.000 107.806 C 236.826 105.930,229.151 103.369,230.033 104.147 M151.400 113.673 C 139.215 120.514,125.554 133.388,117.945 145.200 C 113.965 151.378,109.735 159.068,110.110 159.443 C 110.191 159.524,111.052 158.018,112.024 156.095 C 117.620 145.019,127.351 132.493,136.000 125.232 C 139.378 122.395,144.345 118.711,147.242 116.891 C 151.500 114.218,154.324 112.032,151.400 113.673 M199.900 149.895 C 201.055 149.976,202.945 149.976,204.100 149.895 C 205.255 149.814,204.310 149.748,202.000 149.748 C 199.690 149.748,198.745 149.814,199.900 149.895 M193.600 150.400 C 192.628 150.711,192.633 150.720,193.800 150.720 C 194.460 150.720,195.450 150.576,196.000 150.400 C 196.972 150.089,196.967 150.080,195.800 150.080 C 195.140 150.080,194.150 150.224,193.600 150.400 M208.600 150.400 C 209.040 150.589,210.120 150.738,211.000 150.732 C 212.375 150.722,212.459 150.675,211.600 150.400 C 210.160 149.939,207.527 149.939,208.600 150.400 M188.600 151.411 C 186.459 152.117,187.679 152.130,190.200 151.428 C 191.347 151.109,191.774 150.874,191.200 150.878 C 190.650 150.881,189.480 151.121,188.600 151.411 M214.600 151.428 C 217.206 152.153,218.251 152.127,216.200 151.388 C 215.320 151.071,214.150 150.825,213.600 150.842 C 212.953 150.861,213.307 151.068,214.600 151.428 M218.000 152.136 C 218.000 152.211,219.305 152.791,220.900 153.424 C 227.852 156.182,232.483 159.255,238.551 165.134 C 240.882 167.393,242.311 169.205,246.708 175.475 C 247.577 176.714,246.418 174.430,245.250 172.600 C 242.903 168.926,237.531 163.042,234.460 160.785 C 233.724 160.243,232.824 159.512,232.460 159.160 C 230.381 157.144,218.000 151.131,218.000 152.136 M181.607 153.878 C 180.181 154.458,178.201 155.437,177.207 156.053 C 176.213 156.669,174.860 157.476,174.200 157.846 C 170.426 159.962,160.000 170.227,160.000 171.826 C 160.000 172.280,160.436 171.825,162.037 169.700 C 164.967 165.811,171.720 159.624,174.800 158.006 C 175.350 157.717,175.890 157.364,176.000 157.222 C 176.176 156.996,179.202 155.511,183.600 153.493 C 185.868 152.453,184.424 152.731,181.607 153.878 M109.358 160.643 C 109.214 161.059,108.418 163.200,107.588 165.400 C 105.835 170.048,103.982 176.339,104.041 177.438 C 104.066 177.909,104.209 177.742,104.415 177.000 C 104.598 176.340,104.928 175.170,105.147 174.400 C 105.367 173.630,105.844 171.920,106.208 170.600 C 106.572 169.280,107.592 166.433,108.475 164.274 C 109.359 162.115,109.977 160.244,109.850 160.117 C 109.723 159.990,109.501 160.226,109.358 160.643 M296.965 165.200 C 297.058 165.750,297.404 167.100,297.734 168.200 C 299.789 175.055,300.808 178.954,301.217 181.526 C 301.473 183.135,301.782 184.351,301.905 184.228 C 302.194 183.939,301.317 178.944,300.390 175.600 C 299.170 171.199,297.929 167.039,297.586 166.200 C 297.406 165.760,297.155 165.130,297.027 164.800 C 296.900 164.470,296.872 164.650,296.965 165.200 M158.952 173.500 C 158.585 174.105,157.986 175.050,157.621 175.600 C 156.125 177.851,153.847 183.362,154.113 184.086 C 154.216 184.369,154.443 184.060,154.616 183.400 C 155.074 181.651,156.973 177.522,158.579 174.782 C 159.347 173.472,159.895 172.400,159.797 172.400 C 159.699 172.400,159.318 172.895,158.952 173.500 M247.287 176.700 C 247.756 177.615,249.130 180.708,249.355 181.357 C 249.500 181.774,249.715 182.018,249.833 181.900 C 250.090 181.644,247.762 176.400,247.392 176.400 C 247.250 176.400,247.203 176.535,247.287 176.700 M102.492 184.400 C 102.221 186.270,102.018 188.430,102.041 189.200 C 102.064 189.970,102.334 188.800,102.641 186.600 C 102.949 184.400,103.152 182.240,103.092 181.800 C 103.033 181.360,102.763 182.530,102.492 184.400 M250.144 183.000 C 250.255 183.440,250.632 184.790,250.982 186.000 C 253.522 194.793,253.093 213.441,250.286 216.247 C 250.129 216.405,250.000 216.769,250.000 217.056 C 250.000 217.344,249.370 218.874,248.600 220.456 C 247.830 222.038,247.287 223.421,247.395 223.528 C 247.625 223.758,250.400 217.784,250.400 217.058 C 250.400 216.784,250.550 216.389,250.733 216.180 C 250.915 215.971,251.286 215.025,251.555 214.079 C 254.160 204.925,253.653 189.819,250.526 183.400 C 250.204 182.740,250.032 182.560,250.144 183.000 M153.291 186.100 C 153.021 186.846,152.813 187.714,152.828 188.028 C 152.844 188.343,153.117 187.889,153.435 187.020 C 153.753 186.151,153.961 185.283,153.897 185.092 C 153.833 184.900,153.560 185.354,153.291 186.100 M302.075 186.400 C 302.065 187.170,302.211 188.160,302.400 188.600 C 302.857 189.664,302.857 187.997,302.400 186.200 L 302.095 185.000 302.075 186.400 M152.178 190.178 C 152.027 190.981,151.994 191.727,152.104 191.837 C 152.214 191.947,152.427 191.381,152.578 190.578 C 152.728 189.775,152.762 189.028,152.652 188.918 C 152.542 188.808,152.328 189.375,152.178 190.178 M101.546 196.100 C 101.455 198.575,101.488 202.400,101.619 204.600 C 101.805 207.712,101.873 206.713,101.929 200.100 C 102.006 190.902,101.812 188.872,101.546 196.100 M302.970 200.000 C 302.970 204.730,303.028 206.665,303.098 204.300 C 303.169 201.935,303.169 198.065,303.098 195.700 C 303.028 193.335,302.970 195.270,302.970 200.000 M151.389 196.605 C 151.233 198.697,151.267 201.982,151.465 203.905 C 151.798 207.124,151.828 206.824,151.847 200.100 C 151.870 191.806,151.793 191.219,151.389 196.605 M152.068 208.800 C 152.062 209.350,152.211 210.160,152.400 210.600 L 152.744 211.400 152.732 210.600 C 152.726 210.160,152.576 209.350,152.400 208.800 L 152.080 207.800 152.068 208.800 M102.073 211.200 C 102.066 212.190,102.298 214.350,102.587 216.000 C 103.280 219.945,103.302 218.039,102.620 213.200 C 102.267 210.691,102.081 210.012,102.073 211.200 M302.289 211.600 C 302.136 212.150,302.027 213.140,302.046 213.800 C 302.077 214.892,302.114 214.858,302.452 213.411 C 302.875 211.606,302.731 210.011,302.289 211.600 M152.818 212.054 C 152.808 212.414,153.063 213.314,153.384 214.054 C 154.140 215.794,154.158 215.073,153.412 213.000 C 153.095 212.120,152.827 211.694,152.818 212.054 M154.032 216.308 C 153.932 219.173,160.471 229.799,165.611 235.127 C 172.269 242.026,185.947 249.435,191.532 249.168 C 191.900 249.150,190.940 248.809,189.400 248.409 C 184.588 247.161,178.335 244.462,174.760 242.090 C 170.901 239.531,169.958 238.732,165.619 234.353 C 163.011 231.721,161.750 230.073,158.003 224.400 C 157.448 223.558,154.983 218.005,154.275 216.000 C 154.140 215.618,154.052 215.729,154.032 216.308 M300.911 220.018 C 300.424 222.538,299.572 226.040,299.016 227.800 C 298.461 229.560,297.706 231.946,297.338 233.101 C 296.970 234.257,296.763 235.296,296.877 235.410 C 296.991 235.525,297.369 234.669,297.717 233.509 C 298.065 232.349,298.888 229.600,299.548 227.400 C 300.909 222.856,302.119 217.114,301.926 216.111 C 301.855 215.740,301.398 217.499,300.911 220.018 M104.041 222.562 C 103.982 223.661,105.835 229.952,107.588 234.600 C 108.418 236.800,109.231 238.960,109.395 239.400 C 109.565 239.857,109.769 239.998,109.870 239.730 C 109.967 239.471,109.698 238.571,109.271 237.730 C 108.845 236.888,107.943 234.580,107.267 232.600 C 106.181 229.420,105.598 227.467,104.403 223.000 C 104.208 222.272,104.066 222.100,104.041 222.562 M246.367 224.862 C 244.351 228.629,239.194 234.588,233.800 239.382 C 232.720 240.341,232.700 240.399,233.600 239.957 C 236.182 238.688,244.487 229.344,246.450 225.500 C 247.249 223.936,247.173 223.355,246.367 224.862 M294.200 240.686 C 288.887 252.096,284.276 258.936,276.101 267.532 C 274.287 269.439,272.757 271.090,272.701 271.200 C 272.349 271.896,263.313 279.329,260.400 281.318 C 257.688 283.171,255.166 284.800,255.010 284.800 C 254.914 284.800,254.181 285.244,253.380 285.788 C 252.580 286.331,251.222 287.086,250.362 287.465 C 249.503 287.844,248.800 288.297,248.800 288.472 C 248.800 289.250,259.285 282.850,263.803 279.315 C 273.855 271.448,282.350 262.203,288.349 252.600 C 290.518 249.128,295.363 239.629,295.099 239.366 C 294.992 239.259,294.587 239.853,294.200 240.686 M110.000 240.543 C 110.000 241.090,112.941 246.673,115.149 250.315 C 116.387 252.359,117.604 254.399,117.854 254.849 C 118.103 255.299,118.530 255.877,118.803 256.134 C 119.505 256.795,118.888 255.645,116.344 251.550 C 115.199 249.708,113.373 246.490,112.287 244.400 C 110.263 240.507,110.000 240.063,110.000 240.543 M230.600 241.638 C 229.720 242.252,227.698 243.429,226.108 244.252 C 224.517 245.075,223.279 245.812,223.356 245.889 C 223.580 246.113,225.595 245.145,228.307 243.511 C 229.686 242.680,230.969 242.000,231.158 242.000 C 231.560 242.000,232.589 240.842,232.357 240.651 C 232.271 240.580,231.480 241.024,230.600 241.638 M220.000 246.958 C 217.940 247.788,214.476 248.663,209.800 249.533 C 208.700 249.738,208.250 249.927,208.800 249.953 C 211.272 250.069,219.397 247.993,221.991 246.581 C 223.495 245.763,222.495 245.952,220.000 246.958 M193.200 249.600 C 193.750 249.776,194.740 249.920,195.400 249.920 C 196.567 249.920,196.572 249.911,195.600 249.600 C 195.050 249.424,194.060 249.280,193.400 249.280 C 192.233 249.280,192.228 249.289,193.200 249.600 M199.282 250.296 C 200.758 250.373,203.278 250.373,204.882 250.297 C 206.487 250.221,205.280 250.158,202.200 250.158 C 199.120 250.157,197.807 250.219,199.282 250.296 M119.867 257.746 C 120.270 258.266,121.611 260.021,122.848 261.646 C 125.270 264.830,132.714 272.719,132.051 271.400 C 131.830 270.960,130.452 269.430,128.988 268.000 C 127.524 266.570,125.351 264.106,124.160 262.525 C 122.968 260.943,121.753 259.410,121.459 259.117 C 121.166 258.823,120.712 258.182,120.449 257.692 C 120.187 257.201,119.783 256.800,119.553 256.800 C 119.322 256.800,119.463 257.226,119.867 257.746 M132.800 272.103 C 132.800 273.016,140.432 279.220,146.400 283.158 C 154.830 288.722,172.303 296.632,174.525 295.892 C 174.837 295.788,171.964 294.750,168.000 293.536 C 167.230 293.300,165.462 292.588,164.072 291.953 C 162.682 291.319,161.390 290.800,161.202 290.800 C 159.390 290.800,144.640 281.869,139.600 277.721 C 138.170 276.544,136.730 275.376,136.400 275.127 C 136.070 274.877,135.125 274.035,134.300 273.255 C 133.475 272.475,132.800 271.957,132.800 272.103 M244.000 290.496 C 239.859 292.286,239.789 292.323,240.033 292.565 C 240.125 292.656,240.830 292.424,241.600 292.050 C 242.370 291.676,244.129 290.948,245.508 290.433 C 246.888 289.918,248.114 289.339,248.232 289.148 C 248.583 288.581,247.995 288.768,244.000 290.496 M236.091 293.683 C 234.930 294.140,234.066 294.599,234.170 294.703 C 234.274 294.807,234.953 294.670,235.680 294.398 C 239.383 293.013,239.761 292.836,239.000 292.844 C 238.560 292.848,237.251 293.226,236.091 293.683 M231.000 295.414 C 229.413 296.141,230.180 296.139,232.200 295.412 C 233.080 295.095,233.440 294.842,233.000 294.850 C 232.560 294.858,231.660 295.112,231.000 295.414 M228.000 296.400 C 227.467 296.745,227.467 296.788,228.000 296.788 C 228.330 296.788,228.870 296.613,229.200 296.400 C 229.733 296.055,229.733 296.012,229.200 296.012 C 228.870 296.012,228.330 296.187,228.000 296.400 M179.800 297.428 C 182.414 298.156,183.933 298.114,181.600 297.379 C 180.610 297.067,179.350 296.826,178.800 296.842 C 178.153 296.861,178.507 297.068,179.800 297.428 M223.600 297.203 C 223.050 297.389,220.980 297.769,219.000 298.046 C 217.020 298.323,215.756 298.627,216.191 298.722 C 217.032 298.905,221.034 298.309,225.000 297.411 C 226.908 296.978,227.113 296.867,226.000 296.865 C 225.230 296.864,224.150 297.016,223.600 297.203 M185.000 298.400 C 186.740 298.843,189.382 298.843,188.000 298.400 C 187.450 298.224,186.280 298.083,185.400 298.087 C 183.878 298.094,183.858 298.110,185.000 298.400 M190.800 299.204 C 194.419 299.945,206.720 300.089,211.200 299.443 C 215.379 298.840,215.383 298.838,212.000 299.116 C 207.606 299.476,197.652 299.477,192.800 299.117 C 190.100 298.917,189.521 298.942,190.800 299.204 " stroke="none" fill="#747474" fill-rule="evenodd"></path><path id="path6" d="M193.491 99.889 C 194.201 99.977,195.461 99.979,196.291 99.892 C 197.121 99.805,196.540 99.733,195.000 99.731 C 193.460 99.729,192.781 99.800,193.491 99.889 M202.900 99.897 C 204.605 99.972,207.395 99.972,209.100 99.897 C 210.805 99.822,209.410 99.761,206.000 99.761 C 202.590 99.761,201.195 99.822,202.900 99.897 M187.400 100.408 C 186.892 100.631,187.476 100.674,189.000 100.524 C 190.320 100.395,191.475 100.224,191.567 100.144 C 191.921 99.837,188.157 100.075,187.400 100.408 M214.600 100.423 C 215.480 100.605,216.740 100.744,217.400 100.731 C 218.444 100.711,218.392 100.665,217.000 100.377 C 216.120 100.195,214.860 100.056,214.200 100.069 C 213.156 100.089,213.208 100.135,214.600 100.423 M181.800 101.200 C 180.706 101.670,182.533 101.670,184.000 101.200 C 184.975 100.888,184.970 100.879,183.800 100.868 C 183.140 100.862,182.240 101.011,181.800 101.200 M220.800 101.195 C 221.570 101.368,222.920 101.609,223.800 101.731 L 225.400 101.952 223.800 101.407 C 222.920 101.107,221.570 100.866,220.800 100.871 L 219.400 100.880 220.800 101.195 M176.600 102.400 L 175.800 102.744 176.600 102.732 C 177.040 102.726,177.850 102.576,178.400 102.400 L 179.400 102.080 178.400 102.068 C 177.850 102.062,177.040 102.211,176.600 102.400 M226.200 102.400 C 226.640 102.589,227.360 102.744,227.800 102.744 L 228.600 102.744 227.800 102.400 C 227.360 102.211,226.640 102.056,226.200 102.056 L 225.400 102.056 226.200 102.400 M167.000 105.414 C 166.340 105.717,166.070 105.966,166.400 105.968 C 166.730 105.970,167.450 105.714,168.000 105.400 C 169.265 104.677,168.589 104.687,167.000 105.414 M236.746 105.416 C 237.486 105.737,238.206 105.994,238.346 105.986 C 238.866 105.957,236.576 104.828,236.000 104.830 C 235.670 104.831,236.006 105.094,236.746 105.416 M240.752 107.048 C 241.935 107.588,242.970 107.963,243.051 107.882 C 243.132 107.801,242.704 107.503,242.099 107.221 C 241.495 106.938,240.687 106.548,240.305 106.353 C 239.923 106.159,239.383 106.015,239.105 106.033 C 238.827 106.051,239.568 106.508,240.752 107.048 M245.633 108.949 C 246.045 109.317,248.400 110.400,248.400 110.221 C 248.400 109.990,246.182 108.800,245.753 108.800 C 245.596 108.800,245.542 108.867,245.633 108.949 M155.000 110.800 C 153.900 111.452,153.141 111.989,153.314 111.993 C 153.487 111.997,154.567 111.462,155.714 110.804 C 156.861 110.146,157.620 109.609,157.400 109.611 C 157.180 109.612,156.100 110.148,155.000 110.800 M252.000 112.145 C 252.000 112.225,253.665 113.320,255.700 114.578 C 257.735 115.836,259.941 117.255,260.603 117.732 C 264.639 120.645,268.141 123.433,270.678 125.754 C 271.613 126.609,272.787 127.584,273.288 127.921 C 274.553 128.771,270.959 125.348,268.564 123.420 C 267.484 122.551,266.170 121.426,265.645 120.920 C 265.120 120.414,264.563 120.000,264.408 120.000 C 264.252 120.000,263.601 119.550,262.962 119.000 C 262.323 118.451,261.678 118.001,261.529 118.000 C 261.379 118.000,260.990 117.733,260.665 117.407 C 259.572 116.315,252.000 111.716,252.000 112.145 M149.400 113.863 L 148.200 114.898 149.800 113.979 C 151.823 112.818,151.848 112.797,151.167 112.814 C 150.855 112.822,150.060 113.294,149.400 113.863 M144.903 116.700 C 143.530 117.712,142.474 118.607,142.556 118.690 C 142.720 118.853,148.000 115.244,148.000 114.969 C 148.000 114.554,147.230 114.984,144.903 116.700 M138.800 120.995 C 138.030 121.516,135.420 123.864,133.000 126.214 C 130.580 128.564,129.320 129.868,130.200 129.113 C 131.080 128.358,132.700 126.889,133.800 125.848 C 134.900 124.807,136.835 123.129,138.100 122.119 C 139.365 121.109,140.400 120.219,140.400 120.141 C 140.400 119.926,140.304 119.977,138.800 120.995 M276.300 131.105 C 277.565 132.373,279.844 134.983,281.365 136.905 C 282.885 138.827,284.201 140.400,284.288 140.400 C 284.552 140.400,283.937 139.515,282.022 137.141 C 281.020 135.899,279.888 134.471,279.506 133.967 C 278.310 132.389,274.734 128.800,274.358 128.800 C 274.161 128.800,275.035 129.837,276.300 131.105 M127.200 131.936 C 125.081 134.311,124.678 134.944,126.141 133.600 C 127.432 132.415,128.702 130.782,128.314 130.808 C 128.251 130.812,127.750 131.319,127.200 131.936 M123.994 135.713 C 123.660 135.981,122.762 137.010,121.997 138.000 C 121.233 138.990,120.461 139.980,120.283 140.200 C 118.868 141.946,112.738 151.672,112.931 151.864 C 113.014 151.947,114.113 150.347,115.374 148.307 C 118.365 143.468,119.658 141.610,122.477 138.100 C 123.758 136.505,124.760 135.206,124.703 135.213 C 124.646 135.220,124.327 135.445,123.994 135.713 M285.642 142.600 C 286.310 143.590,286.929 144.400,287.018 144.400 C 287.107 144.400,286.691 143.590,286.093 142.600 C 285.495 141.610,284.876 140.800,284.716 140.800 C 284.557 140.800,284.974 141.610,285.642 142.600 M288.886 147.200 C 289.206 147.750,289.965 149.055,290.572 150.100 C 291.179 151.145,291.759 152.000,291.861 152.000 C 292.132 152.000,289.926 148.151,289.053 147.099 L 288.305 146.200 288.886 147.200 M196.600 150.800 L 195.400 151.105 196.600 151.113 C 197.260 151.117,198.250 150.976,198.800 150.800 L 199.800 150.480 198.800 150.487 C 198.250 150.491,197.260 150.632,196.600 150.800 M205.633 150.543 C 205.725 150.621,206.430 150.801,207.200 150.942 C 208.185 151.123,208.422 151.082,208.000 150.806 C 207.458 150.450,205.237 150.203,205.633 150.543 M190.600 151.846 C 189.030 152.398,189.026 152.404,190.400 152.159 C 193.832 151.549,194.715 151.292,193.400 151.288 C 192.740 151.286,191.480 151.537,190.600 151.846 M211.400 151.600 C 211.840 151.789,212.470 151.944,212.800 151.944 C 213.178 151.944,213.104 151.817,212.600 151.600 C 212.160 151.411,211.530 151.256,211.200 151.256 C 210.822 151.256,210.896 151.383,211.400 151.600 M214.100 152.276 C 214.485 152.376,215.115 152.376,215.500 152.276 C 215.885 152.175,215.570 152.093,214.800 152.093 C 214.030 152.093,213.715 152.175,214.100 152.276 M187.000 152.800 C 186.496 153.017,186.422 153.144,186.800 153.144 C 187.130 153.144,187.760 152.989,188.200 152.800 C 188.704 152.583,188.778 152.456,188.400 152.456 C 188.070 152.456,187.440 152.611,187.000 152.800 M292.003 152.475 C 292.001 152.626,292.717 154.066,293.594 155.675 C 295.324 158.848,295.662 159.128,294.411 156.351 C 293.598 154.547,292.007 151.987,292.003 152.475 M180.800 155.400 C 179.810 155.930,179.180 156.364,179.400 156.364 C 179.620 156.364,180.610 155.930,181.600 155.400 C 182.590 154.870,183.220 154.436,183.000 154.436 C 182.780 154.436,181.790 154.870,180.800 155.400 M221.800 154.800 C 221.936 155.020,222.281 155.200,222.567 155.200 C 223.238 155.200,227.232 157.332,229.795 159.057 C 230.892 159.796,231.972 160.396,232.195 160.392 C 233.138 160.372,222.864 154.408,221.876 154.402 C 221.698 154.401,221.664 154.580,221.800 154.800 M177.331 157.021 C 176.632 157.327,175.957 157.746,175.829 157.953 C 175.701 158.160,176.317 157.981,177.198 157.555 C 178.079 157.130,178.800 156.696,178.800 156.591 C 178.800 156.363,178.901 156.333,177.331 157.021 M172.317 160.370 C 167.790 163.797,162.134 169.896,159.863 173.800 C 159.037 175.220,159.328 174.878,162.337 170.898 C 163.292 169.634,165.162 167.464,166.493 166.077 C 168.613 163.865,169.878 162.764,174.400 159.199 C 176.525 157.524,174.783 158.503,172.317 160.370 M295.226 159.200 C 295.227 159.530,295.499 160.250,295.831 160.800 L 296.433 161.800 296.168 160.800 C 295.784 159.348,295.224 158.397,295.226 159.200 M234.400 162.400 C 235.390 163.267,236.349 163.981,236.531 163.988 C 236.713 163.995,236.263 163.506,235.531 162.903 C 234.799 162.299,233.962 161.579,233.671 161.303 C 233.381 161.026,233.021 160.805,232.871 160.812 C 232.722 160.819,233.410 161.533,234.400 162.400 M297.232 163.800 C 297.230 164.020,297.486 164.650,297.800 165.200 C 298.114 165.750,298.378 166.594,298.386 167.076 C 298.394 167.558,298.587 168.068,298.816 168.210 C 299.089 168.379,299.138 168.077,298.960 167.334 C 298.657 166.074,297.237 163.170,297.232 163.800 M106.295 165.873 C 106.194 166.053,106.003 166.740,105.872 167.400 C 105.634 168.594,105.636 168.593,106.237 167.253 C 106.760 166.086,106.808 164.968,106.295 165.873 M239.266 166.900 C 239.606 167.175,240.737 168.615,241.778 170.100 C 243.610 172.714,244.825 173.929,243.378 171.700 C 241.609 168.977,239.535 166.400,239.111 166.400 C 238.842 166.400,238.907 166.610,239.266 166.900 M105.073 169.353 C 104.923 169.745,104.811 170.366,104.825 170.733 C 104.842 171.175,104.981 171.074,105.237 170.434 C 105.449 169.903,105.561 169.282,105.485 169.054 C 105.409 168.827,105.224 168.961,105.073 169.353 M299.243 169.600 C 299.253 169.930,299.516 170.830,299.827 171.600 L 300.393 173.000 300.151 171.600 C 299.876 170.013,299.211 168.548,299.243 169.600 M300.644 174.200 C 300.973 175.671,301.202 175.990,301.194 174.967 C 301.191 174.545,301.005 173.930,300.782 173.600 C 300.485 173.162,300.448 173.324,300.644 174.200 M301.463 177.280 C 301.800 179.049,302.000 179.201,302.000 177.690 C 302.000 177.007,301.823 176.338,301.606 176.204 C 301.360 176.052,301.306 176.455,301.463 177.280 M156.404 180.128 C 154.771 183.728,154.907 184.076,156.590 180.606 C 157.335 179.069,157.869 177.735,157.776 177.642 C 157.683 177.550,157.065 178.668,156.404 180.128 M246.825 177.800 C 246.825 178.020,247.090 178.549,247.413 178.976 C 247.736 179.404,248.000 179.573,248.000 179.353 C 248.000 179.133,247.736 178.604,247.413 178.176 C 247.090 177.749,246.825 177.580,246.825 177.800 M302.451 182.400 C 302.448 182.950,302.595 184.120,302.777 185.000 L 303.108 186.600 303.126 184.800 C 303.136 183.810,302.989 182.640,302.800 182.200 C 302.486 181.470,302.456 181.487,302.451 182.400 M101.701 184.200 C 101.705 185.080,101.787 185.393,101.883 184.895 C 101.979 184.398,101.975 183.678,101.875 183.295 C 101.775 182.913,101.696 183.320,101.701 184.200 M154.629 184.629 C 154.481 185.215,154.438 185.772,154.532 185.866 C 154.627 185.960,154.824 185.558,154.971 184.971 C 155.119 184.385,155.162 183.828,155.068 183.734 C 154.973 183.640,154.776 184.042,154.629 184.629 M250.068 185.600 C 250.062 186.150,250.211 186.960,250.400 187.400 L 250.744 188.200 250.732 187.400 C 250.726 186.960,250.576 186.150,250.400 185.600 L 250.080 184.600 250.068 185.600 M101.094 187.800 C 100.937 188.680,100.829 190.120,100.853 191.000 C 100.891 192.378,100.947 192.267,101.255 190.200 C 101.666 187.446,101.526 185.372,101.094 187.800 M153.691 187.700 C 153.010 189.584,153.104 190.094,153.826 188.430 C 154.153 187.677,154.366 186.899,154.301 186.702 C 154.235 186.505,153.960 186.954,153.691 187.700 M250.868 189.000 C 250.874 189.440,251.024 190.250,251.200 190.800 L 251.520 191.800 251.532 190.800 C 251.538 190.250,251.389 189.440,251.200 189.000 L 250.856 188.200 250.868 189.000 M303.477 192.600 C 303.600 193.920,303.768 195.075,303.850 195.167 C 304.118 195.464,303.915 192.634,303.580 191.400 C 303.365 190.611,303.330 191.022,303.477 192.600 M152.593 193.314 C 152.444 194.513,152.395 195.833,152.485 196.247 C 152.575 196.661,152.789 195.771,152.960 194.269 C 153.131 192.766,153.179 191.446,153.068 191.335 C 152.957 191.224,152.743 192.114,152.593 193.314 M251.701 193.400 C 251.705 194.280,251.787 194.593,251.883 194.095 C 251.979 193.598,251.975 192.878,251.875 192.495 C 251.775 192.113,251.696 192.520,251.701 193.400 M252.148 200.000 C 252.148 202.310,252.214 203.255,252.295 202.100 C 252.376 200.945,252.376 199.055,252.295 197.900 C 252.214 196.745,252.148 197.690,252.148 200.000 M304.148 200.000 C 304.148 202.310,304.214 203.255,304.295 202.100 C 304.376 200.945,304.376 199.055,304.295 197.900 C 304.214 196.745,304.148 197.690,304.148 200.000 M100.520 200.000 C 100.520 201.210,100.595 201.705,100.687 201.100 C 100.778 200.495,100.778 199.505,100.687 198.900 C 100.595 198.295,100.520 198.790,100.520 200.000 M152.440 205.033 C 152.462 206.115,152.634 207.450,152.821 208.000 C 153.037 208.631,153.078 207.968,152.932 206.200 C 152.660 202.896,152.383 202.240,152.440 205.033 M303.446 207.046 C 303.300 208.293,303.259 209.393,303.357 209.490 C 303.454 209.588,303.661 208.654,303.815 207.415 C 303.970 206.177,304.010 205.077,303.905 204.971 C 303.799 204.866,303.593 205.799,303.446 207.046 M251.658 206.400 C 251.624 207.170,251.405 208.486,251.172 209.324 C 250.940 210.162,250.825 211.062,250.917 211.324 C 251.186 212.087,252.071 207.324,251.887 206.106 C 251.741 205.141,251.712 205.179,251.658 206.400 M100.876 209.200 C 100.860 210.190,100.995 211.720,101.177 212.600 L 101.508 214.200 101.519 212.800 C 101.525 212.030,101.390 210.500,101.218 209.400 L 100.907 207.400 100.876 209.200 M250.249 213.015 C 250.112 213.373,250.016 214.056,250.036 214.533 C 250.062 215.147,250.185 215.008,250.459 214.056 C 250.857 212.672,250.694 211.858,250.249 213.015 M302.505 216.771 C 302.232 218.626,302.072 220.205,302.148 220.281 C 302.429 220.563,303.266 215.741,303.135 214.591 C 303.052 213.856,302.810 214.692,302.505 216.771 M154.600 215.000 C 154.891 216.366,156.845 220.888,157.054 220.679 C 157.130 220.604,156.551 219.025,155.767 217.171 C 154.984 215.317,154.459 214.340,154.600 215.000 M101.693 215.600 C 101.693 216.370,101.775 216.685,101.876 216.300 C 101.976 215.915,101.976 215.285,101.876 214.900 C 101.775 214.515,101.693 214.830,101.693 215.600 M249.250 216.650 C 248.986 217.229,248.862 217.795,248.974 217.907 C 249.086 218.019,249.368 217.611,249.600 217.000 C 249.832 216.389,249.957 215.823,249.876 215.743 C 249.796 215.662,249.514 216.071,249.250 216.650 M102.068 217.800 C 102.062 218.240,102.211 218.960,102.400 219.400 C 102.838 220.419,102.838 219.368,102.400 218.000 C 102.143 217.196,102.077 217.157,102.068 217.800 M157.202 221.500 C 157.203 221.665,157.664 222.520,158.226 223.400 C 159.326 225.123,159.333 225.022,158.274 222.700 C 157.633 221.296,157.197 220.808,157.202 221.500 M301.649 221.600 C 301.616 221.930,301.489 222.650,301.367 223.200 C 301.175 224.064,301.207 224.103,301.599 223.488 C 301.848 223.097,301.975 222.377,301.881 221.888 C 301.786 221.400,301.682 221.270,301.649 221.600 M245.746 224.100 C 245.581 224.375,244.845 225.545,244.110 226.700 C 243.376 227.855,242.873 228.800,242.993 228.800 C 243.112 228.800,243.867 227.765,244.671 226.500 C 245.474 225.235,246.327 224.068,246.566 223.906 C 246.867 223.702,246.854 223.610,246.524 223.606 C 246.262 223.603,245.912 223.825,245.746 224.100 M300.846 224.867 C 300.821 225.234,300.696 225.864,300.570 226.267 C 300.352 226.962,300.363 226.963,300.797 226.287 C 301.048 225.896,301.173 225.266,301.073 224.887 C 300.911 224.268,300.888 224.266,300.846 224.867 M104.028 226.676 C 104.013 227.158,104.180 227.664,104.400 227.800 C 104.873 228.092,104.873 227.701,104.400 226.600 C 104.069 225.829,104.055 225.831,104.028 226.676 M161.677 228.947 C 162.405 229.950,164.331 232.172,165.958 233.885 C 167.671 235.689,168.277 236.195,167.399 235.087 C 166.565 234.035,165.666 233.045,165.402 232.887 C 165.137 232.729,164.075 231.480,163.040 230.111 C 160.855 227.218,159.718 226.249,161.677 228.947 M299.636 228.836 C 299.366 229.739,299.235 230.569,299.346 230.679 C 299.457 230.790,299.751 230.124,300.000 229.200 C 300.589 227.011,300.277 226.699,299.636 228.836 M104.834 229.400 C 104.822 229.840,104.987 230.470,105.200 230.800 C 105.714 231.595,105.714 230.596,105.200 229.400 L 104.856 228.600 104.834 229.400 M241.601 230.198 C 241.086 230.748,240.739 231.264,240.832 231.346 C 240.924 231.428,241.419 230.978,241.930 230.347 C 243.076 228.935,242.874 228.844,241.601 230.198 M105.846 232.600 C 105.988 233.260,106.280 233.980,106.497 234.200 C 106.755 234.463,106.789 234.257,106.597 233.600 C 106.123 231.985,105.551 231.223,105.846 232.600 M239.203 233.197 C 238.465 233.856,237.950 234.483,238.058 234.591 C 238.166 234.700,238.863 234.161,239.606 233.394 C 241.262 231.685,241.026 231.570,239.203 233.197 M297.665 235.017 C 296.995 236.488,297.123 236.802,297.847 235.465 C 298.186 234.840,298.388 234.254,298.296 234.163 C 298.205 234.071,297.921 234.456,297.665 235.017 M106.828 235.000 C 106.828 235.220,107.086 235.850,107.400 236.400 C 107.714 236.950,107.972 237.220,107.972 237.000 C 107.972 236.780,107.714 236.150,107.400 235.600 C 107.086 235.050,106.828 234.780,106.828 235.000 M170.581 238.310 C 171.451 239.240,172.314 240.000,172.499 240.000 C 172.856 240.000,171.618 238.726,169.982 237.410 C 169.442 236.976,169.712 237.381,170.581 238.310 M234.443 237.623 C 233.917 238.061,233.571 238.505,233.675 238.608 C 233.779 238.712,234.286 238.348,234.801 237.798 C 235.924 236.604,235.762 236.525,234.443 237.623 M295.600 239.600 C 295.321 240.274,295.186 240.919,295.300 241.033 C 295.414 241.147,295.709 240.662,295.956 239.956 C 296.538 238.286,296.259 238.008,295.600 239.600 M173.200 240.178 C 173.200 240.450,176.833 242.900,176.996 242.738 C 177.073 242.661,176.250 242.012,175.168 241.296 C 174.085 240.580,173.200 240.077,173.200 240.178 M229.300 241.240 C 226.984 242.880,227.156 243.043,229.600 241.524 C 230.700 240.840,231.600 240.217,231.600 240.140 C 231.600 239.781,230.861 240.134,229.300 241.240 M109.600 241.847 C 109.600 242.067,109.864 242.596,110.187 243.024 C 110.510 243.451,110.775 243.620,110.775 243.400 C 110.775 243.180,110.510 242.651,110.187 242.224 C 109.864 241.796,109.600 241.627,109.600 241.847 M293.592 244.299 C 291.893 247.533,291.664 248.178,292.776 246.600 C 293.669 245.334,295.289 241.956,295.096 241.763 C 295.034 241.701,294.357 242.842,293.592 244.299 M224.600 243.880 C 223.500 244.437,222.195 245.082,221.701 245.313 C 221.206 245.545,220.873 245.806,220.960 245.894 C 221.124 246.057,225.725 243.951,226.800 243.220 C 227.901 242.472,226.625 242.855,224.600 243.880 M110.801 244.233 C 110.803 244.682,112.313 247.200,112.581 247.200 C 112.686 247.200,112.387 246.525,111.914 245.700 C 110.856 243.852,110.800 243.777,110.801 244.233 M183.141 245.805 C 184.098 246.352,184.998 246.794,185.141 246.788 C 185.555 246.768,182.243 244.804,181.800 244.807 C 181.580 244.808,182.183 245.257,183.141 245.805 M187.600 247.400 C 188.370 247.697,189.270 247.939,189.600 247.939 C 189.930 247.939,189.570 247.697,188.800 247.400 C 188.030 247.103,187.130 246.861,186.800 246.861 C 186.470 246.861,186.830 247.103,187.600 247.400 M216.800 247.200 C 216.267 247.545,216.267 247.588,216.800 247.588 C 217.130 247.588,217.670 247.413,218.000 247.200 C 218.533 246.855,218.533 246.812,218.000 246.812 C 217.670 246.812,217.130 246.987,216.800 247.200 M113.451 249.299 C 114.719 251.751,118.441 257.292,118.668 257.065 C 118.793 256.940,118.605 256.548,118.251 256.194 C 117.897 255.839,116.593 253.851,115.354 251.775 C 113.136 248.057,112.137 246.759,113.451 249.299 M191.200 248.400 C 191.530 248.613,192.160 248.778,192.600 248.766 L 193.400 248.744 192.600 248.400 C 191.404 247.886,190.405 247.886,191.200 248.400 M211.600 248.400 C 210.805 248.914,211.804 248.914,213.000 248.400 L 213.800 248.056 213.000 248.034 C 212.560 248.022,211.930 248.187,211.600 248.400 M196.600 249.200 C 197.260 249.368,198.250 249.509,198.800 249.513 L 199.800 249.520 198.800 249.200 C 198.250 249.024,197.260 248.883,196.600 248.887 L 195.400 248.895 196.600 249.200 M206.800 249.200 C 205.976 249.464,205.941 249.526,206.600 249.554 C 207.040 249.573,207.670 249.413,208.000 249.200 C 208.701 248.747,208.214 248.747,206.800 249.200 M201.500 249.882 C 201.995 249.978,202.805 249.978,203.300 249.882 C 203.795 249.787,203.390 249.709,202.400 249.709 C 201.410 249.709,201.005 249.787,201.500 249.882 M286.148 256.665 C 285.754 257.289,284.625 258.880,283.640 260.200 C 282.654 261.520,282.235 262.264,282.708 261.852 C 283.181 261.441,284.250 260.091,285.084 258.852 C 285.918 257.614,286.775 256.475,286.988 256.322 C 287.202 256.169,287.261 255.928,287.120 255.787 C 286.979 255.646,286.542 256.041,286.148 256.665 M119.486 258.700 C 119.873 259.305,120.418 260.038,120.696 260.330 C 120.975 260.621,121.751 261.656,122.421 262.630 C 123.736 264.543,124.550 265.110,123.382 263.300 C 122.456 261.866,119.126 257.600,118.932 257.600 C 118.849 257.600,119.098 258.095,119.486 258.700 M279.072 265.900 C 275.960 269.615,271.419 273.940,266.839 277.550 C 263.402 280.260,260.925 282.397,262.000 281.725 C 262.591 281.355,267.258 277.763,269.179 276.200 C 271.799 274.067,277.133 268.820,279.142 266.400 C 281.278 263.826,282.055 262.800,281.870 262.800 C 281.759 262.800,280.500 264.195,279.072 265.900 M124.400 264.733 C 124.400 264.931,125.255 265.981,126.300 267.067 C 128.227 269.069,127.998 268.633,125.678 265.886 C 124.975 265.053,124.400 264.534,124.400 264.733 M129.032 270.139 C 129.146 270.436,129.815 271.092,130.519 271.598 L 131.800 272.517 130.422 271.059 C 128.909 269.459,128.724 269.336,129.032 270.139 M135.335 275.926 C 136.691 277.205,138.705 278.901,139.812 279.695 C 140.918 280.489,142.718 281.780,143.812 282.564 C 144.905 283.347,146.340 284.270,147.000 284.614 C 148.342 285.313,147.792 284.862,144.784 282.800 C 140.914 280.146,136.995 277.091,135.226 275.348 C 134.251 274.387,133.321 273.600,133.161 273.600 C 133.001 273.600,133.979 274.647,135.335 275.926 M259.722 283.037 L 258.600 284.073 259.900 283.209 C 261.091 282.418,261.479 282.000,261.022 282.000 C 260.925 282.000,260.340 282.467,259.722 283.037 M255.800 285.452 C 254.480 286.249,252.773 287.238,252.006 287.651 C 251.239 288.063,250.860 288.400,251.163 288.400 C 251.466 288.400,252.854 287.680,254.247 286.800 C 255.640 285.920,256.943 285.200,257.141 285.200 C 257.340 285.200,257.726 284.930,258.000 284.600 C 258.712 283.742,258.485 283.830,255.800 285.452 M149.400 286.150 C 150.060 286.712,150.870 287.175,151.200 287.180 C 151.592 287.185,151.505 287.017,150.949 286.694 C 148.345 285.183,148.206 285.134,149.400 286.150 M154.000 288.570 C 154.000 288.834,158.489 291.201,158.971 291.191 C 159.207 291.186,158.238 290.556,156.819 289.791 C 154.143 288.349,154.000 288.287,154.000 288.570 M244.600 291.438 C 243.500 291.972,243.050 292.294,243.600 292.154 C 244.772 291.855,246.800 290.863,246.800 290.590 C 246.800 290.353,246.965 290.289,244.600 291.438 M162.000 292.600 C 162.550 292.914,163.180 293.172,163.400 293.172 C 163.620 293.172,163.350 292.914,162.800 292.600 C 162.250 292.286,161.620 292.028,161.400 292.028 C 161.180 292.028,161.450 292.286,162.000 292.600 M241.483 292.679 C 240.186 293.016,238.547 293.995,239.276 293.998 C 239.648 293.999,240.064 293.820,240.200 293.600 C 240.336 293.380,240.786 293.200,241.200 293.200 C 241.614 293.200,242.064 293.020,242.200 292.800 C 242.336 292.580,242.392 292.421,242.324 292.446 C 242.256 292.472,241.877 292.577,241.483 292.679 M164.800 293.800 C 165.350 294.114,166.070 294.371,166.400 294.370 C 166.730 294.369,166.394 294.106,165.654 293.784 C 163.951 293.045,163.494 293.053,164.800 293.800 M236.200 294.800 C 235.429 295.131,235.431 295.145,236.276 295.172 C 236.758 295.187,237.264 295.020,237.400 294.800 C 237.692 294.327,237.301 294.327,236.200 294.800 M170.235 295.556 C 170.474 295.816,171.374 296.109,172.235 296.208 C 173.637 296.368,173.675 296.350,172.600 296.043 C 171.940 295.854,171.040 295.560,170.600 295.391 C 169.996 295.158,169.906 295.198,170.235 295.556 M177.000 297.600 C 177.440 297.789,178.070 297.944,178.400 297.944 C 178.778 297.944,178.704 297.817,178.200 297.600 C 177.760 297.411,177.130 297.256,176.800 297.256 C 176.422 297.256,176.496 297.383,177.000 297.600 M226.800 297.600 L 225.800 297.920 226.800 297.954 C 227.350 297.973,228.070 297.813,228.400 297.600 C 229.164 297.106,228.342 297.106,226.800 297.600 M182.200 298.800 C 182.640 298.989,183.450 299.138,184.000 299.132 L 185.000 299.120 184.000 298.800 C 183.450 298.624,182.640 298.474,182.200 298.468 L 181.400 298.456 182.200 298.800 M220.800 298.800 L 219.400 299.095 220.800 299.107 C 221.570 299.115,222.650 298.976,223.200 298.800 L 224.200 298.480 223.200 298.493 C 222.650 298.500,221.570 298.638,220.800 298.800 M186.800 299.600 C 187.350 299.776,188.430 299.917,189.200 299.914 L 190.600 299.908 189.000 299.577 C 186.863 299.135,185.396 299.150,186.800 299.600 M214.800 299.621 C 213.899 299.824,214.397 299.859,216.200 299.719 C 217.740 299.599,219.075 299.434,219.167 299.351 C 219.452 299.092,216.271 299.289,214.800 299.621 M192.700 300.289 C 193.415 300.378,194.585 300.378,195.300 300.289 C 196.015 300.201,195.430 300.128,194.000 300.128 C 192.570 300.128,191.985 300.201,192.700 300.289 M210.105 300.287 C 210.714 300.379,211.614 300.377,212.105 300.282 C 212.597 300.187,212.100 300.111,211.000 300.114 C 209.900 300.117,209.497 300.195,210.105 300.287 " stroke="none" fill="#c4c4c4" fill-rule="evenodd"></path><path id="path7" d="M198.100 99.876 C 198.485 99.976,199.115 99.976,199.500 99.876 C 199.885 99.775,199.570 99.693,198.800 99.693 C 198.030 99.693,197.715 99.775,198.100 99.876 M201.500 150.282 C 201.995 150.378,202.805 150.378,203.300 150.282 C 203.795 150.187,203.390 150.109,202.400 150.109 C 201.410 150.109,201.005 150.187,201.500 150.282 M100.914 194.200 C 100.917 195.300,100.995 195.703,101.087 195.095 C 101.179 194.486,101.177 193.586,101.082 193.095 C 100.987 192.603,100.911 193.100,100.914 194.200 M152.093 197.600 C 152.093 198.370,152.175 198.685,152.276 198.300 C 152.376 197.915,152.376 197.285,152.276 196.900 C 152.175 196.515,152.093 196.830,152.093 197.600 M252.528 200.000 C 252.528 201.430,252.601 202.015,252.689 201.300 C 252.778 200.585,252.778 199.415,252.689 198.700 C 252.601 197.985,252.528 198.570,252.528 200.000 M152.109 202.000 C 152.109 202.990,152.187 203.395,152.282 202.900 C 152.378 202.405,152.378 201.595,152.282 201.100 C 152.187 200.605,152.109 201.010,152.109 202.000 M100.909 206.000 C 100.909 206.990,100.987 207.395,101.082 206.900 C 101.178 206.405,101.178 205.595,101.082 205.100 C 100.987 204.605,100.909 205.010,100.909 206.000 M128.200 268.800 C 129.059 269.680,129.852 270.400,129.962 270.400 C 130.072 270.400,129.459 269.680,128.600 268.800 C 127.741 267.920,126.948 267.200,126.838 267.200 C 126.728 267.200,127.341 267.920,128.200 268.800 M276.000 269.000 C 275.028 269.990,274.323 270.800,274.433 270.800 C 274.543 270.800,275.428 269.990,276.400 269.000 C 277.372 268.010,278.077 267.200,277.967 267.200 C 277.857 267.200,276.972 268.010,276.000 269.000 M202.316 300.297 C 203.699 300.375,205.859 300.374,207.116 300.295 C 208.372 300.216,207.240 300.152,204.600 300.153 C 201.960 300.153,200.932 300.218,202.316 300.297 " stroke="none" fill="#bcbcbc" fill-rule="evenodd"></path></g></svg>
