<?xml version="1.0" encoding="UTF-8"?>
<svg width="400pt" height="400pt" style="isolation:isolate" viewBox="0 0 400 400" xmlns="http://www.w3.org/2000/svg">
<defs>
<clipPath id="a">
<rect width="400" height="400"/>
</clipPath>
</defs>
<g clip-path="url(#a)">
<rect width="400" height="400" fill="#000101" fill-opacity="0"/>
<circle cx="200" cy="200" r="200" fill="#f26822" vector-effect="non-scaling-stroke"/>
<path d="m91.278 139q14.496 0 23.789 4.11 9.292 4.111 14.682 12.705 3.717 5.791 5.761 13.171t2.044 16.722q0 7.846-1.486 16.067-1.487 8.22-4.275 15.88t-6.598 14.48q-3.81 6.819-8.456 11.863-8.363 9.342-19.142 13.172-10.78 3.83-26.205 3.83-14.868 0-24.068-3.363-9.199-3.363-14.589-10.836-4.46-5.418-6.598-13.732-2.137-8.314-2.137-19.337 0-9.902 1.859-19.337 1.858-9.435 5.482-17.655 3.624-8.221 8.828-14.947t11.894-11.396q7.806-5.605 17.377-8.501 9.572-2.896 21.838-2.896zm-20.258 108.92q3.717 0 7.155-3.924 3.439-3.923 6.412-10.369 2.974-6.445 5.297-14.759t3.996-17.189q1.672-8.874 2.602-17.375 0.929-8.5 0.929-15.6 0-9.528-1.673-13.172-1.673-3.643-4.832-3.643-3.903 0-7.434 3.83t-6.505 10.089q-2.973 6.259-5.482 14.479-2.509 8.221-4.275 16.815-1.765 8.594-2.695 17.002-0.929 8.407-0.929 15.32 0 10.462 2.044 14.479 2.045 4.017 5.39 4.017zm144.41-108.92q14.496 0 23.788 4.11 9.293 4.111 14.683 12.705 3.717 5.791 5.761 13.171t2.044 16.722q0 7.846-1.487 16.067-1.486 8.22-4.274 15.88t-6.598 14.48q-3.81 6.819-8.456 11.863-8.363 9.342-19.143 13.172-10.779 3.83-26.204 3.83-14.868 0-24.068-3.363t-14.589-10.836q-4.461-5.418-6.598-13.732t-2.137-19.337q0-9.902 1.858-19.337 1.859-9.435 5.483-17.655 3.624-8.221 8.828-14.947t11.894-11.396q7.806-5.605 17.377-8.501t21.838-2.896zm-20.258 108.92q3.717 0 7.155-3.924 3.438-3.923 6.412-10.369 2.974-6.445 5.297-14.759t3.995-17.189q1.673-8.874 2.602-17.375 0.93-8.5 0.93-15.6 0-9.528-1.673-13.172-1.673-3.643-4.832-3.643-3.903 0-7.434 3.83t-6.505 10.089-5.482 14.479q-2.509 8.221-4.275 16.815t-2.695 17.002q-0.929 8.407-0.929 15.32 0 10.462 2.044 14.479 2.045 4.017 5.39 4.017zm180.83-107.05-4.089 18.123q-12.638 5.978-21.93 16.534-9.293 10.556-15.24 24.008t-8.828 28.865q-2.88 15.414-2.88 31.107h-40.144q0-4.67 1.115-11.677 1.115-7.006 3.531-15.413t6.319-17.562 9.479-17.936q5.575-8.781 13.009-16.628 7.434-7.846 16.912-13.638h-56.498l5.576-25.783h93.668z" fill="#373636"/>
</g>
</svg>
