<svg width="36" height="36" viewBox="0 0 36 36" fill="none" xmlns="http://www.w3.org/2000/svg" id="svg477352883_7061">
<g filter="url(#svg477352883_7061_filter0_d_6926_3923)">
<rect width="36" height="36" rx="13" fill="#75FB6E" shape-rendering="crispEdges"></rect>
<path d="M15.2986 9.40241V9.36723L15.4653 9.22348H18.0346V8H15.4653L15.0814 8.36398V8.87173L14.9009 9.01548H14.8734C15.0233 9.13783 15.1548 9.27547 15.2986 9.40241Z" fill="#111111"></path>
<path d="M14.9427 8.99902H14.435L14.0894 9.36454V9.8524L14.435 10.2164H14.9427L15.3067 9.8524V9.36454L14.9427 8.99902Z" fill="#111111"></path>
<path d="M16.6258 16.2061H16.1181L15.7725 16.5716V17.8442L16.1181 18.2082H16.6258L16.9898 17.8442V16.5716L16.6258 16.2061Z" fill="#111111"></path>
<path d="M14.9308 18.2344H14.423L14.0774 18.5984V19.0862L14.423 19.4517H14.9308L15.2947 19.0862V18.5984L14.9308 18.2344Z" fill="#111111"></path>
<path d="M21.5573 18.2344H21.0495L20.7054 18.5984V19.0862L21.0495 19.4517H21.5573L21.9228 19.0862V18.5984L21.5573 18.2344Z" fill="#111111"></path>
<path d="M14.4843 9.78174L14.1203 9.82456L14.0133 9.96067L13.5086 10.0188L12.2851 11.568L12.3447 12.0727L12.2025 12.2455L12.2377 12.5606L12.6323 12.5147L12.7424 12.3862L13.2471 12.3281L14.4568 10.7804L14.3971 10.2818L14.5256 10.1335L14.4843 9.78174Z" fill="#111111"></path>
<path d="M12.2235 15.8613L12.5891 15.9042L12.6961 16.0403L13.1993 16.0984L14.4227 17.6476L14.3631 18.1523L14.5069 18.3251L14.4701 18.6401L14.0756 18.5943L13.9655 18.4658L13.4608 18.4077L12.2526 16.86L12.3107 16.3614L12.1823 16.2131L12.2235 15.8613Z" fill="#111111"></path>
<path d="M12.4898 11.9858L12.2268 12.2412L12.2237 12.4141L11.8597 12.7673L11.8307 15.6578L12.1855 16.0218L12.1763 16.2481L12.3981 16.4745L12.6825 16.1992L12.6917 16.0294L13.0557 15.6761L13.074 12.7949L12.7254 12.4355L12.7361 12.2397L12.4898 11.9858Z" fill="#111111"></path>
<path d="M20.7145 9.40241V9.36723L20.5478 9.22348H17.9739V8H20.5432L20.927 8.36398V8.87173L21.1075 9.01548H21.135C20.9897 9.13783 20.8582 9.27547 20.7145 9.40241Z" fill="#111111"></path>
<path d="M21.0694 8.99902H21.5772L21.9228 9.36454V9.8524L21.5772 10.2164H21.0694L20.7054 9.8524V9.36454L21.0694 8.99902Z" fill="#111111"></path>
<path d="M19.3877 16.2144H19.8954L20.241 16.5799V17.8453L19.8954 18.2093H19.3877L19.0237 17.8453L19.0237 16.5799L19.3877 16.2144Z" fill="#111111"></path>
<path d="M21.528 9.78174L21.892 9.82456L22.0006 9.96067L22.5037 10.0188L23.7272 11.568L23.6675 12.0727L23.8113 12.2455L23.7746 12.5606L23.38 12.5147L23.2699 12.3862L22.7652 12.3281L21.557 10.7804L21.6152 10.2818L21.4867 10.1335L21.528 9.78174Z" fill="#111111"></path>
<path d="M23.7888 15.8613L23.4248 15.9042L23.3178 16.0403L22.8131 16.0984L21.5911 17.6476L21.6493 18.1523L21.5055 18.3251L21.5422 18.6401L21.9368 18.5943L22.0469 18.4658L22.5516 18.4077L23.7613 16.86L23.7032 16.3614L23.8301 16.2131L23.7888 15.8613Z" fill="#111111"></path>
<path d="M23.5224 11.9858L23.787 12.2412L23.7885 12.4141L24.1525 12.7673L24.1816 15.6578L23.8268 16.0218L23.836 16.2481L23.6157 16.4745L23.3313 16.1992L23.3206 16.0294L22.9566 15.6761L22.9382 12.7949L23.2869 12.4355L23.2762 12.2397L23.5224 11.9858Z" fill="#111111"></path>
<path d="M10.8934 17.2114H10.3857L10.04 17.5769V18.0648L10.3857 18.4288H10.8934L11.2574 18.0648V17.5769L10.8934 17.2114Z" fill="#111111"></path>
<path d="M10.6852 18.0933L10.4222 18.3502L10.4191 18.5215L10.0551 18.8763L10.0276 21.1428L10.3809 21.5068L10.3732 21.7316L10.595 21.9151L10.8779 21.6842L10.8871 21.5144L11.2511 21.1611L11.2709 18.9023L10.9207 18.5429L10.933 18.3471L10.6852 18.0933Z" fill="#111111"></path>
<path d="M7.65869 15.7265L7.7214 16.2312L9.51531 17.6183L10.02 17.554L10.1943 17.6963L10.5079 17.6565L10.4589 17.2635L10.3305 17.1549L10.2678 16.6502L8.47536 15.2769L7.97832 15.3396L7.65869 15.7265Z" fill="#111111"></path>
<path d="M14.9505 19.6317L14.9414 19.4421L14.689 19.1943L14.4306 19.4574L14.4321 19.6302L14.1415 19.9254L14.0773 19.9896V19.9911V19.9927V22.2622V22.5222L13.9213 22.6721H11.3887L11.2388 22.5222V22.0144L10.8794 21.6566H10.3717L10.0276 22.0144V22.5222L10.3717 22.8678H10.8794L11.0431 23.0299V23.5377L11.3887 23.8833H13.9213L14.2792 23.5377V23.0299L14.4413 22.8678H14.9505L15.2946 22.5222V22.3478V19.9896L14.9505 19.6317Z" fill="#111111"></path>
<path d="M25.1068 17.2114H25.6145L25.9602 17.5769V18.0648L25.6145 18.4288H25.1068L24.7428 18.0648V17.5769L25.1068 17.2114Z" fill="#111111"></path>
<path d="M25.3137 18.0933L25.5783 18.3502L25.5813 18.5215L25.9453 18.8763L25.9728 21.1428L25.6196 21.5068L25.6272 21.7316L25.4055 21.9151L25.1225 21.6842L25.1134 21.5144L24.7478 21.1611L24.7295 18.9023L25.0797 18.5429L25.0675 18.3471L25.3137 18.0933Z" fill="#111111"></path>
<path d="M28.3413 15.7265L28.2771 16.2312L26.4847 17.6183L25.98 17.554L25.8056 17.6963L25.4906 17.6565L25.5411 17.2635L25.6695 17.1549L25.7322 16.6502L27.5246 15.2769L28.0217 15.3396L28.3413 15.7265Z" fill="#111111"></path>
<path d="M21.0495 19.6317L21.0587 19.4421L21.3111 19.1943L21.5695 19.4574L21.5665 19.6302L21.8586 19.9254L21.9228 19.9896V19.9911V19.9927V22.2622V22.5222L22.0788 22.6721H24.6114L24.7613 22.5222V22.0144L25.1191 21.6566H25.6269L25.9725 22.0144V22.5222L25.6269 22.8678H25.1191L24.957 23.0299V23.5377L24.6114 23.8833H22.0788L21.7209 23.5377V23.0299L21.5573 22.8678H21.0495L20.7054 22.5222V22.3478V19.9896L21.0495 19.6317Z" fill="#111111"></path>
<path d="M17.3029 23.6312L17.2983 23.6282L17.3044 23.1327L16.9496 22.7702L16.4419 22.7656L16.0794 23.1204L16.0748 23.6144L15.9234 23.7765L15.4218 23.7719L13.0085 26.1302L13.0039 26.6379L13.3587 26.9866L13.8665 26.9927L16.2798 24.633L16.2843 24.1374L16.4296 23.9769L16.9129 23.9815L17.3029 23.6312Z" fill="#111111"></path>
<path d="M13.0033 26.6375L12.8443 26.7889H10.3101L10.1618 26.639V26.1313L9.80241 25.7734H9.29466L8.95056 26.1313V26.639L9.29466 26.9831H9.80241L9.96605 27.1468V27.6545L10.3101 28.0002H12.8443L13.2021 27.6545V27.1468L13.3642 26.9831H13.3704L13.0033 26.6375Z" fill="#111111"></path>
<path d="M18.7371 23.6312L18.7402 23.6282L18.7356 23.1327L19.0904 22.7702L19.5981 22.7656L19.9591 23.1204L19.9637 23.6144L20.1151 23.7765L20.6167 23.7719L23.03 26.1302L23.0361 26.6379L22.6813 26.9866L22.1736 26.9927L19.7603 24.633L19.7541 24.1374L19.6104 23.9769L19.1256 23.9815L18.7371 23.6312Z" fill="#111111"></path>
<path d="M23.0361 26.6375L23.1952 26.7889H25.7278L25.8776 26.639V26.1313L26.2355 25.7734H26.7432L27.0889 26.1313V26.639L26.7432 26.9831H26.2355L26.0734 27.1468V27.6545L25.7278 28.0002H23.1952L22.8373 27.6545V27.1468L22.6737 26.9831H22.6691L23.0361 26.6375Z" fill="#111111"></path>
</g>
<defs>
<filter id="svg477352883_7061_filter0_d_6926_3923" x="-4" y="0" width="44" height="44" filterUnits="userSpaceOnUse" color-interpolation-filters="sRGB">
<feFlood flood-opacity="0" result="BackgroundImageFix"></feFlood>
<feColorMatrix in="SourceAlpha" type="matrix" values="0 0 0 0 0 0 0 0 0 0 0 0 0 0 0 0 0 0 127 0" result="hardAlpha"></feColorMatrix>
<feOffset dy="4"></feOffset>
<feGaussianBlur stdDeviation="2"></feGaussianBlur>
<feComposite in2="hardAlpha" operator="out"></feComposite>
<feColorMatrix type="matrix" values="0 0 0 0 0.396078 0 0 0 0 0.407843 0 0 0 0 0.439216 0 0 0 0.03 0"></feColorMatrix>
<feBlend mode="normal" in2="BackgroundImageFix" result="effect1_dropShadow_6926_3923"></feBlend>
<feBlend mode="normal" in="SourceGraphic" in2="effect1_dropShadow_6926_3923" result="shape"></feBlend>
</filter>
</defs>
</svg>
