<svg width="100" height="100" viewBox="0 0 34 41" xmlns="http://www.w3.org/2000/svg" fill="none">
 <g>
  <path id="svg_2" fill="#22D7FF" d="m16.2366,0.22261c0.2688,-0.14645 0.5682,-0.22255 0.872,-0.22163l-0.0015,9.77264c-0.2992,0 -0.5975,0.07523 -0.8729,0.22244l-15.22367,8.22704c-0.30458,0.1634 -0.55975,0.4103 -0.73758,0.7137c-0.17782,0.3033 -0.27143,0.6514 -0.27058,1.0061l-0.00237,-9.7727c0.00026,-0.35501 0.09457,-0.70322 0.2727,-1.00682c0.17814,-0.30361 0.43331,-0.55102 0.73783,-0.71541l15.22607,-8.22536z" clip-rule="evenodd" fill-rule="evenodd"/>
  <path id="svg_3" fill="#2C3EE2" d="m1.00974,22.7791l15.22526,8.2253c0.273,0.1481 0.5729,0.2208 0.8729,0.2217l0,9.7726c-0.3,0.0016 -0.5991,-0.0728 -0.8737,-0.2224l-15.22525,-8.2238c-0.30446,-0.1643 -0.5595,-0.4117 -0.73738,-0.7154c-0.17789,-0.3036 -0.27182,-0.6519 -0.27157,-1.0069l0,-9.7726c0,0.7229 0.38855,1.3862 1.00974,1.7223l0,-0.0008z" clip-rule="evenodd" fill-rule="evenodd"/>
  <path id="svg_4" fill="#22D7FF" d="m1.00974,19.2128l15.22526,-8.2246c0.273,-0.148 0.5737,-0.2216 0.8729,-0.2216l0,9.7726c-0.3008,0 -0.5999,0.0736 -0.8721,0.2225l-15.22526,8.2245c-0.30499,0.1638 -0.56054,0.4111 -0.73875,0.7148c-0.17822,0.3038 -0.27224,0.6523 -0.27179,1.0075l0,-9.7726c0,-0.723 0.38934,-1.387 1.00974,-1.7231z" clip-rule="evenodd" fill-rule="evenodd"/>
  <path id="svg_5" fill="#01AACF" d="m33.1591,8.44781c0.3052,0.1637 0.5609,0.41093 0.7392,0.71467c0.1784,0.30374 0.2725,0.65231 0.2722,1.00762l0,9.7718c0,-0.7213 -0.3902,-1.3845 -1.0098,-1.7182l-15.2252,-8.22699c-0.2697,-0.14651 -0.5698,-0.22312 -0.8745,-0.22326l0.0016,-9.77345c0.2991,0 0.5991,0.0736 0.8729,0.2208l15.2236,8.22701z" clip-rule="evenodd" fill-rule="evenodd"/>
  <path id="svg_6" fill="#01119A" d="m33.1609,22.7799c0.3045,-0.1644 0.5596,-0.4118 0.7376,-0.7154c0.178,-0.3036 0.2722,-0.6519 0.2722,-1.0069l0,9.7726c0,0.7238 -0.3886,1.387 -1.0098,1.7231l-15.226,8.2246c-0.2723,0.1472 -0.5714,0.2224 -0.8721,0.2216l-0.0008,-9.7726c0.3007,-0.0008 0.6006,-0.0736 0.8744,-0.2225l15.2253,-8.2245l-0.0008,0z" clip-rule="evenodd" fill-rule="evenodd"/>
  <path id="svg_7" fill="#01AACF" d="m33.1609,19.2128c0.3045,0.1641 0.5596,0.4112 0.7378,0.7145c0.1781,0.3034 0.2725,0.6513 0.2727,1.0062l0,9.7742c0,-0.7229 -0.3885,-1.3845 -1.0105,-1.7182l-15.2245,-8.227c-0.2697,-0.1462 -0.5698,-0.2228 -0.8744,-0.2232l0,-9.7726c0.3007,-0.0025 0.6014,0.0736 0.8744,0.2191l15.2253,8.2278l-0.0008,-0.0008z" clip-rule="evenodd" fill-rule="evenodd"/>
 </g>
</svg>
