<svg xmlns="http://www.w3.org/2000/svg" xmlns:xlink="http://www.w3.org/1999/xlink" viewBox="0 0 183 183"><defs><style>.cls-1{fill:#1a1a1a;fill-rule:evenodd;}.cls-2{fill:url(#New_Gradient_Swatch);}</style><linearGradient id="New_Gradient_Swatch" x1="59.93" y1="91.5" x2="123.07" y2="91.5" gradientUnits="userSpaceOnUse"><stop offset="0" stop-color="#ede12e"/><stop offset="1" stop-color="#eb4937"/></linearGradient></defs><g id="Layer_2" data-name="Layer 2"><g id="Layer_2-2" data-name="Layer 2"><path class="cls-1" d="M91.5,0A91.5,91.5,0,1,1,0,91.5,91.5,91.5,0,0,1,91.5,0Z"/><path id="SVGID" class="cls-2" d="M107.2,20.4a4.3,4.3,0,0,1,3.4,5.1,4.2,4.2,0,0,1-5,3.4l-5.6-.6c-35.3-.2-40.6,37.2-16.3,65.2L91,85.1C83.7,75.2,78.5,66.3,78.9,58a16.4,16.4,0,0,1,1.8-6.8A20.3,20.3,0,0,1,88,42.8a18.9,18.9,0,0,1,11.2-3.2,17.7,17.7,0,0,1,6.8,1.8,18.8,18.8,0,0,1,9.5,9.7,20.8,20.8,0,0,1,.7,13.7c-1.6,6.1-6.9,12.5-14,20.6h0l-5.9,6.6h0l-6.9,8.1a86.1,86.1,0,0,1,5.5,7.2c8.1,12.3,8.4,21.9,4.9,28.5s-8.7,8.8-14.6,9.6-12.1-1-16.2-5.1-6.4-11.6-2.8-21.2V119c2.5-6.4,6.7-12.2,10.4-16.9l5.7,6.8a56.1,56.1,0,0,0-8,13.2v.2c-2.2,5.8-1.4,9.7.9,12s5.5,3,8.9,2.6,6.5-2.1,8-5.1,1.6-10.5-4.5-19.6a54.5,54.5,0,0,0-3.7-5.1l-5.8-6.8h0C47.6,65.1,55.8,18.2,100.4,19.6a56.9,56.9,0,0,1,6.8.8Zm-3.5,67,1.4,1.9c10.8,13.8,20.4,27.8,17.4,46.5-3.8,24.4-27.6,30.1-48.8,26.7a4.3,4.3,0,0,1-3.9-4.7,4.2,4.2,0,0,1,4.7-3.9c15.5,3.1,36.5-1.1,39.4-19.4,2.5-15.9-6.6-28.3-15.6-39.9l-.4-.5,5.8-6.7Zm-6.8-9c5.7-6.6,9.8-11.8,10.9-15.8a12.8,12.8,0,0,0-.3-8.1,10.5,10.5,0,0,0-5.3-5.3,7.9,7.9,0,0,0-3.5-.9,9.8,9.8,0,0,0-5.9,1.8A11.9,11.9,0,0,0,88.5,55a8.8,8.8,0,0,0-1,3.4c-.2,5.4,3.7,12.2,9.4,20Z"/></g></g></svg>