<svg width="502" height="502" xmlns="http://www.w3.org/2000/svg" xml:space="preserve" version="1.0">
 <defs>
  <linearGradient y2="-0.01305" x2="0.93621" y1="1.01248" x1="0.06115" id="SVGID_1_">
   <stop stop-color="#CF41E8" offset="0"/>
   <stop stop-color="#10F2B0" offset="1"/>
  </linearGradient>
 </defs>
 <g>
  <g id="svg_3">
   <path id="svg_1" fill="#232323" d="m250.8,-0.10001l0.4,0c134.9,0 244.3,109.4 244.3,244.3l0,13.6c0,134.9 -109.4,244.3 -244.3,244.3l-0.4,0c-134.9,0 -244.3,-109.4 -244.3,-244.3l0,-13.6c0,-134.9 109.4,-244.3 244.3,-244.3z" class="st0"/>
   <path id="svg_2" fill="url(#SVGID_1_)" d="m355.5,188.89999c-0.8,0.9 -1.8,1.6 -2.9,2c-1.1,0.5 -2.3,0.7 -3.5,0.7l-226.5,0c-8,0 -12.1,-10 -6.5,-16l37.2,-39.5c0.8,-0.9 1.8,-1.6 3,-2.1c1.1,-0.5 2.3,-0.7 3.5,-0.7l227.4,0c8.1,0 12.1,10.1 6.4,16.1l-38.1,39.5zm0,176.6c-1.7,1.7 -4,2.7 -6.4,2.7l-226.5,0c-8,0 -12.1,-9.8 -6.5,-15.6l37.2,-38.6c0.8,-0.9 1.9,-1.6 3,-2c1.1,-0.5 2.3,-0.7 3.5,-0.7l227.4,0c8.1,0 12.1,9.9 6.4,15.7l-38.1,38.5zm0,-140.5c-1.7,-1.7 -4,-2.7 -6.4,-2.7l-226.5,0c-8,0 -12.1,9.8 -6.5,15.6l37.2,38.6c0.8,0.9 1.9,1.6 3,2c1.1,0.5 2.3,0.7 3.5,0.7l227.4,0c8.1,0 12.1,-9.9 6.4,-15.7l-38.1,-38.5z" class="st1"/>
  </g>
 </g>
</svg>
