<svg xmlns="http://www.w3.org/2000/svg" viewBox="0 0 266.3 336.8"><defs><style>.cls-1{fill:#02e2ac;}.cls-1,.cls-2{fill-rule:evenodd;}.cls-2{fill:#0e0333;}</style></defs><g id="Layer_2" data-name="Layer 2"><g id="Layer_1-2" data-name="Layer 1"><path class="cls-1" d="M220.8,132.3a89.8,89.8,0,0,1,0,104.3l22.7,17.3a118.3,118.3,0,0,0-1.7-141.1l-13,11.8Z"/><path class="cls-2" d="M263.8,269.2l-76.5-58.1a43.9,43.9,0,0,0,2.2-50.5l36.6-33.1,38.3-35.8a6.3,6.3,0,0,0,.2-8.9l-5.3-5.3A151,151,0,0,0,156.7,32.6V11.5a11.9,11.9,0,0,0-.3-4.2,12,12,0,0,0-2-3.7,9.4,9.4,0,0,0-3.4-2.5A9.8,9.8,0,0,0,147,.2a9,9,0,0,0-4,.9,10.7,10.7,0,0,0-3.5,2.5,9.2,9.2,0,0,0-2,3.6,7.6,7.6,0,0,0-.3,4.2L137,33a159.4,159.4,0,0,0-27.2,5.3l.2-26.9a12,12,0,0,0-.4-4.2,9.3,9.3,0,0,0-2-3.8A9.7,9.7,0,0,0,104.2.9a9.5,9.5,0,0,0-4.1-.9,9,9,0,0,0-4,.9,12,12,0,0,0-3.4,2.5,8.7,8.7,0,0,0-2,3.6,7.6,7.6,0,0,0-.4,4.2l-.4,34.5A152.2,152.2,0,0,0,3,214.6a153.1,153.1,0,0,0,51.5,86.6,151.5,151.5,0,0,0,94.2,35.2l111.3.4a6.3,6.3,0,0,0,6.3-6.2V274.3A6.6,6.6,0,0,0,263.8,269.2ZM150.9,309.3A124.9,124.9,0,0,1,89.4,76.2v41a11.9,11.9,0,0,0,.3,4.2,10.7,10.7,0,0,0,2,3.8,10.1,10.1,0,0,0,7.5,3.4,9,9,0,0,0,4-.9,10.7,10.7,0,0,0,3.4-2.5,10.3,10.3,0,0,0,2.1-3.6,8.6,8.6,0,0,0,.3-4.2V67a124.6,124.6,0,0,1,42.8-7.3,123.4,123.4,0,0,1,74.5,25.1,3.2,3.2,0,0,1,.3,4.8l-58.3,53.5a43.8,43.8,0,0,0-16.8-3.4,45.1,45.1,0,0,0-18.7,3.9,43.5,43.5,0,0,0-15.2,11.3,47.2,47.2,0,0,0-9.2,16.7,43.7,43.7,0,0,0-1.4,19,46.4,46.4,0,0,0,6.5,18,47.9,47.9,0,0,0,13.4,13.5,44.8,44.8,0,0,0,17.9,6.7,42,42,0,0,0,19-1.4L238.2,284a3.3,3.3,0,0,1,1.3,2.5l-.2,20a3.1,3.1,0,0,1-3.1,3.1Zm18.2-124.7a19.3,19.3,0,0,1-2.9,9.8,18.8,18.8,0,0,1-8,6.5,16.7,16.7,0,0,1-10.1,1,19,19,0,0,1-9-4.9,17.8,17.8,0,0,1-4.9-9,17.4,17.4,0,0,1,1.1-10.1,17.8,17.8,0,0,1,6.6-8,18.2,18.2,0,0,1,9.8-3,17,17,0,0,1,12.4,5.3A17.6,17.6,0,0,1,169.1,184.6Z"/></g></g></svg>