<?xml version="1.0" encoding="UTF-8"?>
<!DOCTYPE svg PUBLIC "-//W3C//DTD SVG 1.1//EN" "http://www.w3.org/Graphics/SVG/1.1/DTD/svg11.dtd">
<svg width="250" height="250" viewBox="0 0 350 350" xmlns="http://www.w3.org/2000/svg">
  <g>
   <path fill="#50af95" fill-rule="evenodd" d="m67.435,28.81532l-61.89,130a2.52,2.52 0 0 0 0.54,2.94l167.15,160.17a2.55,2.55 0 0 0 3.53,0l167.15,-160.16a2.52,2.52 0 0 0 0.54,-2.94l-61.89,-130a2.5,2.5 0 0 0 -2.28,-1.46l-210.55,0a2.5,2.5 0 0 0 -2.3,1.45l0,0z"/>
   <path fill="#fff" fill-rule="evenodd" d="m196.48502,172.16532l0,0c-1.2,0.09 -7.4,0.46 -21.23,0.46c-11,0 -18.81,-0.33 -21.55,-0.46l0,0c-42.51,-1.87 -74.24,-9.27 -74.24,-18.13s31.73,-16.25 74.24,-18.15l0,28.91c2.78,0.2 10.74,0.67 21.74,0.67c13.2,0 19.81,-0.55 21,-0.66l0,-28.9c42.42,1.89 74.08,9.29 74.08,18.13s-31.65,16.24 -74.08,18.12l0,0l0.04,0.01zm0,-39.25l0,-25.87l59.2,0l0,-39.45l-161.18,0l0,39.45l59.19,0l0,25.86c-48.11,2.21 -84.29,11.74 -84.29,23.16s36.18,20.94 84.29,23.16l0,82.9l42.78,0l0,-82.93c48,-2.21 84.12,-11.73 84.12,-23.14s-36.09,-20.93 -84.12,-23.15l0,0l0.01,0.01zm0,0l0,0z"/>
  </g>
</svg>
