<?xml version="1.0" encoding="UTF-8"?>
<svg width="100" height="100" fill="black" stroke="black" version="1.1" viewBox="0 0 220 220" xmlns="http://www.w3.org/2000/svg">
<path d="m64.82 191.28 1.6981-0.13047 37.635-6.0626 0.54936-0.54933 0.54931-0.54934 3.5548-10.312 19.112-3.2039 14.624-8.0537 14.624-8.0536 14.451-26.522 9.0591-10.238 25.755-12.925v-0.99574l-24.304-5.9327-17.079-8.3291-12.832 2.8772-6.8739 8.1759-13.807 8.109-18.134-6.7217-0.8875-8.8374-0.88751-8.8374-101.06-52.059-0.40961 0.48804-0.40965 0.48804-1.5312 17.195-1.5312 17.195 4.7593 13.678 4.7593 13.678 1.2129 2.2701 1.2129 2.2701 20.49 25.676 24.116 8.9414v5.9739l4.4663 0.86001-3.8481 2.5214-3.8481 2.5213-54.575-3.7396 1.9e-4 0.40021 2.1e-4 0.40068 7.8111 18.356 8.9034 9.8346 8.9034 9.8347 32.075 10.439 1.6981-0.13111zm1.5761-6.5715-4.0633 0.13347-13.72-4.3539-13.72-4.3539-13.043-13.935-2.8344-4.115-2.8344-4.115-0.77414-2.6638-0.77414-2.6639 46.08 3.5437 11.059-6.3757 30.216-4.6695 1.0383-0.9297 1.0384-0.9297-27.038-3.2606-7.2256-1.4284v-4.3204l-27.357-10.459-9.9332-12.452-9.9331-12.452-9.6492-27.083 0.8925-12.697 0.89254-12.697 0.54388-0.54391 0.5439-0.5439 88.579 45.708 1.9992 3.8592 1.0883 7.7514 1.0883 7.7513 23.697 8.5265 17.517-10.263 2.6403-3.3566 2.6403-3.3565 4.6148-1.2742 4.6149-1.2742 15.38 7.7638 9.6908 1.818v2.0163l-8.5393 3.5057-12.4 11.549-15.851 28.202-26.925 14.679-31.53 5.674-0.37054 0.36447-0.37058 0.36443 7.9667 3.3v4.8171l-8.5393 1.4839-22.334 3.6227zm94.853-78.691h1.6741l0.71992-1.1649 0.71994-1.1649-3.5637-2.9576-1.4766 1.7793-1.4767 1.7792 1.7289 1.7289zm-38.24-5.3459 1.3137-0.0509 31.232-42.968 44.62-17.448 0.43408 0.43407 0.43407 0.43407-27.73 46.884 3.5593 2.2529 2.5459-0.80587 35.153-59.764-0.52323-0.52324-0.52327-0.52324-60.3 23.705-5.4909 5.767-29.607 40.396 1.784 1.1303 1.7839 1.1303 1.3138-0.0508z"/>
</svg>
