<?xml version="1.0" encoding="UTF-8"?>
<svg fill="none" viewBox="0 0 80 81" xmlns="http://www.w3.org/2000/svg">
<path d="m32.292 45.68c-1.0187 1.7645-3.5657 1.7645-4.5844 0l-22.349-38.71c-1.0188-1.7645 0.25462-3.9702 2.2922-3.9702h44.698c2.0375 0 3.3109 2.2057 2.2921 3.9702l-22.349 38.71z" fill="#fff"/>
<path d="m27.708 45.68c1.0187 1.7645 3.5656 1.7645 4.5844 0l22.349-38.71c0.0056-0.00966 0.0111-0.01932 0.0166-0.02898l-18.928 32.784-21.203-36.725h-6.8765c-2.0375 0-3.3111 2.2057-2.2923 3.9702l22.349 38.71z" clip-rule="evenodd" fill="url(#a)" fill-rule="evenodd"/>
<g filter="url(#b)">
<rect x="25" y="35" width="30" height="11" rx="2" fill="#fff"/>
</g>
<path d="m34.045 40.128c0.2027 0.032 0.3867 0.1147 0.552 0.248 0.1707 0.1333 0.304 0.2987 0.4 0.496 0.1014 0.1973 0.152 0.408 0.152 0.632 0 0.2827-0.072 0.5387-0.216 0.768-0.144 0.224-0.3546 0.4027-0.632 0.536-0.272 0.128-0.5946 0.192-0.968 0.192h-2.08v-5.576h2c0.3787 0 0.7014 0.064 0.968 0.192 0.2667 0.1227 0.4667 0.2907 0.6 0.504 0.1334 0.2133 0.2 0.4533 0.2 0.72 0 0.3307-0.0906 0.6053-0.272 0.824-0.176 0.2133-0.4106 0.368-0.704 0.464zm-2.064-0.296h1.224c0.3414 0 0.6054-0.08 0.792-0.24 0.1867-0.16 0.28-0.3813 0.28-0.664s-0.0933-0.504-0.28-0.664c-0.1866-0.16-0.456-0.24-0.808-0.24h-1.208v1.808zm1.288 2.568c0.3627 0 0.6454-0.0853 0.848-0.256 0.2027-0.1707 0.304-0.408 0.304-0.712 0-0.3093-0.1066-0.552-0.32-0.728-0.2133-0.1813-0.4986-0.272-0.856-0.272h-1.264v1.968h1.288zm3.6183-4.384v1.864h2.032v0.6h-2.032v1.92h2.272v0.6h-3v-5.584h3v0.6h-2.272zm6.8055-0.592v0.592h-1.52v4.984h-0.728v-4.984h-1.528v-0.592h3.776zm4.1922 4.336h-2.432l-0.448 1.24h-0.768l2.016-5.544h0.84l2.008 5.544h-0.768l-0.448-1.24zm-0.208-0.592-1.008-2.816-1.008 2.816h2.016z" fill="#000"/>
<defs>
<filter id="b" x="0" y="20" width="80" height="61" color-interpolation-filters="sRGB" filterUnits="userSpaceOnUse">
<feFlood flood-opacity="0" result="BackgroundImageFix"/>
<feColorMatrix in="SourceAlpha" result="hardAlpha" values="0 0 0 0 0 0 0 0 0 0 0 0 0 0 0 0 0 0 127 0"/>
<feOffset dy="10"/>
<feGaussianBlur stdDeviation="12.5"/>
<feColorMatrix values="0 0 0 0 0 0 0 0 0 0 0 0 0 0 0 0 0 0 0.1 0"/>
<feBlend in2="BackgroundImageFix" result="effect1_dropShadow"/>
<feBlend in="SourceGraphic" in2="effect1_dropShadow" result="shape"/>
</filter>
<linearGradient id="a" x1="5" x2="25.861" y1="9.0301" y2="44.605" gradientUnits="userSpaceOnUse">
<stop stop-color="#B288DE" offset="0"/>
<stop stop-color="#9853BB" offset="1"/>
</linearGradient>
</defs>
</svg>
