<svg width="50" height="50" viewBox="0 0 50 50" fill="none" xmlns="http://www.w3.org/2000/svg">
<g clip-path="url(#clip0)">
<path d="M27.2922 45.6802C26.2734 47.4447 23.7265 47.4447 22.7077 45.6802L0.358689 6.97025C-0.660078 5.20574 0.613314 3 2.65085 3H47.3492C49.3868 3 50.6602 5.20574 49.6414 6.97025L27.2922 45.6802Z" fill="black"/>
<path fill-rule="evenodd" clip-rule="evenodd" d="M22.7078 45.6802C23.7265 47.4447 26.2734 47.4447 27.2922 45.6802L49.6414 6.97025C49.647 6.96059 49.6525 6.95093 49.658 6.94127L30.7303 39.7248L9.52732 3H2.65084C0.613305 3 -0.660219 5.20574 0.358548 6.97025L22.7078 45.6802Z" fill="url(#paint0_linear)"/>
<g filter="url(#filter0_d)">
<rect x="17.2727" y="34" width="32.7273" height="12" rx="2" fill="black"/>
</g>
<path d="M25.8115 40.051C26.0902 40.095 26.3432 40.2087 26.5705 40.392C26.8052 40.5753 26.9885 40.8027 27.1205 41.074C27.2598 41.3453 27.3295 41.635 27.3295 41.943C27.3295 42.3317 27.2305 42.6837 27.0325 42.999C26.8345 43.307 26.5448 43.5527 26.1635 43.736C25.7895 43.912 25.3458 44 24.8325 44H21.9725V36.333H24.7225C25.2432 36.333 25.6868 36.421 26.0535 36.597C26.4202 36.7657 26.6952 36.9967 26.8785 37.29C27.0618 37.5833 27.1535 37.9133 27.1535 38.28C27.1535 38.7347 27.0288 39.1123 26.7795 39.413C26.5375 39.7063 26.2148 39.919 25.8115 40.051ZM22.9735 39.644H24.6565C25.1258 39.644 25.4888 39.534 25.7455 39.314C26.0022 39.094 26.1305 38.7897 26.1305 38.401C26.1305 38.0123 26.0022 37.708 25.7455 37.488C25.4888 37.268 25.1185 37.158 24.6345 37.158H22.9735V39.644ZM24.7445 43.175C25.2432 43.175 25.6318 43.0577 25.9105 42.823C26.1892 42.5883 26.3285 42.262 26.3285 41.844C26.3285 41.4187 26.1818 41.085 25.8885 40.843C25.5952 40.5937 25.2028 40.469 24.7115 40.469H22.9735V43.175H24.7445ZM29.7196 37.147V39.71H32.5136V40.535H29.7196V43.175H32.8436V44H28.7186V36.322H32.8436V37.147H29.7196ZM39.0772 36.333V37.147H36.9872V44H35.9862V37.147H33.8852V36.333H39.0772ZM44.8414 42.295H41.4974L40.8814 44H39.8254L42.5974 36.377H43.7524L46.5134 44H45.4574L44.8414 42.295ZM44.5554 41.481L43.1694 37.609L41.7834 41.481H44.5554Z" fill="white"/>
</g>
<defs>
<filter id="filter0_d" x="-7.72729" y="19" width="82.7273" height="62" filterUnits="userSpaceOnUse" color-interpolation-filters="sRGB">
<feFlood flood-opacity="0" result="BackgroundImageFix"/>
<feColorMatrix in="SourceAlpha" type="matrix" values="0 0 0 0 0 0 0 0 0 0 0 0 0 0 0 0 0 0 127 0" result="hardAlpha"/>
<feOffset dy="10"/>
<feGaussianBlur stdDeviation="12.5"/>
<feColorMatrix type="matrix" values="0 0 0 0 0 0 0 0 0 0 0 0 0 0 0 0 0 0 0.1 0"/>
<feBlend mode="normal" in2="BackgroundImageFix" result="effect1_dropShadow"/>
<feBlend mode="normal" in="SourceGraphic" in2="effect1_dropShadow" result="shape"/>
</filter>
<linearGradient id="paint0_linear" x1="-3.02247e-07" y1="9.03013" x2="20.861" y2="44.6052" gradientUnits="userSpaceOnUse">
<stop stop-color="#B288DE"/>
<stop offset="1" stop-color="#9853BB"/>
</linearGradient>
<clipPath id="clip0">
<rect width="50" height="50" fill="white"/>
</clipPath>
</defs>
</svg>
