<svg width="52" height="52" xmlns="http://www.w3.org/2000/svg" style="background:white">
  <g>
   <path fill-rule="evenodd" d="m0,0l52.41,0l0,52.41l-52.41,0l0,-52.41zm20.38,34.19l0,7.33c0,1.19 0.97,2.16 2.16,2.16l7.33,0a2.16,2.16 0 0 0 2.16,-2.16l0,-3.67c0,-1.61 0.65,-3.06 1.71,-4.11a5.8,5.8 0 0 1 4.11,-1.71l3.67,0a2.16,2.16 0 0 0 2.16,-2.16l0,-7.33a2.16,2.16 0 0 0 -2.16,-2.16l-7.33,0a2.16,2.16 0 0 0 -2.16,2.16l0,3.84a5.64,5.64 0 0 1 -5.64,5.65l-3.84,0a2.16,2.16 0 0 0 -2.16,2.16l-0.01,0zm-11.64,-4.32l0,-7.33a2.16,2.16 0 0 1 2.16,-2.16l3.84,0a5.64,5.64 0 0 0 5.65,-5.64l0,-3.85c0,-1.19 0.96,-2.15 2.16,-2.15l7.32,0a2.16,2.16 0 0 1 2.16,2.16l0,7.32a2.16,2.16 0 0 1 -2.16,2.16l-3.66,0a5.8,5.8 0 0 0 -4.12,1.71a5.79,5.79 0 0 0 -1.71,4.12l0,3.66a2.16,2.16 0 0 1 -2.16,2.16l-7.33,0a2.16,2.16 0 0 1 -2.15,-2.16z" />
  </g>
</svg>
