<svg width="512" height="512" viewBox="0 0 512 512" fill="none" xmlns="http://www.w3.org/2000/svg">
<rect width="512" height="512" rx="120" fill="#001F29"/>
<path d="M212.758 75.2269C192.088 75.2163 171.454 75.2057 150.712 75.2375C138.171 75.2375 133.466 90.983 142.794 100.31L283.99 241.506C288.396 245.536 291.144 249.917 291.245 255.691C291.144 261.466 288.396 265.846 283.99 269.877L142.794 411.073C133.466 420.399 138.171 436.145 150.712 436.145C171.454 436.177 192.088 436.166 212.758 436.155C223.107 436.15 233.464 436.145 243.849 436.145C257.434 436.145 265.516 428.887 272.773 421.629L400.113 294.289C410.276 284.126 419.369 270.632 419.246 255.691C419.369 240.75 410.276 227.256 400.113 217.093L272.773 89.753C265.516 82.4953 257.434 75.2375 243.849 75.2375C233.464 75.2375 223.107 75.2322 212.758 75.2269Z" fill="#00F0FF"/>
</svg>
