<?xml version="1.0" encoding="UTF-8"?><svg xmlns="http://www.w3.org/2000/svg" xmlns:xlink="http://www.w3.org/1999/xlink" contentScriptType="text/ecmascript" width="384" zoomAndPan="magnify" contentStyleType="text/css" viewBox="0 0 384 383.999986" height="383.999986" preserveAspectRatio="xMidYMid meet" version="1.0"><defs><clipPath id="clip-0"><path d="M 85.296875 107.414062 L 299.046875 107.414062 L 299.046875 276.914062 L 85.296875 276.914062 Z M 85.296875 107.414062 " clip-rule="nonzero"/></clipPath></defs><path fill="rgb(0%, 0%, 84.709167%)" d="M 192 0 C 85.960938 0 0 85.960938 0 192 C 0 298.039062 85.960938 384 192 384 C 298.039062 384 384 298.039062 384 192 C 384 85.960938 298.039062 0 192 0 Z M 192 0 " fill-opacity="1" fill-rule="nonzero"/><path fill="rgb(0%, 0%, 84.709167%)" d="M 192 0 C 85.960938 0 0 85.960938 0 192 C 0 298.039062 85.960938 384 192 384 C 298.039062 384 384 298.039062 384 192 C 384 85.960938 298.039062 0 192 0 Z M 192 0 " fill-opacity="1" fill-rule="nonzero"/><g clip-path="url(#clip-0)"><path fill="rgb(100%, 100%, 100%)" d="M 85.296875 107.535156 L 85.296875 276.792969 L 153.289062 276.792969 L 153.289062 201.113281 L 105.210938 154.324219 L 153.289062 107.535156 Z M 153.289062 107.535156 L 153.289062 201.113281 L 231.054688 276.792969 L 231.054688 183.210938 Z M 231.054688 107.535156 L 231.054688 183.210938 L 279.132812 230.003906 L 231.054688 276.792969 L 299.046875 276.792969 L 299.046875 107.535156 Z M 231.054688 107.535156 " fill-opacity="1" fill-rule="nonzero"/></g></svg>