<svg xmlns="http://www.w3.org/2000/svg" xmlns:xlink="http://www.w3.org/1999/xlink" viewBox="0 0 400 400"><defs><style>.cls-1{fill:url(#Degradado_sin_nombre_69);}.cls-2{fill:url(#Degradado_sin_nombre_93);}.cls-3{fill:url(#Degradado_sin_nombre_146);}.cls-4,.cls-5,.cls-6,.cls-7{opacity:0.5;}.cls-4{fill:url(#Degradado_sin_nombre_120);}.cls-5{fill:url(#Degradado_sin_nombre_83);}.cls-6{fill:url(#Degradado_sin_nombre_83-2);}.cls-7{fill:url(#Degradado_sin_nombre_82);}.cls-8{fill:url(#Degradado_sin_nombre_146-2);}.cls-9{fill:url(#Degradado_sin_nombre_146-3);}</style><radialGradient id="Degradado_sin_nombre_69" cx="200" cy="200" r="200" gradientUnits="userSpaceOnUse"><stop offset="0.93" stop-color="#8a8d92"/><stop offset="0.96" stop-color="#f2f5f8"/><stop offset="0.97" stop-color="#dbe4eb"/><stop offset="0.98" stop-color="#fff"/><stop offset="1" stop-color="#dbe4eb"/></radialGradient><linearGradient id="Degradado_sin_nombre_93" x1="114.44" y1="250.75" x2="299.93" y2="65.26" gradientUnits="userSpaceOnUse"><stop offset="0.07" stop-color="#e5ce32"/><stop offset="0.26" stop-color="#ffff32"/><stop offset="0.56" stop-color="#ffff9c"/><stop offset="1" stop-color="#ffff32"/></linearGradient><radialGradient id="Degradado_sin_nombre_146" cx="74.94" cy="143.56" r="11.49" gradientUnits="userSpaceOnUse"><stop offset="0.21" stop-color="#ffff9c"/><stop offset="0.63" stop-color="#ffff32"/><stop offset="0.88" stop-color="#e5ce32"/><stop offset="1" stop-color="#bfac2a"/></radialGradient><linearGradient id="Degradado_sin_nombre_120" x1="202.64" y1="99.46" x2="202.64" y2="94.46" gradientUnits="userSpaceOnUse"><stop offset="0" stop-color="#f7f631"/><stop offset="0.21" stop-color="#ffff32"/><stop offset="0.96" stop-color="#968121"/></linearGradient><linearGradient id="Degradado_sin_nombre_83" x1="133.55" y1="237.08" x2="133.55" y2="111.88" gradientUnits="userSpaceOnUse"><stop offset="0" stop-color="#8a741e"/><stop offset="0.64" stop-color="#ffff32"/><stop offset="0.91" stop-color="#968121"/></linearGradient><linearGradient id="Degradado_sin_nombre_83-2" x1="195.63" y1="212.01" x2="195.63" y2="129.05" xlink:href="#Degradado_sin_nombre_83"/><linearGradient id="Degradado_sin_nombre_82" x1="203.66" y1="247.65" x2="247.39" y2="247.65" gradientUnits="userSpaceOnUse"><stop offset="0.09" stop-color="#968121"/><stop offset="0.36" stop-color="#ffff32"/><stop offset="1" stop-color="#8a741e"/></linearGradient><radialGradient id="Degradado_sin_nombre_146-2" cx="325.51" cy="143.56" r="11.49" xlink:href="#Degradado_sin_nombre_146"/><radialGradient id="Degradado_sin_nombre_146-3" cx="207.18" cy="342.77" r="11.49" xlink:href="#Degradado_sin_nombre_146"/></defs><title>ssi_token_Tyron</title><g id="Capa_1" data-name="Capa 1"><circle cx="200" cy="200" r="193.23"/><path class="cls-1" d="M200,400C89.72,400,0,310.28,0,200S89.72,0,200,0,400,89.72,400,200,310.28,400,200,400Zm0-386.46C97.19,13.54,13.54,97.19,13.54,200S97.19,386.46,200,386.46,386.46,302.81,386.46,200,302.81,13.54,200,13.54Z"/></g><g id="Capa_2" data-name="Capa 2"><polygon class="cls-2" points="71.15 99.46 71.15 145.74 83.57 145.74 83.57 111.88 160.07 111.88 107.03 237.08 247.39 155.33 203.66 339.97 216.19 343.58 264.32 129.05 126.94 212.01 175.67 111.88 321.72 111.88 321.72 145.74 334.13 145.74 334.13 99.46 71.15 99.46"/><circle class="cls-3" cx="77.36" cy="145.74" r="9.59"/><rect class="cls-4" x="71.15" y="94.46" width="262.98" height="5"/><polygon class="cls-5" points="160.07 111.88 107.03 204.77 107.03 237.08 160.07 111.88"/><polygon class="cls-6" points="126.94 212.01 141.86 181.35 264.32 129.05 126.94 212.01"/><polygon class="cls-7" points="203.66 339.97 228.99 166.04 247.39 155.33 203.66 339.97"/><circle class="cls-8" cx="327.93" cy="145.74" r="9.59"/><circle class="cls-9" cx="209.59" cy="344.95" r="9.59"/></g></svg>