<svg width="256" height="256" viewBox="0 0 256 256" fill="none" xmlns="http://www.w3.org/2000/svg">
<circle cx="128" cy="128" r="128" fill="#161515"/>
<path d="M32.361 147.801C33.3041 147.827 34.2506 147.84 35.2001 147.84C54.7265 147.84 72.9438 142.235 88.3303 132.545C94.6291 164.965 123.174 189.44 157.436 189.44C185.477 189.44 209.689 173.046 221.01 149.32C221.887 148.856 222.754 148.374 223.609 147.875C211.237 188.957 173.111 218.88 127.996 218.88C82.8543 218.88 44.7097 188.921 32.361 147.801Z" fill="url(#paint0_radial_0_3-3595ce96e1a54de9a615daeb)"/>
<path d="M32.361 147.801C33.3041 147.827 34.2506 147.84 35.2001 147.84C54.7265 147.84 72.9438 142.235 88.3303 132.545C94.6291 164.965 123.174 189.44 157.436 189.44C185.477 189.44 209.689 173.046 221.01 149.32C221.887 148.856 222.754 148.374 223.609 147.875C211.237 188.957 173.111 218.88 127.996 218.88C82.8543 218.88 44.7097 188.921 32.361 147.801Z" fill="#04171E" fill-opacity="0.88"/>
<path d="M32.8397 149.349C33.6242 149.367 34.411 149.376 35.1999 149.376C54.8442 149.376 73.1634 143.703 88.6084 133.905C95.4313 165.647 123.655 189.44 157.436 189.44C185.477 189.44 209.689 173.046 221.01 149.32C221.887 148.856 222.754 148.374 223.609 147.875C211.237 188.957 173.111 218.88 127.996 218.88C83.4227 218.88 45.6716 189.67 32.8397 149.349Z" fill="url(#paint1_radial_0_3-15daeb8bef93e055fa31e94a)"/>
<path d="M32.8397 149.349C33.6242 149.367 34.411 149.376 35.1999 149.376C54.8442 149.376 73.1634 143.703 88.6084 133.905C95.4313 165.647 123.655 189.44 157.436 189.44C185.477 189.44 209.689 173.046 221.01 149.32C221.887 148.856 222.754 148.374 223.609 147.875C211.237 188.957 173.111 218.88 127.996 218.88C83.4227 218.88 45.6716 189.67 32.8397 149.349Z" fill="#04171E" fill-opacity="0.4"/>
<path d="M175.231 187.172C161.035 198.978 142.787 206.079 122.88 206.079C85.7208 206.079 54.3402 181.338 44.3125 147.43C60.3881 145.975 75.3641 140.71 88.33 132.545C94.6288 164.965 123.174 189.44 157.436 189.44C163.584 189.44 169.547 188.652 175.231 187.172Z" fill="url(#paint2_linear_0_3-3b42d1a43f200797b936ba83)" fill-opacity="0.64"/>
<path d="M209.92 119.04C209.92 164.283 173.243 200.96 128 200.96C82.7568 200.96 46.08 164.283 46.08 119.04C46.08 73.7968 82.7568 37.12 128 37.12C173.243 37.12 209.92 73.7968 209.92 119.04Z" fill="url(#paint3_radial_0_3-9f34a1c6942cba2d1aa7cb88)"/>
<path d="M204.474 103.657C204.474 135.469 178.686 161.257 146.874 161.257C115.063 161.257 89.2742 135.469 89.2742 103.657C89.2742 71.8459 115.063 46.0575 146.874 46.0575C178.686 46.0575 204.474 71.8459 204.474 103.657Z" fill="url(#paint4_radial_0_3-9b8c48c19f34a1c6942cbaa1)" fill-opacity="0.6"/>
<path d="M133.371 46.161C132.086 46.0923 130.792 46.0575 129.49 46.0575C117.235 46.0575 105.7 49.1409 95.6191 54.5744C101.011 53.3863 106.613 52.76 112.361 52.76C118.221 52.76 123.928 53.4107 129.415 54.6437L133.371 46.161Z" fill="url(#paint5_linear_0_3-ce63903945ff48c68c8c47f5)" fill-opacity="0.64"/>
<path d="M138.11 57.1431C168.228 67.7563 189.813 96.4633 189.813 130.212C189.813 144.086 186.165 157.109 179.775 168.373C192.871 155.414 200.984 137.43 200.984 117.551C200.984 82.5833 175.88 53.4788 142.711 47.2774L138.11 57.1431Z" fill="url(#paint6_linear_0_3-cd1406cbde45d6a288b84412)" fill-opacity="0.64"/>
<path d="M171.778 188.295C159.115 196.317 144.1 200.961 128 200.961C102.485 200.961 79.6938 189.296 64.6697 171.008C68.8114 171.767 73.0798 172.164 77.4409 172.164C109.107 172.164 135.89 151.257 144.739 122.494C147.659 122.75 150.615 122.881 153.601 122.881C174.059 122.881 193.081 116.728 208.915 106.171C209.576 110.364 209.92 114.663 209.92 119.041C209.92 121.759 209.787 124.447 209.529 127.097C204.927 151.949 191.121 173.571 171.778 188.295Z" fill="url(#paint7_linear_0_3-6b0072891d236a3a88b40902)" fill-opacity="0.64"/>
<path d="M32.387 147.874C44.7583 188.958 82.885 218.882 128.001 218.882C182.929 218.882 227.497 174.526 227.839 119.679C222.359 119.645 216.984 119.169 211.748 118.285C199.442 123.709 185.833 126.72 171.522 126.72C166.559 126.72 161.681 126.358 156.912 125.659C148.073 154.439 121.281 175.361 89.6036 175.361C67.5137 175.361 47.8 165.187 34.8929 149.27C34.0472 148.821 33.2118 148.355 32.387 147.874Z" fill="url(#paint8_linear_0_3-090266fa84a88b4028b32d81)"/>
<path d="M227.839 119.766C213.154 128.26 196.105 133.122 177.921 133.122C174.456 133.122 171.031 132.945 167.657 132.6C161.337 164.994 132.804 189.442 98.5613 189.442C70.5205 189.442 46.3088 173.048 34.9878 149.322C34.1102 148.858 33.2435 148.376 32.3883 147.876C44.7607 188.958 82.8865 218.882 128.001 218.882C182.9 218.882 227.449 174.573 227.839 119.766Z" fill="url(#paint9_radial_0_3-847868377822eb29b6afbfe0)"/>
<path d="M220.559 123.585C214.545 126.43 208.202 128.691 201.602 130.296C200.746 137.587 199.1 144.898 196.613 152.123C190.549 169.733 180.227 184.668 167.194 196.172C189.479 185.447 207.637 166.167 216.324 140.936C218.303 135.191 219.704 129.386 220.559 123.585Z" fill="url(#paint10_linear_0_3-d5db57dc4aa897d6cd4f7a94)" fill-opacity="0.64"/>
<path opacity="0.2" fill-rule="evenodd" clip-rule="evenodd" d="M156.87 125.831C156.982 125.68 157.193 125.652 157.339 125.768C160.672 128.412 164.273 130.744 168.134 132.722C168.3 132.807 168.367 133.014 168.285 133.185C168.203 133.355 168.002 133.425 167.836 133.34C163.936 131.342 160.297 128.986 156.931 126.315C156.784 126.199 156.757 125.982 156.87 125.831Z" fill="url(#paint11_linear_0_3-b96174c1bc44a69f89e42244)"/>
<defs>
<radialGradient id="paint0_radial_0_3-3595ce96e1a54de9a615daeb" cx="0" cy="0" r="1" gradientUnits="userSpaceOnUse" gradientTransform="translate(223.609 197.792) rotate(179.948) scale(724.923 2106.35)">
<stop offset="0.104167" stop-color="#24537E"/>
<stop offset="0.520341" stop-color="#4FC1C0"/>
<stop offset="1" stop-color="#DAFFF4"/>
</radialGradient>
<radialGradient id="paint1_radial_0_3-15daeb8bef93e055fa31e94a" cx="0" cy="0" r="1" gradientUnits="userSpaceOnUse" gradientTransform="translate(223.609 197.792) rotate(179.948) scale(724.923 2106.35)">
<stop offset="0.104167" stop-color="#24537E"/>
<stop offset="0.520341" stop-color="#4FC1C0"/>
<stop offset="1" stop-color="#DAFFF4"/>
</radialGradient>
<linearGradient id="paint2_linear_0_3-3b42d1a43f200797b936ba83" x1="172.783" y1="219.88" x2="139.846" y2="48.5599" gradientUnits="userSpaceOnUse">
<stop stop-color="#04171E"/>
<stop offset="1" stop-color="#04171E" stop-opacity="0"/>
</linearGradient>
<radialGradient id="paint3_radial_0_3-9f34a1c6942cba2d1aa7cb88" cx="0" cy="0" r="1" gradientUnits="userSpaceOnUse" gradientTransform="translate(68.0493 183.087) rotate(-57.5402) scale(144.309 2091.11)">
<stop offset="0.104167" stop-color="#3A78B1"/>
<stop offset="0.520341" stop-color="#4FC1C0"/>
<stop offset="1" stop-color="#8CF2FD"/>
</radialGradient>
<radialGradient id="paint4_radial_0_3-9b8c48c19f34a1c6942cbaa1" cx="0" cy="0" r="1" gradientUnits="userSpaceOnUse" gradientTransform="translate(204.16 46.08) rotate(144.267) scale(141.916 140.909)">
<stop offset="0.216485" stop-color="white"/>
<stop offset="0.906332" stop-color="white" stop-opacity="0"/>
</radialGradient>
<linearGradient id="paint5_linear_0_3-ce63903945ff48c68c8c47f5" x1="179.84" y1="78.08" x2="95.36" y2="114.88" gradientUnits="userSpaceOnUse">
<stop stop-color="white"/>
<stop offset="0.732381" stop-color="white" stop-opacity="0"/>
</linearGradient>
<linearGradient id="paint6_linear_0_3-cd1406cbde45d6a288b84412" x1="179.84" y1="78.08" x2="95.36" y2="114.88" gradientUnits="userSpaceOnUse">
<stop stop-color="white"/>
<stop offset="0.732381" stop-color="white" stop-opacity="0"/>
</linearGradient>
<linearGradient id="paint7_linear_0_3-6b0072891d236a3a88b40902" x1="336.649" y1="-96.966" x2="-8.86792" y2="190.898" gradientUnits="userSpaceOnUse">
<stop stop-color="#04171E"/>
<stop offset="1" stop-color="#04171E" stop-opacity="0"/>
</linearGradient>
<linearGradient id="paint8_linear_0_3-090266fa84a88b4028b32d81" x1="191.36" y1="132.16" x2="61.7595" y2="177.92" gradientUnits="userSpaceOnUse">
<stop stop-color="#0E6585"/>
<stop offset="1" stop-color="#04171E"/>
</linearGradient>
<radialGradient id="paint9_radial_0_3-847868377822eb29b6afbfe0" cx="0" cy="0" r="1" gradientUnits="userSpaceOnUse" gradientTransform="translate(58.5963 208.069) rotate(-38.5632) scale(118.164 1842.98)">
<stop offset="0.104167" stop-color="#3A78B1"/>
<stop offset="0.520341" stop-color="#4FC1C0"/>
<stop offset="1" stop-color="#8CF2FD"/>
</radialGradient>
<linearGradient id="paint10_linear_0_3-d5db57dc4aa897d6cd4f7a94" x1="220.8" y1="123.52" x2="170.96" y2="199.066" gradientUnits="userSpaceOnUse">
<stop stop-color="white" stop-opacity="0.64"/>
<stop offset="1" stop-color="white" stop-opacity="0"/>
</linearGradient>
<linearGradient id="paint11_linear_0_3-b96174c1bc44a69f89e42244" x1="168.253" y1="133.012" x2="152.05" y2="122.996" gradientUnits="userSpaceOnUse">
<stop stop-color="#8CF2FD"/>
<stop offset="1" stop-color="#8CF2FD" stop-opacity="0"/>
</linearGradient>
</defs>
</svg>
