<svg xmlns="http://www.w3.org/2000/svg" viewBox="0 0 400 400"><defs><style>.cls-1{fill:#5fc9dd;}.cls-2{fill:#6dcee0;}.cls-3{fill:#6ecee0;}.cls-4{fill:#aae2ed;}.cls-5{fill:#88d7e6;}.cls-6{fill:#86d6e5;}.cls-7{fill:#9ddeea;}.cls-8{fill:#b3e5ef;}.cls-9{fill:#02a5c1;}.cls-10{fill:#5ec9dd;}.cls-11{fill:#aaeaf3;}</style></defs><g id="Layer_2" data-name="Layer 2"><g id="Layer_1-2" data-name="Layer 1"><circle cx="200" cy="200" r="200"/><path class="cls-1" d="M55.6,177.5h66c.6,0,.8.2.8.8.2,21.1.1,42.2.1,63.3,0,.7-.1,1.4-.1,2.1s-.2.8-.7.8H55.6a2.9,2.9,0,0,1-.1-1.3V217.5c0-.3.1-.6-.1-.8V205.4c.2-.2.1-.5.1-.8V178.3A1.2,1.2,0,0,1,55.6,177.5Z"/><path class="cls-2" d="M55.6,192.8v11.9a.8.8,0,0,1-.2.7V192.8Z"/><path class="cls-3" d="M55.4,216.7a.8.8,0,0,1,.2.7V229h-.2Z"/><path class="cls-4" d="M55.6,177.5V186h-.2v-8.5Z"/><path class="cls-5" d="M55.4,186h.2v6.8h-.2Z"/><path class="cls-6" d="M55.4,229h.2v5.3h-.2Z"/><path class="cls-7" d="M55.4,234.3h.2v5.1h-.2Z"/><path class="cls-8" d="M55.4,239.4h.2v5h-.2Z"/><path class="cls-9" d="M240.8,85.3h103c.6,0,.8.1.8.7v65.6c0,.7-.3.7-.8.7H138c-.6,0-.9-.1-.9-.8q.2-32.7,0-65.4c0-.7.2-.8.9-.8Z"/><path class="cls-10" d="M212,244.4H138.1c-.7,0-.9-.2-.9-1,.1-3.1.1-6.3,0-9.4-.2-14.7-.1-29.3,0-43.9V178.3c0-.6.2-.8.8-.8H286.1c.6,0,.8.2.8.8v25.1c.1,4.1.1,8.2.1,12.3-.1,9.3-.1,18.6-.1,27.9,0,.7-.2.9-.9.9Z"/><path class="cls-11" d="M204.2,303.6v26.1c-.1,2.1-.1,4.2-.1,6.3a.5.5,0,0,1-.6.6,43.4,43.4,0,0,0-5.1,0c-15.7.2-31.4.1-47,0H137.9c-.5-.1-.7-.2-.7-.8s.1-2.7.1-4.1c-.2-15.6-.2-31.1-.1-46.6V270.5c0-.6.2-.8.8-.8a18.2,18.2,0,0,0,3.3,0c18-.2,35.9-.1,53.9,0h8.3c.4,0,.6.2.6.7-.1,3.3.1,6.6.1,9.9v23.3Z"/></g></g></svg>