<?xml version="1.0" encoding="utf-8"?>
<!-- Generator: Adobe Illustrator 19.0.0, SVG Export Plug-In . SVG Version: 6.00 Build 0)  -->
<svg version="1.1" id="Layer_1" xmlns="http://www.w3.org/2000/svg" xmlns:xlink="http://www.w3.org/1999/xlink" x="0px" y="0px"
	 viewBox="0 0 100 100" style="enable-background:new 0 0 100 100;" xml:space="preserve">
<style type="text/css">
	.st0{fill-rule:evenodd;clip-rule:evenodd;}
	.st1{fill-rule:evenodd;clip-rule:evenodd;fill:#394141;}
	.st2{fill-rule:evenodd;clip-rule:evenodd;fill:#1F66B1;}
	.st3{fill-rule:evenodd;clip-rule:evenodd;fill:#FFFFFF;}
	.st4{fill-rule:evenodd;clip-rule:evenodd;fill:url(#XMLID_168_);}
	.st5{fill-rule:evenodd;clip-rule:evenodd;fill:url(#XMLID_169_);}
	.st6{fill-rule:evenodd;clip-rule:evenodd;fill:#B4B3B9;}
	.st7{fill-rule:evenodd;clip-rule:evenodd;fill:#CFD1D5;}
	.st8{fill-rule:evenodd;clip-rule:evenodd;fill:#091413;}
	.st9{fill-rule:evenodd;clip-rule:evenodd;fill:#343B3B;}
	.st10{fill-rule:evenodd;clip-rule:evenodd;fill:#7F8284;}
	.st11{fill-rule:evenodd;clip-rule:evenodd;fill:#7C8081;}
	.st12{fill-rule:evenodd;clip-rule:evenodd;fill:#353C3C;}
	.st13{fill-rule:evenodd;clip-rule:evenodd;fill:#0B1515;}
	.st14{fill-rule:evenodd;clip-rule:evenodd;fill:#7C7E7F;}
	.st15{fill-rule:evenodd;clip-rule:evenodd;fill:#52595A;}
	.st16{fill-rule:evenodd;clip-rule:evenodd;fill:#C6C7CE;}
</style>
<g id="XMLID_167_">
	<path id="XMLID_165_" class="st0" d="M79.2,77.9c-15.6,15.5-40.8,15.5-56.4,0c-15.6-15.5-15.6-40.8,0-56.3C38.4,6,63.6,6,79.2,21.6
		C94.8,37.1,94.8,62.3,79.2,77.9z"/>
	<path id="XMLID_164_" class="st1" d="M78.3,77c15.1-15,15.1-39.5,0-54.5c-15.1-15-39.5-15-54.6,0c-15.1,15-15.1,39.5,0,54.5
		C38.8,92,63.2,92,78.3,77z"/>
	<path id="XMLID_163_" class="st2" d="M75.6,74.3c13.6-13.6,13.6-35.5,0-49.1C62,11.6,40,11.6,26.4,25.2
		c-13.6,13.6-13.6,35.5,0,49.1C40,87.8,62,87.8,75.6,74.3z"/>
	<path id="XMLID_162_" class="st3" d="M71.3,69.9c11.2-11.2,11.2-29.3,0-40.4c-11.2-11.2-29.3-11.2-40.5,0
		c-11.2,11.2-11.2,29.3,0,40.4C41.9,81.1,60.1,81.1,71.3,69.9z"/>
	<radialGradient id="XMLID_168_" cx="50.9981" cy="38.7277" r="47.2994" gradientUnits="userSpaceOnUse">
		<stop  offset="0" style="stop-color:#DBDDDF"/>
		<stop  offset="0.19" style="stop-color:#D8DADE"/>
		<stop  offset="0.52" style="stop-color:#BBBABF"/>
		<stop  offset="1" style="stop-color:#BBBABF"/>
	</radialGradient>
	<path id="XMLID_256_" class="st4" d="M39,57.8v-0.3l-0.5,0.4l0.1,0.1L39,57.8L39,57.8z M38.8,59.5c0.3-0.1,0.7-0.3,0.6-0.5
		l-0.6-0.9c0,0-0.5,0.5-0.5,0.4c-0.1,0-0.3-0.3-0.4-0.2c-0.1,0.1-0.4,0.2-0.3,0.4C37.8,59,38.5,59.7,38.8,59.5L38.8,59.5z M78,54.2
		c-0.3,0.8-0.7,1.6-1.1,2.3c-0.2,0.3-0.3,0.5-0.5,0.8c-0.2,0.2-0.4,0.5-0.6,0.7l0,0c-0.2,0.2-0.5,0.5-0.7,0.7c2-3.2,2.8-6.2,3-8.3
		C78.1,51.2,78.1,52.6,78,54.2L78,54.2z M76.2,60.5c0.9-1.7,1.4-3.6,1.6-5.4c-0.2,0.5-0.5,1-0.8,1.5c-0.2,0.3-0.4,0.5-0.5,0.8
		c-0.2,0.2-0.4,0.5-0.6,0.7l0,0c-0.2,0.2-0.3,0.3-0.5,0.5c0.1,0.2,0.2,0.8,0.1,1.7C75.8,60.3,76.1,60.4,76.2,60.5L76.2,60.5z
		 M75.2,60.4C75.2,60.4,75.2,60.4,75.2,60.4c-0.4,0.2-0.6,0-1.3,0.1c0-0.2,0-0.4,0-0.6c0.4-0.3,0.8-0.7,1.2-1
		C75.3,59.1,75.3,59.6,75.2,60.4L75.2,60.4z M72.3,60.9c0.4-0.3,1-0.7,1.5-1.1c0.1-1.2,0.2-2.8,0.2-3.5c0-0.6,0-1.4,0-2
		c-0.5,0.7-1,1.2-1.2,1.5c-0.3,0.5-0.3,0.6-1.2,0.9c-0.9,0.3-0.7,1.1-1.2,1.2c0,0-0.1,0-0.1,0c-0.3,0.5-0.8,1.2-1.3,1.8
		c0.1,0,0.2,0,0.4,0c1.1,0,1.9,0.7,1.9,0.7s0.3,0.8,0.4,0.8C71.7,61.1,72,61,72.3,60.9L72.3,60.9z M73.7,60.4
		C73.7,60.4,73.7,60.4,73.7,60.4c-0.3,0-0.5,0.1-0.6,0.1c0.2-0.2,0.4-0.3,0.7-0.5C73.7,60.2,73.7,60.3,73.7,60.4L73.7,60.4z
		 M68.4,60.1l-2.1-0.7l0-0.4c0,0-0.3-0.6-1-0.6c0,0-0.1,0-0.1,0c0-0.3-0.1-0.5-0.1-0.8c1.8-3.2,3.3-6.9,3.5-7.4c0,0,0.1,0,0.1-0.1
		c-0.1,0.3-0.3,0.3-0.3,0.7c0,0.4-0.2,0.4-0.1,0.7c0.1,0.3,0.4,0.4,0.3,0.9c-0.1,0.5-0.3,0.7-0.2,1.3c0.1,0.5,0.2,2.2,0.2,2.2
		s0.7,0.7,0.9,1.2c0.1,0.3,0.4,0.6,0.6,0.7c-0.4,0.6-0.9,1.3-1.4,1.9C68.4,59.9,68.4,60.1,68.4,60.1L68.4,60.1z M63.9,51.9
		c0.4,1.7,0.7,3.5,1,5.3c1.6-2.8,2.9-5.9,3.2-6.9C66.7,51,65.2,51.5,63.9,51.9L63.9,51.9z M64.8,58.4c-0.1,0-0.1-0.1-0.2-0.1
		c0.1-0.1,0.2-0.3,0.2-0.4c0,0.2,0.1,0.3,0.1,0.5C64.8,58.4,64.8,58.4,64.8,58.4L64.8,58.4z M60.3,56.4c0.1-0.2,0.2-0.5,0.2-0.7
		c0.2,0,0.5-0.1,0.8-0.2c0.7-0.2,1.4-0.1,1.4-0.1s0-0.3-0.4-0.5c-0.4-0.2-0.9,0.1-0.9,0.1c0,0-0.3-0.1-0.7-0.2
		c0.2-0.8,0.4-1.5,0.6-2.2c0.7-0.2,1.5-0.4,2.3-0.6c0.4,1.8,0.8,3.7,1.1,5.6c-0.1,0.2-0.3,0.4-0.4,0.6
		C62.9,57.3,61.4,56.8,60.3,56.4L60.3,56.4z M64.1,58.5C64.1,58.6,64.1,58.6,64.1,58.5l-0.5-0.2l0.1,0.8c0,0,0,0,0,0l-0.7-0.3
		l0.3,0.6c0,0-0.2,0-0.5-0.1c-0.3-0.1-1,0.4-1.2,0.3c-0.2-0.2,0.4-0.5,0.4-0.5s0-0.1-0.5-0.3c-0.4-0.2-0.5,0.3-0.5,0.3
		c0,0-0.1-0.1-0.4-0.2c-0.3-0.2-0.2,0.3-0.2,0.4c0,0.1-0.1,0.2-0.4-0.1c-0.3-0.3-0.7,0.5-0.8,0.5c0,0-0.1,0-0.3-0.1
		c0.5-0.9,0.9-2,1.2-3c1.1,0.4,2.6,0.9,4.1,1.8C64.2,58.4,64.2,58.5,64.1,58.5L64.1,58.5z M58.8,75.5l-1.1-0.2l0.3,0.4
		c0,0-1.2,0.4-1.6,0.7c-0.2,0.1-0.2,0.5-0.2,0.8c-0.5,0.1-1.2,0.2-2,0.2c0.1-0.5,0-1.2,0-1.7c0.7-0.1,2-0.1,2.9-0.4
		c1-0.4,2.7-0.7,2.7-0.7L58.8,75.5L58.8,75.5z M53.8,77.3C53.7,77.3,53.7,77.4,53.8,77.3c-0.4-0.5-0.6-1.1-0.7-1.5
		c0.3,0,0.5-0.1,0.6-0.1C53.8,76.2,53.9,76.9,53.8,77.3L53.8,77.3z M47.2,77.4c2.1,0.2,4.4,0.1,6.3,0c-0.3-0.5-0.4-1.1-0.5-1.5
		c-0.5,0.1-1.3,0.1-2.4,0l0.1,1.3c0,0.1,0,0.1-0.1,0.1c-0.1,0-0.1,0-0.1-0.1l-0.1-1.3c-0.3,0-0.6-0.1-0.9-0.2
		C48.8,76.3,48.1,77.1,47.2,77.4L47.2,77.4z M46.7,77.2c-0.1,0-0.2,0-0.4,0c-0.3,0-0.5-0.1-0.7-0.1c-0.4-0.2-0.9-0.5-1.3-0.9
		c-0.2-0.2-0.4-0.5-0.6-0.8c0.1,0,0.2,0,0.3-0.1c2,0.3,3.8,0.4,4.8,0.3c0,0,0,0,0,0c0.1,0,0.1,0,0.2,0
		C48.5,76.3,47.8,77.1,46.7,77.2L46.7,77.2L46.7,77.2z M41.2,75.6c1,0.5,2.2,1,3.7,1.3c-0.2-0.2-0.4-0.4-0.6-0.6
		c-0.2-0.3-0.4-0.6-0.7-0.9C42.8,75.6,42,75.7,41.2,75.6L41.2,75.6z M40.1,75c-0.4-0.3-0.9-0.6-1.2-0.9c1.5,0.5,3.1,0.8,4.5,1.1
		c0,0,0,0,0,0c-0.9,0.2-1.8,0.2-2.7,0.1C40.4,75.2,40.2,75.1,40.1,75L40.1,75z M39,75c0.3,0.1,0.7,0.2,1,0.2c0,0-0.1,0-0.1-0.1
		c-0.6-0.4-1.2-0.8-1.7-1.3c-0.5-0.2-1.1-0.4-1.6-0.6c-0.4-0.2-0.7-0.3-1.1-0.5c0.2,0.2,0.3,0.3,0.5,0.5l0,0l0,0l0,0
		c0.5,0.4,1,0.7,1.5,1C38,74.6,38.5,74.9,39,75L39,75z M35.1,72.4c-1.1-1.3-2.1-3.2-2.8-5.3c0.8,0.5,1.7,1,2.6,1.4
		c0.1,0.8,0.4,1.6,0.7,2.2c0.2,0.3,0.3,0.6,0.5,0.9c0.2,0.3,0.4,0.5,0.6,0.8l0,0c0.3,0.3,0.7,0.7,1.1,1.1c-0.4-0.1-0.7-0.3-1.1-0.4
		C36.1,72.9,35.6,72.6,35.1,72.4L35.1,72.4z M34.1,71.9c0.1,0.1,0.3,0.1,0.4,0.2c-1.1-1.4-1.9-3.2-2.6-5.2c-1.6-1.1-2.8-2.2-3.9-3.3
		c0.2,2.2,1.4,4.5,3.9,6.7l0,0C32.6,70.9,33.3,71.4,34.1,71.9L34.1,71.9z M28,62.8c0.9,0.6,2,1.2,3.3,1.8c0.2,0.6,0.3,1.3,0.5,1.9
		c-1.5-1.1-2.8-2.2-3.8-3.3C28,63.1,28,63,28,62.8L28,62.8z M28.1,61.5c0.1-0.5,0.2-1,0.4-1.5c0.2-0.5,0.4-1,0.6-1.4l0,0
		c0.4-0.6,0.8-1.2,1.2-1.8c0,0.9,0,1.8,0.1,2.7c0.1,0.9,0.2,1.9,0.4,2.8c0.1,0.7,0.3,1.4,0.4,2.1c-1.3-0.6-2.3-1.2-3.2-1.8
		C28,62.2,28,61.8,28.1,61.5L28.1,61.5z M27.8,62.4c0-0.3,0-0.6,0.1-0.9c0.1-0.5,0.2-1.1,0.4-1.6c0.2-0.5,0.4-1,0.6-1.4l0,0
		c0.4-0.7,0.9-1.4,1.4-2.1c0-1.4,0.1-2.7,0.2-3.9c-0.8-0.3-1.6-0.6-2.3-0.9c-1-0.5-1.8-0.9-2.4-1.5c-0.4,0.5-0.8,1.1-1.1,1.6
		c0,0.4-0.1,0.7-0.1,1.1c0,0.1-0.1,0.1-0.1,0.1c-0.1,0-0.1-0.1-0.1-0.1c0-0.2,0-0.4,0-0.6c-0.1,0.2-0.2,0.5-0.3,0.7
		c-0.2,0.5-0.3,0.9-0.4,1.3c0,0.3-0.1,0.5-0.1,0.8c0.1,0.3,0.1,0.5,0.2,0.8c0.1,0.4,0.2,0.7,0.3,1l0,0c0.4,1.1,1.1,2.8,2.3,4.5
		c0,0,0,0,0,0C26.9,61.6,27.3,62,27.8,62.4L27.8,62.4z M27.2,62.2c0.2,0.2,0.4,0.3,0.6,0.5c0,0.1,0,0.2,0,0.3
		C27.6,62.7,27.3,62.4,27.2,62.2L27.2,62.2z M25.3,59.9c-0.9-1.3-1.3-2.5-1.5-3.5c0,0.1,0.1,0.3,0.1,0.4h0l0,0
		c0.3,0.9,0.8,2.1,1.6,3.4C25.5,60.1,25.4,60,25.3,59.9L25.3,59.9z M23.5,54.2c-0.4-2.1-0.7-4.8-0.3-7.6c0-0.1,0-0.3,0.1-0.4
		c0.1,1,0.5,1.9,1.2,2.7c0.1,0.1,0.2,0.2,0.3,0.4c-0.1,0.8-0.2,1.6-0.3,2.4c-0.2,0.4-0.4,0.8-0.6,1.2C23.7,53.2,23.6,53.7,23.5,54.2
		C23.5,54.1,23.5,54.1,23.5,54.2L23.5,54.2z M24.2,43.2c-0.3,0.6-0.6,1.3-0.7,2c0,1.3,0.4,2.4,1.2,3.4c0.1,0.1,0.1,0.1,0.2,0.2
		c0.5-2.8,1.4-5.1,2.8-8.5l0.1-0.1c0.1-0.3,0.3-0.6,0.4-0.9c-0.6,0.4-1.2,0.8-1.7,1.3C25.3,41.4,24.7,42.3,24.2,43.2L24.2,43.2z
		 M26.2,37.8c0.5-1,1-1.8,1.5-2.6c0,0.8,0.6,1.5,1.4,2.1c0,0,0,0,0,0.1c-0.3,0.5-0.6,1-0.8,1.5c-0.7,0.5-1.4,1-2.1,1.5
		c-0.8,0.7-1.5,1.5-2,2.3C24.5,41.6,25.1,39.8,26.2,37.8L26.2,37.8z M27.9,34.9c-0.1,0.9,0.4,1.6,1.2,2.2c0.5-2.4,1.3-4.3,1.9-5.5
		c-1,0.9-1.8,1.6-2.5,2.5C28.3,34.3,28.1,34.6,27.9,34.9L27.9,34.9z M30.4,31.2c0,0.1,0.1,0.2,0.5,0.3c-1,0.8-1.8,1.6-2.5,2.4
		c-0.1,0.1-0.2,0.2-0.3,0.4C28.6,33,29.7,31.8,30.4,31.2L30.4,31.2z M31.5,31.5c1.1-0.1,1.7-0.7,1.9-0.8c0.2-0.1,0.9-0.2,0.9-0.2
		s0,0.1,0,0.3c-1.1,1.2-3.2,3.5-4.9,6.1c0.5-2.4,1.4-4.2,1.9-5.3C31.4,31.5,31.5,31.5,31.5,31.5L31.5,31.5z M35.5,57
		c0.8,0.4,1.1,0.9,1.3,0.9c0.3,0,0.5-0.1,0.8,0c0.3,0.1,0.5-0.1,0.8-0.3c0.2-0.2,0.4-0.4,0.5-0.5c0.2-0.1,0.4-0.1,0.4-0.1
		s0.3,0.2,0.8,0.5c0,0.3,0,0.8,0.1,1.4c-0.9,0.6-1.9,1.3-2.7,2.2c-0.5-0.6-1.1-1.2-1.6-1.8c-0.6-0.7-1.1-1.3-1.6-2
		c-0.5-0.7-0.9-1.4-1.4-2.1l0,0c-0.2-0.3-0.3-0.5-0.4-0.8c0.5-0.4,0.9-0.7,1.1-0.9c-0.1,0.3-0.3,0.7-0.1,1.1
		C33.9,55.1,34.8,56.6,35.5,57L35.5,57z M40.6,64c-1-0.8-2-1.7-2.9-2.7c0.8-0.9,1.7-1.6,2.6-2.1C40.3,60.5,40.5,62.2,40.6,64
		L40.6,64z M40.6,57.8c0.1,0.2,0.3,0.4,0.5,0.7c-0.2,0.1-0.4,0.2-0.6,0.3c0-0.4,0-0.8-0.1-1.1C40.5,57.7,40.5,57.7,40.6,57.8
		L40.6,57.8z M41.5,58.2c-0.2-0.1-0.3-0.2-0.5-0.2c0.1,0.1,0.2,0.2,0.2,0.4C41.3,58.3,41.4,58.2,41.5,58.2L41.5,58.2z M45.8,74.6
		c-0.4,0.2-0.8,0.4-1.3,0.5c1.4,0.2,2.7,0.3,3.6,0.2C47.2,75.1,46.4,74.9,45.8,74.6L45.8,74.6z M42.2,71.8c0.4,1.3,0.9,2.4,1.3,3.2
		c0.2,0,0.3,0.1,0.5,0.1c0.5-0.2,1-0.3,1.5-0.6c-0.8-0.3-1.2-0.6-1.2-0.6l-0.7-1l0.1-1.2L43,70.7c-0.3,0-0.7-0.1-1.2-0.2
		C41.9,71,42.1,71.4,42.2,71.8L42.2,71.8z M41.6,70.5c-1.7-0.3-4.1-0.8-6.5-1.9c0.1,0.7,0.4,1.4,0.7,2c0.2,0.3,0.3,0.6,0.5,0.9
		c0.2,0.3,0.4,0.5,0.6,0.8l0,0c0.4,0.5,0.9,1,1.5,1.4c1.6,0.5,3.3,0.9,4.9,1.2c-0.4-0.8-0.9-1.8-1.3-3.1
		C41.8,71.5,41.7,71,41.6,70.5L41.6,70.5z M35.1,66.1C35,66.9,35,67.7,35,68.4c2.4,1.1,4.8,1.6,6.5,1.9c-0.2-0.9-0.4-2-0.5-3
		C39,67,37,66.6,35.1,66.1L35.1,66.1z M41,67c-0.1-0.9-0.2-1.8-0.3-2.7c-1.1-0.9-2.1-1.8-3.1-2.9c-0.2,0.2-0.4,0.4-0.5,0.6
		c-0.1,0.2-0.3,0.4-0.4,0.6c0,0,0,0,0,0s0.1,0.9,0,1.1c-0.1,0.1-0.4,0.2-0.6,0.2c0,0-0.1,0-0.2,0c-0.1,0.3-0.2,0.5-0.3,0.8l0,0l0,0
		l0,0l0,0c-0.2,0.4-0.3,0.8-0.4,1.2C37,66.4,39,66.8,41,67L41,67z M44.4,66.5c0-0.5,0-1.1,0.2-1.3c0.2-0.1,0.6-0.4,1-0.6
		c-1.5-1.7-3.4-4.3-4.5-6c-0.2,0.1-0.4,0.2-0.7,0.4c0.1,1.4,0.2,3.2,0.4,5.2C42.1,65.1,43.2,65.9,44.4,66.5L44.4,66.5z M41.2,67
		c-0.1-0.8-0.2-1.7-0.3-2.5c1.2,0.9,2.4,1.7,3.5,2.3c0,0.1,0,0.3,0,0.4c0,0.1,0,0.1,0,0.2C43.4,67.2,42.3,67.2,41.2,67L41.2,67z
		 M42.6,70.1l0.2,0.3c-0.3,0-0.7-0.1-1.1-0.1c-0.2-0.9-0.4-2-0.5-3.1c1,0.1,2,0.2,3,0.3c-0.1,0.2-0.3,0.2-0.3,0.2l-1.4,0.2l-0.8,1.2
		L42.6,70.1L42.6,70.1z M29.3,46.8c0.3,1.4,0.8,2.9,1.4,4.3c0,0.4-0.1,0.7-0.1,1.1c-0.8-0.3-1.5-0.6-2.2-0.9
		c-0.9-0.5-1.7-0.9-2.4-1.4C26.8,48.9,27.9,47.8,29.3,46.8L29.3,46.8z M28.9,38.5c0-0.1,0-0.3,0.1-0.4c-0.1,0.2-0.2,0.3-0.3,0.5
		C28.7,38.6,28.8,38.5,28.9,38.5L28.9,38.5z M30.2,38c-0.4,0.2-0.8,0.4-1.1,0.6c0,0.3-0.1,0.6-0.1,0.9l0,0c-0.1,0.7-0.1,1.5-0.1,2.2
		c0,0.7,0.1,1.5,0.1,2.2c0.1,0.8,0.2,1.6,0.4,2.5c0.8-0.6,1.6-1.1,2.6-1.6c0,0,0,0,0,0c0.1,0,0.2-0.1,0.2-0.1
		c-0.2-1.2-0.4-3-0.3-3.4c0.1-0.3,0.5-1.3,0.9-2.3C32,38.7,31.1,38.4,30.2,38L30.2,38z M29.5,37.6c0.1,0.1,0.3,0.2,0.4,0.2
		c-0.3,0.1-0.6,0.3-0.8,0.5c0-0.3,0.1-0.6,0.1-0.8c0,0,0,0,0,0C29.4,37.5,29.4,37.6,29.5,37.6L29.5,37.6z M33.8,34.7
		c0,0-0.4,0.4-0.4,0.9c0,0.2,0.1,0.5,0.2,0.7c-0.7,0.3-2,0.8-3.3,1.5c-0.2-0.1-0.4-0.2-0.6-0.3c-0.1,0-0.2-0.1-0.2-0.1
		c1.6-2.5,3.6-4.9,4.8-6.2c0,0.2-0.1,0.4-0.1,0.5c-0.1,0.1-0.9,2.1-0.9,2.6C33.2,34.6,33.8,34.7,33.8,34.7L33.8,34.7z M33,38.6
		c-0.8-0.2-1.6-0.4-2.5-0.8c1.3-0.7,2.4-1.1,3.1-1.4c0.1,0.2,0.1,0.3,0.1,0.3S33.3,37.6,33,38.6L33,38.6z M31.7,52.8
		c0.2,0.5,0.5,0.9,0.7,1.4c0.5-0.4,0.9-0.7,1.2-0.9C33,53.2,32.4,53,31.7,52.8L31.7,52.8z M30.7,52.5c0.2,0.1,0.5,0.1,0.7,0.2
		c0.3,0.5,0.5,1.1,0.8,1.6c-0.5,0.5-1.1,1.1-1.7,1.7C30.6,54.8,30.6,53.6,30.7,52.5L30.7,52.5z M30.8,51.5c0.1,0.3,0.3,0.6,0.4,1
		c-0.2-0.1-0.3-0.1-0.5-0.2C30.8,52,30.8,51.8,30.8,51.5L30.8,51.5z M30.7,50.6c-0.5-1.3-0.9-2.6-1.3-4c0.7-0.5,1.5-1,2.4-1.5
		C31.6,45.8,31.1,47.8,30.7,50.6L30.7,50.6z M33.8,53.1c-0.7-0.1-1.4-0.3-2.2-0.5c-0.2-0.5-0.5-1-0.7-1.5c0.4-3.4,1.1-5.8,1.2-6.1
		c0,0,0.1-0.1,0.1-0.1c0.1,0.5,0.1,0.9,0.1,0.9s0.1,0.1,0.1,0.6c-0.1,0.5-0.6,0.6-0.4,0.9c0.2,0.3,0.2,0.4,0.1,0.9
		c-0.1,0.5-0.4,1.3,0,1.3c0.3-0.1,0.6-0.6,0.9-0.8c0.3-0.3,0.8,0.9,0.8,0.9s-0.2,0.2-0.2,0.4c0,0.2,0.6,1.6,0.4,1.8
		c-0.1,0.2-0.3,0.8-0.3,1C33.7,52.8,33.8,52.9,33.8,53.1L33.8,53.1z M25.6,49.9c-0.3,0.4-0.6,0.8-0.9,1.2c0.1-0.6,0.1-1.2,0.2-1.8
		C25.2,49.6,25.4,49.7,25.6,49.9L25.6,49.9z M25,49.1c0.5-2.8,1.4-5.1,2.8-8.6l0.1-0.2c0.2-0.4,0.4-0.9,0.6-1.3
		c0.1-0.1,0.3-0.2,0.4-0.2c0,0.2-0.1,0.5-0.1,0.7l0,0c-0.1,0.7-0.1,1.5-0.1,2.2c0,0.8,0.1,1.5,0.1,2.3c0.1,0.9,0.2,1.7,0.4,2.6
		c-1.5,1.1-2.6,2.2-3.5,3.2C25.5,49.5,25.2,49.3,25,49.1L25,49.1z M33.3,65.2c-0.6-0.2-1.2-0.5-1.8-0.7c-0.2-0.7-0.3-1.5-0.5-2.3
		c-0.2-0.9-0.3-1.9-0.4-2.8c-0.1-0.9-0.1-1.9-0.1-2.8l0-0.1v0c0,0,0-0.1,0-0.1c0.6-0.8,1.3-1.4,1.8-1.9c0.1,0.2,0.3,0.5,0.4,0.7l0,0
		c0.4,0.7,0.9,1.4,1.4,2.1c0.5,0.7,1,1.4,1.6,2c0.5,0.6,1.1,1.2,1.6,1.8c-0.2,0.2-0.4,0.4-0.6,0.6c-0.2,0.2-0.4,0.5-0.6,0.8
		c-0.3,0-0.7,0.1-1,0c-0.4-0.1-0.8-0.4-0.8-0.2c0,0.2,0,0.3-0.2,0.2c-0.1-0.1,0-0.4-0.3-0.3c-0.3,0-0.4-0.1-0.5-0.2
		c-0.1-0.1-0.3-0.5-0.3-0.5l-0.4-0.6c0,0-0.4,0.2-0.4,0.4c0,0.2,0.2,0.4,0,0.6c-0.2,0.2,0,0.4,0.2,0.6c0.3,0.2,0.2,0.3,0.1,0.5
		c-0.1,0.2,0.3,0.5,0.7,0.4c0.4,0,0.7,0,1,0.1c0.4,0,0.5,0.1,0.7,0.1c0.1,0,0.2,0,0.4,0c-0.1,0.2-0.2,0.5-0.3,0.7l0,0l0,0h0
		c-0.2,0.4-0.3,0.9-0.4,1.3C34.4,65.6,33.8,65.5,33.3,65.2L33.3,65.2z M34.8,68.3c-0.1-0.7,0-1.4,0.1-2.2c-0.6-0.2-1.2-0.4-1.7-0.6
		c-0.6-0.2-1.1-0.4-1.6-0.7c0.2,0.7,0.4,1.3,0.6,2C33,67.3,33.9,67.8,34.8,68.3L34.8,68.3z M60.3,55.7c-0.1,0.2-0.1,0.4-0.2,0.6
		c-0.4-0.1-0.7-0.2-1-0.3c0.3,0,0.5-0.1,0.6-0.1C59.8,55.8,60,55.7,60.3,55.7L60.3,55.7z M42.5,58.6c-0.2-0.1-0.5-0.2-0.7-0.3
		c-0.1,0.1-0.3,0.1-0.4,0.2c1.1,1.7,3,4.4,4.5,6c0.5-0.2,0.9-0.4,0.9-0.4s0.6-1.5,1.1-1.7c0.4-0.2,1.4-0.8,1.5-0.9
		c0.1-0.1,0.2-0.8,0.2-0.8l-1.2-0.9l2.6-3.1c0,0,6.1,2.1,7.9,2.7c0.5-0.9,0.9-2,1.2-3c-0.8-0.2-1.3-0.4-1.7-0.5c-0.6,0-1.2,0-1.2,0
		l0.2-1.4c0,0,0.7,0,1.5-0.2c0.8-0.1,1.1-0.1,1.6,0.1c0,0,0.1,0,0.1,0c0.2-0.7,0.4-1.4,0.6-2.1c-1.8,0.4-2.9,0.6-2.9,0.6
		c-0.1,0-0.1,0-0.1-0.1c0-0.1,0-0.1,0.1-0.1c0,0,1.2-0.2,3-0.6c0.7-2.9,1-5.1,1-5.1l0,0c0-0.2,0.1-0.4,0.1-0.5
		c-0.3-0.9-0.5-1.8-0.8-2.6c-0.3-0.9-0.5-1.7-0.8-2.5c-0.2-0.5-0.4-1-0.5-1.4c-1.5-0.1-2.7-0.2-3.6-0.2c0.2,0.2,0.4,0.4,0.4,0.5
		c0,0.2,0,0.5-0.6,0.6c-0.5,0.1-0.6,0.4-0.8,0.5c-0.2,0.1-0.6,0.6-0.6,1c0,0.4-0.7,1.7-0.7,1.7l-1.8,1.9c0,0-7.3,6.2-7.4,6
		c-0.1-0.1-1.7,0.5-2,0.6c-0.3,0.1-0.2,0.8-0.2,0.8s0,0.3,0,0.7c0.7,0.1,1.8,0.1,2.8,0.1c0.1,0,0.1,0,0.1,0.1c0,0.1,0,0.1-0.1,0.1
		c-1,0.1-2.1,0-2.8,0c0,0.2,0.1,0.3,0.1,0.5c0.3,0.8,1.6,1.5,1.6,1.5C44.9,56.5,43.7,59.1,42.5,58.6L42.5,58.6z M50,33.6
		c0-0.2,0.1-0.4,0.1-0.5c0-0.1,0.3-0.3,0.3-0.2c0,0.1,0.3,1.2,0.3,1.2l-0.1,0.7C50.7,34.5,50,33.8,50,33.6L50,33.6z M57.5,38.7
		c0.2-0.1,0.3-0.2,0.3-0.3c0,0,0,0,0,0c0,0.1,0.1,0.7,0.2,0.8c0.2,0.1,0.6-0.5,0.8-0.6c0.1-0.1,0.2-0.3,0.5-0.5
		c0.2,0.5,0.5,1,0.7,1.6l0,0c0,0.1,0,0.1,0.1,0.2c-1.5-0.2-2.8-0.2-3.7-0.2C56.6,39.5,57.2,38.9,57.5,38.7L57.5,38.7z M58.1,36.1
		C58.1,36.1,58.1,36.1,58.1,36.1c0.1,0.1,0.3,0.3,0.4,0.4c-0.1,0-0.2,0-0.2-0.1C58.1,36.4,58,36.2,58.1,36.1L58.1,36.1z M59.1,34.6
		c-0.2,0.3-0.6,0.9-0.9,1.3c0.1,0.2,0.3,0.4,0.4,0.6c0,0,0,0,0,0c0.2-0.1,0.4-0.1,0.4-0.1s0.4,0.3,0.5,0.3c0.1,0,0.2-0.4,0.3-0.4
		c0.1-0.1,0.7,0.2,0.6,0.5c-0.1,0.1-0.4,0.6-0.8,1c0.9-0.3,1.9-0.6,3-1c0-0.3-0.1-0.6-0.1-0.9c-0.2,0.2-0.4,0.5-0.6,0.3
		c-0.2-0.1-0.4,0-0.5,0.1c-0.2,0.1-0.3,0.1-0.4-0.1c-0.1-0.2-0.3-0.1-0.7-0.1c-0.4,0.1-0.7-0.2-0.7-0.3c0-0.2-0.1-1.8-0.1-1.8
		S59.4,34.2,59.1,34.6L59.1,34.6z M61.8,32c0,0-0.8,0.2-0.5,0.9c0.2,0.3,0.6,0.7,1,1.1c0,0.1,0.1,0.4,0.1,0.8
		c-0.2-0.1-1-0.9-1.1-0.9c-0.1,0-0.2,0.2-0.4,0.2c-0.1,0-0.7-0.6-0.7-0.8c0-0.2-0.3-0.6-0.3-0.6S59.5,32,59.3,32
		c-0.2,0-0.5-0.2-0.5-0.2L61.8,32L61.8,32z M63.8,35.1c0.3,0.2,0.8,0.5,1.2,0.8c-0.1,0-0.1,0.1-0.2,0.1c-0.6,0.3-1.2,0.5-1.7,0.7
		c-0.1-1.1-0.2-2-0.3-2.4C63,34.6,63.5,34.9,63.8,35.1L63.8,35.1z M63.6,31.6c0.1-0.1,0.3-0.7,0.3-0.7l0.2,0.3c0,0,0.2,0,0.2,0
		c0.1,0,0,0.2,0,0.2c-0.1,0-0.3,0.2-0.4,0.3c-0.1,0.1-0.2,0.4-0.4,0.4c-0.1,0-0.2-0.3-0.2-0.3S63.5,31.6,63.6,31.6L63.6,31.6z
		 M66,36.5c-0.2-0.1-0.5-0.3-0.8-0.5c-0.1,0.1-0.2,0.1-0.3,0.2c-0.6,0.3-1.2,0.5-1.8,0.7c0.1,1,0.2,2.1,0.2,3.3c1.5,0.2,3,0.6,4.4,1
		c-0.2-0.3-0.5-0.5-0.7-0.8c-1.1-1-1.9-3.5-1.9-3.5l0.1-0.5c0,0,0-0.1,0.4,0.1c0.5,0.2,1.5,0.2,1.5,0.2S66.6,36.7,66,36.5L66,36.5z
		 M62.5,47.2c0,0.1-0.3,2.3-1,5c0.7-0.2,1.4-0.4,2.2-0.6c-0.4-1.6-0.7-3.1-1.1-4.6C62.5,47.2,62.5,47.2,62.5,47.2L62.5,47.2z
		 M60.4,39.9c0-0.1-0.1-0.2-0.1-0.3l0,0c-0.3-0.6-0.5-1.1-0.7-1.6c1-0.3,2-0.6,3.1-1c0.1,0.9,0.1,2,0.2,3.2
		C62,40.1,61.2,40,60.4,39.9L60.4,39.9z M62.9,40.4c0,1.8-0.1,3.8-0.4,5.7c-0.2-0.8-0.4-1.5-0.6-2.2c-0.3-0.9-0.5-1.7-0.8-2.5
		c-0.2-0.5-0.3-0.9-0.5-1.3C61.3,40.2,62.1,40.3,62.9,40.4L62.9,40.4z M68.6,43.7c0-0.6-0.4-1.4-0.9-2.1c-1.4-0.5-3-0.9-4.6-1.1
		c0,2-0.1,4.1-0.5,6.2c0.4,1.6,0.8,3.2,1.2,5c0.6-0.2,1.3-0.4,2-0.6c-0.3-0.2-0.9-1-0.8-1.5c0.1-0.6-0.3-1.9-0.1-3
		c0.2-1,0.7-1.2,0.7-1.2l0.4,0.5c0,0,0.8,0.7,0.9,0.9c0.1,0.3,0.1,1.2,0,1.4c-0.1,0.3-0.1,0.4-0.1,0.8c0,0.5,0,0.8-0.2,1.2
		c-0.1,0.2-0.3,0.5-0.4,0.7c0.7-0.3,1.4-0.5,2.1-0.8c0,0,0,0,0,0c0.1,0,0.2-0.1,0.3-0.1c0-0.4-0.2-0.8-0.3-1c0-0.3-0.3-0.4-0.4-0.6
		c-0.2-0.2-0.1-1.7,0-2.1c0.2-0.4,0.4-0.7,0.5-0.9c0.1-0.2,0-0.2,0-0.4C68.5,44.7,68.7,44.7,68.6,43.7L68.6,43.7z M67.8,36.1
		c0.1-0.1,0.2-0.3,0.2-0.5c0-0.2-0.1-0.2,0.1-0.6c0.1-0.2,0.1-0.4,0.2-0.7c0.1-0.1,0.3-0.2,0.4-0.3c0,0.1,0,0.1,0,0.1
		c-0.1,0.4,0.2,0.6,0,1.2c-0.2,0.6-0.5,0.9-0.6,1C67.8,36.5,67.7,36.3,67.8,36.1L67.8,36.1z M68.6,33.8c-0.1,0.1-0.2,0.2-0.3,0.2
		c0-0.1,0-0.1,0-0.2c0.1-0.2,0.1-0.5,0.1-0.5l0.2-0.5C68.6,32.9,68.6,33.4,68.6,33.8L68.6,33.8z M68.4,29.5c0.2,0.1,0.4,0.6,0.9,0.9
		c0.5,0.3,0.4,0.5,0.4,0.5c0.1,0,0.4-0.1,0.4-0.1s0.2,0.3,0.2,0.5c0,0,0,0,0,0c0,0,0,0.1,0,0.2c0,0,0,0,0,0c-0.2,0-0.6-0.1-0.8-0.3
		c-0.2-0.2-0.7-0.2-1-0.2c-0.3,0-0.2-0.3-0.2-0.6c0-0.3-0.4-0.8-0.4-0.8L68.4,29.5L68.4,29.5z M74.3,53.8c0,0.7,0,1.6,0,2.4
		c0,0.7-0.1,2.1-0.2,3.3c0.1-0.1,0.2-0.2,0.3-0.3c2.7-4,3.4-7.7,3.6-9.9c-0.2-0.6-0.5-1.2-1-1.9c-0.2,0.1-0.4,0.3-0.8,0.7
		c-0.8,1.1-0.9,2.6-1.3,4.2C74.7,52.9,74.5,53.4,74.3,53.8L74.3,53.8z M77.3,47.5c0,0,0.3,0.6,0.6,1c0,0.1,0,0.2,0,0.3
		c-0.2-0.4-0.4-0.9-0.7-1.4C77.3,47.5,77.3,47.5,77.3,47.5L77.3,47.5z M78.3,50.9c0.1,0.4,0.1,0.9,0,1.4c0,0.2,0,0.4-0.1,0.6
		C78.3,52.1,78.3,51.5,78.3,50.9L78.3,50.9z M79.1,44.2c0.1,0.8,0.1,1.4,0.1,1.8v0c0,0.1,0,0.1,0,0.2c-0.1,1.9-0.2,2.3-0.8,2.4
		c-0.1,0-0.2,0-0.2,0c0,0.2,0,0.4,0,0.7c0,0.1,0.1,0.2,0.1,0.3c0.3,0.9,0.4,1.7,0.3,2.6c0,0.6-0.2,1.3-0.4,1.9
		c-0.2,2.1-0.8,4.6-2,6.8c-0.3,1.1-1.6,4.9-5.2,9.2c-4.2,4.1-9.4,6.7-14.8,7.6c0-0.2,0-0.3,0-0.5c-1.8,0.2-6.2,0.7-9.7,0.2
		c-0.3,0-0.5,0-0.8-0.1c0,0,0,0,0,0c-2-0.4-3.6-1-4.9-1.8c-0.5-0.1-1.1-0.2-1.6-0.3c-0.5-0.2-1.1-0.4-1.6-0.7
		c-0.5-0.3-1-0.6-1.5-1.1l0,0l0,0l0,0h0c-0.3-0.3-0.6-0.6-1-1c-0.3-0.2-0.6-0.3-0.9-0.5c-0.8-0.5-1.6-1-2.2-1.6h0l0,0l0,0l0,0
		c-2.7-2.4-3.8-4.9-4-7.2c-0.6-0.6-1.1-1.3-1.5-1.9c-0.5-0.5-0.8-0.9-1.2-1.4c-1.3-1.8-1.6-3.6-1.7-4.8l0,0c0-0.1,0-0.2,0-0.3
		c0-0.1-0.1-0.2-0.1-0.4c-0.5-2.2-0.8-5.1-0.4-8.1c0.1-0.9,0.4-1.8,0.7-2.6c0-0.1,0.6-2.9,2.3-6.2c0.6-1.2,1.2-2.1,1.7-2.9
		c0.4-2.3,3.1-4.3,3.1-4.3c0.1,0,0.1,0,0.2,0c0.5-0.5,1.2-1.2,1.4-1.4c0.4-0.4,0.7-1.5,0.8-1.7c11.2-9,27.7-8.3,38.1,2.1
		C75.4,33.7,78.1,38.8,79.1,44.2z"/>
	<radialGradient id="XMLID_169_" cx="83.3831" cy="78.1329" r="64.2727" gradientUnits="userSpaceOnUse">
		<stop  offset="0" style="stop-color:#DBDDDF"/>
		<stop  offset="0.19" style="stop-color:#D8DADE"/>
		<stop  offset="0.49" style="stop-color:#BBBABF"/>
		<stop  offset="1" style="stop-color:#BBBABF"/>
	</radialGradient>
	<path id="XMLID_220_" class="st5" d="M39,57.8v-0.3l-0.5,0.4l0.1,0.1L39,57.8L39,57.8z M25.4,60.4l0.5-0.1c0.2,0.3,0.4,0.6,0.6,1
		c0,0,0,0,0,0c0.4,0.4,0.8,0.7,1.3,1.1c0-0.3,0-0.6,0.1-0.9c0.1-0.5,0.2-1.1,0.4-1.6c0-0.1,0-0.1,0.1-0.2l0.3-0.1
		c0,0.1-0.1,0.2-0.1,0.3c-0.2,0.5-0.3,1-0.4,1.5C28,61.8,28,62.2,28,62.5c0.9,0.6,1.9,1.2,3.2,1.8c-0.2-0.7-0.3-1.4-0.4-2.1
		c-0.2-0.9-0.3-1.9-0.4-2.8c0-0.1,0-0.1,0-0.2l0.2-0.1c0,0.1,0,0.2,0,0.3c0.1,0.9,0.2,1.9,0.4,2.8c0.1,0.8,0.3,1.5,0.5,2.3
		c0.6,0.3,1.2,0.5,1.8,0.7c0.5,0.2,1.1,0.4,1.7,0.6c0.1-0.4,0.2-0.8,0.4-1.3h0l0,0l0,0c0.1-0.2,0.2-0.5,0.3-0.7c-0.1,0-0.3,0-0.4,0
		c-0.2,0-0.3-0.1-0.7-0.1c-0.4,0-0.6-0.1-1-0.1c-0.4,0-0.8-0.2-0.7-0.4c0.1-0.2,0.1-0.3-0.1-0.5c-0.3-0.2-0.4-0.4-0.2-0.6
		c0.2-0.2,0-0.4,0-0.6c0-0.2,0.4-0.4,0.4-0.4l0.4,0.6c0,0,0.3,0.5,0.3,0.5c0.1,0.1,0.2,0.2,0.5,0.2c0.3,0,0.1,0.2,0.3,0.3
		c0.1,0.1,0.2-0.1,0.2-0.2c0-0.2,0.4,0.1,0.8,0.2c0.3,0.1,0.7,0.1,1,0c0.2-0.3,0.4-0.5,0.6-0.8c0.2-0.2,0.4-0.4,0.6-0.6
		c-0.6-0.6-1.1-1.2-1.6-1.8c-0.3-0.4-0.6-0.8-0.9-1.2l0.3-0.1c0.3,0.4,0.6,0.7,0.9,1.1c0.5,0.6,1,1.2,1.6,1.8
		c0.9-0.9,1.8-1.6,2.7-2.2c0-0.5-0.1-1-0.1-1.4c-0.2-0.1-0.4-0.2-0.6-0.3l4.8-1.1c0.3,0.2,0.5,0.3,0.5,0.3s-1.2,2.6-2.4,2.1
		c-0.2-0.1-0.5-0.2-0.7-0.3c-0.1,0.1-0.3,0.1-0.4,0.2c1.1,1.7,3,4.4,4.5,6c0.5-0.2,0.9-0.4,0.9-0.4s0.6-1.5,1.1-1.7
		c0.4-0.2,1.4-0.8,1.5-0.9c0.1-0.1,0.2-0.8,0.2-0.8l-1.2-0.9l2.6-3.1c0,0,6.1,2.1,7.9,2.7c0.5-0.9,0.9-2,1.2-3
		c-0.8-0.2-1.3-0.4-1.7-0.5c-0.6,0-1.2,0-1.2,0l0.2-1.4c0,0,0.7,0,1.5-0.2c0.8-0.1,1.1-0.1,1.6,0.1c0,0,0.1,0,0.1,0
		c0.2-0.7,0.4-1.4,0.6-2.1c-1.8,0.4-2.9,0.6-2.9,0.6c0,0-0.1,0-0.1,0l5.8-1.3c0.4,1.7,0.7,3.5,1,5.3c1.3-2.3,2.4-4.9,3-6.2l0.3-0.1
		c-0.5,1.3-1.8,4.2-3.2,6.7c0,0.3,0.1,0.5,0.1,0.8c0,0,0.1,0,0.1,0c0.7,0.1,1,0.6,1,0.6l0,0.4l2.1,0.7c0,0,0-0.2,0.4-0.3
		c0.5-0.7,1-1.4,1.4-1.9c-0.3-0.1-0.5-0.4-0.6-0.7c-0.2-0.5-0.9-1.2-0.9-1.2s-0.1-1.7-0.2-2.2c-0.1-0.5,0.1-0.8,0.2-1.3
		c0.1-0.5-0.2-0.6-0.3-0.9c-0.1-0.3,0.1-0.3,0.1-0.6l1.8-0.4c0,0,2,0.3,5.1,0.7c-0.1,0.4-0.2,0.8-0.3,1.3c-0.1,0.5-0.4,1-0.6,1.3
		c0,0.7,0,1.6,0,2.4c0,0.7-0.1,2.1-0.2,3.3c0.1-0.1,0.2-0.2,0.3-0.3c1.9-2.9,2.8-5.6,3.3-7.8l0.2,0c-0.4,2-1.2,4.5-2.9,7.2
		c0.3-0.2,0.5-0.5,0.7-0.7l0,0c0.2-0.2,0.4-0.4,0.6-0.7c0.2-0.2,0.4-0.5,0.5-0.8c0.5-0.7,0.9-1.6,1.1-2.3c0.1-1,0.1-1.9,0.1-2.6
		l0.2,0c0,0.4,0,0.8,0,1.3c0-0.2,0.1-0.4,0.1-0.6c0-0.2,0-0.5,0-0.7l0.2,0c0,0.2,0,0.5,0,0.7c0,0.6-0.2,1.3-0.4,1.9
		c-0.2,2.1-0.8,4.6-2,6.8c-0.3,1.1-1.6,4.9-5.2,9.2c-4.2,4.1-9.4,6.7-14.8,7.6c0-0.2,0-0.3,0-0.5c-1.8,0.2-6.2,0.7-9.7,0.2
		c-0.3,0-0.5,0-0.8-0.1c0,0,0,0,0,0c-2-0.4-3.6-1-4.9-1.8c-0.5-0.1-1.1-0.2-1.6-0.3c-0.5-0.2-1.1-0.4-1.6-0.7
		c-0.5-0.3-1-0.6-1.5-1.1l0,0l0,0l0,0h0c-0.3-0.3-0.6-0.6-1-1c-0.3-0.2-0.6-0.3-0.9-0.5c-0.8-0.5-1.6-1-2.2-1.6h0l0,0l0,0l0,0
		c-2.7-2.4-3.8-4.9-4-7.2c-0.6-0.6-1.1-1.3-1.5-1.9C25.9,61.1,25.6,60.7,25.4,60.4L25.4,60.4z M36.6,57.9l2-0.4
		c-0.1,0.1-0.1,0.2-0.2,0.2c-0.2,0.2-0.5,0.4-0.8,0.3c-0.3-0.1-0.5,0-0.8,0C36.8,58,36.7,57.9,36.6,57.9L36.6,57.9z M38.8,59.5
		c0.3-0.1,0.7-0.3,0.6-0.5l-0.6-0.9c0,0-0.5,0.5-0.5,0.4c-0.1,0-0.3-0.3-0.4-0.2c-0.1,0.1-0.4,0.2-0.3,0.4
		C37.8,59,38.5,59.7,38.8,59.5L38.8,59.5z M76.2,60.5c0.9-1.7,1.4-3.6,1.6-5.4c-0.2,0.5-0.5,1-0.8,1.5c-0.2,0.3-0.4,0.5-0.5,0.8
		c-0.2,0.2-0.4,0.5-0.6,0.7l0,0c-0.2,0.2-0.3,0.3-0.5,0.5c0.1,0.2,0.2,0.8,0.1,1.7C75.8,60.3,76.1,60.4,76.2,60.5L76.2,60.5z
		 M75.2,60.4c0.1-0.8,0-1.3-0.1-1.6c-0.4,0.3-0.8,0.7-1.2,1c0,0.2,0,0.4,0,0.6C74.6,60.4,74.8,60.6,75.2,60.4
		C75.2,60.4,75.2,60.4,75.2,60.4L75.2,60.4z M72.3,60.9c0.4-0.3,1-0.7,1.5-1.1c0.1-1.2,0.2-2.8,0.2-3.5c0-0.6,0-1.4,0-2
		c-0.5,0.7-1,1.2-1.2,1.5c-0.3,0.5-0.3,0.6-1.2,0.9c-0.9,0.3-0.7,1.1-1.2,1.2c0,0-0.1,0-0.1,0c-0.3,0.5-0.8,1.2-1.3,1.8
		c0.1,0,0.2,0,0.4,0c1.1,0,1.9,0.7,1.9,0.7s0.3,0.8,0.4,0.8C71.7,61.1,72,61,72.3,60.9L72.3,60.9z M73.7,60.4c0-0.1,0-0.3,0-0.4
		c-0.2,0.2-0.5,0.4-0.7,0.5C73.3,60.5,73.4,60.5,73.7,60.4C73.7,60.4,73.7,60.4,73.7,60.4L73.7,60.4z M64.8,58.4c0,0,0.1,0,0.1,0
		c0-0.2,0-0.3-0.1-0.5c-0.1,0.1-0.2,0.3-0.2,0.4C64.6,58.3,64.7,58.4,64.8,58.4L64.8,58.4z M60.3,56.4c1.1,0.4,2.6,0.9,4.1,1.8
		c0.1-0.2,0.3-0.4,0.4-0.6c-0.3-1.9-0.7-3.8-1.1-5.6c-0.8,0.2-1.6,0.4-2.3,0.6c-0.2,0.7-0.4,1.4-0.6,2.2c0.4,0.1,0.7,0.2,0.7,0.2
		c0,0,0.4-0.3,0.9-0.1c0.4,0.2,0.4,0.5,0.4,0.5s-0.7-0.1-1.4,0.1c-0.3,0.1-0.5,0.1-0.8,0.2C60.4,55.9,60.4,56.1,60.3,56.4L60.3,56.4
		z M64.1,58.5c0-0.1,0.1-0.1,0.1-0.2c-1.5-0.8-2.9-1.4-4.1-1.8c-0.4,1.1-0.8,2.1-1.2,3c0.2,0.1,0.2,0.1,0.3,0.1
		c0.1,0,0.5-0.8,0.8-0.5c0.3,0.3,0.4,0.2,0.4,0.1c0-0.1-0.1-0.6,0.2-0.4c0.3,0.2,0.4,0.2,0.4,0.2c0,0,0.1-0.5,0.5-0.3
		C62,59,62,59.1,62,59.1s-0.7,0.3-0.4,0.5c0.2,0.2,0.9-0.4,1.2-0.3c0.3,0.1,0.5,0.1,0.5,0.1l-0.3-0.6l0.7,0.3c0,0,0,0,0,0l-0.1-0.8
		L64.1,58.5C64.1,58.6,64.1,58.6,64.1,58.5L64.1,58.5z M58.8,75.5l0.7-0.9c0,0-1.7,0.3-2.7,0.7c-0.9,0.3-2.1,0.4-2.9,0.4
		c0,0.5,0.1,1.2,0,1.7c0.8-0.1,1.5-0.2,2-0.2c0-0.4,0.1-0.7,0.2-0.8c0.4-0.3,1.6-0.7,1.6-0.7l-0.3-0.4L58.8,75.5L58.8,75.5z
		 M53.8,77.3c0.1-0.5,0-1.2,0-1.7c-0.2,0-0.4,0.1-0.6,0.1C53.2,76.3,53.4,76.9,53.8,77.3C53.7,77.4,53.7,77.3,53.8,77.3L53.8,77.3z
		 M47.2,77.4c2.1,0.2,4.4,0.1,6.3,0c-0.3-0.5-0.4-1.1-0.5-1.5c-0.5,0.1-1.3,0.1-2.4,0l0.1,1.3c0,0.1,0,0.1-0.1,0.1
		c-0.1,0-0.1,0-0.1-0.1l-0.1-1.3c-0.3,0-0.6-0.1-0.9-0.2C48.8,76.3,48.1,77.1,47.2,77.4L47.2,77.4z M46.7,77.2L46.7,77.2
		c1-0.2,1.8-0.9,2.4-1.7c-0.1,0-0.1,0-0.2,0c0,0,0,0,0,0c-1,0.1-2.8,0-4.8-0.3c-0.1,0-0.2,0.1-0.3,0.1c0.2,0.3,0.4,0.6,0.6,0.8
		c0.4,0.5,0.8,0.8,1.3,0.9c0.2,0,0.5,0.1,0.7,0.1C46.5,77.3,46.6,77.3,46.7,77.2L46.7,77.2z M41.2,75.6c1,0.5,2.2,1,3.7,1.3
		c-0.2-0.2-0.4-0.4-0.6-0.6c-0.2-0.3-0.4-0.6-0.7-0.9C42.8,75.6,42,75.7,41.2,75.6L41.2,75.6z M40.1,75c0.2,0.1,0.4,0.2,0.6,0.4
		c0.9,0.1,1.9,0,2.7-0.1c0,0,0,0,0,0c-1.4-0.2-3-0.6-4.5-1.1C39.2,74.4,39.6,74.7,40.1,75L40.1,75z M39,75c0.3,0.1,0.7,0.2,1,0.2
		c0,0-0.1,0-0.1-0.1c-0.6-0.4-1.2-0.8-1.7-1.3c-0.5-0.2-1.1-0.4-1.6-0.6c-0.4-0.2-0.7-0.3-1.1-0.5c0.2,0.2,0.3,0.3,0.5,0.5l0,0l0,0
		l0,0c0.5,0.4,1,0.7,1.5,1C38,74.6,38.5,74.9,39,75L39,75z M35.1,72.4c0.5,0.3,1.1,0.5,1.6,0.7c0.4,0.1,0.7,0.3,1.1,0.4
		c-0.4-0.4-0.8-0.7-1.1-1.1l0,0c-0.2-0.2-0.4-0.5-0.6-0.8c-0.2-0.3-0.4-0.6-0.5-0.9c-0.3-0.7-0.6-1.4-0.7-2.2
		c-0.9-0.4-1.8-0.9-2.6-1.4C33,69.2,33.9,71,35.1,72.4L35.1,72.4z M34.1,71.9c0.1,0.1,0.3,0.1,0.4,0.2c-1.1-1.4-1.9-3.2-2.6-5.2
		c-1.6-1.1-2.8-2.2-3.9-3.3c0.2,2.2,1.4,4.5,3.9,6.7l0,0C32.6,70.9,33.3,71.4,34.1,71.9L34.1,71.9z M28,62.8c0,0.1,0,0.3,0,0.4
		c1,1.1,2.2,2.2,3.8,3.3c-0.2-0.6-0.4-1.2-0.5-1.9C30,64.1,28.9,63.5,28,62.8L28,62.8z M27.2,62.2c0.2,0.2,0.4,0.5,0.6,0.8
		c0-0.1,0-0.2,0-0.3C27.6,62.5,27.3,62.4,27.2,62.2L27.2,62.2z M40.6,64c-0.2-1.8-0.3-3.5-0.4-4.8c-0.8,0.5-1.8,1.2-2.6,2.1
		C38.6,62.2,39.6,63.2,40.6,64L40.6,64z M40.6,57.8c-0.1,0-0.1-0.1-0.2-0.1c0,0.3,0,0.7,0.1,1.1c0.2-0.1,0.4-0.2,0.6-0.3
		C40.9,58.2,40.7,58,40.6,57.8L40.6,57.8z M41.5,58.2c-0.2-0.1-0.3-0.2-0.5-0.2c0.1,0.1,0.2,0.2,0.2,0.4
		C41.3,58.3,41.4,58.2,41.5,58.2L41.5,58.2z M45.8,74.6c-0.4,0.2-0.8,0.4-1.3,0.5c1.4,0.2,2.7,0.3,3.6,0.2
		C47.2,75.1,46.4,74.9,45.8,74.6L45.8,74.6z M42.2,71.8c0.4,1.3,0.9,2.4,1.3,3.2c0.2,0,0.3,0.1,0.5,0.1c0.5-0.2,1-0.3,1.5-0.6
		c-0.8-0.3-1.2-0.6-1.2-0.6l-0.7-1l0.1-1.2L43,70.7c-0.3,0-0.7-0.1-1.2-0.2C41.9,71,42.1,71.4,42.2,71.8L42.2,71.8z M41.6,70.5
		c-1.7-0.3-4.1-0.8-6.5-1.9c0.1,0.7,0.4,1.4,0.7,2c0.2,0.3,0.3,0.6,0.5,0.9c0.2,0.3,0.4,0.5,0.6,0.8l0,0c0.4,0.5,0.9,1,1.5,1.4
		c1.6,0.5,3.3,0.9,4.9,1.2c-0.4-0.8-0.9-1.8-1.3-3.1C41.8,71.5,41.7,71,41.6,70.5L41.6,70.5z M35.1,66.1C35,66.9,35,67.7,35,68.4
		c2.4,1.1,4.8,1.6,6.5,1.9c-0.2-0.9-0.4-2-0.5-3C39,67,37,66.6,35.1,66.1L35.1,66.1z M41,67c-0.1-0.9-0.2-1.8-0.3-2.7
		c-1.1-0.9-2.1-1.8-3.1-2.9c-0.2,0.2-0.4,0.4-0.5,0.6c-0.1,0.2-0.3,0.4-0.4,0.6c0,0,0,0,0,0s0.1,0.9,0,1.1c-0.1,0.1-0.4,0.2-0.6,0.2
		c0,0-0.1,0-0.2,0c-0.1,0.3-0.2,0.5-0.3,0.8l0,0l0,0l0,0l0,0c-0.2,0.4-0.3,0.8-0.4,1.2C37,66.4,39,66.8,41,67L41,67z M44.4,66.5
		c0-0.5,0-1.1,0.2-1.3c0.2-0.1,0.6-0.4,1-0.6c-1.5-1.7-3.4-4.3-4.5-6c-0.2,0.1-0.4,0.2-0.7,0.4c0.1,1.4,0.2,3.2,0.4,5.2
		C42.1,65.1,43.2,65.9,44.4,66.5L44.4,66.5z M41.2,67c1.1,0.1,2.1,0.2,3.2,0.3c0-0.1,0-0.1,0-0.2c0-0.1,0-0.2,0-0.4
		c-1.1-0.6-2.3-1.3-3.5-2.3C41,65.3,41.1,66.2,41.2,67L41.2,67z M42.6,70.1l-0.9-1l0.8-1.2l1.4-0.2c0,0,0.2,0,0.3-0.2
		c-1-0.1-2-0.1-3-0.3c0.2,1.1,0.3,2.1,0.5,3.1c0.4,0.1,0.8,0.1,1.1,0.1L42.6,70.1L42.6,70.1z M34.8,68.3c-0.1-0.7,0-1.4,0.1-2.2
		c-0.6-0.2-1.2-0.4-1.7-0.6c-0.6-0.2-1.1-0.4-1.6-0.7c0.2,0.7,0.4,1.3,0.6,2C33,67.3,33.9,67.8,34.8,68.3L34.8,68.3z M60.3,55.7
		c-0.2,0-0.4,0.1-0.6,0.2c-0.1,0.1-0.3,0.1-0.6,0.1c0.3,0.1,0.6,0.2,1,0.3C60.1,56.1,60.2,55.9,60.3,55.7z"/>
	<path id="XMLID_46_" class="st6" d="M52.3,21.2c-6.2-0.3-12.4,1.5-17.7,5.2l4.3,1.3c0,0,3.5-0.1,4.7,0c1.2,0.1,2.7-0.9,2.6-1.1
		c0-0.3,2.4-0.7,2.6-0.9c0.2-0.1,2.3-0.2,3-0.2c0.8,0,1.8,1,2.2,1.5c0.4,0.4,1.7,0.5,2.2,0.5c0.5,0,0.1,1,0.1,1s0.3,0.5,1.6,0.7
		c1.3,0.1,3.3,0.6,2.8-0.2c-0.5-0.8-0.9-1-1.7-2.1c-0.8-1.1-4.3-2.7-4.9-3.6c-0.6-0.9,1.3-0.6,2.3-0.9c0.9-0.3-2.4-0.4-2.4-0.4
		L52.3,21.2z"/>
	<path id="XMLID_215_" class="st6" d="M33.6,49.8c0,0.2,0.6,1.6,0.4,1.8c-0.1,0.2-0.3,0.8-0.3,1c0,0.3,0.1,0.3,0,0.7
		c-0.1,0.4-0.4,0.8-0.1,1.3c0.3,0.5,1.1,2,1.9,2.4c0.8,0.4,1.1,0.9,1.3,0.9c0.3,0,0.5-0.1,0.8,0c0.3,0.1,0.5-0.1,0.8-0.3
		c0.2-0.2,0.3-0.4,0.5-0.5c-0.2-0.3-0.3-0.6-0.4-0.8c-0.4-0.8-0.6-1.3-1-2.1c-0.4-0.9-1.6-2.7-2.3-4c-0.7-1.3-0.6-2.2-1-2.3
		c-0.4-0.1-0.1,0.4,0.1,1c0.2,0.6,0.6,1.5,1.1,2.5c0.5,1,0.9,2.4,0.9,2.4s-0.5,0-0.9-0.6c-0.4-0.6-0.7-1.4-1.1-2.6
		C34.1,50.1,33.8,49.9,33.6,49.8L33.6,49.8z M39.4,59c0,0.2-0.3,0.4-0.6,0.5c-0.3,0.1-0.9-0.6-1.1-0.8c-0.2-0.2,0.1-0.3,0.3-0.4
		c0.1-0.1,0.3,0.2,0.4,0.2c0.1,0,0.5-0.4,0.5-0.4L39.4,59L39.4,59z M39,57.8l-0.4,0.2l-0.1-0.1l0.5-0.4V57.8z"/>
	<path id="XMLID_42_" class="st6" d="M47.2,29.3l0.4-0.2c0,0,0.3-0.1,0.4-0.5c0.1-0.4,0.2-0.2,0.2-0.2s0.1,0.4,0,0.5
		c-0.1,0.1-0.3,0.2-0.3,0.3c0,0.1,0.6,0.1,0.6,0.1c0.1,0.1,0.3-0.4,0.6-0.3c0.3,0,0.4,0.1,0.8,0.1c0.4,0,0.6,0,0.5,0.1
		c-0.1,0.1-0.6,0.3-0.3,0.5c0.2,0.2,0.5-0.2,0.5-0.3c0.1-0.1,0.2-0.3,0.5-0.3c0.3,0,0.3-0.4,0.8-0.3c0.4,0.1,1,0.4,1.4,0.5
		c0.4,0.1,1.1,0.2,1.2,0.4c0.1,0.2,0.3,1,0.2,1c-0.1,0-0.6,0-0.9-0.3c-0.3-0.3-0.3-0.6-0.4-0.6c-0.1,0-0.7-0.2-1.1-0.3
		c-0.4-0.2-0.9-0.4-0.9-0.3s0.1,0.2-0.2,0.3c-0.3,0.1-0.6,0.1-0.5,0.4c0,0.3,0.1,0.5,0.2,0.7c0.1,0.2-0.4,0.5,0.1,0.8
		c0.4,0.4,0.8,0.9,0.7,1.3c-0.1,0.4-1,0.7-1.3,0.7c-0.3,0,0.1-0.1-1-0.2c-1.2-0.1-1.7-0.4-2.1-0.7c-0.4-0.2-0.6-0.2-0.8-0.1
		c-0.2,0.1-0.1-0.4-0.4-0.7c-0.3-0.3-0.6-0.3-0.4-0.7c0.3-0.4,0.6-0.8,0.9-1C46.9,29.6,47.1,29.5,47.2,29.3z"/>
	<path id="XMLID_41_" class="st7" d="M49.6,58.3l-1,2.5c0,0,1.4,0.8,1.7,0.8c0.3,0,0.4,0,0.4,0.3c0,0.3-0.2,0.7,0.3,0.8
		c0.4,0.1,1.1,0.2,1.3,0.4c0.2,0.2,0.5,0.4,0.8,0.4c0.3,0,0.6-0.1,0.8-0.1c0.2,0,0.3,0,0.3,0.1c0,0.2-0.2,0.3,0.2,0.3
		c0.4,0,0.5,0,0.6-0.3c0.1-0.3-0.4-0.5,0-0.7c0.4-0.2,0.6-0.4,0.6-0.2c0,0.1-0.2,0.2,0.1,0.5c0.3,0.3,0.4,0.4,0.4,0.5
		c0,0.1,0.2,0.1,0.4,0.3c0.2,0.1,0.7-0.4,0.9-0.4c0.3,0,0.8,0,0.5-0.3c-0.3-0.4-0.8-1.1-1.2-1.2c-0.4-0.1-1.3-0.7-1.7-0.6
		c-0.4,0.2-0.6,0.5-0.8,0.7c-0.3,0.2-0.1,0.3-0.6,0.3c-0.5,0-0.8,0.1-1.1-0.4c-0.3-0.4-0.4-0.9-0.4-1.3c0-0.3,0.1-1,0-1.3
		c-0.1-0.2-0.4-0.6-0.9-0.8C50.8,58.7,49.5,58.1,49.6,58.3z"/>
	<polygon id="XMLID_40_" class="st8" points="46.7,45.7 50.9,32.6 55.2,45.7 69.3,45.6 58,53.9 62.3,67.3 50.9,59.1 39.7,67.4 
		44.1,53.9 32.7,45.7 	"/>
	<polygon id="XMLID_39_" class="st9" points="55.2,45.7 50.9,32.6 50.9,51.7 	"/>
	<polygon id="XMLID_38_" class="st10" points="55.2,45.7 50.9,51.7 69.3,45.6 	"/>
	<polygon id="XMLID_37_" class="st9" points="69.3,45.6 50.9,51.7 62.3,67.3 58,53.9 	"/>
	<polygon id="XMLID_36_" class="st11" points="50.9,51.7 50.9,59.1 62.3,67.3 	"/>
	<polygon id="XMLID_35_" class="st12" points="50.9,51.7 50.9,59.1 39.7,67.4 	"/>
	<polygon id="XMLID_34_" class="st13" points="39.7,67.4 50.9,51.7 44.1,53.9 	"/>
	<polygon id="XMLID_33_" class="st14" points="44.1,53.9 50.9,51.7 32.7,45.7 	"/>
	<polygon id="XMLID_32_" class="st15" points="32.7,45.7 50.9,51.7 46.7,45.7 	"/>
	<path id="XMLID_196_" d="M41,25.5L39.7,25l-2.1,1L37,27.3l0.6,1.4l1.2,0.4l1.8-0.5l0.2,0.1l0.2,0.3l-0.1,0.2l-1,0.5l-0.4-0.5
		l-1.3,0.6l0.4,0.9l1.4,0.4l2.1-0.9l0.6-1.3L42,27.4l-1.1-0.3l-1.8,0.5l-0.2-0.1l-0.1-0.3l0.1-0.2l1-0.4l0.4,0.5l1.3-0.6L41,25.5
		L41,25.5z M46.8,24.2l0.2,1l-1.4,0.3L45.4,25l-1,0.2l-0.2,0.2l0.5,2.4l0.3,0.1l1-0.2l0-0.6l1.4-0.3l0.2,1c-0.1,0.2-0.3,0.4-0.4,0.6
		c-0.1,0.2-0.3,0.4-0.4,0.6l-2.1,0.4l-1.4-0.8l-0.7-3.5l1-1.2l2.2-0.4L46.8,24.2L46.8,24.2z M52.7,27.6L52.6,24L51.4,23l-2.3,0.1
		l-1.1,1l0.1,3.7l1.2,1l2.2-0.1c0.2-0.2,0.4-0.3,0.6-0.5C52.3,28,52.5,27.8,52.7,27.6L52.7,27.6z M50.8,24.4l0.2,0.2l0.1,2.5
		l-0.2,0.2l-0.9,0l-0.2-0.2l-0.1-2.5l0.2-0.2L50.8,24.4L50.8,24.4z M56.3,24.9l1.1,0.2l0.1,0.2l-0.1,0.6l-0.2,0.1l-1.1-0.2
		L56.3,24.9L56.3,24.9z M56.1,29.2l0.2-1.2l-0.5-0.3l0.2-0.8l0.4,0.1l0.8,2.4l1.4,0.3l0.2-1.3l-0.4-0.2L58,27.2l0.9-0.5l0.3-1.7
		l-0.8-1.1l-3.9-0.8l-0.2,1.2l0.5,0.3l-0.5,2.8l-0.6,0l-0.2,1.2L56.1,29.2L56.1,29.2z M64.6,28.3l-1-0.5l0.1-0.6l-1.2-0.5l-0.4,0.8
		l1.2,0.5L62.9,29l-1.2-0.5l-0.4,0.9l1.2,0.5l0.4-0.5l1,0.5l-0.8,1.8l-4.3-1.9l0.5-1.1l0.6,0.1l1.2-2.6l-0.5-0.4l0.5-1.1l4.3,1.9
		L64.6,28.3z"/>
	<path id="XMLID_186_" d="M26,57.8l-1,0.3l0.8,2.4l0.6-0.2l0-0.3l1.4-0.5l0.2,0.3l0.6-0.2l-0.8-2.4l-1,0.3l0.2,0.6l0.3,0l0.2,0.7
		l-0.5,0.2l-0.2-0.7l-0.5,0.2l0.2,0.7l-0.4,0.2l-0.2-0.7l0.3-0.2L26,57.8L26,57.8z M24.7,55l0.5-0.1l0.2,0.8l-0.3,0.1l0.1,0.6
		l0.1,0.1l0.2,0l0-0.1l-0.1-1l0.3-0.6l0.8-0.2l0.6,0.5l0.3,1.2l-0.3,0.7L26.6,57l-0.2-0.8l0.3-0.1l-0.1-0.6l-0.1-0.1l-0.2,0
		l-0.1,0.1l0.1,1L26,57.1l-0.8,0.2l-0.6-0.4l-0.3-1.2L24.7,55L24.7,55z M25,51.8l-1.2,0.2l0.4,2.8l1.2-0.2L25.3,54l-0.5,0l0-0.3
		l1.5-0.2l0.1,0.3l0.6-0.1l-0.2-1.5l-0.6,0.1l0,0.4l-1.5,0.2l0-0.3l0.5-0.2L25,51.8L25,51.8z M26.8,50.8l-0.7,0l0,0.8l0.7,0
		L26.8,50.8L26.8,50.8z M25.1,48.6l0.1-0.8l-0.3-0.1l0.1-0.6L25,47l0.2,0l0.1,0.1l0,1l0.3,0.5l1.3,0.2l0.3-2.4l-1-0.1l-0.1,0.8
		l0.3,0.1l-0.1,0.7l-0.3,0L26,47.8l0-1l-0.3-0.5l-0.8-0.1l-0.5,0.5l-0.2,1.3l0.4,0.6L25.1,48.6L25.1,48.6z M27.3,43.9
		c0.1,0.1,0.1,0.2,0.2,0.4c0.1,0.1,0.1,0.2,0.2,0.4l-0.3,1.1l-0.7,0.5l-1.8-0.5L24.6,45l0.3-1.2l0.6-0.5L27.3,43.9L27.3,43.9z
		 M25.5,44.4l-0.1,0.5l0.1,0.1l1.2,0.3l0.1-0.1l0.1-0.5l-0.1-0.1l-1.2-0.3L25.5,44.4L25.5,44.4z M26.1,43.2l0.3-0.7l-0.3-0.2
		l0.2-0.5l0.1-0.1l0.2,0.1l0,0.1l-0.2,1l0.2,0.6l1.2,0.5l0.9-2.3l-0.9-0.4L27.5,42l0.2,0.2l-0.3,0.7l-0.3-0.1l0-0.1l0.2-1L27.2,41
		l-0.7-0.3l-0.6,0.4l-0.5,1.2l0.2,0.7L26.1,43.2L26.1,43.2z M29.7,39.8l-0.7,1.5L28.4,41l0.1-0.4l-1.3-0.6l-0.1,0.3l-0.6-0.1
		l0.2-0.9l0.2-0.4l1.9,1l0.3-0.3L29.7,39.8z"/>
	<polygon id="XMLID_15_" points="75.9,42.9 76.4,42.8 75.7,40.4 74.8,40.7 74.9,41.3 75.3,41.3 75.5,41.8 73.7,41 73.2,41.1 
		73.9,43.5 74.8,43.2 74.7,42.6 74.3,42.7 74.1,42.1 	"/>
	<polygon id="XMLID_14_" points="76.2,44.8 76.7,44.7 76.5,43.3 75.9,43.4 75.9,43.7 74.6,43.9 74.5,43.6 73.9,43.7 74.2,45.2 
		74.8,45.1 74.8,44.8 76.1,44.5 	"/>
	<polygon id="XMLID_13_" points="76.4,46.8 77,46.7 76.8,45.3 76.3,45.4 76.2,45.7 74.9,45.8 74.8,45.5 74.3,45.6 74.5,48 
		75.5,47.9 75.4,47.3 75.1,47.3 75,46.6 76.3,46.5 	"/>
	<polygon id="XMLID_12_" points="76.5,49.7 77.1,49.8 77.2,48.3 76.6,48.3 76.5,48.6 75.2,48.5 75.2,48.2 74.6,48.1 74.4,50.6 
		75.4,50.6 75.4,50 75.1,49.9 75.1,49.3 76.4,49.4 	"/>
	<polygon id="XMLID_11_" points="76.2,52.6 76.7,52.7 77,51.3 76.4,51.2 76.3,51.5 75,51.3 74.9,50.9 74.4,50.9 74.1,52.3 
		74.7,52.4 74.8,52.1 76.1,52.3 	"/>
	<path id="XMLID_178_" d="M73.8,55l1.6,0.5l0.6-0.4l0.4-1.1l-0.2-0.7l-1.6-0.5L74,53.2l-0.3,0.7L73,54.1l-0.3,0.7l0.6,0.2l0.1-0.2
		l0.3-0.1L73.8,55L73.8,55z M75.6,54.6l-0.1,0.1l-1.1-0.4l0-0.1l0.2-0.5l0.1-0.1l1.1,0.4l0,0.1L75.6,54.6z"/>
	<path id="XMLID_175_" d="M72.9,57.6l2,0.2l0.7-1.4L75,56.2l-0.2,0.2l-1-0.8l0.1-0.3l-0.5-0.2l-0.5,1.1l0.5,0.2l0.1-0.1l0.2,0.1
		l-0.2,0.5l-0.2,0l0-0.2l-0.5-0.2l-0.6,1.3l0.5,0.2L72.9,57.6L72.9,57.6z M74.5,57l-0.6-0.1l0.1-0.3L74.5,57z"/>
	<path id="XMLID_6_" d="M45.8,70.7L45,69.5l-2.2-0.6l-1.4,0.7l-1,3.4l0.9,1.4l2.1,0.6c0.2-0.1,0.4-0.2,0.7-0.3
		c0.2-0.1,0.4-0.2,0.7-0.3l0.3-1l-1.4-0.4l-0.3,0.5l-1-0.3l-0.2-0.3l0.7-2.4l0.3-0.1l1,0.3l0,0.6l1.4,0.4L45.8,70.7z"/>
	<path id="XMLID_171_" d="M50.5,74.8l0.3-3.7l-1.1-1.1l-2.3-0.2l-1.2,0.9l-0.3,3.7l1.1,1.1l2.2,0.2c0.2-0.2,0.4-0.3,0.6-0.5
		C50.1,75.1,50.3,75,50.5,74.8L50.5,74.8z M49,71.4l0.2,0.2L49,74.1l-0.2,0.2l-0.9-0.1L47.6,74l0.2-2.5l0.2-0.2L49,71.4z"/>
	<polygon id="XMLID_3_" points="54.3,71.2 54.2,70 51.5,70.1 51.6,71.4 52.2,71.5 52.4,74.4 51.8,74.6 51.9,75.8 54.6,75.7 
		54.5,74.4 53.9,74.3 53.7,71.4 	"/>
	<polygon id="XMLID_2_" points="58,69.2 58.3,70.4 58.9,70.4 59.3,72 57,69.5 54.8,70 55.1,71.2 55.7,71.2 56.5,74 56,74.3 
		56.3,75.5 58.7,74.9 58.4,73.7 57.8,73.7 57.3,72 59.8,74.6 61.3,74.2 60.2,70.1 60.7,69.7 60.4,68.6 	"/>
	<path id="XMLID_1_" class="st16" d="M56.1,63.7c0,0.3,0.1,0.7,0.1,1c0.1,0.5,0,0.7-0.1,0.9c-0.1,0.1-0.1-0.1-0.3,0
		c-0.2,0.1-0.2,0.3-0.4,0.6c-0.2,0.3-0.3,0.4-0.6,0.7c-0.4,0.3-1.1,0.3-1.1,0.3s-5.1,0.3-7,0.4c-1.9,0-2.6,0-2.6,0s1.9,0.2,3.9,0.2
		c2.1,0,6.3-0.3,6.3-0.3s0.3,0.5,0.2,0.9c-0.1,0.4,0,0.6,0,0.9c0,0.2-0.1,0.5-0.1,0.7c0,0.2,0.2-0.3,0.4-0.4c0.2-0.1,0.1-0.1,0-0.4
		c-0.1-0.3-0.1-1,0.1-1.3c0.1-0.3,0.3-0.5,0.5-0.7c0.1-0.2,0.3-0.4,0.6-0.7c0.3-0.3,0.4-0.6,0.6-0.7c0.2-0.1,0.2-0.6,0.2-0.7
		c0-0.1-0.1-0.6-0.2-1.1c0,0,0,0,0,0C56.3,63.8,56.2,63.8,56.1,63.7z"/>
</g>
</svg>
