<?xml version="1.0" encoding="UTF-8"?>
<svg enable-background="new 0 0 100 100" version="1.1" viewBox="0 0 100 100" xml:space="preserve" xmlns="http://www.w3.org/2000/svg">
<style type="text/css">
  .st0,.st1,.st2,.st3,.st4,.st5,.st6,.st7,.st8,.st9,.st10,.st11,.st12,.st13,.st14,.st15,.st16{fill-rule:evenodd;clip-rule:evenodd;}
	.st1{fill:#394141;}.st2{fill:#1F66B1;}.st3{fill:#FFFFFF;}.st4{fill:url(#b);}.st5{fill:url(#a);}.st6{fill:#B4B3B9;}.st7{fill:#CFD1D5;}.st8{fill:#091413;}.st9{fill:#343B3B;}.st10{fill:#7F8284;}.st11{fill:#7C8081;}.st12{fill:#353C3C;}.st13{fill:#0B1515;}.st14{fill:#7C7E7F;}.st15{fill:#52595A;}.st16{fill:#C6C7CE;}
</style>
	<path class="st0" d="m79.2 77.9c-15.6 15.5-40.8 15.5-56.4 0s-15.6-40.8 0-56.3c15.6-15.6 40.8-15.6 56.4 0 15.6 15.5 15.6 40.7 0 56.3z"/>
	<path class="st1" d="m78.3 77c15.1-15 15.1-39.5 0-54.5s-39.5-15-54.6 0-15.1 39.5 0 54.5 39.5 15 54.6 0z"/>
	<path class="st2" d="m75.6 74.3c13.6-13.6 13.6-35.5 0-49.1s-35.6-13.6-49.2 0-13.6 35.5 0 49.1c13.6 13.5 35.6 13.5 49.2 0z"/>
	<path class="st3" d="m71.3 69.9c11.2-11.2 11.2-29.3 0-40.4-11.2-11.2-29.3-11.2-40.5 0s-11.2 29.3 0 40.4c11.1 11.2 29.3 11.2 40.5 0z"/>
	<radialGradient id="b" cx="50.998" cy="38.728" r="47.299" gradientUnits="userSpaceOnUse">
		<stop stop-color="#DBDDDF" offset="0"/>
		<stop stop-color="#D8DADE" offset=".19"/>
		<stop stop-color="#BBBABF" offset=".52"/>
		<stop stop-color="#BBBABF" offset="1"/>
	</radialGradient>
	<path class="st4" d="m39 57.8v-0.3l-0.5 0.4 0.1 0.1 0.4-0.2zm-0.2 1.7c0.3-0.1 0.7-0.3 0.6-0.5l-0.6-0.9s-0.5 0.5-0.5 0.4c-0.1 0-0.3-0.3-0.4-0.2s-0.4 0.2-0.3 0.4c0.2 0.3 0.9 1 1.2 0.8zm39.2-5.3c-0.3 0.8-0.7 1.6-1.1 2.3-0.2 0.3-0.3 0.5-0.5 0.8-0.2 0.2-0.4 0.5-0.6 0.7l-0.7 0.7c2-3.2 2.8-6.2 3-8.3 0 0.8 0 2.2-0.1 3.8zm-1.8 6.3c0.9-1.7 1.4-3.6 1.6-5.4-0.2 0.5-0.5 1-0.8 1.5-0.2 0.3-0.4 0.5-0.5 0.8-0.2 0.2-0.4 0.5-0.6 0.7l-0.5 0.5c0.1 0.2 0.2 0.8 0.1 1.7 0.3 0 0.6 0.1 0.7 0.2zm-1-0.1c-0.4 0.2-0.6 0-1.3 0.1v-0.6c0.4-0.3 0.8-0.7 1.2-1 0.2 0.2 0.2 0.7 0.1 1.5zm-2.9 0.5c0.4-0.3 1-0.7 1.5-1.1 0.1-1.2 0.2-2.8 0.2-3.5v-2c-0.5 0.7-1 1.2-1.2 1.5-0.3 0.5-0.3 0.6-1.2 0.9s-0.7 1.1-1.2 1.2h-0.1c-0.3 0.5-0.8 1.2-1.3 1.8h0.4c1.1 0 1.9 0.7 1.9 0.7s0.3 0.8 0.4 0.8c0-0.1 0.3-0.2 0.6-0.3zm1.4-0.5c-0.3 0-0.5 0.1-0.6 0.1 0.2-0.2 0.4-0.3 0.7-0.5-0.1 0.2-0.1 0.3-0.1 0.4zm-5.3-0.3-2.1-0.7v-0.4s-0.3-0.6-1-0.6h-0.1c0-0.3-0.1-0.5-0.1-0.8 1.8-3.2 3.3-6.9 3.5-7.4 0 0 0.1 0 0.1-0.1-0.1 0.3-0.3 0.3-0.3 0.7s-0.2 0.4-0.1 0.7 0.4 0.4 0.3 0.9-0.3 0.7-0.2 1.3c0.1 0.5 0.2 2.2 0.2 2.2s0.7 0.7 0.9 1.2c0.1 0.3 0.4 0.6 0.6 0.7-0.4 0.6-0.9 1.3-1.4 1.9-0.3 0.2-0.3 0.4-0.3 0.4zm-4.5-8.2c0.4 1.7 0.7 3.5 1 5.3 1.6-2.8 2.9-5.9 3.2-6.9-1.4 0.7-2.9 1.2-4.2 1.6zm0.9 6.5c-0.1 0-0.1-0.1-0.2-0.1 0.1-0.1 0.2-0.3 0.2-0.4 0 0.2 0.1 0.3 0.1 0.5h-0.1zm-4.5-2c0.1-0.2 0.2-0.5 0.2-0.7 0.2 0 0.5-0.1 0.8-0.2 0.7-0.2 1.4-0.1 1.4-0.1s0-0.3-0.4-0.5-0.9 0.1-0.9 0.1-0.3-0.1-0.7-0.2c0.2-0.8 0.4-1.5 0.6-2.2 0.7-0.2 1.5-0.4 2.3-0.6 0.4 1.8 0.8 3.7 1.1 5.6-0.1 0.2-0.3 0.4-0.4 0.6-1.4-0.9-2.9-1.4-4-1.8zm3.8 2.1v0l-0.5-0.2 0.1 0.8-0.7-0.3 0.3 0.6s-0.2 0-0.5-0.1-1 0.4-1.2 0.3c-0.2-0.2 0.4-0.5 0.4-0.5s0-0.1-0.5-0.3c-0.4-0.2-0.5 0.3-0.5 0.3s-0.1-0.1-0.4-0.2c-0.3-0.2-0.2 0.3-0.2 0.4s-0.1 0.2-0.4-0.1-0.7 0.5-0.8 0.5c0 0-0.1 0-0.3-0.1 0.5-0.9 0.9-2 1.2-3 1.1 0.4 2.6 0.9 4.1 1.8 0 0 0 0.1-0.1 0.1zm-5.3 17-1.1-0.2 0.3 0.4s-1.2 0.4-1.6 0.7c-0.2 0.1-0.2 0.5-0.2 0.8-0.5 0.1-1.2 0.2-2 0.2 0.1-0.5 0-1.2 0-1.7 0.7-0.1 2-0.1 2.9-0.4 1-0.4 2.7-0.7 2.7-0.7l-1 0.9zm-5 1.8c-0.1 0-0.1 0.1 0 0-0.4-0.5-0.6-1.1-0.7-1.5 0.3 0 0.5-0.1 0.6-0.1 0.1 0.5 0.2 1.2 0.1 1.6zm-6.6 0.1c2.1 0.2 4.4 0.1 6.3 0-0.3-0.5-0.4-1.1-0.5-1.5-0.5 0.1-1.3 0.1-2.4 0l0.1 1.3c0 0.1 0 0.1-0.1 0.1s-0.1 0-0.1-0.1l-0.1-1.3c-0.3 0-0.6-0.1-0.9-0.2-0.7 0.6-1.4 1.4-2.3 1.7zm-0.5-0.2h-0.4c-0.3 0-0.5-0.1-0.7-0.1-0.4-0.2-0.9-0.5-1.3-0.9-0.2-0.2-0.4-0.5-0.6-0.8 0.1 0 0.2 0 0.3-0.1 2 0.3 3.8 0.4 4.8 0.3h0.2c-0.5 0.7-1.2 1.5-2.3 1.6zm-5.5-1.6c1 0.5 2.2 1 3.7 1.3l-0.6-0.6c-0.2-0.3-0.4-0.6-0.7-0.9-0.8 0.2-1.6 0.3-2.4 0.2zm-1.1-0.6c-0.4-0.3-0.9-0.6-1.2-0.9 1.5 0.5 3.1 0.8 4.5 1.1-0.9 0.2-1.8 0.2-2.7 0.1-0.3-0.1-0.5-0.2-0.6-0.3zm-1.1 0c0.3 0.1 0.7 0.2 1 0.2 0 0-0.1 0-0.1-0.1-0.6-0.4-1.2-0.8-1.7-1.3-0.5-0.2-1.1-0.4-1.6-0.6-0.4-0.2-0.7-0.3-1.1-0.5l0.5 0.5c0.5 0.4 1 0.7 1.5 1 0.5 0.4 1 0.7 1.5 0.8zm-3.9-2.6c-1.1-1.3-2.1-3.2-2.8-5.3 0.8 0.5 1.7 1 2.6 1.4 0.1 0.8 0.4 1.6 0.7 2.2 0.2 0.3 0.3 0.6 0.5 0.9s0.4 0.5 0.6 0.8l1.1 1.1c-0.4-0.1-0.7-0.3-1.1-0.4-0.6-0.2-1.1-0.5-1.6-0.7zm-1-0.5c0.1 0.1 0.3 0.1 0.4 0.2-1.1-1.4-1.9-3.2-2.6-5.2-1.6-1.1-2.8-2.2-3.9-3.3 0.2 2.2 1.4 4.5 3.9 6.7 0.7 0.6 1.4 1.1 2.2 1.6zm-6.1-9.1c0.9 0.6 2 1.2 3.3 1.8 0.2 0.6 0.3 1.3 0.5 1.9-1.5-1.1-2.8-2.2-3.8-3.3v-0.4zm0.1-1.3c0.1-0.5 0.2-1 0.4-1.5s0.4-1 0.6-1.4l1.2-1.8c0 0.9 0 1.8 0.1 2.7s0.2 1.9 0.4 2.8c0.1 0.7 0.3 1.4 0.4 2.1-1.3-0.6-2.3-1.2-3.2-1.8 0-0.4 0-0.8 0.1-1.1zm-0.3 0.9c0-0.3 0-0.6 0.1-0.9 0.1-0.5 0.2-1.1 0.4-1.6s0.4-1 0.6-1.4c0.4-0.7 0.9-1.4 1.4-2.1 0-1.4 0.1-2.7 0.2-3.9-0.8-0.3-1.6-0.6-2.3-0.9-1-0.5-1.8-0.9-2.4-1.5-0.4 0.5-0.8 1.1-1.1 1.6 0 0.4-0.1 0.7-0.1 1.1 0 0.1-0.1 0.1-0.1 0.1-0.1 0-0.1-0.1-0.1-0.1v-0.6c-0.1 0.2-0.2 0.5-0.3 0.7-0.2 0.5-0.3 0.9-0.4 1.3 0 0.3-0.1 0.5-0.1 0.8 0.1 0.3 0.1 0.5 0.2 0.8 0.1 0.4 0.2 0.7 0.3 1 0.4 1.1 1.1 2.8 2.3 4.5 0.5 0.3 0.9 0.7 1.4 1.1zm-0.6-0.2c0.2 0.2 0.4 0.3 0.6 0.5v0.3c-0.2-0.3-0.5-0.6-0.6-0.8zm-1.9-2.3c-0.9-1.3-1.3-2.5-1.5-3.5 0 0.1 0.1 0.3 0.1 0.4 0.3 0.9 0.8 2.1 1.6 3.4 0-0.1-0.1-0.2-0.2-0.3zm-1.8-5.7c-0.4-2.1-0.7-4.8-0.3-7.6 0-0.1 0-0.3 0.1-0.4 0.1 1 0.5 1.9 1.2 2.7 0.1 0.1 0.2 0.2 0.3 0.4l-0.3 2.4-0.6 1.2c-0.2 0.3-0.3 0.8-0.4 1.3v0zm0.7-11c-0.3 0.6-0.6 1.3-0.7 2 0 1.3 0.4 2.4 1.2 3.4l0.2 0.2c0.5-2.8 1.4-5.1 2.8-8.5l0.1-0.1c0.1-0.3 0.3-0.6 0.4-0.9-0.6 0.4-1.2 0.8-1.7 1.3-1.2 0.8-1.8 1.7-2.3 2.6zm2-5.4c0.5-1 1-1.8 1.5-2.6 0 0.8 0.6 1.5 1.4 2.1v0.1c-0.3 0.5-0.6 1-0.8 1.5l-2.1 1.5c-0.8 0.7-1.5 1.5-2 2.3 0.3-1.1 0.9-2.9 2-4.9zm1.7-2.9c-0.1 0.9 0.4 1.6 1.2 2.2 0.5-2.4 1.3-4.3 1.9-5.5-1 0.9-1.8 1.6-2.5 2.5-0.2 0.2-0.4 0.5-0.6 0.8zm2.5-3.7c0 0.1 0.1 0.2 0.5 0.3-1 0.8-1.8 1.6-2.5 2.4-0.1 0.1-0.2 0.2-0.3 0.4 0.5-1.3 1.6-2.5 2.3-3.1zm1.1 0.3c1.1-0.1 1.7-0.7 1.9-0.8s0.9-0.2 0.9-0.2 0 0.1 0 0.3c-1.1 1.2-3.2 3.5-4.9 6.1 0.5-2.4 1.4-4.2 1.9-5.3 0.1-0.1 0.2-0.1 0.2-0.1zm4 25.5c0.8 0.4 1.1 0.9 1.3 0.9 0.3 0 0.5-0.1 0.8 0s0.5-0.1 0.8-0.3l0.5-0.5c0.2-0.1 0.4-0.1 0.4-0.1s0.3 0.2 0.8 0.5c0 0.3 0 0.8 0.1 1.4-0.9 0.6-1.9 1.3-2.7 2.2-0.5-0.6-1.1-1.2-1.6-1.8-0.6-0.7-1.1-1.3-1.6-2s-0.9-1.4-1.4-2.1c-0.2-0.3-0.3-0.5-0.4-0.8 0.5-0.4 0.9-0.7 1.1-0.9-0.1 0.3-0.3 0.7-0.1 1.1 0.4 0.5 1.3 2 2 2.4zm5.1 7c-1-0.8-2-1.7-2.9-2.7 0.8-0.9 1.7-1.6 2.6-2.1 0 1.3 0.2 3 0.3 4.8zm0-6.2c0.1 0.2 0.3 0.4 0.5 0.7l-0.6 0.3c0-0.4 0-0.8-0.1-1.1 0.1 0 0.1 0 0.2 0.1zm0.9 0.4c-0.2-0.1-0.3-0.2-0.5-0.2 0.1 0.1 0.2 0.2 0.2 0.4 0.1-0.1 0.2-0.2 0.3-0.2zm4.3 16.4c-0.4 0.2-0.8 0.4-1.3 0.5 1.4 0.2 2.7 0.3 3.6 0.2-0.9-0.2-1.7-0.4-2.3-0.7zm-3.6-2.8c0.4 1.3 0.9 2.4 1.3 3.2 0.2 0 0.3 0.1 0.5 0.1 0.5-0.2 1-0.3 1.5-0.6-0.8-0.3-1.2-0.6-1.2-0.6l-0.7-1 0.1-1.2-0.7-1c-0.3 0-0.7-0.1-1.2-0.2 0.1 0.5 0.3 0.9 0.4 1.3zm-0.6-1.3c-1.7-0.3-4.1-0.8-6.5-1.9 0.1 0.7 0.4 1.4 0.7 2 0.2 0.3 0.3 0.6 0.5 0.9s0.4 0.5 0.6 0.8c0.4 0.5 0.9 1 1.5 1.4 1.6 0.5 3.3 0.9 4.9 1.2-0.4-0.8-0.9-1.8-1.3-3.1-0.2-0.3-0.3-0.8-0.4-1.3zm-6.5-4.4c-0.1 0.8-0.1 1.6-0.1 2.3 2.4 1.1 4.8 1.6 6.5 1.9-0.2-0.9-0.4-2-0.5-3-2-0.3-4-0.7-5.9-1.2zm5.9 0.9-0.3-2.7c-1.1-0.9-2.1-1.8-3.1-2.9-0.2 0.2-0.4 0.4-0.5 0.6s-0.3 0.4-0.4 0.6 0.1 0.9 0 1.1c-0.1 0.1-0.4 0.2-0.6 0.2h-0.2c-0.1 0.3-0.2 0.5-0.3 0.8-0.2 0.4-0.3 0.8-0.4 1.2 1.8 0.5 3.8 0.9 5.8 1.1zm3.4-0.5c0-0.5 0-1.1 0.2-1.3 0.2-0.1 0.6-0.4 1-0.6-1.5-1.7-3.4-4.3-4.5-6-0.2 0.1-0.4 0.2-0.7 0.4 0.1 1.4 0.2 3.2 0.4 5.2 1.3 0.9 2.4 1.7 3.6 2.3zm-3.2 0.5c-0.1-0.8-0.2-1.7-0.3-2.5 1.2 0.9 2.4 1.7 3.5 2.3v0.4 0.2c-1-0.2-2.1-0.2-3.2-0.4zm1.4 3.1 0.2 0.3c-0.3 0-0.7-0.1-1.1-0.1-0.2-0.9-0.4-2-0.5-3.1l3 0.3c-0.1 0.2-0.3 0.2-0.3 0.2l-1.4 0.2-0.8 1.2 0.9 1zm-13.3-23.3c0.3 1.4 0.8 2.9 1.4 4.3 0 0.4-0.1 0.7-0.1 1.1-0.8-0.3-1.5-0.6-2.2-0.9-0.9-0.5-1.7-0.9-2.4-1.4 0.8-1 1.9-2.1 3.3-3.1zm-0.4-8.3c0-0.1 0-0.3 0.1-0.4-0.1 0.2-0.2 0.3-0.3 0.5 0 0 0.1-0.1 0.2-0.1zm1.3-0.5c-0.4 0.2-0.8 0.4-1.1 0.6 0 0.3-0.1 0.6-0.1 0.9-0.1 0.7-0.1 1.5-0.1 2.2s0.1 1.5 0.1 2.2c0.1 0.8 0.2 1.6 0.4 2.5 0.8-0.6 1.6-1.1 2.6-1.6 0.1 0 0.2-0.1 0.2-0.1-0.2-1.2-0.4-3-0.3-3.4 0.1-0.3 0.5-1.3 0.9-2.3-0.8-0.3-1.7-0.6-2.6-1zm-0.7-0.4c0.1 0.1 0.3 0.2 0.4 0.2-0.3 0.1-0.6 0.3-0.8 0.5 0-0.3 0.1-0.6 0.1-0.8 0.2 0 0.2 0.1 0.3 0.1zm4.3-2.9s-0.4 0.4-0.4 0.9c0 0.2 0.1 0.5 0.2 0.7-0.7 0.3-2 0.8-3.3 1.5l-0.6-0.3c-0.1 0-0.2-0.1-0.2-0.1 1.6-2.5 3.6-4.9 4.8-6.2 0 0.2-0.1 0.4-0.1 0.5-0.1 0.1-0.9 2.1-0.9 2.6-0.1 0.3 0.5 0.4 0.5 0.4zm-0.8 3.9c-0.8-0.2-1.6-0.4-2.5-0.8 1.3-0.7 2.4-1.1 3.1-1.4 0.1 0.2 0.1 0.3 0.1 0.3s-0.4 0.9-0.7 1.9zm-1.3 14.2c0.2 0.5 0.5 0.9 0.7 1.4 0.5-0.4 0.9-0.7 1.2-0.9-0.6-0.1-1.2-0.3-1.9-0.5zm-1-0.3c0.2 0.1 0.5 0.1 0.7 0.2 0.3 0.5 0.5 1.1 0.8 1.6l-1.7 1.7c0.1-1.2 0.1-2.4 0.2-3.5zm0.1-1c0.1 0.3 0.3 0.6 0.4 1-0.2-0.1-0.3-0.1-0.5-0.2 0.1-0.3 0.1-0.5 0.1-0.8zm-0.1-0.9c-0.5-1.3-0.9-2.6-1.3-4 0.7-0.5 1.5-1 2.4-1.5-0.2 0.7-0.7 2.7-1.1 5.5zm3.1 2.5c-0.7-0.1-1.4-0.3-2.2-0.5-0.2-0.5-0.5-1-0.7-1.5 0.4-3.4 1.1-5.8 1.2-6.1l0.1-0.1c0.1 0.5 0.1 0.9 0.1 0.9s0.1 0.1 0.1 0.6c-0.1 0.5-0.6 0.6-0.4 0.9s0.2 0.4 0.1 0.9-0.4 1.3 0 1.3c0.3-0.1 0.6-0.6 0.9-0.8 0.3-0.3 0.8 0.9 0.8 0.9s-0.2 0.2-0.2 0.4 0.6 1.6 0.4 1.8c-0.1 0.2-0.3 0.8-0.3 1 0 0 0.1 0.1 0.1 0.3zm-8.2-3.2c-0.3 0.4-0.6 0.8-0.9 1.2 0.1-0.6 0.1-1.2 0.2-1.8 0.3 0.3 0.5 0.4 0.7 0.6zm-0.6-0.8c0.5-2.8 1.4-5.1 2.8-8.6l0.1-0.2c0.2-0.4 0.4-0.9 0.6-1.3 0.1-0.1 0.3-0.2 0.4-0.2 0 0.2-0.1 0.5-0.1 0.7-0.1 0.7-0.1 1.5-0.1 2.2 0 0.8 0.1 1.5 0.1 2.3 0.1 0.9 0.2 1.7 0.4 2.6-1.5 1.1-2.6 2.2-3.5 3.2-0.2-0.3-0.5-0.5-0.7-0.7zm8.3 16.1c-0.6-0.2-1.2-0.5-1.8-0.7-0.2-0.7-0.3-1.5-0.5-2.3-0.2-0.9-0.3-1.9-0.4-2.8s-0.1-1.9-0.1-2.8v-0.1-0.1c0.6-0.8 1.3-1.4 1.8-1.9 0.1 0.2 0.3 0.5 0.4 0.7 0.4 0.7 0.9 1.4 1.4 2.1s1 1.4 1.6 2c0.5 0.6 1.1 1.2 1.6 1.8l-0.6 0.6c-0.2 0.2-0.4 0.5-0.6 0.8-0.3 0-0.7 0.1-1 0-0.4-0.1-0.8-0.4-0.8-0.2s0 0.3-0.2 0.2c-0.1-0.1 0-0.4-0.3-0.3-0.3 0-0.4-0.1-0.5-0.2s-0.3-0.5-0.3-0.5l-0.4-0.6s-0.4 0.2-0.4 0.4 0.2 0.4 0 0.6 0 0.4 0.2 0.6c0.3 0.2 0.2 0.3 0.1 0.5s0.3 0.5 0.7 0.4c0.4 0 0.7 0 1 0.1 0.4 0 0.5 0.1 0.7 0.1h0.4c-0.1 0.2-0.2 0.5-0.3 0.7-0.2 0.4-0.3 0.9-0.4 1.3-0.2 0-0.8-0.1-1.3-0.4zm1.5 3.1c-0.1-0.7 0-1.4 0.1-2.2-0.6-0.2-1.2-0.4-1.7-0.6-0.6-0.2-1.1-0.4-1.6-0.7 0.2 0.7 0.4 1.3 0.6 2 0.8 0.5 1.7 1 2.6 1.5zm25.5-12.6c-0.1 0.2-0.1 0.4-0.2 0.6-0.4-0.1-0.7-0.2-1-0.3 0.3 0 0.5-0.1 0.6-0.1 0.1-0.1 0.3-0.2 0.6-0.2zm-17.8 2.9c-0.2-0.1-0.5-0.2-0.7-0.3-0.1 0.1-0.3 0.1-0.4 0.2 1.1 1.7 3 4.4 4.5 6 0.5-0.2 0.9-0.4 0.9-0.4s0.6-1.5 1.1-1.7c0.4-0.2 1.4-0.8 1.5-0.9s0.2-0.8 0.2-0.8l-1.2-0.9 2.6-3.1s6.1 2.1 7.9 2.7c0.5-0.9 0.9-2 1.2-3-0.8-0.2-1.3-0.4-1.7-0.5h-1.2l0.2-1.4s0.7 0 1.5-0.2c0.8-0.1 1.1-0.1 1.6 0.1h0.1l0.6-2.1c-1.8 0.4-2.9 0.6-2.9 0.6-0.1 0-0.1 0-0.1-0.1s0-0.1 0.1-0.1c0 0 1.2-0.2 3-0.6 0.7-2.9 1-5.1 1-5.1 0-0.2 0.1-0.4 0.1-0.5-0.3-0.9-0.5-1.8-0.8-2.6-0.3-0.9-0.5-1.7-0.8-2.5-0.2-0.5-0.4-1-0.5-1.4-1.5-0.1-2.7-0.2-3.6-0.2 0.2 0.2 0.4 0.4 0.4 0.5 0 0.2 0 0.5-0.6 0.6-0.5 0.1-0.6 0.4-0.8 0.5s-0.6 0.6-0.6 1-0.7 1.7-0.7 1.7l-1.8 1.9s-7.3 6.2-7.4 6c-0.1-0.1-1.7 0.5-2 0.6s-0.2 0.8-0.2 0.8 0 0.3 0 0.7c0.7 0.1 1.8 0.1 2.8 0.1 0.1 0 0.1 0 0.1 0.1s0 0.1-0.1 0.1c-1 0.1-2.1 0-2.8 0 0 0.2 0.1 0.3 0.1 0.5 0.3 0.8 1.6 1.5 1.6 1.5 0.2 0.1-1 2.7-2.2 2.2zm7.5-25c0-0.2 0.1-0.4 0.1-0.5s0.3-0.3 0.3-0.2 0.3 1.2 0.3 1.2l-0.1 0.7c0.1-0.3-0.6-1-0.6-1.2zm7.5 5.1c0.2-0.1 0.3-0.2 0.3-0.3 0 0.1 0.1 0.7 0.2 0.8 0.2 0.1 0.6-0.5 0.8-0.6 0.1-0.1 0.2-0.3 0.5-0.5 0.2 0.5 0.5 1 0.7 1.6 0 0.1 0 0.1 0.1 0.2-1.5-0.2-2.8-0.2-3.7-0.2 0.2-0.2 0.8-0.8 1.1-1zm0.6-2.6 0.4 0.4c-0.1 0-0.2 0-0.2-0.1-0.2 0-0.3-0.2-0.2-0.3zm1-1.5c-0.2 0.3-0.6 0.9-0.9 1.3 0.1 0.2 0.3 0.4 0.4 0.6 0.2-0.1 0.4-0.1 0.4-0.1s0.4 0.3 0.5 0.3 0.2-0.4 0.3-0.4c0.1-0.1 0.7 0.2 0.6 0.5-0.1 0.1-0.4 0.6-0.8 1 0.9-0.3 1.9-0.6 3-1 0-0.3-0.1-0.6-0.1-0.9-0.2 0.2-0.4 0.5-0.6 0.3-0.2-0.1-0.4 0-0.5 0.1-0.2 0.1-0.3 0.1-0.4-0.1s-0.3-0.1-0.7-0.1c-0.4 0.1-0.7-0.2-0.7-0.3 0-0.2-0.1-1.8-0.1-1.8s-0.1 0.2-0.4 0.6zm2.7-2.6s-0.8 0.2-0.5 0.9c0.2 0.3 0.6 0.7 1 1.1 0 0.1 0.1 0.4 0.1 0.8-0.2-0.1-1-0.9-1.1-0.9s-0.2 0.2-0.4 0.2c-0.1 0-0.7-0.6-0.7-0.8s-0.3-0.6-0.3-0.6-0.4-0.7-0.6-0.7-0.5-0.2-0.5-0.2l3 0.2zm2 3.1c0.3 0.2 0.8 0.5 1.2 0.8-0.1 0-0.1 0.1-0.2 0.1-0.6 0.3-1.2 0.5-1.7 0.7-0.1-1.1-0.2-2-0.3-2.4 0.2 0.3 0.7 0.6 1 0.8zm-0.2-3.5c0.1-0.1 0.3-0.7 0.3-0.7l0.2 0.3h0.2c0.1 0 0 0.2 0 0.2-0.1 0-0.3 0.2-0.4 0.3s-0.2 0.4-0.4 0.4c-0.1 0-0.2-0.3-0.2-0.3s0.2-0.2 0.3-0.2zm2.4 4.9c-0.2-0.1-0.5-0.3-0.8-0.5-0.1 0.1-0.2 0.1-0.3 0.2-0.6 0.3-1.2 0.5-1.8 0.7 0.1 1 0.2 2.1 0.2 3.3 1.5 0.2 3 0.6 4.4 1-0.2-0.3-0.5-0.5-0.7-0.8-1.1-1-1.9-3.5-1.9-3.5l0.1-0.5s0-0.1 0.4 0.1c0.5 0.2 1.5 0.2 1.5 0.2s-0.5 0-1.1-0.2zm-3.5 10.7c0 0.1-0.3 2.3-1 5 0.7-0.2 1.4-0.4 2.2-0.6-0.4-1.6-0.7-3.1-1.1-4.6l-0.1 0.2zm-2.1-7.3c0-0.1-0.1-0.2-0.1-0.3-0.3-0.6-0.5-1.1-0.7-1.6 1-0.3 2-0.6 3.1-1 0.1 0.9 0.1 2 0.2 3.2-0.9-0.1-1.7-0.2-2.5-0.3zm2.5 0.5c0 1.8-0.1 3.8-0.4 5.7-0.2-0.8-0.4-1.5-0.6-2.2-0.3-0.9-0.5-1.7-0.8-2.5-0.2-0.5-0.3-0.9-0.5-1.3 0.7 0.1 1.5 0.2 2.3 0.3zm5.7 3.3c0-0.6-0.4-1.4-0.9-2.1-1.4-0.5-3-0.9-4.6-1.1 0 2-0.1 4.1-0.5 6.2 0.4 1.6 0.8 3.2 1.2 5 0.6-0.2 1.3-0.4 2-0.6-0.3-0.2-0.9-1-0.8-1.5 0.1-0.6-0.3-1.9-0.1-3 0.2-1 0.7-1.2 0.7-1.2l0.4 0.5s0.8 0.7 0.9 0.9c0.1 0.3 0.1 1.2 0 1.4-0.1 0.3-0.1 0.4-0.1 0.8 0 0.5 0 0.8-0.2 1.2-0.1 0.2-0.3 0.5-0.4 0.7 0.7-0.3 1.4-0.5 2.1-0.8 0.1 0 0.2-0.1 0.3-0.1 0-0.4-0.2-0.8-0.3-1 0-0.3-0.3-0.4-0.4-0.6-0.2-0.2-0.1-1.7 0-2.1 0.2-0.4 0.4-0.7 0.5-0.9s0-0.2 0-0.4c0.1-0.3 0.3-0.3 0.2-1.3zm-0.8-7.6c0.1-0.1 0.2-0.3 0.2-0.5s-0.1-0.2 0.1-0.6c0.1-0.2 0.1-0.4 0.2-0.7 0.1-0.1 0.3-0.2 0.4-0.3v0.1c-0.1 0.4 0.2 0.6 0 1.2s-0.5 0.9-0.6 1c-0.3 0.2-0.4 0-0.3-0.2zm0.8-2.3c-0.1 0.1-0.2 0.2-0.3 0.2v-0.2c0.1-0.2 0.1-0.5 0.1-0.5l0.2-0.5v1zm-0.2-4.3c0.2 0.1 0.4 0.6 0.9 0.9s0.4 0.5 0.4 0.5c0.1 0 0.4-0.1 0.4-0.1s0.2 0.3 0.2 0.5v0.2c-0.2 0-0.6-0.1-0.8-0.3s-0.7-0.2-1-0.2-0.2-0.3-0.2-0.6-0.4-0.8-0.4-0.8l0.5-0.1zm5.9 24.3v2.4c0 0.7-0.1 2.1-0.2 3.3l0.3-0.3c2.7-4 3.4-7.7 3.6-9.9-0.2-0.6-0.5-1.2-1-1.9-0.2 0.1-0.4 0.3-0.8 0.7-0.8 1.1-0.9 2.6-1.3 4.2-0.2 0.6-0.4 1.1-0.6 1.5zm3-6.3s0.3 0.6 0.6 1v0.3c-0.2-0.4-0.4-0.9-0.7-1.4l0.1 0.1zm1 3.4c0.1 0.4 0.1 0.9 0 1.4 0 0.2 0 0.4-0.1 0.6 0.1-0.8 0.1-1.4 0.1-2zm0.8-6.7c0.1 0.8 0.1 1.4 0.1 1.8v0.2c-0.1 1.9-0.2 2.3-0.8 2.4h-0.2v0.7c0 0.1 0.1 0.2 0.1 0.3 0.3 0.9 0.4 1.7 0.3 2.6 0 0.6-0.2 1.3-0.4 1.9-0.2 2.1-0.8 4.6-2 6.8-0.3 1.1-1.6 4.9-5.2 9.2-4.2 4.1-9.4 6.7-14.8 7.6v-0.5c-1.8 0.2-6.2 0.7-9.7 0.2-0.3 0-0.5 0-0.8-0.1-2-0.4-3.6-1-4.9-1.8-0.5-0.1-1.1-0.2-1.6-0.3-0.5-0.2-1.1-0.4-1.6-0.7s-1-0.6-1.5-1.1l-1-1c-0.3-0.2-0.6-0.3-0.9-0.5-0.8-0.5-1.6-1-2.2-1.6-2.7-2.4-3.8-4.9-4-7.2-0.6-0.6-1.1-1.3-1.5-1.9-0.5-0.5-0.8-0.9-1.2-1.4-1.3-1.8-1.6-3.6-1.7-4.8v-0.3c0-0.1-0.1-0.2-0.1-0.4-0.5-2.2-0.8-5.1-0.4-8.1 0.1-0.9 0.4-1.8 0.7-2.6 0-0.1 0.6-2.9 2.3-6.2 0.6-1.2 1.2-2.1 1.7-2.9 0.4-2.3 3.1-4.3 3.1-4.3h0.2l1.4-1.4c0.4-0.4 0.7-1.5 0.8-1.7 11.2-9 27.7-8.3 38.1 2.1 4 4.5 6.7 9.6 7.7 15z"/>
	<radialGradient id="a" cx="83.383" cy="78.133" r="64.273" gradientUnits="userSpaceOnUse">
		<stop stop-color="#DBDDDF" offset="0"/>
		<stop stop-color="#D8DADE" offset=".19"/>
		<stop stop-color="#BBBABF" offset=".49"/>
		<stop stop-color="#BBBABF" offset="1"/>
	</radialGradient>
	<path class="st5" d="m39 57.8v-0.3l-0.5 0.4 0.1 0.1 0.4-0.2zm-13.6 2.6 0.5-0.1c0.2 0.3 0.4 0.6 0.6 1 0.4 0.4 0.8 0.7 1.3 1.1 0-0.3 0-0.6 0.1-0.9 0.1-0.5 0.2-1.1 0.4-1.6 0-0.1 0-0.1 0.1-0.2l0.3-0.1c0 0.1-0.1 0.2-0.1 0.3-0.2 0.5-0.3 1-0.4 1.5-0.2 0.4-0.2 0.8-0.2 1.1 0.9 0.6 1.9 1.2 3.2 1.8-0.2-0.7-0.3-1.4-0.4-2.1-0.2-0.9-0.3-1.9-0.4-2.8v-0.2l0.2-0.1v0.3c0.1 0.9 0.2 1.9 0.4 2.8 0.1 0.8 0.3 1.5 0.5 2.3 0.6 0.3 1.2 0.5 1.8 0.7 0.5 0.2 1.1 0.4 1.7 0.6 0.1-0.4 0.2-0.8 0.4-1.3 0.1-0.2 0.2-0.5 0.3-0.7h-0.4c-0.2 0-0.3-0.1-0.7-0.1s-0.6-0.1-1-0.1-0.8-0.2-0.7-0.4 0.1-0.3-0.1-0.5c-0.3-0.2-0.4-0.4-0.2-0.6s0-0.4 0-0.6 0.4-0.4 0.4-0.4l0.4 0.6s0.3 0.5 0.3 0.5c0.1 0.1 0.2 0.2 0.5 0.2s0.1 0.2 0.3 0.3c0.1 0.1 0.2-0.1 0.2-0.2 0-0.2 0.4 0.1 0.8 0.2 0.3 0.1 0.7 0.1 1 0 0.2-0.3 0.4-0.5 0.6-0.8l0.6-0.6c-0.6-0.6-1.1-1.2-1.6-1.8-0.3-0.4-0.6-0.8-0.9-1.2l0.3-0.1c0.3 0.4 0.6 0.7 0.9 1.1 0.5 0.6 1 1.2 1.6 1.8 0.9-0.9 1.8-1.6 2.7-2.2 0-0.5-0.1-1-0.1-1.4l-0.6-0.3 4.8-1.1c0.3 0.2 0.5 0.3 0.5 0.3s-1.2 2.6-2.4 2.1c-0.2-0.1-0.5-0.2-0.7-0.3-0.1 0.1-0.3 0.1-0.4 0.2 1.1 1.7 3 4.4 4.5 6 0.5-0.2 0.9-0.4 0.9-0.4s0.6-1.5 1.1-1.7c0.4-0.2 1.4-0.8 1.5-0.9s0.2-0.8 0.2-0.8l-1.2-0.9 2.6-3.1s6.1 2.1 7.9 2.7c0.5-0.9 0.9-2 1.2-3-0.8-0.2-1.3-0.4-1.7-0.5h-1.2l0.2-1.4s0.7 0 1.5-0.2c0.8-0.1 1.1-0.1 1.6 0.1h0.1l0.6-2.1c-1.8 0.4-2.9 0.6-2.9 0.6h-0.1l5.8-1.3c0.4 1.7 0.7 3.5 1 5.3 1.3-2.3 2.4-4.9 3-6.2l0.3-0.1c-0.5 1.3-1.8 4.2-3.2 6.7 0 0.3 0.1 0.5 0.1 0.8h0.1c0.7 0.1 1 0.6 1 0.6v0.4l2.1 0.7s0-0.2 0.4-0.3c0.5-0.7 1-1.4 1.4-1.9-0.3-0.1-0.5-0.4-0.6-0.7-0.2-0.5-0.9-1.2-0.9-1.2s-0.1-1.7-0.2-2.2 0.1-0.8 0.2-1.3-0.2-0.6-0.3-0.9 0.1-0.3 0.1-0.6l1.8-0.4s2 0.3 5.1 0.7c-0.1 0.4-0.2 0.8-0.3 1.3s-0.4 1-0.6 1.3v2.4c0 0.7-0.1 2.1-0.2 3.3l0.3-0.3c1.9-2.9 2.8-5.6 3.3-7.8h0.2c-0.4 2-1.2 4.5-2.9 7.2 0.3-0.2 0.5-0.5 0.7-0.7s0.4-0.4 0.6-0.7c0.2-0.2 0.4-0.5 0.5-0.8 0.5-0.7 0.9-1.6 1.1-2.3 0.1-1 0.1-1.9 0.1-2.6h0.2v1.3c0-0.2 0.1-0.4 0.1-0.6v-0.7h0.2v0.7c0 0.6-0.2 1.3-0.4 1.9-0.2 2.1-0.8 4.6-2 6.8-0.3 1.1-1.6 4.9-5.2 9.2-4.2 4.1-9.4 6.7-14.8 7.6v-0.5c-1.8 0.2-6.2 0.7-9.7 0.2-0.3 0-0.5 0-0.8-0.1-2-0.4-3.6-1-4.9-1.8-0.5-0.1-1.1-0.2-1.6-0.3-0.5-0.2-1.1-0.4-1.6-0.7s-1-0.6-1.5-1.1l-1-1c-0.3-0.2-0.6-0.3-0.9-0.5-0.8-0.5-1.6-1-2.2-1.6-2.7-2.4-3.8-4.9-4-7.2-0.6-0.6-1.1-1.3-1.5-1.9-1.1 0.2-1.4-0.2-1.6-0.5zm11.2-2.5 2-0.4c-0.1 0.1-0.1 0.2-0.2 0.2-0.2 0.2-0.5 0.4-0.8 0.3s-0.5 0-0.8 0c0 0-0.1-0.1-0.2-0.1zm2.2 1.6c0.3-0.1 0.7-0.3 0.6-0.5l-0.6-0.9s-0.5 0.5-0.5 0.4c-0.1 0-0.3-0.3-0.4-0.2s-0.4 0.2-0.3 0.4c0.2 0.3 0.9 1 1.2 0.8zm37.4 1c0.9-1.7 1.4-3.6 1.6-5.4-0.2 0.5-0.5 1-0.8 1.5-0.2 0.3-0.4 0.5-0.5 0.8-0.2 0.2-0.4 0.5-0.6 0.7l-0.5 0.5c0.1 0.2 0.2 0.8 0.1 1.7 0.3 0 0.6 0.1 0.7 0.2zm-1-0.1c0.1-0.8 0-1.3-0.1-1.6-0.4 0.3-0.8 0.7-1.2 1v0.6c0.7 0 0.9 0.2 1.3 0zm-2.9 0.5c0.4-0.3 1-0.7 1.5-1.1 0.1-1.2 0.2-2.8 0.2-3.5v-2c-0.5 0.7-1 1.2-1.2 1.5-0.3 0.5-0.3 0.6-1.2 0.9s-0.7 1.1-1.2 1.2h-0.1c-0.3 0.5-0.8 1.2-1.3 1.8h0.4c1.1 0 1.9 0.7 1.9 0.7s0.3 0.8 0.4 0.8c0-0.1 0.3-0.2 0.6-0.3zm1.4-0.5v-0.4c-0.2 0.2-0.5 0.4-0.7 0.5 0.3 0 0.4 0 0.7-0.1zm-8.9-2h0.1c0-0.2 0-0.3-0.1-0.5-0.1 0.1-0.2 0.3-0.2 0.4 0 0 0.1 0.1 0.2 0.1zm-4.5-2c1.1 0.4 2.6 0.9 4.1 1.8 0.1-0.2 0.3-0.4 0.4-0.6-0.3-1.9-0.7-3.8-1.1-5.6-0.8 0.2-1.6 0.4-2.3 0.6-0.2 0.7-0.4 1.4-0.6 2.2 0.4 0.1 0.7 0.2 0.7 0.2s0.4-0.3 0.9-0.1c0.4 0.2 0.4 0.5 0.4 0.5s-0.7-0.1-1.4 0.1c-0.3 0.1-0.5 0.1-0.8 0.2-0.2 0.2-0.2 0.4-0.3 0.7zm3.8 2.1c0-0.1 0.1-0.1 0.1-0.2-1.5-0.8-2.9-1.4-4.1-1.8-0.4 1.1-0.8 2.1-1.2 3 0.2 0.1 0.2 0.1 0.3 0.1s0.5-0.8 0.8-0.5 0.4 0.2 0.4 0.1-0.1-0.6 0.2-0.4 0.4 0.2 0.4 0.2 0.1-0.5 0.5-0.3c0.5 0.3 0.5 0.4 0.5 0.4s-0.7 0.3-0.4 0.5c0.2 0.2 0.9-0.4 1.2-0.3s0.5 0.1 0.5 0.1l-0.3-0.6 0.7 0.3-0.1-0.8 0.5 0.2v0zm-5.3 17 0.7-0.9s-1.7 0.3-2.7 0.7c-0.9 0.3-2.1 0.4-2.9 0.4 0 0.5 0.1 1.2 0 1.7 0.8-0.1 1.5-0.2 2-0.2 0-0.4 0.1-0.7 0.2-0.8 0.4-0.3 1.6-0.7 1.6-0.7l-0.3-0.4 1.4 0.2zm-5 1.8c0.1-0.5 0-1.2 0-1.7-0.2 0-0.4 0.1-0.6 0.1 0 0.6 0.2 1.2 0.6 1.6-0.1 0.1-0.1 0 0 0zm-6.6 0.1c2.1 0.2 4.4 0.1 6.3 0-0.3-0.5-0.4-1.1-0.5-1.5-0.5 0.1-1.3 0.1-2.4 0l0.1 1.3c0 0.1 0 0.1-0.1 0.1s-0.1 0-0.1-0.1l-0.1-1.3c-0.3 0-0.6-0.1-0.9-0.2-0.7 0.6-1.4 1.4-2.3 1.7zm-0.5-0.2c1-0.2 1.8-0.9 2.4-1.7h-0.2c-1 0.1-2.8 0-4.8-0.3-0.1 0-0.2 0.1-0.3 0.1 0.2 0.3 0.4 0.6 0.6 0.8 0.4 0.5 0.8 0.8 1.3 0.9 0.2 0 0.5 0.1 0.7 0.1 0.1 0.2 0.2 0.2 0.3 0.1zm-5.5-1.6c1 0.5 2.2 1 3.7 1.3l-0.6-0.6c-0.2-0.3-0.4-0.6-0.7-0.9-0.8 0.2-1.6 0.3-2.4 0.2zm-1.1-0.6c0.2 0.1 0.4 0.2 0.6 0.4 0.9 0.1 1.9 0 2.7-0.1-1.4-0.2-3-0.6-4.5-1.1 0.3 0.2 0.7 0.5 1.2 0.8zm-1.1 0c0.3 0.1 0.7 0.2 1 0.2 0 0-0.1 0-0.1-0.1-0.6-0.4-1.2-0.8-1.7-1.3-0.5-0.2-1.1-0.4-1.6-0.6-0.4-0.2-0.7-0.3-1.1-0.5l0.5 0.5c0.5 0.4 1 0.7 1.5 1 0.5 0.4 1 0.7 1.5 0.8zm-3.9-2.6c0.5 0.3 1.1 0.5 1.6 0.7 0.4 0.1 0.7 0.3 1.1 0.4-0.4-0.4-0.8-0.7-1.1-1.1-0.2-0.2-0.4-0.5-0.6-0.8s-0.4-0.6-0.5-0.9c-0.3-0.7-0.6-1.4-0.7-2.2-0.9-0.4-1.8-0.9-2.6-1.4 0.7 2.1 1.6 3.9 2.8 5.3zm-1-0.5c0.1 0.1 0.3 0.1 0.4 0.2-1.1-1.4-1.9-3.2-2.6-5.2-1.6-1.1-2.8-2.2-3.9-3.3 0.2 2.2 1.4 4.5 3.9 6.7 0.7 0.6 1.4 1.1 2.2 1.6zm-6.1-9.1v0.4c1 1.1 2.2 2.2 3.8 3.3-0.2-0.6-0.4-1.2-0.5-1.9-1.3-0.5-2.4-1.1-3.3-1.8zm-0.8-0.6c0.2 0.2 0.4 0.5 0.6 0.8v-0.3c-0.2-0.2-0.5-0.3-0.6-0.5zm13.4 1.8c-0.2-1.8-0.3-3.5-0.4-4.8-0.8 0.5-1.8 1.2-2.6 2.1 1 0.9 2 1.9 3 2.7zm0-6.2c-0.1 0-0.1-0.1-0.2-0.1 0 0.3 0 0.7 0.1 1.1l0.6-0.3c-0.2-0.3-0.4-0.5-0.5-0.7zm0.9 0.4c-0.2-0.1-0.3-0.2-0.5-0.2 0.1 0.1 0.2 0.2 0.2 0.4 0.1-0.1 0.2-0.2 0.3-0.2zm4.3 16.4c-0.4 0.2-0.8 0.4-1.3 0.5 1.4 0.2 2.7 0.3 3.6 0.2-0.9-0.2-1.7-0.4-2.3-0.7zm-3.6-2.8c0.4 1.3 0.9 2.4 1.3 3.2 0.2 0 0.3 0.1 0.5 0.1 0.5-0.2 1-0.3 1.5-0.6-0.8-0.3-1.2-0.6-1.2-0.6l-0.7-1 0.1-1.2-0.7-1c-0.3 0-0.7-0.1-1.2-0.2 0.1 0.5 0.3 0.9 0.4 1.3zm-0.6-1.3c-1.7-0.3-4.1-0.8-6.5-1.9 0.1 0.7 0.4 1.4 0.7 2 0.2 0.3 0.3 0.6 0.5 0.9s0.4 0.5 0.6 0.8c0.4 0.5 0.9 1 1.5 1.4 1.6 0.5 3.3 0.9 4.9 1.2-0.4-0.8-0.9-1.8-1.3-3.1-0.2-0.3-0.3-0.8-0.4-1.3zm-6.5-4.4c-0.1 0.8-0.1 1.6-0.1 2.3 2.4 1.1 4.8 1.6 6.5 1.9-0.2-0.9-0.4-2-0.5-3-2-0.3-4-0.7-5.9-1.2zm5.9 0.9-0.3-2.7c-1.1-0.9-2.1-1.8-3.1-2.9-0.2 0.2-0.4 0.4-0.5 0.6s-0.3 0.4-0.4 0.6 0.1 0.9 0 1.1c-0.1 0.1-0.4 0.2-0.6 0.2h-0.2c-0.1 0.3-0.2 0.5-0.3 0.8-0.2 0.4-0.3 0.8-0.4 1.2 1.8 0.5 3.8 0.9 5.8 1.1zm3.4-0.5c0-0.5 0-1.1 0.2-1.3 0.2-0.1 0.6-0.4 1-0.6-1.5-1.7-3.4-4.3-4.5-6-0.2 0.1-0.4 0.2-0.7 0.4 0.1 1.4 0.2 3.2 0.4 5.2 1.3 0.9 2.4 1.7 3.6 2.3zm-3.2 0.5c1.1 0.1 2.1 0.2 3.2 0.3v-0.2-0.4c-1.1-0.6-2.3-1.3-3.5-2.3 0.1 0.9 0.2 1.8 0.3 2.6zm1.4 3.1-0.9-1 0.8-1.2 1.4-0.2s0.2 0 0.3-0.2c-1-0.1-2-0.1-3-0.3 0.2 1.1 0.3 2.1 0.5 3.1 0.4 0.1 0.8 0.1 1.1 0.1l-0.2-0.3zm-7.8-1.8c-0.1-0.7 0-1.4 0.1-2.2-0.6-0.2-1.2-0.4-1.7-0.6-0.6-0.2-1.1-0.4-1.6-0.7 0.2 0.7 0.4 1.3 0.6 2 0.8 0.5 1.7 1 2.6 1.5zm25.5-12.6c-0.2 0-0.4 0.1-0.6 0.2-0.1 0.1-0.3 0.1-0.6 0.1 0.3 0.1 0.6 0.2 1 0.3 0-0.2 0.1-0.4 0.2-0.6z"/>
	<path class="st6" d="m52.3 21.2c-6.2-0.3-12.4 1.5-17.7 5.2l4.3 1.3s3.5-0.1 4.7 0 2.7-0.9 2.6-1.1c0-0.3 2.4-0.7 2.6-0.9 0.2-0.1 2.3-0.2 3-0.2 0.8 0 1.8 1 2.2 1.5 0.4 0.4 1.7 0.5 2.2 0.5s0.1 1 0.1 1 0.3 0.5 1.6 0.7c1.3 0.1 3.3 0.6 2.8-0.2s-0.9-1-1.7-2.1-4.3-2.7-4.9-3.6 1.3-0.6 2.3-0.9c0.9-0.3-2.4-0.4-2.4-0.4l-1.7-0.8z"/>
	<path class="st6" d="m33.6 49.8c0 0.2 0.6 1.6 0.4 1.8-0.1 0.2-0.3 0.8-0.3 1 0 0.3 0.1 0.3 0 0.7s-0.4 0.8-0.1 1.3 1.1 2 1.9 2.4 1.1 0.9 1.3 0.9c0.3 0 0.5-0.1 0.8 0s0.5-0.1 0.8-0.3c0.2-0.2 0.3-0.4 0.5-0.5-0.2-0.3-0.3-0.6-0.4-0.8-0.4-0.8-0.6-1.3-1-2.1-0.4-0.9-1.6-2.7-2.3-4s-0.6-2.2-1-2.3-0.1 0.4 0.1 1 0.6 1.5 1.1 2.5 0.9 2.4 0.9 2.4-0.5 0-0.9-0.6-0.7-1.4-1.1-2.6c-0.2-0.5-0.5-0.7-0.7-0.8zm5.8 9.2c0 0.2-0.3 0.4-0.6 0.5s-0.9-0.6-1.1-0.8 0.1-0.3 0.3-0.4c0.1-0.1 0.3 0.2 0.4 0.2s0.5-0.4 0.5-0.4l0.5 0.9zm-0.4-1.2-0.4 0.2-0.1-0.1 0.5-0.4v0.3z"/>
	<path class="st6" d="m47.2 29.3 0.4-0.2s0.3-0.1 0.4-0.5 0.2-0.2 0.2-0.2 0.1 0.4 0 0.5-0.3 0.2-0.3 0.3 0.6 0.1 0.6 0.1c0.1 0.1 0.3-0.4 0.6-0.3 0.3 0 0.4 0.1 0.8 0.1s0.6 0 0.5 0.1-0.6 0.3-0.3 0.5c0.2 0.2 0.5-0.2 0.5-0.3 0.1-0.1 0.2-0.3 0.5-0.3s0.3-0.4 0.8-0.3c0.4 0.1 1 0.4 1.4 0.5s1.1 0.2 1.2 0.4 0.3 1 0.2 1-0.6 0-0.9-0.3-0.3-0.6-0.4-0.6-0.7-0.2-1.1-0.3c-0.4-0.2-0.9-0.4-0.9-0.3s0.1 0.2-0.2 0.3-0.6 0.1-0.5 0.4c0 0.3 0.1 0.5 0.2 0.7s-0.4 0.5 0.1 0.8c0.4 0.4 0.8 0.9 0.7 1.3s-1 0.7-1.3 0.7 0.1-0.1-1-0.2c-1.2-0.1-1.7-0.4-2.1-0.7-0.4-0.2-0.6-0.2-0.8-0.1s-0.1-0.4-0.4-0.7-0.6-0.3-0.4-0.7c0.3-0.4 0.6-0.8 0.9-1 0.3-0.4 0.5-0.5 0.6-0.7z"/>
	<path class="st7" d="m49.6 58.3-1 2.5s1.4 0.8 1.7 0.8 0.4 0 0.4 0.3-0.2 0.7 0.3 0.8c0.4 0.1 1.1 0.2 1.3 0.4s0.5 0.4 0.8 0.4 0.6-0.1 0.8-0.1 0.3 0 0.3 0.1c0 0.2-0.2 0.3 0.2 0.3s0.5 0 0.6-0.3-0.4-0.5 0-0.7 0.6-0.4 0.6-0.2c0 0.1-0.2 0.2 0.1 0.5s0.4 0.4 0.4 0.5 0.2 0.1 0.4 0.3c0.2 0.1 0.7-0.4 0.9-0.4 0.3 0 0.8 0 0.5-0.3-0.3-0.4-0.8-1.1-1.2-1.2s-1.3-0.7-1.7-0.6c-0.4 0.2-0.6 0.5-0.8 0.7-0.3 0.2-0.1 0.3-0.6 0.3s-0.8 0.1-1.1-0.4c-0.3-0.4-0.4-0.9-0.4-1.3 0-0.3 0.1-1 0-1.3-0.1-0.2-0.4-0.6-0.9-0.8-0.4 0.1-1.7-0.5-1.6-0.3z"/>
	<polygon class="st8" points="46.7 45.7 50.9 32.6 55.2 45.7 69.3 45.6 58 53.9 62.3 67.3 50.9 59.1 39.7 67.4 44.1 53.9 32.7 45.7"/>
	<polygon class="st9" points="55.2 45.7 50.9 32.6 50.9 51.7"/>
	<polygon class="st10" points="55.2 45.7 50.9 51.7 69.3 45.6"/>
	<polygon class="st9" points="69.3 45.6 50.9 51.7 62.3 67.3 58 53.9"/>
	<polygon class="st11" points="50.9 51.7 50.9 59.1 62.3 67.3"/>
	<polygon class="st12" points="50.9 51.7 50.9 59.1 39.7 67.4"/>
	<polygon class="st13" points="39.7 67.4 50.9 51.7 44.1 53.9"/>
	<polygon class="st14" points="44.1 53.9 50.9 51.7 32.7 45.7"/>
	<polygon class="st15" points="32.7 45.7 50.9 51.7 46.7 45.7"/>
	<path d="m41 25.5-1.3-0.5-2.1 1-0.6 1.3 0.6 1.4 1.2 0.4 1.8-0.5 0.2 0.1 0.2 0.3-0.1 0.2-1 0.5-0.4-0.5-1.3 0.6 0.4 0.9 1.4 0.4 2.1-0.9 0.6-1.3-0.7-1.5-1.1-0.3-1.8 0.5-0.2-0.1-0.1-0.3 0.1-0.2 1-0.4 0.4 0.5 1.3-0.6-0.6-1zm5.8-1.3 0.2 1-1.4 0.3-0.2-0.5-1 0.2-0.2 0.2 0.5 2.4 0.3 0.1 1-0.2v-0.6l1.4-0.3 0.2 1c-0.1 0.2-0.3 0.4-0.4 0.6s-0.3 0.4-0.4 0.6l-2.1 0.4-1.4-0.8-0.7-3.5 1-1.2 2.2-0.4 1 0.7zm5.9 3.4-0.1-3.6-1.2-1-2.3 0.1-1.1 1 0.1 3.7 1.2 1 2.2-0.1c0.2-0.2 0.4-0.3 0.6-0.5l0.6-0.6zm-1.9-3.2 0.2 0.2 0.1 2.5-0.2 0.2h-0.9l-0.2-0.2-0.1-2.5 0.2-0.2h0.9zm5.5 0.5 1.1 0.2 0.1 0.2-0.1 0.6-0.2 0.1-1.1-0.2 0.2-0.9zm-0.2 4.3 0.2-1.2-0.5-0.3 0.2-0.8 0.4 0.1 0.8 2.4 1.4 0.3 0.2-1.3-0.4-0.2-0.4-1 0.9-0.5 0.3-1.7-0.8-1.1-3.9-0.8-0.2 1.2 0.5 0.3-0.5 2.8h-0.6l-0.2 1.2 2.6 0.6zm8.5-0.9-1-0.5 0.1-0.6-1.2-0.5-0.4 0.8 1.2 0.5-0.4 1-1.2-0.5-0.4 0.9 1.2 0.5 0.4-0.5 1 0.5-0.8 1.8-4.3-1.9 0.5-1.1 0.6 0.1 1.2-2.6-0.5-0.4 0.5-1.1 4.3 1.9-0.8 1.7z"/>
	<path d="m26 57.8-1 0.3 0.8 2.4 0.6-0.2v-0.3l1.4-0.5 0.2 0.3 0.6-0.2-0.8-2.4-1 0.3 0.2 0.6h0.3l0.2 0.7-0.5 0.2-0.2-0.7-0.5 0.2 0.2 0.7-0.4 0.2-0.2-0.7 0.3-0.2-0.2-0.7zm-1.3-2.8 0.5-0.1 0.2 0.8-0.3 0.1 0.1 0.6 0.1 0.1h0.2v-0.1l-0.1-1 0.3-0.6 0.8-0.2 0.6 0.5 0.3 1.2-0.3 0.7h-0.5l-0.2-0.8 0.3-0.1-0.1-0.6-0.1-0.1h-0.2l-0.1 0.1 0.1 1-0.3 0.6-0.8 0.2-0.6-0.4-0.3-1.2 0.4-0.7zm0.3-3.2-1.2 0.2 0.4 2.8 1.2-0.2-0.1-0.6h-0.5v-0.3l1.5-0.2 0.1 0.3 0.6-0.1-0.2-1.5-0.6 0.1v0.4l-1.5 0.2v-0.3l0.5-0.2-0.2-0.6zm1.8-1h-0.7v0.8h0.7v-0.8zm-1.7-2.2 0.1-0.8-0.3-0.1 0.1-0.6v-0.1h0.2l0.1 0.1v1l0.3 0.5 1.3 0.2 0.3-2.4-1-0.1-0.1 0.8 0.3 0.1-0.1 0.7h-0.3v-0.1-1l-0.3-0.5-0.8-0.1-0.5 0.5-0.2 1.3 0.4 0.6h0.5zm2.2-4.7c0.1 0.1 0.1 0.2 0.2 0.4 0.1 0.1 0.1 0.2 0.2 0.4l-0.3 1.1-0.7 0.5-1.8-0.5-0.3-0.8 0.3-1.2 0.6-0.5 1.8 0.6zm-1.8 0.5-0.1 0.5 0.1 0.1 1.2 0.3 0.1-0.1 0.1-0.5-0.1-0.1-1.2-0.3-0.1 0.1zm0.6-1.2 0.3-0.7-0.3-0.2 0.2-0.5 0.1-0.1 0.2 0.1v0.1l-0.2 1 0.2 0.6 1.2 0.5 0.9-2.3-0.9-0.4-0.3 0.7 0.2 0.2-0.3 0.7-0.3-0.1v-0.1l0.2-1-0.1-0.7-0.7-0.3-0.6 0.4-0.5 1.2 0.2 0.7 0.5 0.2zm3.6-3.4-0.7 1.5-0.6-0.3 0.1-0.4-1.3-0.6-0.1 0.3-0.6-0.1 0.2-0.9 0.2-0.4 1.9 1 0.3-0.3 0.6 0.2z"/>
	<polygon points="75.9 42.9 76.4 42.8 75.7 40.4 74.8 40.7 74.9 41.3 75.3 41.3 75.5 41.8 73.7 41 73.2 41.1 73.9 43.5 74.8 43.2 74.7 42.6 74.3 42.7 74.1 42.1"/>
	<polygon points="76.2 44.8 76.7 44.7 76.5 43.3 75.9 43.4 75.9 43.7 74.6 43.9 74.5 43.6 73.9 43.7 74.2 45.2 74.8 45.1 74.8 44.8 76.1 44.5"/>
	<polygon points="76.4 46.8 77 46.7 76.8 45.3 76.3 45.4 76.2 45.7 74.9 45.8 74.8 45.5 74.3 45.6 74.5 48 75.5 47.9 75.4 47.3 75.1 47.3 75 46.6 76.3 46.5"/>
	<polygon points="76.5 49.7 77.1 49.8 77.2 48.3 76.6 48.3 76.5 48.6 75.2 48.5 75.2 48.2 74.6 48.1 74.4 50.6 75.4 50.6 75.4 50 75.1 49.9 75.1 49.3 76.4 49.4"/>
	<polygon points="76.2 52.6 76.7 52.7 77 51.3 76.4 51.2 76.3 51.5 75 51.3 74.9 50.9 74.4 50.9 74.1 52.3 74.7 52.4 74.8 52.1 76.1 52.3"/>
	<path d="m73.8 55 1.6 0.5 0.6-0.4 0.4-1.1-0.2-0.7-1.6-0.5-0.6 0.4-0.3 0.7-0.7 0.2-0.3 0.7 0.6 0.2 0.1-0.2 0.3-0.1 0.1 0.3zm1.8-0.4-0.1 0.1-1.1-0.4v-0.1l0.2-0.5 0.1-0.1 1.1 0.4v0.1l-0.2 0.5z"/>
	<path d="m72.9 57.6 2 0.2 0.7-1.4-0.6-0.2-0.2 0.2-1-0.8 0.1-0.3-0.5-0.2-0.5 1.1 0.5 0.2 0.1-0.1 0.2 0.1-0.2 0.5h-0.2v-0.2l-0.5-0.2-0.6 1.3 0.5 0.2 0.2-0.4zm1.6-0.6-0.6-0.1 0.1-0.3 0.5 0.4z"/>
	<path d="m45.8 70.7-0.8-1.2-2.2-0.6-1.4 0.7-1 3.4 0.9 1.4 2.1 0.6c0.2-0.1 0.4-0.2 0.7-0.3 0.2-0.1 0.4-0.2 0.7-0.3l0.3-1-1.4-0.4-0.3 0.5-1-0.3-0.2-0.3 0.7-2.4 0.3-0.1 1 0.3v0.6l1.4 0.4 0.2-1z"/>
	<path d="m50.5 74.8 0.3-3.7-1.1-1.1-2.3-0.2-1.2 0.9-0.3 3.7 1.1 1.1 2.2 0.2c0.2-0.2 0.4-0.3 0.6-0.5 0.3-0.1 0.5-0.2 0.7-0.4zm-1.5-3.4 0.2 0.2-0.2 2.5-0.2 0.2-0.9-0.1-0.3-0.2 0.2-2.5 0.2-0.2 1 0.1z"/>
	<polygon points="54.3 71.2 54.2 70 51.5 70.1 51.6 71.4 52.2 71.5 52.4 74.4 51.8 74.6 51.9 75.8 54.6 75.7 54.5 74.4 53.9 74.3 53.7 71.4"/>
	<polygon points="58 69.2 58.3 70.4 58.9 70.4 59.3 72 57 69.5 54.8 70 55.1 71.2 55.7 71.2 56.5 74 56 74.3 56.3 75.5 58.7 74.9 58.4 73.7 57.8 73.7 57.3 72 59.8 74.6 61.3 74.2 60.2 70.1 60.7 69.7 60.4 68.6"/>
	<path class="st16" d="m56.1 63.7c0 0.3 0.1 0.7 0.1 1 0.1 0.5 0 0.7-0.1 0.9-0.1 0.1-0.1-0.1-0.3 0s-0.2 0.3-0.4 0.6-0.3 0.4-0.6 0.7c-0.4 0.3-1.1 0.3-1.1 0.3s-5.1 0.3-7 0.4h-2.6s1.9 0.2 3.9 0.2c2.1 0 6.3-0.3 6.3-0.3s0.3 0.5 0.2 0.9 0 0.6 0 0.9c0 0.2-0.1 0.5-0.1 0.7s0.2-0.3 0.4-0.4 0.1-0.1 0-0.4-0.1-1 0.1-1.3c0.1-0.3 0.3-0.5 0.5-0.7 0.1-0.2 0.3-0.4 0.6-0.7s0.4-0.6 0.6-0.7 0.2-0.6 0.2-0.7-0.1-0.6-0.2-1.1c-0.3-0.2-0.4-0.2-0.5-0.3z"/>
</svg>
