<svg width="95" height="95" viewBox="0 0 95 95" fill="none" xmlns="http://www.w3.org/2000/svg">
<path d="M81.2309 0H13.1779C5.89995 0 0 5.89995 0 13.1779V81.2309C0 88.5089 5.89995 94.4088 13.1779 94.4088H81.2309C88.5089 94.4088 94.4088 88.5089 94.4088 81.2309V13.1779C94.4088 5.89995 88.5089 0 81.2309 0Z" fill="black"/>
<path d="M54.6926 33.0895L48.5678 13.1211C48.1559 11.7869 46.2127 11.7794 45.7853 13.1061L39.4506 33.097C39.3376 33.4514 39.0836 33.7483 38.7442 33.9225C38.4048 34.0967 38.0076 34.1341 37.6396 34.0265C37.4882 33.9878 37.3458 33.9216 37.2199 33.8316L24.0455 24.7544C22.9418 23.9898 21.4494 24.9867 21.807 26.261L26.7425 43.8008C26.8 44.007 26.9053 44.1978 27.0505 44.359C27.1956 44.5202 27.3768 44.6474 27.5804 44.7312C27.7841 44.8149 28.0047 44.8529 28.2258 44.8424C28.4469 44.8319 28.6626 44.773 28.8567 44.6703C42.9327 37.407 51.4903 37.422 65.5353 44.6703C65.7056 44.7596 65.8925 44.8155 66.0853 44.8348C66.2781 44.8541 66.473 44.8365 66.6587 44.7828C66.8443 44.7292 67.0172 44.6406 67.1672 44.5222C67.3172 44.4039 67.4415 44.258 67.5328 44.0931C67.5868 44.0011 67.6286 43.9029 67.6572 43.8008L72.6005 26.216C72.9581 24.9492 71.4813 23.9523 70.3698 24.7094L56.9155 33.8391C56.7591 33.9447 56.5826 34.0194 56.3961 34.0589C56.2096 34.0984 56.0169 34.1019 55.829 34.0691C55.6411 34.0364 55.4618 33.968 55.3014 33.8681C55.1411 33.7681 55.0028 33.6385 54.8947 33.4868C54.8043 33.3664 54.736 33.2321 54.6926 33.0895Z" fill="url(#paint0_linear_4190_41)"/>
<path fill-rule="evenodd" clip-rule="evenodd" d="M9.48621 62.2104C11.1645 61.4077 13.747 60.0648 17.0881 57.9886C18.3602 57.2091 19.8086 56.1594 21.4332 54.9862C27.7323 50.448 36.5757 44.0574 47.2046 44.0574C57.8335 44.0574 66.6768 50.448 72.9683 54.9862C74.5929 56.1594 76.0413 57.2091 77.3134 57.9886C80.6545 60.0648 83.2447 61.4077 84.9153 62.2104C85.6663 62.5654 85.6663 63.7926 84.9153 64.1476C83.2447 64.9503 80.6545 66.2933 77.3134 68.3617C76.0413 69.149 74.5929 70.1987 72.9683 71.3641C66.6768 75.9101 57.8258 82.2929 47.2046 82.2929C36.5834 82.2929 27.7323 75.9101 21.4332 71.3641C19.8086 70.1987 18.3602 69.149 17.0881 68.3617C13.747 66.2933 11.1645 64.9503 9.48621 64.1476C8.74288 63.7926 8.74288 62.5654 9.48621 62.2104ZM47.1663 75.9641C50.5767 75.9641 53.8474 74.5996 56.2589 72.1708C58.6704 69.742 60.0251 66.4479 60.0251 63.0131C60.0251 55.8584 54.2701 50.0544 47.1663 50.0544C43.7538 50.0544 40.4812 51.4196 38.0682 53.8499C35.6553 56.2801 34.2997 59.5762 34.2997 63.0131C34.2997 70.1678 40.0625 75.9641 47.1663 75.9641Z" fill="url(#paint1_linear_4190_41)"/>
<defs>
<linearGradient id="paint0_linear_4190_41" x1="21.7541" y1="28.4789" x2="72.6557" y2="28.4789" gradientUnits="userSpaceOnUse">
<stop stop-color="#40E0D0"/>
<stop offset="0.53" stop-color="#FF8C00"/>
<stop offset="1" stop-color="#FF0080"/>
</linearGradient>
<linearGradient id="paint1_linear_4190_41" x1="8.92871" y1="63.1752" x2="85.4785" y2="63.1752" gradientUnits="userSpaceOnUse">
<stop stop-color="#40E0D0"/>
<stop offset="0.526042" stop-color="#FF8C00"/>
<stop offset="1" stop-color="#FF0080"/>
</linearGradient>
</defs>
</svg>
