<?xml version="1.0"?>
<svg width="28" height="28" xmlns="http://www.w3.org/2000/svg" xmlns:svg="http://www.w3.org/2000/svg">
 <defs>
  <linearGradient id="chainflip-logo_svg__b" x1="0.52" x2="0.46" y1="-0.06" y2="1.51">
   <stop stop-color="#48EF8A"/>
   <stop offset="0.55" stop-color="#43B4A6"/>
   <stop offset="0.69" stop-color="#2D796F"/>
   <stop offset="0.97"/>
  </linearGradient>
  <linearGradient id="chainflip-logo_svg__c" x1="0.53" x2="0.36" y1="1.08" y2="-0.53">
   <stop stop-color="#FF5F96"/>
   <stop offset="0.61" stop-color="#FF33AF"/>
   <stop offset="1"/>
  </linearGradient>
 </defs>
 <g class="layer">
  <title>Layer 1</title>
  <g clip-path="url(#chainflip-logo_svg__a)" id="svg_2">
   <path d="m28.41,0.07l0,12.1c0,2.15 -0.68,4.23 -1.91,5.95a9.91,9.91 0 0 1 -1.29,1.47l-0.03,0.02l-5.68,0l0,-11.21l-16.28,0l0.07,-0.06l4.44,-4.19l1.65,-1.53c1.86,-1.74 4.15,-2.55 6.67,-2.55l12.36,0z" fill="url(#chainflip-logo_svg__b)" id="svg_3"/>
   <path d="m25.18,19.63l-0.02,0.01l-0.02,0.02l-0.29,0.29l-1.13,1.07l-4.1,3.85l-0.4,0.37a9.99,9.99 0 0 1 -6.81,2.67l-12.41,0l0,-5.41l0.02,-2.89l0.03,-3.85a10.21,10.21 0 0 1 3.19,-7.37l5.26,0l0,11.22l16.68,0l0,0.02z" fill="url(#chainflip-logo_svg__c)" id="svg_4"/>
  </g>
 </g>
</svg>