<svg width="119" height="100" viewBox="0 0 119 100" fill="none" xmlns="http://www.w3.org/2000/svg">
<path d="M114.351 36.4785H102.933C101.36 36.5033 99.8164 36.9155 98.4334 37.6799C97.0504 38.4444 95.8688 39.5384 94.9892 40.869V40.869C93.9843 42.3565 93.4633 44.1287 93.4998 45.935V45.935V46.9482C93.8589 49.3642 95.0616 51.5664 96.8862 53.149C98.7109 54.7316 101.035 55.588 103.429 55.5604H114.351C115.405 55.5604 116.415 55.1334 117.16 54.3733C117.905 53.6133 118.323 52.5824 118.323 51.5076V40.5313C118.323 39.9991 118.22 39.4721 118.021 38.9804C117.821 38.4887 117.529 38.0419 117.16 37.6656C116.791 37.2892 116.353 36.9907 115.871 36.787C115.389 36.5833 114.873 36.4785 114.351 36.4785V36.4785ZM102.933 49.6501C102.425 49.7652 101.898 49.7625 101.391 49.6422C100.884 49.5218 100.41 49.2867 100.004 48.9545C99.5984 48.6222 99.2707 48.2011 99.0456 47.7224C98.8205 47.2436 98.7036 46.7193 98.7036 46.1883C98.7036 45.6573 98.8205 45.133 99.0456 44.6543C99.2707 44.1755 99.5984 43.7544 100.004 43.4222C100.41 43.0899 100.884 42.8549 101.391 42.7345C101.898 42.6141 102.425 42.6114 102.933 42.7266C103.381 42.7037 103.829 42.7741 104.25 42.9335C104.671 43.0929 105.056 43.3381 105.381 43.654C105.706 43.9699 105.965 44.35 106.141 44.7712C106.318 45.1924 106.408 45.6458 106.408 46.1039C106.408 47.0444 106.042 47.9464 105.39 48.6114C104.738 49.2764 103.854 49.6501 102.933 49.6501V49.6501Z" fill="#263B80"/>
<path d="M91.1865 0.000774694H23.8326C21.4499 -0.0215321 19.0865 0.438096 16.8789 1.35311C14.6712 2.26813 12.6631 3.62039 10.9706 5.33181C9.27799 7.04322 7.9345 9.07987 7.01767 11.3241C6.10083 13.5684 5.62881 15.9757 5.62891 18.4072V31.4098C11.2555 31.4098 11.421 26.8505 11.421 25.3307V18.4072C11.4639 15.0618 12.7853 11.8658 15.1037 9.50005C17.4221 7.13433 20.5542 5.78595 23.8326 5.74221H91.1865C94.4498 5.74192 97.5819 7.05305 99.9049 9.39179C102.228 11.7305 103.555 14.9087 103.598 18.2383V30.2278H109.225V18.4072C109.225 13.5255 107.324 8.84374 103.941 5.39188C100.559 1.94001 95.9706 0.000774694 91.1865 0.000774694V0.000774694Z" fill="#263B80"/>
<path d="M103.597 61.4641V72.947C103.553 76.2766 102.226 79.4548 99.9033 81.7935C97.5804 84.1322 94.4482 85.4434 91.1849 85.4431H73.8086C68.844 85.4431 68.182 89.327 67.6855 91.1845H91.1849C95.9405 91.1847 100.504 89.2687 103.882 85.8533C107.26 82.4378 109.18 77.7993 109.223 72.947V60.9575H103.597V61.4641Z" fill="#263B80"/>
<path d="M65.2025 16.0449C62.7111 16.0226 60.2401 16.5041 57.9321 17.4615C55.624 18.419 53.5248 19.8334 51.7553 21.6232C49.9859 23.4131 48.5815 25.5428 47.6231 27.8895C46.6646 30.2361 46.1712 32.7533 46.1713 35.2956C46.2049 37.0715 46.4834 38.8338 46.9988 40.5304C42.0314 37.553 36.3764 35.9792 30.6154 35.9711C24.4842 36.0709 18.5185 38.0174 13.4679 41.5659C8.41735 45.1144 4.50703 50.1067 2.22819 55.9158C-0.0506443 61.7248 -0.596371 68.0915 0.659566 74.216C1.9155 80.3406 4.9171 85.9498 9.28729 90.3391C13.6575 94.7285 19.2014 97.7022 25.2225 98.8866C31.2437 100.071 37.4736 99.4135 43.1297 96.9965C48.7858 94.5795 53.6157 90.5108 57.0129 85.3016C60.4101 80.0924 62.2229 73.975 62.2237 67.7178C62.1897 62.6669 60.9997 57.6939 58.7485 53.1954C60.8231 53.9427 63.0027 54.3419 65.2025 54.3774C67.8173 54.6282 70.4546 54.319 72.9455 53.4699C75.4365 52.6207 77.7262 51.2501 79.6682 49.446C81.6102 47.6418 83.1617 45.4438 84.2233 42.9926C85.2849 40.5414 85.8332 37.8911 85.8332 35.2112C85.8332 32.5313 85.2849 29.8809 84.2233 27.4297C83.1617 24.9785 81.6102 22.7805 79.6682 20.9763C77.7262 19.1722 75.4365 17.8017 72.9455 16.9525C70.4546 16.1033 67.8173 15.7942 65.2025 16.0449V16.0449ZM30.6154 86.2931C28.0678 86.5407 25.4976 86.2423 23.0696 85.4172C20.6416 84.5921 18.4093 83.2584 16.5159 81.5016C14.6225 79.7448 13.1097 77.6037 12.0745 75.2155C11.0393 72.8273 10.5046 70.2448 10.5046 67.6334C10.5046 65.0221 11.0393 62.4395 12.0745 60.0513C13.1097 57.6632 14.6225 55.522 16.5159 53.7652C18.4093 52.0085 20.6416 50.6747 23.0696 49.8496C25.4976 49.0245 28.0678 48.7262 30.6154 48.9737C33.163 48.7262 35.7332 49.0245 38.1612 49.8496C40.5892 50.6747 42.8215 52.0085 44.7149 53.7652C46.6083 55.522 48.1211 57.6632 49.1563 60.0513C50.1915 62.4395 50.7262 65.0221 50.7262 67.6334C50.7262 70.2448 50.1915 72.8273 49.1563 75.2155C48.1211 77.6037 46.6083 79.7448 44.7149 81.5016C42.8215 83.2584 40.5892 84.5921 38.1612 85.4172C35.7332 86.2423 33.163 86.5407 30.6154 86.2931ZM65.2025 47.2851C62.8462 47.2514 60.5526 46.5056 58.6117 45.1419C56.6709 43.7782 55.1698 41.8579 54.2985 39.6237C53.4271 37.3896 53.2245 34.9419 53.7164 32.5903C54.2082 30.2386 55.3724 28.0886 57.0617 26.4121C58.7509 24.7356 60.8894 23.6078 63.2068 23.1715C65.5242 22.7351 67.9164 23.0097 70.0808 23.9605C72.2452 24.9114 74.0847 26.4958 75.3668 28.5134C76.6488 30.531 77.3157 32.8912 77.2832 35.2956C77.2616 36.8923 76.932 38.469 76.3132 39.9357C75.6944 41.4024 74.7984 42.7304 73.6766 43.8437C72.5548 44.9571 71.229 45.834 69.775 46.4245C68.321 47.015 66.7673 47.3074 65.2025 47.2851V47.2851Z" fill="#1DBEF0"/>
</svg>
