<svg width="46" height="54" viewBox="0 0 46 54" fill="none" xmlns="http://www.w3.org/2000/svg">
<path d="M0 13.9929L4.57679 11.3746L22.7262 0.814848C22.8155 0.753689 22.9216 0.722175 23.0298 0.724756C23.1379 0.727337 23.2424 0.763879 23.3287 0.829231L45.6532 13.6764C45.7632 13.7284 45.855 13.8125 45.9165 13.9178C45.978 14.0231 46.0062 14.1446 45.9975 14.2663C45.9784 22.8982 45.9784 31.5253 45.9975 40.1476C46.0105 40.2699 45.9841 40.3932 45.9221 40.4994C45.8602 40.6055 45.7659 40.689 45.6532 40.7375C38.2978 45.0151 30.9424 49.2879 23.587 53.5559C23.1996 53.7717 22.927 53.7861 22.5253 53.5559C15.1508 49.2879 7.7619 45.0295 0.358683 40.7806C0.243085 40.7193 0.123211 40.6664 0 40.6224V13.9929ZM9.71313 27.2717C9.71313 29.703 9.72748 32.1487 9.71313 34.5801C9.70019 34.7025 9.72487 34.826 9.78384 34.9339C9.84281 35.0419 9.93328 35.1293 10.0431 35.1843C14.2899 37.6012 18.508 40.0325 22.7405 42.4639C22.8408 42.5311 22.9593 42.5658 23.0799 42.5632C23.2005 42.5606 23.3175 42.5209 23.4148 42.4495L35.9831 35.1555C36.2987 34.9829 36.3848 34.7815 36.3848 34.4362V19.9777C36.3984 19.8292 36.3674 19.68 36.2958 19.5492C36.2243 19.4185 36.1154 19.3122 35.9831 19.244C31.765 16.8367 27.566 14.4245 23.3861 12.0076C23.2866 11.9349 23.1672 11.8946 23.044 11.892C22.9209 11.8894 22.8 11.9247 22.6975 11.9932L10.0288 19.3879C9.92635 19.4392 9.84157 19.52 9.78532 19.62C9.72908 19.72 9.70393 19.8345 9.71313 19.9489C9.72748 22.3947 9.71313 24.826 9.71313 27.2717Z" fill="#375BD1"/>
</svg>
