<?xml version="1.0" encoding="UTF-8" standalone="no"?>
<!-- Created with Inkscape (http://www.inkscape.org/) -->

<svg
   xmlns:dc="http://purl.org/dc/elements/1.1/"
   xmlns:cc="http://creativecommons.org/ns#"
   xmlns:rdf="http://www.w3.org/1999/02/22-rdf-syntax-ns#"
   xmlns:svg="http://www.w3.org/2000/svg"
   xmlns="http://www.w3.org/2000/svg"
   xmlns:sodipodi="http://sodipodi.sourceforge.net/DTD/sodipodi-0.dtd"
   xmlns:inkscape="http://www.inkscape.org/namespaces/inkscape"
   width="297mm"
   height="297mm"
   viewBox="0 0 297 297"
   version="1.1"
   id="svg8"
   inkscape:version="0.92.1 r15371"
   sodipodi:docname="длоаоапр8890.svg">
  <defs
     id="defs2" />
  <sodipodi:namedview
     id="base"
     pagecolor="#ffffff"
     bordercolor="#666666"
     borderopacity="1.0"
     inkscape:pageopacity="0.0"
     inkscape:pageshadow="2"
     inkscape:zoom="0.35"
     inkscape:cx="371.27434"
     inkscape:cy="580.20305"
     inkscape:document-units="mm"
     inkscape:current-layer="layer1"
     showgrid="false"
     inkscape:window-width="1440"
     inkscape:window-height="837"
     inkscape:window-x="-8"
     inkscape:window-y="-8"
     inkscape:window-maximized="1" />
  <metadata
     id="metadata5">
    <rdf:RDF>
      <cc:Work
         rdf:about="">
        <dc:format>image/svg+xml</dc:format>
        <dc:type
           rdf:resource="http://purl.org/dc/dcmitype/StillImage" />
        <dc:title></dc:title>
      </cc:Work>
    </rdf:RDF>
  </metadata>
  <g
     inkscape:label="Layer 1"
     inkscape:groupmode="layer"
     id="layer1">
    <path
       style="fill:#52c4c4;fill-opacity:1;stroke:none;stroke-width:0.43865612"
       d="M 137.16206,291.88087 C 90.60439,287.23017 48.396375,262.70038 25.640571,227.06848 16.356816,212.53154 9.184097,194.17373 6.9264018,179.17141 5.9139059,172.44354 5.2232895,156.76698 5.5430242,147.76991 6.6998885,115.21583 14.287996,89.968264 29.635846,67.607036 35.009613,59.777683 38.519706,55.671888 46.076262,48.376623 58.153478,36.716925 70.300347,28.483283 87.514992,20.287799 102.87526,12.975137 115.35731,9.1616756 131.5963,6.8203599 c 8.27804,-1.1935217 27.17625,-1.0758793 35.79632,0.22248 27.51547,4.1455671 51.7296,15.9406311 74.82795,36.4498731 24.65572,21.891943 41.00257,47.45997 46.96832,73.462697 2.24115,9.76838 2.64216,13.62196 2.66715,25.62842 0.0267,12.17109 -0.2872,15.51255 -2.46756,26.38126 l -1.39117,6.93473 -5.17691,1.00543 c -14.1475,2.74761 -32.26618,7.66623 -43.69249,11.86116 -8.81644,3.23683 -10.60588,3.96861 -23.37643,9.5604 -12.24822,5.36309 -17.79881,7.48349 -24.43687,9.33513 -13.87376,3.87009 -28.68584,4.19815 -38.69219,0.85688 -13.4673,-4.49688 -23.53997,-15.24556 -25.73132,-27.45838 -0.73584,-4.1013 -0.2952,-12.09341 0.90403,-16.38915 2.88521,-10.33674 9.26398,-20.98533 19.14756,-31.96474 1.82832,-2.03109 3.3633,-3.65379 3.41106,-3.606 0.0467,0.0453 0.63841,4.46228 1.31266,9.81004 0.67426,5.34783 1.25848,9.7706 1.29839,9.82848 0.04,0.0582 1.75835,-0.49218 3.81886,-1.22179 12.06826,-4.27458 24.50655,-5.06001 37.15921,-2.34655 6.1901,1.32753 17.60441,4.93538 28.71024,9.07467 4.28568,1.5973 9.09458,3.17254 10.68641,3.50051 7.58645,1.56281 19.98194,0.0196 27.8839,-3.46907 2.1535,-0.95106 2.3151,-1.13705 2.88948,-3.32521 0.77799,-2.96381 0.78672,-11.39201 0.0127,-15.12379 l -0.59242,-2.86667 -8.75332,-5.83716 C 202.05428,91.963697 157.81978,71.130232 120.2246,63.751534 110.00061,61.744911 92.18755,60.023445 92.18755,61.04202 c 0,0.24447 -0.107242,0.715245 -0.238528,1.046708 -0.172619,0.437206 4.963603,3.089159 18.691278,9.650551 10.41126,4.976328 18.93327,9.145111 18.93773,9.263921 0.005,0.118953 -3.64783,1.451515 -8.11626,2.961426 -12.73106,4.302025 -21.26442,7.701879 -29.945582,11.930886 -7.180776,3.498168 -17.573145,9.537118 -17.58154,10.216588 -0.0018,0.14356 3.886376,0.61507 8.640356,1.04877 l 8.64365,0.78828 -4.75212,5.00123 c -6.406944,6.74286 -10.116621,11.06002 -19.150969,22.28697 l -7.650459,9.50722 6.687919,0.119 c 3.678295,0.0653 6.683659,0.26 6.678454,0.43204 -0.0052,0.17203 -3.093137,10.52232 -6.862161,23.00047 -3.768998,12.47816 -6.814797,22.72549 -6.768424,22.77181 0.04655,0.0451 3.260865,-0.60475 7.143191,-1.44642 4.5931,-0.99593 7.157577,-1.37533 7.341784,-1.08608 0.155887,0.24451 0.957385,10.32692 1.781515,22.40541 0.82413,12.0785 1.562838,22.03284 1.641538,22.12081 0.07871,0.0879 2.876944,-2.09977 6.218368,-4.86166 3.341423,-2.76182 6.20605,-5.01985 6.365853,-5.01778 0.159804,10e-4 5.70043,8.15973 12.312637,18.12822 6.61221,9.96843 12.16652,18.13428 12.343,18.14632 0.17654,0.0128 2.76138,-2.81022 5.74421,-6.27166 4.33983,-5.03608 5.52899,-6.18017 5.95187,-5.7259 0.29056,0.31238 2.51085,2.99843 4.9338,5.96939 2.42293,2.971 6.71334,7.66446 9.53426,10.42993 l 5.12889,5.02813 10.90904,0.008 c 16.95054,0.0128 27.69777,1.7688 41.97344,6.86427 l 4.34849,1.55216 -1.45428,1.06116 c -8.58054,6.26138 -19.45938,10.40617 -33.29077,12.6836 -4.35906,0.71769 -7.93099,0.94747 -16.47481,1.05982 -5.99998,0.0791 -12.61221,-0.0259 -14.69379,-0.23477 z"
       id="path3695"
       inkscape:connector-curvature="0" />
  </g>
</svg>
