<svg xmlns="http://www.w3.org/2000/svg" viewBox="0 0 298 298"><defs><style>.a{fill:#161212;}.b,.c{fill:none;}.b{stroke:#161212;stroke-width:1.5px;}.d{fill:#eff5ef;}.e{fill:#f0f5ef;}</style></defs><title>ALE</title><circle class="a" cx="149" cy="149" r="149"/><circle class="b" cx="149" cy="149" r="148.25"/><rect class="c" x="44.97" y="44.66" width="209.2" height="209.2" transform="translate(-61.73 149.48) rotate(-45)"/><rect class="c" x="46.47" y="46.16" width="206.2" height="206.2" transform="translate(-61.73 149.48) rotate(-45)"/><path class="c" d="M95.23,95.15,149.85,0l54.56,202.56-54.9,94.52Z" transform="translate(0 0)"/><path class="d" d="M149.18,5.19,97.38,95.43l52.81,196.49,52.08-89.64L149.18,5.19M149.85,0l54.56,202.56-54.9,94.52L95.23,95.15Z" transform="translate(0 0)"/><path class="c" d="M96.51,94.31l199.31,54.88-92.25,54.37L3.11,149.24Z" transform="translate(0 0)"/><path class="e" d="M96.65,95.38l-91,53.52,197.77,53.58,89.85-53L96.65,95.38m-.14-1.07,199.31,54.88-92.25,54.37L3.11,149.24Z" transform="translate(0 0)"/></svg>