<?xml version="1.0" encoding="UTF-8"?>
<svg xmlns="http://www.w3.org/2000/svg" xmlns:xlink="http://www.w3.org/1999/xlink" width="64pt" height="61pt" viewBox="0 0 64 61" version="1.1">
<defs>
<linearGradient id="linear0" gradientUnits="userSpaceOnUse" x1="0" y1="0" x2="1" y2="0" gradientTransform="matrix(30.519531,0,0,41.929687,16.640625,2.15625)">
<stop offset="0" style="stop-color:rgb(0%,86.666667%,100%);stop-opacity:1;"/>
<stop offset="1" style="stop-color:rgb(100%,0%,83.137255%);stop-opacity:1;"/>
</linearGradient>
<linearGradient id="linear1" gradientUnits="userSpaceOnUse" x1="0" y1="0" x2="1" y2="0" gradientTransform="matrix(2.78125,0,0,4.058594,36.410156,28.308594)">
<stop offset="0" style="stop-color:rgb(0%,86.666667%,100%);stop-opacity:1;"/>
<stop offset="1" style="stop-color:rgb(100%,0%,83.137255%);stop-opacity:1;"/>
</linearGradient>
<linearGradient id="linear2" gradientUnits="userSpaceOnUse" x1="0" y1="0" x2="1" y2="0" gradientTransform="matrix(59.738281,0,0,10.335937,2.132812,48.515625)">
<stop offset="0" style="stop-color:rgb(17.647059%,21.960784%,54.117647%);stop-opacity:1;"/>
<stop offset="1" style="stop-color:rgb(0%,68.235294%,93.72549%);stop-opacity:1;"/>
</linearGradient>
</defs>
<g id="surface1">
<path style=" stroke:none;fill-rule:evenodd;fill:url(#linear0);" d="M 29.039062 14.367188 C 29.164062 14.597656 28.957031 14.777344 29.089844 15.011719 C 29.589844 14.089844 29.707031 13.0625 30.121094 12.128906 C 30.179688 12.640625 30.109375 13.160156 30.285156 13.703125 C 31.394531 12.851562 32.613281 12.207031 33.753906 11.441406 C 34.21875 11.132812 34.476562 10.625 34.726562 10.136719 C 35.609375 8.410156 36.265625 6.582031 37.082031 4.828125 C 37.523438 3.878906 37.996094 2.949219 38.714844 2.15625 C 38.433594 2.980469 38.144531 3.804688 37.871094 4.632812 C 37.367188 6.164062 36.90625 7.707031 36.652344 9.304688 C 36.480469 10.394531 36.597656 11.460938 36.847656 12.519531 C 36.878906 12.644531 36.917969 12.769531 36.96875 12.953125 C 36.28125 12.804688 35.640625 12.707031 35.027344 12.519531 C 34.695312 12.417969 34.445312 12.484375 34.171875 12.636719 C 32.007812 13.832031 30.5 15.648438 29.371094 17.828125 C 28.195312 20.109375 27.984375 22.460938 28.765625 24.910156 C 28.871094 25.246094 28.863281 25.59375 28.804688 25.929688 C 28.714844 26.453125 28.519531 26.53125 27.648438 26.472656 C 27.621094 26.671875 27.773438 26.773438 27.875 26.890625 C 28.125 27.175781 28.382812 27.5 28.808594 27.410156 C 29.226562 27.324219 29.28125 26.902344 29.371094 26.5625 C 29.707031 25.277344 29.753906 23.957031 29.757812 22.636719 C 29.761719 22.089844 29.761719 21.546875 29.820312 20.976562 C 30.347656 21.476562 30.679688 22.09375 30.964844 22.738281 C 31.851562 24.730469 32.398438 26.835938 32.902344 28.949219 C 33.144531 29.976562 33.773438 30.667969 34.496094 31.359375 C 34.558594 31.160156 34.382812 31.097656 34.324219 30.980469 C 34.257812 30.84375 34.148438 30.726562 34.082031 30.585938 C 33.957031 30.324219 33.796875 30.019531 34.011719 29.765625 C 34.246094 29.496094 34.5625 29.660156 34.8125 29.789062 C 35.832031 30.304688 36.769531 30.960938 37.6875 31.644531 C 41.511719 34.496094 44.6875 37.957031 47.160156 42.058594 C 47.800781 43.121094 47.71875 42.851562 46.808594 43.378906 C 45.253906 44.269531 43.570312 44.339844 41.855469 44.085938 C 40.578125 43.898438 39.3125 43.652344 38.066406 43.296875 C 37.617188 43.171875 37.207031 43.023438 36.859375 42.683594 C 36.621094 42.449219 36.3125 42.292969 35.851562 42.238281 C 36.238281 42.519531 36.644531 42.578125 36.886719 42.90625 C 34.355469 43.386719 27.53125 40.203125 26.039062 37.835938 C 26.457031 37.820312 26.851562 37.746094 27.238281 37.644531 C 27.628906 37.542969 28.011719 37.621094 28.410156 37.664062 C 27.972656 37.28125 27.460938 37.078125 26.882812 37.121094 C 24.320312 37.3125 21.753906 37.4375 19.195312 37.089844 C 18.34375 36.972656 17.515625 36.757812 16.640625 36.339844 C 18.523438 35.75 20.273438 35.101562 21.953125 34.28125 C 22.738281 33.894531 23.496094 33.46875 23.949219 32.671875 C 24.339844 32.871094 24.566406 33.230469 24.929688 33.4375 C 24.425781 32.640625 23.65625 32.042969 23.253906 31.152344 C 23.152344 31.699219 23.351562 32.269531 23.105469 32.804688 C 22.25 31.867188 21.945312 27.863281 22.601562 24.507812 C 23.421875 20.296875 25.5 16.859375 29.039062 14.367188 Z M 27.289062 25.882812 C 25.867188 23.019531 26.28125 20.246094 27.601562 17.503906 C 27.519531 17.527344 27.476562 17.554688 27.457031 17.59375 C 26.425781 19.335938 25.832031 21.203125 26.085938 23.242188 C 26.210938 24.207031 26.386719 25.21875 27.289062 25.882812 Z M 40.011719 42.007812 C 41.789062 43.511719 45.570312 44.074219 46.832031 43.011719 C 44.453125 43.328125 42.257812 42.921875 40.011719 42.007812 Z M 38.304688 40.996094 C 37.378906 40.320312 36.710938 39.148438 35.34375 39.457031 C 35.449219 39.679688 35.84375 39.542969 35.941406 39.808594 C 36.367188 40.972656 37.363281 40.925781 38.304688 40.996094 Z M 30.855469 38.347656 C 30.53125 37.511719 30.742188 36.746094 31.234375 35.921875 C 30.480469 36.5625 30.347656 37.566406 30.855469 38.347656 Z M 28.804688 34.753906 C 28.214844 35.324219 28.09375 36.148438 28.507812 36.820312 C 28.300781 36.089844 28.484375 35.417969 28.804688 34.753906 Z M 29.546875 37.539062 C 29.246094 36.785156 29.59375 36.136719 29.890625 35.398438 C 29.25 36.035156 29.121094 36.871094 29.546875 37.539062 Z M 29.546875 37.539062 "/>
<path style=" stroke:none;fill-rule:evenodd;fill:url(#linear1);" d="M 39.191406 28.308594 C 39.5 29.132812 39.449219 30.996094 39.078125 32.367188 C 38.195312 31.734375 37.335938 31.117188 36.410156 30.457031 C 37.6875 30.164062 38.585938 29.480469 39.191406 28.308594 Z M 39.191406 28.308594 "/>
<path style=" stroke:none;fill-rule:nonzero;fill:url(#linear2);" d="M 8.011719 49.960938 L 12.394531 49.960938 L 12.394531 51.488281 L 8.011719 51.488281 L 8.011719 52.921875 L 10.015625 52.929688 C 10.96875 52.929688 12.394531 53.527344 12.394531 55.167969 C 12.394531 56.808594 11.070312 57.40625 10.179688 57.40625 L 8.011719 57.40625 L 8.011719 58.847656 L 6.515625 58.851562 L 6.515625 57.40625 L 2.132812 57.40625 L 2.132812 55.878906 L 6.515625 55.878906 L 6.515625 54.441406 L 4.515625 54.433594 L 4.515625 54.4375 C 3.558594 54.4375 2.132812 53.839844 2.132812 52.199219 C 2.132812 50.558594 3.457031 49.960938 4.347656 49.960938 L 6.515625 49.960938 L 6.515625 48.515625 L 8.011719 48.515625 Z M 4.519531 52.910156 L 6.515625 52.917969 L 6.515625 51.488281 L 4.355469 51.488281 C 4.289062 51.492188 4.089844 51.515625 3.929688 51.605469 C 3.789062 51.683594 3.644531 51.816406 3.644531 52.199219 C 3.644531 52.496094 3.738281 52.660156 3.984375 52.777344 C 4.230469 52.898438 4.507812 52.90625 4.519531 52.910156 Z M 10.003906 54.457031 L 8.011719 54.449219 L 8.011719 55.878906 L 10.171875 55.878906 C 10.238281 55.875 10.433594 55.851562 10.597656 55.757812 C 10.738281 55.679688 10.882812 55.550781 10.882812 55.167969 C 10.882812 54.871094 10.785156 54.707031 10.542969 54.589844 C 10.296875 54.46875 10.019531 54.457031 10.003906 54.457031 Z M 16.339844 51.480469 C 16.199219 51.558594 16.054688 51.691406 16.054688 52.070312 C 16.054688 52.367188 16.152344 52.53125 16.394531 52.652344 C 16.640625 52.773438 16.917969 52.78125 16.933594 52.78125 L 22.425781 52.804688 C 23.378906 52.804688 24.804688 53.398438 24.804688 55.039062 C 24.804688 56.683594 23.480469 57.277344 22.589844 57.277344 L 14.542969 57.277344 L 14.542969 55.75 L 22.582031 55.75 C 22.648438 55.746094 22.847656 55.722656 23.007812 55.632812 C 23.148438 55.554688 23.292969 55.421875 23.292969 55.039062 C 23.292969 54.742188 23.195312 54.582031 22.953125 54.460938 C 22.707031 54.339844 22.429688 54.332031 22.414062 54.332031 L 16.925781 54.304688 L 16.925781 54.308594 C 15.96875 54.308594 14.542969 53.714844 14.542969 52.070312 C 14.542969 50.429688 15.867188 49.835938 16.757812 49.835938 L 24.804688 49.835938 L 24.804688 51.363281 L 16.765625 51.363281 C 16.699219 51.363281 16.5 51.390625 16.339844 51.480469 Z M 35.703125 49.925781 L 37.214844 49.925781 L 37.214844 57.347656 L 35.703125 57.347656 L 35.703125 54.402344 L 28.46875 54.402344 L 28.46875 57.347656 L 26.957031 57.347656 L 26.957031 49.925781 L 28.46875 49.925781 L 28.46875 52.875 L 35.703125 52.875 Z M 48.589844 55.742188 L 49.335938 55.730469 L 49.359375 57.242188 L 48.613281 57.253906 C 48.496094 57.257812 48.363281 57.257812 48.21875 57.257812 C 47.179688 57.257812 45.515625 57.15625 44.460938 56.105469 C 43.992188 55.640625 43.699219 55.046875 43.582031 54.335938 L 40.875 54.335938 L 40.863281 57.257812 L 39.367188 57.25 L 39.390625 50.664062 L 39.390625 49.90625 L 39.394531 49.90625 L 39.394531 49.902344 L 40.140625 49.90625 L 47.191406 49.90625 C 48.136719 49.90625 49.546875 50.496094 49.546875 52.121094 C 49.546875 53.746094 48.238281 54.335938 47.355469 54.335938 L 45.113281 54.335938 C 45.195312 54.613281 45.328125 54.84375 45.511719 55.027344 C 46.265625 55.777344 47.835938 55.753906 48.589844 55.742188 Z M 40.886719 52.824219 L 47.351562 52.824219 C 47.417969 52.820312 47.609375 52.796875 47.773438 52.707031 C 47.910156 52.628906 48.054688 52.5 48.054688 52.121094 C 48.054688 51.816406 47.949219 51.652344 47.691406 51.535156 C 47.453125 51.425781 47.191406 51.417969 47.191406 51.417969 L 40.886719 51.417969 Z M 61.851562 55.78125 L 61.871094 57.296875 L 61.125 57.304688 C 61.007812 57.308594 60.875 57.308594 60.734375 57.308594 C 59.699219 57.308594 58.035156 57.207031 56.984375 56.160156 C 56.484375 55.664062 56.183594 55.023438 56.082031 54.25 C 55.53125 54.332031 54.929688 54.375 54.265625 54.375 L 53.210938 54.375 L 53.210938 57.292969 L 51.714844 57.292969 L 51.714844 49.945312 L 53.210938 49.945312 L 53.210938 52.863281 L 54.265625 52.863281 C 57.328125 52.863281 58.933594 51.804688 58.933594 50.761719 L 58.933594 50.003906 L 60.429688 50.003906 L 60.429688 50.761719 C 60.429688 52.003906 59.519531 53.253906 57.550781 53.910156 C 57.589844 54.414062 57.75 54.800781 58.035156 55.082031 C 58.785156 55.828125 60.351562 55.804688 61.101562 55.792969 Z M 61.851562 55.78125 "/>
</g>
</svg>
