<svg width="300" height="300" viewBox="0 0 300 300" fill="none" xmlns="http://www.w3.org/2000/svg">
<path d="M258.125 0H41.875C18.7481 0 0 18.7481 0 41.875V258.125C0 281.252 18.7481 300 41.875 300H258.125C281.252 300 300 281.252 300 258.125V41.875C300 18.7481 281.252 0 258.125 0Z" fill="black"/>
<path d="M173.949 105.025L154.249 38.4254C152.924 33.9755 146.674 33.9505 145.299 38.3754L124.924 105.05C124.56 106.233 123.743 107.222 122.652 107.804C121.56 108.385 120.282 108.509 119.099 108.15C118.612 108.021 118.154 107.801 117.749 107.5L75.3738 77.2254C71.8238 74.6754 67.0238 78.0004 68.1738 82.2504L84.0488 140.75C84.2337 141.438 84.5724 142.075 85.0392 142.612C85.5061 143.15 86.089 143.574 86.7439 143.853C87.3988 144.133 88.1086 144.26 88.8197 144.224C89.5308 144.189 90.2247 143.993 90.8488 143.65C136.124 119.425 163.649 119.475 208.824 143.65C209.372 143.948 209.973 144.135 210.593 144.199C211.213 144.264 211.84 144.205 212.437 144.026C213.034 143.847 213.59 143.551 214.073 143.157C214.555 142.762 214.955 142.275 215.249 141.725C215.423 141.419 215.557 141.091 215.649 140.75L231.549 82.1004C232.699 77.8754 227.949 74.5504 224.374 77.0754L181.099 107.525C180.596 107.878 180.028 108.127 179.428 108.259C178.828 108.39 178.208 108.402 177.604 108.293C177 108.183 176.423 107.955 175.907 107.622C175.391 107.289 174.947 106.857 174.599 106.35C174.308 105.949 174.088 105.501 173.949 105.025Z" fill="url(#paint0_linear)"/>
<path fill-rule="evenodd" clip-rule="evenodd" d="M26.9516 199.874C32.4266 197.274 40.8516 192.924 51.7516 186.199C55.9016 183.674 60.6266 180.274 65.9266 176.474C86.4766 161.774 115.327 141.074 150.002 141.074C184.677 141.074 213.527 161.774 234.052 176.474C239.352 180.274 244.077 183.674 248.227 186.199C259.127 192.924 267.577 197.274 273.027 199.874C275.477 201.024 275.477 204.999 273.027 206.149C267.577 208.749 259.127 213.099 248.227 219.799C244.077 222.349 239.352 225.749 234.052 229.524C213.527 244.249 184.652 264.924 150.002 264.924C115.352 264.924 86.4766 244.249 65.9266 229.524C60.6266 225.749 55.9016 222.349 51.7516 219.799C40.8516 213.099 32.4266 208.749 26.9516 206.149C24.5266 204.999 24.5266 201.024 26.9516 199.874ZM149.877 244.424C161.002 244.424 171.673 240.005 179.54 232.137C187.407 224.27 191.827 213.6 191.827 202.474V202.474C191.827 179.299 173.052 160.499 149.877 160.499C138.744 160.499 128.068 164.922 120.196 172.793C112.324 180.665 107.902 191.342 107.902 202.474V202.474C107.902 225.649 126.702 244.424 149.877 244.424Z" fill="url(#paint1_linear)"/>
<defs>
<linearGradient id="paint0_linear" x1="68.0038" y1="89.6479" x2="231.726" y2="89.6479" gradientUnits="userSpaceOnUse">
<stop stop-color="#40E0D0"/>
<stop offset="0.53" stop-color="#FF8C00"/>
<stop offset="1" stop-color="#FF0080"/>
</linearGradient>
<linearGradient id="paint1_linear" x1="25133.1" y1="48193.6" x2="274595" y2="48193.6" gradientUnits="userSpaceOnUse">
<stop stop-color="#40E0D0"/>
<stop offset="0.53" stop-color="#FF8C00"/>
<stop offset="1" stop-color="#FF0080"/>
</linearGradient>
</defs>
</svg>
