<svg id="Layer_1" data-name="Layer 1" xmlns="http://www.w3.org/2000/svg" xmlns:xlink="http://www.w3.org/1999/xlink" viewBox="0 0 1200 1200"><defs><style>.cls-1{fill:url(#linear-gradient);}.cls-2{fill-rule:evenodd;fill:url(#linear-gradient-2);}</style><linearGradient id="linear-gradient" x1="272.02" y1="841.41" x2="926.91" y2="841.41" gradientTransform="matrix(1, 0, 0, -1, 0, 1200)" gradientUnits="userSpaceOnUse"><stop offset="0" stop-color="#40e0d0"/><stop offset="0.53" stop-color="#ff8c00"/><stop offset="1" stop-color="#ff0080"/></linearGradient><linearGradient id="linear-gradient-2" x1="100.54" y1="387.99" x2="1099.46" y2="387.99" xlink:href="#linear-gradient"/></defs><rect width="1200" height="1200" rx="167.5"/><path class="cls-1" d="M695.8,420.1,617,153.7c-5.3-17.8-30.3-17.9-35.8-.2L499.7,420.2a18.7,18.7,0,0,1-23.3,12.4A15.9,15.9,0,0,1,471,430L301.5,308.9c-14.2-10.2-33.4,3.1-28.8,20.1l63.5,234a18.8,18.8,0,0,0,27.2,11.6c181.1-96.9,291.2-96.7,471.9,0a18.9,18.9,0,0,0,25.7-7.7,16.8,16.8,0,0,0,1.6-3.9l63.6-234.6c4.6-16.9-14.4-30.2-28.7-20.1L724.4,430.1a18.6,18.6,0,0,1-26-4.7A17.4,17.4,0,0,1,695.8,420.1Z"/><path class="cls-2" d="M107.8,799.5c21.9-10.4,55.6-27.8,99.2-54.7,16.6-10.1,35.5-23.7,56.7-38.9C345.9,647.1,461.3,564.3,600,564.3s254.1,82.8,336.2,141.6h0c21.2,15.2,40.1,28.8,56.7,38.9,43.6,26.9,77.4,44.3,99.2,54.7,9.8,4.6,9.8,20.5,0,25.1-21.8,10.4-55.6,27.8-99.2,54.6-16.6,10.2-35.5,23.8-56.7,38.9C854.1,977,738.6,1059.7,600,1059.7S345.9,977,263.7,918.1h0c-21.2-15.1-40.1-28.7-56.7-38.9-43.6-26.8-77.3-44.2-99.2-54.6C98.1,820,98.1,804.1,107.8,799.5ZM599.5,977.7A167.8,167.8,0,0,0,767.3,809.9h0c0-92.7-75.1-167.9-167.8-167.9A167.9,167.9,0,0,0,431.6,809.9h0C431.6,902.6,506.8,977.7,599.5,977.7Z"/></svg>