<?xml version="1.0" encoding="UTF-8"?>
<svg width="30" height="30" version="1.1" viewBox="0 0 100 100" xmlns="http://www.w3.org/2000/svg">
<g transform="matrix(1 0 0 -1 -26 126)">
<g transform="scale(.1)">
<path d="m1260 773.42h-85.18c-7.03 217.05-184.35 394.36-401.4 401.39v85.19h-26.836v-85.19c-217.05-7.03-394.38-184.34-401.41-401.39h-85.176v-26.836h85.176c7.031-217.05 184.36-394.36 401.41-401.39v-85.191h26.836v85.191c217.05 7.028 394.37 184.34 401.4 401.39h85.18v26.836" fill="#fff"/>
<path d="m452.12 942.51 307.88-177.75 307.87 177.75-307.87 177.76-307.88-177.76" fill="#81d6f7"/>
<path d="m1075.3 929.6-307.88-177.75v-355.51l307.88 177.74v355.52" fill="#316bbd"/>
<path d="m444.67 574.08 307.87-177.74v355.51l-307.87 177.75v-355.52" fill="#469fde"/>
<path d="m760 785.59c-4.441 0-8.047 3.391-8.047 7.844v0.398c0 4.442 3.606 8.035 8.047 8.035s8.047-3.593 8.047-8.035c0-4.453-3.606-8.242-8.047-8.242" fill="#316bbd"/>
<path d="m760 1040.6c-4.441 0-8.047 3.59-8.047 8.05v0.82c0 4.45 3.606 8.05 8.047 8.05s8.047-3.6 8.047-8.05v-0.82c0-4.46-3.606-8.05-8.047-8.05zm0-42.599c-4.441 0-8.047 3.589-8.047 8.049v0.83c0 4.44 3.606 8.04 8.047 8.04s8.047-3.6 8.047-8.04v-0.83c0-4.46-3.606-8.049-8.047-8.049zm0-42.609c-4.441 0-8.047 3.593-8.047 8.046v0.84c0 4.446 3.606 8.035 8.047 8.035s8.047-3.589 8.047-8.035v-0.84c0-4.453-3.606-8.046-8.047-8.046zm0-42.598c-4.441 0-8.047 3.594-8.047 8.047v0.832c0 4.441 3.606 8.047 8.047 8.047s8.047-3.606 8.047-8.047v-0.832c0-4.453-3.606-8.047-8.047-8.047zm0-42.609c-4.441 0-8.047 3.593-8.047 8.046v0.84c0 4.446 3.606 8.039 8.047 8.039s8.047-3.593 8.047-8.039v-0.84c0-4.453-3.606-8.046-8.047-8.046zm0-42.594c-4.441 0-8.047 3.594-8.047 8.047v0.828c0 4.441 3.606 8.039 8.047 8.039s8.047-3.598 8.047-8.039v-0.828c0-4.453-3.606-8.047-8.047-8.047" fill="#316bbd"/>
<path d="m760 1083.4c-4.441 0-8.047 3.4-8.047 7.84v0.4c0 4.45 3.606 8.05 8.047 8.05s8.047-3.6 8.047-8.05c0-4.44-3.606-8.24-8.047-8.24" fill="#316bbd"/>
<path d="m727.37 729.27c-2.793 0-5.516 1.46-6.988 4.07-2.199 3.867-0.852 8.769 3.015 10.969 3.86 2.214 8.957 0.933 11.133-2.922 2.199-3.86 1.028-8.672-2.843-10.867l-0.34-0.2c-1.258-0.711-2.625-1.05-3.977-1.05" fill="#81d6f7"/>
<path d="m690.48 707.97c-2.777 0-5.492 1.445-6.972 4.023-2.231 3.86-0.903 8.77 2.945 10.988l0.727 0.418c3.855 2.215 8.777 0.887 10.984-2.96 2.227-3.844 0.899-8.766-2.949-10.973l-0.723-0.422c-1.269-0.73-2.656-1.074-4.012-1.074zm-36.894-21.309c-2.785 0-5.488 1.445-6.977 4.031-2.222 3.852-0.894 8.774 2.954 10.989l0.718 0.41c3.852 2.226 8.782 0.898 10.989-2.949 2.214-3.848 0.886-8.77-2.957-10.989l-0.723-0.41c-1.262-0.73-2.649-1.082-4.004-1.082zm-36.898-21.301c-2.75 0-5.438 1.418-6.942 3.977-2.246 3.828-0.969 8.762 2.859 11.008l0.723 0.418c3.82 2.265 8.762 0.968 11.008-2.864 2.246-3.828 0.969-8.757-2.859-11.003l-0.723-0.43c-1.274-0.75-2.68-1.106-4.066-1.106zm-36.883-21.296c-2.785 0-5.496 1.445-6.985 4.035-2.215 3.843-0.886 8.765 2.961 10.972l0.723 0.422c3.848 2.227 8.769 0.899 10.976-2.949 2.227-3.855 0.899-8.77-2.949-10.984l-0.722-0.422c-1.27-0.723-2.649-1.074-4.004-1.074zm-36.907-21.297c-2.769 0-5.488 1.445-6.968 4.019-2.219 3.86-0.903 8.774 2.957 10.988l0.722 0.418c3.86 2.219 8.758 0.879 10.977-2.957 2.227-3.847 0.898-8.769-2.949-10.976l-0.723-0.418c-1.269-0.735-2.644-1.074-4.016-1.074zm-36.89-21.313c-2.778 0-5.488 1.445-6.977 4.035-2.222 3.848-0.894 8.77 2.949 10.977l0.723 0.422c3.86 2.234 8.774 0.894 10.988-2.949 2.227-3.86 0.899-8.77-2.949-10.989l-0.722-0.422c-1.27-0.718-2.657-1.074-4.012-1.074" fill="#81d6f7"/>
<path d="m469.49 580.37c-2.781 0-5.488 1.445-6.98 4.024-2.219 3.847-0.903 8.769 2.949 10.996 3.848 2.214 8.934 0.996 11.16-2.852 2.227-3.84 1.082-8.66-2.766-10.891l-0.347-0.195c-1.274-0.73-2.649-1.082-4.016-1.082" fill="#81d6f7"/>
<path d="m792.62 729.27c-1.347 0-2.715 0.339-3.965 1.05-3.867 2.192-5.39 7.207-3.191 11.067 2.184 3.867 6.91 5.312 10.789 3.117l0.352-0.195c3.859-2.2 5.214-7.102 3.007-10.969-1.472-2.61-4.199-4.07-6.992-4.07" fill="#469fde"/>
<path d="m829.51 707.97c-1.36 0-2.742 0.344-4.004 1.074l-0.723 0.422c-3.847 2.207-5.176 7.129-2.961 10.973 2.207 3.847 7.141 5.175 10.989 2.96l0.722-0.418c3.848-2.218 5.176-7.128 2.949-10.988-1.484-2.578-4.187-4.023-6.972-4.023zm36.894-21.309c-1.355 0-2.746 0.352-4.004 1.082l-0.722 0.41c-3.848 2.219-5.176 7.141-2.957 10.989 2.207 3.847 7.136 5.175 10.984 2.949l0.723-0.41c3.847-2.215 5.175-7.137 2.949-10.989-1.484-2.586-4.191-4.031-6.973-4.031zm36.895-21.301c-1.375 0-2.781 0.356-4.063 1.106l-0.722 0.43c-3.828 2.246-5.11 7.175-2.864 11.003 2.258 3.832 7.168 5.129 11.008 2.864l0.723-0.418c3.828-2.246 5.105-7.18 2.859-11.008-1.492-2.559-4.179-3.977-6.941-3.977zm36.894-21.296c-1.367 0-2.746 0.351-4.011 1.074l-0.723 0.422c-3.852 2.214-5.18 7.129-2.949 10.984 2.215 3.848 7.129 5.176 10.972 2.949l0.727-0.422c3.855-2.207 5.184-7.129 2.957-10.972-1.484-2.59-4.199-4.035-6.973-4.035zm36.895-21.297c-1.36 0-2.742 0.339-4.016 1.074l-0.719 0.418c-3.847 2.207-5.175 7.129-2.953 10.976 2.219 3.836 7.129 5.176 10.989 2.957l0.722-0.418c3.848-2.214 5.176-7.128 2.95-10.988-1.485-2.574-4.2-4.019-6.973-4.019zm36.89-21.313c-1.35 0-2.74 0.356-4 1.074l-0.72 0.422c-3.85 2.219-5.18 7.129-2.96 10.989 2.22 3.843 7.13 5.183 10.99 2.949l0.72-0.422c3.85-2.207 5.17-7.129 2.95-10.977-1.49-2.59-4.19-4.035-6.98-4.035" fill="#469fde"/>
<path d="m1050.5 580.37c-1.39 0-2.79 0.359-4.08 1.121-3.83 2.258-5.27 7.297-3.01 11.125 2.27 3.821 7.02 5.188 10.85 2.93l0.34-0.203c3.83-2.258 5.1-7.192 2.84-11.02-1.51-2.539-4.19-3.953-6.94-3.953" fill="#469fde"/>
</g>
</g>
</svg>
