<svg width="100" height="100" viewBox="0 0 133 107" fill="none" xmlns="http://www.w3.org/2000/svg">
<path d="M0 32.2411H2.01919C14.9344 32.2411 27.8877 32.279 40.841 32.2031C42.2126 32.2031 42.784 32.5824 43.1269 33.9858C49.3369 57.7299 55.6611 81.436 61.9092 105.18C62.0235 105.597 62.0616 106.015 62.2521 107.001L0 32.2411Z" fill="black"/>
<path d="M133.038 32.2409L71.3957 106.28L70.9766 106.052L73.491 96.3802C78.9264 75.7211 84.3743 55.0367 89.8351 34.327C90.2541 32.734 90.8637 32.165 92.6162 32.2029C105.341 32.2788 118.028 32.2409 130.714 32.2409H133.038Z" fill="black"/>
<path d="M85.949 32.3926C79.5486 56.5918 73.1608 80.7531 66.7857 104.876L66.3286 104.952C59.9662 80.791 53.5657 56.6677 47.1653 32.3926H85.949Z" fill="black"/>
<path d="M22.7825 1.59277L40.2314 27.8402H0.19043L22.7825 1.59277Z" fill="black"/>
<path d="M110.294 1.63086L132.809 27.8024H92.8828C98.7118 19.0786 104.388 10.5064 110.294 1.63086Z" fill="black"/>
<path d="M48.4987 27.8021L66.5571 1.55469L84.5774 27.8021H48.4987Z" fill="black"/>
<path d="M62.3283 0.0380859L44.3461 26.2097L26.9353 0.0380859H62.3283Z" fill="black"/>
<path d="M70.7479 0H106.179L88.7302 26.2095L70.7479 0Z" fill="black"/>
</svg>
