<?xml version="1.0" standalone="no"?>
<!DOCTYPE svg PUBLIC "-//W3C//DTD SVG 20010904//EN"
 "http://www.w3.org/TR/2001/REC-SVG-20010904/DTD/svg10.dtd">
<svg version="1.0" xmlns="http://www.w3.org/2000/svg"
 width="400.000000pt" height="400.000000pt" viewBox="0 0 400.000000 400.000000"
 preserveAspectRatio="xMidYMid meet">
<metadata>
Created by potrace 1.16, written by Peter Selinger 2001-2019
</metadata>
<g transform="translate(0.000000,400.000000) scale(0.100000,-0.100000)"
fill="#000000" stroke="none">
<path d="M1613 3426 c-15 -12 -35 -26 -43 -30 -8 -3 -4 -4 9 -2 18 4 21 2 12
-7 -6 -6 -33 -12 -59 -13 -26 -1 -48 -3 -49 -4 -2 -1 -7 -3 -12 -4 -30 -4 -31
-75 -2 -151 11 -27 27 -75 35 -105 10 -37 26 -66 47 -85 18 -17 29 -24 24 -16
-5 9 -3 12 6 9 8 -3 13 -11 11 -17 -4 -19 84 -68 154 -85 37 -9 68 -15 71 -13
2 3 -26 12 -63 21 -70 18 -130 44 -121 53 3 3 16 -2 28 -11 13 -8 56 -23 97
-32 113 -25 130 -48 157 -214 17 -101 20 -374 4 -419 l-11 -31 -22 42 c-20 40
-24 43 -68 46 -27 2 -52 10 -60 19 -12 15 -11 15 9 5 37 -20 37 -13 0 12 -46
32 -77 48 -77 42 0 -3 14 -13 31 -21 17 -9 29 -19 26 -21 -7 -8 -77 37 -72 46
6 10 -25 29 -170 105 -60 32 -117 63 -125 69 -13 10 -13 9 0 -8 12 -15 12 -18
1 -15 -7 3 -26 41 -42 84 -104 298 -101 287 -96 349 5 55 9 62 57 111 49 49
50 53 39 81 -7 16 -13 33 -13 38 -1 5 -8 11 -16 13 -12 4 -12 3 -1 -5 9 -7 5
-11 -20 -14 -29 -5 -30 -4 -14 9 11 7 14 13 8 13 -6 0 -33 -21 -60 -47 -26
-27 -61 -53 -78 -60 -16 -6 -25 -12 -18 -12 6 -1 23 3 38 9 16 6 24 6 20 0 -9
-14 -65 -26 -210 -45 -71 -9 -138 -21 -148 -27 -11 -5 -21 -7 -24 -5 -12 12
43 28 134 38 54 6 100 13 103 16 5 5 -43 1 -162 -13 -35 -4 -61 -16 -98 -46
-27 -22 -50 -45 -50 -51 0 -6 17 5 38 23 20 19 12 9 -18 -23 -30 -31 -59 -57
-65 -57 -5 0 4 11 20 25 17 13 25 24 19 25 -6 0 -21 -11 -34 -25 -12 -13 -40
-36 -61 -51 -21 -14 -36 -30 -33 -35 2 -5 -37 -29 -88 -55 -51 -25 -88 -41
-83 -35 6 6 43 26 83 46 39 19 72 37 72 39 0 9 -125 -53 -153 -76 -17 -14 -50
-71 -86 -148 -32 -69 -81 -162 -109 -208 -29 -46 -52 -89 -51 -95 0 -7 3 -5 7
3 19 41 75 130 79 126 3 -3 -11 -31 -31 -63 -41 -67 -56 -132 -56 -247 0 -119
17 -208 55 -300 7 -15 5 -17 -6 -11 -8 5 -11 5 -6 -1 5 -5 12 -9 15 -9 4 0 13
-4 20 -9 26 -16 35 9 22 61 -11 41 -10 57 4 103 38 127 119 247 214 316 66 49
117 65 214 67 l77 2 51 -50 c48 -47 121 -156 135 -200 4 -11 -5 -2 -18 20 -67
107 -84 133 -115 167 -57 64 -146 72 -271 26 -85 -32 -177 -129 -234 -248 -41
-85 -74 -191 -47 -150 5 8 10 25 10 36 0 12 21 64 47 115 87 175 203 260 358
263 95 1 109 -8 193 -130 7 -11 26 -43 42 -71 17 -29 35 -52 41 -50 5 1 24
-30 41 -70 34 -80 46 -84 73 -23 18 41 81 108 91 98 3 -4 -4 -12 -16 -18 -22
-12 -80 -95 -80 -114 0 -6 13 12 29 40 16 28 41 58 55 68 14 9 25 21 23 27 -3
16 82 48 131 48 24 1 63 -4 87 -10 l44 -11 -28 -24 c-16 -13 -33 -24 -37 -24
-5 1 2 9 14 20 l24 20 -27 10 c-38 15 -95 12 -149 -6 -26 -9 -45 -18 -43 -20
2 -2 23 3 47 11 44 16 106 20 135 9 12 -5 0 -23 -57 -83 -40 -42 -82 -79 -93
-83 -20 -6 -20 -6 1 -7 11 -1 26 5 34 12 12 10 12 9 1 -5 -7 -10 -19 -18 -25
-18 -33 0 -91 -25 -123 -53 l-37 -32 24 35 c19 28 13 25 -28 -17 -49 -50 -67
-93 -43 -107 4 -3 6 5 4 18 -3 14 0 32 6 43 11 16 11 16 6 -4 -9 -33 1 -56 34
-76 45 -27 61 -22 61 17 0 20 6 36 14 39 19 8 25 0 18 -26 -5 -19 -6 -19 -12
-2 -3 10 -7 -10 -8 -43 -2 -59 -1 -62 29 -77 16 -9 44 -14 62 -12 29 3 33 7
37 42 7 57 28 56 33 -2 l3 -48 2 53 c2 46 0 52 -19 52 -11 0 -18 4 -15 9 3 5
15 7 26 4 15 -4 20 -14 20 -39 0 -24 6 -37 21 -44 11 -7 18 -14 15 -17 -3 -3
-12 0 -21 7 -12 10 -15 10 -15 -4 0 -21 32 -21 73 0 18 9 27 11 21 4 -6 -6
-29 -18 -50 -25 -22 -8 -31 -14 -21 -15 23 0 55 16 85 43 19 18 22 31 22 93 0
63 -3 76 -25 102 -14 17 -25 34 -25 39 0 19 79 85 103 86 14 1 25 7 24 12 -1
6 12 11 29 13 27 3 33 -2 48 -31 17 -38 22 -122 7 -131 -5 -4 -11 -2 -13 4 -4
13 -103 -138 -124 -189 -12 -30 -33 -53 -78 -85 -33 -24 -76 -62 -94 -84 -29
-37 -35 -40 -58 -32 -14 6 -33 10 -42 9 -9 0 3 -6 27 -14 41 -13 45 -13 62 8
10 12 18 17 19 11 0 -6 -8 -18 -17 -26 -16 -14 -27 -14 -108 4 -133 28 -220
21 -315 -24 -41 -20 -76 -35 -78 -33 -2 2 10 11 27 20 17 8 31 18 31 21 0 9
-69 -34 -116 -72 -50 -42 -169 -194 -151 -194 3 0 19 23 37 50 18 28 35 48 38
45 3 -2 -2 -13 -10 -22 -37 -42 -80 -129 -85 -174 -4 -37 -1 -57 16 -91 20
-40 21 -42 1 -18 -30 37 -40 84 -28 128 5 20 14 41 19 46 5 6 9 15 9 20 0 20
-28 -29 -38 -67 -6 -23 -7 -49 -2 -68 10 -35 99 -163 108 -155 3 3 -3 16 -14
28 -17 21 -17 21 8 -1 15 -13 25 -27 23 -32 -7 -10 65 -65 116 -89 30 -13 63
-19 104 -18 l60 1 -70 7 c-63 6 -165 43 -152 56 2 3 28 -7 57 -22 50 -25 59
-26 142 -20 48 4 96 10 105 13 12 5 14 3 8 -7 -11 -17 -15 -183 -5 -200 6 -10
18 -5 49 20 48 39 60 34 68 -29 5 -36 9 -40 30 -39 14 2 35 16 49 35 30 40 49
41 88 6 20 -19 24 -20 12 -5 -11 12 -14 22 -8 22 6 0 18 -9 26 -21 9 -14 19
-18 28 -13 7 5 18 9 23 9 6 0 11 20 13 44 2 26 13 59 28 80 13 20 27 52 30 72
l6 37 70 7 c38 3 68 8 65 11 -2 2 -36 1 -76 -2 -66 -6 -71 -8 -71 -31 0 -24
-25 -93 -34 -93 -3 0 2 16 10 35 7 19 14 48 14 65 0 27 3 30 33 30 46 0 228
26 394 57 l143 26 142 -31 c170 -38 256 -52 321 -52 47 0 47 0 46 -32 -2 -31
-2 -31 -6 -6 -4 25 -9 28 -41 28 -20 0 -62 3 -92 6 -30 4 -52 4 -49 0 7 -7 56
-13 121 -15 40 -1 47 -4 50 -23 2 -13 9 -23 16 -23 6 0 11 -3 10 -6 -7 -17 31
-40 107 -64 46 -14 97 -36 112 -48 21 -16 24 -17 14 -4 -13 17 -12 18 14 11
26 -6 28 -5 23 18 l-5 25 61 -24 c94 -38 100 -39 94 -17 -3 10 -9 27 -13 37
-6 15 -4 16 20 7 40 -15 48 -13 41 15 -8 31 1 33 14 3 6 -17 9 -19 9 -6 1 10
-29 48 -66 85 -37 37 -60 59 -52 48 31 -39 31 -49 1 -15 -17 19 -31 38 -32 42
0 3 21 14 48 24 75 27 204 84 241 105 18 11 35 18 38 16 6 -6 -95 -62 -137
-76 -19 -6 -46 -19 -60 -27 -27 -17 -16 -14 61 17 67 26 119 58 162 98 53 50
199 241 184 241 -3 0 -15 -16 -27 -36 -12 -19 -24 -33 -27 -30 -11 11 54 89
88 107 55 28 62 23 9 -6 -54 -29 -46 -33 9 -5 25 12 38 26 37 37 0 10 4 18 9
19 10 1 30 8 73 25 12 5 22 12 21 16 -1 5 0 24 1 43 l3 35 6 -35 7 -35 5 37
c3 21 1 34 -4 31 -5 -3 -8 0 -5 8 3 8 11 14 19 14 17 0 16 27 -3 77 -18 47
-44 76 -72 80 -16 2 -21 9 -19 31 1 15 -2 25 -8 22 -5 -4 -9 -1 -9 4 0 6 5 12
10 12 39 5 50 17 50 53 0 19 -6 38 -12 44 -13 10 -18 12 -40 12 -10 0 -10 2
-2 8 9 5 8 11 -2 20 -11 10 -14 10 -14 0 0 -9 -3 -9 -10 2 -13 20 -13 31 1 28
6 -2 18 7 26 20 12 16 12 22 3 20 -7 -2 -15 3 -18 11 -3 10 0 11 9 5 12 -7 12
-5 0 9 -7 9 -11 23 -8 32 4 8 2 17 -3 20 -6 4 -10 -6 -10 -21 0 -34 -9 -27
-12 9 -1 15 -8 27 -16 27 -7 0 -10 5 -7 10 3 6 1 10 -4 10 -6 0 -11 -9 -11
-20 0 -11 7 -20 15 -20 8 0 15 -7 15 -15 0 -8 6 -24 12 -35 10 -16 10 -24 0
-41 -17 -26 0 -75 29 -84 23 -8 36 -52 22 -74 -5 -9 -19 -20 -29 -26 -16 -8
-18 -17 -14 -45 4 -19 13 -45 21 -58 13 -21 12 -25 -8 -42 -24 -19 -30 -45
-13 -55 6 -3 10 3 10 13 0 11 7 23 16 26 22 9 24 8 24 -11 0 -13 3 -14 12 -5
18 18 36 15 43 -8 9 -29 -2 -57 -25 -63 -11 -3 -20 -10 -20 -17 0 -6 4 -9 9
-5 5 3 12 1 15 -4 10 -15 -5 -41 -23 -41 -9 0 -32 -10 -51 -22 -63 -40 -76
-45 -95 -38 -11 4 -26 3 -33 -3 -17 -14 -92 -10 -110 5 -10 9 -12 26 -7 67 4
40 2 66 -9 93 -9 21 -16 43 -16 51 0 16 40 20 40 4 0 -7 5 -4 11 6 16 26 27
20 35 -18 3 -20 15 -40 25 -46 16 -8 19 -6 19 15 0 15 -8 30 -20 36 -11 6 -22
21 -26 35 -4 15 -11 22 -20 18 -10 -4 -14 3 -14 20 0 14 -4 29 -10 32 -19 12
-10 41 19 63 44 32 68 145 36 168 -17 13 -21 44 -5 44 6 0 13 -7 16 -15 4 -8
12 -15 20 -15 8 0 14 -9 14 -20 0 -21 24 -28 35 -10 3 5 1 10 -5 10 -7 0 -10
6 -7 13 2 6 -3 18 -12 24 -14 11 -13 13 7 19 20 6 23 12 20 42 -4 34 -4 34 10
14 8 -12 19 -22 25 -22 7 0 7 4 -1 12 -12 12 -17 68 -6 68 12 0 143 -110 153
-128 5 -10 25 -81 44 -160 30 -118 34 -148 25 -178 -11 -41 5 -62 31 -41 8 7
16 10 18 9 3 -2 8 0 11 4 4 4 1 4 -5 0 -18 -10 -17 -7 20 70 l32 69 -1 175
c-1 118 -7 205 -18 265 -21 111 -72 298 -91 336 -18 34 -19 42 -2 33 8 -5 8
-2 -2 9 -15 19 -26 23 -15 6 8 -13 -25 -4 -68 18 -40 20 -34 25 8 7 20 -8 38
-13 41 -11 2 3 -13 11 -33 17 -49 17 -169 137 -211 212 -18 31 -37 59 -42 62
-30 19 75 -130 135 -191 39 -40 68 -73 64 -73 -15 0 -157 158 -173 192 -9 19
-25 42 -36 52 -11 10 -18 22 -15 27 2 4 -4 13 -15 18 -30 16 -40 12 -11 -4 14
-8 19 -14 11 -15 -24 0 -128 61 -157 93 -24 27 -25 28 -4 11 38 -32 103 -74
115 -74 5 0 -6 10 -25 21 -67 41 -121 91 -156 147 -69 109 -92 121 -141 76
-15 -14 -22 -22 -14 -18 11 5 13 3 8 -10 -4 -10 3 -32 16 -54 35 -57 47 -90
47 -128 0 -32 -23 -94 -36 -94 -2 0 0 9 6 21 6 11 9 28 7 37 -4 14 -5 13 -6
-3 0 -11 -9 -31 -18 -44 -9 -14 -11 -21 -5 -17 19 12 14 -4 -20 -58 -17 -28
-58 -100 -90 -161 -33 -60 -64 -114 -70 -120 -16 -16 71 152 124 239 27 43 47
80 45 82 -3 4 -127 -198 -127 -208 0 -3 -16 -34 -35 -67 -19 -34 -30 -59 -25
-56 6 3 10 2 10 -2 0 -10 -53 -37 -185 -96 -64 -28 -110 -41 -160 -46 -65 -6
-71 -8 -92 -40 -13 -20 -23 -27 -23 -18 0 9 4 18 10 22 5 3 6 13 3 22 -6 15
-7 14 -13 -3 -5 -14 -11 -2 -19 41 -7 33 -39 165 -71 294 -47 192 -56 239 -47
259 8 18 8 29 -3 45 -12 20 -12 21 3 8 18 -15 23 -51 8 -66 -5 -6 -5 -18 0
-30 9 -18 9 -18 5 2 -2 13 0 26 5 29 17 10 9 51 -16 74 -14 13 -25 29 -25 36
0 17 41 5 116 -35 32 -17 64 -31 70 -31 7 0 26 16 42 34 32 36 33 64 6 87 -12
10 -12 7 0 -16 15 -29 9 -57 -17 -71 -9 -5 -9 -4 1 7 16 18 15 54 -3 69 -8 7
-13 16 -10 20 3 5 0 12 -6 16 -8 4 -9 3 -5 -4 10 -16 -4 -14 -34 4 -24 14 -24
15 -2 11 12 -3 20 -1 16 4 -3 5 -9 9 -15 9 -23 0 -189 113 -234 160 -27 28
-59 57 -70 63 -11 6 -68 14 -128 17 -86 6 -112 11 -130 26 -37 33 -61 50 -54
37 6 -9 -2 -10 -28 -6 -26 4 -41 1 -55 -12 -11 -10 -22 -16 -25 -13 -10 10 26
31 63 39 37 7 37 7 5 8 -20 1 -42 -8 -60 -23z m114 -40 c58 -48 92 -59 186
-57 l89 1 72 -68 c69 -66 132 -109 244 -167 58 -30 78 -55 60 -73 -19 -19 -42
-14 -117 23 -38 19 -79 35 -90 35 -12 0 -21 5 -21 10 0 6 -5 10 -11 10 -22 0
-2 -121 44 -280 25 -85 55 -202 66 -260 37 -182 84 -370 97 -388 10 -14 11
-13 7 11 -3 15 -4 27 -2 27 13 0 104 -32 113 -39 22 -17 140 -31 176 -21 19 6
43 10 54 10 10 0 61 -45 119 -105 78 -82 109 -108 141 -117 24 -7 53 -25 69
-44 15 -18 36 -36 47 -39 28 -9 29 -75 1 -75 -10 0 -24 7 -31 15 -12 15 -71
21 -83 9 -3 -4 0 -22 8 -41 33 -77 -29 -92 -72 -17 -31 54 -57 61 -85 24 -25
-34 -45 -38 -64 -12 -17 23 -7 71 22 103 13 14 24 32 24 41 0 23 -52 90 -102
131 l-45 37 -79 -15 c-56 -11 -86 -23 -104 -40 -20 -19 -29 -22 -38 -13 -19
19 -14 2 14 -54 27 -53 90 -210 105 -262 11 -38 -4 -21 -21 24 -70 181 -223
311 -365 309 -33 0 -69 -4 -80 -8 -11 -5 14 -6 56 -3 68 4 84 1 134 -22 110
-50 209 -176 265 -336 28 -79 31 -226 6 -305 -18 -56 -20 -78 -6 -54 16 28 50
168 50 211 l1 43 35 -65 c19 -36 33 -55 30 -42 -5 24 -4 25 18 16 19 -7 190
-203 217 -249 13 -22 18 -42 14 -57 -5 -18 -4 -20 4 -8 7 9 11 10 11 3 0 -6
-4 -14 -9 -17 -4 -3 -11 -20 -14 -38 -3 -18 -8 -42 -11 -53 -4 -11 3 -2 14 20
l21 40 -5 -40 c-20 -148 -20 -149 7 -181 18 -22 24 -37 20 -57 l-6 -28 -24 23
-25 23 -28 -32 -28 -31 -30 36 -30 37 -35 -37 -35 -37 -46 15 c-54 19 -57 23
-72 94 -21 97 -28 108 -91 136 -32 14 -75 31 -95 37 -35 11 -52 27 -29 27 26
0 171 173 157 187 -2 3 -12 -10 -21 -28 -24 -46 -99 -123 -155 -159 -69 -44
-198 -88 -300 -102 -49 -7 -87 -15 -84 -19 2 -4 -6 -9 -19 -12 -34 -9 -366
-56 -417 -59 l-45 -3 3 50 c4 56 25 87 56 81 12 -2 64 -13 116 -24 125 -26
210 -37 190 -23 -8 6 -27 11 -41 11 -51 0 -204 31 -227 46 -12 8 -28 12 -35 8
-7 -4 18 22 54 57 36 35 76 86 89 113 22 46 23 56 17 191 -6 138 -2 177 28
270 5 17 5 17 -4 4 -25 -39 -42 -136 -40 -229 6 -231 -1 -253 -125 -364 -91
-82 -125 -124 -106 -136 17 -11 5 -156 -16 -189 l-16 -23 -28 27 c-24 23 -29
24 -42 11 -8 -8 -21 -28 -28 -45 -14 -34 -41 -43 -33 -11 6 23 -21 70 -41 70
-16 0 -40 -25 -60 -65 -15 -27 -16 -28 -16 -7 0 29 -27 82 -42 82 -6 0 -22
-10 -35 -22 l-23 -22 4 35 c3 19 16 61 29 94 14 33 28 83 32 110 12 86 65 278
94 335 64 129 175 261 253 301 19 10 40 40 66 94 45 93 182 281 193 264 5 -8
8 -8 13 0 11 18 -26 84 -49 88 -11 2 -63 3 -115 4 l-95 0 -52 -56 c-29 -31
-53 -62 -53 -69 0 -7 14 -31 31 -52 20 -25 28 -45 25 -59 -3 -11 -6 -37 -6
-59 0 -38 -1 -38 -31 -32 -29 5 -30 5 -18 -12 12 -15 12 -16 -1 -5 -9 6 -17
24 -18 39 -2 32 -16 50 -43 57 -14 4 -28 -5 -51 -34 -25 -31 -38 -39 -58 -37
-27 3 -29 15 -15 84 4 19 3 34 -4 38 -11 7 -71 -23 -71 -35 0 -10 -39 1 -46
13 -7 11 67 83 106 103 14 7 41 15 60 19 26 5 46 20 80 61 25 30 66 70 91 90
40 30 54 35 100 35 100 1 173 16 226 49 44 27 59 31 109 29 l59 -3 17 50 c19
55 23 269 7 398 -8 67 -39 179 -59 217 -14 26 -6 25 20 -2 11 -12 20 -17 20
-11 0 17 -36 44 -53 38 -8 -4 -28 0 -44 8 -15 8 -45 17 -65 20 -47 7 -135 51
-170 85 -28 26 -68 116 -68 152 0 14 7 20 23 20 13 0 38 11 57 25 40 30 60 32
60 7 0 -10 6 -26 13 -36 12 -16 14 -15 36 8 l24 25 36 -18 c20 -10 72 -31 116
-46 88 -30 114 -47 138 -90 12 -23 16 -25 17 -11 0 10 -10 35 -21 56 -18 32
-28 39 -63 44 -51 8 -193 63 -225 88 -38 29 -97 24 -137 -12 -30 -26 -37 -28
-64 -18 -38 13 -48 32 -46 83 2 40 2 40 43 40 28 0 52 8 79 28 47 33 84 34
121 3z m-412 -166 c4 -6 -1 -7 -11 -3 -11 4 -15 3 -10 -5 4 -6 -15 -35 -42
-65 -27 -30 -57 -68 -68 -86 -17 -29 -46 -40 -79 -30 -12 3 -18 3 -145 -3 -83
-4 -100 -8 -135 -32 -50 -34 -54 -39 -30 -31 11 4 -14 -11 -55 -32 -41 -21
-111 -62 -154 -92 -44 -29 -87 -54 -95 -56 -9 -1 -16 -8 -16 -16 0 -8 -18 -45
-39 -84 -52 -94 -179 -309 -186 -315 -8 -8 -11 -37 -17 -185 -5 -133 2 -198
32 -290 6 -17 5 -18 -4 -3 -11 17 -35 103 -48 173 -4 22 -8 96 -8 165 l0 125
65 110 c36 60 88 159 116 220 l51 110 98 53 c96 51 225 145 225 163 0 5 18 22
39 37 34 25 58 31 170 46 72 10 145 21 161 26 28 8 29 7 20 -11 -7 -12 -7 -19
-1 -19 6 0 16 10 22 22 6 12 32 43 57 70 43 46 74 59 87 38z m-98 -223 c1 -23
18 -87 38 -142 20 -55 48 -134 62 -175 14 -41 32 -83 41 -92 8 -10 80 -52 160
-94 171 -89 209 -112 242 -149 l25 -28 -35 18 c-19 10 -48 27 -64 38 -16 12
-26 15 -22 8 11 -17 -25 2 -42 22 -7 7 -49 30 -94 51 -46 20 -111 51 -146 69
-61 32 -62 33 -92 110 -17 43 -30 84 -30 91 0 7 -11 45 -25 86 -26 75 -42 187
-32 214 10 24 12 20 14 -27z m-151 -34 c-8 -40 -24 -138 -35 -213 -11 -79 -12
-344 -1 -315 29 73 73 226 90 315 23 116 34 143 24 58 -4 -38 -3 -58 5 -63 19
-11 24 1 11 25 -9 17 -9 25 -1 33 14 14 28 -3 37 -43 3 -14 12 -40 20 -59 12
-27 12 -36 2 -49 -8 -9 -8 -13 -2 -9 18 10 44 -62 33 -90 -5 -13 -5 -24 -1
-24 43 -7 60 -18 82 -55 25 -43 25 -41 -5 -46 -14 -3 -25 -1 -25 3 0 5 5 9 10
9 6 0 10 7 10 16 0 13 -8 15 -35 12 -41 -5 -47 7 -8 16 25 7 25 8 9 24 -15 15
-19 15 -29 2 -7 -8 -19 -16 -27 -18 -8 -2 -24 -11 -35 -21 -11 -9 -32 -22 -47
-29 -27 -11 -27 -11 -23 29 3 22 7 44 10 49 4 6 1 10 -4 10 -6 0 -11 5 -11 10
0 6 8 10 18 10 14 0 14 2 3 9 -14 9 -12 53 5 95 5 13 3 17 -6 14 -7 -2 -21
-31 -31 -63 -19 -62 -84 -337 -92 -390 -3 -19 -5 -14 -4 15 1 34 -3 44 -14 42
-28 -7 -30 -20 -10 -61 31 -60 19 -50 -24 22 -50 81 -119 163 -164 193 -50 33
-98 38 -172 19 -81 -21 -119 -42 -199 -106 -36 -29 -59 -46 -52 -37 7 8 9 23
6 32 -4 11 1 22 15 32 23 17 25 22 12 42 -7 12 -14 11 -40 -2 -17 -9 -31 -15
-31 -13 0 2 8 28 19 58 28 81 134 258 185 310 36 36 200 135 276 165 54 22
200 61 238 63 10 1 12 -7 8 -26z m1988 -80 c-4 -15 -8 -33 -9 -38 0 -6 -17
-34 -37 -61 -21 -28 -69 -116 -108 -195 -38 -79 -70 -139 -70 -132 0 6 -60
-17 -132 -51 -187 -89 -212 -91 -38 -4 l145 73 44 80 c24 44 75 132 112 195
37 63 73 127 80 143 15 34 24 28 13 -10z m311 -181 c-2 -7 -1 -11 4 -7 5 3 74
-60 154 -140 143 -144 145 -147 149 -197 6 -55 0 -91 -12 -83 -4 3 -10 -6 -12
-20 -3 -14 -1 -25 3 -25 5 0 9 8 10 18 0 14 2 14 9 -3 11 -28 -2 -38 -48 -38
-38 0 -40 -1 -35 -26 2 -14 10 -32 16 -40 10 -12 9 -14 -5 -8 -10 3 -24 0 -31
-7 -11 -12 -21 -8 -63 23 -27 21 -81 55 -120 75 -58 29 -73 42 -77 64 -16 89
-57 338 -57 344 0 4 6 5 14 2 9 -3 15 6 20 27 3 18 11 51 17 72 l10 39 30 -28
c16 -15 27 -34 24 -42z m-325 -181 c0 -21 16 -11 26 16 16 46 8 -281 -10 -394
-9 -57 -16 -116 -16 -133 0 -16 -4 -30 -10 -30 -5 0 -10 6 -10 13 0 8 -27 46
-60 85 -66 79 -79 125 -39 135 17 4 19 10 14 29 -4 13 -11 25 -16 28 -12 8 48
208 82 272 9 16 12 17 24 4 8 -8 15 -19 15 -25z m317 -326 c35 -21 43 -31 43
-55 0 -22 -5 -30 -17 -29 -11 0 -13 3 -5 6 25 10 12 43 -29 70 l-42 27 -40
-44 c-60 -68 -200 -290 -182 -290 2 0 14 19 26 43 31 59 121 195 161 241 l35
40 36 -23 c35 -22 45 -40 30 -55 -4 -3 -8 -12 -9 -19 -2 -7 -7 -32 -13 -57
l-10 -45 2 47 c1 25 -1 44 -5 41 -5 -2 -8 -30 -8 -61 0 -41 3 -53 10 -42 7 11
10 6 10 -20 0 -19 4 -51 9 -70 13 -60 2 -110 -28 -123 -14 -7 -27 -21 -29 -32
-1 -11 -4 -35 -6 -54 -2 -18 -10 -37 -17 -42 -10 -6 -10 -9 -2 -9 17 0 36 37
27 53 -4 7 -3 8 2 4 13 -13 14 -66 0 -61 -6 2 -19 -1 -29 -8 -15 -12 -15 -17
-4 -50 7 -21 16 -41 20 -44 13 -13 8 -46 -5 -38 -9 6 -9 3 0 -9 8 -9 10 -21 6
-28 -4 -7 -7 -26 -7 -43 1 -25 -1 -27 -7 -11 -4 11 -6 31 -4 45 4 24 4 25 -5
2 -7 -14 -7 -31 -1 -46 7 -20 18 -26 57 -31 26 -4 51 -7 55 -8 4 -1 -4 -15
-18 -32 -24 -29 -24 -29 -8 -2 l16 27 -33 -1 c-31 -1 -32 -2 -9 -8 l25 -8 -39
-37 c-51 -49 -133 -89 -235 -115 -123 -31 -136 -29 -161 19 -27 52 -209 261
-244 280 -26 13 -62 67 -77 115 -5 15 -7 16 -8 4 -2 -29 49 -107 83 -129 41
-25 178 -181 227 -258 43 -69 55 -72 176 -41 85 21 155 50 218 91 l30 20 -25
-22 c-34 -31 -124 -74 -192 -94 -71 -20 -178 -35 -178 -25 0 36 -239 321 -279
334 -22 7 -81 119 -81 153 0 12 -18 72 -40 133 l-40 113 16 55 c21 75 31 87
87 99 48 10 49 9 95 -30 25 -22 54 -51 65 -64 21 -27 19 -75 -3 -82 -12 -4
-13 -2 -2 9 22 23 13 49 -35 100 -57 61 -70 68 -103 58 -24 -8 -23 -8 4 -5 23
3 39 -5 78 -42 53 -50 68 -83 47 -109 -8 -9 -13 -19 -11 -22 1 -3 -3 -6 -8 -6
-16 0 -30 -27 -29 -55 1 -21 2 -20 9 8 9 39 20 53 20 26 0 -41 -13 -93 -21
-88 -19 11 -8 -3 23 -32 18 -16 24 -19 14 -6 -11 12 -14 22 -9 22 6 0 16 -7
23 -15 7 -8 21 -15 32 -15 13 0 17 -4 12 -12 -5 -9 -2 -9 9 1 9 7 17 21 16 30
0 12 -2 12 -10 -4 -7 -15 -8 -12 -4 15 13 85 69 71 70 -18 l0 -47 40 3 c65 5
91 46 70 110 -7 21 -5 23 16 20 18 -2 25 -10 27 -31 3 -23 8 -28 23 -24 26 7
24 -2 -3 -13 -14 -5 -17 -9 -8 -9 9 -1 31 13 50 30 19 17 25 24 12 16 -23 -15
-62 -12 -62 4 0 12 14 11 27 -2 7 -7 16 -3 30 15 25 32 20 69 -15 96 -13 11
-20 20 -14 20 6 0 14 10 17 23 18 57 199 307 224 307 2 0 24 -11 48 -25z
m-464 -86 c15 -8 46 -42 67 -74 39 -59 40 -60 17 -67 -21 -6 -20 -6 5 -7 19
-1 32 -11 47 -38 l22 -38 -28 31 c-18 20 -41 34 -63 38 -35 6 -45 15 -163 142
l-37 40 52 -6 c29 -3 66 -13 81 -21z m-1886 -641 c15 -14 23 -33 23 -56 0 -32
-1 -33 -34 -31 -19 2 -38 0 -42 -4 -4 -4 0 -7 9 -7 9 0 19 -5 23 -11 4 -8 -3
-9 -24 -4 -18 4 -39 2 -49 -5 -30 -18 233 -6 285 13 l43 17 -19 -33 c-11 -17
-27 -52 -36 -78 -19 -49 -14 -46 -161 -100 -142 -52 -231 -72 -293 -66 -66 6
-112 24 -112 44 0 44 120 207 192 259 40 30 146 83 167 84 3 0 15 -10 28 -22z
m2385 -155 c-33 -42 -139 -145 -128 -125 4 6 3 12 -2 12 -15 0 -33 -26 -24
-35 4 -5 2 -5 -4 -2 -7 4 -41 -7 -76 -23 -36 -17 -94 -35 -129 -41 -35 -5 -72
-15 -82 -20 -16 -9 -18 -7 -15 18 3 26 7 28 84 40 151 23 249 71 344 166 62
62 78 67 32 10z m-88 -148 c-62 -81 -71 -88 -157 -129 -100 -47 -219 -96 -236
-96 -6 0 -5 15 2 42 12 41 14 43 72 54 123 25 276 105 349 183 17 17 31 31 33
31 1 0 -27 -38 -63 -85z m-2188 -177 c-11 -86 -26 -126 -50 -132 -11 -3 -62
-9 -113 -12 -87 -7 -95 -5 -148 21 -55 26 -172 131 -161 142 3 3 11 1 18 -4
16 -13 61 -23 113 -24 96 -3 279 25 321 50 11 6 21 11 23 11 2 0 1 -24 -3 -52z
m1245 18 c31 -8 82 -17 112 -21 51 -7 57 -10 66 -38 21 -59 19 -61 -66 -54
-64 5 -206 30 -362 65 -18 4 -1 12 70 37 52 18 101 31 109 29 8 -2 40 -10 71
-18z"/>
</g>
</svg>
