<?xml version="1.0" encoding="UTF-8"?>
<!DOCTYPE svg PUBLIC "-//W3C//DTD SVG 1.1//EN" "http://www.w3.org/Graphics/SVG/1.1/DTD/svg11.dtd">
<svg xmlns="http://www.w3.org/2000/svg" width="100" height="100" viewBox="0 0 100 100" id="svgcontent" x="450.5" y="403.5">
  <defs>
    <linearGradient id="svg_16" x1="0.05078125" y1="0.9375" x2="0.94140625" y2="0.0703125">
      <stop stop-color="#102440" stop-opacity="0.9921875"></stop>
      <stop offset="1" stop-color="#104034" stop-opacity="0.9921875"></stop>
    </linearGradient>
    <linearGradient id="svg_11" x1="-2.0257260391018765" y1="1.9999998905267193" x2="1.0216186802948244" y2="1.9999998905267193"><stop stop-color="#fff"></stop><stop offset="1" stop-color="#fff"></stop></linearGradient><linearGradient id="svg_10" x1="1.8877515279832725e-7" y1="0.30909072643267393" x2="1.0000000103204199" y2="0.30909072643267393"><stop stop-color="#fff"></stop><stop offset="1" stop-color="#fff"></stop></linearGradient>
  </defs>
  <g>
    <ellipse fill="url(#svg_16)" stroke="null" cx="50" cy="50" id="svg_4" rx="50" ry="50"></ellipse>
    <g id="svg_15" stroke="null"><path d="M68.61496980698219,33.71534569808159 C68.61496980698219,36.5291673497008 65.84068014200095,38.81023105347377 62.41846461976138,38.81023105347377 C58.99624909752181,38.81023105347377 56.221959432540594,36.5291673497008 56.221959432540594,33.71534569808159 C56.221959432540594,30.901524046462384 58.99624909752181,28.62046034268942 62.41846461976138,28.62046034268942 C65.84068014200095,28.62048465510432 68.61496980698219,30.901524046462384 68.61496980698219,33.71534569808159 z" fill="url(#svg_11)" id="svg_13" stroke="null"></path><path d="M51.924229537102875,66.05433419906421 C49.836984404964554,68.2711401902393 46.20607111316755,69.37954318582683 41.03146534929694,69.37954318582683 C38.335461660314664,69.37954318582683 36.00907961515596,68.71800237622085 34.05229490140595,67.39516388115793 C32.09551018765593,66.03658613618246 31.117105674573473,64.39185126775743 31.117105674573473,62.46120240003191 C31.117105674573473,61.388538654356935 31.18233588376762,60.5840408451007 31.31279630215593,60.047952096412274 L35.68292856918521,40.9554369827492 L48.92383441349115,39.882846174318935 L44.162320891296964,60.5840408451007 C43.98838987505584,61.370790591475185 43.90142436693527,61.99634902701955 43.90142436693527,62.46120240003191 C43.90142436693527,64.53480826740768 44.66240295350886,65.57173276317009 46.18433581424113,65.57173276317009 C47.88022400362944,65.57173276317009 49.336926655167574,64.62427795426362 50.5544680812704,62.72936833645066 C50.94582502402041,62.12155796378805 51.22848115972343,61.42427790426949 51.40241217596456,60.63777128204407 L56.03353821701516,40.9554369827492 L68.88289261925186,39.882846174318935 L64.0563920120126,60.79871946872514 C63.92583434396467,61.33505134156262 63.86067707201522,61.88913127728186 63.86067707201522,62.46120240003191 C63.86067707201522,63.03327352278197 64.0563920120126,63.64108389544458 64.44757876785826,64.28463351801975 C64.83900864785298,64.89244389068236 65.665144506376,65.26782757683878 66.92622946757639,65.41078457648905 C66.6653572556296,66.26901282268865 66.0782124356375,66.98404094508895 65.1650381317492,67.556112067839 C63.25189420275636,68.77173281316422 61.25146870424916,69.37954318582683 59.164247884525764,69.37954318582683 C57.120546287484984,69.37954318582683 55.489912619705734,69.07563799949553 54.272346881187985,68.46782762683291 C53.054805455085145,67.8600172541703 52.27209156958514,67.05551944491407 51.924229537102875,66.05433419906421 z" fill="url(#svg_10)" id="svg_14" stroke="null"></path></g>
  </g>
</svg>
