<svg id="svg" version="1.1" xmlns="http://www.w3.org/2000/svg" xmlns:xlink="http://www.w3.org/1999/xlink" width="400" height="400" viewBox="0, 0, 400,400"><g id="svgg"><path id="path0" d="M339.106 101.427 C 338.962 101.572,337.169 101.850,335.122 102.046 C 331.527 102.390,329.283 102.705,324.200 103.579 C 320.273 104.255,312.998 105.848,309.400 106.821 C 308.520 107.059,307.170 107.409,306.400 107.600 C 305.630 107.791,304.280 108.149,303.400 108.396 C 302.520 108.643,301.260 108.996,300.600 109.181 C 298.008 109.906,285.757 113.886,284.600 114.379 C 284.160 114.566,283.170 114.936,282.400 115.200 C 281.630 115.464,280.640 115.825,280.200 116.001 C 279.760 116.178,278.320 116.714,277.000 117.193 C 275.680 117.672,274.287 118.230,273.905 118.432 C 273.523 118.634,273.026 118.800,272.801 118.800 C 272.576 118.800,271.628 119.140,270.696 119.556 C 269.763 119.971,268.190 120.616,267.200 120.989 C 265.337 121.689,264.326 122.115,261.104 123.553 C 260.062 124.019,259.115 124.400,259.000 124.400 C 258.885 124.400,257.938 124.781,256.896 125.247 C 255.853 125.712,254.460 126.323,253.800 126.604 C 252.688 127.078,251.579 127.567,246.800 129.691 C 245.810 130.131,244.280 130.810,243.400 131.200 C 242.520 131.590,240.900 132.310,239.800 132.800 C 238.700 133.290,236.990 134.049,236.000 134.487 C 235.010 134.925,233.120 135.786,231.800 136.400 C 230.480 137.014,228.500 137.916,227.400 138.403 C 226.300 138.891,224.410 139.740,223.200 140.291 C 216.683 143.256,216.902 143.157,211.500 145.554 C 210.565 145.969,208.900 146.710,207.800 147.200 C 206.700 147.690,204.990 148.451,204.000 148.891 C 203.010 149.331,201.465 150.021,200.568 150.425 C 199.670 150.828,197.960 151.542,196.768 152.010 C 195.575 152.479,194.015 153.118,193.300 153.431 C 192.585 153.744,191.415 154.255,190.700 154.566 C 189.985 154.877,187.690 155.794,185.600 156.603 C 183.510 157.411,181.440 158.219,181.000 158.397 C 180.560 158.576,179.165 159.100,177.900 159.561 C 176.635 160.022,174.655 160.750,173.500 161.177 C 172.345 161.604,170.140 162.348,168.600 162.830 C 167.060 163.311,165.440 163.841,165.000 164.007 C 164.560 164.173,163.390 164.530,162.400 164.800 C 161.410 165.070,160.240 165.437,159.800 165.615 C 159.360 165.794,158.550 166.031,158.000 166.142 C 157.450 166.253,156.280 166.539,155.400 166.778 C 144.031 169.859,133.908 171.064,126.200 170.254 C 114.882 169.064,106.000 163.734,100.219 154.665 C 99.202 153.070,98.292 152.147,97.345 151.751 C 96.318 151.322,95.761 150.709,95.190 149.378 C 94.363 147.447,93.475 146.832,92.446 147.477 C 91.354 148.161,91.491 149.418,93.012 152.674 C 93.816 154.393,94.745 156.700,95.078 157.800 C 96.037 160.972,98.808 165.752,100.381 166.945 C 101.161 167.537,102.778 168.818,103.974 169.790 C 108.148 173.186,116.039 176.441,122.600 177.473 C 125.583 177.943,138.962 177.806,142.400 177.271 C 146.277 176.668,148.960 176.159,151.200 175.603 C 152.190 175.357,153.720 175.000,154.600 174.808 C 156.109 174.480,157.844 174.015,160.600 173.200 C 162.293 172.699,164.427 172.099,165.600 171.794 C 166.150 171.650,166.960 171.389,167.400 171.212 C 167.840 171.035,169.640 170.433,171.400 169.873 C 173.160 169.314,176.130 168.288,178.000 167.592 C 179.870 166.897,181.850 166.186,182.400 166.012 C 183.407 165.693,194.769 161.180,197.000 160.213 C 197.660 159.927,199.053 159.312,200.096 158.847 C 201.138 158.381,202.078 158.000,202.184 158.000 C 202.290 158.000,203.372 157.550,204.588 157.000 C 205.805 156.450,207.795 155.550,209.012 155.000 C 210.228 154.450,211.292 154.000,211.376 154.000 C 211.460 154.000,212.850 153.389,214.464 152.641 C 218.180 150.922,221.746 149.302,223.800 148.400 C 224.680 148.014,226.435 147.226,227.700 146.649 C 228.965 146.072,230.945 145.171,232.100 144.646 C 233.255 144.121,235.190 143.241,236.400 142.691 C 237.610 142.140,239.500 141.289,240.600 140.800 C 241.700 140.311,243.590 139.460,244.800 138.909 C 246.010 138.358,248.440 137.277,250.200 136.507 C 251.960 135.737,254.350 134.677,255.512 134.153 C 256.673 133.629,257.710 133.200,257.816 133.200 C 257.922 133.200,258.862 132.819,259.904 132.353 C 263.107 130.923,264.099 130.507,267.000 129.374 C 268.540 128.773,269.971 128.128,270.180 127.940 C 270.389 127.753,270.796 127.600,271.084 127.600 C 271.373 127.600,272.372 127.260,273.304 126.845 C 274.237 126.430,276.440 125.548,278.200 124.885 C 279.960 124.221,282.210 123.374,283.200 123.002 C 284.190 122.629,285.810 122.062,286.800 121.742 C 287.790 121.422,288.960 120.998,289.400 120.800 C 289.840 120.603,291.460 120.048,293.000 119.568 C 294.540 119.088,296.160 118.558,296.600 118.391 C 297.578 118.020,301.328 116.847,303.100 116.358 C 303.815 116.161,305.075 115.808,305.900 115.573 C 307.443 115.135,308.939 114.747,311.900 114.018 C 312.835 113.788,314.365 113.409,315.300 113.175 C 316.235 112.941,317.900 112.575,319.000 112.362 C 320.100 112.149,321.900 111.793,323.000 111.571 C 328.304 110.503,333.730 109.674,339.000 109.127 C 344.922 108.512,363.149 108.533,368.400 109.161 C 378.587 110.380,379.782 110.090,379.782 106.400 C 379.782 102.276,376.442 101.617,354.185 101.345 C 346.036 101.246,339.251 101.282,339.106 101.427 M6.224 112.452 C 2.520 115.367,8.117 129.407,16.172 137.406 C 25.304 146.475,37.077 151.418,55.600 153.960 C 68.205 155.691,73.822 158.738,74.840 164.400 C 75.314 167.038,75.881 169.597,76.370 171.300 C 76.606 172.125,76.965 173.385,77.167 174.100 C 84.389 199.697,104.325 222.752,131.800 237.281 C 135.606 239.294,137.740 240.278,144.200 243.003 C 146.397 243.929,149.769 245.144,152.600 246.030 C 154.140 246.511,155.760 247.036,156.200 247.197 C 157.445 247.652,159.610 248.263,161.800 248.779 C 164.871 249.503,166.881 250.018,168.228 250.427 C 168.904 250.632,169.770 250.800,170.152 250.800 C 172.807 250.800,157.434 261.168,148.321 265.523 C 143.188 267.977,142.962 272.783,147.931 273.824 C 148.519 273.947,149.360 274.137,149.800 274.245 C 154.379 275.370,162.613 275.726,165.200 274.910 C 168.275 273.940,173.039 272.280,173.695 271.950 C 174.077 271.757,177.767 271.600,181.896 271.600 C 191.618 271.600,193.262 271.066,201.595 265.202 C 202.802 264.352,204.152 263.567,204.595 263.456 C 205.038 263.346,206.120 263.049,207.000 262.797 C 207.880 262.544,209.590 262.157,210.800 261.937 C 216.961 260.815,218.779 260.428,219.800 260.021 C 223.985 258.351,226.323 256.439,227.436 253.777 C 227.939 252.572,228.123 252.481,230.486 252.258 C 231.868 252.127,234.035 251.836,235.300 251.610 C 236.565 251.385,238.545 251.032,239.700 250.828 C 242.466 250.337,243.882 250.043,245.700 249.581 C 246.525 249.371,247.920 249.020,248.800 248.800 C 252.088 247.978,253.823 247.500,254.600 247.202 C 255.040 247.033,256.750 246.492,258.400 246.000 C 260.050 245.508,261.760 244.964,262.200 244.793 C 262.640 244.621,263.630 244.264,264.400 244.000 C 266.574 243.253,267.973 242.701,270.800 241.474 C 271.570 241.139,273.010 240.545,274.000 240.153 C 274.990 239.761,276.250 239.207,276.800 238.922 C 278.026 238.287,278.362 239.561,277.635 242.088 C 277.396 242.920,276.996 244.365,276.746 245.300 C 275.708 249.186,274.261 253.852,273.613 255.400 C 273.429 255.840,272.867 257.280,272.364 258.600 C 270.998 262.189,267.814 268.895,266.002 271.997 C 263.129 276.916,263.905 279.600,268.199 279.600 C 269.604 279.600,270.864 279.420,271.000 279.200 C 271.136 278.980,271.511 278.800,271.832 278.800 C 274.832 278.800,283.651 272.649,286.247 268.747 C 289.137 264.404,293.227 260.447,297.160 258.189 C 302.697 255.011,305.827 251.268,308.188 245.000 C 310.153 239.785,310.904 238.681,316.256 233.141 C 324.172 224.948,325.299 222.162,323.598 215.000 C 322.455 210.189,322.592 208.397,324.368 204.863 C 325.266 203.078,326.002 201.389,326.004 201.109 C 326.006 200.829,326.861 199.591,327.904 198.358 C 328.947 197.125,330.790 194.890,332.000 193.392 C 333.210 191.894,334.920 189.813,335.800 188.767 C 336.680 187.722,338.480 185.566,339.800 183.976 C 341.120 182.386,343.100 180.053,344.200 178.791 C 345.300 177.529,347.640 174.816,349.400 172.762 C 351.160 170.709,355.030 166.519,358.000 163.451 C 369.112 151.974,371.073 150.457,380.600 145.975 C 389.181 141.937,393.200 135.720,393.200 126.481 C 393.200 113.741,390.121 111.402,373.800 111.742 C 359.974 112.030,356.651 112.487,356.002 114.194 C 355.720 114.937,355.160 115.158,352.533 115.565 C 339.312 117.615,334.799 118.785,329.200 121.612 C 322.278 125.107,317.435 129.415,309.204 139.400 C 295.818 155.639,288.624 159.271,269.633 159.381 C 261.166 159.430,260.643 159.476,260.249 160.216 C 260.020 160.647,259.508 161.490,259.113 162.089 C 256.442 166.129,277.741 166.216,289.400 162.212 C 297.327 159.490,304.851 153.646,312.010 144.648 C 320.525 133.949,325.093 129.788,332.048 126.396 C 333.452 125.712,334.913 124.983,335.295 124.776 C 335.677 124.569,336.341 124.400,336.771 124.400 C 337.201 124.400,337.652 124.240,337.773 124.044 C 337.894 123.849,338.579 123.592,339.296 123.473 C 340.013 123.355,341.410 123.049,342.400 122.793 C 344.750 122.187,347.600 121.850,347.600 122.179 C 347.600 123.706,343.332 128.358,337.864 132.792 C 335.358 134.823,331.815 138.544,330.400 140.631 C 328.290 143.742,318.156 156.726,313.670 162.065 C 310.389 165.970,298.549 177.817,295.261 180.485 C 288.678 185.826,279.565 190.972,273.400 192.829 C 272.520 193.094,271.440 193.454,271.000 193.628 C 270.560 193.803,269.570 194.056,268.800 194.191 C 266.977 194.510,263.865 195.029,261.578 195.395 L 259.757 195.687 259.239 193.944 C 258.955 192.985,258.560 191.887,258.361 191.505 C 258.162 191.123,258.000 190.610,258.000 190.364 C 258.000 188.407,253.205 180.400,252.033 180.400 C 251.663 180.400,251.118 180.175,250.821 179.900 C 250.525 179.625,250.382 179.581,250.505 179.802 C 250.627 180.024,250.383 180.911,249.963 181.774 C 248.974 183.807,248.997 184.184,250.237 186.298 C 253.116 191.212,255.111 198.426,254.619 202.146 C 254.145 205.729,253.216 207.116,247.619 212.600 C 241.075 219.011,240.738 219.639,241.059 224.800 C 241.486 231.650,240.055 234.192,233.962 237.400 C 227.491 240.807,226.727 241.620,224.006 247.987 C 221.458 253.948,220.563 254.546,211.690 256.210 C 203.983 257.656,201.702 258.494,197.319 261.486 C 190.748 265.973,190.301 266.103,181.200 266.178 C 172.796 266.247,173.312 266.152,165.110 269.160 C 161.358 270.536,154.800 270.279,154.800 268.756 C 154.800 268.600,157.095 267.102,159.900 265.427 C 178.823 254.130,193.821 237.710,199.859 221.681 C 201.362 217.689,201.527 217.776,191.920 217.466 C 170.764 216.781,157.374 214.181,138.000 206.994 C 135.245 205.972,132.226 208.712,134.012 210.613 C 135.925 212.649,149.931 217.386,159.400 219.200 C 160.720 219.453,162.430 219.818,163.200 220.012 C 163.970 220.205,165.500 220.476,166.600 220.613 C 167.700 220.750,169.770 221.031,171.200 221.237 C 175.906 221.917,181.710 222.412,187.701 222.644 L 193.602 222.873 191.935 226.079 L 190.267 229.284 186.034 229.048 C 181.801 228.811,176.461 228.252,174.200 227.808 C 173.540 227.679,172.010 227.386,170.800 227.157 C 169.590 226.928,167.970 226.585,167.200 226.395 C 166.430 226.206,164.900 225.838,163.800 225.579 C 153.321 223.111,139.521 217.062,131.019 211.213 C 126.945 208.410,122.314 212.043,125.025 215.915 C 127.619 219.618,146.276 228.600,158.400 231.981 C 159.390 232.257,160.613 232.645,161.119 232.842 C 161.624 233.039,162.533 233.200,163.139 233.200 C 163.744 233.200,164.411 233.362,164.620 233.559 C 164.829 233.756,165.720 234.017,166.600 234.139 C 167.480 234.260,169.190 234.552,170.400 234.787 C 173.636 235.417,178.158 235.994,181.875 236.252 L 185.151 236.480 183.207 238.940 C 179.755 243.311,178.272 244.531,176.734 244.264 C 172.320 243.500,166.630 242.230,163.000 241.199 C 162.120 240.949,160.950 240.653,160.400 240.542 C 159.850 240.431,159.040 240.197,158.600 240.022 C 158.160 239.848,156.540 239.312,155.000 238.832 C 153.460 238.352,151.840 237.805,151.400 237.616 C 150.960 237.428,149.340 236.792,147.800 236.203 C 137.018 232.081,125.685 225.676,117.092 218.847 C 114.403 216.711,113.795 216.401,112.306 216.404 C 110.650 216.408,110.458 216.263,105.796 211.504 C 92.555 197.987,83.814 181.664,80.158 163.627 C 78.950 157.666,78.928 157.620,76.288 155.648 C 71.120 151.787,65.047 149.773,53.800 148.188 C 39.377 146.157,28.198 141.364,20.472 133.899 C 17.806 131.324,17.473 130.726,18.171 129.772 C 18.647 129.121,18.520 128.764,17.082 126.724 C 15.095 123.907,15.187 123.771,18.211 125.068 C 22.078 126.726,23.359 127.184,26.200 127.924 C 30.791 129.119,32.379 129.263,38.200 129.012 C 56.007 128.245,61.404 128.653,69.314 131.362 C 74.515 133.144,77.186 134.896,78.946 137.681 C 81.236 141.303,83.504 140.489,86.200 135.078 C 88.206 131.053,89.817 130.465,100.200 129.971 C 109.514 129.528,112.603 129.130,118.000 127.676 C 118.770 127.469,119.653 127.232,119.963 127.149 C 120.273 127.067,120.813 127.495,121.163 128.101 C 123.056 131.373,114.321 141.161,105.327 145.846 C 101.500 147.839,101.384 147.941,100.761 149.846 C 98.847 155.695,110.417 151.183,118.783 142.817 C 125.596 136.004,130.000 126.170,130.000 117.768 C 130.000 111.720,124.916 109.935,122.687 115.200 C 120.610 120.104,115.279 121.627,96.200 122.763 C 88.418 123.227,85.846 124.071,82.588 127.230 L 80.976 128.794 79.533 127.813 C 77.798 126.634,73.007 124.400,72.214 124.400 C 71.902 124.400,71.549 124.241,71.429 124.046 C 71.308 123.851,70.713 123.593,70.105 123.471 C 69.497 123.349,68.190 123.047,67.200 122.800 C 58.998 120.751,51.617 120.515,38.000 121.869 C 34.727 122.195,28.266 120.981,23.800 119.200 C 19.482 117.479,16.582 115.994,12.760 113.547 C 9.360 111.370,7.910 111.127,6.224 112.452 M372.957 119.433 C 373.344 120.440,373.240 123.423,372.746 125.494 C 371.315 131.495,368.699 135.014,363.868 137.439 C 357.117 140.827,348.890 148.509,334.800 164.583 C 332.710 166.967,330.010 170.041,328.800 171.413 C 327.590 172.786,325.160 175.570,323.400 177.600 C 304.983 198.843,300.798 202.868,289.200 210.492 C 285.635 212.836,275.628 218.080,270.800 220.136 C 266.953 221.774,259.774 224.163,255.500 225.227 C 254.675 225.432,253.235 225.791,252.300 226.025 C 251.365 226.259,249.768 226.584,248.751 226.747 L 246.901 227.044 246.653 224.422 C 246.446 222.241,246.529 221.632,247.143 220.800 C 247.904 219.771,248.072 219.726,254.600 218.818 C 258.387 218.290,261.500 217.662,265.000 216.718 C 267.738 215.979,273.766 213.991,274.495 213.586 C 274.877 213.374,275.366 213.200,275.583 213.200 C 275.982 213.200,278.799 211.980,282.800 210.075 C 296.430 203.585,308.893 192.548,329.400 168.808 C 331.160 166.771,333.500 164.072,334.600 162.810 C 335.700 161.549,337.860 159.011,339.400 157.171 C 345.734 149.604,351.102 144.189,354.377 142.063 C 363.392 136.211,366.885 130.944,367.480 122.303 C 367.661 119.677,367.699 119.596,368.933 119.239 C 370.986 118.645,372.686 118.726,372.957 119.433 M383.568 119.384 C 387.538 121.436,386.678 131.287,382.133 135.826 C 380.256 137.701,379.078 138.419,374.704 140.359 C 372.047 141.538,372.029 141.469,374.359 139.006 C 378.192 134.953,380.010 130.072,380.282 123.100 C 380.469 118.315,380.793 117.948,383.568 119.384 M359.595 122.900 C 359.585 127.665,357.315 130.935,351.200 134.992 C 347.230 137.625,339.928 144.744,334.200 151.565 C 327.671 159.339,321.754 166.177,318.785 169.379 C 317.347 170.931,315.480 173.010,314.636 174.000 C 303.421 187.161,289.856 198.291,278.600 203.567 C 272.402 206.473,264.971 209.200,263.253 209.200 C 262.810 209.200,262.348 209.361,262.226 209.558 C 262.105 209.755,261.329 210.004,260.503 210.112 C 259.676 210.221,258.579 210.445,258.065 210.610 L 257.130 210.912 258.242 208.756 C 258.854 207.570,259.454 205.790,259.577 204.800 L 259.800 203.000 262.600 202.754 C 270.316 202.077,276.428 200.300,284.600 196.360 C 293.798 191.925,300.321 186.864,311.200 175.719 C 317.746 169.014,321.135 165.172,325.600 159.397 C 330.378 153.217,334.531 147.752,335.477 146.400 C 337.379 143.681,340.624 140.346,344.661 136.960 C 351.945 130.851,354.331 127.441,355.478 121.500 C 355.676 120.479,355.831 120.400,357.645 120.400 L 359.600 120.400 359.595 122.900 M280.650 134.588 C 277.031 135.877,275.003 139.581,275.956 143.157 C 278.116 151.260,290.000 149.773,290.000 141.400 C 290.000 136.412,285.247 132.949,280.650 134.588 M283.767 139.843 C 284.700 140.201,284.583 142.274,283.600 142.800 C 282.514 143.381,281.200 142.651,281.200 141.466 C 281.200 139.946,282.272 139.269,283.767 139.843 M364.140 146.957 C 360.456 149.957,349.742 160.815,344.599 166.760 C 342.620 169.048,340.100 171.944,339.000 173.194 C 337.900 174.445,335.920 176.784,334.600 178.392 C 333.280 180.001,331.480 182.160,330.600 183.192 C 329.720 184.224,328.100 186.203,327.000 187.592 C 325.900 188.980,324.366 190.854,323.591 191.758 C 322.816 192.661,321.033 194.840,319.629 196.600 C 314.339 203.229,304.558 212.578,297.200 218.037 C 288.233 224.691,276.094 231.406,266.200 235.187 C 265.760 235.355,264.950 235.685,264.400 235.920 C 263.850 236.155,262.680 236.576,261.800 236.855 C 260.920 237.135,260.029 237.507,259.820 237.682 C 259.611 237.857,259.037 238.000,258.544 238.000 C 258.051 238.000,257.536 238.180,257.400 238.400 C 257.264 238.620,256.724 238.800,256.200 238.800 C 255.676 238.800,255.149 238.959,255.029 239.154 C 254.908 239.349,254.313 239.604,253.705 239.721 C 253.097 239.838,251.880 240.141,251.000 240.394 C 245.741 241.904,240.092 243.169,234.000 244.201 C 232.269 244.494,232.880 244.072,237.477 241.797 C 239.591 240.750,241.002 239.666,242.798 237.705 C 245.045 235.254,245.412 235.013,247.321 234.740 C 248.465 234.576,250.255 234.253,251.300 234.021 C 252.345 233.790,253.965 233.434,254.900 233.230 C 255.835 233.027,257.320 232.657,258.200 232.408 C 259.080 232.159,260.340 231.807,261.000 231.626 C 262.608 231.185,268.398 229.253,269.400 228.824 C 269.840 228.635,270.830 228.251,271.600 227.970 C 277.766 225.718,287.351 220.786,293.933 216.479 C 304.203 209.757,311.097 203.379,323.000 189.587 C 324.760 187.548,327.100 184.857,328.200 183.608 C 329.300 182.359,331.519 179.821,333.130 177.968 C 341.337 168.535,343.240 166.387,346.022 163.422 C 347.684 161.650,350.273 158.803,351.775 157.096 C 354.887 153.558,361.148 147.993,364.400 145.874 C 367.731 143.704,367.633 144.113,364.140 146.957 M317.866 213.630 C 319.455 221.848,319.358 222.112,312.037 229.562 C 306.470 235.226,305.539 236.574,303.621 241.744 C 301.085 248.580,298.806 251.430,296.129 251.113 C 292.747 250.713,285.281 256.658,281.037 263.132 C 279.276 265.818,277.370 267.903,277.008 267.541 C 276.844 267.377,278.694 262.575,279.990 259.800 C 280.196 259.360,280.935 257.200,281.633 255.000 C 282.331 252.800,283.039 250.640,283.205 250.200 C 283.581 249.211,284.281 246.602,284.603 245.000 C 284.735 244.340,285.024 242.990,285.245 242.000 C 285.467 241.010,285.803 239.210,285.994 238.000 C 286.630 233.954,286.774 233.669,288.664 232.725 C 294.422 229.849,302.987 223.426,304.141 221.118 C 305.018 219.364,306.269 217.960,309.541 215.058 C 311.884 212.980,314.331 210.720,314.981 210.034 C 316.663 208.258,316.879 208.528,317.866 213.630 " stroke="none" fill="#042c4c" fill-rule="evenodd"></path><path id="path1" d="M341.109 112.625 C 340.985 112.748,338.390 113.016,335.342 113.219 C 328.757 113.658,323.128 114.420,317.900 115.579 C 316.855 115.810,315.153 116.157,314.117 116.349 C 313.081 116.541,312.173 116.882,312.098 117.107 C 312.023 117.331,311.631 117.429,311.228 117.323 C 310.824 117.218,309.955 117.409,309.297 117.750 C 308.640 118.090,308.017 118.283,307.913 118.180 C 307.665 117.931,294.343 122.309,290.200 124.001 C 289.760 124.181,286.790 125.349,283.600 126.598 C 277.722 128.899,276.895 129.239,273.504 130.753 C 272.462 131.219,271.522 131.600,271.416 131.600 C 271.310 131.600,270.273 132.029,269.112 132.553 C 267.950 133.077,265.560 134.137,263.800 134.907 C 262.040 135.677,259.610 136.757,258.400 137.308 C 257.190 137.858,255.165 138.779,253.900 139.354 C 252.635 139.929,250.655 140.830,249.500 141.355 C 248.345 141.881,246.590 142.675,245.600 143.120 C 244.610 143.565,242.180 144.681,240.200 145.600 C 238.220 146.519,235.790 147.640,234.800 148.090 C 233.810 148.541,231.318 149.695,229.263 150.655 C 227.208 151.615,225.471 152.400,225.403 152.400 C 225.335 152.400,223.735 153.120,221.848 154.000 C 219.961 154.880,218.223 155.600,217.985 155.600 C 217.747 155.600,217.641 155.743,217.749 155.917 C 217.856 156.091,217.633 156.257,217.252 156.286 C 216.870 156.315,215.533 156.802,214.279 157.369 C 213.026 157.936,211.005 158.850,209.788 159.400 C 208.572 159.950,207.421 160.400,207.231 160.400 C 207.041 160.400,206.778 160.681,206.646 161.025 C 206.514 161.369,206.247 161.553,206.053 161.433 C 205.724 161.229,202.699 162.331,199.000 164.002 C 198.120 164.400,195.240 165.568,192.600 166.599 C 189.960 167.629,187.440 168.619,187.000 168.799 C 185.179 169.542,182.434 170.527,179.606 171.451 C 177.953 171.991,176.240 172.582,175.800 172.764 C 174.933 173.123,170.889 174.380,168.000 175.189 C 167.010 175.466,165.750 175.831,165.200 176.000 C 164.241 176.294,163.154 176.583,159.200 177.594 C 158.210 177.847,156.847 178.222,156.172 178.427 C 155.496 178.632,154.450 178.800,153.848 178.800 C 153.122 178.800,152.849 178.956,153.038 179.262 C 153.195 179.516,153.161 179.631,152.962 179.517 C 152.617 179.320,150.736 179.545,145.400 180.421 C 137.502 181.717,124.075 181.742,119.000 180.470 C 118.120 180.249,117.028 179.980,116.573 179.871 C 114.863 179.463,110.265 177.169,108.368 175.777 C 107.286 174.982,106.400 174.438,106.400 174.567 C 106.400 174.696,105.750 174.083,104.956 173.204 C 104.159 172.321,103.309 171.723,103.056 171.867 C 102.805 172.011,102.738 171.977,102.906 171.792 C 103.074 171.607,102.785 170.993,102.263 170.428 C 98.021 165.830,89.986 150.015,90.780 147.827 C 91.718 145.239,94.520 145.778,95.978 148.826 C 97.579 152.174,100.000 152.908,100.000 150.046 C 100.000 148.019,100.898 146.924,103.505 145.771 C 113.683 141.270,126.870 125.183,117.932 128.170 C 111.875 130.195,107.607 130.992,99.871 131.539 C 97.490 131.708,95.420 132.016,95.271 132.223 C 95.122 132.430,94.172 132.610,93.159 132.621 C 90.259 132.655,86.855 134.557,85.699 136.789 C 83.424 141.183,82.610 141.271,77.830 137.648 C 70.150 131.825,64.971 130.881,44.600 131.587 C 29.798 132.101,26.581 131.871,20.915 129.892 C 18.046 128.891,18.016 130.019,20.831 132.995 C 26.827 139.335,38.054 144.461,50.600 146.586 C 65.958 149.188,69.885 150.340,75.200 153.800 C 79.495 156.595,79.847 157.139,80.984 162.722 C 84.909 181.991,93.390 197.821,107.194 211.642 C 113.532 217.988,115.600 217.698,115.600 210.463 C 115.600 206.052,118.801 204.801,125.894 206.441 C 129.319 207.232,130.984 207.677,131.963 208.062 C 132.783 208.384,133.140 208.230,134.380 207.020 C 136.211 205.232,136.056 205.222,142.231 207.547 C 149.164 210.157,153.211 211.318,161.200 212.988 C 171.567 215.155,178.829 215.969,191.059 216.335 C 202.909 216.690,203.036 216.803,199.875 224.200 C 193.074 240.113,179.054 255.012,160.116 266.451 C 158.287 267.556,156.893 268.626,157.018 268.830 C 157.486 269.587,162.148 269.202,165.000 268.171 C 173.056 265.260,176.190 264.729,183.224 265.082 C 189.655 265.405,190.028 265.268,198.800 259.343 C 201.500 257.520,203.544 256.850,210.948 255.363 C 218.505 253.845,220.634 252.938,221.679 250.794 C 222.053 250.027,223.172 247.666,224.166 245.546 C 226.329 240.934,228.015 239.270,232.970 236.860 C 239.016 233.919,240.724 231.027,240.191 224.631 C 239.755 219.399,239.747 219.414,246.564 212.422 C 253.248 205.565,253.600 204.961,253.600 200.338 C 253.600 196.725,252.732 193.719,250.131 188.324 C 247.646 183.170,247.674 183.900,249.844 180.903 C 250.443 180.076,250.443 179.851,249.847 178.028 C 247.635 171.264,250.252 164.757,255.674 163.539 C 257.605 163.105,258.800 162.208,258.800 161.192 C 258.800 160.816,259.165 160.044,259.610 159.478 L 260.421 158.447 268.310 158.496 C 287.880 158.616,294.804 155.162,308.993 138.200 C 321.997 122.657,329.654 118.086,347.200 115.395 C 354.175 114.325,356.277 113.110,351.937 112.657 C 348.912 112.340,341.415 112.318,341.109 112.625 M286.228 133.957 C 291.067 136.155,292.503 142.466,289.103 146.591 C 284.446 152.242,275.407 149.316,274.876 141.986 C 274.425 135.742,280.578 131.391,286.228 133.957 M313.983 212.233 C 313.002 213.241,310.784 215.266,309.052 216.733 C 304.990 220.175,303.714 222.011,303.666 224.484 C 303.621 226.829,302.283 229.554,299.847 232.263 C 298.844 233.378,298.154 234.420,298.312 234.579 C 298.470 234.737,298.345 234.807,298.033 234.733 C 297.058 234.504,295.741 238.180,296.284 239.617 C 296.530 240.268,296.574 240.800,296.383 240.800 C 296.192 240.800,295.919 241.475,295.777 242.300 C 295.634 243.125,295.144 244.918,294.688 246.285 C 293.701 249.243,294.076 250.800,295.778 250.800 C 298.034 250.800,300.791 246.970,302.977 240.800 C 304.451 236.638,306.182 234.193,311.601 228.616 C 314.176 225.965,316.689 223.001,317.185 222.030 L 318.086 220.264 317.155 215.332 C 316.084 209.653,316.294 209.858,313.983 212.233 " stroke="none" fill="#04ccfb" fill-rule="evenodd"></path><path id="path2" d="M353.600 113.551 C 353.600 114.149,351.576 114.733,347.200 115.400 C 329.691 118.065,321.997 122.656,308.993 138.200 C 294.804 155.162,287.880 158.616,268.310 158.496 L 260.421 158.447 259.610 159.478 C 259.165 160.044,258.800 160.808,258.800 161.174 C 258.800 161.540,258.584 162.056,258.320 162.320 C 257.984 162.656,257.974 162.800,258.289 162.800 C 258.536 162.800,258.952 162.125,259.213 161.300 C 259.998 158.822,260.262 158.745,266.993 159.033 C 285.944 159.843,295.285 155.423,308.721 139.290 C 322.172 123.139,329.071 118.922,346.870 115.970 C 350.759 115.325,354.224 114.689,354.570 114.556 C 355.474 114.209,355.348 113.200,354.400 113.200 C 353.960 113.200,353.600 113.358,353.600 113.551 M120.542 129.050 C 120.291 133.230,110.800 142.544,103.505 145.771 C 100.970 146.891,99.981 148.040,100.043 149.789 C 100.080 150.848,100.134 150.786,100.468 149.292 C 100.834 147.657,100.991 147.513,104.125 145.942 C 112.935 141.525,123.833 130.073,120.932 128.282 C 120.750 128.169,120.574 128.515,120.542 129.050 M18.416 130.332 C 18.395 131.586,22.108 135.250,26.173 137.987 C 33.638 143.013,44.004 146.549,55.400 147.958 C 70.804 149.861,78.814 154.491,80.388 162.400 C 83.326 177.155,88.907 189.755,97.751 201.600 C 100.427 205.184,110.553 216.000,111.232 216.000 C 111.405 216.000,109.614 214.065,107.252 211.700 C 93.386 197.818,84.915 182.023,80.984 162.722 C 79.847 157.139,79.495 156.595,75.200 153.800 C 69.885 150.340,65.958 149.188,50.600 146.586 C 36.572 144.210,21.633 136.662,18.960 130.600 C 18.479 129.508,18.430 129.484,18.416 130.332 M280.200 133.683 C 273.439 136.046,272.879 145.625,279.326 148.626 C 282.990 150.332,286.646 149.571,289.103 146.591 C 294.296 140.291,287.886 130.996,280.200 133.683 M285.513 134.221 C 290.969 136.500,292.207 143.277,287.865 147.089 C 281.701 152.501,272.519 145.647,275.956 138.200 C 277.694 134.435,281.866 132.698,285.513 134.221 M92.091 146.416 C 90.048 147.237,90.208 148.899,92.864 154.488 C 95.126 159.249,95.224 158.716,92.996 153.773 C 90.568 148.390,90.696 146.552,93.476 146.871 C 94.394 146.976,94.776 147.382,95.560 149.080 C 96.088 150.224,96.788 151.263,97.117 151.389 C 97.616 151.581,97.628 151.516,97.194 150.993 C 96.908 150.649,96.261 149.475,95.756 148.384 C 95.250 147.293,94.663 146.400,94.451 146.400 C 94.239 146.400,93.826 146.321,93.533 146.225 C 93.240 146.129,92.591 146.215,92.091 146.416 M248.829 182.254 C 247.751 183.625,247.669 183.255,250.195 188.469 C 252.732 193.708,253.600 196.733,253.600 200.338 C 253.600 204.961,253.248 205.565,246.564 212.422 C 239.747 219.414,239.755 219.399,240.191 224.631 C 240.724 231.027,239.016 233.919,232.970 236.860 C 228.015 239.270,226.329 240.934,224.166 245.546 C 223.172 247.666,222.053 250.027,221.679 250.794 C 220.634 252.938,218.505 253.845,210.948 255.363 C 203.544 256.850,201.500 257.520,198.800 259.343 C 190.028 265.268,189.655 265.405,183.224 265.082 C 176.190 264.729,173.056 265.260,165.000 268.171 C 162.148 269.202,157.486 269.587,157.018 268.830 C 156.893 268.626,158.287 267.556,160.116 266.451 C 179.054 255.012,193.074 240.113,199.875 224.200 C 203.036 216.803,202.909 216.690,191.059 216.335 C 178.829 215.969,171.567 215.155,161.200 212.988 C 153.211 211.318,149.164 210.157,142.231 207.547 C 136.111 205.242,136.081 205.240,134.575 206.878 L 133.400 208.155 134.731 207.078 C 136.367 205.753,136.458 205.752,139.631 207.053 C 154.126 212.994,171.643 216.301,192.624 217.059 C 202.810 217.427,202.715 217.249,197.977 227.073 C 191.212 241.098,178.283 254.548,161.652 264.861 C 158.873 266.584,156.330 268.166,156.000 268.376 C 153.612 269.898,161.327 270.048,165.400 268.559 C 172.932 265.806,172.482 265.888,180.783 265.763 C 190.525 265.616,190.634 265.580,199.123 259.653 C 201.385 258.074,204.572 257.070,211.396 255.790 C 220.425 254.096,221.141 253.627,223.606 247.800 C 226.171 241.735,228.027 239.720,233.422 237.144 C 239.450 234.266,241.157 231.247,240.623 224.413 C 240.240 219.522,240.543 218.956,246.787 212.922 C 255.617 204.387,256.347 199.934,250.789 188.515 C 248.646 184.113,248.435 183.066,249.462 181.931 C 249.826 181.529,250.019 181.200,249.891 181.200 C 249.763 181.200,249.285 181.674,248.829 182.254 M311.917 213.439 C 309.686 215.551,307.335 217.666,306.692 218.139 C 306.048 218.613,305.256 219.512,304.931 220.139 C 304.430 221.102,304.608 221.010,306.087 219.539 C 308.987 216.653,316.031 210.296,316.155 210.453 C 316.218 210.534,316.681 212.770,317.182 215.423 L 318.095 220.246 317.189 222.021 C 316.691 222.997,314.176 225.965,311.601 228.616 C 306.182 234.193,304.451 236.638,302.977 240.800 C 301.496 244.980,299.713 248.218,298.123 249.614 C 296.715 250.850,296.692 251.100,298.054 250.371 C 299.334 249.686,301.824 245.478,303.190 241.692 C 305.030 236.593,305.987 235.195,311.632 229.367 C 318.898 221.864,318.884 221.902,317.510 214.500 C 316.421 208.638,316.895 208.728,311.917 213.439 " stroke="none" fill="#0485b0" fill-rule="evenodd"></path><path id="path3" d="M355.200 113.757 C 355.200 114.546,354.767 114.661,346.870 115.970 C 329.071 118.922,322.172 123.139,308.721 139.290 C 295.285 155.423,285.944 159.843,266.993 159.033 C 260.354 158.749,260.021 158.838,259.272 161.100 C 258.694 162.846,259.029 162.747,259.897 160.915 L 260.600 159.430 269.600 159.379 C 288.625 159.273,295.810 155.648,309.204 139.400 C 321.635 124.320,329.700 119.240,345.162 116.753 C 355.828 115.038,355.683 115.073,356.042 114.100 C 356.291 113.425,356.228 113.200,355.787 113.200 C 355.464 113.200,355.200 113.451,355.200 113.757 M120.413 127.476 C 120.406 127.738,120.595 128.073,120.832 128.220 C 123.823 130.068,113.119 141.432,104.152 145.928 C 101.842 147.086,100.833 147.822,100.658 148.478 C 100.228 150.084,100.425 150.657,100.923 149.247 C 101.330 148.092,101.975 147.594,105.327 145.847 C 114.710 140.957,123.405 130.940,121.013 127.776 C 120.690 127.349,120.420 127.214,120.413 127.476 M18.016 129.971 C 17.685 130.589,17.821 131.003,18.701 132.056 C 25.399 140.067,38.325 146.008,53.800 148.188 C 65.047 149.773,71.120 151.787,76.288 155.648 C 78.928 157.620,78.950 157.666,80.158 163.627 C 82.951 177.406,88.818 190.407,97.383 201.800 C 101.717 207.565,110.233 216.422,111.400 216.379 L 112.200 216.349 111.400 216.022 C 110.076 215.481,100.792 205.670,97.752 201.600 C 88.910 189.763,83.326 177.156,80.388 162.400 C 78.814 154.491,70.804 149.861,55.400 147.958 C 40.804 146.154,28.007 140.843,20.700 133.557 C 18.487 131.350,17.845 129.891,18.900 129.465 C 19.277 129.313,19.280 129.255,18.914 129.232 C 18.647 129.214,18.242 129.547,18.016 129.971 M280.262 134.183 C 274.562 136.216,273.471 143.983,278.384 147.543 C 281.395 149.724,285.064 149.548,287.865 147.089 C 294.148 141.573,288.141 131.374,280.262 134.183 M284.600 134.448 C 291.859 136.458,291.857 146.407,284.596 148.343 C 277.738 150.172,272.702 141.341,277.791 136.409 C 279.890 134.374,282.069 133.747,284.600 134.448 M91.698 147.262 C 91.424 147.536,91.200 148.198,91.200 148.732 C 91.200 149.828,94.385 157.348,94.711 157.022 C 94.827 156.906,94.174 155.203,93.261 153.237 C 91.472 149.387,91.276 148.367,92.181 147.616 C 93.192 146.776,94.169 147.346,95.200 149.377 C 95.750 150.461,96.470 151.418,96.800 151.504 C 97.200 151.609,97.248 151.551,96.942 151.330 C 96.690 151.149,96.059 150.100,95.539 149.000 C 94.538 146.884,92.843 146.117,91.698 147.262 M249.273 182.087 C 248.429 182.931,248.764 184.355,250.789 188.515 C 256.347 199.934,255.617 204.387,246.787 212.922 C 240.543 218.956,240.240 219.522,240.623 224.413 C 241.157 231.247,239.450 234.266,233.422 237.144 C 228.027 239.720,226.171 241.735,223.606 247.800 C 221.141 253.627,220.425 254.096,211.396 255.790 C 204.572 257.070,201.385 258.074,199.123 259.653 C 190.634 265.580,190.525 265.616,180.783 265.763 C 172.482 265.888,172.932 265.806,165.400 268.559 C 161.327 270.048,153.612 269.898,156.000 268.376 C 156.330 268.166,158.873 266.584,161.652 264.861 C 178.283 254.548,191.212 241.098,197.977 227.073 C 202.715 217.249,202.810 217.427,192.624 217.059 C 171.643 216.301,154.126 212.994,139.631 207.053 C 136.464 205.755,136.310 205.755,134.922 207.037 L 133.800 208.075 135.200 207.271 C 136.447 206.555,136.753 206.524,138.000 206.990 C 157.098 214.122,170.788 216.782,191.920 217.466 C 201.527 217.776,201.362 217.689,199.859 221.681 C 193.821 237.710,178.823 254.130,159.900 265.427 C 157.095 267.102,154.800 268.600,154.800 268.756 C 154.800 270.279,161.358 270.536,165.110 269.160 C 173.312 266.152,172.796 266.247,181.200 266.178 C 190.301 266.103,190.748 265.973,197.319 261.486 C 201.702 258.494,203.983 257.656,211.690 256.210 C 220.563 254.546,221.458 253.948,224.006 247.987 C 226.727 241.620,227.491 240.807,233.962 237.400 C 240.055 234.192,241.486 231.650,241.059 224.800 C 240.738 219.639,241.075 219.011,247.619 212.600 C 253.216 207.116,254.145 205.729,254.619 202.146 C 255.111 198.426,253.116 191.212,250.237 186.298 C 249.108 184.372,248.938 183.222,249.673 182.487 C 249.934 182.226,250.057 181.923,249.947 181.813 C 249.837 181.703,249.534 181.826,249.273 182.087 M314.981 210.032 C 314.331 210.716,311.775 213.077,309.300 215.279 C 306.825 217.480,304.800 219.421,304.800 219.591 C 304.800 219.955,307.611 217.498,312.457 212.900 C 316.784 208.793,316.429 208.681,317.510 214.500 C 318.884 221.902,318.898 221.864,311.632 229.367 C 305.987 235.195,305.030 236.593,303.190 241.692 C 301.087 247.521,299.010 250.322,296.414 250.831 L 295.000 251.108 296.419 251.154 C 298.933 251.236,301.194 248.285,303.613 241.764 C 305.539 236.573,306.466 235.230,312.037 229.562 C 319.358 222.112,319.455 221.848,317.866 213.630 C 316.879 208.529,316.663 208.259,314.981 210.032 " stroke="none" fill="#046c94" fill-rule="evenodd"></path></g></svg>
