<?xml version="1.0" standalone="no"?>
<!DOCTYPE svg PUBLIC "-//W3C//DTD SVG 20010904//EN"
 "http://www.w3.org/TR/2001/REC-SVG-20010904/DTD/svg10.dtd">
<svg version="1.0" xmlns="http://www.w3.org/2000/svg"
 width="500.000000pt" height="500.000000pt" viewBox="0 0 500.000000 500.000000"
 preserveAspectRatio="xMidYMid meet">

<g transform="translate(0.000000,500.000000) scale(0.100000,-0.100000)"
fill="#000000" stroke="none">
<path d="M4270 3713 c-401 -41 -705 -141 -1434 -470 -652 -294 -950 -393
-1188 -393 -212 0 -355 82 -434 247 -26 55 -39 73 -52 71 -71 -13 64 -227 189
-300 127 -74 316 -89 528 -42 238 53 455 134 928 347 415 187 505 226 690 296
449 169 847 232 1158 181 38 -6 53 -5 65 6 12 12 12 16 0 28 -27 26 -307 44
-450 29z"/>
<path d="M4570 3580 c-319 -35 -336 -39 -445 -90 -89 -41 -149 -90 -237 -194
-198 -234 -275 -276 -510 -280 -124 -2 -153 -11 -128 -41 17 -20 197 -21 292
-1 142 31 169 51 438 333 74 78 109 107 160 132 68 33 215 70 227 57 16 -16
-43 -100 -105 -150 -39 -31 -100 -99 -155 -171 -299 -392 -483 -550 -718 -615
-40 -11 -95 -20 -121 -20 -43 0 -48 2 -48 23 0 32 -67 167 -83 167 -33 0 -35
-22 -6 -84 16 -34 33 -82 37 -107 16 -83 7 -104 -85 -201 l-84 -89 6 -53 c10
-79 -12 -119 -84 -156 -70 -35 -93 -60 -125 -132 -14 -31 -36 -64 -48 -71 -13
-8 -67 -24 -122 -36 -54 -11 -111 -28 -126 -38 -126 -80 -117 -77 -245 -84
-89 -4 -134 -12 -173 -28 -51 -20 -132 -29 -132 -13 0 4 23 20 51 35 130 74
310 234 394 352 64 90 130 231 116 248 -8 10 -52 16 -153 20 -216 9 -464 57
-603 117 -45 19 -50 19 -64 5 -15 -15 -14 -18 7 -35 29 -24 187 -75 307 -100
87 -18 208 -33 367 -46 l77 -6 -29 -59 c-17 -33 -37 -59 -46 -59 -58 0 -226
25 -314 46 -148 37 -320 108 -415 173 -60 42 -99 15 -45 -30 48 -40 240 -133
339 -164 89 -27 256 -61 354 -71 l57 -5 -19 -27 c-10 -15 -36 -46 -57 -70
l-39 -44 -95 20 c-317 67 -601 212 -795 407 -165 164 -288 386 -330 592 -10
48 -24 95 -32 104 -41 49 -169 95 -328 119 -170 26 -303 86 -402 181 -50 48
-113 149 -93 149 6 0 32 -11 58 -24 89 -45 159 -60 262 -56 244 9 330 -1 438
-52 34 -16 70 -40 78 -54 19 -28 54 -33 54 -6 0 25 27 60 60 77 19 10 81 19
168 25 90 6 160 16 198 29 32 11 60 18 62 16 2 -2 -9 -30 -24 -62 -37 -75
-124 -162 -197 -197 -67 -33 -75 -42 -53 -64 15 -15 20 -14 68 10 157 76 268
237 268 387 0 67 -32 79 -53 19 -8 -23 -61 -55 -111 -69 -21 -6 -98 -14 -172
-19 -142 -9 -213 -30 -234 -71 -10 -18 -12 -18 -50 6 -101 63 -243 89 -447 79
-131 -6 -148 -5 -212 16 -39 12 -100 40 -137 61 -102 60 -117 52 -85 -49 38
-123 129 -227 257 -294 98 -51 174 -75 321 -98 123 -20 216 -51 254 -86 9 -8
20 -36 24 -62 9 -63 67 -237 100 -303 55 -108 138 -223 231 -319 200 -206 451
-345 767 -424 l129 -33 -49 -40 c-59 -49 -169 -121 -243 -158 -30 -15 -58 -33
-62 -38 -12 -19 11 -35 63 -46 79 -17 145 -13 235 15 64 20 98 25 141 22 84
-7 138 7 211 56 54 36 85 48 164 64 114 25 154 43 176 83 12 21 27 30 52 34
208 34 435 99 568 163 l62 30 0 -25 c0 -73 -71 -282 -141 -412 -60 -111 -44
-124 77 -66 49 24 84 49 106 76 76 95 106 124 169 165 71 45 95 77 129 167 16
42 42 80 101 143 43 47 82 97 85 110 4 14 3 51 -1 82 -19 133 -5 161 188 393
272 326 393 441 528 501 130 59 187 182 143 311 -12 34 -25 52 -47 64 -37 19
-161 25 -267 13z m252 -71 c23 -27 31 -89 18 -138 -16 -61 -58 -101 -156 -150
-80 -39 -104 -59 -230 -185 -77 -78 -219 -235 -314 -351 -198 -241 -248 -294
-345 -375 -161 -132 -357 -238 -573 -310 -112 -37 -297 -80 -343 -80 l-22 0
24 26 c13 14 43 35 66 46 24 11 56 35 72 53 24 28 41 35 110 49 243 49 479
162 670 320 40 33 180 182 311 331 265 302 394 432 466 468 101 52 156 143
158 259 l0 68 36 -6 c19 -3 42 -15 52 -25z m-144 -52 c-3 -60 -8 -82 -31 -116
-16 -24 -42 -50 -59 -59 -127 -70 -212 -153 -509 -492 -230 -262 -314 -346
-421 -418 -139 -94 -336 -180 -494 -217 -103 -24 -104 -23 -104 35 0 60 24 90
73 90 50 1 193 35 286 69 101 37 194 87 282 152 82 60 287 270 448 459 159
186 215 244 271 282 105 72 150 142 150 236 l0 52 56 0 56 0 -4 -73z m-158 20
c0 -64 -36 -125 -101 -170 -79 -54 -130 -106 -306 -310 -302 -348 -418 -455
-590 -545 -88 -46 -232 -96 -307 -107 l-48 -8 26 39 c14 22 28 54 32 71 6 29
10 33 53 38 307 42 527 208 864 652 41 54 111 131 156 172 83 74 121 130 121
175 0 25 13 32 73 35 25 1 27 -1 27 -42z m-541 -1230 c1 -9 -35 -56 -78 -103
-44 -47 -86 -99 -93 -116 -51 -124 -72 -152 -147 -203 -52 -35 -89 -70 -123
-116 -27 -37 -65 -75 -87 -87 l-40 -23 39 90 c47 109 85 232 102 329 12 71 13
73 58 99 68 39 228 156 290 211 l55 50 12 -57 c6 -31 12 -64 12 -74z"/>
<path d="M3469 3301 c-73 -73 0 -193 98 -160 42 14 65 47 65 96 0 29 -7 43
-31 65 -43 39 -92 38 -132 -1z m95 -37 c31 -31 13 -74 -31 -74 -16 0 -27 9
-35 26 -11 23 -10 29 11 45 28 23 35 23 55 3z"/>
</g>
</svg>
