<svg xmlns="http://www.w3.org/2000/svg" width="500" height="500" fill-rule="evenodd" xmlns:v="https://vecta.io/nano"><path d="M325.031 52l5.494.5c-2.167 8.208-19.086 22.252-23.975 33.512 6.023-13.872-19.092 76.226 23.226 101.035 4.507-6.036 24.619-6.739 24.224 4.251-32.451 5.263-14.37 58.335-16.483 54.519-5.526 13.271-17.151 25.383-19.729 41.515 8.886 5.879 16.794 19.129 17.732 32.511-19.159 15.585-19.746 124.714-19.73 159.555l-.249.25h-2.248c2.83 5.813-57.462-61.991-89.9-101.785-7.676-9.415-20.483-19.34-24.724-31.511-.688 6.3.169-36.668-.25-58.27-8.595 1.657-20.344 14.417-23.475 21.757l-2.247-.25c.232-19.371 4.114-36.084-2.248-53.768-5.688-15.812-27.657-53.937-22.726-75.777.411-1.818 17.4-26.047 19.729-45.515l.5-.25c3.155 2.036 7.777 4 11.737 0-8.027 16.386 13.1-38.227 36.711-40.514l.5.5-5.994 10.5c-2.944 8.843 2.524 28.174 6.993 31.511 14.966-12.05 25.454-26 34.713-43.765 5.137-9.858 7.244-24.478 15.734-31.011 10-7.7 26.945-4.9 41.456-8.5 4.88-1.211 11.798 1.429 15.229-1z" fill="#b393bd"/><path d="M215.036 95.806c1.809-6.743-16.214 29.934 7.245 64.565 19.487-8.86 32.433-39.1 39.469-60.31h.25q-1.124 8.757-2.248 17.517c-1.124 41.407-30.678 71.5-24.731 86.586 4.53-2.2-19 11.684-33.974 22.523l8.993-4.5.25.251c-4.591 6.072-12.426 8.637-16.737 15.515-8.9 14.2-7.041 35.224-13.24 53.053h-.25q-2.746-15.389-5.495-30.781c-7.022-43.542-3.833-94.647 10.741-127.126 6.941-15.476 30.068-37.97 29.727-37.293z" fill="#d5c5d5"/><path d="M127.727 36h2.265c.466 29.754-13.79 50.123-36.74 59L93 93.506c7.747-4.383 10.731-30.873 10.569-44.561 12.284.455 24.6-.492 24.158-12.945z" fill="#b393bd"/><path d="M106.565 59c14.445 7.786-3.69 32.333-10.565 36 1.882-12.429 10.5-19.743 10.565-36z" fill="#f3e4f2"/><path d="M228 203c1.825 1.939 7.64 71.426 11 81.169q5.625 26.844 11.25 53.7c3.747 11.362 9.69 24.152 13.5 36.463q9 30.467 18 60.939L289 452l-18.5-18.481c-30.325-25.22-50.339-63.682-64-105.395l-10-42.207-.75-.25C185.2 288.813 180.517 302.8 171 307.9c4.292-24.241 4.422-60.918 17-76.424 10.074-12.424 31.829-13.898 40-28.476z" fill="#e7d5e6"/><path d="M327.259 55.43c-6.13 5.32-18.833 17.777-23.442 29-10.494 25.57 10.225 136.742 10.225 122.275 0 21.352-26.083 45.33-24.441 64.01.361 4.1 4.417 3.942 6.235 6.5 3.672 5.168 5.2 16.18 5.986 23.5 12.565 1.623 20.208 10.857 29.178 14.5-6.338 29.827-20.71 56.263-24.689 90.015-2.339 19.836 3.318 40.7 5.985 58.759q.5 8 1 16h-.748c-5.147-17.11-19.426-22.224-24.44-31.255-16.097-52.077-58.917-174.525-59.108-242.279-.078-27.656 16.439-47.993 24.191-71.762 5.718-17.534 2.016-51 14.464-62.01 33.482-22.636 60.866-16.97 59.604-17.253z" fill="#f3e4f2"/></svg>