<svg width="100" height="100" viewBox="0 0 130 73" fill="none" xmlns="http://www.w3.org/2000/svg">
<path d="M61.8488 10.8157L56.3533 16.3756C49.7254 10.0453 41.7653 7.29883 32.6062 8.5381C25.6119 9.47592 19.8167 12.7918 15.2538 18.2178C5.96144 29.1703 6.49433 45.4148 16.4195 55.8648C19.8438 59.5116 24.199 62.1418 29.0091 63.4679C33.7815 64.8295 38.8285 64.8873 43.6305 63.6354C48.4435 62.3872 52.8364 59.866 56.3533 56.3338L61.8821 61.8937C53.8887 70.4347 39.8003 75.1238 26.0116 70.8701C18.7491 68.6243 12.3852 64.1134 7.84076 57.9898C3.29627 51.8662 0.806761 44.4475 0.732391 36.8069C0.622375 29.2928 2.85739 21.933 7.12307 15.7628C11.3887 9.59252 17.4705 4.92223 24.5128 2.40873C38.3348 -2.54835 53.1226 1.63837 61.8488 10.8157Z" fill="white"/>
<path d="M73.6718 16.3086L68.2096 10.8491C75.6035 2.81056 89.2589 -2.247 103.147 1.70527C110.219 3.70527 116.505 7.85001 121.148 13.5743C125.791 19.2986 128.565 26.3238 129.093 33.6919C129.675 41.3753 127.789 49.0438 123.712 55.5681C119.635 62.0924 113.582 67.1276 106.445 69.9322C92.5229 75.3917 77.3021 71.4059 68.0098 61.7597L73.6052 56.4342C80.3996 62.865 88.4929 65.6115 97.7853 64.2047C104.979 63.0994 110.841 59.5491 115.371 53.8551C119.636 48.4376 121.772 41.6325 121.373 34.7343C120.974 27.8361 118.067 21.3261 113.206 16.4425C109.761 12.9371 105.45 10.4169 100.716 9.1409C95.9523 7.84019 90.9312 7.82864 86.1615 9.10742C81.4449 10.371 77.1391 12.8536 73.6718 16.3086Z" fill="#0085FF"/>
<path d="M64.9794 39.7876H25.4453C24.9779 39.8155 24.509 39.7931 24.0464 39.7206C23.2833 39.5386 22.6042 39.1016 22.1201 38.481C21.6361 37.8604 21.3759 37.0929 21.3819 36.3042C21.4148 35.4979 21.7305 34.7292 22.2731 34.1345C22.8157 33.5398 23.5501 33.1575 24.3462 33.0554H104.68C105.22 33.0372 105.76 33.1051 106.279 33.2563C107.016 33.4922 107.649 33.9789 108.068 34.6329C108.488 35.2869 108.667 36.0673 108.577 36.8402C108.487 37.6165 108.133 38.3377 107.574 38.8811C107.016 39.4245 106.287 39.7567 105.513 39.8211H64.9794V39.7876Z" fill="white"/>
</svg>
