<svg width="75" height="50" viewBox="0 0 75 50" fill="none" xmlns="http://www.w3.org/2000/svg">
<path d="M36.4489 17.8275C36.4489 21.9145 36.4081 25.9828 36.4489 30.0604C36.5152 32.8184 36.1827 35.5716 35.4618 38.2345C34.6185 41.3562 32.7325 44.0954 30.1171 45.9968C26.6337 48.5308 22.6724 49.5777 18.4501 49.6595C13.2249 49.7664 7.99663 49.7318 2.76832 49.7569H1.28126C1.17437 49.6626 1.13035 49.6312 1.09576 49.5935C1.05653 49.562 1.0262 49.5208 1.00774 49.474C0.961842 49.2672 0.933441 49.0568 0.922852 48.8452C0.922852 33.0565 0.922852 17.2689 0.922852 1.48232C0.942689 1.3343 0.981794 1.1895 1.03917 1.05161C1.54534 0.737218 2.0798 0.881838 2.58912 0.881838C7.76398 0.881838 12.9388 0.844111 18.1137 0.881838C21.7984 0.913277 25.3636 1.57035 28.5923 3.45041C30.3337 4.42532 31.8544 5.7501 33.0588 7.34137C34.2632 8.93264 35.1253 10.756 35.5907 12.6966C35.7573 13.8096 35.905 14.9288 36.1094 16.0292C36.2383 16.6454 35.9302 17.3182 36.4489 17.8275ZM10.1754 40.778C10.845 40.778 11.3669 40.778 11.8888 40.778C13.6651 40.778 15.4445 40.8534 17.2177 40.7559C18.6219 40.7097 20.0158 40.4986 21.3708 40.1272C23.9236 39.3632 26.3602 36.694 26.4796 33.8991C26.7091 28.523 26.5614 23.1407 26.5551 17.7614C26.5551 16.6957 26.4891 15.5984 25.9986 14.5547C24.8165 12.0395 22.8547 10.6562 20.1698 10.1532C17.2648 9.60931 14.3316 9.97086 11.4141 9.87969C11.0242 9.87969 10.5809 9.72249 10.1754 10.1155V40.778Z" fill="#010101"/>
<path d="M64.3858 49.5782C62.1191 46.384 60.4277 42.8471 58.1326 39.4203L51.7662 49.5782H41.8252L53.3162 31.614C49.6598 25.9549 45.928 20.4657 42.2465 14.7061H52.5522C54.5203 18.0197 56.4726 21.3082 58.5476 24.7823C60.3554 21.3554 62.1002 18.0543 63.8671 14.7218H73.9496C73.6886 15.8284 73.0064 16.6741 72.472 17.5827C69.7148 22.242 66.9544 26.9012 64.15 31.5354C63.6565 32.3528 63.6313 33.0099 64.15 33.799C67.2939 38.5211 70.4274 43.2537 73.5503 47.9968C73.8647 48.459 74.1194 48.94 74.4935 49.5908L64.3858 49.5782Z" fill="#010101"/>
</svg>
