<svg width="108" height="91" viewBox="0 0 108 91" fill="none" xmlns="http://www.w3.org/2000/svg">
<path d="M107.974 0.414062H0.683594V90.7103H107.974V0.414062Z" fill="#E1FD01"/>
<path d="M25.369 77.6726C23.6071 76.3511 23.0345 74.8976 23.0785 72.8715C23.1666 59.2169 23.1226 45.5623 23.1226 31.9078C23.1243 30.9806 23.4074 30.0758 23.9343 29.313C24.4612 28.5501 25.2072 27.9651 26.0737 27.6352L37.614 23.671L52.1495 18.6496L67.5219 13.364L69.5921 15.3021V25.7853L67.4779 27.2388L69.1516 27.3269H81.2645C83.7312 27.3269 83.7312 27.3269 85.5811 29.265V75.4262C85.493 75.5583 85.493 75.6464 85.4049 75.6904C84.2597 77.3202 82.7181 77.7607 80.736 77.7607C62.8529 77.6726 44.9699 77.6432 27.0868 77.6726H25.369ZM52.1936 44.3731C52.4843 43.2299 52.6904 42.0668 52.8102 40.8934C52.9423 38.0303 51.4007 36.0923 48.6257 35.4316C44.7937 34.4625 41.1378 35.828 39.0235 39.3077C36.572 43.1821 35.7488 47.8676 36.7331 52.3456C36.9156 53.5035 37.4414 54.58 38.2423 55.4359C39.0433 56.2918 40.0826 56.8878 41.2259 57.1467C47.1281 58.7764 51.1364 54.0194 51.5329 49.7468L49.6388 48.1171C49.4568 47.9859 49.2654 47.8681 49.0662 47.7647L48.4496 49.2182C47.921 50.4075 47.2603 51.5527 46.1151 52.2575C44.9699 52.9622 43.2961 52.698 42.7235 51.0682C42.5106 50.4598 42.4062 49.8187 42.4151 49.1742C42.4762 46.6019 43.0607 44.0691 44.133 41.7303C44.4489 41.1572 44.8335 40.6247 45.2782 40.1446C45.4705 39.8965 45.7475 39.7279 46.0562 39.671C46.365 39.6142 46.6838 39.673 46.952 39.8362C47.7888 41.3779 46.6877 42.7874 46.4234 44.3731H52.1936ZM68.6231 47.8528C67.61 49.3504 66.9052 50.7599 65.8481 51.817C64.791 52.8741 62.1482 52.6979 61.7517 50.3634C61.7139 50.0714 61.6992 49.7769 61.7077 49.4825C61.7137 47.0682 62.1771 44.6769 63.0732 42.435C63.3867 41.6817 63.8178 40.9829 64.3505 40.3648C64.791 39.7922 65.4076 39.3958 66.2886 39.8803C67.1255 41.4219 65.8481 42.7874 65.716 44.4171H71.3099C71.5302 43.6683 71.7944 43.0076 71.9706 42.3469C72.7635 38.647 71.0016 35.9601 67.3017 35.2554C63.6017 34.5506 61.3113 35.5637 59.2851 38.0744C55.7173 42.4791 54.8804 47.5885 56.2018 53.0063C56.7744 55.3848 58.5804 56.7503 61.047 57.2788C66.2886 58.4681 70.3849 54.2396 70.8254 49.7468L68.6231 47.8528ZM59.9458 63.6656C53.8233 66.8811 48.0972 65.6478 42.5032 62.4323L40.6973 65.7799C47.7888 70.4929 54.9685 71.2858 62.4565 67.0573L64.6148 69.7441L66.685 61.5073C64.5267 61.1109 59.5934 61.155 58.5363 61.5514L59.9458 63.6656Z" fill="black"/>
<path d="M52.1933 44.3731H46.4231C46.6874 42.7874 47.7886 41.3779 46.9517 39.8363C46.6836 39.673 46.3647 39.6142 46.056 39.6711C45.7473 39.728 45.4703 39.8965 45.2779 40.1446C44.8332 40.6247 44.4487 41.1572 44.1327 41.7303C43.0604 44.0692 42.4759 46.602 42.4149 49.1742C42.406 49.8188 42.5104 50.4599 42.7232 51.0683C43.2958 52.698 44.6613 53.1385 46.1148 52.2575C47.5684 51.3766 47.9208 50.4076 48.4493 49.2183L49.066 47.7648C49.2651 47.8682 49.4565 47.9859 49.6386 48.1171L51.5326 49.7469C51.1362 54.0194 47.1279 58.7765 41.2256 57.1467C40.0823 56.8878 39.043 56.2919 38.2421 55.436C37.4411 54.5801 36.9154 53.5035 36.7328 52.3456C35.7486 47.8676 36.5717 43.1821 39.0233 39.3077C41.1375 35.828 44.7934 34.4626 48.6255 35.4316C51.4005 36.0923 52.9421 38.0304 52.81 40.8934C52.6902 42.0669 52.4841 43.23 52.1933 44.3731Z" fill="white"/>
<path d="M68.6229 47.8529L70.8252 49.747C70.3847 54.2397 66.2884 58.4682 61.0468 57.279C58.5802 56.7504 56.7742 55.385 56.2016 53.0064C54.8802 47.5886 55.7171 42.4792 59.2849 38.0745C61.3111 35.5638 64.1301 34.6829 67.3015 35.2555C70.4728 35.8281 72.7633 38.6471 71.9704 42.3471C71.7942 43.0078 71.53 43.6685 71.3097 44.4173H65.7158C65.8479 42.7875 67.1253 41.4221 66.2884 39.8804C65.4074 39.3959 64.7908 39.7923 64.3503 40.3649C63.8176 40.983 63.3865 41.6818 63.073 42.4351C62.1769 44.677 61.7135 47.0683 61.7075 49.4827C61.699 49.777 61.7137 50.0716 61.7516 50.3636C62.148 52.6981 64.1741 53.4909 65.8479 51.8171C67.5217 50.1434 67.6098 49.3505 68.6229 47.8529Z" fill="white"/>
<path d="M59.9458 63.6657L58.5363 61.5515C59.5934 61.155 64.5267 61.111 66.685 61.5074L64.6148 69.7442L62.4565 67.0573C54.9685 71.2858 47.7888 70.493 40.6973 65.78L42.5032 62.4324C48.0972 65.6478 53.8233 66.8811 59.9458 63.6657Z" fill="white"/>
</svg>
