<svg xmlns="http://www.w3.org/2000/svg" viewBox="0 0 270.2 298.3"><defs><style>.cls-1{fill:#00d37e;}</style></defs><g id="Layer_2" data-name="Layer 2"><g id="Layer_1-2" data-name="Layer 1"><path class="cls-1" d="M123.8,130.3c47.1-27.1,51.6-66.3,57.7-101.1,3.7-21,5.2-29.2,5.2-29.2h83.5s-4,22.4-7.6,43.4c-6.1,34.9-5.1,60.3-50.8,86.9L146.4,168c-47.1,27.1-51.6,66.2-57.7,101-3.6,21.1-5.2,29.2-5.2,29.2H0s4-22.4,7.7-43.4c6-34.9,5.1-60.3,50.7-86.8Z"/><path class="cls-1" d="M104.6,119.8H70.5A58.8,58.8,0,0,1,12.7,71.2L.1,0H83.6Z"/><path class="cls-1" d="M165.6,178.6h34.2a58.9,58.9,0,0,1,57.9,48.6l12.5,71.1H186.7Z"/></g></g></svg>