<svg viewBox="250 250 500 500" y="0px" x="0px" version="1.1" xmlns="http://www.w3.org/2000/svg" class="jss461">
<style type="text/css">.st0{fill:url(#SVGID_1_);}.st1{fill:url(#SVGID_2_);}.st2{fill:url(#SVGID_3_);}</style>
<g>
<linearGradient y2="325.3047" x2="494.631" y1="667.265" x1="494.631" gradientUnits="userSpaceOnUse" id="SVGID_1_"><stop offset="0" style="stop-color: rgb(0, 156, 139);"></stop><stop offset="0.5" style="stop-color: rgb(63, 45, 135);"></stop><stop offset="1" style="stop-color: rgb(170, 43, 135);"></stop></linearGradient>
<linearGradient y2="325.3047" x2="442.1472" y1="667.265" x1="442.1472" gradientUnits="userSpaceOnUse" id="SVGID_2_"><stop offset="0" style="stop-color: rgb(0, 156, 139);"></stop><stop offset="0.5" style="stop-color: rgb(63, 45, 135);"></stop><stop offset="1" style="stop-color: rgb(170, 43, 135);"></stop></linearGradient>
<linearGradient y2="325.3047" x2="535.4897" y1="667.265" x1="535.4897" gradientUnits="userSpaceOnUse" id="SVGID_3_"><stop offset="0" style="stop-color: rgb(0, 156, 139);"></stop><stop offset="0.5" style="stop-color: rgb(63, 45, 135);"></stop><stop offset="1" style="stop-color: rgb(170, 43, 135);"></stop></linearGradient>
<path class="st0" d="M437,326.5c34.1,0,68.1,0,102.2,0c0.8,0.1,1.7,0.3,2.5,0.3c25.4,0.5,50.7,1.8,75.7,6.5   c14,2.6,27.7,6.5,40.5,13.1c16.5,8.5,28.5,21.1,34.4,39c5.2,15.6,6.7,31.7,6.8,48c0,0.2-0.1,0.4-0.2,0.6c-28.2,0-56.5,0-84.8,0   c-0.1-1.7-0.3-3.3-0.4-5c-0.8-9.6-5.2-16.7-14.6-20c-4.5-1.6-9.2-2.8-13.9-3.7c-11.8-2.1-23.8-2.6-35.7-2.7   c-37.9-0.1-75.8,0-113.7,0.3c-9.2,0.1-18.3,1.2-27.2,3.5c-12.1,3.1-22,9.2-27.9,20.7c-6,11.6-7.1,24.3-8.2,37.3   c36.2,0,72.1,0,108.7,0c-1.4,0.9-2.2,1.4-3.1,1.9c-34.7,21.7-69.5,43.4-104.3,65.1c-1.4,0.9-2,1.8-1.8,3.4c1,8.4,1.5,16.8,2.9,25.1   c1.6,9.7,5.8,18.2,13.7,24.5c5.9,4.7,12.8,7.4,20,9c13.6,3.1,27.4,3.8,41.3,3.9c25.8,0.1,51.6,0.1,77.4,0   c17.6-0.1,35.3-0.4,52.7-3.2c7.2-1.2,14.4-2.9,20.8-6.6c4.9-2.8,8.8-6.6,10.6-12.1c1.2-3.6,2.3-7.4,2.4-11.2   c0.4-9.9,0.4-19.8,0.5-29.7c0-0.7,0-1.4,0-2.3c-37.8,0-75.3,0-113.4,0c0.9-0.6,1.4-1,1.9-1.3c35.2-22,70.4-44,105.6-65.9   c0.9-0.6,2.1-0.9,3.1-0.9c28.7,0,57.3,0,86,0c0.6,0,1.3,0.1,2,0.1c0,0.9,0,1.7,0,2.5c-0.1,18.3-0.4,36.5-0.4,54.8   c0,15.7-0.1,31.4-1.6,47.1c-1.2,13.1-3.2,26.1-7.2,38.6c-6.4,20-18.4,35.6-37.1,45.7c-11.5,6.2-23.9,10-36.8,12.4   c-22,4.1-44.2,5.7-66.6,5.9c-29.8,0.3-59.6,0.2-89.3,0.3c-21,0-42-0.1-62.9-2.2c-13.4-1.4-26.7-3.3-39.7-7.2   c-12.7-3.8-24.5-9.3-34.8-17.9c-13.5-11.3-21.6-26.1-26.3-42.8c-3.9-13.9-5.7-28.2-6.7-42.5c-0.3-3.9-0.5-7.8-0.8-11.6   c0-27.6,0-55.2,0-82.8c0.1-0.6,0.3-1.3,0.3-1.9c0.8-11.4,1.4-22.8,2.6-34.1c1.3-12.2,3.5-24.3,7.5-35.9   c7.1-20.6,19.5-36.9,38.8-47.6c13.6-7.5,28.3-11.4,43.5-13.9c17.2-2.8,34.4-4.1,51.8-4.5C435,326.8,436,326.6,437,326.5z"></path></g><g id="g41">
<path class="st1" id="path30" d="M364.5,528.5c0.9-3.6,1.9-7.2,2.7-10.9c0.3-1.3,0.9-2,2.1-2.6c20.7-9.9,41.5-19.6,62-29.9   c25.5-12.8,50.8-26.1,76.1-39.2c3.5-1.8,7-3.6,10.6-5.4c0.5-0.3,1.1-0.5,1.9-0.4c-49.9,31.3-99.8,62.6-149.8,94   c-1.9-1.6-3.7-3.2-5.6-4.7C364.5,529.1,364.5,528.8,364.5,528.5z"></path>
<path class="st2" id="path39" d="M452.9,563.5c52.1-33,104.2-66,156.4-99.1c2.6,3.1,5.2,6,7.6,9.2c0.7,0.9,0.6,2.5,0.7,3.8c0.2,2,1,4.3,0.1,5.8   c-0.8,1.4-3.3,2-5.1,2.8c-52.5,25.6-105,51.3-157.4,76.9c-0.7,0.3-1.4,0.6-2.1,0.9C453,563.7,453,563.6,452.9,563.5z"></path>
</g>
</svg>
