<svg id="svg" version="1.1" xmlns="http://www.w3.org/2000/svg" xmlns:xlink="http://www.w3.org/1999/xlink" width="400" height="400" viewBox="0, 0, 400,400"><g id="svgg"><path id="path0" d="M188.200 62.439 C 182.272 62.726,179.154 62.952,166.800 63.988 C 157.590 64.760,142.775 66.794,131.900 68.780 C 130.635 69.011,128.565 69.388,127.300 69.618 C 122.646 70.463,121.333 70.714,118.200 71.357 C 114.690 72.077,114.105 72.211,106.800 73.956 C 95.525 76.649,83.828 79.751,79.600 81.171 C 79.050 81.356,77.790 81.737,76.800 82.018 C 75.810 82.299,72.866 83.219,70.257 84.064 C 67.648 84.909,65.257 85.600,64.944 85.600 C 63.782 85.600,63.994 86.817,65.827 90.658 C 66.862 92.826,69.002 97.300,70.584 100.600 C 72.166 103.900,73.714 107.182,74.025 107.894 C 74.664 109.357,75.351 109.759,76.329 109.242 C 77.152 108.808,85.111 106.145,90.800 104.402 C 93.110 103.695,95.450 102.964,96.000 102.779 C 99.579 101.572,116.712 97.036,121.800 95.947 C 122.900 95.712,124.520 95.356,125.400 95.157 C 126.280 94.958,127.810 94.638,128.800 94.447 C 129.790 94.255,132.850 93.647,135.600 93.096 C 138.350 92.545,141.950 91.877,143.600 91.613 C 145.250 91.348,147.410 90.980,148.400 90.795 C 149.390 90.610,151.640 90.255,153.400 90.006 C 155.160 89.756,157.680 89.394,159.000 89.200 C 162.565 88.675,167.996 88.079,173.400 87.619 C 176.040 87.394,180.270 87.032,182.800 86.814 C 201.847 85.179,224.371 85.569,249.800 87.974 C 254.501 88.418,258.375 88.891,263.200 89.607 C 264.850 89.852,267.280 90.210,268.600 90.403 C 269.920 90.596,272.080 90.953,273.400 91.197 C 274.720 91.440,276.790 91.802,278.000 92.000 C 282.529 92.741,288.137 93.863,294.000 95.200 C 294.770 95.376,296.390 95.736,297.600 96.000 C 304.004 97.399,312.810 99.694,320.400 101.943 C 329.613 104.672,330.813 105.048,337.513 107.298 L 344.027 109.486 344.728 108.443 C 345.113 107.869,345.638 106.950,345.893 106.400 C 347.228 103.526,350.639 96.300,352.395 92.625 C 353.492 90.329,354.437 87.888,354.495 87.200 L 354.600 85.949 349.200 84.177 C 341.825 81.756,342.282 81.895,334.200 79.621 C 326.108 77.343,324.406 76.878,322.400 76.400 C 321.092 76.088,319.367 75.648,316.000 74.768 C 315.230 74.567,312.980 74.035,311.000 73.586 C 309.020 73.136,306.680 72.599,305.800 72.391 C 304.920 72.184,302.760 71.718,301.000 71.357 C 297.867 70.714,296.554 70.463,291.900 69.618 C 290.635 69.388,288.565 69.011,287.300 68.780 C 276.432 66.796,261.622 64.762,252.400 63.987 C 241.227 63.049,237.316 62.776,229.800 62.411 C 220.636 61.965,197.650 61.981,188.200 62.439 M167.400 96.382 C 166.740 96.552,164.940 96.909,163.400 97.174 C 161.860 97.440,159.610 97.835,158.400 98.052 C 154.642 98.726,152.304 99.128,149.400 99.601 C 144.521 100.396,141.373 100.979,133.200 102.602 C 121.023 105.020,113.724 106.847,105.200 109.611 C 74.555 119.547,77.680 118.193,79.068 120.938 C 85.010 132.688,96.957 143.195,114.500 152.099 C 119.665 154.721,120.239 154.761,120.603 152.521 C 122.480 140.994,133.272 135.821,157.213 134.972 C 165.320 134.685,165.317 134.684,165.695 137.000 C 165.803 137.660,166.170 139.550,166.510 141.200 C 166.851 142.850,167.216 144.650,167.321 145.200 C 167.426 145.750,167.912 148.090,168.402 150.400 C 168.892 152.710,169.435 155.320,169.609 156.200 C 170.029 158.322,170.798 162.213,171.190 164.200 C 171.363 165.080,172.065 168.500,172.749 171.800 C 173.980 177.738,174.791 181.737,175.631 186.000 C 175.870 187.210,176.230 188.965,176.432 189.900 C 176.635 190.835,176.965 192.365,177.168 193.300 C 177.370 194.235,177.744 196.080,178.000 197.400 C 178.256 198.720,178.629 200.520,178.829 201.400 C 179.029 202.280,179.638 205.250,180.182 208.000 C 180.726 210.750,181.626 215.250,182.183 218.000 C 183.141 222.738,183.452 224.234,184.406 228.700 C 184.629 229.745,185.081 231.950,185.409 233.600 C 185.738 235.250,186.747 240.200,187.651 244.600 C 188.556 249.000,189.438 253.320,189.611 254.200 C 190.608 259.263,190.910 260.767,191.237 262.300 C 191.437 263.235,191.763 264.765,191.963 265.700 C 192.163 266.635,192.513 268.390,192.741 269.600 C 192.969 270.810,193.327 272.610,193.535 273.600 C 194.747 279.358,196.516 287.942,196.667 288.800 C 196.764 289.350,196.999 290.520,197.189 291.400 C 197.379 292.280,197.744 294.080,198.000 295.400 C 198.256 296.720,198.622 298.520,198.813 299.400 C 199.737 303.651,200.783 308.728,201.615 313.000 C 202.520 317.651,202.860 319.330,203.600 322.800 C 204.337 326.256,204.618 327.644,205.587 332.600 C 206.699 338.297,208.858 348.694,209.027 349.171 C 209.688 351.034,210.793 347.041,213.613 332.600 C 213.902 331.123,214.397 328.610,215.191 324.600 C 215.365 323.720,215.908 321.110,216.398 318.800 C 216.889 316.490,217.465 313.700,217.680 312.600 C 218.560 308.090,218.723 307.273,219.313 304.400 C 219.652 302.750,220.015 300.950,220.120 300.400 C 220.224 299.850,220.890 296.610,221.600 293.200 C 222.310 289.790,222.970 286.550,223.067 286.000 C 223.164 285.450,223.399 284.280,223.589 283.400 C 223.779 282.520,224.144 280.720,224.400 279.400 C 224.884 276.904,225.268 275.054,225.940 272.000 C 226.157 271.010,226.530 269.210,226.769 268.000 C 227.580 263.884,228.404 259.811,230.049 251.800 C 230.952 247.400,231.771 243.350,231.868 242.800 C 231.964 242.250,232.199 241.080,232.389 240.200 C 232.579 239.320,232.944 237.520,233.200 236.200 C 233.456 234.880,233.822 233.080,234.013 232.200 C 234.937 227.949,235.983 222.872,236.815 218.600 C 237.572 214.706,238.026 212.476,238.400 210.800 C 238.765 209.165,239.032 207.858,239.990 203.000 C 240.163 202.120,240.888 198.610,241.600 195.200 C 242.859 189.171,243.053 188.219,243.956 183.600 C 244.193 182.390,244.911 178.880,245.552 175.800 C 248.282 162.683,252.054 144.082,252.730 140.400 C 253.858 134.260,253.558 134.350,268.600 135.617 C 289.220 137.353,295.760 141.054,298.789 152.700 C 299.032 153.635,299.407 154.400,299.622 154.400 C 300.204 154.400,309.358 149.756,312.311 147.962 C 313.725 147.103,314.963 146.400,315.063 146.400 C 315.366 146.400,320.040 143.167,322.800 141.049 C 326.046 138.558,332.892 131.732,335.117 128.769 C 336.767 126.570,340.799 120.033,340.800 119.555 C 340.800 119.288,337.286 117.662,334.400 116.593 C 333.410 116.226,332.240 115.774,331.800 115.590 C 329.397 114.581,317.175 110.466,310.600 108.452 C 304.052 106.447,291.664 103.247,285.600 101.994 C 275.825 99.975,272.442 99.324,269.000 98.797 C 267.460 98.562,265.210 98.203,264.000 98.000 C 262.790 97.797,260.270 97.434,258.400 97.193 C 256.530 96.951,253.795 96.584,252.323 96.377 C 243.739 95.168,242.998 95.574,234.000 106.393 C 233.010 107.584,230.575 110.457,228.589 112.779 C 226.602 115.100,223.093 119.250,220.791 122.000 C 218.488 124.750,216.510 127.090,216.396 127.200 C 216.282 127.310,215.382 128.390,214.396 129.600 C 213.410 130.810,212.109 132.340,211.504 133.000 C 210.899 133.660,210.403 134.335,210.402 134.500 C 210.392 136.040,207.436 133.056,200.000 124.000 C 199.010 122.794,197.811 121.356,197.336 120.804 C 196.861 120.252,194.280 117.190,191.600 114.000 C 188.920 110.810,186.339 107.748,185.864 107.196 C 185.389 106.644,184.192 105.204,183.205 103.996 C 182.219 102.788,181.316 101.710,181.200 101.600 C 181.084 101.490,180.204 100.448,179.244 99.284 C 176.613 96.094,172.460 95.077,167.400 96.382 " stroke="none" fill="#fcfafa" fill-rule="evenodd"></path><path id="path1" d="M0.000 200.000 L 0.000 400.000 200.000 400.000 L 400.000 400.000 400.000 200.000 L 400.000 0.000 200.000 0.000 L 0.000 0.000 0.000 200.000 M229.800 62.411 C 237.316 62.776,241.227 63.049,252.400 63.987 C 261.622 64.762,276.432 66.796,287.300 68.780 C 288.565 69.011,290.635 69.388,291.900 69.618 C 296.554 70.463,297.867 70.714,301.000 71.357 C 302.760 71.718,304.920 72.184,305.800 72.391 C 306.680 72.599,309.020 73.136,311.000 73.586 C 312.980 74.035,315.230 74.567,316.000 74.768 C 319.367 75.648,321.092 76.088,322.400 76.400 C 324.406 76.878,326.108 77.343,334.200 79.621 C 342.282 81.895,341.825 81.756,349.200 84.177 L 354.600 85.949 354.495 87.200 C 354.437 87.888,353.492 90.329,352.395 92.625 C 350.639 96.300,347.228 103.526,345.893 106.400 C 345.638 106.950,345.113 107.869,344.728 108.443 L 344.027 109.486 337.513 107.298 C 330.813 105.048,329.613 104.672,320.400 101.943 C 312.810 99.694,304.004 97.399,297.600 96.000 C 296.390 95.736,294.770 95.376,294.000 95.200 C 288.137 93.863,282.529 92.741,278.000 92.000 C 276.790 91.802,274.720 91.440,273.400 91.197 C 272.080 90.953,269.920 90.596,268.600 90.403 C 267.280 90.210,264.850 89.852,263.200 89.607 C 238.927 86.002,205.701 84.848,182.800 86.814 C 180.270 87.032,176.040 87.394,173.400 87.619 C 167.996 88.079,162.565 88.675,159.000 89.200 C 157.680 89.394,155.160 89.756,153.400 90.006 C 151.640 90.255,149.390 90.610,148.400 90.795 C 147.410 90.980,145.250 91.348,143.600 91.613 C 141.950 91.877,138.350 92.545,135.600 93.096 C 132.850 93.647,129.790 94.255,128.800 94.447 C 127.810 94.638,126.280 94.958,125.400 95.157 C 124.520 95.356,122.900 95.712,121.800 95.947 C 116.712 97.036,99.579 101.572,96.000 102.779 C 95.450 102.964,93.110 103.695,90.800 104.402 C 85.111 106.145,77.152 108.808,76.329 109.242 C 75.351 109.759,74.664 109.357,74.025 107.894 C 73.714 107.182,72.166 103.900,70.584 100.600 C 69.002 97.300,66.862 92.826,65.827 90.658 C 63.994 86.817,63.782 85.600,64.944 85.600 C 65.257 85.600,67.648 84.909,70.257 84.064 C 72.866 83.219,75.810 82.299,76.800 82.018 C 77.790 81.737,79.050 81.356,79.600 81.171 C 83.828 79.751,95.525 76.649,106.800 73.956 C 114.105 72.211,114.690 72.077,118.200 71.357 C 121.333 70.714,122.646 70.463,127.300 69.618 C 128.565 69.388,130.635 69.011,131.900 68.780 C 142.775 66.794,157.590 64.760,166.800 63.988 C 179.154 62.952,182.272 62.726,188.200 62.439 C 197.650 61.981,220.636 61.965,229.800 62.411 M176.369 96.584 C 176.991 96.905,178.284 98.120,179.244 99.284 C 180.204 100.448,181.084 101.490,181.200 101.600 C 181.316 101.710,182.219 102.788,183.205 103.996 C 184.192 105.204,185.389 106.644,185.864 107.196 C 186.339 107.748,188.920 110.810,191.600 114.000 C 194.280 117.190,196.861 120.252,197.336 120.804 C 197.811 121.356,199.010 122.794,200.000 124.000 C 207.436 133.056,210.392 136.040,210.402 134.500 C 210.403 134.335,210.899 133.660,211.504 133.000 C 212.109 132.340,213.410 130.810,214.396 129.600 C 215.382 128.390,216.282 127.310,216.396 127.200 C 216.510 127.090,218.488 124.750,220.791 122.000 C 223.093 119.250,226.602 115.100,228.589 112.779 C 230.575 110.457,233.010 107.584,234.000 106.393 C 242.998 95.574,243.739 95.168,252.323 96.377 C 253.795 96.584,256.530 96.951,258.400 97.193 C 260.270 97.434,262.790 97.797,264.000 98.000 C 265.210 98.203,267.460 98.562,269.000 98.797 C 272.442 99.324,275.825 99.975,285.600 101.994 C 291.664 103.247,304.052 106.447,310.600 108.452 C 317.175 110.466,329.397 114.581,331.800 115.590 C 332.240 115.774,333.410 116.226,334.400 116.593 C 337.286 117.662,340.800 119.288,340.800 119.555 C 340.799 120.033,336.767 126.570,335.117 128.769 C 332.892 131.732,326.046 138.558,322.800 141.049 C 320.040 143.167,315.366 146.400,315.063 146.400 C 314.963 146.400,313.725 147.103,312.311 147.962 C 309.358 149.756,300.204 154.400,299.622 154.400 C 299.407 154.400,299.032 153.635,298.789 152.700 C 295.760 141.054,289.220 137.353,268.600 135.617 C 253.558 134.350,253.858 134.260,252.730 140.400 C 252.054 144.082,248.282 162.683,245.552 175.800 C 244.911 178.880,244.193 182.390,243.956 183.600 C 243.053 188.219,242.859 189.171,241.600 195.200 C 240.888 198.610,240.163 202.120,239.990 203.000 C 239.032 207.858,238.765 209.165,238.400 210.800 C 238.026 212.476,237.572 214.706,236.815 218.600 C 235.983 222.872,234.937 227.949,234.013 232.200 C 233.822 233.080,233.456 234.880,233.200 236.200 C 232.944 237.520,232.579 239.320,232.389 240.200 C 232.199 241.080,231.964 242.250,231.868 242.800 C 231.771 243.350,230.952 247.400,230.049 251.800 C 228.404 259.811,227.580 263.884,226.769 268.000 C 226.530 269.210,226.157 271.010,225.940 272.000 C 225.268 275.054,224.884 276.904,224.400 279.400 C 224.144 280.720,223.779 282.520,223.589 283.400 C 223.399 284.280,223.164 285.450,223.067 286.000 C 222.970 286.550,222.310 289.790,221.600 293.200 C 220.890 296.610,220.224 299.850,220.120 300.400 C 220.015 300.950,219.652 302.750,219.313 304.400 C 218.723 307.273,218.560 308.090,217.680 312.600 C 217.465 313.700,216.889 316.490,216.398 318.800 C 215.908 321.110,215.365 323.720,215.191 324.600 C 214.397 328.610,213.902 331.123,213.613 332.600 C 210.793 347.041,209.688 351.034,209.027 349.171 C 208.858 348.694,206.699 338.297,205.587 332.600 C 204.618 327.644,204.337 326.256,203.600 322.800 C 202.860 319.330,202.520 317.651,201.615 313.000 C 200.783 308.728,199.737 303.651,198.813 299.400 C 198.622 298.520,198.256 296.720,198.000 295.400 C 197.744 294.080,197.379 292.280,197.189 291.400 C 196.999 290.520,196.764 289.350,196.667 288.800 C 196.516 287.942,194.747 279.358,193.535 273.600 C 193.327 272.610,192.969 270.810,192.741 269.600 C 192.513 268.390,192.163 266.635,191.963 265.700 C 191.763 264.765,191.437 263.235,191.237 262.300 C 190.910 260.767,190.608 259.263,189.611 254.200 C 189.438 253.320,188.556 249.000,187.651 244.600 C 186.747 240.200,185.738 235.250,185.409 233.600 C 185.081 231.950,184.629 229.745,184.406 228.700 C 183.452 224.234,183.141 222.738,182.183 218.000 C 181.626 215.250,180.726 210.750,180.182 208.000 C 179.638 205.250,179.029 202.280,178.829 201.400 C 178.629 200.520,178.256 198.720,178.000 197.400 C 177.744 196.080,177.370 194.235,177.168 193.300 C 176.965 192.365,176.635 190.835,176.432 189.900 C 176.230 188.965,175.870 187.210,175.631 186.000 C 174.791 181.737,173.980 177.738,172.749 171.800 C 172.065 168.500,171.363 165.080,171.190 164.200 C 170.798 162.213,170.029 158.322,169.609 156.200 C 169.435 155.320,168.892 152.710,168.402 150.400 C 167.912 148.090,167.426 145.750,167.321 145.200 C 167.216 144.650,166.851 142.850,166.510 141.200 C 166.170 139.550,165.803 137.660,165.695 137.000 C 165.317 134.684,165.320 134.685,157.213 134.972 C 133.272 135.821,122.480 140.994,120.603 152.521 C 120.239 154.761,119.665 154.721,114.500 152.099 C 96.957 143.195,85.010 132.688,79.068 120.938 C 77.680 118.193,74.555 119.547,105.200 109.611 C 113.724 106.847,121.023 105.020,133.200 102.602 C 141.373 100.979,144.521 100.396,149.400 99.601 C 152.304 99.128,154.642 98.726,158.400 98.052 C 159.610 97.835,161.860 97.440,163.400 97.174 C 164.940 96.909,166.740 96.552,167.400 96.382 C 169.551 95.827,175.149 95.953,176.369 96.584 " stroke="none" fill="#fc0404" fill-rule="evenodd"></path></g></svg>
