<svg width="61" height="63" viewBox="0 0 61 63" fill="none" xmlns="http://www.w3.org/2000/svg">
<path d="M30.1283 0C43.5336 0 55.5984 9.38368 59.0371 22.5558C62.4759 35.7279 58.1629 49.2497 48.3129 56.6518C33.1591 67.9588 13.3426 63.7041 4.19208 47.1515C-4.95846 30.599 1.45278 10.7825 17.7722 2.73933C21.6539 0.971824 25.8633 0.0386024 30.1283 0ZM44.641 21.5067C42.7176 17.3103 39.512 15.9697 35.8984 17.7765C33.7419 18.8839 31.8186 20.6324 29.6621 21.6233C27.3521 22.731 24.9006 23.5154 22.3766 23.9546C19.579 24.3043 17.3642 22.6724 15.5574 20.4576C16.3151 22.0312 17.1311 23.6049 18.4133 24.5957C20.9778 26.6939 24.1251 27.1019 27.4473 26.2277C26.6896 29.0836 25.8154 31.7646 25.3491 34.504C24.708 38.5255 24.8246 42.6054 26.6897 46.3938C27.8553 48.9 29.6038 49.4829 31.7603 48.0258C29.3707 47.035 28.7879 45.0533 28.4964 42.8385C27.6805 37.0102 28.7296 31.3566 30.0118 25.7031C30.1982 25.166 30.5438 24.6984 31.0026 24.3626C32.518 23.1969 34.0917 22.0312 35.7236 20.9239C39.1041 18.6508 41.144 18.7091 44.641 21.5067Z" fill="#DF4A4C"/>
</svg>
