<svg width="59" height="62" viewBox="0 0 59 62" fill="none" xmlns="http://www.w3.org/2000/svg">
<path d="M35.9232 29.2829C35.9232 33.8291 35.865 38.3752 35.9232 42.9213C36.0371 47.3849 34.4779 51.7298 31.552 55.1026C29.1635 57.9428 25.936 59.9524 22.3334 60.8426C18.7308 61.7328 14.9387 61.4576 11.5024 60.0567C4.74145 57.3174 1.06957 52.3633 0.137033 45.0778C-1.20349 34.7033 7.53906 26.3105 15.5239 25.5528C16.3369 25.4269 17.1658 25.4466 17.9719 25.6111C19.8369 26.019 21.0026 27.4178 20.886 29.0498C20.8211 29.8995 20.4579 30.6989 19.8607 31.3068C19.2634 31.9147 18.4706 32.292 17.6222 32.372C16.7202 32.4466 15.8244 32.5829 14.9411 32.78C13.435 33.2119 12.0391 33.9618 10.8475 34.979C9.65589 35.9963 8.69629 37.2572 8.03342 38.6769C7.37056 40.0965 7.01983 41.6418 7.00494 43.2085C6.99004 44.7752 7.3113 46.3269 7.94705 47.7589C9.69556 51.897 13.0177 53.9952 17.4473 54.2284C24.7328 54.6946 28.6378 48.808 28.8709 43.9704C29.104 39.1329 28.9292 35.4027 28.9292 31.0897C28.9292 25.1448 28.8126 19.1998 28.9292 13.2549C29.0458 7.30996 33.1256 1.65644 39.4785 0.25763C41.1626 -0.0819795 42.8972 -0.0858711 44.5828 0.246184C46.2684 0.57824 47.8718 1.23971 49.3013 2.19267C50.7307 3.14564 51.958 4.37136 52.9129 5.79957C53.8677 7.22779 54.5312 8.83041 54.8655 10.5156C55.0592 11.6117 55.1373 12.7252 55.0986 13.8377C55.1569 18.8501 55.1569 23.8043 55.1569 28.8167C55.1569 31.0314 55.2152 33.2462 55.2734 35.461C55.2702 36.0673 55.2117 36.6721 55.0986 37.2678C54.9303 38.0803 54.469 38.8025 53.8027 39.2969C53.1363 39.7913 52.3114 40.0233 51.485 39.9488C50.6712 39.8976 49.902 39.5589 49.3149 38.9931C48.7277 38.4272 48.3607 37.6712 48.2794 36.8598C48.232 36.3562 48.2125 35.8502 48.2211 35.3444V14.3623C48.2404 13.719 48.2013 13.0752 48.1045 12.4389C48.0001 10.9755 47.3366 9.60838 46.2515 8.62093C45.1664 7.63348 43.7429 7.10145 42.2762 7.13511C40.8137 7.06852 39.3765 7.5335 38.2301 8.44415C37.0838 9.35479 36.3058 10.6496 36.0398 12.0892C35.9429 12.7451 35.9039 13.4082 35.9232 14.0709V29.2829Z" fill="#FD00B5"/>
<path d="M51.0191 61.2798C49.1487 61.2798 47.3549 60.5368 46.0324 59.2142C44.7098 57.8916 43.9668 56.0978 43.9668 54.2274C43.9744 53.2963 44.1662 52.376 44.5313 51.5194C44.8965 50.6628 45.4276 49.8871 46.0941 49.2368C46.7606 48.5866 47.5492 48.0748 48.4145 47.7309C49.2798 47.3871 50.2047 47.218 51.1357 47.2334C52.9805 47.2488 54.7445 47.9924 56.0436 49.3024C57.3427 50.6124 58.0715 52.3826 58.0714 54.2274C58.0792 55.1557 57.9021 56.0763 57.5505 56.9354C57.1988 57.7945 56.6796 58.5751 56.0232 59.2315C55.3668 59.8879 54.5862 60.4071 53.7271 60.7588C52.868 61.1104 51.9474 61.2875 51.0191 61.2798Z" fill="#00E9FF"/>
</svg>
