<svg width="100" height="100" viewBox="0 0 186 48" fill="none" xmlns="http://www.w3.org/2000/svg">
<g clip-path="url(#clip0_16_48)">
<path d="M47.4577 1C48.1735 1.45249 48.3687 2.0989 48.3687 2.93923C48.3687 8.62763 48.3687 14.2514 48.3687 19.9398C48.3687 20.5862 48.1735 21.1033 47.718 21.5558C42.0566 27.115 36.395 32.7387 30.7986 38.3625C30.1479 39.0089 29.4971 39.2675 28.5861 39.2675C23.3151 39.2028 18.044 39.2675 12.7729 39.2675C12.1873 39.2675 11.7969 39.3967 11.3414 39.8492C8.73835 42.4349 6.13537 45.0205 3.53238 47.6061C2.81656 48.3172 2.03567 48.4465 1.45 47.8647C0.799254 47.2829 0.864327 46.4426 1.58015 45.7315C4.18313 43.1459 6.72104 40.6249 9.32402 38.0393C9.77954 37.5868 9.97477 37.1989 9.97477 36.5525C9.97477 31.3813 9.97477 26.21 9.97477 20.9741C9.97477 19.9398 10.3001 19.2288 11.0159 18.5177C13.6189 15.9967 16.1568 13.4111 18.89 10.6961C18.89 16.6431 18.89 22.3962 18.89 28.2138C18.955 28.2785 19.0852 28.2785 19.1503 28.3431C19.9312 27.5674 20.712 26.7917 21.493 25.9514C21.6232 25.7575 21.6231 25.3696 21.6231 25.1111C21.6231 19.6812 21.6231 14.2514 21.6231 8.82156C21.6231 8.23979 21.7532 7.85194 22.1437 7.4641C24.2912 5.33095 26.4386 3.13315 28.5861 1C34.8984 1 41.1455 1 47.4577 1ZM43.9437 21.6205C43.6183 21.5558 43.5533 21.4912 43.4882 21.4912C39.0631 21.4912 34.638 21.4912 30.278 21.4912C30.0178 21.4912 29.6273 21.6851 29.4321 21.879C24.6816 26.5978 19.8661 31.3166 15.1156 36.0354C14.9855 36.1647 14.8553 36.3586 14.7253 36.6172C19.3455 36.6172 23.8357 36.6172 28.3258 36.6172C28.6511 36.6172 28.9766 36.3586 29.1718 36.1647C31.6446 33.773 34.0524 31.3166 36.4601 28.9249C38.9329 26.4685 41.3408 24.0768 43.9437 21.6205ZM30.6035 16.7078C30.6685 16.7724 30.7335 16.837 30.7986 16.837C32.035 15.5442 33.2715 14.2514 34.573 13.0232C35.0285 12.5707 35.2237 12.1829 35.0935 11.5365C35.0285 11.084 35.0935 10.5022 35.2237 10.0497C35.7443 8.49835 37.5664 7.59338 39.1933 8.11051C40.8852 8.62763 41.8613 10.2437 41.4709 11.8597C41.0804 13.605 39.5186 14.7039 37.7616 14.4453C37.241 14.3807 36.9157 14.4453 36.5902 14.8332C35.484 15.9967 34.3127 17.0956 33.1413 18.2591C33.0112 18.3884 32.881 18.5823 32.6858 18.7763C37.1109 18.7763 41.4709 18.7763 45.7658 18.7763C45.7658 18.5823 45.8308 18.4531 45.8308 18.3238C45.8308 13.6696 45.8308 9.01548 45.8308 4.36133C45.8308 3.71492 45.5055 3.65028 45.05 3.65028C40.4296 3.65028 35.8744 3.65028 31.2542 3.65028C31.059 3.65028 30.8637 3.71492 30.6035 3.71492C30.6035 8.11051 30.6035 12.3768 30.6035 16.7078Z" fill="white"/>
</g>
<path d="M99.1687 17.305C102.868 17.305 106.472 17.305 110.171 17.305C110.171 17.7794 110.171 18.2535 110.171 18.7277C110.171 24.3238 110.171 30.0147 110.171 35.6108C110.171 38.4562 112.163 40.448 114.819 40.3532C117.285 40.2583 118.992 38.2665 118.992 35.7056C118.992 30.0147 118.992 24.3238 118.992 18.6329C118.992 18.2535 118.992 17.7794 118.992 17.305C122.691 17.305 126.39 17.305 130.089 17.305C130.089 17.7794 130.089 18.1587 130.089 18.6329C130.089 24.5135 130.089 30.394 130.089 36.2746C130.089 38.9303 131.986 40.9222 134.547 40.9222C137.108 40.9222 138.91 38.9303 138.91 36.1798C138.91 30.2044 138.91 24.229 138.91 18.3484C138.91 18.0639 138.91 17.6844 138.91 17.305C142.609 17.305 146.213 17.305 150.007 17.305C150.007 27.2642 150.007 37.2231 150.007 47.3719C145.929 47.2771 142.894 45.3801 140.617 42.1552C135.021 50.407 124.493 49.174 120.415 42.4397C119.846 43.1037 119.277 43.7677 118.707 44.3367C115.483 47.3719 111.784 48.605 107.421 47.5616C103.342 46.5183 100.686 43.8626 99.4532 39.784C99.1687 38.9305 99.0739 37.982 99.0739 37.1283C99.0739 30.7735 99.0739 24.3238 99.0739 17.969C99.0739 17.7794 99.0739 17.5895 99.1687 17.305Z" fill="white"/>
<path d="M83.2352 17.305C87.0291 17.305 90.6333 17.305 94.4272 17.305C94.1427 21.1937 95.186 25.1775 93.1942 28.7817C92.2457 30.4889 90.823 31.9116 89.4003 33.7137C92.1508 37.9818 95.0912 42.5345 98.1262 47.3718C96.9881 47.3718 96.0397 47.3718 95.186 47.3718C92.2457 47.3718 89.3054 47.3718 86.2702 47.3718C85.2269 47.3718 84.563 47.0873 83.9939 46.1388C81.1485 41.586 78.2083 37.1283 75.3628 32.5756C75.1731 32.2911 74.8885 31.9116 74.5091 31.3425C74.5091 36.8436 74.5091 41.9655 74.5091 47.1821C70.7152 47.1821 67.111 47.1821 63.4119 47.1821C63.4119 32.4807 63.4119 17.7792 63.4119 2.98296C67.0162 2.98296 70.7152 2.98296 74.5091 2.98296C74.5091 3.4572 74.5091 3.93144 74.5091 4.40568C74.5091 10.3811 74.5091 16.3565 74.5091 22.4268C74.5091 24.6083 76.0267 26.3156 78.0185 26.695C80.2 27.0743 82.1918 25.9361 82.9507 23.9444C83.1404 23.3753 83.2352 22.8063 83.2352 22.2371C83.33 20.7196 83.2352 19.1071 83.2352 17.305Z" fill="white"/>
<path d="M174.006 2.98296C177.705 2.98296 181.309 2.98296 184.913 2.98296C184.913 17.7792 184.913 32.4807 184.913 47.2769C181.309 47.2769 177.705 47.2769 174.006 47.2769C174.006 32.5756 174.006 17.7792 174.006 2.98296Z" fill="white"/>
<path d="M155.507 17.305C159.112 17.305 162.716 17.305 166.415 17.305C166.415 17.8742 166.415 18.2535 166.415 18.7277C166.415 24.0393 166.415 29.2559 166.415 34.5674C166.415 38.2665 167.269 39.4047 170.873 40.448C170.873 42.5347 170.873 44.5264 170.873 46.6131C170.873 46.8976 170.398 47.2771 170.019 47.3719C163.569 49.5533 156.076 45.2852 155.602 38.4562C155.128 31.5322 155.507 24.5135 155.507 17.305Z" fill="white"/>
<path d="M167.082 6.68211C167.082 9.90694 164.426 12.5627 161.106 12.5627C157.786 12.5627 155.131 9.81209 155.131 6.58726C155.131 3.36243 157.881 0.70668 161.106 0.70668C164.426 0.70668 167.082 3.36243 167.082 6.68211Z" fill="white"/>
<defs>
<clipPath id="clip0_16_48">
<rect width="48" height="48" fill="white"/>
</clipPath>
</defs>
</svg>
