<?xml version="1.0" encoding="utf-8"?>
<!-- Generator: Adobe Illustrator 24.0.0, SVG Export Plug-In . SVG Version: 6.00 Build 0)  -->
<svg version="1.1" id="Layer_1" xmlns="http://www.w3.org/2000/svg" xmlns:xlink="http://www.w3.org/1999/xlink" x="0px" y="0px"
	 viewBox="0 0 2000 2210" style="enable-background:new 0 0 2000 2210;" xml:space="preserve">
<style type="text/css">
	.st0{opacity:0.2;fill:#FF564F;enable-background:new    ;}
	.st1{fill:#F08179;}
	.st2{fill:#FF564F;}
</style>
<path class="st0" d="M198.5,1841.3L321.6,2210l845-1105L321.6,0L192.5,360.7l561.3,744.1L198.5,1841.3z"/>
<path class="st1" d="M1999.7,2209.8h-401l-845.2-1105L1598.7,0h401l-833.3,1104.8L1999.7,2209.8z"/>
<path class="st2" d="M0,0h321.4v2209.8H0V0z"/>
<g>
	<path id="_x30_" class="st2" d="M2000,2209.8h-401l-845.2-1105L1599,0h401l-833.3,1104.8L2000,2209.8z"/>
</g>
<g>
	<path id="_x30__1_" class="st2" d="M2000,2209.8h-401l-845.2-1105L1599,0h401l-833.3,1104.8L2000,2209.8z"/>
</g>
<g>
	<path id="_x30__2_" class="st2" d="M2000,2209.8h-401l-845.2-1105L1599,0h401l-833.3,1104.8L2000,2209.8z"/>
</g>
<g>
	<path id="_x30__3_" class="st2" d="M2000,2209.8h-401l-845.2-1105L1599,0h401l-833.3,1104.8L2000,2209.8z"/>
</g>
</svg>
