<?xml version="1.0" encoding="UTF-8"?>
<!DOCTYPE svg PUBLIC "-//W3C//DTD SVG 1.1//EN" "http://www.w3.org/Graphics/SVG/1.1/DTD/svg11.dtd">
<svg width="100" height="100" xmlns="http://www.w3.org/2000/svg">
 <defs>
  <linearGradient y2="0.71368" x2="0.93989" y1="0.31699" x1="1.03019" id="paint0_linear">
   <stop stop-color="#102440"/>
   <stop stop-color="#104034" offset="1"/>
  </linearGradient>
  <linearGradient y2="0.07031" x2="0.94141" y1="0.9375" x1="0.05078" id="svg_5">
   <stop stop-opacity="0.99609" stop-color="#e9f5ec"/>
   <stop stop-opacity="0.99609" stop-color="#e9f4f5" offset="1"/>
  </linearGradient>
 </defs>
 <g>
  <title>Layer 1</title>
  <ellipse ry="50" rx="50" id="svg_4" cy="50" cx="50" stroke="null" fill="url(#svg_5)"/>
  <path stroke="null" id="svg_1" fill="url(#paint0_linear)" d="m40.42357,71.86463c-1.80786,0.96042 -3.95478,1.44075 -6.44069,1.44075c-2.4859,0 -4.40683,-0.62155 -5.76278,-1.86453c-1.35595,-1.29941 -2.03392,-3.16381 -2.03392,-5.59319c0,-2.48595 0.84747,-4.91534 2.54241,-7.28829c1.75143,-2.42939 3.89834,-4.322 6.44076,-5.67797c2.5989,-1.35597 4.80237,-2.42939 6.6102,-3.22037l-5.33901,-12.28832c-0.96045,-2.09042 -2.34466,-3.13563 -4.15258,-3.13563l-0.67797,0.08474l-0.25425,0c0.33899,-1.97742 1.66668,-3.72886 3.9831,-5.2543c2.31642,-1.58193 4.80231,-2.3729 7.4577,-2.3729c4.29391,0 7.42951,2.14692 9.4069,6.44076l0.67799,1.35595l3.64415,8.98318c1.5254,-0.67799 2.59882,-1.6384 3.22037,-2.88138c0.67799,-1.29949 1.01698,-3.19217 1.01698,-5.67807c0,-2.54241 -0.67799,-4.60457 -2.03396,-6.18652c2.14696,-1.35595 4.63278,-2.03392 7.45772,-2.03392c5.08477,0 7.62715,2.45766 7.62715,7.37297c0,5.36734 -3.36159,9.60469 -10.08489,12.71207l-5.08477,2.37282l4.57634,11.77985c0.90398,2.37282 2.17517,4.06779 3.81358,5.08477c0.67799,0.45199 1.41241,0.7062 2.20339,0.76277c-1.69484,2.76838 -4.37857,4.77399 -8.05093,6.01697c-1.12998,0.33899 -2.4576,0.50855 -3.98301,0.50855c-1.52553,0 -3.16394,-0.53677 -4.91534,-1.61019c-1.7514,-1.01698 -2.93794,-2.34474 -3.55936,-3.98314l-4.66112,-12.11885c-3.16381,1.41254 -4.74578,4.68934 -4.74578,9.83067c0,2.37295 0.36721,4.51978 1.10163,6.44074z"/>
 </g>
</svg>
