<svg width="60" height="57" viewBox="0 0 60 57" fill="none" xmlns="http://www.w3.org/2000/svg">
<path d="M27.6808 0C35.2808 0.2 41.9809 2.6 47.4809 7.7C48.0809 8.4 49.9809 9 48.7809 10.2C47.5809 11.4 46.4809 11.5 44.8809 10.4C40.903 7.48287 35.9913 6.13038 31.0809 6.59999C29.3214 6.77888 27.5813 7.11352 25.8809 7.59999C21.8809 8.69999 21.8809 8.79999 23.2809 12.6C23.9263 14.2685 24.022 16.0994 23.5544 17.8262C23.0867 19.5529 22.08 21.0852 20.6808 22.2C19.1466 23.3834 17.2811 24.0581 15.3449 24.1298C13.4086 24.2015 11.4984 23.6667 9.8809 22.6C8.31109 21.5451 7.1229 20.0124 6.49248 18.2292C5.86205 16.446 5.82295 14.5072 6.3809 12.7C7.7809 8.3 10.9809 5.4 14.9809 3.2C18.9463 1.26368 23.2713 0.173912 27.6808 0Z" fill="white"/>
<path d="M59.1813 28.9001C58.9773 34.8289 56.8755 40.5355 53.1851 45.18C49.4946 49.8246 44.4105 53.1617 38.6813 54.7001C37.9813 54.9001 36.6814 56.0001 36.3814 54.7001C36.1303 54.126 36.1039 53.4784 36.3076 52.8857C36.5114 52.2931 36.9303 51.7986 37.4813 51.5001L40.1813 50.0001C43.0127 48.3148 45.41 45.9898 47.1813 43.2114C48.9525 40.4329 50.0485 37.2783 50.3814 34.0001C50.5814 32.4001 50.3814 31.6001 48.3814 31.6001C43.5814 31.7001 40.1814 28.8001 39.3814 24.6001C39.0886 22.679 39.44 20.7151 40.3806 19.0146C41.3213 17.3142 42.7983 15.9729 44.5813 15.2001C46.5524 14.3539 48.7519 14.1997 50.8218 14.7626C52.8917 15.3255 54.7102 16.5723 55.9813 18.3001C58.0243 21.4619 59.1334 25.1361 59.1813 28.9001Z" fill="white"/>
<path d="M2.38106 21C4.58106 21.9 5.28099 23 5.18099 25.4C4.58099 33 7.68109 39.1 13.7811 43.7C15.2811 44.9 15.881 45 16.981 43.1C18.0741 41.2243 19.8361 39.8313 21.9134 39.2007C23.9908 38.5701 26.2297 38.7484 28.181 39.7C30.0773 40.5912 31.5984 42.1228 32.4764 44.0252C33.3544 45.9276 33.5331 48.0788 32.981 50.1C31.781 54.2 27.481 56.9 22.681 56.6C17.2984 56.1942 12.2815 53.7216 8.68099 49.7C0.880988 41.5 -1.21894 32 2.38106 21Z" fill="white"/>
</svg>
