<?xml version="1.0" encoding="UTF-8"?><svg id="_圖層_1" xmlns="http://www.w3.org/2000/svg" xmlns:xlink="http://www.w3.org/1999/xlink" viewBox="0 0 16 16"><defs><style>.cls-1{fill:none;}.cls-2{clip-path:url(#clippath);}.cls-3{fill:#e9e9e9;}.cls-4{fill:#f7941e;}.cls-5{fill:#fff;}.cls-6{fill:#cecece;}.cls-7{fill:#d87d19;}.cls-8{fill:#080808;}.cls-9{fill:#360302;}</style><clipPath id="clippath"><path class="cls-1" d="m8,14.8c-3.75,0-6.8-3.05-6.8-6.8S4.25,1.2,8,1.2s6.8,3.05,6.8,6.8-3.05,6.8-6.8,6.8Z"/></clipPath></defs><path d="m8,16c-4.41,0-8-3.59-8-8S3.59,0,8,0s8,3.59,8,8-3.59,8-8,8Z"/><path d="m8,14.8c-3.75,0-6.8-3.05-6.8-6.8S4.25,1.2,8,1.2s6.8,3.05,6.8,6.8-3.05,6.8-6.8,6.8Z"/><g class="cls-2"><path class="cls-5" d="m.82,14.82c.88-.59,2.23-3.69,2.27-4.67.02-.52.1-.97.35-1.44s.57-.92.84-1.4c.43-.75.79-1.63,1.34-2.29.49-.59,1.1-1.09,1.82-1.38.89-.36,1.92-.37,2.78.05.72.35,1.46,1.06,1.76,1.82.07.17.5,1.29-.1,4.42,0,0-.62,2.16-.37,2.59s2.13,2.29,2.13,2.29H2s-1.18,0-1.18,0Z"/><path class="cls-3" d="m2.44,14.14c.29-.64.7-1.19,1.14-1.74.35-.44.58-.9,1.23-.82.21.03.42.06.62.12.51.15.81.63,1.6,1.34.23.21.49.4.79.49.32.1.66.07.99.12.61.09,1.05.65,1.34,1.16h3.49s-1.88-1.85-2.13-2.29c-.11-.2-.04-.76.06-1.31,0,0-.34-.18-.34-.18-.21-.09-.47-.13-.69-.19-.65-.18-1.31-.34-1.96-.51-.04-.01-.09-.02-.13-.02-.17.02-.19.27-.24.39-.05.13-.14.25-.27.31-.35.13-.79-.23-1.04-.43-1.42-1.13-1.39-1.97-1.16-2.37.32-.55.96.07,1.39-.17.22-.12.23-.4.33-.6.11-.21.42-.21.63-.2.44.02.87.12,1.26.33.19.1.58.37.72.07.03-.06.04-.12.04-.18.03-.34-.02-.77-.16-1.09s-.37-.53-.61-.75c-.27-.26-.79-.68-.62-1.11.26-.68,2.57,0,2.57,0l-.88-.7c-.07-.04-.15-.08-.22-.12-.87-.42-1.9-.41-2.78-.05-.72.29-1.33.79-1.82,1.38-.56.66-.91,1.55-1.34,2.29-.27.47-.59.92-.84,1.4-.24.46-.32.92-.35,1.44-.04.99-1.39,4.08-2.27,4.67,0,.33,1.18-1.52,1.18-1.19,0,.24,0,.49,0,.73,0,.14-.02.31,0,.45.21-.11.33-.45.43-.66,0,0,0,0,0-.01Z"/><path class="cls-6" d="m3.57,10.92c.1-.21.07-.79.16-1.01.09-.22.2-.43.33-.63.43-.64,1.05-1.17,1.62-1.68.2-.17.3-.23.52-.38.16-.11.51-.19.61-.37.1-.19-.05-.82.02-1.03.09-.24.16-.37.35-.54.19-.17.63-.12.69-.39.02-.08.02-.17.03-.25.12-.75,1.12-.73,1.66-.63.6.1,1.19.28,1.75.49-.32-.34-.71-.63-1.1-.82-.87-.42-1.9-.41-2.78-.05-.72.29-1.33.79-1.82,1.38-.56.66-.91,1.55-1.34,2.29-.27.47-.59.92-.84,1.4-.04.07-.03.06-.06.13-.28.7-.04.91.04,1.38,0,.02.14.71.15.71Z"/><path class="cls-6" d="m8.1,12.82c.31.13.63.16.96.18.46.03.84.03,1.17.42.23.27.37.6.56.9.1.15.19.34.33.45.11.09.2.06.33.06h2.19s-1.77-1.74-2.1-2.24c-.37-.05-.74-.21-1.07-.38-.65-.34-1.17-.86-1.67-1.37-.13-.14-.28-.27-.38-.44,0-.01-.01-.03-.02-.04,0,0,.16.78.27,1.34.03.16.12.35.08.51-.09.36-1.24-.39-1.38-.47-.21-.13-.42-.27-.63-.41-.16-.11-.35-.33-.54-.36.02.14.12.28.2.39.43.58,1,1.18,1.67,1.46,0,0,.02,0,.03.01Z"/><circle class="cls-8" cx="7.81" cy="6.48" r=".54"/><path class="cls-4" d="m10.22,7.68s.38.58.9.58.63-.29.63-.29c0,0-.2.61-.1,1.24.08.5.31.97.55,1.41.22.41.52.79.72,1.2.21.43-.36.48-.67.49-.73.04-1.45-.22-2.06-.61-.48-.31-.89-.73-1.31-1.12-.2-.19-.46-.38-.44-.69.02-.3.28-.48.54-.57.29-.11.62-.17.88-.33.17-.1.19-.26.23-.44.06-.29.09-.59.13-.89Z"/><path class="cls-7" d="m12.26,12.32c-.73.04-1.45-.22-2.06-.61-.48-.31-.89-.73-1.31-1.12-.2-.19-.42-.55-.4-.86,0,0-.24.36-.06.65.1.16.25.3.38.44.51.52,1.03,1.04,1.67,1.37.41.21.88.41,1.35.39.86-.03,1.09-.44,1.09-.44-.13.14-.45.17-.65.18Z"/><path class="cls-9" d="m10.88,9.83c-.08.06-.2.03-.28-.07s-.13-.37-.06-.43.25.12.33.22.08.23,0,.29Z"/></g><path class="cls-5" d="m8,15.14c-3.94,0-7.14-3.2-7.14-7.14S4.06.86,8,.86s7.14,3.2,7.14,7.14-3.2,7.14-7.14,7.14Zm0-13.94c-3.75,0-6.8,3.05-6.8,6.8s3.05,6.8,6.8,6.8,6.8-3.05,6.8-6.8S11.75,1.2,8,1.2Z"/></svg>