<?xml version="1.0" encoding="utf-8"?>
<!-- Generator: Adobe Illustrator 24.0.0, SVG Export Plug-In . SVG Version: 6.00 Build 0)  -->
<svg version="1.1" id="Layer_1" xmlns="http://www.w3.org/2000/svg" xmlns:xlink="http://www.w3.org/1999/xlink" x="0px" y="0px"
	 viewBox="0 0 1000 1000" style="enable-background:new 0 0 1000 1000;" xml:space="preserve">
<style type="text/css">
	.st0{fill:#00FFAD;}
	.st1{fill-rule:evenodd;clip-rule:evenodd;fill:url(#SVGID_2_);}
</style>
<path class="st0" d="M706.3,373c-3.5,3.5-8.2,5.5-13.1,5.5H228.7c-16.4,0-24.7-20-13.3-31.9l76.2-78.9c3.5-3.6,8.3-5.7,13.3-5.7
	h466.2c16.5,0,24.8,20.2,13.1,32.1L706.3,373z M706.3,725.6c-3.5,3.4-8.2,5.4-13.1,5.4H228.7c-16.4,0-24.7-19.5-13.3-31.1l76.2-77
	c3.5-3.5,8.3-5.5,13.3-5.5h466.2c16.5,0,24.8,19.7,13.1,31.3L706.3,725.6z M693.2,439.7c4.9,0,9.6,1.9,13.1,5.4l77.9,77
	c11.7,11.5,3.4,31.3-13.1,31.3H304.9c-5,0-9.8-2-13.3-5.5l-76.2-77c-11.5-11.6-3.2-31.1,13.3-31.1L693.2,439.7L693.2,439.7z"/>
<g>
	<g>
		<g>
			<path id="SVGID_1_" d="M500,0c276.1,0,500,223.9,500,500s-223.9,500-500,500S0,776.1,0,500S223.9,0,500,0L500,0z"/>
		</g>
	</g>
</g>
<linearGradient id="SVGID_2_" gradientUnits="userSpaceOnUse" x1="242.5198" y1="232.6697" x2="755.6802" y2="745.8303" gradientTransform="matrix(1 0 0 -1 0 1000)">
	<stop  offset="0" style="stop-color:#CB4EE8"/>
	<stop  offset="1" style="stop-color:#10F4B1"/>
</linearGradient>
<path class="st1" d="M231.2,452.3h462.7c5.8,0,11.3,2.3,15.3,6.4l73.2,73.7c13.5,13.6,3.9,36.8-15.3,36.8H304.4
	c-5.8,0-11.3-2.3-15.3-6.4l-73.2-73.7C202.3,475.5,212,452.3,231.2,452.3z M215.9,354.6l73.2-73.7c4.1-4.1,9.6-6.4,15.3-6.4H767
	c19.2,0,28.9,23.2,15.3,36.8L709.2,385c-4.1,4.1-9.6,6.4-15.3,6.4H231.2C212,391.4,202.3,368.2,215.9,354.6z M782.3,666.9
	l-73.2,73.7c-4.1,4.1-9.6,6.4-15.3,6.4H231.2c-19.2,0-28.9-23.2-15.3-36.8l73.2-73.7c4.1-4.1,9.6-6.4,15.3-6.4H767
	C786.2,630.1,795.9,653.3,782.3,666.9z"/>
</svg>
