<svg width="40" height="40" xmlns="http://www.w3.org/2000/svg">
 <defs>
  <linearGradient y2="49.99999%" y1="49.99999%" x2="99.999994%" x1="0%" id="a">
   <stop stop-color="#9588ff" offset="0"/>
   <stop stop-color="#6d3cff" offset="1"/>
  </linearGradient>
  <linearGradient y2="50.000004%" y1="50.000004%" x2="100.000004%" x1="0%" id="b">
   <stop stop-color="#c188ff" offset="0"/>
   <stop stop-color="#8d50ff" offset="1"/>
  </linearGradient>
  <linearGradient y2="49.999976%" y1="49.999976%" x2="100.000035%" x1="-.000035%" id="c">
   <stop stop-color="#c188ff" offset="0"/>
   <stop stop-color="#9281ff" offset="1"/>
  </linearGradient>
 </defs>
 <g>
  <title>Layer 1</title>
  <g id="svg_14">
   <path id="svg_4" fill="url(#c)" d="m5.7055,5.86335c-0.21645,0 -0.40692,-0.09524 -0.53679,-0.29438c-0.19914,-0.29437 -0.11256,-0.7013 0.18181,-0.90043l6.84849,-4.5368c0.29437,-0.19913 0.7013,-0.11255 0.90043,0.18182c0.19914,0.29437 0.11256,0.7013 -0.18182,0.90044l-6.85714,4.52813c-0.11255,0.08658 -0.24242,0.12122 -0.35498,0.12122z"/>
   <g id="svg_13">
    <path id="svg_2" fill="url(#a)" d="m30.37217,13.74213c-0.01732,-0.01731 -0.03463,-0.03463 -0.06926,-0.05194l-17.35931,-13.51516c-0.19914,-0.14718 -0.45888,-0.18181 -0.67533,-0.07792c-0.2251,0.09524 -0.36363,0.32901 -0.36363,0.57143l-0.32901,22.03463l0,0.31169l0,0.03463c0,6.45022 5.2381,11.69697 11.69697,11.69697s11.69709,-5.23809 11.69709,-11.69697c0.0172,-3.7922 -1.80098,-7.16883 -4.59752,-9.30736zm-17.20346,-11.76623l12.28571,9.54978c-0.7013,-0.12987 -1.42857,-0.19913 -2.18182,-0.19913c-4.46753,0 -8.35498,2.51948 -10.33766,6.20779l0.23377,-15.55844zm10.11255,31.47186c-5.7316,0 -10.39827,-4.66667 -10.41558,-10.39827l0,-0.31169c0.1645,-5.60173 4.77056,-10.10389 10.39826,-10.10389c5.73161,0 10.41564,4.66667 10.41564,10.41558c0.01726,5.72295 -4.6494,10.39827 -10.39832,10.39827z"/>
    <path id="svg_3" fill="url(#b)" d="m23.41113,18.68586c-0.01732,0 -0.01732,-0.01732 -0.01732,-0.01732l-17.28138,-13.93939c-0.19914,-0.16451 -0.45888,-0.19914 -0.68398,-0.07793c-0.22511,0.09524 -0.36364,0.32901 -0.36364,0.57143l-0.03463,22.75325l0,0.07792l0,0.22511c0,6.45022 5.23809,11.69697 11.69697,11.69697c6.45887,0 11.69708,-5.2381 11.69708,-11.68831c0.0172,-3.96537 -1.9828,-7.48918 -5.0131,-9.60173zm-17.07359,-12.12122l12.69264,10.23377c-0.75325,-0.14719 -1.52381,-0.22511 -2.31169,-0.22511c-4.51948,0 -8.46753,2.58875 -10.39827,6.35498l0.01732,-16.36364zm10.38961,32.12122c-5.7316,0 -10.41559,-4.66667 -10.41559,-10.41559c0,-5.7316 4.66667,-10.41558 10.41559,-10.41558c5.7316,0 10.41558,4.66666 10.41558,10.41558c0,5.74892 -4.66666,10.41559 -10.41558,10.41559z"/>
   </g>
  </g>
 </g>
</svg>