<svg width="570" height="570" viewBox="0 0 570 570" fill="none" xmlns="http://www.w3.org/2000/svg">
<path fill-rule="evenodd" clip-rule="evenodd" d="M285.214 479.428C177.953 479.428 91 392.475 91 285.214C91 177.953 177.953 91 285.214 91C392.475 91 479.428 177.953 479.428 285.214C479.428 392.475 392.475 479.428 285.214 479.428Z" fill="white"/>
<path fill-rule="evenodd" clip-rule="evenodd" d="M112.571 284.901C112.571 380.076 189.726 457.231 284.902 457.231C380.077 457.231 457.232 380.076 457.232 284.901C457.232 189.725 380.077 112.57 284.902 112.57C189.726 112.57 112.571 189.725 112.571 284.901ZM0.0716428 284.901C0.0716359 442.208 127.594 569.731 284.902 569.731C442.209 569.731 569.731 442.208 569.731 284.901C569.731 127.594 442.209 0.0709173 284.902 0.0709104C127.594 0.0709035 0.0716497 127.594 0.0716428 284.901Z" fill="url(#paint0_radial_51_55)"/>
<path fill-rule="evenodd" clip-rule="evenodd" d="M22.2307 395.136C70.9962 511.746 191.722 582.323 317.008 567.953C277.948 540.808 86.1943 347.225 267.943 263.839C466.791 172.607 454.361 67.82 406.891 27.5107C347.947 -0.460965 279.141 -8.43362 211.181 9.77602C156.254 24.4937 109.399 54.3001 73.8817 93.5407C39.9661 131.871 16.3325 178.565 5.83411 227.582C-0.638331 258.97 -1.86705 291.81 2.86015 324.87C4.4929 335.139 6.77174 345.339 9.72217 355.415C12.8329 369.146 17.0513 382.406 22.2307 395.136Z" fill="url(#paint1_linear_51_55)"/>
<path fill-rule="evenodd" clip-rule="evenodd" d="M404.11 26.2106C446.121 54.6218 549.678 138.578 373.038 239.886C179.518 350.875 341.532 522.884 450.114 517.015C544.215 450.016 591.679 329.319 560.024 211.183C537.234 126.129 478.264 60.431 404.11 26.2106Z" fill="url(#paint2_linear_51_55)"/>
<defs>
<radialGradient id="paint0_radial_51_55" cx="0" cy="0" r="1" gradientUnits="userSpaceOnUse" gradientTransform="translate(284.902 284.901) rotate(-29.6192) scale(371.15 355.389)">
<stop offset="0.5" stop-color="#B6B5FF"/>
<stop offset="1" stop-color="#DCDCFF"/>
</radialGradient>
<linearGradient id="paint1_linear_51_55" x1="218.158" y1="0" x2="218.158" y2="569.801" gradientUnits="userSpaceOnUse">
<stop stop-color="#6D6AFF"/>
<stop offset="0.5" stop-color="#4844EC"/>
<stop offset="1" stop-color="#191994"/>
</linearGradient>
<linearGradient id="paint2_linear_51_55" x1="730.349" y1="330.225" x2="122.321" y2="330.225" gradientUnits="userSpaceOnUse">
<stop stop-color="#4844EC"/>
<stop offset="1" stop-color="#6D6AFF"/>
</linearGradient>
</defs>
</svg>
