<svg xmlns="http://www.w3.org/2000/svg" xmlns:xlink="http://www.w3.org/1999/xlink" viewBox="0 0 646.65 646.47"><defs><style>.cls-1{isolation:isolate;}.cls-2{opacity:0.6;fill:url(#radial-gradient);}.cls-3{fill:#a5d3cc;mix-blend-mode:multiply;}.cls-4,.cls-6{opacity:0.2;}.cls-5,.cls-6{fill:#020303;}.cls-7{fill:#f4deed;}.cls-8{fill:#dbbfdd;}.cls-9{fill:#1d1d1b;}.cls-10{fill:#fbf8fc;}.cls-11{fill:#010101;}.cls-12{fill:#dbdabf;}.cls-13{fill:#c5c2b3;}.cls-14,.cls-15{fill:#cccce8;}.cls-14{stroke:#000;stroke-miterlimit:10;stroke-width:4px;}.cls-16{fill:#a9a9c9;}.cls-17{fill:#fff;}</style><radialGradient id="radial-gradient" cx="323.27" cy="323.23" r="323.23" gradientUnits="userSpaceOnUse"><stop offset="0" stop-color="#fff"/><stop offset="0.25" stop-color="#bababa"/><stop offset="0.62" stop-color="#575757"/><stop offset="0.88" stop-color="#181818"/><stop offset="1"/></radialGradient></defs><title>Gone Round</title><g class="cls-1"><g id="Layer_5" data-name="Layer 5"><circle class="cls-2" cx="323.27" cy="323.23" r="323.23"/><circle class="cls-3" cx="323.27" cy="323.23" r="323.23"/><g class="cls-4"><path class="cls-5" d="M173.22,320.64a24.55,24.55,0,0,1-4.13,6.2,33,33,0,0,1,2.32,6.53,31.18,31.18,0,0,1,.78,7.23,29.11,29.11,0,0,1-1,8.17q-1,3.53-2.58,7.48a164.7,164.7,0,0,1-14.36,27.69,105.21,105.21,0,0,1-17.46,20.73,73,73,0,0,1-20.12,13.07,56.46,56.46,0,0,1-22.36,4.56,85.48,85.48,0,0,1-18.83-2.24,77,77,0,0,1-18.92-7,63.29,63.29,0,0,1-16.26-12.21,46.24,46.24,0,0,1-10.66-18,.74.74,0,0,0-.17-.52,67,67,0,0,1-3.7-13.93,97.14,97.14,0,0,1-1.12-15A132.55,132.55,0,0,1,29,320.9a178.59,178.59,0,0,1,31.47-64.67A114.71,114.71,0,0,1,85,232.41a42.16,42.16,0,0,1,15.65-7.31,70,70,0,0,1,15.31-1.81,73.27,73.27,0,0,1,12.9,1.21,81.59,81.59,0,0,1,25,8.85,57.63,57.63,0,0,1,10.23,7.14,56.94,56.94,0,0,1,7.31,7.66,39.27,39.27,0,0,1,4.9,8.08,45.25,45.25,0,0,1,2.93,9,70.4,70.4,0,0,1,1.37,10.49v3.44q0,3.62-.34,7.83t-.86,8.43c-.34,2.81-.75,5.5-1.2,8.08s-.92,4.9-1.38,7V312Q174.94,317,173.22,320.64Zm-50.4-46.44.17.18a2.13,2.13,0,0,1,.43,1.29c.06.63.15,1.4.26,2.32v.17a.69.69,0,0,0,.09.34.93.93,0,0,1,.08.35v6.71c-.11.68-.2,1.32-.25,1.89a22.26,22.26,0,0,0-.09,2.23q0,10.85,5.42,17.81t18.66,8.85a9.44,9.44,0,0,1,1.2.09,9.46,9.46,0,0,0,1.21.09c3,0,5.07-.61,6.28-1.81a16.83,16.83,0,0,0,3.35-5.93v-.35q.69-2.58,1.38-6.19c.45-2.41.86-4.93,1.2-7.57s.63-5.3.86-8,.34-5.18.34-7.48v-2.92a37.35,37.35,0,0,0-2.83-12.73,31.55,31.55,0,0,0-7.83-10.15,49.35,49.35,0,0,0-7.74-5.33,53.72,53.72,0,0,0-9.2-4,75,75,0,0,0-10-2.58,54,54,0,0,0-9.89-.95,49.28,49.28,0,0,0-10.49,1.21,27.86,27.86,0,0,0-10.32,4.64l.17-.17a99.24,99.24,0,0,0-21.67,20.9,150.57,150.57,0,0,0-16.86,27.34,163.5,163.5,0,0,0-11,30.1,116.66,116.66,0,0,0-4,29,80.92,80.92,0,0,0,.86,12,51.72,51.72,0,0,0,2.75,10.66V376a29.65,29.65,0,0,0,7.4,13.24,46.08,46.08,0,0,0,12.21,9,58.47,58.47,0,0,0,14.53,5.16,70.43,70.43,0,0,0,14.71,1.64,40.52,40.52,0,0,0,17-3.79A56.47,56.47,0,0,0,127,390.39,92.76,92.76,0,0,0,140.8,373a153.27,153.27,0,0,0,11.78-23.14q1-2.75,1.72-4.9a14.52,14.52,0,0,0,.69-4.38,14,14,0,0,0-.78-4.65,21.83,21.83,0,0,0-2.32-4.64v.17c-1.38-2.41-2.73-4.61-4-6.62a27.52,27.52,0,0,0-4.3-5.16,15.82,15.82,0,0,0-11.44-4.39,74.9,74.9,0,0,0-14.1,1.46q-7.58,1.47-15.31,3a3.71,3.71,0,0,1-1.21.18,2,2,0,0,0-.86.17l.52-.17-6.36,1.29a14.28,14.28,0,0,0-4.82,1.8c.11-.23.23-.45.34-.69s.23-.45.35-.68q3.78-9.3,8.25-17.81a165.59,165.59,0,0,1,8.86-15.05,71.15,71.15,0,0,1,8.34-10.49q4-3.94,6.71-3.95Zm-21.24,86.52a60.36,60.36,0,0,1-5,6.62,29.82,29.82,0,0,1-4.73,4.47,7.28,7.28,0,0,1-4.3,1.64q-2.58,0-4-3.79a31,31,0,0,1-1.38-10.32,86.58,86.58,0,0,1,1.12-13.24,88.39,88.39,0,0,1,3.52-14.45q1.89,10,6.45,15.05t13.16,5.76Q104.07,356.95,101.58,360.72Z" transform="translate(-1.95 -0.49)"/><path class="cls-5" d="M495.71,273.86V274q-3.78,11.87-8.25,27.35t-9,32q-4.55,16.51-8.85,32.77t-7.74,29.67a3.72,3.72,0,0,1-.09.77,3.82,3.82,0,0,0-.08.78q-2.42,11.34-9.21,16.59t-17.8,5.25a45.64,45.64,0,0,1-13.93-2q-6.2-2-11.87-4.21l.52.17-1.9-.69a40.4,40.4,0,0,1-9.71-6.71,44.16,44.16,0,0,1-7.31-8.94c-.23.92-.43,1.78-.61,2.58s-.37,1.6-.6,2.41a46.15,46.15,0,0,1-3.44,8,19.6,19.6,0,0,1-4.64,5.59,18.75,18.75,0,0,1-6.54,3.35,32.62,32.62,0,0,1-9.11,1.12,28.71,28.71,0,0,1-4.56-.35c-1.44-.23-3.07-.57-4.9-1l-4.13-1.2q-4.47-1.38-9.2-3.18a39.78,39.78,0,0,1-9.38-5.25l-.34-.34a29.63,29.63,0,0,1-10-10q-3.09-5.51-3.09-14.28c0-1.26.06-2.58.17-3.95a39.18,39.18,0,0,1,.69-4.65v-.51c.68-3.55,1.72-8.43,3.09-14.62s3-13.13,4.91-20.81,3.95-15.85,6.19-24.51,4.53-17.17,6.88-25.55,4.61-16.31,6.79-23.82,4.24-14.07,6.19-19.69q4-10.66,10.67-15.4T382.19,226a38,38,0,0,1,8.09,1q4.64,1,9.54,2.58t9.55,3.52c3.09,1.32,5.79,2.61,8.08,3.87l.17.17a.5.5,0,0,1,.35.18,43,43,0,0,1,9.11,5.67q3.45-8.77,9.55-12.9T452.54,226a23.57,23.57,0,0,1,3.18.18c.86.11,1.81.28,2.84.51a12.52,12.52,0,0,0,1.29.35c.52.11,1,.23,1.46.34q4,1,10.15,3.27a56.3,56.3,0,0,1,12.13,6.19,39.41,39.41,0,0,1,10.23,10,24.82,24.82,0,0,1,4.3,14.79,33.15,33.15,0,0,1-.52,5.5,30.93,30.93,0,0,1-1.72,6.19ZM417,258.29q-2.14-3.69-8-6.1h.18c-2-1-4.13-2.07-6.54-3.1s-4.88-2-7.4-2.84-4.93-1.57-7.22-2.15a25,25,0,0,0-5.85-.86q-7.74,0-11,8.6-2.74,8.27-6.1,19.44t-6.8,23.56q-3.43,12.39-6.7,25t-6.11,23.91q-2.84,11.27-4.9,20.38t-2.93,14.1l.18-.17a24.31,24.31,0,0,0-.44,3,22.94,22.94,0,0,1-.25,2.32s-1.05,7.43,2.78,9.63,18,8.09,18,8.09h.17a.15.15,0,0,0,.17.17l1.89.52,3,.6a12.28,12.28,0,0,0,2.33.26,6.19,6.19,0,0,0,4.81-1.72,15.35,15.35,0,0,0,2.76-5.16q1.37-5.85,3.35-13.42t4.3-16q2.32-8.43,4.9-17.63t5.16-18.49q1.72,11.34,3.53,22.18a199.59,199.59,0,0,0,4.21,19.7,68.64,68.64,0,0,0,5.93,15.22,20.54,20.54,0,0,0,8.86,8.94q5,1.9,10.41,3.79A32.94,32.94,0,0,0,434.65,402q8.43,0,10.15-8.26l-.17.18q2.24-9.12,5.07-19.7t5.85-21.93q3-11.35,6.19-22.87t6.37-22.54q3.18-11,6.1-21t5.5-18.06a15.62,15.62,0,0,0,1-3.27,18,18,0,0,0,.26-2.92,9.72,9.72,0,0,0-2.75-6.88,28,28,0,0,0-6.54-5.08,47,47,0,0,0-7.74-3.52c-2.64-.92-4.81-1.61-6.53-2.07l-2.76-.6a10.22,10.22,0,0,0-2.06-.26q-7.57,0-10.32,8.43-4.47,13.59-9.2,29.76T423.82,315c-.46-4.59-.92-9.14-1.38-13.68s-.86-8.79-1.2-12.81-.67-7.68-.95-11-.49-6.13-.6-8.43Q419.17,262,417,258.29Z" transform="translate(-1.95 -0.49)"/><path class="cls-5" d="M503.8,237.22q7.9-2.06,17.37-4.12t19.52-3.87q10.06-1.81,20.38-3.1t20.12-1.81h1.21q11.7,0,18.32,4.65t10.4,14.27l.18.18a72.14,72.14,0,0,1,2.83,8.17q.95,3.53,1.64,7.31a35.56,35.56,0,0,1,1,7.91,44.4,44.4,0,0,1-1.21,11.26,16.69,16.69,0,0,1-4.12,7.57,19.81,19.81,0,0,1-7.74,4.73A56,56,0,0,1,591.51,293l-6,.69-6,.69a32.57,32.57,0,0,1,6.54,9.46l.34.34a46.1,46.1,0,0,1,4,10.15q1.29,5,2.49,10v.51c.23,1.15.4,2.21.52,3.18a25.56,25.56,0,0,1,.17,2.84q0,10.5-4.3,15.74a24.46,24.46,0,0,1-11.53,7.65,19.7,19.7,0,0,1,2.07,4.48,75.9,75.9,0,0,1,4.73,12.12,45.26,45.26,0,0,1,2,13,40.42,40.42,0,0,1-1.12,10.32,16.66,16.66,0,0,1-3.7,7,18.15,18.15,0,0,1-7,4.56,71.1,71.1,0,0,1-10.75,3.1h.34q-5.16,1.2-10.58,2.32t-10.92,2.32q-6,1.38-12,2.58t-11.61,2.58c-.57.11-1.11.2-1.63.26s-1.06.14-1.63.26q-2.41.35-4.47.6a32.46,32.46,0,0,1-4,.26,38.93,38.93,0,0,1-11-1.38,31.52,31.52,0,0,1-8.43-3.87,41.18,41.18,0,0,1-7.14-6q-3.35-3.53-7.31-8l-.51-.51a.15.15,0,0,0-.17-.17A40.08,40.08,0,0,1,465.7,389,34.36,34.36,0,0,1,463,374.82a38.59,38.59,0,0,1,.26-4.55c.17-1.44.37-2.9.6-4.39L495,246.68Zm6.87,17.89L480.75,369.66a25.81,25.81,0,0,0-.52,5.16,18.52,18.52,0,0,0,1.38,7.57,20.56,20.56,0,0,0,3.78,5.68v-.17c1.95,2.29,3.76,4.33,5.42,6.1a50.81,50.81,0,0,0,4.9,4.65,18,18,0,0,0,5.25,3,19.5,19.5,0,0,0,6.62,1,34.06,34.06,0,0,0,8.08-1.21l-.17.18q10.83-2.42,22.45-4.91t22.61-4.9q5-1,6.88-2.58t1.9-5.5a30.44,30.44,0,0,0-1.64-9.46,67.64,67.64,0,0,0-3.69-9.12v.17a11.54,11.54,0,0,0-4.39-5.93,13.8,13.8,0,0,0-7.48-1.81,100.07,100.07,0,0,0-14.71,1q-7,1-13.5,2.23a34.39,34.39,0,0,1,1.72-7.14q1.36-4,2.75-7.48,6-1.36,12.21-2.49t12.73-2.5h-.17l8.68-1.29a44.26,44.26,0,0,0,7.4-1.63,13.86,13.86,0,0,0,5.16-2.84,6.09,6.09,0,0,0,2-4.73,16.94,16.94,0,0,0-.69-4.13l.17.18c-.57-2.41-1.15-4.79-1.72-7.14a33.62,33.62,0,0,0-2.92-7.48v.17q-1.89-4.31-4.82-5.85a17,17,0,0,0-7.91-1.55h-1.2q-7.57.18-15,1,2.41-6.52,4.65-13.15t4.3-12.3q10.66-1.54,20.12-2.67t18.41-2q5.67-.68,7.74-2.58t2.06-6.53a15.72,15.72,0,0,0-.69-4.65l.17.18q-.51-2.93-1.2-5.51a48.49,48.49,0,0,0-2.41-6.53v.17a13.57,13.57,0,0,0-4.56-6.71q-3-2.23-8.51-2.24h-.86q-9.12.36-18.41,1.55T545,245.82q-8.87,1.56-17,3.36t-15.05,3.52Z" transform="translate(-1.95 -0.49)"/></g><path class="cls-6" d="M333.52,342s-23.19,85.17-101.38,68.31c-25.64-5.53-49.28-17.93-61.56-35.94-20-29.38-14.84-76,24.1-115.86,10-10.22,15.36-14.41,30.37-24.38l18.18,2.35c-15.37,7.52-41.32,28.19-55.87,52.65-23,38.72-26.88,86.62,47.42,107.15,60.61,16.53,83.74-54,83.74-54Z" transform="translate(-1.95 -0.49)"/><path class="cls-6" d="M172.53,389.85c72,65.7,121.34-3.93,121.34-3.93L325,363.75s-15,35.59-45.92,52.08C249.37,431.67,205.08,430.52,172.53,389.85Z" transform="translate(-1.95 -0.49)"/><polygon class="cls-7" points="509.53 238.51 472.53 370.51 498.53 404.51 575.53 389.51 575.53 363.51 576.53 341.51 585.53 333.51 571.53 283.51 605.53 274.51 610.53 252.51 595.53 226.51 509.53 238.51"/><path class="cls-8" d="M549.82,275.75l23.75-.75,36.25-7-9.34-22.3a14.29,14.29,0,0,1-2.91,14.3c-2.52,2.73-12.37,4.42-21.78,6.62A153.37,153.37,0,0,0,549.82,275.75Z" transform="translate(-1.95 -0.49)"/><path class="cls-8" d="M533.49,341.37l17.75-.37,36.25-7-9.35-22.3a14.27,14.27,0,0,1-2.9,14.3c-2.53,2.73-12.37,4.42-21.78,6.62C540.5,335.65,533.49,341.37,533.49,341.37Z" transform="translate(-1.95 -0.49)"/><path class="cls-8" d="M512.49,251.33C499.16,260.66,480.16,372,480.16,372l25.33,33.33,70-16.67,2.4-10.57-5.73-11.43s.66,8.34-6.67,11.67-42.06,7-53,8.33c-6.75.84-18-13.33-17.67-21.66S525.82,242,512.49,251.33Z" transform="translate(-1.95 -0.49)"/><polygon class="cls-7" points="372.53 230.51 356.53 276.51 331.53 365.51 338.53 393.51 376.53 403.51 389.53 372.51 409.53 401.51 448.53 404.51 467.53 340.51 493.53 255.51 479.53 237.51 446.53 228.51 435.53 258.51 418.53 236.51 372.53 230.51"/><path class="cls-8" d="M434.76,280.65c-6.33,21.52-4.09,35.67-4.36,37.65s-2.26-10.8-2.53-24.5S441.09,259.13,434.76,280.65Z" transform="translate(-1.95 -0.49)"/><path class="cls-8" d="M396.16,327.66s7.66,36,18.66,49.67c4.13,5.12,18,10.39,24,10.82,9.89.71,11.83-6.7,13.71-11.49,3-7.66,1.33,12.67,1.33,12.67L445.16,404l-39.67-15-11-44.67Z" transform="translate(-1.95 -0.49)"/><path class="cls-8" d="M377,243.5s-6.42,31-13.3,62.18c-6.73,30.57-14,61.32-12.2,67.32,4,13.66,26.25,19,28.5,9.75s-.25,14-.25,14l-8.5,6.75-35-13.75L337,365l33.5-118.75Z" transform="translate(-1.95 -0.49)"/><polygon class="cls-7" points="168.53 312.51 175.53 267.51 159.53 237.51 120.53 221.51 89.53 236.51 57.53 275.51 37.53 326.51 37.53 362.51 48.53 390.51 82.53 404.51 109.53 403.51 145.53 387.51 165.53 344.51 168.53 312.51"/><path class="cls-8" d="M100,241.5S41,322.5,63,367c8,16.24,22.12,23.55,35.5,23.76C121.79,391.12,142,375,142,375l-19.5,28-45,1.5L52,393l-11.5-38L49,311.5,73,259Z" transform="translate(-1.95 -0.49)"/><path class="cls-8" d="M128.49,272.5s.5,15,8.5,23,20.5,16,27.33,9c2.17,9.16-10.83,10-10.83,10l-33-12.5Z" transform="translate(-1.95 -0.49)"/><path class="cls-8" d="M99.49,316l-4.33,1.66-3.67,9.84,1,14.5,10.5,6.5s23.33-1.84,29.17-6.5c-3.53,2.11-26.15,3.38-31.17-6.67C97,327.33,99.49,316,99.49,316Z" transform="translate(-1.95 -0.49)"/><path class="cls-9" d="M178.22,315.64a24.55,24.55,0,0,1-4.13,6.2,33,33,0,0,1,2.32,6.53,31.18,31.18,0,0,1,.78,7.23,29.11,29.11,0,0,1-1,8.17q-1,3.53-2.58,7.48a164.7,164.7,0,0,1-14.36,27.69,105.21,105.21,0,0,1-17.46,20.73,73,73,0,0,1-20.12,13.07,56.46,56.46,0,0,1-22.36,4.56,85.48,85.48,0,0,1-18.83-2.24,77,77,0,0,1-18.92-7,63.29,63.29,0,0,1-16.26-12.21,46.24,46.24,0,0,1-10.66-18,.74.74,0,0,0-.17-.52,67,67,0,0,1-3.7-13.93,97.14,97.14,0,0,1-1.12-15A132.55,132.55,0,0,1,34,315.9a178.59,178.59,0,0,1,31.47-64.67A114.71,114.71,0,0,1,90,227.41a42.16,42.16,0,0,1,15.65-7.31,70,70,0,0,1,15.31-1.81,73.27,73.27,0,0,1,12.9,1.21,81.59,81.59,0,0,1,25,8.85,57.63,57.63,0,0,1,10.23,7.14,56.94,56.94,0,0,1,7.31,7.66,39.27,39.27,0,0,1,4.9,8.08,45.25,45.25,0,0,1,2.93,9,70.4,70.4,0,0,1,1.37,10.49v3.44q0,3.62-.34,7.83t-.86,8.43c-.34,2.81-.75,5.5-1.2,8.08s-.92,4.9-1.38,7V307Q179.94,312,178.22,315.64Zm-50.4-46.44.17.18a2.13,2.13,0,0,1,.43,1.29c.06.63.15,1.4.26,2.32v.17a.69.69,0,0,0,.09.34.93.93,0,0,1,.08.35v6.71c-.11.68-.2,1.32-.25,1.89a22.26,22.26,0,0,0-.09,2.23q0,10.85,5.42,17.81t18.66,8.85a9.44,9.44,0,0,1,1.2.09,9.46,9.46,0,0,0,1.21.09c3,0,5.07-.61,6.28-1.81a16.83,16.83,0,0,0,3.35-5.93v-.35q.69-2.58,1.38-6.19c.45-2.41.86-4.93,1.2-7.57s.63-5.3.86-8,.34-5.18.34-7.48v-2.92a37.35,37.35,0,0,0-2.83-12.73,31.55,31.55,0,0,0-7.83-10.15,49.35,49.35,0,0,0-7.74-5.33,53.72,53.72,0,0,0-9.2-4,75,75,0,0,0-10-2.58,54,54,0,0,0-9.89-.95,49.28,49.28,0,0,0-10.49,1.21,27.86,27.86,0,0,0-10.32,4.64l.17-.17a99.24,99.24,0,0,0-21.67,20.9,150.57,150.57,0,0,0-16.86,27.34,163.5,163.5,0,0,0-11,30.1,116.66,116.66,0,0,0-4,29,80.92,80.92,0,0,0,.86,12,51.72,51.72,0,0,0,2.75,10.66V371a29.65,29.65,0,0,0,7.4,13.24,46.08,46.08,0,0,0,12.21,9,58.47,58.47,0,0,0,14.53,5.16,70.43,70.43,0,0,0,14.71,1.64,40.52,40.52,0,0,0,17-3.79A56.47,56.47,0,0,0,132,385.39,92.76,92.76,0,0,0,145.8,368a153.27,153.27,0,0,0,11.78-23.14q1-2.75,1.72-4.9a14.52,14.52,0,0,0,.69-4.38,14,14,0,0,0-.78-4.65,21.83,21.83,0,0,0-2.32-4.64v.17c-1.38-2.41-2.73-4.61-4-6.62a27.52,27.52,0,0,0-4.3-5.16,15.82,15.82,0,0,0-11.44-4.39,74.9,74.9,0,0,0-14.1,1.46q-7.58,1.47-15.31,3a3.71,3.71,0,0,1-1.21.18,2,2,0,0,0-.86.17l.52-.17-6.36,1.29a14.28,14.28,0,0,0-4.82,1.8c.11-.23.23-.45.34-.69s.23-.45.35-.68q3.78-9.3,8.25-17.81a165.59,165.59,0,0,1,8.86-15.05,71.15,71.15,0,0,1,8.34-10.49q4-3.94,6.71-3.95Zm-21.24,86.52a60.36,60.36,0,0,1-5,6.62,29.82,29.82,0,0,1-4.73,4.47,7.28,7.28,0,0,1-4.3,1.64q-2.58,0-4-3.79a31,31,0,0,1-1.38-10.32,86.58,86.58,0,0,1,1.12-13.24,88.39,88.39,0,0,1,3.52-14.45q1.89,10,6.45,15.05t13.16,5.76Q109.07,351.95,106.58,355.72Z" transform="translate(-1.95 -0.49)"/><path class="cls-9" d="M500.71,268.86V269q-3.78,11.87-8.25,27.35t-9,32q-4.55,16.51-8.85,32.77t-7.74,29.67a3.72,3.72,0,0,1-.09.77,3.82,3.82,0,0,0-.08.78q-2.42,11.34-9.21,16.59t-17.8,5.25a45.64,45.64,0,0,1-13.93-2q-6.2-2-11.87-4.21l.52.17-1.9-.69a40.4,40.4,0,0,1-9.71-6.71,44.16,44.16,0,0,1-7.31-8.94c-.23.92-.43,1.78-.61,2.58s-.37,1.6-.6,2.41a46.15,46.15,0,0,1-3.44,8,19.6,19.6,0,0,1-4.64,5.59,18.75,18.75,0,0,1-6.54,3.35,32.62,32.62,0,0,1-9.11,1.12,28.71,28.71,0,0,1-4.56-.35c-1.44-.23-3.07-.57-4.9-1l-4.13-1.2q-4.47-1.38-9.2-3.18a39.78,39.78,0,0,1-9.38-5.25l-.34-.34a29.63,29.63,0,0,1-10-10q-3.09-5.51-3.09-14.28c0-1.26.06-2.58.17-3.95a39.18,39.18,0,0,1,.69-4.65v-.51c.68-3.55,1.72-8.43,3.09-14.62s3-13.13,4.91-20.81,3.95-15.85,6.19-24.51,4.53-17.17,6.88-25.55,4.61-16.31,6.79-23.82,4.24-14.07,6.19-19.69q4-10.66,10.67-15.4T387.19,221a38,38,0,0,1,8.09,1q4.64,1,9.54,2.58t9.55,3.52c3.09,1.32,5.79,2.61,8.08,3.87l.17.17a.5.5,0,0,1,.35.18,43,43,0,0,1,9.11,5.67q3.45-8.77,9.55-12.9T457.54,221a23.57,23.57,0,0,1,3.18.18c.86.11,1.81.28,2.84.51a12.52,12.52,0,0,0,1.29.35c.52.11,1,.23,1.46.34q4,1,10.15,3.27a56.3,56.3,0,0,1,12.13,6.19,39.41,39.41,0,0,1,10.23,10,24.82,24.82,0,0,1,4.3,14.79,33.15,33.15,0,0,1-.52,5.5,30.93,30.93,0,0,1-1.72,6.19ZM422,253.29q-2.14-3.69-8-6.1h.18c-2-1-4.13-2.07-6.54-3.1s-4.88-2-7.4-2.84-4.93-1.57-7.22-2.15a25,25,0,0,0-5.85-.86q-7.74,0-11,8.6-2.74,8.26-6.1,19.44t-6.8,23.56q-3.43,12.39-6.7,25t-6.11,23.91q-2.84,11.27-4.9,20.38t-2.93,14.1l.18-.17a24.31,24.31,0,0,0-.44,3,22.94,22.94,0,0,1-.25,2.32s-1.05,7.43,2.78,9.63,18,8.09,18,8.09h.17a.15.15,0,0,0,.17.17l1.89.52,3,.6a12.28,12.28,0,0,0,2.33.26,6.19,6.19,0,0,0,4.81-1.72,15.35,15.35,0,0,0,2.76-5.16q1.37-5.85,3.35-13.42t4.3-16q2.32-8.43,4.9-17.63t5.16-18.49q1.72,11.34,3.53,22.18a199.59,199.59,0,0,0,4.21,19.7,68.64,68.64,0,0,0,5.93,15.22,20.54,20.54,0,0,0,8.86,8.94q5,1.9,10.41,3.79A32.94,32.94,0,0,0,439.65,397q8.43,0,10.15-8.26l-.17.18q2.24-9.12,5.07-19.7t5.85-21.93q3-11.35,6.19-22.87t6.37-22.54q3.18-11,6.1-21t5.5-18.06a15.62,15.62,0,0,0,1-3.27,18,18,0,0,0,.26-2.92,9.72,9.72,0,0,0-2.75-6.88,28,28,0,0,0-6.54-5.08,47,47,0,0,0-7.74-3.52c-2.64-.92-4.81-1.61-6.53-2.07l-2.76-.6a10.22,10.22,0,0,0-2.06-.26q-7.57,0-10.32,8.43-4.47,13.59-9.2,29.76T428.82,310c-.46-4.59-.92-9.14-1.38-13.68s-.86-8.79-1.2-12.81-.67-7.68-.95-11-.49-6.13-.6-8.43Q424.17,257,422,253.29Z" transform="translate(-1.95 -0.49)"/><path class="cls-9" d="M508.8,232.22q7.91-2.06,17.37-4.12t19.52-3.87q10.06-1.81,20.38-3.1t20.12-1.81h1.21q11.7,0,18.32,4.65t10.4,14.27l.18.18a72.14,72.14,0,0,1,2.83,8.17q.95,3.53,1.64,7.31a35.56,35.56,0,0,1,1,7.91,44.4,44.4,0,0,1-1.21,11.26,16.69,16.69,0,0,1-4.12,7.57,19.81,19.81,0,0,1-7.74,4.73A56,56,0,0,1,596.51,288l-6,.69-6,.69a32.57,32.57,0,0,1,6.54,9.46l.34.34a46.1,46.1,0,0,1,4,10.15q1.29,5,2.49,10v.51c.23,1.15.4,2.21.52,3.18a25.56,25.56,0,0,1,.17,2.84q0,10.5-4.3,15.74a24.46,24.46,0,0,1-11.53,7.65,19.7,19.7,0,0,1,2.07,4.48,75.9,75.9,0,0,1,4.73,12.12,45.26,45.26,0,0,1,2,13,40.42,40.42,0,0,1-1.12,10.32,16.66,16.66,0,0,1-3.7,7,18.15,18.15,0,0,1-7,4.56,71.1,71.1,0,0,1-10.75,3.1h.34q-5.16,1.2-10.58,2.32t-10.92,2.32q-6,1.38-12,2.58t-11.61,2.58c-.57.11-1.11.2-1.63.26s-1.06.14-1.63.26q-2.41.35-4.47.6a32.46,32.46,0,0,1-4,.26,38.93,38.93,0,0,1-11-1.38,31.52,31.52,0,0,1-8.43-3.87,41.18,41.18,0,0,1-7.14-6q-3.35-3.53-7.31-8l-.51-.51a.15.15,0,0,0-.17-.17A40.08,40.08,0,0,1,470.7,384,34.36,34.36,0,0,1,468,369.82a38.59,38.59,0,0,1,.26-4.55c.17-1.44.37-2.9.6-4.39L500,241.68Zm6.87,17.89L485.75,364.66a25.81,25.81,0,0,0-.52,5.16,18.52,18.52,0,0,0,1.38,7.57,20.56,20.56,0,0,0,3.78,5.68v-.17c1.95,2.29,3.76,4.33,5.42,6.1a50.81,50.81,0,0,0,4.9,4.65,18,18,0,0,0,5.25,3,19.5,19.5,0,0,0,6.62,1,34.06,34.06,0,0,0,8.08-1.21l-.17.18q10.83-2.42,22.45-4.91t22.61-4.9q5-1,6.88-2.58t1.9-5.5a30.44,30.44,0,0,0-1.64-9.46,67.64,67.64,0,0,0-3.69-9.12v.17a11.54,11.54,0,0,0-4.39-5.93,13.8,13.8,0,0,0-7.48-1.81,100.07,100.07,0,0,0-14.71,1q-7,1-13.5,2.23a34.39,34.39,0,0,1,1.72-7.14q1.36-4,2.75-7.48,6-1.36,12.21-2.49t12.73-2.5h-.17l8.68-1.29a44.26,44.26,0,0,0,7.4-1.63,13.86,13.86,0,0,0,5.16-2.84,6.09,6.09,0,0,0,2-4.73,16.94,16.94,0,0,0-.69-4.13l.17.18c-.57-2.41-1.15-4.79-1.72-7.14a33.62,33.62,0,0,0-2.92-7.48v.17q-1.89-4.31-4.82-5.85a17,17,0,0,0-7.91-1.55h-1.2q-7.57.18-15,1,2.41-6.52,4.65-13.15t4.3-12.3q10.66-1.54,20.12-2.67t18.41-2q5.67-.68,7.74-2.58t2.06-6.53a15.72,15.72,0,0,0-.69-4.65l.17.18q-.51-2.92-1.2-5.51a48.49,48.49,0,0,0-2.41-6.53v.17a13.57,13.57,0,0,0-4.56-6.71q-3-2.23-8.51-2.24h-.86q-9.12.36-18.41,1.55T550,240.82q-8.87,1.56-17,3.36t-15.05,3.52Z" transform="translate(-1.95 -0.49)"/><path class="cls-10" d="M164.74,271c-2.75-28-34-33.75-52.5-32.25,16.5,1.5,28.5,4.5,37.5,13.25S160.24,262.5,164.74,271Z" transform="translate(-1.95 -0.49)"/><path class="cls-10" d="M121.16,316.33s10.33-4,19.66-1.67,16,19.34,16,19.34-7.66-12.67-16.33-15.67S121.16,316.33,121.16,316.33Z" transform="translate(-1.95 -0.49)"/><path class="cls-10" d="M388,240.75c27.25,7.75,32.5,8.75,34.75,27.25.13,3.6-1.59-5.21-8.4-12.59C408.4,249,398.12,244.36,388,240.75Z" transform="translate(-1.95 -0.49)"/><path class="cls-10" d="M458,241.5s30.5,4,21.5,26.5C478.49,249,458,241.5,458,241.5Z" transform="translate(-1.95 -0.49)"/><path class="cls-10" d="M536.49,245.33s46.33-9.33,54.67-6.67S599.49,251,599.49,251a23.6,23.6,0,0,0-11.67-6.67C580.49,242.66,536.49,245.33,536.49,245.33Z" transform="translate(-1.95 -0.49)"/><path class="cls-10" d="M568.82,303.66C562.16,301,542.49,306,542.49,306s16.75-1,23,.83,11,8.17,11,8.17S575.49,306.33,568.82,303.66Z" transform="translate(-1.95 -0.49)"/><path class="cls-10" d="M560.49,356c-6.67-2.67-26.33,2.33-26.33,2.33s16.75-1,23,.83,11,8.17,11,8.17S567.16,358.66,560.49,356Z" transform="translate(-1.95 -0.49)"/><path class="cls-11" d="M632.56,223.46a13.9,13.9,0,0,1-.22-1.44c0-.21-.08-.42-.14-.63-18.37-.28-35.8-.6-53-.6-30.54,0-74.76-.75-77.38-.68-13.1.33-6.22,1.6-21,1.35-5.43-.09-26.41,0-26.41,0l1.54,3.66s16.63.55,34.43,1,62.38-1.33,89.92-1.66c14.08-.17,33.55-.21,52.47-.21A5.81,5.81,0,0,1,632.56,223.46Z" transform="translate(-1.95 -0.49)"/><path class="cls-11" d="M648,330c0-1.09,0-2.17,0-3.26,0-.21,0-.42-.05-.63-4.92,1.79-8.47,4.07-13.47,4.93-9.91,1.69-16.09-5.36-34.34-2.91s-9.88-1-25.65-1.61-14.33-2-38.89-3.87-40.09-.78-40.09-.78l-.32,5.13s19.69-1.89,37.71-.05,33.91,4.81,47,6.34,11.37,8.81,39.3,4.2c14.29-2.36,22.66-4.18,29.42-5.32A4.84,4.84,0,0,1,648,330Z" transform="translate(-1.95 -0.49)"/><path class="cls-7" d="M647.59,297.8h-1.21c-29.41,0-48,.42-62.16,1.56s-119.38,2.15-146.72-.78c-7-.75-2,10.25,3.5,13.25,0,0-10.57,12.74,3.25,15.5s26.9-1.62,44.31-3.9,20.43-7,43.2-6.24,38.23-7.8,75.56-5.68a227.53,227.53,0,0,0,41.16-1.88C648.14,305.68,648.13,301.71,647.59,297.8Z" transform="translate(-1.95 -0.49)"/><path class="cls-11" d="M648,343a13.12,13.12,0,0,1,.34-2.77c-11.78-.17-23.26-.31-34.63-.31-30.54,0-74.76-.75-77.38-.69-13.1.34-6.22,1.6-21,1.35-5.43-.09-26.41,0-26.41,0l1.54,3.66s16.63.55,34.43,1,62.38-1.33,89.92-1.67c9.29-.11,20.93-.16,33.21-.19C648,343.25,648,343.13,648,343Z" transform="translate(-1.95 -0.49)"/><path class="cls-7" d="M647,357.53v-4a5.1,5.1,0,0,1,.18-1.25c-20.66,0-20.66-.34-36.29-.21-17.91.16-24.29-1.6-39.24-1.24s-10.28.88-26.16.83-26.47-1.19-36.43-1.35-.93,1.91-10.9.83c-6.21-.67-8.88,3.06-14,2.74s-31.61-1.55-64.46-1.91l-4.62,5.86c1.69-.18,4.5-.38,9-.62,23-1.25,54,2.51,67.26,5s.52-4.47,8.61-3.85,20.27,3.75,23.07,2.56,11-4.17,34.65-3.34,41.57-2.13,53.56-.94c11,1.1,6.12,2.72,8,4.19C616.94,358.92,631.72,358.05,647,357.53Z" transform="translate(-1.95 -0.49)"/><path class="cls-7" d="M414.7,358.26l.37-.46C408.05,358.51,420.48,358.64,414.7,358.26Z" transform="translate(-1.95 -0.49)"/><path class="cls-11" d="M644,379.29s.07-.39.13-.66.05-.71.06-.78,0-.21,0-.28,0-.14-.06-.24a5.7,5.7,0,0,1,0-2.4c-3.78.25-9.12.48-18.87.48-25.84,0-36.45-1-50.41-1.13s-9.9,1.63-24.49.28-21.43,1-28.2.29-8.9-.15-20.79.28-25.27-.78-32.75-.28-5-.43-10.25,0a212.37,212.37,0,0,1-27.35-.29c-8.4-.78-6.76.93-13.95.29s-6.91.78-22.22.28-45.28-1.28-55.53-1.42-24.71,1.56-36.17,1.14-11.25-1-19.37-.57-8.9-.08-17.37,0-8.55,1.56-17.09.28-25.42.43-33-.28-9.18,1-16.23.28-2.35,1.42-10.83.29-14.52.85-24.77.28-11.4,1.85-25.64.57-12,.78-19.93-.29-6.62.43-10.54,0-3.92,1.07-8.83.57a221.14,221.14,0,0,0-23.92-1.13c-8,.21-6.41,1.21-12.53.56s-5,1.64-16.24.57-7.11-.28-7.11-.28l.23,4.35a29,29,0,0,1,9.45-.65c5.26.5,5,0,10,.29s4.7-.72,15.1-.29,19.29-.85,25.63.29,4.56,1.85,9.68,1.42,1.36-2.06,3.71-2,5,1.28,17.37.57,23.64.35,34.18,0,17.73-.57,23.35,0,6.34.07,12,0,5.56,1.56,14,.85,14.52,0,30.19-.28,10,.57,16.52.85,9.68-1.28,21.36-.85,6.12.35,19.65,0,26.7.71,36.74,0,37.38,1,46.71.57,5.91.14,15.38-.29,6.4,1.07,15.09,0,2.63.07,14.53-.57,20.86,1.07,27.62.86,6.12.21,11.11-.29,16.37,1.5,27.06.57,11.74-.92,19.93-1.42,6.91.5,16,0,7,.64,14.81.28,21,2,24.78,2,30.62-.22,47.28-1.14c8.91-.5,17.29-.5,24.67-.38C643.83,380.06,643.93,379.68,644,379.29Z" transform="translate(-1.95 -0.49)"/><path class="cls-11" d="M207.39,258c-2.64-2.67-2.25-7.09-10.27-10.25s-13.6-10.75-35.81-9.5-49.69,5.91-54,10.25.29,7.25.29,7.25c2,2.72-1.48,7.59-4.69,8s-15.07-7.09-21.13-6.25-8.12,4.33-10,8S69,259.36,61,258.28,34.54,262.19,30.14,264s-4.11,3.83-5,5.75-1-1.59-7.63-5.25a17.71,17.71,0,0,0-9.37-1.89,4.54,4.54,0,0,1-.71,2.68,15.69,15.69,0,0,1,7.44,1.21c5,2.5,5.67,6,5.87,6.75s3.62,1,5.58.75,1.56-5.75,5.28-7.25,15.94-5.34,25.82-5,10.08,11.91,10,13.25,4.3,2.41,6.45,1.25,4-3.9,2.06-7.75c0,0,.78-5.92,7.92-5.75s15.65,4.08,20,3.75,9.49-7,9.09-9.5-2-2.5-1.17-5,35.61-9.25,49.89-9,28.17,4.66,32.86,7.25,4.9,5.41,8.22,7.5,2.06,8.5,2.06,8.5l2.34-2.75S210,260.69,207.39,258Z" transform="translate(-1.95 -0.49)"/><path class="cls-11" d="M20.54,341.73c.22-1.94-6.42-4.44-13.28-4.71a23.93,23.93,0,0,0-5.21.39c.06.92.14,1.85.28,2.76,0,.15,0,.3,0,.44A16.63,16.63,0,0,1,6,340.35c6,.27,12.42,1.94,12,4.43s6,3.33,6,3.33S20.33,343.67,20.54,341.73Z" transform="translate(-1.95 -0.49)"/><path class="cls-11" d="M648.28,306.79c-5.5,0-11.07,0-16.83,0-26.69,0-19.14.32-37,.25s-42.85.68-74.34.5-66.61-.21-90.3-.25-18.87.67-48.72.5c-32.1-.18-78.7.15-109.2-.25s-104.09-.21-123.47-.25-26.82,1.21-52.5,1-68.13.37-85.26.25l-8.38,0a6.18,6.18,0,0,1-.16,1.87c2.11.06,4.2.12,6.44.16,13.15.27,72.53-.49,87.36,0s25.21-.21,50.4-.16,99.51.12,123.89.33,85.29-.05,109.2.08,33.68,0,48.72-.5,67.38.21,90.72.25,43.77-.88,73.5.25c6.5.24,19.64-.18,37.38,0,5,.06,11.48.06,18.83,0C648.46,309.5,648.36,308.15,648.28,306.79Z" transform="translate(-1.95 -0.49)"/><path class="cls-11" d="M23.17,276.89c-3.48.09-.77-1.05,1.74-1.22s2.75.52,5.8.35,3.91-.88,6-.88,5.7.83,7.93.88,3.38.52,8.16.56a29.54,29.54,0,0,1-8.55.31c-2-.18-2.8,0-7.34,0s-3.53.39-6.18.35S26.65,276.8,23.17,276.89Z" transform="translate(-1.95 -0.49)"/><path class="cls-11" d="M647,292.5a33.89,33.89,0,0,0-.23-3.49h-5c-23.78,0-17,.3-32.93.24s-38.18.64-66.24.48-59.34-.21-80.45-.24-16.82.64-43.41.47c-28.6-.17-70.12.15-97.3-.23s-92.74-.21-110-.24-23.89,1.14-46.77.95-60.65.35-76,.24-47.68.11-56.88.71c36.39.36,43.29.94,55,1.2s64.63-.47,77.84,0,22.46-.21,44.9-.16,88.67.11,110.4.31,76,0,97.29.08,30,0,43.41-.47,60,.19,80.83.24,39-.84,65.49.23c5.79.23,17.5-.17,33.3,0,2,0,4.26,0,6.74,0Z" transform="translate(-1.95 -0.49)"/><path class="cls-11" d="M645.77,282c-6.13,0-12.35,0-18.81,0-26.55,0-19,.3-36.77.24s-42.64.65-74,.48-66.28-.2-89.86-.24-18.78.64-48.48.48c-31.94-.18-78.31.14-108.66-.24s-103.58-.2-122.87-.24-26.68,1.15-52.24.95-67.78.36-84.83.24l-5,0a5.34,5.34,0,0,1-.54,1.85l3.44.08c13.08.25,72.17-.47,86.92,0s25.09-.2,50.16-.16,99,.11,123.28.32,84.87-.05,108.66.08,33.51,0,48.48-.48,67,.19,90.27.24,43.55-.84,73.14.24c6.46.23,19.54-.18,37.19,0,5.47.05,12.8.05,21.07,0C646.16,284.54,646,283.25,645.77,282Z" transform="translate(-1.95 -0.49)"/><path class="cls-11" d="M185.15,282c-12.34.5-23.24-.38-31.54,0s-20.85.33-36.23.75S99,281.48,89.75,282s-27.72.16-33.37.25-26.85,1.25-31.45.37c-1-.21-1.74-1.71-3.69-1.67s-6.87,2.34-8.82,2.17c-1.17-.1-4.81.11-8.11.32a4.43,4.43,0,0,1-.06.51c6.7.32,7.8.6,9.47.42,1.17-.12,6.65-1,8.34-1,1.43,0,2.39,1.33,5.47,1s22.68-.83,29.37-.37,24.38-.17,35.19,0,26.33-.09,42.49.25,21.94-.94,31.8-1c9-.06,7.69.7,20.6.75s24.54-1,36.23-1.25S197.49,281.53,185.15,282Z" transform="translate(-1.95 -0.49)"/><path class="cls-11" d="M333.5,271.94c-.17,2.5,2.44,3.36,3.79,3.34s8.5-.8,10.26-3,3.76-7.18,7.36-7.34,8.48-.16,11.6,2.17,4.52-2.92,14.95-3.17,24.82,5,25,7,3,3.75,5.58,4.5,8.42.92,8.7-1.66,3.23-5.67,6.69-6,4.85-4.13,17-7.17c5.43-1.36,20.63-5.42,29.67-1.73,13.15,5.37,30.21,1,33.68,2.06,6.3,1.88,1.34,4.42,7.59,5.34s6.86,11,10.48,10.83,6.07,1.91,10.71.5c12.49-3.79,18.18,2.46,18.18,2.46a87.93,87.93,0,0,1,15.56-.75c9.31.29-16.17-9-26.16-9.54s-11.32,1.91-15.17,2.66-1.78-8.71-8.25-8.66-3-4.34-11-7.21c-4.47-1.6-19.41,6.31-36-2.25-9.95-5.15-24.27,1.36-30.45,2.75-13.94,3.12-13.33,7.71-18.29,8s-6.47,1.67-7.64,4.71-6.14,4.33-7.53-2.13c-.61-2.79-18.4-8.75-27.44-8.5s-13.22,4.75-16.23,2.5-9.59-2.76-13.89-2.37-7,9.19-8.47,10.12-7.28.56-6.16-2.28S333.66,269.44,333.5,271.94Z" transform="translate(-1.95 -0.49)"/><path class="cls-11" d="M24.11,348.12c1,.33-4.41-4.5-1.37-4,.52-1.08,4.19-4.18,8.88.78,11.73-1,7.17,8.75,7.17,8.75a13.83,13.83,0,0,1,6,7.63c7.78.66,7.43,5.41,9.65,5.62s-.65-10,8.21-4.87c-7-8.5-8.52.41-10.3-1.25s-4.82-.75-6.25-3.63a8.46,8.46,0,0,0-3.78-3.87s4.95-13-9-11.09c-5.74-6.08-14.9-1.58-13.34.59s-1.48,1.37-1.48,1.37S23.16,347.79,24.11,348.12Z" transform="translate(-1.95 -0.49)"/><path class="cls-11" d="M59.94,359.78a4.53,4.53,0,0,1,6.61-1.84c4.52,2.5,12-4,20.68,7.84a21,21,0,0,1,15.12-3.5s5-2.67,8.16,4.5c2.44-3.34,6.61-1.84,6.61-1.84s-4.52-5.5-6.08-4.33-1.05-1.83-9.91-1.83-12.86,2.83-12.86,2.83-10.06-9.1-22.42-8c-7.47.67-8.16,5.5-8.16,5.5Z" transform="translate(-1.95 -0.49)"/><path class="cls-11" d="M115.73,364.11s-1.39-16.17,14.77-10.83c5-2.5,12.16-1.5,12.16-1.5s8.17-6.34,16.69,6.66c9.55-5.33,12-.5,12-.5,2-1.27,1.14-3.19,7.47-3.5a37.76,37.76,0,0,1,28.59,9.75l-1.65-5.58c1-1.18-19.63-11.2-27.29-7.33a79.18,79.18,0,0,1-7.47,3.16s-3.13-4.5-11.64-1.66c-5.22-9.17-16.34-5.84-16.34-5.84s-6.6-.66-11.29,2.17c-24-6.67-19,12.67-19,12.67Z" transform="translate(-1.95 -0.49)"/><path class="cls-11" d="M337,381.78c1.82,3.25,7.3,5.75,4.43-.25-12.25-21,11.47-20,11.47-20s2.08-5.75,9.12-2c4.7-4,8.61-3,8.61-3s7.55-2.25,11.2,4.25c38.58-3.5,31.54,17,31.54,17l4.64-4,.06-5.22s2.86-15.75-34.93-11.75c-3.65-5.25-13-5-13-5s-3.38-2.5-10.16,1.5c-7-4.25-13,3.75-13,3.75S326.33,362,337,381.78Z" transform="translate(-1.95 -0.49)"/><path class="cls-11" d="M463.34,314.07c-17.14.08-59.58-.32-85.26-.17s-33.12-.72-52.5-.69-93-.11-123.48.17-77.1,0-109.2.17c-29.85.12-25-.11-48.72-.34-14.79-.15-29.18-.19-42-.15,0,.55,0,1.09.07,1.64,18.33.21,36.3.41,43.63.57,15,.34,24.81.44,48.72.35s84.81.09,109.2-.06,98.71-.2,123.9-.23,35.57.45,50.4.12,74.2-.2,87.36,0c39.42.58,19.7-.67,60.54-.92C515.66,314.09,480.47,314,463.34,314.07Z" transform="translate(-1.95 -0.49)"/><path class="cls-11" d="M379.41,317.54c-13.15.2-72.53.34-87.36,0s-22.08.15-47.27.12-29.65.91-54,.77-48.79-1-72.7-1.06-33.68,0-48.72.34c-10.52.24-43,.55-66.94.85l0,.81c0,.33,0,.66,0,1,17.1.41,40.61.68,65.22.43,23.69-.24,18.87-.46,48.72-.34,32.1.12,42.21-.1,72.7.17s34.24-.85,53.62-.83,23.69.17,49.37.31,68.13-.25,85.26-.17,52.32-1,62.64-1.46C420.36,316.94,418.84,317,379.41,317.54Z" transform="translate(-1.95 -0.49)"/><path class="cls-11" d="M31.35,333.65c-5-.35-5.54.73-11.64.36s-7.76-.7-11.93-.76c-1.58,0-3.63,0-5.81.07,0,.56,0,1.13,0,1.7,1.44,0,3.17.1,5.33.15,9.1.21,7.16-.06,12.49,0s12.91-.38,19.88-.13S36.38,334,31.35,333.65Z" transform="translate(-1.95 -0.49)"/><path class="cls-11" d="M322.29,322.84c-1.65,0-75-.24-113.38-.41,0,0-43.69.14-59.52.41s-87,.76-98.36.41c-28.49-.87-45.35,0-48.65.19v.11c2.59.27,14.31,1.3,48.93,1.76,12.7.17,51.49.46,66.05.41s25.88,0,59-.41,79,.4,88.86.47,104.68-1.59,106.87-1.5S355.2,322.44,322.29,322.84Z" transform="translate(-1.95 -0.49)"/><path class="cls-11" d="M309.32,328.15c-11.34-.41-111-.17-126.87-.44s-59.52-.41-59.52-.41c-38.37.17-87.4.48-113.39-.59-2.43-.09-4.87-.17-7.29-.22,0,.69-.07,1.38-.11,2.07,25.59.69,55.14,1.88,64.66,1.86,17.18,0,55.64-.61,88.72-.23s44.4.36,59,.41,53.35-.64,66-.41c71,1.25,77.45-.71,77.45-.71S320.65,328.56,309.32,328.15Z" transform="translate(-1.95 -0.49)"/><path class="cls-11" d="M322.39,335.65c-14.2-.62-22-1-32.13-1.2-41.12-.69-77,.13-94.46.23-21.74.12-37.17-1-37.17-1-33.74-.35-36.34,2-67.16.64-33.87-1.53-40.56.49-40.56.49,25.89.83,72.91,2.14,105.92,2s13.22.72,38.57.92c17.4.14,47.58-1,79.89-1.59C290.06,335.83,302.93,337.65,322.39,335.65Z" transform="translate(-1.95 -0.49)"/><path class="cls-11" d="M367.89,344.13c-26.82-1.22-37.18-3.23-50.34-2.78s-24.14,1.91-28.15,1.29-9.09-1.49-23.52-1.56c5.66.21,17.11,2.72,23.85,3.2s17.36-.64,28.14-.71S339.94,344.73,367.89,344.13Z" transform="translate(-1.95 -0.49)"/><path class="cls-11" d="M27.84,340.46c13.37-.07,13-1.23,33.25-.63s46.06,2,57.72,1.07,23.05,1.32,32,.4,18.3.83,36,1c-18.48,2.17-29.51-.08-37.61.9s-22.52-.7-32.2-.21-47.24-1.29-57.8-.59a210.76,210.76,0,0,1-30.09-.35C21.06,341.34,20.47,340.3,27.84,340.46Z" transform="translate(-1.95 -0.49)"/><path class="cls-11" d="M170.15,347.68c-3.26-.11-4.72.55-7.37.51a65.94,65.94,0,0,1-7.41-.58c-3.85-.41-3.78.05-10.8-.12s-9.68,1.79-3.35,1.66,8.38-.38,12.43.09,6.74-.17,8.67,0,2.27-.42,4.62-.61,8.56.09,8.56.09A16.11,16.11,0,0,0,170.15,347.68Z" transform="translate(-1.95 -0.49)"/><path class="cls-11" d="M117,348.19c-2.87-.58-9.29-.66-12.69-.91-8.47-.64-16.13,0-23.08-.13-6.07-.12-11.6-1.07-16.65-.9-13.16.45-19.52,1.14-23.53.59-1.22-.17-3.13,1.5.35,2.17,6.63,1.27,12.72-.47,23.49-.54S94.78,349.4,117,348.19Z" transform="translate(-1.95 -0.49)"/><path class="cls-11" d="M327.91,335.57c-7.21.21,7.83-1.22,11.3-1.35s7.16.52,11.11,0,6,.72,8.39.25,3.64-1.14,6.06-1.18,6.47,1.56,9.87,1.49,2.95-.63,7.12-.83,16.65,1.65,20.61,1.58c-4.14.34-16.88-.65-20-.49s-5,1.05-8.16,1-6.56-1.11-9-1.15-4.29,1.29-6.48,1.19a60.57,60.57,0,0,0-8.17-.07,92.18,92.18,0,0,1-11.74.35A102.32,102.32,0,0,0,327.91,335.57Z" transform="translate(-1.95 -0.49)"/><path class="cls-11" d="M40.61,352.78c-2.41.06-.21.68,3.26.87s11.33-.31,15.27.26,6-.6,8.39-.08,3.62,1.2,6,1.29,6.5-1.43,9.9-1.31,2.93.7,7.1,1,16.68-1.32,20.64-1.18c-4.13-.42-16.89.33-20,.11s-5-1.15-8.14-1.18-6.58,1-9,1-4.27-1.37-6.46-1.31a61.22,61.22,0,0,1-8.17-.1c-1.9-.29-10,.14-12.55.31S44.06,352.69,40.61,352.78Z" transform="translate(-1.95 -0.49)"/><path class="cls-11" d="M641,252v-.85c-.41-1.05-.86-2.08-1.31-3.13a7.27,7.27,0,0,1-.31-.85c-17.66.28-34.57,1-44.44,1-17.1,0-21.64.77-44.62-.26s-56.91,1.54-96.46,0-37.4.69-44.89,1-14.42-.43-21.91-.51-37.85,2.05-53.52,2.47c19.95,1.2,46.93.26,52.72.09s14.34.94,22.71,1,23-1.53,44.36-.25S523.87,253,549,253.51s20.58,1.79,44.62.77c13.95-.59,30.85-.67,47.7-.53A5.05,5.05,0,0,1,641,252Z" transform="translate(-1.95 -0.49)"/><path class="cls-11" d="M211.37,251.15c6.72-.06,5.43-.84,10.59-.78s7.95,1.17,12.91,1.17,5.29.33,9.37-.26,6-.26,12.63-.13-8.35,1-12.77,1.17-4.75,1.63-6.11,1.44-1.22-.78-3.8-.78-6.12-.72-12.63-.92S204.65,251.22,211.37,251.15Z" transform="translate(-1.95 -0.49)"/><polygon class="cls-12" points="295.03 306.01 244.53 292.51 182.53 292.01 194.03 275.01 233.03 268.01 270.03 269.51 293.03 278.51 295.03 306.01"/><polygon class="cls-13" points="208.53 272.01 197.53 288.51 180.53 290.01 190.03 275.01 208.53 272.01"/><polygon class="cls-7" points="179.03 292.01 210.03 289.51 264.53 294.51 314.53 314.51 336.53 330.51 325.53 339.51 313.03 370.01 289.03 389.01 261.03 396.51 227.03 393.01 202.53 378.01 168.53 349.51 170.53 314.01 179.03 292.01"/><path class="cls-8" d="M305,333.5C275.49,319,268,316,268,316l-39.5-2.5-24.81,1.09S185,312,204,350c20.5,42,101,24,101,24l-19.5,16.5-26,9-41.5-8-30.5-20L173,346l4-33.5,5.83-15.5a19.12,19.12,0,0,1,12.64-3.53C220.83,295,277.86,305.6,305,333.5Z" transform="translate(-1.95 -0.49)"/><polygon class="cls-7" points="330.53 302.51 298.03 281.01 270.03 269.51 228.03 267.01 190.21 273.67 240.53 228.51 296.03 235.51 318.03 253.01 333.53 278.51 330.53 302.51"/><path class="cls-8" d="M242.49,229,214,249.5l-18,26,49-7,41,6L326,296l6.5,7s-14.5-21.5-23-27S286,261.5,286,261.5s-20.5-3-32-3-26.17,3.83-33,5.5,10.5-22,27.5-30.5Z" transform="translate(-1.95 -0.49)"/><path class="cls-11" d="M297.25,329.55s-39.93-20.49-93.57-15c19.2-4.53,37.93-4.89,51.67-2.57C281.77,316.49,297.25,329.55,297.25,329.55Z" transform="translate(-1.95 -0.49)"/><path class="cls-11" d="M338.52,337s-23.19,85.17-101.38,68.31c-25.64-5.53-49.28-17.93-61.56-35.94-20-29.38-14.84-76,24.1-115.86,10-10.22,15.36-14.41,30.37-24.38l18.18,2.35c-15.37,7.52-41.32,28.19-55.87,52.65-23,38.72-26.88,86.62,47.42,107.15,60.61,16.53,83.74-54,83.74-54Z" transform="translate(-1.95 -0.49)"/><path class="cls-11" d="M191.09,241.76c15-14.79,69.76-.76,100.79,1.08,17.32,1,45.94-3.08,50.51-14.91-15.77,10.95-53.15,1.36-76-2.2C240.29,221.67,201,223.67,191.09,241.76Z" transform="translate(-1.95 -0.49)"/><path class="cls-11" d="M290.16,236.4s51.67,24.46,37.73,76.8l13.72,4.37C358.73,261.48,313,236.71,313,236.71Z" transform="translate(-1.95 -0.49)"/><path class="cls-11" d="M336.12,303.64s-28.8-33.5-69.1-38-74.86,8.48-74.86,8.48l-5.33,7.8s41.52-14.29,77-9.38,68.49,37.29,68.49,37.29Z" transform="translate(-1.95 -0.49)"/><path class="cls-11" d="M312.3,278.83c-24.55-35.5-75.46-17.41-75.46-17.41S282.6,252.26,312.3,278.83Z" transform="translate(-1.95 -0.49)"/><path class="cls-11" d="M286.64,301.07s-9.74-22.8,1.85-26.07,51.57,34,51.57,34l-3.64,15.73Z" transform="translate(-1.95 -0.49)"/><path class="cls-11" d="M177.53,384.85c72,65.7,121.34-3.93,121.34-3.93L330,358.75s-15,35.59-45.92,52.08C254.37,426.67,210.08,425.52,177.53,384.85Z" transform="translate(-1.95 -0.49)"/><path class="cls-11" d="M183.8,289.55s36.67-6,75.47,1.12,79.4,34.05,81.52,35.84c4.24,3.57,3.64,10.81-4.55,12.82S312.61,336,312.61,336s20.59-.07,21.34-4c.91-4.8-44.07-27.37-76.81-34.18-41.24-8.58-76.06-2.24-76.06-2.24Z" transform="translate(-1.95 -0.49)"/><path class="cls-10" d="M286.57,310.05c4.28,3.18-7.66-2.11-22.23-5.69-16.77-4.12-31.87-8-44.21-9,8.59-.47,22.7,1.94,41.68,5.87C273.19,303.6,282.82,307.25,286.57,310.05Z" transform="translate(-1.95 -0.49)"/><path class="cls-10" d="M295.82,242.66C323.16,260,326.49,282,328.16,289s-5.34-.67-6.67-5S314.16,259,295.82,242.66Z" transform="translate(-1.95 -0.49)"/><ellipse class="cls-10" cx="324.66" cy="329.5" rx="1.5" ry="3.5" transform="translate(-106.9 500.51) rotate(-67.19)"/><path class="cls-10" d="M314.49,343.66c-10.33,11.67-55.33,34-31.33,29.34S324.82,332,314.49,343.66Z" transform="translate(-1.95 -0.49)"/><path class="cls-10" d="M324.09,299.5a2.34,2.34,0,0,1-1.34,3.66c-1.44.48-3.18-.83-3.87-2.93s-1.1-4.18.34-4.66C319.22,295.57,323,298,324.09,299.5Z" transform="translate(-1.95 -0.49)"/><path class="cls-14" d="M117.38,291.28c4.67.82,21-3.67,23.92-3.85s7,0,9.83-.42,10.7.6,13.24,1.28,2.73,2.31,5.55,3,23.67-.4,32.47-1,12.84,1.05,16.66-.27-.83-3.38-6-4.7-6.81-3.81-14.95-4.7-22.22,1.28-22.22,1.28-13.5,2.6-23.49,2.14-14.07-4.1-28.62-1.71S112.71,290.46,117.38,291.28Z" transform="translate(-1.95 -0.49)"/><path class="cls-15" d="M117.21,291.11c4.67.82,21-3.66,23.92-3.84s7,0,9.83-.43,10.71.61,13.24,1.28,2.74,2.32,5.55,3,23.67-.4,32.47-1,12.84,1,16.66-.28-.83-3.38-6-4.7-6.81-3.81-15-4.7-22.21,1.28-22.21,1.28-13.5,2.6-23.5,2.14-14.07-4.09-28.62-1.71S112.54,290.29,117.21,291.11Z" transform="translate(-1.95 -0.49)"/><path class="cls-16" d="M117.21,291.11c4.67.82,21-3.66,23.92-3.84s7,0,9.83-.43,10.71.61,13.24,1.28,2.74,2.32,5.55,3,23.67-.4,32.47-1,12.84,1,16.66-.28-.83-3.38-6-4.7-6.81,3.19-15,2.3-16.13.83-22.21,2.28-4.91-2.5-11-3c-4-.33-8.54-.67-12.51-.85-4.31-.2-7.7-1.69-11.33-.85-4.8,1.11-10,2.78-18.29,4.14-9,1.47-10.1-2.76-9.3-.67A5.06,5.06,0,0,0,117.21,291.11Z" transform="translate(-1.95 -0.49)"/><path class="cls-11" d="M175.61,292s24.67-5.35,47.22-5c1.58,0,3.19.07,4.82.13,9.85.35,8.76,7-.49,6.45-26.83-1.73-46.08,1.78-46.08,1.78Z" transform="translate(-1.95 -0.49)"/><path class="cls-17" d="M125.74,282.93c.08.25-2.22.41-4.43,1.34a19.63,19.63,0,0,0-2.51,2c-2.25,1.37-3.66.78-3.58.11s1.68-1.63,4.08-2.43S125.62,282.58,125.74,282.93Z" transform="translate(-1.95 -0.49)"/><path class="cls-10" d="M173.18,283.25a103.93,103.93,0,0,1,14.18-1.88,71.93,71.93,0,0,1,11.13,0c2.75.25,3.37.88,3.37.88s-.75.56-3.87.12a63.13,63.13,0,0,0-11.44-.25C176.08,283,167.34,284.29,173.18,283.25Z" transform="translate(-1.95 -0.49)"/></g></g></svg>
