<?xml version="1.0" encoding="UTF-8"?>
<svg width="150" height="150" enable-background="new 0 0 180.9 180.4" version="1.1" viewBox="0 0 180.9 180.4" xml:space="preserve" xmlns="http://www.w3.org/2000/svg">
<style type="text/css">
	.st0{fill:#FFFFFF;}
	.st1{fill:#00D0FF;}
	.st2{fill:#0844D2;}
	.st3{fill:url(#a);}
	.st4{fill:url(#SVGID_00000166649553307436222610000018029746990277800872_);}
	.st5{fill:url(#SVGID_00000129918096324263641030000006571170828323373236_);}
	.st6{fill:url(#SVGID_00000109013429944209755740000012300770333045425855_);}
	.st7{fill:url(#SVGID_00000069364982049542214950000017595270741217986958_);}
	.st8{fill:url(#SVGID_00000156563451789976014580000013788777997817138874_);}
	.st9{fill:url(#SVGID_00000106855483762386299070000018191408562093563026_);}
	.st10{fill:url(#SVGID_00000021119358727400505680000004214812978854393221_);}
	.st11{fill:url(#SVGID_00000175290462240117780680000007744949415840112309_);}
	.st12{fill:url(#SVGID_00000121964380829090181040000015158027025750720658_);}
	.st13{fill:url(#SVGID_00000044884879116892836520000012066497901979010467_);}
</style>
<linearGradient id="a" x1="79.514" x2="107.58" y1="43.3" y2="163.9" gradientUnits="userSpaceOnUse">
	<stop stop-color="#00FFD5" offset=".1799"/>
	<stop stop-color="#00F8D5" offset=".2324"/>
	<stop stop-color="#00E4D5" offset=".3098"/>
	<stop stop-color="#00C3D5" offset=".4026"/>
	<stop stop-color="#0096D5" offset=".5073"/>
	<stop stop-color="#005CD5" offset=".622"/>
	<stop stop-color="#0016D5" offset=".7432"/>
	<stop stop-color="#0000D5" offset=".7796"/>
</linearGradient>
<path class="st3" d="m43.9 85.3c-1.5 2.4 0.2 5.4 3 5.4h40.5c1.3 0 2.2 1.5 1.4 2.6l-39.7 63.5c-0.4 0.7-1.3 0.9-2 0.4-22-14.2-36.6-39-36.6-67.1 0-43.3 34.4-78.5 77.3-79.8 1.1 0 1.8 1.2 1.2 2.1l-45.1 72.9zm91.3-61.3c-0.7-0.4-1.6-0.2-2 0.4l-39.1 62.7c-0.7 1.1 0.1 2.6 1.4 2.6h40.5c2.8 0 4.5 3.1 3 5.4l-45.8 73.2c-0.5 0.8 0.1 1.7 1 1.7 42.4-2 76.1-36.9 76.1-79.8 0-27.5-13.9-51.8-35.1-66.2z"/>
</svg>
