<svg xmlns="http://www.w3.org/2000/svg" width="256" height="256" viewBox="0 0 6194 6194" fill-rule="evenodd" clip-rule="evenodd"><defs><style>.fil0,.fil1{fill:#4a4c4d;fill-rule:nonzero}.fil1{fill:#ffe81c}</style></defs><path class="fil0" d="M5911 3062c0-1564-1272-2836-2836-2836S239 1498 239 3062s1272 2836 2836 2836 2836-1272 2836-2836zM3076-12h-2C1379-11 0 1367 0 3062s1379 3074 3074 3074 3074-1379 3074-3074S4769-11 3074-12z"/><path class="fil1" d="M4710 2830l362-1175H3640l259-407-636 407H1591l-359 1175h1239l-182 608-776 1127 560-425-19 74-256 761h1369l492-2039 141-107h909zM3074 226c1564 0 2836 1272 2836 2836S4638 5898 3074 5898 238 4626 238 3062 1510 226 3074 226z"/><path class="fil0" d="M1777 2491l978-625-1049-3-243 787 699 4-385-164zm1221 2256l365-1394-1085 845-176 549h896zm-915-779l1631-1236-721-303 45-71 429-674 4-6-1235 791 647 338-799 1162zm2500-1313l257-791H3696l-316 516 720 272 483 4zm488-999l-362 1175h-909l-141 107-492 2039H1798l256-761 19-74-560 425 776-1127 182-608H1232l359-1175h1672l636-407-259 407h1432z"/><path class="fil1" d="M4841 1864l-257 791-483-4-720-271 316-516z"/><path class="fil1" d="M3714 2732L2083 3968l799-1161-646-338 1235-791-3 6-430 674-44 72zm-350 622l-366 1393h-895l176-549z"/><path class="fil1" d="M2756 1867l-979 624 385 164-698-4 243-787z"/></svg>
