<svg width="124" height="125" viewBox="0 0 124 125" fill="none" xmlns="http://www.w3.org/2000/svg">
<path d="M61.6985 124.006C95.7607 124.006 123.374 96.3935 123.374 62.3313C123.374 28.2691 95.7607 0.65625 61.6985 0.65625C27.6363 0.65625 0.0234375 28.2691 0.0234375 62.3313C0.0234375 96.3935 27.6363 124.006 61.6985 124.006Z" fill="#83B8B3"/>
<path d="M35.9704 28.1953L91.6585 30.305L93.5971 99.2119H30.5156L35.9704 28.1953Z" fill="white"/>
<path d="M86.3071 116.518C81.9071 118.086 77.5927 120.604 73.0883 121.003C64.9725 121.814 56.7949 121.789 48.6843 120.927C41.595 120.082 35.0189 116.718 28.8894 112.821C26.4193 111.241 24.0688 109.482 21.8571 107.557C15.5872 101.938 10.4293 95.1908 6.65216 87.6666C3.35677 81.737 1.20348 75.2417 0.304099 68.5178C0.114037 66.8833 0 65.5149 0 64.5455V58.8437C0.579688 56.1543 1.32093 53.4935 1.72006 50.7756C2.52286 44.9383 4.50486 39.3253 7.54545 34.2782C8.7422 33.4395 9.85313 32.4845 10.862 31.4273C12.5821 29.2511 17.0105 27.2934 18.379 28.5763C22.6744 32.7102 27.673 36.4639 30.733 41.396C33.793 46.3281 37.6798 49.5022 42.5073 52.3151C45.0353 53.8761 47.0634 56.1284 48.3517 58.8057C49.0264 60.2501 47.3349 62.721 46.9168 64.7736C46.707 66.3238 46.5896 67.885 46.5651 69.4491C43.8283 73.526 41.3765 77.8309 38.2689 81.5941C35.7316 84.6731 35.1899 87.7996 36.6724 91.0972C38.2309 94.5468 41.481 95.6492 45.2252 95.6207C51.3452 95.5731 57.4652 95.6777 63.5757 95.7157C65.5911 96.3972 67.6562 96.9215 69.7527 97.2837C74.7228 97.7969 79.7784 98.6616 84.6725 98.139C87.8846 97.7969 89.8517 98.6521 91.6668 100.657C93.2158 102.368 94.4417 104.354 96.3423 106.948C93.3774 109.429 90.5454 111.7 87.7895 114.142C87.1847 114.859 86.6855 115.659 86.3071 116.518Z" fill="#83B8B3"/>
<path d="M46.5649 69.4488C46.5939 67.8972 46.7145 66.3487 46.926 64.8113C47.3441 62.7586 49.0357 60.2878 48.361 58.8433C47.0726 56.1661 45.0445 53.9138 42.5166 52.3527C37.689 49.5493 33.8212 46.3943 30.7422 41.4337C27.6632 36.4731 22.6741 32.7479 18.3882 28.614C17.0198 27.3121 12.5913 29.2697 10.8713 31.4649C9.86236 32.5222 8.75143 33.4771 7.55469 34.3159C10.4531 29.7829 12.8574 24.8128 16.3736 20.812C23.2453 12.8125 32.229 6.90788 42.298 3.77293C50.081 1.42567 58.2917 -0.0948232 66.8825 1.03604C81.0326 2.93666 93.2821 8.13485 103.621 17.9135C111.414 25.2974 116.27 34.3159 119.739 44.3701C122.96 53.8732 122.875 63.7279 121.117 72.9934C118.047 89.0917 110.007 102.795 95.3442 111.623C92.4268 113.382 89.3573 114.883 86.3543 116.499C86.7327 115.64 87.232 114.84 87.8368 114.123C90.5642 111.709 93.3961 109.371 96.3896 106.929C94.489 104.335 93.2631 102.348 91.7141 100.638C89.899 98.6328 87.9128 97.787 84.7198 98.1196C79.8257 98.6423 74.77 97.7775 69.7999 97.2643C67.7035 96.9021 65.6383 96.3779 63.6229 95.6963C68.8401 95.6963 74.0763 95.6963 79.265 95.5443C85.7081 95.4112 89.4333 89.6999 86.8675 83.7985C86.0502 81.8978 84.7293 80.5199 82.192 80.5864C76.6612 80.7195 71.1304 80.5864 65.5996 80.5864H58.3582C60.4869 77.3269 61.9409 74.9416 63.5564 72.6798C70.4366 63.0532 77.4784 53.5311 84.2446 43.819C87.7133 38.8488 84.5202 31.8546 78.5428 31.693C66.3788 31.3826 54.2117 31.4143 42.0414 31.788C40.0458 31.8451 36.9002 33.9357 36.4156 35.6843C35.4653 38.9724 34.8951 43.0017 38.2022 45.7576C39.0384 46.4513 40.5304 46.5368 41.7278 46.5558C47.097 46.6414 52.4758 46.5558 57.883 46.6224C59.394 46.6224 60.905 46.7744 63.5849 46.917C60.9811 50.4046 59.0614 53.1415 57.0183 55.7738C53.5782 60.3828 50.062 64.9063 46.5649 69.4488Z" fill="#83B8B3"/>
</svg>
