<svg width="100" height="100" viewBox="0 0 198 201" fill="none" xmlns="http://www.w3.org/2000/svg">
<g clip-path="url(#clip0_5866_5621)">
<path d="M90.9383 0V34.6745C71.7344 37.9578 56.4113 47.4873 45.4891 63.7034C37.4075 75.7153 33.8067 89.0886 34.4069 103.543C35.105 118.945 41.1224 133.628 51.4321 145.085C61.7419 156.542 75.7049 164.064 90.9383 166.366V201C59.4119 197.076 34.4869 182.422 16.8433 156.115C-4.76107 123.923 -5.40119 82.1217 13.8027 49.8096C31.2062 20.5805 57.2115 4.36434 90.9383 0Z" fill="white"/>
<path d="M158.832 86.7664L156.912 85.8455L108.862 63.0629C107.942 62.6224 107.582 62.1419 107.582 61.0609C107.662 56.216 107.622 51.3312 107.622 46.4864C107.622 46.0459 107.662 45.6055 107.702 44.9648L116.584 49.169C136.748 58.7385 156.912 68.3481 177.076 77.8375C178.356 78.4381 178.796 79.1188 178.756 80.5603C178.676 85.6453 178.716 90.7304 178.756 95.8555C178.756 96.8164 178.476 97.337 177.596 97.7774C161.673 105.545 145.776 113.366 129.906 121.241L128.106 122.122L142.629 129.049L177.516 145.545C178.476 145.985 178.756 146.506 178.756 147.547C178.716 152.352 178.716 157.197 178.716 162.001V163.603L177.236 163.002C154.431 152.192 131.64 141.381 108.862 130.57C107.942 130.13 107.582 129.609 107.582 128.568C107.622 123.523 107.582 118.478 107.502 113.433C107.502 112.392 107.862 111.871 108.782 111.431C124.705 103.663 140.602 95.8421 156.472 87.9676C157.192 87.6473 157.872 87.287 158.832 86.7664Z" fill="white"/>
<path d="M108.662 43.8833C114.543 41.4809 119.984 39.2387 125.505 37.0765C125.945 36.8763 126.666 37.1166 127.186 37.3568C141.709 44.2036 156.191 51.1305 170.714 58.0174L195.279 69.669L196.84 70.4297C192.479 72.2315 188.238 73.6329 184.277 75.6349C180.316 77.6369 178.036 76.9562 174.635 75.3146C153.351 65.0243 131.947 54.9343 110.582 44.8042L108.662 43.8833Z" fill="white"/>
<path d="M180.076 163.722V109.588C180.076 108.507 180.356 107.946 181.357 107.506C186.438 105.264 191.479 102.901 196.52 100.579L197.96 99.9785V101.62C197.96 119.398 197.973 137.176 198 154.953C198 156.194 197.64 156.715 196.48 157.155C191.519 159.077 186.638 161.159 181.717 163.161L180.076 163.722Z" fill="white"/>
<path d="M180.076 96.5759V91.0904C180.076 87.3267 180.076 83.603 180.116 79.8392C180.116 79.3588 180.476 78.598 180.837 78.4378C186.358 76.1556 191.879 73.9534 197.44 71.7112C197.52 71.6711 197.6 71.7112 197.8 71.7112C197.892 71.9828 197.945 72.2657 197.96 72.552C197.96 77.7972 198 83.0024 197.92 88.2476C197.911 88.5143 197.841 88.7754 197.716 89.0112C197.592 89.2471 197.415 89.4514 197.2 89.609C191.599 91.9713 185.998 94.2135 180.076 96.5759Z" fill="white"/>
</g>
<defs>
<clipPath id="clip0_5866_5621">
<rect width="198" height="201" fill="white"/>
</clipPath>
</defs>
</svg>
