<?xml version="1.0" encoding="UTF-8" standalone="no"?>
<!-- Created with Inkscape (http://www.inkscape.org/) -->

<svg
   xmlns:dc="http://purl.org/dc/elements/1.1/"
   xmlns:cc="http://creativecommons.org/ns#"
   xmlns:rdf="http://www.w3.org/1999/02/22-rdf-syntax-ns#"
   xmlns:svg="http://www.w3.org/2000/svg"
   xmlns="http://www.w3.org/2000/svg"
   xmlns:sodipodi="http://sodipodi.sourceforge.net/DTD/sodipodi-0.dtd"
   xmlns:inkscape="http://www.inkscape.org/namespaces/inkscape"
   width="302.82462"
   height="260.17288"
   id="svg2"
   version="1.1"
   inkscape:version="0.48.0 r9654"
   sodipodi:docname="Gary.svg"
   style="display:inline">
  <defs
     id="defs4" />
  <sodipodi:namedview
     id="base"
     pagecolor="#ffffff"
     bordercolor="#666666"
     borderopacity="1.0"
     inkscape:pageopacity="0.0"
     inkscape:pageshadow="2"
     inkscape:zoom="1.7680551"
     inkscape:cx="151.41231"
     inkscape:cy="130.08645"
     inkscape:document-units="px"
     inkscape:current-layer="layer5"
     showgrid="false"
     inkscape:window-width="1152"
     inkscape:window-height="678"
     inkscape:window-x="0"
     inkscape:window-y="0"
     inkscape:window-maximized="0"
     fit-margin-top="0"
     fit-margin-left="0"
     fit-margin-right="0"
     fit-margin-bottom="0" />
  <metadata
     id="metadata7">
    <rdf:RDF>
      <cc:Work
         rdf:about="">
        <dc:format>image/svg+xml</dc:format>
        <dc:type
           rdf:resource="http://purl.org/dc/dcmitype/StillImage" />
        <dc:title />
      </cc:Work>
    </rdf:RDF>
  </metadata>
  <g
     inkscape:groupmode="layer"
     id="layer4"
     inkscape:label="Shell"
     style="display:inline"
     transform="translate(-220.54286,-335.81112)">
    <path
       style="fill:#f2b8d0;fill-opacity:1;stroke:#000000;stroke-width:3.20000005;stroke-linecap:butt;stroke-linejoin:miter;stroke-miterlimit:4;stroke-opacity:1;stroke-dasharray:none"
       d="m 356.78571,576.29075 38.57143,-11.07143 26.78572,-8.57142 c 0,0 -2.14286,-8.57143 -8.57143,-13.92858 -6.42857,-5.35714 -15,-6.78571 -15,-6.78571 0,0 14.28571,-60.35714 10.71428,-90.35714 -3.57142,-30 -18.21428,-89.64286 -69.64285,-105 -51.42857,-15.35715 -96.78572,29.28571 -103.21429,45.71428 -6.42857,16.42857 -14.28571,22.5 -14.28571,52.5 0,30 8.21428,52.5 17.5,71.78572 9.28571,19.28571 26.78571,41.78571 26.78571,41.78571 0,0 -3.21428,1.78572 -2.14286,7.14286 1.07143,5.35714 6.78572,7.14286 6.78572,7.14286 3.67336,13.86863 67.26326,8.65981 85.71428,9.64285 z"
       id="path3772"
       inkscape:connector-curvature="0"
       sodipodi:nodetypes="cccscssssscscc" />
    <path
       style="fill:#e20005;fill-opacity:1;stroke:none"
       d="m 325.35714,573.79075 c 0,0 17.5,-24.28571 13.21429,-52.85714 -4.28572,-28.57143 -9.28572,-53.21429 -19.28572,-71.07143 -10,-17.85714 -26.78571,-24.64286 -39.28571,-22.85714 -12.5,1.78571 -25.71429,27.5 -22.85714,44.64286 2.85714,17.14285 8.92857,37.5 22.14285,41.78571 13.21429,4.28571 16.07143,-10.71429 13.21429,-17.14286 -2.85714,-6.42857 -8.21429,-15 -8.21429,-15 0,0 0,19.28572 -8.21428,9.64286 -8.21429,-9.64286 -6.07143,-23.21429 -5.35714,-28.57143 0.71428,-5.35714 7.5,-18.57143 18.57142,-10.35714 11.07143,8.21428 15.71429,15 21.07143,36.07143 5.25203,20.658 12.14286,32.85714 5.71429,54.28571 -6.42857,21.42857 -13.21429,23.92857 -13.21429,23.92857 z"
       id="path3776"
       inkscape:connector-curvature="0"
       sodipodi:nodetypes="csssssscssssscc" />
    <path
       sodipodi:type="arc"
       style="fill:#1f5aa6;fill-opacity:1;stroke:none"
       id="path3778"
       sodipodi:cx="360.71429"
       sodipodi:cy="459.32648"
       sodipodi:rx="8.2142859"
       sodipodi:ry="13.75"
       d="m 368.92858,459.32648 c 0,7.59391 -3.67766,13.75 -8.21429,13.75 -4.53662,0 -8.21428,-6.15609 -8.21428,-13.75 0,-7.59392 3.67766,-13.75 8.21428,-13.75 4.53663,0 8.21429,6.15608 8.21429,13.75 z"
       transform="matrix(0.85063874,-0.52575064,0.49843892,0.80644972,-172.92659,276.76283)" />
    <path
       sodipodi:type="arc"
       style="fill:#1f5aa6;fill-opacity:1;stroke:none"
       id="path3780"
       sodipodi:cx="333.75"
       sodipodi:cy="407.89789"
       sodipodi:rx="11.25"
       sodipodi:ry="15.178572"
       d="m 345,407.89789 c 0,8.38289 -5.0368,15.17857 -11.25,15.17857 -6.2132,0 -11.25,-6.79568 -11.25,-15.17857 0,-8.3829 5.0368,-15.17857 11.25,-15.17857 6.2132,0 11.25,6.79567 11.25,15.17857 z"
       transform="matrix(0.79925481,-0.48363113,0.50000674,0.77307859,-136.95299,252.00836)" />
    <path
       sodipodi:type="arc"
       style="fill:#1f5aa6;fill-opacity:1;stroke:none"
       id="path3782"
       sodipodi:cx="288.03571"
       sodipodi:cy="370.04074"
       sodipodi:rx="14.464286"
       sodipodi:ry="10.178572"
       d="m 302.49999,370.04074 c 0,5.62147 -6.47588,10.17857 -14.46428,10.17857 -7.98841,0 -14.46429,-4.5571 -14.46429,-10.17857 0,-5.62147 6.47588,-10.17857 14.46429,-10.17857 7.9884,0 14.46428,4.5571 14.46428,10.17857 z"
       transform="matrix(0.95302707,-0.30288512,0.30288512,0.95302707,-98.907097,103.90933)" />
    <path
       sodipodi:type="arc"
       style="fill:#1f5aa6;fill-opacity:1;stroke:none"
       id="path3784"
       sodipodi:cx="248.39285"
       sodipodi:cy="412.89789"
       sodipodi:rx="7.6785712"
       sodipodi:ry="11.25"
       d="m 256.07142,412.89789 c 0,6.2132 -3.43781,11.25 -7.67857,11.25 -4.24076,0 -7.67857,-5.0368 -7.67857,-11.25 0,-6.21321 3.43781,-11.25 7.67857,-11.25 4.24076,0 7.67857,5.03679 7.67857,11.25 z"
       transform="matrix(0.83127518,0.55586111,-0.55586111,0.83127518,272.85249,-69.834376)" />
    <path
       sodipodi:type="arc"
       style="fill:#1f5aa6;fill-opacity:1;stroke:none"
       id="path3786"
       sodipodi:cx="238.92857"
       sodipodi:cy="450.75504"
       sodipodi:rx="8.5714283"
       sodipodi:ry="11.25"
       d="m 247.5,450.75504 c 0,6.2132 -3.83756,11.25 -8.57143,11.25 -4.73387,0 -8.57142,-5.0368 -8.57142,-11.25 0,-6.21321 3.83755,-11.25 8.57142,-11.25 4.73387,0 8.57143,5.03679 8.57143,11.25 z"
       transform="translate(1.4285714,-1.7857143)" />
  </g>
  <g
     inkscape:groupmode="layer"
     id="layer3"
     inkscape:label="BackEye"
     transform="translate(-220.54286,-335.81112)">
    <path
       style="fill:#7dcbb1;fill-opacity:1;stroke:#000000;stroke-width:3.20000005;stroke-linecap:butt;stroke-linejoin:miter;stroke-miterlimit:4;stroke-opacity:1;stroke-dasharray:none;display:inline"
       d="m 476.07143,405.57647 c 0,0 4.75576,27.01006 4.28571,33.92857 -0.52258,7.6917 -2.13895,54.28961 -2.85714,62.85714 -0.71849,8.57108 -4.28571,38.92857 -5.35714,42.85714 -1.07143,3.92858 -4.28572,12.85715 -4.28572,12.85715 l 21.78572,1.07143 c 0,0 -6.07143,-21.42858 -2.14286,-51.42858 1.86433,-14.23668 2.89852,-36.75763 4.59656,-56.494 1.88013,-21.85276 4.33201,-40.29171 4.33201,-40.29171 -9.06707,-5.84279 -10.35235,-6.12674 -20.35714,-5.35714 z"
       id="path3768"
       inkscape:connector-curvature="0"
       sodipodi:nodetypes="csssccsscc" />
  </g>
  <g
     inkscape:groupmode="layer"
     id="layer2"
     inkscape:label="BodyFill"
     style="display:inline"
     transform="translate(-220.54286,-335.81112)">
    <path
       style="fill:#7dcbb1;fill-opacity:1;stroke:none"
       d="m 401.78571,408.79075 c 0,0 23.21429,45 27.5,67.85715 4.28572,22.85714 7.5,38.92857 6.42858,48.21428 -1.07143,9.28572 -1.42858,31.07143 -1.42858,31.07143 l 0.35715,-5 c 0,0 -10.71429,3.92857 -22.14286,1.78571 -11.42857,-2.14285 -23.92857,0.71429 -30.71429,7.85715 C 375,567.71932 352.85714,571.6479 331.42857,567.36218 310,563.07647 295,560.93361 275.35714,564.1479 c -19.64285,3.21428 -12.14285,6.78571 -23.92857,6.07142 -11.78571,-0.71428 -8.57143,11.78572 -1.42857,11.78572 7.14286,0 14.28571,-2.5 17.14286,2.85714 2.85714,5.35714 32.5,0.71429 37.85714,6.07143 5.35714,5.35714 27.5,3.57143 32.85714,0.71429 5.35715,-2.85715 17.85715,-3.21429 21.07143,-0.71429 3.21429,2.5 17.5,1.78571 21.07143,0 3.57143,-1.78571 18.57143,-1.78571 22.14286,0.71429 3.57143,2.5 23.57143,1.07142 29.28571,-0.35715 5.71429,-1.42857 16.07143,-0.71428 19.28572,0.35715 3.21428,1.07142 22.85714,-2.5 26.78571,-4.64286 3.92857,-2.14286 15,-2.5 20,-0.71429 5,1.78572 12.85714,-2.14285 16.07143,-5.35714 3.21429,-3.21429 5,-7.5 5,-7.5 0,0 -13.57143,1.42857 -17.85714,-3.92857 -4.28572,-5.35714 -5.35715,-11.07143 -16.07143,-13.57143 -10.71429,-2.5 -21.07143,-1.07143 -21.07143,-1.07143 0,0 -12.85714,-25 -16.07143,-43.21428 -3.21429,-18.21429 -14.28571,-62.14286 -14.28571,-68.21429 0,-6.07143 -6.07143,-45 -6.07143,-45 z"
       id="path3760"
       inkscape:connector-curvature="0" />
    <path
       style="fill:#cce954;fill-opacity:1;stroke:none"
       d="m 260.71429,568.79075 -9.64286,1.78572 -7.5,0.71428 -1.78572,5.71429 6.07143,5.35714 13.21429,-1.42857 5,3.21429 3.92857,3.21428 26.42857,1.07143 8.21429,3.57143 16.42857,2.85714 14.64286,-2.14286 11.42857,-3.21428 7.5,0 10,3.57143 10,-1.07143 13.57143,-2.85714 12.85714,1.78571 10.71428,2.5 13.57143,-1.42857 10,-1.07143 7.5,-0.71429 8.92858,2.14286 20,-3.57143 9.64285,-2.85714 7.85715,-1.07143 8.57142,1.78572 7.14286,-0.71429 7.85714,-3.92857 6.42858,-8.92857 -12.85715,-0.35715 L 500,568.43361 c 0,0 -24.64286,11.42857 -33.21428,8.21429 -8.57143,-3.21429 -37.50001,-7.85715 -46.78572,-3.57143 -9.28571,4.28571 -44.64286,11.78571 -60.71429,6.07143 -16.07142,-5.71429 -41.42857,2.5 -48.57142,0 -7.14286,-2.5 -31.42858,1.07142 -38.21429,-3.57143 -6.78571,-4.64286 -11.78571,-6.78572 -11.78571,-6.78572 z"
       id="path3766"
       inkscape:connector-curvature="0" />
  </g>
  <g
     inkscape:label="BodyBorder"
     id="g3762"
     inkscape:groupmode="layer"
     style="display:inline"
     transform="translate(-220.54286,-335.81112)">
    <path
       inkscape:connector-curvature="0"
       id="path3764"
       d="m 401.78571,408.79075 c 0,0 23.21429,45 27.5,67.85715 4.28572,22.85714 7.5,38.92857 6.42858,48.21428 -1.07143,9.28572 -1.42858,31.07143 -1.42858,31.07143 l -0.35714,-5 c 0,0 -10,3.92857 -21.42857,1.78571 -11.42857,-2.14285 -23.92857,0.71429 -30.71429,7.85715 C 375,567.71932 352.85714,571.6479 331.42857,567.36218 310,563.07647 295,560.93361 275.35714,564.1479 c -19.64285,3.21428 -12.14285,6.78571 -23.92857,6.07142 -11.78571,-0.71428 -8.57143,11.78572 -1.42857,11.78572 7.14286,0 14.28571,-2.5 17.14286,2.85714 2.85714,5.35714 32.5,0.71429 37.85714,6.07143 5.35714,5.35714 27.5,3.57143 32.85714,0.71429 5.35715,-2.85715 17.85715,-3.21429 21.07143,-0.71429 3.21429,2.5 17.5,1.78571 21.07143,0 3.57143,-1.78571 18.57143,-1.78571 22.14286,0.71429 3.57143,2.5 23.57143,1.07142 29.28571,-0.35715 5.71429,-1.42857 16.07143,-0.71428 19.28572,0.35715 3.21428,1.07142 22.85714,-2.5 26.78571,-4.64286 3.92857,-2.14286 15,-2.5 20,-0.71429 5,1.78572 12.85714,-2.14285 16.07143,-5.35714 3.21429,-3.21429 5,-7.5 5,-7.5 0,0 -13.57143,1.42857 -17.85714,-3.92857 -4.28572,-5.35714 -5.35715,-11.07143 -16.07143,-13.57143 -10.71429,-2.5 -21.07143,-1.07143 -21.07143,-1.07143 0,0 -12.85714,-25 -16.07143,-43.21428 -3.21429,-18.21429 -14.28571,-62.14286 -14.28571,-68.21429 0,-6.07143 -6.07143,-45 -6.07143,-45 z"
       style="fill:none;stroke:#000000;stroke-width:3.20000005;stroke-linecap:butt;stroke-linejoin:miter;stroke-miterlimit:4;stroke-opacity:1;stroke-dasharray:none"
       sodipodi:nodetypes="cssccssssssssssssssssscsscsscc" />
  </g>
  <g
     inkscape:groupmode="layer"
     id="layer5"
     inkscape:label="Eyes"
     style="display:inline"
     transform="translate(-220.54286,-335.81112)">
    <path
       sodipodi:type="arc"
       style="fill:#cce954;fill-opacity:1;stroke:#000000;stroke-width:3.38403392;stroke-miterlimit:4;stroke-dasharray:none"
       id="path3789"
       sodipodi:cx="409.64285"
       sodipodi:cy="387.00504"
       sodipodi:rx="37.5"
       sodipodi:ry="32.5"
       d="m 447.14285,387.00504 c 0,17.94925 -16.78932,32.5 -37.5,32.5 -20.71068,0 -37.5,-14.55075 -37.5,-32.5 0,-17.94926 16.78932,-32.5 37.5,-32.5 20.71068,0 37.5,14.55074 37.5,32.5 z"
       transform="matrix(0.91428571,0,0,0.97802198,35.469388,7.7913195)" />
    <path
       sodipodi:type="arc"
       style="fill:#cce954;fill-opacity:1;stroke:#000000;stroke-width:3.12372971;stroke-miterlimit:4;stroke-dasharray:none"
       id="path3813"
       sodipodi:cx="490.0029"
       sodipodi:cy="384.61584"
       sodipodi:rx="31.764563"
       sodipodi:ry="29.969173"
       d="m 521.76746,384.61584 c 0,16.55152 -14.22148,29.96918 -31.76456,29.96918 -17.54308,0 -31.76456,-13.41766 -31.76456,-29.96918 0,-16.55151 14.22148,-29.96917 31.76456,-29.96917 17.54308,0 31.76456,13.41766 31.76456,29.96917 z"
       transform="matrix(1.0304348,0,0,1.0184332,-15.879879,-7.6421204)" />
    <path
       sodipodi:type="arc"
       style="fill:#fe2606;fill-opacity:1;stroke:none"
       id="path3815"
       sodipodi:cx="422.60678"
       sodipodi:cy="380.05832"
       sodipodi:rx="12.982038"
       sodipodi:ry="14.086893"
       d="m 435.58882,380.05832 c 0,7.77998 -5.81226,14.08689 -12.98204,14.08689 -7.16978,0 -12.98204,-6.30691 -12.98204,-14.08689 0,-7.77998 5.81226,-14.08689 12.98204,-14.08689 7.16978,0 12.98204,6.30691 12.98204,14.08689 z"
       transform="matrix(1,0,0,1.0196078,0.82864076,-7.7283374)" />
    <path
       sodipodi:type="arc"
       style="fill:#fe2606;fill-opacity:1;stroke:none"
       id="path3817"
       sodipodi:cx="502.2944"
       sodipodi:cy="377.29617"
       sodipodi:rx="11.18665"
       sodipodi:ry="12.429611"
       d="m 513.48105,377.29617 c 0,6.86469 -5.00843,12.42961 -11.18665,12.42961 -6.17821,0 -11.18665,-5.56492 -11.18665,-12.42961 0,-6.86468 5.00844,-12.42961 11.18665,-12.42961 6.17822,0 11.18665,5.56493 11.18665,12.42961 z"
       transform="matrix(1.037037,0,0,1.0777778,-19.017817,-30.312006)" />
    <path
       sodipodi:type="arc"
       style="fill:#000000;fill-opacity:1;stroke:none"
       id="path3819"
       sodipodi:cx="424.26407"
       sodipodi:cy="379.36777"
       sodipodi:rx="5.524272"
       sodipodi:ry="5.938592"
       d="m 429.78834,379.36777 c 0,3.27979 -2.4733,5.93859 -5.52427,5.93859 -3.05097,0 -5.52427,-2.6588 -5.52427,-5.93859 0,-3.2798 2.4733,-5.93859 5.52427,-5.93859 3.05097,0 5.52427,2.65879 5.52427,5.93859 z" />
    <path
       sodipodi:type="arc"
       style="fill:#000000;fill-opacity:1;stroke:none"
       id="path3821"
       sodipodi:cx="502.84683"
       sodipodi:cy="376.32944"
       sodipodi:rx="5.1099515"
       sodipodi:ry="4.8337379"
       d="m 507.95678,376.32944 c 0,2.6696 -2.2878,4.83374 -5.10995,4.83374 -2.82215,0 -5.10995,-2.16414 -5.10995,-4.83374 0,-2.6696 2.2878,-4.83374 5.10995,-4.83374 2.82215,0 5.10995,2.16414 5.10995,4.83374 z" />
  </g>
</svg>
