<?xml version="1.0" encoding="UTF-8"?>
<svg version="1.1" width="200" height="200" viewBox="0 0 302.82 260.17" xmlns="http://www.w3.org/2000/svg" xmlns:cc="http://creativecommons.org/ns#" xmlns:dc="http://purl.org/dc/elements/1.1/" xmlns:rdf="http://www.w3.org/1999/02/22-rdf-syntax-ns#">
<metadata>
<rdf:RDF>
<cc:Work rdf:about="">
<dc:format>image/svg+xml</dc:format>
<dc:type rdf:resource="http://purl.org/dc/dcmitype/StillImage"/>
<dc:title/>
</cc:Work>
</rdf:RDF>
</metadata>
<g transform="translate(-220.54 -335.81)">
<path d="m356.79 576.29 38.571-11.071 26.786-8.5714s-2.1429-8.5714-8.5714-13.929c-6.4286-5.3571-15-6.7857-15-6.7857s14.286-60.357 10.714-90.357c-3.5714-30-18.214-89.643-69.643-105-51.429-15.357-96.786 29.286-103.21 45.714s-14.286 22.5-14.286 52.5 8.2143 52.5 17.5 71.786c9.2857 19.286 26.786 41.786 26.786 41.786s-3.2143 1.7857-2.1429 7.1429c1.0714 5.3571 6.7857 7.1429 6.7857 7.1429 3.6734 13.869 67.263 8.6598 85.714 9.6428z" fill="#f2b8d0" stroke="#000" stroke-width="3.2"/>
<path d="m325.36 573.79s17.5-24.286 13.214-52.857c-4.2857-28.571-9.2857-53.214-19.286-71.071s-26.786-24.643-39.286-22.857c-12.5 1.7857-25.714 27.5-22.857 44.643 2.8571 17.143 8.9286 37.5 22.143 41.786 13.214 4.2857 16.071-10.714 13.214-17.143s-8.2143-15-8.2143-15 0 19.286-8.2143 9.6429c-8.2143-9.6429-6.0714-23.214-5.3571-28.571 0.71428-5.3571 7.5-18.571 18.571-10.357 11.071 8.2143 15.714 15 21.071 36.071 5.252 20.658 12.143 32.857 5.7143 54.286s-13.214 23.929-13.214 23.929z" fill="#e20005"/>
<path transform="matrix(.85064 -.52575 .49844 .80645 -172.93 276.76)" d="m368.93 459.33c0 7.5939-3.6777 13.75-8.2143 13.75-4.5366 0-8.2143-6.1561-8.2143-13.75 0-7.5939 3.6777-13.75 8.2143-13.75 4.5366 0 8.2143 6.1561 8.2143 13.75z" fill="#1f5aa6"/>
<path transform="matrix(.79925 -.48363 .50001 .77308 -136.95 252.01)" d="m345 407.9c0 8.3829-5.0368 15.179-11.25 15.179s-11.25-6.7957-11.25-15.179c0-8.3829 5.0368-15.179 11.25-15.179s11.25 6.7957 11.25 15.179z" fill="#1f5aa6"/>
<path transform="matrix(.95303 -.30289 .30289 .95303 -98.907 103.91)" d="m302.5 370.04c0 5.6215-6.4759 10.179-14.464 10.179-7.9884 0-14.464-4.5571-14.464-10.179s6.4759-10.179 14.464-10.179c7.9884 0 14.464 4.5571 14.464 10.179z" fill="#1f5aa6"/>
<path transform="matrix(.83128 .55586 -.55586 .83128 272.85 -69.834)" d="m256.07 412.9c0 6.2132-3.4378 11.25-7.6786 11.25s-7.6786-5.0368-7.6786-11.25c0-6.2132 3.4378-11.25 7.6786-11.25s7.6786 5.0368 7.6786 11.25z" fill="#1f5aa6"/>
<path transform="translate(1.4286 -1.7857)" d="m247.5 450.76c0 6.2132-3.8376 11.25-8.5714 11.25s-8.5714-5.0368-8.5714-11.25c0-6.2132 3.8376-11.25 8.5714-11.25s8.5714 5.0368 8.5714 11.25z" fill="#1f5aa6"/>
</g>
<g transform="translate(-220.54 -335.81)">
<path d="m476.07 405.58s4.7558 27.01 4.2857 33.929c-0.52258 7.6917-2.139 54.29-2.8571 62.857-0.71849 8.5711-4.2857 38.929-5.3571 42.857-1.0714 3.9286-4.2857 12.857-4.2857 12.857l21.786 1.0714s-6.0714-21.429-2.1429-51.429c1.8643-14.237 2.8985-36.758 4.5966-56.494 1.8801-21.853 4.332-40.292 4.332-40.292-9.0671-5.8428-10.352-6.1267-20.357-5.3571z" fill="#7dcbb1" stroke="#000" stroke-width="3.2"/>
</g>
<g transform="translate(-220.54 -335.81)">
<path d="m401.79 408.79s23.214 45 27.5 67.857c4.2857 22.857 7.5 38.929 6.4286 48.214-1.0714 9.2857-1.4286 31.071-1.4286 31.071l0.35715-5s-10.714 3.9286-22.143 1.7857c-11.429-2.1428-23.929 0.71429-30.714 7.8572-6.7857 7.1428-28.929 11.071-50.357 6.7857-21.429-4.2857-36.429-6.4286-56.071-3.2143-19.643 3.2143-12.143 6.7857-23.929 6.0714-11.786-0.71428-8.5714 11.786-1.4286 11.786s14.286-2.5 17.143 2.8571c2.8571 5.3571 32.5 0.71429 37.857 6.0714s27.5 3.5714 32.857 0.71429c5.3572-2.8572 17.857-3.2143 21.071-0.71429 3.2143 2.5 17.5 1.7857 21.071 0s18.571-1.7857 22.143 0.71429 23.571 1.0714 29.286-0.35715c5.7143-1.4286 16.071-0.71428 19.286 0.35715 3.2143 1.0714 22.857-2.5 26.786-4.6429s15-2.5 20-0.71429c5 1.7857 12.857-2.1428 16.071-5.3571s5-7.5 5-7.5-13.571 1.4286-17.857-3.9286c-4.2857-5.3571-5.3572-11.071-16.071-13.571-10.714-2.5-21.071-1.0714-21.071-1.0714s-12.857-25-16.071-43.214c-3.2143-18.214-14.286-62.143-14.286-68.214s-6.0714-45-6.0714-45z" fill="#7dcbb1"/>
<path d="m260.71 568.79-9.6429 1.7857-7.5 0.71428-1.7857 5.7143 6.0714 5.3571 13.214-1.4286 5 3.2143 3.9286 3.2143 26.429 1.0714 8.2143 3.5714 16.429 2.8571 14.643-2.1429 11.429-3.2143h7.5l10 3.5714 10-1.0714 13.571-2.8571 12.857 1.7857 10.714 2.5 13.571-1.4286 10-1.0714 7.5-0.71429 8.9286 2.1429 20-3.5714 9.6428-2.8571 7.8572-1.0714 8.5714 1.7857 7.1429-0.71429 7.8571-3.9286 6.4286-8.9286-12.857-0.35715-6.4286-4.2857s-24.643 11.429-33.214 8.2143c-8.5714-3.2143-37.5-7.8572-46.786-3.5714-9.2857 4.2857-44.643 11.786-60.714 6.0714-16.071-5.7143-41.429 2.5-48.571 0-7.1429-2.5-31.429 1.0714-38.214-3.5714-6.7857-4.6429-11.786-6.7857-11.786-6.7857z" fill="#cce954"/>
</g>
<g transform="translate(-220.54 -335.81)">
<path d="m401.79 408.79s23.214 45 27.5 67.857c4.2857 22.857 7.5 38.929 6.4286 48.214-1.0714 9.2857-1.4286 31.071-1.4286 31.071l-0.35714-5s-10 3.9286-21.429 1.7857c-11.429-2.1428-23.929 0.71429-30.714 7.8572-6.7857 7.1428-28.929 11.071-50.357 6.7857-21.429-4.2857-36.429-6.4286-56.071-3.2143-19.643 3.2143-12.143 6.7857-23.929 6.0714-11.786-0.71428-8.5714 11.786-1.4286 11.786s14.286-2.5 17.143 2.8571c2.8571 5.3571 32.5 0.71429 37.857 6.0714s27.5 3.5714 32.857 0.71429c5.3572-2.8572 17.857-3.2143 21.071-0.71429 3.2143 2.5 17.5 1.7857 21.071 0s18.571-1.7857 22.143 0.71429 23.571 1.0714 29.286-0.35715c5.7143-1.4286 16.071-0.71428 19.286 0.35715 3.2143 1.0714 22.857-2.5 26.786-4.6429s15-2.5 20-0.71429c5 1.7857 12.857-2.1428 16.071-5.3571s5-7.5 5-7.5-13.571 1.4286-17.857-3.9286c-4.2857-5.3571-5.3572-11.071-16.071-13.571-10.714-2.5-21.071-1.0714-21.071-1.0714s-12.857-25-16.071-43.214c-3.2143-18.214-14.286-62.143-14.286-68.214s-6.0714-45-6.0714-45z" fill="none" stroke="#000" stroke-width="3.2"/>
</g>
<g transform="translate(-220.54 -335.81)">
<path transform="matrix(.91429 0 0 .97802 35.469 7.7913)" d="m447.14 387.01c0 17.949-16.789 32.5-37.5 32.5s-37.5-14.551-37.5-32.5c0-17.949 16.789-32.5 37.5-32.5s37.5 14.551 37.5 32.5z" fill="#cce954" stroke="#000" stroke-width="3.384"/>
<path transform="matrix(1.0304 0 0 1.0184 -15.88 -7.6421)" d="m521.77 384.62c0 16.552-14.221 29.969-31.765 29.969s-31.765-13.418-31.765-29.969c0-16.552 14.221-29.969 31.765-29.969s31.765 13.418 31.765 29.969z" fill="#cce954" stroke="#000" stroke-width="3.1237"/>
<path transform="matrix(1 0 0 1.0196 .82864 -7.7283)" d="m435.59 380.06c0 7.78-5.8123 14.087-12.982 14.087s-12.982-6.3069-12.982-14.087 5.8123-14.087 12.982-14.087 12.982 6.3069 12.982 14.087z" fill="#fe2606"/>
<path transform="matrix(1.037 0 0 1.0778 -19.018 -30.312)" d="m513.48 377.3c0 6.8647-5.0084 12.43-11.187 12.43-6.1782 0-11.187-5.5649-11.187-12.43 0-6.8647 5.0084-12.43 11.187-12.43 6.1782 0 11.187 5.5649 11.187 12.43z" fill="#fe2606"/>
<path d="m429.79 379.37c0 3.2798-2.4733 5.9386-5.5243 5.9386s-5.5243-2.6588-5.5243-5.9386c0-3.2798 2.4733-5.9386 5.5243-5.9386s5.5243 2.6588 5.5243 5.9386z"/>
<path d="m507.96 376.33c0 2.6696-2.2878 4.8337-5.11 4.8337s-5.11-2.1641-5.11-4.8337 2.2878-4.8337 5.11-4.8337 5.11 2.1641 5.11 4.8337z"/>
</g>
</svg>
