<?xml version="1.0" encoding="UTF-8"?>
<svg x="500px" y="500px" enable-background="new 0 0 500 500" version="1.1" viewBox="0 0 500 500" xml:space="preserve" xmlns="http://www.w3.org/2000/svg" xmlns:xlink="http://www.w3.org/1999/xlink">
<style type="text/css">
	.st0{fill:#284449;}
	.st1{fill:url(#a);}
	.st2{fill:url(#SVGID_00000099645754574609484270000013187354693985237420_);}
	.st3{fill:#1BB50F;}
	.st4{fill:url(#SVGID_00000083787711726991304100000003908977370115657880_);}
	.st5{fill:#FFFFFF;}
	.st6{fill:#FFFFFF;stroke:#FFFFFF;stroke-width:20;stroke-miterlimit:10;}
	.st7{fill:#A87D1B;}
	.st8{fill:#E3A400;}
	
		.st9{opacity:0.53;clip-path:url(#SVGID_00000063616195698602671650000002751249282551902648_);fill:#FCFC54;enable-background:new    ;}
	.st10{fill:#AF5AAF;}
	.st11{fill:#F1FF66;}
</style>

	<path class="st0" d="M308,247.3c0,76.8-62.5,139.1-139.6,139.1S28.8,324.1,28.8,247.3s62.5-139.1,139.6-139.1S308,170.4,308,247.3"/>
	
		<radialGradient id="a" cx="124.77" cy="292.03" r="168.18" fx="106.12" fy="278.34" gradientTransform="matrix(1 0 0 -1 0 502.52)" gradientUnits="userSpaceOnUse">
		<stop stop-color="#3F9CEF" offset=".9553"/>
		<stop stop-color="#3995E4" offset=".9658"/>
		<stop stop-color="#2A82C8" offset=".9838"/>
		<stop stop-color="#1A6DAA" offset="1"/>
	</radialGradient>
	<circle class="st1" cx="168.2" cy="247" r="125"/>
	
		<radialGradient id="d" cx="129.63" cy="305.63" r="177.53" fx="109.94" fy="291.18" gradientTransform="matrix(1 0 0 -1 0 502.52)" gradientUnits="userSpaceOnUse">
		<stop stop-color="#fff" stop-opacity=".8" offset=".0010691"/>
		<stop stop-color="#FEFEFF" stop-opacity=".8015" offset=".002713"/>
		<stop stop-color="#D6EAFB" stop-opacity=".8621" offset=".0675"/>
		<stop stop-color="#B9DBF9" stop-opacity=".9174" offset=".1266"/>
		<stop stop-color="#A7D2F8" stop-opacity=".9652" offset=".1778"/>
		<stop stop-color="#A1CFF7" offset=".215"/>
		<stop stop-color="#6FB5F3" offset=".3416"/>
		<stop stop-color="#4CA3F0" offset=".4454"/>
		<stop stop-color="#3F9CEF" offset=".5013"/>
		<stop stop-color="#3D99EB" offset=".583"/>
		<stop stop-color="#3791DF" offset=".6627"/>
		<stop stop-color="#2C84CC" offset=".7416"/>
		<stop stop-color="#1D71B0" offset=".8197"/>
		<stop stop-color="#1A6DAA" offset=".8352"/>
	</radialGradient>
	<circle cx="168.2" cy="247" r="125" fill="url(#d)"/>
	
		<path class="st3" d="m243.7 148.2c-0.2-0.2-0.4-0.5-0.7-0.8 0.3-0.2 0.5-0.3 0.5-0.3-7.8-5.1-34.9-27.8-84.4-24.8-53.8 3.4-84.8 42-85.4 43 0 0-0.2 2.1-0.2 3.1v0.1c-0.2 0.3-0.4 0.7-0.7 1.1-1.9 2.6-2.9 4.7-3.4 6.5s-2.1 4-0.3 3.4 4.9-2.9 7.4-4.2c2.6-1.3 7.9-6.2 12.1-8.4 4.2-2.3 9.6-5 11.2-7 1.6-1.9 6-3.7 4.5-5.3s-3.2-2.1-3.7-2.6c-0.3-0.3-0.7-0.5-1.1-0.5 0.1-0.2 0.3-0.3 0.4-0.5 1.2-1.4-0.8 0.1-0.8 0.1s-1.5 1-2.4 1.9c-0.4 0.4-0.7 0.6-1 0.7-0.5-0.7-0.9-1.1-0.4-1.6s2.4-1.8 3.8-2.1h0.7c1.3 0.2 0.4 1.5 3.4 1.8 3.1 0.3 10.2-3.1 11.7-1s-0.5 4.5 1.9 4.9c2.4 0.3 3.4 0.6 4 0.6s0.6 0-0.2 2.4-1.6 3.6-0.2 5.7c0.9 1.3 1.9 1.9 2.2 2.8-0.1 0.6-0.3 1.5-0.5 2.1-1.4 2.6-3.7 5-1.7 7.7 1.9 2.8 4.2 4.4 4.2 4.4s3.4-4.4 3.9-2.3-2.6 4.9-0.3 6 9.1 1.9 10-1.6c1-3.6 2.3-5.8-0.8-7.1s-3.4-2.4-3.4-2.4 1.3-2.8 3.2-5.8c1.9-3.1 8.1-6.2 11.5-7.9 3.4-1.8 7.6-3.7 11.8-3.6 4.2 0.2 5.7 0.5 6.5 3.1s-1.1 4.5 0.5 6.8 3.9 6 5 4.2 2.9-3.2 2.9-3.2l0.6 4.9s-1.3-0.6-1.9 2.1c-0.6 2.8-2.6 3.9-0.3 6.6s5.5 8.1 5.7 10.2-2.4 2.1 0 3.6 5.8 4.4 6.8 5.8c0.6 0.9 1.4 2.4 2 3.6v0.3c0 0.3 0.1 0.4 0.3 0.3 0.3 0.5 0.4 0.9 0.4 0.9s1.9-0.8 1-4.9c-1-4 0.8-7-1.6-8.9s-4-3.2-4.9-5.7c-0.8-2.4-3.1-5.7-1.9-6.6 1.1-1-0.3-2.8 1.9-1.6 2.3 1.1 4.2-0.2 4.5 3.4s1 7.3 3.7 6.6c2.8-0.6 12.1-3.6 13.4-4.5 1.3-1 6.5-1.9 4-4.9-2.4-2.9-4.4-5.2-4.7-6.6s-4.9-2.4-3.7-5.8c1.1-3.4 1.9-6 2.9-4.2s-2.1 4.2 0.5 6.5 7 0.8 7 0.8 1.8-1.9 5.2-2.3c3.4-0.3 7.6-1.5 9.7-2.4 2.1-1 2.1-2.6 3.6-3.1s1.3 1.6 3.7 0.6 5.2-1.8 3.1-3.9-5.7-5.7-5.7-5.7-3.1-6.3-0.3-4 3.7 6.3 6.3 7.1 3.9 3.2 4.7 0.6-0.8-4.7-0.6-6.5c0.4-1.7 2.1-2.4 2.9-1.7zm-148.9 0.5-0.8 0.8c0.3-0.2 0.6-0.5 0.8-0.8z"/>
		<path class="st3" d="m243.7 148.2c0.1 0.1 0.1 0.2 0.1 0.2 0-0.1-0.1-0.1-0.1-0.2z"/>
	
	<path class="st3" d="m231.1 165.5c-0.4 0.2-0.9 0.2-1.2 0.5-0.5 0.5 0.1 1.3 0 2-0.1 0.3-0.2 0.5-0.3 0.7s-0.1 0.6 0.1 0.7c0.3 0.3 0.8 0 1.1 0.2 0.1 0.1 0.2 0.2 0.3 0.2 0.2 0 0.3-0.1 0.4-0.3 0.4-0.4 1.1-0.5 1.6-0.2-0.1 0 0-0.6 0-0.7 0-0.2 0.1-0.5 0.2-0.7 0.2-0.4 0.5-0.5 0.8-0.6 0.4-0.2 0.6-0.5 0.6-1 0-0.7-0.5-2-1.4-1.9-0.3 0.1-0.6 0.3-1 0.3-0.2 0-0.5 0.1-0.7 0.2-0.2 0.2-0.4 0.4-0.5 0.6z"/>
	<path class="st3" d="m229.2 187.3c-0.1 0-0.2-0.1-0.3-0.1-0.2 0.1-0.2 0.5-0.3 0.4v-0.6c-0.4 0.8-0.5 1.8-0.1 2.7-0.3 0-0.5 0.3-0.4 0.5-0.5-0.3-1.1 0-1.6 0.4-0.4 0.4-0.8 0.8-1.3 1.1s-1.2 0.3-1.7 0.7c-0.7 0.5-1 1.5-1.8 1.5-0.1-0.6 0.3-1.2 0.8-1.4 0.2 0 0.4 0 0.6-0.1 0.3-0.1 0.6-0.4 0.8-0.7 0.6-0.7 1.4-1.2 2.1-1.8s1.3-1.4 1.4-2.3c0-0.1 0-0.2 0.1-0.3s0.3 0 0.4-0.1l0.3-0.3c0.2-0.2 0.3-0.5 0.5-0.6 0.4-0.3 1-0.2 1 0.4 0.1 0.3-0.1 0.7-0.5 0.6z"/>
	<path class="st3" d="m239.8 197.2c-0.4-0.3-1.1-0.3-1.5 0-0.2 0.1-0.3 0.3-0.5 0.4s-0.5 0.1-0.6-0.1-0.1-0.4-0.2-0.6c-0.1-0.1-0.3-0.2-0.5-0.2-1-0.1-2-0.2-3 0-0.6 1-1 2.2-1.2 3.4 0.5-0.1 0.5-0.8 0.7-1.2 0.3-0.4 0.9-0.6 1.3-0.4 0 0.3 0.1 0.5 0.1 0.8 0.5-0.1 0.9-0.1 1.4-0.2h0.4c0.3 0.2 0.3 0.9 0.7 0.8-0.1 0.6-0.2 1.1-0.3 1.7v0.5c0.1 0.2 0.3 0.2 0.5 0.2 1.1 0.3 1.3 1.9 2.4 2.2 0.4-0.7 0.5-1.6 0.2-2.4 0.1 0 0.3-0.1 0.4-0.1 0.3 0.3 0.5 0.7 0.6 1.1 0.4-0.6 1.5-0.6 1.7-1.4 0.1-0.3 0-0.6-0.1-0.9-0.4-1.4-0.6-2.9-0.6-4.3-0.2 0.1-0.4 0.1-0.6 0.2-0.1-0.3-0.2-0.7-0.2-1-0.1-0.3-0.1-0.7-0.2-1 0-0.1-0.1-0.1-0.2-0.1-0.2 0-0.2 0.2-0.2 0.4-0.1 0.3-0.2 0.7-0.3 1 0.1 0.2-0.2 1.2-0.2 1.2z"/>
	<path class="st3" d="m128.8 196.2c-1.1 0.1-2.1 0.9-3 1.5-6 4-14.2 4.3-20.6 1-3.8 5.6-8.5 10.6-13.9 14.7-1.9 1.5-4 2.9-5 5.1-0.6 1.4-0.7 3-1.5 4.2-1.1 1.6-3.3 2.1-4.9 3.2-5.1 3.6-3.2 11.5-0.4 17.1 3.6 7.1 7.8 14.5 7.3 22.4-0.1 2.1-0.5 4.7 1.2 6.1 1.2 0.9 2.9 0.8 4.3 1.4 1.3 0.6 2.1 1.9 2.9 3 7 10.4 16.1 19.4 26.5 26.2 1.9 1.3 4 2.5 5.4 4.3 0.9 1.1 1.6 2.4 2.7 3.3 0.9 0.8 2 1.2 3.1 1.8 4.2 2.6 5.8 7.7 7.2 12.4 1.8-1.4 3.6-2.8 5.4-4.3-4.4-0.9-7.3-6-6.1-10.3 0.7-2.4 2.6-4.4 3.2-6.9 0.7-2.5 0-5.1-0.7-7.6-2.4-8.4-5.7-16.6-9.7-24.3-0.5-1-1.1-2.1-1-3.2 0.1-1 0.6-1.8 1-2.7 4.4-7.6 9.9-16.1 18.6-17.5 2.4-0.4 5.1-0.4 6.6-2.3 1.3-1.7 0.8-4.2 0.7-6.4-0.4-6 2.4-11.8 4.1-17.6 1-3.4 1.5-7.1 0.8-10.6-0.3-1.7-1-3.4-2-4.8-0.7-0.9-1-1.4-2-1.3-1 0.2-2 0.7-3.1 0.8-2.8 0.3-5.1-0.4-7.3-2.2-2-1.6-3.9-3.2-6.5-3.8-2.3-0.5-4.6-0.1-6.9-0.7-2.1-0.2-4.1-2.3-6.4-2z"/>
	<path class="st3" d="m235.1 341.7c-0.5 0.8-0.5 5.3 0.8 5.5s4.5-0.8 5.5-1.5c1-0.6 5.2-3.1 7-3.9s3.6-1.8 5-3.2c1.5-1.5 2.4-1.9 3.9-3.7s2.6-3.9 0.8-3.4-4.4 1.1-4.4 1.1-1.6 2.9-6 2.9-6-3.6-7.4-1.3c-1.5 2.3 0.2 5.5-1.9 5.2s-2.4-1.3-3.2-0.2c-0.9 1.2-0.1 2.5-0.1 2.5z"/>
	<path class="st3" d="m254.5 224.9c-1.7-1.4-3.4-2.9-5.4-3.6-0.4-0.1-0.8-0.2-1.1 0s-0.4 0.5-0.5 0.9c-0.4 1.8 0.3 3.6 0.8 5.4 0.7 2.6 1.1 5.4 0.9 8.1 0 0.3 0 0.7 0.2 1 0.6 0.6 1.5-0.3 2.4-0.2 0.5 0.1 0.9 0.6 1.2 1.1 0.8 1.4 1.6 2.8 2.5 4.2 0.2 0.4 0.5 0.8 0.4 1.3s-0.4 0.8-0.7 1.2c-1.3 2-0.1 4.5 1 6.6 0.2 0.3 0.4 0.6 0.7 0.8 0.7 0.4 1.5 0 2.3 0 1.8 0 2.7 2.3 4.4 3.1 1.1 0.5 2.5 0.2 3.5 0.8 1.9 1 1.7 3.6 2.3 5.7 0.7 2.4 2.7 4.4 5.1 5 0.3 0.1 0.6 0.1 0.9 0s0.5-0.5 0.6-0.8c1.1-3.5-1.7-7.2-1.7-10.9 1.6 0.7 3.5 1.4 4.8 0.3 1.7 4.3 2.5 9 2.2 13.6-0.1 1.2-0.2 2.4 0.3 3.5s1.9 1.9 2.9 1.3c0.4-0.2 0.7-0.6 0.9-1 1.3-2.1 1.3-4.8 0.8-7.3s-1.4-4.8-1.9-7.2c-0.5-2.2-0.6-4.5-0.3-6.7 0.2-1.8 0.3-4.3-1.4-5-2.1-0.9-4.4 2-6.6 1.3-1-0.3-1.6-1.4-1.9-2.4s-0.3-2.1-0.7-3.1c-0.8-2.1-2.9-3.5-4.7-4.9-1.8-1.5-3.4-3.3-4.6-5.2-0.5-0.8-1-1.6-1.7-2.2-0.6-0.5-1.5-0.9-2.3-0.6s-1.2 1.1-2 1.4c-0.5 0.1-1.2 0-1.4-0.5-0.2-0.4 0-0.8 0-1.1 0-0.4-0.1-0.8-0.3-1.2-0.5-1.4-1.2-2.1-1.9-2.7z"/>
	<path class="st3" d="m248 232.4c-1.3-0.1-2.3-1.2-3.5-1.6-1.1-0.4-2.4-0.2-3.6-0.2-1.3 0-2.5-0.4-3.5-1.2s-1.7-2-1.6-3.3c0-0.3 0.1-0.5 0.2-0.7 0.2-0.2 0.5-0.2 0.8-0.3 1.4-0.1 2.8-0.1 4.2 0-1.1-1.7-0.7-4-0.2-6 0.2-0.9 0.4-1.9 0.6-2.8 0.1-0.6 0.3-1.2 0.7-1.7 0.8-1.1 2.2-1.2 3.6-1.3 0.4 0 0.8-0.1 1.1 0.2 0.2 0.2 0.3 0.4 0.4 0.7 0.5 1.5-0.7 3-1.1 4.5-0.3 1.1-0.4 2.2-0.5 3.3-0.1 0.9-0.3 1.9-0.1 2.8 0.2 1.5 1.2 2.8 1.8 4.2 0.4 0.9 0.9 2.1 0.7 3.4z"/>
	<path class="st3" d="m225.5 198.9c0.6 0.5 1.2 1 1.3 1.8 0.1 0.7-0.7 1.6-1.3 1.2 0.1 0.7 0.1 1.6-0.4 2-0.2 0.2-0.5 0.2-0.7 0.4-1.1 0.6-1.1 2.1-0.8 3.3 0.4 1.2 1 2.3 0.9 3.5 0 0.2-0.1 0.5-0.2 0.6s-0.3 0.2-0.5 0.3c-0.3 0.1-0.5 0.4-0.7 0.6-1.8 2.1-3.3 4.4-4.4 6.9-0.4 0.8-0.8 1.7-1.5 2.3-0.8 0.5-1.9 0.5-2.8 0.2s-1.8-0.8-2.6-1.2c-2-0.9-4.2-1.3-6.3-1.9s-4.2-1.8-5.2-3.8c-0.4-0.7-0.6-1.5-0.7-2.3-0.6-2.9-0.8-6-0.6-9 0-0.9 0.1-1.8 0.5-2.6s1.1-1.5 2-1.6c1.4-0.1 2.6 1.2 4 1 1-0.2 1.6-1 2.4-1.6 2.1-1.6 5.1-1.1 7.7-1 0.6 0 1.2 0.1 1.8-0.2 1.4-0.6 1.8-2.2 3.2-2.8 1.5-0.6 2.4 1 3.1 2 0.5 0.7 1.1 1.3 1.8 1.9z"/>
	<path class="st3" d="m234.6 174.3c-0.7-0.7-1.7-1.1-2.7-1.4-0.4-0.2-0.9-0.3-1.3-0.5-0.1-0.1-0.3-0.1-0.5 0-0.1 0.1-0.1 0.2-0.1 0.3-0.9 3-1.7 6.1-2.2 9.2-0.1 0.7-0.2 1.4-0.1 2.1s0.6 1.4 1.3 1.6c0.3 0.1 0.6 0.1 0.9 0.3 0.4 0.3 0.5 0.9 0.6 1.4s0.4 1.1 0.9 1.1c0.4 0 0.6-0.3 0.9-0.5 1-0.7 2.7 0 3 1.2 0.1 0.5 0.1 1.3 0.6 1.5s1.1-0.3 1.3-0.9c0.1-0.6 0.1-1.2 0.4-1.7 0.3-0.6 1.2-1 1.3-1.7 0.1-0.6-0.5-1.1-1.1-1.4-0.9-0.4-1.9-0.4-2.6-1.2-0.5-0.5-0.9-1.2-0.7-2 0.2-0.9 0.7-1.6 1-2.4s0.3-1.6 0.2-2.4c0-1.1-0.4-2-1.1-2.6z"/>
	<path class="st3" d="m237.9 191.6c-0.1 0.3-0.2 0.6-0.5 0.7-0.2 0.2-0.6 0.1-0.8-0.1-0.1-0.2-0.1-0.4-0.1-0.6-0.1-0.6-1-0.7-1.6-0.9s-1.3-0.8-1.9-0.6-0.7 1-0.7 1.6c0 1.1 0.3 2.2 0.7 3.1 0.8-0.2 1.6 0 2.3 0.4 0.2 0.1 0.4 0.3 0.6 0.4 0.4 0.1 0.9-0.1 1.3-0.2s0.8 0 1.1-0.1c1.2-0.1 2.2-1.2 2.5-2.4 0.2-0.8 0.1-1.6 0-2.4-0.1-0.5-0.1-1-0.3-1.4-0.1-0.4-0.4-0.7-0.8-0.8-0.3-0.1-0.6-0.2-0.9-0.2-0.4 0-0.6 0.2-0.6 0.6 0.1 1.1 0.1 2-0.3 2.9z"/>
	<path class="st3" d="m228.6 185.6c-0.5 0.1-0.7 0.7-1 1.1-0.4 0.4-0.9 0.7-1.3 1.1-0.7 0.6-1.1 1.5-1.7 2.3-0.9 1.3-2.2 2.3-3.5 3.3-0.2 0.1-0.4 0.3-0.4 0.5-0.1 0.4 0.4 0.6 0.8 0.6 1 0 1.8-0.8 2.6-1.4 0.9-0.7 1.9-1.1 2.9-1.6 0.6-0.3 1.2-0.7 1.6-1.3s0.6-1.3 0.8-1.9c0.2-0.5 0.5-1.1 0.4-1.7s-0.6-1.1-1.2-1z"/>
	<path class="st3" d="m192.5 211.9c-0.2-0.9-0.5-1.8-1.1-2.4-0.6-0.7-1.6-1-2.4-0.7 0.2-1.1-1-2.2-2-1.8-0.1-1.9-1.7-3.3-3.1-4.6-3-2.6-5.9-5.4-8.4-8.5-1.1-1.4-2.2-2.9-3.7-3.9-1.7-1.1-3.8-1.5-5.8-1.9-0.6-0.1-1.4-0.2-1.8 0.4-0.2 0.4-0.1 0.8 0 1.3 0.8 2.8 2.2 5.4 4.1 7.6-1-0.2-1.6 1.4-0.9 2.3 0.6 0.9 1.7 1.2 2.6 1.9 1 0.7 1.6 1.9 2.3 3 2.6 4.5 5.2 9.1 6.8 14 0.7 2 1.4 4.5 3.5 5.1 0.4 0.1 0.9 0.2 1.4 0.4 1.3 0.5 2 1.8 2.7 2.9 2.7 3.7 7.1 5.5 11.4 6.9 6.9 2.3 14.1 4.1 21.2 5.8 3.3 0.8 6.6 1.6 9.9 2.5 1 0.3 2.2 0.5 3.2 0.1s1.7-1.7 1.2-2.6c-0.4-0.6-1.1-0.8-1.8-0.9-3.2-0.8-6.4-1.5-9.6-2.3-0.7-0.2-1.4-0.3-2.1-0.7-0.5-0.3-1-0.6-1.5-0.8-2.4-1.2-5.7-0.7-7.6-2.6 0.7 0.2 1.1-0.8 0.8-1.5-0.3-0.6-1-0.9-1.7-1.2-3.5-1.4-6.8-3.4-9.7-5.9-0.6-0.5-1.4-1.1-2.1-0.7-0.2 0.1-0.4 0.3-0.6 0.5-0.9 0.6-2.1 0.2-2.9-0.5-0.7-0.6-1.4-1.3-2.2-1.6-0.5-0.2-1.6-0.1-1.6-0.9 0-0.7 0.6-1.4 0.9-2 0.4-0.9 0.7-1.9 0.9-2.9 0-1.3 0-2.6-0.3-3.8z"/>
	<path class="st3" d="m267 290c-0.6-3.2-2.2-6.1-2.3-9.3-0.1-3.7 2-7.3 1.5-11-0.2-1.2-0.7-2.4-1-3.6-1-3.6-0.6-7.4-0.3-11.2-2.8-0.1-4.8 2.4-6.5 4.6-1.6 2.2-3.7 4.7-6.4 4.7-0.7-1 0-2.5 0.9-3.4s2-1.7 2.3-2.9c0.3-1.3-0.5-2.6-1.6-3.4 0-0.1-0.1-0.2-0.2-0.3s-0.3-0.1-0.5-0.1c-0.1-0.1-0.3-0.2-0.4-0.2-1.6-0.8-3.4-1.3-4.5-2.6-1-1.1-1.4-2.8-2.5-3.8-1.6-1.6-4.6-1.4-6.2 0.2s-2 4.2-1.3 6.4c-2-2.5-5.4-3.7-8.5-3-3.4 0.8-5.9 3.4-8.6 5.6-5.7 4.4-13 6.7-20.2 6.2-0.8 0-1.5-0.1-2.2 0.2-0.7 0.4-1.2 1.1-1.5 1.9-1.6 3.4-2.5 7.5-1.2 10.8 0.1 4.8 0.3 9.5 0.5 14.3 0 1 0 2.1-0.8 2.6-0.4 0.3-0.9 0.4-1.3 0.7-1 0.9-0.3 2.5 0.5 3.6 0.4 0.5 0.8 1.1 1.4 1.5 0.5 0.3 1 0.4 1.6 0.4 0 0.1 0.1 0.2 0.2 0.4 0.6 1 2 1 3.1 0.7 1.1-0.2 2.3-0.6 3.3-0.2 1.4 0.6 2 2.6 3.5 2.8 0.9 0.1 1.7-0.5 2.4-1 1.5-1.1 3.2-2 4.9-2.8 1.6-0.7 3.3-1.1 4.9-1.6 1-0.3 2.1-0.7 3.2-0.1 1.3 0.8 2.1 2.4 2.6 3.8 0.7 1.8 0.9 3.8 0.8 5.7 0 1.2 0 2.7 1.1 3.2 0.3 0.2 0.8 0.2 1.1 0.3 1 0.4 1.4 1.7 1.3 2.7-0.1 1.1-0.5 2.1-0.7 3.2-0.5 3.9 3.6 7.2 7.5 7.2s7.5-2.3 10.4-4.8c1.3-1.2 2.7-2.5 4.4-2.8 0.7-0.2 1.5-0.2 2.1-0.4 1.9-0.8 2.3-3.3 3.2-5.2 1.2-2.5 3.7-4.1 5.7-6.1 3.2-3.8 5.2-9 4.3-13.9z"/>
	<path class="st3" d="m180.6 360.3c-0.7-1.2-0.8-2.7-1.6-3.9-0.6-0.9-1.6-1.4-2.5-1.9-4.4-2.5-8.8-4.9-13.7-6.3-4.8-1.3-10.2-1.4-14.7 0.9 0-0.9 0-1.7-0.1-2.6-2.6 0.3-5.3-0.3-7.5-1.8-1.6-1.1-4.1-2.5-5.1-0.8 0.4-1.4-1-2.9-2.5-3s-2.9 0.7-4.1 1.6-2.4 1.8-3.9 2.2c-0.5-0.6 0.2-1.4 0.8-1.7s1.5-0.4 2-0.9c0.4-0.5 0.5-1.2 0.5-1.9 0.1-3.8 0-7.9-1.9-11.2s-5.3-5.4-8.9-6.6-7.4-1.7-11.1-2.5c-0.9-0.2-1.8-0.4-2.5-1-1.2-0.9-1.5-2.5-1.8-4-0.2-1.5-0.5-3.1-1.5-4.1-1-1.1-3.2-1.2-3.8 0.1 0.3-1.4-0.8-2.7-2-3.4-1.3-0.7-2.7-0.8-4.1-1.2-2.7-0.7-5.2-2-7.2-3.9-0.6-0.5-1.2-1.1-1.9-1.4-1-0.4-2.2-0.1-3.3-0.1-2.2-0.1-4.2-1.6-5.7-3.3-1.5-1.6-3-3.5-5-4.4-2-1-4.9-0.6-5.9 1.4-0.6 1.2-1.3 3.2-2.5 2.6l2.7-5.7c0.3-0.6 0.5-1.3 0.2-1.8-0.4-0.5-1-0.4-1.6-0.1l-0.6-0.3-1.6-0.3-6.8 2.7c1.3 5.5 31.2 80.3 118.3 80.2l0.3-0.5c0.4 0 0.7-0.1 1-0.2 1.2-0.6 1.9-1.9 3-2.7 1.4-1 3.2-1 4.9-1.3 1.7-0.4 3.5-1.5 3.5-3.2 0-1.5-1.2-2.5-1.8-3.7z"/>
	<path class="st3" d="m73.6 177.6c-0.2-0.3-0.4 0.1-0.8 0.7-0.6 0.6-1.2 1.2-1.7 1.9l-0.2 0.3c-0.9 0.5-2 0.8-2.5 0.9-0.7 0.2-1.6-0.7-1.6-0.7l0.8-2-0.6-1.9 0.9-4.5c-40.1 55-20.3 109.5-16.8 118.6 0 0 0.3-0.1 0.7-0.3v0.1c1.8 0 3.3-1.7 3.7-3.5s-0.1-3.6-0.6-5.4c-0.9-3.3-1.8-6.7-2.6-10-0.4-1.6-0.8-3.2-1.1-4.8 0.2-0.4 0.2-0.8 0.3-2.2 0.2-0.1 0.4-0.2 0.5-0.4 0.2-0.3 0.3-0.7 0.4-1 0.1-1 0.1-1.9 0-2.9l0.1-0.2h-0.1c-0.5-3.3-1.9-6.6-1-9.8 0.4-1.6 1.3-3 2-4.5 3.7-8.1 0-17.8 2.1-26.4 1.6-6.7 6.5-12.1 10.4-17.8 4.8-7 8.4-14.8 11.9-22.5 0.6-1.3 1.1-2.5 1.3-3.9-2 0.1-3.9 0.9-5.5 2.2z"/>
	<path class="st3" d="m68.1 248.9c0-1.5-0.1-3-0.3-4.4-0.3-1.9-1-3.8-1.5-5.7-1-3.7-1.6-7.5-1.7-11.4-0.6-0.3-1.4 0-1.9 0.5s-0.7 1.2-0.9 1.9c-0.9 2.8-1.4 5.8-1.5 8.7v0.4c-1.6 0.3-2.8 1.7-3.2 3.3-0.4 1.7-0.2 3.4 0.1 5.1s0.7 3.4 0.4 5.1c-0.1 0.7-0.3 1.3-0.3 2s0.2 1.4 0.5 2c0.7 2 1.3 3.9 2 5.9 0.2 0.5 0.3 1 0.7 1.2 0.1 0.3 0.3 0.6 0.5 0.9 0.1 0.2 0.3 0.4 0.5 0.4 0.3 0.1 0.5-0.1 0.7-0.3 3-2.5 1.5-7.5 3.6-10.7 0.7-1 1.7-1.8 2.1-3 0.3-0.5 0.3-1.2 0.2-1.9z"/>
	
		<radialGradient id="c" cx="128.74" cy="305.17" r="177.53" fx="109.06" fy="290.72" gradientTransform="matrix(1 0 0 -1 0 502.52)" gradientUnits="userSpaceOnUse">
		<stop stop-color="#fff" offset=".0010691"/>
		<stop stop-color="#FEFEFF" stop-opacity=".9962" offset=".002713"/>
		<stop stop-color="#D6EAFB" stop-opacity=".8448" offset=".0675"/>
		<stop stop-color="#B9DBF9" stop-opacity=".7066" offset=".1266"/>
		<stop stop-color="#A7D2F8" stop-opacity=".5871" offset=".1778"/>
		<stop stop-color="#A1CFF7" stop-opacity=".5" offset=".215"/>
		<stop stop-color="#6FB5F3" stop-opacity=".2789" offset=".3416"/>
		<stop stop-color="#4CA3F0" stop-opacity=".0976" offset=".4454"/>
		<stop stop-color="#3F9CEF" stop-opacity="0" offset=".5013"/>
		<stop stop-color="#3D99EB" stop-opacity=".1223" offset=".583"/>
		<stop stop-color="#3791DF" stop-opacity=".2417" offset=".6627"/>
		<stop stop-color="#2C84CC" stop-opacity=".3599" offset=".7416"/>
		<stop stop-color="#1D71B0" stop-opacity=".4768" offset=".8197"/>
		<stop stop-color="#1A6DAA" stop-opacity=".5" offset=".8352"/>
	</radialGradient>
	<circle cx="167.3" cy="247.5" r="125" fill="url(#c)"/>


	
		
			<path class="st5" d="m449.5 191.4c-0.1 0-0.1 0 0 0z"/>
		
	
	<path class="st6" d="m401.4 165.2"/>
	
		<path class="st7" d="m76 338.5s-10.3 2.6-16.8 16.2c0 0-30.1-8.7-41.9-18.4-11.9-9.7 0.7 35.3 52.2 54.7 0 0 13.3 3.6 35 2.6 14.2-0.6 138.4 0.2 186.5-8.3 7-1.2 46.9-15.7 50-54.6s1.8-55.4 8.9-74.8c0 0 24.6 4.9 37.2 0 4.3-4.4 7.3-9.3 8.6-14.8 0 0 19.5 3.2 25.1 0.6 6.5-3 16.2-33.7-13-70-19.5-24.2-41.7-17.3-52-12.5-11.3 5.3-62.8 40.3-106.4 92.9-12.9 15.5-26.8 69.3-90.8 110.1 0.2 0.1-53.8 1.5-82.6-23.7z"/>
		<path class="st8" d="m222.4 290.7s-36.9 66.9-31.1 72.8c5.8 5.8 75.1 1.3 92.6-1.6s30.8-21 35-38.2 2.6-60.9 12.3-82.2c0 0-1-13 2.9-22 0 0 4.2 20.4 33.7 17.6l-2.9-8-1.1-5.3-3.6-5.5s30.4 11.5 42.9 5.7 10.5-39.7 2.8-50.5c-7.8-10.8-17.3-15.9-17.3-15.9l-19.3-1s-1.9-2.1-5.7 0.2-15.2 8.3-15.2 8.3l-48.6 28-23 23.5-28.5 36.1"/>
		
			
				<defs>
					<path id="b" d="m76 338.5s-10.3 2.6-16.8 16.2c0 0-30.1-8.7-41.9-18.4-11.9-9.7 0.7 35.3 52.2 54.7 0 0 13.3 3.6 35 2.6 14.2-0.6 138.4 0.2 186.5-8.3 7-1.2 46.9-15.7 50-54.6s1.8-55.4 8.9-74.8c0 0 24.6 4.9 37.2 0 4.3-4.4 7.3-9.3 8.6-14.8 0 0 19.5 3.2 25.1 0.6 6.5-3 16.2-33.7-13-70-19.5-24.2-41.7-17.3-52-12.5-11.3 5.3-62.8 40.3-106.4 92.9-12.9 15.5-26.8 69.3-90.8 110.1 0.2 0.1-53.8 1.5-82.6-23.7z"/>
				</defs>
				<clipPath id="e">
					<use xlink:href="#b"/>
				</clipPath>
				
					<path d="m371 240.4s-17.5 5.7-34-3.6c0 0-5.5 10.9-7.8 40.7s-4.8 84.6-37.9 98.1-36.9 14.9-36.9 14.9l42.1-6.8 32.7-17.4 10-10.2 12-12.6 6.6-11 3.4-11.3 5.6-13.9 12.7-27.5v-9.4l2.3-16.2-2.3-2.5-5.5-8-1.1-2.7" clip-path="url(#e)" enable-background="new" fill="#FCFC54" opacity=".53"/>
			
		
		<polyline class="st10" points="366.8 229.2 371.5 239.1 374.2 244 380.7 249.1 384 251.6 386.5 251.4 388.4 248.9 391.3 245.1 392.2 242.6 392.2 240.3 391.2 238.1"/>
		<path class="st0" d="m76.9 334.9c23.4 20.5 53.1 26.2 79 23.8 49.2-27.6 60.1-64.4 79.3-94 7.6-11.7 14.7-22.7 22.4-31.8 26.1-35.6 58.4-62.2 95.9-78.9 28.9-12.9 47.9 0.6 58.9 14.1 9.5 11.8 16 24.1 19.1 36.5 3.2 12.5 2.2 22.1 0.8 27.9-1.7 7.3-5 12.6-9 14.4-5.2 2.4-16.1 1.5-23.5 0.6-1.8 4.4-4.6 8.5-8.4 12.4l-0.9 0.9-1.2 0.5c-10.5 4-27 2.4-35.4 1.1-3.5 11.7-4.2 23.3-5.2 41.3-0.5 7.9-1 16.8-1.8 27.4-1.4 17.9-10.3 33.7-25.8 45.5-11.3 8.7-23.8 13.4-29 14.3-38.9 6.8-125.5 7.6-167.1 8-10.1 0.1-17.4 0.2-20.1 0.3s-5.3 0.2-7.7 0.2c-17.8 0-28.5-2.8-29-3l-0.6-0.2c-22.5-8.5-36.9-21.3-45-30.5-8.8-10-14.7-21-15.1-28-0.3-5.3 2.7-7.4 4-8 2-1 5.4-1.5 9.6 1.9 7.6 6.3 25.4 12.8 35.5 16 8.3-12.3 16.1-15.6 16.8-15.8m-2.1 53.6c1.8 0.4 14.1 3.2 33 2.3 3-0.1 10.3-0.2 20.5-0.3 41.3-0.4 127.3-1.2 165.2-7.9 2.1-0.4 13-3.7 23.9-12 13-9.9 20.1-22.5 21.3-37.2 0.8-10.5 1.3-19.3 1.8-27.1 1.2-21.4 2-34.2 7.5-49.2l1.7-4.7 4.9 1c6.1 1.2 23.5 3.6 32.8 0.7 3.3-3.6 5.3-7.2 6.2-11.1l1.2-5.3 5.4 0.9c9 1.5 18.9 2 21.6 1.1 1.3-1.4 4.4-7.9 3.6-18.8-0.6-9.6-4.4-24.8-18.5-42.3-12.3-15.3-27.1-18.8-45.1-10.8-35.7 15.9-66.5 41.3-91.4 75.3l-0.3 0.4c-7.3 8.5-14.3 19.2-21.6 30.7-20.1 31.1-34.7 77.8-87.6 99.9 0 0-53.4 2.1-83.7-25.1-4.2 1.8-5.5 3.6-9.2 11.4l-2.1 4.5-4.7-1.4c-1-0.3-20.5-6-34.8-13.5 6.3 10.9 21.2 28.2 48.4 38.5z"/>
		<path class="st0" d="m385.8 256.5s-21.4-9.7-27.9-41.5c0 0 28.3 25 61.2 22.1l-5.7 6s-27.4-0.3-43.7-12.1c0 0 7.9 15.4 18.8 20.7"/>
		
			
				<ellipse class="st11" transform="matrix(.7683 -.6401 .6401 .7683 -32.74 273.36)" cx="361.2" cy="181.9" rx="10" ry="7.6"/>
			
				<ellipse class="st11" transform="matrix(.7683 -.6401 .6401 .7683 -75.495 244.84)" cx="300.4" cy="226.7" rx="10" ry="7.6"/>
			
				<ellipse class="st11" transform="matrix(.5872 -.8094 .8094 .5872 -126.64 325.43)" cx="255.8" cy="286.9" rx="12.9" ry="6.6"/>
			
				<ellipse class="st11" transform="matrix(.7071 -.7071 .7071 .7071 -183.44 248.45)" cx="208.2" cy="345.7" rx="12.9" ry="7.7"/>
			
				<ellipse class="st11" transform="matrix(.5872 -.8094 .8094 .5872 -158.01 317.6)" cx="232.4" cy="313.7" rx="10.4" ry="5.4"/>
			
				<ellipse class="st11" transform="matrix(.5872 -.8094 .8094 .5872 -148.1 335.03)" cx="254.4" cy="312.7" rx="12.4" ry="6.4"/>
			
				<ellipse class="st11" transform="matrix(.5872 -.8094 .8094 .5872 -116.99 352.27)" cx="286.9" cy="290.8" rx="9.9" ry="5.9"/>
			
				<ellipse class="st11" transform="matrix(.5872 -.8094 .8094 .5872 -99.951 337.49)" cx="280.9" cy="266.7" rx="9.9" ry="5.9"/>
			
				<ellipse class="st11" transform="matrix(.5872 -.8094 .8094 .5872 -70.022 348.01)" cx="306.2" cy="242.7" rx="9.3" ry="5.7"/>
			
				<ellipse class="st11" transform="matrix(.5872 -.8094 .8094 .5872 -22.718 347.39)" cx="329.2" cy="196" rx="9.3" ry="5.7"/>
			
				<ellipse class="st11" transform="matrix(.7683 -.6401 .6401 .7683 -48.585 267.68)" cx="345.5" cy="201" rx="7.3" ry="4.5"/>
			
				<ellipse class="st11" transform="matrix(.7683 -.6401 .6401 .7683 -36.032 259.36)" cx="340.2" cy="179.5" rx="6.1" ry="3.7"/>
			
				<ellipse class="st11" transform="matrix(.7683 -.6401 .6401 .7683 -62.472 254.04)" cx="319.7" cy="213.3" rx="6.1" ry="3.7"/>
			
				<ellipse class="st11" transform="matrix(.7071 -.7071 .7071 .7071 -92.494 273.19)" cx="283.5" cy="248.2" rx="6.9" ry="4.2"/>
			
				<ellipse class="st11" transform="matrix(.5872 -.8094 .8094 .5872 -104.19 323.64)" cx="265.2" cy="264" rx="5" ry="2.9"/>
			
				<ellipse class="st11" transform="matrix(.5872 -.8094 .8094 .5872 -143.02 315.78)" cx="238.1" cy="298.1" rx="5" ry="2.9"/>
			
				<ellipse class="st11" transform="matrix(.7071 -.7071 .7071 .7071 -168.42 263.06)" cx="233.3" cy="334.8" rx="8.8" ry="5"/>
		
		<path class="st0" d="m420.5 187.2s10.8-5.5 13.2-16.3-6.5-23.3-6.5-23.3-1.4 9.9-2.5 12.7c0 0-1.7-11-10.6-15.5-8.9-4.4-25.8-3.9-33.9-9.1 0 0 6.1 8.1 11.4 11.3 0 0-23.6-1.9-30-7.6 0 0 3.9 9 10.5 13.8 0 0-4.8 0-8.5-2 0 0 1.9 6.1 6.6 9.1h13.3s9.5 1.2 9.6 1.5 8.1 5 8.1 5l5.5 3.9"/>
	
	
		
			
				
					<circle class="st5" cx="431.5" cy="123.5" r="21.8"/>
					<path class="st0" d="m431.5 148.1c-13.6 0-24.6-11-24.6-24.6s11-24.6 24.6-24.6 24.6 11 24.6 24.6-11 24.6-24.6 24.6zm0-43.7c-10.5 0-19.1 8.5-19.1 19.1s8.5 19.1 19.1 19.1c10.5 0 19.1-8.5 19.1-19.1s-8.6-19.1-19.1-19.1z"/>
				
				<circle class="st0" cx="425.2" cy="125.3" r="7.7"/>
				<circle class="st5" cx="430.7" cy="122.9" r="3.8"/>
			
			<path class="st0" d="m398.6 175.6-5.1-2.2c0.4-0.9 9.1-21.2 22.2-34.6l4 3.9c-12.4 12.6-21 32.7-21.1 32.9z"/>
		
		
			
				
					<circle class="st5" cx="472.7" cy="163.6" r="21.8"/>
					<path class="st0" d="m472.7 188.2c-13.6 0-24.6-11-24.6-24.6s11-24.6 24.6-24.6 24.6 11 24.6 24.6-11 24.6-24.6 24.6zm0-43.7c-10.5 0-19.1 8.5-19.1 19.1s8.5 19.1 19.1 19.1c10.5 0 19.1-8.5 19.1-19.1s-8.6-19.1-19.1-19.1z"/>
				
				<circle class="st0" cx="466.5" cy="165.4" r="7.7"/>
				<circle class="st5" cx="472" cy="163" r="3.8"/>
			
			<path class="st0" d="m421.8 196.3-3.5-4.3c0.7-0.6 18-14.6 35.7-20.3l1.7 5.3c-16.8 5.4-33.7 19.2-33.9 19.3z"/>
		
	

</svg>
