<svg width="214" height="108" viewBox="0 0 214 108" fill="none" xmlns="http://www.w3.org/2000/svg">
<path d="M102.23 44.6778C103.527 45.4345 105.008 45.8186 106.509 45.7877C108.011 45.7569 109.475 45.3123 110.74 44.5029V60.0064C110.802 60.0303 110.871 60.0317 110.935 60.0104C110.999 59.9892 111.053 59.9466 111.089 59.8898C114.062 55.6351 118.142 54.4112 123.096 55.1689C128.05 55.9265 130.847 59.1322 131.372 64.7274C131.547 67.0005 131.489 69.2735 131.489 71.5466V86.2341C131.547 86.8169 131.372 87.0501 130.731 87.0501H123.679C122.979 87.0501 122.863 86.8169 122.863 86.2341C122.921 80.5223 122.921 74.8105 122.921 69.0987C122.923 67.8176 122.746 66.5426 122.396 65.3102C122.196 64.3278 121.664 63.4441 120.889 62.8074C120.114 62.1707 119.144 61.8197 118.142 61.8132C117.385 61.7164 116.619 61.736 115.869 61.8715C113.304 62.2212 111.905 63.8531 111.264 66.2428C110.886 67.688 110.709 69.1787 110.74 70.6723C110.74 75.8013 110.74 80.9303 110.798 86.0592C110.798 86.8169 110.623 87.1083 109.807 87.0501H102.93C102.405 87.0501 102.172 86.9918 102.172 86.3506V44.9692C102.204 44.8749 102.223 44.777 102.23 44.6778Z" fill="#295864"/>
<path d="M42.024 55.8684V61.4636C42.432 61.2305 42.432 60.8808 42.6068 60.6477C44.7633 57.0341 47.9106 55.1107 52.1071 54.9941H52.6316C53.9722 55.1107 53.9721 55.1107 53.9721 56.4512C53.9721 57.7918 53.9721 60.5311 54.0304 62.571C54.0304 63.1539 53.8556 63.2704 53.2727 63.1539C51.8868 62.902 50.4687 62.8823 49.0763 63.0956C45.8707 63.6201 43.8891 65.5435 43.0148 68.6325C42.64 70.0189 42.4634 71.4514 42.4902 72.8873C42.4902 77.3168 42.432 81.8047 42.4902 86.2342C42.4902 86.8171 42.3737 87.0502 41.6743 87.0502H34.5637C34.0974 87.0502 33.8643 86.9336 33.8643 86.4091V56.2181C33.8643 56.1598 33.9225 56.1015 33.9225 55.985C35.1699 56.6254 36.5429 56.9836 37.9441 57.0341C39.3819 57.004 40.7874 56.6024 42.024 55.8684Z" fill="#295864"/>
<path d="M189.947 9.47446L187.791 10.1739C187.573 10.259 187.339 10.2927 187.107 10.2725C186.874 10.2523 186.65 10.1787 186.45 10.0573C183.883 8.53699 180.98 7.67596 177.999 7.5511C172.987 7.43453 168.849 9.41618 165.235 12.6801C164.477 13.3795 163.778 14.1372 163.078 14.8366C162.928 15.0745 162.706 15.2589 162.444 15.3635C162.183 15.4681 161.895 15.4877 161.621 15.4194C161.372 15.3134 161.16 15.134 161.014 14.9051C160.868 14.6761 160.796 14.4084 160.805 14.1372C160.629 11.5479 159.763 9.05285 158.299 6.90998C153.87 0.848467 143.728 0.790181 139.182 6.7934C137.783 8.65057 137.081 10.9407 137.2 13.2629C137.2 14.72 136.909 15.0114 135.452 15.0697C131.43 15.128 127.817 16.1771 124.786 18.9747C120.706 22.7632 119.657 28.475 121.988 33.9536C122.882 36.3264 124.39 38.4185 126.36 40.0151C129.682 42.5213 133.354 42.8128 137.2 41.8219C139.802 41.2369 142.174 39.8991 144.02 37.9752C144.204 37.7442 144.468 37.5917 144.761 37.5485C145.053 37.5052 145.35 37.5744 145.593 37.7421C145.828 37.9068 145.998 38.1488 146.072 38.4258C146.147 38.7027 146.122 38.9971 146.001 39.2574C145.647 40.655 145.626 42.1161 145.94 43.5233C146.254 44.9304 146.894 46.2442 147.808 47.3589C149.557 49.5737 152.587 50.3314 155.502 49.3988C156.026 49.224 156.084 49.3405 156.143 49.8068C156.143 51.8467 156.084 51.9633 154.044 52.0799C148.508 52.4296 144.195 48.6994 143.553 43.0459C143.515 42.6185 143.456 42.1522 143.379 41.6471C141.653 42.7107 139.79 43.5342 137.842 44.095C132.713 45.3772 127.933 44.6778 123.912 40.9477C119.89 37.2175 116.568 28.8247 119.774 21.9472C121.872 17.5759 125.369 14.9531 129.915 13.5543C131.29 13.1006 132.723 12.8454 134.17 12.7966C134.636 12.7383 134.869 12.6218 134.927 12.0972C135.394 5.97744 139.474 1.54787 145.593 0.323912C152.762 -1.13318 160.572 2.30556 162.67 11.0481C162.744 11.2575 162.802 11.4717 162.845 11.6892C167.45 7.31796 172.695 4.75347 179.106 5.33631C183.034 5.68448 186.787 7.11717 189.947 9.47446Z" fill="#E77E38"/>
<path d="M64.9287 55.9268V63.2122C64.9287 70.8474 64.9287 78.4826 64.987 86.176C64.987 86.8754 64.8122 87.0503 64.0545 87.0503H57.0021C56.5359 87.0503 56.3027 86.9337 56.3027 86.3509C56.361 76.3261 56.361 66.3013 56.361 56.2765V55.985C60.674 57.5004 61.1403 57.5004 64.9287 55.9268Z" fill="#295864"/>
<path d="M55.6615 49.224C55.6537 48.5712 55.7765 47.9235 56.0227 47.3189C56.2689 46.7143 56.6335 46.1651 57.0951 45.7035C57.5567 45.2419 58.1059 44.8773 58.7105 44.6311C59.3151 44.3849 59.9628 44.2621 60.6156 44.2699C61.2711 44.2622 61.9216 44.3846 62.5294 44.6301C63.1372 44.8756 63.6902 45.2393 64.1565 45.7001C64.6227 46.1609 64.9928 46.7097 65.2454 47.3146C65.498 47.9195 65.6281 48.5685 65.628 49.224C65.628 50.5534 65.0999 51.8283 64.1599 52.7683C63.2199 53.7083 61.945 54.2364 60.6156 54.2364C59.9601 54.2365 59.3111 54.1064 58.7062 53.8538C58.1013 53.6012 57.5526 53.231 57.0918 52.7648C56.631 52.2986 56.2673 51.7456 56.0217 51.1378C55.7762 50.53 55.6538 49.8795 55.6615 49.224Z" fill="#E77E38"/>
<path d="M196.01 40.2484L197.292 38.6748C197.525 38.3251 197.758 38.3834 198.05 38.4999C205.044 40.6564 209.765 46.6014 210.114 53.3623C210.225 55.4543 209.948 57.5488 209.298 59.5403C209.182 60.0066 209.065 60.1232 208.599 59.8318C207.2 58.9575 207.142 58.9575 207.492 57.3256C209.007 49.6321 204.577 42.6963 196.767 40.5399C196.492 40.5197 196.228 40.4183 196.01 40.2484Z" fill="#E77E38"/>
<path d="M31.4149 68.8073C31.2104 65.5737 30.0995 62.4631 28.2093 59.8316C27.0959 58.3413 25.6575 57.1245 24.0033 56.2735C22.3492 55.4225 20.5227 54.9597 18.6629 54.9204C16.8031 54.8811 14.9588 55.2662 13.2701 56.0465C11.5814 56.8268 10.0928 57.9817 8.91744 59.4236H8.62602V44.6195C5.65355 46.2514 2.79762 46.2514 0 44.5029V87.1083H7.46035C8.10147 87.1083 8.2763 86.9335 8.2763 86.3506C8.2763 85.7678 8.21803 84.3107 8.21803 83.3199C9.18607 84.7683 10.5382 85.9186 12.123 86.6421C18.5925 89.4397 26.4608 88.0409 29.9579 79.9394C31.4732 76.3258 31.7646 72.5957 31.4149 68.8073ZM21.6816 77.4332C20.5159 79.9394 18.5925 81.3382 15.7366 81.3965C12.8807 81.4548 10.8408 80.1726 9.73339 77.6664C8.74791 75.6795 8.24487 73.4882 8.26513 71.2704C8.28538 69.0526 8.82836 66.8708 9.84996 64.9022C10.3905 63.7804 11.2603 62.8502 12.3434 62.2358C13.4265 61.6213 14.6713 61.3519 15.9115 61.4635C18.6508 61.5801 20.5159 62.9789 21.6816 65.3685C22.609 67.2693 23.0306 69.3771 22.9055 71.4883C22.9681 73.5384 22.5488 75.5746 21.6816 77.4332Z" fill="#295864"/>
<path d="M200.379 22.0052C200.263 18.7413 199.797 15.4774 199.505 12.2135C199.33 10.465 199.214 8.65823 199.097 6.73486C197.349 8.59994 195.25 9.53248 193.094 10.2902C189.014 11.689 184.818 12.9712 180.738 14.4283C176.923 15.6612 173.309 17.4483 170.014 19.7321C165.118 23.3457 162.437 28.3581 160.572 33.9534C158.707 39.5486 157.949 46.5427 157.891 53.0121V54.8772C159.421 53.9069 161.092 53.1794 162.845 52.7207C166.458 51.6716 170.13 51.1471 173.744 50.3311C178.931 49.2237 184.002 47.7666 188.431 44.7359C196.358 39.2572 200.846 31.9134 200.379 22.0052ZM186.683 25.7354C185.463 27.1853 183.98 28.3916 182.312 29.2907C179.572 30.9226 176.775 32.4963 174.093 34.2448C168.44 37.8584 164.185 42.8125 160.921 48.5826C160.747 48.6409 160.63 48.5826 160.688 48.4077C163.02 43.5702 165.759 39.1406 169.781 35.527C172.811 32.846 176.367 31.1557 179.98 29.5821C182.37 28.533 184.701 27.4839 186.566 25.6188C186.683 25.5605 186.741 25.5605 186.683 25.7354Z" fill="#295864"/>
<path d="M160.689 48.4082L160.922 48.583C160.339 49.7487 159.756 50.9144 159.115 52.0801C159.494 50.7986 160.022 49.5661 160.689 48.4082Z" fill="#ACBEC2"/>
<path d="M186.683 25.7358L186.566 25.6192C186.738 25.2822 187.001 24.9997 187.324 24.8032C187.216 25.1747 186.991 25.5016 186.683 25.7358Z" fill="#8BA5AB"/>
<path d="M191.405 76.7343H212.387C212.97 76.7343 213.145 76.6177 213.203 75.9766C213.212 73.8259 213.017 71.6793 212.621 69.5654C211.513 64.3781 208.657 60.7062 203.353 59.3074C200.796 58.5908 198.121 58.3927 195.485 58.7246C191.172 59.1909 187.5 60.8811 184.936 64.553C184.528 65.0775 184.295 66.0101 183.887 66.1266C183.479 66.2432 182.663 65.5438 182.08 65.2524L181.555 65.0192C178.291 63.6787 174.911 63.5039 171.472 63.8536C165.527 64.4364 160.923 68.1083 159.291 73.7618C158.185 77.362 158.124 81.2024 159.116 84.8357C160.457 89.7898 163.662 93.112 168.616 94.5691C172.656 95.7536 176.956 95.713 180.972 94.4525C183.503 93.6495 185.696 92.0302 187.209 89.8481C187.5 89.3818 187.5 89.1487 187.034 88.8573C186.202 88.38 185.47 87.7467 184.877 86.9922C184.12 85.71 183.012 85.4768 181.672 85.5934C181.264 85.6517 180.972 85.71 180.798 86.1762C180.507 86.9512 180.031 87.6431 179.411 88.1918C178.791 88.7404 178.047 89.1289 177.242 89.3235C175.73 89.7891 174.122 89.8494 172.58 89.4984C171.504 89.3184 170.495 88.8568 169.656 88.1607C168.817 87.4646 168.176 86.5587 167.8 85.5351C167.44 84.6352 167.186 83.6963 167.043 82.7375C166.926 81.9798 167.043 81.8049 167.8 81.8049H182.663C182.908 81.7642 183.161 81.8122 183.374 81.9403C183.588 82.0684 183.749 82.2684 183.828 82.5044C185.258 85.5234 187.809 87.8655 190.939 89.0321C195.495 90.7612 200.519 90.8026 205.102 89.1487C208.89 87.8665 211.28 85.0688 212.562 81.2804C212.737 80.6976 212.621 80.5227 211.979 80.5227H205.452C205.228 80.4885 205 80.5422 204.815 80.6727C204.63 80.8031 204.503 81 204.461 81.2221C204.099 82.1274 203.468 82.9002 202.654 83.4369C198.458 86.2928 192.513 84.2529 191.114 79.357C190.939 78.7742 190.822 78.1331 190.706 77.5502C190.589 76.9674 190.706 76.7343 191.405 76.7343ZM190.822 71.2556C191.23 68.5745 192.163 66.2432 194.786 65.0192C199.507 62.8627 204.344 65.8352 204.577 71.0225C204.636 71.547 204.461 71.6636 203.936 71.6636H191.405C191.172 71.6636 190.764 71.7802 190.822 71.2556ZM180.157 76.7926C178.117 76.7343 176.077 76.7926 173.978 76.7926C171.88 76.7926 169.899 76.7343 167.8 76.7926C167.276 76.7926 167.043 76.676 167.159 76.0349C167.311 75.1978 167.545 74.3778 167.859 73.5869C169.141 70.4979 171.88 69.0991 175.494 69.5654C179.107 70.0316 180.39 72.0716 180.856 75.3355C180.844 75.5316 180.863 75.7285 180.914 75.9183C181.089 76.5594 180.856 76.7926 180.157 76.7926Z" fill="#295864"/>
<path d="M167.624 55.752C167.624 54.528 167.624 54.4697 166.342 54.4114C164.851 54.3184 163.358 54.5636 161.975 55.1288C160.593 55.694 159.356 56.5646 158.357 57.6753C157.52 58.6652 156.76 59.7173 156.084 60.8226V53.7703C153.17 54.9943 150.314 55.1108 147.516 53.4206V57.5005C147.542 57.6078 147.545 57.7191 147.526 57.8279C147.508 57.9366 147.467 58.0404 147.407 58.133C147.347 58.2256 147.269 58.3051 147.178 58.3667C147.086 58.4283 146.983 58.4707 146.875 58.4913C145.593 58.9576 144.369 59.4238 143.145 60.0067C141.921 60.5895 142.387 60.0649 142.387 59.4238V45.6689C142.431 45.3532 142.391 45.0315 142.27 44.7363C140.005 46.4465 137.159 47.1999 134.344 46.8345C133.761 46.7763 133.819 47.126 133.819 47.4757V52.1966C133.865 52.5891 133.825 52.9867 133.703 53.3623L128.632 48.9328V54.0034C128.613 54.2121 128.646 54.4221 128.727 54.6151C128.809 54.8082 128.936 54.9784 129.098 55.1108L133.062 58.5496C133.312 58.7515 133.512 59.01 133.643 59.3037C133.775 59.5975 133.835 59.9183 133.819 60.2398C133.742 66.7676 133.742 73.2954 133.819 79.8231C133.819 84.1944 135.801 86.4675 140.056 87.1086C142.214 87.4582 144.409 87.517 146.583 87.2834C147.341 87.2252 147.516 87.4 147.516 88.1577V106.925C147.516 107.624 147.691 107.799 148.39 107.799C150.605 107.741 152.82 107.741 155.093 107.799C155.967 107.799 156.142 107.566 156.142 106.692C156.084 95.1518 156.142 83.6116 156.142 72.0714C156.121 70.8122 156.278 69.5564 156.608 68.3412C157.424 64.9025 159.581 62.9791 163.078 62.4546C164.358 62.2894 165.656 62.3287 166.924 62.5711C167.566 62.6877 167.682 62.4546 167.682 61.8717C167.624 59.8318 167.624 57.7919 167.624 55.752ZM147.516 72.2462V79.8231C147.516 80.406 147.341 80.6391 146.758 80.5808C145.941 80.6294 145.12 80.5903 144.31 80.4643C143.859 80.4017 143.442 80.1897 143.125 79.8623C142.808 79.5348 142.61 79.1107 142.562 78.6575C142.443 78.1019 142.385 77.5353 142.387 76.9672V66.7676C142.353 66.544 142.407 66.3159 142.537 66.1312C142.667 65.9464 142.864 65.8194 143.086 65.7768L146.7 64.2614C147.341 64.0282 147.574 64.0282 147.516 64.7859V72.2462Z" fill="#E77D38"/>
<path d="M99.6658 55.9849C98.397 56.7361 96.9517 57.1373 95.4772 57.1476C94.0028 57.1578 92.552 56.7767 91.2729 56.0431V60.0647C90.8649 60.0064 90.8649 59.7733 90.7484 59.5985C89.4752 57.5843 87.5036 56.1108 85.2114 55.4603C82.189 54.5482 78.9417 54.7321 76.0416 55.9796C73.1415 57.2271 70.7747 59.4581 69.3582 62.2795C66.7354 67.4085 66.6772 72.7706 68.2508 78.1327C70.6405 86.3507 77.4597 88.7403 84.104 87.5164C85.5608 87.269 86.9503 86.7216 88.1844 85.9089C89.4184 85.0962 90.4702 84.036 91.2729 82.7954C91.2729 84.4856 91.3312 86.1758 91.2146 87.8661C91.098 89.5563 90.6901 91.5962 89.2913 93.0533C87.8924 94.5104 84.9783 95.2681 82.4138 94.9184C79.8493 94.5687 78.2174 93.403 77.4597 90.9551C77.2848 90.4888 76.9934 90.5471 76.6437 90.5471H69.5914C68.2508 90.5471 68.2508 90.5471 68.5423 91.9459C69.3582 95.7927 71.8644 98.124 75.3615 99.6394C78.8585 101.155 83.0549 101.33 87.0182 100.805C90.9815 100.281 93.3128 99.4063 95.819 97.1332C98.3252 94.8601 99.8406 90.6637 99.8406 86.7004C99.8989 76.6756 99.8406 66.6508 99.8406 56.626C99.8406 56.3929 99.9572 56.1597 99.6658 55.9849ZM90.3404 76.3259C89.7459 77.939 88.5826 79.2794 87.0693 80.0951C85.5559 80.9109 83.7967 81.1457 82.1224 80.7555C81.0574 80.566 80.0608 80.1002 79.2323 79.4046C78.4038 78.7091 77.7725 77.8083 77.4014 76.7922C76.6551 75.022 76.2782 73.118 76.294 71.1969C76.2439 69.3104 76.6226 67.4372 77.4014 65.7183C78.6254 63.2121 80.5487 61.8715 83.4046 61.8132C86.2605 61.755 88.7084 62.7458 89.9907 65.5434C90.825 67.2085 91.2884 69.0348 91.3488 70.8963C91.4091 72.7578 91.0651 74.6102 90.3404 76.3259Z" fill="#295864"/>
</svg>
