<svg id="Artwork" xmlns="http://www.w3.org/2000/svg" viewBox="0 0 288 108"><defs><style>.cls-1{fill:#e10600;}</style></defs><path class="cls-1" d="M219.25,77.64h2.38V84h1.31V77.64h2.38V76.5h-6.07ZM226.17,84h1.25V78.21h0L229.52,84h1.08l2.08-5.79h0V84H234V76.5h-1.82l-2,5.87h0L228,76.5h-1.85Z"/><path class="cls-1" d="M84.56,58.18,57.94,84H24L66.23,42.09C81.93,26.55,89.5,24,116.27,24H222L199.06,46.47H119.3C99.3,46.47,95,48,84.56,58.18Zm111.07-8.12H119.78c-20.15,0-23.3,1.54-32.43,10.67L64.08,84H95.55L103,76.51c4.95-5,7.16-5.42,17.14-5.42H174.6ZM203.84,84,264,24H226.63l-60,60Z"/></svg> 
