<?xml version="1.0" encoding="UTF-8"?>
<svg version="1.1" viewBox="0 0 256 256" xmlns="http://www.w3.org/2000/svg">
<title>ZWALL</title>
<g fill="none" fill-rule="evenodd">
<g transform="translate(-384 -384)" fill-rule="nonzero">
<g transform="translate(384 384)">
<circle id="b" cx="128.51" cy="128" r="121.97" fill="#fff"/>
<path id="a" d="m245.98 78.373c-25.497-60.56-92.736-91.946-155.53-72.599-62.796 19.347-100.71 83.131-87.708 147.54 13.006 64.409 72.702 108.48 138.09 101.95 65.383-6.5351 115.18-61.552 115.18-127.26 0.022854-17.047-3.385-33.924-10.021-49.627zm-29.384-26.48-151.49 173.76c-4.6396-3.0238-9.0593-6.3724-13.226-10.021l153-175.49c4.177 3.636 8.0922 7.5622 11.716 11.749zm-88.085-40.356c21.421-0.025525 42.428 5.8928 60.685 17.096l-150.84 173.01c-17.034-20.76-26.333-46.79-26.306-73.643 0-64.217 52.245-116.46 116.46-116.46zm0 232.92c-15.777 0.013003-31.39-3.1974-45.881-9.4343l145.65-167.05c10.942 18.105 16.714 38.862 16.689 60.017 0 64.217-52.246 116.46-116.46 116.46z" fill="#6F16FD"/>
<circle cx="128.51" cy="128" r="97.52" fill="#fff"/>
<rect x="86.571" y="95.11" width="83.878" height="64.831" fill="#6F16FD"/>
<path d="m222.9 95.108c-1.5593-4.5582-3.4513-8.9957-5.6606-13.277-4.7452-9.1692-10.881-17.548-18.19-24.84-17.614-17.614-40.657-27.831-65.356-29.088l-0.33402-0.015299c-1.6064-0.076494-3.2212-0.11474-4.8446-0.11474-1.6234 0-3.2382 0.038247-4.8446 0.11474l-0.33402 0.015299c-24.7 1.2571-47.742 11.474-65.356 29.088-7.3144 7.2906-13.456 15.67-18.206 24.84-2.2093 4.2811-4.1012 8.7186-5.6606 13.277-7.1454 21.02-7.1454 43.811 0 64.831 1.5595 4.5606 3.4515 9.0006 5.6606 13.284 4.7459 9.168 10.882 17.546 18.19 24.838 17.614 17.617 40.657 27.831 65.356 29.088l0.33402 0.015299c1.6064 0.079894 3.2212 0.11814 4.8446 0.11495 1.6234-0.003608 3.2382-0.041855 4.8446-0.11495l0.33402-0.015299c24.7-1.2571 47.742-11.474 65.356-29.088 7.3138-7.2902 13.455-15.669 18.206-24.838 2.2116-4.2828 4.1061-8.722 5.6682-13.282 7.1454-21.02 7.1454-43.811 0-64.831l-0.007649-0.0025498zm-94.394 122.14c-1.6251 0-3.2399-0.043347-4.8446-0.13004v-47.146h-74.199c-1.7484-3.2431-3.294-6.5914-4.6279-10.026h31.707v-64.834h-31.704c1.3337-3.4332 2.8784-6.7807 4.6253-10.023h74.199v-47.156c1.6047-0.086693 3.2195-0.13004 4.8446-0.13004s3.2399 0.043347 4.8446 0.13004v47.156h74.199c1.7469 3.2426 3.2916 6.59 4.6253 10.023h-31.704v64.834h31.704c-1.3331 3.4343-2.8779 6.7827-4.6253 10.026h-74.199v47.156c-1.603 0.079894-3.2178 0.11984-4.8446 0.11984z" fill="#6F16FD"/>
</g>
</g>
</g>
</svg>
