<?xml version="1.0" standalone="no"?>
<!DOCTYPE svg PUBLIC "-//W3C//DTD SVG 20010904//EN"
 "http://www.w3.org/TR/2001/REC-SVG-20010904/DTD/svg10.dtd">
<svg version="1.0" xmlns="http://www.w3.org/2000/svg"
 width="400.000000pt" height="400.000000pt" viewBox="0 0 400.000000 400.000000"
 preserveAspectRatio="xMidYMid meet">

<g transform="translate(0.000000,400.000000) scale(0.100000,-0.100000)"
fill="#000000" stroke="none">
<path d="M3090 3914 c-130 -201 -270 -324 -368 -324 -16 0 -77 18 -137 41 -84
32 -126 42 -194 46 -168 11 -310 -36 -426 -139 -52 -46 -69 -56 -125 -67 -81
-16 -193 -67 -273 -125 -73 -52 -187 -167 -211 -214 -21 -40 -35 -149 -36
-270 0 -90 -1 -93 -25 -102 -27 -10 -45 -45 -45 -89 0 -43 -10 -44 -56 -1 -34
31 -51 40 -79 40 l-36 0 -74 154 c-110 230 -198 435 -270 630 l-18 49 -58 -6
c-123 -13 -248 -74 -326 -160 -63 -69 -63 -78 3 -198 96 -174 286 -593 273
-602 -2 -2 -33 -16 -69 -31 -132 -56 -285 -154 -384 -246 -40 -37 -112 -128
-140 -177 -8 -14 106 -93 180 -126 l40 -18 0 -112 c-1 -93 3 -123 23 -177 22
-63 96 -180 116 -186 6 -2 23 25 38 59 l29 62 22 -75 c12 -41 54 -138 94 -215
40 -77 79 -169 88 -205 9 -36 18 -67 20 -69 7 -7 63 50 101 103 l36 48 19 -23
c33 -43 106 -193 128 -264 13 -39 25 -112 29 -164 l6 -95 36 32 c20 18 42 46
49 62 7 18 18 29 25 26 7 -2 53 -31 102 -64 121 -81 207 -132 421 -247 l183
-99 56 -106 c148 -278 144 -273 158 -253 10 15 88 162 165 310 22 44 67 73
295 194 114 60 279 160 375 226 l64 45 15 -23 c9 -13 34 -42 56 -64 l40 -40 6
100 c4 64 14 124 28 165 32 92 127 280 142 280 4 0 18 -17 32 -38 29 -41 105
-118 110 -111 1 2 10 36 20 74 9 39 49 135 87 215 38 80 76 172 85 204 8 32
16 61 18 63 6 5 31 -36 47 -77 7 -19 17 -39 21 -44 10 -12 83 103 109 172 33
88 43 150 36 232 l-6 75 93 48 c50 26 103 57 116 68 21 17 23 22 12 46 -23 49
-110 150 -178 205 -103 83 -153 114 -288 180 -69 33 -125 62 -125 64 0 27 204
449 293 606 l55 97 -27 43 c-69 109 -226 194 -384 210 -27 3 -30 -1 -81 -132
-60 -152 -151 -350 -256 -559 -67 -136 -71 -141 -101 -141 -22 0 -44 -12 -77
-41 l-47 -41 -6 45 c-9 58 -25 87 -49 87 -16 0 -20 7 -21 33 0 17 -4 91 -8
162 -9 149 -19 179 -90 257 l-46 51 35 -6 c19 -4 77 -28 127 -52 112 -55 173
-70 238 -61 l48 8 -49 28 c-27 15 -60 39 -73 54 l-24 25 29 11 c33 13 114 62
114 70 0 3 -30 10 -67 16 -69 11 -213 62 -248 88 -18 13 -17 15 16 32 27 14
52 17 119 15 148 -4 283 56 383 169 43 50 107 174 95 185 -3 3 -31 -10 -63
-30 -33 -19 -64 -35 -69 -35 -7 0 -10 34 -8 100 2 59 0 100 -6 100 -5 0 -28
-30 -52 -66z m25 -111 c-4 -36 -9 -73 -12 -80 -7 -17 30 -4 87 32 22 14 40 21
40 16 0 -15 -75 -105 -114 -138 -20 -16 -55 -40 -79 -53 l-42 -23 26 29 c14
16 32 38 40 48 16 22 9 20 -41 -14 -40 -27 -137 -60 -178 -60 l-37 0 52 30
c75 43 162 128 213 209 25 39 47 71 49 71 2 0 0 -30 -4 -67z m-608 -223 c43
-12 82 -26 87 -30 4 -5 -5 -15 -21 -23 -26 -14 -34 -14 -84 2 -123 41 -217 35
-303 -19 -42 -27 -50 -29 -112 -23 l-67 6 29 24 c39 31 126 72 177 83 64 14
207 4 294 -20z m-10 -105 c110 -35 115 -41 46 -49 -32 -4 -71 -13 -86 -19 -24
-10 -14 -12 75 -13 92 -1 116 -6 223 -42 l120 -40 -47 -12 c-27 -7 -48 -17
-48 -22 0 -5 21 -29 46 -53 25 -25 42 -45 37 -45 -4 0 -52 24 -106 54 -125 69
-164 84 -234 92 -43 5 -73 16 -113 43 -31 20 -79 47 -108 60 -28 14 -52 28
-52 31 0 17 69 40 117 40 29 0 87 -11 130 -25z m-1822 -78 l24 -57 -82 -38
c-45 -21 -106 -58 -135 -81 -39 -31 -57 -40 -65 -32 -8 8 9 30 60 81 76 76 67
82 -33 20 -61 -37 -84 -38 -84 -4 0 16 68 76 123 108 48 29 146 67 161 63 4
-2 19 -28 31 -60z m2811 17 c38 -19 92 -54 119 -78 48 -41 49 -44 37 -71 l-13
-28 -27 25 c-22 21 -121 78 -135 78 -3 0 26 -31 64 -70 92 -94 85 -118 -14
-44 -39 30 -100 66 -134 81 -35 15 -63 33 -63 39 0 6 10 34 21 63 25 60 30 60
145 5z m-1345 -10 c157 -29 314 -128 371 -236 19 -35 23 -59 23 -128 0 -74 -4
-93 -27 -138 l-27 -52 30 22 c35 26 74 75 91 115 11 24 13 11 16 -106 2 -118
1 -135 -15 -147 -10 -8 -67 -39 -128 -69 -121 -60 -242 -98 -380 -120 -79 -13
-102 -13 -180 0 -145 23 -261 61 -395 128 l-125 62 -6 50 c-4 28 -4 90 -1 138
l5 88 24 -43 c29 -50 48 -73 84 -98 l25 -19 -28 56 c-33 66 -38 160 -12 238
36 103 206 225 354 254 30 6 64 13 75 15 47 9 149 5 226 -10z m-1381 -211 c17
-42 197 -418 237 -494 2 -3 -45 -18 -104 -34 -59 -15 -112 -29 -118 -31 -5 -2
-25 29 -43 68 -41 92 -112 221 -118 215 -3 -2 5 -29 17 -58 52 -132 86 -240
77 -245 -5 -3 -11 -4 -13 -3 -2 2 -31 69 -65 149 -34 80 -85 190 -113 244
l-50 99 34 29 c69 59 211 134 230 122 4 -2 17 -30 29 -61z m2628 20 c31 -16
78 -48 104 -73 l48 -45 -67 -130 c-37 -71 -89 -179 -115 -240 -26 -60 -52
-111 -58 -113 -5 -2 -10 -2 -10 0 0 7 55 166 84 243 36 97 9 59 -70 -98 -53
-105 -68 -128 -82 -122 -9 4 -62 18 -117 33 -55 14 -102 27 -103 28 -2 1 15
35 39 76 40 67 168 329 217 440 24 54 19 54 130 1z m-2001 -539 c116 -80 314
-153 498 -184 111 -19 123 -19 214 -5 184 29 381 99 505 178 84 55 91 50 90
-53 -1 -110 -23 -178 -72 -222 -71 -64 -344 -188 -414 -188 -13 0 15 16 61 35
109 45 119 56 34 36 -96 -22 -459 -21 -558 1 -38 9 -83 19 -100 22 -16 3 15
-16 70 -44 109 -54 101 -66 -17 -24 -109 39 -255 114 -303 156 -51 45 -70 89
-85 196 -16 122 3 146 77 96z m-228 -48 c8 -10 5 -26 -13 -67 -45 -101 -43
-108 14 -46 28 31 55 57 59 57 3 0 14 -7 25 -15 18 -13 16 -17 -32 -71 -65
-72 -107 -153 -132 -250 -11 -43 -22 -79 -24 -81 -2 -3 -7 33 -11 79 -11 126
17 275 69 376 18 35 28 39 45 18z m1744 -43 c44 -99 60 -179 60 -299 0 -135
-11 -163 -29 -74 -18 88 -71 193 -134 269 -50 60 -52 65 -35 77 10 8 22 14 26
14 4 0 31 -26 59 -57 56 -63 59 -54 12 45 -20 42 -22 55 -12 67 20 24 26 19
53 -42z m-1877 -40 c-28 -82 -30 -98 -30 -243 -1 -85 1 -180 4 -210 l5 -55
-162 -3 -161 -2 -10 27 c-7 23 -4 39 21 87 26 53 28 64 18 95 -10 33 -8 41 25
96 l36 60 -51 -49 -50 -50 -48 11 c-61 14 -67 9 -15 -12 38 -16 56 -39 64 -87
2 -9 -18 -41 -44 -71 -27 -31 -48 -65 -48 -77 0 -18 -4 -21 -27 -16 -16 3 -57
10 -93 16 -133 23 -330 88 -330 110 0 11 71 79 125 120 73 56 192 115 290 146
47 15 84 28 83 29 -2 1 -39 -2 -82 -6 -44 -5 -81 -8 -82 -6 -6 5 210 88 298
114 91 27 241 61 274 62 20 1 19 -1 -10 -86z m2065 63 c58 -13 136 -33 172
-45 74 -23 277 -101 277 -106 0 -2 -33 -2 -72 1 l-73 5 75 -26 c89 -31 194
-83 259 -127 51 -35 151 -127 151 -138 0 -11 -86 -46 -183 -74 -165 -48 -257
-59 -482 -60 l-210 -1 2 35 c1 19 5 88 9 152 9 150 -10 271 -61 391 -10 23 6
22 136 -7z m-1873 -352 c-30 -69 -30 -210 1 -309 26 -84 77 -191 126 -264 20
-29 34 -56 31 -58 -8 -8 -126 152 -160 217 -84 161 -88 315 -11 432 35 52 41
44 13 -18z m1610 -34 c67 -143 22 -330 -128 -520 -62 -78 -88 -94 -40 -24 44
63 116 218 135 289 9 33 16 96 16 140 1 70 -6 106 -36 190 l-7 20 17 -20 c10
-11 29 -45 43 -75z m-1399 -97 c59 -123 162 -252 255 -320 75 -55 87 -55 28 1
-26 25 -44 48 -39 52 4 4 24 2 46 -4 58 -18 103 -15 179 13 38 14 85 25 104
25 19 0 68 -11 108 -25 84 -29 130 -31 189 -10 56 19 53 3 -11 -58 l-51 -50
44 24 c92 51 205 182 293 339 42 76 43 68 16 -92 -32 -188 -45 -213 -180 -358
-166 -177 -253 -258 -295 -276 -56 -23 -176 -20 -230 6 -58 28 -390 368 -416
425 -10 22 -23 63 -29 90 -20 84 -47 265 -40 265 3 0 16 -21 29 -47z m218 16
c43 -16 173 -92 173 -101 0 -4 -36 -8 -79 -8 -68 0 -84 3 -106 23 -15 13 -28
37 -32 60 -6 40 -1 43 44 26z m763 -4 c0 -29 -28 -83 -48 -94 -30 -16 -175
-15 -170 1 5 15 181 108 203 108 8 0 15 -7 15 -15z m-1965 -225 c50 -13 107
-27 128 -32 34 -8 37 -11 37 -44 0 -20 17 -76 37 -125 l38 -88 26 25 c15 14
35 41 45 60 10 19 21 34 24 34 3 0 12 -16 19 -36 7 -19 38 -72 69 -117 61 -90
81 -134 82 -186 0 -30 2 -32 17 -20 9 8 29 34 44 57 l28 44 5 -34 c3 -18 7
-103 10 -188 7 -205 33 -307 108 -413 36 -51 12 -39 -45 23 l-56 60 -12 -42
-12 -43 -13 65 c-18 93 -47 166 -106 261 -28 46 -67 110 -87 143 -33 55 -36
57 -44 35 -5 -13 -25 -57 -44 -96 -33 -71 -53 -91 -53 -55 0 27 -41 123 -99
232 -56 106 -76 171 -86 282 l-7 76 -30 -34 c-17 -19 -45 -62 -63 -95 l-33
-61 -33 68 c-31 62 -34 77 -34 154 0 98 7 124 33 117 9 -2 58 -15 107 -27z
m3254 -7 c21 -76 5 -186 -40 -275 l-21 -41 -33 69 c-19 38 -50 85 -69 103
l-36 35 0 -67 c0 -99 -25 -185 -95 -321 -34 -67 -70 -145 -79 -173 -10 -29
-19 -53 -21 -53 -8 0 -49 80 -69 133 l-22 58 -88 -140 c-89 -142 -132 -243
-143 -331 -7 -56 -17 -57 -28 -4 l-6 37 -46 -52 c-55 -63 -101 -93 -60 -39 76
99 107 222 116 462 l6 179 38 -56 c20 -31 42 -57 47 -57 6 0 10 18 10 40 0 49
11 73 82 185 32 49 63 104 69 122 l10 32 42 -61 c23 -34 47 -61 52 -60 6 1 13
16 17 34 4 19 21 63 37 98 17 36 31 75 31 88 0 17 7 24 28 28 15 3 74 18 132
33 58 16 110 29 117 30 7 0 17 -16 22 -36z m-2449 -331 c25 -24 122 -94 215
-157 94 -62 192 -136 220 -164 53 -55 54 -62 3 -32 -33 20 -249 93 -255 87 -7
-6 85 -102 166 -173 78 -68 198 -155 233 -168 12 -5 32 23 81 117 99 186 82
183 166 27 40 -74 76 -138 81 -143 12 -12 160 88 260 176 87 77 177 177 150
166 -8 -3 -55 -18 -105 -33 -49 -15 -111 -38 -138 -51 l-48 -25 15 23 c24 37
91 88 251 194 108 70 176 123 241 189 l91 91 -49 -190 c-63 -247 -72 -274
-126 -380 -36 -70 -67 -111 -140 -187 -51 -54 -127 -124 -169 -156 l-75 -57
-56 29 c-55 30 -56 31 -152 208 -53 98 -101 179 -106 179 -5 1 -52 -79 -106
-178 -90 -167 -99 -180 -145 -206 -26 -15 -53 -28 -60 -28 -18 0 -160 115
-234 190 -151 153 -197 252 -289 620 -17 69 -33 134 -36 145 -3 12 10 2 33
-25 21 -25 58 -64 83 -88z m-110 -212 c0 -58 32 -226 54 -289 22 -61 75 -129
169 -217 95 -89 87 -87 -40 8 -108 80 -147 124 -169 190 -27 82 -46 358 -24
358 6 0 10 -22 10 -50z m1744 -100 c-12 -216 -38 -273 -176 -380 -102 -79
-203 -144 -123 -79 73 59 171 163 198 210 34 58 73 207 83 319 7 73 9 80 15
50 5 -19 6 -73 3 -120z m-799 -383 l77 -143 118 -64 c65 -36 117 -66 116 -68
-2 -1 -61 22 -132 53 l-129 56 -54 102 c-84 158 -70 155 -136 33 -31 -58 -64
-114 -73 -125 -15 -17 -251 -125 -258 -118 -2 1 50 32 114 67 l116 65 44 80
c89 162 113 205 117 205 2 0 38 -64 80 -143z m-2 -227 c44 -50 34 -115 -23
-145 -40 -20 -79 -19 -118 5 -50 31 -60 79 -27 131 37 58 120 63 168 9z"/>
<path d="M2300 2835 c-165 -88 -421 -89 -595 -2 -40 19 -40 19 -22 0 24 -27
113 -71 178 -88 68 -19 218 -19 285 -1 60 16 165 70 190 97 21 23 20 23 -36
-6z"/>
<path d="M644 3145 c-28 -14 -60 -35 -70 -47 l-19 -21 55 6 c54 7 71 18 101
70 14 24 -5 22 -67 -8z"/>
<path d="M705 3029 c-22 -11 -49 -29 -60 -40 l-20 -21 50 7 c47 6 62 17 86 58
13 23 -4 22 -56 -4z"/>
<path d="M765 2926 c-27 -13 -59 -31 -70 -40 -19 -15 -18 -15 22 -16 42 0 70
18 94 63 12 21 14 22 -46 -7z"/>
<path d="M825 2834 c-22 -8 -53 -26 -70 -40 l-30 -25 44 6 c24 3 48 8 52 11 8
5 53 65 47 63 -2 0 -21 -7 -43 -15z"/>
<path d="M833 2720 c-29 -17 -53 -34 -53 -38 0 -18 76 2 103 26 53 50 27 56
-50 12z"/>
<path d="M3310 3131 c31 -38 61 -51 117 -51 37 0 15 23 -60 60 -82 41 -95 39
-57 -9z"/>
<path d="M3240 3043 c1 -5 11 -20 23 -35 16 -19 36 -28 71 -34 61 -8 56 4 -17
46 -51 29 -77 37 -77 23z"/>
<path d="M3190 2942 c0 -4 13 -22 29 -40 25 -26 37 -32 72 -32 l42 0 -24 19
c-42 32 -119 67 -119 53z"/>
<path d="M3150 2832 c23 -40 38 -51 83 -57 26 -4 47 -5 47 -2 0 8 -77 53 -113
66 -25 10 -27 9 -17 -7z"/>
<path d="M3115 2718 c21 -25 38 -34 71 -38 24 -3 44 -3 44 0 0 8 -62 48 -93
59 -46 18 -50 13 -22 -21z"/>
<path d="M1495 1880 c19 -71 82 -143 191 -219 37 -26 27 -13 -43 53 -50 47
-106 110 -123 139 -17 28 -28 41 -25 27z"/>
<path d="M2500 1868 c-7 -18 -61 -80 -119 -137 l-106 -103 80 60 c45 33 93 76
108 96 29 38 61 105 54 112 -2 3 -10 -10 -17 -28z"/>
</g>
</svg>
